<svg width="38" height="38" viewBox="0 0 38 38" fill="none" xmlns="http://www.w3.org/2000/svg">
<path d="M19 5.19531C11.3777 5.19531 5.19531 11.3777 5.19531 19C5.19531 26.6223 11.3777 32.8047 19 32.8047C26.6223 32.8047 32.8047 26.6223 32.8047 19C32.8047 11.3777 26.6223 5.19531 19 5.19531ZM25.843 15.5006L19.2375 24.6295C19.2102 24.6674 19.1742 24.6983 19.1326 24.7196C19.091 24.7409 19.0449 24.752 18.9981 24.752C18.9514 24.752 18.9053 24.7409 18.8637 24.7196C18.8221 24.6983 18.7861 24.6674 18.7588 24.6295L12.1533 15.5006C12.0123 15.3039 12.1533 15.0293 12.3945 15.0293H14.135C14.5172 15.0293 14.8734 15.2111 15.0961 15.5191L19 20.9148L22.9039 15.5191C23.1266 15.2111 23.4865 15.0293 23.865 15.0293H25.6055C25.8467 15.0293 25.9877 15.3039 25.843 15.5006Z" fill="#767676" fill-opacity="0.1"/>
<path d="M19 2.375C9.81914 2.375 2.375 9.81914 2.375 19C2.375 28.1809 9.81914 35.625 19 35.625C28.1809 35.625 35.625 28.1809 35.625 19C35.625 9.81914 28.1809 2.375 19 2.375ZM19 32.8047C11.3777 32.8047 5.19531 26.6223 5.19531 19C5.19531 11.3777 11.3777 5.19531 19 5.19531C26.6223 5.19531 32.8047 11.3777 32.8047 19C32.8047 26.6223 26.6223 32.8047 19 32.8047Z" fill="#828282"/>
<path d="M25.6055 15.0293H23.865C23.4865 15.0293 23.1265 15.2111 22.9039 15.5191L19 20.9148L15.0961 15.5191C14.8734 15.2111 14.5172 15.0293 14.1349 15.0293H12.3945C12.1533 15.0293 12.0123 15.3039 12.1533 15.5006L18.7588 24.6295C18.8775 24.7928 19.1187 24.7928 19.2375 24.6295L25.843 15.5006C25.9877 15.3039 25.8467 15.0293 25.6055 15.0293Z" fill="#828282"/>
</svg>
