<svg width="5760" height="629" fill="none" xmlns="http://www.w3.org/2000/svg"><path fill="#001E20" d="M1920 0h1920v629H1920z"/><path fill="#001E20" d="M0 0h1949v629H0zM3807 0h1953v629H3807z"/><path d="M3100.5 0h2657v629H3495L3100.5 0z" fill="#001E20" opacity=".2"/><path d="M3407.36 252.721h-51.31v49.906h-38.04v-49.906H3267v-35.815h51.01V167h38.04v49.906h51.31v35.815z" fill="#FDBF40"/><path fill-rule="evenodd" clip-rule="evenodd" d="M3336.39 167h-18.38v49.906H3267v35.815h51.01v49.906h38.04-19.66V167z" fill="#FFC856"/><path d="M3291 119.394h-20.84V140h-15.44v-20.606H3234v-14.788h20.72V84h15.44v20.606H3291v14.788z" fill="#007550" opacity=".2"/><path d="M3684 69.524h-40.94V110h-30.35V69.524H3572V40.476h40.71V0h30.35v40.476H3684v29.048zM3960 479.792h-88.1V567h-65.31v-87.208H3719v-62.584h87.59V330h65.31v87.208h88.1v62.584z" fill="#007550" opacity=".1"/><path d="M2279 580.442h-16.82V597h-12.46v-16.558H2233v-11.884h16.72V552h12.46v16.558H2279v11.884z" fill="#FF513F" opacity=".1"/><path d="M3302 431.706h-17.55V449h-13v-17.294H3254v-12.412h17.45V402h13v17.294H3302v12.412z" fill="#fff" opacity=".03"/></svg>