<svg width="15" height="11" viewBox="0 0 15 11" fill="none" xmlns="http://www.w3.org/2000/svg">
<path d="M14.9084 5.27906L10.2209 0.59156C10.0989 0.46948 9.90111 0.46948 9.77906 0.59156C9.65698 0.71364 9.65698 0.911394 9.77906 1.03344L13.9331 5.18751H0.31251C0.139775 5.18751 0 5.32728 0 5.50002C0 5.67275 0.139775 5.81253 0.31251 5.81253H13.9331L9.77906 9.96656C9.65698 10.0886 9.65698 10.2864 9.77906 10.4084C9.84009 10.4695 9.92007 10.5 10 10.5C10.08 10.5 10.1599 10.4695 10.221 10.4084L14.9085 5.72094C15.0305 5.59889 15.0305 5.40114 14.9084 5.27906Z" fill="#4F4F4F"/>
</svg>
