<svg width="235" height="135" viewBox="0 0 235 135" fill="none" xmlns="http://www.w3.org/2000/svg">
<g style="mix-blend-mode:multiply" opacity="0.6">
<path d="M235 131.847C235 138.942 178.26 131.847 113.367 131.847C48.4734 131.847 0 138.942 0 131.847C0 124.752 52.6065 119 117.5 119C182.393 119 235 124.752 235 131.847Z" fill="#001E20"/>
</g>
<path d="M200.465 53.2237L200.414 53.5366L200.239 54.57L188.734 122.551H39.8114L38.6689 118.353H45.6548L45.6257 118.258L44.6943 115.296H50.9888L50.967 115.202L49.8973 111.505H78.8305L78.8159 111.418L78.5176 109.635L78.3502 108.594L77.9718 106.346L77.7098 104.788L77.004 100.553L76.8293 99.5052L75.4249 91.1003L75.3521 90.6564L74.8936 87.8984L74.719 86.8724L74.2751 84.2018L74.1878 83.6851L73.8749 81.8076L73.8603 81.6985L73.6857 80.6506L73.3145 78.4602L72.7397 75.0037L72.5432 73.803L71.4589 67.3265L71.2988 66.3441L70.9131 64.0373L70.6584 62.5382L69.9526 58.2958L69.7707 57.1897L69.4578 55.3195L68.992 52.5251L68.4172 49.105L68.0897 47.1329L68.0824 47.1111L67.624 44.3677L148.311 45.059L157.4 45.139L177.833 45.3137L178.678 45.321L200.436 53.2092L200.45 53.2165L200.465 53.2237Z" fill="url(#paint0_linear)"/>
<path d="M200.465 53.1294L200.174 54.8686L200.159 54.9486L188.734 122.464H39.8114L38.6689 118.258H45.6548L44.6943 115.202H50.9888L49.8973 111.418H78.8305L78.8232 111.367H146.339L152.939 58.6963L153.565 53.7188L154.031 50.0367L154.329 47.6571L154.358 47.6498L154.431 47.6426L156.541 47.4315L156.621 47.4243L178.678 45.2339L200.465 53.1294Z" fill="url(#paint1_linear)"/>
<path d="M206.264 45.2336L206.133 46.1941L206.126 46.2378L204.62 46.1941L204.605 46.2815L204.46 47.0383L204.14 48.6901L203.237 53.6312L200.465 53.5439L200.239 54.5699L200.174 54.8683L200.159 54.9483L166.663 49.1559L158.688 47.7805L157.094 47.504L156.621 47.4239L156.548 47.4094L154.511 47.0601L154.438 47.0455L149.759 46.2378L148.311 45.0589L92.9331 0L173.496 29.7628L197.845 41.6024L198.9 42.119L198.915 42.1336L198.886 42.2136L198.762 42.5338L198.405 43.458L206.264 45.2336Z" fill="url(#paint2_linear)"/>
<path d="M78.8229 111.366L78.8302 111.417H77.6004L77.2802 109.547H80.0164V108.354L78.3499 108.506L76.96 108.63L76.5962 106.258H79.7908V104.519L77.7095 104.701L76.5962 104.795L75.8175 100.553L77.0037 100.465L79.4269 100.276V99.4102H75.6356L75.3664 97.54H76.2323L75.9121 94.7529H74.8643L74.5004 91.2381L75.4246 91.0053L78.0516 90.3503L75.3518 90.5687L74.3621 90.6487L73.9983 87.9126L74.8934 87.8107L77.2365 87.5414V86.5882L74.7187 86.7774L73.6781 86.8574L73.2633 84.2086L74.2748 84.114L76.96 83.8447V83.3936L74.1875 83.59L73.176 83.6628L72.8777 81.6544L72.7176 80.5628H75.5483L75.2718 78.3725H72.8049L72.3028 74.945L72.7394 74.9086L74.6314 74.7631V73.7152H71.9899L70.891 67.2314H73.6272V66.0453L71.2985 66.2563L70.5709 66.3218L70.207 63.9495H73.4016V62.2103L70.6582 62.4505L70.207 62.4869L69.4284 58.2444L69.9523 58.2007L73.0378 57.9679V57.1019H69.2464L68.9772 55.2317H69.8432L69.523 52.4447L68.9917 52.4374L67.3326 52.401L66.9688 48.8862L68.4169 49.0099L77.2002 49.7886L80.2492 81.276L81.057 89.5935L83.029 89.0987L85.3285 111.366H78.8229Z" fill="url(#paint3_linear)"/>
<g style="mix-blend-mode:multiply" opacity="0.37">
<path d="M154.329 47.6566L146.339 111.366H142.838L146.12 77.8706L80.2492 81.2762L73.86 81.6036L72.8777 81.6546L72.7176 80.563H73.6854L73.3143 78.3727H72.8049L72.3028 74.9452L72.7394 74.9088L72.5429 73.7154H71.9899L70.891 67.2316H71.4586L71.2985 66.2565L70.5709 66.322L70.207 63.9497H70.9129L70.6582 62.4507L70.207 62.4871L69.4284 58.2446L69.9523 58.2009L69.7704 57.1021H69.2464L68.9772 55.2319H69.4575L68.9917 52.4376L67.3326 52.4012L66.9688 48.8864L68.4169 49.0101L68.0894 47.0381L154.329 47.6566Z" fill="#701E7E"/>
</g>
<g style="mix-blend-mode:color-dodge" opacity="0.93">
<path d="M53.0917 115.202H145.698L146.288 111.644L52.5459 113.288L53.0917 115.202Z" fill="#55FF00"/>
</g>
<g style="mix-blend-mode:color-dodge" opacity="0.93">
<path d="M49.621 118.076H139.033L139.397 115.885L49.0752 116.162L49.621 118.076Z" fill="#55FF00"/>
</g>
<g style="mix-blend-mode:color-dodge" opacity="0.93">
<path d="M43.7772 121.547H133.189L133.56 119.356L43.2314 119.633L43.7772 121.547Z" fill="#55FF00"/>
</g>
<path d="M206.264 45.2333L206.133 46.1938L169.247 34.3251V31.9092L198.762 42.5335L206.264 45.2333Z" fill="url(#paint4_linear)"/>
<g style="mix-blend-mode:multiply" opacity="0.37">
<path d="M99.0532 82.3459L101.513 111.366H103.383L102.226 82.9062L124.202 82.3459V81.4727L99.0532 82.3459Z" fill="#701E7E"/>
</g>
<g style="mix-blend-mode:multiply" opacity="0.6">
<path d="M103.347 83.8454L104.562 110.959H121.852L123.14 83.3433L103.347 83.8454Z" fill="#701E7E"/>
</g>
<g style="mix-blend-mode:multiply" opacity="0.6">
<path d="M112.246 85.0308V93.603L105.311 93.8723L104.671 85.0308H112.246Z" fill="#701E7E"/>
</g>
<g style="mix-blend-mode:multiply" opacity="0.6">
<path d="M105.399 95.0742H112.247V109.592H106.454L105.399 95.0742Z" fill="#701E7E"/>
</g>
<g style="mix-blend-mode:multiply" opacity="0.6">
<path d="M114.284 84.9148L114.32 93.4871L121.248 93.7199L121.852 84.8784L114.284 84.9148Z" fill="#701E7E"/>
</g>
<g style="mix-blend-mode:multiply" opacity="0.6">
<path d="M121.102 94.9717L114.262 94.8989L114.16 109.409L119.953 109.475L121.102 94.9717Z" fill="#701E7E"/>
</g>
<g style="mix-blend-mode:multiply" opacity="0.18">
<path d="M138.218 100.138H131.916V101.463H138.218V100.138Z" fill="#701E7E"/>
</g>
<g style="mix-blend-mode:multiply" opacity="0.18">
<path d="M137.672 85.2642H131.37V86.5886H137.672V85.2642Z" fill="#701E7E"/>
</g>
<g style="mix-blend-mode:multiply" opacity="0.18">
<path d="M128.678 106.761H124.661V108.085H128.678V106.761Z" fill="#701E7E"/>
</g>
<g style="mix-blend-mode:multiply" opacity="0.18">
<path d="M140.495 92.7002H136.479V94.0246H140.495V92.7002Z" fill="#701E7E"/>
</g>
<g style="mix-blend-mode:multiply" opacity="0.18">
<path d="M124.035 98.1292L123.984 99.9994L130.744 99.8684L130.802 97.7217L124.035 98.1292Z" fill="#701E7E"/>
</g>
<g style="mix-blend-mode:multiply" opacity="0.18">
<path d="M131.203 95.489L131.152 97.3592L137.912 97.2209L137.97 95.0742L131.203 95.489Z" fill="#701E7E"/>
</g>
<g style="mix-blend-mode:multiply" opacity="0.18">
<path d="M129.151 107.991L129.1 109.861L135.86 109.73L135.918 107.583L129.151 107.991Z" fill="#701E7E"/>
</g>
<g style="mix-blend-mode:multiply" opacity="0.18">
<path d="M99.65 100.873H93.3481V102.197H99.65V100.873Z" fill="#701E7E"/>
</g>
<g style="mix-blend-mode:multiply" opacity="0.18">
<path d="M99.6424 106.803H95.6255V108.128H99.6424V106.803Z" fill="#701E7E"/>
</g>
<g style="mix-blend-mode:multiply" opacity="0.18">
<path d="M88.8434 98.8645L88.7925 100.735L95.56 100.596L95.6183 98.4497L88.8434 98.8645Z" fill="#701E7E"/>
</g>
<g style="mix-blend-mode:multiply" opacity="0.18">
<path d="M92.6349 96.2161L92.584 98.0863L99.3443 97.948L99.4025 95.8086L92.6349 96.2161Z" fill="#701E7E"/>
</g>
<g style="mix-blend-mode:multiply" opacity="0.18">
<path d="M90.5827 108.725L90.5317 110.596L97.292 110.457L97.3502 108.311L90.5827 108.725Z" fill="#701E7E"/>
</g>
<g style="mix-blend-mode:color-dodge" opacity="0.93">
<path d="M163.636 31.9966V33.5975L29.1289 35.9043V34.1433L163.636 31.9966Z" fill="#55FF00"/>
</g>
<g style="mix-blend-mode:multiply" opacity="0.37">
<path d="M206.264 45.2334L206.133 46.194L206.126 46.2376L204.62 46.194L204.605 46.2813H204.62L204.46 47.0381L204.14 48.69L203.237 53.631H203.252H203.237L200.465 53.5437L200.239 54.5698L188.734 122.551H137.184L137.17 122.464L136.617 119.451H142.46L142.227 115.98H148.114L157.036 47.9113L157.05 47.824L157.087 47.5257L157.094 47.5038L157.109 47.3729L157.4 45.1388L157.836 41.8133L153.55 26.2915L157.836 26.5171L197.845 41.6022L198.9 42.1189L198.915 42.1334L198.886 42.2135L198.762 42.5337L206.264 45.2334Z" fill="#701E7E"/>
</g>
<path d="M63.2574 53.0205L63.2429 53.5299V53.559L63.2356 53.9883L63.1846 56.266L63.0973 60.4648L62.0567 109.555V109.57L62.0422 110.407H61.4964L57.5013 110.458L57.4067 109.708L50.9739 58.2308L50.4136 53.7118L50.399 53.6536L50.3408 53.1806L63.2574 53.0205Z" fill="url(#paint5_linear)"/>
<g style="mix-blend-mode:multiply" opacity="0.16">
<path d="M59.3356 55.356L60.318 110.399H59.9978C59.7359 103.086 57.3345 55.4142 57.3345 55.4142L59.3356 55.356Z" fill="#701E7E"/>
</g>
<path d="M64.939 53.5293H63.2216V53.5585L50.4214 53.7113L50.4142 53.653L47.7217 53.6822L46.521 49.7017L53.5578 49.6507L53.7252 49.6434L65.7176 49.2505L64.939 53.5293Z" fill="url(#paint6_linear)"/>
<g style="mix-blend-mode:color-dodge" opacity="0.89">
<path d="M48.9146 50.2985L49.5695 51.8485L59.488 51.4628L59.4734 50.1748L48.9146 50.2985Z" fill="#55FF00"/>
</g>
<g style="mix-blend-mode:color-dodge" opacity="0.93">
<path d="M58.9495 110.442L58.3673 110.45L51.9199 58.2375L55.1363 57.4443L58.9495 110.442Z" fill="#55FF00"/>
</g>
<path d="M64.7715 109.467V111.417H55.4206L54.9185 109.787L55.7844 109.758L57.4072 109.707L61.4895 109.576L62.0572 109.554H62.0863L64.7715 109.467Z" fill="url(#paint7_linear)"/>
<g style="mix-blend-mode:multiply" opacity="0.42">
<path d="M64.9607 53.5295H63.2215V53.8934L63.1705 56.1347L63.0832 60.4354L62.0426 109.526L64.7351 109.438V111.389H63.6363V109.933L55.7917 109.766L61.4895 109.584C61.5405 102.496 61.8534 55.8873 61.8534 55.2687C61.8534 54.8467 61.2348 54.4246 60.7837 54.1772C60.7087 54.1696 60.6331 54.1696 60.5581 54.1772C59.1027 54.1772 52.4297 54.4028 51.6511 55.9091C51.3148 56.6131 51.0867 57.3638 50.9744 58.1358L50.4213 53.7697V53.7115H47.7361L46.5718 49.9129L47.8598 53.2385L63.236 52.2633L63.84 49.6727H53.5577L65.7175 49.2798L64.9607 53.5295Z" fill="#701E7E"/>
</g>
<path d="M86.7623 52.6777L86.7478 53.1871V53.2162L86.7405 53.6528L86.6896 55.9378L86.6023 60.1657L85.5617 109.547V109.562L85.5471 110.399L85.0013 110.406L81.0063 110.45L80.9117 109.7L74.4788 57.9171L73.9185 53.3763L73.9112 53.3108L73.853 52.8378L86.7623 52.6777Z" fill="url(#paint8_linear)"/>
<g style="mix-blend-mode:multiply" opacity="0.16">
<path d="M82.8398 55.0205L83.8222 110.391H83.4729C83.211 103.034 80.8096 55.086 80.8096 55.086L82.8398 55.0205Z" fill="#701E7E"/>
</g>
<path d="M88.4434 53.1869H86.726L86.7333 53.216L73.9259 53.3761L73.9186 53.3106L71.2261 53.3397L70.0254 49.3447L77.0622 49.2865L77.2296 49.2792L89.2293 48.8862L88.4434 53.1869Z" fill="url(#paint9_linear)"/>
<g style="mix-blend-mode:color-dodge" opacity="0.89">
<path d="M72.4194 49.9415L73.0744 51.4988L82.9929 51.1131L82.9783 49.8105L72.4194 49.9415Z" fill="#55FF00"/>
</g>
<g style="mix-blend-mode:color-dodge" opacity="0.93">
<path d="M82.4543 110.435L81.8795 110.442L75.4248 57.924L78.6412 57.1235L82.4543 110.435Z" fill="#55FF00"/>
</g>
<path d="M88.2831 109.459V111.417H78.925L78.4229 109.78L79.2888 109.751H79.2961L80.9116 109.7L84.9939 109.561L85.5615 109.547H85.5907L88.2831 109.459Z" fill="url(#paint10_linear)"/>
<g style="mix-blend-mode:multiply" opacity="0.42">
<path d="M88.4651 53.1877H86.7259V53.5879L86.675 55.8437L86.5877 60.1663L85.547 109.548L88.2395 109.46V111.418H87.1407V109.912L79.2961 109.751L84.994 109.562C85.0449 102.438 85.3578 55.5527 85.3578 54.9341C85.3578 54.5121 84.7466 54.0827 84.2881 53.828H84.0625C82.6072 53.828 75.9342 54.0536 75.1628 55.5672C74.823 56.2679 74.5924 57.0163 74.4788 57.7867L73.9258 53.3696V53.3041H71.2406L70.0835 49.4837L71.3642 52.8311L86.7405 51.8487L87.3444 49.2435H77.0621L89.2292 48.8506L88.4651 53.1877Z" fill="#701E7E"/>
</g>
<path d="M110.995 52.168L110.988 52.6774V52.7065L110.98 53.1504L110.929 55.4499L110.842 59.7215L109.801 109.532V109.547L109.78 110.384L109.234 110.391L105.239 110.442L105.144 109.678L98.7185 57.451L98.1509 52.8666L98.1437 52.8011L98.0854 52.3208L110.995 52.168Z" fill="url(#paint11_linear)"/>
<g style="mix-blend-mode:multiply" opacity="0.16">
<path d="M107.072 54.5337L108.062 110.377H107.705C107.451 102.955 105.042 54.5846 105.042 54.5846L107.072 54.5337Z" fill="#701E7E"/>
</g>
<path d="M112.676 52.6774H110.966V52.7138L98.1583 52.8666L98.151 52.8011L95.4658 52.8302L94.2578 48.7988L101.295 48.7406H101.462L113.462 48.3403L112.676 52.6774Z" fill="url(#paint12_linear)"/>
<g style="mix-blend-mode:color-dodge" opacity="0.89">
<path d="M96.6587 49.4039L97.3136 50.9758L107.232 50.5828L107.218 49.2729L96.6587 49.4039Z" fill="#55FF00"/>
</g>
<g style="mix-blend-mode:color-dodge" opacity="0.93">
<path d="M106.686 110.428L106.111 110.435L99.6641 57.4586L102.88 56.6509L106.686 110.428Z" fill="#55FF00"/>
</g>
<path d="M112.516 109.446V111.418H103.157L102.655 109.766L103.529 109.737L105.144 109.679L109.234 109.548L109.801 109.533H109.823L112.516 109.446Z" fill="url(#paint13_linear)"/>
<g style="mix-blend-mode:multiply" opacity="0.42">
<path d="M112.698 52.6928H110.936V53.0931V55.3562L110.849 59.7224L109.809 109.533L112.501 109.439V111.418H111.373V109.904L103.529 109.737L109.234 109.548C109.277 102.358 109.598 55.0651 109.598 54.4393C109.598 54.01 108.979 53.5806 108.521 53.3259C108.448 53.3188 108.375 53.3188 108.302 53.3259C106.847 53.3259 100.174 53.5588 99.3952 55.087C99.059 55.8037 98.8309 56.5664 98.7185 57.3501L98.1582 52.8893V52.8238H95.4802L94.3159 48.967L95.5967 52.3435L110.936 51.3612L111.54 48.7414H101.295L113.462 48.3267L112.698 52.6928Z" fill="#701E7E"/>
</g>
<path d="M135.329 51.5645L135.3 52.0884V52.1175L135.278 52.5614L135.161 54.8973L134.943 59.2198L132.418 109.664V109.686L132.374 110.537L131.829 110.522L127.833 110.457L127.761 109.678L122.892 56.5564L122.47 51.8919L122.463 51.8264L122.419 51.3389L135.329 51.5645Z" fill="url(#paint14_linear)"/>
<g style="mix-blend-mode:multiply" opacity="0.16">
<path d="M131.312 53.8496L130.627 110.479H130.278C130.242 102.947 129.281 53.8569 129.281 53.8569L131.312 53.8496Z" fill="#701E7E"/>
</g>
<path d="M136.995 52.1398L135.278 52.0889V52.118L122.477 51.8924L122.47 51.8269L119.778 51.7833L118.701 47.6572L125.73 47.81H125.898L137.905 47.7591L136.995 52.1398Z" fill="url(#paint15_linear)"/>
<g style="mix-blend-mode:color-dodge" opacity="0.89">
<path d="M121.073 48.334L121.685 49.9495L131.61 49.8549L131.632 48.5232L121.073 48.334Z" fill="#55FF00"/>
</g>
<g style="mix-blend-mode:color-dodge" opacity="0.93">
<path d="M129.282 110.479L128.707 110.472L123.838 56.5935L127.084 55.873L129.282 110.479Z" fill="#55FF00"/>
</g>
<path d="M135.132 109.656L135.074 111.657L125.723 111.38L125.272 109.685H126.138H126.145L127.761 109.678L131.85 109.67L132.418 109.663H132.44L135.132 109.656Z" fill="url(#paint16_linear)"/>
<g style="mix-blend-mode:multiply" opacity="0.42">
<path d="M137.017 52.1392L135.278 52.0883V52.4958L135.162 54.7953L134.951 59.2415L132.425 109.685H135.14L135.082 111.687L133.932 111.636L133.983 110.1L126.145 109.7H131.851C132.113 102.423 133.837 54.4969 133.859 53.8566C133.859 53.4272 133.27 52.9761 132.818 52.6995H132.6C131.145 52.6268 124.464 52.6995 123.642 54.2131C123.289 54.9301 123.044 55.6951 122.914 56.4835L122.492 51.95V51.8845L119.807 51.8408L118.767 47.8967L119.945 51.3606L135.351 50.8075L136.028 48.166L125.76 47.8604H137.934L137.017 52.1392Z" fill="#701E7E"/>
</g>
<path d="M157.291 26.4445L156.381 33.3503L40.7649 34.7839L39.0767 28.0527L51.0982 21.7799L92.8024 0L103.805 4.51899L157.291 26.4445Z" fill="url(#paint17_linear)"/>
<g style="mix-blend-mode:multiply" opacity="0.28">
<path d="M46.9282 28.4453L92.8022 4.60596L146.339 27.7903L62.8575 28.4453L137.985 26.968L92.3874 7.69139L52.8153 28.4453H46.9282Z" fill="#701E7E"/>
</g>
<path d="M169.247 31.9087V34.3246H166.052L166.038 34.3974V34.4192L165.404 37.5556V37.5702L163.36 47.6997L37.5265 50.2976L34.674 40.2699L34.4629 39.5277L33.8735 37.4756H29.1289V34.1427L163.636 31.996L169.247 31.9087Z" fill="url(#paint18_linear)"/>
<g style="mix-blend-mode:multiply" opacity="0.42">
<path d="M166.052 34.3252L165.404 37.5562L34.4629 39.5282L33.8735 37.4761H29.1289L166.052 34.3252Z" fill="#701E7E"/>
</g>
<g style="mix-blend-mode:multiply" opacity="0.28">
<path d="M38.7563 42.5405L160.165 39.5278L159.845 40.1682L39.4404 43.9086L38.7563 42.5405Z" fill="#701E7E"/>
</g>
<g style="mix-blend-mode:multiply" opacity="0.28">
<path d="M40.7647 46.6446L40.1753 45.553L158.892 42.8169L158.615 43.319L40.7647 46.6446Z" fill="#701E7E"/>
</g>
<g style="mix-blend-mode:multiply" opacity="0.37">
<path d="M204.62 46.1939L204.46 47.038L165.419 37.5634L166.052 34.3252H169.247L206.126 46.2376L204.62 46.1939Z" fill="#701E7E"/>
</g>
<g style="mix-blend-mode:multiply" opacity="0.37">
<path d="M203.252 53.6316H203.237L200.465 53.5443L200.414 53.537L200.399 53.5297L166.663 49.1563L157.036 47.9119L156.49 47.8392L157.051 47.8246L158.688 47.7809L163.36 47.6572L200.436 53.2095L200.45 53.2168L203.237 53.6316H203.252Z" fill="#701E7E"/>
</g>
<g style="mix-blend-mode:multiply" opacity="0.42">
<path d="M117.595 27.3687L115.827 28.0309L114.051 35.5188L112.836 36.1519H110.646L111.766 27.3687H117.595Z" fill="#701E7E"/>
</g>
<g style="mix-blend-mode:multiply" opacity="0.37">
<path d="M156.468 112.553L163.636 55.8652L174.632 57.6918L164.546 112.553H161.307L170.848 58.696L164.779 57.7427L156.468 112.553Z" fill="#701E7E"/>
</g>
<g style="mix-blend-mode:multiply" opacity="0.37">
<path d="M176.458 112.508L182.578 58.9717L193.573 60.7982L184.048 112.508H180.999L190.059 61.4386L183.262 60.478L176.458 112.508Z" fill="#701E7E"/>
</g>
<path d="M113.2 25.9935L112.836 36.1522L80.497 36.8071L74.7264 36.9308L72.6743 26.1536L88.7345 25.7461L111.875 25.1494L111.977 25.2149L113.2 25.9935Z" fill="url(#paint19_linear)"/>
<g style="mix-blend-mode:color-dodge" opacity="0.3">
<path d="M73.6782 26.7934L75.1336 35.7877L109.015 34.9582L110.238 25.8838L73.6782 26.7934Z" fill="#55FF00"/>
</g>
<g style="mix-blend-mode:multiply" opacity="0.42">
<path d="M82.8754 29.4409L85.37 29.3941L85.3742 29.6191L83.1346 29.6611L83.1582 30.9209L84.343 30.8986C84.7529 30.8909 85.0661 30.9684 85.2825 31.1311C85.499 31.2937 85.6102 31.5366 85.6163 31.8599C85.6225 32.1932 85.514 32.4503 85.2907 32.6312C85.0674 32.8121 84.7407 32.9065 84.3108 32.9146L82.9411 32.9403L82.8754 29.4409ZM84.3118 32.6995C84.6617 32.693 84.9254 32.6213 85.1029 32.4847C85.2803 32.3446 85.3665 32.1413 85.3615 31.8747C85.3517 31.3515 84.9918 31.0965 84.282 31.1098L83.1622 31.1308L83.192 32.7205L84.3118 32.6995ZM86.488 29.3731L86.743 29.3684L86.8006 32.4378L89.1276 29.3236L89.3525 29.3194L89.4182 32.8188L89.1633 32.8236L89.1057 29.7591L86.7787 32.8683L86.5537 32.8725L86.488 29.3731ZM91.8681 29.2722C92.308 29.264 92.6549 29.3625 92.9088 29.5678C93.1626 29.7697 93.293 30.0556 93.3 30.4256C93.3068 30.7922 93.1873 31.0828 92.9413 31.2975C92.6952 31.5088 92.3522 31.6186 91.9123 31.6268L90.9124 31.6456L90.9339 32.7904L90.679 32.7951L90.6133 29.2958L91.8681 29.2722ZM91.9079 31.3969C92.2812 31.3898 92.5646 31.3029 92.7582 31.1359C92.9518 30.9689 93.0457 30.7337 93.04 30.4304C93.0343 30.1272 92.9316 29.8957 92.7319 29.7361C92.5322 29.5732 92.2456 29.4952 91.8724 29.5022L90.8726 29.5209L90.9081 31.4156L91.9079 31.3969ZM96.8051 31.0199L96.0352 31.0344L96.0663 32.6941L95.8164 32.6988L95.7852 31.0391L95.0154 31.0535L93.8917 32.7349L93.5868 32.7406L94.8028 30.9175L93.6161 29.2394L93.906 29.234L95.006 30.8236L95.7809 30.8091L95.7507 29.1994L96.0007 29.1947L96.0309 30.8044L96.8007 30.79L97.8453 29.1601L98.1303 29.1548L97.0124 30.876L98.2959 32.6523L97.991 32.658L96.8051 31.0199ZM101.101 31.6145L99.0715 31.6526L98.6451 32.6457L98.3701 32.6509L99.9142 29.1213L100.169 29.1165L101.845 32.5857L101.57 32.5909L101.101 31.6145ZM101.002 31.4013L100.044 29.3989L99.1675 31.4357L101.002 31.4013Z" fill="#701E7E"/>
</g>
<g style="mix-blend-mode:multiply" opacity="0.37">
<path d="M113.2 25.993L112.836 36.1516L74.7266 36.9303L110.922 35.7878L111.977 25.2144L113.2 25.993Z" fill="#701E7E"/>
</g>
<g style="mix-blend-mode:color-dodge" opacity="0.25">
<path d="M100.101 25.9282C98.2701 26.6877 96.6006 27.7892 95.1819 29.1737C93.2834 31.1805 91.8128 33.5523 90.8594 36.1451L75.5778 36.3779L73.271 26.4303L100.101 25.9282Z" fill="white"/>
</g>
<g style="mix-blend-mode:color-dodge" opacity="0.89">
<path d="M41.1357 27.6595L44.8761 28.4382L92.3437 3.65285V1.32422L41.1357 27.6595Z" fill="#55FF00"/>
</g>
<g style="mix-blend-mode:color-dodge" opacity="0.89">
<path d="M31.3629 34.7836C31.7341 34.9656 71.2625 34.3252 71.2625 34.3252L70.7022 35.344L30.4097 36.1517L31.3629 34.7836Z" fill="#55FF00"/>
</g>
<g style="mix-blend-mode:color-dodge" opacity="0.89">
<path d="M41.9072 29.7183L42.8241 32.7236H73.3073L72.3977 29.7183H41.9072Z" fill="#55FF00"/>
</g>
<defs>
<linearGradient id="paint0_linear" x1="120.258" y1="132.579" x2="119.138" y2="56.5056" gradientUnits="userSpaceOnUse">
<stop stop-color="#E3855C"/>
<stop offset="0.17" stop-color="#DB7B58"/>
<stop offset="0.46" stop-color="#C55F4E"/>
<stop offset="0.84" stop-color="#A2323F"/>
<stop offset="1" stop-color="#911C37"/>
</linearGradient>
<linearGradient id="paint1_linear" x1="97.4377" y1="42.6069" x2="127.921" y2="103.297" gradientUnits="userSpaceOnUse">
<stop stop-color="#FEFBE4"/>
<stop offset="1" stop-color="#FFCC99"/>
</linearGradient>
<linearGradient id="paint2_linear" x1="57065.7" y1="2244.64" x2="58385" y2="7662.17" gradientUnits="userSpaceOnUse">
<stop stop-color="#FEFBE4"/>
<stop offset="1" stop-color="#FFCC99"/>
</linearGradient>
<linearGradient id="paint3_linear" x1="7280.89" y1="8010.95" x2="9032.55" y2="7984.63" gradientUnits="userSpaceOnUse">
<stop stop-color="#E3855C"/>
<stop offset="0.17" stop-color="#DB7B58"/>
<stop offset="0.46" stop-color="#C55F4E"/>
<stop offset="0.84" stop-color="#A2323F"/>
<stop offset="1" stop-color="#911C37"/>
</linearGradient>
<linearGradient id="paint4_linear" x1="20944.1" y1="1695.79" x2="20927" y2="941.368" gradientUnits="userSpaceOnUse">
<stop stop-color="#FEFBE4"/>
<stop offset="1" stop-color="#FFCC99"/>
</linearGradient>
<linearGradient id="paint5_linear" x1="4826.51" y1="7477.33" x2="5064.97" y2="7475.47" gradientUnits="userSpaceOnUse">
<stop stop-color="#FEFBE4"/>
<stop offset="1" stop-color="#FFCC99"/>
</linearGradient>
<linearGradient id="paint6_linear" x1="7117.2" y1="441.041" x2="7464.08" y2="389.26" gradientUnits="userSpaceOnUse">
<stop stop-color="#FEFBE4"/>
<stop offset="1" stop-color="#FFCC99"/>
</linearGradient>
<linearGradient id="paint7_linear" x1="3711.86" y1="439.015" x2="3888.34" y2="408.069" gradientUnits="userSpaceOnUse">
<stop stop-color="#FEFBE4"/>
<stop offset="1" stop-color="#FFCC99"/>
</linearGradient>
<linearGradient id="paint8_linear" x1="5266.88" y1="7493.1" x2="5473.58" y2="7492.73" gradientUnits="userSpaceOnUse">
<stop stop-color="#FEFBE4"/>
<stop offset="1" stop-color="#FFCC99"/>
</linearGradient>
<linearGradient id="paint9_linear" x1="7788.65" y1="439.237" x2="8095.95" y2="428.571" gradientUnits="userSpaceOnUse">
<stop stop-color="#FEFBE4"/>
<stop offset="1" stop-color="#FFCC99"/>
</linearGradient>
<linearGradient id="paint10_linear" x1="4048.07" y1="439.318" x2="4205.68" y2="432.872" gradientUnits="userSpaceOnUse">
<stop stop-color="#FEFBE4"/>
<stop offset="1" stop-color="#FFCC99"/>
</linearGradient>
<linearGradient id="paint11_linear" x1="5692.34" y1="7536.28" x2="5933.88" y2="7535.91" gradientUnits="userSpaceOnUse">
<stop stop-color="#FEFBE4"/>
<stop offset="1" stop-color="#FFCC99"/>
</linearGradient>
<linearGradient id="paint12_linear" x1="8410.7" y1="438.55" x2="8769.75" y2="428.779" gradientUnits="userSpaceOnUse">
<stop stop-color="#FEFBE4"/>
<stop offset="1" stop-color="#FFCC99"/>
</linearGradient>
<linearGradient id="paint13_linear" x1="4378.37" y1="441.716" x2="4562.55" y2="435.315" gradientUnits="userSpaceOnUse">
<stop stop-color="#FEFBE4"/>
<stop offset="1" stop-color="#FFCC99"/>
</linearGradient>
<linearGradient id="paint14_linear" x1="6190.31" y1="7628.1" x2="6346.02" y2="7627.03" gradientUnits="userSpaceOnUse">
<stop stop-color="#FEFBE4"/>
<stop offset="1" stop-color="#FFCC99"/>
</linearGradient>
<linearGradient id="paint15_linear" x1="9119.18" y1="430.472" x2="9346.46" y2="398.958" gradientUnits="userSpaceOnUse">
<stop stop-color="#FEFBE4"/>
<stop offset="1" stop-color="#FFCC99"/>
</linearGradient>
<linearGradient id="paint16_linear" x1="4772.91" y1="447.732" x2="4888.8" y2="429.236" gradientUnits="userSpaceOnUse">
<stop stop-color="#FEFBE4"/>
<stop offset="1" stop-color="#FFCC99"/>
</linearGradient>
<linearGradient id="paint17_linear" x1="41916.5" y1="1408.4" x2="61120.3" y2="1408.4" gradientUnits="userSpaceOnUse">
<stop stop-color="#FEFBE4"/>
<stop offset="1" stop-color="#FFCC99"/>
</linearGradient>
<linearGradient id="paint18_linear" x1="46977" y1="1378.16" x2="76162.4" y2="1100.59" gradientUnits="userSpaceOnUse">
<stop stop-color="#FEFBE4"/>
<stop offset="1" stop-color="#FFCC99"/>
</linearGradient>
<linearGradient id="paint19_linear" x1="17581.3" y1="346.075" x2="17522.5" y2="1959.73" gradientUnits="userSpaceOnUse">
<stop stop-color="#E3855C"/>
<stop offset="0.17" stop-color="#DB7B58"/>
<stop offset="0.46" stop-color="#C55F4E"/>
<stop offset="0.84" stop-color="#A2323F"/>
<stop offset="1" stop-color="#911C37"/>
</linearGradient>
</defs>
</svg>
