<svg xmlns="http://www.w3.org/2000/svg" width="570" height="178" fill="none" xmlns:v="https://vecta.io/nano"><style><![CDATA[.B{opacity:.57}.C{fill:#fff}]]></style><g clip-path="url(#A)"><path fill="#ffc856" d="M0 0h570v178H0z"/><g style="mix-blend-mode:screen" opacity=".4" class="C"><g class="B"><g style="mix-blend-mode:overlay" class="B"><path d="M256.26 146.384C218.875 124.8 200.676 96.32 201.7 68.05l21.442 12.374c3.845 21.012 19.716 41.446 47.615 57.546 35.94 20.74 84.23 29.906 131.017 27.513l18.34 10.583c-57.57 5.982-119.18-3.908-163.844-29.68z"/></g><g style="mix-blend-mode:overlay" class="B"><path d="M480.842 54.5c-1.886-1.09-1.896-2.857-.017-3.948 1.055-.537 2.223-.816 3.407-.816a7.52 7.52 0 0 1 3.407.816c1.89 1.09 1.9 2.86.027 3.948-1.057.538-2.226.818-3.412.818s-2.355-.28-3.412-.818z"/></g><g style="mix-blend-mode:overlay" class="B"><path d="M335.5 100.357c-24.433-14.1-28-35.723-10.606-51.946l5.903 3.406c-14.342 14.3-10.864 32.974 10.388 45.238 25.29 14.592 66.158 14.595 91.282.002 19.526-11.34 23.788-28.156 12.854-41.938l6.03-3.502c13.9 15.78 9.548 35.552-13.16 48.742-28.264 16.417-74.237 16.418-102.7-.002z"/></g><g style="mix-blend-mode:overlay" class="B"><path d="M298.67 104.016c-22.95-20.18-23.137-46.47-.487-66.67l2.213 1.277c-21.53 19.47-21.354 44.668.467 64.118l-2.193 1.274z"/></g><g style="mix-blend-mode:overlay" class="B"><path d="M350 91.94c-20.392-11.767-20.5-30.847-.24-42.614 20.265-11.77 53.22-11.77 73.612-.003s20.504 30.85.24 42.62c-20.26 11.768-53.215 11.768-73.612-.002zm69.295-40.25c-18.126-10.46-47.417-10.46-65.43.003-18.008 10.46-17.913 27.418.213 37.878 18.132 10.462 47.423 10.462 65.43.002 18.014-10.463 17.918-27.42-.213-37.883z"/></g><g style="mix-blend-mode:overlay" class="B"><path d="M453.95 28.21c-1.89-1.092-1.9-2.86-.022-3.95 1.056-.537 2.225-.817 3.4-.816s2.353.28 3.41.82c1.892 1.09 1.902 2.86.027 3.948-1.057.538-2.226.818-3.412.818s-2.355-.28-3.412-.818z"/></g><g style="mix-blend-mode:overlay" class="B"><path d="M290.952 126.232c-53.212-30.707-53.493-80.493-.627-111.2 52.87-30.71 138.865-30.7 192.077-.003 53.217 30.71 53.497 80.495.626 111.205-52.865 30.706-138.86 30.707-192.076-.002zM471.765 21.208c-47.3-27.295-123.736-27.294-170.733.003-46.992 27.295-46.748 71.55.552 98.845s123.746 27.294 170.737 0c46.997-27.298 46.748-71.55-.556-98.848z"/></g><g style="mix-blend-mode:overlay" class="B"><path d="M470.534 40.683c-1.89-1.09-1.9-2.86-.022-3.95a7.52 7.52 0 0 1 3.412-.818c1.186 0 2.355.28 3.412.818 1.886 1.09 1.9 2.86.022 3.95a7.53 7.53 0 0 1-6.824 0z"/></g><g style="mix-blend-mode:overlay" class="B"><path d="M213.16 33.03a93.44 93.44 0 0 1 8.51-11.249l15.442 8.91c-2.92 3.662-5.497 7.583-7.702 11.714l-16.25-9.377z"/></g><g style="mix-blend-mode:overlay" class="B"><path d="M437.588 161.298c24.08-4.478 46.71-12.256 65.775-23.33 50.345-29.242 60.882-72.768 31.765-108.112l15.29-8.88c36.745 40.4 25.978 91.463-32.467 125.4-18.844 10.945-40.782 19.02-64.195 24.242l-16.167-9.33z"/></g><g style="mix-blend-mode:overlay" class="B"><path d="M323.152 107.53c-35.31-20.376-35.495-53.417-.415-73.792s92.15-20.376 127.46 0 35.504 53.416.42 73.795-92.15 20.376-127.465-.002zm125.21-72.727c-34.288-19.786-89.702-19.786-123.772.003s-33.9 51.87.4 71.657 89.71 19.786 123.776-.001c34.07-19.8 33.9-51.87-.403-71.66z"/></g><g style="mix-blend-mode:overlay" class="B"><path d="M229.02 14.217A135.42 135.42 0 0 1 245.796.904l14.64 8.448a116.44 116.44 0 0 0-16.373 13.546l-15.044-8.68z"/></g></g></g></g><defs><clipPath id="A"><path d="M0 0h570v178H0z" class="C"/></clipPath></defs></svg>