<svg xmlns="http://www.w3.org/2000/svg" width="75" height="75" fill="none" xmlns:v="https://vecta.io/nano"><g fill="#ff513f"><path d="M26.78 19.78l9.364-9.364 18.728 18.728-9.364 9.364z"/><path d="M45.5 38.5l-9.364-9.364 18.728-18.728 9.364 9.364z"/></g><g fill="#001e20"><path d="M17.145 48.707h-6.73V64.66h6.73V48.707z"/><path d="M17.145 56.683h-6.73l6.73-7.976h6.73l-6.73 7.976z"/><path d="M17.145 56.684h-6.73l6.73 7.976h6.73l-6.73-7.976zm13.45 0h-6.72l6.72 7.976h6.73l-6.73-7.976z"/><path d="M30.594 48.707l-6.72 7.976h6.72l6.73-7.976h-6.73zm13.456 7.977h-6.73l6.73 7.976h6.72l-6.72-7.976z"/><path d="M44.05 48.707l-6.73 7.976h6.73l6.72-7.976h-6.72z"/><path d="M54.14 48.707h-6.73V64.66h6.73V48.707z"/><path d="M60.86 60.667l3.37-3.984-6.73-7.976h-6.73l10.09 11.96z"/><path d="M57.5 56.684h6.73L57.5 64.66h-6.73l6.73-7.976zM17.27 10.416H10.5V38.54h6.77V10.416z"/></g></svg>