<svg width="570" height="178" viewBox="0 0 570 178" fill="none" xmlns="http://www.w3.org/2000/svg">
<g clip-path="url(#clip0)">
<rect width="570" height="178" fill="#001E20"/>
<g style="mix-blend-mode:multiply" opacity="0.28">
<path d="M570.5 82.5L165 0H570.5V82.5V123.5V178H362L570.5 123.5V82.5Z" fill="#FF513F"/>
</g>
<g style="mix-blend-mode:screen" opacity="0.2">
<path d="M544 70.8151H521.375V93H500.759V70.8151H478V51.1849H500.759V29H521.375V51.1849H544V70.8151Z" fill="white"/>
<path d="M429.465 169.456L421.14 165.482L417.215 173.704L409.63 170.083L413.554 161.861L405.18 157.864L408.653 150.588L417.027 154.586L420.952 146.363L428.538 149.984L424.613 158.207L432.938 162.18L429.465 169.456Z" fill="white"/>
</g>
<g style="mix-blend-mode:screen" opacity="0.5">
<path d="M495.132 157.175L499.501 162.638L494.029 166.756L489.682 160.77L487.149 167.367L480.823 164.751L483.689 158.292L476.384 159.459L475.474 152.702L482.425 151.92L478.08 146.401L483.496 142.26L487.82 148.302L490.377 141.649L496.703 144.265L493.813 150.78L501.142 149.557L502.107 156.337L495.132 157.175Z" fill="white"/>
</g>
</g>
<defs>
<clipPath id="clip0">
<rect width="570" height="178" fill="white"/>
</clipPath>
</defs>
</svg>
