<svg xmlns="http://www.w3.org/2000/svg" width="570" height="178" fill="none" xmlns:v="https://vecta.io/nano"><g clip-path="url(#C)"><path fill="#007550" d="M0 0h570v178H0z"/><g opacity=".4"><mask id="A" mask-type="alpha" maskUnits="userSpaceOnUse" x="0" y="0" width="570" height="178"><path fill="#ffc856" d="M0 0h570v178H0z"/></mask><g mask="url(#A)"><g style="mix-blend-mode:multiply" opacity=".3"><path d="M33 178L0 126v52h33z" fill="#ff513f"/></g><g style="mix-blend-mode:multiply" opacity=".2"><path d="M360 0L570 140V0H360Z" fill="#ff513f"/></g><g style="mix-blend-mode:multiply" opacity=".17"><path d="M20.5 28.5L68 0H.5l20 28.5z" fill="#ff513f"/></g></g></g><g style="mix-blend-mode:screen" opacity=".2"><path d="M431.334 68.62l-12.183-5.815-5.743 12.033-11.102-5.3 5.744-12.033-12.255-5.85 5.082-10.647 12.255 5.85 5.744-12.033 11.102 5.3-5.744 12.033 12.183 5.816-5.083 10.647z" fill="#fff"/></g><g style="mix-blend-mode:screen" opacity=".13"><mask id="B" mask-type="alpha" maskUnits="userSpaceOnUse" x="0" y="0" width="570" height="178"><path fill="#ffc856" d="M0 0h570v178H0z"/></mask><g mask="url(#B)" fill="#fff"><path d="M163.496 76.78l49.262-13.2 2.746 10.246-49.262 13.2-2.746-10.246zM517.842 59l38.42 66.547-13.842 7.992L504 66.992 517.842 59zM40 152h76.842v15.983H40V152z"/></g></g></g><defs><clipPath id="C"><path fill="#fff" d="M0 0h570v178H0z"/></clipPath></defs></svg>