<svg xmlns="http://www.w3.org/2000/svg" width="570" height="178" fill="none" xmlns:v="https://vecta.io/nano"><g clip-path="url(#B)"><path fill="#007550" d="M0 0h570v178H0z"/><mask id="A" mask-type="alpha" maskUnits="userSpaceOnUse" x="0" y="0" width="570" height="178"><path fill="#ffc856" d="M0 0h570v178H0z"/></mask><g mask="url(#A)"><g style="mix-blend-mode:multiply" opacity=".1"><path d="M33 178L0 126v52h33z" fill="#007550"/></g><g style="mix-blend-mode:multiply" opacity=".1"><path d="M360 0L570 140V0H360Z" fill="#007550"/></g><g style="mix-blend-mode:multiply" opacity=".15"><path d="M20.5 28.5L68 0H.5l20 28.5z" fill="#007550"/></g></g><g style="mix-blend-mode:screen" opacity=".3"><g fill="#ff513f"><path d="M483.354 41.968L494.5 28.265l27.405 22.272L510.76 64.24z"/><path d="M510.75 64.242l-13.703-11.136L519.32 25.7l13.703 11.136z"/></g><g fill="#fff"><path d="M474.54 81.653l-8.924.922 2.186 21.158 8.924-.922-2.186-21.158z"/><path d="M475.633 92.232l-8.924.922 7.83-11.5 8.924-.922-7.83 11.5z"/><path d="M475.633 92.232l-8.924.922 10.017 9.657 8.924-.922-10.017-9.657zM493.47 90.4l-8.912.92 10.005 9.658 8.924-.922L493.47 90.4zm-1.094-10.6l-7.82 11.5 8.912-.92 7.83-11.5-8.924.922zm18.942 8.735l-8.924.922 10.017 9.657 8.912-.92-10.005-9.658z"/><path d="M510.224 77.966l-7.83 11.5 8.924-.922 7.82-11.5-8.913.92z"/><path d="M523.605 76.584l-8.924.922 2.186 21.158 8.924-.922-2.186-21.158z"/><path d="M534.156 91.525l3.922-5.745-10.017-9.657-8.924.922 15.02 14.48z"/><path d="M529.154 86.702l8.924-.922-7.83 11.5-8.924.922 7.83-11.5zm-59.696-55.85l-8.98.928 3.854 37.3 8.98-.928-3.855-37.3z"/></g></g><g style="mix-blend-mode:screen" opacity=".4" fill="#fff"><path d="M343.432 60.716l11.414-3.058 6.117 22.828-11.414 3.058z"/><path d="M349.542 83.54l-3.058-11.414L369.312 66l3.058 11.414zm123.08 84.005l4.433-7.678 15.357 8.866-4.433 7.678z"/><path d="M487.974 176.413l-7.678-4.433 8.866-15.357 7.678 4.433zm-471.72-28.067l8.564-2.295 4.6 17.128-8.564 2.295z"/><path d="M20.84 165.472l-2.295-8.564 17.128-4.59 2.295 8.564z"/></g></g><defs><clipPath id="B"><path fill="#fff" d="M0 0h570v178H0z"/></clipPath></defs></svg>