<svg width="570" height="178" viewBox="0 0 570 178" fill="none" xmlns="http://www.w3.org/2000/svg">
<g clip-path="url(#clip0)">
<rect width="570" height="178" fill="#007550"/>
<g opacity="0.4">
<mask id="mask0" mask-type="alpha" maskUnits="userSpaceOnUse" x="0" y="0" width="570" height="178">
<rect width="570" height="178" fill="#FFC856"/>
</mask>
<g mask="url(#mask0)">
<g style="mix-blend-mode:multiply" opacity="0.31">
<path d="M33 178L3.05772e-05 126L0 178H33Z" fill="#FF513F"/>
</g>
<g style="mix-blend-mode:multiply" opacity="0.2">
<path d="M360 0L570 140V0H360Z" fill="#FF513F"/>
</g>
<g style="mix-blend-mode:multiply" opacity="0.17">
<path d="M20.5 28.5L68 0H0.5L20.5 28.5Z" fill="#FF513F"/>
</g>
</g>
</g>
<g style="mix-blend-mode:screen" opacity="0.2">
<path d="M431.334 68.6206L419.151 62.8051L413.408 74.8381L402.306 69.5387L408.05 57.5058L395.795 51.6559L400.877 41.0085L413.132 46.8584L418.876 34.8255L429.978 40.1248L424.234 52.1578L436.417 57.9733L431.334 68.6206Z" fill="white"/>
</g>
<g style="mix-blend-mode:screen" opacity="0.13">
<mask id="mask1" mask-type="alpha" maskUnits="userSpaceOnUse" x="0" y="0" width="570" height="178">
<rect width="570" height="178" fill="#FFC856"/>
</mask>
<g mask="url(#mask1)">
<path d="M163.496 76.7803L212.758 63.5805L215.504 73.827L166.242 87.0268L163.496 76.7803Z" fill="white"/>
<path d="M517.842 59L556.263 125.547L542.421 133.539L504 66.9916L517.842 59Z" fill="white"/>
<path d="M40 152H116.842V167.983H40V152Z" fill="white"/>
</g>
</g>
</g>
<defs>
<clipPath id="clip0">
<rect width="570" height="178" fill="white"/>
</clipPath>
</defs>
</svg>
