<svg xmlns="http://www.w3.org/2000/svg" width="570" height="178" fill="none" xmlns:v="https://vecta.io/nano"><g clip-path="url(#A)"><path fill="#001e20" d="M0 0h570v178H0z"/><g style="mix-blend-mode:multiply" opacity=".28"><path d="M570.5 82.5L165 0h405.5v178H362l208.5-54.5v-41z" fill="#ff513f"/></g><g style="mix-blend-mode:screen" opacity=".2" fill="#fff"><path d="M544 70.815h-22.625V93H500.76V70.815H478v-19.63h22.76V29h20.616v22.185H544v19.63zm-114.535 98.64l-8.325-3.974-3.925 8.222-7.585-3.62 3.924-8.222-8.374-3.997 3.473-7.276 8.374 3.998 3.925-8.223 7.586 3.62-3.925 8.223 8.325 3.973-3.473 7.276z"/></g><g style="mix-blend-mode:screen" opacity=".5"><path d="M495.132 157.175l4.37 5.463-5.472 4.118-4.347-5.986-2.533 6.597-6.326-2.616 2.866-6.46-7.305 1.167-.9-6.757 6.95-.782-4.345-5.52 5.416-4.14 4.324 6.042 2.557-6.653 6.326 2.616-2.9 6.515 7.33-1.223.965 6.78-6.975.838z" fill="#fff"/></g></g><defs><clipPath id="A"><path fill="#fff" d="M0 0h570v178H0z"/></clipPath></defs></svg>