<svg xmlns="http://www.w3.org/2000/svg" width="570" height="178" fill="none" xmlns:v="https://vecta.io/nano"><g clip-path="url(#D)"><path fill="#001e20" d="M0 0h570v178H0z"/><mask id="A" mask-type="alpha" maskUnits="userSpaceOnUse" x="0" y="0" width="570" height="178"><path fill="#ffc856" d="M0 0h570v178H0z"/></mask><g mask="url(#A)"><g style="mix-blend-mode:multiply" opacity=".2"><path d="M242.5 143L0 178h293l-50.5-35z" fill="#001e20"/></g></g><mask id="B" mask-type="alpha" maskUnits="userSpaceOnUse" x="0" y="0" width="570" height="178"><path fill="#ffc856" d="M0 0h570v178H0z"/></mask><g mask="url(#B)"><g style="mix-blend-mode:screen" opacity=".3"><path d="M33 178L0 126v52h33z" fill="#001e20"/></g><g style="mix-blend-mode:screen" opacity=".17"><path d="M20.5 28.5L68 0H.5l20 28.5z" fill="#001e20"/></g></g><g style="mix-blend-mode:screen" opacity=".3"><mask id="C" mask-type="alpha" maskUnits="userSpaceOnUse" x="0" y="0" width="570" height="178"><path fill="#ffc856" d="M0 0h570v178H0z"/></mask><g mask="url(#C)" fill="#fff"><path d="M513.273 56.708l16.943-7.585 11.527 33.32-11.295 5.057-17.175-30.8zm30.704 45.867c-2.5 1.114-4.857 1.445-7.102 1-2.204-.528-3.705-1.68-4.5-3.458s-.635-3.617.48-5.52c1.095-1.95 2.918-3.496 5.47-4.638s4.918-1.472 7.102-1c2.163.435 3.642 1.54 4.438 3.318s.625 3.677-.5 5.7c-1.095 1.95-2.888 3.482-5.378 4.597zm-412.48 32.573l9.77 5.536-12.103 17.558-6.512-3.7 8.846-19.403zm-11.343 31.398c-1.435-.813-2.444-1.848-3.027-3.105-.533-1.264-.5-2.408.07-3.432s1.535-1.606 2.862-1.744c1.343-.165 2.75.17 4.22 1.002s2.48 1.87 3.028 3.106c.563 1.2.554 2.327-.026 3.35s-1.568 1.623-2.96 1.795c-1.343.165-2.732-.16-4.168-.973z"/><path opacity=".3" d="M386.152 203.13c2.527-8.073 6.405-14.2 11.634-18.347 5.384-4.1 12.572-8.253 21.563-12.427 6.6-3.05 11.538-5.764 14.843-8.14 3.5-2.48 5.895-5.74 7.158-9.776 1.797-5.744.873-10.976-2.773-15.696-3.44-4.827-8.973-8.433-16.594-10.818-7.3-2.288-14.33-2.78-21.055-1.476-6.523 1.197-12.578 3.904-18.167 8.12l-23.056-25.367c9.642-7.9 20.835-12.826 33.578-14.803 12.9-1.93 26.97-.508 42.213 4.262 17.887 5.598 31.006 13.88 39.357 24.845 8.507 11.014 10.647 23.274 6.42 36.78-2 6.365-4.83 11.613-8.513 15.744-3.528 4.18-7.382 7.5-11.56 9.932-3.976 2.335-9.054 4.922-15.236 7.76-7.36 3.322-12.918 6.354-16.68 9.097-3.713 2.588-6.347 6.366-7.9 11.334l-35.23-11.025zm-.56 63.997c-6.377-1.996-11.1-5.693-14.203-11.092-2.888-5.506-3.4-11.2-1.563-17.108s5.477-10.132 10.9-12.7c5.462-2.722 11.46-3.06 17.993-1.016s11.267 5.742 14.203 11.092c2.985 5.196 3.554 10.743 1.708 16.642s-5.603 10.263-11.27 13.092c-5.463 2.722-11.383 3.085-17.76 1.1zm-122.646-165.78c-1.572-3.76-2.038-7.216-1.4-10.37.7-3.185 2.076-6.94 4.096-11.267 1.484-3.168 2.466-5.702 2.948-7.602a8.87 8.87 0 0 0-.392-5.823c-1.118-2.675-3.08-4.317-5.9-4.927-2.765-.712-5.922-.327-9.47 1.157-3.404 1.423-6.144 3.418-8.22 5.984-2.033 2.464-3.426 5.34-4.18 8.626l-16.364-2.203c1.107-5.898 3.704-11.188 7.788-15.868 4.157-4.7 9.785-8.55 16.883-11.517 8.33-3.482 15.733-4.497 22.212-3.044 6.55 1.423 11.14 5.28 13.77 11.568 1.24 2.964 1.82 5.778 1.743 8.443-.004 2.635-.4 5.05-1.182 7.246-.742 2.093-1.812 4.62-3.2 7.584-1.683 3.506-2.792 6.348-3.328 8.525-.567 2.105-.366 4.314.6 6.628l-16.405 6.858zm19.635 23.766c-2.97 1.24-5.86 1.346-8.675.314-2.77-1.134-4.73-3.075-5.88-5.822s-1.122-5.433.078-8.058c1.17-2.697 3.275-4.68 6.317-5.953s5.934-1.377 8.675-.315c2.712 1 4.64 2.86 5.8 5.606s1.117 5.52-.095 8.32c-1.17 2.697-3.24 4.666-6.2 5.908z"/></g></g></g><defs><clipPath id="D"><path fill="#fff" d="M0 0h570v178H0z"/></clipPath></defs></svg>