<svg width="75" height="75" viewBox="0 0 75 75" fill="none" xmlns="http://www.w3.org/2000/svg">
<rect x="26.7798" y="19.7793" width="13.2429" height="26.4857" transform="rotate(-45 26.7798 19.7793)" fill="#FF513F"/>
<rect width="13.2429" height="26.4857" transform="matrix(-0.707107 -0.707106 0.707107 -0.707106 45.5 38.5098)" fill="#FF513F"/>
<path d="M17.1452 48.707H10.4165V64.6599H17.1452V48.707Z" fill="#001E20"/>
<path d="M17.1452 56.6834H10.4165L17.1452 48.707H23.8739L17.1452 56.6834Z" fill="#001E20"/>
<path d="M17.1452 56.6836H10.4165L17.1452 64.66H23.8739L17.1452 56.6836Z" fill="#001E20"/>
<path d="M30.5938 56.6836H23.874L30.5938 64.66H37.3225L30.5938 56.6836Z" fill="#001E20"/>
<path d="M30.5938 48.707L23.874 56.6834H30.5938L37.3225 48.707H30.5938Z" fill="#001E20"/>
<path d="M44.051 56.6836H37.3223L44.051 64.66H50.7708L44.051 56.6836Z" fill="#001E20"/>
<path d="M44.051 48.707L37.3223 56.6834H44.051L50.7708 48.707H44.051Z" fill="#001E20"/>
<path d="M54.1398 48.707H47.4111V64.6599H54.1398V48.707Z" fill="#001E20"/>
<path d="M60.8596 60.6672L64.2284 56.6834L57.4997 48.707H50.771L56.76 55.8011L60.8596 60.6672Z" fill="#001E20"/>
<path d="M57.4997 56.6836H64.2284L57.4997 64.66H50.771L57.4997 56.6836Z" fill="#001E20"/>
<path d="M17.2703 10.416H10.4995V38.541H17.2703V10.416Z" fill="#001E20"/>
</svg>
