<svg xmlns="http://www.w3.org/2000/svg" width="570" height="178" fill="none" xmlns:v="https://vecta.io/nano"><g clip-path="url(#B)"><path fill="#ffc856" d="M0 0h570v178H0z"/><mask id="A" mask-type="alpha" maskUnits="userSpaceOnUse" x="0" y="0" width="570" height="178"><path fill="#ffc856" d="M0 0h570v178H0z"/></mask><g mask="url(#A)"><g style="mix-blend-mode:multiply" opacity=".22"><path d="M314 80.5L436 0h134v104.5l-256-24z" fill="#ffc856"/></g><g style="mix-blend-mode:multiply" opacity=".18"><path d="M30.5 43.5L0 0V178L30.5 43.5Z" fill="#ffc856"/></g><g style="mix-blend-mode:multiply" opacity=".2"><path d="M242.5 143L0 178h293l-50.5-35z" fill="#ffc856"/></g></g><g style="mix-blend-mode:screen" opacity=".4" fill="#fff"><path d="M493.28 51.563L506 58.455l-7.233 12.03-13.095-7.894.374 14.4H471.83l.374-14.4-13.094 7.894-7.1-12.03 12.72-6.892L452 44.546l7.1-12.03 13.094 8.02L471.83 26h14.217l-.374 14.536 13.095-8.02L506 44.546l-12.72 7.017zM339.342 87.156l4.368 5.462-5.47 4.118-4.348-5.986-2.533 6.597-6.326-2.616 2.866-6.46-7.305 1.167-.9-6.757 6.95-.78-4.345-5.52 5.416-4.14 4.324 6.042 2.556-6.653 6.326 2.616-2.9 6.516 7.328-1.223.965 6.78-6.974.838zm155.79 70.02l4.368 5.463-5.47 4.118-4.348-5.986-2.533 6.597-6.326-2.616 2.866-6.46-7.305 1.167-.9-6.757 6.95-.782-4.345-5.52 5.416-4.14 4.324 6.042 2.556-6.653 6.326 2.616-2.9 6.515 7.328-1.223.965 6.78-6.974.838z"/></g></g><defs><clipPath id="B"><path fill="#fff" d="M0 0h570v178H0z"/></clipPath></defs></svg>