<svg xmlns="http://www.w3.org/2000/svg" width="67" height="57" fill="none" xmlns:v="https://vecta.io/nano"><g fill="#ff513f"><path d="M19.375 37.713l-9.08-.696-8 10.46 9.418-7.517 6.533 1.287 1.14-3.535zm-.12 4.342L12.5 43.9 7.622 56.152l7.043-9.832 8.834-2.013-4.244-2.252zm27.372-4.76l7.982-4.424 11.64 6.147-11.7-2.868-5.43 3.898-2.482-2.753zm.49 4.1l6.998.45L61.3 52.93l-8.816-8.25-9.1-.22 3.752-3.053zm-29.803-9.743l6.95-.356-.313 1.88-8.274.365 1.636-1.9z"/><path d="M17.315 31.662l-.453-6.587-1.58.085.397 8.4 1.636-1.9zm35.065.125l-4.007-7.27-1.345.794 3.077 5.747 2.274.73z"/><path d="M52.382 31.788l-6.876 4.206-1.23-1.42 5.8-3.528 2.317.74zM12.5 43.908l2.176 2.412 8.834-2.014-4.244-2.253-6.765 1.855zm30.874.552l3.752-3.052 6.998.45-1.64 2.823-9.1-.22zm3.263-7.163l2.482 2.753 5.43-3.9.07-3.28-7.982 4.424zm-27.25.416l-1.14 3.535-6.533-1.287-1.407-2.944 9.08.696z"/><path d="M41.092 30.998l-17.26-1.154-9.23 7.854 8.114 9.03 17.26 1.154 9.188-7.865-8.07-9.02zm-25.78-5.26L5.32 19.642l5.746-13.136 3.96 13.796.2-9.873 6.338 8.483-4.68 6.74-1.58.085zm32.885-.538l3.847-8.02-9.04-5.972 3.145 10.435-4.187-6.22-.518 8.016 5.73 2.363 1.022-.604z"/></g><g fill="#001e20"><path d="M29.357 8.12l-.846 2.104 17.798 7.246.846-2.104L29.357 8.12z"/><path d="M34.158 4.314L31.757 10.3l12.135 4.954 2.402-5.987-12.135-4.954z"/></g><path d="M14.6 37.7l34.507 2.35-9.135 7.832-17.26-1.153L14.6 37.7z" fill="#aa3528"/><path d="M36.25 33.106l2.5-7.16-1.064-3.86-2.063 3.197.616 7.823zm-8.06-.41l2.255-7.47-1.222-3.508-2.035 3.518 1.002 7.46z" fill="#001e20"/></svg>