<svg xmlns="http://www.w3.org/2000/svg" width="570" height="178" fill="none" xmlns:v="https://vecta.io/nano"><g clip-path="url(#B)"><path fill="#ff513f" d="M0 0h570v178H0z"/><g style="mix-blend-mode:multiply" opacity=".28"><path d="M570.5 82.5L165 0h405.5v178H362l208.5-54.5v-41z" fill="#ff513f"/></g><g style="mix-blend-mode:screen" opacity=".2"><mask id="A" mask-type="alpha" maskUnits="userSpaceOnUse" x="0" y="0" width="570" height="178"><path fill="#ffc856" d="M0 0h570v178H0z"/></mask><g mask="url(#A)" fill="#fff"><path d="M525.01 91.253c-1.03 3.003-3.008 5.236-5.935 6.7-2.88 1.44-6.468 1.766-10.767.98l-2.066 6.025-6.512-2.233 2-5.807c-2.65-1.11-5.065-2.444-7.24-4-2.164-1.59-3.856-3.202-5.075-4.833l6.244-6.714c1.316 1.705 2.977 3.285 4.985 4.742s4.097 2.557 6.268 3.3c4.124 1.414 6.54 1.1 7.247-.973.372-1.085.048-2.086-.972-3.002-.972-.94-2.66-2.145-5.068-3.617-2.647-1.595-4.812-3.065-6.494-4.4a13.01 13.01 0 0 1-3.767-5.112c-.84-2.027-.81-4.36.096-7.003 1.067-3.112 3.1-5.386 6.1-6.824 3.012-1.474 6.722-1.74 11.13-.794l2.046-5.97 6.513 2.233-2.01 5.86a32.87 32.87 0 0 1 5.543 3.113c1.732 1.2 3.2 2.49 4.376 3.865l-6.045 6.843c-2.95-3.194-6.123-5.374-9.525-6.54-2.134-.732-3.802-.94-5.002-.623-1.188.28-1.955.927-2.302 1.94s-.03 1.97.955 2.875 2.668 2.067 5.05 3.5c2.684 1.607 4.843 3.095 6.476 4.464 1.682 1.345 2.944 3.03 3.785 5.058.9 2.003.883 4.326-.023 6.967z"/><path opacity=".6" d="M58.968 134.217c-.84 1.822-2.23 3.098-4.165 3.83-1.903.72-4.18.692-6.834-.08l-1.688 3.655-3.95-1.824 1.627-3.524c-1.596-.87-3.027-1.863-4.295-2.982-1.258-1.14-2.218-2.262-2.88-3.366l4.36-3.82c.717 1.157 1.66 2.258 2.83 3.303s2.41 1.873 3.728 2.48c2.502 1.155 4.042 1.107 4.62-.144.304-.658.165-1.31-.418-1.95-.55-.654-1.535-1.52-2.953-2.602-1.562-1.174-2.828-2.238-3.8-3.192-.96-.977-1.64-2.13-2.038-3.458s-.227-2.795.513-4.397c.872-1.888 2.297-3.187 4.276-3.898 1.99-.732 4.34-.66 7.05.22l1.672-3.62 3.95 1.824-1.642 3.556a20.71 20.71 0 0 1 3.285 2.316c1.01.866 1.845 1.77 2.502 2.713l-4.243 3.913c-1.648-2.2-3.503-3.775-5.567-4.728-1.295-.598-2.33-.836-3.105-.715-.765.1-1.29.457-1.573 1.07s-.145 1.238.415 1.87 1.544 1.472 2.95 2.52c1.584 1.184 2.845 2.26 3.784 3.225a7.9 7.9 0 0 1 2.054 3.425c.43 1.317.276 2.777-.464 4.38z"/><path d="M450.11 85.5c1.478 4.777 1.034 9.455-1.333 14.035-2.327 4.504-6.59 8.252-12.792 11.243l2.966 9.583-10.36 3.206-2.86-9.238c-4.405 1.048-8.714 1.593-12.927 1.636-4.23-.016-7.88-.495-10.945-1.438l1.71-14.34c3.257.947 6.84 1.415 10.746 1.405s7.586-.55 11.04-1.62c6.56-2.03 9.334-4.686 8.32-7.967-.535-1.727-1.876-2.7-4.025-2.917-2.11-.293-5.378-.26-9.807.102-4.85.43-8.968.568-12.357.42-3.407-.207-6.587-1.2-9.54-3.008s-5.08-4.798-6.38-9c-1.532-4.95-1.057-9.732 1.425-14.347 2.464-4.673 6.938-8.454 13.423-11.344l-2.94-9.496 10.36-3.206 2.885 9.324c3.37-.727 6.685-1.123 9.945-1.186 3.317-.08 6.37.205 9.157.856l-1.34 14.32c-6.717-1.327-12.78-1.153-18.19.52-3.396 1.05-5.7 2.335-6.944 3.852-1.25 1.46-1.627 2.995-1.128 4.606s1.793 2.535 3.884 2.77 5.314.153 9.667-.248c4.907-.446 9.036-.557 12.385-.332 3.388.15 6.56 1.123 9.512 2.92 2.993 1.723 5.14 4.685 6.44 8.886z"/></g></g></g><defs><clipPath id="B"><path fill="#fff" d="M0 0h570v178H0z"/></clipPath></defs></svg>