<svg xmlns="http://www.w3.org/2000/svg" width="570" height="178" fill="none" xmlns:v="https://vecta.io/nano"><g clip-path="url(#B)"><path fill="#ff513f" d="M0 0h570v178H0z"/><mask id="A" mask-type="alpha" maskUnits="userSpaceOnUse" x="0" y="0" width="570" height="178"><path fill="#ffc856" d="M0 0h570v178H0z"/></mask><g mask="url(#A)"><g style="mix-blend-mode:multiply" opacity=".3"><path d="M33 178L0 126v52h33z" fill="#ff513f"/></g><g style="mix-blend-mode:multiply" opacity=".2"><path d="M360 0L570 140V0H360Z" fill="#ff513f"/></g><g style="mix-blend-mode:multiply" opacity=".17"><path d="M20.5 28.5L68 0H.5l20 28.5z" fill="#ff513f"/></g></g><g style="mix-blend-mode:screen" opacity=".2" fill="#fff"><path d="M544 70.815h-22.625V93H500.76V70.815H478v-19.63h22.76V29h20.616v22.185H544v19.63zM431.334 68.62l-12.183-5.815-5.743 12.033-11.102-5.3 5.744-12.033-12.255-5.85 5.082-10.647 12.255 5.85 5.744-12.033 11.102 5.3-5.744 12.033 12.183 5.816-5.083 10.647zm-1.87 100.836l-8.325-3.974-3.925 8.222-7.585-3.62 3.924-8.222-8.374-3.997 3.473-7.276 8.374 3.998 3.925-8.223 7.586 3.62-3.925 8.223 8.325 3.973-3.473 7.276z"/></g></g><defs><clipPath id="B"><path fill="#fff" d="M0 0h570v178H0z"/></clipPath></defs></svg>