<svg width="26" height="26" viewBox="0 0 26 26" fill="none" xmlns="http://www.w3.org/2000/svg">
<g clip-path="url(#clip0)">
<path fill-rule="evenodd" clip-rule="evenodd" d="M17.875 1.625H8.125C7.69402 1.625 7.2807 1.7962 6.97595 2.10095C6.67121 2.4057 6.5 2.81902 6.5 3.25V22.75C6.5 23.181 6.67121 23.5943 6.97595 23.899C7.2807 24.2038 7.69402 24.375 8.125 24.375H17.875C18.306 24.375 18.7193 24.2038 19.024 23.899C19.3288 23.5943 19.5 23.181 19.5 22.75V3.25C19.5 2.81902 19.3288 2.4057 19.024 2.10095C18.7193 1.7962 18.306 1.625 17.875 1.625ZM8.125 0C7.26305 0 6.4364 0.34241 5.8269 0.951903C5.21741 1.5614 4.875 2.38805 4.875 3.25V22.75C4.875 23.612 5.21741 24.4386 5.8269 25.0481C6.4364 25.6576 7.26305 26 8.125 26H17.875C18.737 26 19.5636 25.6576 20.1731 25.0481C20.7826 24.4386 21.125 23.612 21.125 22.75V3.25C21.125 2.38805 20.7826 1.5614 20.1731 0.951903C19.5636 0.34241 18.737 0 17.875 0L8.125 0Z" fill="#4F4F4F"/>
<path fill-rule="evenodd" clip-rule="evenodd" d="M13 22.75C13.431 22.75 13.8443 22.5788 14.149 22.274C14.4538 21.9693 14.625 21.556 14.625 21.125C14.625 20.694 14.4538 20.2807 14.149 19.976C13.8443 19.6712 13.431 19.5 13 19.5C12.569 19.5 12.1557 19.6712 11.851 19.976C11.5462 20.2807 11.375 20.694 11.375 21.125C11.375 21.556 11.5462 21.9693 11.851 22.274C12.1557 22.5788 12.569 22.75 13 22.75Z" fill="#4F4F4F"/>
</g>
<defs>
<clipPath id="clip0">
<rect width="26" height="26" fill="white"/>
</clipPath>
</defs>
</svg>
