<svg width="26" height="26" viewBox="0 0 26 26" fill="none" xmlns="http://www.w3.org/2000/svg">
<path d="M20.1249 8.90872L13.0006 15.1866L5.87477 8.90863C5.59104 8.65866 5.15854 8.68613 4.90866 8.96968C4.65887 9.25333 4.68607 9.68583 4.96981 9.9358L12.5482 16.6125C12.6775 16.7264 12.8392 16.7834 13.0007 16.7834C13.1622 16.7834 13.324 16.7264 13.4533 16.6124L21.0301 9.9357C21.3137 9.68583 21.341 9.25324 21.0911 8.96959C20.841 8.68622 20.4086 8.65884 20.1249 8.90872Z" fill="#4F4F4F"/>
<path d="M21.9466 6H4.05342C2.92121 6 2 6.92112 2 8.05342V18.9139C2 20.0462 2.92121 20.9673 4.05342 20.9673H21.9466C23.0788 20.9673 24 20.0462 24 18.9139V8.05342C24 6.92121 23.0788 6 21.9466 6ZM22.6311 18.9139C22.6311 19.2913 22.324 19.5984 21.9466 19.5984H4.05342C3.67596 19.5984 3.36895 19.2913 3.36895 18.9139V8.05342C3.36895 7.67605 3.67596 7.36895 4.05342 7.36895H21.9466C22.324 7.36895 22.6311 7.67605 22.6311 8.05342V18.9139Z" fill="#4F4F4F"/>
</svg>
