<svg width="111" height="40" viewBox="0 0 111 40" fill="none" xmlns="http://www.w3.org/2000/svg">
<path d="M0.0644531 34.647C0.0806394 34.0202 0.107616 33.3988 0.113012 32.7719C0.172362 26.0343 0.237107 19.2968 0.296456 12.5593C0.307247 11.1584 0.318038 9.76288 0.345015 8.36195C0.35041 8.16571 0.40976 7.96948 0.46911 7.78414C0.490691 7.72418 0.5986 7.67512 0.674136 7.66422C2.02839 7.50068 3.38264 7.33715 4.74228 7.17907C5.50843 7.0864 6.27458 6.96103 7.04613 6.92287C7.72595 6.89016 8.41117 6.92832 9.09099 6.98828C10.5208 7.10821 11.9506 7.26084 13.375 7.40256C14.4271 7.51159 15.4792 7.62606 16.5367 7.73508C16.6176 7.74598 16.6931 7.76779 16.7957 7.78414C16.7741 8.00763 16.7525 8.22023 16.7201 8.48188C15.1878 8.31835 13.6609 8.16026 12.0962 7.99128C12.3336 8.20932 12.5602 8.38921 12.7545 8.5909C13.9361 9.81739 14.5997 11.3164 14.9504 12.9681C15.2903 14.5598 15.3065 16.1733 15.3011 17.7923C15.2849 20.6541 15.2903 23.5159 15.2687 26.3723C15.258 27.9259 15.1177 29.474 14.6753 30.973C14.2059 32.5593 13.4559 33.9711 12.2095 35.0831C12.0315 35.2412 11.8319 35.3829 11.6538 35.5846C12.803 35.5247 13.9523 35.4647 15.1177 35.3993C15.1393 35.6446 15.1554 35.8572 15.177 36.1025C14.9504 36.1243 14.74 36.1461 14.5242 36.1624C12.7653 36.2606 11.001 36.3096 9.24746 36.4568C7.5533 36.5985 5.87532 36.5113 4.18655 36.4077C3.09128 36.3369 1.99601 36.2715 0.900743 36.2333C0.490691 36.217 0.113012 36.2279 0.0644531 35.6827C0.0644531 35.3393 0.0644531 34.9905 0.0644531 34.647ZM6.38789 28.5691C6.7278 28.5364 7.03534 28.5418 7.32669 28.4764C7.84465 28.362 8.23312 28.073 8.33024 27.5116C8.40577 27.1028 8.50829 26.6885 8.51368 26.2796C8.55145 23.1017 8.56764 19.9237 8.57303 16.7457C8.57303 16.3587 8.4921 15.9717 8.40577 15.5955C8.31405 15.214 8.04428 14.9305 7.6666 14.8869C7.29432 14.8433 6.90045 14.925 6.4958 14.9523C6.46342 19.4876 6.42565 23.9956 6.38789 28.5691Z" fill="url(#paint0_linear)"/>
<path d="M110.617 28.1603C110.58 28.6563 110.553 29.1524 110.504 29.6484C110.358 31.2402 110.089 32.8046 109.295 34.211C108.707 35.2521 107.974 36.1843 106.873 36.7348C105.972 37.1818 105.006 37.2854 104.013 37.2472C103.317 37.22 102.637 37.1164 101.995 36.8275C101.245 36.4895 100.663 35.9553 100.139 35.3285C98.6719 33.5841 98.0622 31.5073 97.8302 29.2832C97.7169 28.2094 97.6305 27.13 97.7277 26.0507C97.9003 24.2028 98.3643 22.453 99.3355 20.8559C99.4272 20.7032 99.6754 20.556 99.5243 20.338C98.6287 19.0515 98.3211 17.5743 98.1755 16.0589C98.0082 14.3037 98.0838 12.5539 98.4938 10.8368C98.8445 9.35953 99.5567 8.06218 100.625 6.99377C101.251 6.36689 102.049 6.07799 102.929 5.98532C104.601 5.81088 105.923 6.43776 107.051 7.66425C108.319 9.03792 108.966 10.6896 109.312 12.4885C109.576 13.8621 109.727 15.2576 109.646 16.6585C109.565 18.0431 109.355 19.4004 108.626 20.616C109.986 22.3004 110.364 24.3118 110.563 26.3778C110.58 26.5359 110.596 26.6994 110.617 26.8575C110.617 27.2881 110.617 27.7242 110.617 28.1603ZM105.411 26.6776C105.405 25.8708 105.276 25.0913 104.952 24.35C104.806 24.0229 104.537 24.0175 104.256 24.0175C103.992 24.0229 103.76 24.0938 103.657 24.3827C103.155 25.7891 103.161 27.1846 103.722 28.5746C103.841 28.8689 104.078 29.0325 104.364 29.0216C104.699 29.0107 104.99 28.8853 105.114 28.5201C105.319 27.9205 105.411 27.3045 105.411 26.6776ZM104.844 16.0098C104.806 15.0396 104.709 14.271 104.326 13.5896C104.235 13.4315 104.003 13.3225 103.814 13.268C103.765 13.2516 103.587 13.4969 103.544 13.6441C103.188 14.8815 103.274 16.0971 103.765 17.2854C103.846 17.4871 103.97 17.6506 104.191 17.6288C104.402 17.607 104.574 17.4762 104.618 17.2363C104.709 16.7675 104.796 16.2933 104.844 16.0098Z" fill="url(#paint1_linear)"/>
<path d="M51.5214 6.05071C51.7588 5.27666 51.9746 4.56802 52.185 3.85938C52.3738 3.23251 52.5627 2.61108 52.7461 1.98421C52.7893 1.83158 52.8648 1.76072 53.0213 1.74436C54.3809 1.59718 55.7352 1.44455 57.0948 1.29192C58.1415 1.17745 59.1829 1.02482 60.2296 0.959408C60.8231 0.921251 61.4274 0.986664 62.0209 1.04663C62.7708 1.12294 63.5154 1.25377 64.26 1.34643C65.3552 1.48816 66.4505 1.61899 67.5458 1.74981C67.8209 1.78252 68.1015 1.82068 68.3767 1.82068C68.6518 1.81523 68.6896 1.94605 68.6896 2.1859C68.7058 4.08288 68.7274 5.9853 68.7544 7.88228C68.8623 15.5846 68.9756 23.287 69.0889 30.9894C69.1266 33.6332 69.1644 36.2769 69.213 38.9207C69.2184 39.1278 69.1482 39.1824 68.954 39.1933C67.8425 39.2478 66.7311 39.3186 65.6142 39.384C64.3031 39.4604 62.9974 39.5748 61.6863 39.5966C60.6288 39.6184 59.5659 39.5367 58.5084 39.4822C57.0085 39.4058 55.5086 39.3132 54.014 39.226C53.6579 39.2042 53.2965 39.1824 52.8918 39.1606C52.8918 36.2987 52.8918 33.4424 52.8918 30.5915C52.8648 30.586 52.8325 30.586 52.8055 30.5806C52.7731 30.7059 52.7407 30.8259 52.7084 30.9512C52.4764 31.7798 52.2444 32.6084 52.0231 33.4424C51.9746 33.6223 51.9044 33.6877 51.7156 33.6822C49.9999 33.6441 48.2841 33.6223 46.5684 33.5896C46.2338 33.5841 45.9047 33.5623 45.5702 33.5623C45.403 33.5623 45.322 33.5132 45.2735 33.3388C45.0738 32.5975 44.858 31.8561 44.6422 31.1202C44.6206 31.0385 44.5936 30.9512 44.5559 30.815C44.5559 33.1753 44.5559 35.4811 44.5559 37.8305C46.5036 37.7269 48.4136 37.6233 50.3452 37.5198C50.3452 36.4132 50.3452 35.3284 50.3452 34.2273C50.6203 34.2273 50.8739 34.2273 51.1707 34.2273C51.1707 35.5465 51.1707 36.8602 51.1707 38.2012C50.6581 38.2284 50.1347 38.2666 49.606 38.2938C48.0791 38.3756 46.5522 38.4192 45.0307 38.5391C43.002 38.6972 40.9895 38.4792 38.9716 38.381C38.1569 38.3429 37.3368 38.2938 36.5221 38.2502C36.1228 38.2284 36.1228 38.2393 36.1174 37.8196C36.1174 37.498 36.1174 37.1709 36.1174 36.8166C36.0041 36.8602 35.9232 36.8875 35.8477 36.9147C36.112 36.7893 36.1174 36.5713 36.112 36.3205C36.0743 25.6746 36.0419 15.0286 36.0149 4.38268C36.0149 4.14829 36.0149 3.91389 36.0149 3.66314C36.6893 3.58683 37.3206 3.51051 37.9519 3.43965C39.4896 3.27066 41.0219 3.06897 42.5596 2.9436C43.1585 2.89454 43.7735 3.00356 44.3832 3.06352C45.5001 3.17255 46.6169 3.30337 47.7338 3.41784C48.678 3.51596 49.6276 3.59773 50.5718 3.70675C50.6635 3.71765 50.7876 3.85938 50.8254 3.96295C51.0574 4.62798 51.2732 5.30392 51.5214 6.05071ZM62.1396 1.81523C62.2906 14.1728 62.4363 26.4704 62.5874 38.8117C64.5513 38.7081 66.4829 38.5991 68.4414 38.4955C68.2688 26.4923 68.1015 14.5271 67.9288 2.52932C66.0081 2.28947 64.0981 2.05507 62.1396 1.81523ZM44.4372 3.79397C45.7806 7.95859 47.1079 12.0796 48.4406 16.2115C48.4622 16.1679 48.4783 16.1352 48.4891 16.1025C49.3632 13.208 50.2373 10.3135 51.1059 7.41893C51.1329 7.32627 51.1221 7.20634 51.0951 7.10822C50.8739 6.39958 50.6419 5.69639 50.4099 4.98775C50.2103 4.37723 50.2103 4.39904 49.5736 4.33908C48.4568 4.23551 47.3399 4.10468 46.2285 3.98476C45.6403 3.91934 45.0522 3.85938 44.4372 3.79397Z" fill="url(#paint2_linear)"/>
<path d="M18.4309 35.1213C17.9453 35.3884 17.4597 35.6501 16.9741 35.9117C16.9633 35.8954 16.9579 35.879 16.9472 35.8627C17.3572 35.5192 17.7673 35.1813 18.1881 34.8324C17.9939 34.5544 17.8158 34.3146 17.6594 34.0693C16.4939 32.265 15.7656 30.2971 15.663 28.1385C15.5821 26.4159 15.5929 24.688 15.5875 22.9654C15.5821 20.8667 15.5983 18.7681 15.6037 16.6694C15.6145 14.8542 15.7548 13.0499 16.4292 11.3492C16.7961 10.4279 17.3087 9.57212 17.7619 8.68359C17.8104 8.58547 17.8806 8.50371 17.9561 8.39468C17.7834 8.24751 17.6216 8.11123 17.4597 7.9695C17.4651 7.9586 17.4705 7.94225 17.4759 7.93134C17.6755 8.01856 17.8698 8.10578 18.0101 8.17119C18.6036 7.58247 19.1431 6.9665 19.7636 6.4541C21.4092 5.08588 23.3138 4.42085 25.4503 4.51897C26.3352 4.55713 27.22 4.69885 28.0995 4.79697C29.0437 4.90054 29.9933 5.00411 30.9375 5.10768C32.0705 5.22761 33.2036 5.35298 34.3366 5.47291C34.5416 5.49471 34.7413 5.51652 34.9787 5.53832C34.9517 5.78362 34.9247 6.00166 34.8977 6.25241C33.441 6.09978 31.995 5.94715 30.5544 5.79452C30.549 5.81087 30.5382 5.82723 30.5328 5.84358C30.7001 5.96895 30.8727 6.08888 31.04 6.2197C32.7449 7.61518 33.7809 9.42494 34.315 11.5563C34.6927 13.0554 34.7736 14.5817 34.779 16.1189C34.7844 19.5421 34.806 22.9654 34.8006 26.3887C34.8006 28.2857 34.5794 30.1554 33.8888 31.9433C33.2251 33.6604 32.2324 35.1377 30.7756 36.2715C30.4303 36.5386 30.0526 36.7675 29.6696 37.0292C30.6353 36.9801 31.5795 36.9256 32.5345 36.8766C32.5561 37.1164 32.5777 37.329 32.5993 37.5743C32.3835 37.5961 32.1784 37.6234 31.9788 37.6343C30.139 37.7324 28.2991 37.836 26.4593 37.9123C25.5367 37.9504 24.6033 38.0104 23.686 37.9177C21.6789 37.7106 20.001 36.7839 18.6197 35.3067C18.5712 35.2521 18.5226 35.2031 18.4741 35.1486C18.4579 35.1322 18.4417 35.1268 18.4309 35.1213ZM26.9826 21.0848C26.988 19.3786 26.988 17.667 26.9826 15.9608C26.9826 15.6773 26.9665 15.3993 26.9395 15.1159C26.837 14.1292 26.2435 13.4151 25.2993 13.1426C25.2183 13.1208 25.1158 13.1099 25.0349 13.1317C23.9126 13.4315 23.1033 14.0802 22.812 15.2576C22.731 15.5901 22.6933 15.939 22.6879 16.2824C22.6771 17.8905 22.6825 19.4985 22.6879 21.1066C22.6933 22.9763 22.6879 24.846 22.7203 26.7212C22.7364 27.7787 23.276 28.5201 24.2256 28.9452C24.4738 29.0543 24.7759 29.1851 25.0187 29.1251C25.7687 28.9507 26.4215 28.5419 26.7291 27.8005C26.9071 27.3644 26.9718 26.852 26.9772 26.3723C26.9988 24.6062 26.9826 22.8455 26.9826 21.0848Z" fill="url(#paint3_linear)"/>
<path d="M82.9929 20.6324C82.9605 18.1957 82.8958 15.7646 82.9012 13.3279C82.9066 10.8749 83.5271 8.59094 84.9784 6.57949C85.9658 5.21127 87.2715 4.44812 88.9549 4.27369C91.1616 4.04474 92.8018 5.04229 94.1992 6.61765C95.9311 8.58004 96.7836 10.9186 96.9563 13.5024C97.0966 15.6119 97.1289 17.7324 97.1883 19.8474C97.2638 22.7092 97.3501 25.5656 97.3717 28.4274C97.3879 30.1718 97.1505 31.8888 96.4167 33.4969C95.7315 35.0014 94.8305 36.3424 93.4331 37.28C92.3809 37.9832 91.2155 38.223 89.9638 38.114C87.9351 37.9341 86.4676 36.8657 85.3615 35.2086C84.6115 34.0911 83.9857 32.9136 83.6512 31.5945C83.3544 30.4007 83.1926 29.1906 83.1602 27.9586C83.1008 25.7727 83.0685 23.5814 83.0253 21.3901C83.0199 21.1339 83.0253 20.8831 83.0253 20.6269C83.0145 20.6324 83.0037 20.6324 82.9929 20.6324ZM91.5447 21.51C91.4961 19.4059 91.4691 17.2963 91.3936 15.1922C91.372 14.6307 91.2155 14.0693 91.0914 13.5187C90.9943 13.0826 90.649 12.8537 90.2659 12.6847C90.0717 12.5975 89.8937 12.6247 89.6994 12.7229C89.2138 12.9627 89.0574 13.4042 89.0358 13.8894C89.0034 14.6961 88.998 15.5029 89.0142 16.3097C89.0844 20.0873 89.1599 23.8649 89.2516 27.6425C89.2624 28.1331 89.3811 28.6291 89.4998 29.1088C89.5969 29.4958 90.1472 29.8883 90.4872 29.8774C90.8487 29.8665 91.3774 29.4849 91.4583 29.087C91.5662 28.5691 91.6634 28.0349 91.658 27.5062C91.6526 25.5056 91.5878 23.5105 91.5447 21.51Z" fill="url(#paint4_linear)"/>
<path d="M75.493 17.1055C75.2988 17.3344 75.0991 17.5688 74.9049 17.7978C74.6837 18.054 74.2251 18.0267 74.0362 17.7487C72.9841 16.2006 71.9374 14.6471 70.8853 13.099C70.7828 12.9463 70.7882 12.8428 70.8745 12.6901C72.655 9.64297 74.4463 6.60127 76.1998 3.54322C76.4318 3.13439 76.7393 3.06898 77.1008 3.10713C78.4389 3.25431 79.777 3.4233 81.115 3.59773C81.2067 3.60863 81.3308 3.7122 81.3524 3.79397C81.4279 4.06107 81.5089 4.33908 81.5143 4.61163C81.6222 10.3135 81.7193 16.0207 81.8218 21.7226C81.892 25.6909 81.9675 29.6593 82.0376 33.6277C82.0592 34.8651 82.097 36.097 82.1024 37.3344C82.1024 37.6015 82.016 37.8686 81.9459 38.1249C81.9297 38.1794 81.8164 38.2339 81.7463 38.2393C80.6456 38.3156 79.5396 38.392 78.4389 38.4519C77.7213 38.4901 77.0037 38.5064 76.2861 38.5337C76.1243 38.5391 76.0379 38.4901 76.0163 38.3156C75.9786 37.994 75.8815 37.6724 75.8761 37.3508C75.7628 30.9948 75.6549 24.6334 75.5523 18.2775C75.5469 17.8959 75.5523 17.5143 75.5523 17.1328C75.5362 17.1219 75.5146 17.1164 75.493 17.1055Z" fill="url(#paint5_linear)"/>
<defs>
<linearGradient id="paint0_linear" x1="8.43005" y1="6.91086" x2="8.43005" y2="36.5309" gradientUnits="userSpaceOnUse">
<stop stop-color="#F2C94C"/>
<stop offset="1" stop-color="#F29C4C"/>
</linearGradient>
<linearGradient id="paint1_linear" x1="104.151" y1="5.95657" x2="104.151" y2="37.2545" gradientUnits="userSpaceOnUse">
<stop stop-color="#F2C94C"/>
<stop offset="1" stop-color="#F29C4C"/>
</linearGradient>
<linearGradient id="paint2_linear" x1="52.5305" y1="0.948059" x2="52.5305" y2="39.6003" gradientUnits="userSpaceOnUse">
<stop stop-color="#F2C94C"/>
<stop offset="1" stop-color="#F29C4C"/>
</linearGradient>
<linearGradient id="paint3_linear" x1="25.2825" y1="4.50949" x2="25.2825" y2="37.9668" gradientUnits="userSpaceOnUse">
<stop stop-color="#F2C94C"/>
<stop offset="1" stop-color="#F29C4C"/>
</linearGradient>
<linearGradient id="paint4_linear" x1="90.1367" y1="4.24109" x2="90.1367" y2="38.1391" gradientUnits="userSpaceOnUse">
<stop stop-color="#F2C94C"/>
<stop offset="1" stop-color="#F29C4C"/>
</linearGradient>
<linearGradient id="paint5_linear" x1="76.4557" y1="3.09775" x2="76.4557" y2="38.5341" gradientUnits="userSpaceOnUse">
<stop stop-color="#F2C94C"/>
<stop offset="1" stop-color="#F29C4C"/>
</linearGradient>
</defs>
</svg>
