<svg xmlns="http://www.w3.org/2000/svg" width="49" height="31" viewBox="0 0 49 31">
  <defs>
    <style>
      .cls-1 {
        fill: #fffffd;
        fill-rule: evenodd;
      }
    </style>
  </defs>
  <path class="cls-1" d="M1261,53.737a0.738,0.738,0,0,0,.74.738h36.38a0.738,0.738,0,1,0,0-1.476h-36.38A0.738,0.738,0,0,0,1261,53.737Zm0.74,8.857h36.38a0.738,0.738,0,1,1,0,1.476h-36.38A0.738,0.738,0,1,1,1261.74,62.595Zm0,10.333h36.38a0.738,0.738,0,1,1,0,1.476h-36.38A0.738,0.738,0,1,1,1261.74,72.928Zm0,9.6h36.38a0.738,0.738,0,1,1,0,1.476h-36.38A0.738,0.738,0,1,1,1261.74,82.523ZM1303.32,53h5.94a0.738,0.738,0,1,1,0,1.476h-5.94A0.738,0.738,0,1,1,1303.32,53Zm0,9.6h5.94a0.738,0.738,0,1,1,0,1.476h-5.94A0.738,0.738,0,1,1,1303.32,62.595Zm0,10.333h5.94a0.738,0.738,0,1,1,0,1.476h-5.94A0.738,0.738,0,1,1,1303.32,72.928Zm0,9.6h5.94a0.738,0.738,0,1,1,0,1.476h-5.94A0.738,0.738,0,1,1,1303.32,82.523Z" transform="translate(-1261 -53)"/>
</svg>
