<svg width="32" height="32" viewBox="0 0 32 32" fill="none" xmlns="http://www.w3.org/2000/svg">
<g clip-path="url(#clip0)">
<path d="M13 11.5V19H19V14.5V11.5L18.5 10L17.5 9L16.5 8.5L14.5 9L13.5 10L13 11.5Z" fill="#F2C94C"/>
<path d="M8.5 14.5H10.5V13H8.5V14.5Z" fill="#F2C94C"/>
<path d="M21 14.5H23V13H21V14.5Z" fill="#F2C94C"/>
<path d="M7.5 21.5H6V29H7.5V21.5Z" fill="#F2C94C"/>
<path d="M3 10.5V14L16 4.5L28.5 14L29 10.5L16 1L3 10.5Z" fill="#F2C94C"/>
<path d="M31.4437 21.241C31.0048 20.8714 30.3659 20.7061 29.7621 20.8106L16.7088 23.4213L14.2437 20.9562C14.144 20.856 14.0085 20.8 13.8667 20.8H8H5.86667H0.533333C0.2384 20.8 0 21.0389 0 21.3333V29.3333C0 29.6277 0.2384 29.8667 0.533333 29.8667H5.86667H8C8.29493 29.8667 8.53333 29.6277 8.53333 29.3333V28.8H9.99733L15.7445 31.9349C15.8229 31.9776 15.9109 32 16 32H17.6C17.6971 32 17.7915 31.9739 17.8747 31.9237L31.2021 23.9269C31.7093 23.6314 32 23.0746 32 22.4C32 21.9546 31.8027 21.5429 31.4437 21.241ZM5.33333 28.8H1.06667V21.8666H5.33333V28.8ZM7.46667 28.8H6.4V21.8666H7.46667V28.8ZM30.6587 23.0096L17.4523 30.9333H16.136L10.3888 27.7984C10.3104 27.7557 10.2224 27.7333 10.1333 27.7333H8.53333V21.8666H13.6459L18.2896 26.5109C18.5253 26.7461 18.6667 27.0043 18.6667 27.2C18.6667 27.7381 18.1387 28.2667 17.6 28.2667C17.4048 28.2667 17.1467 28.1253 16.9104 27.8896L13.7104 24.6896L12.9563 25.4437L16.1563 28.6443C16.6016 29.0885 17.1141 29.3333 17.6 29.3333C18.7365 29.3333 19.7333 28.3365 19.7333 27.2C19.7333 26.7131 19.4885 26.2005 19.0437 25.7563L17.6149 24.3274L29.9579 21.8586C30.2379 21.8085 30.5589 21.8896 30.7573 22.057C30.9333 22.2053 30.9333 22.352 30.9333 22.4C30.9333 22.5349 30.9072 22.8645 30.6587 23.0096Z" fill="black"/>
<path d="M16 13.3337C15.7056 13.3337 15.4667 13.0942 15.4667 12.8003C15.4667 12.5065 15.7056 12.267 16 12.267C16.2944 12.267 16.5333 12.5065 16.5333 12.8003C16.5333 13.0947 16.7717 13.3337 17.0667 13.3337C17.3616 13.3337 17.6 13.0947 17.6 12.8003C17.6 12.1059 17.1525 11.5193 16.5333 11.2985V10.667H15.4667V11.2985C14.8475 11.5193 14.4 12.1059 14.4 12.8003C14.4 13.6825 15.1179 14.4003 16 14.4003C16.2944 14.4003 16.5333 14.6398 16.5333 14.9337C16.5333 15.2275 16.2944 15.467 16 15.467C15.7056 15.467 15.4667 15.2275 15.4667 14.9337H14.4C14.4 15.6281 14.8475 16.2147 15.4667 16.4355V17.067H16.5333V16.4355C17.1525 16.2147 17.6 15.6281 17.6 14.9337C17.6 14.0515 16.8821 13.3337 16 13.3337Z" fill="black"/>
<path d="M29.1312 10.2485L16.3312 0.1152C16.1365 -0.0384 15.8635 -0.0384 15.6688 0.1152L10.6667 4.0752V2.66667C10.6667 2.37227 10.4283 2.13333 10.1333 2.13333H6.93334C6.63841 2.13333 6.40001 2.37227 6.40001 2.66667V7.4528L2.86881 10.2485C2.74134 10.3499 2.66667 10.5035 2.66667 10.6667V14.4C2.66667 14.6043 2.78401 14.7909 2.96747 14.88C3.15147 14.9685 3.36961 14.9456 3.53121 14.8181L5.86667 12.9691V19.2C5.86667 19.4944 6.10507 19.7333 6.40001 19.7333H12.8H19.2H25.6C25.8949 19.7333 26.1333 19.4944 26.1333 19.2V12.9691L28.4688 14.8181C28.5653 14.8944 28.6821 14.9333 28.8 14.9333C28.8789 14.9333 28.9584 14.9157 29.0325 14.88C29.216 14.7909 29.3333 14.6043 29.3333 14.4V10.6667C29.3333 10.5035 29.2587 10.3499 29.1312 10.2485ZM7.46667 3.2H9.60001V4.91947L7.46667 6.60853V3.2ZM18.6667 18.6667H13.3333V11.7333C13.3333 10.2629 14.5296 9.06667 16 9.06667C17.4704 9.06667 18.6667 10.2629 18.6667 11.7333V18.6667ZM25.0667 18.6667H19.7333V11.7333C19.7333 9.67467 18.0581 8 16 8C13.9419 8 12.2667 9.67467 12.2667 11.7333V18.6667H6.93334V12.1248L16 4.94667L25.0667 12.1248V18.6667ZM28.2667 13.2971L25.9317 11.4485L25.9312 11.448L16.3312 3.848C16.1365 3.6944 15.8635 3.6944 15.6688 3.848L6.06881 11.448L6.06827 11.4485L3.73334 13.2976V10.9248L7.26347 8.13013C7.26401 8.1296 7.26454 8.1296 7.26454 8.1296L10.4645 5.59627C10.4651 5.59627 10.4651 5.59573 10.4651 5.5952L16 1.21333L28.2667 10.9243V13.2971Z" fill="black"/>
<path d="M10.6667 12.2666H8.53333C8.2384 12.2666 8 12.5055 8 12.7999V14.9333C8 15.2277 8.2384 15.4666 8.53333 15.4666H10.6667C10.9616 15.4666 11.2 15.2277 11.2 14.9333V12.7999C11.2 12.5055 10.9616 12.2666 10.6667 12.2666ZM10.1333 14.3999H9.06667V13.3333H10.1333V14.3999Z" fill="black"/>
<path d="M23.4667 12.2666H21.3333C21.0384 12.2666 20.8 12.5055 20.8 12.7999V14.9333C20.8 15.2277 21.0384 15.4666 21.3333 15.4666H23.4667C23.7616 15.4666 24 15.2277 24 14.9333V12.7999C24 12.5055 23.7616 12.2666 23.4667 12.2666ZM22.9333 14.3999H21.8667V13.3333H22.9333V14.3999Z" fill="black"/>
</g>
<defs>
<clipPath id="clip0">
<rect width="32" height="32" fill="white"/>
</clipPath>
</defs>
</svg>
