<svg width="32" height="32" viewBox="0 0 32 32" fill="none" xmlns="http://www.w3.org/2000/svg">
<path d="M11.7895 16.4209L14.7368 15.9998L15.1579 14.3156L14.3158 13.4735L13.0526 12.2104V9.263V7.99985H13.8947H16.4211L18.1053 6.73669L19.3684 7.57879L21.4737 7.99985V10.1051L21.0526 12.2104L19.3684 14.3156V15.9998L19.7895 16.4209H21.8947H24L26.1053 16.842L26.9474 15.5788V14.3156V12.6314L26.1053 10.9472V10.1051V7.99985L25.2632 6.31564L24 5.89458V4.63142L22.3158 2.94721L20.6316 1.263L17.6842 0.420898L14.7368 0.841951L12.2105 2.52616L10.5263 5.05248L9.26316 6.31564L8.42105 7.99985V10.1051V11.3683L7.57895 13.4735V15.1577L8.84211 16.842L11.7895 16.4209Z" fill="#F2C94C"/>
<path d="M6.68498 22.5648C7.34129 22.5648 7.8753 22.0308 7.8753 21.3745C7.8753 21.0293 7.59548 20.7495 7.2503 20.7495C6.92436 20.7495 6.65667 20.999 6.62786 21.3174C6.30942 21.3462 6.05998 21.6139 6.05998 21.9398C6.05998 22.285 6.33979 22.5648 6.68498 22.5648Z" fill="black"/>
<path d="M17.216 12.616C17.6408 12.616 18.0655 12.4543 18.3889 12.131C18.6329 11.8869 18.6329 11.4912 18.3889 11.247C18.1448 11.0029 17.749 11.003 17.5049 11.247C17.3456 11.4064 17.0864 11.4063 16.9271 11.247C16.683 11.003 16.2873 11.003 16.0432 11.247C15.7991 11.4911 15.7991 11.8868 16.0432 12.131C16.3667 12.4543 16.7914 12.616 17.216 12.616Z" fill="black"/>
<path d="M30.7633 22.8551C30.6931 22.5171 30.3621 22.2999 30.0243 22.3702C29.6863 22.4404 29.4693 22.7712 29.5395 23.1092C29.6462 23.6231 29.7002 24.1522 29.7002 24.6819V27.5619C29.7002 29.3195 28.2704 30.7493 26.5128 30.7493H19.8411V27.4898H24.8253C25.1705 27.4898 25.4503 27.21 25.4503 26.8648V23.3745C25.4503 23.0293 25.1705 22.7495 24.8253 22.7495C24.4801 22.7495 24.2003 23.0293 24.2003 23.3745V26.2398H17.4709C17.4035 26.2398 17.3367 26.243 17.2704 26.2476C17.1301 25.1223 16.6178 24.0599 15.8088 23.2507L9.94496 17.387C10.7291 17.1233 11.549 16.9894 12.3932 16.9894H12.7133C13.019 19.1923 14.9141 20.8942 17.2004 20.8942C19.4868 20.8942 21.382 19.1923 21.6875 16.9894H22.0077C23.7798 16.9894 25.5093 17.6064 26.8777 18.7269C26.9938 18.822 27.134 18.8684 27.2733 18.8684C27.4542 18.8684 27.6336 18.7902 27.7572 18.6393C27.9759 18.3723 27.9367 17.9785 27.6696 17.7599C27.3467 17.4954 27.0062 17.2556 26.6518 17.0404C27.2601 16.1562 27.5932 15.1079 27.6011 14.0191C27.61 12.7982 27.2102 11.622 26.4682 10.6666C27.0751 8.87906 26.6256 6.91116 25.2734 5.55894C25.0345 5.31995 24.7718 5.10583 24.4904 4.92039C23.3065 1.96833 20.4107 0 17.2161 0C14.0215 0 11.1256 1.96833 9.94177 4.92039C9.6604 5.10583 9.39766 5.32001 9.15873 5.55894C7.80657 6.9111 7.35714 8.87918 7.964 10.6667C6.81153 12.1532 6.54028 14.1209 7.16083 15.8342C6.83927 15.7718 6.50947 15.7395 6.17466 15.7395C4.80576 15.7395 3.51878 16.2726 2.5508 17.2406C1.58289 18.2085 1.04977 19.4955 1.04977 20.8644C1.04977 22.2333 1.58289 23.5203 2.5508 24.4883C2.55124 24.4887 2.55168 24.4891 2.55205 24.4895L4.30245 26.2399H4.14583C2.55812 26.2399 1.26639 27.5317 1.26639 29.1194C1.26639 30.7072 2.55812 31.9989 4.14583 31.9989L10.0167 31.9993C10.3398 31.9993 10.6503 31.945 10.9406 31.8464C11.3523 31.9493 11.7697 32 12.1842 32C13.2894 32 14.3725 31.6415 15.2658 30.969C15.7945 31.5984 16.5866 31.9994 17.4709 31.9994H26.5128C28.9596 31.9994 30.9502 30.0087 30.9502 27.562V24.6819C30.9502 24.067 30.8873 23.4524 30.7633 22.8551ZM7.45464 25.8283C8.33374 25.6033 9.14004 25.1466 9.79846 24.4882C10.7664 23.5202 11.2996 22.2332 11.2996 20.8643C11.2996 20.7402 11.2937 20.6172 11.285 20.4947L14.7889 23.9985C12.7255 25.796 9.98071 26.4059 7.45464 25.8283ZM17.2005 19.6442C15.605 19.6442 14.2717 18.4999 13.9789 16.9894H15.2843C15.6295 16.9894 15.9093 16.7096 15.9093 16.3644V15.1091C16.3209 15.222 16.7536 15.2835 17.2005 15.2835C17.6474 15.2835 18.08 15.222 18.4916 15.1091V16.3644C18.4916 16.7096 18.7715 16.9894 19.1166 16.9894H20.422C20.1292 18.5 18.796 19.6442 17.2005 19.6442ZM13.5624 8.45226H15.5403C16.4327 8.45226 17.2455 8.10664 17.8532 7.54284C18.427 8.1167 19.2128 8.45226 20.0471 8.45226H20.8386V10.3955C20.8386 12.4015 19.2066 14.0335 17.2006 14.0335C15.1945 14.0335 13.5626 12.4015 13.5626 10.3955V8.45226H13.5624ZM9.25297 10.5399C8.65105 9.13262 8.96104 7.5244 10.0426 6.4428C10.2611 6.22424 10.506 6.0335 10.7704 5.87581C10.8932 5.80263 10.9871 5.6895 11.0366 5.55544C11.9868 2.98019 14.4702 1.24997 17.2161 1.24997C19.9621 1.24997 22.4453 2.98019 23.3956 5.55538C23.4451 5.6895 23.539 5.80256 23.6619 5.87581C23.9262 6.0335 24.1711 6.22424 24.3897 6.4428C25.4713 7.5244 25.7812 9.13262 25.1793 10.5399C25.0836 10.7636 25.1264 11.0225 25.2891 11.2034C26.6334 12.6996 26.7095 14.8886 25.5288 16.4628C24.4231 15.9897 23.2241 15.7395 22.0078 15.7395H19.7417V14.5695C21.1479 13.7102 22.0886 12.1607 22.0886 10.3956V7.82733C22.0886 7.48215 21.8088 7.20235 21.4636 7.20235H20.0471C19.484 7.20235 18.9585 6.94591 18.6105 6.5178C18.8245 6.07262 18.9445 5.57413 18.9445 5.04802C18.9445 4.70284 18.6646 4.42303 18.3195 4.42303C17.9743 4.42303 17.6945 4.70284 17.6945 5.04802C17.6945 6.23587 16.7281 7.20228 15.5402 7.20228H12.9374C12.5922 7.20228 12.3124 7.48209 12.3124 7.82727V10.3955C12.3124 12.1607 13.2531 13.7101 14.6593 14.5694V15.7394H12.3932C11.1758 15.7394 10.0011 15.979 8.89523 16.4503C7.73451 14.8823 7.82382 12.6717 9.14316 11.2033C9.30579 11.0224 9.34866 10.7636 9.25297 10.5399ZM3.43472 18.1244C4.16658 17.3925 5.13969 16.9894 6.17466 16.9894C7.20958 16.9894 8.18256 17.3924 8.91442 18.1242L8.91461 18.1244L8.91523 18.125C9.64672 18.8568 10.0496 19.8296 10.0496 20.8643C10.0496 21.8993 9.64647 22.8724 8.91461 23.6042C8.18275 24.3361 7.20964 24.7392 6.17466 24.7392C5.13962 24.7392 4.16658 24.3362 3.43472 23.6042C2.70286 22.8724 2.29975 21.8993 2.29975 20.8643C2.29975 19.8293 2.7028 18.8562 3.43472 18.1244ZM2.51637 29.1192C2.51637 28.2208 3.24735 27.4897 4.14583 27.4897H7.64657V30.7488H4.14583C3.24729 30.7488 2.51637 30.0178 2.51637 29.1192ZM8.89654 30.7493V27.4898H10.0167C10.9154 27.4898 11.6465 28.2209 11.6465 29.1196C11.6465 30.0182 10.9153 30.7493 10.0167 30.7493H8.89654ZM12.3929 30.744C12.7103 30.2813 12.8964 29.7218 12.8964 29.1196C12.8964 28.2517 12.51 27.4728 11.9007 26.9444C13.2446 26.5713 14.4925 25.9058 15.5665 24.9798C15.8476 25.4788 16.0136 26.0341 16.0511 26.6157C15.1802 27.1115 14.5911 28.0478 14.5911 29.1196C14.5911 29.3672 14.6225 29.6077 14.6817 29.8372C14.0311 30.3858 13.2258 30.6991 12.3929 30.744ZM15.8411 29.1196C15.8411 28.2209 16.5723 27.4898 17.4709 27.4898H18.5911V30.7493H17.4709C16.5723 30.7493 15.8411 30.0182 15.8411 29.1196Z" fill="black"/>
<path d="M29.1191 20.9902C29.2834 20.9902 29.4447 20.9234 29.5609 20.8071C29.6772 20.6909 29.7441 20.5296 29.7441 20.3652C29.7441 20.2009 29.6772 20.0396 29.5609 19.9234C29.4441 19.8071 29.2834 19.7402 29.1191 19.7402C28.9541 19.7402 28.7934 19.8071 28.6766 19.9234C28.5603 20.0396 28.4941 20.2009 28.4941 20.3652C28.4941 20.5296 28.5603 20.6909 28.6766 20.8071C28.7934 20.9234 28.9541 20.9902 29.1191 20.9902Z" fill="black"/>
</svg>
