<svg xmlns="http://www.w3.org/2000/svg" width="1349" height="1782" fill="none" xmlns:v="https://vecta.io/nano"><style><![CDATA[.B{fill:#001e20}.C{fill:#007550}.D{fill:#fff}.E{fill:#ffc856}.F{fill:#ff513f}.G{fill-opacity:.1}]]></style><path fill="#f9bf49" d="M865 1605h484v177H865z"/><ellipse cx="666" cy="1612.44" rx="44" ry="42" fill="url(#A)"/><g class="B"><path d="M622.433 1589.95l7.937-2.57-.67 2.52-7.266.05z"/><path d="M630.364 1587.37l3.482 3.28-.7 2.6-3.454-3.4.66-2.48zm10.99 7.73l-4.236-5.9-.672 2.53 4.908 3.37z"/><path d="M637.126 1589.2l-3.287 1.43-.688 2.6 3.314-1.54.66-2.48zm.85-3.7l3.174-2.62-.493 1.86-2.68.76z"/><path d="M641.145 1582.87l1.455 2-.47 1.77-1.435-2.06.45-1.7zm5.63 4.9l-2.285-4-.476 1.8 2.76 2.2z"/><path d="M644.494 1583.78l-2.092 1.1-.488 1.83 2.1-1.15.47-1.77zm1.003 8.75l4.06-.38-.2.8-3.85-.42z"/><path d="M649.556 1592.14l2.084 1.48-.268 1-2.074-1.52.258-.97zm5.63 3.03l-1.94-2.03-.2.8 2.15 1.23z"/><path d="M653.25 1593.15l-1.613.47-.268 1 1.623-.5.258-.97zm-29.22 3.8l2.3-.74-.193.73-2.098.01z"/><path d="M626.32 1596.2l1.006.95-.2.75-.998-.98.2-.72zm2.784 2.14l-.93-1.62-.194.73 1.125.9z"/><path d="M628.175 1596.72l-.852.44-.2.75.86-.47.19-.72z"/></g><g clip-path="url(#C)"><path d="M575.428 1630.63l-.47 6.28-.63 1.1v-6.63l1.098-.74z" class="E"/><path d="M574.33 1638h-2.597l-.87-6.63h3.467v6.63z" class="F"/><path d="M575.428 1630.63l-1.098.74h-3.467l1.064-.74h3.5z" class="B"/><path d="M575.25 1623.8l-.47 6.28-.635 1.1v-6.63l1.104-.74z" class="E"/><path d="M574.147 1631.16h-2.597l-.864-6.63h3.46v6.63z" class="F"/><path d="M575.25 1623.8l-1.104.74h-3.46l1.064-.74h3.5z" class="B"/><path d="M575.074 1616.95l-.475 6.28-.63 1.1v-6.63l1.104-.74z" class="E"/><path d="M573.97 1624.32h-2.597l-.864-6.63h3.46v6.63z" class="F"/><path d="M575.074 1616.95l-1.104.74h-3.46l1.058-.74h3.507z" class="B"/><path d="M573.77 1609.9l.48 6.27-.458 1.18-1-6.56.978-.9z" class="E"/><path d="M573.792 1617.34l-2.57.37-1.86-6.43 3.427-.5 1 6.56z" class="F"/><path d="M573.77 1609.9l-.978.9-3.427.5.938-.9 3.467-.5z" class="B"/><path d="M571.126 1603.16l1.248 6.18-.31 1.2-1.802-6.4.863-1z" class="E"/><path d="M572.064 1610.55l-2.505.67-2.637-6.17 3.34-.9 1.802 6.4z" class="F"/><path d="M571.126 1603.16l-.863 1-3.34.9.824-1 3.38-.9z" fill="#ffb300"/><path d="M568.478 1604.42l-4.274-1.57.435.86-4.24.6.875.8-5.532 3.37-.177 8.08 4.13-6 .298.73 1.6-2.85.555.3 1.47-1.72.132.43 4.737-3.04z" class="C"/><g class="B"><path d="M568.478 1604.42l-5.143 1.74.406 1.3 4.737-3.04zm-12.912 12.15l4.13-6-.577-1.33-3.496 4.74-.057 2.58z"/><path d="M563.335 1606.16l-4.216 3.1.875 2.06 1.6-2.86.555.3 1.47-1.7-.274-.87z"/></g><path d="M568.873 1604.07l-4.457-3.68.143 1.23-5.372-1.04.7 1.32-8.146 1.76-3.753 9.66 7.59-5.48.052 1 3.163-2.78.538.58 2.517-1.45-.023.57 7.037-1.68z" class="C"/><g class="B"><path d="M568.873 1604.07l-6.957-.05-.08 1.73 7.037-1.68zm-20.875 9.25l7.6-5.48-.097-1.86-6.293 4.25-1.2 3.1z"/><path d="M561.916 1604.02l-6.424 1.96.148 2.85 3.164-2.78.538.58 2.517-1.45.057-1.16z"/></g><path d="M569.13 1604.34l2.82-3.38.075.96 3.9-1.46-.337 1.1 6.4.34 4.245 6.95-6.533-3.27.11.77-2.798-1.74-.315.5-2.116-.8.103.44-5.555-.42z" class="C"/><g class="B"><path d="M569.13 1604.34l5.24-.9.315 1.32-5.555-.42zm17.105 4.5l-6.533-3.27-.195-1.44 5.366 2.5 1.362 2.22z"/><path d="M574.37 1603.44l5.137.7.304 2.2-2.798-1.74-.315.5-2.116-.8-.212-.88z"/></g><path d="M568.615 1604.22l1.916-5.3.498 1.12 4.027-3.4.075 1.5 7.79-2.3 8.078 6.64-9.216-1.2.463.88-4.1-.92-.16.75-2.872-.08.31.5-6.82 1.84z" class="C"/><g class="B"><path d="M568.615 1604.22l5.875-3.3.944 1.47-6.82 1.84zm22.385-1.75l-9.216-1.2-.858-1.66 7.488.74 2.586 2.13z"/><path d="M574.5 1600.9l6.436-1.3 1.322 2.54-4.09-.92-.16.75-2.872-.08-.635-.98z"/></g><path d="M568.873 1604.63l-1.494-5.86-.657 1.13-3.965-4.13-.24 1.56-8.13-3.4-9.388 6.05 10.034-.13-.59.88 4.496-.47.086.82 3.095.28-.383.47 7.134 2.8z" class="C"/><g class="B"><path d="M568.873 1604.63l-5.96-4.25-1.173 1.44 7.134 2.8zM545 1599.97l10.034-.13 1.098-1.66-8.13-.15-3.003 1.94z"/><path d="M562.912 1600.38l-6.78-2.2-1.688 2.54 4.496-.47.086.82 3.095.28.8-.97z"/></g><path d="M568.392 1604.43l-1.08-5.93 1.075.78 1.894-5.32.87 1.33 6-6.3 11.08 1.85-9.205 3.8.9.58-4.296 1.32.257.8-2.706 1.46.55.28-5.337 5.35z" class="C"/><g class="B"><path d="M568.392 1604.43l3.667-6.2 1.67.85-5.337 5.35zm19.828-13.58l-9.205 3.8-1.693-1.08 7.357-3.3 3.54.6z"/><path d="M572.06 1598.23l5.263-4.66 2.603 1.66-4.296 1.32.257.8-2.706 1.46-1.12-.57z"/></g><path d="M568.466 1603.37l1.556-4.2-.886.44-.687-4.12-.806.86-3.54-5.34-8.3-.05 6.207 3.93-.738.3 2.957 1.5-.29.54 1.78 1.4-.435.14 3.186 4.56z" class="C"/><g class="B"><path d="M568.466 1603.37l-1.865-4.98-1.32.42 3.186 4.56zm-12.666-12.4l6.207 3.93 1.367-.57-4.92-3.34-2.654-.02z"/><path d="M566.602 1598.4l-3.227-4.06-2.105.88 2.957 1.5-.29.54 1.78 1.4.887-.28z"/></g><g fill="#000"><path d="M571.063 1606.3c-.853 0-1.544-.67-1.544-1.5s.7-1.5 1.544-1.5 1.545.68 1.545 1.5-.692 1.5-1.545 1.5zm-3.243 1.6c-.853 0-1.545-.68-1.545-1.5s.692-1.5 1.545-1.5 1.544.67 1.544 1.5-.7 1.5-1.544 1.5z"/><path d="M568.872 1605.72c-.853 0-1.544-.67-1.544-1.5s.69-1.5 1.544-1.5 1.545.68 1.545 1.5-.692 1.5-1.545 1.5z"/></g></g><g clip-path="url(#D)"><path d="M540.083 1647.45l1.366-9.18-11.616-6.1 7.78 16.9 2.47-1.6z" class="B"/><path d="M531.027 1645l-1.194-12.83 7.78 16.9-6.587-4.06z" class="C"/><g class="E"><path d="M539.957 1617.08l3.108 3.27-10.03-1 1.672-2.66 5.25.4zm3.373 6.84l-10.004-.33-1.3-2.98 10.217.6 1.088 2.72z"/><path d="M543.33 1623.92l-.522 10.75-1.402-3.57.95-.87-1.425-1.8 1.538-1.2-1.643-3.42 2.504.1zm-3.933-.12l.406 2.7-1.392 1.96-1.245 2.4-2.08 4.12-1.76-11.38 6.07.2z"/></g><path d="M542.468 1627.25l-2.885-.45-1.172 1.66 2.52-.02 1.538-1.2z" class="B"/><g class="D"><path d="M539.555 1621.05l2.913 6.2-2.885-.45-.633-5.8.605.04zm2.8 9.18l-4.728-.25.784-1.52 2.52-.02 1.425 1.8z"/></g><path d="M541.405 1631.1l-4.24-.25.46-.87 4.728.25-.95.87z" class="B"/><path d="M542.808 1634.67l-.597 3.48-4.73.76-2.395-3.94 2.08-4.12 4.24.25 1.403 3.57z" class="C"/><path d="M543.065 1620.35l-.824.85-5.11-.3-5.108-.3 1.01-1.27 6.353-.54 3.677 1.55z" class="B"/><path d="M534.7 1616.78l-3.203 1.64-1.663 13.75 5.252 2.8-1.76-11.38-1.3-2.98 1.01-1.27 1.664-2.56z" class="C"/><g class="B"><path d="M531.775 1619.58l-1.293.8-.033 3.2 1.094.17.232-4.15z"/><path d="M529.374 1628.94l1.075-5.38 1.094.17-.343 5.25-1.826-.04z"/></g><path d="M538.95 1621l-.54 7.45 1.172-1.66-.633-5.8z" class="C"/></g><g clip-path="url(#E)"><path d="M575.933 1646.94l7.47-7.06 12.91 6.7-20.282 3.64-.098-3.27z" class="B"/><path d="M583.893 1653.62l12.42-7.05-20.282 3.64 7.862 3.4z" class="C"/><g class="E"><path d="M603.603 1627.8l-4.94-.75 7.274 8.48 1.355-3.2-3.688-4.52zm-8.35 1.27l6.632 8.9 3.536-.7-7-8.9-3.157.73z"/><path d="M595.254 1629.07l-9.443 7.3 4.136-1 .2-1.4 2.53.16.105-2.15 4.142-.67-1.66-2.23zm2.61 3.5l-2.722 1.35-.895 2.5-1.387 2.65-2.423 4.5 11.45-5.6-4.024-5.4z"/></g><path d="M592.772 1631.97l2.233 2.34-.76 2.1-1.58-2.3.105-2.15z" class="B"/><g class="D"><path d="M600.25 1630.7l-7.478 1.28 2.234 2.34 5.665-3.1-.42-.52zm-10.112 3.26l3.225 4.14.883-1.68-1.58-2.3-2.528-.16z"/></g><path d="M589.947 1635.37l2.912 3.7.504-.97-3.225-4.14-.19 1.4z" class="B"/><path d="M585.81 1636.37l-2.783 2.74 2.3 4.78 5.098-.32 2.423-4.5-2.912-3.7-4.136 1z" class="C"/><path d="M598.662 1627.05l-.25 1.3 3.505 4.46 3.506 4.45.513-1.72-3.53-6.12-3.742-2.36z" class="B"/><path d="M607.205 1632.4l.543 3.95-11.435 10.23-5.877-3 11.45-5.6 3.535-.7.513-1.72 1.27-3.14z" class="C"/><g class="B"><path d="M606.513 1636.83l.103 1.67-2.873 2.05-.847-.9 3.617-2.83z"/><path d="M599.54 1644.93l4.204-4.38-.847-.9-4.558 3.65 1.2 1.62z"/></g><path d="M600.67 1631.2l-6.425 5.2.76-2.1 5.666-3.1z" class="C"/></g><g clip-path="url(#F)"><path d="M543.68 1654.77l1.43-7.35 10.488-1.52-10.473 10.77-1.444-1.9z" class="B"/><path d="M551.232 1655.35l4.365-9.45-10.472 10.77 6.107-1.32z" class="C"/><g class="E"><path d="M551.95 1631.68l-3.246 1.66 7.907 1.93-.557-2.47-4.104-1.12zm-4.407 4.3l7.703 2.45 1.793-1.92-7.936-2.3-1.56 1.77z"/><path d="M547.543 1635.98l-2.5 8.33 2.03-2.34-.488-.92 1.567-.98-.85-1.32 2.17-2.16-1.928-.6zm3.027.96l-1.04 1.96.533 1.86.303 2.16.476 3.7 4.402-8.2-4.675-1.5z"/></g><path d="M547.3 1638.75l2.317.44.447 1.57-1.913-.7-.85-1.32z" class="B"/><g class="D"><path d="M551.188 1634.82l-3.887 3.93 2.317.44 2.042-4.24-.472-.13zm-4.602 6.23l3.667 1.08-.188-1.37-1.913-.7-1.566.98z"/></g><path d="M547.074 1641.97l3.294.95-.115-.8-3.667-1.08.488.92z" class="B"/><path d="M545.044 1644.3l-.482 2.8 3.398 1.85 2.883-2.35-.475-3.7-3.294-.95-2.03 2.34z" class="C"/><path d="M548.705 1633.34l.398.87 7.937 2.3-.428-1.24-4.7-2.12-3.217.2z" class="B"/><path d="M556.034 1632.87l1.998 2.1-2.435 10.92-4.753.72 4.402-8.2 1.794-1.92-.428-1.24-.578-2.4z" class="C"/><g class="B"><path d="M557.506 1635.8l.772.94-.832 2.44-.88-.17.94-3.2z"/><path d="M556.816 1643.56l.63-4.38-.88-.17-1.154 4.1 1.403.45z"/></g><path d="M551.66 1634.95l-1.595 5.8-.447-1.57 2.042-4.24z" class="C"/></g><g clip-path="url(#G)"><path d="M512.687 1655.37l-1.734-7.3 8.924-5.7-5.092 14.13-2.098-1.13z" class="B"/><path d="M519.804 1652.78l.073-10.4-5.092 14.13 5.02-3.72z" class="C"/><g class="E"><path d="M510.688 1630.93l-2.274 2.84 8-1.5-1.53-2.03-4.196.7zm-2.24 5.73l8.026-.95.84-2.5-8.18 1.18-.688 2.26z"/><path d="M508.448 1636.66l1.163 8.62.88-2.97-.824-.64 1.023-1.54-1.32-.85 1.085-2.86-2.008.24zm3.155-.36l-.14 2.2 1.255 1.47 1.168 1.85 1.96 3.16.63-9.27-4.87.58z"/></g><path d="M509.37 1639.28l2.3-.56 1.057 1.25-2.028.16-1.32-.85z" class="B"/><g class="D"><path d="M511.286 1634.1l-1.915 5.2 2.3-.56.1-4.7-.484.07zm-1.618 7.57l3.787-.53-.737-1.17-2.027.16-1.023 1.54z"/></g><path d="M510.492 1642.3l3.394-.5-.43-.68-3.787.53.824.64z" class="B"/><path d="M509.61 1645.28l.72 2.76 3.86.28 1.654-3.34-1.96-3.16-3.394.5-.88 2.97z" class="C"/><path d="M508.414 1633.77l.722.63 8.18-1.18-.9-.95h-5.15l-2.85 1.5z" class="B"/><path d="M514.898 1630.32l2.7 1.1 2.29 10.95-4.032 2.6.63-9.27.84-2.5-.9-.95-1.516-1.95z" class="C"/><g class="B"><path d="M517.444 1632.38l1.095.54.247 2.56-.87.2-.473-3.3z"/><path d="M520.023 1639.74l-1.237-4.26-.868.2.64 4.2 1.466-.16z"/></g><path d="M511.77 1634.02l.948 5.95-1.057-1.25.11-4.7z" class="C"/></g><g clip-path="url(#H)"><path d="M664.072 1648.66l.314-7.5-9.85-3.9 7.692 12.9 1.844-1.5z" class="B"/><path d="M656.593 1647.47l-2.057-10.2 7.692 12.9-5.635-2.7z" class="C"/><g class="E"><path d="M661.377 1624.28l2.774 2.36-8.14.05 1.116-2.28 4.25-.13zm3.29 5.2l-8.06.6-1.3-2.28 8.254-.4 1.106 2.08z"/><path d="M664.67 1629.48l.5 8.7-1.43-2.75.688-.8-1.297-1.3 1.133-1.1-1.6-2.6 2.018-.15zm-3.17.24l.558 2.14-.95 1.7-.796 2.03-1.318 3.48-2.386-8.98 4.892-.36z"/></g><path d="M664.262 1632.23l-2.355-.1-.8 1.43 2.02-.23 1.133-1.1z" class="B"/><g class="D"><path d="M661.393 1627.5l2.87 4.73-2.355-.1-1.004-4.6.5-.02zm3.032 7.13l-3.818.2.5-1.3 2.02-.23 1.297 1.3z"/></g><path d="M663.738 1635.42l-3.426.16.296-.74 3.818-.2-.688.8z" class="B"/><path d="M665.17 1638.17l-.182 2.84-3.734 1-2.26-2.96 1.318-3.48 3.426-.16 1.43 2.75z" class="C"/><path d="M664.15 1626.64l-.588.76-8.255.4.703-1.1 5.055-.98 3.085.93z" class="B"/><path d="M657.13 1624.5l-2.432 1.6-.16 11.18 4.457 1.8-2.385-8.98-1.3-2.28.703-1.1 1.118-2.2z" class="C"/><g class="B"><path d="M655.02 1627l-.97.75.246 2.56.893.04-.168-3.35z"/><path d="M653.892 1634.7l.403-4.4.894.04.173 4.25-1.47.12z"/></g><path d="M660.904 1627.52l.204 6.03.8-1.43-1.003-4.6z" class="C"/></g><g clip-path="url(#I)"><path d="M533.536 1608.5l1.733 1.64-2.118 1.2-1.87-2.6 2.255-.23z" class="E"/><path d="M530.196 1610.56l1.087-1.84 1.87 2.6-2.957-.76z" class="C"/><path d="M535.27 1610.12l-.288 6.18-2.1.37 1.338-5.95 1.05-.6z" class="B"/><path d="M528.16 1615.94l3.164 1 1.56-.28 1.338-5.95-1.068.6-.354 2.27-4.64 2.35z" class="C"/><path d="M534.397 1609.3l1.465.46-.827.14-.638-.6z" class="E"/><path d="M535.27 1610.12l.59-.36-.827.14.236.22z" fill="#2d2c28"/><path d="M533.153 1611.32l-2.957-.76-4.475 6.62 7.083-3.56.35-2.3z" class="E"/><g class="B"><path d="M526.004 1618.77l-2.546.45 2.264-2.04 2.44-1.23-2.16 2.82zm8.98-2.47l1.757.84-1.082.2-1.82-.83 1.145-.2zm-2.498.44l1.757.84-1.082.2-1.82-.83 1.145-.2zm.675-7.74l-.25.46.46.25.25-.46z"/></g></g><path d="M826.584 1605H866v177H350v-121l476.584-56z" fill="url(#B)"/><g clip-path="url(#J)" class="B G"><path d="M770.96 1656.4l-16.08 7.44 26.03-.62 6.508-9.8 1.973.9-.003.58 2.125.5-2.304 5.62 2.447-.37-2.722 12.96 17.944-9.53-6.94-12.05 3.648.33 1.582 2.22.972-.8 8.75 9.78 1.846-10.8-13.052-6.95 2.44-.66-6.284-1.62 10.738-.08-3.274-1.72 17.802-5-2.176-15.2-12.07 10.28-1.293-1.43-4.46 5-1.984-.68-1.272.82-.953-.18 7.817-9.1-15.35-13.4.954 12.5-2.197-1 .042.18-16.527-8.3 6.945 9.9-1.976-.48 3.86 4.4-1.41.2 1.57 3.1-1.107-.32-.092 2.8-.49-.1c-1.552-.27-2.97-.03-3.733.54l-8.157-2.25-2.093-.08.975-1.98-16.218-3.38-2.12.05.27-1.46-16.446-2.15-1.542.18.23-1.26-16.445-2.15-1.543.17.232-1.26-16.446-2.14-2.993.33-.618 3.37 17.087 4.03 1.344-.64 16.41 3.9 1.345-.64 16.41 3.9 1.214-.58 15.21 4.9.414-.14 8.154 3.24c-.067.12-.12.25-.145.4-.203 1.1 1.387 2.3 3.548 2.66.624.1 1.218.13 1.765.1l-5.14 2.73 1.085.37-4.804 1.16.624.84-7.805.8 1.8.7-16.546 2.73 20.42 3.22-.24.1 2.527.5zm26.122-8.94l.15-.16 1.36 1.22-1.51-1.06zm3.837 2.72l1.02-.1 1.2 1.66-2.2-1.57zm-7.366-20.16l-1.258-.08.286-3.75.972 3.83zm-18.048 22.4l.863.6-5.35 1.94 4.487-2.54z"/><g clip-path="url(#K)"><path d="M697.215 1623.23l25.042 8.6-24.288-9.06-1.306-.3.552.74zm1.612.57l3.86 4.93 4.485 2.26-6.828-6.67-1.517-.52z"/><path d="M708.082 1631.3l4.454 1.43-8.168-7.03-1.935-.66 5.65 6.26zm6.34 1.92l-8.513-7 2.763.95 9.836 6.87-4.086-.82zm4.99.7l4.12.7-8.852-5.38-3-1.04 7.74 5.72zm-1.952-3.72l7.43 4.25 2.302.18-7.13-3.54-2.602-.9z"/><path d="M720.046 1631.1l7.373 2.85-.193-1-7.18-1.85zm6.928 1.28l-7.156-1.47-3.188-1.17c.156.06 8.324 1.27 8.516 1.33.203.06 1.828 1.3 1.828 1.3zm-12.687-3.5l9.74 1.17-3.494-2-9.377-.35 3.132 1.17zm-5.877-2.2l10.866.53-3.227-1.78-10.036.35 2.397.9zm-3.865-1.45l9.868-.55-4.227-1.6-7.733 1.37 2.092.77zm-4.248-1.58l8.633-1.13-4.437-.92-5.7 1.5 1.494.56z"/></g><g clip-path="url(#L)"><path d="M694.7 1622.8l9.607 13.6-8.983-13.52-.572-.64-.052.57z"/><path d="M695.316 1623.66l-.226 3.83 1.382 2.77-.573-5.77-.583-.83zm1.506 7.1l1.76 2.37-1.138-6.46-.743-1.05.122 5.14zm2.552 3.32l-1.34-6.57 1.06 1.5 2.126 7-1.847-1.94zm2.396 2.22l1.92 1.9-2.292-5.92-1.153-1.64 1.524 5.67zm.695-2.52l2.05 4.84 1.17.96-2.22-4.4-1-1.4z"/><path d="M703.455 1635.18l2.675 4.16.372-.56-3.047-3.6zm3.17 3.24l-3.2-3.4-1.2-1.76c.058.08 3.947 3.75 4.023 3.86.083.1.377 1.3.377 1.3zm-5.265-6.48l4.764 4.25-.967-2.28-4.956-3.7 1.16 1.74zm-2.174-3.27l5.684 4.37-.92-2.08-5.65-3.62.887 1.33zm-1.43-2.15l5.65 3.47-1.555-2.36-4.87-2.27.775 1.16zm-1.572-2.36l5.25 2.72-1.984-2.12-3.817-1.44.552.84z"/></g></g><g clip-path="url(#M)"><g class="F"><path d="M648.63 1610.65l-7.966.5-5.68 9.62 7.26-7.34 5.827.3.56-3.06zm.423 3.6l-5.647 2.33-2.733 10.73 4.916-8.98 7.422-2.7-3.958-1.37zm23.177-7.16l6.388-4.6 10.85 3.73-10.513-1-4.237 3.87-2.5-2zm.925 3.35l6.128-.45 7.576 8.34-8.656-5.8-7.933.88 2.885-2.97zm-27.055-4.58l6-1.1-.043 1.6-7.137 1.27 1.2-1.76z"/><path d="M646.1 1605.87l-1.195-5.4-1.36.26 1.366 6.9 1.2-1.76zm30.453-4l-4.364-5.56-1.07.8 3.372 4.4 2.063.34z"/><path d="M676.553 1601.86l-5.457 4.3-1.24-1.03 4.596-3.6 2.102.35zm-33.147 14.74l2.182 1.75 7.422-2.7-3.958-1.37-5.646 2.33zm26.864-3.18l2.885-2.97 6.128-.45-1.08 2.54-7.933.88zm1.96-6.32l2.5 2 4.238-3.87-.338-2.73-6.4 4.6zm-23.602 3.55l-.56 3.06-5.827-.3-1.58-2.28 7.966-.5z"/><path d="M666.66 1602.53l-15.12 1.07-7.056 7.6 8.14 6.53 15.12-1.07 7.018-7.6-8.103-6.53zm-23.014-1.33l-9.416-3.88 3.388-11.57 5.118 10.98-1.022-8.2 6.535 6.3-3.242 6.13-1.36.26zm28.474-4.3l2.363-7.1-8.572-3.9 4 8.3-4.4-4.67.526 6.7 5.26 1.3.814-.62z"/></g><g class="B"><path d="M653.688 1584.93l-.467 1.82 16.324 3.94.467-1.8-16.324-3.95z"/><path d="M657.383 1581.2l-1.333 5.23 11.135 2.7 1.334-5.23-11.136-2.7z"/></g><path d="M644.483 1611.2l30.236-2.1-6.975 7.57-15.12 1.07-8.14-6.53z" fill="#aa3528"/><g class="B"><path d="M662.7 1604.84l1.308-6.23-1.394-3.07-1.4 2.9 1.487 6.4zm-7.04.6l1.047-6.46-1.488-2.76-1.337 3.15 1.778 6.07z"/></g></g><g clip-path="url(#N)"><path d="M693.06 1607.36l.966 12.7 1.295 2.22v-13.44l-2.26-1.5z" class="E"/><path d="M695.322 1622.3h5.347l1.8-13.44h-7.137v13.44z" class="F"/><path d="M693.06 1607.36l2.26 1.5h7.138l-2.19-1.5h-7.208z" class="B"/><path d="M693.426 1593.5l.966 12.7 1.307 2.22V1595l-2.273-1.5z" class="E"/><path d="M695.7 1608.43h5.347l1.78-13.43H695.7v13.43z" class="F"/><path d="M693.426 1593.5l2.273 1.5h7.126l-2.19-1.5h-7.208z" class="B"/><path d="M693.79 1579.64l.978 12.72 1.296 2.2v-13.43l-2.274-1.5z" class="E"/><path d="M696.064 1594.57h5.347l1.78-13.43h-7.126v13.43z" class="F"/><path d="M693.79 1579.64l2.273 1.5h7.126l-2.18-1.5h-7.22z" class="B"/><path d="M696.476 1565.32l-.99 12.72.942 2.38 2.06-13.3-2.014-1.8z" class="E"/><path d="M696.43 1580.42l5.29.75 3.828-13.03-7.056-1-2.06 13.3z" class="F"/><path d="M696.476 1565.32l2.014 1.8 7.055 1-1.93-1.8-7.138-1.02z" class="B"/><path d="M701.918 1551.7l-2.568 12.52.636 2.46 3.7-12.96-1.778-2.02z" class="E"/><path d="M699.986 1566.67l5.16 1.35 5.43-12.5-6.88-1.8-3.7 12.96z" class="F"/><path d="M701.918 1551.7l1.778 2.02 6.88 1.8-1.696-2-6.96-1.83z" fill="#ffb300"/><path d="M707.37 1554.26l8.798-3.2-.895 1.75 8.728 1.23-1.802 1.62 11.4 6.83.365 16.38-8.504-12.13-.613 1.47-3.274-5.8-1.143.6-3.027-3.47-.27.87-9.753-6.15z" class="C"/><g class="B"><path d="M707.37 1554.26l10.6 3.52-.836 2.63-9.753-6.15zm26.585 24.6l-8.504-12.13 1.2-2.7 7.197 9.6.118 5.23z"/><path d="M717.96 1557.78l8.68 6.25-1.802 4.18-3.274-5.8-1.142.6-3.027-3.47.565-1.76z"/></g><path d="M706.56 1553.53l9.175-7.45-.295 2.48 11.06-2.1-1.46 2.68 16.772 3.56 7.727 19.57-15.63-11.1-.106 2-6.514-5.63-1.107 1.18-5.182-2.94.047 1.15-14.487-3.4z" class="C"/><g class="B"><path d="M706.56 1553.53l14.322-.1.165 3.5-14.487-3.4zm42.978 18.75l-15.63-11.1.2-3.76 12.956 8.62 2.474 6.25z"/><path d="M720.88 1553.44l13.227 3.97-.306 5.77-6.514-5.63-1.107 1.18-5.182-2.94-.118-2.35z"/></g><path d="M706.03 1554.1l-5.807-6.85-.153 1.93-8.033-2.95.695 2.24-13.18.68-8.74 14.07 13.45-6.62-.223 1.56 5.76-3.52.648 1.04 4.358-1.62-.212.88 11.437-.84z" class="C"/><g class="B"><path d="M706.03 1554.1l-10.8-1.83-.648 2.67 11.437-.84zm-35.218 9.1l13.45-6.62.4-2.9-11.048 5.04-2.803 4.5z"/><path d="M695.24 1552.26l-10.577 1.42-.624 4.47 5.76-3.52.648 1.04 4.358-1.62.436-1.8z"/></g><path d="M707.09 1553.84l-3.946-10.72-1.025 2.28-8.292-6.9-.153 3-16.042-4.65L661 1550.3l18.975-2.45-.954 1.8 8.42-1.88.33 1.52 5.913-.15-.636.98 14.04 3.73z" class="C"/><g class="B"><path d="M707.1 1553.84l-12.097-6.7-1.943 2.97 14.04 3.73zm-46.1-3.54l18.975-2.45 1.767-3.37-15.418 1.52-5.324 4.3z"/><path d="M694.992 1547.14l-13.25-2.67-2.72 5.17 8.42-1.88.33 1.52 5.913-.15 1.307-2z"/></g><path d="M706.56 1554.67l3.074-11.88 1.354 2.3 8.163-8.38.494 3.18 16.737-6.92 19.328 12.25-20.66-.26 1.213 1.8-9.257-.96-.177 1.67-6.372.56.79.96-14.687 5.7z" class="C"/><g class="B"><path d="M706.56 1554.67l12.273-8.62 2.414 2.93-14.687 5.7zm49.15-9.45l-20.66-.26-2.26-3.37 16.737-.3 6.183 3.92z"/><path d="M718.832 1546.05l13.957-4.46 3.474 5.16-9.257-.96-.177 1.66-6.372.57-1.625-1.97z"/></g><path d="M707.548 1554.27l2.226-12.02-2.214 1.58-3.9-10.8-1.8 2.7L689.54 1523l-22.815 3.75 18.95 7.7-1.872 1.17 8.845 2.7-.53 1.6 5.57 2.96-1.13.57 10.99 10.84z" class="C"/><g class="B"><path d="M707.548 1554.27l-7.55-12.58-3.44 1.74 11 10.84zm-40.824-27.52l18.95 7.7 3.487-2.2-15.147-6.7-7.3 1.2z"/><path d="M699.998 1541.7l-10.836-9.44-5.36 3.37 8.845 2.7-.53 1.6 5.57 2.96 2.31-1.17z"/></g><path d="M707.395 1552.12l-3.204-8.48 1.826.88 1.413-8.35 1.66 1.75 7.3-10.82 17.09-.1-12.78 7.96 1.52.62-6.1 3.06.6 1.1-3.663 2.85.895.28-6.56 9.25z" class="C"/><g class="B"><path d="M707.395 1552.12l3.84-10.1 2.72.85-6.56 9.25zm26.077-25.12l-12.78 7.96-2.815-1.16 10.13-6.77 5.465-.03z"/><path d="M711.234 1542.02l6.643-8.22 4.335 1.78-6.1 3.06.6 1.1-3.663 2.85-1.826-.57z"/></g><g fill="#000"><path d="M703.73 1558.42c1.756 0 3.18-1.37 3.18-3.05s-1.424-3.05-3.18-3.05-3.18 1.37-3.18 3.05 1.424 3.05 3.18 3.05z"/><path d="M708.933 1560.1c1.756 0 3.18-1.37 3.18-3.05 0-1.7-1.424-3.05-3.18-3.05s-3.18 1.36-3.18 3.05c0 1.68 1.424 3.05 3.18 3.05z"/><path d="M707.545 1555.1c1.757 0 3.18-1.37 3.18-3.05 0-1.7-1.424-3.05-3.18-3.05s-3.18 1.36-3.18 3.05c0 1.68 1.424 3.05 3.18 3.05z"/></g><g clip-path="url(#O)" class="C"><path d="M701.69 1622.25l12.845-20.52-11.6 20.57-.852.93-.392-.98z"/><path d="M702.516 1620.93l-2.4-6.58 1.434-4.35 1.736 9.68-.78 1.25zm-.5-11.67l2.413-3.55.92 10.68-.994 1.58-2.34-8.7zm3.557-4.96l.567 10.82 1.418-2.26.826-11.35-2.8 2.8zm3.792-3.13l2.985-2.7-1.713 9.47-1.54 2.46.268-9.23zm2.698 4.5l1.76-7.7 1.915-1.3-2.338 6.87-1.338 2.13z"/><path d="M713.394 1603.53l3.4-6.34 1.042 1.05-4.432 5.3zm4.868-4.65l-4.86 4.94-1.55 2.67c.075-.13 6.198-5.3 6.303-5.46.116-.16.1-2.15.1-2.15zm-7.532 9.6l7.627-5.93-.836 3.6-8.288 4.97 1.497-2.65zm-2.805 4.98l9.453-5.88-.843 3.28-9.756 4.63 1.146-2.03zm-1.847 3.27l9.834-4.36-2 3.6-8.836 2.53 1-1.77zm-2.03 3.6l9.388-3.2-2.998 3.07-7.1 1.4.7-1.26z"/></g><g clip-path="url(#P)" class="B"><path d="M702.117 1622.5l-8.434-13.48 7.618 13.5.56.6.257-.64zm-.54-.88l1.57-4.32-.942-2.85-1.14 6.35.512.82z"/><path d="M701.897 1613.96l-1.585-2.34-.604 7.02.652 1.04 1.537-5.72zm-2.337-3.26l-.37 7.1-.932-1.5-.543-7.45 1.846 1.83zm-2.5-2.05l-1.96-1.77 1.125 6.2 1 1.62-.176-6.06zm-1.77 2.95l-1.157-5.04-1.257-.87 1.535 4.52.88 1.4z"/><path d="M694.432 1610.2l-2.226-4.17-.684.7 2.9 3.48zm-3.196-3.06l3.192 3.25 1.018 1.75c-.05-.08-4.07-3.5-4.14-3.6-.076-.1-.07-1.4-.07-1.4zm4.944 6.3l-5.008-3.9.548 2.37 5.443 3.26-.983-1.74zm1.844 3.27l-6.208-3.86.554 2.15 6.406 3.04-.752-1.33zm1.212 2.15l-6.458-2.87 1.312 2.36 5.803 1.67-.657-1.16zm1.334 2.36l-6.165-2.1 1.97 2.02 4.663.92-.467-.83z"/></g><g clip-path="url(#Q)" class="C"><path d="M698.103 1620.8l.302-31.1 1.165 30.43-.325 1.57-1.142-.9zm.017-2l-7.398-6.18-1.422-5.85 8.84 10.14-.02 1.9z"/><path d="M689.312 1605.65l.272-5.5 8.604 11.77-.025 2.4-8.85-8.68zm.596-7.77l8.297 12.13.036-3.43-7.066-13.55-1.267 4.85zm2.16-5.8l1.533-4.84 4.7 11.9-.03 3.74-6.2-10.8zm6.276 3.6l-3.4-9.88 1.277-2.63 2.16 9.27-.036 3.24z"/><path d="M698.365 1592.45l-.578-9.28 1.94.6-1.363 8.68zm2.323-8.2l-2.113 8.5.103 4c-.006-.2 3.385-9.73 3.398-9.97.023-.24-1.388-2.53-1.388-2.53zm-1.898 15.44l4.6-11.27 1.587 4.65-6.038 10.54-.15-3.92zm.285 7.36l6.738-12.27 1.344 4.27-7.97 11-.113-3zm.185 4.84l8.247-10.75.237 5.3-8.388 8.07-.096-2.62zm.2 5.33l8.552-9.15-1.285 5.28-7.2 5.74-.076-1.87z"/></g></g><path d="M932.594 1727l-206-45.8 61.055-5.54-7.774-6.66 152.72 4.6v53.4z" fill="#d1a94d"/><g clip-path="url(#R)"><path d="M711.73 1662.76l17.25-24.23 49.81-4.05-52.475 47.6-14.583-19.3z" class="B"/><path d="M787.41 1676.26l-8.62-41.78-52.475 47.6 61.095-5.8z" class="F"/><g class="E"><path d="M768.2 1560.26l-18.127 13.07 36.646 11.44 5.117-14.8-23.636-9.7zm-24.375 25.18l35.528 13.8 9.012-8.5-36.675-13.18-7.865 7.9z"/><path d="M743.815 1585.44l-21.477 35.7 17.497-7.65-2.025-4.48 7.662-4.14-3.614-6.46 10.848-9.5-8.9-3.45zm13.968 5.42l-5.47 8.9 1.957 8.93.8 10.26 12.234 24.5 12.05-44.2-21.56-8.38z"/></g><path d="M741.857 1598.4l10.773 2.74 1.638 7.54-8.796-3.82-3.615-6.46z" class="B"/><g class="D"><path d="M761.315 1581.03l-19.458 17.37 10.773 2.74 10.866-19.36-2.18-.75zM737.8 1609l16.94 6.18-.482-6.5-8.796-3.82-7.662 4.14z"/></g><path d="M739.835 1613.48l15.223 5.46-.308-3.76-16.94-6.18 2.025 4.48z" class="B"/><path d="M722.338 1621.13l4.148 15.86 15.445 9.7 25.36-3.27-12.234-24.5-15.223-5.46-17.497 7.65z" class="F"/><path d="M750.064 1573.33l1.617 4.22 36.674 13.18-1.645-5.96-36.646-11.44z" class="B"/><path d="M791.826 1569.96l5.2 7.54-18.237 56.98-11.497 8.95 12.05-44.2 9.012-8.5-1.646-5.96 5.117-14.8z" class="F"/><g class="B"><path d="M790.76 1587.5l3.353 4.7-4.636 11.2-4.086-1.05 5.37-14.86z"/><path d="M785.216 1623.85l4.26-20.45-4.087-1.04-6.643 18.93 6.47 2.56z"/></g><path d="M763.497 1581.78l-9.228 26.9-1.638-7.54 10.866-19.36z" class="F"/><g clip-path="url(#S)"><path d="M763.35 1666.98l2.152 16.4h7.15l2.152-16.4H763.35z" class="E"/><path d="M763.64 1669.3l-4.973-2-.522-.3 1.406-2.9 3.113-1.46 3.72 1.9-2.745 4.76z" class="F"/><path d="M759.937 1664.5l2.7-1.34 3.482 1.8-2.467 4.35-4.958-2.02 1.253-2.78z" class="E"/><path d="M763.35 1666.98l.484 3.7H774.3l.492-3.7H763.35z" fill="#efecde"/><g class="B"><path d="M774.534 1663.9l-5.458 19 1 .3 5.38-19-.922-.3z"/><path d="M774.533 1663.9l1.307-1.66.77.5-1.153 1.45-.923-.3z"/><path d="M775.84 1662.25l4.074-.87.23.65-3.536.72-.77-.5z"/></g><path d="M763.64 1669.3l-3.712-4.8 2.7-1.3 1.022 6.1z" class="E"/></g></g><g clip-path="url(#T)"><path d="M796.248 1670.52l11.734-16.48 33.883-2.75-35.697 32.36-9.92-13.13z" class="B"/><path d="M847.73 1679.7l-5.864-28.42-35.697 32.36 41.56-3.94z" class="F"/><g class="E"><path d="M834.655 1600.8l-12.33 8.9 24.93 7.78 3.48-10.07-16.08-6.6zm-16.582 17.12l24.17 9.4 6.13-5.8-24.948-8.97-5.35 5.37z"/><path d="M818.074 1617.92l-14.6 24.28 11.902-5.2-1.377-3.04 5.212-2.82-2.46-4.4 7.38-6.47-6.048-2.35zm9.502 3.68l-3.722 6.05 1.33 6.07.537 6.98 8.322 16.66 8.198-30.06-14.666-5.7z"/></g><path d="M816.742 1626.74l7.328 1.86 1.115 5.13-5.984-2.6-2.46-4.4z" class="B"/><g class="D"><path d="M829.978 1614.92l-13.236 11.82 7.328 1.86 7.392-13.16-1.484-.52zM814 1633.95l11.523 4.2-.327-4.42-5.984-2.6-5.212 2.82z"/></g><path d="M815.366 1637l10.356 3.72-.2-2.56-11.523-4.2 1.377 3.04z" class="B"/><path d="M803.464 1642.2l2.822 10.8 10.506 6.6 17.252-2.23-8.322-16.66-10.355-3.72-11.903 5.2z" class="F"/><path d="M822.325 1609.7l1.1 2.86 24.948 8.97-1.12-4.05-24.928-7.78z" class="B"/><path d="M850.734 1607.4l3.537 5.12-12.406 38.77-7.82 6.08 8.198-30.06 6.13-5.8-1.12-4.05 3.48-10.07z" class="F"/><g class="B"><path d="M850.008 1619.33l2.282 3.2-3.154 7.62-2.78-.7 3.652-10.1z"/><path d="M846.237 1644.05l2.898-13.9-2.78-.7-4.52 12.87 4.4 1.74z"/></g><path d="M831.462 1615.44l-6.277 18.3-1.114-5.13 7.39-13.16z" class="F"/></g><g clip-path="url(#U)"><path d="M856.95 1678.32l7.962-11.18 22.995-1.87-24.226 21.96-6.73-8.9z" class="B"/><path d="M891.887 1684.55l-3.98-19.28-24.225 21.96 28.204-2.68z" class="F"/><g class="E"><path d="M883.015 1631l-8.368 6.04 16.917 5.28 2.363-6.84-10.912-4.48zm-11.253 11.63l16.4 6.37 4.16-3.93-16.93-6.1-3.63 3.65z"/><path d="M871.762 1642.63l-9.915 16.47 8.078-3.53-.935-2.07 3.537-1.9-1.67-2.98 5.008-4.4-4.104-1.6zm6.438 2.5l-2.525 4.1.903 4.13.365 4.73 5.647 11.3 5.564-20.4-9.954-3.87z"/></g><path d="M870.858 1648.6l4.974 1.26.756 3.5-4.06-1.77-1.67-2.98z" class="B"/><g class="D"><path d="M879.84 1640.6l-8.983 8.02 4.974 1.26 5.016-8.93-1.007-.35zM869 1653.5l7.82 2.86-.222-3-4.06-1.77-3.537 1.9z"/></g><path d="M869.925 1655.57l7.028 2.52-.142-1.73-7.82-2.86.935 2.07z" class="B"/><path d="M861.847 1659.1l1.915 7.32 7.13 4.5 11.708-1.5-5.648-11.3-7.027-2.52-8.078 3.53z" class="F"/><path d="M874.647 1637.04l.746 1.94 16.93 6.1-.76-2.75-16.917-5.28z" class="B"/><path d="M893.927 1635.48l2.4 3.48-8.42 26.3-5.308 4.13 5.564-20.4 4.16-3.93-.76-2.75 2.363-6.84z" class="F"/><g class="B"><path d="M893.434 1643.58l1.548 2.17-2.14 5.17-1.886-.48 2.478-6.86z"/><path d="M890.875 1660.36l1.967-9.44-1.887-.48-3.066 8.74 2.986 1.18z"/></g><path d="M880.848 1640.94l-4.26 12.42-.756-3.5 5.016-8.93z" class="F"/></g><g clip-path="url(#V)" class="B G"><path d="M539.003 1638.9l-5.45.68-.314 3.45-.916.06-.12-.22-.887.25-.286-2.56-.833.63.12-1.27-4.94.64-1.536 2.44 5.026 3.08-1.424.62-1.038-.5-.196.5-5.237-1.87 1.505 4.4 6.26-.05-.772.74 2.664-.67-3.975 2.2 1.566-.03-5.603 5.47 3.892 5.22 2.402-6.27.77.27.645-2.76.875-.15.307-.56.392-.13-1.06 4.98 8.43 1.88-2.89-4.45 1.017-.08-.052-.06 7.83-.25-4.593-2.3.832-.22-2.327-.86.486-.35-1.21-.84.477-.1-.53-1.06c.066-.02.132-.03.202-.06.63-.22 1.1-.6 1.28-.96l3.488-.8.795-.4.038.93 6.716-2.02.776-.45.197.6 6.55-2.53.538-.38.17.5 6.55-2.53.538-.37.17.5 6.55-2.53 1.045-.73-.455-1.38-7.17 1.96-.37.5-6.9 1.87-.37.52-6.9 1.87-.333.46-6.646 1.26-.127.13-3.688.45c0-.06-.006-.12-.024-.17-.15-.46-.983-.58-1.86-.28-.254.1-.48.2-.673.33l1.355-2.06-.478.08 1.55-1.4-.402-.2 2.738-1.88-.813.1 4.8-1.9-8.175 1.02zm-8.146 8.3l-.023.1-.754-.2.777.1zm-1.98-.24l-.36.24-.78-.38 1.14.14zm6.83 6.02l.483-.23.656 1.46-1.14-1.23zm2.165-12l-.442-.05 1.596-1.8-1.154 1.85z"/></g><path d="M0 1661h350v121H0z" class="E"/><path fill="#d1a94d" d="M932 1674h417v53H932z"/><defs><linearGradient id="A" x1="666" y1="1570.44" x2="666" y2="1654.44" gradientUnits="userSpaceOnUse"><stop stop-color="#ffd45d"/><stop offset="1" stop-color="red" stop-opacity="0"/></linearGradient><linearGradient id="B" x1="677" y1="1605" x2="1003.82" y2="1701.33" gradientUnits="userSpaceOnUse"><stop stop-color="#ffc856"/><stop offset="1" stop-color="#f5bb41"/></linearGradient><clipPath id="C"><path transform="matrix(-1 0 0 1 591 1589)" d="M0 0h46v49H0z" class="D"/></clipPath><clipPath id="D"><path transform="matrix(-.988295 -.152556 -.152556 .988295 547.661 1616.5)" d="M0 0h20.132v33.7H0z" class="D"/></clipPath><clipPath id="E"><path transform="matrix(.690616 .723222 -.723222 .690616 599.242 1620.44)" d="M0 0h22.302v37.344H0z" class="D"/></clipPath><clipPath id="F"><path transform="matrix(.982621 .185622 -.185622 .982621 546.24 1629.17)" d="M0 0h16.258v27.222H0z" class="D"/></clipPath><clipPath id="G"><path transform="matrix(.971601 -.236624 .236624 .971601 504.45 1631)" d="M0 0h16.258v27.222H0z" class="D"/></clipPath><clipPath id="H"><path transform="matrix(-.99889 -.047095 -.047095 .99889 667.514 1623.16)" d="M0 0h16.258v27.222H0z" class="D"/></clipPath><clipPath id="I"><path transform="matrix(-.984763 .173902 .173902 .984763 535.546 1607.97)" d="M0 0h13.86v9.24H0z" class="D"/></clipPath><clipPath id="J"><path transform="matrix(-.180471 .98358 -.985988 -.166817 828.406 1618.73)" d="M0 0h60.706v129.31H0z" class="D"/></clipPath><clipPath id="K"><path transform="matrix(.990457 -.129503 -.587038 -.811967 707.319 1637.22)" d="M0 0h21.36v18.15H0z" class="D"/></clipPath><clipPath id="L"><path transform="matrix(.930784 .483102 .096568 -.931235 693.601 1633.31)" d="M0 0h13.82v11.905H0z" class="D"/></clipPath><clipPath id="M"><path transform="matrix(.994051 .108921 -.118001 .993014 634.318 1569.91)" d="M0 0h59.053v56.765H0z" class="D"/></clipPath><clipPath id="N"><path transform="translate(661 1523)" d="M0 0h94.71v99.29H0z" class="D"/></clipPath><clipPath id="O"><path transform="matrix(.946438 -.322887 .382412 .923992 694.138 1604.03)" d="M0 0h24.308v20.777H0z" class="D"/></clipPath><clipPath id="P"><path transform="matrix(-.946438 -.322886 -.382412 .923992 707.078 1610.52)" d="M0 0h15.963v13.644H0z" class="D"/></clipPath><clipPath id="Q"><path transform="matrix(.682732 -.730669 .79245 .609937 676.535 1604.23)" d="M0 0h30.694v28.658H0z" class="D"/></clipPath><clipPath id="R"><path transform="matrix(.969037 .246914 -.246914 .969037 739.698 1553)" d="M0 0h76.67v128.376H0z" class="D"/></clipPath><clipPath id="S"><path transform="translate(758.146 1661.38)" d="M0 0h22v22H0z" class="D"/></clipPath><clipPath id="T"><path transform="matrix(.969037 .246914 -.246914 .969037 815.273 1595.86)" d="M0 0h52.155v87.33H0z" class="D"/></clipPath><clipPath id="U"><path transform="matrix(.969037 .246914 -.246914 .969037 869.861 1627.65)" d="M0 0h35.394v59.265H0z" class="D"/></clipPath><clipPath id="V"><path transform="matrix(-.312333 -.949973 .945774 -.324826 525.042 1664.24)" d="M0 0h25.748v54.743H0z" class="D"/></clipPath></defs></svg>