<svg width="3785" height="1495" viewBox="0 0 3785 1495" fill="none" xmlns="http://www.w3.org/2000/svg">
<ellipse cx="1733" cy="1235.5" rx="128.5" ry="124.5" fill="url(#paint0_linear)"/>
<path d="M1605.76 1168.79L1628.95 1161.26L1627.01 1168.72L1605.76 1168.79Z" fill="#001E20"/>
<path d="M1628.89 1161.18L1639.11 1170.93L1637.12 1178.58L1626.98 1168.53L1628.89 1161.18Z" fill="#001E20"/>
<path d="M1661.06 1184.09L1648.62 1166.62L1646.68 1174.08L1661.06 1184.09Z" fill="#001E20"/>
<path d="M1648.68 1166.66L1639.06 1170.88L1637.07 1178.54L1646.76 1174.01L1648.68 1166.66Z" fill="#001E20"/>
<path d="M1651.15 1155.63L1660.42 1147.9L1659 1153.39L1651.15 1155.63Z" fill="#001E20"/>
<path d="M1660.39 1147.86L1664.67 1153.76L1663.31 1159L1659.08 1152.88L1660.39 1147.86Z" fill="#001E20"/>
<path d="M1676.88 1162.36L1670.15 1150.55L1668.78 1155.85L1676.88 1162.36Z" fill="#001E20"/>
<path d="M1670.19 1150.57L1664.07 1153.76L1662.66 1159.2L1668.83 1155.79L1670.19 1150.57Z" fill="#001E20"/>
<path d="M1673.12 1176.47L1684.98 1175.38L1684.37 1177.73L1673.12 1176.47Z" fill="#001E20"/>
<path d="M1684.96 1175.33L1691.07 1179.72L1690.29 1182.71L1684.22 1178.2L1684.96 1175.33Z" fill="#001E20"/>
<path d="M1701.43 1184.3L1695.74 1178.3L1695.13 1180.65L1701.43 1184.3Z" fill="#001E20"/>
<path d="M1695.76 1178.32L1691.05 1179.7L1690.27 1182.69L1695.02 1181.19L1695.76 1178.32Z" fill="#001E20"/>
<path d="M1610.42 1189.6L1617.12 1187.43L1616.56 1189.59L1610.42 1189.6Z" fill="#001E20"/>
<path d="M1617.1 1187.4L1620.06 1190.22L1619.48 1192.43L1616.55 1189.52L1617.1 1187.4Z" fill="#001E20"/>
<path d="M1625.26 1193.71L1622.52 1188.89L1621.96 1191.05L1625.26 1193.71Z" fill="#001E20"/>
<path d="M1622.53 1188.9L1620.04 1190.21L1619.46 1192.42L1621.98 1191.03L1622.53 1188.9Z" fill="#001E20"/>
<g clip-path="url(#clip0)">
<path d="M1363.11 1337.9L1367.12 1310.96L1333.02 1293.04L1355.86 1342.64L1363.11 1337.9Z" fill="#001E20"/>
<path d="M1336.53 1330.72L1333.02 1293.04L1355.86 1342.64L1336.53 1330.72Z" fill="#007550"/>
<path d="M1362.74 1248.74L1371.86 1258.35L1342.42 1255.39L1347.33 1247.58L1362.74 1248.74Z" fill="#FFC856"/>
<path d="M1372.64 1268.82L1343.27 1267.87L1339.45 1259.12L1369.45 1260.84L1372.64 1268.82Z" fill="#FFC856"/>
<path d="M1372.64 1268.82L1371.11 1300.4L1366.99 1289.91L1369.78 1287.34L1365.6 1282.09L1370.11 1278.6L1365.29 1268.58L1372.64 1268.82Z" fill="#FFC856"/>
<path d="M1361.1 1268.44L1362.29 1276.4L1358.2 1282.15L1354.55 1289.18L1348.44 1301.27L1343.27 1267.87L1361.1 1268.44Z" fill="#FFC856"/>
<path d="M1370.11 1278.6L1361.64 1277.29L1358.2 1282.15L1365.6 1282.09L1370.11 1278.6Z" fill="#001E20"/>
<path d="M1361.56 1260.4L1370.11 1278.6L1361.64 1277.29L1359.79 1260.28L1361.56 1260.4Z" fill="white"/>
<path d="M1369.78 1287.34L1355.9 1286.61L1358.2 1282.15L1365.6 1282.09L1369.78 1287.34Z" fill="white"/>
<path d="M1366.99 1289.91L1354.55 1289.18L1355.9 1286.61L1369.78 1287.34L1366.99 1289.91Z" fill="#001E20"/>
<path d="M1371.11 1300.4L1369.36 1310.61L1355.47 1312.84L1348.44 1301.27L1354.55 1289.18L1366.99 1289.9L1371.11 1300.4Z" fill="#007550"/>
<path d="M1371.86 1258.35L1369.45 1260.84L1354.45 1259.98L1339.45 1259.12L1342.42 1255.39L1361.07 1253.78L1371.86 1258.35Z" fill="#001E20"/>
<path d="M1347.31 1247.87L1337.9 1252.68L1333.02 1293.04L1348.44 1301.27L1343.27 1267.87L1339.45 1259.12L1342.42 1255.39L1347.31 1247.87Z" fill="#007550"/>
<path d="M1338.72 1256.1L1334.92 1258.42L1334.83 1267.77L1338.04 1268.26L1338.72 1256.1Z" fill="#001E20"/>
<path d="M1331.67 1283.56L1334.83 1267.77L1338.04 1268.26L1337.03 1283.69L1331.67 1283.56Z" fill="#001E20"/>
<path d="M1359.78 1260.28L1358.2 1282.15L1361.64 1277.29L1359.78 1260.28Z" fill="#007550"/>
</g>
<g clip-path="url(#clip1)">
<path d="M1468.36 1336.41L1490.29 1315.69L1528.19 1335.31L1468.65 1346L1468.36 1336.41Z" fill="#001E20"/>
<path d="M1491.73 1356.01L1528.19 1335.31L1468.65 1346L1491.73 1356.01Z" fill="#007550"/>
<path d="M1549.59 1280.23L1535.09 1278.03L1556.44 1302.9L1560.42 1293.49L1549.59 1280.23Z" fill="#FFC856"/>
<path d="M1525.08 1283.96L1544.55 1310.04L1554.93 1307.96L1534.35 1281.81L1525.08 1283.96Z" fill="#FFC856"/>
<path d="M1525.08 1283.96L1497.36 1305.37L1509.5 1302.46L1510.06 1298.3L1517.48 1298.77L1517.79 1292.46L1529.95 1290.49L1525.08 1283.96Z" fill="#FFC856"/>
<path d="M1532.74 1294.21L1524.75 1298.17L1522.12 1305.53L1518.05 1313.31L1510.94 1326.52L1544.55 1310.04L1532.74 1294.21Z" fill="#FFC856"/>
<path d="M1517.79 1292.46L1524.35 1299.32L1522.12 1305.52L1517.48 1298.77L1517.79 1292.46Z" fill="#001E20"/>
<path d="M1539.75 1288.69L1517.79 1292.46L1524.35 1299.32L1540.98 1290.23L1539.75 1288.69Z" fill="white"/>
<path d="M1510.06 1298.3L1519.53 1310.45L1522.12 1305.53L1517.48 1298.77L1510.06 1298.3Z" fill="white"/>
<path d="M1509.5 1302.46L1518.05 1313.31L1519.53 1310.45L1510.06 1298.3L1509.5 1302.46Z" fill="#001E20"/>
<path d="M1497.36 1305.37L1489.19 1313.44L1495.97 1327.47L1510.94 1326.52L1518.05 1313.31L1509.5 1302.46L1497.36 1305.37Z" fill="#007550"/>
<path d="M1535.09 1278.03L1534.35 1281.81L1544.64 1294.89L1554.93 1307.96L1556.44 1302.9L1546.07 1284.94L1535.09 1278.03Z" fill="#001E20"/>
<path d="M1560.17 1293.7L1561.76 1305.29L1528.19 1335.31L1510.94 1326.52L1544.55 1310.04L1554.93 1307.96L1556.44 1302.9L1560.17 1293.7Z" fill="#007550"/>
<path d="M1558.13 1306.72L1558.44 1311.63L1550 1317.65L1547.52 1315.04L1558.13 1306.72Z" fill="#001E20"/>
<path d="M1537.66 1330.52L1550 1317.65L1547.52 1315.04L1534.13 1325.74L1537.66 1330.52Z" fill="#001E20"/>
<path d="M1540.98 1290.23L1522.12 1305.53L1524.35 1299.32L1540.98 1290.23Z" fill="#007550"/>
</g>
<g clip-path="url(#clip2)">
<path d="M1373.67 1359.4L1377.87 1337.81L1408.66 1333.35L1377.91 1364.96L1373.67 1359.4Z" fill="#001E20"/>
<path d="M1395.84 1361.1L1408.66 1333.35L1377.91 1364.96L1395.84 1361.1Z" fill="#007550"/>
<path d="M1397.95 1291.63L1388.42 1296.48L1411.64 1302.15L1410 1294.89L1397.95 1291.63Z" fill="#FFC856"/>
<path d="M1385.01 1304.24L1407.63 1311.43L1412.89 1305.79L1389.59 1299.03L1385.01 1304.24Z" fill="#FFC856"/>
<path d="M1385.01 1304.24L1377.68 1328.7L1383.64 1321.82L1382.2 1319.12L1386.8 1316.24L1384.3 1312.37L1390.67 1306.04L1385.01 1304.24Z" fill="#FFC856"/>
<path d="M1393.9 1307.06L1390.85 1312.81L1392.42 1318.28L1393.31 1324.62L1394.7 1335.47L1407.63 1311.43L1393.9 1307.06Z" fill="#FFC856"/>
<path d="M1384.3 1312.37L1391.1 1313.65L1392.42 1318.28L1386.8 1316.24L1384.3 1312.37Z" fill="#001E20"/>
<path d="M1395.71 1300.82L1384.3 1312.37L1391.1 1313.65L1397.1 1301.2L1395.71 1300.82Z" fill="white"/>
<path d="M1382.2 1319.12L1392.97 1322.29L1392.42 1318.28L1386.8 1316.24L1382.2 1319.12Z" fill="white"/>
<path d="M1383.64 1321.82L1393.31 1324.62L1392.97 1322.29L1382.2 1319.12L1383.64 1321.82Z" fill="#001E20"/>
<path d="M1377.68 1328.7L1376.26 1336.95L1386.24 1342.38L1394.7 1335.47L1393.31 1324.62L1383.64 1321.82L1377.68 1328.7Z" fill="#007550"/>
<path d="M1388.42 1296.48L1389.59 1299.03L1401.24 1302.41L1412.89 1305.79L1411.64 1302.15L1397.87 1295.91L1388.42 1296.48Z" fill="#001E20"/>
<path d="M1409.94 1295.12L1415.81 1301.31L1408.66 1333.35L1394.7 1335.47L1407.63 1311.43L1412.89 1305.79L1411.64 1302.15L1409.94 1295.12Z" fill="#007550"/>
<path d="M1414.26 1303.69L1416.53 1306.48L1414.08 1313.62L1411.51 1313.13L1414.26 1303.69Z" fill="#001E20"/>
<path d="M1412.24 1326.49L1414.08 1313.62L1411.5 1313.13L1408.12 1325.16L1412.24 1326.49Z" fill="#001E20"/>
<path d="M1397.1 1301.2L1392.42 1318.28L1391.1 1313.66L1397.1 1301.2Z" fill="#007550"/>
</g>
<g clip-path="url(#clip3)">
<path d="M1282.68 1361.16L1277.59 1339.76L1303.79 1322.98L1288.84 1364.47L1282.68 1361.16Z" fill="#001E20"/>
<path d="M1303.58 1353.55L1303.79 1322.98L1288.84 1364.47L1303.58 1353.55Z" fill="#007550"/>
<path d="M1276.81 1289.4L1270.14 1297.76L1293.62 1293.34L1289.13 1287.4L1276.81 1289.4Z" fill="#FFC856"/>
<path d="M1270.24 1306.23L1293.8 1303.44L1296.27 1296.13L1272.26 1299.6L1270.24 1306.23Z" fill="#FFC856"/>
<path d="M1270.24 1306.23L1273.65 1331.54L1276.24 1322.81L1273.82 1320.94L1276.82 1316.43L1272.95 1313.93L1276.13 1305.54L1270.24 1306.23Z" fill="#FFC856"/>
<path d="M1279.5 1305.13L1279.09 1311.62L1282.78 1315.96L1286.2 1321.37L1291.95 1330.67L1293.8 1303.44L1279.5 1305.13Z" fill="#FFC856"/>
<path d="M1272.95 1313.93L1279.67 1312.29L1282.78 1315.96L1276.82 1316.43L1272.95 1313.93Z" fill="#001E20"/>
<path d="M1278.57 1298.7L1272.95 1313.93L1279.67 1312.29L1279.99 1298.48L1278.57 1298.7Z" fill="white"/>
<path d="M1273.82 1320.94L1284.94 1319.39L1282.78 1315.96L1276.82 1316.43L1273.82 1320.94Z" fill="white"/>
<path d="M1276.24 1322.81L1286.2 1321.37L1284.94 1319.39L1273.82 1320.94L1276.24 1322.81Z" fill="#001E20"/>
<path d="M1273.65 1331.54L1275.77 1339.64L1287.1 1340.47L1291.95 1330.67L1286.2 1321.37L1276.24 1322.81L1273.65 1331.54Z" fill="#007550"/>
<path d="M1270.14 1297.76L1272.26 1299.6L1284.26 1297.87L1296.27 1296.13L1293.62 1293.34L1278.51 1293.34L1270.14 1297.76Z" fill="#001E20"/>
<path d="M1289.17 1287.63L1297.07 1290.85L1303.79 1322.98L1291.95 1330.67L1293.8 1303.44L1296.27 1296.13L1293.62 1293.34L1289.17 1287.63Z" fill="#007550"/>
<path d="M1296.65 1293.66L1299.86 1295.26L1300.59 1302.77L1298.04 1303.4L1296.65 1293.66Z" fill="#001E20"/>
<path d="M1304.22 1315.26L1300.59 1302.77L1298.04 1303.4L1299.92 1315.74L1304.22 1315.26Z" fill="#001E20"/>
<path d="M1279.99 1298.48L1282.78 1315.96L1279.67 1312.29L1279.99 1298.48Z" fill="#007550"/>
</g>
<path d="M1727.12 1341.45L1728.04 1319.47L1699.12 1308L1721.7 1345.88L1727.12 1341.45Z" fill="#001E20"/>
<path d="M1705.16 1337.96L1699.12 1308L1721.7 1345.88L1705.16 1337.96Z" fill="#007550"/>
<path d="M1719.2 1269.89L1727.35 1276.82L1703.45 1276.96L1706.73 1270.27L1719.2 1269.89Z" fill="#FFC856"/>
<path d="M1728.87 1285.16L1705.2 1286.92L1701.39 1280.21L1725.62 1279.03L1728.87 1285.16Z" fill="#FFC856"/>
<path d="M1728.87 1285.16L1730.34 1310.65L1726.13 1302.58L1728.15 1300.28L1724.35 1296.42L1727.67 1293.23L1722.94 1285.6L1728.87 1285.16Z" fill="#FFC856"/>
<path d="M1719.56 1285.85L1721.2 1292.14L1718.41 1297.1L1716.08 1303.06L1712.21 1313.29L1705.2 1286.92L1719.56 1285.85Z" fill="#FFC856"/>
<path d="M1727.67 1293.23L1720.76 1292.91L1718.41 1297.1L1724.35 1296.42L1727.67 1293.23Z" fill="#001E20"/>
<path d="M1719.25 1279.35L1727.67 1293.23L1720.76 1292.91L1717.81 1279.41L1719.25 1279.35Z" fill="white"/>
<path d="M1728.15 1300.28L1716.94 1300.88L1718.41 1297.1L1724.35 1296.42L1728.15 1300.28Z" fill="white"/>
<path d="M1726.13 1302.58L1716.08 1303.06L1716.94 1300.88L1728.15 1300.28L1726.13 1302.58Z" fill="#001E20"/>
<path d="M1730.34 1310.65L1729.8 1319.01L1718.84 1321.98L1712.21 1313.29L1716.08 1303.06L1726.13 1302.58L1730.34 1310.65Z" fill="#007550"/>
<path d="M1727.35 1276.82L1725.62 1279.03L1713.5 1279.62L1701.39 1280.21L1703.45 1276.96L1718.29 1274.08L1727.35 1276.82Z" fill="#001E20"/>
<path d="M1706.73 1270.51L1699.59 1275.17L1699.12 1308L1712.21 1313.29L1705.2 1286.92L1701.39 1280.21L1703.45 1276.96L1706.73 1270.51Z" fill="#007550"/>
<path d="M1700.54 1277.85L1697.69 1280.04L1698.41 1287.55L1701.03 1287.68L1700.54 1277.85Z" fill="#001E20"/>
<path d="M1697.23 1300.5L1698.41 1287.55L1701.04 1287.68L1701.55 1300.15L1697.23 1300.5Z" fill="#001E20"/>
<path d="M1717.81 1279.41L1718.41 1297.1L1720.76 1292.91L1717.81 1279.41Z" fill="#007550"/>
<g clip-path="url(#clip4)">
<path d="M1343.9 1223.52L1348.98 1228.33L1342.77 1231.84L1337.28 1224.21L1343.9 1223.52Z" fill="#FFC856"/>
<path d="M1334.09 1229.61L1337.28 1224.21L1342.77 1231.84L1334.09 1229.61Z" fill="#007550"/>
<path d="M1348.98 1228.33L1348.14 1246.46L1341.97 1247.55L1345.9 1230.07L1348.98 1228.33Z" fill="#001E20"/>
<path d="M1328.11 1245.39L1337.4 1248.36L1341.97 1247.55L1345.9 1230.07L1342.77 1231.84L1341.73 1238.51L1328.11 1245.39Z" fill="#007550"/>
<path d="M1346.42 1225.9L1350.72 1227.25L1348.29 1227.68L1346.42 1225.9Z" fill="#FFC856"/>
<path d="M1348.98 1228.33L1350.72 1227.25L1348.29 1227.68L1348.98 1228.33Z" fill="#2D2C28"/>
<path d="M1342.77 1231.84L1334.09 1229.61L1320.95 1249.04L1341.74 1238.6L1342.77 1231.84Z" fill="#FFC856"/>
<path d="M1321.78 1253.72L1314.3 1255.04L1320.95 1249.04L1328.12 1245.44L1321.78 1253.72Z" fill="#001E20"/>
<path d="M1348.14 1246.46L1353.3 1248.93L1350.12 1249.49L1344.78 1247.05L1348.14 1246.46Z" fill="#001E20"/>
<path d="M1340.81 1247.75L1345.96 1250.23L1342.79 1250.79L1337.44 1248.35L1340.81 1247.75Z" fill="#001E20"/>
<rect width="1.53127" height="1.53127" transform="matrix(-0.480366 0.877068 0.877068 0.480366 1342.79 1225.05)" fill="#001E20"/>
</g>
<path d="M2321.64 1213H3277L3784.5 1495H3277H0L2321.64 1213Z" fill="url(#paint1_linear)"/>
<g clip-path="url(#clip5)">
<path d="M2221.32 1365.16L2174.11 1387.03L2198.54 1386.44L2250.53 1385.21L2269.64 1356.42L2275.43 1359.07L2275.42 1360.8L2281.66 1362.22L2274.89 1378.76L2282.08 1377.66L2274.09 1415.76L2326.77 1387.75L2306.39 1352.32L2317.1 1353.3L2321.74 1359.83L2324.6 1357.43L2350.28 1386.18L2355.7 1354.44L2317.38 1334.01L2324.55 1332.05L2306.1 1327.31L2337.62 1327.07L2328.01 1322.02L2380.27 1307.31L2373.88 1262.63L2338.45 1292.84L2334.65 1288.64L2321.56 1303.32L2315.73 1301.32L2312 1303.73L2309.2 1303.19L2332.15 1276.42L2287.09 1236.98L2289.89 1273.7L2283.44 1270.8L2283.56 1271.32L2251.08 1254.99L2235.04 1246.91L2255.43 1276.05L2249.63 1274.64L2260.96 1287.57L2256.82 1288.12L2261.43 1297.21L2258.18 1296.26L2257.91 1304.45C2257.44 1304.35 2256.98 1304.24 2256.47 1304.16C2251.91 1303.39 2247.75 1304.08 2245.51 1305.74L2221.56 1299.14L2215.42 1298.89L2218.28 1293.1L2170.67 1283.14L2164.45 1283.3L2165.24 1279L2116.95 1272.69L2112.43 1273.2L2113.11 1269.49L2064.83 1263.18L2060.3 1263.7L2060.98 1259.99L2012.7 1253.68L2003.91 1254.66L2002.09 1264.57L2052.26 1276.43L2056.2 1274.53L2104.38 1285.98L2108.33 1284.08L2156.5 1295.53L2160.06 1293.81L2204.71 1308.2L2205.93 1307.79L2229.87 1317.32C2229.67 1317.67 2229.51 1318.05 2229.44 1318.44C2228.85 1321.69 2233.51 1325.21 2239.86 1326.28C2241.69 1326.59 2243.43 1326.66 2245.04 1326.53L2229.95 1334.57L2233.14 1335.65L2219.04 1339.05L2220.87 1341.52L2197.95 1343.89L2203.23 1345.98L2154.66 1353.98L2174.46 1357.11L2214.61 1363.46L2213.9 1363.72L2221.32 1365.16ZM2298.01 1338.88L2298.44 1338.41L2302.44 1342.02L2298.01 1338.88ZM2309.27 1346.89L2312.27 1346.61L2315.76 1351.5L2309.27 1346.89ZM2287.64 1287.61L2283.95 1287.39L2284.79 1276.34L2287.64 1287.61ZM2234.66 1353.45L2237.19 1355.2L2221.49 1360.89L2234.66 1353.45Z" fill="#001E20" fill-opacity="0.1"/>
<g clip-path="url(#clip6)">
<path d="M2004.82 1267.66L2078.34 1292.97L2007.03 1266.34L2003.2 1265.46L2004.82 1267.66Z" fill="#001E20" fill-opacity="0.1"/>
<path d="M2009.55 1269.29L2020.88 1283.81L2034.05 1290.44L2014.01 1270.83L2009.55 1269.29Z" fill="#001E20" fill-opacity="0.1"/>
<path d="M2036.72 1291.36L2049.8 1295.55L2025.82 1274.89L2020.14 1272.94L2036.72 1291.36Z" fill="#001E20" fill-opacity="0.1"/>
<path d="M2055.34 1297.03L2030.35 1276.45L2038.46 1279.24L2067.34 1299.42L2055.34 1297.03Z" fill="#001E20" fill-opacity="0.1"/>
<path d="M2069.98 1299.08L2082.09 1301.13L2056.1 1285.31L2047.26 1282.27L2069.98 1299.08Z" fill="#001E20" fill-opacity="0.1"/>
<path d="M2064.25 1288.12L2086.06 1300.61L2092.82 1301.15L2071.89 1290.74L2064.25 1288.12Z" fill="#001E20" fill-opacity="0.1"/>
<path d="M2071.85 1290.75L2093.49 1299.15L2092.93 1296.19L2071.85 1290.75Z" fill="#001E20" fill-opacity="0.1"/>
<path d="M2092.19 1294.56L2071.18 1290.22C2071.18 1290.22 2061.36 1286.63 2061.82 1286.79C2062.28 1286.96 2086.26 1290.52 2086.82 1290.7C2087.42 1290.88 2092.19 1294.56 2092.19 1294.56Z" fill="#001E20" fill-opacity="0.1"/>
<path d="M2054.94 1284.22L2083.53 1287.68L2073.28 1281.82L2045.75 1280.79L2054.94 1284.22Z" fill="#001E20" fill-opacity="0.1"/>
<path d="M2037.69 1277.78L2069.59 1279.34L2060.12 1274.11L2030.65 1275.16L2037.69 1277.78Z" fill="#001E20" fill-opacity="0.1"/>
<path d="M2026.34 1273.54L2055.31 1271.93L2042.9 1267.25L2020.2 1271.26L2026.34 1273.54Z" fill="#001E20" fill-opacity="0.1"/>
<path d="M2013.87 1268.89L2039.21 1265.58L2026.19 1262.85L2009.48 1267.25L2013.87 1268.89Z" fill="#001E20" fill-opacity="0.1"/>
</g>
<g clip-path="url(#clip7)">
<path d="M1997.43 1266.35L2025.64 1306.31L1999.26 1266.56L1997.58 1264.69L1997.43 1266.35Z" fill="#001E20" fill-opacity="0.1"/>
<path d="M1999.24 1268.93L1998.58 1280.17L2002.64 1288.33L2000.95 1271.35L1999.24 1268.93Z" fill="#001E20" fill-opacity="0.1"/>
<path d="M2003.66 1289.79L2008.83 1296.74L2005.49 1277.77L2003.31 1274.68L2003.66 1289.79Z" fill="#001E20" fill-opacity="0.1"/>
<path d="M2011.16 1299.55L2007.22 1280.23L2010.34 1284.64L2016.58 1305.24L2011.16 1299.55Z" fill="#001E20" fill-opacity="0.1"/>
<path d="M2018.19 1306.08L2023.83 1311.64L2017.1 1294.23L2013.71 1289.42L2018.19 1306.08Z" fill="#001E20" fill-opacity="0.1"/>
<path d="M2020.23 1298.66L2026.25 1312.9L2029.68 1315.72L2023.16 1302.81L2020.23 1298.66Z" fill="#001E20" fill-opacity="0.1"/>
<path d="M2023.14 1302.79L2030.99 1315.02L2032.08 1313.38L2023.14 1302.79Z" fill="#001E20" fill-opacity="0.1"/>
<path d="M2032.45 1312.32L2023.02 1302.29C2023.02 1302.29 2019.36 1296.85 2019.53 1297.1C2019.7 1297.36 2031.11 1308.14 2031.34 1308.44C2031.58 1308.75 2032.45 1312.32 2032.45 1312.32Z" fill="#001E20" fill-opacity="0.1"/>
<path d="M2016.98 1293.27L2030.97 1305.75L2028.13 1299.06L2013.58 1288.14L2016.98 1293.27Z" fill="#001E20" fill-opacity="0.1"/>
<path d="M2010.61 1283.65L2027.29 1296.48L2024.59 1290.39L2008 1279.73L2010.61 1283.65Z" fill="#001E20" fill-opacity="0.1"/>
<path d="M2006.41 1277.32L2022.99 1287.52L2018.43 1280.58L2004.13 1273.9L2006.41 1277.32Z" fill="#001E20" fill-opacity="0.1"/>
<path d="M2001.79 1270.37L2017.2 1278.38L2011.38 1272.14L2000.17 1267.93L2001.79 1270.37Z" fill="#001E20" fill-opacity="0.1"/>
</g>
</g>
<g clip-path="url(#clip8)">
<path d="M1828.55 1247.86L1811.36 1248.92L1799.11 1269.7L1814.77 1253.84L1827.34 1254.49L1828.55 1247.86Z" fill="#FF513F"/>
<path d="M1829.46 1255.67L1817.28 1260.71L1811.38 1283.88L1821.99 1264.48L1838 1258.63L1829.46 1255.67Z" fill="#FF513F"/>
<path d="M1879.46 1240.2L1893.25 1230.24L1916.65 1238.3L1893.97 1236.14L1884.83 1244.5L1879.46 1240.2Z" fill="#FF513F"/>
<path d="M1881.46 1247.44L1894.68 1246.47L1911.03 1264.49L1892.35 1251.94L1875.24 1253.86L1881.46 1247.44Z" fill="#FF513F"/>
<path d="M1823.09 1237.54L1836.02 1235.14L1835.92 1238.59L1820.52 1241.34L1823.09 1237.54Z" fill="#FF513F"/>
<path d="M1823.09 1237.54L1820.51 1225.86L1817.58 1226.41L1820.53 1241.34L1823.09 1237.54Z" fill="#FF513F"/>
<path d="M1888.79 1228.87L1879.38 1216.85L1877.07 1218.62L1884.34 1228.14L1888.79 1228.87Z" fill="#FF513F"/>
<path d="M1888.79 1228.87L1877.02 1238.15L1874.34 1235.92L1884.26 1228.13L1888.79 1228.87Z" fill="#FF513F"/>
<path d="M1817.28 1260.71L1821.99 1264.48L1838 1258.63L1829.46 1255.67L1817.28 1260.71Z" fill="#FF513F"/>
<path d="M1875.24 1253.86L1881.46 1247.44L1894.68 1246.47L1892.35 1251.94L1875.24 1253.86Z" fill="#FF513F"/>
<path d="M1879.46 1240.2L1884.83 1244.5L1893.98 1236.14L1893.25 1230.24L1879.46 1240.2Z" fill="#FF513F"/>
<path d="M1828.55 1247.86L1827.34 1254.49L1814.77 1253.84L1811.36 1248.92L1828.55 1247.86Z" fill="#FF513F"/>
<path d="M1867.44 1230.32L1834.82 1232.63L1819.6 1249.05L1837.17 1263.16L1869.79 1260.85L1884.93 1244.43L1867.44 1230.32Z" fill="#FF513F"/>
<path d="M1817.8 1227.43L1797.48 1219.05L1804.79 1194.06L1815.83 1217.77L1813.63 1200.03L1827.73 1213.61L1820.73 1226.88L1817.8 1227.43Z" fill="#FF513F"/>
<path d="M1879.22 1218.13L1884.32 1202.78L1865.83 1194.38L1874.46 1212.28L1864.98 1202.2L1866.12 1216.69L1877.47 1219.47L1879.22 1218.13Z" fill="#FF513F"/>
<path d="M1839.46 1192.3L1838.45 1196.23L1873.67 1204.75L1874.68 1200.82L1839.46 1192.3Z" fill="#001E20"/>
<path d="M1847.44 1184.25L1844.56 1195.56L1868.58 1201.42L1871.46 1190.11L1847.44 1184.25Z" fill="#001E20"/>
<path d="M1819.6 1249.05L1884.83 1244.5L1869.79 1260.85L1837.17 1263.16L1819.6 1249.05Z" fill="#AA3528"/>
<path d="M1858.93 1235.32L1861.75 1221.86L1858.74 1215.22L1855.72 1221.47L1858.93 1235.32Z" fill="#001E20"/>
<path d="M1843.73 1236.64L1845.99 1222.68L1842.78 1216.7L1839.9 1223.53L1843.73 1236.64Z" fill="#001E20"/>
</g>
<g clip-path="url(#clip9)">
<path d="M1992.62 1220.99L1995.46 1258.38L1999.26 1264.89V1225.37L1992.62 1220.99Z" fill="#FFC856"/>
<path d="M1999.26 1264.89H2014.96L2020.22 1225.37H1999.26V1264.89Z" fill="#FF513F"/>
<path d="M1992.62 1220.99L1999.26 1225.37H2020.22L2013.79 1220.99H1992.62Z" fill="#001E20"/>
<path d="M1993.69 1180.24L1996.53 1217.63L2000.37 1224.14V1184.66L1993.69 1180.24Z" fill="#FFC856"/>
<path d="M2000.37 1224.14H2016.07L2021.29 1184.66H2000.37V1224.14Z" fill="#FF513F"/>
<path d="M1993.69 1180.24L2000.37 1184.66H2021.29L2014.86 1180.24H1993.69Z" fill="#001E20"/>
<path d="M1994.77 1139.5L1997.64 1176.89L2001.44 1183.4V1143.91L1994.77 1139.5Z" fill="#FFC856"/>
<path d="M2001.44 1183.4H2017.14L2022.36 1143.91H2001.44V1183.4Z" fill="#FF513F"/>
<path d="M1994.77 1139.5L2001.44 1143.91H2022.36L2015.96 1139.5H1994.77Z" fill="#001E20"/>
<path d="M2002.65 1097.43L1999.75 1134.82L2002.51 1141.79L2008.56 1102.74L2002.65 1097.43Z" fill="#FFC856"/>
<path d="M2002.51 1141.79L2018.04 1144.01L2029.28 1105.69L2008.56 1102.74L2002.51 1141.79Z" fill="#FF513F"/>
<path d="M2002.65 1097.43L2008.56 1102.74L2029.28 1105.69L2023.6 1100.41L2002.65 1097.43Z" fill="#001E20"/>
<path d="M2018.63 1057.34L2011.09 1094.14L2012.96 1101.38L2023.85 1063.29L2018.63 1057.34Z" fill="#FFC856"/>
<path d="M2012.96 1101.38L2028.1 1105.36L2044.04 1068.6L2023.85 1063.29L2012.96 1101.38Z" fill="#FF513F"/>
<path d="M2018.63 1057.34L2023.85 1063.29L2044.04 1068.6L2039.06 1062.72L2018.63 1057.34Z" fill="#FFB300"/>
<path d="M2034.64 1064.88L2060.47 1055.49L2057.84 1060.63L2083.46 1064.25L2078.17 1069L2111.61 1089.09L2112.68 1137.24L2087.71 1101.58L2085.92 1105.89L2076.3 1088.89L2072.95 1090.62L2064.06 1080.42L2063.27 1082.98L2034.64 1064.88Z" fill="#007550"/>
<path d="M2034.64 1064.88L2065.72 1075.24L2063.27 1082.98L2034.64 1064.88Z" fill="#001E20"/>
<path d="M2112.68 1137.24L2087.71 1101.58L2091.21 1093.61L2112.33 1121.87L2112.68 1137.24Z" fill="#001E20"/>
<path d="M2065.72 1075.24L2091.21 1093.61L2085.92 1105.89L2076.3 1088.89L2072.95 1090.62L2064.06 1080.42L2065.72 1075.24Z" fill="#001E20"/>
<path d="M2032.25 1062.76L2059.19 1040.84L2058.32 1048.15L2090.79 1042L2086.5 1049.87L2135.74 1060.33L2158.43 1117.88L2112.54 1085.21L2112.23 1091.12L2093.11 1074.58L2089.86 1078.03L2074.64 1069.4L2074.78 1072.79L2032.25 1062.76Z" fill="#007550"/>
<path d="M2032.25 1062.76L2074.3 1062.49L2074.78 1072.79L2032.25 1062.76Z" fill="#001E20"/>
<path d="M2158.43 1117.88L2112.54 1085.21L2113.13 1074.15L2151.17 1099.48L2158.43 1117.88Z" fill="#001E20"/>
<path d="M2074.3 1062.49L2113.13 1074.15L2112.23 1091.12L2093.11 1074.58L2089.86 1078.03L2074.64 1069.4L2074.3 1062.49Z" fill="#001E20"/>
<path d="M2030.69 1064.38L2013.65 1044.26L2013.2 1049.94L1989.61 1041.27L1991.65 1047.85L1952.96 1049.84L1927.3 1091.22L1966.79 1071.76L1966.14 1076.34L1983.04 1065.98L1984.95 1069.03L1997.74 1064.29L1997.12 1066.88L2030.69 1064.38Z" fill="#007550"/>
<path d="M2030.69 1064.38L1999.02 1059.01L1997.12 1066.88L2030.69 1064.38Z" fill="#001E20"/>
<path d="M1927.3 1091.22L1966.79 1071.76L1967.97 1063.19L1935.53 1078L1927.3 1091.22Z" fill="#001E20"/>
<path d="M1999.02 1059.01L1967.97 1063.19L1966.14 1076.34L1983.04 1065.98L1984.95 1069.03L1997.74 1064.29L1999.02 1059.01Z" fill="#001E20"/>
<path d="M2033.81 1063.65L2022.22 1032.14L2019.21 1038.85L1994.87 1018.53L1994.42 1027.36L1947.32 1013.68L1898.5 1053.23L1954.21 1046.02L1951.41 1051.3L1976.13 1045.79L1977.1 1050.27L1994.46 1049.81L1992.59 1052.7L2033.81 1063.65Z" fill="#007550"/>
<path d="M2033.81 1063.65L1998.29 1043.96L1992.59 1052.7L2033.81 1063.65Z" fill="#001E20"/>
<path d="M1898.5 1053.23L1954.21 1046.02L1959.39 1036.13L1914.13 1040.58L1898.5 1053.23Z" fill="#001E20"/>
<path d="M1998.29 1043.96L1959.39 1036.13L1951.41 1051.3L1976.13 1045.79L1977.1 1050.27L1994.46 1049.81L1998.29 1043.96Z" fill="#001E20"/>
<path d="M2032.25 1066.11L2041.27 1031.18L2045.25 1037.95L2069.21 1013.31L2070.67 1022.64L2119.8 1002.32L2176.55 1038.32L2115.89 1037.55L2119.46 1042.83L2092.28 1040.01L2091.76 1044.89L2073.05 1046.55L2075.37 1049.38L2032.25 1066.11Z" fill="#007550"/>
<path d="M2032.25 1066.11L2068.28 1040.77L2075.37 1049.38L2032.25 1066.11Z" fill="#001E20"/>
<path d="M2176.55 1038.32L2115.9 1037.55L2109.26 1027.66L2158.39 1026.79L2176.55 1038.32Z" fill="#001E20"/>
<path d="M2068.28 1040.77L2109.26 1027.66L2119.46 1042.83L2092.28 1040.01L2091.76 1044.89L2073.05 1046.55L2068.28 1040.77Z" fill="#001E20"/>
<path d="M2035.15 1064.92L2041.69 1029.58L2035.19 1034.23L2023.74 1002.52L2018.49 1010.49L1982.28 973L1915.31 984.025L1970.94 1006.67L1965.44 1010.09L1991.41 1018L1989.86 1022.68L2006.21 1031.38L2002.89 1033.07L2035.15 1064.92Z" fill="#007550"/>
<path d="M2035.15 1064.92L2012.99 1027.96L2002.89 1033.07L2035.15 1064.92Z" fill="#001E20"/>
<path d="M1915.31 984.025L1970.94 1006.67L1981.18 1000.2L1936.71 980.505L1915.31 984.025Z" fill="#001E20"/>
<path d="M2012.99 1027.96L1981.18 1000.2L1965.44 1010.09L1991.41 1018L1989.86 1022.68L2006.21 1031.38L2012.99 1027.96Z" fill="#001E20"/>
<path d="M2034.7 1058.61L2025.3 1033.67L2030.66 1036.26L2034.81 1011.72L2039.68 1016.87L2061.09 985.054L2111.26 984.755L2073.74 1008.17L2078.2 1009.99L2060.33 1018.99L2062.09 1022.21L2051.34 1030.58L2053.96 1031.41L2034.7 1058.61Z" fill="#007550"/>
<path d="M2034.71 1058.61L2045.98 1028.92L2053.97 1031.41L2034.71 1058.61Z" fill="#001E20"/>
<path d="M2111.26 984.755L2073.74 1008.17L2065.48 1004.75L2095.22 984.855L2111.26 984.755Z" fill="#001E20"/>
<path d="M2045.98 1028.92L2065.48 1004.75L2078.2 1009.99L2060.33 1018.99L2062.09 1022.21L2051.34 1030.58L2045.98 1028.92Z" fill="#001E20"/>
<path d="M2023.94 1077.13C2029.1 1077.13 2033.28 1073.11 2033.28 1068.16C2033.28 1063.21 2029.1 1059.19 2023.94 1059.19C2018.79 1059.19 2014.61 1063.21 2014.61 1068.16C2014.61 1073.11 2018.79 1077.13 2023.94 1077.13Z" fill="black"/>
<path d="M2039.22 1082.02C2044.38 1082.02 2048.56 1078.01 2048.56 1073.06C2048.56 1068.11 2044.38 1064.09 2039.22 1064.09C2034.06 1064.09 2029.88 1068.11 2029.88 1073.06C2029.88 1078.01 2034.06 1082.02 2039.22 1082.02Z" fill="black"/>
<path d="M2035.15 1067.33C2040.3 1067.33 2044.48 1063.32 2044.48 1058.37C2044.48 1053.41 2040.3 1049.4 2035.15 1049.4C2029.99 1049.4 2025.81 1053.41 2025.81 1058.37C2025.81 1063.32 2029.99 1067.33 2035.15 1067.33Z" fill="black"/>
<g clip-path="url(#clip10)">
<path d="M2017.96 1264.77L2055.67 1204.44L2021.61 1264.92L2019.11 1267.65L2017.96 1264.77Z" fill="#007550"/>
<path d="M2020.38 1260.88L2013.36 1241.55L2017.57 1228.76L2022.67 1257.23L2020.38 1260.88Z" fill="#007550"/>
<path d="M2018.94 1226.57L2026.03 1216.14L2028.73 1247.54L2025.81 1252.2L2018.94 1226.57Z" fill="#007550"/>
<path d="M2029.39 1211.99L2031.05 1243.82L2035.21 1237.17L2037.64 1203.79L2029.39 1211.99Z" fill="#007550"/>
<path d="M2040.52 1202.81L2049.28 1194.88L2044.25 1222.69L2039.73 1229.95L2040.52 1202.81Z" fill="#007550"/>
<path d="M2048.44 1216L2053.61 1193.4L2059.23 1189.53L2052.37 1209.74L2048.44 1216Z" fill="#007550"/>
<path d="M2052.32 1209.75L2062.27 1191.09L2065.33 1194.18L2052.32 1209.75Z" fill="#007550"/>
<path d="M2066.61 1196.08L2052.34 1210.59C2052.34 1210.59 2047.56 1218.84 2047.78 1218.46C2048 1218.07 2065.98 1202.83 2066.29 1202.38C2066.63 1201.92 2066.61 1196.08 2066.61 1196.08Z" fill="#007550"/>
<path d="M2044.5 1224.29L2066.89 1206.87L2064.44 1217.48L2040.1 1232.09L2044.5 1224.29Z" fill="#007550"/>
<path d="M2036.26 1238.92L2064.01 1221.65L2061.54 1231.29L2032.9 1244.89L2036.26 1238.92Z" fill="#007550"/>
<path d="M2030.84 1248.55L2059.71 1235.73L2053.84 1246.3L2027.9 1253.75L2030.84 1248.55Z" fill="#007550"/>
<path d="M2024.88 1259.12L2052.44 1249.71L2043.63 1258.74L2022.79 1262.85L2024.88 1259.12Z" fill="#007550"/>
</g>
<g clip-path="url(#clip11)">
<path d="M2019.21 1265.48L1994.45 1225.86L2016.81 1265.57L2018.45 1267.36L2019.21 1265.48Z" fill="#001E20"/>
<path d="M2017.62 1262.92L2022.23 1250.23L2019.47 1241.83L2016.12 1260.52L2017.62 1262.92Z" fill="#001E20"/>
<path d="M2018.56 1240.39L2013.91 1233.54L2012.14 1254.16L2014.05 1257.22L2018.56 1240.39Z" fill="#001E20"/>
<path d="M2011.71 1230.82L2010.62 1251.72L2007.88 1247.35L2006.29 1225.43L2011.71 1230.82Z" fill="#001E20"/>
<path d="M2004.4 1224.79L1998.64 1219.58L2001.94 1237.84L2004.91 1242.61L2004.4 1224.79Z" fill="#001E20"/>
<path d="M1999.2 1233.45L1995.8 1218.61L1992.11 1216.07L1996.62 1229.33L1999.2 1233.45Z" fill="#001E20"/>
<path d="M1996.65 1229.35L1990.11 1217.09L1988.1 1219.12L1996.65 1229.35Z" fill="#001E20"/>
<path d="M1987.26 1220.37L1996.63 1229.89C1996.63 1229.89 1999.77 1235.31 1999.63 1235.06C1999.48 1234.81 1987.68 1224.8 1987.47 1224.51C1987.25 1224.2 1987.26 1220.37 1987.26 1220.37Z" fill="#001E20"/>
<path d="M2001.78 1238.89L1987.08 1227.45L1988.69 1234.42L2004.67 1244.01L2001.78 1238.89Z" fill="#001E20"/>
<path d="M2007.19 1248.5L1988.97 1237.16L1990.59 1243.49L2009.4 1252.42L2007.19 1248.5Z" fill="#001E20"/>
<path d="M2010.75 1254.83L1991.79 1246.41L1995.65 1253.35L2012.68 1258.24L2010.75 1254.83Z" fill="#001E20"/>
<path d="M2014.67 1261.77L1996.57 1255.58L2002.35 1261.51L2016.04 1264.21L2014.67 1261.77Z" fill="#001E20"/>
</g>
<g clip-path="url(#clip12)">
<path d="M2007.43 1260.54L2008.31 1169.1L2011.74 1258.58L2010.78 1263.18L2007.43 1260.54Z" fill="#007550"/>
<path d="M2007.47 1254.65L1985.75 1236.49L1981.58 1219.31L2007.53 1249.11L2007.47 1254.65Z" fill="#007550"/>
<path d="M1981.62 1215.99L1982.42 1199.84L2007.68 1234.42L2007.6 1241.49L1981.62 1215.99Z" fill="#007550"/>
<path d="M1983.37 1193.12L2007.73 1228.79L2007.83 1218.7L1987.09 1178.86L1983.37 1193.12Z" fill="#007550"/>
<path d="M1989.71 1176.05L1994.21 1161.81L2008.03 1196.77L2007.94 1207.76L1989.71 1176.05Z" fill="#007550"/>
<path d="M2008.13 1186.62L1998.15 1157.59L2001.9 1149.86L2008.24 1177.12L2008.13 1186.62Z" fill="#007550"/>
<path d="M2008.2 1177.17L2006.5 1149.89L2012.2 1151.65L2008.2 1177.17Z" fill="#007550"/>
<path d="M2015.01 1153.1L2008.81 1178.12C2008.81 1178.12 2009.13 1190.41 2009.11 1189.83C2009.1 1189.26 2019.05 1161.24 2019.09 1160.54C2019.16 1159.81 2015.01 1153.1 2015.01 1153.1Z" fill="#007550"/>
<path d="M2009.45 1198.47L2022.95 1165.36L2027.61 1179L2009.88 1210.01L2009.45 1198.47Z" fill="#007550"/>
<path d="M2010.28 1220.12L2030.06 1184.05L2034.01 1196.59L2010.61 1228.95L2010.28 1220.12Z" fill="#007550"/>
<path d="M2010.82 1234.36L2035.03 1202.77L2035.73 1218.36L2011.11 1242.06L2010.82 1234.36Z" fill="#007550"/>
<path d="M2011.41 1250.01L2036.51 1223.1L2032.74 1238.63L2011.63 1255.51L2011.41 1250.01Z" fill="#007550"/>
</g>
</g>
<path d="M2842.5 1495L2206.5 1350.5L2395 1333L2371 1312L2858 1350.5L3088.5 1495L2842.5 1495Z" fill="#D1A94D"/>
<g clip-path="url(#clip13)">
<path d="M1476.03 1299.58L1474.45 1321.23L1472.33 1325V1302.12L1476.03 1299.58Z" fill="#FFC856"/>
<path d="M1472.33 1325H1463.58L1460.65 1302.12H1472.33V1325Z" fill="#FF513F"/>
<path d="M1476.03 1299.58L1472.33 1302.12H1460.65L1464.23 1299.58H1476.03Z" fill="#001E20"/>
<path d="M1475.43 1275.99L1473.85 1297.64L1471.71 1301.41V1278.55L1475.43 1275.99Z" fill="#FFC856"/>
<path d="M1471.71 1301.41H1462.96L1460.05 1278.55H1471.71V1301.41Z" fill="#FF513F"/>
<path d="M1475.43 1275.99L1471.71 1278.55H1460.05L1463.64 1275.99H1475.43Z" fill="#001E20"/>
<path d="M1474.83 1252.4L1473.24 1274.05L1471.11 1277.82V1254.96L1474.83 1252.4Z" fill="#FFC856"/>
<path d="M1471.11 1277.82H1462.36L1459.45 1254.96H1471.11V1277.82Z" fill="#FF513F"/>
<path d="M1474.83 1252.4L1471.11 1254.96H1459.45L1463.02 1252.4H1474.83Z" fill="#001E20"/>
<path d="M1470.44 1228.04L1472.06 1249.69L1470.52 1253.73L1467.14 1231.12L1470.44 1228.04Z" fill="#FFC856"/>
<path d="M1470.52 1253.73L1461.86 1255.02L1455.6 1232.83L1467.14 1231.12L1470.52 1253.73Z" fill="#FF513F"/>
<path d="M1470.44 1228.04L1467.14 1231.12L1455.6 1232.83L1458.76 1229.77L1470.44 1228.04Z" fill="#001E20"/>
<path d="M1461.53 1204.84L1465.74 1226.14L1464.7 1230.33L1458.62 1208.28L1461.53 1204.84Z" fill="#FFC856"/>
<path d="M1464.7 1230.33L1456.25 1232.64L1447.37 1211.35L1458.62 1208.28L1464.7 1230.33Z" fill="#FF513F"/>
<path d="M1461.53 1204.84L1458.62 1208.28L1447.37 1211.35L1450.14 1207.95L1461.53 1204.84Z" fill="#FFB300"/>
<path d="M1452.61 1209.2L1438.21 1203.76L1439.68 1206.74L1425.39 1208.83L1428.34 1211.58L1409.7 1223.22L1409.1 1251.09L1423.02 1230.44L1424.02 1232.94L1429.38 1223.1L1431.25 1224.1L1436.21 1218.2L1436.65 1219.68L1452.61 1209.2Z" fill="#007550"/>
<path d="M1452.61 1209.2L1435.28 1215.2L1436.65 1219.68L1452.61 1209.2Z" fill="#001E20"/>
<path d="M1409.1 1251.09L1423.02 1230.44L1421.07 1225.83L1409.3 1242.19L1409.1 1251.09Z" fill="#001E20"/>
<path d="M1435.28 1215.2L1421.07 1225.83L1424.02 1232.94L1429.38 1223.1L1431.25 1224.1L1436.21 1218.2L1435.28 1215.2Z" fill="#001E20"/>
<path d="M1453.94 1207.97L1438.92 1195.28L1439.41 1199.51L1421.3 1195.95L1423.7 1200.51L1396.25 1206.57L1383.6 1239.88L1409.18 1220.97L1409.35 1224.39L1420.01 1214.81L1421.83 1216.81L1430.31 1211.81L1430.23 1213.78L1453.94 1207.97Z" fill="#007550"/>
<path d="M1453.94 1207.97L1430.5 1207.82L1430.23 1213.78L1453.94 1207.97Z" fill="#001E20"/>
<path d="M1383.6 1239.88L1409.18 1220.97L1408.85 1214.56L1387.65 1229.23L1383.6 1239.88Z" fill="#001E20"/>
<path d="M1430.5 1207.82L1408.85 1214.56L1409.35 1224.39L1420.01 1214.81L1421.83 1216.81L1430.31 1211.81L1430.5 1207.82Z" fill="#001E20"/>
<path d="M1454.81 1208.91L1464.31 1197.26L1464.56 1200.55L1477.71 1195.53L1476.57 1199.34L1498.14 1200.49L1512.44 1224.45L1490.43 1213.18L1490.8 1215.83L1481.37 1209.83L1480.31 1211.6L1473.18 1208.85L1473.52 1210.35L1454.81 1208.91Z" fill="#007550"/>
<path d="M1454.81 1208.91L1472.46 1205.8L1473.52 1210.35L1454.81 1208.91Z" fill="#001E20"/>
<path d="M1512.44 1224.45L1490.43 1213.18L1489.77 1208.22L1507.86 1216.79L1512.44 1224.45Z" fill="#001E20"/>
<path d="M1472.46 1205.8L1489.77 1208.22L1490.8 1215.83L1481.37 1209.83L1480.31 1211.6L1473.18 1208.85L1472.46 1205.8Z" fill="#001E20"/>
<path d="M1453.07 1208.49L1459.53 1190.24L1461.21 1194.13L1474.78 1182.36L1475.03 1187.47L1501.28 1179.55L1528.5 1202.45L1497.45 1198.28L1499.01 1201.34L1485.22 1198.14L1484.69 1200.74L1475.01 1200.47L1476.05 1202.14L1453.07 1208.49Z" fill="#007550"/>
<path d="M1453.07 1208.49L1472.87 1197.09L1476.05 1202.14L1453.07 1208.49Z" fill="#001E20"/>
<path d="M1528.5 1202.45L1497.45 1198.28L1494.55 1192.55L1519.79 1195.13L1528.5 1202.45Z" fill="#001E20"/>
<path d="M1472.87 1197.09L1494.56 1192.55L1499.01 1201.34L1485.23 1198.14L1484.69 1200.74L1475.01 1200.47L1472.87 1197.09Z" fill="#001E20"/>
<path d="M1453.94 1209.91L1448.91 1189.68L1446.69 1193.61L1433.33 1179.34L1432.52 1184.74L1405.13 1172.98L1373.5 1193.82L1407.31 1193.38L1405.32 1196.43L1420.48 1194.8L1420.77 1197.63L1431.19 1198.59L1429.9 1200.22L1453.94 1209.91Z" fill="#007550"/>
<path d="M1453.94 1209.91L1433.85 1195.24L1429.9 1200.22L1453.94 1209.91Z" fill="#001E20"/>
<path d="M1373.5 1193.82L1407.31 1193.38L1411.01 1187.65L1383.62 1187.15L1373.5 1193.82Z" fill="#001E20"/>
<path d="M1433.85 1195.24L1411.01 1187.65L1405.33 1196.43L1420.48 1194.8L1420.77 1197.63L1431.19 1198.59L1433.85 1195.24Z" fill="#001E20"/>
<path d="M1452.32 1209.22L1448.68 1188.76L1452.3 1191.45L1458.68 1173.09L1461.61 1177.71L1481.79 1156L1519.13 1162.38L1488.12 1175.5L1491.18 1177.48L1476.7 1182.05L1477.57 1184.76L1468.45 1189.8L1470.31 1190.78L1452.32 1209.22Z" fill="#007550"/>
<path d="M1452.32 1209.22L1464.68 1187.82L1470.31 1190.78L1452.32 1209.22Z" fill="#001E20"/>
<path d="M1519.13 1162.38L1488.12 1175.5L1482.41 1171.75L1507.2 1160.35L1519.13 1162.38Z" fill="#001E20"/>
<path d="M1464.68 1187.82L1482.41 1171.75L1491.18 1177.48L1476.7 1182.05L1477.57 1184.76L1468.45 1189.8L1464.68 1187.82Z" fill="#001E20"/>
<path d="M1452.57 1205.57L1457.81 1191.13L1454.83 1192.63L1452.51 1178.42L1449.8 1181.4L1437.86 1162.98L1409.89 1162.81L1430.81 1176.36L1428.32 1177.42L1438.29 1182.63L1437.3 1184.49L1443.3 1189.34L1441.83 1189.82L1452.57 1205.57Z" fill="#007550"/>
<path d="M1452.57 1205.57L1446.29 1188.38L1441.83 1189.82L1452.57 1205.57Z" fill="#001E20"/>
<path d="M1409.89 1162.81L1430.81 1176.36L1435.42 1174.38L1418.84 1162.86L1409.89 1162.81Z" fill="#001E20"/>
<path d="M1446.29 1188.38L1435.42 1174.38L1428.32 1177.42L1438.29 1182.63L1437.3 1184.49L1443.3 1189.34L1446.29 1188.38Z" fill="#001E20"/>
<path d="M1461.32 1215.64C1458.45 1215.64 1456.12 1213.32 1456.12 1210.45C1456.12 1207.58 1458.45 1205.26 1461.32 1205.26C1464.2 1205.26 1466.53 1207.58 1466.53 1210.45C1466.53 1213.32 1464.2 1215.64 1461.32 1215.64Z" fill="black"/>
<path d="M1450.39 1221.18C1447.52 1221.18 1445.19 1218.85 1445.19 1215.99C1445.19 1213.12 1447.52 1210.8 1450.39 1210.8C1453.27 1210.8 1455.6 1213.12 1455.6 1215.99C1455.6 1218.85 1453.27 1221.18 1450.39 1221.18Z" fill="black"/>
<path d="M1453.94 1213.68C1451.07 1213.68 1448.73 1211.35 1448.73 1208.49C1448.73 1205.62 1451.07 1203.3 1453.94 1203.3C1456.81 1203.3 1459.14 1205.62 1459.14 1208.49C1459.14 1211.35 1456.81 1213.68 1453.94 1213.68Z" fill="black"/>
</g>
<g clip-path="url(#clip14)">
<path d="M2161.03 1291.26L2214.35 1216.39L2368.31 1203.87L2206.11 1350.95L2161.03 1291.26Z" fill="#001E20"/>
<path d="M2394.96 1333L2368.31 1203.87L2206.11 1350.95L2394.96 1333Z" fill="#FF513F"/>
<path d="M2335.55 974.441L2279.52 1014.85L2392.79 1050.2L2408.61 1004.44L2335.55 974.441Z" fill="#FFC856"/>
<path d="M2260.2 1052.26L2370.02 1094.93L2397.88 1068.62L2284.52 1027.87L2260.2 1052.26Z" fill="#FFC856"/>
<path d="M2260.2 1052.26L2193.82 1162.59L2247.9 1138.93L2241.64 1125.1L2265.33 1112.29L2254.15 1092.32L2287.69 1062.94L2260.2 1052.26Z" fill="#FFC856"/>
<path d="M2303.38 1069.01L2286.47 1096.51L2292.52 1124.12L2294.96 1155.81L2332.77 1231.51L2370.02 1094.93L2303.38 1069.01Z" fill="#FFC856"/>
<path d="M2254.15 1092.32L2287.45 1100.8L2292.52 1124.12L2265.33 1112.29L2254.15 1092.32Z" fill="#001E20"/>
<path d="M2314.3 1038.64L2254.15 1092.32L2287.45 1100.8L2321.04 1040.97L2314.3 1038.64Z" fill="white"/>
<path d="M2241.64 1125.1L2294.01 1144.19L2292.52 1124.12L2265.33 1112.29L2241.64 1125.1Z" fill="white"/>
<path d="M2247.9 1138.93L2294.96 1155.81L2294.01 1144.19L2241.64 1125.1L2247.9 1138.93Z" fill="#001E20"/>
<path d="M2193.82 1162.59L2206.64 1211.61L2254.38 1241.64L2332.77 1231.51L2294.96 1155.81L2247.9 1138.93L2193.82 1162.59Z" fill="#FF513F"/>
<path d="M2279.52 1014.85L2284.52 1027.87L2397.88 1068.62L2392.79 1050.2L2279.52 1014.85Z" fill="#001E20"/>
<path d="M2408.61 1004.43L2424.68 1027.74L2368.31 1203.87L2332.77 1231.51L2370.02 1094.93L2397.88 1068.62L2392.79 1050.2L2408.61 1004.43Z" fill="#FF513F"/>
<path d="M2405.31 1058.65L2415.68 1073.16L2401.35 1107.8L2388.72 1104.58L2405.31 1058.65Z" fill="#001E20"/>
<path d="M2388.18 1171L2401.34 1107.8L2388.71 1104.58L2368.18 1163.09L2388.18 1171Z" fill="#001E20"/>
<path d="M2321.04 1040.97L2292.52 1124.12L2287.45 1100.8L2321.04 1040.97Z" fill="#FF513F"/>
<g clip-path="url(#clip15)">
<path d="M2320.59 1304.31L2327.24 1355L2349.33 1355L2355.99 1304.31L2320.59 1304.31Z" fill="#FFC856"/>
<path d="M2321.49 1311.48L2306.12 1305.31L2304.5 1304.37L2308.85 1295.42L2318.47 1290.91L2329.97 1296.76L2321.49 1311.48Z" fill="#FF513F"/>
<path d="M2310.04 1296.65L2318.35 1292.52L2329.11 1298.03L2321.49 1311.48L2306.16 1305.24L2310.04 1296.65Z" fill="#FFC856"/>
<path d="M2320.59 1304.31L2322.08 1315.79L2354.47 1315.79L2355.99 1304.31L2320.59 1304.31Z" fill="#EFECDE"/>
<path d="M2355.16 1294.82L2338.29 1353.55L2341.37 1354.44L2358.01 1295.71L2355.16 1294.82Z" fill="#001E20"/>
<path d="M2355.16 1294.82L2359.19 1289.68L2361.57 1291.24L2358.01 1295.71L2355.16 1294.82Z" fill="#001E20"/>
<path d="M2359.19 1289.68L2371.79 1287L2372.5 1289.01L2361.57 1291.24L2359.19 1289.68Z" fill="#001E20"/>
<path d="M2321.49 1311.48L2310.01 1296.6L2318.33 1292.58L2321.49 1311.48Z" fill="#FFC856"/>
</g>
</g>
<g clip-path="url(#clip16)">
<path d="M2422.28 1315.25L2458.55 1264.32L2563.28 1255.8L2452.94 1355.85L2422.28 1315.25Z" fill="#001E20"/>
<path d="M2581.4 1343.65L2563.28 1255.8L2452.94 1355.85L2581.4 1343.65Z" fill="#FF513F"/>
<path d="M2540.99 1099.73L2502.88 1127.22L2579.93 1151.27L2590.69 1120.14L2540.99 1099.73Z" fill="#FFC856"/>
<path d="M2489.74 1152.67L2564.44 1181.69L2583.39 1163.8L2506.28 1136.08L2489.74 1152.67Z" fill="#FFC856"/>
<path d="M2489.74 1152.67L2444.58 1227.72L2481.37 1211.63L2477.11 1202.22L2493.22 1193.51L2485.62 1179.92L2508.43 1159.93L2489.74 1152.67Z" fill="#FFC856"/>
<path d="M2519.11 1164.07L2507.6 1182.77L2511.72 1201.55L2513.38 1223.11L2539.1 1274.61L2564.44 1181.69L2519.11 1164.07Z" fill="#FFC856"/>
<path d="M2485.62 1179.92L2508.27 1185.69L2511.72 1201.55L2493.22 1193.51L2485.62 1179.92Z" fill="#001E20"/>
<path d="M2526.54 1143.4L2485.62 1179.92L2508.28 1185.69L2531.12 1144.99L2526.54 1143.4Z" fill="white"/>
<path d="M2477.11 1202.22L2512.73 1215.21L2511.72 1201.55L2493.22 1193.51L2477.11 1202.22Z" fill="white"/>
<path d="M2481.37 1211.63L2513.38 1223.11L2512.73 1215.21L2477.11 1202.22L2481.37 1211.63Z" fill="#001E20"/>
<path d="M2444.58 1227.72L2453.3 1261.07L2485.78 1281.49L2539.1 1274.61L2513.38 1223.11L2481.37 1211.63L2444.58 1227.72Z" fill="#FF513F"/>
<path d="M2502.88 1127.22L2506.28 1136.08L2583.39 1163.8L2579.93 1151.27L2502.88 1127.22Z" fill="#001E20"/>
<path d="M2590.69 1120.14L2601.63 1135.99L2563.28 1255.8L2539.1 1274.61L2564.44 1181.69L2583.39 1163.8L2579.93 1151.27L2590.69 1120.14Z" fill="#FF513F"/>
<path d="M2588.45 1157.02L2595.5 1166.89L2585.75 1190.45L2577.16 1188.26L2588.45 1157.02Z" fill="#001E20"/>
<path d="M2576.79 1233.44L2585.75 1190.45L2577.16 1188.26L2563.19 1228.06L2576.79 1233.44Z" fill="#001E20"/>
<path d="M2531.12 1144.99L2511.72 1201.55L2508.28 1185.69L2531.12 1144.99Z" fill="#FF513F"/>
</g>
<g clip-path="url(#clip17)">
<path d="M2609.91 1339.36L2634.52 1304.8L2705.6 1299.02L2630.72 1366.92L2609.91 1339.36Z" fill="#001E20"/>
<path d="M2717.9 1358.64L2705.6 1299.02L2630.72 1366.92L2717.9 1358.64Z" fill="#FF513F"/>
<path d="M2690.47 1193.11L2664.61 1211.76L2716.9 1228.08L2724.2 1206.95L2690.47 1193.11Z" fill="#FFC856"/>
<path d="M2655.69 1229.03L2706.39 1248.73L2719.25 1236.59L2666.91 1217.77L2655.69 1229.03Z" fill="#FFC856"/>
<path d="M2655.69 1229.03L2625.04 1279.96L2650.01 1269.04L2647.12 1262.66L2658.06 1256.75L2652.9 1247.52L2668.38 1233.96L2655.69 1229.03Z" fill="#FFC856"/>
<path d="M2675.62 1236.77L2667.81 1249.46L2670.61 1262.2L2671.73 1276.84L2689.19 1311.78L2706.39 1248.73L2675.62 1236.77Z" fill="#FFC856"/>
<path d="M2652.9 1247.52L2668.27 1251.44L2670.61 1262.2L2658.05 1256.75L2652.9 1247.52Z" fill="#001E20"/>
<path d="M2680.66 1222.74L2652.9 1247.52L2668.27 1251.44L2683.77 1223.82L2680.66 1222.74Z" fill="white"/>
<path d="M2647.12 1262.66L2671.29 1271.47L2670.61 1262.2L2658.05 1256.75L2647.12 1262.66Z" fill="white"/>
<path d="M2650.01 1269.04L2671.73 1276.84L2671.29 1271.47L2647.12 1262.66L2650.01 1269.04Z" fill="#001E20"/>
<path d="M2625.04 1279.96L2630.96 1302.6L2653 1316.46L2689.19 1311.78L2671.73 1276.84L2650.01 1269.04L2625.04 1279.96Z" fill="#FF513F"/>
<path d="M2664.61 1211.76L2666.91 1217.77L2719.25 1236.59L2716.9 1228.08L2664.61 1211.76Z" fill="#001E20"/>
<path d="M2724.2 1206.95L2731.62 1217.71L2705.6 1299.02L2689.19 1311.78L2706.39 1248.73L2719.25 1236.59L2716.9 1228.08L2724.2 1206.95Z" fill="#FF513F"/>
<path d="M2722.68 1231.98L2727.46 1238.68L2720.85 1254.67L2715.02 1253.19L2722.68 1231.98Z" fill="#001E20"/>
<path d="M2714.77 1283.85L2720.85 1254.67L2715.02 1253.19L2705.54 1280.2L2714.77 1283.85Z" fill="#001E20"/>
<path d="M2683.78 1223.82L2670.61 1262.2L2668.27 1251.44L2683.78 1223.82Z" fill="#FF513F"/>
</g>
<path opacity="0.31" d="M1144.39 126.025L934.642 114.888C934.642 114.888 899.909 88.8293 915.545 65.2187C938.758 30.167 998.693 62.4767 1004.16 66.8782C1009.62 71.2798 1002.81 -12.0533 1071 1.49045C1142.89 15.7718 1103.3 98.7098 1107.73 86.4823C1114.5 67.79 1131.16 64.2724 1147.16 71.7202C1163.16 79.168 1172.73 113.67 1144.39 126.025Z" fill="url(#paint2_linear)"/>
<path opacity="0.31" d="M1107.34 977.343L1244.38 970.066C1244.38 970.066 1267.07 953.04 1256.86 937.613C1241.69 914.711 1202.53 935.821 1198.96 938.697C1195.39 941.573 1199.84 887.125 1155.29 895.974C1108.31 905.305 1134.18 959.496 1131.29 951.506C1126.87 939.293 1115.98 936.995 1105.52 941.861C1095.07 946.727 1088.82 969.27 1107.34 977.343Z" fill="url(#paint3_linear)"/>
<path opacity="0.6" d="M942.828 829.472H1085.92C1085.92 829.472 1094.98 816.719 1069.7 815.291C1044.42 813.863 1061.59 784.929 1038.7 771.033C1015.8 757.137 1008.65 795.208 1000.06 800.253C991.479 805.297 985.756 767.987 964.292 798.73C942.828 829.472 927.183 813.102 923.654 819.955C916.785 833.375 942.828 829.472 942.828 829.472Z" fill="url(#paint4_linear)"/>
<g clip-path="url(#clip18)">
<path d="M1367.5 1329L1351.5 1331L1350.58 1341.11L1347.89 1341.3L1347.54 1340.66L1344.93 1341.39L1344.1 1333.87L1341.65 1335.73L1342 1332L1327.5 1333.87L1322.99 1341.03L1337.75 1350.08L1333.57 1351.89L1330.52 1350.4L1329.94 1351.87L1314.57 1346.38L1318.98 1359.28L1337.37 1359.12L1335.1 1361.3L1342.92 1359.33L1331.25 1365.8L1335.85 1365.73L1319.4 1381.79L1330.83 1397.11L1337.88 1378.7L1340.14 1379.49L1342.03 1371.38L1344.61 1370.95L1345.51 1369.29L1346.66 1368.93L1343.55 1383.53L1368.29 1389.08L1359.81 1375.99L1362.8 1375.76L1362.65 1375.59L1378.03 1375.09L1385.63 1374.85L1372.14 1368.14L1374.59 1367.49L1367.76 1364.97L1369.18 1363.93L1365.63 1361.48L1367.03 1361.18L1365.47 1358.07C1365.66 1358.02 1365.85 1357.96 1366.06 1357.89C1367.91 1357.26 1369.32 1356.16 1369.82 1355.08L1380.06 1352.69L1382.39 1351.54L1382.5 1354.27L1402.22 1348.34L1404.5 1347.02L1405.08 1348.77L1424.3 1341.35L1425.88 1340.24L1426.38 1341.76L1445.61 1334.33L1447.19 1333.22L1447.69 1334.74L1466.91 1327.31L1469.98 1325.16L1468.65 1321.11L1447.6 1326.86L1446.52 1328.36L1426.29 1333.86L1425.2 1335.36L1404.98 1340.86L1404 1342.22L1384.49 1345.91L1384.11 1346.3L1373.29 1347.61C1373.29 1347.44 1373.27 1347.27 1373.22 1347.1C1372.78 1345.77 1370.33 1345.41 1367.75 1346.3C1367.01 1346.55 1366.35 1346.88 1365.78 1347.25L1369.76 1341.21L1368.35 1341.45L1372.91 1337.33L1371.73 1336.78L1379.77 1331.26L1377.38 1331.55L1391.5 1326L1367.5 1329ZM1343.59 1353.39L1343.52 1353.65L1341.3 1353.12L1343.59 1353.39ZM1337.77 1352.69L1336.72 1353.4L1334.43 1352.29L1337.77 1352.69ZM1357.83 1370.36L1359.24 1369.69L1361.17 1373.97L1357.83 1370.36ZM1364.18 1335.14L1362.89 1335L1367.57 1329.7L1364.18 1335.14Z" fill="#001E20" fill-opacity="0.1"/>
</g>
<defs>
<linearGradient id="paint0_linear" x1="1733" y1="1111" x2="1733" y2="1360" gradientUnits="userSpaceOnUse">
<stop stop-color="#FFD45D"/>
<stop offset="1" stop-color="#FF0000" stop-opacity="0"/>
</linearGradient>
<linearGradient id="paint1_linear" x1="1882.5" y1="1213" x2="2842.5" y2="1495.01" gradientUnits="userSpaceOnUse">
<stop stop-color="#FFC856"/>
<stop offset="1" stop-color="#F5BB41"/>
</linearGradient>
<linearGradient id="paint2_linear" x1="-68598.7" y1="27862.6" x2="-84622.2" y2="28089.2" gradientUnits="userSpaceOnUse">
<stop stop-color="#E0EDFF"/>
<stop offset="0.06151" stop-color="#E0EDFF"/>
<stop offset="0.4255" stop-color="white"/>
<stop offset="1" stop-color="#F0F6FF"/>
</linearGradient>
<linearGradient id="paint3_linear" x1="46676.5" y1="19100.1" x2="57146" y2="19248.1" gradientUnits="userSpaceOnUse">
<stop stop-color="#EFF3FF"/>
<stop offset="0.166667" stop-color="#CFDAFF"/>
<stop offset="0.4255" stop-color="#A6B9FF"/>
<stop offset="1" stop-color="#B8C7FF"/>
</linearGradient>
<linearGradient id="paint4_linear" x1="46781.5" y1="14475.4" x2="57313.2" y2="14674.5" gradientUnits="userSpaceOnUse">
<stop offset="0.06151" stop-color="#EDF2FF"/>
<stop offset="0.4255" stop-color="white"/>
<stop offset="1" stop-color="#D6DCEB"/>
</linearGradient>
<clipPath id="clip0">
<rect width="59.1038" height="98.9645" fill="white" transform="matrix(-0.988295 -0.152556 -0.152556 0.988295 1385.36 1247.05)"/>
</clipPath>
<clipPath id="clip1">
<rect width="65.4752" height="109.633" fill="white" transform="translate(1536.79 1258.61) rotate(46.3211)"/>
</clipPath>
<clipPath id="clip2">
<rect width="47.7287" height="79.9178" fill="white" transform="translate(1381.19 1284.25) rotate(10.6974)"/>
</clipPath>
<clipPath id="clip3">
<rect width="47.7287" height="79.9178" fill="white" transform="translate(1258.5 1289.6) rotate(-13.6874)"/>
</clipPath>
<clipPath id="clip4">
<rect width="40.6942" height="27.1295" fill="white" transform="matrix(-0.984763 0.173902 0.173902 0.984763 1349.79 1222)"/>
</clipPath>
<clipPath id="clip5">
<rect width="178.454" height="379.637" fill="white" transform="matrix(-0.180233 0.983624 -0.98595 -0.167038 2389.97 1254.41)"/>
</clipPath>
<clipPath id="clip6">
<rect width="62.7253" height="53.312" fill="white" transform="matrix(0.990141 -0.129638 -0.586761 -0.812688 2034.48 1308.79)"/>
</clipPath>
<clipPath id="clip7">
<rect width="40.5965" height="34.9724" fill="white" transform="matrix(0.930188 0.48345 0.0965082 -0.931927 1994.21 1297.28)"/>
</clipPath>
<clipPath id="clip8">
<rect width="127.403" height="122.63" fill="white" transform="matrix(0.994034 0.109067 -0.117843 0.993032 1797.67 1159.85)"/>
</clipPath>
<clipPath id="clip9">
<rect width="278.046" height="291.887" fill="white" transform="translate(1898.5 973)"/>
</clipPath>
<clipPath id="clip10">
<rect width="71.3723" height="61.0682" fill="white" transform="matrix(0.946303 -0.32328 0.381968 0.924176 1995.78 1211.21)"/>
</clipPath>
<clipPath id="clip11">
<rect width="46.8697" height="40.103" fill="white" transform="matrix(-0.946303 -0.32328 -0.381968 0.924176 2033.77 1230.3)"/>
</clipPath>
<clipPath id="clip12">
<rect width="90.1755" height="84.1775" fill="white" transform="matrix(0.682236 -0.731132 0.792049 0.610458 1944.11 1211.79)"/>
</clipPath>
<clipPath id="clip13">
<rect width="155" height="169" fill="white" transform="matrix(-1 0 0 1 1528.5 1156)"/>
</clipPath>
<clipPath id="clip14">
<rect width="236.984" height="396.811" fill="white" transform="translate(2247.48 952) rotate(14.295)"/>
</clipPath>
<clipPath id="clip15">
<rect width="68" height="68" fill="white" transform="translate(2304.5 1287)"/>
</clipPath>
<clipPath id="clip16">
<rect width="161.211" height="269.934" fill="white" transform="translate(2481.08 1084.47) rotate(14.295)"/>
</clipPath>
<clipPath id="clip17">
<rect width="109.403" height="183.187" fill="white" transform="translate(2649.81 1182.75) rotate(14.295)"/>
</clipPath>
<clipPath id="clip18">
<rect width="75.5906" height="160.712" fill="white" transform="matrix(-0.312333 -0.949973 0.945774 -0.324826 1326.51 1403.43)"/>
</clipPath>
</defs>
</svg>
