<svg xmlns="http://www.w3.org/2000/svg" xmlns:xlink="http://www.w3.org/1999/xlink" width="3785" height="1495" fill="none" xmlns:v="https://vecta.io/nano"><style><![CDATA[.B{fill:#001e20}.C{fill:#007550}.D{fill:#fff}.E{fill:#ffc856}.F{fill:#ff513f}.G{fill-opacity:.1}]]></style><ellipse cx="1733" cy="1235.5" rx="128.5" ry="124.5" fill="url(#A)"/><g class="B"><path d="M1605.76 1168.8l23.2-7.53-1.94 7.46-21.25.07z"/><path d="M1628.9 1161.18l10.22 9.75-2 7.65-10.14-10.05 1.9-7.35zm32.16 22.92l-12.44-17.47-1.94 7.46 14.38 10z"/><path d="M1648.68 1166.66l-9.62 4.22-2 7.66 9.7-4.53 1.92-7.35zm2.47-11.03l9.27-7.73-1.42 5.5-7.85 2.24z"/><path d="M1660.4 1147.86l4.28 5.9-1.36 5.24-4.23-6.12 1.3-5.02zm16.48 14.5l-6.73-11.8-1.37 5.3 8.1 6.5z"/><path d="M1670.2 1150.57l-6.12 3.2-1.4 5.44 6.17-3.4 1.36-5.22zm2.92 25.9l11.86-1.1-.6 2.35-11.25-1.26z"/><path d="M1684.96 1175.33l6.1 4.4-.78 3-6.07-4.5.74-2.87zm16.47 8.97l-5.7-6-.6 2.35 6.3 3.65z"/><path d="M1695.76 1178.32l-4.7 1.38-.78 3 4.75-1.5.74-2.87zm-85.34 11.28l6.7-2.17-.56 2.16h-6.14z"/><path d="M1617.1 1187.4l2.96 2.82-.58 2.2-2.93-2.9.55-2.12zm8.16 6.3l-2.74-4.82-.56 2.16 3.3 2.66z"/><path d="M1622.53 1188.9l-2.5 1.3-.58 2.2 2.52-1.4.55-2.13z"/></g><g clip-path="url(#F)"><path d="M1363.1 1337.9l4-26.94-34.1-17.92 22.84 49.6 7.25-4.74z" class="B"/><path d="M1336.53 1330.72l-3.5-37.68 22.84 49.6-19.33-11.92z" class="C"/><g class="E"><path d="M1362.74 1248.74l9.12 9.6-29.44-2.96 4.9-7.8 15.4 1.16zm9.9 20.08l-29.37-.95-3.82-8.75 30 1.72 3.2 7.98z"/><path d="M1372.64 1268.82l-1.53 31.58-4.12-10.5 2.8-2.57-4.18-5.25 4.5-3.5-4.82-10.02 7.35.24zm-11.54-.38l1.2 7.96-4.1 5.75-3.65 7.03-6.1 12.1-5.17-33.4 17.83.57z"/></g><path d="M1370.1 1278.6l-8.47-1.3-3.44 4.86 7.4-.06 4.5-3.5z" class="B"/><g class="D"><path d="M1361.56 1260.4l8.55 18.2-8.47-1.3-1.85-17 1.77.12zm8.22 26.94l-13.88-.73 2.3-4.46 7.4-.06 4.18 5.25z"/></g><path d="M1367 1289.9l-12.44-.73 1.35-2.57 13.88.73-2.8 2.57z" class="B"/><path d="M1371.1 1300.4l-1.75 10.2-13.9 2.23-7.03-11.57 6.1-12.1 12.44.72 4.12 10.5z" class="C"/><path d="M1371.86 1258.35l-2.4 2.5-30-1.72 2.97-3.73 18.65-1.6 10.8 4.57z" class="B"/><path d="M1347.3 1247.87l-9.4 4.8-4.88 40.36 15.42 8.23-5.17-33.4-3.82-8.75 2.97-3.73 4.9-7.52z" class="C"/><g class="B"><path d="M1338.72 1256.1l-3.8 2.32-.1 9.35 3.2.5.68-12.16z"/><path d="M1331.67 1283.56l3.16-15.8 3.2.5-1 15.43-5.36-.13z"/></g><path d="M1359.78 1260.28l-1.58 21.87 3.44-4.86-1.86-17z" class="C"/></g><g clip-path="url(#G)"><path d="M1468.36 1336.4l21.93-20.72 37.9 19.62-59.54 10.7-.3-9.6z" class="B"/><path d="M1491.73 1356l36.46-20.7-59.54 10.7 23.08 10z" class="C"/><g class="E"><path d="M1549.6 1280.23l-14.5-2.2 21.35 24.87 3.98-9.4-10.83-13.26zm-24.52 3.73l19.47 26.08 10.38-2.08-20.58-26.15-9.27 2.15z"/><path d="M1525.08 1283.96l-27.72 21.4 12.14-2.9.56-4.16 7.42.47.3-6.3 12.16-1.97-4.87-6.53zm7.66 10.24l-8 3.96-2.63 7.36-4.07 7.78-7.1 13.2 33.6-16.48-11.8-15.83z"/></g><path d="M1517.8 1292.46l6.56 6.86-2.23 6.2-4.64-6.75.3-6.3z" class="B"/><g class="D"><path d="M1539.75 1288.7l-21.96 3.77 6.56 6.86 16.63-9.1-1.23-1.54zm-29.7 9.6l9.47 12.15 2.6-4.92-4.64-6.76-7.42-.47z"/></g><path d="M1509.5 1302.46l8.55 10.85 1.48-2.86-9.47-12.15-.56 4.16z" class="B"/><path d="M1497.36 1305.37l-8.17 8.07 6.78 14.03 14.97-.95 7.1-13.2-8.55-10.85-12.14 2.9z" class="C"/><path d="M1535.1 1278.03l-.74 3.78 20.58 26.15 1.5-5.06-10.37-17.96-10.98-6.9z" class="B"/><path d="M1560.17 1293.7l1.6 11.6-33.57 30.02-17.25-8.8 33.6-16.48 10.38-2.08 1.5-5.06 3.73-9.2z" class="C"/><g class="B"><path d="M1558.13 1306.72l.3 4.9-8.44 6.02-2.48-2.6 10.6-8.32z"/><path d="M1537.66 1330.52l12.34-12.87-2.48-2.6-13.4 10.7 3.53 4.78z"/></g><path d="M1540.98 1290.23l-18.86 15.3 2.23-6.2 16.63-9.1z" class="C"/></g><g clip-path="url(#H)"><path d="M1373.67 1359.4l4.2-21.6 30.8-4.46-30.75 31.6-4.24-5.56z" class="B"/><path d="M1395.84 1361.1l12.82-27.75-30.75 31.6 17.93-3.86z" class="C"/><g class="E"><path d="M1397.95 1291.63l-9.53 4.85 23.22 5.67-1.64-7.26-12.05-3.26zm-12.95 12.6l22.62 7.2 5.26-5.64-23.3-6.76-4.58 5.2z"/><path d="M1385 1304.24l-7.33 24.46 5.96-6.88-1.44-2.7 4.6-2.88-2.5-3.87 6.37-6.33-5.66-1.8zm8.9 2.82l-3.05 5.75 1.57 5.47.9 6.34 1.4 10.85 12.93-24.04-13.73-4.37z"/></g><path d="M1384.3 1312.37l6.8 1.28 1.32 4.63-5.62-2.04-2.5-3.87z" class="B"/><g class="D"><path d="M1395.7 1300.82l-11.4 11.55 6.8 1.28 6-12.45-1.4-.38zm-13.5 18.3l10.77 3.17-.55-4-5.62-2.04-4.6 2.88z"/></g><path d="M1383.64 1321.82l9.67 2.8-.34-2.33-10.77-3.17 1.44 2.7z" class="B"/><path d="M1377.68 1328.7l-1.42 8.25 9.98 5.43 8.46-6.9-1.4-10.85-9.67-2.8-5.96 6.88z" class="C"/><path d="M1388.42 1296.48l1.17 2.55 23.3 6.76-1.25-3.64-13.77-6.24-9.45.57z" class="B"/><path d="M1409.94 1295.12l5.87 6.2-7.15 32.04-13.96 2.12 12.93-24.04 5.26-5.64-1.25-3.64-1.7-7.03z" class="C"/><g class="B"><path d="M1414.26 1303.7l2.27 2.8-2.45 7.14-2.57-.5 2.75-9.44z"/><path d="M1412.24 1326.5l1.84-12.87-2.58-.5-3.38 12.03 4.12 1.33z"/></g><path d="M1397.1 1301.2l-4.68 17.08-1.32-4.62 6-12.46z" class="C"/></g><g clip-path="url(#I)"><path d="M1282.68 1361.16l-5.1-21.4 26.2-16.78-14.95 41.5-6.16-3.3z" class="B"/><path d="M1303.58 1353.55l.2-30.57-14.95 41.5 14.74-10.92z" class="C"/><g class="E"><path d="M1276.8 1289.4l-6.67 8.36 23.48-4.42-4.5-5.94-12.32 2zm-6.56 16.83l23.56-2.8 2.47-7.3-24 3.47-2.02 6.63z"/><path d="M1270.24 1306.23l3.4 25.3 2.6-8.73-2.42-1.87 3-4.5-3.87-2.5 3.18-8.4-5.9.7zm9.26-1.1l-.4 6.5 3.7 4.34 3.42 5.4 5.75 9.3 1.85-27.23-14.3 1.7z"/></g><path d="M1272.95 1313.93l6.72-1.64 3.1 3.67-5.96.47-3.87-2.5z" class="B"/><g class="D"><path d="M1278.57 1298.7l-5.62 15.23 6.72-1.64.32-13.8-1.42.22zm-4.75 22.24l11.12-1.55-2.16-3.43-5.96.47-3 4.5z"/></g><path d="M1276.24 1322.8l9.96-1.44-1.26-1.98-11.12 1.55 2.42 1.87z" class="B"/><path d="M1273.65 1331.54l2.12 8.1 11.33.83 4.85-9.8-5.75-9.3-9.96 1.44-2.6 8.73z" class="C"/><path d="M1270.14 1297.76l2.12 1.84 12-1.73 12-1.74-2.65-2.8h-15.1l-8.37 4.42z" class="B"/><path d="M1289.17 1287.63l7.9 3.22 6.72 32.13-11.84 7.7 1.85-27.23 2.47-7.3-2.65-2.8-4.45-5.7z" class="C"/><g class="B"><path d="M1296.65 1293.66l3.2 1.6.73 7.5-2.55.63-1.4-9.74z"/><path d="M1304.22 1315.26l-3.63-12.5-2.55.63 1.88 12.34 4.3-.48z"/></g><path d="M1280 1298.48l2.8 17.48-3.1-3.67.32-13.8z" class="C"/></g><path d="M1727.12 1341.45l.92-21.98-28.92-11.47 22.58 37.88 5.42-4.43z" class="B"/><path d="M1705.16 1337.96l-6.04-29.96 22.58 37.88-16.54-7.92z" class="C"/><g class="E"><path d="M1719.2 1269.9l8.15 6.93-23.9.14 3.28-6.7 12.47-.38zm9.67 15.26l-23.67 1.76-3.8-6.7 24.23-1.18 3.25 6.13z"/><path d="M1728.87 1285.16l1.47 25.5-4.2-8.07 2.02-2.3-3.8-3.86 3.32-3.2-4.73-7.63 5.93-.44zm-9.3.7l1.64 6.3-2.8 4.96-2.33 5.96-3.87 10.23-7-26.37 14.36-1.07z"/></g><path d="M1727.67 1293.23l-6.9-.32-2.35 4.2 5.94-.68 3.32-3.2z" class="B"/><path d="M1719.25 1279.35l8.42 13.88-6.9-.32-2.95-13.5 1.44-.06zm8.9 20.93l-11.2.6 1.47-3.78 5.94-.68 3.8 3.86z" class="D"/><path d="M1726.13 1302.58l-10.05.48.86-2.18 11.2-.6-2.02 2.3z" class="B"/><path d="M1730.34 1310.65l-.54 8.36-10.96 2.97-6.63-8.7 3.87-10.23 10.05-.48 4.2 8.07z" class="C"/><path d="M1727.35 1276.82l-1.73 2.2-24.23 1.18 2.06-3.25 14.84-2.88 9.06 2.74z" class="B"/><path d="M1706.73 1270.5l-7.14 4.66-.47 32.83 13.1 5.3-7-26.37-3.8-6.7 2.06-3.25 3.28-6.45z" class="C"/><g class="B"><path d="M1700.54 1277.85l-2.85 2.2.72 7.5 2.62.13-.5-9.83z"/><path d="M1697.23 1300.5l1.18-12.95 2.63.13.5 12.47-4.32.35z"/></g><path d="M1717.8 1279.4l.6 17.7 2.35-4.2-2.95-13.5z" class="C"/><g clip-path="url(#J)"><path d="M1343.9 1223.52l5.08 4.8-6.2 3.5-5.5-7.63 6.62-.7z" class="E"/><path d="M1334.1 1229.6l3.2-5.4 5.5 7.63-8.68-2.23z" class="C"/><path d="M1348.98 1228.33l-.84 18.13-6.17 1.1 3.93-17.48 3.08-1.74z" class="B"/><path d="M1328.1 1245.4l9.3 2.97 4.57-.8 3.93-17.48-3.13 1.77-1.04 6.67-13.62 6.88z" class="C"/><path d="M1346.42 1225.9l4.3 1.35-2.43.43-1.87-1.78z" class="E"/><path d="M1348.98 1228.33l1.74-1.08-2.43.43.7.65z" fill="#2d2c28"/><path d="M1342.77 1231.84l-8.68-2.23-13.14 19.43 20.8-10.44 1.03-6.76z" class="E"/><g class="B"><path d="M1321.78 1253.72l-7.48 1.32 6.65-6 7.17-3.6-6.34 8.28zm26.36-7.26l5.16 2.47-3.18.56-5.34-2.44 3.36-.6zm-7.34 1.3l5.15 2.48-3.17.56-5.35-2.44 3.37-.6zm2-22.7l-.736 1.343 1.343.736.736-1.343z"/></g></g><path d="M2321.64 1213H3277l507.5 282H0l2321.64-282z" fill="url(#B)"/><g clip-path="url(#K)" class="B G"><path d="M2221.32 1365.16l-47.2 21.87 76.42-1.82 19.1-28.8 5.8 2.65-.01 1.73 6.24 1.42-6.77 16.54 7.2-1.1-8 38.1 52.68-28-20.38-35.43 10.7.98 4.64 6.53 2.86-2.4 25.68 28.75 5.42-31.74-38.32-20.43 7.17-1.96-18.45-4.74 31.52-.24-9.6-5.05 52.26-14.7-6.4-44.68-35.43 30.2-3.8-4.2-13.1 14.68-5.83-2-3.73 2.4-2.8-.54 22.95-26.77-45.06-39.44 2.8 36.72-6.45-2.9.12.52-32.48-16.33-16.04-8.08 20.4 29.14-5.8-1.4 11.33 12.93-4.14.55 4.6 9.1-3.25-.95-.27 8.2-1.44-.3c-4.56-.77-8.72-.08-10.96 1.58l-23.95-6.6-6.14-.25 2.86-5.8-47.6-9.96-6.22.16.8-4.3-48.3-6.3-4.52.5.68-3.7-48.28-6.3-4.53.52.68-3.7-48.28-6.3-8.8.98-1.82 9.9 50.17 11.86 3.94-1.9 48.18 11.45 3.95-1.9 48.17 11.45 3.56-1.72 44.65 14.4 1.22-.4 23.94 9.53c-.2.35-.36.73-.43 1.12-.6 3.25 4.07 6.77 10.42 7.84 1.83.3 3.57.38 5.18.25l-15.1 8.04 3.2 1.08-14.1 3.4 1.83 2.47-22.92 2.37 5.28 2.1-48.57 8 59.95 9.48-.7.26 7.42 1.44zm76.7-26.28l.43-.47 4 3.6-4.43-3.14zm11.26 8l3-.28 3.5 4.9-6.5-4.6zm-21.63-59.28l-3.7-.22.84-11.05 2.85 11.27zm-52.98 65.84l2.53 1.75-15.7 5.7 13.17-7.44z"/><g clip-path="url(#L)"><path d="M2004.82 1267.66l73.52 25.3-71.3-26.63-3.83-.88 1.62 2.2zm4.73 1.64l11.33 14.52 13.17 6.63-20.04-19.6-4.46-1.54z"/><path d="M2036.72 1291.36l13.08 4.2-23.98-20.66-5.68-1.95 16.58 18.42zm18.62 5.67l-25-20.58 8.1 2.8 28.88 20.18-12-2.4zm14.64 2.05l12.1 2.05-26-15.82-8.84-3.04 22.72 16.8zm-5.73-10.96l21.8 12.5 6.76.54-20.93-10.4-7.64-2.62z"/><path d="M2071.85 1290.75l21.64 8.4-.56-2.96-21.08-5.44zm20.35 3.8l-21-4.34-9.36-3.43c.46.17 24.44 3.73 25 3.9.6.18 5.37 3.86 5.37 3.86zm-37.26-10.34l28.6 3.46-10.25-5.86-27.53-1.03 9.2 3.43zm-17.24-6.44l31.9 1.56-9.47-5.23-29.47 1.05 7.04 2.62zm-11.36-4.24l28.97-1.6-12.4-4.68-22.7 4 6.14 2.28zm-12.47-4.64l25.34-3.3-13.02-2.73-16.7 4.4 4.4 1.64z"/></g><g clip-path="url(#M)"><path d="M1997.43 1266.35l28.2 39.96-26.38-39.75-1.68-1.87-.15 1.66zm1.8 2.58l-.66 11.24 4.06 8.16-1.7-16.98-1.7-2.42z"/><path d="M2003.66 1289.8l5.17 6.95-3.34-18.97-2.18-3.1.35 15.1zm7.5 9.75l-3.94-19.32 3.12 4.4 6.24 20.6-5.42-5.7zm7.04 6.53l5.64 5.56-6.73-17.4-3.4-4.8 4.48 16.66zm2.03-7.42l6.02 14.24 3.43 2.82-6.52-12.9-2.93-4.15z"/><path d="M2023.14 1302.8l7.85 12.23 1.1-1.64-8.94-10.6zm9.3 9.52l-9.43-10.03-3.5-5.2c.17.26 11.58 11.04 11.8 11.34.24.3 1.1 3.88 1.1 3.88zm-15.47-19.05l14 12.48-2.84-6.7-14.55-10.92 3.4 5.13zm-6.38-9.62l16.68 12.83-2.7-6.1-16.6-10.66 2.6 3.92zm-4.2-6.33l16.58 10.2-4.56-6.94-14.3-6.68 2.28 3.42zm-4.6-6.95l15.4 8-5.82-6.24-11.2-4.2 1.62 2.44z"/></g></g><g clip-path="url(#N)"><g class="F"><path d="M1828.55 1247.86l-17.2 1.06-12.25 20.78 15.66-15.86 12.57.65 1.2-6.63zm.9 7.8l-12.18 5.04-5.9 23.17 10.6-19.4 16-5.85-8.54-2.96zm50-15.47l13.8-9.96 23.4 8.06-22.68-2.16-9.14 8.36-5.37-4.3zm2 7.24l13.22-.97 16.35 18.02-18.68-12.55-17.1 1.92 6.22-6.42zm-58.36-9.9l12.93-2.4-.1 3.45-15.4 2.75 2.57-3.8z"/><path d="M1823.1 1237.54l-2.58-11.68-2.93.55 2.95 14.93 2.56-3.8zm65.7-8.67l-9.4-12.02-2.3 1.77 7.27 9.52 4.45.73z"/><path d="M1888.8 1228.87l-11.77 9.28-2.68-2.23 9.92-7.8 4.53.74zm-71.52 31.83l4.7 3.77 16-5.85-8.54-2.96-12.18 5.04zm57.96-6.84l6.22-6.42 13.22-.97-2.33 5.47-17.1 1.92zm4.22-13.66l5.37 4.3 9.15-8.36-.73-5.9-13.8 9.96zm-50.9 7.66l-1.2 6.63-12.57-.65-3.4-4.92 17.2-1.06z"/><path d="M1867.44 1230.32l-32.62 2.3-15.22 16.42 17.57 14.1 32.62-2.3 15.14-16.42-17.5-14.1zm-49.64-2.9l-20.32-8.38 7.3-25 11.04 23.7-2.2-17.74 14.1 13.58-7 13.27-2.93.55zm61.42-9.3l5.1-15.35-18.5-8.4 8.63 17.9-9.48-10.08 1.14 14.5 11.35 2.78 1.75-1.34z"/></g><g class="B"><path d="M1839.46 1192.3l-1 3.93 35.22 8.52 1-3.93-35.22-8.52z"/><path d="M1847.44 1184.25l-2.88 11.3 24.02 5.86 2.88-11.3-24.02-5.86z"/></g><path d="M1819.6 1249.05l65.23-4.55-15.04 16.35-32.62 2.3-17.57-14.1z" fill="#aa3528"/><g class="B"><path d="M1858.93 1235.32l2.82-13.46-3-6.64-3.02 6.25 3.2 13.85zm-15.2 1.32l2.26-13.96-3.2-5.98-2.88 6.83 3.83 13.1z"/></g></g><g clip-path="url(#O)"><path d="M1992.62 1221l2.84 37.4 3.8 6.5v-39.52l-6.64-4.38z" class="E"/><path d="M1999.26 1264.9h15.7l5.26-39.52h-20.96v39.52z" class="F"/><path d="M1992.62 1221l6.64 4.38h20.96l-6.43-4.38h-21.17z" class="B"/><path d="M1993.7 1180.24l2.84 37.4 3.84 6.5v-39.48l-6.68-4.42z" class="E"/><path d="M2000.37 1224.14h15.7l5.22-39.48h-20.92v39.48z" class="F"/><path d="M1993.7 1180.24l6.68 4.42h20.92l-6.43-4.42h-21.17z" class="B"/><path d="M1994.77 1139.5l2.87 37.4 3.8 6.5v-39.5l-6.67-4.4z" class="E"/><path d="M2001.44 1183.4h15.7l5.22-39.5h-20.92v39.5z" class="F"/><path d="M1994.77 1139.5l6.67 4.4h20.92l-6.4-4.4h-21.2z" class="B"/><path d="M2002.65 1097.43l-2.9 37.4 2.76 6.97 6.05-39.05-5.9-5.3z" class="E"/><path d="M2002.5 1141.8l15.53 2.22 11.24-38.32-20.72-2.95-6.05 39.05z" class="F"/><path d="M2002.65 1097.43l5.9 5.3 20.72 2.95-5.68-5.28-20.95-2.98z" class="B"/><path d="M2018.63 1057.34l-7.54 36.8 1.87 7.24 10.9-38.1-5.22-5.95z" class="E"/><path d="M2012.96 1101.38l15.14 3.98 15.94-36.76-20.2-5.3-10.9 38.1z" class="F"/><path d="M2018.63 1057.34l5.22 5.95 20.2 5.3-4.98-5.88-20.43-5.38z" fill="#ffb300"/><path d="M2034.64 1064.88l25.83-9.4-2.63 5.14 25.62 3.62-5.3 4.75 33.44 20.1 1.07 48.15-24.97-35.66-1.8 4.3-9.62-17-3.35 1.73-8.9-10.2-.8 2.56-28.63-18.1z" class="C"/><g class="B"><path d="M2034.64 1064.88l31.08 10.36-2.45 7.74-28.63-18.1zm78.04 72.36l-24.97-35.66 3.5-7.97 21.12 28.26.35 15.37z"/><path d="M2065.72 1075.24l25.5 18.37-5.3 12.28-9.62-17-3.35 1.73-8.9-10.2 1.66-5.18z"/></g><path d="M2032.25 1062.76l26.94-21.92-.87 7.3 32.47-6.15-4.3 7.87 49.24 10.46 22.7 57.55-45.9-32.67-.3 5.9-19.12-16.54-3.25 3.45-15.22-8.63.14 3.4-42.53-10.03z" class="C"/><g class="B"><path d="M2032.25 1062.76l42.05-.27.48 10.3-42.53-10.03zm126.18 55.12l-45.9-32.67.6-11.06 38.04 25.33 7.26 18.4z"/><path d="M2074.3 1062.5l38.83 11.66-.9 16.97-19.12-16.54-3.25 3.45-15.22-8.63-.34-6.9z"/></g><path d="M2030.7 1064.38l-17.04-20.12-.45 5.68-23.6-8.67 2.04 6.58-38.7 2-25.66 41.38 39.5-19.46-.65 4.58 16.9-10.36 1.9 3.05 12.8-4.74-.62 2.6 33.57-2.5z" class="C"/><g class="B"><path d="M2030.7 1064.38l-31.67-5.37-1.9 7.87 33.57-2.5zm-103.4 26.84l39.5-19.46 1.18-8.57-32.44 14.8-8.23 13.22z"/><path d="M1999.02 1059l-31.05 4.18-1.83 13.15 16.9-10.36 1.9 3.05 12.8-4.74 1.28-5.28z"/></g><path d="M2033.8 1063.65l-11.6-31.5-3 6.7-24.34-20.32-.45 8.83-47.1-13.68-48.82 39.55 55.7-7.2-2.8 5.28 24.72-5.5.97 4.48 17.36-.46-1.87 2.9 41.22 10.95z" class="C"/><g class="B"><path d="M2033.8 1063.65l-35.52-19.7-5.7 8.74 41.22 10.95zm-135.3-10.42l55.7-7.2 5.18-9.9-45.26 4.45-15.63 12.65z"/><path d="M1998.3 1043.96l-38.9-7.83-7.98 15.17 24.72-5.5.97 4.48 17.36-.46 3.83-5.85z"/></g><path d="M2032.25 1066.1l9.02-34.93 3.98 6.77 23.96-24.64 1.46 9.33 49.13-20.32 56.75 36-60.66-.77 3.57 5.28-27.18-2.82-.52 4.88-18.7 1.66 2.32 2.83-43.12 16.73z" class="C"/><g class="B"><path d="M2032.25 1066.1l36.03-25.34 7.1 8.6-43.12 16.73zm144.3-27.78l-60.65-.77-6.64-9.9 49.13-.87 18.16 11.53z"/><path d="M2068.28 1040.77l40.98-13.1 10.2 15.17-27.18-2.82-.52 4.88-18.7 1.66-4.77-5.78z"/></g><path d="M2035.15 1064.92l6.54-35.34-6.5 4.65-11.45-31.7-5.25 7.97-36.2-37.5-66.97 11.025 55.63 22.645-5.5 3.42 25.97 7.9-1.55 4.68 16.35 8.7-3.32 1.7 32.26 31.85z" class="C"/><g class="B"><path d="M2035.15 1064.92l-22.16-36.96-10.1 5.1 32.26 31.85zm-119.85-80.895l55.63 22.645 10.24-6.47-44.47-19.695-21.4 3.52z"/><path d="M2013 1027.96l-31.8-27.76-15.74 9.9 25.97 7.9-1.55 4.68 16.35 8.7 6.78-3.42z"/></g><path d="M2034.7 1058.6l-9.4-24.94 5.36 2.6 4.15-24.54 4.87 5.15 21.4-31.816 50.17-.3-37.52 23.415 4.46 1.82-17.87 9 1.76 3.22-10.75 8.37 2.62.83-19.26 27.2z" class="C"/><g class="B"><path d="M2034.7 1058.6l11.27-29.7 8 2.5-19.26 27.2zm76.56-73.845l-37.52 23.415-8.26-3.42 29.74-19.895 16.04-.1z"/><path d="M2045.98 1028.92l19.5-24.17 12.72 5.24-17.87 9 1.76 3.22-10.75 8.37-5.36-1.66z"/></g><g fill="#000"><path d="M2023.94 1077.13c5.16 0 9.34-4.02 9.34-8.97s-4.18-8.97-9.34-8.97c-5.15 0-9.33 4.02-9.33 8.97s4.18 8.97 9.33 8.97z"/><path d="M2039.22 1082.02c5.16 0 9.34-4 9.34-8.96s-4.18-8.97-9.34-8.97-9.34 4.02-9.34 8.97 4.18 8.96 9.34 8.96z"/><path d="M2035.15 1067.33c5.15 0 9.33-4 9.33-8.96 0-4.96-4.18-8.97-9.33-8.97-5.16 0-9.34 4-9.34 8.97 0 4.95 4.18 8.96 9.34 8.96z"/></g><g clip-path="url(#P)" class="C"><path d="M2017.96 1264.77l37.7-60.33-34.06 60.48-2.5 2.73-1.15-2.88zm2.42-3.9l-7.02-19.33 4.2-12.8 5.1 28.47-2.3 3.65z"/><path d="M2018.94 1226.57l7.1-10.43 2.7 31.4-2.92 4.66-6.87-25.63zm10.46-14.57l1.66 31.83 4.16-6.65 2.43-33.38-8.25 8.2zm11.12-9.2l8.76-7.93-5.03 27.8-4.52 7.26.8-27.14zm7.92 13.2l5.17-22.6 5.62-3.87-6.86 20.2-3.93 6.26z"/><path d="M2052.32 1209.75l9.95-18.66 3.06 3.1-13 15.57zm14.28-13.67l-14.27 14.5-4.56 7.87c.22-.4 18.2-15.63 18.5-16.08.34-.46.32-6.3.32-6.3zm-22.1 28.22l22.4-17.42-2.45 10.6-24.34 14.6 4.4-7.8zm-8.24 14.62l27.75-17.27-2.47 9.64-28.64 13.6 3.36-5.97zm-5.42 9.63l28.87-12.82-5.87 10.57-25.94 7.45 2.94-5.2zm-5.96 10.57l27.56-9.4-8.8 9.03-20.84 4.1 2.1-3.73z"/></g><g clip-path="url(#Q)" class="B"><path d="M2019.2 1265.48l-24.76-39.62 22.36 39.7 1.64 1.8.76-1.88zm-1.58-2.56l4.6-12.7-2.76-8.4-3.35 18.7 1.5 2.4z"/><path d="M2018.56 1240.4l-4.65-6.85-1.77 20.62 1.9 3.06 4.5-16.83zm-6.86-9.58l-1.1 20.9-2.74-4.37-1.6-21.92 5.42 5.4zm-7.3-6.02l-5.76-5.2 3.3 18.26 2.97 4.77-.5-17.82zm-5.2 8.65l-3.4-14.84-3.7-2.54 4.5 13.26 2.58 4.12z"/><path d="M1996.65 1229.35l-6.54-12.26-2 2.03 8.55 10.23zm-9.4-8.98l9.37 9.52 3 5.17c-.15-.25-11.95-10.26-12.16-10.55-.22-.3-.2-4.14-.2-4.14zm14.52 18.53l-14.7-11.44 1.6 6.97 15.98 9.6-2.9-5.12zm5.42 9.6l-18.22-11.34 1.62 6.33 18.8 8.93-2.2-3.92zm3.55 6.33l-18.96-8.42 3.86 6.94 17.03 4.9-1.93-3.4zm3.92 6.94l-18.1-6.2 5.78 5.93 13.7 2.7-1.37-2.44z"/></g><g clip-path="url(#R)" class="C"><path d="M2007.43 1260.54l.88-91.44 3.43 89.48-.96 4.6-3.35-2.64zm.04-5.9l-21.72-18.16-4.17-17.18 25.95 29.8-.06 5.54zm-25.85-38.65l.8-16.15 25.26 34.58-.08 7.07-25.98-25.5zm1.75-22.88l24.36 35.67.1-10.1-20.74-39.84-3.72 14.26z"/><path d="M1989.7 1176.05l4.5-14.24 13.82 34.96-.1 11-18.23-31.7zm18.43 10.57l-9.98-29.03 3.75-7.73 6.34 27.26-.1 9.5z"/><path d="M2008.2 1177.17l-1.7-27.28 5.7 1.76-4 25.52zm6.8-24.07l-6.2 25.02.3 11.7c-.01-.57 9.94-28.6 9.98-29.3.07-.73-4.08-7.44-4.08-7.44zm-5.55 45.37l13.5-33.1 4.66 13.64-17.73 31-.43-11.54zm.83 21.65l19.78-36.07 3.95 12.54-23.4 32.36-.33-8.83zm.54 14.24l24.2-31.6.7 15.6-24.62 23.7-.3-7.7zm.58 15.64l25.1-26.9-3.77 15.53-21.1 16.88-.22-5.5z"/></g></g><path d="M2842.5 1495l-636-144.5L2395 1333l-24-21 487 38.5 230.5 144.5h-246z" fill="#d1a94d"/><g clip-path="url(#S)"><path d="M1476.03 1299.58l-1.58 21.65-2.12 3.77v-22.88l3.7-2.54z" class="E"/><path d="M1472.33 1325h-8.75l-2.93-22.88h11.68V1325z" class="F"/><path d="M1476.03 1299.58l-3.7 2.54h-11.68l3.58-2.54h11.8z" class="B"/><path d="M1475.43 1276l-1.58 21.65-2.14 3.77v-22.86l3.72-2.56z" class="E"/><path d="M1471.7 1301.4h-8.75l-2.9-22.86h11.66v22.86z" class="F"/><path d="M1475.43 1276l-3.72 2.56h-11.66l3.6-2.56h11.8z" class="B"/><path d="M1474.83 1252.4l-1.6 21.65-2.13 3.77v-22.86l3.72-2.56z" class="E"/><path d="M1471.1 1277.82h-8.75l-2.9-22.86h11.66v22.86z" class="F"/><path d="M1474.83 1252.4l-3.72 2.56h-11.66l3.57-2.56h11.8z" class="B"/><path d="M1470.44 1228.04l1.62 21.65-1.54 4.04-3.38-22.6 3.3-3.08z" class="E"/><path d="M1470.52 1253.73l-8.66 1.3-6.26-22.2 11.54-1.7 3.38 22.6z" class="F"/><path d="M1470.44 1228.04l-3.3 3.08-11.54 1.7 3.16-3.06 11.68-1.73z" class="B"/><path d="M1461.53 1204.84l4.2 21.3-1.04 4.2-6.08-22.05 2.9-3.44z" class="E"/><path d="M1464.7 1230.33l-8.45 2.3-8.88-21.3 11.25-3.07 6.08 22.05z" class="F"/><path d="M1461.53 1204.84l-2.9 3.44-11.25 3.07 2.77-3.4 11.4-3.1z" fill="#ffb300"/><path d="M1452.6 1209.2l-14.4-5.44 1.47 2.98-14.3 2.1 2.95 2.75-18.64 11.64-.6 27.87 13.92-20.65 1 2.5 5.36-9.84 1.87 1 4.96-5.9.44 1.48 15.96-10.48z" class="C"/><g class="B"><path d="M1452.6 1209.2l-17.33 6 1.37 4.48 15.96-10.48zm-43.5 41.9l13.92-20.65-1.95-4.6-11.77 16.36-.2 8.9z"/><path d="M1435.28 1215.2l-14.2 10.63 2.95 7.1 5.36-9.84 1.87 1 4.96-5.9-.93-3z"/></g><path d="M1453.94 1207.97l-15.02-12.7.5 4.23-18.1-3.56 2.4 4.56-27.45 6.06-12.65 33.3 25.58-18.9.17 3.42 10.66-9.58 1.82 2 8.48-5-.08 1.97 23.7-5.8z" class="C"/><g class="B"><path d="M1453.94 1207.97l-23.44-.15-.27 5.96 23.7-5.8zm-70.34 31.9l25.58-18.9-.33-6.4-21.2 14.67-4.05 10.65z"/><path d="M1430.5 1207.82l-21.65 6.74.5 9.83 10.66-9.58 1.82 2 8.48-5 .2-4z"/></g><path d="M1454.8 1208.9l9.5-11.65.25 3.3 13.15-5.02-1.14 3.8 21.57 1.15 14.3 23.96-22-11.27.37 2.65-9.43-6-1.06 1.77-7.13-2.75.34 1.5-18.7-1.44z" class="C"/><g class="B"><path d="M1454.8 1208.9l17.65-3.1 1.06 4.55-18.7-1.44zm57.64 15.55l-22-11.27-.66-4.96 18.1 8.57 4.58 7.66z"/><path d="M1472.46 1205.8l17.3 2.42 1.03 7.6-9.43-6-1.06 1.77-7.13-2.75-.72-3.05z"/></g><path d="M1453.07 1208.5l6.46-18.25 1.68 3.9 13.57-11.77.25 5.1 26.25-7.92 27.22 22.9-31.05-4.17 1.56 3.06-13.8-3.2-.53 2.6-9.68-.27 1.04 1.67-22.98 6.35z" class="C"/><g class="B"><path d="M1453.07 1208.5l19.8-11.4 3.18 5.05-22.98 6.35zm75.43-6.05l-31.05-4.17-2.9-5.73 25.24 2.58 8.7 7.32z"/><path d="M1472.87 1197.1l21.7-4.54 4.45 8.8-13.78-3.2-.54 2.6-9.68-.27-2.14-3.38z"/></g><path d="M1453.94 1209.9l-5.03-20.23-2.22 3.93-13.36-14.27-.8 5.4-27.4-11.76-31.63 20.84 33.8-.44-2 3.05 15.16-1.63.3 2.83 10.42.96-1.3 1.63 24.04 9.7z" class="C"/><g class="B"><path d="M1453.94 1209.9l-20.1-14.67-3.95 4.98 24.04 9.7zm-80.44-16.08l33.8-.44 3.7-5.73-27.4-.5-10.12 6.67z"/><path d="M1433.85 1195.24l-22.84-7.6-5.68 8.78 15.15-1.63.3 2.83 10.42.96 2.66-3.35z"/></g><path d="M1452.32 1209.22l-3.64-20.46 3.62 2.7 6.38-18.36 2.93 4.62 20.18-21.7 37.34 6.38-31 13.12 3.06 1.98-14.48 4.57.87 2.7-9.12 5.04 1.86.98-18 18.44z" class="C"/><g class="B"><path d="M1452.32 1209.22l12.36-21.4 5.63 2.96-18 18.44zm66.8-46.84l-31 13.12-5.7-3.75 24.8-11.4 11.93 2.03z"/><path d="M1464.68 1187.82l17.73-16.07 8.77 5.73-14.48 4.57.87 2.7-9.12 5.04-3.77-1.98z"/></g><path d="M1452.57 1205.57l5.24-14.44-2.98 1.5-2.32-14.2-2.7 2.98-11.94-18.42-27.97-.17 20.92 13.55-2.5 1.06 9.97 5.2-1 1.86 6 4.85-1.47.48 10.74 15.75z" class="C"/><g class="B"><path d="M1452.57 1205.57l-6.28-17.2-4.46 1.44 10.74 15.75zm-42.67-42.77l20.92 13.55 4.6-1.98-16.58-11.52-8.95-.05z"/><path d="M1446.3 1188.38l-10.87-14-7.1 3.04 9.97 5.2-1 1.86 6 4.85 3-.96z"/></g><g fill="#000"><path d="M1461.32 1215.64c-2.87 0-5.2-2.32-5.2-5.2s2.33-5.2 5.2-5.2a5.19 5.19 0 0 1 5.2 5.2c0 2.88-2.33 5.2-5.2 5.2zm-10.92 5.54c-2.87 0-5.2-2.33-5.2-5.2s2.33-5.2 5.2-5.2a5.19 5.19 0 0 1 5.2 5.2 5.21 5.21 0 0 1-5.2 5.2z"/><path d="M1453.94 1213.68c-2.87 0-5.2-2.33-5.2-5.2 0-2.87 2.34-5.2 5.2-5.2s5.2 2.32 5.2 5.2c0 2.86-2.33 5.2-5.2 5.2z"/></g></g><g clip-path="url(#T)"><path d="M2161.03 1291.26l53.32-74.87 153.96-12.52-162.2 147.08-45.08-59.7z" class="B"/><path d="M2394.96 1333l-26.65-129.13-162.2 147.08 188.85-17.95z" class="F"/><g class="E"><path d="M2335.55 974.44l-56.03 40.4 113.27 35.35 15.82-45.76-73.06-30zm-75.35 77.82l109.82 42.67 27.86-26.3-113.36-40.75-24.32 24.4z"/><path d="M2260.2 1052.26l-66.38 110.33 54.08-23.66-6.26-13.83 23.7-12.8-11.18-19.97 33.54-29.38-27.5-10.68zm43.18 16.74l-16.9 27.5 6.05 27.6 2.44 31.7 37.8 75.7 37.25-136.58-66.64-25.92z"/></g><path d="M2254.15 1092.32l33.3 8.48 5.07 23.32-27.2-11.83-11.18-19.97z" class="B"/><g class="D"><path d="M2314.3 1038.64l-60.15 53.68 33.3 8.48 33.6-59.83-6.74-2.33zm-72.66 86.46l52.37 19.1-1.5-20.07-27.2-11.83-23.7 12.8z"/></g><path d="M2247.9 1138.93l47.06 16.88-.95-11.62-52.37-19.1 6.26 13.83z" class="B"/><path d="M2193.82 1162.6l12.82 49.02 47.74 30.03 78.4-10.13-37.8-75.7-47.06-16.88-54.08 23.66z" class="F"/><path d="M2279.52 1014.85l5 13.02 113.36 40.75-5.1-18.42-113.27-35.35z" class="B"/><path d="M2408.6 1004.43l16.07 23.3-56.37 176.13-35.54 27.64 37.25-136.58 27.86-26.3-5.1-18.42 15.82-45.77z" class="F"/><g class="B"><path d="M2405.3 1058.65l10.37 14.5-14.33 34.64-12.63-3.22 16.6-45.93z"/><path d="M2388.18 1171l13.16-63.2-12.63-3.22-20.53 58.5 20 7.9z"/></g><path d="M2321.04 1040.97l-28.52 83.15-5.07-23.32 33.6-59.83z" class="F"/><g clip-path="url(#U)"><path d="M2320.6 1304.3l6.65 50.7h22.1l6.66-50.7h-35.4z" class="E"/><path d="M2321.5 1311.48l-15.37-6.17-1.62-.94 4.35-8.95 9.62-4.5 11.5 5.85-8.48 14.72z" class="F"/><path d="M2310.04 1296.65l8.3-4.13 10.76 5.5-7.62 13.45-15.33-6.24 3.88-8.6z" class="E"/><path d="M2320.6 1304.3l1.5 11.48h32.4l1.52-11.48h-35.4z" fill="#efecde"/><g class="B"><path d="M2355.16 1294.82l-16.87 58.73 3.08.9 16.64-58.73-2.85-.9z"/><path d="M2355.16 1294.82l4.03-5.14 2.38 1.56-3.56 4.47-2.85-.9z"/><path d="M2359.2 1289.68l12.6-2.68.7 2-10.93 2.23-2.38-1.56z"/></g><path d="M2321.5 1311.48L2310 1296.6l8.32-4.02 3.16 18.9z" class="E"/></g></g><g clip-path="url(#V)"><path d="M2422.28 1315.25l36.27-50.93 104.73-8.52-110.34 100.05-30.66-40.6z" class="B"/><path d="M2581.4 1343.65l-18.12-87.85-110.34 100.05 128.46-12.2z" class="F"/><g class="E"><path d="M2541 1099.73l-38.1 27.5 77.05 24.05 10.76-31.13-49.7-20.4zm-51.26 52.94l74.7 29.02 18.95-17.9-77.1-27.72-16.54 16.6z"/><path d="M2489.74 1152.67l-45.16 75.05 36.8-16.1-4.26-9.4 16.1-8.7-7.6-13.6 22.8-20-18.7-7.26zm29.36 11.4l-11.5 18.7 4.12 18.78 1.66 21.56 25.72 51.5 25.34-92.92-45.33-17.62z"/></g><path d="M2485.62 1179.92l22.65 5.77 3.45 15.86-18.5-8.04-7.6-13.6z" class="B"/><g class="D"><path d="M2526.54 1143.4l-40.92 36.52 22.66 5.77 22.84-40.7-4.58-1.6zm-49.44 58.82l35.62 13-1-13.66-18.5-8.04-16.1 8.7z"/></g><path d="M2481.37 1211.63l32 11.48-.65-7.9-35.62-13 4.26 9.4z" class="B"/><path d="M2444.58 1227.72l8.72 33.35 32.48 20.42 53.32-6.88-25.72-51.5-32-11.48-36.8 16.1z" class="F"/><path d="M2502.88 1127.22l3.4 8.86 77.1 27.72-3.46-12.53-77.05-24.05z" class="B"/><path d="M2590.7 1120.14l10.94 15.85-38.35 119.8-24.18 18.8 25.34-92.92 18.95-17.9-3.46-12.53 10.76-31.13z" class="F"/><g class="B"><path d="M2588.45 1157.02l7.05 9.87-9.75 23.56-8.6-2.2 11.3-31.24z"/><path d="M2576.8 1233.44l8.96-43-8.6-2.2-13.97 39.8 13.6 5.38z"/></g><path d="M2531.12 1145l-19.4 56.56-3.44-15.86 22.84-40.7z" class="F"/></g><g clip-path="url(#W)"><path d="M2609.9 1339.36l24.6-34.56 71.08-5.78-74.88 67.9-20.8-27.56z" class="B"/><path d="M2717.9 1358.64l-12.3-59.62-74.88 67.9 87.18-8.28z" class="F"/><g class="E"><path d="M2690.47 1193.1l-25.86 18.65 52.3 16.32 7.3-21.13-33.73-13.84zm-34.77 35.93l50.7 19.7 12.86-12.14-52.34-18.82-11.22 11.26z"/><path d="M2655.7 1229.03l-30.65 50.93 24.97-10.92-2.9-6.38 10.94-5.9-5.16-9.23 15.48-13.56-12.7-4.93zm19.92 7.74l-7.8 12.7 2.8 12.74 1.12 14.64 17.46 34.94 17.2-63.05-30.77-11.96z"/></g><path d="M2652.9 1247.52l15.37 3.92 2.34 10.76-12.56-5.45-5.15-9.23z" class="B"/><g class="D"><path d="M2680.66 1222.74l-27.76 24.78 15.37 3.92 15.5-27.62-3.1-1.08zm-33.54 39.92l24.17 8.8-.68-9.27-12.56-5.45-10.93 5.9z"/></g><path d="M2650 1269.04l21.72 7.8-.44-5.37-24.17-8.8 2.9 6.38z" class="B"/><path d="M2625.04 1279.96l5.92 22.64 22.04 13.86 36.2-4.68-17.46-34.94-21.72-7.8-24.97 10.92z" class="F"/><path d="M2664.6 1211.76l2.3 6 52.34 18.82-2.35-8.5-52.3-16.32z" class="B"/><path d="M2724.2 1206.95l7.42 10.76-26.02 81.3-16.4 12.76 17.2-63.05 12.86-12.14-2.35-8.5 7.3-21.13z" class="F"/><g class="B"><path d="M2722.68 1231.98l4.78 6.7-6.6 16-5.83-1.48 7.66-21.2z"/><path d="M2714.77 1283.85l6.08-29.18-5.83-1.48-9.48 27 9.23 3.65z"/></g><path d="M2683.78 1223.82l-13.17 38.38-2.34-10.76 15.5-27.62z" class="F"/></g><path opacity=".3" d="M1144.4 126.025l-209.748-11.137s-34.733-26.06-19.097-49.67c23.213-35.052 83.148-2.742 88.615 1.66 5.46 4.402-1.35-78.93 66.84-65.388 71.9 14.28 32.3 97.22 36.73 84.992 6.77-18.692 23.43-22.2 39.43-14.762s25.57 41.95-2.77 54.305z" fill="url(#C)"/><path opacity=".3" d="M1107.34 977.343l137.04-7.277s22.7-17.026 12.48-32.453c-15.17-22.902-54.33-1.792-57.9 1.084s.88-51.572-43.67-42.723c-46.98 9.33-21.1 63.522-24 55.532-4.42-12.213-15.3-14.51-25.77-9.645-10.45 4.866-16.7 27.41 1.82 35.482z" fill="url(#D)"/><path opacity=".6" d="M942.828 829.472h143.092s9.06-12.753-16.22-14.18-8.1-30.362-31-44.258c-22.9-13.896-30.05 24.175-38.64 29.22-8.58 5.044-14.304-32.266-35.768-1.523s-37.11 14.372-40.638 21.225c-6.87 13.42 19.174 9.517 19.174 9.517z" fill="url(#E)"/><g clip-path="url(#X)" class="B G"><path d="M1367.5 1329l-16 2-.92 10.1-2.7.2-.35-.64-2.6.73-.83-7.52-2.45 1.86.35-3.73-14.5 1.87-4.5 7.16 14.76 9.05-4.18 1.8-3.05-1.5-.58 1.47-15.37-5.5 4.4 12.9 18.4-.16-2.27 2.18 7.82-1.97-11.67 6.47 4.6-.07-16.45 16.06 11.43 15.32 7.05-18.4 2.26.8 1.9-8.1 2.58-.43.9-1.66 1.15-.36-3.1 14.6 24.74 5.55-8.48-13.1 3-.23-.15-.17 22.98-.74-13.5-6.7 2.45-.65-6.83-2.52 1.42-1.04-3.55-2.45 1.4-.3-1.56-3.1.6-.18c1.85-.63 3.26-1.73 3.76-2.8l10.24-2.4 2.33-1.15.1 2.73 19.72-5.93 2.28-1.32.58 1.75 19.22-7.42 1.58-1.1.5 1.52 19.23-7.43 1.58-1.1.5 1.52 19.22-7.43 3.07-2.15-1.33-4.05-21.05 5.75-1.08 1.5-20.23 5.5-1.1 1.5-20.22 5.5-.98 1.36-19.5 3.7-.38.4-10.82 1.3c0-.17-.02-.34-.07-.5-.44-1.33-2.9-1.7-5.47-.8a8.79 8.79 0 0 0-1.97.95l3.98-6.04-1.4.24 4.56-4.12-1.18-.55 8.04-5.52-2.4.3 14.12-5.55-24 3zm-23.9 24.4l-.07.26-2.22-.53 2.3.27zm-5.82-.7l-1.05.7-2.3-1.1 3.34.4zm20.06 17.67l1.4-.67 1.93 4.28-3.34-3.6zm6.35-35.22l-1.3-.14 4.68-5.3-3.4 5.44z"/></g><defs><linearGradient id="A" x1="1733" y1="1111" x2="1733" y2="1360" xlink:href="#Y"><stop stop-color="#ffd45d"/><stop offset="1" stop-color="red" stop-opacity="0"/></linearGradient><linearGradient id="B" x1="1882.5" y1="1213" x2="2842.5" y2="1495.01" xlink:href="#Y"><stop stop-color="#ffc856"/><stop offset="1" stop-color="#f5bb41"/></linearGradient><linearGradient id="C" x1="-68598.7" y1="27862.6" x2="-84622.2" y2="28089.2" xlink:href="#Y"><stop stop-color="#e0edff"/><stop offset=".062" stop-color="#e0edff"/><stop offset=".426" stop-color="#fff"/><stop offset="1" stop-color="#f0f6ff"/></linearGradient><linearGradient id="D" x1="46676.5" y1="19100.1" x2="57146" y2="19248.1" xlink:href="#Y"><stop stop-color="#eff3ff"/><stop offset=".167" stop-color="#cfdaff"/><stop offset=".426" stop-color="#a6b9ff"/><stop offset="1" stop-color="#b8c7ff"/></linearGradient><linearGradient id="E" x1="46781.5" y1="14475.4" x2="57313.2" y2="14674.5" xlink:href="#Y"><stop offset=".062" stop-color="#edf2ff"/><stop offset=".426" stop-color="#fff"/><stop offset="1" stop-color="#d6dceb"/></linearGradient><clipPath id="F"><path transform="matrix(-.988295 -.152556 -.152556 .988295 1385.36 1247.05)" d="M0 0h59.104v98.965H0z" class="D"/></clipPath><clipPath id="G"><path transform="matrix(.690616 .723222 -.723222 .690616 1536.79 1258.61)" d="M0 0h65.475v109.633H0z" class="D"/></clipPath><clipPath id="H"><path transform="matrix(.982621 .185622 -.185622 .982621 1381.19 1284.25)" d="M0 0h47.73v79.918H0z" class="D"/></clipPath><clipPath id="I"><path transform="matrix(.971601 -.236624 .236624 .971601 1258.5 1289.6)" d="M0 0h47.73v79.918H0z" class="D"/></clipPath><clipPath id="J"><path transform="matrix(-.984763 .173902 .173902 .984763 1349.79 1222)" d="M0 0h40.694v27.13H0z" class="D"/></clipPath><clipPath id="K"><path transform="matrix(-.180233 .983624 -.98595 -.167038 2389.97 1254.41)" d="M0 0h178.454v379.637H0z" class="D"/></clipPath><clipPath id="L"><path transform="matrix(.990141 -.129638 -.586761 -.812688 2034.48 1308.79)" d="M0 0h62.725v53.312H0z" class="D"/></clipPath><clipPath id="M"><path transform="matrix(.930188 .48345 .096508 -.931927 1994.21 1297.28)" d="M0 0h40.597v34.972H0z" class="D"/></clipPath><clipPath id="N"><path transform="matrix(.994034 .109067 -.117843 .993032 1797.67 1159.85)" d="M0 0h127.403v122.63H0z" class="D"/></clipPath><clipPath id="O"><path transform="translate(1898.5 973)" d="M0 0h278.046v291.887H0z" class="D"/></clipPath><clipPath id="P"><path transform="matrix(.946303 -.32328 .381968 .924176 1995.78 1211.21)" d="M0 0h71.372v61.068H0z" class="D"/></clipPath><clipPath id="Q"><path transform="matrix(-.946303 -.32328 -.381968 .924176 2033.77 1230.3)" d="M0 0h46.87v40.103H0z" class="D"/></clipPath><clipPath id="R"><path transform="matrix(.682236 -.731132 .792049 .610458 1944.11 1211.79)" d="M0 0h90.175v84.177H0z" class="D"/></clipPath><clipPath id="S"><path transform="matrix(-1 0 0 1 1528.5 1156)" d="M0 0h155v169H0z" class="D"/></clipPath><clipPath id="T"><path transform="matrix(.969037 .246914 -.246914 .969037 2247.48 952)" d="M0 0h236.984v396.81H0z" class="D"/></clipPath><clipPath id="U"><path transform="translate(2304.5 1287)" d="M0 0h68v68H0z" class="D"/></clipPath><clipPath id="V"><path transform="matrix(.969037 .246914 -.246914 .969037 2481.08 1084.47)" d="M0 0h161.21v269.934H0z" class="D"/></clipPath><clipPath id="W"><path transform="matrix(.969037 .246914 -.246914 .969037 2649.81 1182.75)" d="M0 0h109.403v183.187H0z" class="D"/></clipPath><clipPath id="X"><path transform="matrix(-.312333 -.949973 .945774 -.324826 1326.51 1403.43)" d="M0 0h75.59v160.712H0z" class="D"/></clipPath><linearGradient id="Y" gradientUnits="userSpaceOnUse"/></defs></svg>