<svg width="88" height="25" viewBox="0 0 88 25" fill="none" xmlns="http://www.w3.org/2000/svg">
<path d="M14.6663 12.5L14.6663 25L29.333 12.5L29.333 -3.8147e-06L14.6663 12.5Z" fill="#FFC856"/>
<path d="M14.667 12.5L14.667 25L0.000325609 12.5L0.000325061 -3.17502e-06L14.667 12.5Z" fill="#001E20"/>
<path d="M44.0003 12.5L44.0003 25L58.667 12.5L58.667 -3.8147e-06L44.0003 12.5Z" fill="#FFC856"/>
<path d="M44 12.5L44 25L29.3333 12.5L29.3333 -3.17502e-06L44 12.5Z" fill="#001E20"/>
<path d="M73.3333 12.5L73.3333 25L88 12.5L88 -3.8147e-06L73.3333 12.5Z" fill="#FFC856"/>
<path d="M73.333 12.5L73.333 25L58.6663 12.5L58.6663 -3.17502e-06L73.333 12.5Z" fill="#001E20"/>
</svg>
