<svg width="1349" height="1782" viewBox="0 0 1349 1782" fill="none" xmlns="http://www.w3.org/2000/svg">
<rect x="865" y="1605" width="484" height="177" fill="#F9BF49"/>
<ellipse cx="666" cy="1612.44" rx="44" ry="42" fill="url(#paint0_linear)"/>
<path d="M622.433 1589.95L630.37 1587.38L629.699 1589.9L622.433 1589.95Z" fill="#001E20"/>
<path d="M630.364 1587.37L633.846 1590.65L633.157 1593.24L629.703 1589.85L630.364 1587.37Z" fill="#001E20"/>
<path d="M641.355 1595.1L637.119 1589.2L636.447 1591.73L641.355 1595.1Z" fill="#001E20"/>
<path d="M637.126 1589.21L633.839 1590.64L633.151 1593.23L636.465 1591.69L637.126 1589.21Z" fill="#001E20"/>
<path d="M637.975 1585.5L641.149 1582.88L640.656 1584.74L637.975 1585.5Z" fill="#001E20"/>
<path d="M641.145 1582.87L642.6 1584.86L642.129 1586.63L640.694 1584.57L641.145 1582.87Z" fill="#001E20"/>
<path d="M646.774 1587.77L644.489 1583.78L644.013 1585.57L646.774 1587.77Z" fill="#001E20"/>
<path d="M644.494 1583.78L642.402 1584.87L641.914 1586.7L644.025 1585.55L644.494 1583.78Z" fill="#001E20"/>
<path d="M645.497 1592.53L649.558 1592.15L649.347 1592.95L645.497 1592.53Z" fill="#001E20"/>
<path d="M649.556 1592.14L651.64 1593.62L651.372 1594.63L649.298 1593.11L649.556 1592.14Z" fill="#001E20"/>
<path d="M655.186 1595.17L653.247 1593.14L653.036 1593.94L655.186 1595.17Z" fill="#001E20"/>
<path d="M653.25 1593.15L651.637 1593.62L651.369 1594.63L652.992 1594.12L653.25 1593.15Z" fill="#001E20"/>
<path d="M624.029 1596.96L626.32 1596.22L626.127 1596.95L624.029 1596.96Z" fill="#001E20"/>
<path d="M626.319 1596.21L627.325 1597.16L627.126 1597.91L626.128 1596.93L626.319 1596.21Z" fill="#001E20"/>
<path d="M629.104 1598.34L628.173 1596.72L627.979 1597.45L629.104 1598.34Z" fill="#001E20"/>
<path d="M628.175 1596.72L627.323 1597.16L627.124 1597.91L627.984 1597.44L628.175 1596.72Z" fill="#001E20"/>
<g clip-path="url(#clip0)">
<path d="M575.428 1630.63L574.959 1636.91L574.33 1638V1631.37L575.428 1630.63Z" fill="#FFC856"/>
<path d="M574.33 1638H571.733L570.863 1631.37H574.33V1638Z" fill="#FF513F"/>
<path d="M575.428 1630.63L574.33 1631.37H570.863L571.927 1630.63H575.428Z" fill="#001E20"/>
<path d="M575.251 1623.79L574.782 1630.07L574.147 1631.16V1624.53L575.251 1623.79Z" fill="#FFC856"/>
<path d="M574.147 1631.16H571.55L570.686 1624.53H574.147V1631.16Z" fill="#FF513F"/>
<path d="M575.251 1623.79L574.147 1624.53H570.686L571.75 1623.79H575.251Z" fill="#001E20"/>
<path d="M575.074 1616.95L574.599 1623.23L573.97 1624.32V1617.69L575.074 1616.95Z" fill="#FFC856"/>
<path d="M573.97 1624.32H571.373L570.509 1617.69H573.97V1624.32Z" fill="#FF513F"/>
<path d="M575.074 1616.95L573.97 1617.69H570.509L571.567 1616.95H575.074Z" fill="#001E20"/>
<path d="M573.769 1609.89L574.25 1616.16L573.792 1617.34L572.791 1610.78L573.769 1609.89Z" fill="#FFC856"/>
<path d="M573.792 1617.34L571.223 1617.71L569.364 1611.28L572.791 1610.78L573.792 1617.34Z" fill="#FF513F"/>
<path d="M573.769 1609.89L572.791 1610.78L569.364 1611.28L570.302 1610.39L573.769 1609.89Z" fill="#001E20"/>
<path d="M571.126 1603.16L572.374 1609.34L572.065 1610.55L570.263 1604.16L571.126 1603.16Z" fill="#FFC856"/>
<path d="M572.064 1610.55L569.559 1611.22L566.922 1605.05L570.262 1604.16L572.064 1610.55Z" fill="#FF513F"/>
<path d="M571.126 1603.16L570.263 1604.16L566.922 1605.05L567.746 1604.06L571.126 1603.16Z" fill="#FFB300"/>
<path d="M568.478 1604.42L564.204 1602.85L564.639 1603.71L560.4 1604.32L561.275 1605.12L555.743 1608.49L555.566 1616.57L559.696 1610.58L559.994 1611.31L561.584 1608.46L562.139 1608.75L563.609 1607.03L563.741 1607.46L568.478 1604.42Z" fill="#007550"/>
<path d="M568.478 1604.42L563.335 1606.16L563.741 1607.46L568.478 1604.42Z" fill="#001E20"/>
<path d="M555.566 1616.57L559.696 1610.58L559.119 1609.25L555.623 1613.99L555.566 1616.57Z" fill="#001E20"/>
<path d="M563.335 1606.16L559.119 1609.25L559.994 1611.31L561.584 1608.45L562.139 1608.74L563.609 1607.03L563.335 1606.16Z" fill="#001E20"/>
<path d="M568.873 1604.07L564.416 1600.39L564.559 1601.62L559.187 1600.58L559.897 1601.9L551.751 1603.66L547.998 1613.32L555.589 1607.84L555.641 1608.83L558.804 1606.05L559.342 1606.63L561.859 1605.18L561.836 1605.75L568.873 1604.07Z" fill="#007550"/>
<path d="M568.873 1604.07L561.916 1604.02L561.836 1605.75L568.873 1604.07Z" fill="#001E20"/>
<path d="M547.998 1613.32L555.589 1607.84L555.492 1605.98L549.199 1610.23L547.998 1613.32Z" fill="#001E20"/>
<path d="M561.916 1604.02L555.492 1605.98L555.64 1608.83L558.804 1606.05L559.342 1606.63L561.859 1605.18L561.916 1604.02Z" fill="#001E20"/>
<path d="M569.13 1604.34L571.95 1600.96L572.025 1601.92L575.926 1600.46L575.589 1601.56L581.99 1601.9L586.235 1608.85L579.702 1605.58L579.811 1606.35L577.013 1604.61L576.698 1605.12L574.582 1604.32L574.685 1604.76L569.13 1604.34Z" fill="#007550"/>
<path d="M569.13 1604.34L574.37 1603.44L574.685 1604.76L569.13 1604.34Z" fill="#001E20"/>
<path d="M586.235 1608.85L579.702 1605.58L579.507 1604.14L584.873 1606.63L586.235 1608.85Z" fill="#001E20"/>
<path d="M574.37 1603.44L579.507 1604.14L579.811 1606.35L577.013 1604.61L576.698 1605.12L574.582 1604.32L574.37 1603.44Z" fill="#001E20"/>
<path d="M568.615 1604.22L570.531 1598.93L571.029 1600.05L575.056 1596.64L575.131 1598.13L582.922 1595.83L591 1602.47L581.784 1601.26L582.247 1602.14L578.157 1601.22L577.997 1601.97L575.125 1601.89L575.434 1602.38L568.615 1604.22Z" fill="#007550"/>
<path d="M568.615 1604.22L574.49 1600.91L575.434 1602.38L568.615 1604.22Z" fill="#001E20"/>
<path d="M591 1602.47L581.784 1601.26L580.926 1599.6L588.414 1600.34L591 1602.47Z" fill="#001E20"/>
<path d="M574.49 1600.91L580.926 1599.6L582.248 1602.14L578.157 1601.22L577.997 1601.97L575.125 1601.89L574.49 1600.91Z" fill="#001E20"/>
<path d="M568.873 1604.63L567.379 1598.77L566.722 1599.9L562.757 1595.77L562.517 1597.33L554.388 1593.92L545 1599.97L555.034 1599.84L554.445 1600.72L558.941 1600.25L559.027 1601.07L562.122 1601.35L561.739 1601.82L568.873 1604.63Z" fill="#007550"/>
<path d="M568.873 1604.63L562.912 1600.38L561.739 1601.82L568.873 1604.63Z" fill="#001E20"/>
<path d="M545 1599.97L555.034 1599.84L556.132 1598.18L548.003 1598.03L545 1599.97Z" fill="#001E20"/>
<path d="M562.912 1600.38L556.133 1598.18L554.445 1600.72L558.941 1600.25L559.027 1601.07L562.122 1601.35L562.912 1600.38Z" fill="#001E20"/>
<path d="M568.392 1604.43L567.311 1598.5L568.386 1599.28L570.28 1593.96L571.149 1595.29L577.139 1589L588.22 1590.85L579.015 1594.65L579.925 1595.23L575.629 1596.55L575.886 1597.34L573.18 1598.8L573.729 1599.08L568.392 1604.43Z" fill="#007550"/>
<path d="M568.392 1604.43L572.059 1598.23L573.729 1599.08L568.392 1604.43Z" fill="#001E20"/>
<path d="M588.22 1590.85L579.015 1594.65L577.322 1593.57L584.679 1590.26L588.22 1590.85Z" fill="#001E20"/>
<path d="M572.059 1598.23L577.322 1593.57L579.925 1595.23L575.629 1596.55L575.886 1597.34L573.18 1598.8L572.059 1598.23Z" fill="#001E20"/>
<path d="M568.466 1603.37L570.022 1599.18L569.136 1599.62L568.449 1595.5L567.643 1596.36L564.102 1591.02L555.801 1590.97L562.008 1594.9L561.27 1595.21L564.227 1596.72L563.936 1597.26L565.715 1598.67L565.28 1598.81L568.466 1603.37Z" fill="#007550"/>
<path d="M568.466 1603.37L566.601 1598.39L565.28 1598.81L568.466 1603.37Z" fill="#001E20"/>
<path d="M555.801 1590.97L562.008 1594.9L563.375 1594.33L558.455 1590.99L555.801 1590.97Z" fill="#001E20"/>
<path d="M566.602 1598.39L563.375 1594.33L561.27 1595.21L564.227 1596.72L563.936 1597.26L565.715 1598.67L566.602 1598.39Z" fill="#001E20"/>
<path d="M571.063 1606.29C570.21 1606.29 569.519 1605.62 569.519 1604.79C569.519 1603.96 570.21 1603.28 571.063 1603.28C571.916 1603.28 572.608 1603.96 572.608 1604.79C572.608 1605.62 571.916 1606.29 571.063 1606.29Z" fill="black"/>
<path d="M567.82 1607.9C566.967 1607.9 566.275 1607.22 566.275 1606.39C566.275 1605.56 566.967 1604.89 567.82 1604.89C568.673 1604.89 569.364 1605.56 569.364 1606.39C569.364 1607.22 568.673 1607.9 567.82 1607.9Z" fill="black"/>
<path d="M568.872 1605.72C568.019 1605.72 567.328 1605.05 567.328 1604.22C567.328 1603.39 568.019 1602.71 568.872 1602.71C569.725 1602.71 570.417 1603.39 570.417 1604.22C570.417 1605.05 569.725 1605.72 568.872 1605.72Z" fill="black"/>
</g>
<g clip-path="url(#clip1)">
<path d="M540.083 1647.45L541.449 1638.27L529.833 1632.17L537.614 1649.06L540.083 1647.45Z" fill="#001E20"/>
<path d="M531.027 1645L529.833 1632.17L537.614 1649.06L531.027 1645Z" fill="#007550"/>
<path d="M539.957 1617.08L543.065 1620.35L533.035 1619.34L534.707 1616.68L539.957 1617.08Z" fill="#FFC856"/>
<path d="M543.329 1623.92L533.325 1623.59L532.024 1620.61L542.241 1621.2L543.329 1623.92Z" fill="#FFC856"/>
<path d="M543.329 1623.92L542.807 1634.67L541.405 1631.1L542.355 1630.23L540.93 1628.44L542.468 1627.25L540.825 1623.83L543.329 1623.92Z" fill="#FFC856"/>
<path d="M539.397 1623.79L539.803 1626.5L538.411 1628.46L537.166 1630.85L535.085 1634.97L533.326 1623.59L539.397 1623.79Z" fill="#FFC856"/>
<path d="M542.468 1627.25L539.583 1626.8L538.411 1628.46L540.93 1628.44L542.468 1627.25Z" fill="#001E20"/>
<path d="M539.555 1621.05L542.468 1627.25L539.583 1626.8L538.95 1621.01L539.555 1621.05Z" fill="white"/>
<path d="M542.355 1630.23L537.627 1629.98L538.411 1628.46L540.93 1628.44L542.355 1630.23Z" fill="white"/>
<path d="M541.405 1631.1L537.166 1630.85L537.627 1629.98L542.355 1630.23L541.405 1631.1Z" fill="#001E20"/>
<path d="M542.808 1634.67L542.211 1638.15L537.48 1638.91L535.085 1634.97L537.166 1630.85L541.405 1631.1L542.808 1634.67Z" fill="#007550"/>
<path d="M543.065 1620.35L542.241 1621.2L537.132 1620.91L532.024 1620.61L533.035 1619.34L539.388 1618.8L543.065 1620.35Z" fill="#001E20"/>
<path d="M534.699 1616.78L531.496 1618.42L529.833 1632.17L535.085 1634.97L533.325 1623.59L532.024 1620.61L533.035 1619.34L534.699 1616.78Z" fill="#007550"/>
<path d="M531.775 1619.58L530.482 1620.37L530.449 1623.56L531.543 1623.73L531.775 1619.58Z" fill="#001E20"/>
<path d="M529.374 1628.94L530.449 1623.56L531.543 1623.73L531.2 1628.98L529.374 1628.94Z" fill="#001E20"/>
<path d="M538.95 1621.01L538.411 1628.46L539.583 1626.8L538.95 1621.01Z" fill="#007550"/>
</g>
<g clip-path="url(#clip2)">
<path d="M575.933 1646.94L583.404 1639.88L596.313 1646.57L576.031 1650.21L575.933 1646.94Z" fill="#001E20"/>
<path d="M583.893 1653.62L596.313 1646.57L576.031 1650.21L583.893 1653.62Z" fill="#007550"/>
<path d="M603.603 1627.8L598.662 1627.05L605.936 1635.53L607.291 1632.32L603.603 1627.8Z" fill="#FFC856"/>
<path d="M595.254 1629.07L601.886 1637.96L605.422 1637.25L598.411 1628.34L595.254 1629.07Z" fill="#FFC856"/>
<path d="M595.254 1629.07L585.811 1636.37L589.947 1635.37L590.138 1633.96L592.667 1634.12L592.772 1631.97L596.914 1631.3L595.254 1629.07Z" fill="#FFC856"/>
<path d="M597.863 1632.57L595.141 1633.92L594.246 1636.42L592.859 1639.07L590.436 1643.57L601.887 1637.96L597.863 1632.57Z" fill="#FFC856"/>
<path d="M592.772 1631.97L595.005 1634.31L594.246 1636.42L592.667 1634.12L592.772 1631.97Z" fill="#001E20"/>
<path d="M600.25 1630.69L592.772 1631.97L595.006 1634.31L600.671 1631.21L600.25 1630.69Z" fill="white"/>
<path d="M590.138 1633.96L593.363 1638.1L594.246 1636.42L592.666 1634.12L590.138 1633.96Z" fill="white"/>
<path d="M589.947 1635.37L592.859 1639.07L593.363 1638.1L590.138 1633.96L589.947 1635.37Z" fill="#001E20"/>
<path d="M585.811 1636.37L583.028 1639.11L585.338 1643.89L590.436 1643.57L592.859 1639.07L589.947 1635.37L585.811 1636.37Z" fill="#007550"/>
<path d="M598.662 1627.05L598.411 1628.34L601.916 1632.8L605.422 1637.25L605.935 1635.53L602.404 1629.41L598.662 1627.05Z" fill="#001E20"/>
<path d="M607.205 1632.39L607.748 1636.34L596.313 1646.57L590.436 1643.57L601.887 1637.96L605.422 1637.25L605.935 1635.53L607.205 1632.39Z" fill="#007550"/>
<path d="M606.513 1636.83L606.616 1638.5L603.743 1640.55L602.896 1639.66L606.513 1636.83Z" fill="#001E20"/>
<path d="M599.539 1644.93L603.743 1640.55L602.896 1639.66L598.338 1643.31L599.539 1644.93Z" fill="#001E20"/>
<path d="M600.671 1631.21L594.246 1636.42L595.005 1634.31L600.671 1631.21Z" fill="#007550"/>
</g>
<g clip-path="url(#clip3)">
<path d="M543.681 1654.77L545.11 1647.42L555.598 1645.9L545.125 1656.67L543.681 1654.77Z" fill="#001E20"/>
<path d="M551.232 1655.35L555.597 1645.9L545.125 1656.67L551.232 1655.35Z" fill="#007550"/>
<path d="M551.951 1631.68L548.705 1633.34L556.612 1635.27L556.055 1632.8L551.951 1631.68Z" fill="#FFC856"/>
<path d="M547.543 1635.98L555.246 1638.43L557.039 1636.51L549.103 1634.21L547.543 1635.98Z" fill="#FFC856"/>
<path d="M547.543 1635.98L545.044 1644.31L547.074 1641.97L546.586 1641.05L548.153 1640.07L547.302 1638.75L549.471 1636.59L547.543 1635.98Z" fill="#FFC856"/>
<path d="M550.571 1636.94L549.532 1638.9L550.065 1640.76L550.368 1642.92L550.844 1646.62L555.246 1638.43L550.571 1636.94Z" fill="#FFC856"/>
<path d="M547.301 1638.75L549.618 1639.19L550.065 1640.76L548.152 1640.07L547.301 1638.75Z" fill="#001E20"/>
<path d="M551.188 1634.82L547.301 1638.75L549.618 1639.19L551.66 1634.95L551.188 1634.82Z" fill="white"/>
<path d="M546.586 1641.05L550.253 1642.13L550.065 1640.76L548.152 1640.07L546.586 1641.05Z" fill="white"/>
<path d="M547.074 1641.97L550.368 1642.92L550.253 1642.13L546.586 1641.05L547.074 1641.97Z" fill="#001E20"/>
<path d="M545.044 1644.31L544.562 1647.12L547.96 1648.97L550.843 1646.62L550.368 1642.92L547.074 1641.97L545.044 1644.31Z" fill="#007550"/>
<path d="M548.705 1633.34L549.103 1634.21L553.071 1635.36L557.04 1636.51L556.612 1635.27L551.922 1633.15L548.705 1633.34Z" fill="#001E20"/>
<path d="M556.034 1632.87L558.032 1634.98L555.597 1645.9L550.844 1646.62L555.246 1638.43L557.04 1636.51L556.612 1635.27L556.034 1632.87Z" fill="#007550"/>
<path d="M557.506 1635.8L558.278 1636.74L557.446 1639.18L556.567 1639.01L557.506 1635.8Z" fill="#001E20"/>
<path d="M556.816 1643.56L557.446 1639.18L556.567 1639.01L555.413 1643.11L556.816 1643.56Z" fill="#001E20"/>
<path d="M551.66 1634.95L550.065 1640.76L549.618 1639.19L551.66 1634.95Z" fill="#007550"/>
</g>
<g clip-path="url(#clip4)">
<path d="M512.687 1655.37L510.953 1648.08L519.877 1642.37L514.785 1656.5L512.687 1655.37Z" fill="#001E20"/>
<path d="M519.804 1652.78L519.877 1642.37L514.785 1656.5L519.804 1652.78Z" fill="#007550"/>
<path d="M510.688 1630.93L508.414 1633.77L516.414 1632.27L514.884 1630.24L510.688 1630.93Z" fill="#FFC856"/>
<path d="M508.448 1636.66L516.474 1635.71L517.315 1633.22L509.136 1634.4L508.448 1636.66Z" fill="#FFC856"/>
<path d="M508.448 1636.66L509.611 1645.28L510.492 1642.31L509.668 1641.67L510.691 1640.13L509.371 1639.28L510.456 1636.42L508.448 1636.66Z" fill="#FFC856"/>
<path d="M511.603 1636.29L511.463 1638.5L512.718 1639.97L513.886 1641.82L515.845 1644.98L516.474 1635.71L511.603 1636.29Z" fill="#FFC856"/>
<path d="M509.371 1639.28L511.661 1638.72L512.718 1639.97L510.69 1640.13L509.371 1639.28Z" fill="#001E20"/>
<path d="M511.286 1634.09L509.371 1639.28L511.661 1638.72L511.77 1634.02L511.286 1634.09Z" fill="white"/>
<path d="M509.668 1641.67L513.455 1641.14L512.718 1639.97L510.691 1640.13L509.668 1641.67Z" fill="white"/>
<path d="M510.492 1642.31L513.886 1641.82L513.455 1641.14L509.668 1641.67L510.492 1642.31Z" fill="#001E20"/>
<path d="M509.611 1645.28L510.332 1648.04L514.191 1648.32L515.845 1644.98L513.886 1641.82L510.492 1642.31L509.611 1645.28Z" fill="#007550"/>
<path d="M508.414 1633.77L509.136 1634.4L513.225 1633.81L517.315 1633.22L516.414 1632.27L511.265 1632.27L508.414 1633.77Z" fill="#001E20"/>
<path d="M514.898 1630.32L517.588 1631.42L519.877 1642.37L515.845 1644.98L516.474 1635.71L517.315 1633.22L516.414 1632.27L514.898 1630.32Z" fill="#007550"/>
<path d="M517.444 1632.38L518.539 1632.92L518.786 1635.48L517.917 1635.69L517.444 1632.38Z" fill="#001E20"/>
<path d="M520.023 1639.74L518.786 1635.48L517.918 1635.69L518.557 1639.9L520.023 1639.74Z" fill="#001E20"/>
<path d="M511.77 1634.02L512.718 1639.97L511.661 1638.72L511.77 1634.02Z" fill="#007550"/>
</g>
<g clip-path="url(#clip5)">
<path d="M664.072 1648.66L664.386 1641.17L654.536 1637.26L662.228 1650.16L664.072 1648.66Z" fill="#001E20"/>
<path d="M656.593 1647.47L654.536 1637.26L662.228 1650.16L656.593 1647.47Z" fill="#007550"/>
<path d="M661.377 1624.28L664.151 1626.64L656.011 1626.69L657.127 1624.41L661.377 1624.28Z" fill="#FFC856"/>
<path d="M664.668 1629.48L656.608 1630.08L655.308 1627.8L663.562 1627.4L664.668 1629.48Z" fill="#FFC856"/>
<path d="M664.669 1629.48L665.169 1638.17L663.738 1635.42L664.426 1634.63L663.129 1633.32L664.262 1632.23L662.651 1629.63L664.669 1629.48Z" fill="#FFC856"/>
<path d="M661.5 1629.72L662.058 1631.86L661.108 1633.55L660.312 1635.58L658.994 1639.06L656.608 1630.08L661.5 1629.72Z" fill="#FFC856"/>
<path d="M664.262 1632.23L661.907 1632.12L661.108 1633.55L663.129 1633.32L664.262 1632.23Z" fill="#001E20"/>
<path d="M661.393 1627.5L664.262 1632.23L661.907 1632.12L660.903 1627.52L661.393 1627.5Z" fill="white"/>
<path d="M664.425 1634.63L660.607 1634.84L661.107 1633.55L663.128 1633.32L664.425 1634.63Z" fill="white"/>
<path d="M663.738 1635.42L660.312 1635.58L660.608 1634.84L664.426 1634.63L663.738 1635.42Z" fill="#001E20"/>
<path d="M665.169 1638.17L664.987 1641.01L661.253 1642.02L658.994 1639.06L660.312 1635.58L663.738 1635.42L665.169 1638.17Z" fill="#007550"/>
<path d="M664.151 1626.64L663.563 1627.4L659.435 1627.6L655.308 1627.8L656.011 1626.69L661.066 1625.71L664.151 1626.64Z" fill="#001E20"/>
<path d="M657.129 1624.49L654.697 1626.08L654.536 1637.26L658.993 1639.06L656.608 1630.08L655.308 1627.8L656.011 1626.69L657.129 1624.49Z" fill="#007550"/>
<path d="M655.02 1626.99L654.049 1627.74L654.295 1630.3L655.188 1630.34L655.02 1626.99Z" fill="#001E20"/>
<path d="M653.892 1634.71L654.295 1630.3L655.189 1630.34L655.362 1634.59L653.892 1634.71Z" fill="#001E20"/>
<path d="M660.904 1627.52L661.108 1633.55L661.907 1632.12L660.904 1627.52Z" fill="#007550"/>
</g>
<g clip-path="url(#clip6)">
<path d="M533.536 1608.49L535.269 1610.13L533.151 1611.32L531.281 1608.72L533.536 1608.49Z" fill="#FFC856"/>
<path d="M530.196 1610.56L531.283 1608.72L533.153 1611.32L530.196 1610.56Z" fill="#007550"/>
<path d="M535.271 1610.12L534.983 1616.3L532.883 1616.67L534.221 1610.72L535.271 1610.12Z" fill="#001E20"/>
<path d="M528.16 1615.94L531.324 1616.95L532.883 1616.67L534.221 1610.72L533.153 1611.32L532.799 1613.59L528.16 1615.94Z" fill="#007550"/>
<path d="M534.397 1609.3L535.862 1609.76L535.035 1609.9L534.397 1609.3Z" fill="#FFC856"/>
<path d="M535.271 1610.12L535.862 1609.76L535.035 1609.9L535.271 1610.12Z" fill="#2D2C28"/>
<path d="M533.153 1611.32L530.196 1610.56L525.721 1617.18L532.804 1613.62L533.153 1611.32Z" fill="#FFC856"/>
<path d="M526.004 1618.77L523.458 1619.22L525.722 1617.18L528.163 1615.95L526.004 1618.77Z" fill="#001E20"/>
<path d="M534.983 1616.3L536.74 1617.14L535.658 1617.33L533.838 1616.5L534.983 1616.3Z" fill="#001E20"/>
<path d="M532.485 1616.74L534.242 1617.58L533.16 1617.77L531.34 1616.94L532.485 1616.74Z" fill="#001E20"/>
<rect width="0.523068" height="0.523068" transform="matrix(-0.480366 0.877068 0.877068 0.480366 533.161 1609.01)" fill="#001E20"/>
</g>
<path d="M826.584 1605H866V1782H350V1661.01L826.584 1605Z" fill="url(#paint1_linear)"/>
<g clip-path="url(#clip7)">
<path d="M770.96 1656.4L754.88 1663.84L763.201 1663.64L780.91 1663.22L787.418 1653.43L789.391 1654.33L789.388 1654.91L791.513 1655.4L789.209 1661.02L791.656 1660.65L788.934 1673.61L806.878 1664.08L799.937 1652.03L803.585 1652.36L805.167 1654.58L806.139 1653.77L814.888 1663.55L816.734 1652.75L803.682 1645.8L806.122 1645.14L799.838 1643.52L810.576 1643.44L807.302 1641.72L825.104 1636.72L822.928 1621.52L810.858 1631.8L809.565 1630.37L805.104 1635.36L803.12 1634.68L801.848 1635.5L800.895 1635.32L808.712 1626.21L793.362 1612.8L794.316 1625.29L792.119 1624.3L792.161 1624.48L781.097 1618.92L775.634 1616.18L782.579 1626.09L780.603 1625.61L784.463 1630L783.052 1630.19L784.623 1633.28L783.516 1632.96L783.424 1635.75C783.266 1635.71 783.107 1635.68 782.933 1635.65C781.381 1635.38 779.962 1635.62 779.2 1636.19L771.043 1633.94L768.95 1633.86L769.925 1631.88L753.707 1628.5L751.588 1628.55L751.857 1627.09L735.411 1624.94L733.869 1625.12L734.1 1623.86L717.655 1621.71L716.112 1621.88L716.344 1620.62L699.898 1618.48L696.905 1618.81L696.287 1622.18L713.374 1626.21L714.718 1625.57L731.127 1629.46L732.472 1628.82L748.881 1632.71L750.095 1632.13L765.304 1637.02L765.718 1636.88L773.872 1640.12C773.805 1640.24 773.752 1640.37 773.727 1640.51C773.524 1641.61 775.114 1642.81 777.275 1643.17C777.899 1643.28 778.493 1643.3 779.04 1643.26L773.901 1645.99L774.986 1646.36L770.182 1647.52L770.806 1648.36L763.001 1649.16L764.8 1649.87L748.254 1652.6L754.997 1653.66L768.674 1655.82L768.433 1655.91L770.96 1656.4ZM797.082 1647.46L797.231 1647.3L798.591 1648.52L797.082 1647.46ZM800.919 1650.18L801.939 1650.09L803.129 1651.75L800.919 1650.18ZM793.553 1630.02L792.295 1629.94L792.581 1626.19L793.553 1630.02ZM775.505 1652.41L776.368 1653.01L771.018 1654.95L775.505 1652.41Z" fill="#001E20" fill-opacity="0.1"/>
<g clip-path="url(#clip8)">
<path d="M697.215 1623.23L722.257 1631.84L697.969 1622.78L696.663 1622.49L697.215 1623.23Z" fill="#001E20" fill-opacity="0.1"/>
<path d="M698.827 1623.79L702.687 1628.72L707.172 1630.98L700.344 1624.31L698.827 1623.79Z" fill="#001E20" fill-opacity="0.1"/>
<path d="M708.082 1631.29L712.536 1632.72L704.368 1625.69L702.433 1625.03L708.082 1631.29Z" fill="#001E20" fill-opacity="0.1"/>
<path d="M714.423 1633.22L705.91 1626.22L708.673 1627.17L718.509 1634.04L714.423 1633.22Z" fill="#001E20" fill-opacity="0.1"/>
<path d="M719.412 1633.92L723.533 1634.62L714.681 1629.24L711.671 1628.2L719.412 1633.92Z" fill="#001E20" fill-opacity="0.1"/>
<path d="M717.46 1630.19L724.889 1634.44L727.191 1634.62L720.062 1631.08L717.46 1630.19Z" fill="#001E20" fill-opacity="0.1"/>
<path d="M720.046 1631.09L727.419 1633.94L727.226 1632.94L720.046 1631.09Z" fill="#001E20" fill-opacity="0.1"/>
<path d="M726.974 1632.38L719.818 1630.91C719.818 1630.91 716.475 1629.68 716.63 1629.74C716.786 1629.8 724.954 1631.01 725.146 1631.07C725.349 1631.13 726.974 1632.38 726.974 1632.38Z" fill="#001E20" fill-opacity="0.1"/>
<path d="M714.287 1628.87L724.026 1630.04L720.532 1628.05L711.155 1627.7L714.287 1628.87Z" fill="#001E20" fill-opacity="0.1"/>
<path d="M708.411 1626.68L719.277 1627.21L716.05 1625.43L706.014 1625.78L708.411 1626.68Z" fill="#001E20" fill-opacity="0.1"/>
<path d="M704.545 1625.23L714.413 1624.68L710.186 1623.09L702.453 1624.46L704.545 1625.23Z" fill="#001E20" fill-opacity="0.1"/>
<path d="M700.297 1623.65L708.93 1622.52L704.493 1621.6L698.803 1623.09L700.297 1623.65Z" fill="#001E20" fill-opacity="0.1"/>
</g>
<g clip-path="url(#clip9)">
<path d="M694.699 1622.79L704.306 1636.38L695.323 1622.86L694.751 1622.22L694.699 1622.79Z" fill="#001E20" fill-opacity="0.1"/>
<path d="M695.316 1623.66L695.09 1627.49L696.472 1630.26L695.899 1624.49L695.316 1623.66Z" fill="#001E20" fill-opacity="0.1"/>
<path d="M696.822 1630.76L698.581 1633.13L697.443 1626.67L696.7 1625.62L696.822 1630.76Z" fill="#001E20" fill-opacity="0.1"/>
<path d="M699.374 1634.08L698.034 1627.51L699.095 1629.01L701.221 1636.02L699.374 1634.08Z" fill="#001E20" fill-opacity="0.1"/>
<path d="M701.769 1636.3L703.69 1638.19L701.398 1632.27L700.245 1630.63L701.769 1636.3Z" fill="#001E20" fill-opacity="0.1"/>
<path d="M702.465 1633.78L704.515 1638.62L705.685 1639.58L703.464 1635.19L702.465 1633.78Z" fill="#001E20" fill-opacity="0.1"/>
<path d="M703.455 1635.18L706.13 1639.34L706.502 1638.78L703.455 1635.18Z" fill="#001E20" fill-opacity="0.1"/>
<path d="M706.625 1638.42L703.415 1635.01C703.415 1635.01 702.167 1633.16 702.225 1633.25C702.283 1633.33 706.172 1637 706.248 1637.11C706.331 1637.21 706.625 1638.42 706.625 1638.42Z" fill="#001E20" fill-opacity="0.1"/>
<path d="M701.359 1631.94L706.123 1636.19L705.156 1633.91L700.2 1630.2L701.359 1631.94Z" fill="#001E20" fill-opacity="0.1"/>
<path d="M699.186 1628.67L704.87 1633.04L703.949 1630.96L698.299 1627.34L699.186 1628.67Z" fill="#001E20" fill-opacity="0.1"/>
<path d="M697.756 1626.52L703.405 1629.99L701.85 1627.63L696.981 1625.36L697.756 1626.52Z" fill="#001E20" fill-opacity="0.1"/>
<path d="M696.184 1624.16L701.433 1626.88L699.449 1624.76L695.632 1623.32L696.184 1624.16Z" fill="#001E20" fill-opacity="0.1"/>
</g>
</g>
<g clip-path="url(#clip10)">
<path d="M648.629 1610.65L640.663 1611.14L634.984 1620.76L642.243 1613.42L648.07 1613.71L648.629 1610.65Z" fill="#FF513F"/>
<path d="M649.053 1614.26L643.406 1616.59L640.673 1627.32L645.589 1618.34L653.011 1615.63L649.053 1614.26Z" fill="#FF513F"/>
<path d="M672.23 1607.1L678.618 1602.49L689.469 1606.22L678.956 1605.22L674.719 1609.09L672.23 1607.1Z" fill="#FF513F"/>
<path d="M673.155 1610.45L679.283 1610L686.859 1618.34L678.203 1612.54L670.27 1613.42L673.155 1610.45Z" fill="#FF513F"/>
<path d="M646.101 1605.87L652.091 1604.76L652.048 1606.36L644.911 1607.63L646.101 1605.87Z" fill="#FF513F"/>
<path d="M646.101 1605.87L644.906 1600.46L643.545 1600.72L644.911 1607.63L646.101 1605.87Z" fill="#FF513F"/>
<path d="M676.553 1601.86L672.189 1596.3L671.118 1597.11L674.49 1601.52L676.553 1601.86Z" fill="#FF513F"/>
<path d="M676.553 1601.86L671.096 1606.15L669.855 1605.12L674.451 1601.51L676.553 1601.86Z" fill="#FF513F"/>
<path d="M643.406 1616.59L645.588 1618.34L653.01 1615.63L649.052 1614.26L643.406 1616.59Z" fill="#FF513F"/>
<path d="M670.27 1613.42L673.155 1610.45L679.283 1610L678.203 1612.54L670.27 1613.42Z" fill="#FF513F"/>
<path d="M672.23 1607.1L674.719 1609.09L678.957 1605.22L678.619 1602.49L672.23 1607.1Z" fill="#FF513F"/>
<path d="M648.628 1610.65L648.069 1613.71L642.242 1613.42L640.662 1611.14L648.628 1610.65Z" fill="#FF513F"/>
<path d="M666.659 1602.53L651.539 1603.6L644.483 1611.2L652.624 1617.73L667.744 1616.66L674.762 1609.06L666.659 1602.53Z" fill="#FF513F"/>
<path d="M643.646 1601.19L634.23 1597.31L637.618 1585.74L642.736 1596.72L641.714 1588.51L648.249 1594.8L645.007 1600.93L643.646 1601.19Z" fill="#FF513F"/>
<path d="M672.119 1596.89L674.482 1589.78L665.91 1585.89L669.91 1594.18L665.519 1589.51L666.045 1596.22L671.305 1597.51L672.119 1596.89Z" fill="#FF513F"/>
<path d="M653.688 1584.93L653.221 1586.75L669.545 1590.69L670.012 1588.88L653.688 1584.93Z" fill="#001E20"/>
<path d="M657.383 1581.21L656.05 1586.44L667.185 1589.15L668.519 1583.92L657.383 1581.21Z" fill="#001E20"/>
<path d="M644.483 1611.2L674.719 1609.09L667.744 1616.66L652.624 1617.73L644.483 1611.2Z" fill="#AA3528"/>
<path d="M662.711 1604.84L664.019 1598.61L662.625 1595.54L661.224 1598.43L662.711 1604.84Z" fill="#001E20"/>
<path d="M655.669 1605.45L656.716 1598.99L655.228 1596.23L653.891 1599.38L655.669 1605.45Z" fill="#001E20"/>
</g>
<g clip-path="url(#clip11)">
<path d="M693.061 1607.36L694.027 1620.07L695.322 1622.29V1608.85L693.061 1607.36Z" fill="#FFC856"/>
<path d="M695.322 1622.29H700.669L702.459 1608.85H695.322V1622.29Z" fill="#FF513F"/>
<path d="M693.061 1607.36L695.322 1608.85H702.46L700.269 1607.36H693.061Z" fill="#001E20"/>
<path d="M693.426 1593.5L694.392 1606.21L695.699 1608.43V1595L693.426 1593.5Z" fill="#FFC856"/>
<path d="M695.699 1608.43H701.046L702.825 1595H695.699V1608.43Z" fill="#FF513F"/>
<path d="M693.426 1593.5L695.699 1595H702.825L700.634 1593.5H693.426Z" fill="#001E20"/>
<path d="M693.791 1579.64L694.769 1592.36L696.065 1594.57V1581.14L693.791 1579.64Z" fill="#FFC856"/>
<path d="M696.064 1594.57H701.411L703.19 1581.14H696.064V1594.57Z" fill="#FF513F"/>
<path d="M693.791 1579.64L696.064 1581.14H703.19L701.011 1579.64H693.791Z" fill="#001E20"/>
<path d="M696.476 1565.32L695.487 1578.04L696.429 1580.42L698.49 1567.13L696.476 1565.32Z" fill="#FFC856"/>
<path d="M696.429 1580.42L701.718 1581.17L705.546 1568.14L698.49 1567.13L696.429 1580.42Z" fill="#FF513F"/>
<path d="M696.476 1565.32L698.49 1567.13L705.545 1568.14L703.614 1566.34L696.476 1565.32Z" fill="#001E20"/>
<path d="M701.918 1551.69L699.35 1564.21L699.986 1566.67L703.696 1553.71L701.918 1551.69Z" fill="#FFC856"/>
<path d="M699.986 1566.67L705.145 1568.02L710.575 1555.52L703.696 1553.71L699.986 1566.67Z" fill="#FF513F"/>
<path d="M701.918 1551.69L703.696 1553.71L710.575 1555.52L708.879 1553.52L701.918 1551.69Z" fill="#FFB300"/>
<path d="M707.371 1554.26L716.169 1551.06L715.274 1552.81L724.002 1554.04L722.2 1555.66L733.59 1562.49L733.955 1578.87L725.451 1566.74L724.838 1568.21L721.564 1562.42L720.421 1563.01L717.394 1559.54L717.124 1560.41L707.371 1554.26Z" fill="#007550"/>
<path d="M707.371 1554.26L717.96 1557.78L717.124 1560.41L707.371 1554.26Z" fill="#001E20"/>
<path d="M733.955 1578.87L725.451 1566.74L726.64 1564.03L733.837 1573.64L733.955 1578.87Z" fill="#001E20"/>
<path d="M717.96 1557.78L726.64 1564.03L724.838 1568.21L721.564 1562.42L720.422 1563.01L717.395 1559.54L717.96 1557.78Z" fill="#001E20"/>
<path d="M706.559 1553.53L715.734 1546.08L715.439 1548.56L726.499 1546.47L725.039 1549.15L741.811 1552.71L749.538 1572.28L733.908 1561.17L733.802 1563.18L727.288 1557.55L726.181 1558.73L720.999 1555.79L721.046 1556.94L706.559 1553.53Z" fill="#007550"/>
<path d="M706.559 1553.53L720.881 1553.44L721.046 1556.94L706.559 1553.53Z" fill="#001E20"/>
<path d="M749.538 1572.28L733.908 1561.17L734.108 1557.41L747.064 1566.03L749.538 1572.28Z" fill="#001E20"/>
<path d="M720.881 1553.44L734.108 1557.41L733.802 1563.18L727.288 1557.55L726.181 1558.73L720.999 1555.79L720.881 1553.44Z" fill="#001E20"/>
<path d="M706.029 1554.09L700.222 1547.24L700.069 1549.17L692.036 1546.22L692.731 1548.46L679.551 1549.14L670.812 1563.21L684.262 1556.59L684.039 1558.15L689.798 1554.63L690.446 1555.67L694.804 1554.05L694.592 1554.93L706.029 1554.09Z" fill="#007550"/>
<path d="M706.029 1554.09L695.24 1552.26L694.592 1554.93L706.029 1554.09Z" fill="#001E20"/>
<path d="M670.812 1563.21L684.262 1556.59L684.663 1553.68L673.615 1558.72L670.812 1563.21Z" fill="#001E20"/>
<path d="M695.24 1552.26L684.663 1553.68L684.039 1558.15L689.798 1554.63L690.446 1555.67L694.804 1554.05L695.24 1552.26Z" fill="#001E20"/>
<path d="M707.089 1553.84L703.143 1543.12L702.118 1545.4L693.826 1538.49L693.673 1541.49L677.631 1536.84L661 1550.29L679.975 1547.84L679.021 1549.64L687.442 1547.76L687.772 1549.28L693.685 1549.13L693.049 1550.11L707.089 1553.84Z" fill="#007550"/>
<path d="M707.089 1553.84L694.992 1547.14L693.049 1550.11L707.089 1553.84Z" fill="#001E20"/>
<path d="M661 1550.29L679.975 1547.84L681.742 1544.47L666.324 1545.99L661 1550.29Z" fill="#001E20"/>
<path d="M694.992 1547.14L681.742 1544.47L679.021 1549.64L687.442 1547.76L687.772 1549.28L693.685 1549.13L694.992 1547.14Z" fill="#001E20"/>
<path d="M706.559 1554.67L709.633 1542.79L710.987 1545.09L719.15 1536.71L719.644 1539.89L736.381 1532.97L755.709 1545.22L735.05 1544.96L736.263 1546.75L727.006 1545.79L726.829 1547.46L720.457 1548.02L721.246 1548.98L706.559 1554.67Z" fill="#007550"/>
<path d="M706.559 1554.67L718.832 1546.05L721.246 1548.98L706.559 1554.67Z" fill="#001E20"/>
<path d="M755.709 1545.22L735.05 1544.96L732.789 1541.59L749.526 1541.3L755.709 1545.22Z" fill="#001E20"/>
<path d="M718.832 1546.05L732.789 1541.59L736.263 1546.75L727.006 1545.79L726.829 1547.45L720.457 1548.02L718.832 1546.05Z" fill="#001E20"/>
<path d="M707.548 1554.27L709.774 1542.25L707.56 1543.83L703.661 1533.04L701.871 1535.75L689.539 1523L666.724 1526.75L685.675 1534.45L683.803 1535.62L692.648 1538.31L692.118 1539.9L697.689 1542.86L696.559 1543.43L707.548 1554.27Z" fill="#007550"/>
<path d="M707.548 1554.27L699.998 1541.69L696.559 1543.43L707.548 1554.27Z" fill="#001E20"/>
<path d="M666.724 1526.75L685.675 1534.45L689.162 1532.25L674.015 1525.55L666.724 1526.75Z" fill="#001E20"/>
<path d="M699.998 1541.69L689.162 1532.25L683.803 1535.62L692.648 1538.31L692.118 1539.9L697.689 1542.86L699.998 1541.69Z" fill="#001E20"/>
<path d="M707.395 1552.12L704.191 1543.64L706.017 1544.52L707.43 1536.17L709.091 1537.92L716.381 1527.1L733.472 1527L720.692 1534.96L722.212 1535.58L716.122 1538.64L716.723 1539.74L713.06 1542.59L713.955 1542.87L707.395 1552.12Z" fill="#007550"/>
<path d="M707.395 1552.12L711.234 1542.02L713.955 1542.87L707.395 1552.12Z" fill="#001E20"/>
<path d="M733.472 1527L720.692 1534.96L717.877 1533.8L728.007 1527.03L733.472 1527Z" fill="#001E20"/>
<path d="M711.234 1542.02L717.877 1533.8L722.212 1535.58L716.122 1538.64L716.723 1539.74L713.06 1542.59L711.234 1542.02Z" fill="#001E20"/>
<path d="M703.729 1558.42C705.485 1558.42 706.909 1557.05 706.909 1555.37C706.909 1553.69 705.485 1552.32 703.729 1552.32C701.973 1552.32 700.549 1553.69 700.549 1555.37C700.549 1557.05 701.973 1558.42 703.729 1558.42Z" fill="black"/>
<path d="M708.933 1560.09C710.689 1560.09 712.113 1558.72 712.113 1557.04C712.113 1555.35 710.689 1553.99 708.933 1553.99C707.177 1553.99 705.753 1555.35 705.753 1557.04C705.753 1558.72 707.177 1560.09 708.933 1560.09Z" fill="black"/>
<path d="M707.545 1555.09C709.302 1555.09 710.726 1553.72 710.726 1552.04C710.726 1550.35 709.302 1548.99 707.545 1548.99C705.789 1548.99 704.365 1550.35 704.365 1552.04C704.365 1553.72 705.789 1555.09 707.545 1555.09Z" fill="black"/>
<g clip-path="url(#clip12)">
<path d="M701.691 1622.25L714.536 1601.73L702.935 1622.3L702.083 1623.23L701.691 1622.25Z" fill="#007550"/>
<path d="M702.516 1620.93L700.125 1614.35L701.559 1610L703.295 1619.68L702.516 1620.93Z" fill="#007550"/>
<path d="M702.026 1609.26L704.439 1605.71L705.36 1616.39L704.366 1617.97L702.026 1609.26Z" fill="#007550"/>
<path d="M705.583 1604.3L706.15 1615.12L707.568 1612.86L708.394 1601.51L705.583 1604.3Z" fill="#007550"/>
<path d="M709.375 1601.17L712.36 1598.47L710.647 1607.94L709.107 1610.4L709.375 1601.17Z" fill="#007550"/>
<path d="M712.073 1605.66L713.834 1597.97L715.749 1596.66L713.411 1603.53L712.073 1605.66Z" fill="#007550"/>
<path d="M713.394 1603.53L716.784 1597.19L717.826 1598.24L713.394 1603.53Z" fill="#007550"/>
<path d="M718.262 1598.88L713.401 1603.82C713.401 1603.82 711.775 1606.63 711.85 1606.49C711.925 1606.36 718.048 1601.18 718.153 1601.03C718.269 1600.87 718.262 1598.88 718.262 1598.88Z" fill="#007550"/>
<path d="M710.731 1608.48L718.358 1602.55L717.522 1606.16L709.234 1611.13L710.731 1608.48Z" fill="#007550"/>
<path d="M707.925 1613.46L717.378 1607.58L716.535 1610.86L706.779 1615.49L707.925 1613.46Z" fill="#007550"/>
<path d="M706.078 1616.73L715.912 1612.37L713.913 1615.97L705.077 1618.5L706.078 1616.73Z" fill="#007550"/>
<path d="M704.047 1620.33L713.435 1617.13L710.437 1620.2L703.336 1621.59L704.047 1620.33Z" fill="#007550"/>
</g>
<g clip-path="url(#clip13)">
<path d="M702.117 1622.49L693.683 1609.01L701.301 1622.52L701.86 1623.13L702.117 1622.49Z" fill="#001E20"/>
<path d="M701.576 1621.62L703.146 1617.3L702.204 1614.45L701.064 1620.8L701.576 1621.62Z" fill="#001E20"/>
<path d="M701.897 1613.96L700.312 1611.62L699.708 1618.64L700.36 1619.68L701.897 1613.96Z" fill="#001E20"/>
<path d="M699.561 1610.7L699.19 1617.81L698.258 1616.32L697.715 1608.87L699.561 1610.7Z" fill="#001E20"/>
<path d="M697.071 1608.65L695.111 1606.88L696.236 1613.09L697.247 1614.71L697.071 1608.65Z" fill="#001E20"/>
<path d="M695.3 1611.59L694.143 1606.55L692.886 1605.68L694.421 1610.2L695.3 1611.59Z" fill="#001E20"/>
<path d="M694.432 1610.2L692.206 1606.03L691.522 1606.72L694.432 1610.2Z" fill="#001E20"/>
<path d="M691.236 1607.14L694.428 1610.39C694.428 1610.39 695.496 1612.23 695.446 1612.14C695.397 1612.06 691.376 1608.65 691.307 1608.55C691.231 1608.45 691.236 1607.14 691.236 1607.14Z" fill="#001E20"/>
<path d="M696.181 1613.45L691.173 1609.56L691.721 1611.93L697.164 1615.19L696.181 1613.45Z" fill="#001E20"/>
<path d="M698.024 1616.72L691.816 1612.86L692.37 1615.01L698.776 1618.05L698.024 1616.72Z" fill="#001E20"/>
<path d="M699.236 1618.87L692.778 1616L694.09 1618.36L699.893 1620.03L699.236 1618.87Z" fill="#001E20"/>
<path d="M700.57 1621.23L694.405 1619.12L696.374 1621.14L701.037 1622.06L700.57 1621.23Z" fill="#001E20"/>
</g>
<g clip-path="url(#clip14)">
<path d="M698.103 1620.81L698.405 1589.71L699.57 1620.14L699.245 1621.71L698.103 1620.81Z" fill="#007550"/>
<path d="M698.119 1618.81L690.721 1612.63L689.299 1606.78L698.138 1616.92L698.119 1618.81Z" fill="#007550"/>
<path d="M689.312 1605.65L689.584 1600.16L698.188 1611.93L698.163 1614.33L689.312 1605.65Z" fill="#007550"/>
<path d="M689.908 1597.88L698.205 1610.01L698.241 1606.58L691.175 1593.03L689.908 1597.88Z" fill="#007550"/>
<path d="M692.068 1592.07L693.601 1587.23L698.31 1599.12L698.279 1602.86L692.068 1592.07Z" fill="#007550"/>
<path d="M698.344 1595.67L694.943 1585.79L696.22 1583.16L698.38 1592.43L698.344 1595.67Z" fill="#007550"/>
<path d="M698.365 1592.45L697.787 1583.17L699.728 1583.77L698.365 1592.45Z" fill="#007550"/>
<path d="M700.688 1584.26L698.575 1592.77C698.575 1592.77 698.684 1596.95 698.678 1596.76C698.672 1596.56 702.063 1587.03 702.076 1586.79C702.099 1586.55 700.688 1584.26 700.688 1584.26Z" fill="#007550"/>
<path d="M698.791 1599.7L703.391 1588.43L704.978 1593.08L698.94 1603.62L698.791 1599.7Z" fill="#007550"/>
<path d="M699.075 1607.06L705.813 1594.79L707.157 1599.06L699.188 1610.06L699.075 1607.06Z" fill="#007550"/>
<path d="M699.26 1611.91L707.507 1601.16L707.744 1606.46L699.356 1614.53L699.26 1611.91Z" fill="#007550"/>
<path d="M699.459 1617.23L708.011 1608.08L706.726 1613.36L699.535 1619.1L699.459 1617.23Z" fill="#007550"/>
</g>
</g>
<path d="M932.594 1727L726.594 1681.2L787.649 1675.66L779.875 1669L932.594 1673.6L932.594 1727Z" fill="#D1A94D"/>
<g clip-path="url(#clip15)">
<path d="M711.731 1662.76L728.98 1638.53L778.789 1634.48L726.314 1682.07L711.731 1662.76Z" fill="#001E20"/>
<path d="M787.409 1676.26L778.789 1634.48L726.314 1682.07L787.409 1676.26Z" fill="#FF513F"/>
<path d="M768.191 1560.26L750.064 1573.33L786.71 1584.77L791.827 1569.96L768.191 1560.26Z" fill="#FFC856"/>
<path d="M743.815 1585.44L779.343 1599.24L788.355 1590.73L751.68 1577.55L743.815 1585.44Z" fill="#FFC856"/>
<path d="M743.815 1585.44L722.338 1621.13L739.835 1613.48L737.81 1609L745.472 1604.86L741.858 1598.4L752.706 1588.89L743.815 1585.44Z" fill="#FFC856"/>
<path d="M757.783 1590.86L752.312 1599.75L754.269 1608.68L755.058 1618.94L767.292 1643.43L779.343 1599.24L757.783 1590.86Z" fill="#FFC856"/>
<path d="M741.857 1598.4L752.63 1601.14L754.268 1608.68L745.472 1604.86L741.857 1598.4Z" fill="#001E20"/>
<path d="M761.315 1581.03L741.857 1598.4L752.63 1601.14L763.496 1581.78L761.315 1581.03Z" fill="white"/>
<path d="M737.811 1609L754.751 1615.18L754.269 1608.68L745.473 1604.86L737.811 1609Z" fill="white"/>
<path d="M739.835 1613.48L755.058 1618.94L754.75 1615.18L737.81 1609L739.835 1613.48Z" fill="#001E20"/>
<path d="M722.338 1621.13L726.486 1636.99L741.931 1646.7L767.292 1643.43L755.058 1618.94L739.835 1613.48L722.338 1621.13Z" fill="#FF513F"/>
<path d="M750.064 1573.33L751.681 1577.55L788.355 1590.73L786.71 1584.77L750.064 1573.33Z" fill="#001E20"/>
<path d="M791.826 1569.96L797.026 1577.5L778.789 1634.48L767.292 1643.43L779.343 1599.24L788.355 1590.73L786.709 1584.77L791.826 1569.96Z" fill="#FF513F"/>
<path d="M790.76 1587.5L794.113 1592.2L789.477 1603.41L785.391 1602.36L790.76 1587.5Z" fill="#001E20"/>
<path d="M785.216 1623.85L789.477 1603.4L785.39 1602.36L778.747 1621.29L785.216 1623.85Z" fill="#001E20"/>
<path d="M763.497 1581.78L754.269 1608.68L752.631 1601.14L763.497 1581.78Z" fill="#FF513F"/>
<g clip-path="url(#clip16)">
<path d="M763.349 1666.98L765.501 1683.38L772.65 1683.38L774.802 1666.98L763.349 1666.98Z" fill="#FFC856"/>
<path d="M763.641 1669.3L758.668 1667.3L758.146 1667L759.552 1664.1L762.665 1662.64L766.386 1664.54L763.641 1669.3Z" fill="#FF513F"/>
<path d="M759.937 1664.5L762.627 1663.16L766.109 1664.95L763.642 1669.3L758.684 1667.28L759.937 1664.5Z" fill="#FFC856"/>
<path d="M763.349 1666.98L763.833 1670.69L774.31 1670.69L774.802 1666.98L763.349 1666.98Z" fill="#EFECDE"/>
<path d="M774.534 1663.91L769.076 1682.91L770.075 1683.2L775.456 1664.2L774.534 1663.91Z" fill="#001E20"/>
<path d="M774.533 1663.91L775.84 1662.25L776.609 1662.75L775.456 1664.2L774.533 1663.91Z" fill="#001E20"/>
<path d="M775.84 1662.25L779.914 1661.38L780.145 1662.03L776.609 1662.75L775.84 1662.25Z" fill="#001E20"/>
<path d="M763.641 1669.3L759.929 1664.49L762.619 1663.19L763.641 1669.3Z" fill="#FFC856"/>
</g>
</g>
<g clip-path="url(#clip17)">
<path d="M796.248 1670.52L807.982 1654.04L841.865 1651.29L806.168 1683.65L796.248 1670.52Z" fill="#001E20"/>
<path d="M847.729 1679.71L841.865 1651.29L806.168 1683.65L847.729 1679.71Z" fill="#FF513F"/>
<path d="M834.655 1600.79L822.324 1609.69L847.253 1617.47L850.734 1607.4L834.655 1600.79Z" fill="#FFC856"/>
<path d="M818.073 1617.92L842.242 1627.31L848.372 1621.52L823.424 1612.55L818.073 1617.92Z" fill="#FFC856"/>
<path d="M818.074 1617.92L803.464 1642.2L815.366 1636.99L813.989 1633.95L819.201 1631.13L816.742 1626.74L824.122 1620.27L818.074 1617.92Z" fill="#FFC856"/>
<path d="M827.576 1621.61L823.854 1627.66L825.185 1633.73L825.722 1640.71L834.044 1657.37L842.242 1627.31L827.576 1621.61Z" fill="#FFC856"/>
<path d="M816.742 1626.74L824.07 1628.6L825.185 1633.73L819.201 1631.13L816.742 1626.74Z" fill="#001E20"/>
<path d="M829.978 1614.92L816.742 1626.74L824.07 1628.6L831.462 1615.44L829.978 1614.92Z" fill="white"/>
<path d="M813.989 1633.95L825.512 1638.15L825.185 1633.73L819.201 1631.13L813.989 1633.95Z" fill="white"/>
<path d="M815.366 1636.99L825.722 1640.71L825.512 1638.15L813.989 1633.95L815.366 1636.99Z" fill="#001E20"/>
<path d="M803.464 1642.2L806.286 1652.99L816.792 1659.6L834.044 1657.37L825.722 1640.71L815.367 1636.99L803.464 1642.2Z" fill="#FF513F"/>
<path d="M822.325 1609.69L823.425 1612.55L848.373 1621.52L847.253 1617.47L822.325 1609.69Z" fill="#001E20"/>
<path d="M850.734 1607.4L854.271 1612.52L841.865 1651.29L834.044 1657.37L842.242 1627.31L848.373 1621.52L847.253 1617.47L850.734 1607.4Z" fill="#FF513F"/>
<path d="M850.008 1619.33L852.29 1622.52L849.136 1630.14L846.356 1629.44L850.008 1619.33Z" fill="#001E20"/>
<path d="M846.237 1644.05L849.135 1630.14L846.356 1629.44L841.837 1642.31L846.237 1644.05Z" fill="#001E20"/>
<path d="M831.462 1615.44L825.185 1633.73L824.071 1628.6L831.462 1615.44Z" fill="#FF513F"/>
</g>
<g clip-path="url(#clip18)">
<path d="M856.951 1678.32L864.913 1667.14L887.908 1665.27L863.682 1687.23L856.951 1678.32Z" fill="#001E20"/>
<path d="M891.887 1684.55L887.908 1665.27L863.683 1687.23L891.887 1684.55Z" fill="#FF513F"/>
<path d="M883.015 1631L874.647 1637.04L891.564 1642.32L893.927 1635.48L883.015 1631Z" fill="#FFC856"/>
<path d="M871.762 1642.63L888.163 1649L892.324 1645.07L875.393 1638.98L871.762 1642.63Z" fill="#FFC856"/>
<path d="M871.762 1642.63L861.847 1659.1L869.925 1655.57L868.99 1653.5L872.527 1651.59L870.858 1648.61L875.866 1644.22L871.762 1642.63Z" fill="#FFC856"/>
<path d="M878.21 1645.13L875.685 1649.23L876.588 1653.36L876.953 1658.09L882.6 1669.4L888.164 1649L878.21 1645.13Z" fill="#FFC856"/>
<path d="M870.858 1648.61L875.832 1649.87L876.588 1653.36L872.527 1651.59L870.858 1648.61Z" fill="#001E20"/>
<path d="M879.841 1640.59L870.858 1648.61L875.832 1649.87L880.848 1640.94L879.841 1640.59Z" fill="white"/>
<path d="M868.99 1653.5L876.81 1656.36L876.588 1653.36L872.527 1651.59L868.99 1653.5Z" fill="white"/>
<path d="M869.925 1655.57L876.953 1658.09L876.811 1656.36L868.99 1653.5L869.925 1655.57Z" fill="#001E20"/>
<path d="M861.847 1659.1L863.762 1666.42L870.892 1670.91L882.6 1669.4L876.952 1658.09L869.925 1655.57L861.847 1659.1Z" fill="#FF513F"/>
<path d="M874.647 1637.04L875.393 1638.98L892.324 1645.07L891.564 1642.32L874.647 1637.04Z" fill="#001E20"/>
<path d="M893.927 1635.48L896.327 1638.96L887.908 1665.27L882.6 1669.4L888.164 1649L892.324 1645.07L891.564 1642.32L893.927 1635.48Z" fill="#FF513F"/>
<path d="M893.434 1643.58L894.982 1645.75L892.842 1650.92L890.956 1650.44L893.434 1643.58Z" fill="#001E20"/>
<path d="M890.875 1660.36L892.842 1650.92L890.955 1650.44L887.889 1659.18L890.875 1660.36Z" fill="#001E20"/>
<path d="M880.848 1640.94L876.588 1653.36L875.832 1649.87L880.848 1640.94Z" fill="#FF513F"/>
</g>
<g clip-path="url(#clip19)">
<path d="M539.003 1638.89L533.553 1639.57L533.239 1643.02L532.323 1643.08L532.204 1642.86L531.317 1643.11L531.031 1640.55L530.198 1641.18L530.317 1639.91L525.378 1640.55L523.842 1642.99L528.868 1646.07L527.444 1646.69L526.406 1646.18L526.21 1646.68L520.973 1644.81L522.478 1649.2L528.739 1649.15L527.967 1649.89L530.631 1649.22L526.656 1651.43L528.222 1651.4L522.619 1656.87L526.511 1662.09L528.913 1655.82L529.684 1656.09L530.329 1653.33L531.204 1653.18L531.511 1652.62L531.903 1652.49L530.844 1657.47L539.273 1659.35L536.384 1654.9L537.401 1654.82L537.349 1654.76L542.59 1654.59L545.178 1654.51L540.585 1652.22L541.417 1652L539.09 1651.14L539.576 1650.79L538.365 1649.95L538.842 1649.85L538.311 1648.79C538.377 1648.77 538.443 1648.76 538.513 1648.73C539.144 1648.51 539.623 1648.14 539.792 1647.77L543.28 1646.96L544.075 1646.57L544.113 1647.5L550.829 1645.48L551.605 1645.03L551.802 1645.63L558.352 1643.1L558.89 1642.72L559.06 1643.23L565.609 1640.7L566.147 1640.33L566.317 1640.84L572.866 1638.31L573.911 1637.58L573.456 1636.2L566.286 1638.16L565.917 1638.67L559.027 1640.54L558.658 1641.06L551.768 1642.93L551.435 1643.39L544.789 1644.65L544.662 1644.78L540.974 1645.23C540.974 1645.17 540.968 1645.11 540.95 1645.06C540.801 1644.6 539.967 1644.48 539.09 1644.78C538.836 1644.87 538.611 1644.98 538.417 1645.11L539.772 1643.05L539.294 1643.13L540.845 1641.73L540.443 1641.54L543.181 1639.66L542.368 1639.76L547.178 1637.87L539.003 1638.89ZM530.857 1647.2L530.834 1647.29L530.08 1647.1L530.857 1647.2ZM528.878 1646.96L528.518 1647.2L527.738 1646.82L528.878 1646.96ZM535.708 1652.98L536.191 1652.75L536.847 1654.21L535.708 1652.98ZM537.873 1640.98L537.431 1640.93L539.027 1639.13L537.873 1640.98Z" fill="#001E20" fill-opacity="0.1"/>
</g>
<rect y="1661" width="350" height="121" fill="#FFC856"/>
<rect x="932" y="1674" width="417" height="53" fill="#D1A94D"/>
<defs>
<linearGradient id="paint0_linear" x1="666" y1="1570.44" x2="666" y2="1654.44" gradientUnits="userSpaceOnUse">
<stop stop-color="#FFD45D"/>
<stop offset="1" stop-color="#FF0000" stop-opacity="0"/>
</linearGradient>
<linearGradient id="paint1_linear" x1="677" y1="1605" x2="1003.82" y2="1701.33" gradientUnits="userSpaceOnUse">
<stop stop-color="#FFC856"/>
<stop offset="1" stop-color="#F5BB41"/>
</linearGradient>
<clipPath id="clip0">
<rect width="46" height="49" fill="white" transform="matrix(-1 0 0 1 591 1589)"/>
</clipPath>
<clipPath id="clip1">
<rect width="20.1322" height="33.7098" fill="white" transform="matrix(-0.988295 -0.152556 -0.152556 0.988295 547.661 1616.5)"/>
</clipPath>
<clipPath id="clip2">
<rect width="22.3025" height="37.3437" fill="white" transform="translate(599.242 1620.44) rotate(46.3211)"/>
</clipPath>
<clipPath id="clip3">
<rect width="16.2576" height="27.222" fill="white" transform="translate(546.24 1629.17) rotate(10.6974)"/>
</clipPath>
<clipPath id="clip4">
<rect width="16.2576" height="27.222" fill="white" transform="translate(504.45 1631) rotate(-13.6874)"/>
</clipPath>
<clipPath id="clip5">
<rect width="16.2576" height="27.222" fill="white" transform="matrix(-0.99889 -0.0470953 -0.0470953 0.99889 667.514 1623.16)"/>
</clipPath>
<clipPath id="clip6">
<rect width="13.8615" height="9.24098" fill="white" transform="matrix(-0.984763 0.173902 0.173902 0.984763 535.546 1607.97)"/>
</clipPath>
<clipPath id="clip7">
<rect width="60.7059" height="129.309" fill="white" transform="matrix(-0.180471 0.98358 -0.985988 -0.166817 828.406 1618.73)"/>
</clipPath>
<clipPath id="clip8">
<rect width="21.359" height="18.1508" fill="white" transform="matrix(0.990457 -0.129503 -0.587038 -0.811967 707.319 1637.22)"/>
</clipPath>
<clipPath id="clip9">
<rect width="13.8193" height="11.9051" fill="white" transform="matrix(0.930784 0.483102 0.0965681 -0.931235 693.601 1633.31)"/>
</clipPath>
<clipPath id="clip10">
<rect width="59.0526" height="56.7647" fill="white" transform="matrix(0.994051 0.108921 -0.118001 0.993014 634.318 1569.91)"/>
</clipPath>
<clipPath id="clip11">
<rect width="94.7094" height="99.2887" fill="white" transform="translate(661 1523)"/>
</clipPath>
<clipPath id="clip12">
<rect width="24.3077" height="20.7772" fill="white" transform="matrix(0.946438 -0.322887 0.382412 0.923992 694.138 1604.03)"/>
</clipPath>
<clipPath id="clip13">
<rect width="15.9627" height="13.6442" fill="white" transform="matrix(-0.946438 -0.322886 -0.382412 0.923992 707.078 1610.52)"/>
</clipPath>
<clipPath id="clip14">
<rect width="30.6937" height="28.6584" fill="white" transform="matrix(0.682732 -0.730669 0.79245 0.609937 676.535 1604.23)"/>
</clipPath>
<clipPath id="clip15">
<rect width="76.6689" height="128.376" fill="white" transform="translate(739.698 1553) rotate(14.295)"/>
</clipPath>
<clipPath id="clip16">
<rect width="21.9993" height="21.9993" fill="white" transform="translate(758.146 1661.38)"/>
</clipPath>
<clipPath id="clip17">
<rect width="52.1548" height="87.329" fill="white" transform="translate(815.273 1595.86) rotate(14.295)"/>
</clipPath>
<clipPath id="clip18">
<rect width="35.3941" height="59.2646" fill="white" transform="translate(869.861 1627.65) rotate(14.295)"/>
</clipPath>
<clipPath id="clip19">
<rect width="25.748" height="54.7426" fill="white" transform="matrix(-0.312333 -0.949973 0.945774 -0.324826 525.042 1664.24)"/>
</clipPath>
</defs>
</svg>
