<svg xmlns="http://www.w3.org/2000/svg" width="459" height="330" fill="none" xmlns:v="https://vecta.io/nano"><style><![CDATA[.B{fill:#ffb882}.C{fill:#eaddbe}.D{fill:#ff9566}.E{fill:#ffb94a}.F{opacity:.6}.G{fill:#c94343}.H{fill:#db2828}.I{fill:#ddcba6}.J{fill:#7c3552}.K{fill:#7a4939}.L{fill:#603428}.M{fill:#001e20}.N{fill:#732c84}.O{fill:#7f3425}.P{fill:#ed4848}.Q{fill:#934769}.R{fill:#db5b3e}.S{fill:#ea7b59}.T{fill:#634c84}.U{fill:#d8c5a0}.V{fill:#dbc8a2}]]></style><ellipse cx="229.5" cy="311.5" rx="229.5" ry="18.5" class="F M"/><path d="M345.88 187.108H206.803L178.51 313h139.077l28.292-125.892z" fill="#3b2d51"/><path d="M333.02 54.922h20.74l5.566 91.967H335.87l-2.85-91.967z" class="N"/><path d="M330.502 54.922h21.07l5.5 91.967h-23.853l-2.716-91.967z" fill="#ab56bf"/><path d="M327.32 57.24h21.07l8.746 89.383-22.263.132-7.554-89.515z" class="N"/><path d="M332.225 56.18c5.102 1.988 10.402 2.186 15.968.928l6.228 88.588c-6.824-1.26-13.318-1.26-18.022.2l-4.174-89.714z" class="I"/><path d="M278.952 53.265h55.06l7.156 93.624h-56.187l-6.03-93.624z" class="N"/><path d="M276.435 53.265h55.127l7.156 93.624h-56.253l-6.03-93.624z" fill="#bf63d6"/><path d="M342.43 57.837c1.855-.066 3.776-.33 5.764-.73l6.228 88.588c-2.782-.53-5.5-.795-8.083-.86l-3.91-86.998z" fill="#efe3ca"/><path opacity=".203" d="M284.65 143.3h51.218l-6.494-86.468H279.15l5.5 86.468zm50.3-.928h-49.43l-5.367-84.678h48.435l6.36 84.678zm-47.848-2.252h45.785l-5.765-80.107h-44.857l4.837 80.107zm44.923-.795H287.83l-4.77-78.45h43.267l5.698 78.45z" fill="#fff"/><path d="M301.348 53.2L314.4 90.04l13.252-7.156 7.355 14.776 3.644 49.23h-54.73l-7.487-33.925L288.693 53.2h12.655z" class="F G"/><path d="M286.242 11.456c7.354-2.584 5.367-9.873 2.517-11.065s-9.872.133-8.348 6.957 5.83 4.108 5.83 4.108z" fill="#964532"/><path d="M285.446 7.083c3.18-1.126 4.64-3.18 4.97-5.168 1.6 2.65 1.524 7.42-4.174 9.475 0 0-4.307 2.717-5.83-4.108-.2-.86-.265-1.656-.2-2.32 1.855 4.307 5.234 2.12 5.234 2.12z" class="O"/><path d="M284.254 12.052c5.764-1.524 4.174-5.698 1.987-6.427s-7.752.066-6.56 4.042 4.572 2.385 4.572 2.385z" class="E"/><path d="M282.796 41.935c10.138-7.222 10.072-24.648 5.566-31.274s-16.83-6.626-22.064-.596-5.765 15.703-1.26 20.87c4.572 5.102 17.757 11 17.757 11z" fill="#964532"/><g class="O"><path d="M264.376 25.437c.2-10.866 1.723-13.65 6.36-16.366 0 0-5.433 4.572-2.85 10.933l-3.512 5.433zm3.324-.267c3.114-11.53 5.367-14.246 10.6-16.233 0 0-6.56 3.7-5.764 11.065L267.7 25.17z"/><path d="M277.363 21.726c5.566-4.704 8.018-10.668 4.506-14.842-.265-.33-.596-.596-.928-.928 3.048.663 5.765 2.187 7.42 4.638 4.506 6.626 4.638 24.052-5.565 31.274 0 0-13.186-5.897-17.758-11.065-1.524-1.723-2.45-4.042-2.85-6.493 3.71 3.7 9.873 1.855 15.173-2.584z"/></g><path d="M251.456 87.323c.73-16.63 17.757-35.448 19.546-35.58 1.723-.133 1.458 6.957-2.85 13.914s-9.01 23.522-9.54 25.245c-.597 1.79-7.29-.663-7.156-3.578z" class="H"/><path d="M270.804 50.15c.795-.066 1.193 1.8.994 4.44-3.38 2.584-17.16 20.2-18.62 35.382-.994-.73-1.722-1.656-1.722-2.65.728-16.63 17.558-37.04 19.347-37.17zm38.96 38.166c-.73-16.63-17.758-37.502-19.547-37.635-1.722-.133-1.126 11.86 3.18 18.884 4.307 6.957 8.746 20.673 9.276 22.396s7.222-.663 7.1-3.644z" class="P"/><path d="M294.723 66.252c5.234 7.62 7.09 19.215 14.908 18.884.464 0-3.38 6.56-2.518 6.427-1.92.994-4.174 1.325-4.44.33-.53-1.723-6.56-16.233-10.8-23.2-2.386-3.91 0-10.204-.332-14.246 1.127 3.843.862 8.415 3.18 11.794z" class="H"/><path d="M299.23 87.39c3.246-2.65 9.673-3.578 11.396-2.518 1.657 1.06.994 8.812-3.777 10.138-4.77 1.39-7.62-7.62-7.62-7.62z" fill="#ffe9ca"/><path d="M272.394 65.655l18.022-8.812c-8.35 38.828.596 34.057-1.458 49.098-10.204 4.24-20.076 2.584-29.55-4.374 9.41-2.054 12.987-35.912 12.987-35.912z" class="P"/><path d="M282.4 105.808c2.32-9.54-1.127-18.552-7.62-20.142-2.054-.53-4.24-.133-6.295.795 2.717-9.806 3.9-20.872 3.9-20.872l18.022-8.812c-8.35 38.828.596 34.057-1.458 49.098-2.385.993-4.77 1.656-7.09 1.987.132-.596.33-1.325.53-2.054z" class="H"/><path d="M275.508 105.41l52.08-21.998c-12.06 18.75-29.353 36.51-35.184 38.1s-26.172 2.45-30.214.86-35.25-34.984-35.25-34.984 40.683 17.823 48.568 18.022z" fill="#6d2d4a"/><path d="M248.143 96.267l18.817 11.463-6.294-6.692-12.523-4.77z" class="Q"/><path d="M290.946 51.145c3.38 6.03 0 28.027-1.6 29.485-1.524 1.458-24.118-1.06-25.245-2.054s4.44-26.835 6.295-28.16c1.79-1.325 7.62-3.71 8.945-3.777 1.26-.2 11.198 3.843 11.595 4.506z" class="P"/><path d="M287.898 78.643c1.193-1.193 3.975-14.246 4.108-23.92 1.325 8.48-1.26 25.178-2.518 26.37-1.524 1.458-24.25-1.656-25.377-2.584-.133-.133-.2-.663-.133-1.524 4.77 1.26 22.462 3.114 23.92 1.657z" class="H"/><path d="M270.738 82.75c0 1.855 1.06 2.385 1.325 3.644.198 1.26.86-.53.596-1.6-.265-.994-1.92-2.054-1.92-2.054z" class="D"/><g class="B"><path d="M274.116 84.208c-1.79 1.26-2.584.795-2.915.398-.398-.398-.795-1.6-.795-1.6l1.987-.596-.066 1.26c.066.066 2.916-.265 1.79.53z"/><path d="M275.44 84.804c-1.8 1.26-2.584.795-2.915.398-.398-.398-.795-1.6-.795-1.6l1.988-.596-.067 1.26c0 .066 2.916-.265 1.8.53zm30.746 2.85c-7.686-2.982-30.8-5.698-30.8-5.698l-.2.596s22.528 13.053 29.684 11.66c7.223-1.4 4.44-5.367 1.326-6.56z"/></g><path d="M302.276 90.304c2.717-.596 4.042-1.524 4.44-2.45 2.85 1.39 4.97 5.036-1.855 6.36-7.156 1.39-29.684-11.662-29.684-11.662l.066-.133c7.1 3.18 21.534 9.144 27.033 7.885z" class="D"/><g class="B"><path d="M270.87 82.286c1.39-1.193 4.44-.994 6.957.066l.73 1.458c-2.054-.464-5.17.464-6.096.663-.928.265-2.982-.994-1.6-2.187z"/><path d="M271.07 82.154c-1.59 1.325-4.042 4.44-3.976 5.036 0 .53 1.855-1.193 2.385-1.855.464-.663 2.32-1.988 2.32-1.988l-.728-1.193z"/></g><path d="M257.552 56.247l17.69 39.026 17.9.928 1.06.994-55.658-.795-19.082-40.153h38.1z" class="C"/><path d="M257.552 56.247c-15.836 6.825-22.396 20.076-19.083 40.153l-19.082-40.153h38.165z" fill="#f4e9d3"/><path d="M273.918 96.864L255.63 56.247h1.92l17.69 39.026 17.9.928 1.06.994-20.275-.33z" fill="#d8c091"/><path d="M224.754 75.86c7.023 1.6 22.925 19.348 41.677 45.918l-.398.994s-32.467-25.046-36.3-29.684-11.993-18.884-4.97-17.227z" class="Q"/><g class="J"><path d="M229.06 90.105c2.915 3.18 21.136 16.035 31.208 23.058l6.162 8.614-.398.994s-32.665-24.516-36.508-29.154c-2.054-2.518-5.17-8.216-6.693-12.324 1.856 3.38 4.44 6.957 6.23 8.812z"/><path d="M263.515 117.67l-16.963-12.788s-8.414-15.704-17.094-26.636c7.686 5.566 19.944 19.81 34.057 39.424z"/></g><path d="M326.792 81.89c4.24 3.048-4.837 9.276-13.252 17.9-8.48 8.68-23.92 11.264-48.302 22.925l-.994-.596C293.2 94.743 322.55 78.84 326.792 81.89z" class="Q"/><path d="M274.315 113.03c20.34-8.547 33.66-11.264 41.345-18.884 4.506-4.44 9.2-8.282 11.993-11.33 1.524 3.313-6.36 9.806-13.98 17.625-8.482 8.68-24.185 10.6-48.502 22.263l-.994-.597c3.38-3.18 6.76-6.162 10.138-9.077z" class="J"/><path d="M265.304 123.897l-2.915-4.704s4.306-4.175 9.408-7.1l-6.493 11.794z" fill="#dbc7a1"/><path d="M264.907 123.168l3.7-1.26s-2.98-5.234-10.933-8.945l7.223 10.204z" class="C"/><path d="M272.062 49.224l7.222-3.446c1.06-.133 7.554 2.982 10.337 4.506-5.235 18.22-14.38 25.84-14.38 25.84s-4.04-26.503-3.18-26.9z" fill="#ffe9ca"/><path d="M272.062 49.223c.2-.133.398-.2.596-.33.464 6.295 3.247 24.847 3.247 24.847s8.35-6.957 13.65-23.456h.067c-5.235 18.22-14.577 26.835-14.577 26.835s-3.843-27.497-2.982-27.895z" class="H"/><path d="M285.446 48.494c.133-11.993-1.722-18.95-1.722-18.95l-7.156 6.427.397 10.8s1.723 3.644 3.91 3.91c2.253.265 4.572-2.187 4.572-2.187z" class="B"/><path d="M214.35 122.837h44.526c7.885 0 10.138 22.925 2.253 22.925h-44.526c4.042-3.047 3.445-19.28-2.253-22.925z" fill="#e0d0b1"/><path d="M256.094 121.7h62.084c12.324-.397 13.716 24.847 1.392 25.18h-62.085c10.535-.265 9.2-25.444-1.39-25.18z" fill="#ff9a3e"/><path d="M258.015 146.89c4.506-.53 6.693-5.764 6.76-11.396h63.343c-.132 5.764-2.915 11.264-8.613 11.396h-61.49z" fill="#ed8129"/><path d="M213.887 121.7h49.43l.464 2.386h-49.43c-.662 0-1.325-.53-1.4-1.193-.2-.662.265-1.193.927-1.193zm1.06 23.135h49.23l.464 2.054H215.4c-.662 0-1.325-.464-1.457-1.06-.133-.53.33-.994.994-.994z" class="E"/><path d="M217.664 127.475h38.43c7.885 0 8.746 15.372.928 15.372H218.46c1.193-4.042.994-10.668-.795-15.372z" fill="#f4e9d4"/><path d="M256.094 121.71h7.42c5.765 4.77 6.494 20.407.928 25.178h-6.957c10.535-.265 9.2-25.443-1.392-25.178z" class="E"/><path opacity=".152" d="M268.484 146.027h47.243c3.313-.066 5.963-1.722 7.553-4.638 2.187-4.04 1.988-9.938-.53-14.046-1.92-3.115-4.903-4.77-8.348-4.705H267.69l1.06.795c2.85 2.187 4.638 6.626 4.705 11.53.066 4.506-1.392 8.35-3.9 10.337l-1.06.728zM314.6 123.5c3.048 0 5.632 1.523 7.355 4.306 2.385 3.843 2.584 9.41.53 13.186-.994 1.855-2.98 4.108-6.758 4.174H270.87c2.186-2.32 3.38-6.03 3.38-10.27-.066-4.638-1.6-8.88-4.108-11.396h44.46z" fill="#fff"/><path d="M190.365 145.1h68.91c12.192 0 12.854 44.062.663 44.062h-68.91c6.625-5.897 7.752-37.038-.663-44.062z" fill="#e0d0b1"/><path d="M255.166 142.98h96.075c19.15-.73 18.09 47.707-1.06 48.435h-96.075c16.432-.662 17.492-49.097 1.06-48.435z" fill="#5e85bc"/><path d="M254.967 191.282c7.024-.993 11.066-11.13 11.86-21.865h98.063c-.928 11.13-5.897 21.667-14.7 21.932h-95.214v-.067z" fill="#4e75a5"/><path d="M189.77 142.98h76.462l.398 4.572h-76.463c-.994 0-1.92-1.06-2.054-2.32s.663-2.253 1.657-2.253zm-1.26 44.393h76.198l.464 3.976h-76.198c-.994 0-1.987-.862-2.054-1.988-.132-1.06.597-1.988 1.6-1.988z" fill="#749dce"/><path d="M194.938 153.98h59.434c12.192 0 11.66 29.617-.53 29.617h-59.7c2.517-7.752 2.98-20.606.795-29.617z" fill="#f4e9d4"/><path d="M255.166 142.98h11.397c8.348 9.144 7.487 39.226-1.657 48.436h-10.8c16.432-.663 17.492-49.098 1.06-48.436z" fill="#749dce"/><path opacity=".152" d="M271.267 189.692h73.15c5.102-.2 9.475-3.313 12.258-8.945 3.91-7.752 4.307-19.15.86-27.034-2.584-6.03-6.957-9.2-12.324-9.01h-72.354l1.524 1.524c4.108 4.24 6.36 12.722 5.83 22.13-.464 8.613-3.246 16.034-7.288 19.877l-1.657 1.458zm74.2-43.333c4.705 0 8.548 2.915 10.8 8.216 3.18 7.42 2.85 18.088-.795 25.31-1.79 3.578-5.168 7.818-11 8.017h-69.44c3.644-4.373 6.03-11.595 6.493-19.68.53-8.945-1.39-17.028-4.97-21.932h68.512c.132.067.265.067.397.067z" fill="#fff"/><path d="M277.76 64.396c-4.704-2.783-7.1-8.415-6.758-14.444.265-.2.596-.33.993-.53v-.133c0-.066.067-.133.067-.133l4.903-2.518-.33-9.74c2.252-2.32 4.903-3.975 7.62-4.704.53 2.982 1.193 8.48 1.193 15.968 1.6.73 3.114 1.524 4.174 2.054h.067v.066c.265.133.53.265.728.398.796.265 3.578 3.247 6.76 7.686-4.903 7.023-13.12 9.74-19.414 6.03z" class="F G"/><path d="M284.85 26.165c3.843 16.565-9.542 23.058-9.542 23.058s-10.6-10.204-11.86-22.926c-.663-6.89.33-9.01 7.156-10.07 6.89-1.06 13.252 5.632 14.246 9.94z" class="B"/><path d="M284.056 35.44c-3.512-10.27-4.307-18.884-.133-18.42 4.24.398 6.096 15.173.133 18.42z" class="O"/><path d="M283.46 36.834c-.862-8.812-.133-9.873 2.65-9.873 3.18 0 3.445 8.415-2.65 9.873z" class="B"/><path d="M284.386 34.845c-.53-5.234-.066-5.897 1.59-5.897 1.855-.066 2.054 5.036-1.59 5.897z" class="R"/><path d="M284.187 35.508c0-3.38.332-3.777 1.524-3.644 1.392.066 1.193 3.313-1.524 3.644z" class="B"/><g fill="#66423b"><path d="M267.225 32.195c-.265-1.4.265-2.584 1.127-2.717s1.723.928 1.988 2.32-.265 2.584-1.127 2.717-1.8-.928-1.988-2.32zm8.35-1.127c-.33-1.6.132-2.982 1.06-3.18s1.922.994 2.253 2.584-.133 3.048-1.06 3.18-1.922-.994-2.253-2.584z"/><path d="M280.278 29.744s-3.246-1.723-5.764-.86c0 0 .397-1.392 2.32-1.325 1.988.066 3.445 2.187 3.445 2.187zM265.9 31.2s2.32-1.988 4.704-1.723c0 0-.73-1.126-2.452-.73-1.656.33-2.252 2.452-2.252 2.452z"/></g><path d="M280.4 26.762v-.33c-1.326-1.92-3.976-2.982-5.367-3.048l.066 1.193c1.126-.2 3.9.596 5.3 2.187zm-15.37 1.458c1.126-2.253 3.843-3.048 4.572-3.048l-.265-1.193c-.795.066-3.313 1.06-4.572 3.843l.265.398z" fill="#7c4343"/><path d="M271.73 36.236c0 .066 0 .066.067.132.397.86 1.457 1.126 2.32.73.53-.265.795-.73.927-1.26.332.795 0 1.79-.795 2.186-.86.464-1.92.133-2.32-.73-.265-.33-.265-.73-.2-1.06z" class="S"/><path d="M277.893 40.212l-5.83.928s1.26 2.85 3.644 2.385c2.253-.464 2.187-3.313 2.187-3.313z" fill="#491d2e"/><path d="M277.496 40.345l-4.97.795s-.066 1.325 2.783.928c2.982-.398 2.187-1.723 2.187-1.723z" fill="#ffebeb"/><path d="M274.58 44.65c-.066-.33.53-.066 1.126-.2s1.06-.53 1.127-.2-.332.73-.994.86c-.597.133-1.127-.133-1.26-.464z" fill="#ef8f6f"/><path d="M330.64 166.767h-69.903l-4.44 67.385 45.85 63.012 28.49-130.397z" fill="#8b54b2"/><path d="M332.43 169.284h-69.903l-4.506 67.385 45.918 63.012 28.49-130.397z" class="T"/><path d="M331.767 172.464H261.93l-25.444 117.808 66.855 12.6 28.425-130.398z" fill="#e2d5af"/><path d="M268.225 178.03c12.457-.33 22.86-1.192 22.86-4.04 0-.133 0-.266-.067-.332h-26.834l4.04 4.373z" fill="#f7f0da"/><path d="M262.527 171.87c8.548 1.325 12.722 5.698 11.53 11.264-1.524 6.957-11.53-11.264-11.53-11.264z" fill="#3b2d51"/><path d="M340.05 182.138h-69.903l-28.425 130.397h69.836l28.492-130.397z" class="T"/><path d="M353.632 182.138H283.73l-28.425 130.397h69.837l28.49-130.397z" fill="#4c396b"/><path d="M273.79 191.15l-24.98 114.43h61.29l24.98-114.43h-61.29zm35.316 112.574h-57.9l23.588-110.653h57.9l-23.588 110.653z" class="C"/><path d="M274.188 166.833l1.856 2.252-.464 3.247 8.15 9.806h10.734l2.517-15.305h-22.793z" class="F G"/><path d="M388.353 150.07h-72.95c-2.253 0-4.108 1.79-4.24 4.042l-9.276 154.317c-.133 2.45 1.79 4.505 4.24 4.505H384.5c2.32 0 4.24-1.855 4.306-4.174l3.843-154.317c.067-2.385-1.92-4.373-4.306-4.373z" fill="#f24c5c"/><path d="M346.477 150.07h-28.624c-.86 0-1.39 1.79-1.126 4.042L333.5 308.428c.265 2.45 1.325 4.505 2.253 4.505h30.744c.928 0 1.392-1.855 1.127-4.174L348.73 154.442c-.332-2.385-1.325-4.373-2.253-4.373z" fill="#d63444"/><path d="M382.323 307.632H319.5v-.53l.132-150.142h66.26a4.46 4.46 0 0 1 3.18 1.325c.862.862 1.326 1.988 1.26 3.247l-3.51 141.794c-.133 2.385-2.054 4.306-4.506 4.306zm-61.753-1.06h61.82c1.856 0 3.38-1.457 3.38-3.313l3.51-141.793c0-.928-.33-1.79-.994-2.452s-1.524-1.06-2.45-1.06h-65.2l-.066 148.618z" class="C"/><path d="M316.793 150.07h-23.257L290.753 313h25.908l.132-162.93z" fill="#d63444"/><path d="M293.536 150.07l-.066 2.717 20.142.2L315.07 313h1.6l.133-162.93h-23.257z" fill="#b72036"/><path d="M361.783 208.907l17.492 52.742c0 1.79-24.25 44.062-24.25 44.062l-.597-.2 12.258-42.737-10.336-25.443 5.433-28.425z" fill="#6d3e4c"/><path d="M359.464 221.297l-6.825 12.656 13.318 28.36-11.463 43.2.133.067c4.572-10.47 16.697-41.744 16.697-43.2 0-1.26-6.692-25.907-11.86-41.08z" fill="#592e3c"/><path d="M338.857 215.334c7.42 35.45 29.42 95.81 29.42 95.81h.662l-8.746-77.06 4.373-4.108-2.45-20.872c-.067.066-24.78-1.26-23.257 6.228z" fill="#6d3e4c"/><g fill="#592e3c"><path d="M342.104 224.345c10.203-9.475 13.848-9.2 16.763-8.083s5.5.265 5.5.265l-1.39-5.765-20.54-1.06-.33 14.643z"/><path d="M342.767 210.83c-2.65.927-4.307 2.385-3.9 4.505 7.42 35.45 29.418 95.8 29.418 95.8h.597c-3.512-12.4-19.348-68.577-26.106-100.315zm17.7 24.382l-6.096-2.32 6.162-.133 5.3-4.373-5.367 6.825z"/></g><path d="M354.23 158.484c11.53 9.41 15.77 27.298 15.77 27.298l22.13-.993 1.126 5.234s-18.486 10.734-28.226 7.82c-9.807-2.916-10.8-39.358-10.8-39.358z" class="E"/><path d="M392.925 190.156c4.704 1.26 7.95.132 9.276-1.458s3.51-5.698 1.325-5.897-11.595 3.578-11.595 3.578l.994 3.777z" class="D"/><path d="M371.788 189.758c-6.493-1.92-3.91-17.956-17.56-31.274 0 0 .994 36.442 10.734 39.358 9.807 2.915 28.227-7.82 28.227-7.82l-.597-2.982c-6.228 1.392-14.047 4.77-20.805 2.717z" fill="#ff9239"/><path d="M394.515 190.885c0 .2-3.114-6.692-3.114-6.692l-6.096.464.73 4.572 1.855.066-2.253 1.26 2.385 3.776 6.494-3.445z" class="C"/><path d="M340.05 154.575c-9.607 12.192-6.56 28.756-4.306 36.575 2.252 7.885-1.392 23.72 4.638 30.744 0 0 8.746-9.54 14.842-8.746s7.62 3.91 9.2 2.518-.464-20.408.596-25.71c.994-5.234-.53-19.414-7.29-27.63-6.824-8.083-17.69-7.752-17.69-7.752z" class="E"/><path d="M338.79 160.737c-1.06 0-2.12.53-3.048 1.524-4.108 10.734-1.79 22.594.066 28.89 2.253 7.885-1.39 23.72 4.638 30.744 0 0 4.24-4.638 8.88-7.156a137.29 137.29 0 0 0 .729-14.245c-.133-21.932-5.102-39.756-11.264-39.756z" fill="#ff6d2c"/><path d="M346.742 145.166c-6.427-10.138-3.7-14.246-3.7-14.246s-3.512-5.3.066-10.336c0 0 .265-7.487 9.276-9.144 0 0 5.897-6.36 10.6-2.716 0 0 5.5-4.374 8.084 4.174 2.584 8.48-.663 8.415-.663 8.415s5.102 11-3.18 13.715c-8.35 2.717-20.474 10.138-20.474 10.138z" class="K"/><path d="M366.62 135.16s-6.36-.33-8.282-6.162c0 0-5.83-4.638-1.922-12.854 0 0-.994-5.168 1.26-8.216-2.982.927-5.367 3.51-5.367 3.51-8.945 1.657-9.276 9.144-9.276 9.144-3.578 4.97-.066 10.337-.066 10.337s-2.783 4.108 3.7 14.245c0 0 11.662-7.1 19.944-9.94v-.066z" class="L"/><path d="M352.772 157.16l-12.788-2.584c10.005 4.77 19.612 13.583 19.612 13.583s-3.246-8.88-6.824-11z" class="C"/><path d="M340.05 154.575l9.276-22.86 8.084 10.866-3.446 16.3-13.914-4.307z" class="B"/><path d="M409.158 146.756l-20.142 37.635-32.93 2.982.132.596h44.858L424 150.4l-14.842-3.644z" fill="#dbccad"/><path d="M389.016 184.39l-32.93 2.982.132.596h44.858l-10.27-1.458-1.79-2.12z" fill="#d1bb93"/><path d="M356.217 187.97h44.857l-10.27-1.457-34.587 1.457z" fill="#ba9e70"/><path d="M413.465 147.816l-22.727 38.696 10.336 1.457L424 150.4l-10.535-2.584z" fill="#efe3ca"/><path d="M413.464 147.816l-12.4 40.153L424 150.4l-10.535-2.584z" fill="#f9f0e1"/><path d="M336.14 193.005c1.39 8.216-1.326 22.13 4.108 28.756 4.108-16.962 10.535-22.793 24.515-21.6-.132-3.843-.132-7.42.133-9.542-7.686-1.06-20.673-1.92-28.756 2.386z" fill="#ff6d2c"/><path d="M348.133 185.98c-.994-15.306-5.764-32.135-8.282-31.274-3.048.994-8.084 7.42-8.945 16.565-.795 8.415 4.903 27.1 9.144 30.545s28.292-13.65 34.72-16.432l1.127-6.957c-8.88-.2-20.275 3.445-27.763 7.553z" class="E"/><g fill="#ff9239"><path d="M349.923 185.054c7.487-3.114 17.426-5.5 25.244-4.903l-1.192 5.632.795-.398 1.126-6.957c-8.216-.2-18.552 2.915-25.973 6.626z"/><path d="M342.502 196.12c-4.24-3.445-9.144-24.118-8.282-32.533.132-1.524.397-2.915.728-4.24-1.92 2.915-3.578 7.023-4.108 11.993-.795 8.414 4.108 29.087 8.283 32.533 4.24 3.445 29.154-15.637 35.58-18.487l.73-4.306c-8.68 4.77-29.154 18.154-32.93 15.04z"/></g><path d="M377.155 313H368.2s-1.26-2.186.596-3.114c2.385-1.193 8.35 3.114 8.35 3.114zm-16.895 0h-5.035l-2.253-6.957s2.12-3.776 3.18-1.8c.663 1.26.265 4.97.265 6.56a26.82 26.82 0 0 0 3.843 2.186z" fill="#f2e9ce"/><path d="M264.05 169.35c-1.325 4.04 8.48 11.727 10.933 12.787l-7.355 1.723-7.355-10.866.53-6.295 3.247 2.65z" class="T"/><path d="M271.803 184.126c-7.62-4.373-10.203-11.727-11-17.36L232.38 297.164c1.193 6.56 4.042 11.993 9.608 15.504l29.816-128.542z" fill="#503d70"/><path d="M308.047 215.2h-10.933l-1.26 86.8h12.126l.066-86.8zm-10.467-53.734h10.866l.795-3.976h-12.125l.464 3.976zm0 8.812h10.866l.795-4.042h-12.125l.464 4.042z" class="C"/><path d="M384.51 179.554c.2 2.12-.33 3.446-.795 3.71s-2.054-.53-2.32-1.193c-.265-.73 2.982-4.373 3.114-2.518z" class="D"/><g class="B"><path d="M383.98 178.295c-.132 3.976-.53 4.307-1.126 4.705-.597.33-2.452-.133-2.65-.73s.133-2.187.597-2.054a7.82 7.82 0 0 0 1.06.199l2.12-2.12z"/><path d="M382.39 177.17c-.795-1.6-7.222-1.458-10.6 1.723l2.12 5.698c2.916-1.26 5.5-3.512 7.29-3.313 1.855.132 2.054-2.518 1.192-4.108z"/><path d="M381.66 179.156c-.133 3.976-.53 4.307-1.127 4.705-.596.33-2.45-.133-2.65-.73s.133-2.187.596-2.054a7.82 7.82 0 0 0 1.061.199l2.12-2.12z"/><path d="M381.13 176.374c2.12.464 3.645 1.524 4.373 2.518s1.59 3.512 1.657 4.108c0 .596-1.193 1.325-1.458.53-.265-.73-1.06-3.048-1.325-3.114s-2.385-1.26-2.518-1.26-.73-2.783-.73-2.783z"/></g><path d="M375.896 185.12c0 .265-3.114-7.885-3.114-7.885l-6.096.53.73 5.3 1.855.066-2.253 1.524 2.386 4.44 6.493-3.976zm-36.774-30.214l1.8-2.982 13.98 5.235-.862 2.65-14.908-4.903z" class="C"/><path d="M354.694 158.948c-.067-.133-.2-.2-.266-.332l.464-1.457-.53-.2 1.524-7.355c-2.32-4.373-5.566-8.68-9.144-11.53l-5.698 13.98-.2-.066-1.79 2.915.2.066c-1.26.596-2.783 2.054-4.24 4.174 8.017-.33 19.215 7.686 23.256 5.235.332-.2.53-.464.73-.795-1.192-1.723-2.65-3.247-4.306-4.638z" class="F G"/><path d="M350.85 125.023c-4.903 11.993-4.837 23.19-4.77 24.052s7.885 6.692 10.535 7.222c0 0 9.54-12.06 11.53-22.13s-.596-12.59-3.578-13.186c-3.048-.662-11.794-.596-13.716 4.042z" class="B"/><path d="M349.46 140.528c6.626-15.902 8.48-23.522 2.85-20.673-5.632 2.916-5.235 18.354-5.235 18.354l2.386 2.32z" class="L"/><path d="M349.392 135.227c.133-3.777-4.04-7.09-4.837-3.048s1.79 10.072 2.783 8.813c1.06-1.26 1.988-4.506 2.054-5.765z" class="B"/><path d="M348.464 135.426c.133-2.385-2.517-4.506-3.047-1.922-.464 2.518 1.126 6.295 1.722 5.566.73-.795 1.325-2.85 1.325-3.644z" class="R"/><path d="M348.068 137.016c.066-1.524-1.657-2.915-1.988-1.26s.73 4.175 1.126 3.644.795-1.855.862-2.385z" class="B"/><path d="M365.295 136.884c.464-.994.33-2.054-.265-2.253s-1.39.464-1.855 1.458-.33 2.054.265 2.252c.596.265 1.458-.397 1.855-1.457z" fill="#4f3131"/><path d="M361.055 133.637c.862-.33 1.26 10.668.73 11.86-.265.596-3.975-1.458-3.975-1.458s3.048-10.337 3.246-10.403z" class="B"/><path d="M361.32 134.035c.397 2.32.795 10.204.33 11.197-.2.464-2.518-.728-3.512-1.26-.066.2-.132.332-.132.332s3.91 2.385 4.174 1.79c.464-1.06-.132-11.463-.86-12.06z" class="S"/><path d="M359.133 134.3c.53-.994.464-1.988-.066-2.253s-1.458.33-1.988 1.325-.53 1.988.066 2.253 1.458-.33 1.988-1.325z" fill="#4f3131"/><path d="M364.367 127.078c-.332-.862-5.5-1.193-6.825-1.06-1.26.133-1.524 1.06-1.6 2.054s5.433 3.115 7.355 1.988c.927-.53 1.325-2.12 1.06-2.98zm.993 4.704c-.2 1.722 2.717 2.584 3.38 1.855s1.26-1.524.994-2.253c-.33-.73-2.186-3.048-2.915-2.584s-1.4 2.187-1.458 2.982z" class="K"/><path d="M355.5 148.745c.067-.2-.33-.597-.994-.994s-1.192-.53-1.325-.332c-.066.2.332.597.994.994s1.26.53 1.325.332zm-3.248-5.037l.2-.33c1.656 2.32 2.783 3.7 6.56 5.632l-.398.265c-2.253-.86-5.963-3.9-6.36-5.566z" class="S"/><g class="D"><path d="M403.26 186.512c1.79-1.922 3.313-5.83 2.915-7.223-.464-1.39-1.656-.86-1.988-.265s-.728 4.903-.993 5.897c-.2 1.06.066 1.59.066 1.59z"/><path d="M401.936 188.433c1.524-1.458 2.385-4.373 1.722-5.367-.662-1.06-1.79-.663-2.054-.2s.067 3.644 0 4.44.332 1.127.332 1.127z"/></g><path d="M142.996 192.674h66.79L219.194 313H143.79l-.795-120.326z" fill="#b7bf47"/><path d="M149.754 259.53l25.046-66.79h10.47l-4.042 11.993 3.645-.73 3.313 59.235h11.595l6.096 23.19h4.97l4.373 14.775 1.855 11.662h-74.077l6.758-53.338z" fill="#999b32"/><path opacity=".336" d="M145.514 196.848l59.567-.53 6.626 112.176-65.464.33-.73-111.977zm58.705.397l-57.777.53.73 110.055 63.542-.33-6.494-110.255z" fill="#fff9f1"/><path d="M209.387 192.674h16.83L233.638 313H215.88l-6.494-120.326z" fill="#a5a53a"/><path opacity=".42" d="M216.278 211.16h8.283l5.102 84.878h-8.68l-4.705-84.878z" fill="#fff9f1"/><path d="M210.78 192.674L217.272 313h-2.518l-6.493-120.326h2.518z" fill="#999b32"/><path d="M141.87 247.47c-20.673 6.56-71.76 15.173-71.76 15.173l.265.86h79.51l-8.017-16.034z" class="J"/><path d="M146.706 255.62l3.18 7.884h-79.51l76.33-7.884z" fill="#602540"/><path d="M145.316 235.874c16.233-9.54 17.624-11.794 20.474-17.757s5.3-18.22-.862-18.62-17.293 20.276-22.13 19.878c-4.77-.398-6.427 21.8 2.518 16.498z" class="C"/><path d="M141.472 219.575c.994 1.922 4.837 3.91 7.023 1.79 9.078-9.01 10.27-17.294 14.975-19.81.53-.265 4.373.397 4.638-.265 1.855 3.843-.066 11.992-2.187 16.432-2.85 5.963-4.24 8.216-20.474 17.757-8.216 4.77-7.686-12.59-3.975-15.902z" class="U"/><path d="M159.23 205.462c3.578-6.494 8.283-9.012 8.283-9.012s12.787-3.975 17.028 6.76c4.24 10.8-10.204 44.128-12.655 50.356-2.452 6.295-5.235 8.283-19.215 7.29l-11.795-12.788c13.252-10.6 16.035-38.364 18.354-42.604z" class="C"/><path d="M152.537 229.25c-.994 7.222 7.222 14.577 10.27 14.378 4.837-.398 11.33-18.486 16.565-33.726 1.458-4.174 2.12-7.885 2.253-11.13 1.192 1.06 2.186 2.517 2.915 4.44 4.24 10.8-10.204 44.128-12.655 50.357-2.452 6.294-5.235 8.282-19.215 7.288l-11.795-12.788c5.367-4.307 9.078-11.53 11.662-18.817z" class="U"/><path d="M153.928 215.732l-22.263-2.187-22.263 3.512 23.257 1.325 21.468-1.79-.2-.86z" class="V"/><path d="M128.353 214.075l3.312-.53 22.263 2.187.2.86-3.38.265-22.395-2.783z" fill="#d3bb92"/><path d="M126.033 178.494l5.632 35.05-22.263 3.512-7.288-31.274 23.92-7.29z" class="C"/><path d="M126.033 178.494l-16.63 38.563-7.288-31.274 23.92-7.29z" fill="#f4e8ce"/><path d="M124.112 179.024l1.922-.53 5.632 35.05-2.253.398-5.3-34.92z" class="V"/><path d="M167.777 236.735c13.98-12.655 14.842-13.98 16.498-20.407 1.59-6.427 1.458-18.95-4.638-18.09s-12.655 22.395-17.492 22.992c-4.837.662-2.054 22.462 5.632 15.504z" class="C"/><g class="U"><path d="M162.145 221.297c3.048-.397 6.824-9.2 10.667-15.77 2.253-3.843-5.3 15.438-10.137 16.034-3.777.464-2.916 14.047 1.39 16.432-4.77-1.523-5.897-16.233-1.92-16.697z"/><path d="M167.71 226.93c13.98-12.655 14.842-15.173 16.432-21.534.133-.596.265-1.325.398-1.988.927 3.976.53 9.41-.332 12.987-1.6 6.427-2.517 8.88-16.432 21.534-6.626 5.963-9.607-10.005-7.288-15.107 1.26 4.24 3.7 7.29 7.222 4.108z"/></g><path d="M142.4 220.237c-8.548-3.313-26.172-2.717-26.172-2.717l2.186 3.048s20.408 17.16 25.377 15.306c5.168-1.922 2.12-14.312-1.39-15.637z" class="D"/><path d="M167.91 220.436c-4.638-7.885-14.974-15.04-14.974-15.04l-4.705 3.246s10.8 28.756 15.638 29.817 5.897-14.91 4.04-18.023z" class="B"/><path d="M164 228.72c2.32.53 3.777-2.916 4.44-6.958 1.126 4.903-.2 17.625-4.506 16.698-4.837-1.06-15.637-29.817-15.637-29.817S160.753 228 164 228.72z" class="D"/><path d="M146.176 156.695l-.132 1.126c0-.662.132-1.126.132-1.126z" fill="#ce5230"/><path d="M146.044 157.888c0 .596.066 1.325.464 2.12.86 1.723 5.565 2.386 3.246-5.234s4.24-8.614 4.24-8.614-4.174 3.578.662 5.566 2.518-4.24 7.42-5.036 6.428 6.692 6.428 6.692 1.987-4.57 8.878-1.987c6.89 2.65 2.386 8.083 2.386 8.083s6.427 1.06 6.9 9.608-4.24 5.367-4.24 5.367c.795 5.234-3.71 7.62-3.71 7.62s-1.192 2.187-1.987 7.753l-19.547-17.9c-12.324 3.38-11.595-10.005-11.13-14.047z" class="K"/><path d="M160.024 169.152c8.68-4.108 16.764-9.144 15.107-17.757l-.198-.795c.728.132 1.6.33 2.517.662 6.89 2.65 2.386 8.084 2.386 8.084s6.427 1.06 6.89 9.607-4.24 5.367-4.24 5.367c.795 5.235-3.7 7.62-3.7 7.62s-1.193 2.187-1.988 7.752l-19.546-17.9c-6.494 1.79-9.343-.993-10.602-4.704 2.65 3.777 5.036 6.03 13.384 2.054z" class="L"/><path d="M174.733 179.223l4.373 17.824c-4.44.662-8.414 3.048-11.992 6.957l-2.054-19.083 9.673-5.698z" class="B"/><path d="M130.208 218.978l5.235-2.32c11.33 3.048 29.684 40.22 29.684 40.22s-4.638 6.56-9.873 6.56h-13.252l-6.824-31.87-14.113 30.744-1.193-.463c0-.067 7.554-36.51 10.336-42.87z" class="J"/><path d="M135.84 221.032l12.987 8.283c8.547 11.86 16.366 27.563 16.366 27.563s-4.64 6.56-9.873 6.56h-13.252l-6.824-31.87-14.113 30.744-.597-.198 15.306-41.08z" fill="#602540"/><path d="M198.654 264.034h-57.182c-10.137 0-13.053 21.534-2.915 21.534h57.18c-5.168-2.915-4.44-18.088 2.916-21.534z" fill="#ceb995"/><g class="E"><path d="M142.333 262.975H84.49c-11.463-.332-12.788 23.323-1.26 23.654h57.844c-9.873-.265-8.614-23.92 1.26-23.654z"/><path d="M199.184 262.974H85.948l-.464 2.253H198.72c.73 0 1.392-.53 1.524-1.126.066-.597-.397-1.127-1.06-1.127zM198 284.707H84.954l-.53 1.922H197.46c.73 0 1.392-.464 1.524-.994.2-.53-.265-.928-.994-.928z"/></g><g fill="#ef7335"><path d="M199.648 262.974H139.22l-.265 2.253h60.428c.397 0 .728-.53.795-1.126s-.133-1.127-.53-1.127zm-.598 21.733h-60.295l-.265 1.922h60.295c.398 0 .73-.464.795-.994s-.198-.928-.53-.928z"/><path d="M144.918 264.763H87.074c-11.463-.265-12.788 19.878-1.26 20.143h57.844c-13.98-.927-12.722-21.07 1.26-20.143z"/></g><path d="M143.393 265.492l-51.085.265c-10.27-.265-11.397 18.552-1.126 18.818h51.75c-8.813-.266-8.35-19.348.463-19.083z" class="I"/><path d="M136.17 268H95.488c-8.084-.2-8.945 14.047-.86 14.246h40.683c-6.957-.2-6.096-14.38.86-14.246z" class="C"/><path d="M152.206 286.23h-81.63c-5.036 0-5.102 26.77-.066 26.77h81.63c-6.56 0-6.494-26.77.066-26.77z" fill="#5e85bc"/><path d="M210.91 289.412h-58.573c-10.336 0-10.402 20.474-.066 20.474h58.573c-5.7-2.783-7.024-17.228.066-20.474z" class="I"/><path d="M166.054 305.777c-8.018 0-7.95-12.324.066-12.324h41.08c-1.6 3.644-1.325 8.68.265 12.324h-41.41z" class="C"/><g fill="#4b6f9b"><path d="M210.315 286.23h-67.518v4.704h67.518c.86 0 1.6-1.06 1.6-2.385 0-1.26-.73-2.32-1.6-2.32zm-.065 22.066h-67.52V313h67.518c.86 0 1.6-1.06 1.6-2.385 0-1.26-.73-2.32-1.6-2.32z"/><path d="M152.14 313h-11.264c-3.9-5.036-3.843-21.667.066-26.77h11.264c-6.56 0-6.626 26.77-.066 26.77z"/></g><path d="M73.955 299.748c0-5.102.86-11 3.18-11h58.242v.994c-1.79 0-3.114 4.307-3.114 10.005 0 5.632 1.325 9.873 3.048 9.873v.993H77.07c-2.32-.066-3.114-5.897-3.114-10.866zm57.446-.066c0-4.108.663-8.216 2.187-10.005H77.136c-1.26 0-2.32 4.505-2.32 10.005 0 6.162 1.126 9.806 2.253 9.806h56.453c-1.458-1.723-2.12-5.764-2.12-9.806z" class="I"/><path d="M110.396 262.908h11.13s1.524-1.8-.397-2.783c-1.988-.927-10.734 2.783-10.734 2.783zM63.95 254.56l5.235 9.806s2.32.53 2.253-1.656-7.487-8.15-7.487-8.15z" fill="#f4e6c9"/><path d="M167.048 212.02c-4.24-.928-5.7-5.367-5.765-11 .73-.53 1.458-.994 2.12-1.26 1.127-1.192 2.187-2.054 2.916-2.584l-1.325-12.324 9.74-5.698 4.373 17.823h-.066c.728.332 1.457.795 2.12 1.326 1.325.33 2.253 1.523 2.915 3.047-6.758 1.392-10.932 11.993-17.028 10.668z" class="F G"/><path d="M173.077 164.977c3.247 13.053 1.193 25.576 1.193 25.576s-8.88 5.367-14.312 5.433c0 0-5.036-20.87-3.048-29.154s15.504-4.44 16.167-1.855z" class="B"/><path d="M171.885 183.265c-.994-11.66-1.723-19.28 1.855-17.492 3.578 1.723 2.32 14.908 2.32 14.908l-4.174 2.584z" class="L"/><path d="M157.507 177.235c-.067-.795.132-1.524.53-1.524.397-.066.795.596.86 1.392s-.132 1.524-.53 1.524c-.33.066-.73-.597-.86-1.392zm6.095-.86c-.066-.795.133-1.524.53-1.524.398-.066.796.597.862 1.392s-.133 1.524-.53 1.524c-.398.066-.795-.597-.862-1.392z" fill="#633d37"/><path d="M152.935 177.832l1.656 5.963 13.186-1.325.265-5.367 9.607-1.458 2.32 2.916 1.922-1.723-2.982-2.187-25.973 3.18z" class="C"/><g class="B"><path d="M157.77 178.03l-3.975.53 1.26 4.44 2.915-.397-.2-4.572z"/><path d="M157.77 177.898l-3.975.53 1.26 4.506 2.915-.398-.2-4.638z"/></g><path d="M157.838 182.536l-.994.132-2.98-4.24 1.26-.133 2.716 4.24z" fill="#ffc69f"/><path d="M174.203 176.904c1.127-3.114 5.5-2.45 4.705-.132s-3.976 6.56-4.837 5.897-.2-4.903.132-5.765zm-15.77 1.79c-.132-.066-2.054 7.95-2.186 8.68s4.506-.73 4.506-.73l-2.32-7.95z" class="B"/><path d="M175.065 177.7c.663-1.79 3.114-1.392 2.717-.066-.464 1.325-2.32 3.776-2.783 3.38s-.133-2.783.066-3.313z" class="R"/><path d="M174.933 179.3c.397-1.126 1.988-.86 1.723-.066-.266.86-1.458 2.385-1.8 2.12-.332-.198-.067-1.722.066-2.054zm-15.77-1.458l1.325 4.836 6.295-.795.33-4.903-7.95.862z" class="B"/><path d="M159.958 177.765l2.65-.33 4.042 4.44-2.65.332-4.042-4.44z" fill="#ffc69f"/><path d="M158.434 178.694c.067.066.2.33.332.795l-1.723 7.288c-.066.53 2.32-.066 3.644-.464a1.15 1.15 0 0 1 .067.332s-4.64 1.39-4.506.728c.132-.728 2.054-8.812 2.186-8.68z" class="D"/><path d="M156.58 179.687c-.398.066-.862-.53-1.06-1.4l1.8-.265c0 .927-.265 1.6-.73 1.656zm7.354-.397c-.53.067-.994-.728-1.126-1.855l1.987-.2c0 1.127-.397 1.988-.86 2.054z" fill="#633d37"/><path d="M169.102 173.658c-3.9.2-8.415-.596-8.415-.596l-.332-3.512s7.686 1.325 8.35 1.988.398 2.12.398 2.12zm-14.445.927c2.253-.132 4.77-1.4 4.77-1.4l-.33-3.512s-4.24 2.054-4.506 2.783c-.265.663.066 2.12.066 2.12z" class="K"/><path d="M160.025 188.035l7.023-1.855s.332 4.307-3.18 4.97-3.843-3.115-3.843-3.115z" fill="#472922"/><path d="M160.885 189.294c-.33-.662-.33-1.258-.33-1.258l6.03-1.59s.066.597-.133 1.392l-5.566 1.457z" fill="#fff6e3"/><path d="M115.167 200.757c.862-.132 1.392-1.523 1.127-3.047-.133-.796-.398-1.458-.795-1.922.596.33 1.126 1.26 1.325 2.385.265 1.524-.265 2.916-1.127 3.048-.463.067-.86-.198-1.26-.596.2.133.464.2.73.132z" class="V"/><path d="M114.306 194.132c.862-.133 1.723.662 2.32 1.92-.53-.795-1.192-1.26-1.855-1.193-1.193.2-1.855 2.12-1.524 4.307.133.663.265 1.193.53 1.723-.397-.663-.795-1.458-.928-2.452-.397-2.186.266-4.108 1.458-4.306z" fill="#d3bb92"/><path d="M138.49 206.456c-.266 1.92.33 3.18.927 3.38.53.2 2.385-.53 2.717-1.127s-3.446-3.975-3.644-2.252z" class="D"/><g class="B"><path d="M139.087 205.33c.132 3.644.596 3.975 1.325 4.306s2.85-.132 3.114-.728-.132-1.988-.73-1.856-1.26.133-1.26.133l-2.45-1.855z"/><path d="M141.008 204.27c.994-1.458 8.415-1.392 12.4 1.457l-4.042 4.042c-1.325-2.12-4.77-1.988-6.957-1.79s-2.385-2.253-1.39-3.7z"/><path d="M140.677 206.058c.133 3.644.597 3.976 1.325 4.307s2.85-.133 3.115-.73-.133-1.988-.73-1.855-1.26.132-1.26.132l-2.452-1.855z"/><path d="M142.532 203.54c-2.517.464-4.306 1.39-5.1 2.32-.862.928-1.856 3.247-1.922 3.777s1.39 1.193 1.723.464 1.26-2.783 1.524-2.916c.265-.066 2.783-1.192 2.915-1.126s.86-2.518.86-2.518z"/></g><g class="D"><path d="M120.866 222.357c-5.566-2.385-8.614-1.325-9.94-5.234l8.48.33 1.458 4.903z"/><path d="M114.505 219.11c-1.856-1.06-2.32-2.584-2.32-3.578s-1.524-1.26-1.524-.265c-.067.928.33 2.12.728 2.717s3.115 1.126 3.115 1.126z"/><path d="M116.625 219.3c-1.855-1.06-2.32-2.584-2.32-3.578s-1.524-1.26-1.524-.265.332 2.12.73 2.716 3.114 1.127 3.114 1.127z"/><path d="M118.878 219.51c-1.856-1.06-2.32-2.585-2.32-3.578s-1.524-1.26-1.524-.265c-.067.927.33 2.12.728 2.716s3.115 1.127 3.115 1.127z"/></g><g fill="#ff513f"><path d="M219.162 133.394l5.135-.65 4.836 5.686-5.554-3.982-3.672.912-.745-1.966zm.19 2.446l3.9.856 3.1 6.784-4.268-5.36-5.07-.888 2.347-1.393zm-15.673-1.923l-4.654-2.272-6.437 3.8 6.568-1.95 3.2 2.048 1.333-1.625zm-.163 2.34l-3.96.452-3.767 6.455 4.777-4.907 5.165-.382-2.215-1.618zm16.646-6.34l-3.955-.005.23 1.053 4.706-.027-.98-1.02z"/><path d="M220.162 129.917l.075-3.734.9.003.007 4.752-.98-1.02zm-19.902 1.053l2.073-4.22.785.4-1.587 3.333-1.27.477z"/><path d="M200.26 130.97l4.02 2.183.66-.837-3.384-1.83-1.295.484zm22.982 5.727l-1.17 1.425-5.07-.888 2.347-1.395 3.9.858zm-17.512 1.177l-2.214-1.618-3.96.452 1 1.548 5.165-.382zm-2.05-3.954l-1.334 1.625-3.2-2.048-.13-1.85 4.655 2.273zm15.48-.528l.745 1.966 3.672-.912.717-1.703-5.134.65z"/><path d="M206.647 130.212l9.766-1.14 5.458 4.174-4.356 5.327-9.767 1.14-5.434-4.18 4.333-5.32zm14.483-3.7l5.502-3.725-3.625-7.26-1.865 7.906-.392-5.572-3.362 4.97 2.843 3.676.9.003zm-18.68.62l-2.407-4.42 4.968-3.63-1.497 5.984 2.206-3.632.515 4.513-3.188 1.497-.597-.312z"/></g><g class="M"><path d="M212.658 116.955l.55 1.18-9.893 4.574-.548-1.18 9.892-4.574z"/><path d="M209.815 114.942l1.553 3.342-6.73 3.11-1.552-3.343 6.73-3.1z"/></g><path d="M221.87 133.248l-19.524 2.302 5.402 4.163 9.766-1.14 4.356-5.326z" fill="#aa3528"/><path d="M209.453 131.262l-1.624-3.973.498-2.2 1.26 1.747-.134 4.436zm4.562-.455l-1.488-4.157.598-2.016 1.253 1.93-.363 4.243z" class="M"/></svg>