<svg xmlns="http://www.w3.org/2000/svg" xmlns:xlink="http://www.w3.org/1999/xlink" width="125" height="140" fill="none" xmlns:v="https://vecta.io/nano"><ellipse opacity=".6" cx="62.5" cy="127.5" rx="62.5" ry="12.5" fill="#001e20"/><path d="M63.78 36.62h43.262l2.748 41.704-28.377 38.998-17.633-80.7z" fill="#8b54b2"/><path d="M62.672 38.177h43.262l2.788 41.704-28.417 38.998-17.633-80.702z" fill="#634c84"/><path d="M63.082 40.146h43.22l15.746 72.9-41.375 7.79-17.592-80.7z" fill="#e2d5af"/><path d="M102.407 43.59c-7.71-.205-14.147-.738-14.147-2.5 0-.082 0-.164.04-.205h16.608l-2.502 2.706z" fill="#f7f0da"/><path d="M105.934 39.777c-5.3.82-7.874 3.527-7.136 6.97.943 4.306 7.136-6.97 7.136-6.97z" fill="#3b2d51"/><path d="M57.956 46.133h43.262l17.592 80.7H75.59l-17.633-80.7z" fill="#634c84"/><path d="M49.55 46.133h43.262l17.592 80.7h-43.22l-17.633-80.7z" fill="#4c396b"/><path d="M98.962 51.7l15.46 70.82H76.49L61.03 51.7h37.93zm-21.856 69.67h35.84l-14.6-68.48h-35.84l14.598 68.48z" fill="#eaddbe"/><path opacity=".6" d="M98.716 36.66l-1.148 1.394.287 2.01-5.044 6.07h-6.643L84.6 36.66h14.106z" fill="#c94343"/><path d="M28.062 26.286H73.2c1.394 0 2.542 1.107 2.624 2.502l5.74 95.505a2.63 2.63 0 0 1-2.624 2.788H30.44a2.67 2.67 0 0 1-2.665-2.583l-2.378-95.505c-.04-1.476 1.19-2.707 2.665-2.707z" fill="#f24c5c"/><path d="M53.978 26.286h17.715c.533 0 .86 1.107.697 2.502l-10.375 95.505c-.164 1.517-.82 2.788-1.394 2.788H41.594c-.574 0-.86-1.148-.697-2.583l11.687-95.505c.205-1.476.82-2.707 1.394-2.707z" fill="#d63444"/><path d="M31.793 123.8h38.874v-.328l-.082-92.922H29.58a2.76 2.76 0 0 0-1.968.82c-.533.533-.82 1.23-.78 2.01l2.173 87.754c.082 1.476 1.27 2.666 2.788 2.666zm38.218-.657h-38.26c-1.148 0-2.09-.902-2.09-2.05L27.487 33.34c0-.574.205-1.107.615-1.517s.943-.656 1.517-.656h40.35l.04 91.978z" fill="#eaddbe"/><path d="M72.35 26.286h14.393l1.722 100.835H72.43L72.35 26.286z" fill="#d63444"/><path d="M86.743 26.286l.04 1.68-12.466.123-.902 99.03h-.984L72.35 26.286h14.393z" fill="#b72036"/><path d="M44.506 62.7L33.68 95.34c0 1.107 15.008 27.27 15.008 27.27l.37-.123-7.586-26.45 6.397-15.747L44.506 62.7z" fill="#6d3e4c"/><path d="M45.94 70.368l4.224 7.832-8.242 17.55 7.094 26.736-.082.04C46.105 116.05 38.6 96.694 38.6 95.792c0-.78 4.142-16.034 7.34-25.424z" fill="#592e3c"/><path d="M58.694 66.678c-4.593 21.94-18.207 59.295-18.207 59.295h-.4l5.413-47.7-2.706-2.542L44.3 62.823c.04.04 15.337-.78 14.393 3.855z" fill="#6d3e4c"/><g fill="#592e3c"><path d="M56.685 72.254c-6.315-5.864-8.57-5.7-10.375-5.003s-3.404.164-3.404.164l.86-3.568 12.712-.656.205 9.063z"/><path d="M56.275 63.9c1.64.574 2.665 1.476 2.42 2.788-4.593 21.94-18.207 59.295-18.207 59.295h-.37c2.173-7.668 11.974-42.442 16.157-62.084zm-10.95 15.1l3.773-1.435-3.814-.082-3.28-2.706 3.322 4.224z"/></g><path d="M49.18 31.494c-7.135 5.823-9.76 16.895-9.76 16.895l-13.696-.615-.697 3.24s11.44 6.643 17.47 4.84c6.07-1.804 6.684-24.358 6.684-24.358z" fill="#ffb94a"/><path d="M25.232 51.095c-2.91.78-4.92.082-5.74-.902s-2.173-3.527-.82-3.65 7.176 2.214 7.176 2.214l-.615 2.337z" fill="#ff9566"/><path d="M38.313 50.85c4.02-1.19 2.42-11.113 10.867-19.355 0 0-.615 22.554-6.643 24.358-6.07 1.804-17.47-4.84-17.47-4.84l.37-1.845c3.855.86 8.693 2.952 12.876 1.68z" fill="#ff9239"/><path d="M24.248 51.546c0 .123 1.927-4.142 1.927-4.142l3.773.287-.45 2.83-1.148.04 1.394.78-1.476 2.337-4.02-2.132z" fill="#eaddbe"/><path d="M57.956 29.074c5.946 7.545 4.06 17.797 2.666 22.636-1.394 4.88.86 14.68-2.87 19.027 0 0-5.413-5.905-9.185-5.413s-4.716 2.42-5.7 1.558.287-12.63-.37-15.91c-.615-3.24.328-12.015 4.51-17.1 4.224-5.003 10.95-4.798 10.95-4.798z" fill="#ffb94a"/><path d="M58.735 32.888c.656 0 1.312.328 1.886.943 2.542 6.643 1.107 13.983-.04 17.88-1.394 4.88.86 14.68-2.87 19.027 0 0-2.624-2.87-5.495-4.43-.287-2.748-.45-5.7-.45-8.817.082-13.573 3.157-24.604 6.97-24.604z" fill="#ff6d2c"/><path d="M53.814 23.25c3.978-6.274 2.296-8.816 2.296-8.816s2.173-3.28-.04-6.397c0 0-.164-4.634-5.74-5.66 0 0-3.65-3.937-6.56-1.68 0 0-3.404-2.706-5.003 2.583-1.6 5.25.4 5.208.4 5.208s-3.157 6.807 1.968 8.488c5.167 1.68 12.67 6.274 12.67 6.274z" fill="#7a4939"/><path d="M41.512 17.06s3.937-.205 5.126-3.814c0 0 3.61-2.87 1.19-7.955 0 0 .615-3.2-.78-5.085C48.893.78 50.37 2.38 50.37 2.38c5.536 1.025 5.74 5.66 5.74 5.66 2.214 3.075.04 6.397.04 6.397s1.722 2.542-2.296 8.816c0 0-7.217-4.388-12.343-6.15v-.04z" fill="#603428"/><path d="M50.083 30.674l7.914-1.6C51.805 32.027 45.86 37.48 45.86 37.48s2.01-5.495 4.224-6.807z" fill="#eaddbe"/><path d="M57.956 29.075l-5.74-14.147-5.003 6.725 2.132 10.088 8.612-2.665z" fill="#ffb882"/><path d="M15.185 24.235L27.65 47.527l20.38 1.845-.082.37h-27.76L6 26.49l9.186-2.255z" fill="#dbccad"/><path d="M27.65 47.527l20.38 1.845-.082.37h-27.76l6.356-.902 1.107-1.312z" fill="#d1bb93"/><path d="M47.95 49.742H20.19l6.356-.902 21.406.902z" fill="#ba9e70"/><path d="M12.52 24.892L26.586 48.84l-6.397.902L6 26.49l6.52-1.6z" fill="#efe3ca"/><path d="M12.52 24.892l7.668 24.85L6 26.49l6.52-1.6z" fill="#f9f0e1"/><path d="M60.375 52.858c-.86 5.085.82 13.696-2.542 17.797C55.3 60.157 51.313 56.55 42.66 57.287c.082-2.378.082-4.593-.082-5.905 4.757-.656 12.794-1.19 17.797 1.476z" fill="#ff6d2c"/><path d="M52.953 48.51c.615-9.473 3.568-19.888 5.126-19.355 1.886.615 5.003 4.593 5.536 10.252.492 5.208-3.034 16.772-5.66 18.904s-17.5-8.447-21.488-10.17l-.697-4.306c5.495-.123 12.548 2.132 17.182 4.675z" fill="#ffb94a"/><g fill="#ff9239"><path d="M51.846 47.937C47.212 46 41.06 44.534 36.222 44.903l.738 3.486-.492-.246-.697-4.306c5.085-.123 11.482 1.804 16.075 4.1z"/><path d="M56.438 54.786c2.624-2.132 5.66-14.927 5.126-20.134a16.65 16.65 0 0 0-.451-2.624c1.19 1.804 2.214 4.347 2.542 7.422.492 5.208-2.542 18.002-5.126 20.134-2.624 2.132-18.043-9.678-22.02-11.44l-.45-2.665c5.372 2.953 18.043 11.236 20.38 9.31z"/></g><path d="M34.992 127.12h5.536s.78-1.353-.37-1.927c-1.476-.738-5.167 1.927-5.167 1.927zm10.458 0h3.116l1.394-4.305s-1.312-2.338-1.968-1.108c-.4.78-.164 3.076-.164 4.06-1.107.78-2.378 1.353-2.378 1.353z" fill="#f2e9ce"/><path d="M104.99 38.22c.82 2.5-5.25 7.258-6.766 7.914l4.55 1.066 4.552-6.725L107 36.58l-2.01 1.64z" fill="#634c84"/><path d="M100.193 47.363c4.716-2.706 6.315-7.258 6.807-10.744l17.592 80.7c-.738 4.06-2.502 7.422-5.946 9.595l-18.453-79.553z" fill="#503d70"/><path d="M77.762 66.595h6.766l.78 53.72h-7.504l-.04-53.72zM84.24 33.34h-6.725l-.492-2.46h7.504l-.287 2.46zm0 5.453h-6.725l-.492-2.5h7.504l-.287 2.5z" fill="#eaddbe"/><path d="M30.44 44.534c-.123 1.312.205 2.132.492 2.296s1.27-.328 1.435-.738c.164-.45-1.845-2.706-1.927-1.558z" fill="#ff9566"/><g fill="#ffb882"><use xlink:href="#B"/><path d="M31.752 43.058c.492-.984 4.47-.902 6.56 1.066L37 47.65c-1.804-.78-3.404-2.173-4.51-2.05-1.148.082-1.27-1.558-.738-2.542z"/><use xlink:href="#B" x="1.433" y="0.534"/><path d="M32.532 42.565c-1.312.287-2.255.943-2.706 1.558s-.984 2.173-1.025 2.542c0 .37.738.82.902.328.164-.45.656-1.886.82-1.927s1.476-.78 1.558-.78.45-1.722.45-1.722z"/></g><path d="M35.77 47.978c0 .164 1.927-4.88 1.927-4.88l3.773.328-.45 3.28-1.148.04 1.394.943-1.466 2.75-4.02-2.46zM58.53 29.28l-1.107-1.845-8.652 3.24.533 1.64 9.226-3.034z" fill="#eaddbe"/><path opacity=".6" d="M48.893 31.78c.04-.082.123-.123.164-.205l-.287-.902.328-.123L48.155 26c1.435-2.706 3.445-5.372 5.66-7.135l3.527 8.652.123-.04 1.107 1.804-.123.04c.78.37 1.722 1.27 2.624 2.583-4.962-.205-11.892 4.757-14.393 3.24-.205-.123-.328-.287-.45-.492.738-1.066 1.64-2.01 2.666-2.87z" fill="#c94343"/><path d="M51.272 10.785c3.034 7.422 2.993 14.352 2.952 14.885s-4.88 4.142-6.52 4.47c0 0-5.905-7.463-7.135-13.696s.37-7.79 2.214-8.16c1.886-.4 7.3-.37 8.488 2.5z" fill="#ffb882"/><path d="M52.133 20.38c-4.1-9.842-5.25-14.557-1.763-12.794 3.486 1.804 3.24 11.36 3.24 11.36l-1.476 1.435z" fill="#603428"/><path d="M52.174 17.1c-.082-2.337 2.5-4.388 2.993-1.886s-1.107 6.233-1.722 5.454c-.656-.78-1.23-2.788-1.27-3.568z" fill="#ffb882"/><path d="M52.748 17.223c-.082-1.476 1.558-2.788 1.886-1.19.287 1.558-.697 3.896-1.066 3.445-.45-.492-.82-1.763-.82-2.255z" fill="#db5b3e"/><path d="M52.994 18.207c-.04-.943 1.025-1.804 1.23-.78s-.45 2.583-.697 2.255-.492-1.148-.533-1.476z" fill="#ffb882"/><path d="M42.332 18.126c-.287-.615-.205-1.27.164-1.394s.86.287 1.148.902.205 1.27-.164 1.394c-.37.164-.902-.246-1.148-.902z" fill="#4f3131"/><path d="M44.956 16.116c-.533-.205-.78 6.602-.45 7.34.164.37 2.46-.902 2.46-.902l-2.01-6.438z" fill="#ffb882"/><path d="M44.792 16.362c-.246 1.435-.492 6.315-.205 6.93.123.287 1.558-.45 2.173-.78.04.123.082.205.082.205s-2.42 1.476-2.583 1.107c-.287-.656.082-7.094.533-7.463z" fill="#ea7b59"/><path d="M46.145 16.526c-.328-.615-.287-1.23.04-1.394s.902.205 1.23.82.328 1.23-.04 1.394-.902-.205-1.23-.82z" fill="#4f3131"/><path d="M42.907 12.057c.205-.533 3.404-.738 4.224-.656.78.082.943.656.984 1.27s-3.363 1.927-4.552 1.23c-.574-.328-.82-1.312-.656-1.845zm-.617 2.91c.123 1.066-1.68 1.6-2.1 1.148s-.78-.943-.615-1.394c.205-.45 1.353-1.886 1.804-1.6s.86 1.353.902 1.845z" fill="#7a4939"/><path d="M48.4 25.466c-.04-.123.205-.37.615-.615s.738-.328.82-.205c.04.123-.205.37-.615.615s-.78.328-.82.205zm2-3.116l-.123-.205c-1.025 1.435-1.722 2.296-4.06 3.486l.246.164c1.394-.533 3.7-2.42 3.937-3.445z" fill="#ea7b59"/><g fill="#ff9566"><path d="M18.835 48.84c-1.107-1.19-2.05-3.61-1.804-4.47.287-.86 1.025-.533 1.23-.164s.45 3.035.615 3.65c.123.656-.04.984-.04.984z"/><path d="M19.656 50.028c-.943-.902-1.476-2.706-1.066-3.322.4-.656 1.107-.4 1.27-.123s-.04 2.255 0 2.747-.205.697-.205.697z"/></g><defs ><path id="B" d="M30.77 43.754c.082 2.46.328 2.665.697 2.912.37.205 1.517-.082 1.64-.45s-.082-1.353-.37-1.27-.656.123-.656.123l-1.312-1.312z"/></defs></svg>