<svg width="125" height="140" viewBox="0 0 125 140" fill="none" xmlns="http://www.w3.org/2000/svg">
<ellipse opacity="0.6" cx="62.5" cy="127.5" rx="62.5" ry="12.5" fill="#001E20"/>
<path d="M63.779 36.6196H107.041L109.789 78.3235L81.4119 117.321L63.779 36.6196Z" fill="#8B54B2"/>
<path d="M62.6716 38.1772H105.934L108.722 79.8811L80.3045 118.879L62.6716 38.1772Z" fill="#634C84"/>
<path d="M63.0816 40.146H106.303L122.049 113.056L80.6735 120.847L63.0816 40.146Z" fill="#E2D5AF"/>
<path d="M102.407 43.5907C94.698 43.3857 88.26 42.8526 88.26 41.0893C88.26 41.0073 88.26 40.9253 88.301 40.8843H104.909L102.407 43.5907Z" fill="#F7F0DA"/>
<path d="M105.934 39.7769C100.644 40.597 98.0603 43.3034 98.7984 46.748C99.7416 51.0537 105.934 39.7769 105.934 39.7769Z" fill="#3B2D51"/>
<path d="M57.9561 46.1328H101.218L118.81 126.834H75.589L57.9561 46.1328Z" fill="#634C84"/>
<path d="M49.5498 46.1328H92.8119L110.404 126.834H67.1827L49.5498 46.1328Z" fill="#4C396B"/>
<path d="M98.9623 51.71L114.422 122.529H76.4907L61.0311 51.71H98.9623ZM77.1058 121.38H112.946L98.3472 52.8992H62.5074L77.1058 121.38Z" fill="#EADDBE"/>
<path opacity="0.6" d="M98.7163 36.6602L97.5681 38.0544L97.8552 40.0637L92.8113 46.1327H86.1682L84.61 36.6602H98.7163Z" fill="#C94343"/>
<path d="M28.0618 26.2856H73.2102C74.6044 26.2856 75.7526 27.3928 75.8346 28.7871L81.5756 124.292C81.6576 125.809 80.4684 127.08 78.9512 127.08H30.4402C29.005 127.08 27.8158 125.932 27.7748 124.497L25.3964 28.9921C25.3554 27.5158 26.5856 26.2856 28.0618 26.2856Z" fill="#F24C5C"/>
<path d="M53.9782 26.2856H71.6931C72.2262 26.2856 72.5542 27.3928 72.3902 28.7871L62.0155 124.292C61.8515 125.809 61.1953 127.08 60.6213 127.08H41.5941C41.02 127.08 40.733 125.932 40.897 124.497L52.5839 28.9921C52.789 27.5158 53.4041 26.2856 53.9782 26.2856Z" fill="#D63444"/>
<path d="M31.7931 123.8H70.6675V123.472L70.5855 30.5503H29.5787C28.8406 30.5503 28.1435 30.8373 27.6104 31.3704C27.0773 31.9035 26.7903 32.6006 26.8313 33.3798L29.0046 121.134C29.0866 122.61 30.2759 123.8 31.7931 123.8ZM70.0114 123.143H31.7521C30.6039 123.143 29.6608 122.241 29.6608 121.093L27.4874 33.3388C27.4874 32.7647 27.6924 32.2316 28.1025 31.8215C28.5126 31.4114 29.0456 31.1654 29.6197 31.1654H69.9704L70.0114 123.143Z" fill="#EADDBE"/>
<path d="M72.3492 26.2856H86.7426L88.4648 127.121H72.4312L72.3492 26.2856Z" fill="#D63444"/>
<path d="M86.7427 26.2856L86.7837 27.9669L74.3176 28.0899L73.4155 127.121H72.4313L72.3493 26.2856H86.7427Z" fill="#B72036"/>
<path d="M44.5059 62.6997C44.5059 62.6997 33.6801 94.2339 33.6801 95.3411C33.6801 96.4482 48.6885 122.611 48.6885 122.611L49.0576 122.488L41.4714 96.0382L47.8684 80.2916L44.5059 62.6997Z" fill="#6D3E4C"/>
<path d="M45.9409 70.3677L50.1646 78.2L41.9222 95.7508L49.0164 122.487L48.9343 122.528C46.1049 116.049 38.6006 96.694 38.6006 95.7918C38.6006 95.0127 42.7423 79.7582 45.9409 70.3677Z" fill="#592E3C"/>
<path d="M58.6944 66.6777C54.1017 88.6163 40.4874 125.973 40.4874 125.973H40.0774L45.4903 78.2826L42.7838 75.7402L44.3011 62.8231C44.3421 62.8641 59.6376 62.0439 58.6944 66.6777Z" fill="#6D3E4C"/>
<path d="M56.6851 72.2544C50.37 66.3904 48.1147 66.5544 46.3104 67.2516C44.5061 67.9487 42.9068 67.4156 42.9068 67.4156L43.7679 63.848L56.48 63.1919L56.6851 72.2544Z" fill="#592E3C"/>
<path d="M56.2747 63.8892C57.915 64.4633 58.9402 65.3654 58.6941 66.6776C54.1014 88.6162 40.4871 125.973 40.4871 125.973H40.1181C42.2915 118.305 52.092 83.5314 56.2747 63.8892Z" fill="#592E3C"/>
<path d="M45.326 78.9795L49.0986 77.5443L45.285 77.4623L42.0045 74.7559L45.326 78.9795Z" fill="#592E3C"/>
<path d="M49.1802 31.4937C42.045 37.3166 39.4206 48.3884 39.4206 48.3884L25.7243 47.7733L25.0272 51.0129C25.0272 51.0129 36.4681 57.6559 42.4961 55.8517C48.5651 54.0474 49.1802 31.4937 49.1802 31.4937Z" fill="#FFB94A"/>
<path d="M25.2321 51.095C22.3206 51.8741 20.3113 51.177 19.4911 50.1929C18.671 49.2087 17.3178 46.6663 18.671 46.5433C20.0242 46.4202 25.8472 48.7576 25.8472 48.7576L25.2321 51.095Z" fill="#FF9566"/>
<path d="M38.3134 50.8488C42.3321 49.6596 40.7328 39.736 49.1802 31.4937C49.1802 31.4937 48.5651 54.0474 42.5371 55.8517C36.4681 57.6559 25.0682 51.0129 25.0682 51.0129L25.4373 49.1676C29.2919 50.0287 34.1307 52.12 38.3134 50.8488Z" fill="#FF9239"/>
<path d="M24.2483 51.546C24.2483 51.669 26.1756 47.4043 26.1756 47.4043L29.9482 47.6913L29.4972 50.5208L28.349 50.5618L29.7432 51.3409L28.267 53.6783L24.2483 51.546Z" fill="#EADDBE"/>
<path d="M57.9556 29.0744C63.9016 36.6197 62.0153 46.8713 60.6211 51.7101C59.2268 56.5899 61.4822 66.3905 57.7506 70.7372C57.7506 70.7372 52.3377 64.8323 48.5651 65.3244C44.7924 65.8164 43.8493 67.7438 42.8651 66.8826C41.881 66.0215 43.1522 54.2526 42.4961 50.972C41.881 47.7325 42.8241 38.957 47.0068 33.8722C51.2305 28.8694 57.9556 29.0744 57.9556 29.0744Z" fill="#FFB94A"/>
<path d="M58.7351 32.8882C59.3912 32.8882 60.0474 33.2162 60.6215 33.8313C63.1639 40.4744 61.7286 47.8146 60.5804 51.7103C59.1862 56.5901 61.4416 66.3907 57.71 70.7374C57.71 70.7374 55.0855 67.8669 52.2151 66.3087C51.928 63.5612 51.764 60.6087 51.764 57.4922C51.846 43.919 54.9215 32.8882 58.7351 32.8882Z" fill="#FF6D2C"/>
<path d="M53.8142 23.2511C57.7918 16.9771 56.1106 14.4347 56.1106 14.4347C56.1106 14.4347 58.2839 11.1541 56.0695 8.0376C56.0695 8.0376 55.9055 3.40384 50.3286 2.37868C50.3286 2.37868 46.679 -1.55797 43.7675 0.697398C43.7675 0.697398 40.364 -2.00904 38.7647 3.28082C37.1655 8.52968 39.1748 8.48868 39.1748 8.48868C39.1748 8.48868 36.0173 15.2958 41.1431 16.9771C46.31 18.6583 53.8142 23.2511 53.8142 23.2511Z" fill="#7A4939"/>
<path d="M41.5122 17.0593C41.5122 17.0593 45.4488 16.8543 46.638 13.2457C46.638 13.2457 50.2466 10.3752 47.8272 5.2904C47.8272 5.2904 48.4423 2.09188 47.0481 0.205566C48.8934 0.77966 50.3696 2.37892 50.3696 2.37892C55.9055 3.40409 56.1106 8.03785 56.1106 8.03785C58.3249 11.1133 56.1516 14.4349 56.1516 14.4349C56.1516 14.4349 57.8739 16.9773 53.8552 23.2513C53.8552 23.2513 46.638 18.8636 41.5122 17.1003V17.0593Z" fill="#603428"/>
<path d="M50.0828 30.6735L57.9971 29.0742C51.8051 32.0267 45.8591 37.4806 45.8591 37.4806C45.8591 37.4806 47.8684 31.9857 50.0828 30.6735Z" fill="#EADDBE"/>
<path d="M57.9561 29.0746L52.2151 14.9272L47.2123 21.6523L49.3446 31.74L57.9561 29.0746Z" fill="#FFB882"/>
<path d="M15.1854 24.2354L27.6514 47.5272L48.0317 49.3725L47.9497 49.7415H20.1882L5.99984 26.4907L15.1854 24.2354Z" fill="#DBCCAD"/>
<path d="M27.6514 47.5269L48.0317 49.3722L47.9497 49.7412H20.1882L26.5442 48.8391L27.6514 47.5269Z" fill="#D1BB93"/>
<path d="M47.9502 49.7415H20.1886L26.5447 48.8394L47.9502 49.7415Z" fill="#BA9E70"/>
<path d="M12.5206 24.8916L26.5859 48.8395L20.1889 49.7417L6.00056 26.4909L12.5206 24.8916Z" fill="#EFE3CA"/>
<path d="M12.5207 24.8916L20.189 49.7417L6.00065 26.4909L12.5207 24.8916Z" fill="#F9F0E1"/>
<path d="M60.375 52.8582C59.5139 57.943 61.1952 66.5544 57.8326 70.6551C55.2902 60.1574 51.3125 56.5488 42.6601 57.2869C42.7421 54.9085 42.7421 52.6942 42.5781 51.3819C47.3349 50.7258 55.3722 50.1927 60.375 52.8582Z" fill="#FF6D2C"/>
<path d="M52.953 48.5111C53.5681 39.0385 56.5206 28.6228 58.0788 29.1559C59.9651 29.771 63.0817 33.7486 63.6147 39.4076C64.1068 44.6154 60.5803 56.1793 57.9558 58.3117C55.3314 60.444 40.4459 49.8643 36.4683 48.142L35.7712 43.8363C41.2661 43.7133 48.3192 45.9686 52.953 48.5111Z" fill="#FFB94A"/>
<path d="M51.8457 47.9373C47.2119 46.01 41.0609 44.5337 36.2222 44.9028L36.9603 48.3884C36.7962 48.3064 36.6322 48.2244 36.4682 48.1423L35.7711 43.8366C40.8559 43.7136 47.253 45.6409 51.8457 47.9373Z" fill="#FF9239"/>
<path d="M56.4384 54.7856C59.0628 52.6532 62.0973 39.8591 61.5642 34.6513C61.4822 33.7081 61.3182 32.847 61.1132 32.0269C62.3023 33.8312 63.3275 36.3736 63.6556 39.4491C64.1476 44.6569 61.1131 57.451 58.5297 59.5834C55.9053 61.7157 40.4868 49.9058 36.5091 48.1425L36.058 45.4771C41.4299 48.4296 54.101 56.7129 56.4384 54.7856Z" fill="#FF9239"/>
<path d="M34.992 127.121H40.5279C40.5279 127.121 41.307 125.768 40.1588 125.194C38.6825 124.456 34.992 127.121 34.992 127.121Z" fill="#F2E9CE"/>
<path d="M45.4487 127.121H48.5652L49.9595 122.816C49.9595 122.816 48.6473 120.478 47.9912 121.708C47.5811 122.487 47.8271 124.784 47.8271 125.768C46.7199 126.547 45.4487 127.121 45.4487 127.121Z" fill="#F2E9CE"/>
<path d="M104.991 38.2189C105.811 40.7203 99.7419 45.4771 98.2246 46.1332L102.776 47.1994L107.328 40.4743L107 36.5786L104.991 38.2189Z" fill="#634C84"/>
<path d="M100.193 47.3634C104.909 44.6569 106.508 40.1052 107 36.6196L124.592 117.321C123.854 121.381 122.09 124.743 118.646 126.916L100.193 47.3634Z" fill="#503D70"/>
<path d="M77.7619 66.5952H84.528L85.3071 120.314H77.8029L77.7619 66.5952Z" fill="#EADDBE"/>
<path d="M84.2408 33.3388H77.5157L77.0236 30.8784H84.5278L84.2408 33.3388Z" fill="#EADDBE"/>
<path d="M84.2408 38.7929H77.5157L77.0236 36.2915H84.5278L84.2408 38.7929Z" fill="#EADDBE"/>
<path d="M30.4401 44.5336C30.3171 45.8458 30.6452 46.6659 30.9322 46.83C31.2192 46.994 32.2034 46.5019 32.3674 46.0918C32.5315 45.6408 30.5221 43.3854 30.4401 44.5336Z" fill="#FF9566"/>
<path d="M30.7688 43.7544C30.8508 46.2148 31.0968 46.4198 31.4659 46.6659C31.8349 46.8709 32.9831 46.5839 33.1062 46.2148C33.2292 45.8457 33.0242 44.8616 32.7371 44.9436C32.4501 45.0256 32.081 45.0666 32.081 45.0666L30.7688 43.7544Z" fill="#FFB882"/>
<path d="M31.7524 43.0577C32.2445 42.0735 36.2221 42.1555 38.3135 44.1238L37.0013 47.6504C35.197 46.8713 33.5977 45.4771 32.4905 45.6001C31.3423 45.6821 31.2193 44.0418 31.7524 43.0577Z" fill="#FFB882"/>
<path d="M32.2034 44.2876C32.2854 46.748 32.5314 46.953 32.9005 47.1991C33.2695 47.4041 34.4177 47.1171 34.5407 46.748C34.6637 46.3789 34.4587 45.3948 34.1717 45.4768C33.8846 45.5588 33.5156 45.5998 33.5156 45.5998L32.2034 44.2876Z" fill="#FFB882"/>
<path d="M32.5317 42.5654C31.2195 42.8525 30.2764 43.5086 29.8253 44.1237C29.3742 44.7388 28.8411 46.297 28.8001 46.6661C28.8001 47.0352 29.5382 47.4862 29.7023 46.9942C29.8663 46.5431 30.3584 45.1078 30.5224 45.0668C30.6864 45.0258 31.9986 44.2877 32.0806 44.2877C32.1627 44.2877 32.5317 42.5654 32.5317 42.5654Z" fill="#FFB882"/>
<path d="M35.7712 47.9784C35.7712 48.1425 37.6986 43.0986 37.6986 43.0986L41.4712 43.4267L41.0201 46.7072L39.8719 46.7482L41.2662 47.6914L39.7899 50.4388L35.7712 47.9784Z" fill="#EADDBE"/>
<path d="M58.5303 29.2794L57.4231 27.4341L48.7707 30.6736L49.3038 32.3139L58.5303 29.2794Z" fill="#EADDBE"/>
<path opacity="0.6" d="M48.8933 31.7804C48.9343 31.6984 49.0163 31.6574 49.0573 31.5754L48.7702 30.6732L49.0983 30.5502L48.1551 25.9985C49.5904 23.292 51.5997 20.6266 53.8141 18.8633L57.3407 27.5157L57.4637 27.4747L58.5709 29.279L58.4479 29.32C59.227 29.6891 60.1701 30.5912 61.0723 31.9034C56.1105 31.6984 49.1803 36.6602 46.6789 35.143C46.4739 35.0199 46.3508 34.8559 46.2278 34.6509C46.9659 33.5847 47.8681 32.6415 48.8933 31.7804Z" fill="#C94343"/>
<path d="M51.2715 10.7853C54.306 18.2075 54.2649 25.1377 54.2239 25.6707C54.1829 26.2038 49.3441 29.8124 47.7039 30.1405C47.7039 30.1405 41.7989 22.6772 40.5687 16.4442C39.3385 10.2112 40.9378 8.65295 42.7831 8.28389C44.6694 7.87382 50.0823 7.91483 51.2715 10.7853Z" fill="#FFB882"/>
<path d="M52.1328 20.3806C48.0321 10.539 46.8839 5.82325 50.3695 7.58654C53.8551 9.39084 53.609 18.9454 53.609 18.9454L52.1328 20.3806Z" fill="#603428"/>
<path d="M52.1741 17.1001C52.0921 14.7627 54.6755 12.7123 55.1676 15.2138C55.6597 17.7152 54.0604 21.4468 53.4453 20.6677C52.7892 19.8885 52.2151 17.8792 52.1741 17.1001Z" fill="#FFB882"/>
<path d="M52.748 17.223C52.666 15.7467 54.3062 14.4345 54.6343 16.0338C54.9213 17.592 53.9372 19.9294 53.5681 19.4783C53.1171 18.9862 52.748 17.715 52.748 17.223Z" fill="#DB5B3E"/>
<path d="M52.9939 18.2073C52.9529 17.2642 54.019 16.403 54.2241 17.4282C54.4291 18.4533 53.773 20.0116 53.527 19.6835C53.2809 19.3555 53.0349 18.5354 52.9939 18.2073Z" fill="#FFB882"/>
<path d="M42.3321 18.1255C42.045 17.5104 42.127 16.8543 42.4961 16.7313C42.8652 16.6083 43.3572 17.0183 43.6443 17.6334C43.9313 18.2485 43.8493 18.9047 43.4803 19.0277C43.1112 19.1917 42.5781 18.7816 42.3321 18.1255Z" fill="#4F3131"/>
<path d="M44.956 16.1164C44.4229 15.9113 44.1769 22.7184 44.5049 23.4566C44.669 23.8256 46.9653 22.5544 46.9653 22.5544C46.9653 22.5544 45.079 16.1574 44.956 16.1164Z" fill="#FFB882"/>
<path d="M44.7919 16.3623C44.5459 17.7975 44.2999 22.6773 44.5869 23.2924C44.7099 23.5795 46.1452 22.8414 46.7603 22.5133C46.8013 22.6363 46.8423 22.7183 46.8423 22.7183C46.8423 22.7183 44.4229 24.1946 44.2589 23.8255C43.9718 23.1694 44.3409 16.7314 44.7919 16.3623Z" fill="#EA7B59"/>
<path d="M46.1454 16.526C45.8173 15.9109 45.8583 15.2958 46.1864 15.1317C46.5144 14.9677 47.0885 15.3368 47.4166 15.9519C47.7446 16.567 47.7446 17.1821 47.3756 17.3461C47.0065 17.5101 46.4734 17.1411 46.1454 16.526Z" fill="#4F3131"/>
<path d="M42.9065 12.0569C43.1116 11.5238 46.3101 11.3187 47.1302 11.4008C47.9093 11.4828 48.0734 12.0569 48.1144 12.672C48.1554 13.2871 44.7518 14.5993 43.5626 13.9022C42.9885 13.5741 42.7425 12.59 42.9065 12.0569Z" fill="#7A4939"/>
<path d="M42.2909 14.9679C42.4139 16.0341 40.6096 16.5672 40.1995 16.1161C39.7895 15.665 39.4204 15.1729 39.5844 14.7219C39.7895 14.2708 40.9376 12.8355 41.3887 13.1226C41.8398 13.4096 42.2499 14.4758 42.2909 14.9679Z" fill="#7A4939"/>
<path d="M48.4007 25.466C48.3597 25.343 48.6057 25.0969 49.0158 24.8509C49.4258 24.6049 49.7539 24.5229 49.8359 24.6459C49.8769 24.7689 49.6309 25.0149 49.2208 25.261C48.8107 25.507 48.4417 25.589 48.4007 25.466Z" fill="#EA7B59"/>
<path d="M50.4102 22.3491C50.3281 22.2261 50.2871 22.144 50.2871 22.144C49.262 23.5793 48.5648 24.4404 46.2275 25.6296C46.2275 25.6296 46.3505 25.7116 46.4735 25.7937C47.8677 25.2606 50.1641 23.3742 50.4102 22.3491Z" fill="#EA7B59"/>
<path d="M18.8351 48.8393C17.7279 47.6501 16.7848 45.2307 17.0308 44.3696C17.3179 43.5084 18.056 43.8365 18.261 44.2055C18.4661 44.5746 18.7121 47.24 18.8761 47.8551C18.9991 48.5112 18.8351 48.8393 18.8351 48.8393Z" fill="#FF9566"/>
<path d="M19.6557 50.0282C18.7125 49.1261 18.1794 47.3218 18.5895 46.7067C18.9996 46.0506 19.6967 46.2966 19.8607 46.5837C20.0247 46.8707 19.8197 48.8391 19.8607 49.3311C19.9017 49.8232 19.6557 50.0282 19.6557 50.0282Z" fill="#FF9566"/>
</svg>
