<svg width="459" height="330" viewBox="0 0 459 330" fill="none" xmlns="http://www.w3.org/2000/svg">
<ellipse opacity="0.6" cx="229.5" cy="311.5" rx="229.5" ry="18.5" fill="#001E20"/>
<path d="M345.88 187.108H206.803L178.511 313H317.588L345.88 187.108Z" fill="#3B2D51"/>
<path d="M333.02 54.9219H353.759L359.325 146.889H335.869L333.02 54.9219Z" fill="#732C84"/>
<path d="M330.502 54.9219H351.572L357.071 146.889H333.218L330.502 54.9219Z" fill="#AB56BF"/>
<path d="M327.321 57.2407H348.392L357.138 146.624L334.875 146.756L327.321 57.2407Z" fill="#732C84"/>
<path d="M332.225 56.1807C337.327 58.1684 342.627 58.3672 348.193 57.1083L354.421 145.696C347.597 144.437 341.103 144.437 336.399 145.895L332.225 56.1807Z" fill="#DDCBA6"/>
<path d="M278.952 53.2651H334.013L341.169 146.889H284.982L278.952 53.2651Z" fill="#732C84"/>
<path d="M276.435 53.2651H331.562L338.718 146.889H282.465L276.435 53.2651Z" fill="#BF63D6"/>
<path d="M342.429 57.8372C344.284 57.771 346.205 57.506 348.193 57.1084L354.421 145.696C351.639 145.166 348.922 144.901 346.338 144.835L342.429 57.8372Z" fill="#EFE3CA"/>
<g opacity="0.45">
<path opacity="0.45" d="M284.651 143.311H335.869L329.375 56.8433H279.151L284.651 143.311ZM334.941 142.383H285.512L280.145 57.7046H328.58L334.941 142.383Z" fill="white"/>
</g>
<g opacity="0.45">
<path opacity="0.45" d="M287.102 140.13H332.887L327.122 60.0234H282.265L287.102 140.13ZM332.025 139.335H287.831L283.06 60.8848H326.327L332.025 139.335Z" fill="white"/>
</g>
<path opacity="0.6" d="M301.348 53.1987L314.401 90.0386L327.653 82.8827L335.008 97.6584L338.652 146.889H283.922L276.435 112.964L288.693 53.1987H301.348Z" fill="#C94343"/>
<path d="M286.242 11.4559C293.596 8.87178 291.609 1.58331 288.759 0.390655C285.91 -0.802003 278.887 0.523173 280.411 7.34783C281.935 14.1725 286.242 11.4559 286.242 11.4559Z" fill="#964532"/>
<path d="M285.446 7.08322C288.627 5.95682 290.085 3.9028 290.416 1.91504C292.006 4.56539 291.94 9.33602 286.242 11.39C286.242 11.39 281.935 14.1067 280.411 7.282C280.212 6.42064 280.146 5.62553 280.212 4.96294C282.067 9.26976 285.446 7.08322 285.446 7.08322Z" fill="#7F3425"/>
<path d="M284.254 12.0522C290.018 10.5283 288.428 6.35397 286.241 5.62513C284.055 4.89628 278.489 5.69138 279.682 9.66691C280.874 13.6424 284.254 12.0522 284.254 12.0522Z" fill="#FFB94A"/>
<path d="M282.796 41.935C292.934 34.7128 292.868 17.2867 288.362 10.6608C283.856 4.03497 271.532 4.03496 266.298 10.0645C261.063 16.0941 260.533 25.7678 265.039 30.936C269.611 36.038 282.796 41.935 282.796 41.935Z" fill="#964532"/>
<path d="M264.376 25.4367C264.575 14.5703 266.099 11.7874 270.737 9.0708C270.737 9.0708 265.304 13.6427 267.888 20.0035L264.376 25.4367Z" fill="#7F3425"/>
<path d="M267.69 25.1714C270.804 13.6424 273.057 10.9258 278.291 8.93799C278.291 8.93799 271.731 12.6485 272.527 20.0032L267.69 25.1714Z" fill="#7F3425"/>
<path d="M277.363 21.7256C282.929 17.0213 285.381 11.058 281.869 6.88368C281.604 6.55238 281.273 6.28735 280.941 5.95605C283.989 6.61864 286.706 8.14259 288.362 10.5942C292.868 17.22 293 34.6461 282.797 41.8683C282.797 41.8683 269.611 35.9713 265.039 30.8031C263.515 29.0804 262.588 26.7613 262.19 24.3097C265.901 28.0202 272.063 26.165 277.363 21.7256Z" fill="#7F3425"/>
<path d="M251.456 87.3225C252.185 70.6916 269.213 51.8741 271.002 51.7416C272.725 51.6091 272.46 58.6987 268.153 65.6559C263.846 72.6131 259.142 89.1778 258.612 90.9005C258.015 92.6895 251.323 90.2379 251.456 87.3225Z" fill="#DB2828"/>
<path d="M270.804 50.1506C271.599 50.0844 271.997 51.9396 271.798 54.59C268.419 57.1741 254.637 74.7989 253.179 89.9722C252.185 89.2433 251.457 88.3157 251.457 87.3218C252.185 70.6909 269.015 50.2832 270.804 50.1506Z" fill="#ED4848"/>
<path d="M309.764 88.3162C309.035 71.6853 292.006 50.8138 290.217 50.6813C288.495 50.5487 289.091 62.5416 293.398 69.565C297.705 76.5222 302.144 90.2378 302.674 91.9605C303.204 93.6832 309.896 91.2979 309.764 88.3162Z" fill="#ED4848"/>
<path d="M294.723 66.2516C299.957 73.8713 301.812 85.4666 309.631 85.1353C310.095 85.1353 306.252 91.695 307.113 91.5624C305.192 92.5563 302.939 92.8876 302.674 91.8937C302.144 90.171 296.114 75.6603 291.874 68.7032C289.488 64.7939 291.874 58.4993 291.542 54.4575C292.669 58.3005 292.404 62.8724 294.723 66.2516Z" fill="#DB2828"/>
<path d="M299.229 87.389C302.475 84.7386 308.902 83.811 310.625 84.8711C312.282 85.9313 311.619 93.6835 306.848 95.0087C302.078 96.4001 299.229 87.389 299.229 87.389Z" fill="#FFE9CA"/>
<path d="M272.394 65.6552L290.416 56.8428C282.067 95.6704 291.012 90.8998 288.958 105.941C278.754 110.181 268.882 108.525 259.407 101.567C268.816 99.5134 272.394 65.6552 272.394 65.6552Z" fill="#ED4848"/>
<path d="M282.399 105.808C284.718 96.2671 281.272 87.2559 274.779 85.6657C272.725 85.1356 270.538 85.5332 268.484 86.4608C271.201 76.6545 272.394 65.5893 272.394 65.5893L290.416 56.7769C282.067 95.6045 291.012 90.8339 288.958 105.875C286.573 106.868 284.188 107.531 281.869 107.862C282.001 107.266 282.2 106.537 282.399 105.808Z" fill="#DB2828"/>
<path d="M275.508 105.411L327.587 83.4131C315.528 102.164 298.234 119.922 292.403 121.512C286.573 123.102 266.231 123.963 262.189 122.373C258.148 120.783 226.94 87.3886 226.94 87.3886C226.94 87.3886 267.623 105.212 275.508 105.411Z" fill="#6D2D4A"/>
<path d="M248.143 96.2671L266.96 107.73L260.666 101.038L248.143 96.2671Z" fill="#934769"/>
<path d="M290.946 51.145C294.325 57.1746 290.946 79.1725 289.356 80.6302C287.832 82.0879 265.238 79.57 264.111 78.5761C262.985 77.5823 268.551 51.7413 270.406 50.4162C272.195 49.091 278.026 46.7057 279.351 46.6394C280.61 46.4406 290.549 50.4824 290.946 51.145Z" fill="#ED4848"/>
<path d="M287.898 78.6426C289.091 77.4499 291.873 64.3969 292.006 54.7231C293.331 63.2043 290.747 79.9015 289.488 81.0941C287.964 82.5518 265.237 79.4377 264.111 78.51C263.978 78.3775 263.912 77.8475 263.978 76.9861C268.749 78.245 286.44 80.1003 287.898 78.6426Z" fill="#DB2828"/>
<path d="M270.738 82.75C270.738 84.6052 271.798 85.1353 272.063 86.3942C272.261 87.6532 272.924 85.8642 272.659 84.804C272.394 83.8101 270.738 82.75 270.738 82.75Z" fill="#FF9566"/>
<path d="M274.116 84.2084C272.327 85.4673 271.532 85.0035 271.201 84.606C270.803 84.2084 270.406 83.0158 270.406 83.0158L272.393 82.4194L272.327 83.6783C272.393 83.7446 275.243 83.4133 274.116 84.2084Z" fill="#FFB882"/>
<path d="M275.441 84.8041C273.652 86.063 272.857 85.5992 272.526 85.2017C272.128 84.8041 271.731 83.6115 271.731 83.6115L273.719 83.0151L273.652 84.2741C273.652 84.3403 276.568 84.009 275.441 84.8041Z" fill="#FFB882"/>
<path d="M306.186 87.6538C298.5 84.6722 275.375 81.9556 275.375 81.9556L275.176 82.5519C275.176 82.5519 297.704 95.6049 304.86 94.2134C312.083 92.822 309.3 88.8465 306.186 87.6538Z" fill="#FFB882"/>
<path d="M302.276 90.3042C304.993 89.7079 306.318 88.7803 306.716 87.8527C309.565 89.2441 311.685 92.8883 304.861 94.2135C297.705 95.6049 275.177 82.5519 275.177 82.5519L275.243 82.4194C282.333 85.5999 296.777 91.5631 302.276 90.3042Z" fill="#FF9566"/>
<path d="M270.87 82.2863C272.261 81.0936 275.309 81.2924 277.827 82.3525L278.556 83.8102C276.502 83.3464 273.387 84.274 272.46 84.4728C271.532 84.7378 269.478 83.4789 270.87 82.2863Z" fill="#FFB882"/>
<path d="M271.069 82.1543C269.478 83.4795 267.027 86.5936 267.093 87.19C267.093 87.72 268.948 85.9973 269.478 85.3347C269.942 84.6721 271.797 83.347 271.797 83.347L271.069 82.1543Z" fill="#FFB882"/>
<path d="M257.552 56.2471L275.243 95.2735L293.133 96.2011L294.193 97.195L238.535 96.3999L219.453 56.2471H257.552Z" fill="#EADDBE"/>
<path d="M257.552 56.2471C241.716 63.0717 235.156 76.3235 238.469 96.3999L219.387 56.2471H257.552Z" fill="#F4E9D3"/>
<path d="M273.918 96.8637L255.631 56.2471H257.552L275.243 95.2735L293.133 96.2011L294.193 97.195L273.918 96.8637Z" fill="#D8C091"/>
<path d="M224.754 75.8593C231.777 77.4495 247.679 95.2069 266.431 121.777L266.033 122.771C266.033 122.771 233.566 97.7247 229.723 93.0866C225.88 88.4485 217.73 74.2029 224.754 75.8593Z" fill="#934769"/>
<path d="M229.061 90.1054C231.976 93.2858 250.197 106.14 260.269 113.163C262.256 115.88 264.377 118.795 266.431 121.777L266.033 122.771C266.033 122.771 233.368 98.2552 229.525 93.6171C227.471 91.0993 224.356 85.401 222.832 81.293C224.688 84.6722 227.272 88.2501 229.061 90.1054Z" fill="#7C3552"/>
<path d="M263.515 117.669L246.552 104.881C246.552 104.881 238.138 89.1773 229.458 78.2446C237.144 83.8104 249.402 98.056 263.515 117.669Z" fill="#7C3552"/>
<path d="M326.792 81.8887C331.033 84.9367 321.955 91.165 313.54 99.7786C305.059 108.459 289.621 111.043 265.238 122.704L264.244 122.108C293.199 94.7429 322.551 78.8408 326.792 81.8887Z" fill="#934769"/>
<path d="M274.315 113.031C294.656 104.484 307.974 101.767 315.66 94.1471C320.166 89.7078 324.87 85.8648 327.653 82.8169C329.177 86.1298 321.292 92.6232 313.673 100.442C305.191 109.122 289.488 111.043 265.171 122.705L264.177 122.108C267.556 118.928 270.936 115.946 274.315 113.031Z" fill="#7C3552"/>
<path d="M265.304 123.897L262.389 119.193C262.389 119.193 266.695 115.018 271.797 112.103L265.304 123.897Z" fill="#DBC7A1"/>
<path d="M264.907 123.168L268.617 121.909C268.617 121.909 265.636 116.675 257.684 112.964L264.907 123.168Z" fill="#EADDBE"/>
<path d="M272.062 49.2235C274.58 47.8983 278.29 45.9105 279.284 45.778C280.344 45.6455 286.838 48.7597 289.621 50.2836C284.386 68.5048 275.242 76.1245 275.242 76.1245C275.242 76.1245 271.201 49.621 272.062 49.2235Z" fill="#FFE9CA"/>
<path d="M272.062 49.2234C272.261 49.0909 272.46 49.0246 272.658 48.8921C273.122 55.1867 275.905 73.7391 275.905 73.7391C275.905 73.7391 284.254 66.782 289.554 50.2835C289.554 50.2835 289.554 50.2835 289.621 50.2835C284.386 68.5047 275.044 77.1183 275.044 77.1183C275.044 77.1183 271.201 49.6209 272.062 49.2234Z" fill="#DB2828"/>
<path d="M285.446 48.494C285.579 36.5011 283.724 29.5439 283.724 29.5439L276.568 35.971L276.965 46.7712C276.965 46.7712 278.688 50.4155 280.874 50.6805C283.127 50.9455 285.446 48.494 285.446 48.494Z" fill="#FFB882"/>
<path d="M214.351 122.837H258.877C266.762 122.837 269.015 145.762 261.13 145.762H216.604C220.646 142.715 220.049 126.481 214.351 122.837Z" fill="#E0D0B1"/>
<path d="M256.094 121.71H318.178C330.502 121.313 331.894 146.557 319.57 146.889H257.485C268.02 146.624 266.695 121.445 256.094 121.71Z" fill="#FF9A3E"/>
<path d="M258.015 146.889C262.521 146.359 264.708 141.125 264.774 135.493H328.117C327.985 141.257 325.202 146.757 319.504 146.889H258.015Z" fill="#ED8129"/>
<path d="M213.887 121.71H263.316L263.78 124.096H214.351C213.689 124.096 213.026 123.566 212.96 122.903C212.761 122.241 213.225 121.71 213.887 121.71Z" fill="#FFB94A"/>
<path d="M214.947 144.835H264.177L264.641 146.889H215.41C214.748 146.889 214.085 146.425 213.953 145.829C213.82 145.299 214.284 144.835 214.947 144.835Z" fill="#FFB94A"/>
<path d="M217.664 127.475H256.094C263.979 127.475 264.84 142.847 257.022 142.847H218.459C219.652 138.805 219.453 132.179 217.664 127.475Z" fill="#F4E9D4"/>
<path d="M256.094 121.711H263.515C269.28 126.481 270.009 142.118 264.443 146.889H257.486C268.021 146.624 266.696 121.446 256.094 121.711Z" fill="#FFB94A"/>
<g opacity="0.39">
<path opacity="0.39" d="M268.484 146.027H315.727C319.04 145.961 321.69 144.305 323.28 141.389C325.467 137.348 325.268 131.451 322.75 127.343C320.829 124.228 317.847 122.572 314.402 122.638H267.689L268.749 123.433C271.598 125.62 273.387 130.059 273.454 134.962C273.52 139.468 272.062 143.311 269.544 145.299L268.484 146.027ZM314.6 123.5C317.648 123.5 320.232 125.023 321.955 127.806C324.34 131.649 324.539 137.215 322.485 140.992C321.491 142.847 319.504 145.1 315.727 145.166H270.87C273.056 142.847 274.249 139.137 274.249 134.896C274.183 130.258 272.659 126.017 270.141 123.5H314.402C314.468 123.5 314.534 123.5 314.6 123.5Z" fill="white"/>
</g>
<path d="M190.365 145.1H259.274C271.466 145.1 272.128 189.162 259.937 189.162H191.028C197.653 183.265 198.78 152.124 190.365 145.1Z" fill="#E0D0B1"/>
<path d="M255.166 142.979H351.241C370.39 142.25 369.33 190.686 350.181 191.414H254.106C270.538 190.752 271.598 142.317 255.166 142.979Z" fill="#5E85BC"/>
<path d="M254.967 191.282C261.991 190.289 266.033 180.151 266.828 169.417H364.891C363.963 180.548 358.994 191.084 350.181 191.349H254.967V191.282Z" fill="#4E75A5"/>
<path d="M189.769 142.979H266.231L266.629 147.551H190.166C189.172 147.551 188.245 146.491 188.112 145.232C187.98 143.973 188.775 142.979 189.769 142.979Z" fill="#749DCE"/>
<path d="M188.509 187.373H264.707L265.171 191.349H188.973C187.979 191.349 186.986 190.487 186.919 189.361C186.787 188.301 187.516 187.373 188.509 187.373Z" fill="#749DCE"/>
<path d="M194.938 153.979H254.372C266.564 153.979 266.033 183.596 253.842 183.596H194.143C196.66 175.844 197.124 162.99 194.938 153.979Z" fill="#F4E9D4"/>
<path d="M255.166 142.979H266.563C274.911 152.123 274.05 182.205 264.906 191.415H254.106C270.538 190.752 271.598 142.317 255.166 142.979Z" fill="#749DCE"/>
<g opacity="0.39">
<path opacity="0.39" d="M271.267 189.692H344.417C349.519 189.493 353.892 186.379 356.675 180.747C360.584 172.995 360.982 161.598 357.536 153.713C354.952 147.684 350.579 144.503 345.212 144.702H272.858L274.382 146.226C278.49 150.467 280.742 158.948 280.212 168.357C279.748 176.97 276.966 184.391 272.924 188.234L271.267 189.692ZM345.477 146.359C350.182 146.359 354.025 149.274 356.277 154.575C359.458 161.996 359.126 172.663 355.482 179.886C353.693 183.464 350.314 187.704 344.483 187.903H275.044C278.688 183.53 281.074 176.308 281.537 168.224C282.068 159.279 280.146 151.196 276.568 146.292H345.08C345.212 146.359 345.345 146.359 345.477 146.359Z" fill="white"/>
</g>
<path opacity="0.6" d="M277.761 64.3961C273.057 61.6132 270.671 55.9812 271.003 49.9517C271.268 49.7529 271.599 49.6204 271.996 49.4216C271.996 49.3554 271.996 49.3554 271.996 49.2891C271.996 49.2228 272.063 49.1566 272.063 49.1566C273.587 48.3615 275.442 47.3676 276.966 46.6388L276.635 36.8987C278.887 34.5797 281.538 32.9232 284.254 32.1943C284.784 35.176 285.447 40.6755 285.447 48.1627C287.037 48.8916 288.561 49.6867 289.621 50.2167C289.621 50.2167 289.621 50.2167 289.688 50.2167V50.283C289.953 50.4155 290.218 50.548 290.416 50.6805C291.212 50.9456 293.994 53.9272 297.175 58.3666C292.272 65.39 284.056 68.1066 277.761 64.3961Z" fill="#C94343"/>
<path d="M284.851 26.1653C288.694 42.73 275.309 49.2233 275.309 49.2233C275.309 49.2233 264.708 39.0195 263.449 26.2978C262.786 19.4069 263.78 17.2866 270.605 16.2265C277.496 15.1663 283.857 21.8585 284.851 26.1653Z" fill="#FFB882"/>
<path d="M284.056 35.4413C280.544 25.1711 279.749 16.5575 283.923 17.0213C288.164 17.4189 290.019 32.1946 284.056 35.4413Z" fill="#7F3425"/>
<path d="M283.459 36.8335C282.597 28.0211 283.326 26.9609 286.109 26.9609C289.289 26.9609 289.554 35.3758 283.459 36.8335Z" fill="#FFB882"/>
<path d="M284.386 34.8454C283.856 29.611 284.32 28.9484 285.977 28.9484C287.832 28.8821 288.031 33.9841 284.386 34.8454Z" fill="#DB5B3E"/>
<path d="M284.187 35.5084C284.187 32.1292 284.519 31.7317 285.711 31.8642C287.103 31.9304 286.904 35.1771 284.187 35.5084Z" fill="#FFB882"/>
<path d="M267.225 32.1946C266.96 30.8032 267.49 29.6105 268.352 29.478C269.213 29.3455 270.075 30.4056 270.34 31.797C270.605 33.1885 270.075 34.3811 269.213 34.5137C268.352 34.6462 267.424 33.586 267.225 32.1946Z" fill="#66423B"/>
<path d="M275.574 31.0683C275.243 29.4781 275.706 28.0867 276.634 27.8879C277.562 27.6891 278.556 28.8818 278.887 30.472C279.218 32.0622 278.754 33.5199 277.827 33.6524C276.899 33.7849 275.905 32.6585 275.574 31.0683Z" fill="#66423B"/>
<path d="M280.278 29.7435C280.278 29.7435 277.032 28.0208 274.514 28.8822C274.514 28.8822 274.911 27.4907 276.833 27.557C278.821 27.6232 280.278 29.7435 280.278 29.7435Z" fill="#66423B"/>
<path d="M265.901 31.2011C265.901 31.2011 268.22 29.2133 270.605 29.4784C270.605 29.4784 269.876 28.352 268.153 28.7495C266.497 29.0808 265.901 31.2011 265.901 31.2011Z" fill="#66423B"/>
<path d="M280.411 26.7615V26.4302C279.085 24.5087 276.435 23.4486 275.044 23.3823L275.11 24.575C276.236 24.3762 279.019 25.1713 280.411 26.7615Z" fill="#7C4343"/>
<path d="M265.039 28.2196C266.165 25.9668 268.882 25.1717 269.611 25.1717L269.346 23.979C268.551 24.0453 266.033 25.0391 264.774 27.822L265.039 28.2196Z" fill="#7C4343"/>
<path d="M271.731 36.2364C271.731 36.3027 271.731 36.3027 271.798 36.3689C272.195 37.2303 273.255 37.4953 274.117 37.0978C274.647 36.8327 274.912 36.3689 275.044 35.8389C275.376 36.634 275.044 37.6279 274.249 38.0254C273.388 38.4892 272.328 38.1579 271.93 37.2966C271.665 36.9653 271.665 36.5677 271.731 36.2364Z" fill="#EA7B59"/>
<path d="M277.893 40.2124L272.062 41.14C272.062 41.14 273.321 43.9892 275.706 43.5253C277.959 43.0615 277.893 40.2124 277.893 40.2124Z" fill="#491D2E"/>
<path d="M277.496 40.3447L272.526 41.1398C272.526 41.1398 272.46 42.465 275.309 42.0674C278.291 41.6699 277.496 40.3447 277.496 40.3447Z" fill="#FFEBEB"/>
<path d="M274.581 44.6512C274.515 44.3199 275.111 44.585 275.707 44.4525C276.304 44.3199 276.767 43.9224 276.834 44.2537C276.9 44.585 276.502 44.9825 275.84 45.115C275.243 45.2476 274.713 44.9825 274.581 44.6512Z" fill="#EF8F6F"/>
<path d="M330.641 166.767H260.738L256.299 234.152L302.15 297.164L330.641 166.767Z" fill="#8B54B2"/>
<path d="M332.43 169.284H262.527L258.021 236.669L303.939 299.681L332.43 169.284Z" fill="#634C84"/>
<path d="M331.767 172.464H261.931L236.487 290.272L303.342 302.862L331.767 172.464Z" fill="#E2D5AF"/>
<path d="M268.225 178.03C280.682 177.699 291.085 176.838 291.085 173.989C291.085 173.856 291.085 173.723 291.018 173.657H264.184L268.225 178.03Z" fill="#F7F0DA"/>
<path d="M262.527 171.869C271.075 173.194 275.249 177.567 274.056 183.133C272.532 190.09 262.527 171.869 262.527 171.869Z" fill="#3B2D51"/>
<path d="M340.05 182.138H270.147L241.722 312.535H311.558L340.05 182.138Z" fill="#634C84"/>
<path d="M353.632 182.138H283.729L255.304 312.535H325.141L353.632 182.138Z" fill="#4C396B"/>
<path d="M273.791 191.15L248.812 305.579H310.101L335.08 191.15H273.791ZM309.107 303.724H251.197L274.785 193.071H332.695L309.107 303.724Z" fill="#EADDBE"/>
<path opacity="0.6" d="M274.188 166.833L276.044 169.085L275.58 172.332L283.73 182.138H294.464L296.981 166.833H274.188Z" fill="#C94343"/>
<path d="M388.353 150.069H315.402C313.149 150.069 311.294 151.858 311.161 154.111L301.885 308.428C301.752 310.879 303.674 312.933 306.125 312.933H384.51C386.829 312.933 388.75 311.078 388.816 308.759L392.659 154.442C392.726 152.057 390.738 150.069 388.353 150.069Z" fill="#F24C5C"/>
<path d="M346.477 150.069H317.853C316.992 150.069 316.462 151.858 316.727 154.111L333.49 308.428C333.755 310.879 334.815 312.933 335.743 312.933H366.487C367.415 312.933 367.879 311.078 367.614 308.759L348.73 154.442C348.398 152.057 347.405 150.069 346.477 150.069Z" fill="#D63444"/>
<path d="M382.323 307.632H319.51V307.102L319.642 156.96H385.901C387.094 156.96 388.22 157.424 389.081 158.285C389.943 159.147 390.407 160.273 390.34 161.532L386.829 303.326C386.696 305.711 384.775 307.632 382.323 307.632ZM320.57 306.572H382.389C384.245 306.572 385.769 305.115 385.769 303.259L389.28 161.466C389.28 160.538 388.949 159.677 388.286 159.014C387.624 158.351 386.762 157.954 385.835 157.954H320.636L320.57 306.572Z" fill="#EADDBE"/>
<path d="M316.793 150.069H293.536L290.753 313H316.661L316.793 150.069Z" fill="#D63444"/>
<path d="M293.536 150.069L293.47 152.786L313.612 152.985L315.07 313H316.66L316.793 150.069H293.536Z" fill="#B72036"/>
<path d="M361.783 208.907C361.783 208.907 379.275 259.86 379.275 261.649C379.275 263.438 355.025 305.711 355.025 305.711L354.428 305.512L366.686 262.775L356.35 237.332L361.783 208.907Z" fill="#6D3E4C"/>
<path d="M359.464 221.297L352.639 233.953L365.957 262.312L354.494 305.512L354.627 305.579C359.199 295.11 371.324 263.835 371.324 262.378C371.324 261.119 364.632 236.471 359.464 221.297Z" fill="#592E3C"/>
<path d="M338.857 215.334C346.278 250.783 368.276 311.145 368.276 311.145H368.938L360.192 234.086L364.565 229.978L362.114 209.106C362.047 209.172 337.333 207.847 338.857 215.334Z" fill="#6D3E4C"/>
<path d="M342.104 224.345C352.307 214.87 355.952 215.135 358.867 216.262C361.782 217.388 364.366 216.527 364.366 216.527L362.975 210.762L342.435 209.702L342.104 224.345Z" fill="#592E3C"/>
<path d="M342.767 210.829C340.116 211.756 338.46 213.214 338.858 215.334C346.279 250.783 368.276 311.144 368.276 311.144H368.873C365.361 298.754 349.525 242.567 342.767 210.829Z" fill="#592E3C"/>
<path d="M360.457 235.212L354.361 232.893L360.523 232.76L365.824 228.387L360.457 235.212Z" fill="#592E3C"/>
<path d="M354.229 158.484C365.759 167.893 369.999 185.782 369.999 185.782L392.13 184.789L393.256 190.023C393.256 190.023 374.77 200.757 365.03 197.842C355.223 194.926 354.229 158.484 354.229 158.484Z" fill="#FFB94A"/>
<path d="M392.925 190.156C397.629 191.415 400.876 190.288 402.201 188.698C403.526 187.108 405.712 183 403.526 182.801C401.339 182.602 391.931 186.379 391.931 186.379L392.925 190.156Z" fill="#FF9566"/>
<path d="M371.788 189.758C365.295 187.837 367.879 171.802 354.229 158.484C354.229 158.484 355.223 194.926 364.963 197.842C374.77 200.757 393.19 190.023 393.19 190.023L392.593 187.041C386.365 188.433 378.546 191.812 371.788 189.758Z" fill="#FF9239"/>
<path d="M394.515 190.885C394.515 191.084 391.401 184.193 391.401 184.193L385.305 184.657L386.034 189.229L387.889 189.295L385.636 190.554L388.021 194.33L394.515 190.885Z" fill="#EADDBE"/>
<path d="M340.05 154.575C330.443 166.767 333.491 183.331 335.744 191.15C337.996 199.035 334.352 214.871 340.382 221.894C340.382 221.894 349.128 212.353 355.224 213.148C361.319 213.943 362.843 217.057 364.434 215.666C366.024 214.274 363.97 195.258 365.03 189.957C366.024 184.723 364.5 170.543 357.741 162.327C350.917 154.244 340.05 154.575 340.05 154.575Z" fill="#FFB94A"/>
<path d="M338.791 160.737C337.73 160.737 336.67 161.267 335.743 162.261C331.635 172.995 333.954 184.855 335.809 191.15C338.062 199.035 334.418 214.871 340.447 221.894C340.447 221.894 344.688 217.256 349.326 214.738C349.79 210.299 350.055 205.528 350.055 200.493C349.922 178.561 344.953 160.737 338.791 160.737Z" fill="#FF6D2C"/>
<path d="M346.742 145.166C340.315 135.028 343.032 130.92 343.032 130.92C343.032 130.92 339.52 125.62 343.098 120.584C343.098 120.584 343.363 113.097 352.374 111.44C352.374 111.44 358.271 105.079 362.975 108.724C362.975 108.724 368.475 104.35 371.059 112.898C373.643 121.379 370.396 121.313 370.396 121.313C370.396 121.313 375.498 132.312 367.216 135.028C358.867 137.745 346.742 145.166 346.742 145.166Z" fill="#7A4939"/>
<path d="M366.62 135.161C366.62 135.161 360.259 134.83 358.338 128.999C358.338 128.999 352.507 124.361 356.416 116.145C356.416 116.145 355.422 110.977 357.675 107.929C354.693 108.856 352.308 111.44 352.308 111.44C343.363 113.097 343.032 120.584 343.032 120.584C339.454 125.554 342.966 130.921 342.966 130.921C342.966 130.921 340.183 135.029 346.676 145.166C346.676 145.166 358.338 138.076 366.62 135.227V135.161Z" fill="#603428"/>
<path d="M352.772 157.159L339.984 154.575C349.989 159.345 359.596 168.158 359.596 168.158C359.596 168.158 356.35 159.279 352.772 157.159Z" fill="#EADDBE"/>
<path d="M340.05 154.575L349.326 131.716L357.41 142.582L353.964 158.882L340.05 154.575Z" fill="#FFB882"/>
<path d="M409.158 146.756L389.016 184.391L356.085 187.373L356.217 187.969H401.075L424 150.4L409.158 146.756Z" fill="#DBCCAD"/>
<path d="M389.016 184.391L356.085 187.373L356.217 187.969H401.075L390.805 186.511L389.016 184.391Z" fill="#D1BB93"/>
<path d="M356.217 187.969H401.074L390.804 186.512L356.217 187.969Z" fill="#BA9E70"/>
<path d="M413.465 147.816L390.738 186.512L401.074 187.969L424 150.4L413.465 147.816Z" fill="#EFE3CA"/>
<path d="M413.464 147.816L401.074 187.969L423.999 150.4L413.464 147.816Z" fill="#F9F0E1"/>
<path d="M336.141 193.005C337.532 201.221 334.815 215.135 340.249 221.761C344.357 204.799 350.784 198.968 364.764 200.161C364.632 196.318 364.632 192.74 364.897 190.619C357.211 189.559 344.224 188.698 336.141 193.005Z" fill="#FF6D2C"/>
<path d="M348.133 185.981C347.139 170.675 342.369 153.846 339.851 154.707C336.803 155.701 331.767 162.128 330.906 171.272C330.111 179.687 335.809 198.372 340.05 201.817C344.29 205.262 368.342 188.168 374.769 185.385L375.896 178.428C367.017 178.229 355.621 181.873 348.133 185.981Z" fill="#FFB94A"/>
<path d="M349.923 185.054C357.41 181.94 367.349 179.554 375.167 180.151L373.975 185.783C374.24 185.65 374.505 185.518 374.77 185.385L375.896 178.428C367.68 178.229 357.344 181.343 349.923 185.054Z" fill="#FF9239"/>
<path d="M342.502 196.119C338.261 192.674 333.358 172.001 334.22 163.586C334.352 162.062 334.617 160.671 334.948 159.346C333.027 162.261 331.37 166.369 330.84 171.339C330.045 179.753 334.948 200.426 339.123 203.872C343.363 207.317 368.277 188.235 374.704 185.385L375.433 181.079C366.753 185.849 346.279 199.233 342.502 196.119Z" fill="#FF9239"/>
<path d="M377.155 312.999H368.21C368.21 312.999 366.951 310.813 368.806 309.885C371.191 308.692 377.155 312.999 377.155 312.999Z" fill="#F2E9CE"/>
<path d="M360.259 312.999H355.224L352.971 306.042C352.971 306.042 355.091 302.266 356.151 304.253C356.814 305.512 356.416 309.223 356.416 310.813C358.205 312.072 360.259 312.999 360.259 312.999Z" fill="#F2E9CE"/>
<path d="M264.051 169.351C262.726 173.392 272.532 181.078 274.984 182.138L267.629 183.861L260.274 172.995L260.804 166.7L264.051 169.351Z" fill="#634C84"/>
<path d="M271.803 184.126C264.184 179.753 261.6 172.399 260.804 166.767L232.379 297.164C233.572 303.724 236.421 309.157 241.987 312.668L271.803 184.126Z" fill="#503D70"/>
<path d="M308.047 215.201H297.114L295.855 302H307.981L308.047 215.201Z" fill="#EADDBE"/>
<path d="M297.579 161.466H308.445L309.24 157.49H297.115L297.579 161.466Z" fill="#EADDBE"/>
<path d="M297.579 170.278H308.445L309.24 166.236H297.115L297.579 170.278Z" fill="#EADDBE"/>
<path d="M384.509 179.554C384.708 181.675 384.178 183 383.714 183.265C383.251 183.53 381.66 182.735 381.395 182.072C381.13 181.343 384.377 177.699 384.509 179.554Z" fill="#FF9566"/>
<path d="M383.979 178.295C383.847 182.271 383.449 182.602 382.853 183C382.256 183.331 380.401 182.867 380.202 182.271C380.004 181.675 380.335 180.084 380.799 180.217C381.263 180.349 381.859 180.416 381.859 180.416L383.979 178.295Z" fill="#FFB882"/>
<path d="M382.389 177.169C381.594 175.579 375.167 175.711 371.788 178.892L373.908 184.59C376.824 183.331 379.408 181.078 381.197 181.277C383.052 181.409 383.251 178.759 382.389 177.169Z" fill="#FFB882"/>
<path d="M381.661 179.156C381.528 183.132 381.131 183.463 380.534 183.861C379.938 184.192 378.083 183.728 377.884 183.132C377.685 182.535 378.017 180.945 378.48 181.078C378.944 181.21 379.541 181.277 379.541 181.277L381.661 179.156Z" fill="#FFB882"/>
<path d="M381.13 176.374C383.251 176.838 384.775 177.898 385.503 178.892C386.232 179.886 387.094 182.404 387.16 183C387.16 183.596 385.967 184.325 385.702 183.53C385.437 182.801 384.642 180.482 384.377 180.416C384.112 180.35 381.992 179.157 381.859 179.157C381.727 179.157 381.13 176.374 381.13 176.374Z" fill="#FFB882"/>
<path d="M375.896 185.12C375.896 185.385 372.782 177.235 372.782 177.235L366.686 177.765L367.415 183.066L369.27 183.132L367.017 184.656L369.403 189.096L375.896 185.12Z" fill="#EADDBE"/>
<path d="M339.122 154.906L340.911 151.924L354.892 157.159L354.03 159.809L339.122 154.906Z" fill="#EADDBE"/>
<path opacity="0.6" d="M354.694 158.948C354.627 158.815 354.495 158.749 354.428 158.616L354.892 157.159L354.362 156.96L355.886 149.605C353.567 145.232 350.32 140.925 346.742 138.076L341.044 152.057L340.845 151.991L339.056 154.906L339.255 154.972C337.996 155.568 336.472 157.026 335.015 159.146C343.032 158.815 354.23 166.832 358.271 164.381C358.603 164.182 358.802 163.917 359 163.586C357.808 161.863 356.35 160.339 354.694 158.948Z" fill="#C94343"/>
<path d="M350.85 125.023C345.947 137.016 346.013 148.214 346.08 149.075C346.146 149.936 353.965 155.767 356.615 156.297C356.615 156.297 366.156 144.238 368.144 134.167C370.132 124.096 367.548 121.578 364.566 120.981C361.518 120.319 352.772 120.385 350.85 125.023Z" fill="#FFB882"/>
<path d="M349.459 140.528C356.085 124.626 357.94 117.006 352.308 119.855C346.676 122.771 347.073 138.209 347.073 138.209L349.459 140.528Z" fill="#603428"/>
<path d="M349.392 135.227C349.525 131.45 345.351 128.138 344.555 132.179C343.76 136.221 346.344 142.251 347.338 140.992C348.398 139.733 349.326 136.486 349.392 135.227Z" fill="#FFB882"/>
<path d="M348.464 135.426C348.597 133.041 345.947 130.92 345.417 133.504C344.953 136.022 346.543 139.799 347.139 139.07C347.868 138.275 348.464 136.221 348.464 135.426Z" fill="#DB5B3E"/>
<path d="M348.068 137.016C348.134 135.492 346.411 134.101 346.08 135.757C345.748 137.414 346.809 139.932 347.206 139.401C347.604 138.871 348.001 137.546 348.068 137.016Z" fill="#FFB882"/>
<path d="M365.295 136.884C365.759 135.89 365.626 134.83 365.03 134.631C364.434 134.432 363.639 135.095 363.175 136.089C362.711 137.083 362.844 138.143 363.44 138.341C364.036 138.606 364.898 137.944 365.295 136.884Z" fill="#4F3131"/>
<path d="M361.055 133.637C361.917 133.306 362.314 144.305 361.784 145.498C361.519 146.094 357.809 144.04 357.809 144.04C357.809 144.04 360.857 133.703 361.055 133.637Z" fill="#FFB882"/>
<path d="M361.32 134.035C361.717 136.354 362.115 144.239 361.651 145.232C361.452 145.696 359.133 144.504 358.139 143.973C358.073 144.172 358.007 144.305 358.007 144.305C358.007 144.305 361.916 146.69 362.181 146.094C362.645 145.034 362.049 134.631 361.32 134.035Z" fill="#EA7B59"/>
<path d="M359.133 134.3C359.663 133.306 359.597 132.312 359.067 132.047C358.537 131.782 357.609 132.378 357.079 133.372C356.549 134.366 356.549 135.36 357.145 135.625C357.742 135.89 358.603 135.294 359.133 134.3Z" fill="#4F3131"/>
<path d="M364.367 127.078C364.035 126.216 358.867 125.885 357.542 126.017C356.283 126.15 356.018 127.078 355.952 128.071C355.886 129.065 361.385 131.186 363.307 130.059C364.234 129.529 364.632 127.939 364.367 127.078Z" fill="#7A4939"/>
<path d="M365.361 131.782C365.162 133.504 368.078 134.366 368.74 133.637C369.403 132.908 369.999 132.113 369.734 131.384C369.403 130.655 367.548 128.336 366.819 128.8C366.09 129.264 365.428 130.987 365.361 131.782Z" fill="#7A4939"/>
<path d="M355.489 148.745C355.556 148.546 355.158 148.148 354.495 147.751C353.833 147.353 353.303 147.221 353.17 147.419C353.104 147.618 353.502 148.016 354.164 148.413C354.827 148.811 355.423 148.943 355.489 148.745Z" fill="#EA7B59"/>
<path d="M352.242 143.708C352.375 143.509 352.441 143.377 352.441 143.377C354.097 145.696 355.224 147.087 359.001 149.009C359.001 149.009 358.802 149.141 358.603 149.274C356.35 148.413 352.64 145.365 352.242 143.708Z" fill="#EA7B59"/>
<path d="M403.261 186.512C405.05 184.59 406.574 180.681 406.176 179.289C405.712 177.898 404.52 178.428 404.188 179.024C403.857 179.621 403.46 183.927 403.195 184.921C402.996 185.982 403.261 186.512 403.261 186.512Z" fill="#FF9566"/>
<path d="M401.936 188.433C403.46 186.975 404.321 184.06 403.658 183.066C402.996 182.006 401.869 182.403 401.604 182.867C401.339 183.331 401.671 186.511 401.604 187.306C401.538 188.102 401.936 188.433 401.936 188.433Z" fill="#FF9566"/>
<path d="M142.996 192.674H209.785L219.194 313H143.791L142.996 192.674Z" fill="#B7BF47"/>
<path d="M149.754 259.529L174.8 192.74H185.269L181.227 204.733L184.872 204.004L188.185 263.239H199.78L205.876 286.43H210.845L215.218 301.205L217.073 312.867H142.996L149.754 259.529Z" fill="#999B32"/>
<g opacity="0.58">
<path opacity="0.58" d="M145.514 196.848L205.081 196.318L211.707 308.494L146.243 308.825L145.514 196.848ZM204.219 197.245L146.442 197.776L147.171 307.831L210.713 307.5L204.219 197.245Z" fill="#FFF9F1"/>
</g>
<path d="M209.387 192.674H226.217L233.638 313H215.881L209.387 192.674Z" fill="#A5A53A"/>
<path opacity="0.42" d="M216.278 211.16H224.561L229.663 296.038H220.983L216.278 211.16Z" fill="#FFF9F1"/>
<path d="M210.779 192.674L217.272 313H214.754L208.261 192.674H210.779Z" fill="#999B32"/>
<path d="M141.87 247.47C121.197 254.029 70.1113 262.643 70.1113 262.643L70.3764 263.504H149.887L141.87 247.47Z" fill="#7C3552"/>
<path d="M146.706 255.62L149.887 263.504H70.376L146.706 255.62Z" fill="#602540"/>
<path d="M145.316 235.874C161.549 226.333 162.94 224.08 165.79 218.117C168.639 212.154 171.09 199.896 164.928 199.498C158.766 199.101 147.635 219.774 142.798 219.376C138.027 218.978 136.371 241.175 145.316 235.874Z" fill="#EADDBE"/>
<path d="M141.472 219.575C142.466 221.497 146.309 223.484 148.495 221.364C157.573 212.353 158.765 204.07 163.47 201.553C164 201.288 167.843 201.95 168.108 201.288C169.963 205.131 168.042 213.28 165.921 217.72C163.072 223.683 161.681 225.936 145.447 235.477C137.231 240.248 137.761 222.888 141.472 219.575Z" fill="#D8C5A0"/>
<path d="M159.229 205.462C162.807 198.968 167.512 196.45 167.512 196.45C167.512 196.45 180.299 192.475 184.54 203.209C188.781 214.009 174.336 247.337 171.885 253.565C169.433 259.86 166.65 261.848 152.67 260.854L140.875 248.066C154.127 237.465 156.91 209.702 159.229 205.462Z" fill="#EADDBE"/>
<path d="M152.537 229.249C151.543 236.471 159.759 243.826 162.807 243.627C167.644 243.229 174.137 225.141 179.372 209.901C180.83 205.727 181.492 202.016 181.625 198.77C182.817 199.83 183.811 201.287 184.54 203.209C188.781 214.009 174.336 247.337 171.885 253.566C169.433 259.86 166.65 261.848 152.67 260.854L140.875 248.066C146.242 243.759 149.953 236.537 152.537 229.249Z" fill="#D8C5A0"/>
<path d="M153.928 215.732L131.665 213.545L109.402 217.057L132.659 218.382L154.127 216.593L153.928 215.732Z" fill="#DBC8A2"/>
<path d="M128.353 214.075L131.665 213.545L153.928 215.732L154.127 216.593L150.748 216.858L128.353 214.075Z" fill="#D3BB92"/>
<path d="M126.033 178.494L131.665 213.545L109.402 217.057L102.114 185.783L126.033 178.494Z" fill="#EADDBE"/>
<path d="M126.033 178.494L109.402 217.057L102.114 185.783L126.033 178.494Z" fill="#F4E8CE"/>
<path d="M124.112 179.024L126.034 178.494L131.666 213.545L129.413 213.943L124.112 179.024Z" fill="#DBC8A2"/>
<path d="M167.777 236.735C181.758 224.08 182.619 222.755 184.275 216.328C185.866 209.901 185.733 197.378 179.637 198.239C173.542 199.1 166.982 220.634 162.145 221.231C157.308 221.893 160.091 243.693 167.777 236.735Z" fill="#EADDBE"/>
<path d="M162.145 221.297C165.193 220.9 168.969 212.087 172.812 205.528C175.065 201.685 167.512 220.966 162.675 221.562C158.898 222.026 159.759 235.609 164.066 237.994C159.296 236.471 158.169 221.761 162.145 221.297Z" fill="#D8C5A0"/>
<path d="M167.711 226.929C181.692 214.274 182.553 211.756 184.143 205.395C184.276 204.799 184.408 204.07 184.541 203.407C185.468 207.383 185.071 212.816 184.209 216.394C182.619 222.821 181.692 225.273 167.777 237.928C161.151 243.891 158.17 227.923 160.489 222.821C161.748 227.062 164.199 230.11 167.711 226.929Z" fill="#D8C5A0"/>
<path d="M142.4 220.237C133.852 216.924 116.228 217.52 116.228 217.52L118.414 220.568C118.414 220.568 138.822 237.729 143.791 235.874C148.959 233.952 145.911 221.562 142.4 220.237Z" fill="#FF9566"/>
<path d="M167.909 220.436C163.271 212.551 152.935 205.396 152.935 205.396L148.23 208.642C148.23 208.642 159.031 237.398 163.868 238.459C168.704 239.519 169.765 223.55 167.909 220.436Z" fill="#FFB882"/>
<path d="M163.999 228.719C166.318 229.249 167.776 225.803 168.439 221.761C169.565 226.664 168.24 239.386 163.933 238.459C159.096 237.398 148.296 208.642 148.296 208.642C148.296 208.642 160.753 227.99 163.999 228.719Z" fill="#FF9566"/>
<path d="M146.176 156.695C146.176 156.695 146.11 157.159 146.044 157.821C146.044 157.159 146.176 156.695 146.176 156.695Z" fill="#CE5230"/>
<path d="M146.044 157.888C146.044 158.484 146.11 159.213 146.508 160.008C147.369 161.731 152.073 162.394 149.754 154.774C147.435 147.154 153.995 146.16 153.995 146.16C153.995 146.16 149.821 149.738 154.657 151.726C159.494 153.714 157.175 147.485 162.078 146.69C166.982 145.895 168.506 153.382 168.506 153.382C168.506 153.382 170.493 148.811 177.384 151.395C184.275 154.045 179.77 159.478 179.77 159.478C179.77 159.478 186.197 160.538 186.66 169.086C187.124 177.633 182.42 174.453 182.42 174.453C183.215 179.687 178.709 182.072 178.709 182.072C178.709 182.072 177.517 184.259 176.722 189.825L157.175 171.935C144.851 175.314 145.58 161.93 146.044 157.888Z" fill="#7A4939"/>
<path d="M160.024 169.152C168.704 165.044 176.788 160.008 175.131 151.395C175.065 151.13 174.999 150.865 174.933 150.6C175.661 150.732 176.523 150.931 177.45 151.262C184.341 153.913 179.836 159.346 179.836 159.346C179.836 159.346 186.263 160.406 186.727 168.953C187.191 177.501 182.486 174.32 182.486 174.32C183.281 179.555 178.776 181.94 178.776 181.94C178.776 181.94 177.583 184.127 176.788 189.692L157.242 171.802C150.748 173.591 147.899 170.809 146.64 167.098C149.29 170.875 151.676 173.128 160.024 169.152Z" fill="#603428"/>
<path d="M174.733 179.223L179.106 197.047C174.667 197.709 170.692 200.095 167.114 204.004L165.06 184.921L174.733 179.223Z" fill="#FFB882"/>
<path d="M130.208 218.978L135.443 216.659C146.773 219.707 165.127 256.878 165.127 256.878C165.127 256.878 160.489 263.438 155.254 263.438C147.966 263.438 142.002 263.438 142.002 263.438L135.178 231.567L121.065 262.311L119.872 261.848C119.872 261.781 127.426 225.339 130.208 218.978Z" fill="#7C3552"/>
<path d="M135.84 221.032C135.84 221.032 142.93 225.472 148.827 229.315C157.374 241.175 165.193 256.878 165.193 256.878C165.193 256.878 160.554 263.438 155.32 263.438C148.032 263.438 142.068 263.438 142.068 263.438L135.244 231.567L121.131 262.311L120.534 262.113L135.84 221.032Z" fill="#602540"/>
<path d="M198.654 264.034H141.472C131.335 264.034 128.419 285.568 138.557 285.568H195.738C190.57 282.653 191.299 267.48 198.654 264.034Z" fill="#CEB995"/>
<path d="M142.333 262.975H84.489C73.0262 262.643 71.7011 286.298 83.2301 286.629H141.074C131.201 286.364 132.46 262.71 142.333 262.975Z" fill="#FFB94A"/>
<path d="M199.184 262.974H85.9477L85.4839 265.227H198.72C199.449 265.227 200.112 264.697 200.244 264.101C200.31 263.504 199.847 262.974 199.184 262.974Z" fill="#FFB94A"/>
<path d="M197.991 284.707H84.9539L84.4238 286.629H197.461C198.19 286.629 198.853 286.165 198.985 285.635C199.184 285.105 198.72 284.707 197.991 284.707Z" fill="#FFB94A"/>
<path d="M199.648 262.974H139.22L138.955 265.227H199.383C199.78 265.227 200.111 264.697 200.178 264.101C200.244 263.504 200.045 262.974 199.648 262.974Z" fill="#EF7335"/>
<path d="M199.051 284.707H138.756L138.491 286.629H198.786C199.184 286.629 199.515 286.165 199.581 285.635C199.648 285.105 199.383 284.707 199.051 284.707Z" fill="#EF7335"/>
<path d="M144.918 264.763H87.074C75.6112 264.498 74.286 284.641 85.815 284.906H143.659C129.678 283.979 130.937 263.836 144.918 264.763Z" fill="#EF7335"/>
<path d="M143.393 265.492L92.3079 265.757C82.0378 265.492 80.9114 284.309 91.1815 284.575H142.93C134.117 284.309 134.581 265.227 143.393 265.492Z" fill="#DDCBA6"/>
<path d="M136.17 268.01H95.4876C87.404 267.811 86.5427 282.057 94.6262 282.256H135.309C128.352 282.057 129.213 267.877 136.17 268.01Z" fill="#EADDBE"/>
<path d="M152.206 286.231H70.5752C65.5395 286.231 65.4733 313 70.5089 313H152.14C145.58 313 145.646 286.231 152.206 286.231Z" fill="#5E85BC"/>
<path d="M210.911 289.412H152.338C142.002 289.412 141.936 309.886 152.272 309.886H210.845C205.146 307.103 203.821 292.658 210.911 289.412Z" fill="#DDCBA6"/>
<path d="M166.054 305.777C158.036 305.777 158.103 293.453 166.12 293.453H207.2C205.61 297.097 205.875 302.133 207.465 305.777H166.054Z" fill="#EADDBE"/>
<path d="M210.315 286.231H142.797V290.935H210.315C211.176 290.935 211.905 289.875 211.905 288.55C211.905 287.291 211.176 286.231 210.315 286.231Z" fill="#4B6F9B"/>
<path d="M210.249 308.296H142.731V313H210.249C211.11 313 211.839 311.94 211.839 310.615C211.839 309.356 211.11 308.296 210.249 308.296Z" fill="#4B6F9B"/>
<path d="M152.14 313H140.876C136.966 307.964 137.033 291.333 140.942 286.231H152.206C145.646 286.231 145.58 313 152.14 313Z" fill="#4B6F9B"/>
<path d="M73.9551 299.748C73.9551 294.646 74.8164 288.749 77.1355 288.749H135.377V289.743C133.588 289.743 132.263 294.05 132.263 299.748C132.263 305.38 133.588 309.621 135.311 309.621V310.614H77.0692C74.7502 310.548 73.9551 304.717 73.9551 299.748ZM131.401 299.682C131.401 295.574 132.064 291.466 133.588 289.677H77.1355C75.8766 289.677 74.8164 294.182 74.8164 299.682C74.8164 305.844 75.9428 309.488 77.0692 309.488H133.522C132.064 307.765 131.401 303.724 131.401 299.682Z" fill="#DDCBA6"/>
<path d="M110.396 262.908H121.527C121.527 262.908 123.051 261.119 121.13 260.125C119.142 259.198 110.396 262.908 110.396 262.908Z" fill="#F4E6C9"/>
<path d="M63.9492 254.559L69.1837 264.365C69.1837 264.365 71.5027 264.895 71.4365 262.709C71.3702 260.522 63.9492 254.559 63.9492 254.559Z" fill="#F4E6C9"/>
<path opacity="0.6" d="M167.048 212.021C162.807 211.093 161.349 206.654 161.283 201.022C162.012 200.492 162.741 200.028 163.403 199.763C164.53 198.571 165.59 197.709 166.319 197.179L164.994 184.855L174.734 179.157L179.107 196.98H179.041C179.769 197.312 180.498 197.775 181.161 198.306C182.486 198.637 183.414 199.829 184.076 201.353C177.318 202.745 173.144 213.346 167.048 212.021Z" fill="#C94343"/>
<path d="M173.077 164.977C176.324 178.03 174.27 190.553 174.27 190.553C174.27 190.553 165.391 195.92 159.958 195.986C159.958 195.986 154.922 175.115 156.91 166.832C158.898 158.55 172.414 162.393 173.077 164.977Z" fill="#FFB882"/>
<path d="M171.885 183.265C170.891 171.604 170.162 163.984 173.74 165.773C177.318 167.496 176.059 180.681 176.059 180.681L171.885 183.265Z" fill="#603428"/>
<path d="M157.507 177.235C157.44 176.44 157.639 175.711 158.037 175.711C158.434 175.645 158.832 176.307 158.898 177.103C158.964 177.898 158.766 178.627 158.368 178.627C158.037 178.693 157.639 178.03 157.507 177.235Z" fill="#633D37"/>
<path d="M163.602 176.374C163.536 175.579 163.735 174.85 164.132 174.85C164.53 174.784 164.928 175.447 164.994 176.242C165.06 177.037 164.861 177.766 164.464 177.766C164.066 177.832 163.669 177.169 163.602 176.374Z" fill="#633D37"/>
<path d="M152.935 177.832L154.591 183.795L167.777 182.47L168.042 177.103L177.649 175.645L179.968 178.561L181.89 176.838L178.908 174.651L152.935 177.832Z" fill="#EADDBE"/>
<path d="M157.771 178.031L153.796 178.561L155.055 183L157.97 182.603L157.771 178.031Z" fill="#FFB882"/>
<path d="M157.771 177.898L153.796 178.428L155.055 182.934L157.97 182.536L157.771 177.898Z" fill="#FFB882"/>
<path d="M157.838 182.536L156.844 182.668L153.863 178.428L155.122 178.295L157.838 182.536Z" fill="#FFC69F"/>
<path d="M174.203 176.904C175.33 173.79 179.703 174.453 178.908 176.772C178.113 179.091 174.932 183.332 174.071 182.669C173.209 182.006 173.872 177.766 174.203 176.904Z" fill="#FFB882"/>
<path d="M158.434 178.693C158.302 178.627 156.38 186.644 156.248 187.373C156.115 188.102 160.754 186.644 160.754 186.644C160.754 186.644 158.832 178.892 158.434 178.693Z" fill="#FFB882"/>
<path d="M175.065 177.699C175.728 175.91 178.179 176.307 177.782 177.633C177.318 178.958 175.463 181.409 174.999 181.012C174.535 180.614 174.866 178.229 175.065 177.699Z" fill="#DB5B3E"/>
<path d="M174.933 179.289C175.33 178.163 176.921 178.428 176.656 179.223C176.39 180.084 175.198 181.608 174.867 181.343C174.535 181.145 174.8 179.621 174.933 179.289Z" fill="#FFB882"/>
<path d="M159.163 177.832L160.488 182.668L166.783 181.873L167.114 176.97L159.163 177.832Z" fill="#FFB882"/>
<path d="M159.958 177.765L162.609 177.434L166.651 181.873L164 182.205L159.958 177.765Z" fill="#FFC69F"/>
<path d="M158.434 178.694C158.501 178.76 158.633 179.025 158.766 179.489C158.169 181.808 157.109 186.247 157.043 186.777C156.977 187.307 159.362 186.711 160.687 186.313C160.754 186.512 160.754 186.645 160.754 186.645C160.754 186.645 156.115 188.036 156.248 187.373C156.38 186.645 158.302 178.561 158.434 178.694Z" fill="#FF9566"/>
<path d="M156.579 179.687C156.181 179.753 155.717 179.157 155.519 178.296L157.308 178.031C157.308 178.958 157.043 179.621 156.579 179.687Z" fill="#633D37"/>
<path d="M163.934 179.289C163.404 179.356 162.94 178.561 162.808 177.434L164.795 177.235C164.795 178.362 164.398 179.223 163.934 179.289Z" fill="#633D37"/>
<path d="M169.102 173.658C165.192 173.857 160.687 173.062 160.687 173.062L160.355 169.55C160.355 169.55 168.041 170.875 168.704 171.538C169.367 172.2 169.102 173.658 169.102 173.658Z" fill="#7A4939"/>
<path d="M154.657 174.585C156.91 174.453 159.428 173.194 159.428 173.194L159.097 169.682C159.097 169.682 154.856 171.736 154.591 172.465C154.326 173.128 154.657 174.585 154.657 174.585Z" fill="#7A4939"/>
<path d="M160.025 188.035L167.048 186.18C167.048 186.18 167.38 190.487 163.868 191.15C160.356 191.812 160.025 188.035 160.025 188.035Z" fill="#472922"/>
<path d="M160.885 189.294C160.554 188.632 160.554 188.036 160.554 188.036L166.584 186.445C166.584 186.445 166.65 187.042 166.451 187.837L160.885 189.294Z" fill="#FFF6E3"/>
<path d="M115.167 200.757C116.029 200.625 116.559 199.234 116.294 197.71C116.161 196.914 115.896 196.252 115.499 195.788C116.095 196.119 116.625 197.047 116.824 198.173C117.089 199.697 116.559 201.089 115.697 201.221C115.234 201.288 114.836 201.023 114.438 200.625C114.637 200.758 114.902 200.824 115.167 200.757Z" fill="#DBC8A2"/>
<path d="M114.306 194.132C115.168 193.999 116.029 194.794 116.625 196.053C116.095 195.258 115.433 194.794 114.77 194.86C113.577 195.059 112.915 196.981 113.246 199.167C113.379 199.83 113.511 200.36 113.776 200.89C113.379 200.227 112.981 199.432 112.848 198.438C112.451 196.252 113.114 194.33 114.306 194.132Z" fill="#D3BB92"/>
<path d="M138.491 206.456C138.225 208.377 138.822 209.636 139.418 209.835C139.948 210.034 141.803 209.305 142.135 208.708C142.466 208.112 138.689 204.733 138.491 206.456Z" fill="#FF9566"/>
<path d="M139.087 205.329C139.219 208.973 139.683 209.304 140.412 209.635C141.141 209.967 143.261 209.503 143.526 208.907C143.791 208.31 143.394 206.919 142.797 207.051C142.201 207.184 141.538 207.184 141.538 207.184L139.087 205.329Z" fill="#FFB882"/>
<path d="M141.008 204.269C142.002 202.811 149.423 202.877 153.398 205.726L149.356 209.768C148.031 207.648 144.586 207.78 142.399 207.979C140.213 208.178 140.014 205.726 141.008 204.269Z" fill="#FFB882"/>
<path d="M140.677 206.058C140.81 209.702 141.274 210.034 142.002 210.365C142.731 210.696 144.852 210.232 145.117 209.636C145.382 209.04 144.984 207.648 144.388 207.781C143.791 207.913 143.129 207.913 143.129 207.913L140.677 206.058Z" fill="#FFB882"/>
<path d="M142.532 203.54C140.015 204.004 138.226 204.931 137.431 205.859C136.569 206.787 135.575 209.106 135.509 209.636C135.443 210.166 136.9 210.829 137.232 210.1C137.563 209.371 138.491 207.317 138.756 207.184C139.021 207.118 141.539 205.992 141.671 206.058C141.804 206.124 142.532 203.54 142.532 203.54Z" fill="#FFB882"/>
<path d="M120.866 222.357C115.3 219.972 112.252 221.032 110.927 217.123L119.408 217.454L120.866 222.357Z" fill="#FF9566"/>
<path d="M114.505 219.111C112.649 218.051 112.186 216.527 112.186 215.533C112.186 214.539 110.662 214.274 110.662 215.268C110.595 216.196 110.993 217.388 111.39 217.985C111.788 218.581 114.505 219.111 114.505 219.111Z" fill="#FF9566"/>
<path d="M116.625 219.31C114.77 218.25 114.306 216.726 114.306 215.732C114.306 214.738 112.782 214.473 112.782 215.467C112.782 216.461 113.114 217.587 113.511 218.183C113.909 218.78 116.625 219.31 116.625 219.31Z" fill="#FF9566"/>
<path d="M118.878 219.509C117.022 218.448 116.559 216.924 116.559 215.931C116.559 214.937 115.035 214.672 115.035 215.666C114.968 216.593 115.366 217.786 115.763 218.382C116.161 218.978 118.878 219.509 118.878 219.509Z" fill="#FF9566"/>
<path d="M219.162 133.394L224.297 132.744L229.133 138.43L223.579 134.448L219.907 135.36L219.162 133.394Z" fill="#FF513F"/>
<path d="M219.353 135.84L223.243 136.696L226.343 143.48L222.075 138.121L217.006 137.233L219.353 135.84Z" fill="#FF513F"/>
<path d="M203.68 133.917L199.026 131.645L192.589 135.444L199.157 133.494L202.347 135.542L203.68 133.917Z" fill="#FF513F"/>
<path d="M203.517 136.256L199.557 136.708L195.79 143.163L200.567 138.256L205.732 137.874L203.517 136.256Z" fill="#FF513F"/>
<path d="M220.163 129.916L216.208 129.911L216.438 130.964L221.144 130.937L220.163 129.916Z" fill="#FF513F"/>
<path d="M220.162 129.917L220.237 126.183L221.136 126.186L221.143 130.938L220.162 129.917Z" fill="#FF513F"/>
<path d="M200.26 130.971L202.333 126.75L203.118 127.161L201.531 130.494L200.26 130.971Z" fill="#FF513F"/>
<path d="M200.261 130.971L204.281 133.154L204.94 132.317L201.556 130.487L200.261 130.971Z" fill="#FF513F"/>
<path d="M223.242 136.697L222.073 138.122L217.004 137.234L219.351 135.839L223.242 136.697Z" fill="#FF513F"/>
<path d="M205.731 137.874L203.517 136.256L199.557 136.708L200.566 138.256L205.731 137.874Z" fill="#FF513F"/>
<path d="M203.68 133.919L202.346 135.544L199.156 133.496L199.025 131.646L203.68 133.919Z" fill="#FF513F"/>
<path d="M219.161 133.392L219.906 135.358L223.578 134.446L224.295 132.743L219.161 133.392Z" fill="#FF513F"/>
<path d="M206.647 130.212L216.413 129.072L221.871 133.246L217.515 138.573L207.748 139.712L202.314 135.532L206.647 130.212Z" fill="#FF513F"/>
<path d="M221.131 126.513L226.633 122.788L223.008 115.529L221.143 123.435L220.751 117.863L217.389 122.834L220.232 126.51L221.131 126.513Z" fill="#FF513F"/>
<path d="M202.449 127.132L200.042 122.711L205.01 119.082L203.513 125.066L205.719 121.434L206.234 125.947L203.046 127.444L202.449 127.132Z" fill="#FF513F"/>
<path d="M212.658 116.955L213.207 118.136L203.314 122.71L202.766 121.529L212.658 116.955Z" fill="#001E20"/>
<path d="M209.815 114.942L211.368 118.284L204.638 121.395L203.086 118.052L209.815 114.942Z" fill="#001E20"/>
<path d="M221.871 133.248L202.347 135.55L207.749 139.713L217.515 138.574L221.871 133.248Z" fill="#AA3528"/>
<path d="M209.453 131.262L207.829 127.289L208.327 125.079L209.587 126.826L209.453 131.262Z" fill="#001E20"/>
<path d="M214.015 130.807L212.527 126.65L213.125 124.634L214.378 126.564L214.015 130.807Z" fill="#001E20"/>
</svg>
