<svg xmlns="http://www.w3.org/2000/svg" width="5763" height="1161" fill="none" xmlns:v="https://vecta.io/nano"><g fill="#ffc856"><path d="M1920 0h1920v1161H1920z"/><path d="M0 0h1976v1161H0zm3782 0h1978v1161H3782z"/></g><path d="M2302 1161L2891.43 0H5763V1161H2302Z" fill="#007550" style="mix-blend-mode:overlay"/><path d="M2067.66 623l-24.73-24.732-24.17 24.163-18.33-18.336 24.16-24.164-24.6-24.6 17.34-17.34 24.6 24.6 24.17-24.164 18.33 18.337-24.16 24.163L2085 605.66 2067.66 623z" fill="#fff" style="mix-blend-mode:overlay" opacity=".2"/><path d="M3603.06 870.088l-24.6-24.608-24.05 24.042-18.24-18.243 24.04-24.042-24.46-24.466 17.25-17.253 24.47 24.465 24.04-24.04 18.24 18.243-24.04 24.042 24.6 24.607-17.26 17.254z" fill="#f1b527" fill-opacity=".35"/><g fill="#ffc856"><circle cx="2120" cy="963" r="24" style="mix-blend-mode:multiply" opacity=".3"/><circle cx="1929.5" cy="219.5" r="205.5" style="mix-blend-mode:multiply" opacity=".2"/></g><circle cx="3676" cy="437" r="24" fill="#fabe31"/></svg>