<svg width="5763" height="1161" viewBox="0 0 5763 1161" fill="none" xmlns="http://www.w3.org/2000/svg">
<rect x="1920" width="1920" height="1161" fill="#FFC856"/>
<rect width="1920" height="1161" fill="#FFC856"/>
<rect x="3840" width="1920" height="1161" fill="#FFC856"/>
<g style="mix-blend-mode:overlay">
<path d="M2302 1161L2891.43 0H5763V1161H2302Z" fill="#007550"/>
</g>
<g style="mix-blend-mode:multiply" opacity="0.6">
<path d="M3556 378.89C3556 392.637 3448.07 378.89 3324.64 378.89C3201.2 378.89 3109 392.637 3109 378.89C3109 365.144 3209.06 354 3332.5 354C3455.94 354 3556 365.144 3556 378.89Z" fill="#001E20"/>
</g>
<path d="M3490.31 230.238L3490.21 230.833L3489.88 232.799L3468 362.108H3184.73L3182.55 354.121H3195.84L3195.79 353.941L3194.01 348.308H3205.99L3205.95 348.128L3203.91 341.096H3258.95L3258.92 340.93L3258.35 337.539L3258.03 335.56L3257.31 331.283L3256.81 328.32L3255.47 320.265L3255.14 318.271L3252.47 302.284L3252.33 301.44L3251.46 296.194L3251.13 294.242L3250.28 289.162L3250.12 288.18L3249.52 284.608L3249.49 284.401L3249.16 282.408L3248.45 278.241L3247.36 271.666L3246.99 269.383L3244.92 257.063L3244.62 255.195L3243.89 250.807L3243.4 247.956L3242.06 239.886L3241.71 237.782L3241.12 234.225L3240.23 228.909L3239.14 222.404L3238.52 218.653L3238.5 218.611L3237.63 213.393L3391.11 214.708L3408.39 214.86L3447.26 215.192L3448.87 215.206L3490.25 230.21L3490.28 230.224L3490.31 230.238Z" fill="url(#paint0_linear)"/>
<path d="M3490.31 230.058L3489.76 233.366L3489.73 233.519L3468 361.942H3184.73L3182.55 353.941H3195.84L3194.01 348.128H3205.99L3203.91 340.93H3258.95L3258.93 340.833H3387.36L3399.91 240.647L3401.1 231.179L3401.99 224.175L3402.55 219.649L3402.61 219.635L3402.75 219.622L3406.76 219.22L3406.91 219.206L3448.87 215.04L3490.31 230.058Z" fill="url(#paint1_linear)"/>
<path d="M3501.34 215.04L3501.09 216.867L3501.08 216.95L3498.21 216.867L3498.19 217.033L3497.91 218.473L3497.3 221.615L3495.58 231.013L3490.31 230.847L3489.88 232.799L3489.76 233.366L3489.73 233.519L3426.02 222.501L3410.84 219.885L3407.81 219.359L3406.91 219.206L3406.78 219.179L3402.9 218.514L3402.76 218.487L3393.86 216.95L3391.11 214.708L3285.77 129L3439.01 185.613L3485.33 208.133L3487.33 209.116L3487.36 209.143L3487.31 209.296L3487.07 209.905L3486.39 211.663L3501.34 215.04Z" fill="url(#paint2_linear)"/>
<path d="M3258.93 340.833L3258.95 340.93H3256.61L3256 337.373H3261.2V335.103L3258.03 335.393L3255.39 335.629L3254.7 331.116H3260.77V327.808L3256.81 328.154L3254.7 328.334L3253.22 320.265L3255.47 320.098L3260.08 319.739V318.091H3252.87L3252.36 314.534H3254L3253.4 309.233H3251.4L3250.71 302.547L3252.47 302.104L3257.47 300.858L3252.33 301.274L3250.45 301.426L3249.76 296.221L3251.46 296.028L3255.91 295.516V293.702L3251.13 294.062L3249.15 294.214L3248.36 289.176L3250.28 288.996L3255.39 288.484V287.626L3250.12 287.999L3248.19 288.138L3247.62 284.318L3247.32 282.241H3252.7L3252.18 278.075H3247.49L3246.53 271.556L3247.36 271.486L3250.96 271.21V269.216H3245.94L3243.84 256.883H3249.05V254.627L3244.62 255.029L3243.24 255.153L3242.54 250.641H3248.62V247.333L3243.4 247.789L3242.54 247.859L3241.06 239.789L3242.06 239.706L3247.93 239.263V237.616H3240.72L3240.2 234.058H3241.85L3241.24 228.757L3240.23 228.743L3237.08 228.674L3236.38 221.988L3239.14 222.224L3255.85 223.705L3261.65 283.598L3263.18 299.419L3266.93 298.478L3271.31 340.833H3258.93Z" fill="url(#paint3_linear)"/>
<g style="mix-blend-mode:multiply" opacity="0.37">
<path d="M3402.55 219.649L3387.36 340.833H3380.7L3386.94 277.12L3261.65 283.598L3249.49 284.221L3247.62 284.318L3247.32 282.241H3249.16L3248.45 278.075H3247.49L3246.53 271.556L3247.36 271.486L3246.99 269.216H3245.94L3243.84 256.883H3244.92L3244.62 255.029L3243.24 255.153L3242.54 250.641H3243.89L3243.4 247.789L3242.54 247.859L3241.06 239.789L3242.06 239.706L3241.71 237.616H3240.72L3240.2 234.058H3241.12L3240.23 228.743L3237.08 228.674L3236.38 221.988L3239.14 222.224L3238.52 218.473L3402.55 219.649Z" fill="#701E7E"/>
</g>
<g style="mix-blend-mode:color-dodge" opacity="0.93">
<path d="M3209.99 348.128H3386.14L3387.26 341.359L3208.95 344.488L3209.99 348.128Z" fill="#55FF00"/>
</g>
<g style="mix-blend-mode:color-dodge" opacity="0.93">
<path d="M3203.39 353.596H3373.46L3374.15 349.429L3202.35 349.955L3203.39 353.596Z" fill="#55FF00"/>
</g>
<g style="mix-blend-mode:color-dodge" opacity="0.93">
<path d="M3192.27 360.198H3362.34L3363.05 356.032L3191.23 356.558L3192.27 360.198Z" fill="#55FF00"/>
</g>
<path d="M3501.34 215.04L3501.09 216.867L3430.93 194.291V189.696L3487.07 209.904L3501.34 215.04Z" fill="url(#paint4_linear)"/>
<g style="mix-blend-mode:multiply" opacity="0.37">
<path d="M3297.41 285.633L3302.09 340.833H3305.65L3303.45 286.698L3345.25 285.633V283.972L3297.41 285.633Z" fill="#701E7E"/>
</g>
<g style="mix-blend-mode:multiply" opacity="0.6">
<path d="M3305.58 288.484L3307.89 340.058H3340.78L3343.23 287.529L3305.58 288.484Z" fill="#701E7E"/>
</g>
<g style="mix-blend-mode:multiply" opacity="0.6">
<path d="M3322.51 290.74V307.046L3309.32 307.558L3308.1 290.74H3322.51Z" fill="#701E7E"/>
</g>
<g style="mix-blend-mode:multiply" opacity="0.6">
<path d="M3309.48 309.842H3322.51V337.456H3311.49L3309.48 309.842Z" fill="#701E7E"/>
</g>
<g style="mix-blend-mode:multiply" opacity="0.6">
<path d="M3326.38 290.519L3326.45 306.824L3339.63 307.267L3340.78 290.449L3326.38 290.519Z" fill="#701E7E"/>
</g>
<g style="mix-blend-mode:multiply" opacity="0.6">
<path d="M3339.35 309.648L3326.34 309.51L3326.15 337.11L3337.17 337.234L3339.35 309.648Z" fill="#701E7E"/>
</g>
<g style="mix-blend-mode:multiply" opacity="0.18">
<path d="M3371.91 319.476H3359.92V321.995H3371.91V319.476Z" fill="#701E7E"/>
</g>
<g style="mix-blend-mode:multiply" opacity="0.18">
<path d="M3370.87 291.183H3358.88V293.702H3370.87V291.183Z" fill="#701E7E"/>
</g>
<g style="mix-blend-mode:multiply" opacity="0.18">
<path d="M3353.76 332.072H3346.12V334.591H3353.76V332.072Z" fill="#701E7E"/>
</g>
<g style="mix-blend-mode:multiply" opacity="0.18">
<path d="M3376.24 305.329H3368.6V307.849H3376.24V305.329Z" fill="#701E7E"/>
</g>
<g style="mix-blend-mode:multiply" opacity="0.18">
<path d="M3344.93 315.655L3344.83 319.212L3357.69 318.963L3357.8 314.88L3344.93 315.655Z" fill="#701E7E"/>
</g>
<g style="mix-blend-mode:multiply" opacity="0.18">
<path d="M3358.56 310.631L3358.47 314.188L3371.33 313.925L3371.44 309.842L3358.56 310.631Z" fill="#701E7E"/>
</g>
<g style="mix-blend-mode:multiply" opacity="0.18">
<path d="M3354.66 334.411L3354.56 337.968L3367.42 337.719L3367.53 333.635L3354.66 334.411Z" fill="#701E7E"/>
</g>
<g style="mix-blend-mode:multiply" opacity="0.18">
<path d="M3298.55 320.873H3286.56V323.393H3298.55V320.873Z" fill="#701E7E"/>
</g>
<g style="mix-blend-mode:multiply" opacity="0.18">
<path d="M3298.53 332.155H3290.89V334.674H3298.53V332.155Z" fill="#701E7E"/>
</g>
<g style="mix-blend-mode:multiply" opacity="0.18">
<path d="M3277.99 317.053L3277.9 320.61L3290.77 320.347L3290.88 316.264L3277.99 317.053Z" fill="#701E7E"/>
</g>
<g style="mix-blend-mode:multiply" opacity="0.18">
<path d="M3285.2 312.015L3285.11 315.572L3297.97 315.309L3298.08 311.24L3285.2 312.015Z" fill="#701E7E"/>
</g>
<g style="mix-blend-mode:multiply" opacity="0.18">
<path d="M3281.3 335.809L3281.2 339.366L3294.06 339.103L3294.17 335.02L3281.3 335.809Z" fill="#701E7E"/>
</g>
<g style="mix-blend-mode:color-dodge" opacity="0.93">
<path d="M3420.26 189.862V192.907L3164.41 197.295V193.945L3420.26 189.862Z" fill="#55FF00"/>
</g>
<g style="mix-blend-mode:multiply" opacity="0.37">
<path d="M3501.34 215.04L3501.09 216.867L3501.08 216.95L3498.21 216.867L3498.19 217.033H3498.21L3497.91 218.473L3497.3 221.615L3495.58 231.013H3495.61H3495.58L3490.31 230.847L3489.88 232.799L3468 362.108H3369.94L3369.91 361.942L3368.86 356.211H3379.98L3379.53 349.609H3390.73L3407.7 220.134L3407.73 219.967L3407.8 219.4L3407.81 219.358L3407.84 219.109L3408.39 214.86L3409.23 208.534L3401.07 179.01L3409.23 179.439L3485.33 208.133L3487.33 209.116L3487.36 209.143L3487.31 209.296L3487.07 209.905L3501.34 215.04Z" fill="#701E7E"/>
</g>
<path d="M3229.32 229.85L3229.3 230.819V230.875L3229.28 231.691L3229.19 236.024L3229.02 244.011L3227.04 337.387V337.414L3227.01 339.006H3225.98L3218.38 339.103L3218.2 337.677L3205.96 239.761L3204.89 231.165L3204.87 231.055L3204.76 230.155L3229.32 229.85Z" fill="url(#paint5_linear)"/>
<g style="mix-blend-mode:multiply" opacity="0.16">
<path d="M3221.86 234.294L3223.73 338.992H3223.12C3222.63 325.081 3218.06 234.404 3218.06 234.404L3221.86 234.294Z" fill="#701E7E"/>
</g>
<path d="M3232.52 230.819H3229.26V230.875L3204.91 231.166L3204.89 231.055L3199.77 231.11L3197.49 223.539L3210.87 223.442L3211.19 223.428L3234 222.681L3232.52 230.819Z" fill="url(#paint6_linear)"/>
<g style="mix-blend-mode:color-dodge" opacity="0.89">
<path d="M3202.04 224.674L3203.29 227.622L3222.15 226.888L3222.13 224.438L3202.04 224.674Z" fill="#55FF00"/>
</g>
<g style="mix-blend-mode:color-dodge" opacity="0.93">
<path d="M3221.13 339.075L3220.02 339.089L3207.76 239.775L3213.88 238.266L3221.13 339.075Z" fill="#55FF00"/>
</g>
<path d="M3232.2 337.221V340.93H3214.42L3213.46 337.83L3215.11 337.774L3218.2 337.677L3225.96 337.428L3227.04 337.387H3227.1L3232.2 337.221Z" fill="url(#paint7_linear)"/>
<g style="mix-blend-mode:multiply" opacity="0.42">
<path d="M3232.56 230.82H3229.26V231.512L3229.16 235.775L3228.99 243.955L3227.01 337.331L3232.13 337.165V340.875H3230.04V338.107L3215.12 337.788L3225.96 337.442C3226.06 323.96 3226.65 235.304 3226.65 234.128C3226.65 233.325 3225.48 232.522 3224.62 232.051C3224.48 232.037 3224.33 232.037 3224.19 232.051C3221.42 232.051 3208.73 232.481 3207.25 235.346C3206.61 236.685 3206.17 238.113 3205.96 239.581L3204.91 231.276V231.166H3199.8L3197.59 223.94L3200.04 230.266L3229.28 228.411L3230.43 223.483H3210.87L3234 222.736L3232.56 230.82Z" fill="#701E7E"/>
</g>
<path d="M3274.03 229.2L3274.01 230.169V230.224L3273.99 231.055L3273.9 235.401L3273.73 243.443L3271.75 337.373V337.4L3271.72 338.992L3270.68 339.006L3263.08 339.089L3262.9 337.663L3250.67 239.166L3249.6 230.529L3249.59 230.404L3249.48 229.504L3274.03 229.2Z" fill="url(#paint8_linear)"/>
<g style="mix-blend-mode:multiply" opacity="0.16">
<path d="M3266.57 233.657L3268.44 338.978H3267.78C3267.28 324.984 3262.71 233.781 3262.71 233.781L3266.57 233.657Z" fill="#701E7E"/>
</g>
<path d="M3277.23 230.169H3273.96L3273.98 230.224L3249.62 230.529L3249.6 230.404L3244.48 230.46L3242.2 222.86L3255.58 222.75L3255.9 222.736L3278.73 221.988L3277.23 230.169Z" fill="url(#paint9_linear)"/>
<g style="mix-blend-mode:color-dodge" opacity="0.89">
<path d="M3246.75 223.996L3248 226.958L3266.86 226.224L3266.84 223.746L3246.75 223.996Z" fill="#55FF00"/>
</g>
<g style="mix-blend-mode:color-dodge" opacity="0.93">
<path d="M3265.84 339.062L3264.75 339.076L3252.47 239.18L3258.59 237.657L3265.84 339.062Z" fill="#55FF00"/>
</g>
<path d="M3276.93 337.207V340.93H3259.13L3258.17 337.816L3259.82 337.76H3259.83L3262.9 337.663L3270.67 337.4L3271.75 337.373H3271.8L3276.93 337.207Z" fill="url(#paint10_linear)"/>
<g style="mix-blend-mode:multiply" opacity="0.42">
<path d="M3277.27 230.169H3273.96V230.93L3273.87 235.221L3273.7 243.443L3271.72 337.373L3276.84 337.207V340.93H3274.75V338.065L3259.83 337.76L3270.67 337.401C3270.77 323.849 3271.36 234.667 3271.36 233.491C3271.36 232.688 3270.2 231.871 3269.33 231.387H3268.9C3266.13 231.387 3253.44 231.816 3251.97 234.695C3251.32 236.028 3250.88 237.451 3250.67 238.917L3249.62 230.515V230.39H3244.51L3242.31 223.123L3244.74 229.491L3273.99 227.622L3275.14 222.667H3255.58L3278.73 221.919L3277.27 230.169Z" fill="#701E7E"/>
</g>
<path d="M3320.13 228.231L3320.11 229.2V229.255L3320.1 230.1L3320 234.474L3319.84 242.599L3317.86 337.345V337.373L3317.81 338.965L3316.78 338.979L3309.18 339.075L3309 337.622L3296.78 238.28L3295.7 229.56L3295.68 229.435L3295.57 228.522L3320.13 228.231Z" fill="url(#paint11_linear)"/>
<g style="mix-blend-mode:multiply" opacity="0.16">
<path d="M3312.67 232.73L3314.55 338.951H3313.87C3313.39 324.832 3308.8 232.827 3308.8 232.827L3312.67 232.73Z" fill="#701E7E"/>
</g>
<path d="M3323.32 229.2H3320.07V229.269L3295.71 229.56L3295.7 229.435L3290.59 229.491L3288.29 221.822L3301.68 221.712H3301.99L3324.82 220.95L3323.32 229.2Z" fill="url(#paint12_linear)"/>
<g style="mix-blend-mode:color-dodge" opacity="0.89">
<path d="M3292.86 222.971L3294.1 225.961L3312.97 225.214L3312.94 222.722L3292.86 222.971Z" fill="#55FF00"/>
</g>
<g style="mix-blend-mode:color-dodge" opacity="0.93">
<path d="M3311.93 339.048L3310.84 339.061L3298.57 238.294L3304.69 236.757L3311.93 339.048Z" fill="#55FF00"/>
</g>
<path d="M3323.02 337.179V340.93H3305.22L3304.26 337.788L3305.92 337.733L3309 337.622L3316.78 337.373L3317.86 337.345H3317.9L3323.02 337.179Z" fill="url(#paint13_linear)"/>
<g style="mix-blend-mode:multiply" opacity="0.42">
<path d="M3323.37 229.228H3320.02V229.989V234.294L3319.85 242.599L3317.87 337.345L3322.99 337.165V340.93H3320.85V338.051L3305.92 337.733L3316.78 337.373C3316.86 323.697 3317.47 233.74 3317.47 232.55C3317.47 231.733 3316.29 230.916 3315.42 230.432C3315.28 230.418 3315.14 230.418 3315 230.432C3312.24 230.432 3299.54 230.875 3298.06 233.782C3297.42 235.145 3296.99 236.596 3296.78 238.086L3295.71 229.601V229.477H3290.62L3288.4 222.141L3290.84 228.563L3320.02 226.695L3321.16 221.712H3301.68L3324.82 220.923L3323.37 229.228Z" fill="#701E7E"/>
</g>
<path d="M3366.41 227.082L3366.36 228.079V228.134L3366.32 228.978L3366.09 233.422L3365.68 241.644L3360.88 337.594V337.636L3360.79 339.255L3359.76 339.228L3352.16 339.103L3352.02 337.622L3342.76 236.577L3341.95 227.705L3341.94 227.58L3341.86 226.653L3366.41 227.082Z" fill="url(#paint14_linear)"/>
<g style="mix-blend-mode:multiply" opacity="0.16">
<path d="M3358.77 231.429L3357.47 339.145H3356.81C3356.74 324.819 3354.91 231.442 3354.91 231.442L3358.77 231.429Z" fill="#701E7E"/>
</g>
<path d="M3369.58 228.176L3366.32 228.079V228.134L3341.97 227.705L3341.95 227.581L3336.83 227.498L3334.78 219.649L3348.16 219.94H3348.47L3371.31 219.843L3369.58 228.176Z" fill="url(#paint15_linear)"/>
<g style="mix-blend-mode:color-dodge" opacity="0.89">
<path d="M3339.3 220.936L3340.46 224.009L3359.34 223.829L3359.38 221.296L3339.3 220.936Z" fill="#55FF00"/>
</g>
<g style="mix-blend-mode:color-dodge" opacity="0.93">
<path d="M3354.91 339.145L3353.82 339.131L3344.56 236.647L3350.73 235.277L3354.91 339.145Z" fill="#55FF00"/>
</g>
<path d="M3366.04 337.581L3365.93 341.387L3348.14 340.861L3347.28 337.636H3348.93H3348.94L3352.02 337.622L3359.8 337.608L3360.88 337.594H3360.92L3366.04 337.581Z" fill="url(#paint16_linear)"/>
<g style="mix-blend-mode:multiply" opacity="0.42">
<path d="M3369.62 228.176L3366.32 228.079V228.854L3366.09 233.228L3365.69 241.685L3360.89 337.636H3366.05L3365.94 341.442L3363.76 341.346L3363.85 338.425L3348.94 337.664H3359.8C3360.29 323.822 3363.58 232.66 3363.62 231.442C3363.62 230.626 3362.5 229.768 3361.64 229.242H3361.22C3358.45 229.103 3345.75 229.242 3344.18 232.121C3343.51 233.484 3343.05 234.94 3342.8 236.439L3342 227.816V227.691L3336.89 227.608L3334.91 220.106L3337.15 226.695L3366.45 225.643L3367.74 220.618L3348.21 220.037H3371.37L3369.62 228.176Z" fill="#701E7E"/>
</g>
<path d="M3408.19 179.301L3406.46 192.437L3186.54 195.163L3183.33 182.36L3206.2 170.428L3285.52 129L3306.45 137.596L3408.19 179.301Z" fill="url(#paint17_linear)"/>
<g style="mix-blend-mode:multiply" opacity="0.28">
<path d="M3198.26 183.107L3285.52 137.761L3387.36 181.861L3228.56 183.107L3371.47 180.297L3284.73 143.63L3209.46 183.107H3198.26Z" fill="#701E7E"/>
</g>
<path d="M3430.93 189.695V194.291H3424.85L3424.83 194.429V194.471L3423.62 200.437V200.464L3419.73 219.732L3180.38 224.673L3174.95 205.6L3174.55 204.188L3173.43 200.284H3164.41V193.945L3420.26 189.862L3430.93 189.695Z" fill="url(#paint18_linear)"/>
<g style="mix-blend-mode:multiply" opacity="0.42">
<path d="M3424.85 194.291L3423.62 200.436L3174.55 204.188L3173.43 200.284H3164.41L3424.85 194.291Z" fill="#701E7E"/>
</g>
<g style="mix-blend-mode:multiply" opacity="0.28">
<path d="M3182.72 209.918L3413.65 204.188L3413.05 205.406L3184.02 212.52L3182.72 209.918Z" fill="#701E7E"/>
</g>
<g style="mix-blend-mode:multiply" opacity="0.28">
<path d="M3186.54 217.725L3185.42 215.648L3411.23 210.444L3410.71 211.399L3186.54 217.725Z" fill="#701E7E"/>
</g>
<g style="mix-blend-mode:multiply" opacity="0.37">
<path d="M3498.21 216.867L3497.91 218.472L3423.65 200.45L3424.85 194.291H3430.93L3501.08 216.95L3498.21 216.867Z" fill="#701E7E"/>
</g>
<g style="mix-blend-mode:multiply" opacity="0.37">
<path d="M3495.61 231.013H3495.58L3490.31 230.847L3490.21 230.833L3490.19 230.819L3426.02 222.5L3407.7 220.134L3406.66 219.995L3407.73 219.967L3410.84 219.884L3419.73 219.649L3490.25 230.21L3490.28 230.224L3495.58 231.013H3495.61Z" fill="#701E7E"/>
</g>
<g style="mix-blend-mode:multiply" opacity="0.42">
<path d="M3332.68 181.058L3329.32 182.318L3325.94 196.561L3323.63 197.765H3319.46L3321.59 181.058H3332.68Z" fill="#701E7E"/>
</g>
<g style="mix-blend-mode:multiply" opacity="0.37">
<path d="M3406.62 343.089L3420.26 235.262L3441.17 238.737L3421.99 343.089H3415.83L3433.97 240.647L3422.43 238.833L3406.62 343.089Z" fill="#701E7E"/>
</g>
<g style="mix-blend-mode:multiply" opacity="0.37">
<path d="M3444.65 343.006L3456.29 241.173L3477.2 244.647L3459.08 343.006H3453.28L3470.52 245.865L3457.59 244.038L3444.65 343.006Z" fill="#701E7E"/>
</g>
<path d="M3324.32 178.442L3323.63 197.765L3262.12 199.011L3251.14 199.246L3247.24 178.746L3277.78 177.971L3321.8 176.836L3321.99 176.961L3324.32 178.442Z" fill="url(#paint19_linear)"/>
<g style="mix-blend-mode:color-dodge" opacity="0.3">
<path d="M3249.15 179.964L3251.91 197.073L3316.36 195.495L3318.69 178.234L3249.15 179.964Z" fill="#55FF00"/>
</g>
<g style="mix-blend-mode:multiply" opacity="0.42">
<path d="M3265.75 185.261L3270.73 185.167L3270.74 185.617L3266.26 185.701L3266.31 188.22L3268.68 188.176C3269.5 188.161 3270.13 188.316 3270.56 188.641C3270.99 188.966 3271.22 189.452 3271.23 190.099C3271.24 190.765 3271.02 191.279 3270.58 191.641C3270.13 192.003 3269.48 192.192 3268.62 192.208L3265.88 192.259L3265.75 185.261ZM3268.62 191.778C3269.32 191.765 3269.85 191.621 3270.2 191.348C3270.56 191.068 3270.73 190.661 3270.72 190.128C3270.7 189.082 3269.98 188.572 3268.56 188.598L3266.32 188.64L3266.38 191.82L3268.62 191.778ZM3272.97 185.125L3273.48 185.115L3273.6 191.254L3278.25 185.026L3278.7 185.017L3278.83 192.016L3278.32 192.026L3278.21 185.897L3273.55 192.115L3273.1 192.124L3272.97 185.125ZM3283.73 184.923C3284.61 184.907 3285.3 185.104 3285.81 185.514C3286.32 185.918 3286.58 186.49 3286.59 187.23C3286.61 187.963 3286.37 188.544 3285.88 188.974C3285.39 189.396 3284.7 189.616 3283.82 189.632L3281.82 189.67L3281.86 191.959L3281.35 191.969L3281.22 184.97L3283.73 184.923ZM3283.81 189.172C3284.56 189.158 3285.12 188.984 3285.51 188.65C3285.9 188.316 3286.09 187.846 3286.07 187.24C3286.06 186.633 3285.86 186.17 3285.46 185.851C3285.06 185.525 3284.49 185.369 3283.74 185.383L3281.74 185.421L3281.81 189.21L3283.81 189.172ZM3293.6 188.418L3292.07 188.447L3292.13 191.767L3291.63 191.776L3291.57 188.457L3290.03 188.486L3287.78 191.848L3287.17 191.86L3289.6 188.214L3287.23 184.858L3287.81 184.847L3290.01 188.026L3291.56 187.997L3291.5 184.777L3292 184.768L3292.06 187.987L3293.6 187.959L3295.69 184.699L3296.26 184.688L3294.02 188.131L3296.59 191.683L3295.98 191.695L3293.6 188.418ZM3302.2 189.608L3298.14 189.684L3297.28 191.67L3296.74 191.68L3299.82 184.621L3300.33 184.612L3303.68 191.55L3303.13 191.56L3302.2 189.608ZM3302 189.181L3300.08 185.176L3298.33 189.25L3302 189.181Z" fill="#701E7E"/>
</g>
<g style="mix-blend-mode:multiply" opacity="0.37">
<path d="M3324.32 178.442L3323.63 197.765L3251.14 199.246L3319.99 197.073L3321.99 176.961L3324.32 178.442Z" fill="#701E7E"/>
</g>
<g style="mix-blend-mode:color-dodge" opacity="0.25">
<path d="M3299.41 178.318C3295.92 179.762 3292.75 181.857 3290.05 184.491C3286.44 188.308 3283.64 192.819 3281.83 197.751L3252.76 198.194L3248.37 179.273L3299.41 178.318Z" fill="white"/>
</g>
<g style="mix-blend-mode:color-dodge" opacity="0.89">
<path d="M3187.25 181.612L3194.36 183.093L3284.65 135.948V131.519L3187.25 181.612Z" fill="#55FF00"/>
</g>
<g style="mix-blend-mode:color-dodge" opacity="0.89">
<path d="M3168.66 195.163C3169.36 195.509 3244.55 194.291 3244.55 194.291L3243.48 196.229L3166.84 197.765L3168.66 195.163Z" fill="#55FF00"/>
</g>
<g style="mix-blend-mode:color-dodge" opacity="0.89">
<path d="M3188.71 185.529L3190.46 191.246H3248.44L3246.71 185.529H3188.71Z" fill="#55FF00"/>
</g>
<g style="mix-blend-mode:overlay" opacity="0.2">
<path d="M2067.66 623L2042.93 598.268L2018.76 622.431L2000.43 604.095L2024.59 579.931L2000 555.341L2017.34 538L2041.93 562.59L2066.1 538.426L2084.43 556.763L2060.27 580.926L2085 605.659L2067.66 623Z" fill="white"/>
</g>
<path d="M3603.06 870.088L3578.46 845.48L3554.41 869.522L3536.17 851.279L3560.21 827.237L3535.75 802.771L3553 785.518L3577.47 809.983L3601.51 785.942L3619.75 804.185L3595.71 828.227L3620.32 852.834L3603.06 870.088Z" fill="#F1B527" fill-opacity="0.35"/>
<g style="mix-blend-mode:multiply" opacity="0.3">
<circle cx="2120" cy="963" r="24" fill="#FFC856"/>
</g>
<g style="mix-blend-mode:multiply" opacity="0.2">
<circle cx="1929.5" cy="219.5" r="205.5" fill="#FFC856"/>
</g>
<circle cx="3676" cy="437" r="24" fill="#FABE31"/>
<defs>
<linearGradient id="paint0_linear" x1="3337.75" y1="381.182" x2="3335.62" y2="236.481" gradientUnits="userSpaceOnUse">
<stop stop-color="#E3855C"/>
<stop offset="0.17" stop-color="#DB7B58"/>
<stop offset="0.46" stop-color="#C55F4E"/>
<stop offset="0.84" stop-color="#A2323F"/>
<stop offset="1" stop-color="#911C37"/>
</linearGradient>
<linearGradient id="paint1_linear" x1="3294.34" y1="210.043" x2="3352.32" y2="325.483" gradientUnits="userSpaceOnUse">
<stop stop-color="#FEFBE4"/>
<stop offset="1" stop-color="#FFCC99"/>
</linearGradient>
<linearGradient id="paint2_linear" x1="111655" y1="4398.59" x2="114165" y2="14703.4" gradientUnits="userSpaceOnUse">
<stop stop-color="#FEFBE4"/>
<stop offset="1" stop-color="#FFCC99"/>
</linearGradient>
<linearGradient id="paint3_linear" x1="16958.2" y1="15366.8" x2="20290.1" y2="15316.8" gradientUnits="userSpaceOnUse">
<stop stop-color="#E3855C"/>
<stop offset="0.17" stop-color="#DB7B58"/>
<stop offset="0.46" stop-color="#C55F4E"/>
<stop offset="0.84" stop-color="#A2323F"/>
<stop offset="1" stop-color="#911C37"/>
</linearGradient>
<linearGradient id="paint4_linear" x1="42947.3" y1="3354.6" x2="42914.9" y2="1919.6" gradientUnits="userSpaceOnUse">
<stop stop-color="#FEFBE4"/>
<stop offset="1" stop-color="#FFCC99"/>
</linearGradient>
<linearGradient id="paint5_linear" x1="12289.6" y1="14351.8" x2="12743.2" y2="14348.3" gradientUnits="userSpaceOnUse">
<stop stop-color="#FEFBE4"/>
<stop offset="1" stop-color="#FFCC99"/>
</linearGradient>
<linearGradient id="paint6_linear" x1="16646.8" y1="967.916" x2="17306.6" y2="869.422" gradientUnits="userSpaceOnUse">
<stop stop-color="#FEFBE4"/>
<stop offset="1" stop-color="#FFCC99"/>
</linearGradient>
<linearGradient id="paint7_linear" x1="10169.4" y1="964.063" x2="10505.1" y2="905.2" gradientUnits="userSpaceOnUse">
<stop stop-color="#FEFBE4"/>
<stop offset="1" stop-color="#FFCC99"/>
</linearGradient>
<linearGradient id="paint8_linear" x1="13127.3" y1="14381.8" x2="13520.4" y2="14381.1" gradientUnits="userSpaceOnUse">
<stop stop-color="#FEFBE4"/>
<stop offset="1" stop-color="#FFCC99"/>
</linearGradient>
<linearGradient id="paint9_linear" x1="17924" y1="964.485" x2="18508.5" y2="944.198" gradientUnits="userSpaceOnUse">
<stop stop-color="#FEFBE4"/>
<stop offset="1" stop-color="#FFCC99"/>
</linearGradient>
<linearGradient id="paint10_linear" x1="10808.9" y1="964.64" x2="11108.7" y2="952.378" gradientUnits="userSpaceOnUse">
<stop stop-color="#FEFBE4"/>
<stop offset="1" stop-color="#FFCC99"/>
</linearGradient>
<linearGradient id="paint11_linear" x1="13936.6" y1="14464" x2="14396" y2="14463.3" gradientUnits="userSpaceOnUse">
<stop stop-color="#FEFBE4"/>
<stop offset="1" stop-color="#FFCC99"/>
</linearGradient>
<linearGradient id="paint12_linear" x1="19107.2" y1="963.179" x2="19790.2" y2="944.594" gradientUnits="userSpaceOnUse">
<stop stop-color="#FEFBE4"/>
<stop offset="1" stop-color="#FFCC99"/>
</linearGradient>
<linearGradient id="paint13_linear" x1="11437.2" y1="969.2" x2="11787.5" y2="957.023" gradientUnits="userSpaceOnUse">
<stop stop-color="#FEFBE4"/>
<stop offset="1" stop-color="#FFCC99"/>
</linearGradient>
<linearGradient id="paint14_linear" x1="14883.8" y1="14638.6" x2="15179.9" y2="14636.6" gradientUnits="userSpaceOnUse">
<stop stop-color="#FEFBE4"/>
<stop offset="1" stop-color="#FFCC99"/>
</linearGradient>
<linearGradient id="paint15_linear" x1="20454.8" y1="947.811" x2="20887.2" y2="887.868" gradientUnits="userSpaceOnUse">
<stop stop-color="#FEFBE4"/>
<stop offset="1" stop-color="#FFCC99"/>
</linearGradient>
<linearGradient id="paint16_linear" x1="12187.7" y1="980.645" x2="12408.1" y2="945.463" gradientUnits="userSpaceOnUse">
<stop stop-color="#FEFBE4"/>
<stop offset="1" stop-color="#FFCC99"/>
</linearGradient>
<linearGradient id="paint17_linear" x1="82839.5" y1="2807.95" x2="119368" y2="2807.95" gradientUnits="userSpaceOnUse">
<stop stop-color="#FEFBE4"/>
<stop offset="1" stop-color="#FFCC99"/>
</linearGradient>
<linearGradient id="paint18_linear" x1="92465.3" y1="2750.43" x2="147980" y2="2222.47" gradientUnits="userSpaceOnUse">
<stop stop-color="#FEFBE4"/>
<stop offset="1" stop-color="#FFCC99"/>
</linearGradient>
<linearGradient id="paint19_linear" x1="36550.8" y1="787.277" x2="36439" y2="3856.65" gradientUnits="userSpaceOnUse">
<stop stop-color="#E3855C"/>
<stop offset="0.17" stop-color="#DB7B58"/>
<stop offset="0.46" stop-color="#C55F4E"/>
<stop offset="0.84" stop-color="#A2323F"/>
<stop offset="1" stop-color="#911C37"/>
</linearGradient>
</defs>
</svg>
