<svg xmlns="http://www.w3.org/2000/svg" xmlns:xlink="http://www.w3.org/1999/xlink" width="570" height="197" fill="none" xmlns:v="https://vecta.io/nano"><style><![CDATA[.B{fill:#fff}.C{fill:#001e20}.D{opacity:.57}]]></style><g clip-path="url(#A)"><g fill="#ffc856"><path stroke="#007550" stroke-width="10" d="M5 5h560v187H5z"/><path d="M0 0h570v197H0z"/></g><g style="mix-blend-mode:screen" opacity=".4" class="B"><path d="M33 197L0 145v52h33z"/></g><g style="mix-blend-mode:overlay" opacity=".1" class="B"><path d="M385.45 55.62l-7.09 24.51-17.682-18.396 24.773-6.115z"/></g><g style="mix-blend-mode:screen" opacity=".4"><path fill="#ffc856" d="M47-22.566L135.512-62l39.434 88.512-88.512 39.434z"/></g><g style="mix-blend-mode:screen" opacity=".3" class="B"><g class="D"><g style="mix-blend-mode:overlay" class="D"><path d="M354.486 248.43c-43.164.01-73.17-15.564-86.427-40.554l24.756-.005c13.837 16.274 37.798 26.035 70 26.028 41.496-.01 87.898-16.214 127.22-41.68l21.175-.005c-46.866 33.966-105.167 56.206-156.734 56.217z"/></g><g style="mix-blend-mode:overlay" class="D"><path d="M503.04 56.567c-2.178 0-3.07-1.526-1.988-3.4.645-.993 1.516-1.82 2.542-2.41s2.176-.933 3.36-.996c2.183-.001 3.076 1.525 1.997 3.405a7.51 7.51 0 0 1-2.546 2.415 7.52 7.52 0 0 1-3.364.997z"/></g><g style="mix-blend-mode:overlay" class="D"><path d="M400.096 168.95c-28.21.007-42.102-16.94-35.158-39.683l6.815-.002c-5.266 19.564 7.078 33.988 31.616 33.983 29.196-.007 64.59-20.44 79.053-45.64 11.24-19.584 6.523-36.278-9.837-42.746l3.47-6.047c19.937 6.7 26.045 26.015 12.974 48.79-16.27 28.35-56.082 51.336-88.933 51.343z"/></g><g style="mix-blend-mode:overlay" class="D"><path d="M370.03 190.533c-29.964-6-43.27-28.675-33.756-57.493h2.555c-8.91 27.626 3.84 49.36 32.464 55.294l-1.263 2.2z"/></g><g style="mix-blend-mode:overlay" class="D"><path d="M408.437 154.414c-23.544.005-33.177-16.464-21.515-36.785s40.204-36.803 63.748-36.81 33.182 16.464 21.518 36.8-40.202 36.8-63.75 36.804zM448.324 84.9c-20.928.004-46.295 14.65-56.664 32.718s-1.804 32.7 19.124 32.697 46.3-14.65 56.666-32.713c10.37-18.068 1.807-32.707-19.126-32.702z"/></g><g style="mix-blend-mode:overlay" class="D"><path d="M466.605 47.244c-2.183 0-3.075-1.526-1.994-3.4a7.51 7.51 0 0 1 2.545-2.412 7.52 7.52 0 0 1 3.362-.995c2.184-.001 3.076 1.525 1.997 3.405a7.52 7.52 0 0 1-2.545 2.415c-1.028.593-2.18.935-3.365.997z"/></g><g style="mix-blend-mode:overlay" class="D"><path d="M374.454 213.633c-61.436.013-86.572-42.963-56.142-95.988 30.433-53.03 104.906-96.028 166.342-96.042 61.442-.014 86.577 42.962 56.145 95.993s-104.903 96.023-166.345 96.037zM478.53 32.273c-54.61.012-120.806 38.23-147.857 85.37s-4.7 85.338 49.9 85.326 120.814-38.235 147.863-85.37c27.052-47.14 4.71-85.338-49.906-85.326z"/></g><g style="mix-blend-mode:overlay" class="D"><path d="M487.203 49.754c-2.184.001-3.076-1.525-1.995-3.4a7.52 7.52 0 0 1 5.91-3.412c2.178 0 3.076 1.525 1.994 3.4a7.52 7.52 0 0 1-2.546 2.414c-1.027.593-2.18.935-3.363.998z"/></g><g style="mix-blend-mode:overlay" class="D"><path d="M260.482 171.813c.23-4.702.812-9.38 1.746-13.996l17.83-.004a76.93 76.93 0 0 0-.814 13.996l-18.76.004z"/></g><g style="mix-blend-mode:overlay" class="D"><path d="M518.978 170.682c18.616-15.918 34.323-33.968 45.297-53.092 28.98-50.496 16.342-93.46-26.547-109.5l8.8-15.335c52.022 16.615 68.23 66.22 34.587 124.843-10.846 18.9-25.807 36.863-43.472 53.09l-18.666.004z"/></g><g style="mix-blend-mode:overlay" class="D"><path d="M392.99 181.335c-40.767.008-57.448-28.513-37.256-63.698 20.195-35.19 69.616-63.722 110.383-63.73s57.456 28.507 37.26 63.698-69.617 63.72-110.388 63.73zm72.07-125.588c-39.587.01-87.577 27.716-107.187 61.89s-3.414 61.866 36.173 61.858c39.593-.01 87.586-27.72 107.194-61.89 19.61-34.174 3.413-61.866-36.18-61.858z"/></g><g style="mix-blend-mode:overlay" class="D"><path d="M264.813 147.59c2.093-6.837 4.725-13.497 7.87-19.918l16.903-.004c-3.07 6.4-5.55 13.067-7.406 19.918l-17.368.004z"/></g></g></g><g style="mix-blend-mode:screen" opacity=".5"><g class="B"><path d="M513.61 181.687c-.807-1.126-.378-1.97-.26-4.46.11-2.1.68-4.208 1.73-6.044s1.697-2.924 2.807-3.483l.844-.883 2.21.597c1.446.44 2.493 1.985 2.834 4.65.353 2.62-.216 5.292-1.5 7.62-1.798 3.3-4.056 4.56-5.81 4.137l-.095-.026-2.07-.558-.692-1.55z"/><path d="M523.865 176.983c.444-1.647.593-3.323.375-4.946-.328-2.713-1.466-4.484-3.147-4.988l-.047-.013-2.4-.647-.93 1.01c-1.23.628-1.973 1.89-2.95 3.646a13.86 13.86 0 0 0-1.783 6.232l-.16 1.723c-.13 1.227-.19 2.018.418 2.94l.736 1.763 2.4.647c2.13.524 4.49-1.11 6.275-4.364.528-1.02.948-2.016 1.215-3.004zm-5.01-9.68l1.93.52c1.4.427 2.305 1.934 2.568 4.326.298 2.453-.212 5.092-1.437 7.386-1.578 2.855-3.604 4.378-5.357 3.955l-.094-.025-1.835-.495-.646-1.537c-.472-.682-.426-1.225-.3-2.405l.128-1.783c.097-2.043.642-4.066 1.68-5.856 1.05-1.836 1.625-2.842 2.662-3.32l.12-.068.592-.7z"/></g><path d="M511.598 179.983c.972 3.695 3.983 4.507 6.728 1.815 2.698-2.704 4.107-7.927 3.148-11.668-.972-3.695-3.983-4.507-6.728-1.815-2.758 2.74-4.167 7.96-3.148 11.668z" class="C"/><g class="B"><path d="M521.688 176.446c.584-2.164.7-4.502.166-6.416-.532-1.96-1.595-3.256-3.007-3.637s-2.982.205-4.427 1.632c-2.83 2.82-4.277 8.184-3.25 12.045.53 1.96 1.594 3.257 3.006 3.638s2.983-.205 4.428-1.633c1.385-1.393 2.486-3.417 3.083-5.63zm-9.505-2.563c.546-2.024 1.575-3.967 2.888-5.278 1.228-1.183 2.478-1.704 3.608-1.4s1.995 1.397 2.414 3.024c.95 3.588-.407 8.622-3.033 11.245-1.228 1.183-2.478 1.704-3.608 1.4s-1.995-1.396-2.414-3.023c-.535-1.76-.4-3.944.145-5.967zm1.2 4.715c-.52-2.563.457-6.186 2.195-8.14s3.574-1.46 4.094 1.104-.457 6.186-2.196 8.14c-1.726 1.907-3.56 1.412-4.093-1.104z"/><path d="M519.805 175.94c.42-1.553.543-3.135.25-4.476-.282-1.388-.95-2.276-1.892-2.53s-1.966.176-2.908 1.234c-1.8 2.036-2.838 5.847-2.297 8.517.282 1.388.95 2.275 1.892 2.53s1.966-.177 2.907-1.235c.93-1.01 1.63-2.488 2.05-4.04zm-5.787-1.56c.38-1.412 1.044-2.747 1.853-3.7.725-.814 1.476-1.167 2.088-1.002s1.083.848 1.3 1.916c.498 2.456-.44 5.938-2.094 7.763-.725.814-1.476 1.167-2.087 1.002s-1.084-.848-1.3-1.916c-.238-1.174-.14-2.662.24-4.073z"/></g><path d="M514.608 178.928c-.52-2.563.458-6.186 2.196-8.14.64-.686 1.25-1.076 1.877-1.16.455.375.833 1.032 1.04 1.946.52 2.563-.457 6.186-2.195 8.14-.64.685-1.25 1.076-1.878 1.16-.5-.388-.88-1.045-1.04-1.946z" class="C"/><path d="M519.806 175.94c.418-1.553.542-3.135.248-4.476-.195-.96-.595-1.725-1.177-2.185l-.13-.085-.154.01c-.687.117-1.464.564-2.116 1.296-1.81 2.036-2.84 5.847-2.297 8.517.195.96.594 1.725 1.177 2.185l.128.085.154-.01c.688-.118 1.465-.564 2.117-1.297.93-1.01 1.63-2.488 2.05-4.04zm-1.286-5.9c.313.336.575.86.74 1.562.5 2.456-.44 5.938-2.094 7.763-.494.523-.938.858-1.425.98-.313-.337-.575-.862-.74-1.563-.5-2.456.44-5.938 2.094-7.763.482-.476.985-.845 1.425-.978z" class="B"/><g class="C"><path d="M519.273 181.095l.165-.612 1.787.482-.165.612-1.787-.482zm1.642-12.075l.165-.612 1.788.483-.165.6-1.788-.482zm-7.517 6.35l.164-.612 1.177.318-.165.6-1.176-.317z"/></g><g class="B"><path d="M517.043 170.65l.988.266.15 1.504-1.2.333 1.48 5.548c-.208.398-.45.736-.694 1.074l-.422.442-.988-.267-.968-7.075 1.653-1.825z"/><path d="M518.744 178.378l-1.425-5.382 1.153-.345-.177-1.965-1.364-.368-1.965 2.044 1.02 7.443 1.364.368.554-.558c.303-.372.545-.71.754-1.11l.085-.128zm-2.14-5.726l.043.214 1.426 5.38c-.196.35-.38.655-.596.9l-.277.28-.612-.165-.93-6.66 1.483-1.568.565.152.075 1.03-1.046.323-.132.116z"/></g><path d="M515.98 172.534l1.213-.38-.15-1.504-1.653.513-1.035 1.033 1.956 7.342 1.228-1.184-1.56-5.82z" class="C"/><path d="M517.868 178.444l-1.538-5.714 1.153-.345-.172-2.167-2.152.68-1.24 1.23 2.12 8.042 1.83-1.728zm-2.252-6.058l.043.213 1.503 5.655-.686.673-1.745-6.63.83-.835 1.213-.38.08.83-1.046.323-.192.15z" class="B"/></g><g style="mix-blend-mode:screen" opacity=".5"><g class="B"><path d="M532.335 124.927c1.882-2.627.88-4.594.607-10.407-.255-4.877-1.588-9.816-4.04-14.1s-3.96-6.82-6.547-8.124l-1.97-2.06-5.158 1.392c-3.373 1.028-5.816 4.63-6.61 10.85-.824 6.11.504 12.344 3.5 17.777 4.196 7.698 9.462 10.634 13.553 9.648l.22-.06 4.83-1.302 1.615-3.615z"/><path d="M508.417 113.953c-1.036-3.842-1.384-7.75-.875-11.538.765-6.33 3.42-10.46 7.34-11.635l5.708-1.54 2.167 2.36c2.867 1.464 4.604 4.4 6.885 8.503a32.36 32.36 0 0 1 4.158 14.539c.085 1.625.19 2.89.377 4.02.3 2.862.446 4.707-.976 6.856l-1.716 4.113-5.598 1.5c-4.968 1.223-10.47-2.59-14.638-10.18-1.23-2.376-2.2-4.702-2.832-7.007zm11.688-22.58l-4.5 1.214c-3.263.998-5.376 4.512-6 10.093-.694 5.72.495 11.876 3.352 17.228 3.68 6.66 8.407 10.213 12.497 9.227l.22-.06 4.28-1.155 1.505-3.585c1.102-1.592.995-2.86.724-5.61l-.298-4.16c-.226-4.766-1.5-9.485-3.92-13.66-2.45-4.284-3.8-6.63-6.2-7.744l-.278-.16-1.382-1.63z"/></g><path d="M537.032 120.952c-2.267 8.618-9.29 10.512-15.695 4.233-6.293-6.308-9.58-18.49-7.342-27.22 2.267-8.618 9.292-10.513 15.695-4.234 6.433 6.388 9.72 18.572 7.342 27.22z" class="C"/><g class="B"><path d="M513.496 112.7c-1.362-5.05-1.656-10.503-.387-14.967 1.24-4.573 3.72-7.597 7.012-8.485s6.958.478 10.33 3.807c6.602 6.58 9.977 19.1 7.58 28.097-1.24 4.573-3.72 7.597-7.013 8.485s-6.957-.478-10.328-3.807c-3.23-3.25-5.8-7.973-7.192-13.13zm22.17-5.98c-1.273-4.72-3.673-9.252-6.735-12.312-2.864-2.76-5.782-3.974-8.416-3.264s-4.655 3.257-5.633 7.053c-2.217 8.37.95 20.113 7.076 26.23 2.864 2.76 5.782 3.975 8.416 3.264s4.655-3.257 5.633-7.053c1.247-4.104.932-9.2-.34-13.92zm-2.802 11c1.213-5.98-1.066-14.43-5.12-18.988s-8.336-3.403-9.55 2.576 1.067 14.43 5.122 18.988c4.025 4.448 8.306 3.293 9.548-2.576z"/><path d="M517.887 111.517c-.977-3.622-1.266-7.312-.58-10.44.657-3.238 2.218-5.308 4.414-5.9s4.585.41 6.78 2.88c4.224 4.748 6.623 13.638 5.36 19.866-.657 3.24-2.218 5.308-4.413 5.9s-4.585-.41-6.782-2.88c-2.167-2.36-3.802-5.803-4.78-9.425zm13.5-3.642c-.888-3.293-2.435-6.408-4.323-8.606-1.69-1.9-3.442-2.72-4.87-2.337s-2.528 1.977-3.033 4.468c-1.163 5.73 1.028 13.852 4.885 18.1 1.7 1.9 3.442 2.72 4.87 2.337s2.528-1.978 3.033-4.47c.556-2.74.327-6.2-.562-9.503z"/></g><path d="M530 118.49c1.213-5.978-1.067-14.43-5.122-18.987-1.49-1.6-2.914-2.51-4.38-2.704-1.06.874-1.94 2.407-2.426 4.54-1.213 5.98 1.067 14.43 5.122 18.988 1.49 1.6 2.915 2.51 4.38 2.704 1.17-.904 2.05-2.437 2.425-4.54z" class="C"/><path d="M517.886 111.517c-.977-3.622-1.266-7.312-.58-10.44.455-2.242 1.387-4.024 2.746-5.097l.3-.2.36.02c1.605.274 3.416 1.316 4.937 3.025 4.224 4.748 6.622 13.638 5.36 19.866-.455 2.242-1.387 4.024-2.746 5.097l-.3.198-.36-.02c-1.604-.274-3.416-1.316-4.936-3.025-2.167-2.36-3.803-5.803-4.78-9.425zm3-13.76c-.73.786-1.34 2-1.725 3.644-1.162 5.73 1.03 13.852 4.885 18.1 1.154 1.22 2.188 2 3.324 2.282.73-.785 1.342-2 1.725-3.644 1.163-5.73-1.028-13.852-4.885-18.1-1.123-1.11-2.298-1.97-3.324-2.282z" class="B"/><g class="C"><path d="M519.13 123.544l-.385-1.427-4.17 1.125.385 1.427 4.17-1.125zm-3.83-28.166l-.385-1.427-4.17 1.125.385 1.427 4.17-1.125z"/></g><g class="B"><path d="M524.332 99.18l-2.305.622-.35 3.51 2.8.775-3.456 12.942c.486.928 1.052 1.718 1.618 2.507l.985 1.03 2.305-.622 2.26-16.505-3.857-4.258z"/><path d="M520.363 117.206l3.325-12.553-2.7-.805.412-4.585 3.183-.86 4.583 4.77-2.38 17.36-3.183.86-1.293-1.3c-.705-.87-1.27-1.658-1.757-2.587l-.2-.3zm4.992-13.356l-.1.498-3.325 12.554c.457.82.883 1.528 1.4 2.097l.647.65 1.426-.385 2.167-15.537-3.46-3.66-1.317.355-.177 2.403 2.44.754.308.27z"/></g><path d="M526.812 103.575l-2.83-.885.35-3.51 3.855 1.197 2.416 2.4-4.564 17.126-2.864-2.76 3.637-13.58z" class="C"/><path d="M522.406 117.362l3.587-13.33-2.7-.805.403-5.053 5.02 1.59 2.894 2.87-4.948 18.76-4.266-4.03zm5.254-14.134l-.1.5-3.506 13.19 1.6 1.57 4.07-15.462-1.938-1.95-2.83-.885-.185 1.934 2.44.754.448.35z" class="B"/></g><g style="mix-blend-mode:screen" opacity=".4"><g class="B"><use xlink:href="#B"/><use xlink:href="#C"/></g><use xlink:href="#D" class="C"/><g class="B"><use xlink:href="#E"/><use xlink:href="#F"/><use xlink:href="#G"/></g><use xlink:href="#H" class="C"/><use xlink:href="#I" class="B"/><g class="C"><path d="M499.238 77.07l-2.3-1.118-3.268 6.72 2.3 1.118 3.27-6.72zm-41.108-27l-2.3-1.118-3.268 6.72 2.3 1.118 3.268-6.72zm39.25-6.06l-2.3-1.118-2.15 4.42 2.3 1.118 2.15-4.42z"/></g><g class="B"><use xlink:href="#J"/><use xlink:href="#K"/></g><use xlink:href="#L" class="C"/><use xlink:href="#M" class="B"/></g><g style="mix-blend-mode:screen" opacity=".3"><g class="B"><use xlink:href="#B"/><use xlink:href="#C"/></g><use xlink:href="#D" class="C"/><g class="B"><use xlink:href="#E"/><use xlink:href="#F"/><use xlink:href="#G"/></g><use xlink:href="#H" class="C"/><use xlink:href="#I" class="B"/><g class="C"><path d="M499.238 77.07l-2.3-1.118-3.268 6.72 2.3 1.118 3.27-6.72zm-41.108-27l-2.3-1.118-3.268 6.72 2.3 1.118 3.268-6.72zm39.25-6.06l-2.3-1.118-2.15 4.42 2.3 1.118 2.15-4.42z"/></g><g class="B"><use xlink:href="#J"/><use xlink:href="#K"/></g><use xlink:href="#L" class="C"/><use xlink:href="#M" class="B"/></g></g><defs><clipPath id="A"><path d="M0 0h570v197H0z" class="B"/></clipPath><path id="B" d="M516.04 61.406c-1.29-5.44-4.995-6.366-12.89-12.612-6.654-5.204-14.612-9.075-22.986-10.742s-13.397-2.58-18.038-.682l-4.923.23-4.043 8.312c-2.49 5.568-.562 12.847 6.65 20.948 7.036 8.014 16.682 13.362 27.173 15.62 14.812 3.268 24.624-.27 27.983-6.728l3.957-8.135-2.883-6.213z"/><path id="C" d="M474.556 80.155c-6.19-3-11.686-6.996-16.05-11.96-7.39-8.187-9.766-16.34-6.846-22.793l4.473-9.196 5.54-.15c5.166-2.08 10.983-1 18.917.672 8.55 1.753 16.772 5.533 23.694 11.086 2.217 1.735 3.99 3.034 5.673 4.072 4.077 2.858 6.65 4.764 7.84 9.06l3.418 6.91-4.387 9.02c-4.048 7.872-15.274 10.722-29.91 7.54-4.498-1.094-8.647-2.456-12.36-4.262zM458.364 39.26l-3.527 7.25c-2.403 5.392-.218 12.14 6.37 19.28 6.677 7.403 16.06 12.84 26.29 15.19 12.87 2.76 22.874.63 26.234-5.83l3.526-7.25-2.97-6.036c-.827-3.245-2.6-4.545-6.5-7.317l-5.765-4.334c-6.477-5.118-14.08-8.817-22.278-10.398-8.374-1.667-12.958-2.584-17.16-.69l-.526.182-3.694-.047z"/><path id="D" d="M516.188 50.762c8.67 12.746 3.166 24.064-12.3 25.3-15.38 1.048-35.01-8.5-43.86-21.33-8.672-12.746-3.167-24.065 12.3-25.3 15.643-1.14 35.273 8.408 43.86 21.33z"/><path id="E" d="M478.7 72.106c-8.135-3.957-15.587-9.768-19.97-16.492-4.56-6.8-5.69-13.482-3.108-18.788s8.526-8.537 16.7-9.155c16.082-1.144 36.243 8.662 45.273 22.02 4.56 6.8 5.69 13.482 3.11 18.788s-8.526 8.537-16.7 9.154c-7.9.527-16.99-1.485-25.303-5.527zm17.375-35.724c-7.605-3.698-16.247-5.715-23.717-5.193-6.854.603-11.752 3.032-13.817 7.276s-1.036 9.774 2.807 15.36c8.404 12.397 27.327 21.6 42.268 20.557 6.853-.603 11.752-3.03 13.817-7.276s1.036-9.774-2.808-15.36c-3.94-6.29-10.946-11.666-18.55-15.364z"/><path id="F" d="M507.236 52.532c-6.425-8.373-20.042-14.996-30.595-14.88s-13.908 7.013-7.483 15.386 20.042 14.996 30.595 14.88c10.376-.202 13.73-7.1 7.483-15.386z"/><path id="G" d="M482.13 65.032c-5.836-2.838-10.98-6.652-14.282-11.1-3.48-4.535-4.408-8.923-2.687-12.46s5.744-5.516 11.46-5.58c10.993-.12 25.318 6.846 32 15.568 3.48 4.535 4.408 8.923 2.688 12.46s-5.745 5.516-11.46 5.58c-5.54.15-11.892-1.63-17.728-4.467zM492.7 43.28c-5.306-2.58-11.127-4.1-16.14-4.133-4.397.048-7.46 1.4-8.58 3.7s-.29 5.544 2.386 9.033c6.157 8.024 19.244 14.39 29.18 14.192 4.397-.048 7.46-1.4 8.578-3.7s.29-5.544-2.385-9.033c-2.945-3.838-7.734-7.48-13.04-10.06z"/><path id="H" d="M505 57.13c-6.424-8.373-20.042-14.996-30.595-14.88-3.78.13-6.586.952-8.502 2.644-.062 2.376.937 5.267 3.17 8.32 6.425 8.373 20.042 14.996 30.595 14.88 3.78-.13 6.586-.952 8.503-2.644.148-2.552-.85-5.444-3.17-8.32z"/><path id="I" d="M482.13 65.033c-5.836-2.838-10.98-6.652-14.282-11.1-2.41-3.14-3.676-6.38-3.533-9.372l.08-.617.435-.445c2.18-1.783 5.596-2.964 9.554-3.007 10.993-.12 25.318 6.847 32 15.568 2.41 3.14 3.676 6.38 3.533 9.372l-.08.617-.435.444c-2.18 1.783-5.597 2.964-9.554 3.007-5.54.15-11.892-1.63-17.728-4.467zM467.58 45.49c.197 1.845 1.1 4.034 2.797 6.4 6.157 8.024 19.244 14.39 29.18 14.192 2.902-.12 5.095-.584 6.754-1.745-.197-1.845-1.1-4.034-2.797-6.4-6.157-8.024-19.244-14.39-29.18-14.192-2.725.206-5.18.76-6.754 1.745z"/><path id="J" d="M473.354 42.612l-1.807 3.714 4.183 4.44 4.19-2.773L492.885 67.2c1.764.42 3.437.578 5.1.736l2.46-.115 1.806-3.714L483.3 42.415l-9.936.197z"/><path id="K" d="M492.37 68.262l-12.605-18.596-4.106 2.596-5.516-5.744 2.495-5.13 11.427-.565 19.952 22.825-2.494 5.13-3.164.21c-1.936-.067-3.61-.224-5.372-.645l-.617-.08zM480.61 46.58l.536.698 12.605 18.596c1.587.334 2.997.583 4.316.568l1.582-.105 1.118-2.3-17.815-20.474-8.703.36-1.033 2.122 2.935 2.958 3.757-2.328.702-.096z"/><path id="L" d="M481.904 44.366l-4.368 2.687-4.183-4.44 5.94-3.67 5.888-.416 17.166 25.406-6.854.603-13.6-20.168z"/><path id="M" d="M494.892 65.772l-13.322-19.82-4.106 2.596-6.137-6.265 7.776-4.747 7.03-.517 18.863 27.762-10.104 1zm-12.477-22.907l.536.698 13.23 19.556 3.867-.306-15.555-22.873-4.746.316-4.368 2.687 2.313 2.437 3.757-2.328.965-.187z"/></defs></svg>