<svg width="98" height="98" viewBox="0 0 98 98" fill="none" xmlns="http://www.w3.org/2000/svg">
<path d="M36.7899 36.7102L45.9774 36.7408C46.3835 36.7408 46.773 36.5795 47.0602 36.2923C47.3473 36.0052 47.5087 35.6157 47.5087 35.2096L47.5347 27.5533C47.5347 27.1472 47.3734 26.7577 47.0862 26.4706C46.799 26.1834 46.4096 26.0221 46.0034 26.0221L36.8159 25.9915C36.4098 25.9915 36.0204 26.1528 35.7332 26.4399C35.446 26.7271 35.2847 27.1166 35.2847 27.5227L35.2587 35.179C35.2587 35.5851 35.42 35.9745 35.7072 36.2617C35.9943 36.5489 36.3838 36.7102 36.7899 36.7102ZM38.3472 29.054L44.4722 29.0739L44.4569 33.6676L38.3319 33.6477L38.3472 29.054Z" fill="url(#paint0_linear)"/>
<path d="M18.4149 36.6506L27.6024 36.6797C28.0086 36.6797 28.398 36.5184 28.6852 36.2312C28.9724 35.9441 29.1337 35.5546 29.1337 35.1485L29.1582 27.4922C29.1582 27.0861 28.9969 26.6966 28.7097 26.4095C28.4225 26.1223 28.0331 25.961 27.6269 25.961L18.4394 25.9319C18.0333 25.9319 17.6439 26.0932 17.3567 26.3804C17.0695 26.6675 16.9082 27.057 16.9082 27.4631L16.8837 35.1194C16.8837 35.5255 17.045 35.915 17.3322 36.2021C17.6194 36.4893 18.0088 36.6506 18.4149 36.6506V36.6506ZM19.9722 28.9944L26.0972 29.0143L26.0819 33.608L19.9569 33.5881L19.9722 28.9944Z" fill="url(#paint1_linear)"/>
<path d="M55.165 36.7698L64.3525 36.8004C64.7586 36.8004 65.148 36.6391 65.4352 36.3519C65.7224 36.0647 65.8837 35.6753 65.8837 35.2692L65.9097 27.6129C65.9097 27.2068 65.7484 26.8173 65.4612 26.5301C65.1741 26.243 64.7846 26.0817 64.3785 26.0817L55.191 26.051C54.7849 26.051 54.3954 26.2124 54.1082 26.4995C53.8211 26.7867 53.6597 27.1762 53.6597 27.5823L53.6337 35.2385C53.6337 35.6446 53.795 36.0341 54.0822 36.3213C54.3694 36.6084 54.7588 36.7698 55.165 36.7698ZM56.7207 29.1135L62.8457 29.135L62.8319 33.7287L56.7069 33.7088L56.7207 29.1135Z" fill="url(#paint2_linear)"/>
<path d="M93.4262 43.0282L75.0512 42.9685L75.1048 26.7219L77.6743 27.5871C77.8331 27.6361 77.9981 27.6624 78.1643 27.6652C78.4842 27.6717 78.7971 27.5703 79.0524 27.3773C79.2526 27.2387 79.4161 27.0535 79.529 26.8377C79.6418 26.622 79.7005 26.382 79.7001 26.1385L79.72 20.0135C79.7187 19.6931 79.6184 19.3809 79.4329 19.1196C79.2473 18.8584 78.9855 18.6609 78.6834 18.5542L61.3695 12.7186L61.3955 4.63363C61.3955 4.22752 61.2342 3.83804 60.947 3.55087C60.6599 3.26371 60.2704 3.10238 59.8643 3.10238L52.208 3.07788C51.8019 3.07788 51.4125 3.23921 51.1253 3.52637C50.8381 3.81354 50.6768 4.20302 50.6768 4.60913L50.6615 9.12632L41.9732 6.17866C41.6553 6.07131 41.311 6.07131 40.9932 6.17866L4.20335 18.3046C3.90071 18.4094 3.63781 18.605 3.4506 18.8649C3.2634 19.1247 3.16103 19.436 3.1575 19.7563L3.1376 25.8813C3.13571 26.1246 3.19297 26.3648 3.30447 26.5811C3.41597 26.7974 3.57836 26.9834 3.77766 27.1231C3.97321 27.267 4.20036 27.3619 4.44012 27.4C4.67988 27.4381 4.92528 27.4182 5.15578 27.3421L7.72982 26.4907L7.5966 67.2373L4.5341 67.2265C4.12798 67.2265 3.7385 67.3879 3.45134 67.675C3.16417 67.9622 3.00285 68.3517 3.00285 68.7578L2.98294 74.8828C2.98294 75.2889 3.14427 75.6784 3.43143 75.9655C3.7186 76.2527 4.10808 76.414 4.51419 76.414L22.8892 76.4738L22.8341 93.3175C22.8341 93.7236 22.9954 94.1131 23.2826 94.4003C23.5697 94.6874 23.9592 94.8488 24.3653 94.8488L82.5528 95.0386C82.9589 95.0386 83.3484 94.8773 83.6356 94.5901C83.9227 94.303 84.0841 93.9135 84.0841 93.5074L84.1392 76.6636L93.3267 76.6943C93.7328 76.6943 94.1223 76.5329 94.4095 76.2458C94.6966 75.9586 94.858 75.5691 94.858 75.163L94.959 44.538C94.9534 44.1354 94.7894 43.7511 94.5025 43.4685C94.2156 43.186 93.8289 43.0278 93.4262 43.0282V43.0282ZM53.7347 6.14038L58.3284 6.15569L58.3101 11.6835L53.7163 10.1369L53.7347 6.14038ZM6.20775 23.762L6.21694 20.8679L41.474 9.23963L76.6545 21.0992L76.6453 23.9932L41.9563 12.3037C41.6376 12.2016 41.295 12.2016 40.9763 12.3037L6.20775 23.762ZM10.6392 73.3745L6.04544 73.3592L6.05463 70.2967L10.6484 70.312L10.6392 73.3745ZM10.6591 67.2495L10.7954 25.477L41.4541 15.3708L72.0454 25.6776L71.9887 42.9501L38.3012 42.8398C37.9592 42.843 37.6285 42.9626 37.3635 43.1789C37.0986 43.3951 36.9151 43.6952 36.8435 44.0296C35.752 42.7549 34.41 41.7183 32.9008 40.9843C31.3917 40.2504 29.7476 39.8347 28.071 39.7632C26.3943 39.6918 24.7209 39.966 23.1548 40.5688C21.5886 41.1717 20.1632 42.0903 18.9672 43.2676C17.7713 44.4448 16.8302 45.8555 16.2027 47.4119C15.5752 48.9684 15.2746 50.6373 15.3196 52.3148C15.3646 53.9924 15.7542 55.6428 16.4643 57.1634C17.1743 58.6839 18.1896 60.0422 19.4469 61.1536L16.7979 61.1444C16.3918 61.1444 16.0023 61.3057 15.7151 61.5929C15.428 61.8801 15.2666 62.2696 15.2666 62.6757L15.2513 67.2694L10.6591 67.2495ZM44.2027 45.9223C43.9218 46.9727 43.3676 47.93 42.5964 48.6966C41.8253 49.4632 40.8647 50.0117 39.8126 50.2863L39.8279 45.9069L44.2027 45.9223ZM18.3154 67.2755L18.3245 64.213L36.6995 64.2728L36.6904 67.3353L18.3154 67.2755ZM36.6796 70.3978L36.6704 73.4603H35.1392L35.1484 70.3978H36.6796ZM35.5924 61.2103C35.9886 60.8626 36.3629 60.4908 36.7133 60.097V61.2149L35.5924 61.2103ZM27.5228 61.1842C25.7057 61.1782 23.9312 60.6334 22.4237 59.6188C20.9162 58.6043 19.7434 57.1654 19.0536 55.4843C18.3638 53.8032 18.1881 51.9553 18.5485 50.1743C18.9089 48.3933 19.7894 46.7592 21.0786 45.4786C22.3677 44.198 24.0077 43.3285 25.7911 42.9799C27.5744 42.6313 29.4211 42.8194 31.0976 43.5204C32.7741 44.2214 34.205 45.4037 35.2095 46.9179C36.214 48.4322 36.7469 50.2102 36.7409 52.0274C36.7316 54.4632 35.7553 56.7957 34.0267 58.512C32.2981 60.2282 29.9586 61.1878 27.5228 61.1796V61.1842ZM13.7017 73.3852L13.7109 70.3227L32.0859 70.3824L32.0767 73.4449L13.7017 73.3852ZM41.2029 91.849L25.8904 91.8V90.2688L41.2029 90.3193V91.849ZM41.2183 87.2553L25.9058 87.2048V85.6735L41.2183 85.724V87.2553ZM41.2336 82.6615L25.9211 82.611V81.0798L41.2336 81.1303V82.6615ZM41.2489 78.0678L25.9364 78.0173V76.486L41.2489 76.5365V78.0678ZM39.7329 73.474L39.7467 69.0947C40.798 69.3757 41.756 69.9305 42.5229 70.7025C43.2899 71.4746 43.8383 72.4362 44.1123 73.4894L39.7329 73.474ZM62.6404 91.9241L44.2654 91.8644L44.316 76.5519L62.691 76.6116L62.6404 91.9241ZM81.0155 91.9853L65.7029 91.9348V90.4035L81.0155 90.4541V91.9853ZM81.0308 87.3916L65.7183 87.341V85.8098L81.0308 85.8603V87.3916ZM81.0461 82.7978L65.7336 82.7473V81.216L81.0461 81.2666V82.7978ZM81.0614 78.2041L65.7489 78.1535V76.6223L81.0614 76.6728V78.2041ZM91.7955 73.644L87.4161 73.6302C87.6966 72.5791 88.2511 71.6213 89.0229 70.8545C89.7948 70.0878 90.7563 69.5397 91.8092 69.2662L91.7955 73.644ZM91.82 66.1256C89.9402 66.4369 88.204 67.3257 86.8523 68.6685C85.5006 70.0114 84.6006 71.7418 84.277 73.6195L47.2514 73.5001C46.9397 71.6205 46.0507 69.8845 44.7079 68.5329C43.3651 67.1813 41.635 66.2811 39.7574 65.9571L39.7988 53.4315C41.6785 53.1202 43.4148 52.2314 44.7664 50.8885C46.1181 49.5456 47.0182 47.8153 47.3417 45.9376L84.3658 46.0601C84.6793 47.938 85.569 49.6719 86.9117 51.0217C88.2543 52.3715 89.9836 53.2704 91.8598 53.5938L91.82 66.1256ZM91.8751 50.4578C90.8239 50.1765 89.8661 49.6216 89.0992 48.8496C88.3323 48.0776 87.7838 47.1161 87.5095 46.0631L91.8889 46.0784L91.8751 50.4578Z" fill="url(#paint3_linear)"/>
<path d="M47.4159 61.2295L47.4251 58.167L52.0188 58.1808L52.0096 61.2433L47.4159 61.2295Z" fill="url(#paint4_linear)"/>
<path d="M79.563 61.334L79.5722 58.2715L84.1659 58.2853L84.1568 61.3478L79.563 61.334Z" fill="url(#paint5_linear)"/>
<path d="M65.8438 47.524C63.421 47.5161 61.0502 48.2269 59.0314 49.5664C57.0125 50.9059 55.4362 52.814 54.5018 55.0493C53.5673 57.2847 53.3167 59.747 53.7817 62.1247C54.2466 64.5025 55.4062 66.689 57.1138 68.4078C58.8215 70.1265 61.0004 71.3003 63.3751 71.7807C65.7498 72.2611 68.2136 72.0265 70.455 71.1066C72.6964 70.1868 74.6147 68.6229 75.9673 66.6128C77.3199 64.6027 78.0461 62.2366 78.0539 59.8138C78.0605 56.5661 76.7787 53.4484 74.4897 51.1445C72.2007 48.8406 69.0914 47.5386 65.8438 47.524V47.524ZM65.7733 68.9615C63.9562 68.9554 62.1817 68.4107 60.6742 67.3961C59.1667 66.3815 57.9939 64.9427 57.3042 63.2616C56.6144 61.5805 56.4386 59.7326 56.7991 57.9516C57.1595 56.1706 58.04 54.5365 59.3291 53.2559C60.6183 51.9753 62.2583 51.1057 64.0416 50.7572C65.825 50.4086 67.6717 50.5967 69.3481 51.2977C71.0246 51.9986 72.4556 53.181 73.4601 54.6952C74.4646 56.2094 74.9975 57.9875 74.9914 59.8046C74.9805 62.2396 74.0045 64.5709 72.2773 66.2874C70.5502 68.004 68.2129 68.9656 65.7779 68.9615H65.7733Z" fill="url(#paint6_linear)"/>
<path d="M26.7969 48.9281H28.3282C28.5312 48.9281 28.726 49.0088 28.8695 49.1524C29.0131 49.296 29.0938 49.4907 29.0938 49.6938L32.1563 49.7045C32.1592 48.8221 31.8571 47.9658 31.3013 47.2806C30.7455 46.5953 29.97 46.123 29.106 45.9437V44.3344L26.0435 44.3252V45.9345C25.1136 46.1214 24.2861 46.6469 23.7215 47.4091C23.1569 48.1713 22.8954 49.116 22.9877 50.0601C23.08 51.0042 23.5195 51.8804 24.221 52.5188C24.9225 53.1573 25.8361 53.5125 26.7847 53.5158H28.3159C28.519 53.5158 28.7137 53.5964 28.8573 53.74C29.0009 53.8836 29.0815 54.0783 29.0815 54.2814C29.0815 54.4844 29.0009 54.6792 28.8573 54.8228C28.7137 54.9663 28.519 55.047 28.3159 55.047H26.7847C26.5816 55.047 26.3869 54.9663 26.2433 54.8228C26.0997 54.6792 26.019 54.4844 26.019 54.2814L22.9565 54.2707C22.9527 55.1529 23.2538 56.0094 23.8088 56.6952C24.3637 57.3811 25.1386 57.8542 26.0022 58.0345V59.6438L29.0647 59.653V58.0452C29.9947 57.8583 30.8222 57.3329 31.3868 56.5706C31.9514 55.8084 32.2128 54.8637 32.1206 53.9196C32.0283 52.9756 31.5888 52.0994 30.8872 51.4609C30.1857 50.8225 29.2721 50.4672 28.3236 50.464H26.7923C26.5893 50.464 26.3945 50.3833 26.2509 50.2397C26.1074 50.0962 26.0267 49.9014 26.0267 49.6984C26.0267 49.4953 26.1074 49.3006 26.2509 49.157C26.3945 49.0134 26.5893 48.9327 26.7923 48.9327L26.7969 48.9281Z" fill="url(#paint7_linear)"/>
<defs>
<linearGradient id="paint0_linear" x1="41.3967" y1="25.9915" x2="41.3967" y2="36.7408" gradientUnits="userSpaceOnUse">
<stop stop-color="#F2C94C"/>
<stop offset="1" stop-color="#F29C4C"/>
</linearGradient>
<linearGradient id="paint1_linear" x1="23.0209" y1="25.9319" x2="23.0209" y2="36.6797" gradientUnits="userSpaceOnUse">
<stop stop-color="#F2C94C"/>
<stop offset="1" stop-color="#F29C4C"/>
</linearGradient>
<linearGradient id="paint2_linear" x1="59.7717" y1="26.051" x2="59.7717" y2="36.8004" gradientUnits="userSpaceOnUse">
<stop stop-color="#F2C94C"/>
<stop offset="1" stop-color="#F29C4C"/>
</linearGradient>
<linearGradient id="paint3_linear" x1="48.971" y1="3.07788" x2="48.971" y2="95.0386" gradientUnits="userSpaceOnUse">
<stop stop-color="#F2C94C"/>
<stop offset="1" stop-color="#F29C4C"/>
</linearGradient>
<linearGradient id="paint4_linear" x1="47.4205" y1="59.6982" x2="52.0142" y2="59.712" gradientUnits="userSpaceOnUse">
<stop stop-color="#F2C94C"/>
<stop offset="1" stop-color="#F29C4C"/>
</linearGradient>
<linearGradient id="paint5_linear" x1="79.5676" y1="59.8027" x2="84.1613" y2="59.8165" gradientUnits="userSpaceOnUse">
<stop stop-color="#F2C94C"/>
<stop offset="1" stop-color="#F29C4C"/>
</linearGradient>
<linearGradient id="paint6_linear" x1="65.804" y1="47.5239" x2="65.804" y2="72.0239" gradientUnits="userSpaceOnUse">
<stop stop-color="#F2C94C"/>
<stop offset="1" stop-color="#F29C4C"/>
</linearGradient>
<linearGradient id="paint7_linear" x1="27.5564" y1="44.3252" x2="27.5564" y2="59.653" gradientUnits="userSpaceOnUse">
<stop stop-color="#F2C94C"/>
<stop offset="1" stop-color="#F29C4C"/>
</linearGradient>
</defs>
</svg>
