<svg xmlns="http://www.w3.org/2000/svg" width="570" height="197" fill="none" xmlns:v="https://vecta.io/nano"><g clip-path="url(#A)"><path fill="#ffc856" stroke="#007550" stroke-width="10" d="M5 5h560v187H5z"/><path fill="#ff513f" d="M0 0h570v197H0z"/><g style="mix-blend-mode:multiply" opacity=".3"><path d="M33 197L0 145v52h33z" fill="#ff513f"/></g><g style="mix-blend-mode:multiply" opacity=".3"><path d="M360 0L570 140V0H360Z" fill="#ff513f"/></g><g style="mix-blend-mode:multiply" opacity=".17"><path d="M20 28.5L67.5 0H0L20 28.5Z" fill="#ff513f"/></g><g style="mix-blend-mode:overlay" opacity=".3"><path d="M510.884 15.56l48.588 36.252-55.7 23.952 7.102-60.204z" fill="#fff"/></g><g style="mix-blend-mode:overlay" opacity=".1"><path d="M385.45 55.62l-7.09 24.51-17.682-18.396 24.773-6.115z" fill="#fff"/></g><g style="mix-blend-mode:overlay" opacity=".5"><path d="M6.758 129.366l22.097 12.758L6.758 154.88v-25.515z" fill="#fff"/></g><g style="mix-blend-mode:screen" opacity=".2"><path fill="#ffc856" d="M467.824 110.735l58.44 26.1-26.1 58.44-58.44-26.1z"/></g><g style="mix-blend-mode:screen" opacity=".2"><path fill="#ffc856" d="M47-22.566L135.512-62l39.434 88.512-88.512 39.434z"/></g><g style="mix-blend-mode:screen" opacity=".7"><g opacity=".2" stroke="#fff"><path d="M69.048 79.5h-55.6v-78h55.6l-28.173 39 28.173 39zm26.83-39.293l-.212.293 28.173 39h-27.3l-28.173-39 28.173-39h27.3l-27.96 38.707zm57.07 0l-.2.292 15.343 21.36v-42.6l-15.132 20.947zm42.748 19.987v1.553l15.343-21.36-.2-.292-15.132-20.947v41.046zm.5-58.694h13.97l28.173 39-28.173 39H153.77l-28.174-39 28.174-39h42.424z"/></g><g opacity=".2" stroke="#fff"><path d="M302.048 79.5h-55.6v-78h55.6l-28.173 39 .2.293L302.048 79.5zm26.83-39.293l-.2.293.2.293L356.84 79.5h-27.3l-28.173-39 28.173-39h27.3l-27.962 38.707zm57.07 0l-.2.292 15.343 21.36v-42.6l-15.132 20.947zm42.748 19.987v1.553l15.343-21.36-.2-.292-15.132-20.947v41.046zm.5-58.694h13.97l28.173 39-28.173 39H386.77l-28.174-39 28.174-39h42.424z"/></g><g opacity=".2" stroke="#fff"><path d="M518.023 194.5H592.3v-104h-74.278l37.517 52-.2.293-37.306 51.707zm-35.427-52.293l.2.293-.2.293L445.3 194.5h36.645l37.517-52-37.517-52H445.3l37.306 51.707zm-75.756 0l.2.292-.2.292-19.8 27.588v-55.602l19.8 27.43zm-56.776 26.468v1.555l-20-27.88.2-.292 19.8-27.43v54.047zm-.5-78.175h-18.63l-37.517 52 37.517 52h75.028l37.517-52-37.517-52h-56.4z"/></g><g opacity=".2" stroke="#fff"><path d="M535.048 79.5h-55.6v-78h55.6l-28.173 39 .2.293L535.048 79.5zm26.83-39.293l-.2.293.2.293L589.84 79.5h-27.3l-28.173-39 28.173-39h27.3l-27.962 38.707z"/></g><g opacity=".2" stroke="#fff"><path d="M208.023 194.5H282.3v-104h-74.278l37.517 52-.2.293-37.306 51.707zm-35.427-52.293l.2.293-.2.293L135.3 194.5h36.645l37.517-52-37.517-52H135.3l37.306 51.707zm-75.756 0l.2.292-20 27.88v-55.602l19.8 27.43zm-56.776 26.468v1.555l-20-27.88 20-27.722v54.047zm-.5-78.175h-18.63l-37.517 52 37.517 52h75.028l37.517-52-37.517-52h-56.4z"/></g></g></g><defs><clipPath id="A"><path fill="#fff" d="M0 0h570v197H0z"/></clipPath></defs></svg>