<svg width="98" height="98" viewBox="0 0 98 98" fill="none" xmlns="http://www.w3.org/2000/svg">
<path d="M98 46.0707L83.3383 38.3733L97.983 28.8731L48.9999 2.93335L0.0168437 28.8731L14.6615 38.3733L0 46.0707L14.6615 55.5818L0 63.2792L48.9999 95.0666L98 63.2792L83.3385 55.5818L98 46.0707ZM86.6713 29.3736L76.9521 35.6789L68.4489 30.415L77.5351 24.5356L86.6713 29.3736ZM43.7204 39.5836L35.3829 44.9785L25.8873 38.8185L34.4668 33.5962L43.7204 39.5836ZM39.9076 30.2841L48.6971 24.9339L57.7242 30.522L48.9999 36.1673L39.9076 30.2841ZM48.9999 42.9998L57.3441 48.3989L48.9999 53.8119L40.6558 48.3989L48.9999 42.9998ZM54.2797 39.5834L63.1209 33.8626L71.631 39.1307L62.6171 44.9781L54.2797 39.5834ZM71.7284 21.4605L63.0524 27.0742L54.1918 21.5891L62.4636 16.554L71.7284 21.4605ZM48.9999 9.42392L56.5645 13.4299L48.7226 18.2031L41.2072 13.5506L48.9999 9.42392ZM35.3337 16.6616L43.2277 21.5481L34.5601 26.8239L26.2712 21.4605L35.3337 16.6616ZM11.3284 29.3736L20.4644 24.5354L29.1192 30.1354L20.5467 35.3535L11.3284 29.3736ZM11.3452 46.5932L20.1813 41.9541L48.9999 60.6495L77.8187 41.9541L86.6548 46.5932L48.9999 71.0206L11.3452 46.5932ZM86.6546 63.8018L48.9999 88.2292L11.3452 63.8018L20.1813 59.1627L48.9999 77.858L77.8187 59.1627L86.6546 63.8018Z" fill="url(#paint0_linear)"/>
<defs>
<linearGradient id="paint0_linear" x1="49" y1="2.93335" x2="49" y2="95.0666" gradientUnits="userSpaceOnUse">
<stop stop-color="#F2C94C"/>
<stop offset="1" stop-color="#F29C4C"/>
</linearGradient>
</defs>
</svg>
