<svg xmlns="http://www.w3.org/2000/svg" width="570" height="197" fill="none" xmlns:v="https://vecta.io/nano"><g clip-path="url(#A)"><path fill="#ffc856" stroke="#007550" stroke-width="10" d="M5 5h560v187H5z"/><path fill="#001e20" d="M0 0h570v197H0z"/><g style="mix-blend-mode:multiply" opacity=".2"><path d="M360 0L570 140V0H360Z" fill="#ff513f"/></g><g style="mix-blend-mode:screen" opacity=".07"><path d="M501.342 25h21.204l-3.534 52.098h-14.136L501.342 25zm10.602 80.712c-3.116 0-5.738-.988-7.866-2.964-2.052-2.052-3.078-4.522-3.078-7.4s1.026-5.282 3.078-7.182c2.052-1.976 4.674-2.964 7.866-2.964s5.814.988 7.866 2.964c2.052 1.9 3.078 4.294 3.078 7.182s-1.064 5.358-3.192 7.4c-2.052 1.976-4.636 2.964-7.752 2.964z" fill="#fff"/></g><g style="mix-blend-mode:screen" opacity=".07"><path d="M4.162 122.84l10.056-2.695 4.788 24.572-6.704 1.796-8.14-23.673zm15.042 36.023c-1.478.396-2.844.272-4.098-.372-1.228-.7-2.02-1.703-2.38-3.04a4.44 4.44 0 0 1 .569-3.717c.728-1.175 1.85-1.966 3.363-2.372s2.88-.28 4.098.373c1.21.62 1.992 1.597 2.35 2.934s.16 2.616-.595 3.837c-.728 1.176-1.83 1.96-3.31 2.357z" fill="#fff"/></g><g style="mix-blend-mode:screen" opacity=".07"><path d="M310.577 113.226L334.9 127.27l-37.738 56.003-16.215-9.362 29.63-60.684zm-40.023 97.41c-3.574-2.064-5.943-4.907-7.107-8.53-1.027-3.657-.607-7.102 1.26-10.337s4.592-5.235 8.174-6.004c3.63-.854 7.278-.224 10.94 1.9s6.03 4.957 7.107 8.53c1.125 3.487.754 6.847-1.113 10.08s-4.685 5.296-8.452 6.184c-3.632.854-7.235.25-10.81-1.814z" fill="#fff"/></g><g style="mix-blend-mode:screen" opacity=".3"><g opacity=".2" stroke="#fff"><path d="M69.048 79.5h-55.6v-78h55.6l-28.173 39 28.173 39zm26.83-39.293l-.212.293 28.173 39h-27.3l-28.173-39 28.173-39h27.3l-27.96 38.707zm57.07 0l-.2.292 15.343 21.36v-42.6l-15.132 20.947zm42.748 19.987v1.553l15.343-21.36-.2-.292-15.132-20.947v41.046zm.5-58.694h13.97l28.173 39-28.173 39H153.77l-28.174-39 28.174-39h42.424z"/></g><g opacity=".2" stroke="#fff"><path d="M302.048 79.5h-55.6v-78h55.6l-28.173 39 .2.293L302.048 79.5zm26.83-39.293l-.212.293.212.293L356.84 79.5h-27.3l-28.174-39 28.174-39h27.3l-27.962 38.707zm57.07 0l-.2.292 15.343 21.36v-42.6l-15.132 20.947zm42.748 19.987v1.553l15.343-21.36-.2-.292-15.132-20.947v41.046zm.5-58.694h13.97l28.173 39-28.173 39H386.77l-28.174-39 28.174-39h42.424z"/></g><g opacity=".2" stroke="#fff"><path d="M518.023 194.5H592.3v-104h-74.278l37.517 52-.2.293-37.306 51.707zm-35.427-52.293l.2.293-.2.293L445.3 194.5h36.645l37.517-52-37.517-52H445.3l37.306 51.707zm-75.756 0l.2.292-.2.292-19.8 27.588v-55.602l19.8 27.43zm-56.776 26.468v1.555l-20-27.88.2-.292 19.8-27.43v54.047zm-.5-78.175h-18.63l-37.517 52 37.517 52h75.028l37.517-52-37.517-52h-56.4z"/></g><g opacity=".2" stroke="#fff"><path d="M535.048 79.5h-55.6v-78h55.6l-28.173 39 .2.293L535.048 79.5zm26.83-39.293l-.212.293.212.293L589.84 79.5h-27.3l-28.174-39 28.174-39h27.3l-27.962 38.707z"/></g><g opacity=".2" stroke="#fff"><path d="M208.023 194.5H282.3v-104h-74.278l37.517 52-.2.293-37.306 51.707zm-35.427-52.293l.2.293-.2.293L135.3 194.5h36.645l37.517-52-37.517-52H135.3l37.306 51.707zm-75.756 0l.2.292-20 27.88v-55.602l19.8 27.43zm-56.776 26.468v1.555l-20-27.88 20-27.722v54.047zm-.5-78.175h-18.63l-37.517 52 37.517 52h75.028l37.517-52-37.517-52h-56.4z"/></g></g><g style="mix-blend-mode:overlay" opacity=".4"><g style="mix-blend-mode:overlay" opacity=".6"><path d="M365.83 144.76c-1.153-3.796-1.257-7.182-.3-10.157.995-3.067 2.703-6.58 5.124-10.542 1.858-3.02 3.14-5.523 3.85-7.505a9.64 9.64 0 0 0 .176-6.273c-.897-2.953-2.823-4.98-5.778-6.078s-6.445-1.037-10.468.186c-7.623 2.316-12.554 6.77-14.79 13.363l-12.29-3.524c1.775-5.07 4.732-9.424 8.87-13.06 4.117-3.708 9.422-6.55 15.915-8.52 7.906-2.402 14.71-2.588 20.417-.558 5.754 1.938 9.54 5.895 11.354 11.87.876 2.882 1.15 5.563.825 8.043-.256 2.458-.82 4.664-1.7 6.62-.893 1.883-2.134 4.142-3.724 6.775-1.956 3.205-3.327 5.926-4.113 8.16-.715 2.214-.688 4.586.08 7.117l-13.446 4.085zm14.433 23.146c-2.47.75-4.752.6-6.846-.455-2.044-1.145-3.418-2.878-4.123-5.198s-.516-4.49.567-6.507c1.154-2.04 2.966-3.435 5.436-4.186 2.4-.73 4.612-.556 6.634.52 2.094 1.053 3.493 2.74 4.198 5.06s.49 4.535-.642 6.645c-1.083 2.02-2.824 3.393-5.224 4.122z" fill="#fff"/></g><g style="mix-blend-mode:overlay" opacity=".5"><path d="M445.985 164.84c4.033-8.435 9.238-14.485 15.616-18.152 6.61-3.748 15.166-7.14 25.673-10.175 8.035-2.3 14.245-4.607 18.628-6.925 4.615-2.398 8.043-5.94 10.284-10.626 3.136-6.56 3-13.145-.38-19.755s-9.554-12.052-18.492-16.326c-16.935-8.098-32.59-8.196-46.966-.294L434.6 56.917c11.15-5.99 23.213-8.858 36.19-8.6 13.053.1 26.793 3.6 41.22 10.5 17.563 8.398 29.69 18.898 36.38 31.5 6.922 12.52 7.208 25.42.86 38.694-3.062 6.404-6.848 11.502-11.36 15.294-4.353 3.867-8.84 6.806-13.464 8.817-4.548 1.856-10.298 3.808-17.25 5.856-8.498 2.46-15.208 5-20.13 7.646-4.764 2.71-8.49 6.878-11.18 12.5l-29.873-14.284zm-11.72 63.2c-5.49-2.624-9.215-6.516-11.178-11.677-1.732-5.242-1.366-10.44 1.1-15.594s6.243-8.625 11.336-10.41c5.25-1.712 10.618-1.255 16.107 1.37 5.33 2.55 8.9 6.367 10.707 11.453 1.964 5.16 1.713 10.318-.75 15.472s-6.36 8.665-11.684 10.533c-5.093 1.786-10.305 1.405-15.636-1.145z" fill="#fff"/></g><g style="mix-blend-mode:overlay" opacity=".6"><path d="M397.946 28.57c1.086-4.053 2.885-7.15 5.397-9.292 2.608-2.197 6.105-4.397 10.5-6.6 3.356-1.675 5.906-3.204 7.65-4.586a10.2 10.2 0 0 0 3.663-5.534c.844-3.152.247-6.047-1.792-8.684s-5.206-4.532-9.5-5.683c-8.137-2.18-15.052-.937-20.745 3.732l-9.062-10.03c4.426-3.56 9.513-5.816 15.26-6.77 5.767-1.03 12.116-.614 19.048 1.243 8.44 2.26 14.653 5.897 18.64 10.907 4.083 4.955 5.27 10.622 3.56 17-.825 3.077-2.076 5.637-3.754 7.68-1.603 2.064-3.342 3.73-5.216 4.997-1.853 1.192-4.23 2.526-7.13 4.002-3.547 1.784-6.297 3.46-8.252 5.028-1.88 1.588-3.18 3.733-3.904 6.434l-14.354-3.846zm.024 28.843c-2.637-.707-4.6-2.118-5.89-4.233-1.195-2.17-1.46-4.494-.797-6.97s2.045-4.318 4.145-5.525c2.175-1.187 4.582-1.427 7.22-.72 2.562.686 4.45 2.077 5.665 4.172 1.29 2.115 1.604 4.41.94 6.888s-2.093 4.346-4.29 5.607c-2.1 1.207-4.43 1.467-6.993.78z" fill="#fff"/></g><g style="mix-blend-mode:overlay" opacity=".4"><path d="M343.105 42.862c-.925-2.274-1.18-4.354-.764-6.24.44-1.946 1.294-4.207 2.562-6.784.974-1.966 1.623-3.58 1.948-4.84.35-1.32.268-2.612-.246-3.875-.72-1.77-2.02-2.908-3.903-3.418s-4.03-.275-6.44.705c-4.566 1.857-7.352 4.88-8.36 9.068l-7.77-1.477c.808-3.224 2.383-6.073 4.727-8.548 2.327-2.517 5.436-4.566 9.325-6.148 4.735-1.926 8.918-2.425 12.547-1.496 3.655.87 6.2 3.094 7.666 6.673.702 1.727 1.023 3.363.962 4.91-.02 1.53-.24 2.92-.668 4.173-.443 1.21-1.08 2.673-1.912 4.385-1.024 2.085-1.715 3.84-2.073 5.26-.316 1.404-.166 2.864.45 4.38l-8.054 3.276zm10.2 13.446c-1.48.602-2.895.637-4.244.106-1.324-.6-2.27-1.58-2.834-2.97s-.57-2.737-.017-4.04c.595-1.322 1.633-2.284 3.113-2.886 1.437-.585 2.81-.603 4.116-.055 1.35.53 2.307 1.49 2.872 2.88s.558 2.767-.02 4.13c-.554 1.305-1.55 2.25-2.986 2.834z" fill="#fff"/></g><g style="mix-blend-mode:overlay" opacity=".6"><path d="M507.215 14.767c-.476-1.78-.472-3.35.013-4.717.51-1.407 1.356-3.01 2.54-4.81.908-1.373 1.542-2.514 1.9-3.422a4.47 4.47 0 0 0 .178-2.908c-.37-1.384-1.233-2.353-2.587-2.908s-2.974-.58-4.86-.075c-3.572.957-5.928 2.947-7.068 5.972L491.687.072c.9-2.325 2.34-4.3 4.316-5.923 1.966-1.657 4.47-2.893 7.514-3.708 3.705-.992 6.865-.974 9.48.056 2.64.988 4.335 2.882 5.085 5.682.362 1.35.448 2.6.26 3.744-.157 1.136-.452 2.15-.886 3.044-.444.86-1.054 1.89-1.833 3.086-.956 1.457-1.634 2.698-2.033 3.723-.366 1.016-.4 2.117-.073 3.303l-6.3 1.688zm6.34 10.96c-1.158.3-2.214.205-3.17-.316-.93-.563-1.542-1.388-1.833-2.475s-.17-2.09.363-3c.567-.93 1.43-1.548 2.587-1.858 1.124-.3 2.148-.187 3.07.343.955.52 1.578 1.325 1.87 2.412a3.89 3.89 0 0 1-.4 3.073c-.534.92-1.363 1.53-2.487 1.832z" fill="#fff"/></g></g><g style="mix-blend-mode:overlay" opacity=".4"><g style="mix-blend-mode:overlay" opacity=".6"><path d="M56.152 176.48c-3.12-2.452-5.143-5.17-6.07-8.15-.94-3.085-1.55-6.943-1.835-11.576-.207-3.54-.588-6.327-1.14-8.357a9.64 9.64 0 0 0-3.448-5.244c-2.426-1.908-5.165-2.466-8.217-1.674s-5.877 2.84-8.476 6.145c-4.924 6.264-6.415 12.74-4.475 19.425l-12.092 4.148C8.95 166.023 8.88 160.76 10.2 155.41c1.252-5.397 3.975-10.763 8.17-16.1 5.106-6.495 10.58-10.545 16.418-12.147 5.827-1.707 11.196-.63 16.106 3.23 2.368 1.862 4.13 3.902 5.28 6.122 1.198 2.162 2 4.293 2.404 6.394.347 2.055.622 4.618.827 7.687.232 3.748.665 6.763 1.3 9.046.68 2.224 2.062 4.154 4.14 5.79l-8.685 11.048zm25.086 10.71c-1.596 2.03-3.553 3.213-5.873 3.548-2.332.23-4.45-.402-6.357-1.9s-2.993-3.385-3.26-5.66c-.222-2.333.464-4.514 2.06-6.544 1.55-1.972 3.462-3.097 5.736-3.373 2.32-.335 4.432.246 6.34 1.745s3 3.437 3.28 5.815c.268 2.275-.373 4.398-1.923 6.37z" fill="#fff"/></g><g style="mix-blend-mode:overlay" opacity=".5"><path d="M133.364 147.043c-1.523-9.224-.72-17.164 2.41-23.822 3.272-6.857 8.346-14.538 15.222-23.043 5.27-6.485 9.04-11.933 11.307-16.343 2.4-4.61 3.192-9.476 2.346-14.6-1.184-7.174-5.058-12.5-11.622-15.98s-14.734-4.41-24.51-2.797C109.995 53.517 97.104 62.4 89.844 77.11L62.226 65.09c5.7-11.295 13.96-20.553 24.747-27.774 10.76-7.39 24.027-12.39 39.805-14.994 19.207-3.17 35.16-1.506 47.862 4.995 12.843 6.302 20.464 16.712 22.86 31.23 1.156 7.003.97 13.35-.556 19.042-1.355 5.663-3.352 10.643-6 14.94-2.666 4.125-6.262 9.017-10.79 14.678-5.558 6.883-9.6 12.815-12.125 17.794-2.353 4.95-3.023 10.5-2.007 16.65l-32.67 5.394zm26.573 58.518c-6.002.99-11.285-.067-15.85-3.174-4.422-3.305-7.098-7.777-8.028-13.413s.18-10.646 3.332-15.027c3.324-4.41 7.987-7.11 14-8.1 5.83-.962 10.943.124 15.336 3.26 4.565 3.106 7.312 7.478 8.243 13.115s-.252 10.745-3.548 15.325c-3.152 4.38-7.644 7.052-13.475 8.015z" fill="#fff"/></g><g style="mix-blend-mode:overlay" opacity=".6"><path d="M15.953 62.83c-1.43-3.944-1.73-7.514-.896-10.708.88-3.294 2.487-7.1 4.82-11.418 1.793-3.295 3.007-6.008 3.645-8.14a10.2 10.2 0 0 0-.165-6.634c-1.112-3.068-3.26-5.1-6.442-6.094s-6.863-.735-11.043.78c-7.92 2.872-12.877 7.85-14.87 14.938l-13.173-3.033c1.59-5.453 4.47-10.216 8.635-14.288 4.14-4.145 9.582-7.44 16.33-9.888 8.213-2.978 15.39-3.555 21.527-1.73 6.185 1.724 10.403 5.69 12.654 11.9 1.086 2.995 1.526 5.8 1.32 8.447-.132 2.6-.604 4.97-1.414 7.083-.837 2.04-2.022 4.493-3.553 7.363-1.886 3.494-3.182 6.443-3.886 8.847-.63 2.378-.47 4.88.483 7.51l-13.97 5.066zm16.535 23.633c-2.567.93-4.985.898-7.254-.097-2.222-1.095-3.77-2.848-4.645-5.258s-.796-4.712.235-6.903c1.104-2.22 2.94-3.793 5.506-4.724 2.493-.904 4.838-.845 7.034.177 2.27.995 3.84 2.698 4.715 5.11s.772 4.76-.305 7.053c-1.03 2.192-2.793 3.74-5.286 4.644z" fill="#fff"/></g><g style="mix-blend-mode:overlay" opacity=".4"><path d="M-20.824 105.95c-2.06-1.335-3.46-2.894-4.2-4.68-.753-1.847-1.348-4.2-1.784-7.028-.328-2.17-.72-3.865-1.175-5.084-.47-1.283-1.276-2.295-2.42-3.036-1.602-1.038-3.322-1.227-5.157-.568s-3.46 2.08-4.875 4.265c-2.68 4.137-3.234 8.21-1.66 12.22l-7.216 3.238c-1.184-3.105-1.523-6.344-1.02-9.715.467-3.396 1.84-6.856 4.125-10.38 2.78-4.3 5.923-7.094 9.43-8.41 3.494-1.38 6.863-1.02 10.106 1.08 1.564 1.013 2.764 2.17 3.6 3.474.86 1.264 1.474 2.532 1.842 3.804.33 1.247.644 2.8.943 4.7.354 2.296.792 4.13 1.312 5.5.545 1.332 1.505 2.443 2.878 3.333l-4.727 7.297zm16.06 5.184c-.87 1.34-2.008 2.18-3.418 2.517-1.423.274-2.765.003-4.024-.812s-2.035-1.917-2.33-3.303c-.27-1.425.03-2.808.9-4.15.844-1.302 1.958-2.103 3.344-2.402 1.4-.337 2.745-.098 4.004.718s2.042 1.948 2.35 3.398c.293 1.386.018 2.73-.826 4.033z" fill="#fff"/></g><g style="mix-blend-mode:overlay" opacity=".6"><path d="M97.633-11.052c-1.41-1.186-2.306-2.477-2.69-3.874-.388-1.445-.613-3.245-.673-5.4-.042-1.646-.175-2.944-.4-3.894-.23-1-.736-1.827-1.52-2.486-1.096-.922-2.358-1.223-3.786-.903s-2.77 1.227-4.027 2.72c-2.38 2.83-3.172 5.81-2.375 8.943l-5.674 1.738c-.592-2.422-.543-4.865.147-7.327.664-2.484 2-4.932 4.038-7.343 2.47-2.935 5.07-4.73 7.804-5.382 2.73-.702 5.204-.12 7.422 1.747 1.07.9 1.855 1.874 2.356 2.922.523 1.02.86 2.022 1.017 3.003.13.96.218 2.152.265 3.58.05 1.742.204 3.148.464 4.216.282 1.043.893 1.96 1.832 2.75l-4.2 4.992zm11.473 5.356c-.772.917-1.698 1.435-2.78 1.555-1.085.07-2.06-.255-2.92-.98s-1.336-1.617-1.426-2.676c-.067-1.086.285-2.087 1.057-3.004.75-.89 1.654-1.383 2.713-1.476 1.08-.12 2.052.183 2.913.907s1.34 1.64 1.432 2.748c.09 1.06-.24 2.035-1 2.926z" fill="#fff"/></g></g></g><defs><clipPath id="A"><path fill="#fff" d="M0 0h570v197H0z"/></clipPath></defs></svg>