<svg width="98" height="98" viewBox="0 0 98 98" fill="none" xmlns="http://www.w3.org/2000/svg">
<path d="M93.4062 42.875H59.7187V38.6487L62.184 39.69C62.3738 39.7673 62.5763 39.8088 62.7812 39.8125C63.186 39.8081 63.5729 39.6454 63.8591 39.3592C64.1453 39.0729 64.3081 38.686 64.3125 38.2812V32.1562C64.3136 31.8554 64.2255 31.5609 64.0592 31.3101C63.8929 31.0594 63.656 30.8636 63.3784 30.7475L53.5937 26.6284V16.8438C53.5937 16.4376 53.4324 16.0482 53.1452 15.761C52.858 15.4738 52.4686 15.3125 52.0625 15.3125H44.4062C44.0001 15.3125 43.6106 15.4738 43.3234 15.761C43.0363 16.0482 42.875 16.4376 42.875 16.8438V22.1112L34.2846 18.4975C34.0966 18.4142 33.8931 18.3712 33.6875 18.3712C33.4818 18.3712 33.2783 18.4142 33.0903 18.4975L3.99651 30.7475C3.71891 30.8636 3.48197 31.0594 3.3157 31.3101C3.14942 31.5609 3.06129 31.8554 3.06245 32.1562V38.2812C3.06376 38.5335 3.12734 38.7814 3.24755 39.0032C3.36776 39.2249 3.54087 39.4135 3.75151 39.5522C3.96069 39.6939 4.20211 39.7807 4.45361 39.8048C4.70511 39.8289 4.95862 39.7894 5.19089 39.69L7.6562 38.6487V67.375H6.12495C5.71884 67.375 5.32936 67.5363 5.04219 67.8235C4.75503 68.1107 4.5937 68.5001 4.5937 68.9062V75.0312C4.5937 75.4374 4.75503 75.8268 5.04219 76.114C5.32936 76.4012 5.71884 76.5625 6.12495 76.5625H22.9687V93.4062C22.9687 93.8124 23.13 94.2018 23.4172 94.489C23.7044 94.7762 24.0938 94.9375 24.5 94.9375H82.6875C83.0936 94.9375 83.483 94.7762 83.7702 94.489C84.0574 94.2018 84.2187 93.8124 84.2187 93.4062V76.5625H93.4062C93.8123 76.5625 94.2018 76.4012 94.489 76.114C94.7761 75.8268 94.9375 75.4374 94.9375 75.0312V44.4062C94.9375 44.0001 94.7761 43.6107 94.489 43.3235C94.2018 43.0363 93.8123 42.875 93.4062 42.875ZM45.9375 18.375H50.5312V25.3422L45.9375 23.3975V18.375ZM6.12495 35.9691V33.1669L33.6875 21.56L61.25 33.1669V35.9691L34.2846 24.6225C34.0959 24.5417 33.8927 24.5 33.6875 24.5C33.4822 24.5 33.279 24.5417 33.0903 24.6225L6.12495 35.9691ZM38.2812 42.875C37.8751 42.875 37.4856 43.0363 37.1984 43.3235C36.9113 43.6107 36.75 44.0001 36.75 44.4062V49.5359C35.7682 49.18 34.7317 48.9986 33.6875 49C31.2508 49 28.9139 49.968 27.1909 51.691C25.4679 53.4139 24.5 55.7508 24.5 58.1875V67.375H10.7187V37.3625L33.6875 27.685L56.6562 37.3625V42.875H38.2812ZM44.1918 45.9375C43.9144 46.9896 43.3629 47.9492 42.5935 48.7186C41.8242 49.4879 40.8645 50.0395 39.8125 50.3169V45.9375H44.1918ZM36.75 52.8894V67.375H27.5625V58.1875C27.5625 56.563 28.2078 55.0051 29.3564 53.8565C30.5051 52.7078 32.063 52.0625 33.6875 52.0625C34.7637 52.0603 35.821 52.3458 36.75 52.8894ZM7.6562 73.5V70.4375H36.75V73.5H7.6562ZM41.3437 91.875H26.0312V90.3438H41.3437V91.875ZM41.3437 87.2812H26.0312V85.75H41.3437V87.2812ZM41.3437 82.6875H26.0312V81.1562H41.3437V82.6875ZM41.3437 78.0938H26.0312V76.5625H41.3437V78.0938ZM39.8125 73.5V69.1206C40.8645 69.398 41.8242 69.9496 42.5935 70.7189C43.3629 71.4883 43.9144 72.4479 44.1918 73.5H39.8125ZM62.7812 91.875H44.4062V76.5625H62.7812V91.875ZM81.1562 91.875H65.8437V90.3438H81.1562V91.875ZM81.1562 87.2812H65.8437V85.75H81.1562V87.2812ZM81.1562 82.6875H65.8437V81.1562H81.1562V82.6875ZM81.1562 78.0938H65.8437V76.5625H81.1562V78.0938ZM91.875 73.5H87.4956C87.773 72.4479 88.3245 71.4883 89.0939 70.7189C89.8632 69.9496 90.8229 69.398 91.875 69.1206V73.5ZM91.875 65.9816C89.9962 66.299 88.2629 67.1934 86.9157 68.5407C85.5684 69.888 84.6739 71.6213 84.3565 73.5H47.3309C47.0135 71.6213 46.119 69.888 44.7717 68.5407C43.4245 67.1934 41.6912 66.299 39.8125 65.9816V53.4559C41.6912 53.1385 43.4245 52.2441 44.7717 50.8968C46.119 49.5495 47.0135 47.8162 47.3309 45.9375H84.3565C84.6739 47.8162 85.5684 49.5495 86.9157 50.8968C88.2629 52.2441 89.9962 53.1385 91.875 53.4559V65.9816ZM91.875 50.3169C90.8229 50.0395 89.8632 49.4879 89.0939 48.7186C88.3245 47.9492 87.773 46.9896 87.4956 45.9375H91.875V50.3169Z" fill="url(#paint0_linear)"/>
<path d="M47.4688 58.1875H52.0625V61.25H47.4688V58.1875Z" fill="url(#paint1_linear)"/>
<path d="M79.625 58.1875H84.2188V61.25H79.625V58.1875Z" fill="url(#paint2_linear)"/>
<path d="M65.0781 56.6562H66.6094C66.8124 56.6562 67.0072 56.7369 67.1508 56.8805C67.2943 57.0241 67.375 57.2188 67.375 57.4219H70.4375C70.4373 56.5396 70.1324 55.6845 69.5744 55.0012C69.0163 54.3179 68.2394 53.8483 67.375 53.6718V52.0625H64.3125V53.6718C63.3838 53.8624 62.5588 54.3907 61.9973 55.1546C61.4358 55.9184 61.1777 56.8634 61.273 57.8067C61.3683 58.7499 61.8102 59.6242 62.5132 60.2603C63.2161 60.8964 64.1301 61.2491 65.0781 61.25H66.6094C66.8124 61.25 67.0072 61.3307 67.1508 61.4742C67.2943 61.6178 67.375 61.8126 67.375 62.0156C67.375 62.2187 67.2943 62.4134 67.1508 62.557C67.0072 62.7006 66.8124 62.7812 66.6094 62.7812H65.0781C64.8751 62.7812 64.6803 62.7006 64.5367 62.557C64.3932 62.4134 64.3125 62.2187 64.3125 62.0156H61.25C61.2502 62.8979 61.5551 63.753 62.1131 64.4363C62.6712 65.1196 63.4481 65.5892 64.3125 65.7657V67.375H67.375V65.7657C68.3037 65.5751 69.1287 65.0468 69.6902 64.2829C70.2517 63.5191 70.5098 62.5741 70.4145 61.6308C70.3192 60.6876 69.8773 59.8133 69.1743 59.1772C68.4714 58.5411 67.5574 58.1884 66.6094 58.1875H65.0781C64.8751 58.1875 64.6803 58.1068 64.5367 57.9633C64.3932 57.8197 64.3125 57.6249 64.3125 57.4219C64.3125 57.2188 64.3932 57.0241 64.5367 56.8805C64.6803 56.7369 64.8751 56.6562 65.0781 56.6562Z" fill="url(#paint3_linear)"/>
<path d="M65.8437 47.4688C63.4209 47.4688 61.0525 48.1872 59.038 49.5332C57.0235 50.8793 55.4534 52.7925 54.5262 55.0309C53.599 57.2693 53.3564 59.7323 53.8291 62.1086C54.3018 64.4849 55.4685 66.6676 57.1817 68.3808C58.8949 70.094 61.0776 71.2607 63.4539 71.7334C65.8301 72.206 68.2932 71.9635 70.5316 71.0363C72.77 70.1091 74.6832 68.539 76.0292 66.5245C77.3753 64.51 78.0937 62.1416 78.0937 59.7188C78.0901 56.471 76.7983 53.3572 74.5018 51.0607C72.2052 48.7642 69.0915 47.4724 65.8437 47.4688V47.4688ZM65.8437 68.9063C64.0266 68.9063 62.2503 68.3674 60.7394 67.3579C59.2286 66.3483 58.051 64.9135 57.3556 63.2347C56.6602 61.5559 56.4783 59.7086 56.8328 57.9264C57.1873 56.1442 58.0623 54.5071 59.3472 53.2222C60.6321 51.9373 62.2691 51.0623 64.0513 50.7078C65.8335 50.3533 67.6808 50.5352 69.3596 51.2306C71.0384 51.926 72.4733 53.1036 73.4829 54.6145C74.4924 56.1253 75.0312 57.9016 75.0312 59.7188C75.0288 62.1547 74.06 64.4901 72.3376 66.2126C70.6151 67.9351 68.2797 68.9038 65.8437 68.9063Z" fill="url(#paint4_linear)"/>
<path d="M24.5 49C24.9061 49 25.2956 48.8387 25.5828 48.5515C25.8699 48.2643 26.0312 47.8749 26.0312 47.4688V39.8125C26.0312 39.4064 25.8699 39.0169 25.5828 38.7297C25.2956 38.4426 24.9061 38.2812 24.5 38.2812H15.3125C14.9064 38.2812 14.5169 38.4426 14.2297 38.7297C13.9426 39.0169 13.7812 39.4064 13.7812 39.8125V47.4688C13.7812 47.8749 13.9426 48.2643 14.2297 48.5515C14.5169 48.8387 14.9064 49 15.3125 49H24.5ZM16.8438 41.3438H22.9688V45.9375H16.8438V41.3438Z" fill="url(#paint5_linear)"/>
<path d="M29.0938 59.7188H32.1562V62.7812H29.0938V59.7188Z" fill="url(#paint6_linear)"/>
<path d="M67.375 24.4999C68.7973 24.5039 70.1753 24.0055 71.2659 23.0927C72.9852 24.0504 74.9321 24.5234 76.8991 24.4614C78.8661 24.3994 80.7794 23.8046 82.4349 22.7405C83.7951 23.8753 85.5098 24.4978 87.2813 24.4999C88.3339 24.5083 89.3769 24.2996 90.3452 23.8868C91.3135 23.474 92.1863 22.8659 92.909 22.1006C93.6317 21.3353 94.1888 20.4292 94.5456 19.4389C94.9024 18.4485 95.0511 17.3953 94.9825 16.3449C94.9139 15.2945 94.6294 14.2696 94.1469 13.3341C93.6643 12.3986 92.9941 11.5726 92.1779 10.9078C91.3618 10.243 90.4174 9.75365 89.4036 9.47029C88.3898 9.18692 87.3285 9.11564 86.286 9.26091C85.3072 7.15144 83.669 5.4175 81.6185 4.32066C79.5679 3.22383 77.2163 2.82361 74.9184 3.18038C72.6204 3.53715 70.5008 4.63156 68.8794 6.2985C67.258 7.96544 66.2226 10.1145 65.9295 12.4214C64.472 12.7738 63.1944 13.6485 62.3388 14.8799C61.4832 16.1114 61.109 17.6139 61.2872 19.1027C61.4654 20.5916 62.1835 21.9634 63.3055 22.9581C64.4276 23.9529 65.8755 24.5014 67.375 24.4999V24.4999ZM67.375 15.3124C67.7811 15.3124 68.1706 15.1511 68.4578 14.8639C68.745 14.5768 68.9063 14.1873 68.9063 13.7812C68.905 11.9483 69.5614 10.1757 70.756 8.78567C71.9507 7.3956 73.6044 6.48023 75.4166 6.2059C77.2289 5.93157 79.0794 6.31648 80.6319 7.29069C82.1845 8.2649 83.336 9.76376 83.8773 11.5149C83.9377 11.7101 84.0366 11.8913 84.1681 12.0477C84.2996 12.2042 84.461 12.3327 84.643 12.4257C84.8249 12.5188 85.0237 12.5744 85.2275 12.5895C85.4313 12.6045 85.636 12.5786 85.8297 12.5133C86.2958 12.3466 86.7862 12.2576 87.2813 12.2499C88.0574 12.2443 88.8224 12.4355 89.5047 12.8056C90.1869 13.1757 90.7643 13.7126 91.1829 14.3663C91.6014 15.0199 91.8476 15.769 91.8983 16.5435C91.9489 17.3181 91.8026 18.0928 91.4727 18.7955C91.1429 19.4981 90.6405 20.1057 90.0122 20.5616C89.384 21.0174 88.6505 21.3067 87.8803 21.4023C87.11 21.4979 86.328 21.3968 85.6074 21.1084C84.8868 20.82 84.251 20.3537 83.7594 19.753C83.6296 19.5953 83.4695 19.4651 83.2885 19.3701C83.1076 19.2752 82.9095 19.2174 82.7059 19.2003H82.5788C82.2104 19.2001 81.8543 19.3327 81.5758 19.5739C80.242 20.6964 78.5696 21.338 76.8272 21.3955C75.0848 21.453 73.3737 20.9231 71.9688 19.8908C71.6439 19.6472 71.2355 19.5426 70.8335 19.6C70.4314 19.6574 70.0687 19.8722 69.825 20.1971C69.5432 20.5821 69.1743 20.8952 68.7486 21.1107C68.3228 21.3262 67.8522 21.4382 67.375 21.4374C66.5628 21.4374 65.7838 21.1148 65.2095 20.5404C64.6352 19.9661 64.3125 19.1871 64.3125 18.3749C64.3125 17.5627 64.6352 16.7837 65.2095 16.2094C65.7838 15.6351 66.5628 15.3124 67.375 15.3124V15.3124Z" fill="url(#paint7_linear)"/>
<defs>
<linearGradient id="paint0_linear" x1="48.9999" y1="15.3125" x2="48.9999" y2="94.9375" gradientUnits="userSpaceOnUse">
<stop stop-color="#F2C94C"/>
<stop offset="1" stop-color="#F29C4C"/>
</linearGradient>
<linearGradient id="paint1_linear" x1="49.7656" y1="58.1875" x2="49.7656" y2="61.25" gradientUnits="userSpaceOnUse">
<stop stop-color="#F2C94C"/>
<stop offset="1" stop-color="#F29C4C"/>
</linearGradient>
<linearGradient id="paint2_linear" x1="81.9219" y1="58.1875" x2="81.9219" y2="61.25" gradientUnits="userSpaceOnUse">
<stop stop-color="#F2C94C"/>
<stop offset="1" stop-color="#F29C4C"/>
</linearGradient>
<linearGradient id="paint3_linear" x1="65.8438" y1="52.0625" x2="65.8438" y2="67.375" gradientUnits="userSpaceOnUse">
<stop stop-color="#F2C94C"/>
<stop offset="1" stop-color="#F29C4C"/>
</linearGradient>
<linearGradient id="paint4_linear" x1="65.8437" y1="47.4688" x2="65.8437" y2="71.9688" gradientUnits="userSpaceOnUse">
<stop stop-color="#F2C94C"/>
<stop offset="1" stop-color="#F29C4C"/>
</linearGradient>
<linearGradient id="paint5_linear" x1="19.9062" y1="38.2812" x2="19.9062" y2="49" gradientUnits="userSpaceOnUse">
<stop stop-color="#F2C94C"/>
<stop offset="1" stop-color="#F29C4C"/>
</linearGradient>
<linearGradient id="paint6_linear" x1="30.625" y1="59.7188" x2="30.625" y2="62.7812" gradientUnits="userSpaceOnUse">
<stop stop-color="#F2C94C"/>
<stop offset="1" stop-color="#F29C4C"/>
</linearGradient>
<linearGradient id="paint7_linear" x1="78.1213" y1="3.05347" x2="78.1213" y2="24.5002" gradientUnits="userSpaceOnUse">
<stop stop-color="#F2C94C"/>
<stop offset="1" stop-color="#F29C4C"/>
</linearGradient>
</defs>
</svg>
