<svg width="98" height="98" viewBox="0 0 98 98" fill="none" xmlns="http://www.w3.org/2000/svg">
<path d="M89.4097 49.1225L79.625 45.0034V35.2188C79.625 34.8126 79.4637 34.4232 79.1765 34.136C78.8893 33.8488 78.4999 33.6875 78.0938 33.6875H75.0313V18.375C75.0282 17.969 74.8692 17.5798 74.5872 17.2878L60.8059 3.50656C60.514 3.22451 60.1247 3.06552 59.7188 3.0625H9.1875C8.78139 3.0625 8.39191 3.22383 8.10474 3.51099C7.81758 3.79816 7.65625 4.18764 7.65625 4.59375V87.2812C7.65625 87.6874 7.81758 88.0768 8.10474 88.364C8.39191 88.6512 8.78139 88.8125 9.1875 88.8125H30.625V93.4062C30.625 93.8124 30.7863 94.2018 31.0735 94.489C31.3607 94.7762 31.7501 94.9375 32.1563 94.9375H87.2813C87.6874 94.9375 88.0768 94.7762 88.364 94.489C88.6512 94.2018 88.8125 93.8124 88.8125 93.4062V87.2812C88.8125 86.8751 88.6512 86.4857 88.364 86.1985C88.0768 85.9113 87.6874 85.75 87.2813 85.75H85.75V57.0238L88.2153 58.065C88.4051 58.1422 88.6076 58.1838 88.8125 58.1875C89.2173 58.1831 89.6042 58.0204 89.8904 57.7342C90.1766 57.4479 90.3394 57.061 90.3438 56.6562V50.5312C90.3449 50.2304 90.2568 49.9359 90.0905 49.6851C89.9242 49.4344 89.6873 49.2386 89.4097 49.1225V49.1225ZM76.5625 36.75V43.7172L71.9688 41.7725V36.75H76.5625ZM61.25 8.28406L69.8097 16.8438H61.25V8.28406ZM10.7188 85.75V6.125H58.1875V18.375C58.1875 18.7811 58.3488 19.1706 58.636 19.4578C58.9232 19.7449 59.3126 19.9062 59.7188 19.9062H71.9688V33.6875H70.4375C70.0314 33.6875 69.6419 33.8488 69.3547 34.136C69.0676 34.4232 68.9063 34.8126 68.9063 35.2188V40.4863L60.3159 36.8725C60.1279 36.7892 59.9244 36.7462 59.7188 36.7462C59.5131 36.7462 59.3096 36.7892 59.1216 36.8725L30.0278 49.1225C29.7502 49.2386 29.5133 49.4344 29.347 49.6851C29.1807 49.9359 29.0926 50.2304 29.0938 50.5312V56.6562C29.0951 56.9085 29.1586 57.1564 29.2788 57.3782C29.3991 57.5999 29.5722 57.7885 29.7828 57.9272C29.992 58.0689 30.2334 58.1557 30.4849 58.1798C30.7364 58.2039 30.9899 58.1644 31.2222 58.065L33.6875 57.0238V85.75H10.7188ZM85.75 91.875H33.6875V88.8125H85.75V91.875ZM59.7188 67.375C57.2821 67.375 54.9452 68.343 53.2222 70.066C51.4992 71.7889 50.5313 74.1258 50.5313 76.5625V85.75H36.75V55.7375L59.7188 46.06L82.6875 55.7375V85.75H68.9063V76.5625C68.9063 74.1258 67.9383 71.7889 66.2153 70.066C64.4923 68.343 62.1554 67.375 59.7188 67.375ZM65.8438 76.5625V85.75H53.5938V76.5625C53.5938 74.938 54.2391 73.3801 55.3877 72.2315C56.5364 71.0828 58.0943 70.4375 59.7188 70.4375C61.3432 70.4375 62.9011 71.0828 64.0498 72.2315C65.1984 73.3801 65.8438 74.938 65.8438 76.5625V76.5625ZM87.2813 54.3441L60.3159 42.9975C60.1272 42.9167 59.9241 42.875 59.7188 42.875C59.5135 42.875 59.3103 42.9167 59.1216 42.9975L32.1563 54.3441V51.5419L59.7188 39.935L87.2813 51.5419V54.3441Z" fill="url(#paint0_linear)"/>
<path d="M50.5312 56.6562H41.3438C40.9376 56.6562 40.5482 56.8176 40.261 57.1047C39.9738 57.3919 39.8125 57.7814 39.8125 58.1875V65.8438C39.8125 66.2499 39.9738 66.6393 40.261 66.9265C40.5482 67.2137 40.9376 67.375 41.3438 67.375H50.5312C50.9374 67.375 51.3268 67.2137 51.614 66.9265C51.9012 66.6393 52.0625 66.2499 52.0625 65.8438V58.1875C52.0625 57.7814 51.9012 57.3919 51.614 57.1047C51.3268 56.8176 50.9374 56.6562 50.5312 56.6562ZM49 64.3125H42.875V59.7188H49V64.3125Z" fill="url(#paint1_linear)"/>
<path d="M68.9062 67.375H78.0938C78.4999 67.375 78.8893 67.2137 79.1765 66.9265C79.4637 66.6393 79.625 66.2499 79.625 65.8438V58.1875C79.625 57.7814 79.4637 57.3919 79.1765 57.1047C78.8893 56.8176 78.4999 56.6562 78.0938 56.6562H68.9062C68.5001 56.6562 68.1107 56.8176 67.8235 57.1047C67.5363 57.3919 67.375 57.7814 67.375 58.1875V65.8438C67.375 66.2499 67.5363 66.6393 67.8235 66.9265C68.1107 67.2137 68.5001 67.375 68.9062 67.375ZM70.4375 59.7188H76.5625V64.3125H70.4375V59.7188Z" fill="url(#paint2_linear)"/>
<path d="M55.125 78.0938H58.1875V81.1562H55.125V78.0938Z" fill="url(#paint3_linear)"/>
<path d="M28.3281 24.5H26.7969C26.5938 24.5 26.3991 24.4193 26.2555 24.2758C26.1119 24.1322 26.0312 23.9374 26.0312 23.7344H22.9688C22.9689 24.6166 23.2738 25.4717 23.8319 26.155C24.3899 26.8384 25.1668 27.308 26.0312 27.4844V29.0938H29.0938V27.4844C30.0224 27.2939 30.8474 26.7656 31.4089 26.0017C31.9704 25.2378 32.2285 24.2928 32.1332 23.3496C32.0379 22.4063 31.596 21.532 30.8931 20.8959C30.1901 20.2598 29.2762 19.9072 28.3281 19.9062H26.7969C26.5938 19.9062 26.3991 19.8256 26.2555 19.682C26.1119 19.5384 26.0312 19.3437 26.0312 19.1406C26.0312 18.9376 26.1119 18.7428 26.2555 18.5992C26.3991 18.4557 26.5938 18.375 26.7969 18.375H28.3281C28.5312 18.375 28.7259 18.4557 28.8695 18.5992C29.0131 18.7428 29.0938 18.9376 29.0938 19.1406H32.1562C32.1561 18.2584 31.8512 17.4033 31.2931 16.72C30.7351 16.0366 29.9582 15.567 29.0938 15.3906V13.7812H26.0312V15.3906C25.1026 15.5811 24.2776 16.1094 23.7161 16.8733C23.1546 17.6372 22.8965 18.5822 22.9918 19.5254C23.0871 20.4687 23.529 21.343 24.2319 21.9791C24.9349 22.6152 25.8488 22.9678 26.7969 22.9688H28.3281C28.5312 22.9688 28.7259 23.0494 28.8695 23.193C29.0131 23.3366 29.0938 23.5313 29.0938 23.7344C29.0938 23.9374 29.0131 24.1322 28.8695 24.2758C28.7259 24.4193 28.5312 24.5 28.3281 24.5V24.5Z" fill="url(#paint4_linear)"/>
<path d="M27.5625 33.6875C29.9853 33.6875 32.3537 32.9691 34.3682 31.623C36.3827 30.277 37.9529 28.3638 38.88 26.1254C39.8072 23.887 40.0498 21.4239 39.5771 19.0476C39.1045 16.6714 37.9378 14.4886 36.2246 12.7754C34.5114 11.0623 32.3286 9.89555 29.9524 9.42289C27.5761 8.95022 25.113 9.19281 22.8746 10.12C20.6362 11.0472 18.723 12.6173 17.377 14.6318C16.0309 16.6463 15.3125 19.0147 15.3125 21.4375C15.3161 24.6853 16.6079 27.799 18.9045 30.0955C21.201 32.3921 24.3147 33.6839 27.5625 33.6875V33.6875ZM27.5625 12.25C29.3796 12.25 31.1559 12.7888 32.6668 13.7984C34.1777 14.8079 35.3553 16.2428 36.0506 17.9216C36.746 19.6004 36.928 21.4477 36.5735 23.2299C36.219 25.0121 35.3439 26.6492 34.059 27.9341C32.7742 29.2189 31.1371 30.094 29.3549 30.4485C27.5727 30.803 25.7254 30.621 24.0466 29.9257C22.3678 29.2303 20.9329 28.0527 19.9234 26.5418C18.9138 25.0309 18.375 23.2546 18.375 21.4375C18.3774 19.0016 19.3462 16.6661 21.0686 14.9436C22.7911 13.2212 25.1266 12.2524 27.5625 12.25V12.25Z" fill="url(#paint5_linear)"/>
<path d="M15.3125 36.75H21.4375V39.8125H15.3125V36.75Z" fill="url(#paint6_linear)"/>
<path d="M26.0312 36.75H35.2188V39.8125H26.0312V36.75Z" fill="url(#paint7_linear)"/>
<path d="M15.3125 42.875H26.0312V45.9375H15.3125V42.875Z" fill="url(#paint8_linear)"/>
<defs>
<linearGradient id="paint0_linear" x1="49" y1="3.0625" x2="49" y2="94.9375" gradientUnits="userSpaceOnUse">
<stop stop-color="#F2C94C"/>
<stop offset="1" stop-color="#F29C4C"/>
</linearGradient>
<linearGradient id="paint1_linear" x1="45.9375" y1="56.6562" x2="45.9375" y2="67.375" gradientUnits="userSpaceOnUse">
<stop stop-color="#F2C94C"/>
<stop offset="1" stop-color="#F29C4C"/>
</linearGradient>
<linearGradient id="paint2_linear" x1="73.5" y1="56.6562" x2="73.5" y2="67.375" gradientUnits="userSpaceOnUse">
<stop stop-color="#F2C94C"/>
<stop offset="1" stop-color="#F29C4C"/>
</linearGradient>
<linearGradient id="paint3_linear" x1="56.6562" y1="78.0938" x2="56.6562" y2="81.1562" gradientUnits="userSpaceOnUse">
<stop stop-color="#F2C94C"/>
<stop offset="1" stop-color="#F29C4C"/>
</linearGradient>
<linearGradient id="paint4_linear" x1="27.5625" y1="13.7812" x2="27.5625" y2="29.0938" gradientUnits="userSpaceOnUse">
<stop stop-color="#F2C94C"/>
<stop offset="1" stop-color="#F29C4C"/>
</linearGradient>
<linearGradient id="paint5_linear" x1="27.5625" y1="9.1875" x2="27.5625" y2="33.6875" gradientUnits="userSpaceOnUse">
<stop stop-color="#F2C94C"/>
<stop offset="1" stop-color="#F29C4C"/>
</linearGradient>
<linearGradient id="paint6_linear" x1="18.375" y1="36.75" x2="18.375" y2="39.8125" gradientUnits="userSpaceOnUse">
<stop stop-color="#F2C94C"/>
<stop offset="1" stop-color="#F29C4C"/>
</linearGradient>
<linearGradient id="paint7_linear" x1="30.625" y1="36.75" x2="30.625" y2="39.8125" gradientUnits="userSpaceOnUse">
<stop stop-color="#F2C94C"/>
<stop offset="1" stop-color="#F29C4C"/>
</linearGradient>
<linearGradient id="paint8_linear" x1="20.6719" y1="42.875" x2="20.6719" y2="45.9375" gradientUnits="userSpaceOnUse">
<stop stop-color="#F2C94C"/>
<stop offset="1" stop-color="#F29C4C"/>
</linearGradient>
</defs>
</svg>
