<svg width="570" height="197" viewBox="0 0 570 197" fill="none" xmlns="http://www.w3.org/2000/svg">
<g clip-path="url(#clip0)">
<rect x="5" y="5" width="560" height="187" fill="#FFC856" stroke="#007550" stroke-width="10"/>
<rect width="570" height="197" fill="#FFC856"/>
<g style="mix-blend-mode:screen" opacity="0.41">
<path d="M33 197L3.05772e-05 145L0 197H33Z" fill="white"/>
</g>
<g style="mix-blend-mode:overlay" opacity="0.1">
<path d="M385.451 55.6209L378.36 80.1316L360.678 61.7356L385.451 55.6209Z" fill="white"/>
</g>
<g style="mix-blend-mode:screen" opacity="0.4">
<rect x="47" y="-22.5662" width="96.8993" height="96.8993" transform="rotate(-24.0138 47 -22.5662)" fill="#FFC856"/>
</g>
<g style="mix-blend-mode:screen" opacity="0.3">
<g style="mix-blend-mode:overlay" opacity="0.57">
<g style="mix-blend-mode:overlay" opacity="0.57">
<path d="M354.486 248.43C311.322 248.44 281.317 232.866 268.059 207.876L292.815 207.871C306.652 224.145 330.613 233.906 362.825 233.899C404.321 233.89 450.723 217.685 490.045 192.218L511.22 192.213C464.354 226.179 406.053 248.419 354.486 248.43Z" fill="white"/>
</g>
<g style="mix-blend-mode:overlay" opacity="0.57">
<path d="M503.039 56.5665C500.861 56.5668 499.969 55.0407 501.051 53.1563C501.696 52.1637 502.567 51.3377 503.593 50.7456C504.618 50.1535 505.769 49.8122 506.952 49.7493C509.135 49.7486 510.028 51.2746 508.949 53.1545C508.303 54.1488 507.431 54.9762 506.403 55.5692C505.376 56.1622 504.224 56.5039 503.039 56.5665Z" fill="white"/>
</g>
<g style="mix-blend-mode:overlay" opacity="0.57">
<path d="M400.096 168.95C371.887 168.957 357.994 152.009 364.938 129.267L371.753 129.265C366.487 148.829 378.831 163.253 403.369 163.248C432.565 163.241 467.96 142.809 482.422 117.609C493.661 98.0245 488.945 81.331 472.585 74.8626L476.055 68.8157C495.992 75.526 502.1 94.8304 489.029 117.607C472.76 145.957 432.947 168.943 400.096 168.95Z" fill="white"/>
</g>
<g style="mix-blend-mode:overlay" opacity="0.57">
<path d="M370.031 190.533C340.067 184.532 326.76 161.858 336.275 133.04L338.83 133.039C329.919 160.665 342.671 182.4 371.294 188.333L370.031 190.533Z" fill="white"/>
</g>
<g style="mix-blend-mode:overlay" opacity="0.57">
<path d="M408.437 154.414C384.893 154.419 375.26 137.95 386.922 117.629C398.586 97.3036 427.126 80.8256 450.67 80.8204C474.219 80.8151 483.852 97.2848 472.188 117.61C460.526 137.931 431.986 154.409 408.437 154.414ZM448.324 84.91C427.396 84.9144 402.029 99.5602 391.66 117.628C381.294 135.691 389.856 150.329 410.784 150.325C431.717 150.32 457.084 135.674 467.45 117.612C477.819 99.5436 469.257 84.9054 448.324 84.91Z" fill="white"/>
</g>
<g style="mix-blend-mode:overlay" opacity="0.57">
<path d="M466.605 47.2441C464.422 47.2443 463.53 45.7185 464.611 43.8337C465.257 42.8404 466.129 42.014 467.156 41.4219C468.183 40.8298 469.335 40.4888 470.518 40.4267C472.702 40.4261 473.594 41.952 472.515 43.8321C471.869 44.8264 470.997 45.6539 469.97 46.2469C468.942 46.8399 467.79 47.1816 466.605 47.2441Z" fill="white"/>
</g>
<g style="mix-blend-mode:overlay" opacity="0.57">
<path d="M374.454 213.633C313.018 213.646 287.882 170.67 318.312 117.645C348.745 64.6141 423.218 21.6165 484.654 21.6032C546.096 21.5897 571.231 64.5653 540.799 117.596C510.369 170.622 435.896 213.619 374.454 213.633ZM478.531 32.2726C423.922 32.2844 357.725 70.5033 330.674 117.642C303.625 164.776 325.964 202.98 380.574 202.968C435.189 202.956 501.388 164.733 528.437 117.599C555.489 70.4597 533.146 32.2608 478.531 32.2726Z" fill="white"/>
</g>
<g style="mix-blend-mode:overlay" opacity="0.57">
<path d="M487.203 49.7537C485.019 49.7544 484.127 48.2285 485.208 46.3436C485.854 45.3493 486.727 44.5219 487.754 43.9289C488.781 43.3359 489.933 42.9942 491.118 42.9316C493.296 42.9312 494.194 44.4569 493.112 46.342C492.466 47.3359 491.593 48.163 490.566 48.7559C489.539 49.3488 488.387 49.6908 487.203 49.7537Z" fill="white"/>
</g>
<g style="mix-blend-mode:overlay" opacity="0.57">
<path d="M260.482 171.813C260.711 167.111 261.294 162.432 262.228 157.817L280.057 157.813C279.36 162.444 279.088 167.129 279.243 171.809L260.482 171.813Z" fill="white"/>
</g>
<g style="mix-blend-mode:overlay" opacity="0.57">
<path d="M518.978 170.682C537.594 154.764 553.301 136.714 564.275 117.59C593.254 67.0938 580.617 24.1299 537.728 8.07954L546.529 -7.25555C598.551 9.35974 614.758 58.9647 581.116 117.587C570.27 136.488 555.309 154.45 537.644 170.678L518.978 170.682Z" fill="white"/>
</g>
<g style="mix-blend-mode:overlay" opacity="0.57">
<path d="M392.989 181.335C352.222 181.343 335.541 152.822 355.733 117.637C375.928 82.4459 425.349 53.9151 466.116 53.9062C506.888 53.8973 523.572 82.4136 503.377 117.604C483.185 152.79 433.76 181.325 392.989 181.335ZM465.059 55.7472C425.472 55.7563 377.482 83.463 357.872 117.636C338.263 151.805 354.458 179.502 394.045 179.494C433.638 179.485 481.631 151.773 501.239 117.605C520.85 83.4313 504.652 55.7388 465.059 55.7472Z" fill="white"/>
</g>
<g style="mix-blend-mode:overlay" opacity="0.57">
<path d="M264.813 147.591C266.906 140.754 269.538 134.094 272.684 127.673L289.587 127.669C286.517 134.069 284.038 140.736 282.181 147.587L264.813 147.591Z" fill="white"/>
</g>
</g>
</g>
<g style="mix-blend-mode:screen" opacity="0.5">
<path d="M513.611 181.687C512.804 180.561 513.233 179.718 513.351 177.226C513.46 175.136 514.031 173.018 515.082 171.182C516.132 169.345 516.779 168.258 517.889 167.699L518.733 166.816L520.897 167.4L520.944 167.413C522.39 167.853 523.437 169.398 523.778 172.064C524.131 174.683 523.562 177.356 522.277 179.684C520.479 182.985 518.221 184.243 516.468 183.821L516.373 183.795L514.303 183.237L513.611 181.687Z" fill="white"/>
<path d="M523.865 176.983C524.309 175.336 524.458 173.66 524.24 172.037C523.912 169.324 522.774 167.553 521.093 167.049L521.046 167.036L518.646 166.389L517.717 167.4C516.488 168.028 515.744 169.291 514.766 171.046C513.702 172.929 513.071 175.081 512.983 177.278C512.947 177.975 512.901 178.518 512.822 179.001C512.692 180.228 512.631 181.019 513.24 181.941L513.976 183.704L516.375 184.351C518.505 184.875 520.864 183.24 522.65 179.987C523.178 178.968 523.598 177.971 523.865 176.983ZM518.854 167.303L520.783 167.824C522.182 168.251 523.088 169.758 523.351 172.15C523.649 174.603 523.139 177.242 521.914 179.536C520.336 182.391 518.31 183.914 516.557 183.491L516.463 183.466L514.628 182.971L513.982 181.434C513.51 180.752 513.556 180.209 513.672 179.029C513.705 178.533 513.763 177.943 513.8 177.246C513.897 175.203 514.442 173.18 515.48 171.39C516.531 169.554 517.105 168.548 518.142 168.07L518.262 168.002L518.854 167.303Z" fill="white"/>
<path d="M511.598 179.983C512.57 183.678 515.581 184.49 518.326 181.798C521.024 179.094 522.433 173.871 521.474 170.13C520.502 166.435 517.491 165.623 514.746 168.315C511.988 171.054 510.579 176.276 511.598 179.983Z" fill="#001E20"/>
<path d="M521.688 176.446C522.272 174.282 522.398 171.944 521.854 170.03C521.322 168.07 520.259 166.774 518.847 166.393C517.436 166.012 515.865 166.598 514.42 168.025C511.589 170.845 510.143 176.209 511.171 180.07C511.702 182.03 512.765 183.327 514.177 183.708C515.588 184.088 517.16 183.503 518.605 182.075C519.99 180.682 521.091 178.658 521.688 176.446ZM512.183 173.883C512.729 171.859 513.758 169.916 515.071 168.605C516.299 167.422 517.549 166.901 518.679 167.205C519.808 167.51 520.674 168.602 521.093 170.229C522.044 173.817 520.686 178.851 518.06 181.474C516.832 182.657 515.582 183.178 514.452 182.873C513.323 182.569 512.457 181.477 512.038 179.85C511.503 178.09 511.638 175.906 512.183 173.883Z" fill="white"/>
<path d="M513.384 178.598C512.864 176.035 513.841 172.412 515.579 170.458C517.318 168.504 519.153 168.999 519.673 171.562C520.193 174.125 519.216 177.748 517.477 179.702C515.751 181.609 513.916 181.114 513.384 178.598Z" fill="white"/>
<path d="M519.805 175.939C520.224 174.386 520.348 172.804 520.054 171.463C519.772 170.075 519.103 169.187 518.162 168.934C517.221 168.68 516.196 169.11 515.254 170.168C513.444 172.204 512.416 176.015 512.957 178.685C513.239 180.073 513.908 180.96 514.849 181.214C515.79 181.468 516.815 181.037 517.756 179.979C518.685 178.968 519.386 177.491 519.805 175.939ZM514.018 174.378C514.399 172.966 515.062 171.631 515.871 170.688C516.596 169.874 517.347 169.521 517.959 169.686C518.57 169.851 519.042 170.534 519.259 171.602C519.757 174.058 518.818 177.54 517.165 179.365C516.44 180.179 515.689 180.532 515.078 180.367C514.466 180.202 513.994 179.519 513.777 178.451C513.539 177.277 513.637 175.789 514.018 174.378Z" fill="white"/>
<path d="M514.608 178.928C514.088 176.365 515.066 172.742 516.804 170.788C517.443 170.102 518.053 169.712 518.681 169.629C519.136 170.004 519.514 170.661 519.721 171.575C520.241 174.138 519.264 177.761 517.526 179.715C516.886 180.4 516.276 180.791 515.648 180.874C515.147 180.486 514.769 179.829 514.608 178.928Z" fill="#001E20"/>
<path d="M519.806 175.939C520.224 174.386 520.348 172.804 520.054 171.463C519.859 170.502 519.459 169.738 518.877 169.278L518.748 169.193L518.594 169.202C517.907 169.319 517.13 169.766 516.478 170.498C514.667 172.534 513.639 176.345 514.181 179.015C514.376 179.976 514.775 180.74 515.358 181.2L515.486 181.285L515.64 181.276C516.328 181.158 517.105 180.712 517.757 179.979C518.686 178.968 519.387 177.491 519.806 175.939ZM518.52 170.04C518.833 170.376 519.095 170.901 519.259 171.602C519.758 174.058 518.818 177.54 517.165 179.365C516.671 179.888 516.227 180.223 515.74 180.344C515.427 180.007 515.165 179.482 515.001 178.781C514.502 176.325 515.442 172.843 517.095 171.018C517.577 170.542 518.08 170.173 518.52 170.04Z" fill="white"/>
<path d="M519.273 181.095L519.438 180.483L521.225 180.965L521.06 181.577L519.273 181.095Z" fill="#001E20"/>
<path d="M520.915 169.02L521.08 168.408L522.868 168.891L522.703 169.502L520.915 169.02Z" fill="#001E20"/>
<path d="M513.398 175.371L513.562 174.759L514.739 175.077L514.574 175.688L513.398 175.371Z" fill="#001E20"/>
<path d="M517.043 170.651L518.031 170.917L518.181 172.421L516.981 172.754L518.462 178.302C518.254 178.7 518.011 179.038 517.768 179.376L517.346 179.818L516.358 179.551L515.39 172.476L517.043 170.651Z" fill="white"/>
<path d="M518.744 178.378L517.319 172.996L518.472 172.651L518.295 170.686L516.931 170.318L514.966 172.362L515.987 179.805L517.351 180.173L517.905 179.615C518.208 179.243 518.45 178.904 518.659 178.506L518.744 178.378ZM516.604 172.652L516.647 172.866L518.073 178.247C517.877 178.598 517.694 178.902 517.477 179.146L517.2 179.425L516.588 179.26L515.659 172.599L517.142 171.031L517.707 171.183L517.782 172.213L516.736 172.536L516.604 172.652Z" fill="white"/>
<path d="M515.98 172.534L517.193 172.155L517.043 170.651L515.39 171.164L514.355 172.197L516.311 179.539L517.539 178.355L515.98 172.534Z" fill="#001E20"/>
<path d="M517.868 178.444L516.33 172.73L517.483 172.385L517.311 170.218L515.159 170.899L513.918 172.13L516.039 180.172L517.868 178.444ZM515.616 172.386L515.659 172.599L517.162 178.254L516.476 178.927L514.731 172.298L515.562 171.463L516.775 171.083L516.854 171.912L515.808 172.235L515.616 172.386Z" fill="white"/>
</g>
<g style="mix-blend-mode:screen" opacity="0.5">
<path d="M532.335 124.927C534.217 122.3 533.215 120.333 532.942 114.52C532.687 109.643 531.354 104.704 528.903 100.42C526.453 96.1364 524.944 93.5998 522.356 92.2965L520.387 90.2371L515.338 91.599L515.229 91.6286C511.856 92.6562 509.413 96.2586 508.618 102.478C507.794 108.587 509.122 114.822 512.118 120.255C516.314 127.953 521.58 130.889 525.671 129.903L525.891 129.844L530.72 128.542L532.335 124.927Z" fill="white"/>
<path d="M508.417 113.953C507.381 110.111 507.033 106.202 507.542 102.415C508.307 96.0859 510.961 91.9556 514.882 90.78L514.992 90.7504L520.59 89.2405L522.757 91.5995C525.624 93.0631 527.361 96.0091 529.642 100.103C532.123 104.497 533.594 109.516 533.8 114.642C533.885 116.267 533.991 117.533 534.177 118.661C534.478 121.523 534.623 123.368 533.201 125.517L531.485 129.63L525.887 131.14C520.919 132.363 515.416 128.549 511.249 120.96C510.019 118.584 509.039 116.258 508.417 113.953ZM520.105 91.3728L515.605 92.5866C512.342 93.5846 510.229 97.0982 509.615 102.68C508.921 108.401 510.11 114.556 512.967 119.908C516.647 126.568 521.374 130.121 525.464 129.135L525.684 129.076L529.964 127.921L531.469 124.336C532.571 122.744 532.464 121.477 532.193 118.725C532.116 117.568 531.981 116.192 531.895 114.566C531.669 109.8 530.396 105.081 527.975 100.906C525.524 96.6222 524.185 94.2755 521.765 93.1621L521.487 93.0018L520.105 91.3728Z" fill="white"/>
<path d="M537.032 120.952C534.765 129.57 527.741 131.464 521.337 125.185C515.044 118.877 511.757 106.694 513.995 97.9662C516.262 89.3482 523.287 87.4534 529.69 93.7325C536.123 100.121 539.409 112.304 537.032 120.952Z" fill="#001E20"/>
<path d="M513.496 112.701C512.134 107.652 511.84 102.198 513.109 97.7344C514.348 93.1615 516.829 90.1375 520.121 89.2493C523.414 88.3611 527.079 89.7272 530.45 93.0567C537.052 99.6354 540.427 112.148 538.029 121.154C536.79 125.727 534.309 128.751 531.016 129.639C527.724 130.527 524.059 129.161 520.688 125.832C517.457 122.582 514.887 117.859 513.496 112.701ZM535.666 106.72C534.393 102.001 531.993 97.4678 528.931 94.4084C526.067 91.6487 523.149 90.4342 520.515 91.1447C517.881 91.8553 515.86 94.402 514.882 98.198C512.665 106.567 515.833 118.311 521.958 124.429C524.822 127.189 527.74 128.404 530.374 127.693C533.008 126.983 535.029 124.436 536.007 120.64C537.254 116.536 536.939 111.44 535.666 106.72Z" fill="white"/>
<path d="M532.864 117.72C534.077 111.741 531.798 103.29 527.743 98.7323C523.687 94.1746 519.407 95.3292 518.194 101.308C516.981 107.287 519.261 115.738 523.316 120.296C527.341 124.744 531.622 123.589 532.864 117.72Z" fill="white"/>
<path d="M517.887 111.517C516.91 107.895 516.621 104.205 517.307 101.076C517.964 97.8377 519.525 95.7682 521.721 95.1761C523.916 94.584 526.306 95.5876 528.502 98.0564C532.726 102.804 535.125 111.694 533.861 117.922C533.204 121.161 531.643 123.23 529.448 123.822C527.253 124.414 524.863 123.411 522.666 120.942C520.499 118.583 518.864 115.139 517.887 111.517ZM531.386 107.875C530.498 104.582 528.951 101.467 527.063 99.2688C525.374 97.3697 523.621 96.5473 522.194 96.9322C520.767 97.317 519.666 98.9092 519.161 101.4C517.998 107.13 520.189 115.252 524.046 119.51C525.736 121.409 527.488 122.231 528.915 121.847C530.342 121.462 531.443 119.869 531.948 117.378C532.504 114.638 532.275 111.168 531.386 107.875Z" fill="white"/>
<path d="M530.01 118.489C531.223 112.511 528.943 104.06 524.888 99.5018C523.397 97.9024 521.974 96.9912 520.509 96.7977C519.449 97.6722 518.568 99.2051 518.083 101.337C516.87 107.316 519.15 115.767 523.205 120.325C524.696 121.924 526.12 122.836 527.585 123.029C528.754 122.125 529.635 120.592 530.01 118.489Z" fill="#001E20"/>
<path d="M517.886 111.517C516.909 107.895 516.62 104.205 517.307 101.076C517.762 98.8341 518.694 97.052 520.053 95.979L520.352 95.7804L520.711 95.8014C522.316 96.075 524.127 97.1169 525.648 98.8261C529.872 103.574 532.27 112.464 531.007 118.692C530.552 120.934 529.62 122.716 528.261 123.789L527.961 123.987L527.602 123.967C525.998 123.693 524.186 122.651 522.666 120.942C520.499 118.583 518.863 115.139 517.886 111.517ZM520.885 97.756C520.155 98.5416 519.544 99.7663 519.16 101.4C517.998 107.13 520.189 115.252 524.045 119.51C525.199 120.729 526.233 121.51 527.369 121.792C528.099 121.007 528.711 119.782 529.094 118.148C530.257 112.418 528.066 104.296 524.209 100.038C523.086 98.9286 521.911 98.0679 520.885 97.756Z" fill="white"/>
<path d="M519.129 123.544L518.744 122.117L514.573 123.242L514.958 124.669L519.129 123.544Z" fill="#001E20"/>
<path d="M515.299 95.3776L514.914 93.9508L510.743 95.0758L511.128 96.5026L515.299 95.3776Z" fill="#001E20"/>
<path d="M524.332 99.1813L522.027 99.803L521.678 103.312L524.478 104.087L521.022 117.029C521.508 117.957 522.074 118.747 522.64 119.536L523.625 120.566L525.93 119.944L528.189 103.439L524.332 99.1813Z" fill="white"/>
<path d="M520.363 117.206L523.688 104.653L520.998 103.848L521.41 99.2629L524.593 98.4044L529.176 103.173L526.795 120.534L523.612 121.393L522.319 120.093C521.614 119.224 521.048 118.435 520.562 117.506L520.363 117.206ZM525.355 103.85L525.254 104.348L521.929 116.902C522.386 117.721 522.812 118.43 523.319 118.999L523.966 119.649L525.392 119.264L527.559 103.727L524.1 100.068L522.783 100.423L522.606 102.826L525.047 103.58L525.355 103.85Z" fill="white"/>
<path d="M526.812 103.575L523.983 102.69L524.332 99.1812L528.187 100.378L530.603 102.788L526.039 119.914L523.175 117.154L526.812 103.575Z" fill="#001E20"/>
<path d="M522.406 117.362L525.993 104.031L523.303 103.226L523.706 98.1725L528.726 99.7617L531.62 102.631L526.672 121.391L522.406 117.362ZM527.66 103.228L527.559 103.727L524.053 116.918L525.654 118.487L529.724 103.025L527.786 101.075L524.957 100.19L524.772 102.124L527.212 102.878L527.66 103.228Z" fill="white"/>
</g>
<g style="mix-blend-mode:screen" opacity="0.4">
<path d="M516.04 61.4062C514.749 55.9672 511.045 55.0404 503.149 48.7944C496.495 43.5902 488.537 39.7196 480.163 38.0524C471.789 36.3852 466.766 35.4728 462.125 37.3708L457.202 37.6007L453.245 45.7358L453.159 45.9127C450.67 51.481 452.597 58.76 459.81 66.8606C466.846 74.8751 476.492 80.2223 486.983 82.482C501.795 85.7496 511.607 82.2118 514.966 75.7543L515.138 75.4006L518.923 67.6192L516.04 61.4062Z" fill="white"/>
<path d="M474.556 80.1554C468.367 77.145 462.87 73.1594 458.505 68.194C451.116 60.0074 448.739 51.8539 451.659 45.4012L451.745 45.2244L456.132 36.205L461.671 36.0563C466.837 33.9767 472.654 35.0562 480.588 36.7282C489.139 38.4814 497.36 42.2612 504.282 47.8143C506.499 49.549 508.273 50.8488 509.955 51.8858C514.032 54.7436 516.604 56.6503 517.795 60.9469L521.213 67.8578L516.826 76.8771C512.778 84.7494 501.552 87.5991 486.917 84.4175C482.419 83.3234 478.27 81.9617 474.556 80.1554ZM458.364 39.2589L454.837 46.5097C452.434 51.9013 454.619 58.6497 461.206 65.7896C467.883 73.1924 477.266 78.6305 487.495 80.981C500.366 83.7422 510.369 81.6095 513.729 75.1521L513.901 74.7984L517.255 67.9012L514.286 61.865C513.459 58.6198 511.686 57.3199 507.786 54.5482C506.189 53.3344 504.239 51.9485 502.021 50.2138C495.544 45.0956 487.94 41.3971 479.743 39.8159C471.369 38.1487 466.785 37.2315 462.584 39.1246L462.058 39.3063L458.364 39.2589Z" fill="white"/>
<path d="M516.188 50.7621C524.859 63.5081 519.354 74.8265 503.888 76.0517C488.507 77.1 468.877 67.5525 460.029 54.7205C451.357 41.9744 456.862 30.656 472.329 29.4309C487.972 28.2917 507.602 37.8392 516.188 50.7621Z" fill="#001E20"/>
<path d="M478.69 72.1064C470.555 68.1498 463.103 62.3387 458.719 55.6144C454.159 48.8041 453.03 42.132 455.611 36.8265C458.191 31.521 464.137 28.2894 472.31 27.672C488.392 26.5281 508.553 36.3336 517.583 49.6913C522.144 56.5017 523.272 63.1737 520.692 68.4792C518.111 73.7848 512.166 77.0163 503.993 77.6337C496.083 78.1603 487.002 76.149 478.69 72.1064ZM496.065 36.3826C488.46 32.6841 479.818 30.668 472.348 31.1897C465.494 31.7926 460.596 34.2212 458.531 38.4656C456.467 42.71 457.495 48.2397 461.338 53.8266C469.742 66.2238 488.665 75.4271 503.606 74.3837C510.459 73.7808 515.358 71.3523 517.423 67.1079C519.487 62.8635 518.459 57.3337 514.615 51.7468C510.676 45.4574 503.669 40.0812 496.065 36.3826Z" fill="white"/>
<path d="M507.236 52.5316C500.811 44.1585 487.194 37.5355 476.641 37.6513C466.088 37.7671 462.733 44.6643 469.158 53.0373C475.582 61.4103 489.2 68.0333 499.753 67.9176C510.129 67.7157 513.483 60.8186 507.236 52.5316Z" fill="white"/>
<path d="M482.13 65.0324C476.294 62.194 471.151 58.3805 467.848 53.9311C464.368 49.3957 463.44 45.0082 465.161 41.4712C466.881 37.9342 470.905 35.9551 476.621 35.8924C487.614 35.7717 501.939 42.7388 508.631 51.4607C512.111 55.9961 513.039 60.3836 511.319 63.9206C509.598 67.4576 505.574 69.4367 499.858 69.4995C494.319 69.6482 487.966 67.8709 482.13 65.0324ZM492.71 43.2798C487.404 40.6994 481.583 39.1802 476.569 39.1472C472.172 39.1955 469.109 40.5484 467.99 42.8474C466.872 45.1465 467.699 48.3917 470.376 51.8805C476.533 59.9046 489.62 66.2696 499.557 66.0726C503.954 66.0243 507.017 64.6714 508.135 62.3724C509.254 60.0733 508.426 56.8281 505.75 53.3394C502.805 49.5017 498.016 45.8602 492.71 43.2798Z" fill="white"/>
<path d="M504.999 57.1296C498.575 48.7565 484.957 42.1335 474.404 42.2493C470.623 42.3787 467.818 43.2011 465.902 44.8932C465.84 47.2687 466.839 50.1602 469.071 53.214C475.496 61.5871 489.113 68.2101 499.666 68.0943C503.447 67.9648 506.252 67.1425 508.169 65.4503C508.317 62.8981 507.318 60.0066 504.999 57.1296Z" fill="#001E20"/>
<path d="M482.13 65.0325C476.294 62.1941 471.151 58.3805 467.848 53.9312C465.439 50.7913 464.172 47.5509 464.315 44.5589L464.396 43.9424L464.831 43.4978C467.01 41.7149 470.427 40.5339 474.385 40.4905C485.378 40.3699 499.703 47.337 506.395 56.0589C508.804 59.1988 510.071 62.4391 509.928 65.4311L509.847 66.0477L509.412 66.4922C507.233 68.2752 503.815 69.4561 499.858 69.4995C494.318 69.6482 487.966 67.8709 482.13 65.0325ZM467.579 45.4906C467.776 47.3355 468.679 49.5244 470.376 51.8805C476.533 59.9047 489.62 66.2696 499.556 66.0726C502.458 65.9529 504.651 65.489 506.31 64.3274C506.113 62.4825 505.21 60.2936 503.513 57.9375C497.356 49.9134 484.269 43.5484 474.333 43.7454C471.608 43.9512 469.152 44.5058 467.579 45.4906Z" fill="white"/>
<path d="M499.238 77.0702L496.938 75.9521L493.67 82.6724L495.969 83.7905L499.238 77.0702Z" fill="#001E20"/>
<path d="M458.131 50.0799L455.832 48.9618L452.564 55.6821L454.863 56.8003L458.131 50.0799Z" fill="#001E20"/>
<path d="M497.38 44.0203L495.081 42.9021L492.931 47.3234L495.23 48.4416L497.38 44.0203Z" fill="#001E20"/>
<path d="M473.354 42.6123L471.547 46.3262L475.73 50.7659L479.921 47.9934L492.885 67.2009C494.649 67.6213 496.322 67.7788 497.995 67.9364L500.456 67.8214L502.262 64.1076L483.29 42.4154L473.354 42.6123Z" fill="white"/>
<path d="M492.369 68.262L479.764 49.6663L475.658 52.262L470.142 46.5176L472.637 41.3889L484.064 40.8238L504.016 63.6486L501.522 68.7773L498.358 68.9879C496.422 68.9212 494.749 68.7637 492.986 68.3433L492.369 68.262ZM480.609 46.5787L481.145 47.2764L493.75 65.8722C495.337 66.2066 496.747 66.455 498.066 66.4405L499.648 66.3352L500.766 64.0361L482.951 43.5625L474.248 43.9219L473.215 46.0441L476.15 49.0023L479.907 46.6743L480.609 46.5787Z" fill="white"/>
<path d="M481.904 44.3656L477.536 47.0521L473.353 42.6124L479.294 38.9411L485.182 38.5247L502.348 63.9308L495.494 64.5337L481.904 44.3656Z" fill="#001E20"/>
<path d="M494.892 65.7718L481.57 45.9525L477.464 48.5482L471.327 42.2829L479.103 37.5361L486.133 37.0192L504.996 64.7814L494.892 65.7718ZM482.415 42.8649L482.951 43.5626L496.182 63.119L500.049 62.8127L484.494 39.9396L479.748 40.2555L475.38 42.9421L477.693 45.3794L481.45 43.0514L482.415 42.8649Z" fill="white"/>
</g>
<g style="mix-blend-mode:screen" opacity="0.3">
<path d="M516.04 61.4062C514.749 55.9672 511.045 55.0404 503.149 48.7944C496.495 43.5902 488.537 39.7196 480.163 38.0524C471.789 36.3852 466.766 35.4728 462.125 37.3708L457.202 37.6007L453.245 45.7358L453.159 45.9127C450.67 51.481 452.597 58.76 459.81 66.8606C466.846 74.8751 476.492 80.2223 486.983 82.482C501.795 85.7496 511.607 82.2118 514.966 75.7543L515.138 75.4006L518.923 67.6192L516.04 61.4062Z" fill="white"/>
<path d="M474.556 80.1554C468.367 77.145 462.87 73.1594 458.505 68.194C451.116 60.0074 448.739 51.8539 451.659 45.4012L451.745 45.2244L456.132 36.205L461.671 36.0563C466.837 33.9767 472.654 35.0562 480.588 36.7282C489.139 38.4814 497.36 42.2612 504.282 47.8143C506.499 49.549 508.273 50.8488 509.955 51.8858C514.032 54.7436 516.604 56.6503 517.795 60.9469L521.213 67.8578L516.826 76.8771C512.778 84.7494 501.552 87.5991 486.917 84.4175C482.419 83.3234 478.27 81.9617 474.556 80.1554ZM458.364 39.2589L454.837 46.5097C452.434 51.9013 454.619 58.6497 461.206 65.7896C467.883 73.1924 477.266 78.6305 487.495 80.981C500.366 83.7422 510.369 81.6095 513.729 75.1521L513.901 74.7984L517.255 67.9012L514.286 61.865C513.459 58.6198 511.686 57.3199 507.786 54.5482C506.189 53.3344 504.239 51.9485 502.021 50.2138C495.544 45.0956 487.94 41.3971 479.743 39.8159C471.369 38.1487 466.785 37.2315 462.584 39.1246L462.058 39.3063L458.364 39.2589Z" fill="white"/>
<path d="M516.188 50.7621C524.859 63.5081 519.354 74.8265 503.888 76.0517C488.507 77.1 468.877 67.5525 460.029 54.7205C451.357 41.9744 456.862 30.656 472.329 29.4309C487.972 28.2917 507.602 37.8392 516.188 50.7621Z" fill="#001E20"/>
<path d="M478.69 72.1064C470.555 68.1498 463.103 62.3387 458.719 55.6144C454.159 48.8041 453.03 42.132 455.611 36.8265C458.191 31.521 464.137 28.2894 472.31 27.672C488.392 26.5281 508.553 36.3336 517.583 49.6913C522.144 56.5017 523.272 63.1737 520.692 68.4792C518.111 73.7848 512.166 77.0163 503.993 77.6337C496.083 78.1603 487.002 76.149 478.69 72.1064ZM496.065 36.3826C488.46 32.6841 479.818 30.668 472.348 31.1897C465.494 31.7926 460.596 34.2212 458.531 38.4656C456.467 42.71 457.495 48.2397 461.338 53.8266C469.742 66.2238 488.665 75.4271 503.606 74.3837C510.459 73.7808 515.358 71.3523 517.423 67.1079C519.487 62.8635 518.459 57.3337 514.615 51.7468C510.676 45.4574 503.669 40.0812 496.065 36.3826Z" fill="white"/>
<path d="M507.236 52.5316C500.811 44.1585 487.194 37.5355 476.641 37.6513C466.088 37.7671 462.733 44.6643 469.158 53.0373C475.582 61.4103 489.2 68.0333 499.753 67.9176C510.129 67.7157 513.483 60.8186 507.236 52.5316Z" fill="white"/>
<path d="M482.13 65.0324C476.294 62.194 471.151 58.3805 467.848 53.9311C464.368 49.3957 463.44 45.0082 465.161 41.4712C466.881 37.9342 470.905 35.9551 476.621 35.8924C487.614 35.7717 501.939 42.7388 508.631 51.4607C512.111 55.9961 513.039 60.3836 511.319 63.9206C509.598 67.4576 505.574 69.4367 499.858 69.4995C494.319 69.6482 487.966 67.8709 482.13 65.0324ZM492.71 43.2798C487.404 40.6994 481.583 39.1802 476.569 39.1472C472.172 39.1955 469.109 40.5484 467.99 42.8474C466.872 45.1465 467.699 48.3917 470.376 51.8805C476.533 59.9046 489.62 66.2696 499.557 66.0726C503.954 66.0243 507.017 64.6714 508.135 62.3724C509.254 60.0733 508.426 56.8281 505.75 53.3394C502.805 49.5017 498.016 45.8602 492.71 43.2798Z" fill="white"/>
<path d="M504.999 57.1296C498.575 48.7565 484.957 42.1335 474.404 42.2493C470.623 42.3787 467.818 43.2011 465.902 44.8932C465.84 47.2687 466.839 50.1602 469.071 53.214C475.496 61.5871 489.113 68.2101 499.666 68.0943C503.447 67.9648 506.252 67.1425 508.169 65.4503C508.317 62.8981 507.318 60.0066 504.999 57.1296Z" fill="#001E20"/>
<path d="M482.13 65.0325C476.294 62.1941 471.151 58.3805 467.848 53.9312C465.439 50.7913 464.172 47.5509 464.315 44.5589L464.396 43.9424L464.831 43.4978C467.01 41.7149 470.427 40.5339 474.385 40.4905C485.378 40.3699 499.703 47.337 506.395 56.0589C508.804 59.1988 510.071 62.4391 509.928 65.4311L509.847 66.0477L509.412 66.4922C507.233 68.2752 503.815 69.4561 499.858 69.4995C494.318 69.6482 487.966 67.8709 482.13 65.0325ZM467.579 45.4906C467.776 47.3355 468.679 49.5244 470.376 51.8805C476.533 59.9047 489.62 66.2696 499.556 66.0726C502.458 65.9529 504.651 65.489 506.31 64.3274C506.113 62.4825 505.21 60.2936 503.513 57.9375C497.356 49.9134 484.269 43.5484 474.333 43.7454C471.608 43.9512 469.152 44.5058 467.579 45.4906Z" fill="white"/>
<path d="M499.238 77.0702L496.938 75.9521L493.67 82.6724L495.969 83.7905L499.238 77.0702Z" fill="#001E20"/>
<path d="M458.131 50.0799L455.832 48.9618L452.564 55.6821L454.863 56.8003L458.131 50.0799Z" fill="#001E20"/>
<path d="M497.38 44.0203L495.081 42.9021L492.931 47.3234L495.23 48.4416L497.38 44.0203Z" fill="#001E20"/>
<path d="M473.354 42.6123L471.547 46.3262L475.73 50.7659L479.921 47.9934L492.885 67.2009C494.649 67.6213 496.322 67.7788 497.995 67.9364L500.456 67.8214L502.262 64.1076L483.29 42.4154L473.354 42.6123Z" fill="white"/>
<path d="M492.369 68.262L479.764 49.6663L475.658 52.262L470.142 46.5176L472.637 41.3889L484.064 40.8238L504.016 63.6486L501.522 68.7773L498.358 68.9879C496.422 68.9212 494.749 68.7637 492.986 68.3433L492.369 68.262ZM480.609 46.5787L481.145 47.2764L493.75 65.8722C495.337 66.2066 496.747 66.455 498.066 66.4405L499.648 66.3352L500.766 64.0361L482.951 43.5625L474.248 43.9219L473.215 46.0441L476.15 49.0023L479.907 46.6743L480.609 46.5787Z" fill="white"/>
<path d="M481.904 44.3656L477.536 47.0521L473.353 42.6124L479.294 38.9411L485.182 38.5247L502.348 63.9308L495.494 64.5337L481.904 44.3656Z" fill="#001E20"/>
<path d="M494.892 65.7718L481.57 45.9525L477.464 48.5482L471.327 42.2829L479.103 37.5361L486.133 37.0192L504.996 64.7814L494.892 65.7718ZM482.415 42.8649L482.951 43.5626L496.182 63.119L500.049 62.8127L484.494 39.9396L479.748 40.2555L475.38 42.9421L477.693 45.3794L481.45 43.0514L482.415 42.8649Z" fill="white"/>
</g>
</g>
<defs>
<clipPath id="clip0">
<rect width="570" height="197" fill="white"/>
</clipPath>
</defs>
</svg>
