<svg width="213" height="213" viewBox="0 0 213 213" fill="none" xmlns="http://www.w3.org/2000/svg">
<g clip-path="url(#clip0)">
<path d="M186.34 28.3756C162.876 28.3756 140.13 20.2912 121.929 5.48399C112.942 -1.82734 100.058 -1.82734 91.0712 5.48399C72.8706 20.2917 50.1234 28.3756 26.6604 28.3756C19.3336 28.3756 13.3943 34.315 13.3943 41.6418V77.1969C13.3943 122.809 33.9329 165.996 69.3147 194.781L80.2349 203.665C95.5338 216.112 117.468 216.112 132.767 203.665L143.687 194.781C179.068 165.996 199.607 122.807 199.607 77.1952C199.607 63.5449 199.607 50.7168 199.607 41.6389C199.606 34.3121 193.667 28.3756 186.34 28.3756Z" fill="#F2994A"/>
<path d="M106.5 201.295C103.942 201.295 101.441 200.406 99.4564 198.791L78.5703 181.799C63.3149 169.387 50.7863 153.439 42.3399 135.679C33.8934 117.918 29.4287 98.1352 29.4287 78.4686V50.2532C29.4287 46.8397 32.2194 43.9371 35.6283 43.7571C58.8733 42.528 81.3456 33.9081 99.4564 19.1735C101.441 17.5589 103.942 16.6702 106.5 16.6702C109.058 16.6702 111.559 17.5589 113.544 19.1731C131.655 33.9081 154.128 42.528 177.373 43.7571C180.781 43.9371 183.571 46.8393 183.571 50.2523V78.4669C183.571 98.1339 179.107 117.917 170.66 135.678C162.214 153.439 149.686 169.387 134.43 181.799L113.544 198.791C111.559 200.406 109.058 201.295 106.5 201.295Z" fill="url(#paint0_linear)"/>
<path d="M106.5 193.505C104.158 193.505 101.867 192.691 100.051 191.213L80.927 175.655C66.9588 164.29 55.4877 149.688 47.7541 133.426C40.0205 117.165 35.9326 99.0511 35.9326 81.0438V55.2094C35.9326 52.0842 38.4878 49.4267 41.6089 49.2613C62.8922 48.1357 83.4684 40.2434 100.051 26.7522C101.868 25.2741 104.158 24.4597 106.5 24.4597C108.842 24.4597 111.132 25.2737 112.949 26.7518C129.532 40.2434 150.109 48.1357 171.392 49.2613C174.512 49.4262 177.067 52.0833 177.067 55.2082V81.0417C177.067 99.049 172.979 117.163 165.246 133.425C157.512 149.687 146.041 164.29 132.073 175.654L112.949 191.212C111.132 192.691 108.842 193.505 106.5 193.505Z" fill="#F2F2F2"/>
<g style="mix-blend-mode:overlay">
<path d="M199.606 41.6386C199.606 34.3118 193.667 28.3754 186.34 28.3754C162.877 28.3754 140.13 20.291 121.929 5.48371C117.435 1.82804 111.968 0 106.5 0V213C115.808 213 125.116 209.889 132.766 203.665L143.686 194.781C179.067 165.996 199.606 122.807 199.606 77.195C199.606 63.5442 199.606 50.7161 199.606 41.6386Z" fill="url(#paint1_linear)"/>
</g>
<path d="M176.007 61.983C171.835 57.8107 165.07 58.666 160.897 62.8383L108.838 114.897C108.33 115.405 106.896 116.366 106.5 116.366C106.104 116.366 105.525 116.26 105.017 115.752L85.0622 95.7969C80.8895 91.6246 74.5521 91.6246 70.3794 95.7969C66.2067 99.9697 65.779 105.879 69.9517 110.052L149.604 189.704C179.311 162.886 197.208 125.387 199.381 85.4368L176.007 61.983Z" fill="url(#paint2_linear)"/>
<g style="mix-blend-mode:soft-light">
<path d="M143.686 194.781C168.94 174.235 186.629 146.35 194.689 115.484L146.54 67.3364C136.492 56.7232 122.27 50.9563 106.5 50.9563C76.4552 50.9559 52.2225 75.189 52.2229 105.234C52.2229 121.004 57.9898 135.225 68.6034 145.274L126.472 203.142C128.24 204.91 131.059 205.054 132.998 203.476L143.686 194.781Z" fill="url(#paint3_linear)"/>
</g>
<path d="M106.5 160.365C136.949 160.365 161.632 135.682 161.632 105.233C161.632 74.7842 136.949 50.1006 106.5 50.1006C76.0513 50.1006 51.3677 74.7842 51.3677 105.233C51.3677 135.682 76.0513 160.365 106.5 160.365Z" fill="#F2C94C"/>
<path d="M151.021 72.7144L108.838 114.897C108.33 115.405 106.896 116.366 106.5 116.366C106.104 116.366 105.525 116.26 105.017 115.752L85.0622 95.7969C80.8895 91.6246 74.5521 91.6246 70.3794 95.7969C66.2067 99.9696 65.779 105.879 69.9517 110.052L118.871 158.971C143.363 153.356 161.632 131.428 161.632 105.233C161.632 93.0709 157.691 81.8312 151.021 72.7144Z" fill="url(#paint4_linear)"/>
<path d="M106.5 136.88C100.232 136.88 94.3388 134.439 89.9067 130.007L69.9516 110.053C65.7788 105.88 65.7788 99.1147 69.9516 94.942C74.1238 90.7697 80.8889 90.7697 85.062 94.942L105.017 114.897C105.525 115.405 106.104 115.512 106.5 115.512C106.896 115.512 107.475 115.405 107.982 114.897L160.897 61.983C165.069 57.8107 171.834 57.8107 176.007 61.983C180.18 66.1557 180.18 72.9207 176.007 77.0935L123.093 130.007C118.661 134.439 112.768 136.88 106.5 136.88Z" fill="#219653"/>
</g>
<defs>
<linearGradient id="paint0_linear" x1="106.5" y1="16.6702" x2="106.5" y2="201.295" gradientUnits="userSpaceOnUse">
<stop stop-color="#F2C94C"/>
<stop offset="1" stop-color="#F29C4C"/>
</linearGradient>
<linearGradient id="paint1_linear" x1="125.851" y1="110.088" x2="-2.36348" y2="48.5452" gradientUnits="userSpaceOnUse">
<stop stop-color="#B5DBFF" stop-opacity="0"/>
<stop offset="0.1734" stop-color="#8FC5E9" stop-opacity="0.173"/>
<stop offset="0.4541" stop-color="#56A4C8" stop-opacity="0.454"/>
<stop offset="0.6955" stop-color="#2D8DB1" stop-opacity="0.696"/>
<stop offset="0.8853" stop-color="#147EA2" stop-opacity="0.885"/>
<stop offset="1" stop-color="#0B799D"/>
</linearGradient>
<linearGradient id="paint2_linear" x1="133.204" y1="59.2488" x2="208.5" y2="174" gradientUnits="userSpaceOnUse">
<stop stop-color="#F2C94C"/>
<stop offset="1" stop-color="#F29C4C" stop-opacity="0"/>
</linearGradient>
<linearGradient id="paint3_linear" x1="89" y1="97.9998" x2="195" y2="197" gradientUnits="userSpaceOnUse">
<stop stop-color="#F2C94C"/>
<stop offset="1" stop-color="#F29C4C" stop-opacity="0"/>
</linearGradient>
<linearGradient id="paint4_linear" x1="114.33" y1="72.7144" x2="114.33" y2="158.971" gradientUnits="userSpaceOnUse">
<stop stop-color="#F2C94C"/>
<stop offset="1" stop-color="#F29C4C"/>
</linearGradient>
<clipPath id="clip0">
<rect width="213" height="213" fill="white"/>
</clipPath>
</defs>
</svg>
