<svg width="98" height="98" viewBox="0 0 98 98" fill="none" xmlns="http://www.w3.org/2000/svg">
<path d="M49 38.2812H13.7812C13.3751 38.2812 12.9857 38.4426 12.6985 38.7297C12.4113 39.0169 12.25 39.4064 12.25 39.8125V49C12.25 49.4061 12.4113 49.7956 12.6985 50.0828C12.9857 50.3699 13.3751 50.5312 13.7812 50.5312H49C49.4061 50.5312 49.7956 50.3699 50.0828 50.0828C50.3699 49.7956 50.5312 49.4061 50.5312 49V39.8125C50.5312 39.4064 50.3699 39.0169 50.0828 38.7297C49.7956 38.4426 49.4061 38.2812 49 38.2812ZM47.4688 47.4688H15.3125V41.3438H47.4688V47.4688Z" fill="url(#paint0_linear)"/>
<path d="M21.4375 53.5938H13.7812C13.3751 53.5938 12.9857 53.7551 12.6985 54.0422C12.4113 54.3294 12.25 54.7189 12.25 55.125V62.7812C12.25 63.1874 12.4113 63.5768 12.6985 63.864C12.9857 64.1512 13.3751 64.3125 13.7812 64.3125H21.4375C21.8436 64.3125 22.2331 64.1512 22.5203 63.864C22.8074 63.5768 22.9688 63.1874 22.9688 62.7812V55.125C22.9688 54.7189 22.8074 54.3294 22.5203 54.0422C22.2331 53.7551 21.8436 53.5938 21.4375 53.5938ZM19.9062 61.25H15.3125V56.6562H19.9062V61.25Z" fill="url(#paint1_linear)"/>
<path d="M35.2188 53.5938H27.5625C27.1564 53.5938 26.7669 53.7551 26.4797 54.0422C26.1926 54.3294 26.0312 54.7189 26.0312 55.125V62.7812C26.0312 63.1874 26.1926 63.5768 26.4797 63.864C26.7669 64.1512 27.1564 64.3125 27.5625 64.3125H35.2188C35.6249 64.3125 36.0143 64.1512 36.3015 63.864C36.5887 63.5768 36.75 63.1874 36.75 62.7812V55.125C36.75 54.7189 36.5887 54.3294 36.3015 54.0422C36.0143 53.7551 35.6249 53.5938 35.2188 53.5938ZM33.6875 61.25H29.0938V56.6562H33.6875V61.25Z" fill="url(#paint2_linear)"/>
<path d="M21.4375 65.8438H13.7812C13.3751 65.8438 12.9857 66.0051 12.6985 66.2922C12.4113 66.5794 12.25 66.9689 12.25 67.375V75.0312C12.25 75.4374 12.4113 75.8268 12.6985 76.114C12.9857 76.4012 13.3751 76.5625 13.7812 76.5625H21.4375C21.8436 76.5625 22.2331 76.4012 22.5203 76.114C22.8074 75.8268 22.9688 75.4374 22.9688 75.0312V67.375C22.9688 66.9689 22.8074 66.5794 22.5203 66.2922C22.2331 66.0051 21.8436 65.8438 21.4375 65.8438ZM19.9062 73.5H15.3125V68.9062H19.9062V73.5Z" fill="url(#paint3_linear)"/>
<path d="M35.2188 65.8438H27.5625C27.1564 65.8438 26.7669 66.0051 26.4797 66.2922C26.1926 66.5794 26.0312 66.9689 26.0312 67.375V75.0312C26.0312 75.4374 26.1926 75.8268 26.4797 76.114C26.7669 76.4012 27.1564 76.5625 27.5625 76.5625H35.2188C35.6249 76.5625 36.0143 76.4012 36.3015 76.114C36.5887 75.8268 36.75 75.4374 36.75 75.0312V67.375C36.75 66.9689 36.5887 66.5794 36.3015 66.2922C36.0143 66.0051 35.6249 65.8438 35.2188 65.8438ZM33.6875 73.5H29.0938V68.9062H33.6875V73.5Z" fill="url(#paint4_linear)"/>
<path d="M21.4375 78.0938H13.7812C13.3751 78.0938 12.9857 78.2551 12.6985 78.5422C12.4113 78.8294 12.25 79.2189 12.25 79.625V87.2812C12.25 87.6874 12.4113 88.0768 12.6985 88.364C12.9857 88.6512 13.3751 88.8125 13.7812 88.8125H21.4375C21.8436 88.8125 22.2331 88.6512 22.5203 88.364C22.8074 88.0768 22.9688 87.6874 22.9688 87.2812V79.625C22.9688 79.2189 22.8074 78.8294 22.5203 78.5422C22.2331 78.2551 21.8436 78.0938 21.4375 78.0938ZM19.9062 85.75H15.3125V81.1562H19.9062V85.75Z" fill="url(#paint5_linear)"/>
<path d="M35.2188 78.0938H27.5625C27.1564 78.0938 26.7669 78.2551 26.4797 78.5422C26.1926 78.8294 26.0312 79.2189 26.0312 79.625V87.2812C26.0312 87.6874 26.1926 88.0768 26.4797 88.364C26.7669 88.6512 27.1564 88.8125 27.5625 88.8125H35.2188C35.6249 88.8125 36.0143 88.6512 36.3015 88.364C36.5887 88.0768 36.75 87.6874 36.75 87.2812V79.625C36.75 79.2189 36.5887 78.8294 36.3015 78.5422C36.0143 78.2551 35.6249 78.0938 35.2188 78.0938ZM33.6875 85.75H29.0938V81.1562H33.6875V85.75Z" fill="url(#paint6_linear)"/>
<path d="M49 53.5938H41.3438C40.9376 53.5938 40.5482 53.7551 40.261 54.0422C39.9738 54.3294 39.8125 54.7189 39.8125 55.125V62.7812C39.8125 63.1874 39.9738 63.5768 40.261 63.864C40.5482 64.1512 40.9376 64.3125 41.3438 64.3125H49C49.4061 64.3125 49.7956 64.1512 50.0828 63.864C50.3699 63.5768 50.5312 63.1874 50.5312 62.7812V55.125C50.5312 54.7189 50.3699 54.3294 50.0828 54.0422C49.7956 53.7551 49.4061 53.5938 49 53.5938ZM47.4688 61.25H42.875V56.6562H47.4688V61.25Z" fill="url(#paint7_linear)"/>
<path d="M49 65.8438H41.3438C40.9376 65.8438 40.5482 66.0051 40.261 66.2922C39.9738 66.5794 39.8125 66.9689 39.8125 67.375V87.2812C39.8125 87.6874 39.9738 88.0768 40.261 88.364C40.5482 88.6512 40.9376 88.8125 41.3438 88.8125H49C49.4061 88.8125 49.7956 88.6512 50.0828 88.364C50.3699 88.0768 50.5312 87.6874 50.5312 87.2812V67.375C50.5312 66.9689 50.3699 66.5794 50.0828 66.2922C49.7956 66.0051 49.4061 65.8438 49 65.8438ZM47.4688 85.75H42.875V68.9062H47.4688V85.75Z" fill="url(#paint8_linear)"/>
<path d="M21.4375 9.1875H27.5625V12.25H21.4375V9.1875Z" fill="url(#paint9_linear)"/>
<path d="M32.1562 9.1875H44.4062V12.25H32.1562V9.1875Z" fill="url(#paint10_linear)"/>
<path d="M21.4375 15.3125H32.1562V18.375H21.4375V15.3125Z" fill="url(#paint11_linear)"/>
<path d="M36.75 15.3125H45.9375V18.375H36.75V15.3125Z" fill="url(#paint12_linear)"/>
<path d="M74.2656 55.125H75.7969C75.9999 55.125 76.1947 55.2057 76.3383 55.3492C76.4818 55.4928 76.5625 55.6876 76.5625 55.8906H79.625C79.6248 55.0084 79.3199 54.1533 78.7619 53.47C78.2038 52.7866 77.4269 52.317 76.5625 52.1406V50.5312H73.5V52.1406C72.5713 52.3311 71.7463 52.8594 71.1848 53.6233C70.6233 54.3872 70.3652 55.3322 70.4605 56.2754C70.5558 57.2187 70.9977 58.093 71.7007 58.7291C72.4036 59.3652 73.3176 59.7178 74.2656 59.7188H75.7969C75.9999 59.7188 76.1947 59.7994 76.3383 59.943C76.4818 60.0866 76.5625 60.2813 76.5625 60.4844C76.5625 60.6874 76.4818 60.8822 76.3383 61.0258C76.1947 61.1693 75.9999 61.25 75.7969 61.25H74.2656C74.0626 61.25 73.8678 61.1693 73.7242 61.0258C73.5807 60.8822 73.5 60.6874 73.5 60.4844H70.4375C70.4377 61.3666 70.7426 62.2217 71.3006 62.905C71.8587 63.5884 72.6356 64.058 73.5 64.2344V65.8438H76.5625V64.2344C77.4912 64.0439 78.3162 63.5156 78.8777 62.7517C79.4392 61.9878 79.6973 61.0428 79.602 60.0996C79.5067 59.1563 79.0648 58.282 78.3618 57.6459C77.6589 57.0098 76.7449 56.6572 75.7969 56.6562H74.2656C74.0626 56.6562 73.8678 56.5756 73.7242 56.432C73.5807 56.2884 73.5 56.0937 73.5 55.8906C73.5 55.6876 73.5807 55.4928 73.7242 55.3492C73.8678 55.2057 74.0626 55.125 74.2656 55.125Z" fill="url(#paint13_linear)"/>
<path d="M90.3438 82.6875C90.7499 82.6875 91.1393 82.5262 91.4265 82.239C91.7137 81.9518 91.875 81.5624 91.875 81.1562V75.0312C91.875 74.6251 91.7137 74.2357 91.4265 73.9485C91.1393 73.6613 90.7499 73.5 90.3438 73.5H87.2812V68.9062C87.2812 68.5001 87.1199 68.1107 86.8328 67.8235C86.5456 67.5363 86.1561 67.375 85.75 67.375H83.1009C84.4481 66.199 85.5206 64.7415 86.2425 63.1055C86.9644 61.4695 87.3181 59.6948 87.2787 57.907C87.2392 56.1192 86.8076 54.3619 86.0142 52.7593C85.2209 51.1567 84.0852 49.7479 82.6875 48.6325V18.375C82.6845 17.969 82.5255 17.5798 82.2434 17.2878L68.4622 3.50656C68.1702 3.22451 67.781 3.06552 67.375 3.0625H16.8438C16.4376 3.0625 16.0482 3.22383 15.761 3.51099C15.4738 3.79816 15.3125 4.18764 15.3125 4.59375V33.6875H12.25C11.0328 33.6911 9.86645 34.1763 9.00574 35.037C8.14504 35.8977 7.65989 37.064 7.65625 38.2812V90.3438C7.65989 91.561 8.14504 92.7273 9.00574 93.588C9.86645 94.4487 11.0328 94.9339 12.25 94.9375H50.5312C51.7485 94.9339 52.9148 94.4487 53.7755 93.588C54.6362 92.7273 55.1214 91.561 55.125 90.3438V88.8125H67.375V93.4062C67.375 93.8124 67.5363 94.2018 67.8235 94.489C68.1107 94.7762 68.5001 94.9375 68.9062 94.9375H90.3438C90.7499 94.9375 91.1393 94.7762 91.4265 94.489C91.7137 94.2018 91.875 93.8124 91.875 93.4062V87.2812C91.875 86.8751 91.7137 86.4857 91.4265 86.1985C91.1393 85.9113 90.7499 85.75 90.3438 85.75H88.8125V82.6875H90.3438ZM84.2188 70.4375V73.5H65.8438V70.4375H84.2188ZM84.2188 58.1875C84.2188 60.0046 83.6799 61.7809 82.6704 63.2918C81.6608 64.8027 80.226 65.9803 78.5472 66.6756C76.8684 67.371 75.0211 67.553 73.2389 67.1985C71.4567 66.844 69.8196 65.9689 68.5347 64.684C67.2498 63.3991 66.3748 61.7621 66.0203 59.9799C65.6658 58.1977 65.8477 56.3504 66.5431 54.6716C67.2385 52.9928 68.4161 51.5579 69.927 50.5484C71.4378 49.5388 73.2141 49 75.0312 49C77.4679 49 79.8048 49.968 81.5278 51.691C83.2508 53.4139 84.2187 55.7508 84.2188 58.1875ZM68.9062 8.28406L77.4659 16.8438H68.9062V8.28406ZM52.0625 90.3438C52.0625 90.7499 51.9012 91.1393 51.614 91.4265C51.3268 91.7137 50.9374 91.875 50.5312 91.875H12.25C11.8439 91.875 11.4544 91.7137 11.1672 91.4265C10.8801 91.1393 10.7188 90.7499 10.7188 90.3438V38.2812C10.7188 37.8751 10.8801 37.4857 11.1672 37.1985C11.4544 36.9113 11.8439 36.75 12.25 36.75H50.5312C50.9374 36.75 51.3268 36.9113 51.614 37.1985C51.9012 37.4857 52.0625 37.8751 52.0625 38.2812V90.3438ZM65.8438 79.625C65.4376 79.625 65.0482 79.7863 64.761 80.0735C64.4738 80.3607 64.3125 80.7501 64.3125 81.1562V85.75H55.125V38.2812C55.1214 37.064 54.6362 35.8977 53.7755 35.037C52.9148 34.1763 51.7485 33.6911 50.5312 33.6875H18.375V6.125H65.8438V18.375C65.8438 18.7811 66.0051 19.1706 66.2922 19.4578C66.5794 19.7449 66.9689 19.9062 67.375 19.9062H79.625V46.8409C78.1672 46.2435 76.6067 45.9366 75.0312 45.9375C72.5409 45.9334 70.1086 46.6898 68.0596 48.1053C66.0106 49.5209 64.4427 51.5282 63.5653 53.859C62.688 56.1897 62.543 58.7327 63.15 61.1481C63.7569 63.5634 65.0867 65.7358 66.9616 67.375H64.3125C63.9064 67.375 63.5169 67.5363 63.2297 67.8235C62.9426 68.1107 62.7812 68.5001 62.7812 68.9062V75.0312C62.7812 75.4374 62.9426 75.8268 63.2297 76.114C63.5169 76.4012 63.9064 76.5625 64.3125 76.5625H67.375V79.625H65.8438ZM67.375 85.75V82.6875H85.75V85.75H67.375ZM88.8125 91.875H70.4375V88.8125H88.8125V91.875ZM70.4375 79.625V76.5625H88.8125V79.625H70.4375Z" fill="url(#paint14_linear)"/>
<defs>
<linearGradient id="paint0_linear" x1="31.3906" y1="38.2812" x2="31.3906" y2="50.5312" gradientUnits="userSpaceOnUse">
<stop stop-color="#F2C94C"/>
<stop offset="1" stop-color="#F29C4C"/>
</linearGradient>
<linearGradient id="paint1_linear" x1="17.6094" y1="53.5938" x2="17.6094" y2="64.3125" gradientUnits="userSpaceOnUse">
<stop stop-color="#F2C94C"/>
<stop offset="1" stop-color="#F29C4C"/>
</linearGradient>
<linearGradient id="paint2_linear" x1="31.3906" y1="53.5938" x2="31.3906" y2="64.3125" gradientUnits="userSpaceOnUse">
<stop stop-color="#F2C94C"/>
<stop offset="1" stop-color="#F29C4C"/>
</linearGradient>
<linearGradient id="paint3_linear" x1="17.6094" y1="65.8438" x2="17.6094" y2="76.5625" gradientUnits="userSpaceOnUse">
<stop stop-color="#F2C94C"/>
<stop offset="1" stop-color="#F29C4C"/>
</linearGradient>
<linearGradient id="paint4_linear" x1="31.3906" y1="65.8438" x2="31.3906" y2="76.5625" gradientUnits="userSpaceOnUse">
<stop stop-color="#F2C94C"/>
<stop offset="1" stop-color="#F29C4C"/>
</linearGradient>
<linearGradient id="paint5_linear" x1="17.6094" y1="78.0938" x2="17.6094" y2="88.8125" gradientUnits="userSpaceOnUse">
<stop stop-color="#F2C94C"/>
<stop offset="1" stop-color="#F29C4C"/>
</linearGradient>
<linearGradient id="paint6_linear" x1="31.3906" y1="78.0938" x2="31.3906" y2="88.8125" gradientUnits="userSpaceOnUse">
<stop stop-color="#F2C94C"/>
<stop offset="1" stop-color="#F29C4C"/>
</linearGradient>
<linearGradient id="paint7_linear" x1="45.1719" y1="53.5938" x2="45.1719" y2="64.3125" gradientUnits="userSpaceOnUse">
<stop stop-color="#F2C94C"/>
<stop offset="1" stop-color="#F29C4C"/>
</linearGradient>
<linearGradient id="paint8_linear" x1="45.1719" y1="65.8438" x2="45.1719" y2="88.8125" gradientUnits="userSpaceOnUse">
<stop stop-color="#F2C94C"/>
<stop offset="1" stop-color="#F29C4C"/>
</linearGradient>
<linearGradient id="paint9_linear" x1="24.5" y1="9.1875" x2="24.5" y2="12.25" gradientUnits="userSpaceOnUse">
<stop stop-color="#F2C94C"/>
<stop offset="1" stop-color="#F29C4C"/>
</linearGradient>
<linearGradient id="paint10_linear" x1="38.2812" y1="9.1875" x2="38.2812" y2="12.25" gradientUnits="userSpaceOnUse">
<stop stop-color="#F2C94C"/>
<stop offset="1" stop-color="#F29C4C"/>
</linearGradient>
<linearGradient id="paint11_linear" x1="26.7969" y1="15.3125" x2="26.7969" y2="18.375" gradientUnits="userSpaceOnUse">
<stop stop-color="#F2C94C"/>
<stop offset="1" stop-color="#F29C4C"/>
</linearGradient>
<linearGradient id="paint12_linear" x1="41.3438" y1="15.3125" x2="41.3438" y2="18.375" gradientUnits="userSpaceOnUse">
<stop stop-color="#F2C94C"/>
<stop offset="1" stop-color="#F29C4C"/>
</linearGradient>
<linearGradient id="paint13_linear" x1="75.0312" y1="50.5312" x2="75.0312" y2="65.8438" gradientUnits="userSpaceOnUse">
<stop stop-color="#F2C94C"/>
<stop offset="1" stop-color="#F29C4C"/>
</linearGradient>
<linearGradient id="paint14_linear" x1="49.7656" y1="3.0625" x2="49.7656" y2="94.9375" gradientUnits="userSpaceOnUse">
<stop stop-color="#F2C94C"/>
<stop offset="1" stop-color="#F29C4C"/>
</linearGradient>
</defs>
</svg>
