<svg xmlns="http://www.w3.org/2000/svg" width="570" height="197" fill="none" xmlns:v="https://vecta.io/nano"><style><![CDATA[.B{fill:#fff}.C{opacity:.57}.D{fill:#ff513f}.E{fill:#ffc856}]]></style><g clip-path="url(#A)"><path stroke="#007550" stroke-width="10" d="M5 5h560v187H5z" class="E"/><path d="M0 0h570v197H0z" class="D"/><g style="mix-blend-mode:multiply" opacity=".3" class="D"><path d="M33 197L0 145v52h33z"/></g><g style="mix-blend-mode:multiply" opacity=".2" class="D"><path d="M360 0L570 140V0H360Z"/></g><g style="mix-blend-mode:multiply" opacity=".17" class="D"><path d="M20 28.5L67.5 0H0L20 28.5Z"/></g><g style="mix-blend-mode:multiply" opacity=".1"><path d="M4.162 122.84l10.056-2.695 4.788 24.572-6.704 1.796-8.14-23.673zm15.042 36.024c-1.478.395-2.844.27-4.098-.373-1.228-.7-2.02-1.703-2.38-3.04a4.44 4.44 0 0 1 .569-3.717c.728-1.175 1.85-1.966 3.363-2.372s2.88-.28 4.098.373c1.21.62 1.992 1.597 2.35 2.934s.16 2.616-.595 3.837c-.728 1.176-1.83 1.962-3.31 2.358z" fill="#001e20"/></g><g style="mix-blend-mode:overlay" opacity=".1" class="B"><path d="M510.884 15.56l48.588 36.252-55.7 23.952 7.102-60.204z"/></g><g style="mix-blend-mode:overlay" opacity=".1" class="B"><path d="M385.45 55.62l-7.09 24.51-17.682-18.396 24.773-6.115z"/></g><g style="mix-blend-mode:overlay" opacity=".1" class="B"><path d="M6.758 129.366l22.097 12.758L6.758 154.88v-25.515z"/></g><g style="mix-blend-mode:screen" opacity=".2" class="E"><path d="M467.824 110.735l58.44 26.1-26.1 58.44-58.44-26.1z"/></g><g style="mix-blend-mode:screen" opacity=".2" class="E"><path d="M47-22.566L135.512-62l39.434 88.512-88.512 39.434z"/></g><g style="mix-blend-mode:screen" opacity=".4" class="B"><g class="C"><g style="mix-blend-mode:overlay" class="C"><path d="M354.486 248.43c-43.164.01-73.17-15.564-86.427-40.554l24.756-.005c13.837 16.274 37.798 26.035 70 26.028 41.496-.01 87.898-16.214 127.22-41.68l21.175-.005c-46.866 33.966-105.167 56.206-156.734 56.217z"/></g><g style="mix-blend-mode:overlay" class="C"><path d="M503.04 56.566c-2.178 0-3.07-1.526-1.988-3.4.645-.992 1.516-1.82 2.542-2.41s2.176-.934 3.36-.996c2.183-.001 3.076 1.525 1.997 3.405a7.51 7.51 0 0 1-2.546 2.415c-1.027.593-2.18.935-3.364.997z"/></g><g style="mix-blend-mode:overlay" class="C"><path d="M400.096 168.95c-28.21.007-42.102-16.94-35.158-39.684l6.815-.001c-5.266 19.563 7.078 33.988 31.616 33.983 29.196-.007 64.59-20.44 79.053-45.64 11.24-19.584 6.523-36.278-9.837-42.746l3.47-6.047c19.937 6.7 26.045 26.015 12.974 48.79-16.27 28.35-56.082 51.336-88.933 51.343z"/></g><g style="mix-blend-mode:overlay" class="C"><path d="M370.03 190.533c-29.964-6-43.27-28.676-33.756-57.493h2.555c-8.91 27.626 3.84 49.36 32.464 55.294l-1.263 2.2z"/></g><g style="mix-blend-mode:overlay" class="C"><path d="M408.437 154.414c-23.544.005-33.177-16.464-21.515-36.785s40.204-36.803 63.748-36.81 33.182 16.464 21.518 36.8-40.202 36.8-63.75 36.804zM448.324 84.9c-20.928.004-46.295 14.65-56.664 32.718s-1.804 32.7 19.124 32.697 46.3-14.65 56.666-32.713c10.37-18.068 1.807-32.707-19.126-32.702z"/></g><g style="mix-blend-mode:overlay" class="C"><path d="M466.605 47.244c-2.183 0-3.075-1.526-1.994-3.4a7.51 7.51 0 0 1 2.545-2.412 7.52 7.52 0 0 1 3.362-.995c2.184-.001 3.076 1.525 1.997 3.405a7.52 7.52 0 0 1-2.545 2.415c-1.028.593-2.18.935-3.365.997z"/></g><g style="mix-blend-mode:overlay" class="C"><path d="M374.454 213.633c-61.436.013-86.572-42.963-56.142-95.988 30.433-53.03 104.906-96.028 166.342-96.042 61.442-.014 86.577 42.962 56.145 95.993-30.43 53.025-104.903 96.023-166.345 96.037zM478.53 32.273c-54.61.012-120.806 38.23-147.857 85.37s-4.7 85.338 49.9 85.326 120.814-38.235 147.863-85.37c27.052-47.14 4.71-85.338-49.906-85.326z"/></g><g style="mix-blend-mode:overlay" class="C"><path d="M487.203 49.754c-2.184.001-3.076-1.525-1.995-3.4a7.52 7.52 0 0 1 5.91-3.412c2.178 0 3.076 1.525 1.994 3.4-.646.994-1.52 1.82-2.546 2.414s-2.18.935-3.363.998z"/></g><g style="mix-blend-mode:overlay" class="C"><path d="M260.482 171.813c.23-4.702.812-9.38 1.746-13.996l17.83-.004a76.93 76.93 0 0 0-.814 13.996l-18.76.004z"/></g><g style="mix-blend-mode:overlay" class="C"><path d="M518.978 170.682c18.616-15.918 34.323-33.968 45.297-53.092 28.98-50.496 16.342-93.46-26.547-109.5l8.8-15.335c52.022 16.615 68.23 66.22 34.587 124.843-10.846 18.9-25.807 36.863-43.472 53.09l-18.666.004z"/></g><g style="mix-blend-mode:overlay" class="C"><path d="M392.99 181.335c-40.767.008-57.448-28.513-37.256-63.7s69.616-63.72 110.383-63.73 57.456 28.507 37.26 63.698-69.617 63.72-110.388 63.73zm72.07-125.588c-39.587.01-87.577 27.716-107.187 61.89-19.61 34.168-3.414 61.866 36.173 61.857 39.593-.008 87.586-27.72 107.194-61.89s3.413-61.865-36.18-61.857z"/></g><g style="mix-blend-mode:overlay" class="C"><path d="M264.813 147.59c2.093-6.837 4.725-13.497 7.87-19.918l16.903-.004c-3.07 6.4-5.55 13.067-7.406 19.918l-17.368.004z"/></g></g></g></g><defs><clipPath id="A"><path d="M0 0h570v197H0z" class="B"/></clipPath></defs></svg>