<svg xmlns="http://www.w3.org/2000/svg" width="570" height="197" fill="none" xmlns:v="https://vecta.io/nano"><g clip-path="url(#A)"><path fill="#ffc856" stroke="#007550" stroke-width="10" d="M5 5h560v187H5z"/><path fill="#007550" d="M0 0h570v197H0z"/><g style="mix-blend-mode:multiply" opacity=".22"><path d="M314 80.5L436 0h134v104.5l-256-24z" fill="#ffc856"/></g><g style="mix-blend-mode:multiply" opacity=".18"><path d="M30.5 62.5L0 19V197L30.5 62.5Z" fill="#ffc856"/></g><g style="mix-blend-mode:multiply" opacity=".2"><path d="M242.5 162L0 197h293l-50.5-35z" fill="#ffc856"/></g><g style="mix-blend-mode:multiply" opacity=".15"><path d="M501.342 25h21.204l-3.534 52.098h-14.136L501.342 25zm10.602 80.712c-3.116 0-5.738-.988-7.866-2.964-2.052-2.052-3.078-4.522-3.078-7.4s1.026-5.282 3.078-7.182c2.052-1.976 4.674-2.964 7.866-2.964s5.814.988 7.866 2.964c2.052 1.9 3.078 4.294 3.078 7.182s-1.064 5.358-3.192 7.4c-2.052 1.976-4.636 2.964-7.752 2.964z" fill="#001e20"/></g><g style="mix-blend-mode:multiply" opacity=".1"><path d="M310.577 113.226L334.9 127.27l-37.738 56.003-16.215-9.362 29.63-60.684zm-40.023 97.41c-3.574-2.064-5.943-4.907-7.107-8.53-1.027-3.657-.607-7.102 1.26-10.337s4.592-5.235 8.174-6.004c3.63-.854 7.278-.224 10.94 1.9s6.03 4.957 7.107 8.53c1.125 3.487.754 6.847-1.113 10.08s-4.685 5.296-8.452 6.184c-3.632.854-7.235.25-10.81-1.814z" fill="#001e20"/></g><g style="mix-blend-mode:overlay" opacity=".1"><path d="M510.884 15.56l48.588 36.252-55.7 23.952 7.102-60.204z" fill="#fff"/></g><g style="mix-blend-mode:overlay" opacity=".1"><path d="M385.45 55.62l-7.1 24.51-17.682-18.396 24.772-6.115z" fill="#fff"/></g><g style="mix-blend-mode:overlay" opacity=".1"><path d="M6.758 129.366l22.097 12.758L6.758 154.88v-25.515z" fill="#fff"/></g><g style="mix-blend-mode:screen" opacity=".2"><path fill="#ffc856" d="M467.824 110.735l58.44 26.1-26.1 58.44-58.44-26.1z"/></g><g style="mix-blend-mode:screen" opacity=".2"><path fill="#ffc856" d="M47-22.566L135.512-62l39.434 88.512-88.512 39.434z"/></g></g><defs><clipPath id="A"><path fill="#fff" d="M0 0h570v197H0z"/></clipPath></defs></svg>