<svg width="98" height="98" viewBox="0 0 98 98" fill="none" xmlns="http://www.w3.org/2000/svg">
<path d="M13.7812 84.2188H59.7188V87.2812H13.7812V84.2188Z" fill="url(#paint0_linear)"/>
<path d="M24.5 61.25H27.5625V64.3125H24.5V61.25Z" fill="url(#paint1_linear)"/>
<path d="M30.625 61.25H33.6875V64.3125H30.625V61.25Z" fill="url(#paint2_linear)"/>
<path d="M39.8125 61.25H42.875V64.3125H39.8125V61.25Z" fill="url(#paint3_linear)"/>
<path d="M45.9375 61.25H49V64.3125H45.9375V61.25Z" fill="url(#paint4_linear)"/>
<path d="M85.75 27.5625H79.625C79.2189 27.5625 78.8294 27.7238 78.5422 28.011C78.2551 28.2982 78.0938 28.6876 78.0938 29.0938V35.2188H61.25V29.0938C61.25 28.6876 61.0887 28.2982 60.8015 28.011C60.5143 27.7238 60.1249 27.5625 59.7188 27.5625H58.1262C57.6919 22.8892 55.8578 18.4557 52.8637 14.8414C49.8695 11.2272 45.8546 8.60024 41.3438 7.30406V4.59375C41.3438 4.18764 41.1824 3.79816 40.8953 3.51099C40.6081 3.22383 40.2186 3.0625 39.8125 3.0625H27.5625C27.1564 3.0625 26.7669 3.22383 26.4797 3.51099C26.1926 3.79816 26.0312 4.18764 26.0312 4.59375V7.30406C21.5204 8.60024 17.5055 11.2272 14.5113 14.8414C11.5172 18.4557 9.68309 22.8892 9.24875 27.5625H7.65625C7.25014 27.5625 6.86066 27.7238 6.57349 28.011C6.28633 28.2982 6.125 28.6876 6.125 29.0938V35.2188H4.59375C4.18764 35.2188 3.79816 35.3801 3.51099 35.6672C3.22383 35.9544 3.0625 36.3439 3.0625 36.75V93.4062C3.0625 93.8124 3.22383 94.2018 3.51099 94.489C3.79816 94.7762 4.18764 94.9375 4.59375 94.9375H85.75C88.1867 94.9375 90.5236 93.9695 92.2465 92.2465C93.9695 90.5236 94.9375 88.1867 94.9375 85.75V36.75C94.9375 34.3133 93.9695 31.9764 92.2465 30.2535C90.5236 28.5305 88.1867 27.5625 85.75 27.5625V27.5625ZM41.3438 10.5044C45.0252 11.731 48.2754 13.992 50.7058 17.0171C53.1362 20.0422 54.6438 23.7032 55.0484 27.5625H41.3438V10.5044ZM29.0938 6.125H38.2812V27.5625H29.0938V6.125ZM26.0312 10.5044V27.5625H12.3266C12.7312 23.7032 14.2388 20.0422 16.6692 17.0171C19.0996 13.992 22.3498 11.731 26.0312 10.5044V10.5044ZM9.1875 30.625H58.1875V35.2188H9.1875V30.625ZM85.75 91.875H6.125V38.2812H78.0938V78.0938C78.0938 78.4999 78.2551 78.8893 78.5422 79.1765C78.8294 79.4637 79.2189 79.625 79.625 79.625H85.75C87.3745 79.625 88.9324 80.2703 90.081 81.419C91.2297 82.5676 91.875 84.1255 91.875 85.75C91.875 87.3745 91.2297 88.9324 90.081 90.081C88.9324 91.2297 87.3745 91.875 85.75 91.875ZM91.875 78.9206C90.1949 77.4046 88.0129 76.5646 85.75 76.5625H81.1562V30.625H85.75C87.3745 30.625 88.9324 31.2703 90.081 32.419C91.2297 33.5676 91.875 35.1255 91.875 36.75V78.9206Z" fill="url(#paint5_linear)"/>
<path d="M57.7741 61.1887C57.9076 61.2315 58.0473 61.2522 58.1875 61.25C58.5936 61.25 58.9831 61.0887 59.2703 60.8015C59.5574 60.5143 59.7188 60.1249 59.7188 59.7188V53.5938C59.7178 53.2605 59.6081 52.9366 59.4064 52.6713C59.2046 52.406 58.9219 52.2137 58.6009 52.1238L52.0625 50.2556V44.4062C52.0625 44.0001 51.9012 43.6107 51.614 43.3235C51.3268 43.0363 50.9374 42.875 50.5312 42.875H42.875C42.4689 42.875 42.0794 43.0363 41.7922 43.3235C41.5051 43.6107 41.3438 44.0001 41.3438 44.4062V47.1931L37.1634 45.9988C36.8931 45.9222 36.6069 45.9222 36.3366 45.9988L14.8991 52.1238C14.5781 52.2137 14.2954 52.406 14.0936 52.6713C13.8919 52.9366 13.7822 53.2605 13.7812 53.5938V59.7188C13.7829 59.9562 13.839 60.1901 13.9451 60.4024C14.0513 60.6148 14.2048 60.8 14.3937 60.9437C14.5805 61.0873 14.7987 61.1844 15.0303 61.227C15.2619 61.2695 15.5004 61.2565 15.7259 61.1887L16.8438 60.8672V78.0938H13.7812V81.1562H59.7188V78.0938H56.6562V60.8672L57.7741 61.1887ZM44.4062 45.9375H49V49.3828L44.4062 48.0659V45.9375ZM39.8125 78.0938H33.6875V73.5C33.6875 72.6878 34.0102 71.9088 34.5845 71.3345C35.1588 70.7602 35.9378 70.4375 36.75 70.4375C37.5622 70.4375 38.3412 70.7602 38.9155 71.3345C39.4898 71.9088 39.8125 72.6878 39.8125 73.5V78.0938ZM53.5938 78.0938H42.875V73.5C42.875 71.8755 42.2297 70.3176 41.081 69.169C39.9324 68.0203 38.3745 67.375 36.75 67.375C35.1255 67.375 33.5676 68.0203 32.419 69.169C31.2703 70.3176 30.625 71.8755 30.625 73.5V78.0938H19.9062V59.9944L36.75 55.1863L53.5938 59.9944V78.0938ZM37.1634 52.1238C36.8939 52.0421 36.6061 52.0421 36.3366 52.1238L16.8438 57.6822V54.7422L36.75 49.0613L56.6562 54.7422V57.6822L37.1634 52.1238Z" fill="url(#paint6_linear)"/>
<path d="M62.7812 41.3438H65.8438V87.2812H62.7812V41.3438Z" fill="url(#paint7_linear)"/>
<path d="M67.375 44.4062H71.9688V47.4688H67.375V44.4062Z" fill="url(#paint8_linear)"/>
<path d="M67.375 52.0625H73.5V55.125H67.375V52.0625Z" fill="url(#paint9_linear)"/>
<path d="M67.375 59.7188H70.4375V62.7812H67.375V59.7188Z" fill="url(#paint10_linear)"/>
<path d="M67.375 67.375H76.5625V70.4375H67.375V67.375Z" fill="url(#paint11_linear)"/>
<path d="M67.375 75.0312H70.4375V78.0938H67.375V75.0312Z" fill="url(#paint12_linear)"/>
<path d="M16.8438 22.9688H19.9062V26.0312H16.8438V22.9688Z" fill="url(#paint13_linear)"/>
<path d="M21.4375 22.9688H24.5V26.0312H21.4375V22.9688Z" fill="url(#paint14_linear)"/>
<path d="M42.875 22.9688H45.9375V26.0312H42.875V22.9688Z" fill="url(#paint15_linear)"/>
<path d="M47.4688 22.9688H50.5312V26.0312H47.4688V22.9688Z" fill="url(#paint16_linear)"/>
<defs>
<linearGradient id="paint0_linear" x1="36.75" y1="84.2188" x2="36.75" y2="87.2812" gradientUnits="userSpaceOnUse">
<stop stop-color="#F2C94C"/>
<stop offset="1" stop-color="#F29C4C"/>
</linearGradient>
<linearGradient id="paint1_linear" x1="26.0312" y1="61.25" x2="26.0312" y2="64.3125" gradientUnits="userSpaceOnUse">
<stop stop-color="#F2C94C"/>
<stop offset="1" stop-color="#F29C4C"/>
</linearGradient>
<linearGradient id="paint2_linear" x1="32.1562" y1="61.25" x2="32.1562" y2="64.3125" gradientUnits="userSpaceOnUse">
<stop stop-color="#F2C94C"/>
<stop offset="1" stop-color="#F29C4C"/>
</linearGradient>
<linearGradient id="paint3_linear" x1="41.3438" y1="61.25" x2="41.3438" y2="64.3125" gradientUnits="userSpaceOnUse">
<stop stop-color="#F2C94C"/>
<stop offset="1" stop-color="#F29C4C"/>
</linearGradient>
<linearGradient id="paint4_linear" x1="47.4688" y1="61.25" x2="47.4688" y2="64.3125" gradientUnits="userSpaceOnUse">
<stop stop-color="#F2C94C"/>
<stop offset="1" stop-color="#F29C4C"/>
</linearGradient>
<linearGradient id="paint5_linear" x1="49" y1="3.0625" x2="49" y2="94.9375" gradientUnits="userSpaceOnUse">
<stop stop-color="#F2C94C"/>
<stop offset="1" stop-color="#F29C4C"/>
</linearGradient>
<linearGradient id="paint6_linear" x1="36.75" y1="42.875" x2="36.75" y2="81.1562" gradientUnits="userSpaceOnUse">
<stop stop-color="#F2C94C"/>
<stop offset="1" stop-color="#F29C4C"/>
</linearGradient>
<linearGradient id="paint7_linear" x1="64.3125" y1="41.3438" x2="64.3125" y2="87.2812" gradientUnits="userSpaceOnUse">
<stop stop-color="#F2C94C"/>
<stop offset="1" stop-color="#F29C4C"/>
</linearGradient>
<linearGradient id="paint8_linear" x1="69.6719" y1="44.4062" x2="69.6719" y2="47.4688" gradientUnits="userSpaceOnUse">
<stop stop-color="#F2C94C"/>
<stop offset="1" stop-color="#F29C4C"/>
</linearGradient>
<linearGradient id="paint9_linear" x1="70.4375" y1="52.0625" x2="70.4375" y2="55.125" gradientUnits="userSpaceOnUse">
<stop stop-color="#F2C94C"/>
<stop offset="1" stop-color="#F29C4C"/>
</linearGradient>
<linearGradient id="paint10_linear" x1="68.9062" y1="59.7188" x2="68.9062" y2="62.7812" gradientUnits="userSpaceOnUse">
<stop stop-color="#F2C94C"/>
<stop offset="1" stop-color="#F29C4C"/>
</linearGradient>
<linearGradient id="paint11_linear" x1="71.9688" y1="67.375" x2="71.9688" y2="70.4375" gradientUnits="userSpaceOnUse">
<stop stop-color="#F2C94C"/>
<stop offset="1" stop-color="#F29C4C"/>
</linearGradient>
<linearGradient id="paint12_linear" x1="68.9062" y1="75.0312" x2="68.9062" y2="78.0938" gradientUnits="userSpaceOnUse">
<stop stop-color="#F2C94C"/>
<stop offset="1" stop-color="#F29C4C"/>
</linearGradient>
<linearGradient id="paint13_linear" x1="18.375" y1="22.9688" x2="18.375" y2="26.0312" gradientUnits="userSpaceOnUse">
<stop stop-color="#F2C94C"/>
<stop offset="1" stop-color="#F29C4C"/>
</linearGradient>
<linearGradient id="paint14_linear" x1="22.9688" y1="22.9688" x2="22.9688" y2="26.0312" gradientUnits="userSpaceOnUse">
<stop stop-color="#F2C94C"/>
<stop offset="1" stop-color="#F29C4C"/>
</linearGradient>
<linearGradient id="paint15_linear" x1="44.4062" y1="22.9688" x2="44.4062" y2="26.0312" gradientUnits="userSpaceOnUse">
<stop stop-color="#F2C94C"/>
<stop offset="1" stop-color="#F29C4C"/>
</linearGradient>
<linearGradient id="paint16_linear" x1="49" y1="22.9688" x2="49" y2="26.0312" gradientUnits="userSpaceOnUse">
<stop stop-color="#F2C94C"/>
<stop offset="1" stop-color="#F29C4C"/>
</linearGradient>
</defs>
</svg>
