<svg width="98" height="98" viewBox="0 0 98 98" fill="none" xmlns="http://www.w3.org/2000/svg">
<path d="M93.7738 38.3272L82.5191 35.5097L79.6097 15.0981C79.558 14.7328 79.3762 14.3985 79.0977 14.1565C78.8192 13.9146 78.4627 13.7813 78.0938 13.7812H59.7188V12.25C59.7188 11.8439 59.5574 11.4544 59.2703 11.1672C58.9831 10.8801 58.5936 10.7188 58.1875 10.7188H6.125C5.71889 10.7188 5.32941 10.8801 5.04224 11.1672C4.75508 11.4544 4.59375 11.8439 4.59375 12.25V59.7187C4.18764 59.7187 3.79816 59.8801 3.51099 60.1672C3.22383 60.4544 3.0625 60.8439 3.0625 61.25V67.375C3.0625 67.7811 3.22383 68.1706 3.51099 68.4578C3.79816 68.7449 4.18764 68.9062 4.59375 68.9062H6.125V76.5625C6.125 76.9686 6.28633 77.3581 6.57349 77.6453C6.86066 77.9324 7.25014 78.0937 7.65625 78.0937H10.8412C11.2074 80.6431 12.4803 82.9749 14.4266 84.6617C16.3729 86.3484 18.862 87.2769 21.4375 87.2769C24.013 87.2769 26.5021 86.3484 28.4484 84.6617C30.3947 82.9749 31.6676 80.6431 32.0338 78.0937H62.9038C63.2699 80.6431 64.5428 82.9749 66.4891 84.6617C68.4354 86.3484 70.9245 87.2769 73.5 87.2769C76.0755 87.2769 78.5646 86.3484 80.5109 84.6617C82.4572 82.9749 83.7301 80.6431 84.0962 78.0937H88.8125C89.2186 78.0937 89.6081 77.9324 89.8953 77.6453C90.1824 77.3581 90.3438 76.9686 90.3438 76.5625V68.9062H93.4062C93.8124 68.9062 94.2018 68.7449 94.489 68.4578C94.7762 68.1706 94.9375 67.7811 94.9375 67.375V39.8125C94.9372 39.4705 94.8225 39.1385 94.6116 38.8693C94.4007 38.6001 94.1057 38.4093 93.7738 38.3272V38.3272ZM7.65625 13.7812H56.6562V49H7.65625V13.7812ZM7.65625 52.0625H56.6562V59.7187H7.65625V52.0625ZM10.8412 75.0312H9.1875V68.9062H13.9497C12.2667 70.5495 11.1739 72.7028 10.8412 75.0312V75.0312ZM21.4375 84.2187C19.9232 84.2187 18.443 83.7697 17.1839 82.9284C15.9249 82.0872 14.9435 80.8914 14.364 79.4924C13.7846 78.0934 13.6329 76.554 13.9284 75.0688C14.2238 73.5837 14.953 72.2195 16.0237 71.1487C17.0945 70.078 18.4587 69.3488 19.9438 69.0534C21.429 68.7579 22.9684 68.9096 24.3674 69.489C25.7664 70.0685 26.9622 71.0498 27.8034 72.3089C28.6447 73.568 29.0938 75.0482 29.0938 76.5625C29.0938 78.5931 28.2871 80.5405 26.8513 81.9763C25.4155 83.4121 23.4681 84.2187 21.4375 84.2187V84.2187ZM62.9038 75.0312H32.0338C31.7011 72.7028 30.6083 70.5495 28.9253 68.9062H66.0122C64.3292 70.5495 63.2365 72.7028 62.9038 75.0312V75.0312ZM73.5 84.2187C71.9857 84.2187 70.5055 83.7697 69.2464 82.9284C67.9874 82.0872 67.006 80.8914 66.4265 79.4924C65.8471 78.0934 65.6954 76.554 65.9909 75.0688C66.2863 73.5837 67.0155 72.2195 68.0862 71.1487C69.157 70.078 70.5212 69.3488 72.0063 69.0534C73.4915 68.7579 75.0309 68.9096 76.4299 69.489C77.8289 70.0685 79.0247 71.0498 79.8659 72.3089C80.7072 73.568 81.1562 75.0482 81.1562 76.5625C81.1562 78.5931 80.3496 80.5405 78.9138 81.9763C77.478 83.4121 75.5306 84.2187 73.5 84.2187V84.2187ZM87.2812 75.0312H84.0962C83.7635 72.7028 82.6708 70.5495 80.9878 68.9062H87.2812V75.0312ZM91.875 65.8437H6.125V62.7812H91.875V65.8437ZM91.875 59.7187H59.7188V16.8437H76.7616L79.6403 36.9644C79.6833 37.2665 79.8156 37.549 80.0202 37.7755C80.2248 38.0019 80.4925 38.162 80.7887 38.2353L91.875 41.0069V59.7187Z" fill="url(#paint0_linear)"/>
<path d="M52.0625 18.375H18.375C17.9689 18.375 17.5794 18.5363 17.2922 18.8235C17.0051 19.1107 16.8438 19.5001 16.8438 19.9062V41.3438C16.8438 41.7499 17.0051 42.1393 17.2922 42.4265C17.5794 42.7137 17.9689 42.875 18.375 42.875H52.0625C52.4686 42.875 52.8581 42.7137 53.1453 42.4265C53.4324 42.1393 53.5938 41.7499 53.5938 41.3438V19.9062C53.5938 19.5001 53.4324 19.1107 53.1453 18.8235C52.8581 18.5363 52.4686 18.375 52.0625 18.375ZM50.5312 39.8125H19.9062V25.5413L34.4838 33.5037C34.71 33.6244 34.9624 33.6875 35.2188 33.6875C35.4751 33.6875 35.7275 33.6244 35.9537 33.5037L50.5312 25.5413V39.8125ZM50.5312 22.0653L35.2188 30.4106L19.9062 22.0653V21.4375H50.5312V22.0653Z" fill="url(#paint1_linear)"/>
<path d="M62.7812 58.1875H76.5625C76.9686 58.1875 77.3581 58.0262 77.6453 57.739C77.9324 57.4518 78.0938 57.0624 78.0938 56.6562V36.75C78.0935 36.658 78.0848 36.5663 78.0677 36.4759L75.0052 19.6322C74.9411 19.2796 74.7553 18.9607 74.4803 18.731C74.2052 18.5013 73.8583 18.3753 73.5 18.375H62.7812C62.3751 18.375 61.9857 18.5363 61.6985 18.8235C61.4113 19.1107 61.25 19.5001 61.25 19.9062V56.6562C61.25 57.0624 61.4113 57.4518 61.6985 57.739C61.9857 58.0262 62.3751 58.1875 62.7812 58.1875ZM64.3125 55.125V38.2812H75.0312V55.125H64.3125ZM72.2214 21.4375L74.725 35.2188H64.3125V21.4375H72.2214Z" fill="url(#paint2_linear)"/>
<path d="M65.8438 44.4062H68.9062V47.4688H65.8438V44.4062Z" fill="url(#paint3_linear)"/>
<path d="M21.4375 71.9688C20.5289 71.9687 19.6408 72.2382 18.8853 72.7429C18.1299 73.2477 17.5411 73.9652 17.1934 74.8046C16.8457 75.6439 16.7548 76.5676 16.932 77.4587C17.1093 78.3498 17.5468 79.1683 18.1892 79.8108C18.8317 80.4532 19.6502 80.8907 20.5413 81.068C21.4324 81.2452 22.356 81.1543 23.1954 80.8066C24.0348 80.4589 24.7523 79.8701 25.257 79.1146C25.7618 78.3592 26.0312 77.4711 26.0312 76.5625C26.0312 75.3442 25.5473 74.1757 24.6858 73.3142C23.8243 72.4527 22.6558 71.9688 21.4375 71.9688V71.9688ZM21.4375 78.0937C21.1346 78.0937 20.8386 78.0039 20.5868 77.8357C20.335 77.6674 20.1387 77.4283 20.0228 77.1485C19.9069 76.8687 19.8766 76.5608 19.9357 76.2638C19.9947 75.9667 20.1406 75.6939 20.3547 75.4797C20.5689 75.2656 20.8417 75.1198 21.1388 75.0607C21.4358 75.0016 21.7437 75.0319 22.0235 75.1478C22.3033 75.2637 22.5424 75.46 22.7107 75.7118C22.8789 75.9636 22.9687 76.2596 22.9687 76.5625C22.9687 76.9686 22.8074 77.3581 22.5202 77.6453C22.2331 77.9324 21.8436 78.0937 21.4375 78.0937Z" fill="url(#paint4_linear)"/>
<path d="M73.5 71.9688C72.5914 71.9687 71.7033 72.2382 70.9479 72.7429C70.1924 73.2477 69.6036 73.9652 69.2559 74.8046C68.9082 75.6439 68.8173 76.5676 68.9945 77.4587C69.1718 78.3498 69.6093 79.1683 70.2517 79.8108C70.8942 80.4532 71.7127 80.8907 72.6038 81.068C73.4949 81.2452 74.4186 81.1543 75.2579 80.8066C76.0973 80.4589 76.8148 79.8701 77.3196 79.1146C77.8243 78.3592 78.0938 77.4711 78.0938 76.5625C78.0938 75.3442 77.6098 74.1757 76.7483 73.3142C75.8868 72.4527 74.7183 71.9688 73.5 71.9688V71.9688ZM73.5 78.0937C73.1971 78.0937 72.9011 78.0039 72.6493 77.8357C72.3975 77.6674 72.2012 77.4283 72.0853 77.1485C71.9694 76.8687 71.9391 76.5608 71.9982 76.2638C72.0573 75.9667 72.2031 75.6939 72.4172 75.4797C72.6314 75.2656 72.9042 75.1198 73.2013 75.0607C73.4983 75.0016 73.8062 75.0319 74.086 75.1478C74.3658 75.2637 74.6049 75.46 74.7732 75.7118C74.9414 75.9636 75.0313 76.2596 75.0313 76.5625C75.0313 76.9686 74.8699 77.3581 74.5828 77.6453C74.2956 77.9324 73.9061 78.0937 73.5 78.0937Z" fill="url(#paint5_linear)"/>
<path d="M10.7188 19.9062H13.7812V22.9688H10.7188V19.9062Z" fill="url(#paint6_linear)"/>
<path d="M10.7188 26.0312H13.7812V29.0938H10.7188V26.0312Z" fill="url(#paint7_linear)"/>
<path d="M10.7188 32.1562H13.7812V35.2188H10.7188V32.1562Z" fill="url(#paint8_linear)"/>
<path d="M10.7188 38.2812H13.7812V41.3438H10.7188V38.2812Z" fill="url(#paint9_linear)"/>
<defs>
<linearGradient id="paint0_linear" x1="49" y1="10.7187" x2="49" y2="87.2769" gradientUnits="userSpaceOnUse">
<stop stop-color="#F2C94C"/>
<stop offset="1" stop-color="#F29C4C"/>
</linearGradient>
<linearGradient id="paint1_linear" x1="35.2188" y1="18.375" x2="35.2188" y2="42.875" gradientUnits="userSpaceOnUse">
<stop stop-color="#F2C94C"/>
<stop offset="1" stop-color="#F29C4C"/>
</linearGradient>
<linearGradient id="paint2_linear" x1="69.6719" y1="18.375" x2="69.6719" y2="58.1875" gradientUnits="userSpaceOnUse">
<stop stop-color="#F2C94C"/>
<stop offset="1" stop-color="#F29C4C"/>
</linearGradient>
<linearGradient id="paint3_linear" x1="67.375" y1="44.4062" x2="67.375" y2="47.4688" gradientUnits="userSpaceOnUse">
<stop stop-color="#F2C94C"/>
<stop offset="1" stop-color="#F29C4C"/>
</linearGradient>
<linearGradient id="paint4_linear" x1="21.4375" y1="71.9688" x2="21.4375" y2="81.1562" gradientUnits="userSpaceOnUse">
<stop stop-color="#F2C94C"/>
<stop offset="1" stop-color="#F29C4C"/>
</linearGradient>
<linearGradient id="paint5_linear" x1="73.5" y1="71.9688" x2="73.5" y2="81.1562" gradientUnits="userSpaceOnUse">
<stop stop-color="#F2C94C"/>
<stop offset="1" stop-color="#F29C4C"/>
</linearGradient>
<linearGradient id="paint6_linear" x1="12.25" y1="19.9062" x2="12.25" y2="22.9688" gradientUnits="userSpaceOnUse">
<stop stop-color="#F2C94C"/>
<stop offset="1" stop-color="#F29C4C"/>
</linearGradient>
<linearGradient id="paint7_linear" x1="12.25" y1="26.0312" x2="12.25" y2="29.0938" gradientUnits="userSpaceOnUse">
<stop stop-color="#F2C94C"/>
<stop offset="1" stop-color="#F29C4C"/>
</linearGradient>
<linearGradient id="paint8_linear" x1="12.25" y1="32.1562" x2="12.25" y2="35.2188" gradientUnits="userSpaceOnUse">
<stop stop-color="#F2C94C"/>
<stop offset="1" stop-color="#F29C4C"/>
</linearGradient>
<linearGradient id="paint9_linear" x1="12.25" y1="38.2812" x2="12.25" y2="41.3438" gradientUnits="userSpaceOnUse">
<stop stop-color="#F2C94C"/>
<stop offset="1" stop-color="#F29C4C"/>
</linearGradient>
</defs>
</svg>
