<svg width="45" height="45" viewBox="0 0 45 45" fill="none" xmlns="http://www.w3.org/2000/svg">
<rect width="45" height="45" rx="10" fill="white"/>
<path d="M40.1786 0H4.82143C2.15859 0 0 2.15859 0 4.82143V40.1786C0 42.8414 2.15859 45 4.82143 45H40.1786C42.8414 45 45 42.8414 45 40.1786V4.82143C45 2.15859 42.8414 0 40.1786 0ZM9.44196 38.5714C8.73552 38.5714 8.13043 38.082 7.97384 37.4035L6.46734 30.8745C6.3879 30.5303 6.43196 30.169 6.59183 29.854C6.75169 29.5389 7.01719 29.29 7.34193 29.1509L14.373 26.1376C14.6733 26.0089 15.0074 25.9813 15.3248 26.059C15.6422 26.1367 15.9257 26.3155 16.1326 26.5684L19.2461 30.3738C24.1624 28.0672 28.1153 24.0599 30.3737 19.2463L26.5682 16.1328C26.3153 15.9259 26.1365 15.6424 26.0588 15.325C25.9811 15.0076 26.0087 14.6735 26.1374 14.3732L29.1508 7.34213C29.2899 7.01739 29.5388 6.75189 29.8539 6.59203C30.1689 6.43216 30.5302 6.3881 30.8744 6.46754L37.4034 7.97404C37.7354 8.05058 38.0317 8.2374 38.2438 8.50401C38.4559 8.77061 38.5714 9.10126 38.5714 9.44196C38.5714 25.5427 25.5189 38.5714 9.44196 38.5714Z" fill="url(#paint0_linear)"/>
<defs>
<linearGradient id="paint0_linear" x1="22.5" y1="0" x2="22.5" y2="45" gradientUnits="userSpaceOnUse">
<stop stop-color="#F2C94C"/>
<stop offset="1" stop-color="#F29C4C"/>
</linearGradient>
</defs>
</svg>
