<svg width="45" height="45" viewBox="0 0 45 45" fill="none" xmlns="http://www.w3.org/2000/svg">
<rect width="45" height="45" rx="10" fill="white"/>
<path fill-rule="evenodd" clip-rule="evenodd" d="M5.625 0C4.13316 0 2.70242 0.592632 1.64752 1.64752C0.592632 2.70242 0 4.13316 0 5.625L0 39.375C0 40.8668 0.592632 42.2976 1.64752 43.3525C2.70242 44.4074 4.13316 45 5.625 45H39.375C40.8668 45 42.2976 44.4074 43.3525 43.3525C44.4074 42.2976 45 40.8668 45 39.375V5.625C45 4.13316 44.4074 2.70242 43.3525 1.64752C42.2976 0.592632 40.8668 0 39.375 0L5.625 0ZM15.0581 23.4956C14.9274 23.6264 14.7722 23.7301 14.6013 23.8008C14.4305 23.8716 14.2474 23.908 14.0625 23.908C13.8776 23.908 13.6945 23.8716 13.5237 23.8008C13.3528 23.7301 13.1976 23.6264 13.0669 23.4956C12.9361 23.3649 12.8324 23.2097 12.7617 23.0388C12.6909 22.868 12.6545 22.6849 12.6545 22.5C12.6545 22.3151 12.6909 22.132 12.7617 21.9612C12.8324 21.7903 12.9361 21.6351 13.0669 21.5044L21.5044 13.0669C21.635 12.9359 21.7902 12.832 21.961 12.7611C22.1319 12.6902 22.315 12.6537 22.5 12.6537C22.685 12.6537 22.8681 12.6902 23.039 12.7611C23.2098 12.832 23.365 12.9359 23.4956 13.0669L31.9331 21.5044C32.1972 21.7684 32.3455 22.1266 32.3455 22.5C32.3455 22.8734 32.1972 23.2316 31.9331 23.4956C31.6691 23.7597 31.3109 23.908 30.9375 23.908C30.5641 23.908 30.2059 23.7597 29.9419 23.4956L23.9062 17.4572V30.9375C23.9062 31.3105 23.7581 31.6681 23.4944 31.9319C23.2306 32.1956 22.873 32.3438 22.5 32.3438C22.127 32.3438 21.7694 32.1956 21.5056 31.9319C21.2419 31.6681 21.0938 31.3105 21.0938 30.9375V17.4572L15.0581 23.4956Z" fill="#4F4F4F"/>
</svg>
