<svg width="20" height="20" viewBox="0 0 20 20" fill="none" xmlns="http://www.w3.org/2000/svg">
<path d="M6.43341 13.7133L7.90092 13.29L16.7367 4.34829C16.8064 4.27687 16.8452 4.1809 16.8448 4.08111C16.8443 3.98132 16.8046 3.88572 16.7342 3.81495L16.2051 3.27995C16.1709 3.24482 16.13 3.21684 16.0849 3.19767C16.0398 3.17849 15.9913 3.16849 15.9423 3.16826C15.8932 3.16803 15.8447 3.17756 15.7994 3.19631C15.7541 3.21506 15.7129 3.24264 15.6784 3.27745L6.86592 12.1958L6.43258 13.7125L6.43341 13.7133ZM17.2526 2.21995L17.7817 2.75579C18.5117 3.49495 18.5184 4.68745 17.7951 5.41912L8.69008 14.6341L5.55341 15.5375C5.36191 15.5911 5.15697 15.5665 4.98355 15.4692C4.81013 15.3718 4.68241 15.2097 4.62841 15.0183C4.58823 14.8807 4.58766 14.7345 4.62675 14.5966L5.53925 11.3966L14.6201 2.20579C14.7928 2.03192 14.9983 1.89417 15.2248 1.80058C15.4513 1.70699 15.6941 1.65943 15.9391 1.66067C16.1842 1.66191 16.4265 1.71193 16.652 1.80781C16.8775 1.90369 17.0817 2.04351 17.2526 2.21912V2.21995ZM7.65342 3.18079C8.06675 3.18079 8.40175 3.51995 8.40175 3.93829C8.40241 4.03718 8.38357 4.13523 8.34631 4.22683C8.30904 4.31843 8.25409 4.4018 8.18459 4.47215C8.11509 4.5425 8.03241 4.59846 7.94126 4.63684C7.85012 4.67521 7.75231 4.69524 7.65342 4.69579H4.66008C3.83341 4.69579 3.16341 5.37412 3.16341 6.20995V15.2983C3.16341 16.135 3.83341 16.8133 4.66008 16.8133H13.6401C14.4667 16.8133 15.1376 16.135 15.1376 15.2983V12.2691C15.1376 11.8508 15.4726 11.5116 15.8859 11.5116C16.2992 11.5116 16.6342 11.8508 16.6342 12.27V15.2983C16.6342 16.9716 15.2934 18.3283 13.6401 18.3283H4.66008C3.00675 18.3283 1.66675 16.9716 1.66675 15.2983V6.20995C1.66675 4.53745 3.00675 3.18079 4.66008 3.18079H7.65342Z" fill="#F2F2F2"/>
<path d="M7 10.5L5.5 14H8.5L17.5 4.5L17 3.5L15.5 2.5L7 10.5Z" fill="#F2F2F2"/>
</svg>
