<svg width="195" height="95" viewBox="0 0 195 95" fill="none" xmlns="http://www.w3.org/2000/svg">
<path d="M0.113739 85.6228C0.142174 84.5246 0.189567 83.436 0.199045 82.3377C0.303308 70.5344 0.417049 58.731 0.521312 46.9276C0.540269 44.4734 0.559226 42.0286 0.606618 39.5744C0.616096 39.2306 0.720359 38.8868 0.824622 38.5621C0.862536 38.4571 1.0521 38.3711 1.1848 38.352C3.56389 38.0655 5.94298 37.779 8.33155 37.5021C9.67749 37.3398 11.0234 37.1201 12.3788 37.0533C13.5731 36.996 14.7769 37.0628 15.9712 37.1679C18.483 37.378 20.9947 37.6453 23.4971 37.8936C25.3453 38.0846 27.1936 38.2852 29.0514 38.4762C29.1936 38.4953 29.3263 38.5335 29.5064 38.5621C29.4685 38.9536 29.4306 39.3261 29.3737 39.7845C26.6818 39.498 23.9994 39.221 21.2507 38.925C21.6677 39.307 22.0658 39.6221 22.407 39.9755C24.4828 42.1241 25.6487 44.7503 26.2648 47.6438C26.8619 50.4323 26.8903 53.259 26.8809 56.0953C26.8524 61.1089 26.8619 66.1224 26.824 71.1264C26.805 73.8481 26.5586 76.5602 25.7814 79.1864C24.9567 81.9653 23.6392 84.4387 21.4497 86.3868C21.1369 86.6637 20.7862 86.912 20.4734 87.2654C22.4923 87.1603 24.5112 87.0553 26.5586 86.9407C26.5965 87.3704 26.6249 87.7428 26.6628 88.1726C26.2648 88.2108 25.8951 88.249 25.516 88.2776C22.426 88.4495 19.3265 88.5355 16.246 88.7933C13.2698 89.0416 10.322 88.8888 7.35527 88.7074C5.43114 88.5832 3.50702 88.4686 1.5829 88.4018C0.862536 88.3731 0.199045 88.3922 0.113739 87.4373C0.113739 86.8356 0.113739 86.234 0.113739 85.6228ZM11.2225 74.975C11.8196 74.9177 12.3599 74.9272 12.8717 74.8126C13.7817 74.6121 14.4641 74.1059 14.6347 73.1223C14.7674 72.4061 14.9475 71.6803 14.957 70.9641C15.0233 65.3966 15.0518 59.8292 15.0612 54.2618C15.0612 53.5837 14.9191 52.9057 14.7674 52.2468C14.6063 51.5783 14.1324 51.0817 13.4689 51.0053C12.8149 50.9289 12.1229 51.0722 11.412 51.1199C11.3552 59.0652 11.2888 66.9628 11.2225 74.975Z" fill="#BDBDBD"/>
<path d="M194.328 74.2577C194.261 75.1268 194.214 75.9958 194.129 76.8648C193.873 79.6533 193.399 82.3941 192.005 84.8579C190.972 86.6819 189.683 88.3148 187.75 89.2794C186.167 90.0624 184.47 90.2439 182.726 90.177C181.503 90.1293 180.309 89.9478 179.181 89.4417C177.864 88.8496 176.84 87.9138 175.921 86.8155C173.342 83.7597 172.271 80.1212 171.864 76.225C171.665 74.3437 171.513 72.4529 171.684 70.562C171.987 67.3247 172.802 64.2592 174.508 61.4612C174.669 61.1938 175.105 60.936 174.84 60.554C173.267 58.3003 172.726 55.7123 172.47 53.0575C172.177 49.9825 172.309 46.9171 173.03 43.9089C173.646 41.321 174.897 39.0482 176.774 37.1764C177.873 36.0782 179.276 35.5721 180.821 35.4097C183.759 35.1041 186.081 36.2024 188.062 38.351C190.29 40.7575 191.427 43.6511 192.034 46.8025C192.498 49.209 192.764 51.6537 192.621 54.108C192.479 56.5336 192.11 58.9114 190.83 61.041C193.219 63.9919 193.882 67.5157 194.233 71.135C194.261 71.4119 194.29 71.6984 194.328 71.9754C194.328 72.7298 194.328 73.4938 194.328 74.2577ZM185.181 71.6602C185.171 70.2469 184.944 68.8813 184.375 67.5825C184.119 67.0096 183.645 67 183.153 67C182.688 67.0096 182.281 67.1337 182.1 67.6398C181.219 70.1036 181.228 72.5484 182.214 74.9835C182.423 75.4992 182.84 75.7857 183.342 75.7666C183.93 75.7475 184.442 75.5279 184.66 74.888C185.02 73.8376 185.181 72.768 185.181 71.6602ZM184.186 52.9716C184.119 51.2717 183.949 49.9252 183.276 48.7315C183.115 48.4546 182.707 48.2636 182.375 48.1681C182.29 48.1394 181.977 48.5692 181.901 48.827C181.276 50.9948 181.427 53.1243 182.29 55.2062C182.432 55.5595 182.65 55.846 183.039 55.8078C183.408 55.7696 183.712 55.5404 183.788 55.1202C183.949 54.299 184.1 53.4777 184.186 52.9716Z" fill="#BDBDBD"/>
<path d="M90.5092 35.5242C90.9263 34.1682 91.3054 32.9267 91.6751 31.6853C92.0068 30.587 92.3386 29.4984 92.6608 28.4002C92.7366 28.1328 92.8694 28.0086 93.1442 27.98C95.5328 27.7222 97.9119 27.4548 100.3 27.1874C102.139 26.9868 103.969 26.7194 105.807 26.6048C106.85 26.538 107.912 26.6526 108.954 26.7576C110.272 26.8913 111.58 27.1205 112.888 27.2829C114.812 27.5312 116.736 27.7604 118.66 27.9895C119.144 28.0468 119.636 28.1137 120.12 28.1137C120.603 28.1041 120.67 28.3333 120.67 28.7535C120.698 32.0768 120.736 35.4096 120.783 38.7329C120.973 52.2266 121.172 65.7203 121.371 79.2139C121.437 83.8455 121.504 88.4771 121.589 93.1087C121.599 93.4716 121.475 93.5671 121.134 93.5862C119.182 93.6817 117.229 93.8058 115.267 93.9204C112.964 94.0541 110.67 94.2546 108.367 94.2928C106.509 94.331 104.642 94.1878 102.784 94.0923C100.149 93.9586 97.5138 93.7963 94.8883 93.6435C94.2627 93.6053 93.6276 93.5671 92.9167 93.5289C92.9167 88.5153 92.9167 83.5113 92.9167 78.5168C92.8693 78.5073 92.8125 78.5073 92.7651 78.4977C92.7082 78.7173 92.6513 78.9274 92.5945 79.1471C92.1869 80.5986 91.7793 82.0502 91.3907 83.5113C91.3054 83.8264 91.1822 83.941 90.8504 83.9315C87.8363 83.8646 84.8221 83.8264 81.808 83.7691C81.2203 83.7596 80.6422 83.7214 80.0545 83.7214C79.7607 83.7214 79.6185 83.6354 79.5332 83.3298C79.1825 82.0311 78.8033 80.7323 78.4242 79.4431C78.3863 79.2999 78.3389 79.1471 78.2725 78.9083C78.2725 83.0433 78.2725 87.0828 78.2725 91.1988C81.6943 91.0173 85.0496 90.8359 88.4429 90.6544C88.4429 88.7158 88.4429 86.8155 88.4429 84.8864C88.9263 84.8864 89.3718 84.8864 89.8931 84.8864C89.8931 87.1974 89.8931 89.4989 89.8931 91.8481C88.9927 91.8959 88.0733 91.9627 87.1444 92.0105C84.462 92.1537 81.7796 92.2301 79.1066 92.4402C75.5427 92.7171 72.0073 92.3352 68.4624 92.1633C67.0311 92.0964 65.5904 92.0105 64.1591 91.9341C63.4577 91.8959 63.4577 91.915 63.4483 91.1796C63.4483 90.6162 63.4483 90.0432 63.4483 89.4225C63.2492 89.4989 63.107 89.5467 62.9743 89.5944C63.4388 89.3748 63.4483 88.9928 63.4388 88.5535C63.3724 69.903 63.3156 51.2525 63.2682 32.602C63.2682 32.1914 63.2682 31.7808 63.2682 31.3415C64.453 31.2078 65.562 31.0741 66.6709 30.9499C69.3723 30.6539 72.0642 30.3006 74.7655 30.0809C75.8176 29.995 76.8982 30.186 77.9692 30.291C79.9313 30.482 81.8933 30.7112 83.8553 30.9117C85.5141 31.0836 87.1823 31.2269 88.841 31.4179C89.0021 31.437 89.2201 31.6853 89.2865 31.8667C89.6941 33.0413 90.0732 34.2255 90.5092 35.5242ZM109.163 28.1041C109.428 49.7532 109.684 71.2973 109.95 92.9177C113.4 92.7362 116.793 92.5453 120.234 92.3638C119.93 71.3355 119.636 50.3739 119.333 29.3551C115.959 28.935 112.603 28.5243 109.163 28.1041ZM78.064 31.5707C80.4241 38.8666 82.7558 46.0862 85.097 53.3248C85.1349 53.2484 85.1634 53.1911 85.1823 53.1338C86.7178 48.0629 88.2533 42.9921 89.7794 37.9212C89.8268 37.7588 89.8078 37.5488 89.7604 37.3769C89.3718 36.1354 88.9642 34.9035 88.5567 33.662C88.206 32.5925 88.206 32.6307 87.0875 32.5256C85.1255 32.3442 83.1634 32.115 81.2109 31.9049C80.1777 31.7903 79.1446 31.6853 78.064 31.5707Z" fill="#BDBDBD"/>
<path d="M9.19379 32.9653C11.4781 32.0867 13.6487 31.2559 15.8192 30.4156C22.5489 27.8276 29.2881 25.2301 36.0178 22.6421C48.4914 17.8482 60.965 13.0638 73.4387 8.2699C78.5096 6.32177 83.5711 4.37364 88.6326 2.41596C90.424 1.72838 92.2249 1.03126 94.0259 0.362783C94.2154 0.295935 94.4619 0.286385 94.6514 0.353233C101.106 2.68335 107.552 5.03257 114.006 7.36268C119.532 9.35856 125.058 11.3449 130.575 13.3312C136.195 15.3653 141.816 17.3994 147.427 19.4334C153.02 21.458 158.612 23.4921 164.195 25.5166C167.342 26.653 170.479 27.8085 173.626 28.9449C176.346 29.9285 179.066 30.9026 181.796 31.8767C181.891 31.9149 181.986 31.9626 182.147 32.039C181.986 32.1154 181.882 32.1822 181.768 32.2204C180.412 32.6979 179.057 33.1372 177.721 33.6529C177.057 33.9107 176.422 33.8248 175.768 33.7388C171.635 33.2041 167.503 32.6693 163.38 32.1249C160.081 31.6952 156.783 31.2559 153.475 30.8262C150.157 30.3965 146.84 29.9763 143.522 29.5465C139.987 29.0882 136.451 28.6202 132.916 28.1618C129.627 27.7321 126.347 27.3119 123.058 26.8822C120.215 26.5097 117.362 26.1373 114.518 25.7649C111.447 25.3638 108.386 24.9722 105.315 24.5903C104.3 24.4661 103.267 24.2656 102.263 24.342C100.206 24.4852 98.1585 24.7717 96.1016 25.0105C93.4666 25.316 90.8316 25.6216 88.2061 25.9272C85.59 26.2328 82.974 26.5288 80.3485 26.8249C77.1542 27.1973 73.9505 27.5602 70.7563 27.9326C67.5431 28.3051 64.3299 28.6775 61.1167 29.05C58.2352 29.3842 55.3443 29.7089 52.4629 30.0431C49.8279 30.3487 47.1929 30.6543 44.5673 30.9599C41.9134 31.2655 39.2689 31.552 36.6149 31.8576C34.0747 32.144 31.5345 32.4496 28.9943 32.7457C26.0749 33.0799 23.165 33.4142 20.2457 33.7579C18.1604 34.0062 16.0846 34.2545 13.9994 34.5028C13.4212 34.5697 12.843 34.6461 12.2648 34.6938C12.1131 34.7034 11.9331 34.7034 11.8098 34.6365C10.9663 34.1208 10.1416 33.5765 9.19379 32.9653Z" fill="#BDBDBD"/>
<path d="M32.3784 86.4536C31.5253 86.9215 30.6723 87.3799 29.8192 87.8383C29.8003 87.8096 29.7908 87.781 29.7718 87.7523C30.4922 87.1507 31.2126 86.5586 31.9519 85.9475C31.6107 85.4604 31.2979 85.0402 31.023 84.6105C28.9756 81.4496 27.6961 78.0021 27.516 74.2205C27.3738 71.2028 27.3927 68.1755 27.3833 65.1578C27.3738 61.4812 27.4022 57.8046 27.4117 54.128C27.4307 50.948 27.6771 47.787 28.8619 44.8075C29.5064 43.1936 30.4069 41.6943 31.2031 40.1377C31.2884 39.9658 31.4116 39.8226 31.5443 39.6316C31.241 39.3738 30.9566 39.135 30.6723 38.8867C30.6818 38.8676 30.6912 38.839 30.7007 38.8199C31.0514 38.9727 31.3926 39.1255 31.6391 39.2401C32.6817 38.2087 33.6296 37.1296 34.7196 36.2319C37.6105 33.835 40.9564 32.6699 44.7099 32.8418C46.2643 32.9086 47.8188 33.1569 49.3638 33.3288C51.0225 33.5103 52.6907 33.6917 54.3494 33.8732C56.3399 34.0833 58.3304 34.3029 60.3208 34.513C60.681 34.5512 61.0317 34.5894 61.4488 34.6276C61.4014 35.0573 61.354 35.4393 61.3066 35.8786C58.7474 35.6112 56.2072 35.3438 53.6765 35.0764C53.667 35.1051 53.648 35.1337 53.6385 35.1624C53.9324 35.382 54.2357 35.5921 54.5295 35.8213C57.5247 38.266 59.3446 41.4365 60.2829 45.1704C60.9464 47.7966 61.0886 50.4705 61.0981 53.1635C61.1076 59.1607 61.1455 65.1578 61.136 71.155C61.136 74.4783 60.7474 77.7538 59.5341 80.8861C58.3683 83.8943 56.6243 86.4822 54.0651 88.4686C53.4585 88.9365 52.795 89.3376 52.122 89.796C53.8186 89.71 55.4774 89.6145 57.155 89.5286C57.193 89.9488 57.2309 90.3212 57.2688 90.7509C56.8897 90.7891 56.5295 90.8369 56.1788 90.856C52.9466 91.0279 49.7145 91.2093 46.4823 91.343C44.8615 91.4099 43.2217 91.5149 41.6104 91.3526C38.0844 90.9897 35.1366 89.3662 32.7102 86.7783C32.6248 86.6828 32.5395 86.5968 32.4542 86.5013C32.4258 86.4822 32.3974 86.4631 32.3784 86.4536ZM47.4017 61.8632C47.4112 58.8742 47.4112 55.8756 47.4017 52.8865C47.4017 52.3899 47.3733 51.9029 47.3259 51.4063C47.1458 49.6778 46.1032 48.4268 44.4445 47.9494C44.3023 47.9112 44.1222 47.8921 43.98 47.9303C42.0085 48.4555 40.5867 49.5919 40.0749 51.6546C39.9327 52.2372 39.8664 52.8483 39.8569 53.45C39.8379 56.2671 39.8474 59.0843 39.8569 61.9014C39.8664 65.1769 39.8569 68.4525 39.9138 71.7376C39.9422 73.5902 40.89 74.8889 42.5583 75.6338C42.9943 75.8248 43.5251 76.054 43.9516 75.949C45.2691 75.6434 46.416 74.9271 46.9562 73.6284C47.269 72.8644 47.3828 71.9668 47.3923 71.1264C47.4302 68.0323 47.4017 64.9478 47.4017 61.8632Z" fill="#BDBDBD"/>
<path d="M145.797 61.0701C145.74 56.8014 145.626 52.5423 145.636 48.2736C145.645 43.9762 146.735 39.9749 149.285 36.4511C151.02 34.0541 153.313 32.7172 156.271 32.4116C160.147 32.0105 163.029 33.7581 165.484 36.518C168.526 39.9558 170.024 44.0526 170.327 48.5792C170.574 52.2749 170.631 55.9897 170.735 59.695C170.867 64.7085 171.019 69.7126 171.057 74.7261C171.085 77.782 170.668 80.7902 169.379 83.6073C168.176 86.243 166.593 88.5923 164.138 90.2348C162.289 91.4667 160.242 91.8869 158.043 91.6959C154.479 91.3807 151.901 89.509 149.958 86.6059C148.64 84.6482 147.541 82.5855 146.953 80.2745C146.432 78.1831 146.148 76.0631 146.091 73.9049C145.987 70.0755 145.93 66.2365 145.854 62.3975C145.844 61.9487 145.854 61.5094 145.854 61.0606C145.835 61.0701 145.816 61.0701 145.797 61.0701ZM160.82 62.6076C160.735 58.9215 160.688 55.2257 160.555 51.5396C160.517 50.556 160.242 49.5723 160.024 48.6078C159.854 47.8439 159.247 47.4428 158.574 47.1467C158.233 46.9939 157.92 47.0417 157.579 47.2136C156.726 47.6338 156.451 48.4073 156.413 49.2572C156.356 50.6706 156.346 52.0839 156.375 53.4973C156.498 60.1152 156.631 66.7331 156.792 73.351C156.811 74.2105 157.019 75.0795 157.228 75.9198C157.399 76.5979 158.365 77.2854 158.963 77.2663C159.598 77.2472 160.526 76.5788 160.669 75.8816C160.858 74.9744 161.029 74.0386 161.019 73.1122C161.01 69.6075 160.896 66.1123 160.82 62.6076Z" fill="#BDBDBD"/>
<path d="M132.623 54.8915C132.281 55.2926 131.931 55.7033 131.589 56.1043C131.201 56.5532 130.395 56.5054 130.063 56.0184C128.215 53.3063 126.376 50.5846 124.528 47.8725C124.348 47.6051 124.357 47.4237 124.509 47.1563C127.637 41.818 130.784 36.4893 133.864 31.132C134.272 30.4158 134.812 30.3012 135.447 30.368C137.798 30.6258 140.148 30.9219 142.499 31.2275C142.66 31.2466 142.878 31.428 142.916 31.5713C143.049 32.0392 143.191 32.5262 143.2 33.0037C143.39 42.9927 143.561 52.9911 143.741 62.9801C143.864 69.9322 143.997 76.8844 144.12 83.8366C144.158 86.0043 144.224 88.1625 144.234 90.3303C144.234 90.7983 144.082 91.2662 143.959 91.715C143.93 91.8105 143.731 91.906 143.608 91.9156C141.674 92.0493 139.731 92.183 137.798 92.288C136.537 92.3548 135.276 92.3835 134.016 92.4312C133.732 92.4408 133.58 92.3548 133.542 92.0493C133.476 91.4858 133.305 90.9224 133.296 90.359C133.096 79.2241 132.907 68.0796 132.727 56.9447C132.717 56.2762 132.727 55.6078 132.727 54.9393C132.698 54.9297 132.66 54.9106 132.623 54.8915Z" fill="#BDBDBD"/>
</svg>
