<svg xmlns="http://www.w3.org/2000/svg" width="23" height="23" fill="none" xmlns:v="https://vecta.io/nano"><path d="M6.958 13.055c.565.766 1.214 1.443 2.053 1.922.95.543 1.972.707 3.05.657.504-.024.656-.155.68-.658.016-.344.055-.687.225-.996.166-.303.42-.36.7-.172.145.095.267.214.383.342l.853.93c.37.376.808.598 1.358.553l2.132.001c.343-.023.52-.444.325-.828-.14-.268-.32-.507-.513-.738-.436-.523-.95-.97-1.434-1.443-.437-.427-.465-.675-.114-1.168l1.185-1.59c.36-.5.732-1 .922-1.598.12-.382.014-.55-.376-.618-.067-.01-.138-.01-.206-.01l-2.32-.003c-.286-.005-.443.12-.544.374l-.44 1.014c-.368.75-.78 1.473-1.356 2.085-.128.135-.27.306-.482.236-.265-.097-.344-.535-.34-.683l-.002-2.677c-.052-.382-.137-.553-.517-.627H9.78c-.32 0-.483.125-.655.326-.098.117-.13.192.075.23.4.076.626.335.685.735.095.64.09 1.284.033 1.927-.016.188-.048.375-.122.55-.116.277-.305.332-.552.162-.223-.153-.38-.37-.535-.587A12.98 12.98 0 0 1 7.295 8.08c-.108-.267-.296-.43-.58-.434-.696-.01-1.392-.013-2.088.001-.418.007-.543.21-.372.59.757 1.686 1.6 3.324 2.702 4.817z" fill="#2f80ed"/><path d="M11.5 0v1.86h9.64V21.14H11.5V23H23V0H11.5z" fill="#5aaae7"/><path d="M1.86 21.14V1.86h9.64V0H0v23h11.5v-1.86H1.86z" fill="#78b9eb"/></svg>