<svg xmlns="http://www.w3.org/2000/svg" xmlns:xlink="http://www.w3.org/1999/xlink" width="541" height="340" fill="none" xmlns:v="https://vecta.io/nano"><style><![CDATA[.B{fill:#fdd762}.C{fill:#e8a200}.D{opacity:.4}.E{fill:#f9bf30}.F{fill:#fff}.G{opacity:.2}.H{opacity:.7}]]></style><path d="M209.743 340L190 284.364 277.863 232l138.35 37.8L541 340H209.743z" fill="#5f3300" class="D"/><g clip-path="url(#A)"><path d="M297.36 176.112l-19.74 11.4c-1.465.815-3.974.75-5.635-.23L253.06 176.34c-1.694-.945-1.825-2.412-.456-3.227l19.74-11.377c1.465-.815 3.973-.75 5.635.228l18.924 10.953c1.694.946 1.857 2.413.456 3.195z" fill="#ff8275"/><path d="M298.24 247.145V174.94c-.065.456-.358.815-.945 1.174l-19.74 11.376c-.65.36-1.628.587-2.638.587v72.695c.945 0 1.922-.163 2.638-.586l19.74-11.377c.782-.424 1.075-1.076.945-1.663z" fill="#d32727"/><path d="M271.953 187.294l-18.925-10.953c-.814-.457-1.238-1.043-1.336-1.63v72.206c-.162.75.294 1.532 1.336 2.12l18.925 10.953c.88.522 1.986.75 2.996.815V188.11c-1.075-.098-2.182-.293-2.996-.815z" fill="#ff513f"/><path d="M266.155 219.175l-19.74 11.377c-1.466.815-3.974.75-5.635-.228l-18.925-10.953c-1.694-.945-1.824-2.412-.456-3.227l19.74-11.377c1.466-.815 3.974-.75 5.635.228l18.925 10.953c1.726.848 1.922 2.347.456 3.227z" fill="#fed98c"/><path d="M267.132 265.074v-47.072c-.065.456-.358.815-.945 1.173l-19.74 11.377c-.65.36-1.628.587-2.638.587v47.594c.945 0 1.922-.163 2.638-.586l19.74-11.377c.717-.457 1.075-1.044.945-1.696z" fill="#f2994a"/><path d="M240.78 230.324l-18.925-10.953c-.814-.457-1.238-1.044-1.336-1.63v47.072c-.162.75.294 1.532 1.336 2.12l18.925 10.953c.88.522 1.987.75 2.996.815v-47.594c-1.01-.032-2.117-.26-2.996-.782z" fill="#ffc856"/><path d="M235.7 254.87l-19.74 11.377c-1.466.815-3.974.75-5.635-.228L191.4 255.067c-1.694-.945-1.824-2.412-.456-3.227l19.74-11.377c1.466-.815 3.974-.75 5.635.228l18.925 10.953c1.726.848 1.92 2.347.456 3.227z" fill="#ff8275"/><path d="M236.677 282.677v-29.012c-.066.456-.36.815-.945 1.173l-19.74 11.377c-.652.36-1.63.587-2.64.587v29.534c.945 0 1.922-.13 2.64-.587l19.74-11.376c.717-.424 1.075-1.11.945-1.696z" fill="#d32727"/><path d="M210.325 266.02L191.4 255.066c-.814-.456-1.237-1.043-1.335-1.63v29.012c-.163.75.293 1.533 1.335 2.12l18.925 10.953c.88.522 1.987.75 2.997.815v-29.5c-1-.066-2.117-.294-2.997-.815z" fill="#ff513f"/><path d="M300.65 125.552l3.355-21.972-9.22 8.508 1.792 4-18.632 43.976-9.315-24.58-24.006 68.816-7.883-22.33-2.638 7.335c-.066.163-7.394 22.753-12.378 36.77-10.554 29.6-10.13 29.665-10.423 31.132l6.156-2.804c.65-2.5 12.378-37.456 19.576-57.504l8.046 22.526 22.93-65.59 8.957 23.765 22.573-54.83 1.108 2.77z" fill="#007550"/><g fill="#07b67e"><path d="M234.2 189.478l2.476-7.432-5.05-2.804-2.638 7.335c-.066.13-22.736 67.838-22.736 67.838l5.05 2.803 22.898-67.74zm62.345-73.348l-1.8-4 9.316-8.443-5.277-2.934-9.186 8.475 1.792 4.043-16.808 39.085-5.928-16.723 9.316 24.58 18.566-44.074zm-27.882 19.463l-5.212-2.934-21.986 62.915 3.094 8.77 24.104-68.75z"/></g><g fill="#009a69"><path d="M234.885 202.942l5.05 13.658 5.146 2.87-8.045-22.526-2.15 6zm31.303-43.878l5.635 15.712 5.146 2.87-8.957-23.765-1.824 5.184z"/></g><g stroke="#000" stroke-width=".32" stroke-miterlimit="10"><path d="M291.985 105.7l11.075 25.395m-7.72-8.542l5.2 2.934"/></g><path d="M300.65 125.552l-1.824-1.043.717-1.663 1.107 2.706z" fill="#07b67e"/></g><use xlink:href="#B" class="E"/><path d="M309.78 249.275a30.06 30.06 0 0 0-11.127 3.526c-2.782 1.606-4.69 3.526-5.725 5.562h-.923v3.708c0 3.355 2.216 6.7 6.648 9.27a30.06 30.06 0 0 0 11.127 3.526v-25.59z" class="B"/><use xlink:href="#C" class="C"/><g class="C D"><use xlink:href="#D" class="D"/><path d="M298.653 252.8a17.87 17.87 0 0 0-3.17 2.303v13.937l.985.835V254.77h1.856v16.37l.33.2.654.36v-16.93h1.856v17.822l.985.4V254.77h1.855v18.864l.985.286v-19.15h1.856v19.6l.984.194V254.77h1.856v20.084l.985.115v-20.2h1.855v20.35l.985.04v-20.4h1.856v20.4l.984-.03v-20.37h1.856v20.25l.985-.1v-20.15h1.856v19.9l.984-.18v-19.7h1.856v19.3l.984-.268v-19.02h1.856v18.42l.985-.378v-18.04h1.856v17.204l.984-.523v-16.68h1.856v15.503l.984-.766V254.77h.165c-.872-.742-1.8-1.4-2.804-1.97a27.3 27.3 0 0 0-6.965-2.743h-18.17a27.28 27.28 0 0 0-6.964 2.743h0zm-5.026 4.413c-.258.367-.492.75-.7 1.15h-.286v6.797c.265.627.595 1.224.985 1.782v-9.728z" class="D"/></g><use xlink:href="#E" class="B"/><g class="F"><path d="M319.786 260.603c6.526-3.77 8.24-9.26 5.158-13.94-8.515-2.488-19.177-1.68-26.292 2.43-6.525 3.768-8.24 9.26-5.158 13.94 8.516 2.488 19.177 1.68 26.292-2.43z" class="G"/><use xlink:href="#F" class="H"/></g><use xlink:href="#G" class="C"/><g class="E"><use xlink:href="#H"/><path d="M322.626 253.97l-1.25.357.355.14-1.22.704c-.96-.478-2.02-.726-3.09-.723-1.047.001-2.074.28-2.978.806a4.68 4.68 0 0 0-.898.652 1.92 1.92 0 0 0-.482.689c-.085.21-.138.434-.158.66-.014.238-.004.478.028.714l.144 1.138c.04.264.05.53.03.797-.035.235-.128.457-.27.646-.19.254-.435.463-.715.613a1.46 1.46 0 0 1-.75.274 1.47 1.47 0 0 1-.781-.162c-.34-.197-.427-.442-.26-.735a3.98 3.98 0 0 1 1.36-1.097v-.853l-1.068.4-1.535-.65c-.733.385-1.36.947-1.82 1.635l-.175-.197v.837h.003c.006.575.444 1.14 1.323 1.7l-.607.35-.824-.377v.853l.74.428 1.445-.835c.914.426 1.916.626 2.923.584.966-.014 1.914-.27 2.757-.742a4.61 4.61 0 0 0 .978-.726c.234-.224.418-.493.543-.79.102-.25.17-.513.2-.78a4.09 4.09 0 0 0-.003-.828l-.122-1.1-.03-.482c.005-.14.023-.28.054-.417.036-.18.122-.344.248-.476.157-.16.336-.295.532-.403a2.16 2.16 0 0 1 .82-.261c.28-.044.568.004.82.137.098.047.185.114.255.197.03.042.046.092.045.143l-1.27.264v.854l2.574 1.146.564-.372a5.29 5.29 0 0 0 .518-.415 3.06 3.06 0 0 0 .431-.465 1.62 1.62 0 0 0 .245-.503c.024-.083.038-.168.042-.255l.003-.003v-.898l-.328.068c-.005-.005-.007-.01-.012-.016-.198-.23-.43-.427-.687-.588l1.352-.78v-.853z"/></g><path d="M306.987 262.287l1.43-.827c-.978-.62-1.415-1.25-1.312-1.89s.763-1.336 1.98-2.083l2.603 1.104a3.98 3.98 0 0 0-1.36 1.097c-.167.293-.08.538.26.735a1.45 1.45 0 0 0 .781.162 1.46 1.46 0 0 0 .75-.274c.28-.15.524-.36.715-.612.142-.2.235-.412.27-.646.022-.266.012-.534-.03-.798l-.144-1.137c-.032-.237-.042-.476-.028-.715.02-.227.073-.45.158-.66a1.91 1.91 0 0 1 .482-.689c.272-.253.574-.472.898-.653a5.91 5.91 0 0 1 2.978-.805 6.87 6.87 0 0 1 3.091.723l1.36-.785.755.436-1.352.78c.257.16.49.36.687.588a1.47 1.47 0 0 1 .313.563 1.03 1.03 0 0 1-.018.542c-.052.18-.135.35-.245.502-.127.17-.27.325-.43.465a5.45 5.45 0 0 1-.518.416l-.564.37-2.574-1.146.482-.3.38-.266c.104-.073.198-.158.28-.253a.7.7 0 0 0 .122-.224c.012-.037.015-.076.008-.114s-.023-.074-.048-.104c-.07-.084-.157-.15-.255-.198-.25-.133-.538-.18-.82-.137-.288.03-.567.12-.82.262a2.27 2.27 0 0 0-.532.403.96.96 0 0 0-.248.475c-.03.137-.05.277-.054.418 0 .1.01.26.03.48l.122 1.1a4.09 4.09 0 0 1 .003.828c-.03.268-.1.53-.2.78-.125.298-.31.568-.543.79-.292.284-.62.528-.978.727-.843.473-1.79.728-2.757.74a6.31 6.31 0 0 1-2.923-.583l-1.445.834-.74-.427z" class="B"/><use xlink:href="#B" y="-3.711" class="E"/><use xlink:href="#I" class="B"/><use xlink:href="#C" y="-3.712" class="C"/><path d="M336.23 254.22a11.15 11.15 0 0 0-.984-1.426v11.143c.365-.448.695-.926.984-1.427v-8.3zm-37.578-5.12a17.87 17.87 0 0 0-3.17 2.303v13.938l.984.834V251.06h1.856v16.37l.33.2.654.36v-16.93h1.856v17.822l.984.4V251.06h1.856v18.864l.985.286v-19.15h1.855v19.6l.985.194V251.06h1.856v20.084l.984.115v-20.2h1.856v20.35l.985.04v-20.4h1.855v20.4l.985-.03v-20.37h1.856v20.25l.984-.1v-20.15h1.856v19.9l.985-.18v-19.7h1.855v19.3l.985-.268v-19.02h1.856v18.42l.984-.377V251.06h1.856v17.204l.985-.523v-16.68h1.855v15.503l.985-.766V251.06h.164c-.87-.742-1.8-1.4-2.804-1.97-2.185-1.23-4.528-2.153-6.965-2.743h-18.17a27.29 27.29 0 0 0-6.964 2.743h0zm-5.026 4.402a10.03 10.03 0 0 0-.698 1.15h-.286v6.796a9.76 9.76 0 0 0 .984 1.782v-9.728z" class="D C"/><use xlink:href="#E" y="-3.712" class="B"/><g class="F"><path d="M319.786 256.892c6.526-3.77 8.24-9.26 5.158-13.94-8.515-2.488-19.177-1.68-26.292 2.43-6.525 3.77-8.24 9.26-5.158 13.94 8.516 2.488 19.177 1.68 26.292-2.43z" class="G"/><path d="M330.752 263.922c-8.864 5.12-23.235 5.12-32.1-.001-4.283-2.474-6.5-5.7-6.634-8.932-.154 3.467 2.053 6.962 6.634 9.608 8.864 5.12 23.235 5.12 32.1.001 4.58-2.646 6.788-6.14 6.634-9.608-.144 3.242-2.35 6.458-6.634 8.932z" class="H"/></g><use xlink:href="#G" y="-3.711" class="C"/><g class="E"><use xlink:href="#H" y="-3.712"/><path d="M322.626 250.257l-1.25.357.355.14-1.22.705a6.88 6.88 0 0 0-3.091-.723c-1.047 0-2.074.278-2.978.806-.324.18-.626.4-.898.652a1.91 1.91 0 0 0-.482.689c-.085.21-.138.434-.158.66-.014.24-.004.478.028.715l.144 1.137c.04.264.05.532.03.798-.035.234-.128.456-.27.646a2.17 2.17 0 0 1-.715.612 1.44 1.44 0 0 1-.75.274 1.45 1.45 0 0 1-.781-.162c-.34-.196-.427-.44-.26-.735.367-.462.83-.836 1.36-1.096v-.854l-1.068.4-1.535-.652a4.98 4.98 0 0 0-1.82 1.636l-.175-.197v.837h.003c.006.575.444 1.14 1.323 1.698l-.607.35-.824-.378v.854l.74.428 1.445-.835a6.31 6.31 0 0 0 2.923.583c.966-.013 1.914-.268 2.757-.74a4.64 4.64 0 0 0 .978-.726 2.35 2.35 0 0 0 .543-.792c.102-.25.17-.512.2-.78a4.1 4.1 0 0 0-.003-.829l-.122-1.1-.03-.48c.005-.14.023-.28.054-.417.036-.18.122-.344.248-.476.157-.16.336-.295.532-.403a2.18 2.18 0 0 1 .82-.262 1.32 1.32 0 0 1 .819.138c.098.046.185.114.255.197.03.04.046.09.045.142l-1.27.265v.853l2.574 1.147.564-.372a5.45 5.45 0 0 0 .518-.416c.16-.14.304-.295.43-.464.1-.153.193-.323.245-.503.024-.083.038-.17.042-.255l.003-.003v-.898l-.328.068c-.005-.006-.007-.01-.012-.017-.198-.23-.43-.427-.687-.587l1.352-.78v-.854z"/></g><path d="M306.987 258.575l1.43-.826c-.978-.62-1.415-1.25-1.312-1.892s.763-1.335 1.98-2.082l2.603 1.104a3.98 3.98 0 0 0-1.36 1.097c-.167.293-.08.538.26.734a1.46 1.46 0 0 0 1.531-.111c.28-.15.524-.36.715-.613.142-.19.235-.41.27-.646.022-.266.012-.534-.03-.797l-.144-1.138c-.032-.237-.042-.476-.028-.715.02-.226.073-.45.158-.66a1.92 1.92 0 0 1 .482-.689c.272-.253.574-.472.898-.652.904-.527 1.93-.805 2.978-.806a6.88 6.88 0 0 1 3.091.723l1.36-.785.755.436-1.352.78c.257.16.49.358.687.587.145.163.25.355.313.563a1.03 1.03 0 0 1-.018.542 1.62 1.62 0 0 1-.245.503 3.06 3.06 0 0 1-.431.465 5.44 5.44 0 0 1-.518.415l-.564.372-2.574-1.146.482-.3.38-.266a1.54 1.54 0 0 0 .281-.254.68.68 0 0 0 .122-.224c.012-.037.015-.076.008-.114s-.023-.074-.048-.104c-.07-.083-.157-.15-.255-.197-.25-.133-.538-.18-.82-.137a2.16 2.16 0 0 0-.82.261c-.196.108-.375.244-.532.403-.126.132-.212.297-.248.476-.03.137-.05.277-.054.417 0 .1.01.26.03.482l.122 1.1a4.09 4.09 0 0 1 .003.828c-.03.268-.1.53-.2.78-.125.298-.31.567-.543.79a4.61 4.61 0 0 1-.978.726c-.843.473-1.79.728-2.757.742-1.007.042-2.01-.158-2.923-.584l-1.445.835-.74-.428z" class="B"/><path d="M337.4 250.94h-.924c-1.036-2.036-2.943-3.955-5.724-5.562-8.864-5.12-23.236-5.12-32.1 0-2.782 1.606-4.69 3.526-5.725 5.562h-.923v3.708c0 3.355 2.216 6.7 6.648 9.27 8.864 5.12 23.235 5.12 32.1 0 4.432-2.56 6.648-5.915 6.648-9.27v-3.708z" class="E"/><use xlink:href="#I" y="-3.71" class="B"/><path d="M330.814 263.882c4.4-2.556 6.586-5.894 6.586-9.233v-3.708h-.924a13.24 13.24 0 0 0-4.556-4.829h-1.106v17.77z" class="C"/><path d="M336.232 250.5a10.88 10.88 0 0 0-.985-1.425v11.143a10.91 10.91 0 0 0 .985-1.428v-8.3zm-37.58-5.12c-1.138.65-2.2 1.422-3.17 2.304v13.937l.985.835V247.35h1.856v16.37l.33.2.654.36v-16.93h1.856v17.822l.985.402V247.35h1.855v18.864l.985.287v-19.15h1.856v19.6l.984.195V247.35h1.856v20.084l.985.116v-20.2h1.855v20.35l.985.04v-20.4h1.856v20.402l.984-.03V247.35h1.856v20.25l.985-.1v-20.152h1.856v19.9l.984-.18v-19.7h1.856v19.3l.984-.268v-19.022h1.856v18.42l.985-.377V247.37h1.856v17.204l.984-.522V247.37h1.856v15.504l.984-.766V247.37h.165a18.45 18.45 0 0 0-2.804-1.968 27.34 27.34 0 0 0-6.965-2.744h-18.17a27.35 27.35 0 0 0-6.964 2.743h0zm-5.026 4.412c-.258.367-.492.75-.7 1.15h-.286v6.797c.265.627.595 1.224.985 1.782v-9.728z" class="D C"/><use xlink:href="#E" y="-7.424" class="B"/><g class="F"><use xlink:href="#J" class="G"/><use xlink:href="#F" y="-7.423" class="H"/></g><use xlink:href="#G" y="-7.423" class="C"/><path d="M303.3 245.2c6.3-3.634 16.493-3.633 22.784.001 2.96 1.7 4.526 3.917 4.702 6.155.198-2.52-1.368-5.08-4.702-7.005-6.3-3.634-16.493-3.634-22.784 0-3.333 1.925-4.9 4.483-4.702 7.004.177-2.238 1.743-4.446 4.702-6.155zm19.326 1.347l-1.25.358.355.14-1.22.705a6.88 6.88 0 0 0-3.091-.723c-1.047 0-2.074.278-2.978.806a4.64 4.64 0 0 0-.898.652 1.91 1.91 0 0 0-.482.689c-.085.2-.138.434-.158.66a3.71 3.71 0 0 0 .028.715l.144 1.137a3.55 3.55 0 0 1 .03.798c-.035.234-.128.456-.27.646a2.17 2.17 0 0 1-.715.612 1.44 1.44 0 0 1-.75.274 1.45 1.45 0 0 1-.781-.162c-.34-.196-.427-.44-.26-.735.367-.462.83-.836 1.36-1.096v-.854l-1.068.4-1.535-.652a4.98 4.98 0 0 0-1.82 1.636l-.175-.197v.837h.003c.006.575.444 1.14 1.323 1.698l-.607.35-.824-.378v.854l.74.428 1.445-.835a6.31 6.31 0 0 0 2.923.583c.966-.013 1.914-.268 2.757-.74a4.64 4.64 0 0 0 .978-.726 2.35 2.35 0 0 0 .543-.792c.102-.25.17-.512.2-.78a4.1 4.1 0 0 0-.003-.829l-.122-1.1-.03-.48c.005-.14.023-.28.054-.417a.96.96 0 0 1 .248-.476c.157-.16.336-.295.532-.403a2.18 2.18 0 0 1 .82-.262 1.32 1.32 0 0 1 .819.138c.098.046.185.114.255.197a.23.23 0 0 1 .045.142l-1.27.265v.853l2.574 1.146.564-.37a5.45 5.45 0 0 0 .518-.416c.16-.14.304-.295.43-.464.1-.153.193-.323.245-.503.024-.083.038-.17.042-.255l.003-.003v-.898l-.328.068c-.005-.006-.007-.01-.012-.017a2.99 2.99 0 0 0-.687-.587l1.352-.78v-.854z" class="E"/><path d="M306.987 254.865l1.43-.826c-.978-.62-1.415-1.25-1.312-1.892s.763-1.335 1.98-2.082l2.603 1.104a3.98 3.98 0 0 0-1.36 1.097c-.167.293-.08.538.26.734a1.46 1.46 0 0 0 1.531-.111c.28-.15.524-.36.715-.613.142-.19.235-.41.27-.646.022-.266.012-.533-.03-.797l-.144-1.138c-.032-.236-.042-.476-.028-.714.02-.227.073-.45.158-.66a1.92 1.92 0 0 1 .482-.689 4.68 4.68 0 0 1 .898-.652c.904-.527 1.93-.805 2.978-.806 1.072-.003 2.13.245 3.09.723l1.36-.785.755.436-1.352.78c.257.16.49.36.687.588a1.47 1.47 0 0 1 .313.562 1.03 1.03 0 0 1-.018.542 1.62 1.62 0 0 1-.245.503 3.06 3.06 0 0 1-.431.465 5.29 5.29 0 0 1-.518.415l-.564.372-2.574-1.146.482-.3.38-.266a1.54 1.54 0 0 0 .281-.254.68.68 0 0 0 .122-.224c.012-.036.015-.076.008-.114s-.023-.074-.048-.104c-.07-.083-.157-.15-.255-.197-.25-.133-.538-.18-.82-.137a2.16 2.16 0 0 0-.82.261c-.196.108-.375.244-.532.403-.126.132-.212.297-.248.476-.03.137-.05.277-.054.417 0 .1.01.26.03.482l.122 1.1a4.09 4.09 0 0 1 .003.828c-.03.268-.1.53-.2.78-.125.298-.31.567-.543.79a4.61 4.61 0 0 1-.978.726c-.843.473-1.79.728-2.757.742-1.007.042-2.01-.158-2.923-.584l-1.445.835-.74-.428z" class="B"/><path d="M337.4 247.23h-.924c-1.036-2.036-2.943-3.956-5.724-5.562-8.864-5.12-23.236-5.12-32.1 0-2.782 1.606-4.69 3.526-5.725 5.562h-.923v3.708c0 3.355 2.216 6.71 6.648 9.27 8.864 5.12 23.235 5.12 32.1.001 4.432-2.56 6.648-5.915 6.648-9.27v-3.708z" class="E"/><path d="M309.78 238.143c-3.904.437-7.684 1.635-11.127 3.525-2.782 1.607-4.69 3.526-5.725 5.562h-.923v3.708c0 3.355 2.216 6.7 6.648 9.27a30.06 30.06 0 0 0 11.127 3.525v-25.6z" class="B"/><use xlink:href="#K" class="C"/><path d="M336.23 246.798a11.08 11.08 0 0 0-.984-1.426v11.143c.365-.45.695-.926.984-1.428v-8.3zm-37.578-5.13a17.89 17.89 0 0 0-3.17 2.304v13.937l.984.835v-15.107h1.856v16.37l.33.2.654.36v-16.93h1.856v17.822l.984.402v-18.224h1.856V262.5l.985.287v-19.15h1.855v19.6l.985.195v-19.794h1.856v20.084l.984.116v-20.2h1.856v20.35l.985.04v-20.4h1.855v20.402l.985-.03v-20.373h1.856v20.252l.984-.1v-20.152h1.856v19.9l.985-.18v-19.7h1.855v19.3l.985-.268v-19.022h1.856v18.42l.984-.377v-18.042h1.856v17.204l.985-.522v-16.682h1.855v15.504l.985-.766v-14.738h.164a18.4 18.4 0 0 0-2.804-1.968c-2.185-1.23-4.528-2.153-6.965-2.744h-18.17c-2.436.6-4.78 1.514-6.964 2.743h0zm-5.026 4.413a10.09 10.09 0 0 0-.698 1.15h-.286v6.797a9.76 9.76 0 0 0 .984 1.782v-9.728z" class="D C"/><use xlink:href="#E" y="-11.134" class="B"/><g class="F"><use xlink:href="#J" y="-3.71" class="G"/><path d="M330.752 256.5c-8.864 5.12-23.235 5.12-32.1 0-4.283-2.474-6.5-5.69-6.634-8.932-.154 3.467 2.053 6.962 6.634 9.608 8.864 5.12 23.235 5.12 32.1 0 4.58-2.645 6.788-6.14 6.634-9.607-.144 3.24-2.35 6.458-6.634 8.93z" class="H"/></g><use xlink:href="#G" y="-11.133" class="C"/><path d="M303.3 241.5c6.3-3.634 16.493-3.634 22.784 0 2.96 1.7 4.526 3.918 4.702 6.156.198-2.522-1.368-5.08-4.702-7.006-6.3-3.634-16.493-3.634-22.784 0-3.333 1.925-4.9 4.484-4.702 7.005.177-2.238 1.743-4.446 4.702-6.155zm19.326 1.335l-1.25.358.355.14-1.22.704a6.88 6.88 0 0 0-3.091-.723c-1.047 0-2.074.28-2.978.806a4.64 4.64 0 0 0-.898.652 1.91 1.91 0 0 0-.482.689c-.085.2-.138.434-.158.66a3.71 3.71 0 0 0 .028.715l.144 1.137a3.55 3.55 0 0 1 .03.798c-.035.234-.128.456-.27.646a2.17 2.17 0 0 1-.715.612 1.44 1.44 0 0 1-.75.274 1.45 1.45 0 0 1-.781-.162c-.34-.196-.427-.44-.26-.734a3.98 3.98 0 0 1 1.36-1.097v-.854l-1.068.4-1.535-.652a4.98 4.98 0 0 0-1.82 1.636l-.175-.197v.837h.003c.006.575.444 1.14 1.323 1.7l-.607.35-.824-.378v.854l.74.428 1.445-.835a6.32 6.32 0 0 0 2.923.584 5.82 5.82 0 0 0 2.757-.742 4.61 4.61 0 0 0 .978-.726 2.35 2.35 0 0 0 .543-.792c.102-.25.17-.512.2-.78a4.1 4.1 0 0 0-.003-.829l-.122-1.1-.03-.482c.005-.14.023-.28.054-.417a.96.96 0 0 1 .248-.476c.157-.16.336-.295.532-.403a2.18 2.18 0 0 1 .82-.262 1.32 1.32 0 0 1 .819.138c.098.046.185.114.255.197a.23.23 0 0 1 .045.142l-1.27.265v.854l2.574 1.146.564-.372a5.3 5.3 0 0 0 .518-.416c.16-.14.304-.295.43-.464.1-.153.193-.323.245-.503.024-.083.038-.17.042-.255l.003-.003v-.898l-.328.068c-.005-.006-.007-.01-.012-.017a2.99 2.99 0 0 0-.687-.587l1.352-.78v-.854z" class="E"/><path d="M306.987 251.153l1.43-.826c-.978-.62-1.415-1.25-1.312-1.892s.763-1.335 1.98-2.082l2.603 1.104a3.98 3.98 0 0 0-1.36 1.097c-.167.293-.08.538.26.735a1.47 1.47 0 0 0 .781.162 1.46 1.46 0 0 0 .75-.274c.28-.15.524-.36.715-.613.142-.19.235-.41.27-.646.022-.266.012-.533-.03-.797l-.144-1.138c-.032-.236-.042-.476-.028-.714.02-.227.073-.45.158-.66a1.92 1.92 0 0 1 .482-.689 4.68 4.68 0 0 1 .898-.652c.904-.527 1.93-.805 2.978-.806 1.072-.003 2.13.245 3.09.723l1.36-.785.755.436-1.352.78c.257.16.49.36.687.588a1.47 1.47 0 0 1 .313.562 1.03 1.03 0 0 1-.018.543c-.052.18-.135.35-.245.502a3.06 3.06 0 0 1-.431.465 5.29 5.29 0 0 1-.518.415l-.564.372-2.574-1.146.482-.3.38-.266a1.54 1.54 0 0 0 .281-.254.68.68 0 0 0 .122-.224c.012-.036.015-.076.008-.114s-.023-.074-.048-.104c-.07-.083-.157-.15-.255-.197-.25-.133-.538-.18-.82-.137a2.16 2.16 0 0 0-.82.261c-.196.108-.375.244-.532.403-.126.132-.212.297-.248.476-.03.137-.05.277-.054.417 0 .1.01.26.03.482l.122 1.1a4.09 4.09 0 0 1 .003.828c-.03.268-.1.53-.2.78-.125.298-.31.567-.543.79a4.61 4.61 0 0 1-.978.726c-.843.473-1.79.728-2.757.742-1.007.042-2.01-.158-2.923-.584l-1.445.835-.74-.428z" class="B"/><path d="M337.4 243.518h-.924c-1.036-2.036-2.943-3.956-5.724-5.562-8.864-5.12-23.236-5.12-32.1 0-2.782 1.606-4.69 3.526-5.725 5.562h-.923v3.708c0 3.355 2.216 6.7 6.648 9.27 8.864 5.12 23.235 5.12 32.1.001 4.432-2.56 6.648-5.915 6.648-9.27v-3.708z" class="E"/><use xlink:href="#L" class="B"/><use xlink:href="#K" y="-3.712" class="C"/><g class="C D"><use xlink:href="#D" y="-14.844" class="D"/><path d="M298.653 237.956c-1.138.65-2.2 1.422-3.17 2.304v13.937l.985.835v-15.106h1.856v16.37l.33.2.654.36v-16.93h1.856v17.82l.985.402v-18.223h1.855v18.863l.985.287v-19.15h1.856v19.598l.984.195v-19.793h1.856v20.083l.985.116v-20.2h1.855v20.35l.985.04v-20.4h1.856v20.4l.984-.03v-20.372h1.856v20.25l.985-.1v-20.15h1.856v19.9l.984-.18v-19.7h1.856v19.3l.984-.268v-19.02h1.856v18.418l.985-.377v-18.04h1.856v17.203l.984-.522v-16.68h1.856v15.503l.984-.766v-14.737h.165c-.872-.742-1.8-1.4-2.804-1.97a27.34 27.34 0 0 0-6.965-2.744h-18.17a27.35 27.35 0 0 0-6.964 2.743zm-5.026 4.414a10.28 10.28 0 0 0-.7 1.15h-.286v6.796c.265.627.595 1.225.985 1.783v-9.73z" class="D"/></g><use xlink:href="#M" class="B"/><g class="F"><path d="M319.787 245.76c6.525-3.768 8.24-9.26 5.158-13.938-8.516-2.488-19.177-1.68-26.292 2.428-6.526 3.77-8.24 9.26-5.158 13.94 8.515 2.488 19.177 1.68 26.292-2.43z" class="G"/><path d="M330.752 252.788c-8.864 5.12-23.235 5.12-32.1-.001-4.283-2.473-6.5-5.7-6.634-8.932-.154 3.467 2.053 6.963 6.634 9.608 8.864 5.12 23.235 5.12 32.1.001 4.58-2.646 6.788-6.14 6.634-9.608-.144 3.242-2.35 6.458-6.634 8.932z" class="H"/></g><use xlink:href="#G" y="-14.846" class="C"/><path d="M303.3 237.787c6.3-3.634 16.493-3.634 22.784 0 2.96 1.7 4.526 3.918 4.702 6.156.198-2.52-1.368-5.08-4.702-7.005-6.3-3.635-16.493-3.635-22.784-.001-3.333 1.925-4.9 4.484-4.702 7.005.177-2.238 1.743-4.446 4.702-6.155zm19.326 1.337l-1.25.357.355.14-1.22.705a6.87 6.87 0 0 0-3.091-.723 5.91 5.91 0 0 0-2.978.805 4.6 4.6 0 0 0-.898.653 1.91 1.91 0 0 0-.482.689 2.3 2.3 0 0 0-.158.66 3.71 3.71 0 0 0 .028.715l.144 1.137a3.55 3.55 0 0 1 .03.798c-.035.234-.128.456-.27.646-.2.253-.435.462-.715.612a1.46 1.46 0 0 1-.75.274 1.45 1.45 0 0 1-.781-.162c-.34-.197-.427-.442-.26-.735a3.98 3.98 0 0 1 1.36-1.097v-.853l-1.068.4-1.535-.652a4.97 4.97 0 0 0-1.82 1.636l-.175-.197v.836h.003c.006.574.444 1.14 1.323 1.698l-.607.35-.824-.378v.854l.74.427 1.445-.834a6.31 6.31 0 0 0 2.923.583c.966-.014 1.914-.268 2.757-.74a4.68 4.68 0 0 0 .978-.727 2.35 2.35 0 0 0 .543-.79c.102-.25.17-.513.2-.78a4.09 4.09 0 0 0-.003-.828l-.122-1.1-.03-.48a2.28 2.28 0 0 1 .054-.418.97.97 0 0 1 .248-.476 2.29 2.29 0 0 1 .532-.402 2.16 2.16 0 0 1 .82-.262 1.32 1.32 0 0 1 .82.137c.098.047.185.114.255.198a.23.23 0 0 1 .045.142l-1.27.265v.853l2.574 1.146.564-.37a5.45 5.45 0 0 0 .518-.416 2.96 2.96 0 0 0 .43-.465c.1-.152.193-.322.245-.502.024-.083.038-.17.042-.255l.003-.003v-.898l-.328.068c-.005-.006-.007-.01-.012-.017a3.02 3.02 0 0 0-.687-.588l1.352-.78v-.854z" class="E"/><path d="M306.987 247.442l1.43-.827c-.978-.62-1.415-1.25-1.312-1.89s.763-1.335 1.98-2.083l2.603 1.105c-.53.26-.993.634-1.36 1.096-.167.294-.08.54.26.735a1.45 1.45 0 0 0 1.531-.112 2.17 2.17 0 0 0 .715-.612c.142-.2.235-.412.27-.646.022-.266.012-.534-.03-.798l-.144-1.137c-.032-.237-.042-.476-.028-.715.02-.226.073-.45.158-.66a1.91 1.91 0 0 1 .482-.689c.272-.253.574-.472.898-.652.904-.528 1.93-.806 2.978-.806a6.88 6.88 0 0 1 3.091.723l1.36-.785.755.436-1.352.78c.257.16.49.358.687.587.145.162.25.355.313.563a1.03 1.03 0 0 1-.018.542c-.052.18-.135.35-.245.502a2.97 2.97 0 0 1-.431.465 5.45 5.45 0 0 1-.518.416l-.564.37-2.574-1.146.482-.3.38-.266c.104-.072.198-.158.28-.253a.68.68 0 0 0 .122-.224c.012-.037.015-.076.008-.114s-.023-.074-.048-.104c-.07-.084-.157-.15-.255-.198a1.33 1.33 0 0 0-.819-.137 2.18 2.18 0 0 0-.82.262c-.196.108-.375.243-.532.403-.126.132-.212.297-.248.475a2.27 2.27 0 0 0-.054.418c0 .1.01.26.03.48l.122 1.1a4.1 4.1 0 0 1 .003.829c-.03.268-.1.53-.2.78a2.36 2.36 0 0 1-.543.792 4.64 4.64 0 0 1-.978.726c-.843.473-1.79.728-2.757.74a6.31 6.31 0 0 1-2.923-.583l-1.445.835-.74-.428z" class="B"/><use xlink:href="#B" y="-18.555" class="E"/><use xlink:href="#L" y="-3.71" class="B"/><path d="M330.814 252.75c4.4-2.555 6.586-5.894 6.586-9.233v-3.708h-.924a13.25 13.25 0 0 0-4.556-4.829h-1.106v17.77z" class="C"/><path d="M336.23 239.377a11.08 11.08 0 0 0-.984-1.426v11.143a10.96 10.96 0 0 0 .984-1.427v-8.3zm-37.578-5.13a17.97 17.97 0 0 0-3.17 2.303v13.938l.984.834v-15.106h1.856v16.37l.33.2.654.36v-16.93h1.856v17.822l.984.402v-18.224h1.856v18.864l.985.287v-19.15h1.855v19.6l.985.194v-19.793h1.856V256.3l.984.116v-20.2h1.856v20.35l.985.04v-20.4h1.855v20.4l.985-.03v-20.372h1.856v20.252l.984-.1v-20.15h1.856v19.9l.985-.18v-19.7h1.855v19.3l.985-.268v-19.02h1.856v18.42l.984-.377V236.22h1.856v17.204l.985-.523v-16.68h1.855v15.503l.985-.765V236.22h.164c-.87-.742-1.8-1.4-2.804-1.97-2.185-1.23-4.528-2.153-6.965-2.743h-18.17a27.29 27.29 0 0 0-6.964 2.743h0zm-5.026 4.412c-.258.368-.5.752-.698 1.15h-.286v6.796a9.77 9.77 0 0 0 .984 1.783v-9.73z" class="D C"/><path d="M330.753 249.078c-8.864 5.12-23.235 5.12-32.1 0s-8.864-13.42 0-18.54 23.235-5.12 32.1.001 8.864 13.42 0 18.54z" class="B"/><g class="F"><use xlink:href="#J" x="0.001" y="-11.13" class="G"/><path d="M330.752 249.078c-8.864 5.12-23.235 5.12-32.1 0-4.283-2.474-6.5-5.69-6.634-8.932-.154 3.466 2.053 6.962 6.634 9.608 8.864 5.12 23.235 5.12 32.1 0 4.58-2.646 6.788-6.14 6.634-9.607-.144 3.24-2.35 6.457-6.634 8.93z" class="H"/></g><use xlink:href="#G" y="-18.555" class="C"/><path d="M303.3 234.078c6.3-3.634 16.493-3.634 22.784 0 2.96 1.7 4.526 3.917 4.702 6.155.198-2.52-1.368-5.08-4.702-7.005-6.3-3.634-16.493-3.634-22.784 0-3.333 1.925-4.9 4.483-4.702 7.004.177-2.237 1.743-4.446 4.702-6.154zm19.326 1.336l-1.25.357.355.14-1.22.704a6.88 6.88 0 0 0-3.091-.723c-1.047.001-2.074.28-2.978.806a4.64 4.64 0 0 0-.898.652 1.92 1.92 0 0 0-.482.689c-.085.2-.138.434-.158.66a3.71 3.71 0 0 0 .028.714l.144 1.138a3.54 3.54 0 0 1 .03.797c-.035.235-.128.457-.27.646-.2.254-.435.463-.715.613a1.45 1.45 0 0 1-1.531.111c-.34-.196-.427-.44-.26-.734a3.98 3.98 0 0 1 1.36-1.097v-.854l-1.068.4-1.535-.65a4.97 4.97 0 0 0-1.82 1.635l-.175-.197v.837h.003c.006.575.444 1.14 1.323 1.7l-.607.35-.824-.377v.853l.74.428 1.445-.835c.914.426 1.916.626 2.923.584a5.82 5.82 0 0 0 2.757-.742 4.61 4.61 0 0 0 .978-.726 2.36 2.36 0 0 0 .543-.79c.102-.25.17-.513.2-.78a4.1 4.1 0 0 0-.003-.829l-.122-1.1-.03-.482c.005-.14.023-.28.054-.417a.96.96 0 0 1 .248-.476c.157-.16.336-.295.532-.403a2.16 2.16 0 0 1 .82-.261 1.32 1.32 0 0 1 .82.137c.098.046.185.114.255.197a.23.23 0 0 1 .045.143l-1.27.264v.854l2.574 1.146.564-.372a5.44 5.44 0 0 0 .518-.415 3.06 3.06 0 0 0 .431-.465 1.63 1.63 0 0 0 .245-.503c.024-.083.038-.168.042-.255l.003-.003v-.898l-.328.068c-.005-.005-.007-.01-.012-.017a2.99 2.99 0 0 0-.687-.587l1.352-.78v-.853z" class="E"/><path d="M306.987 243.732l1.43-.827c-.978-.62-1.415-1.25-1.312-1.89s.763-1.335 1.98-2.083l2.603 1.105c-.53.26-.993.634-1.36 1.096-.167.294-.08.54.26.735a1.45 1.45 0 0 0 .781.162 1.44 1.44 0 0 0 .75-.274 2.17 2.17 0 0 0 .715-.612c.142-.2.235-.412.27-.646.022-.266.012-.534-.03-.798l-.144-1.137c-.032-.237-.042-.476-.028-.715.02-.226.073-.45.158-.66a1.91 1.91 0 0 1 .482-.689c.272-.253.574-.472.898-.652.904-.528 1.93-.806 2.978-.806a6.88 6.88 0 0 1 3.091.723l1.36-.785.755.436-1.352.78c.257.16.49.358.687.587.145.163.25.355.313.563a1.03 1.03 0 0 1-.018.542c-.052.18-.135.35-.245.503-.127.17-.27.325-.43.464a5.45 5.45 0 0 1-.518.416l-.564.372-2.574-1.147.482-.3.38-.265a1.54 1.54 0 0 0 .281-.254.68.68 0 0 0 .122-.224c.012-.037.015-.076.008-.114s-.023-.074-.048-.104c-.07-.083-.157-.15-.255-.197a1.32 1.32 0 0 0-.819-.138 2.18 2.18 0 0 0-.82.262c-.196.108-.375.243-.532.403-.126.132-.212.297-.248.476-.03.137-.05.276-.054.417 0 .1.01.26.03.48l.122 1.1a4.1 4.1 0 0 1 .003.829c-.03.268-.1.53-.2.78a2.35 2.35 0 0 1-.543.792 4.61 4.61 0 0 1-.978.726c-.843.473-1.79.728-2.757.742a6.32 6.32 0 0 1-2.923-.584l-1.445.835-.74-.428z" class="B"/><path d="M339.022 236.097h-.924c-1.036-2.036-2.943-3.955-5.724-5.56-8.864-5.12-23.236-5.12-32.1-.001-2.78 1.607-4.69 3.526-5.725 5.562h-.923v3.708c0 3.355 2.216 6.7 6.648 9.27 8.864 5.12 23.235 5.12 32.1 0 4.432-2.56 6.648-5.915 6.648-9.27v-3.708z" class="E"/><path d="M311.402 227c-3.904.437-7.684 1.635-11.127 3.525-2.78 1.606-4.69 3.526-5.725 5.562h-.923v3.708c0 3.355 2.216 6.7 6.648 9.27 3.443 1.9 7.223 3.088 11.127 3.525V227z" class="B"/><path d="M332.436 249.038c4.4-2.555 6.586-5.894 6.586-9.233v-3.708h-.923a13.25 13.25 0 0 0-4.557-4.828h-1.106v17.77z" class="C"/><path d="M337.854 235.666a10.88 10.88 0 0 0-.985-1.425v11.143a10.91 10.91 0 0 0 .985-1.428v-8.3zm-37.58-5.13a17.97 17.97 0 0 0-3.17 2.303v13.938l.985.835v-15.107h1.856v16.37l.33.2.654.36v-16.93h1.856v17.822l.985.402v-18.224h1.855v18.864l.985.287v-19.15h1.856v19.6l.984.195v-19.794h1.856V252.6l.985.116v-20.2h1.856v20.35l.984.04v-20.4h1.856v20.4l.984-.03v-20.372h1.856v20.252l.985-.1v-20.15h1.856v19.9l.984-.18v-19.7h1.856v19.3l.984-.27v-19.02h1.856v18.42l.985-.377v-18.042h1.856v17.204l.984-.523v-16.68h1.856v15.503l.984-.765v-14.738h.165c-.872-.742-1.8-1.4-2.804-1.97-2.185-1.23-4.53-2.153-6.965-2.743h-18.17a27.28 27.28 0 0 0-6.964 2.743zm-5.025 4.412c-.258.368-.5.752-.7 1.15h-.286v6.797a9.74 9.74 0 0 0 .985 1.782v-9.73z" class="D C"/><use xlink:href="#M" x="1.621" y="-7.422" class="B"/><g class="F"><path d="M321.41 238.338c6.525-3.77 8.24-9.26 5.158-13.94-8.516-2.488-19.177-1.68-26.292 2.428-6.526 3.77-8.24 9.26-5.158 13.94 8.515 2.49 19.177 1.68 26.292-2.428z" class="G"/><path d="M332.374 245.367c-8.864 5.12-23.235 5.12-32.1-.001-4.283-2.474-6.5-5.7-6.634-8.932-.154 3.467 2.053 6.962 6.634 9.608 8.864 5.12 23.235 5.12 32.1 0 4.58-2.645 6.788-6.14 6.634-9.607-.144 3.24-2.35 6.458-6.634 8.932z" class="H"/></g><path d="M327.717 242.677c-6.29 3.634-16.493 3.634-22.785 0s-6.292-9.526 0-13.16 16.493-3.634 22.785 0 6.292 9.526 0 13.16z" class="C"/><path d="M304.932 230.367c6.3-3.634 16.493-3.634 22.785 0 2.96 1.7 4.525 3.917 4.7 6.155.198-2.52-1.368-5.08-4.7-7.005-6.292-3.634-16.494-3.634-22.785 0-3.333 1.925-4.9 4.483-4.7 7.004.176-2.237 1.742-4.446 4.7-6.154zm19.316 1.336l-1.25.357.355.14-1.22.705a6.87 6.87 0 0 0-3.091-.723c-1.047 0-2.074.278-2.978.806a4.64 4.64 0 0 0-.898.652 1.91 1.91 0 0 0-.482.689 2.3 2.3 0 0 0-.158.66 3.71 3.71 0 0 0 .028.715l.144 1.137a3.55 3.55 0 0 1 .03.798c-.035.234-.128.456-.27.646-.2.253-.435.462-.715.612a1.46 1.46 0 0 1-.749.274 1.45 1.45 0 0 1-.782-.162c-.34-.197-.427-.44-.26-.735.366-.462.83-.836 1.36-1.096v-.854l-1.067.4-1.536-.652a4.97 4.97 0 0 0-1.82 1.636l-.175-.197v.836h.003c.006.574.444 1.14 1.323 1.698l-.607.35-.824-.378v.854l.74.427 1.445-.834a6.31 6.31 0 0 0 2.923.583 5.79 5.79 0 0 0 2.757-.741 4.68 4.68 0 0 0 .979-.727 2.36 2.36 0 0 0 .542-.79c.102-.25.17-.512.2-.78a4.09 4.09 0 0 0-.003-.828l-.122-1.1-.03-.48a2.28 2.28 0 0 1 .054-.418c.036-.178.122-.343.248-.475.157-.16.336-.295.532-.403a2.16 2.16 0 0 1 .82-.262 1.32 1.32 0 0 1 .82.137c.098.047.185.114.255.198.03.04.046.1.046.142l-1.27.265v.853l2.574 1.146.564-.37a5.45 5.45 0 0 0 .518-.416 2.96 2.96 0 0 0 .43-.465c.1-.152.193-.322.245-.502.024-.083.038-.17.042-.255l.003-.003v-.898l-.328.068c-.005-.006-.007-.01-.012-.017a3.02 3.02 0 0 0-.687-.588l1.352-.78v-.854z" class="E"/><path d="M308.61 240.02l1.43-.826c-.978-.62-1.415-1.25-1.312-1.892s.763-1.335 1.98-2.082l2.603 1.104c-.53.26-.993.635-1.36 1.097-.168.293-.082.538.26.735a1.46 1.46 0 0 0 1.531-.112c.28-.15.524-.36.715-.613.143-.19.235-.41.27-.645a3.38 3.38 0 0 0-.029-.798l-.144-1.137a3.72 3.72 0 0 1-.028-.715 2.32 2.32 0 0 1 .158-.661c.108-.262.272-.497.482-.688.272-.253.574-.472.898-.653a5.91 5.91 0 0 1 2.978-.805 6.88 6.88 0 0 1 3.091.722l1.36-.784.755.435-1.352.78c.257.16.49.36.687.588a1.47 1.47 0 0 1 .313.562 1.02 1.02 0 0 1-.018.543c-.052.18-.135.35-.245.502a3.06 3.06 0 0 1-.431.465 5.29 5.29 0 0 1-.518.415l-.564.372-2.574-1.146.482-.3.38-.266a1.6 1.6 0 0 0 .28-.253.7.7 0 0 0 .122-.224c.012-.037.015-.076.008-.115a.23.23 0 0 0-.048-.104c-.07-.083-.157-.15-.255-.197-.25-.133-.538-.18-.82-.137-.288.03-.567.12-.82.262a2.29 2.29 0 0 0-.532.402c-.126.132-.212.297-.248.476-.03.137-.05.277-.054.417 0 .1.01.26.03.482l.122 1.1a4.09 4.09 0 0 1 .003.828c-.03.268-.1.53-.2.78-.125.298-.31.567-.542.79a4.68 4.68 0 0 1-.979.727c-.843.473-1.8.727-2.757.74a6.31 6.31 0 0 1-2.923-.583l-1.445.834-.74-.428z" class="B"/><path d="M334.463 231.568h-.924c-1.036-2.035-2.943-3.955-5.724-5.56-8.864-5.12-23.236-5.12-32.1-.001-2.782 1.607-4.69 3.526-5.725 5.562h-.923v3.708c0 3.355 2.216 6.7 6.648 9.27 8.864 5.12 23.235 5.12 32.1 0 4.432-2.56 6.648-5.915 6.648-9.27v-3.708z" class="E"/><use xlink:href="#I" x="-2.937" y="-23.084" class="B"/><path d="M327.877 244.51c4.4-2.555 6.586-5.894 6.586-9.232v-3.708h-.924c-1.084-1.97-2.652-3.633-4.556-4.83h-1.106v17.77z" class="C"/><g class="C D"><use xlink:href="#D" x="-2.937" y="-26.794" class="D"/><path d="M295.716 226.007a17.87 17.87 0 0 0-3.17 2.303v13.938l.985.834v-15.106h1.856v16.37l.33.2.654.36v-16.93h1.856v17.822l.985.4v-18.223h1.855v18.864l.985.286v-19.15h1.856v19.6l.984.194v-19.793h1.856v20.084l.985.116v-20.2h1.855v20.35l.985.04v-20.4h1.856v20.4l.984-.03v-20.372h1.856v20.252l.985-.1v-20.15h1.855v19.9l.985-.18v-19.7h1.856v19.3l.984-.268v-19.02h1.856v18.42l.985-.377V227.98h1.855v17.204l.985-.523v-16.68h1.856v15.503l.984-.766V227.98h.165c-.872-.742-1.8-1.4-2.804-1.97a27.3 27.3 0 0 0-6.965-2.743h-18.17a27.28 27.28 0 0 0-6.964 2.743h0zm-5.016 4.413a10.04 10.04 0 0 0-.699 1.15h-.286v6.796c.265.627.595 1.224.985 1.782v-9.728z" class="D"/></g><use xlink:href="#E" x="-2.938" y="-26.796" class="B"/><g class="F"><path d="M316.85 233.808c6.526-3.768 8.24-9.26 5.158-13.938-8.515-2.49-19.177-1.68-26.292 2.428-6.525 3.77-8.24 9.26-5.158 13.94 8.516 2.488 19.177 1.68 26.292-2.43z" class="G"/><path d="M327.815 240.838c-8.864 5.12-23.235 5.12-32.1 0-4.283-2.474-6.5-5.69-6.634-8.932-.154 3.467 2.053 6.962 6.634 9.608 8.864 5.12 23.235 5.12 32.1 0 4.58-2.646 6.787-6.14 6.634-9.607-.144 3.24-2.35 6.457-6.634 8.93z" class="H"/></g><use xlink:href="#G" x="-2.937" y="-26.795" class="C"/><path d="M300.372 225.837c6.292-3.634 16.493-3.634 22.785.001 2.96 1.7 4.526 3.917 4.702 6.155.198-2.52-1.37-5.08-4.702-7.005-6.292-3.634-16.493-3.634-22.785 0-3.333 1.925-4.9 4.483-4.7 7.004.176-2.238 1.743-4.446 4.7-6.155zm19.318 1.336l-1.25.357.355.14-1.22.705a6.88 6.88 0 0 0-3.092-.723 5.9 5.9 0 0 0-2.977.806 4.64 4.64 0 0 0-.898.652 1.91 1.91 0 0 0-.482.689c-.085.2-.138.434-.158.66a3.71 3.71 0 0 0 .028.715l.144 1.137a3.55 3.55 0 0 1 .03.798c-.035.234-.128.456-.27.646a2.17 2.17 0 0 1-.715.612 1.45 1.45 0 0 1-1.531.112c-.34-.196-.427-.44-.26-.735.367-.462.83-.836 1.36-1.096v-.854l-1.068.4-1.535-.652a4.98 4.98 0 0 0-1.82 1.636l-.175-.197v.837h.003c.006.575.444 1.14 1.323 1.698l-.607.35-.824-.378v.854l.74.428 1.446-.835a6.31 6.31 0 0 0 2.923.583c.966-.013 1.914-.268 2.757-.74a4.64 4.64 0 0 0 .978-.726 2.36 2.36 0 0 0 .543-.792c.102-.25.17-.512.2-.78a4.1 4.1 0 0 0-.003-.829l-.122-1.1-.03-.48c.005-.14.023-.28.054-.417a.96.96 0 0 1 .248-.476c.157-.16.336-.295.532-.403a2.18 2.18 0 0 1 .82-.262 1.33 1.33 0 0 1 .819.137.77.77 0 0 1 .255.198.23.23 0 0 1 .045.142l-1.27.265v.853l2.574 1.146.564-.37a5.45 5.45 0 0 0 .518-.416 2.97 2.97 0 0 0 .431-.465c.1-.152.193-.322.245-.502.024-.083.038-.17.042-.255l.003-.003v-.898l-.328.068c-.005-.006-.007-.01-.012-.017a2.99 2.99 0 0 0-.687-.587l1.352-.78v-.854z" class="E"/><path d="M304.05 235.49l1.43-.826c-.978-.62-1.415-1.25-1.312-1.892s.763-1.335 1.98-2.082l2.603 1.104a3.98 3.98 0 0 0-1.36 1.097c-.167.293-.08.538.26.734a1.46 1.46 0 0 0 1.531-.111c.28-.15.524-.36.715-.613.142-.19.235-.41.27-.646.022-.266.012-.533-.03-.797l-.144-1.138a3.71 3.71 0 0 1-.028-.714c.02-.227.073-.45.158-.66a1.92 1.92 0 0 1 .482-.689 4.68 4.68 0 0 1 .898-.652 5.92 5.92 0 0 1 2.977-.806 6.88 6.88 0 0 1 3.092.723l1.36-.785.755.436-1.352.78a3.02 3.02 0 0 1 .687.588 1.47 1.47 0 0 1 .313.562 1.03 1.03 0 0 1-.018.542 1.62 1.62 0 0 1-.245.503 3.06 3.06 0 0 1-.431.465 5.29 5.29 0 0 1-.518.415l-.564.372-2.574-1.146.482-.3.38-.266a1.54 1.54 0 0 0 .281-.254.68.68 0 0 0 .122-.224c.012-.036.015-.076.008-.114s-.023-.074-.048-.104c-.07-.083-.157-.15-.255-.197-.25-.133-.538-.18-.82-.137a2.16 2.16 0 0 0-.82.261c-.196.108-.375.244-.532.403-.126.132-.212.297-.248.476-.03.137-.05.277-.054.417 0 .1.01.26.03.482l.122 1.1a4.09 4.09 0 0 1 .003.828c-.03.268-.1.53-.2.78-.125.298-.31.567-.543.79a4.61 4.61 0 0 1-.978.726c-.843.473-1.79.728-2.757.742-1.007.042-2.01-.158-2.923-.584l-1.446.835-.74-.428z" class="B"/><path d="M301.313 277.105h-.943c-1.06-2.08-3.008-4.042-5.85-5.684-9.058-5.23-23.744-5.23-32.802 0-2.84 1.64-4.79 3.603-5.85 5.684h-.944v3.79c0 3.428 2.265 6.857 6.794 9.472 9.058 5.232 23.744 5.232 32.8.001 4.53-2.616 6.794-6.045 6.793-9.473v-3.79z" class="E"/><path d="M273.09 267.818a30.74 30.74 0 0 0-11.371 3.603c-2.84 1.64-4.79 3.603-5.85 5.684h-.944v3.79c0 3.428 2.265 6.856 6.794 9.472a30.73 30.73 0 0 0 11.37 3.603v-26.15z" class="B"/><path d="M294.583 290.328c4.486-2.61 6.73-6.022 6.73-9.435v-3.79h-.944a13.53 13.53 0 0 0-4.656-4.934h-1.13v18.158z" class="C"/><path d="M300.12 276.664a11.12 11.12 0 0 0-1.006-1.456v11.386c.374-.458.7-.946 1.006-1.458v-8.472zm-38.4-5.244c-1.163.664-2.25 1.453-3.24 2.354v14.242l1.006.853v-15.437h1.896v16.728l.338.205.67.367v-17.3h1.896v18.212l1.006.4V273.43h1.896v19.27l1.007.293v-19.57h1.896v20.028l1.006.2v-20.227h1.896v20.524l1.006.118v-20.642h1.897v20.796l1.006.04v-20.837h1.896v20.848l1.006-.03v-20.818h1.897v20.695l1.006-.102v-20.593h1.896v20.325l1.006-.184v-20.14h1.897v19.712l1.006-.274v-19.438h1.896v18.822l1.006-.385v-18.437h1.897v17.58l1.006-.534v-17.047h1.896v15.843l1.006-.783v-15.06h.168a18.82 18.82 0 0 0-2.865-2.011c-2.233-1.257-4.627-2.2-7.117-2.804h-18.568a27.9 27.9 0 0 0-7.116 2.803zm-5.138 4.5c-.263.376-.502.768-.713 1.175h-.293v6.945a9.99 9.99 0 0 0 1.006 1.822v-9.942z" class="D C"/><path d="M294.52 286.578c-9.058 5.23-23.743 5.23-32.8-.001s-9.058-13.713-.001-18.945 23.744-5.23 32.802 0 9.058 13.714 0 18.946z" class="B"/><g class="F"><path d="M283.316 279.395c6.668-3.85 8.42-9.463 5.27-14.244-8.702-2.542-19.597-1.717-26.868 2.482-6.668 3.85-8.42 9.463-5.27 14.244 8.702 2.543 19.597 1.718 26.868-2.482z" class="G"/><use xlink:href="#N" class="H"/></g><path d="M289.76 283.828c-6.43 3.713-16.853 3.713-23.283 0s-6.43-9.735 0-13.448 16.853-3.714 23.283 0 6.43 9.734 0 13.448z" class="C"/><path d="M266.477 271.248c6.43-3.713 16.854-3.713 23.284 0 3.023 1.747 4.624 4.003 4.804 6.3.203-2.576-1.398-5.2-4.804-7.158-6.43-3.714-16.854-3.714-23.284 0-3.406 1.967-5.006 4.58-4.804 7.157.18-2.286 1.78-4.543 4.804-6.3zm19.74 1.366l-1.276.365.362.144-1.246.72a7.04 7.04 0 0 0-3.159-.739 6.04 6.04 0 0 0-3.042.824 4.77 4.77 0 0 0-.92.666 1.97 1.97 0 0 0-.492.704 2.38 2.38 0 0 0-.162.675 3.79 3.79 0 0 0 .03.73l.148 1.163c.04.27.05.543.03.815a1.46 1.46 0 0 1-.276.66 2.22 2.22 0 0 1-.73.626 1.53 1.53 0 0 1-.767.28 1.51 1.51 0 0 1-.798-.166c-.348-.2-.436-.45-.265-.75.374-.472.848-.855 1.4-1.12v-.872l-1.1.4-1.57-.666c-.75.393-1.4.968-1.86 1.67l-.18-.2v.855h.004c.005.587.453 1.166 1.352 1.736l-.62.358-.842-.386v.872l.757.438 1.477-.853c.933.434 1.958.64 2.987.596a5.92 5.92 0 0 0 2.817-.758 4.72 4.72 0 0 0 1-.742 2.41 2.41 0 0 0 .554-.81 3.01 3.01 0 0 0 .206-.797 4.28 4.28 0 0 0-.003-.847l-.125-1.125-.03-.492a2.26 2.26 0 0 1 .056-.426.98.98 0 0 1 .253-.487 2.35 2.35 0 0 1 .544-.41c.258-.145.543-.236.837-.268a1.36 1.36 0 0 1 .838.14.76.76 0 0 1 .26.201c.03.042.047.094.047.146l-1.3.27v.872l2.63 1.172.576-.38a5.54 5.54 0 0 0 .53-.425c.162-.143.3-.302.44-.475.112-.155.197-.33.25-.513.024-.085.04-.173.043-.26l.003-.003v-.918l-.335.07c-.005-.006-.007-.01-.012-.017-.203-.234-.44-.437-.702-.6l1.38-.798v-.872z" class="E"/><path d="M270.235 281.114l1.463-.844c-1-.634-1.447-1.278-1.342-1.933s.78-1.364 2.025-2.128l2.66 1.128c-.54.266-1.015.65-1.39 1.12-.172.3-.084.55.265.75.245.128.522.186.798.165s.542-.117.767-.28c.286-.153.535-.367.73-.626a1.46 1.46 0 0 0 .276-.66c.022-.272.012-.546-.03-.815l-.148-1.163c-.033-.242-.042-.486-.03-.73a2.38 2.38 0 0 1 .162-.675 1.96 1.96 0 0 1 .492-.704c.278-.258.587-.482.92-.666.923-.54 1.973-.823 3.042-.824a7.04 7.04 0 0 1 3.159.739l1.39-.802.77.445-1.38.798c.262.164.5.367.702.6a1.51 1.51 0 0 1 .32.575c.043.183.037.374-.02.554s-.138.357-.25.513c-.13.173-.278.332-.44.475a5.7 5.7 0 0 1-.53.425l-.576.38-2.63-1.17.492-.305.4-.272a1.56 1.56 0 0 0 .286-.259.69.69 0 0 0 .125-.229c.012-.038.015-.078.008-.117a.24.24 0 0 0-.049-.106c-.07-.085-.16-.154-.26-.202a1.36 1.36 0 0 0-.838-.14c-.294.032-.58.123-.837.268-.2.1-.384.248-.544.41a.98.98 0 0 0-.253.486 2.28 2.28 0 0 0-.056.427 6.29 6.29 0 0 0 .03.492l.125 1.125a4.27 4.27 0 0 1 .003.846c-.032.274-.1.543-.206.798-.127.305-.316.58-.554.81-.3.3-.635.54-1 .742a5.93 5.93 0 0 1-2.817.758c-1.03.043-2.054-.162-2.987-.596l-1.477.852-.757-.437z" class="B"/><path d="M301.313 273.312h-.943c-1.06-2.08-3.008-4.042-5.85-5.683-9.058-5.232-23.744-5.232-32.802 0-2.84 1.64-4.79 3.603-5.85 5.683h-.944v3.79c0 3.43 2.265 6.857 6.794 9.473 9.058 5.232 23.744 5.232 32.8 0 4.53-2.616 6.794-6.044 6.793-9.473v-3.79z" class="E"/><path d="M273.09 264.025a30.74 30.74 0 0 0-11.371 3.603c-2.84 1.64-4.79 3.603-5.85 5.683h-.944v3.8c0 3.428 2.265 6.856 6.794 9.472a30.73 30.73 0 0 0 11.37 3.603v-26.15z" class="B"/><path d="M294.583 286.535c4.486-2.61 6.73-6.022 6.73-9.434v-3.8h-.944a13.53 13.53 0 0 0-4.656-4.934h-1.13v18.158z" class="C"/><path d="M300.12 272.872a11.13 11.13 0 0 0-1.006-1.457v11.387a11.12 11.12 0 0 0 1.006-1.459v-8.47zm-38.4-5.242a18.27 18.27 0 0 0-3.24 2.353v14.243l1.006.853v-15.44h1.896v16.728l.338.205.67.367v-17.3h1.896v18.212l1.006.4V269.64h1.896v19.277l1.007.292v-19.57h1.896v20.028l1.006.198V269.64h1.896v20.523l1.006.12V269.64h1.897v20.795l1.006.042V269.64h1.896v20.848l1.006-.03V269.64h1.897v20.695l1.006-.103V269.64h1.896v20.324l1.006-.184v-20.14h1.897v19.7l1.006-.274V269.64h1.896v18.822l1.006-.386V269.64h1.897v17.58l1.006-.534V269.64h1.896v15.842l1.006-.782v-15.06h.168c-.9-.758-1.85-1.432-2.865-2.012-2.233-1.257-4.627-2.2-7.117-2.803h-18.568a27.88 27.88 0 0 0-7.116 2.803h0zm-5.138 4.508a10.4 10.4 0 0 0-.713 1.174h-.293v6.946a9.91 9.91 0 0 0 1.006 1.82v-9.94z" class="D C"/><path d="M294.52 282.785c-9.057 5.232-23.743 5.23-32.8 0s-9.058-13.714-.001-18.945 23.744-5.232 32.802 0 9.058 13.714 0 18.945z" class="B"/><g class="F"><path d="M283.315 275.6c6.668-3.85 8.42-9.463 5.27-14.244-8.7-2.542-19.596-1.717-26.867 2.482-6.668 3.85-8.42 9.463-5.27 14.244 8.702 2.543 19.597 1.718 26.868-2.482z" class="G"/><use xlink:href="#N" y="-3.792" class="H"/></g><path d="M289.76 280.035c-6.43 3.714-16.853 3.714-23.283 0s-6.43-9.734 0-13.448 16.853-3.713 23.283 0 6.43 9.735 0 13.448z" class="C"/><path d="M266.477 267.456c6.43-3.714 16.854-3.714 23.284 0 3.023 1.746 4.624 4.003 4.804 6.3.203-2.576-1.398-5.2-4.804-7.158-6.43-3.714-16.854-3.714-23.284-.001-3.406 1.967-5.006 4.582-4.804 7.158.18-2.287 1.78-4.543 4.804-6.3zm19.74 1.364l-1.276.365.362.144-1.246.72a7.04 7.04 0 0 0-3.159-.739 6.04 6.04 0 0 0-3.042.824 4.77 4.77 0 0 0-.92.666 1.97 1.97 0 0 0-.492.704 2.38 2.38 0 0 0-.162.675 3.87 3.87 0 0 0 .029.73l.148 1.163c.04.27.05.543.03.815a1.46 1.46 0 0 1-.276.66 2.22 2.22 0 0 1-.73.626 1.53 1.53 0 0 1-.767.28 1.51 1.51 0 0 1-.798-.166c-.348-.2-.436-.45-.265-.75.374-.472.848-.855 1.4-1.12v-.872l-1.1.4-1.57-.666c-.75.393-1.4.968-1.86 1.67l-.18-.2v.855h.004c.005.588.453 1.166 1.352 1.736l-.62.358-.842-.386v.873l.757.437 1.477-.853c.933.434 1.958.64 2.987.596a5.92 5.92 0 0 0 2.817-.758 4.72 4.72 0 0 0 1-.742 2.41 2.41 0 0 0 .554-.81 3.01 3.01 0 0 0 .206-.797 4.28 4.28 0 0 0-.003-.847l-.125-1.125-.03-.492a2.27 2.27 0 0 1 .056-.426.97.97 0 0 1 .253-.486 2.33 2.33 0 0 1 .544-.412 2.19 2.19 0 0 1 .837-.267c.287-.045.58.004.838.14a.76.76 0 0 1 .26.201.25.25 0 0 1 .047.146l-1.3.27v.872l2.63 1.172.576-.38a5.54 5.54 0 0 0 .53-.425c.162-.142.3-.302.44-.475.112-.155.197-.33.25-.513.024-.085.04-.173.043-.26l.003-.003v-.918l-.335.07c-.005-.006-.007-.01-.012-.017-.203-.234-.44-.437-.702-.6l1.38-.797v-.873z" class="E"/><path d="M270.235 277.32l1.463-.844c-1-.634-1.447-1.278-1.342-1.933s.78-1.364 2.025-2.128l2.66 1.128c-.54.266-1.015.65-1.39 1.12-.172.3-.084.55.265.75.245.128.522.186.798.165s.542-.117.767-.28c.286-.153.535-.367.73-.626a1.46 1.46 0 0 0 .276-.66c.022-.272.012-.546-.03-.815l-.148-1.163c-.033-.242-.042-.486-.03-.73a2.38 2.38 0 0 1 .162-.675 1.96 1.96 0 0 1 .492-.704c.278-.258.587-.482.92-.666.923-.54 1.973-.823 3.042-.824a7.04 7.04 0 0 1 3.159.739l1.39-.802.77.445-1.38.798c.262.164.5.367.702.6a1.51 1.51 0 0 1 .32.575c.043.183.037.374-.02.554s-.138.358-.25.513c-.13.173-.278.332-.44.475a5.7 5.7 0 0 1-.53.425l-.576.38-2.63-1.17.492-.305.4-.272a1.56 1.56 0 0 0 .286-.259.7.7 0 0 0 .125-.229c.012-.038.015-.078.008-.117a.24.24 0 0 0-.049-.106.76.76 0 0 0-.26-.201c-.257-.136-.55-.185-.838-.14-.294.032-.58.123-.837.268-.2.1-.384.25-.544.41a.98.98 0 0 0-.253.486 2.28 2.28 0 0 0-.056.427 6.29 6.29 0 0 0 .03.492l.125 1.125a4.27 4.27 0 0 1 .003.846c-.032.274-.1.543-.206.798-.127.305-.316.58-.554.81-.3.3-.635.54-1 .742a5.93 5.93 0 0 1-2.817.758c-1.03.043-2.054-.162-2.987-.596l-1.477.853-.757-.438z" class="B"/><path d="M298.066 271.53h-.944c-1.06-2.08-3.008-4.042-5.85-5.683-9.058-5.232-23.743-5.232-32.8-.001-2.842 1.642-4.79 3.603-5.85 5.684h-.943v3.79c0 3.43 2.264 6.857 6.793 9.472 9.058 5.232 23.744 5.232 32.802.001 4.53-2.616 6.793-6.044 6.793-9.473v-3.79z" class="E"/><path d="M269.84 262.243c-3.99.447-7.85 1.67-11.37 3.603-2.842 1.64-4.79 3.603-5.85 5.683h-.943v3.79c0 3.43 2.264 6.857 6.793 9.473a30.74 30.74 0 0 0 11.37 3.603v-26.15z" class="B"/><path d="M291.335 284.753c4.486-2.61 6.73-6.022 6.73-9.434v-3.79h-.944a13.53 13.53 0 0 0-4.656-4.935h-1.13v18.158z" class="C"/><path d="M296.872 271.1c-.296-.512-.632-1-1.006-1.457v11.387c.374-.46.7-.946 1.006-1.46v-8.47zm-38.402-5.244a18.26 18.26 0 0 0-3.24 2.354v14.242l1.007.853v-15.437h1.896v16.728l.338.205.668.367v-17.3h1.896v18.212l1.006.4v-18.623h1.897v19.277l1.006.293v-19.57h1.896v20.028l1.006.2v-20.227h1.897v20.524l1.006.118v-20.642h1.896v20.796l1.006.04v-20.837h1.897v20.848l1.006-.03v-20.818h1.896v20.695l1.006-.103v-20.592h1.897v20.325l1.006-.184v-20.14h1.896v19.712l1.006-.274v-19.438h1.897v18.822l1.006-.385v-18.437h1.896v17.58l1.006-.534v-17.047h1.897V283.7l1.006-.783v-15.06h.168c-.9-.758-1.85-1.43-2.866-2.012a27.91 27.91 0 0 0-7.117-2.803h-18.567a27.87 27.87 0 0 0-7.117 2.803h0zm-5.135 4.51a10.33 10.33 0 0 0-.714 1.175h-.292v6.945a9.91 9.91 0 0 0 1.006 1.82v-9.94z" class="D C"/><path d="M291.273 281.002c-9.058 5.232-23.744 5.232-32.802 0s-9.058-13.714 0-18.945 23.743-5.232 32.8 0 9.058 13.714.001 18.945z" class="B"/><g class="F"><path d="M280.068 273.818c6.668-3.85 8.42-9.463 5.27-14.243-8.7-2.543-19.596-1.718-26.867 2.48-6.668 3.852-8.42 9.464-5.27 14.244 8.702 2.543 19.597 1.718 26.868-2.482z" class="G"/><path d="M291.272 281.002c-9.057 5.23-23.743 5.23-32.8-.001-4.377-2.528-6.632-5.815-6.78-9.127-.157 3.543 2.098 7.115 6.78 9.818 9.058 5.232 23.744 5.232 32.8.001 4.68-2.704 6.937-6.276 6.78-9.818-.147 3.312-2.402 6.6-6.78 9.127z" class="H"/></g><path d="M286.514 278.254c-6.43 3.713-16.854 3.713-23.283-.001s-6.43-9.734-.001-13.447 16.854-3.714 23.284 0 6.43 9.734 0 13.448z" class="C"/><path d="M263.23 265.674c6.43-3.714 16.854-3.714 23.283 0 3.024 1.747 4.625 4.003 4.805 6.3.202-2.576-1.4-5.2-4.805-7.158-6.43-3.714-16.854-3.714-23.283 0-3.406 1.967-5.007 4.58-4.804 7.157.18-2.287 1.78-4.543 4.804-6.3zm19.738 1.366l-1.276.364.363.145-1.246.72a7.03 7.03 0 0 0-3.16-.738c-1.07 0-2.12.284-3.042.823a4.66 4.66 0 0 0-.918.667 1.94 1.94 0 0 0-.493.704 2.37 2.37 0 0 0-.161.674 3.8 3.8 0 0 0 .029.731l.147 1.162c.042.27.052.543.03.815-.036.24-.13.466-.276.66a2.23 2.23 0 0 1-.73.626 1.52 1.52 0 0 1-.766.28c-.266.02-.553-.037-.8-.166-.348-.2-.436-.45-.265-.75a4.05 4.05 0 0 1 1.389-1.12v-.873l-1.1.4-1.568-.666a5.08 5.08 0 0 0-1.86 1.672l-.18-.202v.855h.004c.006.587.453 1.165 1.352 1.735l-.62.358-.842-.385v.872l.756.437 1.477-.853c.934.435 1.958.64 2.987.596.988-.014 1.956-.274 2.818-.757a4.78 4.78 0 0 0 .999-.743 2.39 2.39 0 0 0 .555-.808c.104-.256.173-.524.206-.798a4.36 4.36 0 0 0-.004-.847l-.125-1.125-.03-.492a2.27 2.27 0 0 1 .055-.426.99.99 0 0 1 .253-.486 2.37 2.37 0 0 1 .544-.412 2.22 2.22 0 0 1 .838-.267c.287-.045.58.004.837.14a.77.77 0 0 1 .261.202c.03.042.047.093.046.145l-1.3.27v.872l2.63 1.17.576-.38a5.41 5.41 0 0 0 .53-.424 3.1 3.1 0 0 0 .44-.476c.112-.155.197-.33.25-.513a1.15 1.15 0 0 0 .044-.261l.002-.003v-.917l-.335.07-.012-.017a3.08 3.08 0 0 0-.702-.6l1.38-.798v-.872z" class="E"/><path d="M266.988 275.54l1.462-.844c-1-.634-1.447-1.278-1.34-1.933s.78-1.365 2.025-2.128l2.66 1.128c-.54.266-1.015.65-1.39 1.12-.17.3-.083.55.265.75.246.128.522.185.8.165s.542-.117.766-.28c.286-.153.536-.366.73-.626a1.46 1.46 0 0 0 .276-.66c.022-.27.012-.545-.03-.815l-.147-1.162a3.79 3.79 0 0 1-.029-.73c.02-.232.075-.46.16-.675a1.96 1.96 0 0 1 .493-.704c.278-.258.586-.482.918-.667.923-.538 1.973-.822 3.042-.823 1.097-.003 2.178.25 3.16.74l1.388-.802.77.445-1.38.798a3.08 3.08 0 0 1 .702.6 1.51 1.51 0 0 1 .32.575c.044.183.037.375-.02.555s-.138.357-.25.513a3.14 3.14 0 0 1-.44.475c-.167.152-.344.294-.53.425l-.576.38-2.63-1.17.493-.306.39-.27c.106-.075.202-.162.287-.26a.72.72 0 0 0 .125-.229c.012-.038.015-.078.007-.117s-.023-.075-.048-.106a.78.78 0 0 0-.261-.202 1.35 1.35 0 0 0-.837-.14c-.295.032-.58.123-.838.267a2.4 2.4 0 0 0-.544.412c-.128.135-.216.304-.253.486a2.27 2.27 0 0 0-.055.427c-.001.1.01.266.03.492l.125 1.125a4.35 4.35 0 0 1 .004.846c-.033.274-.102.543-.206.798a2.41 2.41 0 0 1-.555.809c-.3.3-.635.54-1 .742-.862.483-1.83.744-2.818.758a6.45 6.45 0 0 1-2.987-.597l-1.477.853-.756-.437z" class="B"/><path d="M301.313 265.728h-.944c-1.06-2.08-3.008-4.042-5.85-5.684-9.058-5.23-23.743-5.23-32.8 0-2.842 1.642-4.79 3.603-5.85 5.684h-.943v3.79c0 3.428 2.265 6.857 6.793 9.472 9.058 5.232 23.744 5.232 32.802.001 4.53-2.616 6.793-6.045 6.793-9.473v-3.79z" class="E"/><path d="M273.088 256.44a30.74 30.74 0 0 0-11.37 3.602c-2.842 1.642-4.79 3.603-5.85 5.684h-.943v3.79c0 3.43 2.265 6.857 6.793 9.473a30.74 30.74 0 0 0 11.37 3.602v-26.15z" class="B"/><path d="M294.583 278.95c4.486-2.61 6.73-6.022 6.73-9.434v-3.8h-.944a13.52 13.52 0 0 0-4.656-4.934h-1.13v18.158z" class="C"/><path d="M300.12 265.286a11.09 11.09 0 0 0-1.006-1.456v11.386a10.95 10.95 0 0 0 1.006-1.458v-8.472zm-38.402-5.243a18.27 18.27 0 0 0-3.239 2.354v14.242l1.006.853v-15.437h1.896v16.728l.338.205.668.367v-17.3h1.896v18.212l1.007.4v-18.623h1.896v19.277l1.006.293v-19.57h1.896v20.028l1.007.2v-20.227h1.896v20.524l1.006.118v-20.642h1.896v20.796l1.007.04v-20.837h1.896v20.848l1.006-.03v-20.82h1.896v20.695l1.006-.102v-20.593h1.897v20.325l1.006-.184v-20.14h1.896v19.712l1.006-.274v-19.438h1.897v18.822l1.006-.385v-18.437h1.896v17.58l1.006-.534v-17.047h1.897v15.843l1.006-.783v-15.06h.168a18.77 18.77 0 0 0-2.866-2.01 27.91 27.91 0 0 0-7.117-2.804h-18.567a27.8 27.8 0 0 0-7.117 2.803h0zm-5.136 4.51a10.42 10.42 0 0 0-.714 1.175h-.292v6.945a9.99 9.99 0 0 0 1.006 1.822v-9.942z" class="D C"/><path d="M294.52 275.2c-9.058 5.232-23.744 5.23-32.802 0s-9.058-13.714 0-18.945 23.743-5.232 32.8 0 9.058 13.714.001 18.945z" class="B"/><g class="F"><path d="M283.315 268.017c6.668-3.85 8.42-9.463 5.27-14.244-8.7-2.542-19.596-1.717-26.867 2.482-6.668 3.852-8.42 9.463-5.27 14.244 8.702 2.543 19.597 1.718 26.868-2.482z" class="G"/><path d="M294.52 275.2c-9.058 5.23-23.744 5.23-32.802-.001-4.377-2.528-6.632-5.815-6.78-9.127-.157 3.543 2.098 7.114 6.78 9.818 9.058 5.232 23.744 5.232 32.802 0 4.68-2.703 6.936-6.275 6.778-9.817-.147 3.312-2.402 6.6-6.778 9.127z" class="H"/></g><path d="M289.76 272.452c-6.43 3.713-16.854 3.713-23.283 0s-6.43-9.735-.001-13.448 16.854-3.714 23.284 0 6.43 9.734 0 13.448z" class="C"/><path d="M266.477 259.872c6.43-3.713 16.854-3.713 23.283 0 3.024 1.747 4.625 4.003 4.805 6.3.202-2.576-1.4-5.2-4.805-7.158-6.43-3.714-16.854-3.714-23.283 0-3.406 1.967-5.007 4.58-4.804 7.158.18-2.287 1.78-4.544 4.804-6.3zm19.74 1.365l-1.276.365.362.144-1.246.72a7.04 7.04 0 0 0-3.159-.739 6.04 6.04 0 0 0-3.042.824 4.77 4.77 0 0 0-.92.666 1.97 1.97 0 0 0-.492.704 2.38 2.38 0 0 0-.162.675 3.79 3.79 0 0 0 .03.73l.148 1.163c.04.27.05.543.03.815a1.46 1.46 0 0 1-.276.66 2.22 2.22 0 0 1-.73.626 1.53 1.53 0 0 1-.767.28 1.51 1.51 0 0 1-.798-.166c-.348-.2-.436-.45-.265-.75.374-.472.848-.855 1.4-1.12v-.872l-1.1.4-1.57-.666c-.75.393-1.4.968-1.86 1.67l-.18-.2v.855h.004c.005.587.453 1.166 1.352 1.736l-.62.358-.842-.386v.873l.757.437 1.477-.853c.933.434 1.958.64 2.987.596a5.92 5.92 0 0 0 2.817-.758 4.72 4.72 0 0 0 1-.742 2.41 2.41 0 0 0 .554-.81 3.01 3.01 0 0 0 .206-.797 4.28 4.28 0 0 0-.003-.847l-.125-1.125-.03-.492a2.26 2.26 0 0 1 .056-.426.98.98 0 0 1 .253-.487 2.35 2.35 0 0 1 .544-.41 2.21 2.21 0 0 1 .837-.268 1.36 1.36 0 0 1 .838.14.76.76 0 0 1 .26.201.25.25 0 0 1 .047.146l-1.3.27v.872l2.63 1.172.576-.38a5.54 5.54 0 0 0 .53-.425c.162-.142.3-.302.44-.475.112-.155.197-.33.25-.513.024-.085.04-.173.043-.26l.003-.003v-.918l-.335.07c-.005-.006-.007-.01-.012-.017-.203-.234-.44-.437-.702-.6l1.38-.797v-.873z" class="E"/><path d="M270.235 269.737l1.463-.844c-1-.634-1.447-1.278-1.342-1.933s.78-1.364 2.025-2.128l2.66 1.128c-.54.266-1.015.65-1.39 1.12-.172.3-.084.55.265.75.245.128.522.186.798.166s.542-.118.767-.28c.286-.153.535-.367.73-.626a1.46 1.46 0 0 0 .276-.66c.022-.272.012-.546-.03-.815l-.148-1.163c-.033-.242-.042-.486-.03-.73a2.38 2.38 0 0 1 .162-.675 1.96 1.96 0 0 1 .492-.704c.278-.258.587-.482.92-.666.923-.54 1.973-.823 3.042-.824a7.04 7.04 0 0 1 3.159.739l1.39-.802.77.445-1.38.798c.262.164.5.367.702.6a1.52 1.52 0 0 1 .32.575c.043.183.037.374-.02.554s-.138.358-.25.513c-.13.173-.278.332-.44.475a5.54 5.54 0 0 1-.53.425l-.576.38-2.63-1.172.492-.305.4-.272a1.56 1.56 0 0 0 .286-.259.69.69 0 0 0 .125-.229.24.24 0 0 0 .008-.116c-.007-.04-.024-.076-.05-.107a.76.76 0 0 0-.26-.201c-.257-.136-.55-.185-.838-.14-.294.032-.58.123-.837.268-.2.1-.384.25-.544.41a.98.98 0 0 0-.253.487 2.26 2.26 0 0 0-.056.426 6.29 6.29 0 0 0 .03.492l.125 1.125a4.27 4.27 0 0 1 .003.846c-.032.274-.1.543-.206.798-.127.305-.316.58-.554.81-.3.3-.635.54-1 .742a5.93 5.93 0 0 1-2.817.758c-1.03.043-2.054-.162-2.987-.596l-1.477.853-.757-.438z" class="B"/><path d="M232.383 314.68c6.913 3.992 18.12 3.992 25.033-.001s6.913-10.465.001-14.458-18.12-3.993-25.033 0-6.913 10.466-.001 14.46z" fill="#001e20" class="G"/><path d="M260.178 297.49h-.843c-.945-1.858-2.686-3.61-5.223-5.074-8.087-4.67-21.198-4.67-29.285 0-2.538 1.465-4.278 3.216-5.223 5.074h-.842v3.383c0 3.06 2.022 6.122 6.065 8.457 8.087 4.67 21.2 4.67 29.286 0 4.043-2.335 6.065-5.396 6.065-8.457v-3.383z" class="E"/><path d="M234.978 289.2a27.45 27.45 0 0 0-10.151 3.216c-2.538 1.466-4.278 3.217-5.223 5.075h-.842v3.383c0 3.06 2.022 6.122 6.065 8.457a27.42 27.42 0 0 0 10.151 3.216V289.2z" class="B"/><path d="M254.17 309.297c4.005-2.33 6.01-5.377 6.01-8.423v-3.383h-.843c-.99-1.798-2.42-3.314-4.157-4.406h-1.01v16.212z" class="C"/><path d="M259.112 297.1a9.99 9.99 0 0 0-.899-1.3v10.166a10.12 10.12 0 0 0 .9-1.302V297.1zm-34.285-4.682a16.35 16.35 0 0 0-2.892 2.1v12.716l.898.76v-13.782h1.693v14.935l.3.183.597.328v-15.446h1.693v16.26l.9.366v-16.626h1.693v17.2l.898.26V294.2h1.693v17.88l.898.178v-18.06h1.693v18.324l.9.105v-18.43h1.693v18.566l.898.038v-18.604h1.693v18.613l.898-.026v-18.587h1.694v18.477l.898-.092v-18.385h1.693v18.146l.898-.164v-17.982h1.693v17.6l.9-.245v-17.354h1.693v16.804l.898-.344v-16.46h1.693V309.9l.898-.477v-15.22h1.693v14.144l.9-.698v-13.446h.15a16.84 16.84 0 0 0-2.559-1.796 24.91 24.91 0 0 0-6.354-2.503h-16.58c-2.223.54-4.36 1.38-6.354 2.503h0zm-4.587 4.025c-.235.336-.448.686-.637 1.05h-.26v6.2c.242.572.543 1.117.898 1.626v-8.876z" class="D C"/><path d="M254.113 305.95c-8.087 4.67-21.198 4.67-29.285 0s-8.088-12.244-.001-16.915 21.2-4.67 29.286 0 8.087 12.244 0 16.915z" class="B"/><g class="F"><path d="M244.11 299.536c5.953-3.44 7.518-8.45 4.706-12.717-7.77-2.27-17.496-1.534-23.988 2.216-5.953 3.438-7.518 8.448-4.706 12.717 7.77 2.27 17.497 1.533 23.988-2.216z" class="G"/><path d="M254.112 305.948c-8.086 4.67-21.198 4.67-29.285 0-3.908-2.257-5.92-5.192-6.053-8.15-.14 3.163 1.874 6.352 6.053 8.766 8.087 4.67 21.2 4.67 29.285 0 4.18-2.414 6.193-5.603 6.053-8.765-.132 2.957-2.145 5.89-6.053 8.148z" class="H"/></g><path d="M249.864 303.494c-5.74 3.316-15.048 3.315-20.788 0s-5.74-8.69 0-12.006 15.047-3.316 20.787 0 5.74 8.69.001 12.006z" class="C"/><path d="M229.076 292.263c5.74-3.316 15.047-3.316 20.787 0 2.7 1.56 4.13 3.574 4.3 5.616.18-2.3-1.248-4.635-4.3-6.4-5.74-3.316-15.047-3.316-20.787-.001-3.04 1.757-4.47 4.1-4.3 6.4.16-2.042 1.6-4.056 4.3-5.615zm17.622 1.217l-1.14.326.324.13-1.113.643c-.876-.437-1.842-.663-2.82-.66-.954 0-1.9.254-2.716.735a4.28 4.28 0 0 0-.82.595 1.75 1.75 0 0 0-.439.629c-.078.192-.126.395-.144.602-.013.218-.004.436.025.652l.132 1.038a3.11 3.11 0 0 1 .026.728 1.3 1.3 0 0 1-.246.589 2.01 2.01 0 0 1-.652.56c-.2.145-.438.232-.684.25a1.34 1.34 0 0 1-.714-.148c-.3-.18-.4-.403-.236-.67a3.63 3.63 0 0 1 1.24-1v-.78l-.974.366-1.4-.595a4.53 4.53 0 0 0-1.66 1.492l-.16-.18v.763h.003c.005.525.405 1.04 1.207 1.55l-.553.32-.752-.345v.78l.675.4 1.318-.76a5.76 5.76 0 0 0 2.668.532c.88-.012 1.746-.245 2.515-.676a4.25 4.25 0 0 0 .893-.663 2.18 2.18 0 0 0 .495-.722c.093-.228.154-.468.183-.712a3.82 3.82 0 0 0-.003-.756l-.1-1.004-.026-.44a1.95 1.95 0 0 1 .049-.38c.033-.164.1-.314.226-.434a2.09 2.09 0 0 1 .485-.368c.23-.13.485-.2.748-.24.256-.04.52.004.748.125.1.043.17.104.233.18a.22.22 0 0 1 .041.131l-1.16.24v.78l2.35 1.045.515-.34c.165-.116.323-.243.473-.38a2.77 2.77 0 0 0 .393-.424 1.51 1.51 0 0 0 .223-.458 1.08 1.08 0 0 0 .04-.233l.002-.003v-.82l-.3.062c-.192-.224-.403-.405-.638-.55l1.233-.713v-.78z" class="E"/><path d="M232.43 301.07l1.305-.754c-.892-.566-1.29-1.14-1.197-1.726s.697-1.218 1.807-1.9l2.375 1.008c-.483.237-.906.58-1.24 1-.153.268-.074.49.236.67a1.34 1.34 0 0 0 .714.148c.246-.018.483-.105.684-.25.255-.137.478-.328.652-.56a1.3 1.3 0 0 0 .246-.589 3.11 3.11 0 0 0-.026-.728l-.132-1.038c-.03-.216-.038-.434-.025-.652.018-.207.066-.4.144-.602a1.75 1.75 0 0 1 .439-.629 4.28 4.28 0 0 1 .82-.595c.825-.48 1.762-.735 2.716-.735.98-.003 1.945.223 2.82.66l1.24-.717.688.398-1.233.712a2.8 2.8 0 0 1 .627.536 1.35 1.35 0 0 1 .285.514c.04.163.034.334-.016.495a1.51 1.51 0 0 1-.223.458 2.82 2.82 0 0 1-.393.424c-.15.136-.308.263-.473.38l-.515.34-2.35-1.045.44-.273.348-.243a1.44 1.44 0 0 0 .256-.231c.05-.06.087-.13.11-.204a.22.22 0 0 0 .007-.105c-.006-.034-.02-.067-.043-.095-.064-.076-.144-.137-.233-.18-.23-.12-.492-.165-.748-.125-.263.03-.517.1-.748.24a2.09 2.09 0 0 0-.485.368c-.115.12-.193.27-.226.434a1.95 1.95 0 0 0-.049.38c-.001.09.008.238.026.44l.11 1.004a3.82 3.82 0 0 1 .003.756c-.03.244-.1.484-.183.712-.114.272-.283.518-.495.722-.268.26-.568.482-.893.663-.77.43-1.634.664-2.515.676-.92.038-1.834-.144-2.667-.532l-1.32.76-.675-.4z" class="B"/><path d="M262.663 292.414h-.843c-.945-1.858-2.685-3.61-5.223-5.074-8.087-4.67-21.198-4.67-29.285-.001-2.537 1.466-4.278 3.217-5.223 5.075h-.842v3.383c0 3.06 2.022 6.122 6.065 8.457 8.088 4.67 21.2 4.67 29.286 0 4.043-2.335 6.065-5.396 6.065-8.457v-3.383z" class="E"/><path d="M237.464 284.124a27.44 27.44 0 0 0-10.152 3.216c-2.537 1.466-4.278 3.217-5.223 5.075h-.842v3.383c0 3.06 2.022 6.122 6.065 8.457 3.142 1.725 6.59 2.817 10.152 3.216v-23.347z" class="B"/><path d="M256.654 304.22c4.005-2.332 6.01-5.377 6.01-8.424v-3.383h-.843c-.99-1.798-2.42-3.314-4.157-4.405h-1.01v16.212z" class="C"/><path d="M261.597 292.02a9.82 9.82 0 0 0-.898-1.3v10.166c.334-.4.634-.845.898-1.302v-7.564zm-34.284-4.68a16.35 16.35 0 0 0-2.893 2.101v12.716l.9.762v-13.783h1.693v14.935l.3.183.597.328v-15.446h1.693v16.26l.898.367v-16.627h1.694v17.2l.898.26v-17.472h1.693v17.882l.898.177v-18.06h1.693v18.324l.898.106v-18.43h1.694V307.7l.898.037v-18.604h1.693v18.614l.898-.027v-18.587h1.693V307.6l.9-.092v-18.385h1.693v18.146l.898-.164v-17.982h1.693v17.6l.898-.245v-17.354h1.693v16.805l.9-.344v-16.46h1.693v15.696l.898-.476v-15.22h1.693v14.145l.898-.7v-13.446h.15a16.85 16.85 0 0 0-2.558-1.796 24.91 24.91 0 0 0-6.354-2.503h-16.578a24.93 24.93 0 0 0-6.353 2.503h0zm-4.586 4.026a9.17 9.17 0 0 0-.637 1.05h-.26v6.2c.24.572.542 1.117.898 1.626v-8.875z" class="D C"/><path d="M256.598 300.872c-8.087 4.67-21.198 4.67-29.286 0s-8.087-12.244 0-16.914 21.198-4.67 29.285 0 8.088 12.244.001 16.914z" class="B"/><g class="F"><path d="M246.593 294.458c5.954-3.44 7.518-8.45 4.706-12.717-7.77-2.27-17.496-1.534-23.987 2.215-5.954 3.44-7.518 8.45-4.706 12.718 7.77 2.27 17.496 1.533 23.987-2.216z" class="G"/><path d="M256.598 300.872c-8.086 4.67-21.198 4.67-29.285 0-3.908-2.257-5.92-5.192-6.053-8.15-.14 3.163 1.874 6.352 6.053 8.765 8.087 4.67 21.2 4.67 29.285.001 4.18-2.414 6.193-5.603 6.053-8.765-.132 2.957-2.145 5.89-6.053 8.148z" class="H"/></g><path d="M252.35 298.417c-5.74 3.316-15.047 3.316-20.788 0s-5.74-8.69 0-12.006 15.047-3.315 20.788 0 5.74 8.69 0 12.006z" class="C"/><path d="M231.56 287.186c5.74-3.315 15.047-3.315 20.788 0 2.7 1.56 4.13 3.574 4.3 5.616.18-2.3-1.248-4.635-4.3-6.4-5.74-3.316-15.048-3.316-20.788 0-3.04 1.756-4.47 4.1-4.3 6.4.16-2.04 1.6-4.056 4.3-5.615zm17.624 1.22l-1.14.326.324.128-1.113.643c-.876-.437-1.842-.663-2.82-.66-.955.001-1.892.254-2.717.735-.296.165-.57.365-.82.596-.192.174-.342.4-.44.628-.077.193-.126.396-.144.603-.012.217-.004.436.026.652l.13 1.037a3.11 3.11 0 0 1 .027.728 1.3 1.3 0 0 1-.247.589 1.97 1.97 0 0 1-.652.559 1.33 1.33 0 0 1-.684.25c-.247.018-.494-.033-.713-.148-.3-.18-.4-.403-.237-.67a3.62 3.62 0 0 1 1.24-1.001v-.78l-.973.366-1.4-.594a4.54 4.54 0 0 0-1.661 1.492l-.16-.18v.764h.003c.005.524.405 1.04 1.208 1.55l-.554.32-.752-.344v.778l.675.4 1.32-.762a5.77 5.77 0 0 0 2.667.533 5.29 5.29 0 0 0 2.515-.677 4.2 4.2 0 0 0 .893-.663 2.15 2.15 0 0 0 .495-.722c.093-.228.155-.467.184-.712a3.82 3.82 0 0 0-.003-.756l-.112-1.004-.026-.44a1.95 1.95 0 0 1 .049-.381.88.88 0 0 1 .226-.434c.143-.146.307-.27.486-.368.23-.13.485-.2.748-.238a1.2 1.2 0 0 1 .747.125c.1.042.17.104.233.18.027.038.042.083.04.13l-1.16.24v.78l2.35 1.046.514-.34c.165-.117.323-.244.473-.38a2.77 2.77 0 0 0 .393-.424 1.5 1.5 0 0 0 .223-.458 1.08 1.08 0 0 0 .04-.233l.002-.003v-.82l-.3.062c-.192-.224-.403-.405-.638-.55l1.234-.712v-.78z" class="E"/><path d="M234.916 295.994l1.306-.754c-.893-.566-1.292-1.14-1.198-1.726s.697-1.218 1.808-1.9l2.374 1.008c-.482.237-.906.58-1.24 1-.153.268-.074.49.237.67.22.115.466.166.713.148a1.33 1.33 0 0 0 .684-.249c.256-.137.478-.328.652-.56.13-.173.215-.376.247-.59.02-.243.01-.487-.027-.728l-.13-1.038c-.03-.216-.038-.434-.026-.652a2.11 2.11 0 0 1 .144-.602 1.73 1.73 0 0 1 .44-.629 4.2 4.2 0 0 1 .819-.595c.825-.48 1.762-.735 2.717-.735.978-.003 1.944.223 2.82.66l1.24-.716.69.398-1.233.712a2.82 2.82 0 0 1 .627.536c.13.148.23.324.285.514a.93.93 0 0 1-.017.494 1.48 1.48 0 0 1-.223.459 2.87 2.87 0 0 1-.393.424c-.15.136-.308.263-.473.38l-.514.34-2.35-1.046.44-.273.348-.242a1.48 1.48 0 0 0 .256-.231.64.64 0 0 0 .111-.205c.01-.033.014-.07.007-.104s-.02-.067-.043-.095c-.064-.076-.143-.137-.233-.18a1.2 1.2 0 0 0-.747-.125 1.97 1.97 0 0 0-.748.239 2.1 2.1 0 0 0-.486.367c-.115.12-.193.27-.226.434a1.96 1.96 0 0 0-.049.381c-.001.09.01.238.026.44l.112 1.004a3.82 3.82 0 0 1 .003.756c-.03.244-.09.484-.184.712a2.15 2.15 0 0 1-.495.722c-.267.26-.567.482-.893.663a5.29 5.29 0 0 1-2.515.676c-.92.038-1.833-.144-2.667-.532l-1.32.76-.675-.4z" class="B"/><defs><clipPath id="A"><path transform="translate(190 82)" d="M0 0h143.808v214.434H0z" class="F"/></clipPath><path id="B" d="M337.4 258.363h-.924c-1.036-2.036-2.943-3.955-5.724-5.56-8.864-5.12-23.236-5.12-32.1-.001-2.782 1.607-4.69 3.526-5.725 5.562h-.923v3.708c0 3.355 2.216 6.7 6.648 9.27 8.864 5.12 23.235 5.12 32.1 0 4.432-2.56 6.648-5.915 6.648-9.27v-3.708z"/><path id="C" d="M330.814 271.305c4.4-2.556 6.586-5.894 6.586-9.233v-3.708h-.924c-1.084-1.97-2.652-3.633-4.556-4.83h-1.106v17.77z"/><path id="D" d="M336.232 257.932c-.3-.5-.62-.978-.985-1.426v11.143a10.9 10.9 0 0 0 .985-1.427v-8.3z"/><path id="E" d="M330.753 267.634c-8.864 5.12-23.235 5.12-32.1 0s-8.864-13.42 0-18.54 23.235-5.12 32.1 0 8.864 13.42 0 18.54z"/><path id="F" d="M330.752 267.633c-8.864 5.12-23.235 5.12-32.1 0-4.283-2.474-6.5-5.69-6.634-8.932-.154 3.467 2.053 6.962 6.634 9.608 8.864 5.12 23.235 5.12 32.1 0 4.58-2.646 6.788-6.14 6.634-9.607-.144 3.24-2.35 6.457-6.634 8.93z"/><path id="G" d="M326.095 264.943c-6.292 3.634-16.493 3.634-22.785 0s-6.292-9.526 0-13.16 16.493-3.634 22.785 0 6.292 9.526 0 13.16z"/><path id="H" d="M303.3 252.632c6.29-3.634 16.493-3.634 22.784 0 2.96 1.7 4.526 3.918 4.702 6.156.198-2.52-1.368-5.08-4.702-7.005-6.29-3.634-16.493-3.634-22.784 0-3.333 1.925-4.9 4.483-4.702 7.004.177-2.238 1.743-4.446 4.702-6.155z"/><path id="I" d="M309.78 245.564a30.08 30.08 0 0 0-11.127 3.526c-2.782 1.606-4.69 3.526-5.725 5.562h-.923v3.708c0 3.355 2.216 6.7 6.648 9.27a30.06 30.06 0 0 0 11.127 3.526v-25.59z"/><path id="J" d="M319.787 253.18c6.525-3.77 8.24-9.26 5.158-13.94-8.516-2.488-19.177-1.68-26.292 2.43-6.526 3.77-8.24 9.26-5.158 13.94 8.515 2.488 19.177 1.68 26.292-2.43z"/><path id="K" d="M330.814 260.17c4.4-2.555 6.586-5.893 6.586-9.232v-3.708h-.924c-1.084-1.97-2.652-3.633-4.556-4.83h-1.106v17.77z"/><path id="L" d="M309.78 234.43a30.06 30.06 0 0 0-11.127 3.525c-2.782 1.606-4.69 3.526-5.725 5.562h-.923v3.708c0 3.355 2.216 6.7 6.648 9.27 3.443 1.9 7.223 3.088 11.127 3.525v-25.6z"/><path id="M" d="M330.753 252.79c-8.864 5.12-23.235 5.12-32.1-.001s-8.864-13.42 0-18.54 23.235-5.12 32.1 0 8.864 13.42 0 18.54z"/><path id="N" d="M294.52 286.577c-9.058 5.232-23.743 5.23-32.8 0-4.377-2.528-6.633-5.815-6.78-9.128-.157 3.543 2.1 7.115 6.78 9.818 9.058 5.232 23.743 5.232 32.8.001 4.68-2.704 6.936-6.275 6.78-9.818-.147 3.312-2.402 6.6-6.78 9.127z"/></defs></svg>