<svg width="20" height="20" viewBox="0 0 20 20" fill="none" xmlns="http://www.w3.org/2000/svg">
<path d="M1.31047 4.37579C2.03798 6.0679 3.26618 7.74157 4.98483 8.46298C5.18102 8.54472 5.40377 8.60603 5.63265 8.65712C6.09041 7.97456 6.61561 7.42073 7.23073 6.96707C7.76 6.57879 8.31383 6.2743 8.88397 6.03518C8.72048 5.92074 8.54884 5.81652 8.36899 5.72251C7.65373 5.34854 6.87923 5.01952 6.12513 4.66598C6.83425 4.85807 7.6476 4.9296 8.32607 5.17687C8.74909 5.33221 9.13942 5.54678 9.50317 5.80223C10.5883 5.43232 11.7225 5.25453 12.8547 5.11967C11.9371 3.59516 9.97933 2.37105 8.50386 1.81724C6.963 1.23889 5.21778 1.16736 3.50321 0.989591C2.45281 0.881261 1.31045 0.488913 0.474622 0.0311506C0.284568 -0.0730722 0.0822537 0.100632 0.147648 0.311122C0.558429 1.62513 0.766875 3.11285 1.31047 4.37579Z" fill="#27AE60"/>
<path d="M19.4269 4.17552C17.4936 5.22592 15.2763 5.35467 13.104 5.60398C12.0434 5.7266 10.993 5.8778 9.99366 6.18027C9.77704 6.24565 9.56044 6.31924 9.34789 6.40098C8.71642 6.64212 8.10743 6.95888 7.53319 7.3819C6.99368 7.77833 6.55226 8.24838 6.18033 8.76541C5.58769 9.59099 5.17489 10.5413 4.83566 11.5283C4.21645 13.3205 3.93239 15.2252 3.98757 17.1196C4.01005 17.888 4.02231 18.687 4.21236 19.437C4.25528 19.6025 4.29615 19.813 4.42489 19.9356C4.59247 20.0971 4.89288 19.9315 4.82544 19.6965C4.33906 18.0392 4.64151 16.1019 5.31385 14.5181C6.08633 12.6972 7.57814 11.6141 9.40102 10.9541C9.88535 10.7783 10.3799 10.6251 10.8826 10.48C10.8928 10.4759 10.9031 10.4759 10.9133 10.4759C11.0134 10.4759 11.0563 10.623 10.9521 10.67C10.3595 10.9378 9.77091 11.2075 9.21095 11.4997C6.46846 12.9302 5.27092 16.2613 6.29884 16.2613C6.38265 16.2613 6.48072 16.2388 6.59312 16.1918C8.17894 15.5358 10.0631 15.5297 11.8063 15.2068C12.4194 15.0944 13.0161 14.9412 13.5761 14.7082C15.7995 13.7804 17.3894 11.9657 18.3355 9.78315C19.0406 8.15442 19.3144 6.2314 19.8478 4.5393C19.9173 4.32268 19.764 4.13673 19.576 4.13673C19.529 4.13465 19.478 4.14693 19.4269 4.17552Z" fill="#27AE60"/>
</svg>
