<svg xmlns="http://www.w3.org/2000/svg" width="100" height="30" fill="none" xmlns:v="https://vecta.io/nano"><g clip-path="url(#A)"><path d="M12.5 0H0v30h12.5V0z" fill="#000"/><path d="M12.5 15H0L12.5 0H25L12.5 15z" fill="#ff513f"/><path d="M12.5 15H0l12.5 15H25L12.5 15z" fill="#ffd45d"/><path d="M37.498 15H25l12.5 15H50L37.498 15z" fill="#007550"/><path d="M37.498 0L25 15h12.5L50 0H37.498z" fill="#000"/><path d="M62.5 15H50l12.5 15H75L62.5 15z" fill="#ff513f"/><path d="M62.5 0L50 15h12.5L75 0H62.5z" fill="#ffc856"/><path d="M81.25 0h-12.5v30h12.5V0z" fill="#000"/><path d="M93.752 22.5L100 15 87.5 0H75l18.75 22.5z" fill="#ff513f"/><path d="M87.5 15H100L87.5 30H75l12.5-15z" fill="#007550"/></g><defs><clipPath id="A"><path fill="#fff" d="M0 0h100v30H0z"/></clipPath></defs></svg>