<svg width="149" height="72" viewBox="0 0 149 72" fill="none" xmlns="http://www.w3.org/2000/svg">
<path d="M0.0868988 64.8926C0.108626 64.0603 0.144839 63.2352 0.152081 62.4029C0.231749 53.4572 0.318659 44.5115 0.398326 35.5657C0.412811 33.7057 0.427296 31.8528 0.463509 29.9928C0.470751 29.7322 0.550419 29.4717 0.630086 29.2256C0.659056 29.146 0.803906 29.0808 0.905301 29.0664C2.72317 28.8492 4.54104 28.6321 6.36615 28.4222C7.39458 28.2992 8.42302 28.1327 9.4587 28.082C10.3713 28.0386 11.291 28.0893 12.2036 28.1689C14.1229 28.3281 16.0421 28.5308 17.9541 28.7189C19.3664 28.8637 20.7787 29.0157 22.1983 29.1604C22.3069 29.1749 22.4083 29.2039 22.5459 29.2256C22.5169 29.5223 22.488 29.8046 22.4445 30.152C20.3876 29.9349 18.338 29.725 16.2377 29.5006C16.5563 29.7901 16.8605 30.029 17.1213 30.2967C18.7074 31.9252 19.5982 33.9156 20.069 36.1086C20.5252 38.222 20.547 40.3643 20.5397 42.5139C20.518 46.3136 20.5252 50.1134 20.4963 53.9059C20.4818 55.9686 20.2935 58.0241 19.6996 60.0145C19.0695 62.1206 18.0628 63.9952 16.3898 65.4717C16.1508 65.6815 15.8828 65.8697 15.6438 66.1375C17.1864 66.0579 18.7291 65.9783 20.2935 65.8914C20.3224 66.2171 20.3442 66.4994 20.3731 66.8251C20.069 66.854 19.7865 66.883 19.4968 66.9047C17.1357 67.035 14.7674 67.1001 12.4136 67.2955C10.1395 67.4837 7.88707 67.3679 5.62017 67.2304C4.14994 67.1363 2.67971 67.0495 1.20949 66.9988C0.659056 66.9771 0.152081 66.9916 0.0868988 66.2678C0.0868988 65.8118 0.0868988 65.3559 0.0868988 64.8926ZM8.57511 56.8227C9.03139 56.7793 9.44421 56.7865 9.83531 56.6996C10.5306 56.5477 11.052 56.1641 11.1824 55.4186C11.2838 54.8758 11.4214 54.3257 11.4287 53.7829C11.4794 49.5633 11.5011 45.3438 11.5083 41.1243C11.5083 40.6104 11.3997 40.0965 11.2838 39.5971C11.1607 39.0905 10.7986 38.7141 10.2916 38.6562C9.79185 38.5983 9.26315 38.7069 8.71996 38.7431C8.67651 44.7648 8.62581 50.7503 8.57511 56.8227Z" fill="#F2F2F2"/>
<path d="M148.486 56.2798C148.436 56.9385 148.399 57.5971 148.334 58.2557C148.139 60.3691 147.776 62.4463 146.712 64.3136C145.922 65.696 144.937 66.9337 143.46 67.6647C142.25 68.2581 140.954 68.3957 139.621 68.345C138.687 68.3088 137.775 68.1713 136.913 67.7877C135.906 67.339 135.124 66.6297 134.421 65.7973C132.451 63.4813 131.633 60.7238 131.322 57.7708C131.169 56.345 131.054 54.9119 131.184 53.4789C131.416 51.0253 132.039 48.702 133.342 46.5814C133.465 46.3788 133.798 46.1833 133.596 45.8938C132.393 44.1858 131.981 42.2244 131.785 40.2123C131.561 37.8818 131.662 35.5585 132.212 33.2786C132.683 31.3172 133.639 29.5947 135.073 28.1761C135.913 27.3438 136.985 26.9602 138.166 26.8371C140.411 26.6055 142.185 27.4379 143.699 29.0663C145.401 30.8902 146.27 33.0832 146.734 35.4716C147.088 37.2955 147.291 39.1484 147.183 41.0084C147.074 42.8468 146.791 44.649 145.814 46.263C147.639 48.4994 148.146 51.1701 148.414 53.9131C148.436 54.123 148.457 54.3402 148.486 54.5501C148.486 55.1218 148.486 55.7008 148.486 56.2798ZM141.497 54.3112C141.49 53.24 141.316 52.2051 140.882 51.2207C140.686 50.7865 140.324 50.7792 139.947 50.7792C139.592 50.7865 139.281 50.8806 139.143 51.2642C138.47 53.1315 138.477 54.9843 139.23 56.8299C139.39 57.2207 139.708 57.4379 140.092 57.4234C140.541 57.4089 140.932 57.2425 141.099 56.7575C141.374 55.9614 141.497 55.1508 141.497 54.3112ZM140.737 40.1472C140.686 38.8589 140.556 37.8384 140.041 36.9336C139.918 36.7238 139.607 36.579 139.353 36.5066C139.288 36.4849 139.049 36.8106 138.991 37.006C138.513 38.649 138.629 40.263 139.288 41.8408C139.397 42.1086 139.563 42.3257 139.86 42.2967C140.143 42.2678 140.375 42.0941 140.433 41.7756C140.556 41.1532 140.672 40.5308 140.737 40.1472Z" fill="#F2F2F2"/>
<path d="M69.1583 26.924C69.477 25.8963 69.7667 24.9554 70.0491 24.0145C70.3026 23.1821 70.5561 22.3571 70.8024 21.5247C70.8603 21.3221 70.9617 21.228 71.1717 21.2063C72.9968 21.0109 74.8147 20.8082 76.6398 20.6056C78.0449 20.4536 79.4427 20.2509 80.8477 20.1641C81.6444 20.1134 82.4555 20.2002 83.2522 20.2799C84.2589 20.3812 85.2584 20.5549 86.2579 20.6779C87.7281 20.8661 89.1983 21.0398 90.6685 21.2135C91.0379 21.2569 91.4145 21.3076 91.7839 21.3076C92.1533 21.3004 92.2039 21.4741 92.2039 21.7925C92.2257 24.3112 92.2547 26.8372 92.2909 29.3559C92.4357 39.5826 92.5878 49.8094 92.7399 60.0362C92.7906 63.5465 92.8413 67.0567 92.9065 70.567C92.9137 70.842 92.8196 70.9144 92.5588 70.9289C91.0669 71.0012 89.5749 71.0953 88.0757 71.1822C86.3158 71.2835 84.5631 71.4355 82.8032 71.4644C81.3837 71.4934 79.9569 71.3848 78.5373 71.3124C76.5239 71.2111 74.5105 71.0881 72.5043 70.9723C72.0263 70.9433 71.5411 70.9144 70.9979 70.8854C70.9979 67.0857 70.9979 63.2931 70.9979 59.5079C70.9617 59.5006 70.9182 59.5006 70.882 59.4934C70.8386 59.6599 70.7951 59.8191 70.7517 59.9855C70.4402 61.0857 70.1288 62.1858 69.8319 63.2931C69.7667 63.532 69.6725 63.6188 69.419 63.6116C67.1159 63.5609 64.8128 63.532 62.5097 63.4886C62.0606 63.4813 61.6189 63.4524 61.1698 63.4524C60.9453 63.4524 60.8367 63.3872 60.7715 63.1556C60.5035 62.1713 60.2138 61.187 59.9241 60.2099C59.8951 60.1013 59.8589 59.9855 59.8082 59.8046C59.8082 62.9385 59.8082 66 59.8082 69.1194C62.4228 68.9819 64.9866 68.8444 67.5794 68.7069C67.5794 67.2377 67.5794 65.7974 67.5794 64.3354C67.9488 64.3354 68.2892 64.3354 68.6875 64.3354C68.6875 66.0869 68.6875 67.8311 68.6875 69.6116C67.9995 69.6478 67.297 69.6985 66.5872 69.7346C64.5376 69.8432 62.488 69.9011 60.4456 70.0603C57.7224 70.2702 55.0209 69.9807 52.3122 69.8504C51.2186 69.7998 50.1178 69.7346 49.0241 69.6767C48.4882 69.6478 48.4882 69.6623 48.481 69.105C48.481 68.6779 48.481 68.2437 48.481 67.7732C48.3289 67.8311 48.2202 67.8673 48.1188 67.9035C48.4737 67.7371 48.481 67.4475 48.4737 67.1146C48.423 52.9795 48.3796 38.8444 48.3434 24.7093C48.3434 24.3981 48.3434 24.0869 48.3434 23.7539C49.2487 23.6526 50.096 23.5513 50.9434 23.4572C53.0075 23.2328 55.0644 22.965 57.1285 22.7986C57.9324 22.7334 58.7581 22.8782 59.5765 22.9578C61.0757 23.1025 62.5749 23.2762 64.0741 23.4282C65.3415 23.5585 66.6162 23.6671 67.8836 23.8118C68.0067 23.8263 68.1733 24.0145 68.224 24.152C68.5354 25.0422 68.8252 25.9397 69.1583 26.924ZM83.4115 21.3004C83.6143 37.7081 83.8099 54.0362 84.0127 70.4222C86.6489 70.2847 89.2418 70.1399 91.8708 70.0024C91.639 54.0652 91.4145 38.1785 91.1828 22.2485C88.6044 21.93 86.0406 21.6188 83.4115 21.3004ZM59.6489 23.9276C61.4523 29.4572 63.2339 34.9288 65.0228 40.415C65.0518 40.3571 65.0735 40.3136 65.088 40.2702C66.2613 36.427 67.4346 32.5838 68.6006 28.7407C68.6368 28.6176 68.6224 28.4584 68.5861 28.3281C68.2892 27.3872 67.9778 26.4536 67.6663 25.5127C67.3984 24.7021 67.3984 24.731 66.5438 24.6514C65.0446 24.5139 63.5454 24.3402 62.0534 24.1809C61.264 24.0941 60.4745 24.0145 59.6489 23.9276Z" fill="#F2F2F2"/>
<path d="M7.02499 24.9843C8.77044 24.3184 10.429 23.6888 12.0875 23.0519C17.2297 21.0905 22.3791 19.1218 27.5213 17.1604C37.0524 13.5271 46.5835 9.90108 56.1147 6.26779C59.9894 4.79131 63.8569 3.31483 67.7244 1.83112C69.0932 1.31001 70.4693 0.781659 71.8454 0.275025C71.9902 0.224361 72.1785 0.217124 72.3234 0.267787C77.2555 2.03377 82.1804 3.81423 87.1126 5.58021C91.335 7.09288 95.5573 8.5983 99.7725 10.1037C104.067 11.6453 108.362 13.187 112.65 14.7286C116.923 16.263 121.196 17.8046 125.462 19.339C127.866 20.2002 130.263 21.076 132.668 21.9373C134.747 22.6827 136.825 23.421 138.911 24.1592C138.983 24.1882 139.056 24.2244 139.179 24.2823C139.056 24.3402 138.976 24.3908 138.889 24.4198C137.854 24.7817 136.818 25.1146 135.797 25.5054C135.29 25.7008 134.804 25.6357 134.305 25.5706C131.147 25.1653 127.989 24.7599 124.839 24.3474C122.318 24.0217 119.798 23.6888 117.27 23.3631C114.735 23.0374 112.201 22.7189 109.666 22.3932C106.964 22.0458 104.263 21.6912 101.561 21.3438C99.0482 21.0181 96.5423 20.6996 94.0292 20.3739C91.8564 20.0917 89.6764 19.8094 87.5037 19.5271C85.1571 19.2232 82.8178 18.9264 80.4712 18.6369C79.6963 18.5428 78.9068 18.3908 78.1391 18.4487C76.5675 18.5573 75.0031 18.7744 73.4315 18.9554C71.4181 19.187 69.4047 19.4186 67.3985 19.6502C65.3996 19.8818 63.4006 20.1061 61.3945 20.3305C58.9537 20.6128 56.5058 20.8878 54.065 21.1701C51.6098 21.4523 49.1546 21.7346 46.6994 22.0169C44.4977 22.2702 42.2887 22.5163 40.087 22.7696C38.0736 23.0012 36.0602 23.2328 34.054 23.4644C32.0261 23.696 30.0055 23.9131 27.9776 24.1447C26.0366 24.3619 24.0956 24.5935 22.1546 24.8178C19.9239 25.0712 17.7004 25.3245 15.4698 25.585C13.8764 25.7732 12.2903 25.9614 10.6969 26.1496C10.2551 26.2002 9.81336 26.2581 9.37156 26.2943C9.25568 26.3016 9.11808 26.3016 9.02392 26.2509C8.37934 25.8601 7.74924 25.4475 7.02499 24.9843Z" fill="#F2F2F2"/>
<path d="M24.7404 65.5223C24.0886 65.877 23.4368 66.2244 22.7849 66.5718C22.7704 66.5501 22.7632 66.5284 22.7487 66.5066C23.2991 66.0507 23.8496 65.6019 24.4145 65.1387C24.1538 64.7696 23.9148 64.4512 23.7047 64.1255C22.1403 61.7298 21.1626 59.117 21.025 56.2509C20.9164 53.9638 20.9308 51.6695 20.9236 49.3824C20.9164 46.5959 20.9381 43.8094 20.9453 41.0229C20.9598 38.6128 21.1481 36.2171 22.0534 33.959C22.5459 32.7358 23.234 31.5995 23.8423 30.4198C23.9075 30.2895 24.0017 30.181 24.1031 30.0362C23.8713 29.8408 23.654 29.6598 23.4368 29.4717C23.444 29.4572 23.4512 29.4355 23.4585 29.421C23.7265 29.5368 23.9872 29.6526 24.1755 29.7395C24.9722 28.9578 25.6964 28.1399 26.5293 27.4596C28.7383 25.643 31.2949 24.76 34.1629 24.8902C35.3507 24.9409 36.5384 25.1291 37.719 25.2594C38.9864 25.3969 40.2611 25.5344 41.5285 25.6719C43.0494 25.8311 44.5704 25.9976 46.0913 26.1568C46.3665 26.1858 46.6345 26.2147 46.9532 26.2437C46.9169 26.5694 46.8807 26.8589 46.8445 27.1918C44.889 26.9892 42.948 26.7865 41.0143 26.5838C41.0071 26.6056 40.9926 26.6273 40.9853 26.649C41.2099 26.8155 41.4416 26.9747 41.6661 27.1484C43.9548 29.0012 45.3453 31.4041 46.0623 34.234C46.5693 36.2244 46.6779 38.2509 46.6852 40.2919C46.6924 44.8372 46.7214 49.3824 46.7141 53.9276C46.7141 56.4463 46.4172 58.9288 45.4902 61.3028C44.5993 63.5826 43.2667 65.544 41.3112 67.0495C40.8477 67.4041 40.3408 67.7081 39.8265 68.0555C41.1229 67.9904 42.3904 67.918 43.6723 67.8528C43.7013 68.1713 43.7302 68.4536 43.7592 68.7793C43.4695 68.8082 43.1943 68.8444 42.9263 68.8589C40.4566 68.9892 37.9869 69.1267 35.5172 69.228C34.2788 69.2787 33.0258 69.3583 31.7946 69.2352C29.1004 68.9602 26.848 67.7298 24.9939 65.7684C24.9287 65.696 24.8635 65.6309 24.7983 65.5585C24.7766 65.544 24.7549 65.5296 24.7404 65.5223ZM36.2198 46.8854C36.227 44.62 36.227 42.3474 36.2198 40.082C36.2198 39.7057 36.198 39.3366 36.1618 38.9602C36.0242 37.6502 35.2275 36.7021 33.9601 36.3402C33.8515 36.3112 33.7139 36.2968 33.6052 36.3257C32.0988 36.7238 31.0124 37.5851 30.6213 39.1484C30.5127 39.5899 30.462 40.0531 30.4547 40.5091C30.4403 42.6442 30.4475 44.7793 30.4547 46.9144C30.462 49.3969 30.4547 51.8794 30.4982 54.3691C30.5199 55.7732 31.2442 56.7576 32.5189 57.3221C32.852 57.4668 33.2576 57.6405 33.5835 57.5609C34.5902 57.3293 35.4665 56.7865 35.8794 55.8022C36.1184 55.2232 36.2053 54.5428 36.2125 53.9059C36.2415 51.5609 36.2198 49.2232 36.2198 46.8854Z" fill="#F2F2F2"/>
<path d="M111.404 46.2847C111.36 43.0494 111.273 39.8215 111.281 36.5862C111.288 33.3293 112.121 30.2967 114.069 27.626C115.394 25.8094 117.147 24.7961 119.407 24.5645C122.369 24.2605 124.571 25.585 126.447 27.6767C128.771 30.2823 129.916 33.3872 130.147 36.8178C130.336 39.6188 130.379 42.4342 130.459 45.2425C130.56 49.0422 130.676 52.8347 130.705 56.6345C130.727 58.9505 130.408 61.2304 129.423 63.3655C128.503 65.3631 127.294 67.1435 125.418 68.3884C124.006 69.3221 122.441 69.6405 120.761 69.4958C118.038 69.2569 116.068 67.8384 114.583 65.6381C113.577 64.1544 112.736 62.5911 112.287 60.8396C111.889 59.2545 111.672 57.6478 111.628 56.0121C111.549 53.1098 111.505 50.2002 111.447 47.2907C111.44 46.9505 111.447 46.6176 111.447 46.2774C111.433 46.2847 111.418 46.2847 111.404 46.2847ZM122.883 47.4499C122.818 44.6562 122.782 41.8552 122.68 39.0615C122.651 38.316 122.441 37.5706 122.275 36.8396C122.144 36.2605 121.681 35.9566 121.167 35.7322C120.906 35.6164 120.667 35.6526 120.406 35.7829C119.754 36.1013 119.544 36.6876 119.515 37.3317C119.472 38.4029 119.465 39.4741 119.486 40.5452C119.581 45.5609 119.682 50.5766 119.805 55.5923C119.82 56.2437 119.979 56.9023 120.138 57.5392C120.269 58.0531 121.007 58.5742 121.464 58.5597C121.949 58.5452 122.659 58.0386 122.767 57.5102C122.912 56.8227 123.043 56.1134 123.035 55.4113C123.028 52.7551 122.941 50.1061 122.883 47.4499Z" fill="#F2F2F2"/>
<path d="M101.337 41.6019C101.076 41.9059 100.809 42.2171 100.548 42.5211C100.251 42.8613 99.6352 42.8251 99.3817 42.456C97.9695 40.4005 96.5644 38.3378 95.1521 36.2823C95.0145 36.0796 95.0218 35.9421 95.1376 35.7394C97.5277 31.6936 99.9322 27.655 102.286 23.5947C102.597 23.0519 103.01 22.965 103.495 23.0157C105.292 23.2111 107.088 23.4355 108.884 23.6671C109.007 23.6815 109.174 23.8191 109.203 23.9276C109.304 24.2823 109.413 24.6514 109.42 25.0133C109.565 32.5838 109.695 40.1616 109.833 47.7322C109.927 53.0012 110.028 58.2702 110.122 63.5392C110.151 65.1821 110.202 66.8179 110.209 68.4608C110.209 68.8154 110.093 69.1701 109.999 69.5103C109.978 69.5826 109.825 69.655 109.731 69.6622C108.254 69.7636 106.769 69.8649 105.292 69.9445C104.328 69.9952 103.365 70.0169 102.402 70.0531C102.185 70.0603 102.069 69.9952 102.04 69.7636C101.989 69.3366 101.859 68.9095 101.851 68.4825C101.699 60.0434 101.555 51.5971 101.417 43.158C101.41 42.6514 101.417 42.1448 101.417 41.6381C101.395 41.6309 101.366 41.6164 101.337 41.6019Z" fill="#F2F2F2"/>
</svg>
