<svg width="26" height="26" viewBox="0 0 26 26" fill="none" xmlns="http://www.w3.org/2000/svg">
<path d="M20.1251 8.90832L13.0008 15.1862L5.87496 8.90822C5.59122 8.65825 5.15872 8.68572 4.90884 8.96928C4.65906 9.25293 4.68625 9.68542 4.96999 9.93539L12.5484 16.6121C12.6777 16.726 12.8393 16.783 13.0009 16.783C13.1624 16.783 13.3241 16.726 13.4535 16.612L21.0303 9.9353C21.3139 9.68542 21.3412 9.25283 21.0913 8.96919C20.8412 8.68582 20.4088 8.65844 20.1251 8.90832Z" fill="#828282"/>
<path d="M21.9466 6H4.05342C2.92121 6 2 6.92112 2 8.05342V18.9139C2 20.0462 2.92121 20.9673 4.05342 20.9673H21.9466C23.0788 20.9673 24 20.0462 24 18.9139V8.05342C24 6.92121 23.0788 6 21.9466 6ZM22.6311 18.9139C22.6311 19.2913 22.324 19.5984 21.9466 19.5984H4.05342C3.67596 19.5984 3.36895 19.2913 3.36895 18.9139V8.05342C3.36895 7.67605 3.67596 7.36895 4.05342 7.36895H21.9466C22.324 7.36895 22.6311 7.67605 22.6311 8.05342V18.9139Z" fill="#828282"/>
</svg>
