<svg xmlns="http://www.w3.org/2000/svg" xmlns:xlink="http://www.w3.org/1999/xlink" width="360" height="307" fill="none" xmlns:v="https://vecta.io/nano"><style><![CDATA[.B{stroke:#000}.C{fill:#fff}.D{stroke:#fff}.E{fill:#fec}.F{fill:#16110d}.G{fill:#150035}.H{fill:#007550}.I{fill:#3c3c3b}.J{fill:#f2994a}.K{fill:#ffc856}.L{stroke-width:.462}]]></style><g fill="#001e20"><path d="M0 3h360v304H0z"/><path d="M0 0l13 169 167 90.5L360 147v160H0L79 84.5 0 0z" style="mix-blend-mode:screen" opacity=".3"/></g><g stroke="#16110d" class="L"><path d="M143.164 127.046l.39-1.057.79 7.088c-1.536-1.986-1.884-4.14-1.182-6.03zm1.375 5.892c-1.502-1.942-1.825-4.024-1.154-5.832v-.001l.162-.436c.062 1.32.575 2.677 1.564 3.955v.001c1.562 2 4.032 3.45 6.753 4.164s5.716.704 8.336-.21c1.624-.565 2.92-1.42 3.84-2.457l-.16.432c-.66 1.78-2.29 3.33-4.775 4.203-2.507.875-5.398.9-8.045.197s-5.027-2.09-6.523-4.015zm-.42-8.472l.005-.012-.005.012z" class="I"/><path d="M164.155 130.47c.643-1.747.335-3.76-1.123-5.623s-3.79-3.215-6.38-3.88-5.43-.644-7.896.212l15.4 9.292zm0 0c-.642 1.746-2.25 3.267-4.7 4.122m4.7-4.122l-4.7 4.122m0 0c-2.462.857-5.298.88-7.892.213m7.892-.213l-7.892.213m0 0c-2.594-.666-4.924-2.017-6.384-3.882m6.384 3.882l-6.384-3.882m0 0c-1.46-1.862-1.766-3.876-1.123-5.623m1.123 5.623l-1.123-5.623m0 0c.642-1.746 2.25-3.267 4.71-4.122l-4.71 4.122z" class="J"/><path d="M146.096 129.962h-.001c-1.175-1.497-1.503-3.07-.998-4.423.498-1.335 1.817-2.472 3.775-3.15h.001c2.193-.766 4.785-.83 7.32-.177s4.634 1.936 5.93 3.602h.001c1.175 1.497 1.502 3.07.998 4.423-.498 1.335-1.817 2.472-3.775 3.15-2.2.757-4.795.828-7.32.177-2.535-.653-4.634-1.936-5.93-3.602z" class="I"/><path d="M145.93 130.5h-.001c-1.175-1.497-1.503-3.07-.998-4.423.498-1.335 1.817-2.472 3.775-3.15h.001c2.193-.766 4.785-.83 7.32-.177s4.634 1.936 5.93 3.602h.001c1.175 1.497 1.502 3.07.998 4.423-.498 1.335-1.817 2.47-3.775 3.15-2.2.756-4.795.828-7.32.177-2.535-.653-4.634-1.936-5.93-3.602z" class="K"/><g class="I"><path d="M149.2 123.954l-.348-.448.168-.443.345.446-.165.445zm4.255 1.923h0l-.001-.002c-.324-.42-.88-.87-1.745-.845l.22-.594c.743-.075 1.22.288 1.523.672l.23.304.166-.058 1.323-.466-.2.516-1.488.524-.038-.05zm-2.89-.62l.145-.386a.37.37 0 0 1 .041-.078l1.594 2.028-.177.474-1.603-2.038zm3.41 3.853l-.052-.067-.1-.012-.26-.035h-.004c-.9-.125-1.807-.248-2.608-.5s-1.48-.63-1.963-1.256h0c-.498-.637-.563-1.128-.44-1.503a3.08 3.08 0 0 0 .439.736c1.1 1.402 3.025 1.667 4.796 1.9l.063.008h.001l.172.023 2.356 3.033-.193.52-2.216-2.853zm3.96 1.625h0l-.002-.003c-.442-.56-1.116-.88-1.882-1.083l.218-.584c.712.196 1.3.474 1.654.934.204.272.295.52.22.72l-.078.206a1.81 1.81 0 0 0-.13-.19zm1.35 1.67a4.62 4.62 0 0 0 .621-.342c-.15.258-.412.487-.747.687l.126-.345z"/><path d="M159.32 132.93l-.204.57-.866.316-.48-.63-.1-.12-.156.044c-.728.207-1.523.313-2.276.178-.746-.134-1.466-.508-2.05-1.287h-.001l-.218-.29.205-.57.023.03c.65.866 1.466 1.298 2.322 1.45.793.143 1.61.045 2.342-.147l.588.772.165-.06.696-.254z"/></g><path d="M158.33 131.928l-.283.122.545.69-.626.22-.552-.698-.153.042c-1.407.384-3.064.4-4.18-1.032h-.001l-.1-.115 1.272-.445.253.323c.368.474 1.026.95 2.1.78l.405-.065-2.735-3.495-.1-.012-.258-.034c-1.817-.247-3.56-.49-4.527-1.728h0c-.566-.723-.57-1.253-.36-1.647.224-.42.73-.768 1.356-1.047l.277-.123-.17-.216-.538-.686.627-.22.62.797.088.114.154-.04c1.343-.363 2.92-.394 4.034.882l-1.268.444-.037-.05-.003-.002c-.37-.47-1.03-.976-2.085-.796l-.4.068.227.29 2.485 3.172.086.014.024.003.335.044c1.813.247 3.552.49 4.52 1.727v.001c.576.73.574 1.264.354 1.663-.235.426-.76.777-1.405 1.058zm-2.488-3.406l-.67-.155 2.44 3.108.193-.132c.37-.253.522-.566.51-.884-.012-.297-.166-.57-.34-.782-.496-.637-1.273-.956-2.133-1.155zm-5-2.522h0c.47.61 1.214.92 2.022 1.128l.69.178-.416-.532-2-2.566-.196.152c-.333.258-.455.567-.43.872.023.287.174.554.34.768z" class="J"/><path d="M134.005 136.298a4.72 4.72 0 0 0 .229.556l.002-.595c-.15-.437-.227-.88-.226-1.326l-.005 1.365zm19.755 3.57c1.438-.835 2.44-1.85 2.98-2.944l-.002.42c-.01 1.583-1.046 3.212-3.22 4.48-2.19 1.274-5.085 1.918-7.995 1.918s-5.812-.644-8.017-1.918l16.254-1.958z" class="I"/><path d="M153.464 130.442c2.206 1.275 3.265 2.918 3.274 4.514s-1.028 3.236-3.22 4.51-5.085 1.918-7.995 1.918-5.812-.644-8.017-1.92-3.265-2.917-3.275-4.513 1.028-3.237 3.22-4.51 5.1-1.918 8-1.918 5.808.644 8.014 1.918z" class="J"/><path d="M138.116 138.42h-.001c-1.77-1.02-2.673-2.27-2.673-3.5 0-1.202.885-2.444 2.628-3.453h0c1.942-1.13 4.56-1.754 7.392-1.754s5.458.632 7.4 1.763l.001.001c1.77 1.018 2.673 2.27 2.673 3.49 0 1.202-.885 2.445-2.628 3.454-1.942 1.122-4.57 1.753-7.392 1.753-2.83 0-5.458-.63-7.4-1.763z" class="I"/><path d="M138.116 138.986h-.001c-1.77-1.02-2.673-2.27-2.673-3.5 0-1.202.885-2.445 2.628-3.454h0c1.942-1.13 4.56-1.753 7.392-1.753s5.458.63 7.4 1.763h.001c1.77 1.02 2.673 2.27 2.673 3.5 0 1.202-.885 2.444-2.628 3.453-1.942 1.122-4.57 1.754-7.392 1.754-2.83 0-5.458-.632-7.4-1.763z" class="K"/><path d="M139.744 132.644l-.626-.36.004-.43.622.36v.43zm4.58.45h0l-.002-.001c-.487-.284-1.2-.535-2.064-.318v-.483c.744-.23 1.38-.02 1.832.24l.317.2 1.32-.772v.426l-1.32.77-.086-.05zm-3.114.395l-.05-.03v-.344c0-.02.004-.044.015-.075l2.505 1.448v.428l-2.47-1.428zm4.625 2.675l-.064-.038-.074.008-.277.027h-.001l-.006.001-2.827.145c-.908-.04-1.75-.2-2.476-.633l-.001-.001c-.75-.432-.976-.82-1-1.126.192.195.445.383.76.565.82.474 1.742.654 2.692.695.937.04 1.917-.053 2.865-.144l.03-.003h.001l.138-.014.064-.007 3.514 2.033v.427l-3.347-1.935zm4.243.362h0l-.004-.002c-.668-.385-1.48-.5-2.35-.513v-.498c.826.01 1.55.123 2.118.45a1.64 1.64 0 0 1 .37.288c.1.1.124.183.124.253v.2a2.58 2.58 0 0 0-.26-.176zm1.635 1.198c.245-.175.472-.366.657-.57-.024.178-.114.364-.27.56-.106.13-.237.26-.387.387v-.375zm.377.755v.426l-.75.44-.83-.476-.1.055c-1.295.64-3.007 1.025-4.713.035h0l-.3-.174v-.428l.07.04c1.844 1.07 3.683.676 5.038.033l.85.487.746-.437z" class="I"/><path d="M151.35 137.414l-.303.208.32.183.494.282-.52.304-.83-.475-.1.054c-1.295.64-3.007 1.026-4.713.035h0l-.072-.04 1.092-.638.4.238a2.72 2.72 0 0 0 2.385.202l.46-.17-4.184-2.42-.074.007-.276.028h-.001l-.012.001-2.818.145c-.907-.04-1.748-.21-2.48-.634h0c-.868-.502-1.04-.94-.982-1.277.03-.186.135-.38.307-.582s.4-.397.665-.582l.295-.21-.313-.18-.745-.43.52-.304.964.56.107.063.11-.055c1.22-.598 2.817-.977 4.437-.166l-1.084.634-.086-.05-.003-.002c-.554-.317-1.395-.594-2.377-.22l-.454.173.42.243 3.728 2.154.07-.005.026-.002.355-.036.006-.001 2.818-.145c.907.04 1.748.21 2.48.634v.001c.88.506 1.047.95.984 1.29-.035.19-.146.388-.326.594s-.42.403-.692.59zm-3.863-2.353l-.83.016 3.75 2.162.125-.133c.137-.146.227-.302.258-.468s-.001-.327-.07-.464c-.13-.262-.398-.462-.65-.602-.74-.43-1.64-.53-2.585-.51zm-6.04-.985h0c.7.412 1.565.513 2.463.513h.862l-3.733-2.157-.125.15c-.12.145-.19.3-.207.463s.025.313.097.443c.14.248.398.443.643.587z" class="J"/></g><g class="C"><use xlink:href="#B"/><use xlink:href="#C"/><path d="M132.985 123.935c.304.178.304.458 0 .636s-.787.178-1.092 0-.304-.458 0-.636.787-.178 1.092 0zm2.855-1.655c.305.178.305.458 0 .636a1.18 1.18 0 0 1-1.09 0c-.304-.178-.305-.458 0-.636a1.18 1.18 0 0 1 1.091 0z"/><use xlink:href="#D"/><use xlink:href="#E"/><use xlink:href="#F"/><use xlink:href="#G"/><use xlink:href="#H"/><use xlink:href="#I"/><path d="M155.816 110.713c.304.178.304.458 0 .637a1.18 1.18 0 0 1-1.09 0c-.303-.178-.305-.46 0-.637s.8-.178 1.1 0zm2.854-1.653c.305.178.305.458 0 .636a1.18 1.18 0 0 1-1.09 0c-.304-.178-.305-.458 0-.636s.8-.178 1.1 0z"/><use xlink:href="#B" x="-5.71"/><use xlink:href="#C" x="-5.711"/><use xlink:href="#D" x="-11.422" y="3.3"/><use xlink:href="#I" x="-22.831" y="9.926"/><use xlink:href="#D" x="-5.712"/><path d="M135.84 118.972c.305.178.305.458 0 .636s-.786.178-1.09 0-.305-.458 0-.636.787-.178 1.09 0z"/><use xlink:href="#F" x="-5.709"/><use xlink:href="#G" x="-5.713"/><use xlink:href="#J"/><use xlink:href="#K"/><path d="M150.105 110.713c.305.178.305.458 0 .637a1.18 1.18 0 0 1-1.09 0c-.303-.178-.305-.46 0-.637s.8-.178 1.1 0zm2.855-1.653c.305.178.305.458 0 .636a1.18 1.18 0 0 1-1.09 0c-.304-.178-.305-.458 0-.636s.8-.178 1.1 0z"/><use xlink:href="#D" x="17.118" y="-13.232"/><use xlink:href="#L"/><path d="M121.565 123.935c.304.178.304.458 0 .636s-.787.178-1.09 0-.305-.458 0-.636.786-.178 1.09 0z"/><use xlink:href="#I" x="-28.542" y="9.926"/><path d="M127.275 120.627c.304.178.304.458 0 .636a1.18 1.18 0 0 1-1.09 0c-.303-.178-.305-.458 0-.636a1.18 1.18 0 0 1 1.091 0zm2.855-1.655c.305.178.305.458 0 .636a1.18 1.18 0 0 1-1.09 0c-.304-.178-.305-.458 0-.636a1.18 1.18 0 0 1 1.09 0z"/><use xlink:href="#F" x="-11.422"/><use xlink:href="#M"/><use xlink:href="#J" x="-5.709"/><use xlink:href="#K" x="-5.713"/><use xlink:href="#N"/><use xlink:href="#E" x="5.713" y="-9.912"/><use xlink:href="#H" y="-6.617"/><path d="M152.96 105.75c.305.178.305.458 0 .637s-.786.178-1.09 0-.305-.46 0-.637.8-.178 1.09 0z"/><use xlink:href="#D" x="-22.845" y="3.3"/><use xlink:href="#I" x="-34.253" y="9.926"/><path d="M127.275 117.317c.304.178.304.458 0 .637s-.787.178-1.09 0-.305-.46 0-.637c.304-.165.786-.165 1.09 0z"/><use xlink:href="#M" x="-5.71"/><path d="M135.84 112.367c.305.18.305.46 0 .637s-.786.178-1.09 0-.305-.458 0-.637.787-.178 1.09 0z"/><use xlink:href="#N" x="-5.709"/><use xlink:href="#E" y="-9.912"/><use xlink:href="#J" y="-6.617"/><path d="M115.853 120.627c.305.178.305.458 0 .636a1.18 1.18 0 0 1-1.09 0c-.303-.178-.305-.458 0-.636s.8-.18 1.1 0zm44.595-13.197c.305-.178.787-.178 1.092 0s.304.458 0 .636-.787.178-1.092 0-.304-.458 0-.636zm3.946-1.654c.305.178.305.458 0 .636a1.18 1.18 0 0 1-1.09 0c-.303-.178-.305-.458 0-.636a1.18 1.18 0 0 1 1.09 0z"/><use xlink:href="#L" x="48.542" y="-21.468"/><path d="M170.106 102.467c.305.178.305.458 0 .636a1.18 1.18 0 0 1-1.091 0c-.305-.178-.305-.458 0-.636.3-.178.786-.178 1.1 0zm2.854-1.654c.305.178.305.458 0 .636a1.18 1.18 0 0 1-1.09 0c-.304-.178-.305-.458 0-.636.292-.165.787-.165 1.1 0zm2.3-.9c.428 0 .774-.2.774-.445s-.346-.445-.774-.445-.774.2-.774.445.347.445.774.445z"/><use xlink:href="#O"/><use xlink:href="#H" x="31.408" y="-18.159"/><path d="M184.37 94.2c.304.178.304.458 0 .636s-.787.178-1.092 0-.304-.458 0-.636.8-.178 1.092 0zm-26.778 11.566a1.18 1.18 0 0 1 1.09 0c.303.178.305.458 0 .636a1.18 1.18 0 0 1-1.09 0c-.303-.178-.305-.458 0-.636zm3.402-.89c.427 0 .774-.2.774-.445s-.347-.446-.774-.446-.774.2-.774.446.346.445.774.445zm3.4-2.418c.305.178.305.458 0 .636a1.18 1.18 0 0 1-1.091 0c-.305-.178-.305-.458 0-.636a1.18 1.18 0 0 1 1.09 0zm2.856-1.654c.305.178.305.458 0 .636a1.18 1.18 0 0 1-1.09 0c-.304-.178-.304-.458 0-.636.305-.165.787-.165 1.1 0zm2.856-1.655c.305.178.305.458 0 .636a1.18 1.18 0 0 1-1.09 0c-.303-.178-.305-.458 0-.636.3-.165.786-.165 1.1 0z"/><use xlink:href="#O" x="-5.71"/><use xlink:href="#P"/><use xlink:href="#O" y="-3.307"/><use xlink:href="#H" x="31.408" y="-21.468"/><use xlink:href="#I" x="31.41" y="-21.454"/><path d="M154.738 104.122c.305-.178.787-.178 1.092 0s.304.458 0 .636-.787.178-1.092 0-.304-.458 0-.636zm3.4-.892c.428 0 .775-.2.775-.446s-.347-.445-.775-.445-.774.2-.774.445.347.446.774.446zm3.403-2.417c.304.178.304.458 0 .636s-.787.178-1.092 0-.304-.458 0-.636a1.27 1.27 0 0 1 1.092 0zm2.308-.9c.428 0 .774-.2.774-.445s-.346-.445-.774-.445-.774.2-.774.445.347.445.774.445z"/><use xlink:href="#L" x="48.542" y="-28.073"/><path d="M170.106 95.863c.305.178.305.458 0 .636s-.787.178-1.09 0-.305-.458 0-.636c.29-.178.786-.178 1.09 0z"/><use xlink:href="#O" x="-5.71" y="-3.307"/><use xlink:href="#P" y="-3.309"/><use xlink:href="#O" y="-6.617"/><use xlink:href="#H" x="31.408" y="-24.776"/><use xlink:href="#I" x="31.41" y="-24.763"/></g><g class="H"><path d="M183.912 44.288v41.56l-63.224 35.427 5.837-14.24 6.84.09 15.343-33.34 8.503 8.97 7.73-12.865 5.317 4.937 13.655-30.54z"/><path d="M120.687 121.275l-6.104-3.36 5.838-14.24 6.104 3.36-5.838 14.24z"/></g><path d="M120.104 121.48l-4.2-2.443 5.85-14.24 6.104 3.36-4.975 12.09-2.78 1.234z" class="E"/><path d="M127.26 103.752l6.104 3.372-6.84-.09-6.104-3.36 6.84.076z" class="H"/><path d="M128.708 104.847l6.232 3.4-7.082-.1-5.977-3.36 6.827.05z" class="E"/><path d="M142.605 70.425l6.104 3.36-15.343 33.34-6.104-3.372 15.343-33.328z" class="H"/><path d="M144.193 71.558l6.104 3.372-15.356 33.327-6.104-3.372 15.356-33.327z" class="E"/><path d="M158.836 66.52l6.105 3.372-7.73 12.865-5.102-5.383 6.726-10.855z" class="H"/><path d="M160.156 67.676l6.104 3.36-7.73 12.865-5.1-5.383 6.726-10.842z" class="E"/><path d="M177.81 40.928l6.104 3.36-13.655 30.54-5.318-4.937 12.87-28.963z" class="H"/><path d="M179.14 42.06l4.77 2.634v3.627l-12.335 27.64-5.317-4.937 12.88-28.963z" class="E"/><path d="M184.37 44.4v-.356l-.686-.37-6.104-3.372-12.868 28.963-6.054-3.334-6.637 10.702-3.02-3.194-.508-.28-6.104-3.372-15.432 33.518-6.84-.076-6.117 14.89 6.104 3.372.584.318.368-.204 63.326-35.478-.012-41.726zm-6.346-2.825l5.292 2.927-13.223 29.573-4.582-4.25.05-.09-.05-.025 12.513-28.135zM152.68 77.3L159 67.13l5.305 2.927-7.183 11.95-4.442-4.696zm-9.86-6.26l5.305 2.927-6.09 13.222-8.884 19.292-5.305-2.927L142.82 71.05zm-20.61 33.085l4.924.064 2.59 1.425 1.853 1.03-4.924-.05-3.63-2.01-.812-.458zm-1.548.178l1.345.74 3.947 2.176-5.508 13.4-5.292-2.927 5.508-13.387zm.94 15.932l5.24-12.75 6.396.076h.42l15.178-32.984 8.452 8.92 7.74-12.89 5.38 4.988 13.033-29.14v39.143l-61.84 34.638z" class="F"/><use xlink:href="#Q" class="C"/><use xlink:href="#Q" class="B"/><use xlink:href="#R" class="C"/><use xlink:href="#R" class="B"/><use xlink:href="#S" class="C"/><use xlink:href="#S" class="B"/><use xlink:href="#T" class="C"/><use xlink:href="#T" class="B"/><use xlink:href="#U" class="C"/><use xlink:href="#U" class="B"/><use xlink:href="#R" y="-2.26" class="C"/><use xlink:href="#R" y="-2.26" class="B"/><use xlink:href="#S" x="-7.81" class="C"/><use xlink:href="#S" x="-7.81" class="B"/><use xlink:href="#T" y="-2.26" class="C"/><use xlink:href="#T" y="-2.26" class="B"/><use xlink:href="#U" y="-2.262" class="C"/><use xlink:href="#U" y="-2.262" class="B"/><use xlink:href="#V" class="C"/><use xlink:href="#V" class="B"/><use xlink:href="#S" x="-7.81" y="-2.263" class="C"/><use xlink:href="#S" x="-7.81" y="-2.263" class="B"/><use xlink:href="#W" class="C"/><use xlink:href="#W" class="B"/><use xlink:href="#X" class="C"/><use xlink:href="#X" class="B"/><use xlink:href="#Y" class="C"/><use xlink:href="#Y" class="B"/><use xlink:href="#T" x="-1.95" y="-5.654" class="C"/><use xlink:href="#T" x="-1.95" y="-5.654" class="B"/><use xlink:href="#Z" class="C"/><use xlink:href="#Z" class="B"/><use xlink:href="#a" class="C"/><use xlink:href="#a" class="B"/><use xlink:href="#b" class="C"/><use xlink:href="#b" class="B"/><use xlink:href="#c" class="C"/><use xlink:href="#c" class="B"/><use xlink:href="#T" x="-7.815" y="-6.794" class="C"/><use xlink:href="#T" x="-7.815" y="-6.794" class="B"/><use xlink:href="#W" x="-5.864" y="-3.402" class="C"/><use xlink:href="#W" x="-5.864" y="-3.402" class="B"/><use xlink:href="#X" x="-5.874" y="-3.402" class="C"/><use xlink:href="#X" x="-5.874" y="-3.402" class="B"/><use xlink:href="#Y" x="-5.875" y="-3.402" class="C"/><use xlink:href="#Y" x="-5.875" y="-3.402" class="B"/><use xlink:href="#d" class="C"/><use xlink:href="#d" class="B"/><use xlink:href="#e" class="C"/><use xlink:href="#e" class="B"/><use xlink:href="#f" class="C"/><use xlink:href="#f" class="B"/><use xlink:href="#g" class="C"/><use xlink:href="#g" class="B"/><use xlink:href="#T" x="-15.625" y="-9.056" class="C"/><use xlink:href="#T" x="-15.625" y="-9.056" class="B"/><use xlink:href="#h" class="C"/><use xlink:href="#h" class="B"/><use xlink:href="#i" class="C"/><use xlink:href="#i" class="B"/><use xlink:href="#j" class="C"/><use xlink:href="#j" class="B"/><use xlink:href="#h" x="-1.952" y="-1.132" class="C"/><use xlink:href="#h" x="-1.952" y="-1.132" class="B"/><use xlink:href="#k" class="C"/><use xlink:href="#k" class="B"/><use xlink:href="#j" x="-1.953" y="-1.132" class="C"/><use xlink:href="#j" x="-1.953" y="-1.132" class="B"/><use xlink:href="#j" y="-2.263" class="C"/><use xlink:href="#j" y="-2.263" class="B"/><use xlink:href="#l" class="C"/><use xlink:href="#l" class="B"/><use xlink:href="#m" class="C"/><use xlink:href="#m" class="B"/><use xlink:href="#S" x="-23.437" y="-13.573" class="C"/><use xlink:href="#S" x="-23.437" y="-13.573" class="B"/><use xlink:href="#R" x="-23.452" y="-15.842" class="C"/><use xlink:href="#R" x="-23.452" y="-15.842" class="B"/><use xlink:href="#n" class="C"/><use xlink:href="#n" class="B"/><use xlink:href="#b" x="21.58" y="12.276" class="C"/><use xlink:href="#b" x="21.58" y="12.276" class="B"/><use xlink:href="#S" x="13.75" y="5.49" class="C"/><use xlink:href="#S" x="13.75" y="5.49" class="B"/><use xlink:href="#T" x="21.563" y="3.22" class="C"/><use xlink:href="#T" x="21.563" y="3.22" class="B"/><use xlink:href="#o" class="C"/><use xlink:href="#o" class="B"/><use xlink:href="#T" x="25.467" y="0.958" class="C"/><use xlink:href="#T" x="25.467" y="0.958" class="B"/><use xlink:href="#p" class="C"/><use xlink:href="#p" class="B"/><use xlink:href="#e" x="43.045" y="6.621" class="C"/><use xlink:href="#e" x="43.045" y="6.621" class="B"/><use xlink:href="#h" x="44.997" y="7.75" class="C"/><use xlink:href="#h" x="44.997" y="7.75" class="B"/><use xlink:href="#i" x="44.997" y="7.752" class="C"/><use xlink:href="#i" x="44.997" y="7.752" class="B"/><use xlink:href="#q" class="C"/><use xlink:href="#q" class="B"/><use xlink:href="#Z" x="19.626" y="11.144" class="C"/><use xlink:href="#Z" x="19.626" y="11.144" class="B"/><use xlink:href="#b" x="17.676" y="12.276" class="C"/><use xlink:href="#b" x="17.676" y="12.276" class="B"/><use xlink:href="#n" y="-2.26" class="C"/><use xlink:href="#n" y="-2.26" class="B"/><use xlink:href="#r" class="C"/><use xlink:href="#r" class="B"/><use xlink:href="#s" class="C"/><use xlink:href="#s" class="B"/><use xlink:href="#t" class="C"/><use xlink:href="#t" class="B"/><use xlink:href="#u" class="C"/><use xlink:href="#u" class="B"/><use xlink:href="#W" x="25.466" y="3.219" class="C"/><use xlink:href="#W" x="25.466" y="3.219" class="B"/><use xlink:href="#j" x="44.996" y="7.75" class="C"/><use xlink:href="#j" x="44.996" y="7.75" class="B"/><use xlink:href="#h" x="43.045" y="6.62" class="C"/><use xlink:href="#h" x="43.045" y="6.62" class="B"/><use xlink:href="#l" x="46.949" y="8.884" class="C"/><use xlink:href="#l" x="46.949" y="8.884" class="B"/><use xlink:href="#i" x="44.997" y="5.49" class="C"/><use xlink:href="#i" x="44.997" y="5.49" class="B"/><use xlink:href="#v" class="C"/><use xlink:href="#v" class="B"/><use xlink:href="#S" x="5.933" y="5.463" class="C"/><use xlink:href="#S" x="5.933" y="5.463" class="B"/><use xlink:href="#w" class="C"/><use xlink:href="#w" class="B"/><use xlink:href="#i" x="27.417" y="13.39" class="C"/><use xlink:href="#i" x="27.417" y="13.39" class="B"/><use xlink:href="#i" x="29.37" y="12.259" class="C"/><use xlink:href="#i" x="29.37" y="12.259" class="B"/><use xlink:href="#Z" x="27.417" y="4.35" class="C"/><use xlink:href="#Z" x="27.417" y="4.35" class="B"/><use xlink:href="#x" class="C"/><use xlink:href="#x" class="B"/><use xlink:href="#y" class="C"/><use xlink:href="#y" class="B"/><use xlink:href="#z" class="C"/><use xlink:href="#z" class="B"/><use xlink:href="#AA" class="C"/><use xlink:href="#AA" class="B"/><use xlink:href="#g" x="39.123" y="4.35" class="C"/><use xlink:href="#g" x="39.123" y="4.35" class="B"/><use xlink:href="#q" x="-3.922" y="-2.272" class="C"/><use xlink:href="#q" x="-3.922" y="-2.272" class="B"/><use xlink:href="#v" x="-1.954" y="-1.132" class="C"/><use xlink:href="#v" x="-1.954" y="-1.132" class="B"/><use xlink:href="#j" x="27.418" y="13.39" class="C"/><use xlink:href="#j" x="27.418" y="13.39" class="B"/><use xlink:href="#AB" class="C"/><use xlink:href="#AB" class="B"/><use xlink:href="#AC" class="C"/><use xlink:href="#AC" class="B"/><path d="M221.523 132.69c.208.122.208.314 0 .435a.81.81 0 0 1-.747 0l.747-.435z" class="C"/><path d="M221.523 132.69c.208.122.208.314 0 .435a.81.81 0 0 1-.747 0l.747-.435z" class="B"/><path d="M223.476 131.558c.208.122.208.313 0 .435a.81.81 0 0 1-.747 0l.747-.435z" class="C"/><path d="M223.476 131.558c.208.122.208.313 0 .435a.81.81 0 0 1-.747 0l.747-.435z" class="B"/><use xlink:href="#S" x="0.076" y="4.332" class="C"/><use xlink:href="#S" x="0.076" y="4.332" class="B"/><use xlink:href="#AB" x="-3.905" class="C"/><use xlink:href="#AB" x="-3.905" class="B"/><use xlink:href="#j" x="27.418" y="11.127" class="C"/><use xlink:href="#j" x="27.418" y="11.127" class="B"/><use xlink:href="#i" x="15.705" y="13.39" class="C"/><use xlink:href="#i" x="15.705" y="13.39" class="B"/><use xlink:href="#AB" x="-5.857" y="-1.13" class="C"/><use xlink:href="#AB" x="-5.857" y="-1.13" class="B"/><use xlink:href="#j" x="25.464" y="9.996" class="C"/><use xlink:href="#j" x="25.464" y="9.996" class="B"/><use xlink:href="#AD" class="C"/><use xlink:href="#AD" class="B"/><use xlink:href="#AE" class="C"/><use xlink:href="#AE" class="B"/><use xlink:href="#AF" class="C"/><use xlink:href="#AF" class="B"/><use xlink:href="#AG" class="C"/><use xlink:href="#AG" class="B"/><use xlink:href="#T" x="39.142" y="-9.195" class="C"/><use xlink:href="#T" x="39.142" y="-9.195" class="B"/><use xlink:href="#AH" class="C"/><use xlink:href="#AH" class="B"/><use xlink:href="#n" x="19.506" y="-15.816" class="C"/><use xlink:href="#n" x="19.506" y="-15.816" class="B"/><use xlink:href="#b" x="41.085" y="-3.541" class="C"/><use xlink:href="#b" x="41.085" y="-3.541" class="B"/><use xlink:href="#AI" class="C"/><use xlink:href="#AI" class="B"/><use xlink:href="#AJ" class="C"/><use xlink:href="#AJ" class="B"/><use xlink:href="#AK" fill="#ffbe2e"/><use xlink:href="#AK" class="D"/><use xlink:href="#AL" class="C"/><use xlink:href="#AL" class="D"/><use xlink:href="#AM" fill="#ffbe2e"/><use xlink:href="#AM" class="D"/><use xlink:href="#AN" class="C"/><use xlink:href="#AN" class="D"/><use xlink:href="#AO" class="E"/><use xlink:href="#AO" class="D"/><use xlink:href="#AP" class="F"/><use xlink:href="#AP" class="D"/><use xlink:href="#AQ" class="E"/><use xlink:href="#AQ" class="D"/><use xlink:href="#AR" class="F"/><use xlink:href="#AR" class="D"/><use xlink:href="#AS" class="E"/><use xlink:href="#AS" class="D"/><use xlink:href="#AT" class="F"/><use xlink:href="#AT" class="D"/><use xlink:href="#AU" class="E"/><use xlink:href="#AU" class="D"/><use xlink:href="#AV" class="F"/><use xlink:href="#AV" class="D"/><use xlink:href="#AW" class="E"/><use xlink:href="#AW" class="D"/><use xlink:href="#AX" class="F"/><use xlink:href="#AX" class="D"/><use xlink:href="#AY" class="E"/><use xlink:href="#AY" class="D"/><use xlink:href="#AZ" class="F"/><use xlink:href="#AZ" class="D"/><use xlink:href="#Aa" class="E"/><use xlink:href="#Aa" class="D"/><use xlink:href="#Ab" class="F"/><use xlink:href="#Ab" class="D"/><use xlink:href="#Ac" class="E"/><use xlink:href="#Ac" class="D"/><use xlink:href="#Ad" class="F"/><use xlink:href="#Ad" class="D"/><use xlink:href="#Ae" class="E"/><use xlink:href="#Ae" class="D"/><use xlink:href="#Af" class="F"/><use xlink:href="#Af" class="D"/><use xlink:href="#Ag" class="E"/><use xlink:href="#Ag" class="D"/><use xlink:href="#Ah" class="F"/><use xlink:href="#Ah" class="D"/><use xlink:href="#Ai" class="E"/><use xlink:href="#Ai" class="D"/><use xlink:href="#Aj" class="F"/><use xlink:href="#Aj" class="D"/><use xlink:href="#Ak" class="E"/><use xlink:href="#Ak" class="D"/><use xlink:href="#Al" class="F"/><use xlink:href="#Al" class="D"/><use xlink:href="#Am" class="E"/><use xlink:href="#Am" class="D"/><use xlink:href="#An" class="F"/><use xlink:href="#An" class="D"/><use xlink:href="#Ao" class="E"/><use xlink:href="#Ao" class="D"/><use xlink:href="#Ap" class="F"/><use xlink:href="#Ap" class="D"/><use xlink:href="#Aq" class="E"/><use xlink:href="#Aq" class="D"/><use xlink:href="#Ar" class="F"/><use xlink:href="#Ar" class="D"/><use xlink:href="#As" class="E"/><use xlink:href="#As" class="D"/><use xlink:href="#At" class="F"/><use xlink:href="#At" class="D"/><use xlink:href="#Au" class="E"/><use xlink:href="#Au" class="D"/><use xlink:href="#Av" class="F"/><use xlink:href="#Av" class="D"/><g class="B L"><path d="M123.252 97.527l.08.217.002-.001.007-.003.028-.01.104-.038.372-.136 1.126-.4 1.146-.415-.04.12.53-.295c.004-.002.014-.008.026-.017s.024-.02.034-.03.028-.045.04-.08l-3.454 1.098zm0 0l.08.217-.426.155.124-.436.044-.163c.177-.68.453-1.74 6.518-15.23l-6.34 15.455zm50.04-64.684l-13.412 26.36-3.607-12.458-14.286 32.306-3.177-11.737-.266.587c-4.364 9.648-11.506 26.353-12.23 28.27l-.022.008-.362.13-1.117.404-1.22.444c.243-.8 1.102-3.066 6.42-14.895h0l5.034-11.634 1.944-4.615.496-1.186.08-.192.158-.378.04-.097.013-.03.003-.007 1.37-3.022 3.107 11.65.266-.602 14.713-33.334 3.726 12.782 11.55-22.138-.034-.095-.692-1.948 4.376-3.43-2.245 9.536-.368-1.184-.258.507z" class="K"/><path d="M123.2 97.06l-.052.12-2.06-1.366.084-.198 11.877-27.838 2.246-5.252 1.524-3.364 2.065 1.37-1.478 3.48-.014.03-.034.076-.125.284-.463 1.067-1.635 3.792-4.934 11.484-7 16.315zm48.792-67.623l-10.897 21L160 46.702l9.986-18.893-.034-.095-.692-1.965 4.746-3.72 2.154 1.43-4.95 3.808.056.158.715 2zm-29.66 41.938l-1.03-3.858 13.562-30.678 2.14 1.437-14.672 33.1z" fill="#f9fffd"/><path d="M139.634 77.95l-1.968-6.965 1.034-2.3 2.85 10.53-1.916-1.275zm17.886-19.9L155.335 50l.845-1.9 3.24 11.196-1.9-1.265z" class="K"/><path d="M173.366 33.72l.077-.146.08.254-.158-.108z" fill="#f9fffd"/></g><use xlink:href="#Aw" class="C"/><use xlink:href="#Aw" class="B"/><use xlink:href="#Ax" class="G"/><use xlink:href="#Ax" class="B"/><use xlink:href="#Ay" class="H"/><use xlink:href="#Ay" class="B"/><use xlink:href="#Az" class="G"/><use xlink:href="#Az" class="B"/><use xlink:href="#BA" class="G"/><use xlink:href="#BA" class="B"/><path d="M218.295 80.063l-8.188 4.904.382.638 8.188-4.904-.382-.638z" class="G"/><path d="M218.295 80.063l-8.188 4.904.382.638 8.188-4.904-.382-.638z" class="B"/><path d="M223.656 84.617l-8.187 4.903.382.638 8.187-4.903-.382-.638z" class="G"/><path d="M223.656 84.617l-8.187 4.903.382.638 8.187-4.903-.382-.638z" class="B"/><use xlink:href="#BA" x="15.122" y="14.308" class="G"/><use xlink:href="#BA" x="15.122" y="14.308" class="B"/><use xlink:href="#BA" x="12.458" y="12.816" class="G"/><use xlink:href="#BA" x="12.458" y="12.816" class="B"/><use xlink:href="#BB" class="C"/><use xlink:href="#BB" class="B"/><use xlink:href="#BC" class="G"/><use xlink:href="#BC" class="B"/><use xlink:href="#BD" class="H"/><use xlink:href="#BD" class="B"/><use xlink:href="#BE" class="G"/><use xlink:href="#BE" class="B"/><use xlink:href="#BF" class="H"/><use xlink:href="#BF" class="B"/><use xlink:href="#BG" class="G"/><use xlink:href="#BG" class="B"/><use xlink:href="#BD" x="22.279" y="18.479" class="H"/><use xlink:href="#BD" x="22.279" y="18.479" class="B"/><use xlink:href="#BH" class="G"/><use xlink:href="#BH" class="B"/><use xlink:href="#BI" class="H"/><use xlink:href="#BI" class="B"/><use xlink:href="#BJ" class="G"/><use xlink:href="#BJ" class="B"/><path d="M223.674 88.967l-4.805 2.877.382.638 4.805-2.877-.382-.638z" class="G"/><path d="M223.674 88.967l-4.805 2.877.382.638 4.805-2.877-.382-.638z" class="B"/><path d="M222.937 87.503l-4.804 2.878.382.638 4.805-2.878-.383-.638z" class="G"/><path d="M222.937 87.503l-4.804 2.878.382.638 4.805-2.878-.383-.638z" class="B"/><defs ><path id="B" d="M127.275 127.23c.304.178.304.458 0 .636a1.18 1.18 0 0 1-1.091 0c-.305-.178-.305-.458 0-.636.304-.165.786-.165 1.09 0z"/><path id="C" d="M129.585 126.34c.427 0 .774-.2.774-.446s-.347-.445-.774-.445-.774.2-.774.445.346.446.774.446z"/><path id="D" d="M138.152 121.4c.428 0 .774-.2.774-.446s-.346-.445-.774-.445-.774.2-.774.445.347.446.774.446z"/><path id="E" d="M141.55 118.972c.305.178.305.458 0 .636s-.787.178-1.09 0-.305-.458 0-.636c.292-.178.787-.178 1.09 0z"/><path id="F" d="M144.407 117.317c.304.178.304.458 0 .637s-.787.178-1.092 0-.304-.46 0-.637a1.27 1.27 0 0 1 1.092 0z"/><path id="G" d="M147.263 115.664c.305.178.305.458 0 .636s-.787.178-1.09 0-.305-.458 0-.636c.292-.165.787-.165 1.09 0z"/><path id="H" d="M150.105 114.022c.305.178.305.458 0 .636s-.787.178-1.09 0-.305-.458 0-.636.8-.178 1.09 0z"/><path id="I" d="M152.416 113.118c.427 0 .774-.2.774-.445s-.347-.445-.774-.445-.774.2-.774.445.346.445.774.445z"/><path id="J" d="M144.407 114.022c.304.178.304.458 0 .636s-.787.178-1.092 0-.304-.458 0-.636c.292-.178.787-.178 1.092 0z"/><path id="K" d="M147.263 112.367c.305.18.305.46 0 .637s-.787.178-1.09 0-.305-.458 0-.637c.292-.178.787-.178 1.09 0z"/><path id="L" d="M118.708 125.59c.305.178.305.458 0 .636s-.786.178-1.09 0-.304-.458 0-.636.787-.178 1.09 0z"/><path id="M" d="M135.84 115.664c.305.178.305.458 0 .636s-.786.178-1.09 0-.305-.458 0-.636c.305-.165.787-.165 1.09 0z"/><path id="N" d="M144.407 110.713c.304.178.304.458 0 .637s-.787.178-1.092 0-.304-.46 0-.637c.292-.178.787-.178 1.092 0z"/><path id="O" d="M178.67 97.517c.305.178.305.458 0 .636s-.786.178-1.09 0-.305-.458 0-.636c.292-.178.787-.178 1.09 0z"/><path id="P" d="M175.817 95.863c.304.178.304.458 0 .636s-.787.178-1.09 0-.305-.458 0-.636c.29-.178.786-.178 1.09 0z"/><path id="Q" d="M198.027 139.65c.21.122.21.313 0 .435a.81.81 0 0 1-.746 0c-.208-.122-.208-.313 0-.435s.547-.122.746 0z"/><path id="R" d="M199.605 139.04c.293 0 .53-.137.53-.305s-.237-.304-.53-.304-.53.136-.53.304.237.305.53.305z"/><path id="S" d="M201.56 137.91c.292 0 .53-.136.53-.304s-.237-.305-.53-.305-.53.137-.53.305.237.304.53.304z"/><path id="T" d="M195.7 139.04c.292 0 .53-.137.53-.305s-.237-.304-.53-.304-.53.136-.53.304.237.305.53.305z"/><path id="U" d="M198.027 137.388c.21.12.21.313 0 .435s-.538.12-.746 0-.208-.314 0-.435.547-.122.746 0z"/><path id="V" d="M192.18 136.256c.208.122.208.314 0 .435a.81.81 0 0 1-.746 0c-.21-.12-.21-.313 0-.435.2-.12.537-.12.746 0z"/><path id="W" d="M196.074 133.995c.208.12.208.313 0 .435s-.538.12-.746 0-.208-.314 0-.435a.86.86 0 0 1 .746 0z"/><path id="X" d="M190.227 135.126c.208.12.208.313 0 .435s-.538.12-.747 0-.208-.314 0-.435a.81.81 0 0 1 .747 0z"/><path id="Y" d="M192.18 133.995c.208.12.208.313 0 .435s-.538.12-.746 0-.21-.314 0-.435a.86.86 0 0 1 .746 0z"/><path id="Z" d="M188.258 133.986c.208.122.208.313 0 .435a.81.81 0 0 1-.746 0c-.21-.122-.21-.313 0-.435.2-.122.538-.122.746 0z"/><path id="a" d="M190.21 132.854c.208.122.208.314 0 .435a.81.81 0 0 1-.746 0c-.208-.12-.208-.313 0-.435s.538-.12.746 0z"/><path id="b" d="M192.16 131.724c.208.12.208.313 0 .435s-.538.12-.746 0-.208-.314 0-.435c.2-.122.538-.122.746 0z"/><path id="c" d="M186.305 132.854c.208.122.208.314 0 .435a.81.81 0 0 1-.746 0c-.21-.12-.21-.313 0-.435s.537-.12.746 0z"/><path id="d" d="M188.258 129.462c.208.122.208.313 0 .435a.81.81 0 0 1-.746 0c-.21-.122-.21-.313 0-.435.2-.113.538-.113.746 0z"/><path id="e" d="M182.4 130.593c.21.12.21.313 0 .435s-.538.12-.746 0-.208-.314 0-.435a.86.86 0 0 1 .746 0z"/><path id="f" d="M184.353 129.462c.208.122.208.313 0 .435a.81.81 0 0 1-.747 0c-.208-.122-.208-.313 0-.435.21-.113.538-.113.747 0z"/><path id="g" d="M186.305 128.34c.208.122.208.313 0 .435a.81.81 0 0 1-.746 0c-.21-.122-.21-.313 0-.435a.81.81 0 0 1 .746 0z"/><path id="h" d="M182.4 128.34c.21.122.21.313 0 .435a.81.81 0 0 1-.746 0c-.208-.122-.208-.313 0-.435a.81.81 0 0 1 .746 0z"/><path id="i" d="M184.353 127.208c.208.122.208.313 0 .435a.81.81 0 0 1-.747 0c-.208-.122-.208-.313 0-.435a.81.81 0 0 1 .747 0z"/><path id="j" d="M178.496 128.34c.208.122.208.313 0 .435a.81.81 0 0 1-.746 0c-.208-.122-.208-.313 0-.435a.81.81 0 0 1 .746 0z"/><path id="k" d="M182.027 126.6c.293 0 .53-.136.53-.304s-.237-.305-.53-.305-.53.137-.53.305.237.304.53.304z"/><path id="l" d="M180.448 124.946c.21.122.21.314 0 .435a.81.81 0 0 1-.746 0c-.208-.12-.208-.313 0-.435s.538-.12.746 0z"/><path id="m" d="M176.17 125.468c.292 0 .53-.136.53-.304s-.237-.305-.53-.305-.53.136-.53.305.237.304.53.304z"/><path id="n" d="M211.787 145.13c.208.122.208.313 0 .435a.81.81 0 0 1-.746 0c-.208-.122-.208-.313 0-.435.2-.122.538-.122.746 0z"/><path id="o" d="M219.216 141.128c.292 0 .53-.136.53-.304s-.237-.305-.53-.305-.53.137-.53.305.236.304.53.304z"/><path id="p" d="M223.492 138.344c.208.122.208.314 0 .435a.81.81 0 0 1-.746 0c-.208-.12-.208-.313 0-.435.208-.113.538-.113.746 0z"/><path id="q" d="M231.302 133.83c.208.122.208.314 0 .435a.81.81 0 0 1-.746 0c-.21-.12-.21-.313 0-.435s.538-.12.746 0z"/><path id="r" d="M213.74 141.737c.208.122.208.314 0 .435a.81.81 0 0 1-.746 0c-.208-.12-.208-.313 0-.435.2-.12.538-.12.746 0z"/><path id="s" d="M215.684 140.607c.208.12.208.313 0 .435a.81.81 0 0 1-.747 0c-.208-.122-.208-.314 0-.435a.81.81 0 0 1 .747 0z"/><path id="t" d="M217.636 139.475c.208.122.208.314 0 .435a.81.81 0 0 1-.746 0c-.21-.12-.21-.313 0-.435s.546-.12.746 0z"/><path id="u" d="M219.59 138.344c.208.122.208.314 0 .435a.81.81 0 0 1-.746 0c-.21-.12-.21-.313 0-.435.208-.113.546-.113.746 0z"/><path id="v" d="M205.914 143.982c.208.122.208.313 0 .435a.81.81 0 0 1-.746 0c-.208-.122-.208-.313 0-.435.208-.113.538-.113.746 0z"/><path id="w" d="M209.818 141.73c.21.122.21.313 0 .435a.81.81 0 0 1-.746 0c-.208-.122-.208-.313 0-.435.2-.122.538-.122.746 0z"/><path id="x" d="M217.62 137.205c.208.122.208.313 0 .435a.81.81 0 0 1-.746 0c-.208-.122-.208-.313 0-.435s.547-.122.746 0z"/><path id="y" d="M219.198 136.596c.293 0 .53-.137.53-.305s-.236-.304-.53-.304-.53.136-.53.304.237.305.53.305z"/><path id="z" d="M221.522 134.943c.21.122.21.313 0 .435a.81.81 0 0 1-.746 0c-.208-.122-.208-.313 0-.435.21-.113.547-.113.746 0z"/><path id="AA" d="M223.476 133.812c.208.12.208.313 0 .435s-.538.12-.747 0-.208-.314 0-.435c.21-.113.547-.113.747 0z"/><path id="AB" d="M207.493 141.12c.292 0 .53-.136.53-.305s-.237-.304-.53-.304-.53.136-.53.304.237.305.53.305z"/><path id="AC" d="M209.445 139.99c.293 0 .53-.136.53-.305s-.237-.304-.53-.304-.53.136-.53.304.237.305.53.305z"/><path id="AD" d="M232.508 132.715c.208-.12.538-.12.746 0s.208.314 0 .435a.81.81 0 0 1-.746 0c-.2-.12-.2-.313 0-.435z"/><path id="AE" d="M235.215 131.585c.208.12.208.313 0 .435s-.538.12-.746 0-.21-.314 0-.435c.2-.122.538-.122.746 0z"/><path id="AF" d="M230.555 131.585a.81.81 0 0 1 .746 0c.208.12.208.313 0 .435s-.538.12-.746 0c-.2-.122-.2-.314 0-.435z"/><path id="AG" d="M233.263 130.453c.208.122.208.313 0 .435a.81.81 0 0 1-.746 0c-.21-.122-.21-.313 0-.435.2-.122.537-.122.746 0z"/><path id="AH" d="M228.585 130.445a.81.81 0 0 1 .746 0c.21.12.21.313 0 .435a.81.81 0 0 1-.746 0c-.2-.122-.2-.322 0-.435z"/><path id="AI" d="M234.823 127.574c.293 0 .53-.137.53-.305s-.236-.305-.53-.305-.53.137-.53.305.237.305.53.305z"/><path id="AJ" d="M234.823 125.312c.293 0 .53-.136.53-.305s-.236-.304-.53-.304-.53.136-.53.304.237.305.53.305z"/><path id="AK" d="M232.872 125.2l.087-4.498-6.447-.618-22.967-13.294c-2.238-1.296-5.622-1.436-7.557-.313l-15.835 9.17-4.624-.444-.087 4.176c-.078.905.547 1.87 1.84 2.62l27.48 15.913c2.24 1.296 5.623 1.435 7.558.313l19.253-11.145c.86-.513 1.284-1.175 1.3-1.88z"/><path id="AL" d="M226.643 119.665l-22.89-13.25c-2.352-1.358-5.926-1.505-7.983-.314l-15.722 9.1-4.945-.47-.096 4.602c-.095 1.114.65 2.22 2.048 3.02l27.48 15.913c1.275.74 2.924 1.122 4.485 1.122 1.31 0 2.56-.26 3.497-.81l19.253-11.145c.963-.556 1.5-1.348 1.52-2.236l.095-4.89-6.74-.644zm-20.607 18.35v-3.76l-2.24-1.26v3.863l-26.316-15.234c-.234-.14-.45-.287-.642-.444v-3.837l-.928-.774.017-.914 4.312.41 15.956-9.24c1.814-1.053 5.015-.914 7.14.313l23.045 13.337 6.152.592-.017.87-19.583 12.154-2.595.566h-1.622v3.87a8.68 8.68 0 0 1-2.681-.513z"/><path id="AM" d="M231.657 122.762l-19.253 11.145c-1.935 1.123-5.32.983-7.557-.313l-27.48-15.913c-2.24-1.296-2.482-3.253-.547-4.376l19.254-11.145c1.935-1.122 5.318-.983 7.557.313l27.48 15.913c2.238 1.296 2.5 3.254.546 4.376z"/><path id="AN" d="M209.125 135.082c-1.562 0-3.2-.383-4.486-1.122l-27.478-15.913c-1.3-.757-2.065-1.792-2.065-2.836 0-.896.538-1.697 1.518-2.262l19.253-11.145c2.048-1.184 5.632-1.044 7.983.313l27.48 15.912c1.3.757 2.065 1.793 2.065 2.837 0 .896-.538 1.696-1.52 2.262l-19.253 11.145c-.937.54-2.187.81-3.497.81zm-9.77-33.26c-1.154 0-2.255.235-3.07.705L177.03 113.67c-.72.417-1.102.948-1.102 1.53 0 .74.598 1.505 1.64 2.105l27.478 15.913c2.117 1.227 5.32 1.366 7.14.313l19.253-11.145c.72-.417 1.102-.948 1.102-1.53 0-.74-.598-1.505-1.64-2.114l-27.478-15.913c-1.163-.66-2.655-1.01-4.07-1.01z"/><path id="AO" d="M204.004 108.242l-18.307 10.597c-.877.504-2.413.443-3.428-.14l-1.483-.86c-1.016-.583-1.128-1.48-.243-1.984l18.307-10.597c.877-.504 2.412-.443 3.427.14l1.484.86c1.007.592 1.12 1.48.243 1.984z"/><path id="AP" d="M184.16 118.1c-.746 0-1.527-.183-2.143-.54l-1.484-.853c-.668-.383-1.05-.93-1.05-1.488 0-.487.287-.93.807-1.227l18.308-10.596c1.006-.583 2.698-.522 3.844.14l1.483.86c.668.383 1.05.93 1.05 1.488 0 .487-.286.93-.807 1.227l-18.307 10.596c-.47.253-1.068.392-1.7.392zm16.13-14.277c-.486 0-.937.096-1.276.287l-18.307 10.597c-.14.087-.382.26-.382.496 0 .243.234.53.625.757l1.483.852c.885.514 2.256.575 3.003.14l18.307-10.597c.14-.087.382-.26.382-.496 0-.244-.234-.53-.625-.757l-1.484-.86c-.485-.27-1.128-.418-1.726-.418z"/><path id="AQ" d="M193.638 121.727l-2.196 1.27c-.486.28-1.336.244-1.89-.078l-1.718-1c-.564-.322-.625-.817-.14-1.096l2.195-1.27c.486-.278 1.336-.244 1.892.078l1.718 1c.555.322.624.81.14 1.096z"/><path id="AR" d="M190.574 122.092c-.442 0-.91-.113-1.284-.32l-1.718-.992c-.425-.253-.676-.61-.676-.983 0-.34.2-.644.537-.844l2.196-1.27c.607-.357 1.63-.322 2.316.078l1.718 1c.425.253.677.61.677.983 0 .34-.2.644-.538.844l-2.195 1.27c-.278.147-.65.234-1.033.234zm.087-3.82c-.234 0-.45.044-.607.13l-2.195 1.27c-.087.052-.122.096-.122.113 0 .035.06.148.252.252l1.718 1c.425.243 1.12.287 1.475.078l2.195-1.27c.087-.052.12-.096.12-.113 0-.035-.06-.148-.25-.253l-1.718-1c-.243-.14-.573-.21-.868-.21z"/><path id="AS" d="M199.477 118.342l-2.187 1.262c-.486.278-1.336.244-1.892-.078l-1.717-1c-.564-.322-.625-.818-.14-1.096l2.195-1.27c.486-.28 1.336-.244 1.89.078l1.718 1c.556.33.616.818.13 1.105z"/><path id="AT" d="M196.422 118.708c-.442 0-.91-.105-1.284-.322l-1.718-1c-.425-.252-.677-.61-.677-.983 0-.34.2-.644.538-.844l2.195-1.27c.608-.357 1.63-.322 2.317.078l1.718.992c.425.253.677.61.677.983 0 .34-.2.644-.538.844l-2.195 1.27c-.278.165-.65.252-1.033.252zm.078-3.82c-.234 0-.45.044-.607.13l-2.195 1.27c-.087.052-.122.096-.122.113 0 .035.06.148.252.253l1.718 1c.425.244 1.12.287 1.475.078l2.195-1.27c.087-.052.12-.095.12-.113 0-.035-.06-.148-.25-.252l-1.718-.992c-.243-.148-.564-.218-.868-.218z"/><path id="AU" d="M205.325 114.96l-2.195 1.27c-.486.278-1.336.243-1.892-.08l-1.718-1c-.564-.322-.624-.818-.138-1.096l2.195-1.27c.486-.278 1.336-.243 1.89.08l1.718 1c.564.322.625.81.14 1.097z"/><path id="AV" d="M202.27 115.324c-.443 0-.91-.104-1.284-.322L199.27 114c-.426-.243-.677-.61-.677-.983 0-.34.2-.644.538-.844l2.195-1.27c.616-.357 1.63-.322 2.317.078l1.718.992c.425.252.676.61.676.983 0 .34-.2.644-.538.844l-2.195 1.27c-.286.157-.65.244-1.032.244zm.078-3.82c-.235 0-.45.043-.608.13l-2.195 1.27c-.087.052-.12.096-.12.113 0 .035.06.148.25.253l1.718.99c.425.253 1.12.288 1.475.08l2.196-1.27c.086-.053.12-.096.12-.114 0-.034-.06-.147-.252-.252l-1.718-.992c-.243-.14-.564-.208-.867-.208z"/><path id="AW" d="M211.173 111.574l-2.195 1.27c-.486.278-1.337.243-1.892-.078l-1.718-1c-.564-.322-.625-.818-.14-1.096l2.195-1.27c.486-.28 1.337-.244 1.892.078l1.718 1c.564.322.625.8.14 1.097z"/><path id="AX" d="M208.1 111.94c-.443 0-.912-.113-1.285-.322l-1.718-1c-.425-.244-.676-.61-.676-.983 0-.34.2-.644.538-.844l2.195-1.27c.607-.357 1.63-.322 2.316.078l1.718.992c.426.252.677.61.677.983 0 .34-.2.644-.538.844l-2.195 1.27c-.278.165-.642.252-1.032.252zm.086-3.82c-.234 0-.45.043-.607.13l-2.195 1.27c-.087.052-.122.095-.122.113 0 .034.06.148.252.252l1.718.992c.425.243 1.12.287 1.475.078l2.195-1.27c.087-.052.122-.096.122-.113 0-.035-.06-.148-.252-.253l-1.718-.99c-.243-.14-.564-.21-.868-.21z"/><path id="AY" d="M199.33 125.016l-2.195 1.27c-.486.278-1.336.243-1.892-.08l-1.718-1c-.564-.322-.624-.818-.14-1.096l2.196-1.27c.486-.28 1.336-.244 1.89.078l1.718 1c.564.33.625.818.14 1.097z"/><path id="AZ" d="M196.266 125.38c-.443 0-.91-.104-1.276-.322l-1.718-1c-.425-.244-.676-.61-.676-.983 0-.34.2-.644.538-.844l2.195-1.27c.607-.357 1.63-.322 2.316.078l1.718.992c.426.252.677.61.677.983 0 .34-.2.644-.538.844l-2.195 1.27c-.286.174-.66.252-1.04.252zm.087-3.82c-.235 0-.452.043-.608.13l-2.195 1.27c-.087.052-.12.095-.12.113 0 .035.06.148.25.252l1.718 1c.425.252 1.12.287 1.475.078l2.195-1.27c.087-.053.122-.096.122-.113 0-.035-.06-.148-.252-.253l-1.718-.992c-.243-.14-.572-.217-.867-.217z"/><path id="Aa" d="M205.17 121.63l-2.195 1.27c-.486.278-1.337.243-1.892-.08l-1.718-1c-.564-.322-.625-.818-.14-1.096l2.195-1.27c.486-.278 1.337-.243 1.892.08l1.718 1c.564.33.625.818.14 1.096z"/><path id="Ab" d="M202.114 121.997c-.442 0-.91-.105-1.284-.322l-1.718-.992c-.425-.252-.676-.61-.676-.983 0-.34.2-.644.537-.844l2.196-1.27c.607-.357 1.63-.322 2.316.078l1.718.992c.425.252.677.61.677.983 0 .34-.2.644-.538.844l-2.195 1.27c-.278.166-.65.244-1.033.244zm.087-3.82c-.234 0-.45.044-.607.13l-2.195 1.27c-.087.052-.122.096-.122.113 0 .035.06.148.252.253l1.718.99c.425.253 1.12.287 1.475.08l2.195-1.27c.087-.052.12-.095.12-.113 0-.034-.06-.148-.25-.252l-1.718-.992c-.243-.13-.573-.21-.868-.21z"/><path id="Ac" d="M211.016 118.247l-2.195 1.27c-.486.28-1.336.244-1.89-.078l-1.718-1c-.564-.322-.625-.818-.14-1.096l2.195-1.27c.486-.28 1.336-.244 1.892.078l1.718 1c.564.33.624.818.138 1.096z"/><path id="Ad" d="M207.962 118.612c-.442 0-.91-.113-1.284-.32l-1.718-.992c-.425-.253-.677-.61-.677-.983 0-.34.2-.644.538-.844l2.195-1.27c.608-.356 1.632-.32 2.317.08l1.718.992c.425.252.677.61.677.983 0 .34-.2.644-.538.844l-2.195 1.27c-.287.165-.65.243-1.033.243zm.078-3.82c-.234 0-.45.044-.607.13l-2.195 1.27c-.087.052-.122.096-.122.113 0 .035.06.148.252.252l1.718.992c.425.252 1.12.287 1.475.078l2.195-1.27c.087-.052.12-.096.12-.113 0-.035-.06-.148-.25-.252l-1.718-.992c-.243-.13-.564-.21-.868-.21z"/><path id="Ae" d="M216.864 114.863l-2.195 1.27c-.486.278-1.336.244-1.892-.078l-1.718-1c-.564-.322-.624-.818-.138-1.096l2.195-1.27c.486-.28 1.336-.244 1.89.078l1.718 1c.564.33.625.817.14 1.096z"/><path id="Af" d="M213.8 115.228a2.7 2.7 0 0 1-1.284-.322l-1.718-.992c-.425-.252-.677-.61-.677-.983 0-.34.2-.644.538-.844l2.195-1.27c.608-.357 1.63-.322 2.317.078l1.718 1c.425.244.677.61.677.983 0 .34-.2.644-.538.844l-2.196 1.27c-.277.157-.642.235-1.032.235zm.087-3.82c-.235 0-.45.043-.608.13l-2.195 1.27c-.087.053-.12.096-.12.114 0 .034.06.147.25.252l1.718.992c.425.252 1.12.287 1.475.078l2.195-1.27c.087-.052.122-.096.122-.113 0-.035-.06-.148-.252-.253l-1.718-1c-.243-.122-.564-.2-.867-.2z"/><path id="Ag" d="M205.064 128.34l-2.195 1.27c-.486.28-1.336.244-1.89-.078l-1.718-1c-.564-.322-.625-.817-.14-1.096l2.195-1.27c.486-.278 1.336-.244 1.89.078l1.718 1c.564.322.625.818.14 1.096z"/><path id="Ah" d="M202 128.705c-.442 0-.91-.105-1.275-.322l-1.718-1c-.425-.252-.677-.61-.677-.983 0-.34.2-.644.538-.844l2.195-1.27c.608-.357 1.63-.322 2.317.078l1.718 1c.425.243.677.61.677.983 0 .34-.2.644-.538.844l-2.196 1.27c-.286.165-.65.244-1.04.244zm.087-3.82c-.234 0-.45.044-.607.13l-2.196 1.27c-.086.052-.12.096-.12.113 0 .035.06.148.252.252l1.718 1c.425.243 1.12.287 1.475.078l2.195-1.27c.087-.052.12-.096.12-.113 0-.035-.06-.148-.25-.252l-1.718-.992c-.243-.14-.564-.218-.868-.218z"/><path id="Ai" d="M210.912 124.955l-2.195 1.27c-.486.278-1.336.244-1.892-.078l-1.718-1c-.564-.322-.624-.818-.14-1.096l2.196-1.27c.486-.28 1.336-.244 1.89.078l1.718 1c.564.322.625.818.14 1.097z"/><path id="Aj" d="M207.85 125.32c-.443 0-.91-.104-1.284-.322l-1.718-.992c-.425-.243-.677-.61-.677-.983 0-.34.2-.643.538-.844l2.195-1.27c.607-.357 1.623-.322 2.317.078l1.718.992c.425.244.676.61.676.983 0 .34-.2.644-.537.844l-2.196 1.27c-.277.165-.65.243-1.032.243zm.087-3.82c-.235 0-.452.043-.608.13l-2.195 1.27c-.087.052-.12.095-.12.113 0 .034.06.148.25.252l1.718 1c.425.253 1.12.288 1.475.08l2.195-1.27c.087-.053.122-.096.122-.114 0-.034-.06-.147-.252-.252l-1.718-.992a1.81 1.81 0 0 0-.867-.217z"/><path id="Ak" d="M216.76 121.57l-2.196 1.27c-.486.278-1.336.243-1.89-.08l-1.718-1c-.564-.322-.625-.818-.14-1.096l2.195-1.27c.486-.278 1.336-.243 1.892.08l1.718 1c.555.322.616.818.14 1.096z"/><path id="Al" d="M213.697 121.936c-.442 0-.91-.113-1.284-.322l-1.718-.992c-.425-.252-.676-.61-.676-.983 0-.34.2-.644.537-.844l2.196-1.27c.607-.357 1.63-.322 2.316.078l1.718.992c.425.244.677.61.677.983 0 .34-.2.644-.538.844l-2.195 1.27c-.278.166-.65.244-1.033.244zm.087-3.82c-.234 0-.45.044-.607.13l-2.195 1.27c-.087.052-.122.096-.122.113 0 .035.06.148.252.253l1.718 1c.425.252 1.12.287 1.475.078l2.195-1.27c.087-.052.12-.096.12-.113 0-.035-.06-.148-.25-.252l-1.718-1c-.243-.13-.573-.21-.868-.21z"/><path id="Am" d="M222.6 118.186l-2.195 1.27c-.486.28-1.336.244-1.89-.078l-1.718-1c-.564-.322-.625-.817-.14-1.096l2.195-1.27c.486-.28 1.336-.244 1.892.078l1.718 1c.564.322.624.818.138 1.096z"/><path id="An" d="M219.545 118.55c-.442 0-.91-.113-1.284-.32l-1.718-.992c-.425-.244-.677-.61-.677-.983 0-.34.2-.644.538-.844l2.195-1.27c.608-.357 1.632-.322 2.317.078l1.718 1c.425.253.677.61.677.983 0 .34-.2.644-.538.844l-2.195 1.27c-.278.156-.65.234-1.033.234zm.087-3.82c-.234 0-.45.044-.608.13l-2.195 1.27c-.086.052-.12.096-.12.113 0 .035.06.148.25.252l1.718 1c.426.243 1.12.287 1.475.078l2.196-1.27c.086-.052.112-.096.112-.113 0-.035-.06-.148-.25-.253l-1.718-1c-.234-.13-.564-.21-.86-.21z"/><path id="Ao" d="M210.757 131.637l-2.196 1.27c-.485.278-1.336.243-1.89-.078l-1.718-1c-.564-.322-.625-.818-.14-1.096l2.195-1.27c.486-.28 1.337-.244 1.892.078l1.718 1c.564.322.625.818.14 1.097z"/><path id="Ap" d="M207.694 132.002c-.443 0-.912-.104-1.285-.322l-1.718-.992c-.425-.243-.676-.61-.676-.983 0-.34.2-.644.538-.844l2.195-1.27c.607-.357 1.63-.322 2.316.078l1.718.992c.426.253.677.61.677.983 0 .34-.2.644-.538.844l-2.195 1.27c-.278.165-.642.243-1.032.243zm.086-3.82c-.234 0-.45.043-.607.13l-2.195 1.27c-.087.053-.122.096-.122.114 0 .034.06.147.252.252l1.718 1c.425.244 1.12.288 1.475.08l2.195-1.27c.087-.052.113-.095.113-.113 0-.034-.06-.148-.252-.252l-1.718-.992c-.234-.148-.555-.217-.86-.217z"/><path id="Aq" d="M216.603 128.252l-2.195 1.27c-.486.28-1.336.244-1.89-.078l-1.718-1c-.564-.322-.625-.817-.14-1.096l2.195-1.27c.486-.28 1.336-.244 1.892.078l1.718 1c.563.322.624.818.138 1.096z"/><path id="Ar" d="M213.54 128.617c-.442 0-.91-.113-1.284-.322l-1.718-.99c-.425-.244-.677-.61-.677-.984 0-.34.2-.643.538-.843l2.195-1.27c.616-.356 1.632-.322 2.317.08l1.718.99c.425.253.677.61.677.984 0 .34-.2.643-.538.843l-2.195 1.27c-.278.165-.65.243-1.033.243zm.087-3.82c-.234 0-.45.043-.607.13l-2.196 1.27c-.086.052-.112.095-.112.113 0 .035.06.148.25.252l1.718.992c.425.252 1.12.287 1.475.078l2.195-1.27c.087-.052.122-.096.122-.113 0-.035-.06-.148-.252-.252l-1.718-.992a1.86 1.86 0 0 0-.876-.209z"/><path id="As" d="M222.452 124.868l-2.195 1.27c-.486.278-1.336.243-1.892-.08l-1.718-1c-.564-.322-.624-.818-.138-1.096l2.195-1.27c.486-.278 1.336-.243 1.89.08l1.718 1c.564.322.625.818.14 1.097z"/><path id="At" d="M219.39 125.233a2.7 2.7 0 0 1-1.284-.322l-1.718-1c-.425-.244-.677-.61-.677-.983 0-.34.2-.644.538-.844l2.195-1.27c.607-.356 1.63-.32 2.317.08l1.718 1c.425.253.676.61.676.983 0 .34-.2.644-.537.844l-2.196 1.27c-.277.166-.65.244-1.032.244zm.087-3.82c-.235 0-.452.043-.608.13l-2.195 1.27c-.087.053-.12.096-.12.114 0 .034.06.147.25.252l1.718.992c.425.252 1.12.287 1.475.078l2.195-1.27c.087-.052.122-.096.122-.113 0-.035-.06-.148-.252-.253l-1.718-1a1.92 1.92 0 0 0-.867-.2z"/><path id="Au" d="M228.292 121.483l-2.195 1.27c-.486.28-1.337.244-1.892-.078l-1.718-1c-.564-.322-.625-.818-.14-1.097l2.196-1.27c.485-.278 1.336-.243 1.89.078l1.718 1c.564.322.625.818.14 1.096z"/><path id="Av" d="M225.237 121.85c-.442 0-.91-.113-1.284-.322l-1.718-1c-.425-.243-.676-.61-.676-.983 0-.34.2-.644.538-.844l2.195-1.27c.607-.357 1.63-.322 2.316.078l1.718 1c.425.244.677.61.677.983 0 .34-.2.644-.538.844l-2.195 1.27c-.278.166-.65.244-1.033.244zm.08-3.82c-.235 0-.452.044-.608.13l-2.195 1.27c-.087.052-.12.096-.12.113 0 .035.06.148.25.253l1.718 1c.425.252 1.12.287 1.475.078l2.195-1.27c.087-.052.122-.096.122-.113 0-.035-.06-.148-.252-.252l-1.718-.992c-.234-.148-.564-.218-.867-.218z"/><path id="Aw" d="M228.02 86.45l-1.37-2.403c-1.028-1.83-2.8-3.433-5.198-4.806l-6.34-3.547c-.686-.4-1.828-.4-2.456 0l-10.74 6.465c-.685.4-.628 1.03.057 1.43l6.34 3.547c2.4 1.316 4.17 2.975 5.2 4.806l1.37 2.403c1.2 2.06 3.2 3.948 5.94 5.492l5.542 3.1c.685.4 1.828.4 2.456 0l10.74-6.465c.686-.4.63-1.03-.057-1.43l-5.54-3.09c-2.742-1.545-4.798-3.433-5.94-5.492z"/><path id="Ax" d="M227.506 103.5c-.514 0-1.028-.115-1.37-.344l-5.54-3.09c-2.742-1.545-4.856-3.5-6.055-5.607l-1.37-2.403c-.972-1.773-2.742-3.375-5.085-4.634l-6.34-3.547c-.457-.23-.743-.63-.743-1.03s.228-.744.685-1.03l10.74-6.465c.8-.458 2.056-.458 2.856-.057l6.34 3.547c2.4 1.373 4.284 3.032 5.313 4.92l1.37 2.403c1.142 2.002 3.14 3.833 5.826 5.32l5.54 3.09c.457.23.743.63.743 1.03s-.228.744-.685 1.03l-10.797 6.522c-.4.23-.914.344-1.428.344zM213.853 75.75c-.4 0-.8.114-1.085.286l-10.74 6.465c-.228.114-.343.286-.343.4s.115.286.343.4l6.34 3.547c2.4 1.373 4.284 3.032 5.313 4.92l1.37 2.403c1.142 2.002 3.142 3.833 5.826 5.32l5.542 3.09c.57.344 1.542.344 2.113 0l10.74-6.465c.228-.114.342-.286.342-.4s-.114-.286-.342-.4l-5.542-3.09c-2.742-1.545-4.855-3.5-6.055-5.607l-1.37-2.403c-.97-1.774-2.742-3.376-5.084-4.634l-6.34-3.547a1.97 1.97 0 0 0-1.028-.286z"/><path id="Ay" d="M233.62 94.86c.035-.035.07-.05.12-.067l.11-.047-2.285-1.26c-2.8-1.545-4.855-3.5-6.055-5.664l-1.257-2.288c-1.028-1.888-2.856-3.547-5.255-4.92L215.5 78.67c-.857.515-2.228.515-3.085.057l-5.14 3.09c.857.458.914 1.26.057 1.773l3.485 1.945c2.456 1.373 4.284 3.09 5.313 4.977l1.256 2.288c1.143 2.174 3.256 4.12 6.055 5.664l2.285 1.26c.857-.515 2.228-.515 3.085-.057l4.97-2.975c-1.028-.515-1.028-1.316-.17-1.83z"/><path id="Az" d="M225.62 100.123l-2.456-1.373c-2.856-1.602-4.97-3.604-6.17-5.778l-1.256-2.288c-.972-1.83-2.742-3.5-5.142-4.806l-3.998-2.23.514-.343c.285-.172.4-.343.4-.572s-.172-.4-.457-.572l-.572-.286 5.884-3.547.172.114c.742.4 2 .4 2.742 0l.17-.114 3.656 2.06c2.513 1.373 4.34 3.147 5.427 5.092l1.257 2.288c1.142 2.06 3.14 3.948 5.883 5.492l2.914 1.66-.63.286c-.114.057-.114.057-.17.057h0c-.286.172-.457.4-.457.572 0 .23.17.4.457.572l.57.286-5.712 3.433-.172-.114c-.742-.4-2-.4-2.742 0l-.114.114zm-17.71-16.59l3.028 1.66c2.514 1.373 4.4 3.147 5.427 5.092l1.257 2.288c1.142 2.06 3.2 4.005 5.884 5.492l2.113 1.144c.914-.458 2.17-.458 3.085-.057l4.34-2.575c-.228-.23-.4-.515-.4-.858s.172-.686.457-.972l-1.77-.973c-2.857-1.602-4.97-3.604-6.17-5.778l-1.257-2.288c-.97-1.83-2.742-3.433-5.14-4.806l-3.313-1.83c-.914.458-2.17.458-3.085.057l-4.513 2.69c.23.23.4.515.4.858 0 .286-.114.572-.343.858z"/><path id="BA" d="M216.828 79.242l-8.187 4.904.382.638 8.187-4.904-.382-.638z"/><path id="BB" d="M219.68 85.82l-1.257.744c-1.085.687-1.485 1.66-.97 2.517l1.885 3.318c.343.63 1.714.8 2.456.343L223.05 92c1.142-.687 1.485-1.66.97-2.517l-1.885-3.26c-.343-.686-1.714-.858-2.456-.4z"/><path id="BC" d="M220.65 93.372c-.23 0-.457-.057-.685-.114h-.001c-.457-.114-.856-.343-1.028-.686l-1.885-3.318c-.628-1.087-.17-2.23 1.143-3.032l1.256-.744c.514-.286 1.314-.4 1.943-.23.457.114.856.343 1.028.686l1.885 3.26c.628 1.087.17 2.23-1.143 3.032l-1.256.744c-.343.286-.8.4-1.257.4zm.057-7.437c-.343 0-.628.057-.857.23l-1.257.744c-.914.572-1.256 1.316-.856 2.002l1.885 3.318c.057.114.285.286.57.343.457.114 1.028.057 1.428-.114l1.257-.744c.97-.572 1.257-1.316.857-2.002l-1.885-3.26c-.058-.114-.286-.286-.572-.343-.228-.172-.4-.172-.57-.172h0z"/><path id="BD" d="M214.595 77.754c-.4.23-1.143.286-1.6 0-.457-.23-.457-.63 0-.915.4-.23 1.143-.286 1.6 0 .4.286.4.687 0 .915z"/><path id="BE" d="M213.796 78.326c-.343 0-.686-.057-.97-.23-.343-.172-.514-.458-.514-.744s.17-.572.514-.8c.514-.343 1.37-.343 1.942 0 .343.172.514.458.514.744s-.17.572-.514.8c-.286.172-.628.23-.97.23zm0-1.26c-.23 0-.457.057-.63.172-.114.057-.114.114-.114.114s0 .057.172.172c.342.172.914.172 1.2 0 .114-.057.114-.114.114-.114s0-.057-.17-.172-.343-.172-.57-.172z"/><path id="BF" d="M205.683 83.074c-.4.23-1.142.286-1.6 0-.457-.23-.457-.63 0-.915.4-.23 1.142-.286 1.6 0 .4.286.457.687 0 .915z"/><path id="BG" d="M204.884 83.646c-.343 0-.686-.057-.97-.23-.343-.172-.515-.458-.515-.744s.172-.572.515-.8c.514-.343 1.37-.343 1.942 0 .343.172.514.458.514.744s-.17.572-.514.8c-.23.172-.63.23-.97.23zm0-1.26c-.23 0-.457.057-.63.172-.114.057-.114.114-.114.114s0 .057.17.172c.343.172.914.172 1.2 0 .114-.057.114-.114.114-.114s0-.057-.17-.172c-.114-.114-.343-.172-.57-.172z"/><path id="BH" d="M236.074 96.805c-.343 0-.685-.057-.97-.23-.343-.172-.514-.458-.514-.8 0-.286.17-.572.514-.744.514-.343 1.37-.343 1.942 0 .343.172.514.458.514.744s-.17.572-.514.8c-.285.172-.628.23-.97.23zm0-1.26c-.228 0-.457.057-.628.172-.115.057-.115.114-.115.114s0 .057.172.172c.343.172.914.172 1.2 0 .115-.057.115-.114.115-.114s0-.057-.172-.172a.96.96 0 0 0-.571-.172z"/><path id="BI" d="M227.905 101.6c-.4.23-1.142.286-1.6 0-.457-.23-.457-.63 0-.915.4-.23 1.142-.286 1.6 0s.4.686 0 .915z"/><path id="BJ" d="M227.105 102.183c-.342 0-.685-.058-.97-.23-.343-.172-.514-.458-.514-.744s.17-.572.514-.8c.514-.343 1.37-.343 1.942 0 .343.172.515.458.515.744s-.172.572-.515.8c-.285.17-.628.23-.97.23zm0-1.26c-.228 0-.457.057-.628.172-.114.057-.114.114-.114.114s0 .057.17.172c.343.17.914.17 1.2 0 .114-.058.114-.115.114-.115s0-.057-.17-.17c-.115-.172-.343-.172-.572-.172h0z"/></defs></svg>