<svg width="360" height="307" viewBox="0 0 360 307" fill="none" xmlns="http://www.w3.org/2000/svg">
<rect y="3" width="360" height="304" fill="#007550"/>
<g style="mix-blend-mode:screen" opacity="0.3">
<path d="M0 0L13 169L180 259.5L360 147V307H0L79 84.5L0 0Z" fill="#001E20"/>
</g>
<path d="M217.813 130.948C217.567 131.091 217.567 131.316 217.813 131.459C218.059 131.602 218.448 131.602 218.694 131.459C218.939 131.316 218.939 131.091 218.694 130.948C218.448 130.805 218.059 130.805 217.813 130.948Z" fill="#16110D"/>
<path d="M215.949 130.232C215.604 130.232 215.325 130.071 215.325 129.874C215.325 129.676 215.604 129.516 215.949 129.516C216.295 129.516 216.574 129.676 216.574 129.874C216.574 130.071 216.295 130.232 215.949 130.232Z" fill="#16110D"/>
<path d="M213.204 128.289C212.959 128.432 212.959 128.657 213.204 128.8C213.45 128.943 213.839 128.943 214.085 128.8C214.331 128.657 214.331 128.432 214.085 128.289C213.839 128.156 213.45 128.156 213.204 128.289Z" fill="#16110D"/>
<path d="M210.9 126.969C210.654 127.112 210.654 127.337 210.9 127.48C211.146 127.624 211.535 127.624 211.78 127.48C212.026 127.337 212.026 127.112 211.78 126.969C211.535 126.826 211.146 126.826 210.9 126.969Z" fill="#16110D"/>
<path d="M220.117 129.618C219.872 129.761 219.872 129.986 220.117 130.129C220.363 130.273 220.752 130.273 220.998 130.129C221.244 129.986 221.244 129.761 220.998 129.618C220.752 129.485 220.363 129.485 220.117 129.618Z" fill="#16110D"/>
<path d="M217.813 128.289C217.567 128.432 217.567 128.657 217.813 128.8C218.059 128.943 218.448 128.943 218.694 128.8C218.939 128.657 218.939 128.432 218.694 128.289C218.448 128.156 218.059 128.156 217.813 128.289Z" fill="#16110D"/>
<path d="M215.949 127.573C215.604 127.573 215.325 127.413 215.325 127.215C215.325 127.018 215.604 126.857 215.949 126.857C216.295 126.857 216.574 127.018 216.574 127.215C216.574 127.413 216.295 127.573 215.949 127.573Z" fill="#16110D"/>
<path d="M213.204 125.64C212.959 125.784 212.959 126.009 213.204 126.152C213.45 126.295 213.839 126.295 214.085 126.152C214.331 126.009 214.331 125.784 214.085 125.64C213.839 125.497 213.45 125.497 213.204 125.64Z" fill="#16110D"/>
<path d="M222.422 128.289C222.176 128.432 222.176 128.657 222.422 128.8C222.668 128.943 223.057 128.943 223.303 128.8C223.549 128.657 223.549 128.432 223.303 128.289C223.057 128.156 222.668 128.156 222.422 128.289Z" fill="#16110D"/>
<path d="M220.117 126.969C219.872 127.112 219.872 127.337 220.117 127.48C220.363 127.624 220.752 127.624 220.998 127.48C221.244 127.337 221.244 127.112 220.998 126.969C220.752 126.826 220.363 126.826 220.117 126.969Z" fill="#16110D"/>
<path d="M217.813 125.64C217.567 125.784 217.567 126.009 217.813 126.152C218.059 126.295 218.448 126.295 218.694 126.152C218.939 126.009 218.939 125.784 218.694 125.64C218.448 125.497 218.059 125.497 217.813 125.64Z" fill="#16110D"/>
<path d="M215.509 124.311C215.263 124.454 215.263 124.679 215.509 124.822C215.755 124.965 216.144 124.965 216.39 124.822C216.636 124.679 216.636 124.454 216.39 124.311C216.144 124.167 215.755 124.167 215.509 124.311Z" fill="#16110D"/>
<path d="M225.166 127.573C224.821 127.573 224.542 127.413 224.542 127.215C224.542 127.018 224.821 126.857 225.166 126.857C225.511 126.857 225.791 127.018 225.791 127.215C225.791 127.413 225.511 127.573 225.166 127.573Z" fill="#16110D"/>
<path d="M222.863 126.253C222.518 126.253 222.238 126.093 222.238 125.895C222.238 125.698 222.518 125.538 222.863 125.538C223.208 125.538 223.487 125.698 223.487 125.895C223.487 126.093 223.208 126.253 222.863 126.253Z" fill="#16110D"/>
<path d="M220.117 124.311C219.872 124.454 219.872 124.679 220.117 124.822C220.363 124.965 220.752 124.965 220.998 124.822C221.244 124.679 221.244 124.454 220.998 124.311C220.752 124.167 220.363 124.167 220.117 124.311Z" fill="#16110D"/>
<path d="M218.694 123.493C218.939 123.35 218.939 123.125 218.694 122.981C218.448 122.838 218.059 122.838 217.813 122.981C217.567 123.125 217.567 123.35 217.813 123.493C218.059 123.626 218.448 123.626 218.694 123.493Z" fill="#16110D"/>
<path d="M227.031 125.64C226.785 125.784 226.785 126.009 227.031 126.152C227.276 126.295 227.666 126.295 227.911 126.152C228.157 126.009 228.157 125.784 227.911 125.64C227.666 125.497 227.276 125.497 227.031 125.64Z" fill="#16110D"/>
<path d="M224.726 124.311C224.48 124.454 224.48 124.679 224.726 124.822C224.972 124.965 225.361 124.965 225.607 124.822C225.852 124.679 225.852 124.454 225.607 124.311C225.361 124.167 224.972 124.167 224.726 124.311Z" fill="#16110D"/>
<path d="M222.422 122.981C222.176 123.125 222.176 123.35 222.422 123.493C222.668 123.636 223.057 123.636 223.303 123.493C223.549 123.35 223.549 123.125 223.303 122.981C223.057 122.838 222.668 122.838 222.422 122.981Z" fill="#16110D"/>
<path d="M220.998 122.163C221.244 122.02 221.244 121.795 220.998 121.652C220.752 121.508 220.363 121.508 220.117 121.652C219.872 121.795 219.872 122.02 220.117 122.163C220.363 122.296 220.752 122.296 220.998 122.163Z" fill="#16110D"/>
<path d="M229.356 124.29C229.11 124.433 229.11 124.658 229.356 124.801C229.602 124.944 229.991 124.944 230.237 124.801C230.482 124.658 230.482 124.433 230.237 124.29C229.991 124.157 229.591 124.157 229.356 124.29Z" fill="#16110D"/>
<path d="M227.051 122.971C226.805 123.115 226.805 123.34 227.051 123.483C227.297 123.626 227.686 123.626 227.932 123.483C228.178 123.34 228.178 123.115 227.932 122.971C227.686 122.828 227.287 122.828 227.051 122.971Z" fill="#16110D"/>
<path d="M225.187 122.255C224.842 122.255 224.562 122.095 224.562 121.897C224.562 121.699 224.842 121.539 225.187 121.539C225.532 121.539 225.812 121.699 225.812 121.897C225.812 122.095 225.532 122.255 225.187 122.255Z" fill="#16110D"/>
<path d="M223.322 120.824C223.568 120.681 223.568 120.456 223.322 120.312C223.077 120.169 222.688 120.169 222.442 120.312C222.196 120.456 222.196 120.681 222.442 120.824C222.688 120.957 223.077 120.957 223.322 120.824Z" fill="#16110D"/>
<path d="M220.138 119.494C220.384 119.637 220.773 119.637 221.019 119.494C221.265 119.351 221.265 119.126 221.019 118.983L220.138 119.494Z" fill="#16110D"/>
<path d="M231.66 122.971C231.415 123.115 231.415 123.34 231.66 123.483C231.906 123.626 232.295 123.626 232.541 123.483C232.787 123.34 232.787 123.115 232.541 122.971C232.295 122.828 231.896 122.828 231.66 122.971Z" fill="#16110D"/>
<path d="M229.356 121.642C229.11 121.785 229.11 122.01 229.356 122.153C229.602 122.296 229.991 122.296 230.237 122.153C230.482 122.01 230.482 121.785 230.237 121.642C229.991 121.498 229.591 121.498 229.356 121.642Z" fill="#16110D"/>
<path d="M227.051 120.312C226.805 120.456 226.805 120.681 227.051 120.824C227.297 120.967 227.686 120.967 227.932 120.824C228.178 120.681 228.178 120.456 227.932 120.312C227.686 120.169 227.287 120.169 227.051 120.312Z" fill="#16110D"/>
<path d="M225.627 119.494C225.873 119.351 225.873 119.126 225.627 118.983C225.381 118.839 224.992 118.839 224.746 118.983C224.501 119.126 224.501 119.351 224.746 119.494C224.992 119.627 225.381 119.627 225.627 119.494Z" fill="#16110D"/>
<path d="M222.442 117.653C222.196 117.796 222.196 118.021 222.442 118.165C222.688 118.308 223.077 118.308 223.322 118.165C223.568 118.021 223.568 117.796 223.322 117.653C223.077 117.51 222.688 117.51 222.442 117.653Z" fill="#16110D"/>
<path d="M233.954 121.642C233.709 121.785 233.709 122.01 233.954 122.153C234.2 122.296 234.589 122.296 234.835 122.153C235.081 122.01 235.081 121.785 234.835 121.642C234.6 121.498 234.2 121.498 233.954 121.642Z" fill="#16110D"/>
<path d="M231.66 120.312C231.415 120.456 231.415 120.681 231.66 120.824C231.906 120.967 232.295 120.967 232.541 120.824C232.787 120.681 232.787 120.456 232.541 120.312C232.295 120.169 231.896 120.169 231.66 120.312Z" fill="#16110D"/>
<path d="M229.356 118.983C229.11 119.126 229.11 119.351 229.356 119.494C229.602 119.637 229.991 119.637 230.237 119.494C230.482 119.351 230.482 119.126 230.237 118.983C229.991 118.839 229.591 118.839 229.356 118.983Z" fill="#16110D"/>
<path d="M227.051 117.653C226.805 117.796 226.805 118.021 227.051 118.165C227.297 118.308 227.686 118.308 227.932 118.165C228.178 118.021 228.178 117.796 227.932 117.653C227.686 117.51 227.287 117.51 227.051 117.653Z" fill="#16110D"/>
<path d="M224.746 116.324C224.501 116.467 224.501 116.692 224.746 116.835C224.992 116.978 225.381 116.978 225.627 116.835C225.873 116.692 225.873 116.467 225.627 116.324C225.381 116.191 224.992 116.191 224.746 116.324Z" fill="#16110D"/>
<path d="M236.258 120.312C236.012 120.456 236.012 120.681 236.258 120.824C236.504 120.967 236.893 120.967 237.139 120.824C237.385 120.681 237.385 120.456 237.139 120.312C236.903 120.169 236.504 120.169 236.258 120.312Z" fill="#16110D"/>
<path d="M234.405 119.597C234.059 119.597 233.78 119.436 233.78 119.239C233.78 119.041 234.059 118.881 234.405 118.881C234.75 118.881 235.029 119.041 235.029 119.239C235.029 119.436 234.75 119.597 234.405 119.597Z" fill="#16110D"/>
<path d="M231.66 117.653C231.415 117.796 231.415 118.021 231.66 118.165C231.906 118.308 232.295 118.308 232.541 118.165C232.787 118.021 232.787 117.796 232.541 117.653C232.295 117.51 231.896 117.51 231.66 117.653Z" fill="#16110D"/>
<path d="M230.236 116.324C229.991 116.18 229.601 116.18 229.356 116.324C229.11 116.467 229.11 116.692 229.356 116.835L230.236 116.324Z" fill="#16110D"/>
<path d="M229.356 116.836C229.602 116.979 229.991 116.979 230.237 116.836C230.482 116.693 230.482 116.468 230.237 116.324L229.356 116.836Z" fill="#16110D"/>
<path d="M227.051 115.506C227.297 115.649 227.686 115.649 227.932 115.506C228.178 115.363 228.178 115.138 227.932 114.995L227.051 115.506Z" fill="#16110D"/>
<path d="M238.563 118.983C238.317 119.126 238.317 119.351 238.563 119.494C238.809 119.637 239.198 119.637 239.444 119.494C239.689 119.351 239.689 119.126 239.444 118.983C239.208 118.839 238.809 118.839 238.563 118.983Z" fill="#16110D"/>
<path d="M236.258 117.653C236.012 117.796 236.012 118.021 236.258 118.165C236.504 118.308 236.893 118.308 237.139 118.165C237.385 118.021 237.385 117.796 237.139 117.653C236.903 117.51 236.504 117.51 236.258 117.653Z" fill="#16110D"/>
<path d="M233.954 116.324C233.709 116.467 233.709 116.692 233.954 116.835C234.2 116.978 234.589 116.978 234.835 116.835C235.081 116.692 235.081 116.467 234.835 116.324C234.6 116.191 234.2 116.191 233.954 116.324Z" fill="#16110D"/>
<path d="M232.54 114.995C232.294 114.852 231.905 114.852 231.659 114.995C231.414 115.138 231.414 115.363 231.659 115.506L232.54 114.995Z" fill="#16110D"/>
<path d="M231.66 115.506C231.906 115.649 232.295 115.649 232.541 115.506C232.787 115.363 232.787 115.138 232.541 114.995L231.66 115.506Z" fill="#16110D"/>
<path d="M240.867 117.653C240.622 117.796 240.622 118.021 240.867 118.165C241.113 118.308 241.502 118.308 241.748 118.165C241.994 118.021 241.994 117.796 241.748 117.653C241.513 117.51 241.113 117.51 240.867 117.653Z" fill="#16110D"/>
<path d="M238.563 116.324C238.317 116.467 238.317 116.692 238.563 116.835C238.809 116.978 239.198 116.978 239.444 116.835C239.689 116.692 239.689 116.467 239.444 116.324C239.208 116.191 238.809 116.191 238.563 116.324Z" fill="#16110D"/>
<path d="M236.258 114.995C236.012 115.138 236.012 115.363 236.258 115.507C236.504 115.65 236.893 115.65 237.139 115.507C237.385 115.363 237.385 115.138 237.139 114.995C236.903 114.862 236.504 114.862 236.258 114.995Z" fill="#16110D"/>
<path d="M234.845 113.676C234.599 113.532 234.21 113.532 233.964 113.676C233.718 113.819 233.718 114.044 233.964 114.187L234.845 113.676Z" fill="#16110D"/>
<path d="M233.954 114.177C234.2 114.32 234.589 114.32 234.835 114.177C235.081 114.034 235.081 113.809 234.835 113.665L233.954 114.177Z" fill="#16110D"/>
<path d="M243.172 116.324C242.926 116.467 242.926 116.692 243.172 116.835C243.418 116.978 243.807 116.978 244.053 116.835C244.299 116.692 244.299 116.467 244.053 116.324C243.817 116.191 243.418 116.191 243.172 116.324Z" fill="#16110D"/>
<path d="M240.867 114.995C240.622 115.138 240.622 115.363 240.867 115.507C241.113 115.65 241.502 115.65 241.748 115.507C241.994 115.363 241.994 115.138 241.748 114.995C241.513 114.862 241.113 114.862 240.867 114.995Z" fill="#16110D"/>
<path d="M238.563 113.676C238.317 113.819 238.317 114.044 238.563 114.187C238.809 114.33 239.198 114.33 239.444 114.187C239.689 114.044 239.689 113.819 239.444 113.676C239.208 113.532 238.809 113.532 238.563 113.676Z" fill="#16110D"/>
<path d="M236.258 112.847C236.504 112.99 236.893 112.99 237.139 112.847C237.385 112.704 237.385 112.479 237.139 112.336C236.893 112.193 236.504 112.193 236.258 112.336V112.847Z" fill="#16110D"/>
<path d="M245.476 114.995C245.23 115.138 245.23 115.363 245.476 115.507C245.722 115.65 246.111 115.65 246.357 115.507C246.602 115.363 246.602 115.138 246.357 114.995C246.111 114.862 245.722 114.862 245.476 114.995Z" fill="#16110D"/>
<path d="M243.613 114.279C243.268 114.279 242.988 114.118 242.988 113.921C242.988 113.723 243.268 113.563 243.613 113.563C243.958 113.563 244.237 113.723 244.237 113.921C244.237 114.118 243.958 114.279 243.613 114.279Z" fill="#16110D"/>
<path d="M240.867 112.346C240.622 112.489 240.622 112.714 240.867 112.857C241.113 113 241.502 113 241.748 112.857C241.994 112.714 241.994 112.489 241.748 112.346C241.513 112.203 241.113 112.203 240.867 112.346Z" fill="#16110D"/>
<path d="M238.563 111.016C238.317 111.16 238.317 111.385 238.563 111.528C238.809 111.671 239.198 111.671 239.444 111.528C239.689 111.385 239.689 111.16 239.444 111.016H238.563Z" fill="#16110D"/>
<path d="M247.8 113.655C247.554 113.798 247.554 114.023 247.8 114.166C248.046 114.31 248.435 114.31 248.681 114.166C248.927 114.023 248.927 113.798 248.681 113.655C248.435 113.512 248.046 113.512 247.8 113.655Z" fill="#16110D"/>
<path d="M245.496 112.326C245.251 112.469 245.251 112.694 245.496 112.837C245.742 112.98 246.131 112.98 246.377 112.837C246.623 112.694 246.623 112.469 246.377 112.326C246.131 112.193 245.742 112.193 245.496 112.326Z" fill="#16110D"/>
<path d="M243.193 110.996C242.947 111.14 242.947 111.365 243.193 111.508C243.438 111.651 243.828 111.651 244.073 111.508C244.319 111.365 244.319 111.14 244.073 110.996C243.828 110.863 243.438 110.863 243.193 110.996Z" fill="#16110D"/>
<path d="M240.888 110.178C241.134 110.321 241.523 110.321 241.769 110.178C242.015 110.035 242.015 109.81 241.769 109.667C241.523 109.524 241.134 109.524 240.888 109.667V110.178Z" fill="#16110D"/>
<path d="M250.106 112.326C249.86 112.469 249.86 112.694 250.106 112.837C250.352 112.98 250.741 112.98 250.987 112.837C251.232 112.694 251.232 112.469 250.987 112.326C250.741 112.193 250.352 112.193 250.106 112.326Z" fill="#16110D"/>
<path d="M247.8 110.996C247.554 111.14 247.554 111.365 247.8 111.508C248.046 111.651 248.435 111.651 248.681 111.508C248.927 111.365 248.927 111.14 248.681 110.996C248.435 110.863 248.046 110.863 247.8 110.996Z" fill="#16110D"/>
<path d="M245.496 109.677C245.251 109.82 245.251 110.045 245.496 110.188C245.742 110.331 246.131 110.331 246.377 110.188C246.623 110.045 246.623 109.82 246.377 109.677C246.131 109.534 245.742 109.534 245.496 109.677Z" fill="#16110D"/>
<path d="M243.193 108.347C242.947 108.49 242.947 108.715 243.193 108.858C243.438 109.002 243.828 109.002 244.073 108.858C244.319 108.715 244.319 108.49 244.073 108.347C243.828 108.204 243.438 108.204 243.193 108.347Z" fill="#16110D"/>
<path d="M250.106 109.677C249.86 109.82 249.86 110.045 250.106 110.188C250.352 110.331 250.741 110.331 250.987 110.188C251.232 110.045 251.232 109.82 250.987 109.677C250.741 109.534 250.352 109.534 250.106 109.677Z" fill="#16110D"/>
<path d="M247.8 108.347C247.554 108.49 247.554 108.715 247.8 108.858C248.046 109.002 248.435 109.002 248.681 108.858C248.927 108.715 248.927 108.49 248.681 108.347C248.435 108.204 248.046 108.204 247.8 108.347Z" fill="#16110D"/>
<path d="M245.496 107.018C245.251 107.161 245.251 107.386 245.496 107.53C245.742 107.673 246.131 107.673 246.377 107.53C246.623 107.386 246.623 107.161 246.377 107.018C246.131 106.875 245.742 106.875 245.496 107.018Z" fill="#16110D"/>
<path d="M250.106 107.018C249.86 107.161 249.86 107.386 250.106 107.53C250.352 107.673 250.741 107.673 250.987 107.53C251.232 107.386 251.232 107.161 250.987 107.018C250.741 106.875 250.352 106.875 250.106 107.018Z" fill="#16110D"/>
<path d="M247.8 105.689C247.554 105.832 247.554 106.057 247.8 106.2C248.046 106.343 248.435 106.343 248.681 106.2C248.927 106.057 248.927 105.832 248.681 105.689H247.8Z" fill="#16110D"/>
<path d="M192.362 142.707C192.116 142.851 192.116 143.075 192.362 143.219C192.607 143.362 192.997 143.362 193.242 143.219C193.488 143.075 193.488 142.851 193.242 142.707C192.997 142.564 192.607 142.564 192.362 142.707Z" fill="#16110D"/>
<path d="M190.057 141.378C189.811 141.521 189.811 141.746 190.057 141.889C190.303 142.033 190.692 142.033 190.938 141.889C191.184 141.746 191.184 141.521 190.938 141.378C190.692 141.235 190.303 141.235 190.057 141.378Z" fill="#16110D"/>
<path d="M187.753 140.048C187.507 140.192 187.507 140.416 187.753 140.56C187.999 140.703 188.388 140.703 188.634 140.56C188.88 140.416 188.88 140.192 188.634 140.048C188.388 139.905 187.999 139.905 187.753 140.048Z" fill="#16110D"/>
<path d="M185.449 138.72C185.203 138.863 185.203 139.088 185.449 139.231C185.694 139.374 186.084 139.374 186.329 139.231C186.575 139.088 186.575 138.863 186.329 138.72C186.084 138.576 185.694 138.576 185.449 138.72Z" fill="#16110D"/>
<path d="M183.144 137.39C182.898 137.533 182.898 137.758 183.144 137.901C183.39 138.044 183.779 138.044 184.025 137.901C184.27 137.758 184.27 137.533 184.025 137.39C183.789 137.247 183.39 137.247 183.144 137.39Z" fill="#16110D"/>
<path d="M180.84 136.061C180.594 136.204 180.594 136.429 180.84 136.572C181.086 136.715 181.475 136.715 181.721 136.572C181.967 136.429 181.967 136.204 181.721 136.061C181.485 135.917 181.086 135.917 180.84 136.061Z" fill="#16110D"/>
<path d="M196.971 142.707C196.725 142.851 196.725 143.075 196.971 143.219C197.217 143.362 197.606 143.362 197.852 143.219C198.098 143.075 198.098 142.851 197.852 142.707C197.606 142.564 197.217 142.564 196.971 142.707Z" fill="#16110D"/>
<path d="M194.666 141.378C194.421 141.521 194.421 141.746 194.666 141.889C194.912 142.033 195.301 142.033 195.547 141.889C195.793 141.746 195.793 141.521 195.547 141.378C195.301 141.235 194.912 141.235 194.666 141.378Z" fill="#16110D"/>
<path d="M192.362 140.048C192.116 140.192 192.116 140.416 192.362 140.56C192.607 140.703 192.997 140.703 193.242 140.56C193.488 140.416 193.488 140.192 193.242 140.048C192.997 139.905 192.607 139.905 192.362 140.048Z" fill="#16110D"/>
<path d="M190.057 138.72C189.811 138.863 189.811 139.088 190.057 139.231C190.303 139.374 190.692 139.374 190.938 139.231C191.184 139.088 191.184 138.863 190.938 138.72C190.692 138.576 190.303 138.576 190.057 138.72Z" fill="#16110D"/>
<path d="M187.753 137.39C187.507 137.533 187.507 137.758 187.753 137.901C187.999 138.044 188.388 138.044 188.634 137.901C188.88 137.758 188.88 137.533 188.634 137.39C188.388 137.247 187.999 137.247 187.753 137.39Z" fill="#16110D"/>
<path d="M185.889 136.674C185.544 136.674 185.264 136.514 185.264 136.316C185.264 136.118 185.544 135.958 185.889 135.958C186.234 135.958 186.514 136.118 186.514 136.316C186.514 136.514 186.234 136.674 185.889 136.674Z" fill="#16110D"/>
<path d="M183.584 135.345C183.239 135.345 182.96 135.185 182.96 134.987C182.96 134.789 183.239 134.629 183.584 134.629C183.929 134.629 184.209 134.789 184.209 134.987C184.209 135.185 183.929 135.345 183.584 135.345Z" fill="#16110D"/>
<path d="M180.84 133.401C180.594 133.545 180.594 133.77 180.84 133.913C181.086 134.056 181.475 134.056 181.721 133.913C181.967 133.77 181.967 133.545 181.721 133.401C181.485 133.268 181.086 133.268 180.84 133.401Z" fill="#16110D"/>
<path d="M199.275 141.378C199.029 141.521 199.029 141.746 199.275 141.889C199.521 142.033 199.91 142.033 200.155 141.889C200.401 141.746 200.401 141.521 200.155 141.378C199.91 141.235 199.521 141.235 199.275 141.378Z" fill="#16110D"/>
<path d="M196.971 140.048C196.725 140.192 196.725 140.416 196.971 140.56C197.217 140.703 197.606 140.703 197.852 140.56C198.098 140.416 198.098 140.192 197.852 140.048C197.606 139.905 197.217 139.905 196.971 140.048Z" fill="#16110D"/>
<path d="M194.666 138.72C194.421 138.863 194.421 139.088 194.666 139.231C194.912 139.374 195.301 139.374 195.547 139.231C195.793 139.088 195.793 138.863 195.547 138.72C195.301 138.576 194.912 138.576 194.666 138.72Z" fill="#16110D"/>
<path d="M192.362 137.39C192.116 137.533 192.116 137.758 192.362 137.901C192.607 138.044 192.997 138.044 193.242 137.901C193.488 137.758 193.488 137.533 193.242 137.39C192.997 137.247 192.607 137.247 192.362 137.39Z" fill="#16110D"/>
<path d="M190.057 136.061C189.811 136.204 189.811 136.429 190.057 136.572C190.303 136.715 190.692 136.715 190.938 136.572C191.184 136.429 191.184 136.204 190.938 136.061C190.692 135.917 190.303 135.917 190.057 136.061Z" fill="#16110D"/>
<path d="M187.753 134.731C187.507 134.874 187.507 135.099 187.753 135.242C187.999 135.386 188.388 135.386 188.634 135.242C188.88 135.099 188.88 134.874 188.634 134.731C188.388 134.598 187.999 134.598 187.753 134.731Z" fill="#16110D"/>
<path d="M185.449 133.401C185.203 133.545 185.203 133.77 185.449 133.913C185.694 134.056 186.084 134.056 186.329 133.913C186.575 133.77 186.575 133.545 186.329 133.401C186.084 133.268 185.694 133.268 185.449 133.401Z" fill="#16110D"/>
<path d="M183.144 132.083C182.898 132.226 182.898 132.451 183.144 132.594C183.39 132.737 183.779 132.737 184.025 132.594C184.27 132.451 184.27 132.226 184.025 132.083C183.789 131.94 183.39 131.94 183.144 132.083Z" fill="#16110D"/>
<path d="M201.579 140.048C201.334 140.192 201.334 140.416 201.579 140.56C201.825 140.703 202.214 140.703 202.46 140.56C202.706 140.416 202.706 140.192 202.46 140.048C202.214 139.905 201.815 139.905 201.579 140.048Z" fill="#16110D"/>
<path d="M199.275 138.72C199.029 138.863 199.029 139.088 199.275 139.231C199.521 139.374 199.91 139.374 200.155 139.231C200.401 139.088 200.401 138.863 200.155 138.72C199.91 138.576 199.521 138.576 199.275 138.72Z" fill="#16110D"/>
<path d="M196.971 137.39C196.725 137.533 196.725 137.758 196.971 137.901C197.217 138.044 197.606 138.044 197.852 137.901C198.098 137.758 198.098 137.533 197.852 137.39C197.606 137.247 197.217 137.247 196.971 137.39Z" fill="#16110D"/>
<path d="M194.666 136.061C194.421 136.204 194.421 136.429 194.666 136.572C194.912 136.715 195.301 136.715 195.547 136.572C195.793 136.429 195.793 136.204 195.547 136.061C195.301 135.917 194.912 135.917 194.666 136.061Z" fill="#16110D"/>
<path d="M192.802 135.345C192.457 135.345 192.177 135.185 192.177 134.987C192.177 134.789 192.457 134.629 192.802 134.629C193.147 134.629 193.427 134.789 193.427 134.987C193.427 135.185 193.147 135.345 192.802 135.345Z" fill="#16110D"/>
<path d="M190.057 133.401C189.811 133.545 189.811 133.77 190.057 133.913C190.303 134.056 190.692 134.056 190.938 133.913C191.184 133.77 191.184 133.545 190.938 133.401C190.692 133.268 190.303 133.268 190.057 133.401Z" fill="#16110D"/>
<path d="M188.194 132.686C187.849 132.686 187.569 132.526 187.569 132.328C187.569 132.13 187.849 131.97 188.194 131.97C188.539 131.97 188.818 132.13 188.818 132.328C188.818 132.526 188.539 132.686 188.194 132.686Z" fill="#16110D"/>
<path d="M185.889 131.367C185.544 131.367 185.264 131.206 185.264 131.009C185.264 130.811 185.544 130.651 185.889 130.651C186.234 130.651 186.514 130.811 186.514 131.009C186.514 131.206 186.234 131.367 185.889 131.367Z" fill="#16110D"/>
<path d="M203.884 138.72C203.638 138.863 203.638 139.088 203.884 139.231C204.13 139.374 204.519 139.374 204.765 139.231C205.011 139.088 205.011 138.863 204.765 138.72C204.519 138.576 204.12 138.576 203.884 138.72Z" fill="#16110D"/>
<path d="M201.579 137.39C201.334 137.533 201.334 137.758 201.579 137.901C201.825 138.044 202.214 138.044 202.46 137.901C202.706 137.758 202.706 137.533 202.46 137.39C202.214 137.247 201.815 137.247 201.579 137.39Z" fill="#16110D"/>
<path d="M199.715 136.674C199.37 136.674 199.09 136.514 199.09 136.316C199.09 136.118 199.37 135.958 199.715 135.958C200.06 135.958 200.34 136.118 200.34 136.316C200.34 136.514 200.06 136.674 199.715 136.674Z" fill="#16110D"/>
<path d="M196.971 134.731C196.725 134.874 196.725 135.099 196.971 135.242C197.217 135.386 197.606 135.386 197.852 135.242C198.098 135.099 198.098 134.874 197.852 134.731C197.606 134.598 197.217 134.598 196.971 134.731Z" fill="#16110D"/>
<path d="M194.666 133.401C194.421 133.545 194.421 133.77 194.666 133.913C194.912 134.056 195.301 134.056 195.547 133.913C195.793 133.77 195.793 133.545 195.547 133.401H194.666Z" fill="#16110D"/>
<path d="M193.242 132.083C192.996 131.94 192.607 131.94 192.361 132.083C192.116 132.226 192.116 132.451 192.361 132.594C192.607 132.737 192.996 132.737 193.242 132.594V132.083Z" fill="#16110D"/>
<path d="M190.057 130.754C189.811 130.897 189.811 131.122 190.057 131.265C190.303 131.408 190.692 131.408 190.938 131.265C191.184 131.122 191.184 130.897 190.938 130.754C190.692 130.61 190.303 130.61 190.057 130.754Z" fill="#16110D"/>
<path d="M187.753 129.424C187.507 129.567 187.507 129.792 187.753 129.935C187.999 130.078 188.388 130.078 188.634 129.935C188.88 129.792 188.88 129.567 188.634 129.424C188.388 129.281 187.999 129.281 187.753 129.424Z" fill="#16110D"/>
<path d="M206.188 137.39C205.942 137.533 205.942 137.758 206.188 137.901C206.434 138.044 206.823 138.044 207.069 137.901C207.314 137.758 207.314 137.533 207.069 137.39C206.823 137.247 206.423 137.247 206.188 137.39Z" fill="#16110D"/>
<path d="M203.884 136.061C203.638 136.204 203.638 136.429 203.884 136.572C204.13 136.715 204.519 136.715 204.765 136.572C205.011 136.429 205.011 136.204 204.765 136.061C204.519 135.917 204.12 135.917 203.884 136.061Z" fill="#16110D"/>
<path d="M201.579 134.731C201.334 134.874 201.334 135.099 201.579 135.242C201.825 135.386 202.214 135.386 202.46 135.242C202.706 135.099 202.706 134.874 202.46 134.731C202.214 134.598 201.815 134.598 201.579 134.731Z" fill="#16110D"/>
<path d="M200.155 133.913C200.401 133.77 200.401 133.545 200.155 133.402C199.91 133.258 199.521 133.258 199.275 133.402C199.029 133.545 199.029 133.77 199.275 133.913C199.521 134.056 199.91 134.056 200.155 133.913Z" fill="#16110D"/>
<path d="M196.971 132.584C197.217 132.727 197.606 132.727 197.852 132.584C198.098 132.441 198.098 132.216 197.852 132.073L196.971 132.584Z" fill="#16110D"/>
<path d="M193.242 129.424C192.996 129.281 192.607 129.281 192.361 129.424C192.116 129.567 192.116 129.792 192.361 129.935C192.607 130.078 192.996 130.078 193.242 129.935V129.424Z" fill="#16110D"/>
<path d="M190.057 128.095C189.811 128.238 189.811 128.463 190.057 128.606C190.303 128.749 190.692 128.749 190.938 128.606C191.184 128.463 191.184 128.238 190.938 128.095C190.692 127.951 190.303 127.951 190.057 128.095Z" fill="#16110D"/>
<path d="M208.503 136.051C208.257 136.194 208.257 136.419 208.503 136.562C208.749 136.705 209.138 136.705 209.384 136.562C209.63 136.419 209.63 136.194 209.384 136.051C209.148 135.907 208.749 135.907 208.503 136.051Z" fill="#16110D"/>
<path d="M206.209 134.721C205.964 134.864 205.964 135.089 206.209 135.232C206.455 135.375 206.844 135.375 207.09 135.232C207.336 135.089 207.336 134.864 207.09 134.721C206.844 134.578 206.445 134.578 206.209 134.721Z" fill="#16110D"/>
<path d="M203.904 133.392C203.658 133.535 203.658 133.76 203.904 133.903C204.149 134.046 204.539 134.046 204.784 133.903C205.03 133.76 205.03 133.535 204.784 133.392C204.539 133.248 204.139 133.248 203.904 133.392Z" fill="#16110D"/>
<path d="M202.481 132.573C202.726 132.43 202.726 132.205 202.481 132.062C202.235 131.919 201.846 131.919 201.6 132.062C201.354 132.205 201.354 132.43 201.6 132.573C201.835 132.716 202.235 132.716 202.481 132.573Z" fill="#16110D"/>
<path d="M199.296 131.244C199.542 131.387 199.931 131.387 200.177 131.244C200.423 131.101 200.423 130.876 200.177 130.733L199.296 131.244Z" fill="#16110D"/>
<path d="M192.823 127.369C192.478 127.369 192.199 127.209 192.199 127.011C192.199 126.813 192.478 126.653 192.823 126.653C193.169 126.653 193.448 126.813 193.448 127.011C193.448 127.209 193.169 127.369 192.823 127.369Z" fill="#16110D"/>
<path d="M210.808 134.721C210.562 134.864 210.562 135.089 210.808 135.232C211.054 135.375 211.443 135.375 211.689 135.232C211.934 135.089 211.934 134.864 211.689 134.721C211.453 134.578 211.054 134.578 210.808 134.721Z" fill="#16110D"/>
<path d="M208.503 133.392C208.257 133.535 208.257 133.76 208.503 133.903C208.749 134.046 209.138 134.046 209.384 133.903C209.63 133.76 209.63 133.535 209.384 133.392C209.148 133.248 208.749 133.248 208.503 133.392Z" fill="#16110D"/>
<path d="M206.209 132.062C205.964 132.205 205.964 132.43 206.209 132.573C206.455 132.717 206.844 132.717 207.09 132.573C207.336 132.43 207.336 132.205 207.09 132.062C206.844 131.929 206.445 131.929 206.209 132.062Z" fill="#16110D"/>
<path d="M203.904 130.732C203.658 130.876 203.658 131.101 203.904 131.244C204.149 131.387 204.539 131.387 204.784 131.244C205.03 131.101 205.03 130.876 204.784 130.732C204.539 130.599 204.139 130.599 203.904 130.732Z" fill="#16110D"/>
<path d="M201.6 129.915C201.846 130.058 202.235 130.058 202.481 129.915C202.726 129.772 202.726 129.547 202.481 129.404L201.6 129.915Z" fill="#16110D"/>
<path d="M195.567 125.425C195.322 125.282 194.932 125.282 194.687 125.425C194.441 125.568 194.441 125.793 194.687 125.936C194.932 126.079 195.322 126.079 195.567 125.936V125.425Z" fill="#16110D"/>
<path d="M213.112 133.392C212.866 133.535 212.866 133.76 213.112 133.903C213.357 134.046 213.747 134.046 213.992 133.903C214.238 133.76 214.238 133.535 213.992 133.392C213.757 133.248 213.357 133.248 213.112 133.392Z" fill="#16110D"/>
<path d="M210.808 132.062C210.562 132.205 210.562 132.43 210.808 132.573C211.054 132.717 211.443 132.717 211.689 132.573C211.934 132.43 211.934 132.205 211.689 132.062C211.453 131.929 211.054 131.929 210.808 132.062Z" fill="#16110D"/>
<path d="M208.944 131.347C208.599 131.347 208.319 131.186 208.319 130.989C208.319 130.791 208.599 130.631 208.944 130.631C209.289 130.631 209.568 130.791 209.568 130.989C209.568 131.186 209.289 131.347 208.944 131.347Z" fill="#16110D"/>
<path d="M206.209 129.414C205.964 129.557 205.964 129.782 206.209 129.925C206.455 130.068 206.844 130.068 207.09 129.925C207.336 129.782 207.336 129.557 207.09 129.414C206.844 129.271 206.445 129.271 206.209 129.414Z" fill="#16110D"/>
<path d="M215.857 132.676C215.512 132.676 215.232 132.516 215.232 132.318C215.232 132.12 215.512 131.96 215.857 131.96C216.202 131.96 216.481 132.12 216.481 132.318C216.481 132.516 216.202 132.676 215.857 132.676Z" fill="#16110D"/>
<path d="M213.112 130.732C212.866 130.876 212.866 131.101 213.112 131.244C213.357 131.387 213.747 131.387 213.992 131.244C214.238 131.101 214.238 130.876 213.992 130.732C213.757 130.599 213.357 130.599 213.112 130.732Z" fill="#16110D"/>
<path d="M210.808 129.414C210.562 129.557 210.562 129.782 210.808 129.925C211.054 130.068 211.443 130.068 211.689 129.925C211.934 129.782 211.934 129.557 211.689 129.414C211.453 129.271 211.054 129.271 210.808 129.414Z" fill="#16110D"/>
<path d="M208.944 128.687C208.599 128.687 208.319 128.527 208.319 128.329C208.319 128.131 208.599 127.971 208.944 127.971C209.289 127.971 209.568 128.131 209.568 128.329C209.568 128.527 209.289 128.687 208.944 128.687Z" fill="#16110D"/>
<path d="M197.074 119.014C196.828 119.157 196.828 119.382 197.074 119.525C197.319 119.668 197.709 119.668 197.954 119.525C198.2 119.382 198.2 119.157 197.954 119.014C197.709 118.871 197.319 118.871 197.074 119.014Z" fill="#16110D"/>
<path d="M194.769 117.684C194.523 117.828 194.523 118.053 194.769 118.196C195.015 118.339 195.404 118.339 195.65 118.196C195.895 118.053 195.895 117.828 195.65 117.684C195.404 117.541 195.015 117.541 194.769 117.684Z" fill="#16110D"/>
<path d="M192.464 116.354C192.218 116.498 192.218 116.723 192.464 116.866C192.71 117.009 193.099 117.009 193.345 116.866C193.591 116.723 193.591 116.498 193.345 116.354C193.099 116.222 192.71 116.222 192.464 116.354Z" fill="#16110D"/>
<path d="M197.954 116.355C197.709 116.211 197.319 116.211 197.074 116.355C196.828 116.498 196.828 116.723 197.074 116.866C197.319 117.009 197.709 117.009 197.954 116.866C198.2 116.723 198.2 116.498 197.954 116.355Z" fill="#16110D"/>
<path d="M194.769 115.537C195.015 115.68 195.404 115.68 195.65 115.537C195.895 115.393 195.895 115.168 195.65 115.025L194.769 115.537Z" fill="#16110D"/>
<path d="M173.927 132.093C173.681 132.236 173.681 132.461 173.927 132.605C174.173 132.748 174.562 132.748 174.808 132.605C175.054 132.461 175.054 132.236 174.808 132.093C174.562 131.96 174.173 131.96 173.927 132.093Z" fill="#16110D"/>
<path d="M171.622 130.763C171.377 130.907 171.377 131.132 171.622 131.275C171.868 131.418 172.257 131.418 172.503 131.275C172.749 131.132 172.749 130.907 172.503 130.763C172.257 130.631 171.868 130.631 171.622 130.763Z" fill="#16110D"/>
<path d="M169.318 129.444C169.072 129.587 169.072 129.812 169.318 129.955C169.563 130.098 169.953 130.098 170.198 129.955C170.444 129.812 170.444 129.587 170.198 129.444C169.953 129.301 169.563 129.301 169.318 129.444Z" fill="#16110D"/>
<path d="M167.013 128.115C166.767 128.258 166.767 128.483 167.013 128.626C167.259 128.769 167.648 128.769 167.894 128.626C168.14 128.483 168.14 128.258 167.894 128.115C167.648 127.971 167.259 127.971 167.013 128.115Z" fill="#16110D"/>
<path d="M176.231 130.763C175.985 130.907 175.985 131.132 176.231 131.275C176.477 131.418 176.866 131.418 177.112 131.275C177.357 131.132 177.357 130.907 177.112 130.763C176.866 130.631 176.477 130.631 176.231 130.763Z" fill="#16110D"/>
<path d="M173.927 129.444C173.681 129.587 173.681 129.812 173.927 129.955C174.173 130.098 174.562 130.098 174.808 129.955C175.054 129.812 175.054 129.587 174.808 129.444C174.562 129.301 174.173 129.301 173.927 129.444Z" fill="#16110D"/>
<path d="M172.063 128.728C171.718 128.728 171.438 128.568 171.438 128.37C171.438 128.173 171.718 128.012 172.063 128.012C172.408 128.012 172.688 128.173 172.688 128.37C172.688 128.568 172.408 128.728 172.063 128.728Z" fill="#16110D"/>
<path d="M169.318 126.785C169.072 126.929 169.072 127.153 169.318 127.297C169.563 127.44 169.953 127.44 170.198 127.297C170.444 127.153 170.444 126.929 170.198 126.785C169.953 126.642 169.563 126.642 169.318 126.785Z" fill="#16110D"/>
<path d="M167.013 125.456C166.767 125.599 166.767 125.824 167.013 125.967C167.259 126.111 167.648 126.111 167.894 125.967C168.14 125.824 168.14 125.599 167.894 125.456C167.648 125.313 167.259 125.313 167.013 125.456Z" fill="#16110D"/>
<path d="M181.721 130.774C181.475 130.63 181.086 130.63 180.84 130.774C180.594 130.917 180.594 131.142 180.84 131.285C181.086 131.428 181.475 131.428 181.721 131.285C181.967 131.142 181.967 130.907 181.721 130.774Z" fill="#16110D"/>
<path d="M178.535 129.444C178.29 129.587 178.29 129.812 178.535 129.955C178.781 130.098 179.17 130.098 179.416 129.955C179.662 129.812 179.662 129.587 179.416 129.444C179.17 129.301 178.771 129.301 178.535 129.444Z" fill="#16110D"/>
<path d="M176.231 128.115C175.985 128.258 175.985 128.483 176.231 128.626C176.477 128.769 176.866 128.769 177.112 128.626C177.357 128.483 177.357 128.258 177.112 128.115C176.866 127.971 176.477 127.971 176.231 128.115Z" fill="#16110D"/>
<path d="M173.927 126.785C173.681 126.929 173.681 127.153 173.927 127.297C174.173 127.44 174.562 127.44 174.808 127.297C175.054 127.153 175.054 126.929 174.808 126.785C174.562 126.642 174.173 126.642 173.927 126.785Z" fill="#16110D"/>
<path d="M171.622 125.456C171.377 125.599 171.377 125.824 171.622 125.967C171.868 126.111 172.257 126.111 172.503 125.967C172.749 125.824 172.749 125.599 172.503 125.456C172.257 125.313 171.868 125.313 171.622 125.456Z" fill="#16110D"/>
<path d="M169.318 124.126C169.072 124.27 169.072 124.495 169.318 124.638C169.563 124.781 169.953 124.781 170.198 124.638C170.444 124.495 170.444 124.27 170.198 124.126C169.953 123.983 169.563 123.983 169.318 124.126Z" fill="#16110D"/>
<path d="M167.013 122.797C166.767 122.941 166.767 123.166 167.013 123.309C167.259 123.452 167.648 123.452 167.894 123.309C168.14 123.166 168.14 122.941 167.894 122.797C167.648 122.665 167.259 122.665 167.013 122.797Z" fill="#16110D"/>
<path d="M184.025 129.444C183.779 129.301 183.39 129.301 183.144 129.444C182.898 129.587 182.898 129.812 183.144 129.955C183.39 130.098 183.779 130.098 184.025 129.955C184.27 129.812 184.27 129.577 184.025 129.444Z" fill="#16110D"/>
<path d="M180.84 128.115C180.594 128.258 180.594 128.483 180.84 128.626C181.086 128.769 181.475 128.769 181.721 128.626C181.967 128.483 181.967 128.258 181.721 128.115C181.475 127.971 181.076 127.971 180.84 128.115Z" fill="#16110D"/>
<path d="M178.535 126.785C178.29 126.929 178.29 127.153 178.535 127.297C178.781 127.44 179.17 127.44 179.416 127.297C179.662 127.153 179.662 126.929 179.416 126.785C179.17 126.642 178.771 126.642 178.535 126.785Z" fill="#16110D"/>
<path d="M176.231 125.456C175.985 125.599 175.985 125.824 176.231 125.967C176.477 126.111 176.866 126.111 177.112 125.967C177.357 125.824 177.357 125.599 177.112 125.456C176.866 125.313 176.466 125.313 176.231 125.456Z" fill="#16110D"/>
<path d="M173.927 124.126C173.681 124.27 173.681 124.495 173.927 124.638C174.173 124.781 174.562 124.781 174.808 124.638C175.054 124.495 175.054 124.27 174.808 124.126C174.562 123.983 174.173 123.983 173.927 124.126Z" fill="#16110D"/>
<path d="M171.622 122.797C171.377 122.941 171.377 123.166 171.622 123.309C171.868 123.452 172.257 123.452 172.503 123.309C172.749 123.166 172.749 122.941 172.503 122.797C172.257 122.665 171.868 122.665 171.622 122.797Z" fill="#16110D"/>
<path d="M169.318 121.468C169.072 121.611 169.072 121.836 169.318 121.979C169.563 122.122 169.953 122.122 170.198 121.979C170.444 121.836 170.444 121.611 170.198 121.468C169.953 121.335 169.563 121.335 169.318 121.468Z" fill="#16110D"/>
<path d="M167.013 120.138C166.767 120.282 166.767 120.507 167.013 120.65C167.259 120.793 167.648 120.793 167.894 120.65C168.14 120.507 168.14 120.282 167.894 120.138C167.648 120.005 167.259 120.005 167.013 120.138Z" fill="#16110D"/>
<path d="M186.329 128.115C186.084 127.971 185.694 127.971 185.449 128.115C185.203 128.258 185.203 128.483 185.449 128.626C185.694 128.769 186.084 128.769 186.329 128.626C186.575 128.483 186.575 128.258 186.329 128.115Z" fill="#16110D"/>
<path d="M183.144 126.785C182.898 126.929 182.898 127.153 183.144 127.297C183.39 127.44 183.779 127.44 184.025 127.297C184.27 127.153 184.27 126.929 184.025 126.785C183.779 126.642 183.379 126.642 183.144 126.785Z" fill="#16110D"/>
<path d="M180.84 125.456C180.594 125.599 180.594 125.824 180.84 125.967C181.086 126.111 181.475 126.111 181.721 125.967C181.967 125.824 181.967 125.599 181.721 125.456C181.475 125.313 181.076 125.313 180.84 125.456Z" fill="#16110D"/>
<path d="M178.535 124.126C178.29 124.27 178.29 124.495 178.535 124.638C178.781 124.781 179.17 124.781 179.416 124.638C179.662 124.495 179.662 124.27 179.416 124.126C179.17 123.983 178.771 123.983 178.535 124.126Z" fill="#16110D"/>
<path d="M176.231 122.797C175.985 122.941 175.985 123.166 176.231 123.309C176.477 123.452 176.866 123.452 177.112 123.309C177.357 123.166 177.357 122.941 177.112 122.797C176.866 122.665 176.466 122.665 176.231 122.797Z" fill="#16110D"/>
<path d="M173.927 121.468C173.681 121.611 173.681 121.836 173.927 121.979C174.173 122.122 174.562 122.122 174.808 121.979C175.054 121.836 175.054 121.611 174.808 121.468C174.562 121.335 174.173 121.335 173.927 121.468Z" fill="#16110D"/>
<path d="M171.622 120.138C171.377 120.282 171.377 120.507 171.622 120.65C171.868 120.793 172.257 120.793 172.503 120.65C172.749 120.507 172.749 120.282 172.503 120.138C172.257 120.005 171.868 120.005 171.622 120.138Z" fill="#16110D"/>
<path d="M169.318 118.819C169.072 118.963 169.072 119.188 169.318 119.331C169.563 119.474 169.953 119.474 170.198 119.331C170.444 119.188 170.444 118.963 170.198 118.819C169.953 118.676 169.563 118.676 169.318 118.819Z" fill="#16110D"/>
<path d="M188.634 126.785C188.388 126.642 187.999 126.642 187.753 126.785C187.507 126.929 187.507 127.153 187.753 127.297C187.999 127.44 188.388 127.44 188.634 127.297C188.88 127.153 188.869 126.929 188.634 126.785Z" fill="#16110D"/>
<path d="M185.879 126.07C185.534 126.07 185.254 125.909 185.254 125.712C185.254 125.514 185.534 125.354 185.879 125.354C186.224 125.354 186.504 125.514 186.504 125.712C186.504 125.909 186.224 126.07 185.879 126.07Z" fill="#16110D"/>
<path d="M183.144 124.126C182.898 124.27 182.898 124.495 183.144 124.638C183.39 124.781 183.779 124.781 184.025 124.638C184.27 124.495 184.27 124.27 184.025 124.126C183.779 123.983 183.379 123.983 183.144 124.126Z" fill="#16110D"/>
<path d="M180.84 122.797C180.594 122.941 180.594 123.166 180.84 123.309C181.086 123.452 181.475 123.452 181.721 123.309C181.967 123.166 181.967 122.941 181.721 122.797C181.475 122.665 181.076 122.665 180.84 122.797Z" fill="#16110D"/>
<path d="M190.959 125.446C190.713 125.303 190.324 125.303 190.078 125.446C189.832 125.589 189.832 125.814 190.078 125.957C190.324 126.101 190.713 126.101 190.959 125.957C191.195 125.814 191.195 125.579 190.959 125.446Z" fill="#16110D"/>
<path d="M188.204 124.73C187.859 124.73 187.58 124.57 187.58 124.372C187.58 124.174 187.859 124.014 188.204 124.014C188.549 124.014 188.829 124.174 188.829 124.372C188.829 124.57 188.549 124.73 188.204 124.73Z" fill="#16110D"/>
<path d="M185.459 122.787C185.213 122.93 185.213 123.155 185.459 123.298C185.705 123.442 186.094 123.442 186.34 123.298C186.586 123.155 186.586 122.93 186.34 122.787C186.105 122.644 185.705 122.644 185.459 122.787Z" fill="#16110D"/>
<path d="M183.154 121.457C182.908 121.6 182.908 121.825 183.154 121.969C183.399 122.112 183.789 122.112 184.034 121.969C184.28 121.825 184.28 121.6 184.034 121.457C183.799 121.314 183.399 121.314 183.154 121.457Z" fill="#16110D"/>
<path d="M193.265 124.116C193.019 123.973 192.63 123.973 192.384 124.116C192.138 124.26 192.138 124.484 192.384 124.628C192.63 124.771 193.019 124.771 193.265 124.628C193.5 124.484 193.5 124.26 193.265 124.116Z" fill="#16110D"/>
<path d="M190.068 122.787C189.822 122.93 189.822 123.155 190.068 123.298C190.313 123.442 190.703 123.442 190.948 123.298C191.194 123.155 191.194 122.93 190.948 122.787C190.713 122.644 190.313 122.644 190.068 122.787Z" fill="#16110D"/>
<path d="M187.764 121.457C187.518 121.6 187.518 121.825 187.764 121.969C188.01 122.112 188.399 122.112 188.645 121.969C188.891 121.825 188.891 121.6 188.645 121.457C188.409 121.314 188.01 121.314 187.764 121.457Z" fill="#16110D"/>
<path d="M185.9 120.742C185.555 120.742 185.275 120.581 185.275 120.384C185.275 120.186 185.555 120.026 185.9 120.026C186.245 120.026 186.524 120.186 186.524 120.384C186.524 120.581 186.245 120.742 185.9 120.742Z" fill="#16110D"/>
<path d="M195.558 122.787C195.312 122.644 194.923 122.644 194.677 122.787C194.431 122.93 194.431 123.155 194.677 123.298C194.923 123.442 195.312 123.442 195.558 123.298C195.804 123.155 195.804 122.93 195.558 122.787Z" fill="#16110D"/>
<path d="M192.371 121.457C192.126 121.6 192.126 121.825 192.371 121.969C192.617 122.112 193.006 122.112 193.252 121.969C193.498 121.825 193.498 121.6 193.252 121.457C193.017 121.314 192.617 121.314 192.371 121.457Z" fill="#16110D"/>
<path d="M190.068 120.128C189.822 120.271 189.822 120.496 190.068 120.639C190.313 120.783 190.703 120.783 190.948 120.639C191.194 120.496 191.194 120.271 190.948 120.128C190.713 119.985 190.313 119.985 190.068 120.128Z" fill="#16110D"/>
<path d="M187.764 118.799C187.518 118.942 187.518 119.167 187.764 119.31C188.01 119.453 188.399 119.453 188.645 119.31C188.891 119.167 188.891 118.942 188.645 118.799C188.409 118.666 188.01 118.666 187.764 118.799Z" fill="#16110D"/>
<path d="M197.862 121.969C198.107 121.825 198.107 121.6 197.862 121.457C197.616 121.314 197.227 121.314 196.981 121.457C196.735 121.6 196.735 121.825 196.981 121.969C197.227 122.102 197.616 122.112 197.862 121.969Z" fill="#16110D"/>
<path d="M194.677 120.128C194.431 120.271 194.431 120.496 194.677 120.639C194.923 120.783 195.312 120.783 195.558 120.639C195.804 120.496 195.804 120.271 195.558 120.128C195.312 119.985 194.923 119.985 194.677 120.128Z" fill="#16110D"/>
<path d="M192.371 118.799C192.126 118.942 192.126 119.167 192.371 119.31C192.617 119.453 193.006 119.453 193.252 119.31C193.498 119.167 193.498 118.942 193.252 118.799C193.017 118.666 192.617 118.666 192.371 118.799Z" fill="#16110D"/>
<path d="M190.508 118.083C190.163 118.083 189.883 117.923 189.883 117.725C189.883 117.527 190.163 117.367 190.508 117.367C190.853 117.367 191.133 117.527 191.133 117.725C191.133 117.923 190.853 118.083 190.508 118.083Z" fill="#16110D"/>
<path d="M183.502 89.7363C192.873 72.9039 199.541 77.1683 203.689 79.551C207.837 81.9439 216.348 75.89 218.826 56.2761C221.53 34.8727 236.913 23.8284 236.913 23.8284L244.697 28.5222L239.925 43.0639L236.903 47.3078V82.0257L188.828 109.739L185.878 115.66L177.684 125.334L169.901 120.64C169.911 120.63 174.13 106.558 183.502 89.7363Z" fill="#FFC856"/>
<path d="M183.502 93.4686C192.873 76.6363 199.541 80.9006 203.689 83.2833C207.837 85.6763 216.348 79.6224 218.826 60.0085C221.53 38.6051 236.913 27.5608 236.913 27.5608L244.697 32.2546L239.925 46.7963L236.903 51.0401V85.7581L188.828 113.471L185.878 119.392L183.44 122.266L170.72 121.938C170.74 121.928 174.13 110.301 183.502 93.4686Z" fill="#FFEECC"/>
<path d="M199.366 77.5464L208.031 82.5061C208.031 82.5061 212.363 91.8835 214.104 95.1559L188.838 109.718L185.888 115.639L177.695 125.313L169.911 120.619C169.911 120.619 174.13 106.548 183.502 89.7258C190.118 77.8532 195.382 76.4829 199.366 77.5464Z" fill="#FFC856"/>
<path d="M199.366 80.2978L208.031 85.2575C208.031 85.2575 212.363 94.6349 214.104 97.9073L188.838 112.469L185.888 118.39L182.017 122.644L176.885 124.864L171.631 121.765C171.631 121.765 174.776 109.32 184.147 92.4874C190.763 80.6352 195.382 79.2445 199.366 80.2978Z" fill="#FFEECC"/>
<path d="M169.256 120.435C169.297 120.292 173.608 106.098 182.908 89.3987C183.226 88.826 183.543 88.284 183.861 87.7523C183.932 87.6398 183.994 87.5273 184.065 87.4148C184.362 86.9137 184.67 86.4331 184.967 85.9729C184.977 85.9627 184.987 85.9422 184.987 85.932C188.336 80.7678 191.624 77.792 194.973 76.8716C196.653 76.4114 198.179 76.5137 199.551 76.8716C201.21 77.3113 202.634 78.1294 203.822 78.8146L204.047 78.9475C205.061 79.5304 206.393 79.4691 207.796 78.7737C211.667 76.8512 216.42 69.9076 218.161 56.184C220.875 34.7295 236.371 23.3784 236.525 23.2659L236.893 23L245.404 28.1233V28.6244L240.601 43.2683L237.62 47.5122V82.404L189.381 110.209L186.524 115.946L178.166 125.855L177.715 126.121L169.112 120.936L169.256 120.435ZM239.3 42.7468L243.868 28.8289L236.955 24.6669C234.65 26.4871 221.92 37.3371 219.513 56.3681C217.249 74.3253 210.428 79.0191 208.4 80.0213C207.673 80.3792 206.946 80.6042 206.239 80.686L208.564 82.0154L208.656 82.2199C208.697 82.3119 212.507 90.544 214.382 94.1948L236.217 81.6063V47.0725L239.3 42.7468ZM177.552 124.423L185.305 115.261L188.306 109.227L213.173 94.8902C211.452 91.5462 208.093 84.2958 207.489 82.9971L199.131 78.2112C199.06 78.1908 198.978 78.1703 198.906 78.1499C198.722 78.109 198.527 78.0681 198.343 78.0476C198.22 78.0272 198.107 78.0169 197.984 78.0067C197.749 77.9863 197.513 77.9658 197.278 77.9658C197.247 77.9658 197.216 77.9658 197.185 77.9658C195.055 77.9965 192.914 78.9986 190.753 80.9825C190.743 80.9928 190.733 81.003 190.723 81.003C190.139 81.545 189.555 82.1586 188.971 82.8335C188.859 82.9664 188.746 83.0994 188.633 83.2425C188.469 83.4368 188.306 83.6413 188.142 83.8459C188.009 84.0095 187.886 84.1731 187.753 84.347C187.578 84.5822 187.404 84.8276 187.22 85.073C187.056 85.298 186.902 85.523 186.739 85.7582C186.534 86.0547 186.329 86.3513 186.124 86.6683C186.011 86.8319 185.909 87.016 185.796 87.1898C185.602 87.4864 185.417 87.8034 185.223 88.1102C185.131 88.2636 185.028 88.4272 184.936 88.5806C184.649 89.0612 184.362 89.5521 184.076 90.0634C175.841 104.85 171.56 117.643 170.7 120.312L177.552 124.423Z" fill="#16110D"/>
<path d="M244.697 86.6991V28.5223C244.697 28.5223 229.314 39.5666 226.61 60.97C224.132 80.5736 215.62 86.6275 211.473 84.2448C207.325 81.8519 200.657 77.5978 191.286 94.4301C181.914 111.262 177.695 125.323 177.695 125.323L244.697 86.6991Z" fill="#FFC856"/>
<path d="M176.885 125.63L177.705 126.121L245.394 87.0877V28.1337L244.666 27.694L244.298 27.9599C244.144 28.0723 228.638 39.4336 225.934 60.8882C224.203 74.6118 219.441 81.5553 215.569 83.4779C214.166 84.1732 212.835 84.2346 211.821 83.6517L211.595 83.5188C209.424 82.261 206.454 80.5429 202.746 81.5656C198.701 82.6802 194.758 86.7809 190.681 94.0927C181.382 110.792 177.08 124.986 177.029 125.129L176.885 125.63ZM244.001 86.3003L178.913 123.82C180.337 119.597 184.536 107.97 191.9 94.7574C195.731 87.8854 199.51 83.8869 203.125 82.895C206.269 82.0258 208.84 83.5188 210.909 84.7152L211.134 84.8482C212.568 85.6765 214.361 85.6254 216.184 84.7255C218.222 83.7131 225.033 79.0295 227.306 61.0723C229.519 43.565 240.477 32.9809 244.011 29.9846V86.3003H244.001Z" fill="#16110D"/>
<path d="M200.073 107.55C207.714 93.8163 213.162 97.2932 216.542 99.2464C219.922 101.2 226.866 96.2604 228.894 80.2666C231.096 62.8105 243.642 53.8012 243.642 53.8012L249.992 57.6258L246.1 69.4882L243.642 72.9446V101.261L204.426 123.871L202.019 128.698L195.341 136.592L188.991 132.768C188.991 132.758 192.433 121.284 200.073 107.55Z" fill="#FFC856"/>
<path d="M200.073 110.597C207.714 96.8635 213.162 100.34 216.542 102.294C219.922 104.247 226.866 99.3075 228.894 83.3138C231.096 65.8577 243.642 56.8484 243.642 56.8484L249.992 60.673L246.1 72.5354L243.642 75.9918V104.308L204.426 126.918L202.019 131.745L200.032 134.097L189.657 133.831C189.657 133.821 192.433 124.331 200.073 110.597Z" fill="#FFEECC"/>
<path d="M213.02 97.6104L220.087 101.66C220.087 101.66 223.62 109.309 225.044 111.978L204.437 123.861L202.03 128.688L195.353 136.582L189.003 132.758C189.003 132.758 192.444 121.284 200.084 107.55C205.472 97.866 209.763 96.7411 213.02 97.6104Z" fill="#FFC856"/>
<path d="M213.02 99.8598L220.087 103.909C220.087 103.909 223.62 111.559 225.044 114.228L204.437 126.11L202.03 130.937L198.866 134.414L194.677 136.224L190.385 133.698C190.385 133.698 192.956 123.544 200.597 109.82C205.994 100.126 209.763 98.9906 213.02 99.8598Z" fill="#FFEECC"/>
<path d="M188.449 132.594C188.48 132.481 191.993 120.905 199.582 107.274C199.838 106.814 200.105 106.364 200.361 105.934C200.412 105.842 200.473 105.75 200.524 105.658C200.77 105.249 201.016 104.86 201.262 104.482C201.272 104.472 201.272 104.462 201.282 104.451C204.017 100.238 206.69 97.8146 209.425 97.0578C210.797 96.6795 212.036 96.7613 213.163 97.0578C214.515 97.4157 215.682 98.0907 216.645 98.6429L216.83 98.7452C217.659 99.2258 218.745 99.1747 219.882 98.602C223.036 97.0374 226.918 91.3721 228.331 80.1744C230.543 62.6774 243.182 53.4124 243.315 53.3204L243.622 53.1057L250.566 57.2882V57.6972L246.644 69.6414L244.206 73.1081V101.568L204.857 124.249L202.532 128.923L195.711 137.001L195.342 137.216L188.326 132.993L188.449 132.594ZM245.589 69.2221L249.317 57.8711L243.684 54.476C241.799 55.969 231.414 64.8146 229.458 80.338C227.604 94.9921 222.053 98.8167 220.394 99.6348C219.8 99.9314 219.206 100.105 218.632 100.177L220.537 101.261L220.609 101.424C220.64 101.496 223.753 108.215 225.279 111.201L243.09 100.934V72.7604L245.589 69.2221ZM195.219 135.846L201.549 128.37L203.996 123.452L224.286 111.753C222.883 109.022 220.138 103.112 219.646 102.048L212.835 98.1418C212.774 98.1213 212.712 98.1111 212.651 98.0907C212.497 98.06 212.344 98.0293 212.19 98.0089C212.098 97.9986 211.995 97.9884 211.893 97.968C211.698 97.9475 211.504 97.9373 211.309 97.9373C211.289 97.9373 211.258 97.9373 211.237 97.9373C209.496 97.968 207.755 98.7758 205.994 100.402C205.983 100.412 205.983 100.412 205.973 100.422C205.502 100.862 205.021 101.363 204.539 101.915C204.447 102.018 204.355 102.13 204.263 102.243C204.13 102.406 203.996 102.57 203.863 102.733C203.761 102.866 203.648 102.999 203.546 103.142C203.402 103.337 203.259 103.531 203.116 103.736C202.982 103.92 202.849 104.104 202.726 104.298C202.563 104.543 202.399 104.789 202.225 105.044C202.132 105.177 202.05 105.321 201.958 105.464C201.805 105.709 201.651 105.965 201.487 106.22C201.405 106.353 201.334 106.476 201.252 106.609C201.016 106.998 200.791 107.407 200.555 107.826C193.836 119.893 190.344 130.324 189.648 132.502L195.219 135.846Z" fill="#16110D"/>
<path d="M249.993 105.075V57.6152C249.993 57.6152 237.447 66.6244 235.245 84.0806C233.227 100.074 226.273 105.014 222.893 103.06C219.513 101.107 214.075 97.6405 206.424 111.364C198.784 125.098 195.342 136.572 195.342 136.572L249.993 105.075Z" fill="#FFC856"/>
<path d="M194.676 136.838L195.342 137.237L250.556 105.402V57.2985L249.962 56.9406L249.654 57.1553C249.531 57.2473 236.883 66.5123 234.67 84.0093C233.257 95.207 229.375 100.872 226.221 102.437C225.084 102.999 223.998 103.05 223.169 102.58L222.984 102.478C221.213 101.455 218.785 100.054 215.764 100.882C212.466 101.793 209.25 105.137 205.921 111.098C198.332 124.72 194.819 136.296 194.789 136.419L194.676 136.838ZM249.429 104.748L196.335 135.355C197.492 131.909 200.923 122.429 206.925 111.651C210.049 106.036 213.132 102.785 216.081 101.977C218.642 101.271 220.741 102.478 222.431 103.46L222.616 103.562C223.783 104.237 225.248 104.196 226.743 103.46C228.402 102.631 233.964 98.8168 235.818 84.1627C237.62 69.8767 246.561 61.2458 249.439 58.8017V104.748H249.429Z" fill="#16110D"/>
<path d="M152.054 98.6035L182.813 80.326L181.149 96.5872L172.266 96.1442L172.028 96.1323L171.865 96.306L135.279 135.315L123.439 136.227L161.099 97.9899L162.222 96.8502L160.643 97.1225L152.054 98.6035Z" fill="#FFBE2E" stroke="#0D0C0C" stroke-width="1.02941"/>
<path d="M160.695 94.3523L152.299 95.8L182.774 78.6502L181.224 93.8072L172.317 93.374L172.079 93.3625L171.916 93.536L135.353 132.534L123.512 133.446L161.151 95.2197L162.273 94.0802L160.695 94.3523Z" fill="#FFC856" stroke="#0D0C0C" stroke-width="1.02941"/>
<path d="M122.917 135.94L122.077 136.793L121.948 136.803L119.738 132.215L150.755 100.25L151.702 99.274L151.706 99.2846L160.529 97.76L122.917 135.94ZM151.658 99.155L150.298 99.3849L149.221 99.567L147.004 94.9658L181.276 74.6712L183.674 79.499L181.698 97.108L181.539 97.1001L181.581 96.6825L183.238 80.3473L183.341 79.33L182.461 79.8528L151.353 98.336L151.658 99.155Z" fill="#FCF9F8" stroke="#0D0C0C" stroke-width="1.02941"/>
<path d="M168.207 50.4498L172.412 47.6116C172.438 47.585 172.433 47.5479 172.406 47.5214L167.884 45.047C167.868 45.0417 167.857 45.0205 167.863 45.0046L172.098 36.4382C171.945 34.3048 165.894 26.6136 163.979 25.6667L155.441 26.4807C155.425 26.4755 155.414 26.4543 155.42 26.4384L154.86 21.3286C154.855 21.2915 154.807 21.2758 154.786 21.2865L150.607 24.098C150.006 24.483 149.666 25.2543 149.737 26.3369L150.608 39.1057C150.76 41.2391 152.442 43.769 154.372 44.7211L165.853 50.3649C166.789 50.8491 167.621 50.84 168.207 50.4498ZM162.143 33.2029C163.191 33.7236 164.117 35.105 164.199 36.2619L164.599 42.1315L163.147 41.3366L162.229 41.9353L156.245 34.0367L157.136 33.4115L156.837 30.7001C156.832 30.663 156.879 30.6256 156.906 30.652L162.143 33.2029Z" fill="#007550"/>
<path d="M149.321 24.9124C149.503 24.3542 149.823 23.9121 150.287 23.6233L154.709 20.6621L155.315 20.9141L155.381 21.2536L155.889 25.8698L164.077 25.0998L164.216 25.1629C166.3 26.1832 172.496 34.0808 172.645 36.3894L172.651 36.5327L168.572 44.7798L172.945 47.17L172.997 47.8227L172.718 48.0311L168.513 50.8692C167.743 51.393 166.709 51.3711 165.598 50.8294L154.117 45.1856C152.032 44.1653 150.201 41.445 150.042 39.1152L149.171 26.3464C149.131 25.821 149.181 25.343 149.321 24.9124ZM154.385 22.1978L150.887 24.5442C150.417 24.849 150.199 25.4658 150.263 26.299L151.134 39.0677C151.263 40.9995 152.853 43.3758 154.587 44.2279L166.068 49.8717C166.813 50.2399 167.47 50.2794 167.903 49.9801L171.432 47.591L167.363 45.3534L167.312 44.8599L171.526 36.3043C171.157 34.2409 165.693 27.2902 163.846 26.1892L155.329 26.9925L154.915 26.8033L154.849 26.4638L154.385 22.1978ZM156.259 30.423L156.802 30.0011L157.147 30.1322L162.375 32.715C163.608 33.3145 164.642 34.8546 164.725 36.2239L165.19 43.0859L163.153 41.9751C163.105 42.0124 163.058 42.0498 163 42.066C162.372 42.4777 162.087 42.6488 161.787 42.268L155.659 34.163L155.699 33.9293C155.74 33.6955 155.745 33.6796 156.379 33.252C156.442 33.2198 156.495 33.1665 156.542 33.1291L156.259 30.423ZM163.974 41.1856L163.644 36.2925C163.574 35.316 162.782 34.1199 161.899 33.6886L157.474 31.511L157.672 33.3416C157.712 33.6546 157.617 33.7294 157.005 34.1463L162.347 41.1984C162.368 41.1877 162.389 41.1769 162.416 41.1503C162.98 40.7708 163.154 40.6691 163.469 40.896L163.974 41.1856Z" fill="#150035"/>
<path d="M168.596 27.0453L157.088 21.375C155.174 20.4282 153.728 21.4009 153.881 23.5343L154.757 36.3404C154.909 38.4739 156.569 40.9614 158.483 41.9083L169.991 47.5786C171.906 48.5255 173.351 47.5527 173.199 45.4193L172.323 32.6132C172.192 30.469 170.516 27.9762 168.596 27.0453ZM168.857 40.4966C168.939 41.6535 168.153 42.1721 167.121 41.6565L160.75 38.5216C159.718 38.006 158.814 36.667 158.732 35.5101L158.249 28.4304C158.167 27.2734 158.953 26.7549 159.985 27.2704L166.356 30.4054C167.388 30.9209 168.292 32.26 168.374 33.4169L168.857 40.4966Z" fill="white"/>
<path d="M153.499 22.1022C153.676 21.5599 153.991 21.1338 154.418 20.8505C155.189 20.3267 156.222 20.3485 157.334 20.8903L168.841 26.5605C170.937 27.6021 172.725 30.2376 172.878 32.5834L173.755 45.3894C173.832 46.6154 173.462 47.5886 172.692 48.1123C171.922 48.6361 170.888 48.6143 169.776 48.0726L158.269 42.4023C156.168 41.3767 154.385 38.7252 154.232 36.3794L153.355 23.5734C153.309 23.0109 153.364 22.5169 153.499 22.1022ZM168.366 27.5342L156.858 21.8639C156.113 21.4957 155.456 21.4562 155.023 21.7555C154.591 22.0548 154.372 22.6716 154.441 23.4888L155.318 36.2948C155.452 38.2107 157.016 40.5606 158.75 41.4127L170.257 47.0829C171.002 47.4512 171.659 47.4906 172.092 47.1914C172.525 46.8921 172.743 46.2753 172.674 45.458L171.798 32.6521C171.668 30.7203 170.083 28.381 168.366 27.5342ZM157.798 27.5931C157.912 27.2422 158.106 26.9705 158.396 26.7834C158.892 26.452 159.56 26.4595 160.23 26.7856L166.601 29.9205C167.819 30.5149 168.836 32.0497 168.93 33.3871L169.412 40.4668C169.465 41.2257 169.215 41.832 168.719 42.1635C168.223 42.4949 167.555 42.4873 166.885 42.1612L160.514 39.0263C159.297 38.432 158.279 36.8971 158.185 35.5597L157.703 28.48C157.685 28.1563 157.715 27.8483 157.798 27.5931ZM168.856 40.4959L168.316 40.5302L167.833 33.4506C167.758 32.49 166.976 31.315 166.109 30.889L159.739 27.7541C159.435 27.6015 159.144 27.5763 158.991 27.6673C158.832 27.7741 158.765 28.0346 158.778 28.3743L159.261 35.4539C159.336 36.4145 160.118 37.5894 160.985 38.0155L167.355 41.1504C167.658 41.303 167.95 41.3282 168.103 41.2372C168.261 41.1303 168.329 40.8699 168.316 40.5302L168.856 40.4959Z" fill="#150035"/>
<path d="M156.255 40.0376L155.647 39.1284L151.472 41.9238L152.08 42.833L156.255 40.0376Z" fill="#150035"/>
<path d="M168.052 32.1344L167.444 31.2252L163.269 34.0206L163.877 34.9298L168.052 32.1344Z" fill="#150035"/>
<path d="M154.322 25.2651L153.714 24.3559L149.539 27.1513L150.147 28.0605L154.322 25.2651Z" fill="#150035"/>
<path d="M168.334 46.8927L167.727 45.9835L163.551 48.7789L164.159 49.6881L168.334 46.8927Z" fill="#150035"/>
<path d="M167.375 134.52V134.522V134.53V134.539V134.548V134.556V134.565V134.574V134.583V134.592V134.6V134.609V134.618V134.627V134.636V134.645V134.654V134.663V134.673V134.682V134.691V134.7V134.709V134.719V134.728V134.737V134.747V134.756V134.766V134.775V134.785V134.794V134.804V134.813V134.823V134.833V134.842V134.852V134.862V134.871V134.881V134.891V134.901V134.911V134.921V134.93V134.94V134.95V134.96V134.97V134.98V134.99V135V135.011V135.021V135.031V135.041V135.051V135.061V135.071V135.082V135.092V135.102V135.112V135.123V135.133V135.143V135.154V135.164V135.175V135.185V135.195V135.206V135.216V135.227V135.237V135.248V135.258V135.269V135.279V135.29V135.3V135.311V135.322V135.332V135.343V135.354V135.364V135.375V135.386V135.396V135.407V135.418V135.428V135.439V135.45V135.46V135.471V135.482V135.493V135.504V135.514V135.525V135.536V135.547V135.558V135.568V135.579V135.59V135.601V135.612V135.622V135.633V135.644V135.655V135.666V135.677V135.688V135.698V135.709V135.72V135.731V135.742V135.753V135.764V135.775V135.785V135.796V135.807V135.818V135.829V135.84V135.851V135.862V135.872V135.883V135.894V135.905V135.916V135.927V135.938V135.948V135.959V135.97V135.981V135.992V136.003V136.013V136.024V136.035V136.046V136.056V136.067V136.078V136.089V136.1V136.11V136.121V136.132V136.142V136.153V136.164V136.175V136.185V136.196V136.206V136.217V136.228V136.238V136.249V136.26V136.27V136.281V136.291V136.302V136.312V136.323V136.333V136.344V136.354V136.365V136.375V136.385V136.396V136.406V136.417V136.427V136.437V136.448V136.458V136.468V136.478V136.489V136.499V136.509V136.519V136.529V136.539V136.55V136.56V136.57V136.58V136.59V136.6V136.61V136.62V136.63V136.639V136.649V136.659V136.669V136.679V136.689V136.698V136.708V136.718V136.727V136.737V136.747V136.756V136.766V136.775V136.785V136.794V136.804V136.813V136.823V136.832V136.841V136.851V136.86V136.869V136.878V136.887V136.897V136.906V136.915V136.924V136.933V136.942V136.951V136.96V136.969V136.977V136.986V136.995V137.004V137.012V137.021V137.03V137.038V137.047V137.055V137.064V137.072V137.081V137.089V137.097V137.106V137.114V137.122V137.13V137.138V137.146V137.154V137.162V137.17V137.178V137.186V137.194V137.202V137.21V137.217V137.225V137.233V137.24V137.248V137.255V137.263V137.27V137.277V137.285V137.292V137.299V137.306V137.313V137.321V137.328V137.335V137.341V137.348V137.355V137.362V137.369V137.375V137.382V137.389V137.395V137.402V137.408V137.414V137.421V137.427V137.433V137.439V137.445V137.452V137.458V137.463V137.469V137.475V137.481V137.487V137.492V137.498V137.504V137.509V137.515V137.52V137.525V137.531V137.536V137.541V137.546V137.551V137.556V137.561V137.566V137.571V137.575V137.58V137.585V137.589V137.594V137.598V137.603V137.607V137.611V137.615V137.62V137.624V137.628V137.632V137.635V137.639V137.643V137.647V137.65V137.654V137.657V137.661V137.664V137.667V137.671V137.674V137.677V137.68V137.683V137.686V137.688V137.691V137.694V137.696V137.699V137.701V137.704V137.706V137.708V137.711V137.713V137.715V137.717V137.719V137.72V137.722V137.724V137.725V137.727V137.728V137.73V137.731V137.732V137.733V137.734V137.735V137.736V137.737V137.738V137.738V137.739V137.74V137.74V137.74V137.741V137.741V137.741L167.983 137.741H167.375C167.375 137.803 167.349 137.887 167.268 138.058L159.884 142.23L159.877 142.234L159.871 142.238C159.434 142.499 158.918 142.499 158.482 142.238L158.482 142.238L158.472 142.233L151.049 137.967L151.034 137.958L151.018 137.95C151.004 137.943 150.997 137.935 150.991 137.925C150.983 137.912 150.977 137.892 150.977 137.866H150.369L150.977 137.866V137.866V137.866V137.866V137.866V137.865V137.865V137.864V137.863V137.863V137.862V137.861V137.86V137.859V137.858V137.857V137.856V137.854V137.853V137.851V137.85V137.848V137.847V137.845V137.843V137.841V137.839V137.837V137.835V137.833V137.831V137.828V137.826V137.824V137.821V137.818V137.816V137.813V137.81V137.808V137.805V137.802V137.799V137.795V137.792V137.789V137.786V137.782V137.779V137.776V137.772V137.768V137.765V137.761V137.757V137.753V137.749V137.745V137.741V137.737V137.733V137.729V137.725V137.72V137.716V137.711V137.707V137.702V137.698V137.693V137.688V137.683V137.678V137.674V137.669V137.664V137.658V137.653V137.648V137.643V137.637V137.632V137.627V137.621V137.616V137.61V137.604V137.599V137.593V137.587V137.581V137.575V137.57V137.564V137.557V137.551V137.545V137.539V137.533V137.527V137.52V137.514V137.507V137.501V137.494V137.488V137.481V137.474V137.468V137.461V137.454V137.447V137.44V137.433V137.426V137.419V137.412V137.405V137.398V137.391V137.383V137.376V137.369V137.361V137.354V137.346V137.339V137.331V137.324V137.316V137.308V137.301V137.293V137.285V137.277V137.269V137.261V137.254V137.246V137.237V137.229V137.221V137.213V137.205V137.197V137.189V137.18V137.172V137.164V137.155V137.147V137.138V137.13V137.121V137.113V137.104V137.095V137.087V137.078V137.069V137.061V137.052V137.043V137.034V137.025V137.016V137.007V136.998V136.989V136.98V136.971V136.962V136.953V136.944V136.935V136.926V136.916V136.907V136.898V136.888V136.879V136.87V136.86V136.851V136.842V136.832V136.823V136.813V136.804V136.794V136.784V136.775V136.765V136.756V136.746V136.736V136.726V136.717V136.707V136.697V136.687V136.678V136.668V136.658V136.648V136.638V136.628V136.618V136.608V136.598V136.588V136.578V136.568V136.558V136.548V136.538V136.528V136.518V136.508V136.498V136.488V136.478V136.467V136.457V136.447V136.437V136.427V136.416V136.406V136.396V136.386V136.375V136.365V136.355V136.344V136.334V136.324V136.313V136.303V136.293V136.282V136.272V136.261V136.251V136.241V136.23V136.22V136.209V136.199V136.189V136.178V136.168V136.157V136.147V136.136V136.126V136.115V136.105V136.094V136.084V136.073V136.063V136.052V136.042V136.031V136.021V136.01V136V135.989V135.979V135.968V135.958V135.947V135.937V135.926V135.916V135.905V135.895V135.884V135.874V135.863V135.853V135.842V135.832V135.821V135.811V135.8V135.79V135.779V135.769V135.759V135.748V135.738V135.727V135.717V135.706V135.696V135.686V135.675V135.665V135.654V135.644V135.634V135.623V135.613V135.603V135.592V135.582V135.572V135.561V135.551V135.541V135.53V135.52V135.51V135.5V135.49V135.479V135.469V135.459V135.449V135.439V135.429V135.418V135.408V135.398V135.388V135.378V135.368V135.358V135.348V135.338V135.328V135.318V135.308V135.298V135.288V135.279V135.269V135.259V135.249V135.239V135.229V135.22V135.21V135.2V135.191V135.181V135.171V135.162V135.152V135.142V135.133V135.123V135.114V135.104V135.095V135.085V135.076V135.067V135.057V135.048V135.039V135.029V135.02V135.011V135.002V134.992V134.983V134.974V134.965V134.956V134.947V134.938V134.929V134.92V134.911V134.902V134.893V134.885V134.876V134.867V134.858V134.85V134.841V134.832V134.824V134.815V134.807V134.798V134.79V134.781V134.773V134.764V134.756V134.748V134.74V134.738L151.719 134.94L151.961 135.006L152.179 134.882L158.838 131.104L159.458 134.707L159.553 135.263L160.114 135.209L167.375 134.52Z" fill="#FFC856" stroke="#0F0F0F" stroke-width="1.21515"/>
<path d="M166.998 134.404V134.401V134.395V134.389V134.383V134.377V134.371V134.365V134.359V134.354H167.606L166.998 134.404ZM166.998 134.404L160.057 134.981L159.805 134.855M166.998 134.404L167.576 133.993L160.485 134.583L159.935 134.628L159.931 134.603L159.805 134.855M159.805 134.855L159.931 134.603L159.554 134.73L159.805 134.855ZM159.236 130.79L158.925 130.841L158.747 130.534L159.236 130.79ZM159.236 130.79L158.325 130.938L159.236 130.79ZM151.48 134.778V134.604H150.873L150.801 134.855L151.48 134.778ZM151.48 134.778L151.753 134.855H152.005L151.48 134.778ZM150.873 137.866C150.578 137.866 150.426 137.867 150.348 137.867C150.348 137.867 150.348 137.867 150.348 137.866L150.873 137.866ZM168.213 133.852V133.852H168.486L168.213 133.852Z" fill="#FEFDFF" stroke="#0F0F0F" stroke-width="1.21515"/>
<path d="M160.513 135.172L167.378 134.52C167.382 134.924 167.39 135.453 167.407 135.974C167.423 136.448 167.447 136.927 167.484 137.3C167.503 137.485 167.526 137.661 167.558 137.805C167.567 137.848 167.579 137.896 167.595 137.945C167.592 137.947 167.589 137.949 167.586 137.951L167.572 137.958L167.558 137.965L160.061 142.202C159.961 142.235 159.87 142.265 159.783 142.291V137.46L160.513 135.172Z" fill="#FEFDFF" stroke="#0F0F0F" stroke-width="1.21515"/>
<path d="M168.361 133.852L168.088 133.852V133.852H168.361Z" fill="#FEFDFF" stroke="#0F0F0F" stroke-width="1.21515"/>
<path d="M150.894 137.866H150.369L150.894 137.866V137.866Z" fill="#FEFDFF" stroke="#0F0F0F" stroke-width="1.21515"/>
<path d="M150.621 133.475H150.621C150.615 133.475 150.608 133.475 150.601 133.475L150.617 133.491L150.621 133.475ZM150.621 133.475V133.495V133.475ZM150.265 133.516C150.209 133.534 150.157 133.561 150.118 133.601L150.265 133.516ZM150.265 133.516V133.748V133.851V133.516ZM150.495 138.87L150.691 138.534C150.656 138.518 150.622 138.5 150.589 138.478C150.465 138.395 150.389 138.289 150.345 138.201C150.302 138.116 150.284 138.038 150.275 137.986C150.271 137.959 150.268 137.935 150.267 137.915C150.266 137.905 150.266 137.896 150.266 137.888L150.265 137.876L150.265 137.871L150.265 137.869L150.265 137.867L150.265 137.867C150.265 137.867 150.265 137.866 150.391 137.866V137.866L150.265 137.866V137.866V137.865V137.865V137.864V137.863V137.862V137.861V137.86V137.859V137.858V137.857V137.856V137.855V137.854V137.852V137.851V137.85V137.848V137.847V137.846V137.844V137.843V137.841V137.84V137.838V137.836V137.835V137.833V137.831V137.83V137.828V137.826V137.824V137.822V137.82V137.818V137.816V137.814V137.812V137.81V137.808V137.806V137.804V137.801V137.799V137.797V137.795V137.792V137.79V137.787V137.785V137.782V137.78V137.777V137.775V137.772V137.769V137.767V137.764V137.761V137.759V137.756V137.753V137.75V137.747V137.744V137.741V137.738V137.735V137.732V137.729V137.726V137.723V137.72V137.716V137.713V137.71V137.707V137.703V137.7V137.697V137.693V137.69V137.686V137.683V137.679V137.676V137.672V137.668V137.665V137.661V137.657V137.654V137.65V137.646V137.642V137.639V137.635V137.631V137.627V137.623V137.619V137.615V137.611V137.607V137.603V137.599V137.594V137.59V137.586V137.582V137.578V137.573V137.569V137.565V137.56V137.556V137.552V137.547V137.543V137.538V137.534V137.529V137.525V137.52V137.516V137.511V137.506V137.502V137.497V137.492V137.487V137.483V137.478V137.473V137.468V137.463V137.458V137.454V137.449V137.444V137.439V137.434V137.429V137.424V137.418V137.413V137.408V137.403V137.398V137.393V137.388V137.382V137.377V137.372V137.366V137.361V137.356V137.35V137.345V137.34V137.334V137.329V137.323V137.318V137.312V137.307V137.301V137.296V137.29V137.284V137.279V137.273V137.268V137.262V137.256V137.25V137.245V137.239V137.233V137.227V137.221V137.216V137.21V137.204V137.198V137.192V137.186V137.18V137.174V137.168V137.162V137.156V137.15V137.144V137.138V137.132V137.126V137.12V137.113V137.107V137.101V137.095V137.089V137.082V137.076V137.07V137.063V137.057V137.051V137.045V137.038V137.032V137.025V137.019V137.013V137.006V137V136.993V136.987V136.98V136.974V136.967V136.961V136.954V136.948V136.941V136.934V136.928V136.921V136.914V136.908V136.901V136.894V136.888V136.881V136.874V136.868V136.861V136.854V136.847V136.84V136.834V136.827V136.82V136.813V136.806V136.799V136.793V136.786V136.779V136.772V136.765V136.758V136.751V136.744V136.737V136.73V136.723V136.716V136.709V136.702V136.695V136.688V136.681V136.674V136.667V136.66V136.652V136.645V136.638V136.631V136.624V136.617V136.61V136.602V136.595V136.588V136.581V136.574V136.566V136.559V136.552V136.545V136.537V136.53V136.523V136.516V136.508V136.501V136.494V136.486V136.479V136.472V136.464V136.457V136.45V136.442V136.435V136.427V136.42V136.413V136.405V136.398V136.39V136.383V136.376V136.368V136.361V136.353V136.346V136.338V136.331V136.323V136.316V136.308V136.301V136.294V136.286V136.279V136.271V136.263V136.256V136.248V136.241V136.233V136.226V136.218V136.211V136.203V136.196V136.188V136.181V136.173V136.165V136.158V136.15V136.143V136.135V136.127V136.12V136.112V136.105V136.097V136.089V136.082V136.074V136.067V136.059V136.051V136.044V136.036V136.029V136.021V136.013V136.006V135.998V135.99V135.983V135.975V135.968V135.96V135.952V135.945V135.937V135.929V135.922V135.914V135.906V135.899V135.891V135.884V135.876V135.868V135.861V135.853V135.845V135.838V135.83V135.822V135.815V135.807V135.8V135.792V135.784V135.777V135.769V135.761V135.754V135.746V135.739V135.731V135.723V135.716V135.708V135.701V135.693V135.685V135.678V135.67V135.663V135.655V135.647V135.64V135.632V135.625V135.617V135.61V135.602V135.594V135.587V135.579V135.572V135.564V135.557V135.549V135.542V135.534V135.527V135.519V135.511V135.504V135.496V135.489V135.481V135.474V135.467V135.459V135.452V135.444V135.437V135.429V135.422V135.414V135.407V135.399V135.392V135.385V135.377V135.37V135.362V135.355V135.348V135.34V135.333V135.326V135.318V135.311V135.304V135.296V135.289V135.282V135.274V135.267V135.26V135.252V135.245V135.238V135.231V135.223V135.216V135.209V135.202V135.195V135.187V135.18V135.173V135.166V135.159V135.152V135.144V135.137V135.13V135.123V135.116V135.109V135.102V135.095V135.088V135.081V135.074V135.067V135.06V135.053V135.046V135.039V135.032V135.025V135.018V135.011V135.004V134.997V134.99V134.983V134.976V134.97V134.963V134.956V134.949V134.942V134.936V134.929V134.922V134.915V134.909V134.902V134.895V134.888V134.882V134.875V134.868V134.862V134.855V134.604V134.252L150.495 138.87ZM150.495 138.87L150.712 138.543C150.806 138.582 150.904 138.599 150.999 138.599H151.238M150.495 138.87L151.397 139.395V138.692M151.238 138.599L151.397 138.692M151.238 138.599H151.397V138.692M151.238 138.599L152.005 139.045M151.397 138.692L152.005 139.045M152.005 139.045V135.106V139.045ZM151.605 134.476L151.48 134.351L151.633 134.395C151.622 134.423 151.613 134.45 151.605 134.476ZM150.873 137.866C150.691 137.866 150.563 137.866 150.474 137.866C150.474 137.866 150.474 137.866 150.474 137.866L150.873 137.866ZM150.748 134.73H150.474V134.604V134.104L150.49 134.087C150.503 134.086 150.518 134.085 150.535 134.084C150.536 134.084 150.538 134.084 150.54 134.084L150.748 134.73ZM150.817 138.354C150.656 138.246 150.579 138.174 150.536 138.113C150.516 138.085 150.497 138.049 150.485 137.992H150.999L150.817 138.354Z" fill="#FEFDFF" stroke="#0F0F0F" stroke-width="1.21515"/>
<path d="M158.533 138.383L158.504 138.361L158.472 138.342L151.049 134.077L151.034 134.068L151.018 134.06C151.006 134.054 150.977 134.038 150.977 133.961C150.977 133.887 151.01 133.797 151.088 133.729L158.594 129.487L158.601 129.483L158.607 129.479C159.044 129.218 159.559 129.218 159.996 129.479L159.996 129.479L160.006 129.485L167.429 133.75L167.444 133.759L167.46 133.767C167.472 133.773 167.501 133.79 167.501 133.866C167.501 133.94 167.468 134.03 167.39 134.098L159.898 138.332C159.273 138.639 158.788 138.573 158.533 138.383Z" fill="white" stroke="#0F0F0F" stroke-width="1.21515"/>
<path d="M150.747 133.977C150.571 133.977 150.446 133.977 150.358 133.977C150.358 133.977 150.358 133.977 150.358 133.977L150.747 133.977ZM150.747 133.977C150.571 133.977 150.446 133.977 150.358 133.977C150.358 133.977 150.358 133.977 150.358 133.977L150.747 133.977ZM167.73 133.977C167.784 133.977 167.83 133.977 167.869 133.977C167.869 133.977 167.869 133.977 167.869 133.977C167.83 133.977 167.784 133.977 167.73 133.977Z" fill="#FEFDFF" stroke="#0F0F0F" stroke-width="1.21515"/>
<path d="M132.57 67.6352L132.584 67.69L132.61 67.7395L134.092 70.4679L132.539 73.585L132.493 73.6778C131.813 74.9108 130.439 75.8601 128.344 76.293C126.244 76.727 123.456 76.632 120.038 75.7975C115.172 74.6092 110.69 72.1255 107.338 68.4842C103.955 64.8086 103.108 61.7365 104.033 59.6186L104.078 59.5276L105.711 56.2515L107.776 56.2824L107.855 56.2836L107.929 56.2569C108.944 55.8918 110.01 55.829 111.314 55.9764C112.626 56.1249 114.149 56.482 116.077 56.9388C119.851 57.8327 123.457 59.6274 126.612 62.0656C127.534 62.8103 128.343 63.3955 129.044 63.8903C129.2 64.0002 129.349 64.1051 129.493 64.2059C130.002 64.5631 130.438 64.8692 130.818 65.1664C131.771 65.9111 132.306 66.549 132.57 67.6352Z" fill="#F9FFFF" stroke="#0E0D0D" stroke-width="0.865473"/>
<path d="M107.47 55.5024L107.541 55.5036L107.608 55.4823C109.845 54.7752 112.19 55.3136 115.721 56.1244C115.864 56.1573 116.008 56.1905 116.155 56.2242C120.052 57.1761 123.924 58.9845 127.017 61.5123L127.025 61.5183L127.032 61.5239C127.287 61.7146 127.537 61.9031 127.78 62.0864C128.486 62.6187 129.133 63.1068 129.682 63.4756C131.654 64.8374 132.75 65.6248 133.27 67.3739L133.282 67.4161L133.303 67.455L134.848 70.34L133.046 73.955C132.219 75.4834 130.609 76.5024 128.323 76.9365C126.031 77.3716 123.101 77.2078 119.735 76.3998L119.735 76.3998L119.731 76.3988C117.903 75.9802 115.949 75.2538 114.2 74.3823C111.362 72.9683 108.878 71.1135 106.697 68.9139C103.209 65.1865 102.131 61.7504 103.255 59.2323L103.301 59.1399L105.133 55.4621L107.47 55.5024ZM105.89 56.1159L105.636 56.1277L105.522 56.3551L103.969 59.4727L103.964 59.4825L103.96 59.4924C102.856 62.0168 104.133 65.2678 107.224 68.5771C110.422 72.0926 115.06 74.6532 119.904 75.9218L119.904 75.9218L119.909 75.9231C122.964 76.6834 125.67 76.8814 127.824 76.5227C129.977 76.1642 131.634 75.2371 132.478 73.699L132.482 73.6915L132.486 73.6839L132.586 73.4827L134.09 70.4657L134.188 70.2681L134.086 70.0724L132.69 67.3988C132.267 65.87 131.335 65.2278 129.582 64.0192C129.506 63.9666 129.428 63.9129 129.348 63.858L129.348 63.858L129.344 63.8548C128.908 63.5626 128.417 63.1985 127.845 62.7742C127.472 62.498 127.065 62.1962 126.617 61.8722C123.477 59.4161 119.823 57.7245 116.095 56.7569L116.095 56.7569L116.089 56.7554C114.118 56.274 112.569 55.9163 111.274 55.7701C110.007 55.6269 108.953 55.6825 107.957 56.037L107.769 56.03L107.751 56.0294L107.733 56.0302L105.89 56.1159Z" fill="#F9FFFF" stroke="#0E0D0D" stroke-width="0.865473"/>
<path d="M127.639 73.0987L127.639 73.0987L127.633 73.0988C124.14 73.1948 120.118 72.1217 116.431 70.2847C112.746 68.4482 109.438 65.8687 107.356 62.9931C105.323 60.1371 104.978 57.6485 105.847 55.9052C106.714 54.164 108.894 52.9648 112.371 52.9175C115.898 52.8979 119.938 54.0109 123.625 55.8483C127.312 57.6857 130.604 60.2267 132.656 63.024C134.689 65.8796 135.033 68.3679 134.164 70.1109C133.297 71.8524 131.117 73.0517 127.639 73.0987Z" fill="white" stroke="#0E0D0D" stroke-width="0.865473"/>
<path d="M112.444 52.7212L112.446 52.7212C116.007 52.6952 120.088 53.8406 123.682 55.6317C127.395 57.4822 130.6 60.0964 132.657 62.7901L132.662 62.7962L132.666 62.8024C134.486 65.3682 135.19 67.9794 134.179 70.0085C133.171 72.0309 130.782 73.1029 127.511 73.14C123.976 73.2451 119.937 72.1514 116.287 70.3326C112.636 68.5132 109.329 65.9455 107.285 63.0589L112.444 52.7212ZM112.444 52.7212C109.171 52.7575 106.781 53.8295 105.772 55.8527M112.444 52.7212L105.772 55.8527M105.772 55.8527C104.761 57.8817 105.466 60.4929 107.285 63.0586L105.772 55.8527ZM112.286 52.2492L112.286 52.2493L112.295 52.2491C115.925 52.1579 120.099 53.2752 123.91 55.1744C127.721 57.0734 131.126 59.7331 133.238 62.685C135.395 65.7338 135.905 68.4959 134.908 70.4973C133.859 72.6014 131.344 73.8534 127.675 73.8685L127.675 73.8684L127.669 73.8686C124.118 73.9376 119.903 72.8308 116.064 70.9182C112.227 69.0059 108.806 66.3073 106.723 63.4317C104.567 60.3833 104.057 57.6216 105.054 55.6204C106.103 53.5163 108.618 52.2643 112.286 52.2492Z" fill="#F9FFFF" stroke="#0E0D0D" stroke-width="0.865473"/>
<path d="M125.616 69.44L125.616 69.4399L125.607 69.4396C123.236 69.3521 120.464 68.5285 117.894 67.2478C115.324 65.9672 112.997 64.2496 111.5 62.4098C109.984 60.5464 109.714 59.0588 110.184 58.1144C110.655 57.17 112.006 56.4899 114.406 56.5785C116.776 56.6659 119.549 57.4895 122.119 58.7702C124.689 60.0508 127.016 61.7684 128.513 63.6082C130.025 65.467 130.288 66.9811 129.81 67.9413C129.333 68.8974 127.983 69.5773 125.616 69.44Z" fill="#F9FFFF" stroke="#0E0D0D" stroke-width="0.865473"/>
<path d="M114.314 55.9088L114.314 55.909L114.327 55.9093C116.775 55.9748 119.669 56.8277 122.35 58.1637C125.031 59.4997 127.455 61.2969 128.981 63.212L128.981 63.212L128.984 63.2154C130.657 65.2721 130.947 67.0462 130.357 68.2299C129.719 69.5097 128.023 70.295 125.535 70.1535L125.522 70.1527L125.509 70.1528C123.107 70.1627 120.314 69.2699 117.567 67.901C114.837 66.5406 112.476 64.7457 110.863 62.8435C109.192 60.7883 108.903 59.0155 109.492 57.8324C110.13 56.5526 111.826 55.7673 114.314 55.9088ZM122.178 58.6487C119.708 57.4178 116.894 56.5209 114.47 56.4823C112.41 56.3562 110.781 56.9189 110.16 58.1652C109.844 58.8008 109.863 59.5514 110.095 60.3025C110.328 61.0559 110.785 61.8497 111.411 62.6186C112.922 64.4751 115.261 66.1811 117.795 67.4437C120.327 68.7053 123.095 69.5457 125.486 69.635C127.548 69.7623 129.178 69.1997 129.8 67.9523C130.117 67.3168 130.098 66.5662 129.866 65.8151C129.633 65.0629 129.176 64.2704 128.552 63.5026C127.063 61.5899 124.762 59.9365 122.178 58.6487Z" fill="#F9FFFF" stroke="#0E0D0D" stroke-width="0.865473"/>
<path d="M127.51 65.6187L127.51 65.6188L127.519 65.6284C128.53 66.7997 128.972 67.8699 129.029 68.8087C128.277 69.2555 127.145 69.5515 125.551 69.539C123.182 69.4504 120.412 68.6271 117.844 67.3476C115.276 66.068 112.951 64.3523 111.454 62.5143C110.49 61.256 110.044 60.1789 109.945 59.3121C110.696 58.8695 111.825 58.5768 113.41 58.5892C115.779 58.6778 118.549 59.5011 121.117 60.7807C123.687 62.0613 126.013 63.7789 127.51 65.6187Z" fill="#FFD45D" stroke="#0E0D0D" stroke-width="0.865473"/>
<path d="M113.421 57.7186L113.421 57.7186L113.425 57.7187C115.873 57.7842 118.767 58.6371 121.448 59.9731C124.129 61.3091 126.553 63.1063 128.079 65.0214L128.079 65.0214L128.082 65.0248C129.23 66.4362 129.731 67.7413 129.788 68.9009L129.77 69.0662L129.635 69.1937C128.809 69.872 127.383 70.2207 125.527 70.1522L125.518 70.1519L125.509 70.152C123.107 70.1618 120.314 69.2691 117.567 67.9002C114.837 66.5398 112.476 64.7449 110.863 62.8427C109.716 61.4326 109.216 60.1286 109.16 58.9699L109.178 58.8046L109.313 58.6771C110.138 57.9988 111.565 57.6502 113.421 57.7186ZM110.155 59.1592L109.903 59.3123L109.953 59.603C110.112 60.5181 110.629 61.5716 111.4 62.6038L111.406 62.6109L111.411 62.6178C112.922 64.4742 115.262 66.1803 117.795 67.4429C120.329 68.7054 123.1 69.5462 125.491 69.6344C126.884 69.6857 128.076 69.4714 128.825 68.9544L129.052 68.797L129.005 68.5242C128.846 67.6091 128.33 66.5557 127.558 65.5235L127.553 65.5164L127.547 65.5095C126.036 63.653 123.697 61.947 121.163 60.6844C118.633 59.4234 115.866 58.5832 113.476 58.4932C112.214 58.3944 111.044 58.6192 110.155 59.1592Z" fill="#F9FFFF" stroke="#0E0D0D" stroke-width="0.865473"/>
<path d="M123.508 76.1337L124.575 73.9918L124.91 74.1588L123.843 76.3007L123.508 76.1337Z" fill="#FFD45D" stroke="#0E0D0D" stroke-width="0.865473"/>
<path d="M104.068 63.4336L105.136 61.2917L105.471 61.4587L104.403 63.6006L104.068 63.4336Z" fill="#FFD45D" stroke="#0E0D0D" stroke-width="0.865473"/>
<path d="M122.801 60.591L123.317 59.5554L123.652 59.7223L123.136 60.758L122.801 60.591Z" fill="#FFD45D" stroke="#0E0D0D" stroke-width="0.865473"/>
<path d="M116.548 60.6685L116.324 60.3576L115.988 60.543L114.36 61.4424L112.772 59.8696L113.313 58.7844L117.529 58.8475L126.256 68.4001L125.699 69.5177L124.86 69.5623C124.158 69.4425 123.461 69.323 122.679 69.1605L116.548 60.6685Z" fill="#F9FFFF" stroke="#0E0D0D" stroke-width="0.865473"/>
<path d="M116.36 61.3289L116.135 61.0172L115.799 61.2029L114.175 62.1002L111.955 59.8444L112.799 58.1503L117.721 58.1912L126.901 68.2204L126.05 69.9264L124.805 69.9224C124.035 69.8931 123.199 69.717 122.316 69.5297L122.251 69.516L116.36 61.3289ZM122.489 69.2574L122.592 69.3997L122.766 69.4293C123.076 69.4821 123.357 69.5424 123.636 69.6021C123.692 69.614 123.748 69.6259 123.803 69.6377C124.134 69.7078 124.466 69.7744 124.815 69.8145L124.847 69.8183L124.88 69.8171L125.585 69.7919L125.842 69.7827L125.957 69.5524L126.458 68.5468L126.59 68.2814L126.391 68.0622L117.792 58.6301L117.663 58.4886L117.472 58.4889L113.452 58.4943L113.184 58.4946L113.065 58.734L112.614 59.6391L112.471 59.9267L112.705 60.147L114.119 61.4794L114.345 61.6929L114.62 61.546L116.212 60.6934L116.345 60.818L122.489 69.2574Z" fill="#F9FFFF" stroke="#0E0D0D" stroke-width="0.865473"/>
<path d="M117.35 59.0607L117.119 58.7395L116.779 58.9404L115.104 59.9276L113.706 58.5427L115.821 57.3401L118.145 57.2916L125.821 67.8491L123.68 67.8728L117.35 59.0607Z" fill="white" stroke="#0E0D0D" stroke-width="0.865473"/>
<path d="M118.445 56.6858L126.945 68.4184L123.485 68.5269L117.109 59.8166L116.884 59.5093L116.55 59.6935L114.928 60.5898L112.713 58.3106L115.575 56.7176L118.445 56.6858ZM123.522 68.0136L123.659 68.2029L123.893 68.192L125.736 68.1064L126.533 68.0694L126.067 67.4217L118.625 57.0592L118.494 56.8769L118.27 56.8789L116.043 56.8992L115.938 56.9002L115.844 56.9498L113.772 58.0512L113.239 58.3344L113.678 58.7483L114.809 59.8141L115.036 60.0276L115.31 59.8807L116.88 59.0405L116.988 59.0589L117.145 59.2077L123.522 68.0136Z" fill="#F9FFFF" stroke="#0E0D0D" stroke-width="0.865473"/>
</svg>
