<svg width="360" height="304" viewBox="0 0 360 304" fill="none" xmlns="http://www.w3.org/2000/svg">
<rect width="360" height="304" fill="#007550"/>
<g style="mix-blend-mode:screen" opacity="0.1">
<path d="M0 0H360V66.5L145.386 239.522L0 0L94 43L0 59.5V239.522L360 304H0L360 246L323 0H0Z" fill="#007550"/>
</g>
<path d="M152.155 118.275L141.838 118.34L141.996 114.025C142.039 112.861 139.711 112.369 138.053 113.184L129.811 117.269C129.155 117.599 128.297 117.736 127.529 117.641L121.698 116.96C121.77 115.875 121.819 114.965 121.829 114.819C121.829 114.437 118.891 112.64 118.579 112.453C118.304 112.287 115.31 111.753 114.78 111.646C114.732 111.635 114.696 111.682 114.702 111.712L114.603 118.008L114.611 118.018C114.589 118.194 114.616 118.361 114.711 118.541L117.286 122.745C115.579 123.254 111.483 124.504 110.998 124.654C110.968 124.663 110.954 124.692 110.949 124.731L110.855 131.057C110.837 131.801 111.846 132.404 113.334 132.288L123.547 131.426C124.367 131.356 125.136 131.52 125.596 131.859L131.414 136.125C132.587 136.989 135.194 136.55 135.819 135.396L138.941 129.644C139.188 129.192 139.803 128.792 140.59 128.594L150.36 126.129C151.463 125.854 152.054 125.266 152.108 124.7L152.226 118.336C152.22 118.306 152.195 118.276 152.155 118.275Z" fill="#FFC856"/>
<path d="M151.884 125.879C151.551 126.161 151.074 126.41 150.43 126.573L140.66 129.039C140.035 129.203 139.511 129.508 139.33 129.835L136.208 135.586C135.896 136.164 135.222 136.63 134.332 136.864C133.122 137.195 131.867 137.044 131.126 136.509L125.308 132.242C124.919 131.964 124.254 131.833 123.555 131.888L113.342 132.75C112.303 132.832 111.404 132.605 110.866 132.106C110.556 131.831 110.405 131.473 110.414 131.101L110.514 124.423L110.922 124.251C111.364 124.119 114.688 123.107 116.602 122.526L114.338 118.823C114.249 118.673 114.199 118.525 114.182 118.348L114.167 118.083L114.275 111.571L114.48 111.363C114.614 111.25 114.776 111.216 114.931 111.241C118.525 111.874 118.789 112.05 118.871 112.102L118.982 112.165C122.311 114.219 122.301 114.523 122.303 114.817C122.296 114.944 122.261 115.668 122.2 116.586L127.643 117.215C128.324 117.297 129.081 117.176 129.653 116.883L137.887 112.787C139.081 112.191 140.725 112.17 141.696 112.752C142.201 113.053 142.479 113.494 142.464 113.993L142.312 117.887L152.202 117.837C152.469 117.836 152.679 118.039 152.675 118.304L152.556 124.668C152.525 125.059 152.329 125.502 151.884 125.879ZM139.019 128.884C139.397 128.564 139.894 128.317 140.496 128.171L150.266 125.706C151.165 125.482 151.609 125.037 151.63 124.724L151.748 118.742L141.352 118.805L141.535 114.069C141.545 113.834 141.332 113.651 141.157 113.556C140.514 113.181 139.24 113.098 138.215 113.602L129.973 117.687C129.234 118.054 128.283 118.217 127.417 118.118L121.194 117.404L121.225 117.013C121.288 116.075 121.342 115.283 121.35 114.999C121.23 114.858 120.681 114.369 118.414 112.958L118.295 112.885C118.108 112.801 116.829 112.531 115.138 112.228L115.048 117.77L115.077 117.781L115.058 118.074C115.054 118.182 115.063 118.261 115.104 118.331L117.978 123.044L117.371 123.229C115.859 123.677 112.493 124.707 111.382 125.041L111.299 131.063C111.295 131.239 111.407 131.371 111.495 131.452C111.768 131.706 112.398 131.954 113.327 131.878L123.541 131.015C124.47 130.939 125.335 131.126 125.885 131.527L131.704 135.794C132.237 136.175 133.242 136.278 134.163 136.035C134.768 135.87 135.23 135.582 135.411 135.255L138.533 129.504C138.654 129.263 138.808 129.063 139.019 128.884Z" fill="#150035"/>
<path d="M118.015 110.173L127.655 111.29C128.424 111.385 129.273 111.238 129.938 110.918L138.18 106.832C139.838 106.017 142.166 106.509 142.123 107.673L141.902 113.466C141.891 113.926 142.273 114.331 142.936 114.55L151.224 117.247C152.892 117.794 152.46 119.288 150.497 119.789L140.726 122.254C139.939 122.452 139.335 122.843 139.077 123.304L135.954 129.056C135.329 130.211 132.722 130.65 131.549 129.786L125.73 125.519C125.27 125.18 124.501 125.016 123.681 125.086L113.467 125.949C111.418 126.123 110.235 124.887 111.485 123.862L117.666 118.764C118.163 118.36 118.297 117.865 118.055 117.445L114.862 112.22C114.192 111.139 116.078 109.94 118.015 110.173Z" fill="white"/>
<path d="M152.03 119.479C151.663 119.79 151.155 120.047 150.542 120.202L140.771 122.668C140.138 122.822 139.622 123.137 139.441 123.464L136.319 129.216C136.006 129.793 135.333 130.26 134.442 130.494C133.233 130.824 131.977 130.673 131.237 130.138L125.418 125.871C125.029 125.593 124.355 125.453 123.665 125.517L113.45 126.38C112.022 126.497 110.86 126.006 110.565 125.163C110.371 124.598 110.63 123.98 111.185 123.509L117.366 118.411C117.588 118.223 117.79 117.965 117.629 117.686L114.435 112.461C114.159 112 114.188 111.472 114.528 110.994C115.137 110.114 116.68 109.569 118.102 109.736L127.742 110.852C128.423 110.934 129.18 110.813 129.752 110.52L137.995 106.434C139.19 105.838 140.833 105.816 141.805 106.399C142.31 106.7 142.588 107.141 142.572 107.64L142.351 113.433C142.346 113.697 142.639 113.953 143.102 114.115L151.389 116.812C152.29 117.107 152.776 117.702 152.684 118.404C152.644 118.785 152.408 119.159 152.03 119.479ZM139.15 122.514C139.528 122.194 140.045 121.947 140.638 121.791L150.409 119.325C151.308 119.102 151.752 118.656 151.781 118.354C151.817 118.081 151.535 117.816 151.024 117.642L142.737 114.946C141.893 114.671 141.402 114.116 141.438 113.46L141.66 107.667C141.67 107.433 141.466 107.259 141.282 107.155C140.639 106.78 139.364 106.697 138.34 107.2L130.097 111.286C129.357 111.652 128.407 111.816 127.54 111.717L117.9 110.601C116.712 110.462 115.606 110.914 115.242 111.43C115.12 111.602 115.1 111.758 115.206 111.929L118.4 117.154C118.776 117.754 118.559 118.511 117.894 119.057L111.714 124.154C111.459 124.371 111.341 124.592 111.405 124.781C111.54 125.187 112.293 125.556 113.432 125.458L123.647 124.595C124.567 124.509 125.441 124.706 125.992 125.107L131.811 129.374C132.344 129.755 133.349 129.858 134.262 129.606C134.866 129.44 135.34 129.143 135.51 128.826L138.632 123.074C138.776 122.883 138.939 122.693 139.15 122.514Z" fill="#150035"/>
<path d="M137.055 120.247L135.892 120.99C135.46 121.268 134.742 121.322 134.315 121.112L129.871 118.912C129.241 118.597 128.271 118.084 128.176 118.736L128.097 119.341C128.043 119.681 127.521 119.967 126.938 119.976L125.918 119.99C125.326 119.989 124.918 119.711 124.981 119.38L125.505 116.647C125.534 116.501 125.641 116.358 125.834 116.247L127.212 115.375C127.643 115.096 128.361 115.042 128.788 115.253L137.102 119.357C137.498 119.577 137.487 119.968 137.055 120.247Z" fill="#150035"/>
<path d="M137.37 120.414C137.325 120.451 137.27 120.499 137.217 120.526L136.053 121.269C135.505 121.612 134.666 121.681 134.138 121.418L129.572 119.166C129.303 119.029 128.645 118.703 128.469 118.766L128.409 119.371C128.341 119.897 127.664 120.314 126.872 120.326L125.853 120.34C125.37 120.333 124.975 120.182 124.761 119.93C124.624 119.769 124.582 119.562 124.618 119.357L125.143 116.624C125.184 116.381 125.364 116.142 125.642 115.976L127.02 115.103C127.569 114.76 128.407 114.691 128.936 114.954L137.25 119.059C137.567 119.207 137.739 119.477 137.732 119.761C137.732 119.986 137.603 120.216 137.37 120.414ZM136.895 119.967C137.012 119.902 137.05 119.835 137.055 119.796C137.049 119.766 137.018 119.707 136.896 119.653L128.582 115.549C128.257 115.391 127.679 115.429 127.345 115.643L125.967 116.516C125.858 116.59 125.811 116.647 125.817 116.677L125.293 119.41C125.393 119.55 125.617 119.656 125.923 119.657L126.942 119.643C127.427 119.63 127.733 119.406 127.743 119.328L127.822 118.724C127.865 118.392 128.074 118.233 128.18 118.178C128.606 117.938 129.177 118.183 129.929 118.552L134.486 120.794C134.811 120.952 135.389 120.913 135.723 120.7L136.895 119.967Z" fill="#150035"/>
<path d="M124.328 125.2L124.226 131.584L125.173 131.514L125.276 125.13L124.328 125.2Z" fill="#150035"/>
<path d="M132.685 130.201L132.583 136.585L133.53 136.515L133.633 130.13L132.685 130.201Z" fill="#150035"/>
<path d="M139.631 122.361L139.528 128.746L140.476 128.676L140.579 122.291L139.631 122.361Z" fill="#150035"/>
<path d="M113.176 126.095L113.073 132.479L114.021 132.409L114.124 126.025L113.176 126.095Z" fill="#150035"/>
<path d="M148.611 119.965L148.508 126.35L149.456 126.279L149.559 119.895L148.611 119.965Z" fill="#150035"/>
<path d="M137.284 138.609C136.484 139.287 135.53 139.783 134.508 140.042C132.71 140.489 130.907 140.143 129.53 139.106L126.301 136.653C124.654 135.411 122.548 134.887 120.383 135.195L115.146 135.935L115.104 135.052L120.34 134.311C122.746 133.973 125.084 134.544 126.909 135.929L130.138 138.382C131.308 139.265 132.851 139.554 134.372 139.185C135.904 138.806 137.231 137.804 138.022 136.44L139.463 133.952L140.252 134.342L138.811 136.83C138.399 137.491 137.884 138.101 137.284 138.609Z" fill="#150035"/>
<path d="M149.591 113.919L146.247 112.923C144.974 112.547 144.178 111.385 144.267 110.029L144.468 107.121C144.547 105.911 144.019 104.817 143.026 104.186C142.052 103.556 140.778 103.493 139.615 104.01L132.148 107.391L131.829 106.588L139.295 103.207C140.742 102.552 142.34 102.637 143.559 103.422C144.788 104.218 145.468 105.581 145.36 107.093L145.158 110.001C145.093 110.957 145.665 111.788 146.567 112.064L149.91 113.06L149.591 113.919Z" fill="#150035"/>
<path d="M113.614 136.19C111.459 136.438 109.984 135.105 109.921 135.054L110.574 134.363C110.583 134.373 111.85 135.483 113.593 135.289L113.614 136.19Z" fill="#150035"/>
<path d="M155.214 120.698L154.313 120.803L154.215 116.871C154.19 116.079 153.735 115.409 153.014 115.12L151.413 114.468L151.827 113.633L153.428 114.284C154.449 114.7 155.084 115.65 155.116 116.766L155.214 120.698Z" fill="#150035"/>
<path d="M110.875 51.6445C116.027 43.8208 121.464 47.8676 122.609 48.6769C122.609 48.6769 122.895 48.6769 122.895 48.4071C124.04 46.2489 129.478 36.267 134.63 38.4252L143.216 42.7417V43.0115L137.206 52.7236L129.192 73.227L131.482 74.0363V78.3528C131.482 78.6226 131.195 78.6226 131.195 78.6226L122.895 74.0363L112.306 66.2127C112.306 66.2127 104.578 61.6264 110.875 51.6445Z" fill="white"/>
<path d="M131.197 79.7015C131.483 79.7015 131.769 79.7015 131.769 79.4317C132.055 79.1619 132.341 78.8922 132.341 78.3526V73.2267L130.624 72.6872L138.065 53.263L144.362 43.281V42.7415C144.362 42.4717 144.076 42.2019 143.789 41.9321L135.203 37.6157C133.2 36.8063 130.338 36.5365 126.331 41.1228C124.614 43.2811 123.183 45.4393 122.324 47.058C121.179 46.2486 119.176 45.4393 116.886 45.7091C114.311 45.9789 112.021 47.8673 110.018 50.8349C103.149 61.6262 111.735 66.752 111.735 67.0218L122.324 74.8455L130.624 79.1619C130.91 79.4317 130.91 79.7015 131.197 79.7015ZM130.338 74.8455V76.7339L123.469 73.2267L113.166 65.4031C112.88 65.1333 106.297 61.0866 112.021 52.1838C113.738 49.7558 115.456 48.1371 117.173 47.8673C119.462 47.5976 121.466 48.9465 121.752 49.486L122.038 49.7558H122.611C122.897 49.7558 123.469 49.486 123.469 48.9464C124.042 48.1371 125.473 44.8997 127.762 42.4717C129.479 40.5833 131.769 38.425 133.772 39.5041L141.214 43.5508L135.776 52.4536L127.476 74.0361L130.338 74.8455Z" fill="#001E20"/>
<path d="M119.458 57.0424C119.458 57.0424 123.179 56.7727 123.751 57.0424C124.323 57.3122 132.623 60.2798 132.623 60.2798L133.768 62.9776L129.761 73.7688L132.051 74.3084V78.6249C132.051 78.8946 131.765 78.8947 131.765 78.8947L123.465 74.5782L112.876 66.7545C112.876 66.7545 105.72 62.438 110.872 52.9957L119.458 57.0424Z" fill="#FF513F"/>
<path d="M131.483 79.702C131.769 79.702 132.055 79.702 132.055 79.4322C132.341 79.1625 132.627 78.8927 132.627 78.3531V73.2273L130.91 72.6877L134.631 62.7059L133.2 59.1987L132.914 58.9289C129.193 57.3102 124.614 55.6916 123.755 55.4218C123.183 55.4218 120.607 55.4218 119.462 55.4218L110.018 50.5657L109.445 51.6448C103.721 61.6267 111.735 66.7526 111.735 66.7526L122.324 74.5762L130.624 78.8927C130.91 79.4323 131.196 79.702 131.483 79.702ZM130.624 74.846V76.7344L123.755 73.2273L113.452 65.4037C113.166 65.1339 107.442 61.6267 111.449 54.0729L119.462 58.1196H119.748C121.466 58.1196 123.469 57.8498 124.041 58.1196C124.614 58.1196 128.907 60.0081 132.055 61.357L132.914 63.2454L128.621 74.5762L130.624 74.846Z" fill="#001E20"/>
<path d="M129.765 52.4528L123.182 48.9457V48.6759C123.755 47.5968 125.186 44.6292 127.475 42.2012L136.061 46.7875L138.637 51.3737L137.779 52.9924L136.634 56.2298L133.772 58.388L129.765 52.4528Z" fill="#FF513F"/>
<path d="M132.914 60.0076L137.207 56.7702L138.638 53.2631L139.783 51.3746L136.921 45.9789L127.19 40.5833L126.618 41.3927C124.328 44.0905 122.611 47.0581 122.325 48.1372C122.039 48.407 122.325 48.9466 122.325 49.2163V49.7559L129.194 53.2631L132.914 60.0076ZM135.204 55.6911L133.773 56.7702L130.911 51.6443L124.615 48.407C125.187 47.3279 126.332 45.4394 127.763 43.5509L135.204 47.5976L137.207 51.3746L136.349 52.7235L135.204 55.6911Z" fill="#001E20"/>
<path d="M119.745 56.2327C124.897 48.4091 130.334 52.4558 131.479 53.2651C131.479 53.2651 131.765 53.2651 131.765 52.9953C132.91 50.8371 138.348 40.8553 143.5 43.0135C149.796 45.9811 142.069 58.9305 142.069 58.9305L131.765 78.0849C131.765 78.3547 131.479 78.3547 131.479 78.3547L120.89 70.5311C120.89 70.8008 113.162 66.2146 119.745 56.2327Z" fill="#FF513F"/>
<path d="M131.196 79.7035H131.768C132.054 79.7035 132.627 79.4337 132.627 78.8941L142.93 59.7397C143.216 59.47 148.368 50.5672 146.65 45.4414C146.078 44.0925 145.219 43.0134 143.788 42.204C142.071 41.3947 138.923 41.3947 134.916 45.7112C133.199 47.8694 131.768 50.0277 130.909 51.6463C129.765 50.837 127.761 50.0277 125.472 50.2974C122.896 50.5672 120.606 52.4557 118.603 55.4233C111.734 66.2145 120.32 71.3403 120.32 71.6101L131.196 79.7035ZM141.785 44.0925C142.071 44.0925 142.357 44.0925 142.93 44.3623C143.788 44.6321 144.361 45.4414 144.647 46.2507C145.792 49.7579 142.644 56.5024 141.213 58.9304L131.482 77.2755L122.037 70.2612C121.751 69.9914 115.168 65.9447 120.892 57.0419C122.61 54.6139 124.327 52.9952 126.33 52.7255C128.62 52.4557 130.623 53.8046 130.909 54.3441L131.196 54.6139H131.768C132.054 54.6139 132.627 54.3442 132.627 53.8046C133.199 52.9952 134.63 49.7579 136.92 47.3299C138.351 45.7112 140.068 44.0925 141.785 44.0925Z" fill="#001E20"/>
<path d="M135.336 60.4895L137.371 61.4788L131.599 72.0291L129.563 71.0398L135.336 60.4895Z" fill="#001E20"/>
<path d="M133.484 49.7557L124.898 45.4393L123.181 48.9464L131.767 53.2629L133.484 49.7557Z" fill="#001E20"/>
<path d="M119.173 69.9907L114.88 68.1022L110.301 64.8649L108.87 61.0879L108.584 57.311L109.156 55.9621L117.169 60.0088L116.597 62.9764L117.742 66.4835L119.173 69.9907Z" fill="#001E20"/>
<path d="M104.29 58.6581C105.435 48.4064 113.162 45.169 113.448 44.8993L112.59 43.0108C112.303 43.2806 103.431 47.0575 102 58.3883L104.29 58.6581Z" fill="#001E20"/>
<path d="M209.724 137.199C210.154 136.375 210.422 135.356 210.422 134.096V56.032C210.422 51.8136 207.576 46.9165 204.086 45.074L171.332 28.0067C169.828 27.2309 168.486 27.1339 167.412 27.6188C165.533 28.2006 163.868 29.6552 163.868 29.6552L165.049 31.3037C164.996 31.6432 164.996 31.9826 164.996 32.322V110.337C164.996 114.555 167.842 119.453 171.332 121.295L204.086 138.362L205.214 140.35C205.214 140.35 208.006 139.866 209.617 137.344V137.296C209.67 137.296 209.724 137.247 209.724 137.199Z" fill="#16110D"/>
<path d="M204.999 140.836L203.764 138.702L171.063 121.683C167.466 119.792 164.512 114.75 164.512 110.434V32.3224C164.512 32.0314 164.512 31.7405 164.566 31.4011L163.277 29.6071L163.492 29.4131C163.546 29.3647 165.264 27.9101 167.197 27.2797H167.251C168.486 26.7949 169.936 26.9403 171.493 27.7161L204.247 44.7834C207.845 46.6744 210.798 51.7171 210.798 56.0324V134.048C210.798 135.308 210.529 136.423 210.046 137.296L209.992 137.345C209.992 137.393 209.939 137.442 209.939 137.49L209.885 137.539C208.221 140.157 205.375 140.69 205.214 140.69L204.999 140.836ZM165.479 30.8193L165.425 31.3526C165.371 31.7405 165.371 32.0314 165.371 32.3708V110.386C165.371 114.507 168.11 119.259 171.546 121.053L204.408 138.169L205.428 140.011C206.126 139.817 208.113 139.139 209.294 137.248C209.348 137.151 209.348 137.151 209.402 137.102V137.054L209.778 137.199L209.402 137.054C209.831 136.229 210.046 135.26 210.046 134.096V56.0324C210.046 51.911 207.308 47.1593 203.871 45.3653L171.117 28.298C169.775 27.6191 168.593 27.4737 167.573 27.9101L167.412 28.007C166.123 28.4434 164.888 29.3647 164.405 29.7526L165.264 30.9162L165.479 30.8193Z" fill="#16110D"/>
<path d="M201.293 140.011L168.539 122.944C165.048 121.101 162.203 116.204 162.203 111.986V33.9222C162.203 29.7039 165.048 27.7644 168.539 29.6069L201.293 46.6742C204.783 48.5167 207.629 53.4139 207.629 57.6322V135.647C207.683 139.914 204.837 141.854 201.293 140.011Z" fill="white"/>
<path d="M203.817 141.03C202.958 141.03 202.045 140.787 201.079 140.302L168.324 123.235C164.727 121.344 161.773 116.301 161.773 111.986V33.9223C161.773 31.5949 162.633 29.7524 164.136 28.9767C165.425 28.2978 167.036 28.3948 168.7 29.2676L201.454 46.3349C205.052 48.2259 208.005 53.2685 208.005 57.5838V135.599C208.005 137.926 207.146 139.769 205.643 140.545C205.106 140.884 204.515 141.03 203.817 141.03ZM166.015 29.2676C165.478 29.2676 164.995 29.3646 164.566 29.607C163.277 30.2858 162.579 31.8374 162.579 33.9223V111.986C162.579 116.107 165.317 120.859 168.754 122.653L201.508 139.72C202.904 140.448 204.247 140.545 205.267 140.011C206.556 139.332 207.254 137.781 207.254 135.696V57.6323C207.254 53.511 204.515 48.7593 201.079 46.9652L168.324 29.8979C167.519 29.4615 166.713 29.2676 166.015 29.2676Z" fill="#16110D"/>
<path d="M199.307 48.1293L187.763 42.1654C187.602 42.0684 187.387 42.1654 187.387 42.3593V43.0382C187.387 44.1049 186.045 44.7837 185.024 44.2503L184.326 43.8624C183.199 43.2321 182.447 42.1169 182.447 40.9047V39.7411C182.447 39.4501 182.286 39.2077 182.017 39.1107L167.734 31.6923C165.962 30.771 164.513 31.5468 164.513 33.3408V112.229C164.513 115.623 167.144 119.744 170.419 121.441L201.885 137.878C203.657 138.799 205.107 138.024 205.107 136.23V57.3418C205.214 53.9477 202.583 49.8263 199.307 48.1293Z" fill="#FFC856"/>
<path d="M203.441 138.654C202.958 138.654 202.367 138.509 201.83 138.218L170.364 121.781C166.982 120.035 164.297 115.768 164.297 112.277V33.3894C164.297 32.3712 164.726 31.5954 165.424 31.2075C166.176 30.8196 167.089 30.9166 168.056 31.4014L182.285 38.7714C182.661 38.9654 182.876 39.3533 182.876 39.7412V40.8564C182.876 41.9231 183.52 42.9413 184.54 43.5231L185.238 43.911C185.614 44.105 186.044 44.105 186.419 43.911C186.795 43.7171 187.01 43.3777 187.01 42.9898V42.311C187.01 42.117 187.117 41.9231 187.332 41.8261C187.547 41.7291 187.762 41.7291 187.977 41.8261L199.575 47.79C202.958 49.5355 205.642 53.8023 205.642 57.2934V136.23C205.642 137.248 205.213 138.024 204.515 138.412C204.139 138.557 203.817 138.654 203.441 138.654ZM166.391 31.6439C166.176 31.6439 165.908 31.6924 165.747 31.7893C165.263 32.0318 164.995 32.6136 164.995 33.3409V112.229C164.995 115.526 167.572 119.502 170.687 121.15L202.152 137.587C202.904 137.975 203.548 138.024 204.032 137.781C204.515 137.539 204.783 136.957 204.783 136.23V57.3418C204.783 54.0447 202.206 50.0688 199.092 48.4203L187.762 42.5534V42.9898C187.762 43.6201 187.386 44.2019 186.795 44.5413C186.205 44.8808 185.453 44.8323 184.862 44.5413L184.164 44.1534C182.876 43.4746 182.124 42.214 182.124 40.9048V39.7412C182.124 39.5957 182.016 39.4502 181.909 39.4017L167.626 31.9833C167.196 31.7893 166.767 31.6439 166.391 31.6439Z" fill="#16110D"/>
<path d="M185.721 42.5536C185.721 43.0384 185.345 43.1839 184.916 42.9899C184.486 42.7475 184.11 42.2141 184.11 41.7293C184.11 41.2444 184.486 41.099 184.916 41.2929C185.399 41.4868 185.721 42.0687 185.721 42.5536Z" fill="#16110D"/>
<path d="M206.341 51.6206L206.126 51.2812L208.596 50.0206L208.811 50.36L206.341 51.6206Z" fill="#FFC856"/>
<path d="M168.378 29.4617L168.109 29.2193C168.163 29.1708 169.237 28.1526 170.848 27.8132L170.955 28.1526C169.398 28.492 168.378 29.4617 168.378 29.4617Z" fill="#FFC856"/>
<path d="M169.666 30.1402L169.398 29.8978C169.452 29.8493 170.526 28.831 172.136 28.4916L172.244 28.831C170.687 29.1705 169.666 30.1402 169.666 30.1402Z" fill="#FFC856"/>
<path d="M209.911 53.0998L207.363 54.2436L207.53 54.5475L210.079 53.4037L209.911 53.0998Z" fill="#FFC856"/>
<path d="M207.952 131.914L207.791 131.623C207.791 131.623 209.401 130.847 210.314 130.12L210.583 130.362C209.67 131.09 208.059 131.865 207.952 131.914Z" fill="#FFC856"/>
<path d="M207.952 135.551L207.791 135.26C207.791 135.26 209.401 134.484 210.314 133.757L210.583 133.999C209.67 134.775 208.059 135.551 207.952 135.551Z" fill="#FFC856"/>
<path d="M207.952 137.054L207.791 136.763C207.791 136.763 209.401 135.987 210.314 135.26L210.583 135.502C209.67 136.278 208.059 137.054 207.952 137.054Z" fill="#FFC856"/>
<path d="M208.704 90.6039C208.597 90.6039 208.489 90.6039 208.435 90.5554C208.221 90.4585 208.113 90.216 208.113 89.8766V84.5916C208.113 84.0582 208.489 83.4764 208.919 83.234L209.026 83.1855C209.241 83.04 209.509 83.04 209.67 83.137C209.885 83.234 209.993 83.4764 209.993 83.8158V89.1008C209.993 89.6342 209.617 90.216 209.187 90.4585L209.08 90.507C208.972 90.6039 208.865 90.6039 208.704 90.6039ZM209.402 83.4279C209.348 83.4279 209.241 83.4764 209.241 83.4764L209.133 83.5249C208.811 83.7188 208.543 84.2037 208.543 84.5916V89.8766C208.543 90.0706 208.597 90.216 208.704 90.216C208.811 90.2645 208.919 90.216 208.972 90.1676L209.08 90.1191C209.402 89.9251 209.67 89.4403 209.67 89.0524V83.7673C209.67 83.5734 209.617 83.4279 209.509 83.4279C209.456 83.4279 209.402 83.4279 209.402 83.4279Z" fill="#FFC856"/>
<path d="M208.704 82.1181C208.597 82.1181 208.489 82.1181 208.435 82.0696C208.221 81.9726 208.113 81.7302 208.113 81.3908V76.1057C208.113 75.5724 208.489 74.9905 208.919 74.7481L209.026 74.6996C209.241 74.6026 209.509 74.5542 209.67 74.6511C209.885 74.7481 209.993 74.9905 209.993 75.3299V80.615C209.993 81.1483 209.617 81.7302 209.187 81.9726L209.08 82.0211C208.972 82.1181 208.865 82.1181 208.704 82.1181ZM209.402 74.942C209.348 74.942 209.241 74.9905 209.241 74.9905L209.133 75.039C208.811 75.233 208.543 75.7178 208.543 76.1057V81.3908C208.543 81.5847 208.597 81.7302 208.704 81.7302C208.811 81.7787 208.919 81.7302 208.972 81.6817L209.08 81.6332C209.402 81.4393 209.67 80.9544 209.67 80.5665V75.2815C209.67 75.0875 209.617 74.942 209.509 74.942C209.456 74.942 209.402 74.942 209.402 74.942Z" fill="#FFC856"/>
<path d="M208.704 72.4695C208.597 72.4695 208.489 72.4694 208.435 72.421C208.221 72.324 208.113 72.0816 208.113 71.7421V68.7845C208.113 68.2511 208.489 67.6693 208.919 67.4268L209.026 67.3783C209.241 67.2329 209.509 67.2329 209.67 67.3299C209.885 67.4268 209.993 67.6693 209.993 68.0087V70.9664C209.993 71.4997 209.617 72.0816 209.187 72.324L209.08 72.3725C208.972 72.421 208.865 72.4695 208.704 72.4695ZM209.402 67.5723C209.348 67.5723 209.241 67.6208 209.241 67.6208L209.133 67.6693C208.811 67.8632 208.543 68.3481 208.543 68.736V71.6937C208.543 71.8876 208.597 72.0331 208.704 72.0331C208.811 72.0816 208.919 72.0331 208.972 71.9846L209.08 71.9361C209.402 71.7421 209.67 71.2573 209.67 70.8694V67.9117C209.67 67.7177 209.617 67.5723 209.509 67.5723C209.456 67.5723 209.402 67.5723 209.402 67.5723Z" fill="#FFC856"/>
<path d="M209.134 69.8512L209.026 69.8997C208.65 70.0936 208.328 69.8997 208.328 69.4148V68.736C208.328 68.2511 208.65 67.7178 209.026 67.5238L209.134 67.4753C209.509 67.2814 209.832 67.4753 209.832 67.9602V68.639C209.832 69.0754 209.509 69.6087 209.134 69.8512Z" fill="#FFC856"/>
<path d="M208.704 70.1423C208.597 70.1423 208.489 70.1423 208.435 70.0939C208.221 69.9969 208.113 69.7545 208.113 69.415V68.7362C208.113 68.2029 208.489 67.621 208.919 67.3786L209.026 67.3301C209.241 67.1847 209.509 67.1847 209.67 67.2816C209.885 67.3786 209.993 67.621 209.993 67.9604V68.6393C209.993 69.1726 209.617 69.7544 209.187 69.9969L209.08 70.0454C208.972 70.0939 208.865 70.1423 208.704 70.1423ZM209.402 67.5726C209.348 67.5726 209.241 67.621 209.241 67.621L209.133 67.6695C208.811 67.8635 208.543 68.3483 208.543 68.7362V69.415C208.543 69.609 208.597 69.7544 208.704 69.7544C208.811 69.8029 208.919 69.7545 208.972 69.706L209.08 69.6575C209.402 69.4635 209.67 68.9787 209.67 68.5908V67.912C209.67 67.718 209.617 67.5726 209.509 67.5726C209.456 67.5726 209.402 67.5726 209.402 67.5726Z" fill="#FFC856"/>
<path d="M207.917 48.733L205.378 50.0944L205.57 50.3863L208.109 49.0249L207.917 48.733Z" fill="#FFC856"/>
<path d="M203.513 124.817C203.092 124.817 202.586 124.658 202.08 124.419L166.595 105.045C164.74 104.008 163.223 101.377 163.223 99.065V41.7403C163.223 40.4646 163.729 39.4282 164.487 39.0295C165.162 38.6309 166.089 38.7106 166.932 39.189L202.418 58.563C204.272 59.5994 205.789 62.2305 205.789 64.5426V121.867C205.789 123.143 205.283 124.179 204.525 124.578C204.188 124.737 203.851 124.817 203.513 124.817ZM165.583 39.5079C165.33 39.5079 165.162 39.5876 164.993 39.6674C164.403 39.9863 164.15 40.7038 164.15 41.7403V99.065C164.15 101.138 165.499 103.53 167.1 104.407L202.586 123.781C203.176 124.1 203.766 124.179 204.188 123.94C204.778 123.621 205.031 122.904 205.031 121.867V64.5426C205.031 62.4697 203.682 60.0778 202.08 59.2008L166.595 39.8268C166.258 39.6674 165.92 39.5079 165.583 39.5079Z" fill="white"/>
<path d="M162.679 102.266C162.679 102.266 161.321 100.545 159.962 100.364L160.053 99.4584C161.774 99.6396 163.313 101.632 163.404 101.723L162.679 102.266Z" fill="white"/>
<path d="M166.574 105.798C166.483 105.436 165.94 104.621 165.215 104.53L165.306 103.625C166.664 103.715 167.298 105.345 167.389 105.436L166.574 105.798Z" fill="white"/>
<path d="M204.47 122.982L204.466 122.975L204.462 122.969C204.305 122.734 204.291 122.534 204.32 122.44C204.334 122.397 204.35 122.39 204.353 122.388C204.356 122.387 204.385 122.375 204.456 122.403L206.349 123.214C206.461 123.269 206.597 123.309 206.738 123.289C206.895 123.267 207.024 123.173 207.101 123.021L207.906 121.501C207.933 121.47 207.957 121.462 207.98 121.46C208.013 121.457 208.069 121.466 208.145 121.508C208.296 121.592 208.467 121.773 208.587 122.008L209.397 124.437L209.402 124.452L209.41 124.467C209.461 124.569 209.537 124.696 209.626 124.811C209.708 124.916 209.816 125.032 209.944 125.102L211.828 126.538C212.011 126.685 212.142 126.91 212.187 127.11C212.237 127.33 212.171 127.404 212.139 127.42L212.139 127.42L212.133 127.423L210.777 128.146C210.623 128.224 210.541 128.348 210.504 128.479C210.472 128.59 210.472 128.709 210.472 128.791C210.472 128.795 210.472 128.799 210.472 128.802V128.82L210.475 128.837L210.837 131.192L210.837 131.192L210.838 131.195C210.854 131.295 210.837 131.346 210.826 131.366C210.817 131.382 210.805 131.392 210.781 131.397C210.723 131.408 210.576 131.38 210.428 131.195L210.428 131.195L210.422 131.189L208.701 129.196L208.696 129.19L208.69 129.184C208.484 128.978 208.248 128.845 207.985 128.845V128.845L207.972 128.845L206.252 128.936L206.235 128.937L206.219 128.94C206.13 128.958 205.983 128.897 205.84 128.694C205.704 128.498 205.645 128.267 205.674 128.123L205.674 128.123L205.674 128.119L206.037 126.126L206.04 126.106V126.085C206.04 125.852 205.932 125.543 205.835 125.349L205.835 125.349L205.828 125.337L204.47 122.982Z" fill="white" stroke="#16110D" stroke-width="0.458599"/>
<path d="M208.339 129.649L208.334 129.643L208.328 129.637L208.203 129.512L208.162 129.471L208.151 129.46L208.148 129.456L208.147 129.456L208.147 129.456L208.147 129.455L208.147 129.455L207.985 129.618L208.147 129.455L208.075 129.383L207.973 129.389L206.259 129.479C206.086 129.476 205.874 129.356 205.611 129.093C205.386 128.869 205.238 128.491 205.311 128.123L205.311 128.123L205.312 128.119L205.674 126.126L205.678 126.106V126.085L205.678 126.082C205.678 126.036 205.678 125.972 205.662 125.893C205.646 125.812 205.615 125.725 205.563 125.62L205.564 125.62L205.557 125.608L204.198 123.254L204.198 123.254L204.196 123.25C203.962 122.86 203.978 122.42 204.183 122.147L204.183 122.147L204.19 122.137C204.236 122.068 204.306 122.026 204.417 122.01C204.53 121.994 204.674 122.008 204.835 122.047L206.631 122.766L206.813 122.838L206.913 122.671L207.725 121.317C207.852 121.13 208.039 121.061 208.256 121.061C208.406 121.061 208.579 121.138 208.744 121.293C208.908 121.447 209.046 121.663 209.126 121.901L209.941 124.346L209.946 124.362L209.953 124.376C210.06 124.591 210.172 124.702 210.267 124.798L210.268 124.798L210.279 124.809L210.291 124.819L212.193 126.268L212.194 126.269C212.334 126.374 212.472 126.563 212.576 126.792C212.679 127.019 212.736 127.258 212.736 127.444C212.736 127.531 212.707 127.626 212.656 127.711C212.604 127.798 212.542 127.852 212.501 127.873L212.501 127.872L212.49 127.879L211.222 128.603L211.336 128.802H211.106V128.802V128.802V128.802V128.802V128.802V128.802V128.802V128.802V128.802V128.802V128.802V128.803V128.803V128.803V128.803V128.803V128.803V128.803V128.803V128.803V128.803V128.803V128.803V128.803V128.803V128.803V128.803V128.803V128.803V128.803V128.803V128.803V128.803V128.803V128.803V128.803V128.803V128.803V128.803V128.803V128.803V128.803V128.803V128.803V128.803V128.803V128.803V128.803V128.803V128.803V128.803V128.803V128.803V128.803V128.803V128.803V128.803V128.803V128.803V128.803V128.803V128.803V128.803V128.803V128.803V128.803V128.803V128.803V128.803V128.803V128.803V128.803V128.803V128.803V128.803V128.803V128.803V128.803V128.803V128.803V128.803V128.803V128.803V128.803V128.804V128.804V128.804V128.804V128.804V128.804V128.804V128.804V128.804V128.804V128.804V128.804V128.804V128.804V128.804V128.804V128.804V128.804V128.804V128.804V128.804V128.804V128.804V128.804V128.804V128.804V128.804V128.804V128.805V128.805V128.805V128.805V128.805V128.805V128.805V128.805V128.805V128.805V128.805V128.805V128.805V128.805V128.805V128.805V128.805V128.805V128.805V128.805V128.805V128.806V128.806V128.806V128.806V128.806V128.806V128.806V128.806V128.806V128.806V128.806V128.806V128.806V128.806V128.806V128.806V128.807V128.807V128.807V128.807V128.807V128.807V128.807V128.807V128.807V128.807V128.807V128.807V128.807V128.807V128.808V128.808V128.808V128.808V128.808V128.808V128.808V128.808V128.808V128.808V128.808V128.808V128.809V128.809V128.809V128.809V128.809V128.809V128.809V128.809V128.809V128.809V128.809V128.81V128.81V128.81V128.81V128.81V128.81V128.81V128.81V128.81V128.81V128.811V128.811V128.811V128.811V128.811V128.811V128.811V128.811V128.811V128.812V128.812V128.812V128.812V128.812V128.812V128.812V128.812V128.812V128.813V128.813V128.813V128.813V128.813V128.813V128.813V128.813V128.814V128.814V128.814V128.814V128.814V128.814V128.814V128.815V128.815V128.815V128.815V128.815V128.815V128.815V128.816V128.816V128.816V128.816V128.816V128.816V128.816V128.817V128.817V128.817V128.817V128.817V128.817V128.818V128.818V128.818V128.818V128.818V128.818V128.819V128.819V128.819V128.819V128.819V128.819V128.82V128.82V128.82V128.82V128.82V128.82V128.821V128.821V128.821V128.821V128.821V128.822V128.822V128.822V128.822V128.822V128.823V128.823V128.823V128.823V128.823V128.824V128.824V128.824V128.824V128.824V128.825V128.825V128.825V128.825V128.825V128.826V128.826V128.826V128.826V128.826V128.827V128.827V128.827V128.827V128.828V128.828V128.828V128.828V128.828V128.829V128.829V128.829V128.829V128.83V128.83V128.83V128.83V128.831V128.831V128.831V128.831V128.832V128.832V128.832V128.832V128.833V128.833V128.833V128.833V128.834V128.834V128.834V128.834V128.835V128.835V128.835V128.836V128.836V128.836V128.836V128.837V128.837V128.837V128.837V128.838V128.838V128.838V128.839V128.839V128.839V128.839V128.84V128.84V128.84V128.841V128.841V128.841V128.842V128.842V128.842V128.842V128.843V128.843V128.843V128.844V128.844V128.844V128.845V128.845V128.845V128.846V128.846V128.846V128.847V128.847V128.847V128.848V128.848V128.848V128.849V128.849V128.849V128.85V128.85V128.85V128.851V128.851V128.851V128.852V128.852V128.852V128.853V128.853V128.854V128.854V128.854V128.855V128.855V128.855V128.856V128.856V128.856V128.857V128.857V128.858V128.858V128.858V128.859V128.859V128.86V128.86V128.86V128.861V128.861V128.862V128.862V128.862V128.863V128.863V128.864V128.864V128.864V128.865V128.865V128.866V128.866V128.866V128.867V128.867V128.868V128.868V128.869V128.869V128.869V128.87V128.87V128.871V128.871V128.872V128.872V128.872V128.873V128.873V128.874V128.874V128.875V128.875V128.876V128.876V128.877V128.877V128.878V128.878V128.878V128.879V128.879V128.88V128.88V128.881V128.881V128.882V128.882V128.883V128.883V128.884V128.884V128.885V128.885V128.886V128.886V128.887V128.887V128.888V128.888V128.889V128.889V128.89V128.89V128.891V128.891V128.892V128.892V128.893V128.911V129.198L211.147 129.174L211.471 131.283L211.471 131.283L211.472 131.286C211.509 131.513 211.469 131.658 211.412 131.75C211.356 131.842 211.271 131.902 211.18 131.933C210.852 132.015 210.773 132.015 210.71 132.015C210.707 132.015 210.704 132.015 210.702 132.015C210.529 132.015 210.317 131.896 210.054 131.635L208.339 129.649ZM207.973 128.941L207.973 128.941H207.985C208.074 128.941 208.195 128.972 208.317 129.038C208.439 129.104 208.543 129.193 208.609 129.292L208.617 129.304L208.626 129.315L210.347 131.307L210.838 131.875L210.748 131.13L210.476 128.866L210.475 128.857L210.474 128.848C210.436 128.661 210.458 128.53 210.502 128.434C210.546 128.339 210.622 128.257 210.729 128.184L212.077 127.465L212.199 127.4V127.263C212.199 127.169 212.161 127.043 212.111 126.932C212.058 126.812 211.976 126.673 211.86 126.557L211.849 126.546L211.837 126.537L209.935 125.088L209.929 125.083L209.923 125.079C209.706 124.934 209.554 124.715 209.475 124.399L209.473 124.391L209.47 124.383L208.655 121.937L208.65 121.922L208.643 121.907C208.535 121.693 208.424 121.581 208.328 121.486L208.328 121.485L208.12 121.277L207.969 121.529L207.154 122.888L207.149 122.895L207.146 122.903C207.081 123.032 206.995 123.097 206.895 123.124C206.789 123.152 206.638 123.144 206.441 123.065L204.723 122.342L204.404 122.208V122.553C204.404 122.555 204.404 122.558 204.404 122.561C204.404 122.595 204.403 122.672 204.44 122.746C204.459 122.784 204.483 122.814 204.501 122.834C204.513 122.847 204.527 122.861 204.541 122.875L205.884 125.204L205.888 125.21L205.892 125.216C206.05 125.453 206.107 125.741 206.046 125.922L206.041 125.938L206.038 125.954L205.676 127.946L205.672 127.967V127.987C205.672 128.128 205.734 128.323 205.81 128.475C205.849 128.554 205.9 128.637 205.964 128.705C206.02 128.765 206.119 128.848 206.256 128.851L207.973 128.941Z" fill="white" stroke="#16110D" stroke-width="0.458599"/>
<path d="M197.138 115.233L197.138 115.233L197.141 115.229C197.149 115.212 197.152 115.211 197.165 115.21L197.165 115.21C197.193 115.207 197.252 115.216 197.338 115.261C197.504 115.349 197.694 115.533 197.81 115.758L198.62 118.187L198.625 118.203L198.632 118.218C198.683 118.32 198.759 118.446 198.849 118.561C198.93 118.666 199.039 118.782 199.166 118.852L201.051 120.288C201.234 120.435 201.365 120.66 201.41 120.86C201.46 121.081 201.394 121.154 201.361 121.17L201.361 121.17L201.356 121.173L200 121.897C199.845 121.975 199.764 122.099 199.726 122.23C199.695 122.34 199.695 122.459 199.695 122.542C199.695 122.545 199.695 122.549 199.695 122.553V122.571L199.698 122.588L200.06 124.943L200.06 124.943L200.06 124.946C200.077 125.045 200.06 125.096 200.048 125.117C200.039 125.133 200.027 125.142 200.004 125.147C199.946 125.159 199.799 125.131 199.65 124.946L199.651 124.946L199.645 124.939L197.924 122.947L197.919 122.94L197.913 122.934C197.707 122.728 197.471 122.595 197.207 122.595V122.595L197.195 122.596L195.474 122.686L195.458 122.687L195.441 122.69C195.353 122.708 195.205 122.648 195.063 122.444C194.926 122.249 194.867 122.018 194.896 121.873L194.896 121.873L194.897 121.869L195.259 119.877L195.263 119.857V119.836C195.263 119.603 195.155 119.293 195.058 119.099L195.058 119.099L195.051 119.087L193.693 116.732L193.689 116.726L193.685 116.72C193.528 116.484 193.514 116.285 193.543 116.191C193.556 116.148 193.573 116.14 193.576 116.139C193.579 116.137 193.608 116.125 193.678 116.153L195.571 116.965C195.683 117.02 195.82 117.06 195.96 117.04C196.117 117.018 196.247 116.924 196.324 116.771L197.138 115.233Z" fill="white" stroke="#16110D" stroke-width="0.458599"/>
<path d="M197.471 123.399L197.466 123.393L197.46 123.387L197.335 123.263L197.294 123.222L197.283 123.21L197.28 123.207L197.279 123.206L197.279 123.206L197.279 123.206L197.279 123.206L197.116 123.368L197.279 123.206L197.206 123.134L197.104 123.139L195.39 123.229C195.302 123.228 195.183 123.197 195.063 123.132C194.942 123.067 194.837 122.977 194.771 122.879L194.759 122.86L194.743 122.844C194.518 122.619 194.369 122.242 194.443 121.873L194.443 121.873L194.444 121.869L194.806 119.877L194.81 119.857V119.836L194.81 119.832C194.81 119.787 194.81 119.723 194.794 119.644C194.778 119.563 194.747 119.475 194.695 119.371L194.695 119.371L194.689 119.359L193.33 117.004L193.33 117.004L193.328 117.001C193.215 116.813 193.157 116.582 193.157 116.371C193.157 116.155 193.218 115.998 193.294 115.922L193.31 115.906L193.322 115.887C193.368 115.818 193.438 115.777 193.549 115.761C193.662 115.744 193.805 115.759 193.967 115.798L195.763 116.516L195.945 116.589L196.045 116.422L196.857 115.068C196.984 114.881 197.171 114.812 197.388 114.812C197.538 114.812 197.711 114.888 197.876 115.044C198.04 115.198 198.178 115.414 198.257 115.652L199.072 118.097L199.078 118.112L199.085 118.127C199.192 118.341 199.304 118.453 199.399 118.548L199.4 118.549L199.41 118.56L199.423 118.569L201.325 120.018L201.326 120.019C201.466 120.124 201.604 120.313 201.708 120.542C201.811 120.769 201.868 121.008 201.868 121.194C201.868 121.281 201.839 121.377 201.788 121.461C201.736 121.548 201.674 121.603 201.633 121.623L201.633 121.623L201.622 121.629L200.354 122.354L200.238 122.42V122.553V122.553V122.553V122.553V122.553V122.553V122.553V122.553V122.553V122.553V122.553V122.553V122.553V122.553V122.553V122.553V122.553V122.553V122.553V122.553V122.553V122.553V122.553V122.553V122.553V122.553V122.553V122.553V122.553V122.553V122.553V122.553V122.553V122.553V122.553V122.553V122.553V122.553V122.553V122.553V122.553V122.553V122.553V122.553V122.553V122.553V122.553V122.553V122.553V122.553V122.553V122.553V122.553V122.553V122.553V122.553V122.553V122.553V122.553V122.554V122.554V122.554V122.554V122.554V122.554V122.554V122.554V122.554V122.554V122.554V122.554V122.554V122.554V122.554V122.554V122.554V122.554V122.554V122.554V122.554V122.554V122.554V122.554V122.554V122.554V122.554V122.554V122.554V122.554V122.554V122.554V122.554V122.554V122.554V122.554V122.554V122.554V122.554V122.554V122.555V122.555V122.555V122.555V122.555V122.555V122.555V122.555V122.555V122.555V122.555V122.555V122.555V122.555V122.555V122.555V122.555V122.555V122.555V122.555V122.555V122.555V122.555V122.555V122.556V122.556V122.556V122.556V122.556V122.556V122.556V122.556V122.556V122.556V122.556V122.556V122.556V122.556V122.556V122.556V122.556V122.556V122.556V122.557V122.557V122.557V122.557V122.557V122.557V122.557V122.557V122.557V122.557V122.557V122.557V122.557V122.557V122.557V122.558V122.558V122.558V122.558V122.558V122.558V122.558V122.558V122.558V122.558V122.558V122.558V122.558V122.559V122.559V122.559V122.559V122.559V122.559V122.559V122.559V122.559V122.559V122.559V122.56V122.56V122.56V122.56V122.56V122.56V122.56V122.56V122.56V122.56V122.56V122.561V122.561V122.561V122.561V122.561V122.561V122.561V122.561V122.561V122.562V122.562V122.562V122.562V122.562V122.562V122.562V122.562V122.562V122.563V122.563V122.563V122.563V122.563V122.563V122.563V122.563V122.564V122.564V122.564V122.564V122.564V122.564V122.564V122.564V122.565V122.565V122.565V122.565V122.565V122.565V122.565V122.566V122.566V122.566V122.566V122.566V122.566V122.566V122.567V122.567V122.567V122.567V122.567V122.567V122.568V122.568V122.568V122.568V122.568V122.568V122.568V122.569V122.569V122.569V122.569V122.569V122.569V122.57V122.57V122.57V122.57V122.57V122.571V122.571V122.571V122.571V122.571V122.571V122.572V122.572V122.572V122.572V122.572V122.573V122.573V122.573V122.573V122.573V122.573V122.574V122.574V122.574V122.574V122.574V122.575V122.575V122.575V122.575V122.576V122.576V122.576V122.576V122.576V122.577V122.577V122.577V122.577V122.577V122.578V122.578V122.578V122.578V122.579V122.579V122.579V122.579V122.58V122.58V122.58V122.58V122.58V122.581V122.581V122.581V122.581V122.582V122.582V122.582V122.582V122.583V122.583V122.583V122.583V122.584V122.584V122.584V122.584V122.585V122.585V122.585V122.586V122.586V122.586V122.586V122.587V122.587V122.587V122.587V122.588V122.588V122.588V122.589V122.589V122.589V122.589V122.59V122.59V122.59V122.591V122.591V122.591V122.592V122.592V122.592V122.592V122.593V122.593V122.593V122.594V122.594V122.594V122.595V122.595V122.595V122.596V122.596V122.596V122.597V122.597V122.597V122.597V122.598V122.598V122.598V122.599V122.599V122.6V122.6V122.6V122.601V122.601V122.601V122.602V122.602V122.602V122.603V122.603V122.603V122.604V122.604V122.604V122.605V122.605V122.606V122.606V122.606V122.607V122.607V122.607V122.608V122.608V122.609V122.609V122.609V122.61V122.61V122.61V122.611V122.611V122.612V122.612V122.612V122.613V122.613V122.614V122.614V122.614V122.615V122.615V122.616V122.616V122.617V122.617V122.617V122.618V122.618V122.619V122.619V122.62V122.62V122.62V122.621V122.621V122.622V122.622V122.623V122.623V122.624V122.624V122.624V122.625V122.625V122.626V122.626V122.627V122.627V122.628V122.628V122.629V122.629V122.63V122.63V122.63V122.631V122.631V122.632V122.632V122.633V122.633V122.634V122.634V122.635V122.635V122.636V122.636V122.637V122.637V122.638V122.638V122.639V122.639V122.64V122.64V122.641V122.641V122.642V122.643V122.643V122.644V122.661L200.241 122.678L200.603 125.033L200.603 125.033L200.603 125.036C200.641 125.263 200.6 125.409 200.544 125.501C200.486 125.595 200.398 125.655 200.304 125.687C200.175 125.73 200.099 125.748 200.039 125.756C199.978 125.765 199.926 125.765 199.833 125.765C199.661 125.765 199.449 125.647 199.186 125.386L197.471 123.399ZM197.831 123.042L197.839 123.054L197.849 123.065L199.569 125.058L200.06 125.626L199.97 124.881L199.699 122.616L199.698 122.607L199.696 122.599C199.659 122.411 199.68 122.281 199.725 122.185C199.769 122.089 199.846 122.006 199.954 121.933L201.215 121.212L201.331 121.146V121.013C201.331 120.92 201.293 120.794 201.243 120.682C201.19 120.563 201.108 120.424 200.992 120.308L200.981 120.297L200.969 120.287L199.067 118.838L199.061 118.834L199.055 118.83C198.838 118.685 198.686 118.465 198.607 118.15L198.605 118.141L198.602 118.133L197.787 115.688L197.782 115.672L197.774 115.658C197.667 115.443 197.556 115.332 197.46 115.236L197.46 115.236L197.252 115.028L197.101 115.28L196.286 116.638L196.281 116.646L196.277 116.654C196.213 116.783 196.127 116.848 196.027 116.875C195.92 116.903 195.77 116.894 195.573 116.816L193.854 116.092L193.536 115.958V116.304C193.536 116.306 193.536 116.309 193.536 116.312C193.536 116.346 193.535 116.423 193.572 116.497C193.591 116.535 193.615 116.564 193.633 116.584C193.645 116.597 193.659 116.611 193.672 116.625L195.016 118.954L195.02 118.961L195.024 118.967C195.181 119.203 195.239 119.491 195.178 119.673L195.173 119.688L195.17 119.704L194.808 121.697L194.804 121.717V121.738C194.804 121.879 194.866 122.074 194.942 122.225C194.981 122.304 195.032 122.388 195.095 122.455C195.152 122.515 195.251 122.598 195.388 122.601L197.167 122.69V122.692H197.167H197.167H197.167H197.167H197.167H197.167H197.167H197.167H197.167H197.167H197.167H197.167H197.167H197.167H197.167H197.167H197.167H197.167H197.167H197.167H197.167H197.167H197.167H197.167H197.167H197.167H197.167H197.167H197.167H197.167H197.167H197.167H197.167H197.167H197.168H197.168H197.168H197.168H197.168H197.168H197.168H197.168H197.168H197.168H197.168H197.168H197.168H197.168H197.168H197.168H197.168H197.168H197.168H197.168H197.168H197.168H197.168H197.168H197.168H197.168H197.169H197.169H197.169H197.169H197.169H197.169H197.169H197.169H197.169H197.169H197.169H197.169H197.169H197.169H197.169H197.169H197.169H197.169H197.169H197.17H197.17H197.17H197.17H197.17H197.17H197.17H197.17H197.17H197.17H197.17H197.17H197.17H197.17H197.17H197.17H197.171H197.171H197.171H197.171H197.171H197.171H197.171H197.171H197.171H197.171H197.171H197.171H197.171H197.172H197.172H197.172H197.172H197.172H197.172H197.172H197.172H197.172H197.172H197.172H197.172H197.172H197.172H197.173H197.173H197.173H197.173H197.173H197.173H197.173H197.173H197.173H197.173H197.173H197.173H197.174H197.174H197.174H197.174H197.174H197.174H197.174H197.174H197.174H197.174H197.174H197.174H197.175H197.175H197.175H197.175H197.175H197.175H197.175H197.175H197.175H197.175H197.175H197.176H197.176H197.176H197.176H197.176H197.176H197.176H197.176H197.176H197.176H197.176H197.177H197.177H197.177H197.177H197.177H197.177H197.177H197.177H197.177H197.177H197.177H197.178H197.178H197.178H197.178H197.178H197.178H197.178H197.178H197.179H197.179H197.179H197.179H197.179H197.179H197.179H197.179H197.179H197.18H197.18H197.18H197.18H197.18H197.18H197.18H197.18H197.18H197.18H197.181H197.181H197.181H197.181H197.181H197.181H197.181H197.181H197.182H197.182H197.182H197.182H197.182H197.182H197.182H197.182H197.182H197.182H197.183H197.183H197.183H197.183H197.183H197.183H197.183H197.183H197.183H197.184H197.184H197.184H197.184H197.184H197.184H197.184H197.184H197.185H197.185H197.185H197.185H197.185H197.185H197.185H197.185H197.186H197.186H197.186H197.186H197.186H197.186H197.186H197.186H197.186H197.187H197.187H197.187H197.187H197.187H197.187H197.187H197.187H197.188H197.188H197.188H197.188H197.188H197.188H197.188H197.188H197.189H197.189H197.189H197.189H197.189H197.189H197.189H197.189H197.19H197.19H197.19H197.19H197.19H197.19H197.19H197.19H197.19H197.191H197.191H197.191H197.191H197.191H197.191H197.191H197.192H197.192H197.192H197.192H197.192H197.192H197.192H197.192H197.193H197.193H197.193H197.193H197.193H197.193H197.193H197.193H197.194H197.194H197.194H197.194H197.194H197.194H197.194H197.194H197.195H197.195H197.195H197.195H197.195H197.195H197.195H197.195H197.195H197.196H197.196H197.196H197.196H197.196H197.196H197.196H197.196H197.197H197.197H197.197H197.197H197.197H197.197H197.197H197.197H197.197H197.198H197.198H197.198H197.198H197.198H197.198H197.198H197.198H197.198H197.199H197.199H197.199H197.199H197.199H197.199H197.199H197.199H197.199H197.2H197.2H197.2H197.2H197.2H197.2H197.2H197.2H197.2H197.2H197.201H197.201H197.201H197.201H197.201H197.201H197.201H197.201H197.201H197.202H197.202H197.202H197.202H197.202H197.202H197.202H197.202H197.202H197.202H197.203H197.203H197.203H197.203H197.203H197.203H197.203H197.203H197.203H197.203H197.204H197.204H197.204H197.204H197.204H197.204H197.204H197.204H197.204H197.204H197.204H197.204H197.205H197.205H197.205H197.205H197.205H197.205H197.205H197.205H197.205H197.205H197.205H197.205H197.205H197.205H197.206H197.206H197.206H197.206H197.206H197.206H197.206H197.206H197.206H197.206H197.206H197.206H197.206H197.206H197.206H197.206H197.206H197.207H197.207H197.207H197.207H197.207H197.207H197.207H197.207H197.207H197.207H197.207H197.207H197.207H197.207H197.207H197.207H197.207H197.207H197.207H197.207H197.207C197.296 122.692 197.418 122.723 197.54 122.789C197.661 122.854 197.766 122.944 197.831 123.042Z" fill="white" stroke="#16110D" stroke-width="0.458599"/>
<path d="M182.825 110.483L182.821 110.476L182.817 110.47C182.66 110.235 182.646 110.035 182.675 109.941C182.689 109.898 182.705 109.891 182.708 109.889C182.711 109.888 182.74 109.876 182.811 109.904L184.704 110.715C184.816 110.77 184.952 110.81 185.093 110.79C185.25 110.768 185.379 110.674 185.456 110.521L186.261 109.002C186.288 108.971 186.312 108.963 186.335 108.961C186.368 108.958 186.424 108.967 186.5 109.009C186.651 109.093 186.822 109.274 186.942 109.508L187.752 111.938L187.757 111.953L187.765 111.968C187.816 112.07 187.892 112.197 187.981 112.312C188.063 112.417 188.171 112.533 188.299 112.603L190.183 114.039C190.366 114.186 190.497 114.411 190.542 114.611C190.592 114.831 190.526 114.905 190.494 114.921L190.494 114.921L190.488 114.924L189.132 115.647C188.978 115.725 188.896 115.849 188.859 115.98C188.827 116.091 188.827 116.21 188.827 116.292C188.827 116.296 188.827 116.3 188.827 116.303V116.321L188.83 116.338L189.192 118.693L189.192 118.693L189.193 118.696C189.209 118.796 189.192 118.847 189.181 118.867C189.172 118.883 189.16 118.893 189.136 118.898C189.078 118.909 188.931 118.881 188.783 118.696L188.783 118.696L188.777 118.69L187.056 116.697L187.051 116.691L187.045 116.685C186.839 116.479 186.603 116.346 186.34 116.346V116.346L186.327 116.346L184.607 116.437L184.59 116.438L184.574 116.441C184.485 116.459 184.338 116.398 184.195 116.195C184.059 115.999 184 115.768 184.029 115.624L184.029 115.624L184.029 115.62L184.392 113.627L184.395 113.607V113.586C184.395 113.353 184.287 113.044 184.19 112.85L184.19 112.85L184.183 112.838L182.825 110.483Z" fill="white" stroke="#16110D" stroke-width="0.458599"/>
<path d="M189.461 116.412V116.699L189.502 116.675L189.826 118.784L189.826 118.784L189.827 118.787C189.864 119.014 189.823 119.159 189.767 119.251C189.711 119.343 189.626 119.403 189.535 119.434C189.207 119.516 189.128 119.516 189.065 119.516C189.062 119.516 189.059 119.516 189.057 119.516C188.884 119.516 188.672 119.397 188.409 119.136L186.694 117.15L186.689 117.143L186.683 117.138L186.558 117.013L186.517 116.972L186.506 116.961L186.503 116.957L186.502 116.957L186.502 116.957L186.502 116.956L186.502 116.956L186.34 117.119L186.502 116.956L186.429 116.884L186.328 116.89L184.613 116.98C184.525 116.979 184.406 116.947 184.286 116.883C184.165 116.817 184.06 116.728 183.994 116.629L183.982 116.61L183.966 116.594C183.741 116.37 183.593 115.992 183.666 115.624L183.666 115.624L183.667 115.62L184.029 113.627L184.033 113.607V113.586L184.033 113.583C184.033 113.537 184.033 113.473 184.017 113.394C184.001 113.313 183.97 113.226 183.918 113.121L183.919 113.121L183.912 113.109L182.553 110.755L182.553 110.755L182.551 110.751C182.438 110.563 182.38 110.333 182.38 110.122C182.38 109.905 182.441 109.749 182.517 109.673L182.533 109.657L182.545 109.638C182.591 109.569 182.661 109.527 182.772 109.511C182.885 109.495 183.029 109.509 183.19 109.548L184.986 110.267L185.168 110.339L185.268 110.172L186.08 108.818C186.157 108.705 186.219 108.65 186.284 108.617C186.352 108.583 186.447 108.562 186.611 108.562C186.761 108.562 186.934 108.639 187.099 108.794C187.263 108.948 187.401 109.164 187.481 109.402L188.296 111.847L188.301 111.863L188.308 111.877C188.415 112.092 188.527 112.203 188.622 112.299L188.623 112.299L188.634 112.31L188.646 112.32L190.548 113.769L190.549 113.77C190.689 113.874 190.827 114.064 190.931 114.293C191.034 114.52 191.091 114.759 191.091 114.945C191.091 115.032 191.062 115.127 191.011 115.212C190.959 115.299 190.897 115.353 190.856 115.374L190.856 115.373L190.845 115.38L189.577 116.104L189.69 116.303H189.461V116.303V116.303V116.303V116.303V116.303V116.303V116.303V116.303V116.303V116.303V116.303V116.303V116.303V116.303V116.303V116.304V116.304V116.304V116.304V116.304V116.304V116.304V116.304V116.304V116.304V116.304V116.304V116.304V116.304V116.304V116.304V116.304V116.304V116.304V116.304V116.304V116.304V116.304V116.304V116.304V116.304V116.304V116.304V116.304V116.304V116.304V116.304V116.304V116.304V116.304V116.304V116.304V116.304V116.304V116.304V116.304V116.304V116.304V116.304V116.304V116.304V116.304V116.304V116.304V116.304V116.304V116.304V116.304V116.304V116.304V116.304V116.304V116.304V116.304V116.304V116.304V116.304V116.304V116.304V116.304V116.304V116.304V116.304V116.304V116.305V116.305V116.305V116.305V116.305V116.305V116.305V116.305V116.305V116.305V116.305V116.305V116.305V116.305V116.305V116.305V116.305V116.305V116.305V116.305V116.305V116.305V116.305V116.305V116.305V116.305V116.305V116.305V116.305V116.306V116.306V116.306V116.306V116.306V116.306V116.306V116.306V116.306V116.306V116.306V116.306V116.306V116.306V116.306V116.306V116.306V116.306V116.306V116.306V116.307V116.307V116.307V116.307V116.307V116.307V116.307V116.307V116.307V116.307V116.307V116.307V116.307V116.307V116.307V116.307V116.307V116.308V116.308V116.308V116.308V116.308V116.308V116.308V116.308V116.308V116.308V116.308V116.308V116.308V116.309V116.309V116.309V116.309V116.309V116.309V116.309V116.309V116.309V116.309V116.309V116.309V116.309V116.31V116.31V116.31V116.31V116.31V116.31V116.31V116.31V116.31V116.31V116.311V116.311V116.311V116.311V116.311V116.311V116.311V116.311V116.311V116.311V116.312V116.312V116.312V116.312V116.312V116.312V116.312V116.312V116.312V116.313V116.313V116.313V116.313V116.313V116.313V116.313V116.313V116.313V116.314V116.314V116.314V116.314V116.314V116.314V116.314V116.314V116.315V116.315V116.315V116.315V116.315V116.315V116.315V116.316V116.316V116.316V116.316V116.316V116.316V116.316V116.317V116.317V116.317V116.317V116.317V116.317V116.317V116.318V116.318V116.318V116.318V116.318V116.318V116.319V116.319V116.319V116.319V116.319V116.319V116.32V116.32V116.32V116.32V116.32V116.32V116.321V116.321V116.321V116.321V116.321V116.321V116.322V116.322V116.322V116.322V116.322V116.323V116.323V116.323V116.323V116.323V116.324V116.324V116.324V116.324V116.324V116.325V116.325V116.325V116.325V116.325V116.326V116.326V116.326V116.326V116.326V116.327V116.327V116.327V116.327V116.327V116.328V116.328V116.328V116.328V116.329V116.329V116.329V116.329V116.329V116.33V116.33V116.33V116.33V116.331V116.331V116.331V116.331V116.332V116.332V116.332V116.332V116.333V116.333V116.333V116.333V116.334V116.334V116.334V116.334V116.335V116.335V116.335V116.335V116.336V116.336V116.336V116.337V116.337V116.337V116.337V116.338V116.338V116.338V116.338V116.339V116.339V116.339V116.34V116.34V116.34V116.34V116.341V116.341V116.341V116.342V116.342V116.342V116.343V116.343V116.343V116.343V116.344V116.344V116.344V116.345V116.345V116.345V116.346V116.346V116.346V116.347V116.347V116.347V116.348V116.348V116.348V116.349V116.349V116.349V116.35V116.35V116.35V116.351V116.351V116.351V116.352V116.352V116.352V116.353V116.353V116.353V116.354V116.354V116.354V116.355V116.355V116.356V116.356V116.356V116.357V116.357V116.357V116.358V116.358V116.359V116.359V116.359V116.36V116.36V116.361V116.361V116.361V116.362V116.362V116.362V116.363V116.363V116.364V116.364V116.365V116.365V116.365V116.366V116.366V116.367V116.367V116.367V116.368V116.368V116.369V116.369V116.37V116.37V116.37V116.371V116.371V116.372V116.372V116.373V116.373V116.373V116.374V116.374V116.375V116.375V116.376V116.376V116.377V116.377V116.378V116.378V116.379V116.379V116.379V116.38V116.38V116.381V116.381V116.382V116.382V116.383V116.383V116.384V116.384V116.385V116.385V116.386V116.386V116.387V116.387V116.388V116.388V116.389V116.389V116.39V116.39V116.391V116.391V116.392V116.392V116.393V116.393V116.394V116.412ZM186.328 116.442L186.327 116.442H186.34C186.429 116.442 186.55 116.473 186.672 116.539C186.794 116.605 186.898 116.694 186.964 116.793L186.972 116.805L186.981 116.816L188.702 118.808L189.192 119.376L189.103 118.631L188.831 116.367L188.83 116.358L188.829 116.349C188.791 116.162 188.813 116.031 188.857 115.935C188.901 115.84 188.977 115.758 189.084 115.685L190.432 114.966L190.554 114.901V114.764C190.554 114.67 190.516 114.544 190.466 114.433C190.413 114.313 190.331 114.174 190.215 114.058L190.204 114.047L190.192 114.038L188.29 112.589L188.284 112.584L188.278 112.58C188.061 112.435 187.909 112.216 187.83 111.9L187.828 111.892L187.825 111.883L187.01 109.438L187.005 109.423L186.997 109.408C186.89 109.194 186.779 109.082 186.684 108.987L186.683 108.986L186.475 108.778L186.324 109.03L185.509 110.389L185.504 110.396L185.5 110.404C185.436 110.533 185.35 110.598 185.25 110.625C185.144 110.653 184.993 110.645 184.796 110.566L183.078 109.843L182.759 109.709V110.054C182.759 110.056 182.759 110.059 182.759 110.062C182.759 110.096 182.758 110.173 182.795 110.247C182.814 110.285 182.838 110.315 182.856 110.335C182.868 110.348 182.882 110.362 182.896 110.376L184.239 112.705L184.243 112.711L184.247 112.717C184.405 112.954 184.462 113.242 184.401 113.423L184.396 113.439L184.393 113.455L184.031 115.447L184.027 115.468V115.488C184.027 115.629 184.089 115.824 184.165 115.976C184.204 116.055 184.255 116.138 184.318 116.206C184.375 116.266 184.474 116.349 184.611 116.352L186.328 116.442Z" fill="white" stroke="#16110D" stroke-width="0.458599"/>
<path d="M175.493 102.734L175.493 102.734L175.495 102.73C175.504 102.713 175.506 102.712 175.519 102.711L175.52 102.711C175.548 102.708 175.607 102.717 175.693 102.762C175.859 102.85 176.048 103.034 176.165 103.259L176.974 105.689L176.979 105.704L176.987 105.719C177.038 105.821 177.114 105.947 177.203 106.062C177.285 106.167 177.393 106.283 177.521 106.353L179.405 107.789C179.588 107.936 179.719 108.161 179.764 108.361C179.815 108.582 179.748 108.655 179.716 108.672L179.716 108.671L179.71 108.674L178.354 109.398C178.2 109.476 178.118 109.6 178.081 109.731C178.049 109.841 178.049 109.96 178.049 110.043C178.049 110.046 178.049 110.05 178.049 110.054V110.072L178.052 110.089L178.414 112.444L178.414 112.444L178.415 112.447C178.431 112.546 178.414 112.597 178.403 112.618C178.394 112.634 178.382 112.644 178.358 112.648C178.3 112.66 178.153 112.632 178.005 112.447L178.005 112.447L177.999 112.44L176.279 110.448L176.273 110.441L176.267 110.435C176.061 110.229 175.825 110.096 175.562 110.096V110.096L175.55 110.097L173.829 110.187L173.812 110.188L173.796 110.191C173.708 110.209 173.56 110.149 173.417 109.945C173.281 109.75 173.222 109.519 173.251 109.374L173.251 109.374L173.251 109.37L173.614 107.378L173.617 107.358V107.337C173.617 107.104 173.509 106.794 173.412 106.6L173.412 106.6L173.406 106.588L172.047 104.233L172.043 104.227L172.039 104.221C171.882 103.986 171.868 103.786 171.898 103.692C171.911 103.649 171.928 103.641 171.93 103.64C171.934 103.638 171.962 103.627 172.033 103.654L173.926 104.466C174.038 104.521 174.175 104.561 174.315 104.541C174.472 104.519 174.601 104.425 174.679 104.272L175.493 102.734Z" fill="white" stroke="#16110D" stroke-width="0.458599"/>
<path d="M175.826 110.9L175.821 110.894L175.815 110.888L175.69 110.764L175.649 110.723L175.638 110.711L175.635 110.708L175.634 110.707L175.634 110.707L175.634 110.707L175.634 110.707L175.471 110.869L175.634 110.707L175.561 110.635L175.459 110.64L173.745 110.73C173.657 110.729 173.538 110.698 173.418 110.633C173.297 110.568 173.192 110.478 173.126 110.38L173.114 110.361L173.098 110.345C172.873 110.12 172.724 109.743 172.798 109.374L172.798 109.374L172.799 109.37L173.161 107.378L173.165 107.358V107.337L173.165 107.333C173.165 107.288 173.165 107.224 173.149 107.145C173.133 107.064 173.102 106.976 173.05 106.872L173.05 106.872L173.044 106.86L171.685 104.505L171.685 104.505L171.683 104.502C171.57 104.314 171.512 104.083 171.512 103.873C171.512 103.656 171.573 103.499 171.649 103.423L171.665 103.407L171.677 103.388C171.723 103.319 171.793 103.278 171.904 103.262C172.017 103.246 172.16 103.26 172.322 103.299L174.118 104.017L174.3 104.09L174.4 103.923L175.212 102.569C175.288 102.456 175.351 102.4 175.415 102.368C175.483 102.334 175.579 102.313 175.743 102.313C175.893 102.313 176.066 102.389 176.231 102.545C176.395 102.699 176.533 102.915 176.612 103.153L177.427 105.598L177.433 105.613L177.44 105.628C177.547 105.842 177.659 105.954 177.754 106.049L177.755 106.05L177.765 106.061L177.778 106.07L179.68 107.519L179.681 107.52C179.821 107.625 179.959 107.814 180.063 108.043C180.166 108.27 180.223 108.51 180.223 108.695C180.223 108.782 180.194 108.878 180.143 108.962C180.091 109.049 180.029 109.104 179.988 109.124L179.988 109.124L179.977 109.13L178.709 109.855L178.593 109.921V110.054V110.054V110.054V110.054V110.054V110.054V110.054V110.054V110.054V110.054V110.054V110.054V110.054V110.054V110.054V110.054V110.054V110.054V110.054V110.054V110.054V110.054V110.054V110.054V110.054V110.054V110.054V110.054V110.054V110.054V110.054V110.054V110.054V110.054V110.054V110.054V110.054V110.054V110.054V110.054V110.054V110.054V110.054V110.054V110.054V110.054V110.054V110.054V110.054V110.054V110.054V110.054V110.054V110.054V110.054V110.054V110.054V110.054V110.055V110.055V110.055V110.055V110.055V110.055V110.055V110.055V110.055V110.055V110.055V110.055V110.055V110.055V110.055V110.055V110.055V110.055V110.055V110.055V110.055V110.055V110.055V110.055V110.055V110.055V110.055V110.055V110.055V110.055V110.055V110.055V110.055V110.055V110.055V110.055V110.055V110.055V110.055V110.055V110.056V110.056V110.056V110.056V110.056V110.056V110.056V110.056V110.056V110.056V110.056V110.056V110.056V110.056V110.056V110.056V110.056V110.056V110.056V110.056V110.056V110.056V110.056V110.056V110.056V110.057V110.057V110.057V110.057V110.057V110.057V110.057V110.057V110.057V110.057V110.057V110.057V110.057V110.057V110.057V110.057V110.057V110.057V110.058V110.058V110.058V110.058V110.058V110.058V110.058V110.058V110.058V110.058V110.058V110.058V110.058V110.058V110.058V110.059V110.059V110.059V110.059V110.059V110.059V110.059V110.059V110.059V110.059V110.059V110.059V110.059V110.06V110.06V110.06V110.06V110.06V110.06V110.06V110.06V110.06V110.06V110.06V110.06V110.061V110.061V110.061V110.061V110.061V110.061V110.061V110.061V110.061V110.061V110.062V110.062V110.062V110.062V110.062V110.062V110.062V110.062V110.062V110.062V110.063V110.063V110.063V110.063V110.063V110.063V110.063V110.063V110.063V110.064V110.064V110.064V110.064V110.064V110.064V110.064V110.064V110.065V110.065V110.065V110.065V110.065V110.065V110.065V110.065V110.066V110.066V110.066V110.066V110.066V110.066V110.066V110.067V110.067V110.067V110.067V110.067V110.067V110.067V110.068V110.068V110.068V110.068V110.068V110.068V110.069V110.069V110.069V110.069V110.069V110.069V110.069V110.07V110.07V110.07V110.07V110.07V110.07V110.071V110.071V110.071V110.071V110.071V110.072V110.072V110.072V110.072V110.072V110.072V110.073V110.073V110.073V110.073V110.073V110.074V110.074V110.074V110.074V110.074V110.075V110.075V110.075V110.075V110.075V110.076V110.076V110.076V110.076V110.076V110.077V110.077V110.077V110.077V110.077V110.078V110.078V110.078V110.078V110.078V110.079V110.079V110.079V110.079V110.08V110.08V110.08V110.08V110.081V110.081V110.081V110.081V110.081V110.082V110.082V110.082V110.082V110.083V110.083V110.083V110.083V110.084V110.084V110.084V110.084V110.085V110.085V110.085V110.086V110.086V110.086V110.086V110.087V110.087V110.087V110.087V110.088V110.088V110.088V110.088V110.089V110.089V110.089V110.09V110.09V110.09V110.09V110.091V110.091V110.091V110.092V110.092V110.092V110.093V110.093V110.093V110.093V110.094V110.094V110.094V110.095V110.095V110.095V110.096V110.096V110.096V110.097V110.097V110.097V110.098V110.098V110.098V110.099V110.099V110.099V110.1V110.1V110.1V110.101V110.101V110.101V110.102V110.102V110.102V110.103V110.103V110.103V110.104V110.104V110.104V110.105V110.105V110.105V110.106V110.106V110.107V110.107V110.107V110.108V110.108V110.108V110.109V110.109V110.11V110.11V110.11V110.111V110.111V110.112V110.112V110.112V110.113V110.113V110.113V110.114V110.114V110.115V110.115V110.116V110.116V110.116V110.117V110.117V110.118V110.118V110.118V110.119V110.119V110.12V110.12V110.121V110.121V110.121V110.122V110.122V110.123V110.123V110.124V110.124V110.125V110.125V110.125V110.126V110.126V110.127V110.127V110.128V110.128V110.129V110.129V110.13V110.13V110.131V110.131V110.131V110.132V110.132V110.133V110.133V110.134V110.134V110.135V110.135V110.136V110.136V110.137V110.137V110.138V110.138V110.139V110.139V110.14V110.14V110.141V110.141V110.142V110.142V110.143V110.144V110.144V110.145V110.162L178.596 110.179L178.958 112.534L178.958 112.534L178.958 112.537C178.996 112.764 178.955 112.91 178.899 113.002C178.841 113.096 178.753 113.157 178.659 113.188C178.53 113.231 178.454 113.249 178.394 113.257C178.333 113.266 178.281 113.266 178.188 113.266C178.016 113.266 177.804 113.148 177.541 112.887L175.826 110.9ZM176.186 110.544L176.194 110.555L176.204 110.566L177.924 112.559L178.415 113.127L178.325 112.382L178.054 110.117L178.053 110.108L178.051 110.1C178.014 109.912 178.035 109.782 178.08 109.686C178.124 109.59 178.2 109.509 178.307 109.436L179.655 108.717L179.776 108.652V108.514C179.776 108.421 179.738 108.295 179.688 108.183C179.635 108.064 179.553 107.925 179.437 107.809L179.426 107.798L179.414 107.789L177.512 106.339L177.507 106.335L177.5 106.331C177.283 106.186 177.131 105.966 177.052 105.651L177.05 105.642L177.047 105.634L176.232 103.189L176.227 103.173L176.22 103.159C176.113 102.944 176.001 102.833 175.906 102.737L175.905 102.737L175.698 102.529L175.546 102.781L174.731 104.139L174.727 104.147L174.723 104.155C174.658 104.284 174.572 104.349 174.473 104.376C174.366 104.404 174.215 104.395 174.019 104.317L172.3 103.593L171.982 103.459V103.805C171.982 103.807 171.982 103.81 171.982 103.813C171.981 103.847 171.98 103.924 172.017 103.998C172.036 104.036 172.061 104.065 172.079 104.085C172.09 104.098 172.104 104.112 172.118 104.126L173.461 106.455L173.465 106.462L173.469 106.468C173.627 106.704 173.684 106.992 173.624 107.174L173.619 107.189L173.616 107.205L173.253 109.198L173.25 109.218V109.239C173.25 109.38 173.311 109.575 173.387 109.726C173.427 109.805 173.478 109.889 173.541 109.956C173.597 110.016 173.697 110.099 173.834 110.102L175.522 110.191V110.193H175.522H175.522H175.522H175.522H175.522H175.522H175.522H175.522H175.522H175.522H175.522H175.522H175.522H175.522H175.522H175.522H175.522H175.522H175.522H175.522H175.522H175.522H175.522H175.522H175.522H175.522H175.522H175.522H175.522H175.522H175.522H175.522H175.522H175.522H175.522H175.523H175.523H175.523H175.523H175.523H175.523H175.523H175.523H175.523H175.523H175.523H175.523H175.523H175.523H175.523H175.523H175.523H175.523H175.523H175.523H175.523H175.523H175.523H175.523H175.523H175.523H175.524H175.524H175.524H175.524H175.524H175.524H175.524H175.524H175.524H175.524H175.524H175.524H175.524H175.524H175.524H175.524H175.524H175.524H175.525H175.525H175.525H175.525H175.525H175.525H175.525H175.525H175.525H175.525H175.525H175.525H175.525H175.525H175.525H175.525H175.526H175.526H175.526H175.526H175.526H175.526H175.526H175.526H175.526H175.526H175.526H175.526H175.526H175.526H175.527H175.527H175.527H175.527H175.527H175.527H175.527H175.527H175.527H175.527H175.527H175.527H175.527H175.527H175.528H175.528H175.528H175.528H175.528H175.528H175.528H175.528H175.528H175.528H175.528H175.529H175.529H175.529H175.529H175.529H175.529H175.529H175.529H175.529H175.529H175.529H175.529H175.53H175.53H175.53H175.53H175.53H175.53H175.53H175.53H175.53H175.53H175.53H175.531H175.531H175.531H175.531H175.531H175.531H175.531H175.531H175.531H175.531H175.531H175.532H175.532H175.532H175.532H175.532H175.532H175.532H175.532H175.532H175.532H175.532H175.533H175.533H175.533H175.533H175.533H175.533H175.533H175.533H175.533H175.534H175.534H175.534H175.534H175.534H175.534H175.534H175.534H175.535H175.535H175.535H175.535H175.535H175.535H175.535H175.535H175.535H175.535H175.536H175.536H175.536H175.536H175.536H175.536H175.536H175.536H175.537H175.537H175.537H175.537H175.537H175.537H175.537H175.537H175.537H175.537H175.538H175.538H175.538H175.538H175.538H175.538H175.538H175.538H175.538H175.539H175.539H175.539H175.539H175.539H175.539H175.539H175.539H175.539H175.54H175.54H175.54H175.54H175.54H175.54H175.54H175.541H175.541H175.541H175.541H175.541H175.541H175.541H175.541H175.541H175.542H175.542H175.542H175.542H175.542H175.542H175.542H175.542H175.542H175.543H175.543H175.543H175.543H175.543H175.543H175.543H175.544H175.544H175.544H175.544H175.544H175.544H175.544H175.544H175.545H175.545H175.545H175.545H175.545H175.545H175.545H175.545H175.545H175.546H175.546H175.546H175.546H175.546H175.546H175.546H175.547H175.547H175.547H175.547H175.547H175.547H175.547H175.547H175.548H175.548H175.548H175.548H175.548H175.548H175.548H175.548H175.549H175.549H175.549H175.549H175.549H175.549H175.549H175.549H175.55H175.55H175.55H175.55H175.55H175.55H175.55H175.55H175.55H175.551H175.551H175.551H175.551H175.551H175.551H175.551H175.551H175.551H175.552H175.552H175.552H175.552H175.552H175.552H175.552H175.552H175.553H175.553H175.553H175.553H175.553H175.553H175.553H175.553H175.553H175.554H175.554H175.554H175.554H175.554H175.554H175.554H175.554H175.554H175.554H175.555H175.555H175.555H175.555H175.555H175.555H175.555H175.555H175.555H175.556H175.556H175.556H175.556H175.556H175.556H175.556H175.556H175.556H175.556H175.557H175.557H175.557H175.557H175.557H175.557H175.557H175.557H175.557H175.558H175.558H175.558H175.558H175.558H175.558H175.558H175.558H175.558H175.558H175.559H175.559H175.559H175.559H175.559H175.559H175.559H175.559H175.559H175.559H175.559H175.559H175.56H175.56H175.56H175.56H175.56H175.56H175.56H175.56H175.56H175.56H175.56H175.56H175.56H175.56H175.561H175.561H175.561H175.561H175.561H175.561H175.561H175.561H175.561H175.561H175.561H175.561H175.561H175.561H175.561H175.561H175.561H175.561H175.562H175.562H175.562H175.562H175.562H175.562H175.562H175.562H175.562H175.562H175.562H175.562H175.562H175.562H175.562H175.562H175.562H175.562H175.562H175.562C175.651 110.193 175.773 110.224 175.895 110.29C176.016 110.355 176.121 110.445 176.186 110.544Z" fill="white" stroke="#16110D" stroke-width="0.458599"/>
<path d="M161.179 97.984L161.176 97.9776L161.172 97.9714C161.015 97.7361 161 97.5365 161.03 97.4424C161.043 97.3997 161.06 97.3917 161.063 97.3905C161.066 97.389 161.094 97.3771 161.165 97.4049L163.058 98.2163C163.17 98.2713 163.307 98.3117 163.447 98.2917C163.604 98.2692 163.734 98.1752 163.811 98.0227L164.615 96.5037C164.642 96.4718 164.667 96.4638 164.689 96.4618C164.723 96.4587 164.778 96.4679 164.854 96.5103C165.005 96.5942 165.177 96.7754 165.297 97.0097L166.107 99.4391L166.112 99.4546L166.119 99.4692C166.17 99.5715 166.246 99.6978 166.336 99.8131C166.417 99.9177 166.526 100.034 166.653 100.104L168.538 101.54C168.721 101.687 168.851 101.912 168.897 102.112C168.947 102.332 168.88 102.406 168.848 102.422L168.848 102.422L168.843 102.425L167.487 103.148C167.332 103.226 167.25 103.351 167.213 103.481C167.182 103.592 167.182 103.711 167.182 103.793C167.182 103.797 167.182 103.801 167.182 103.805V103.822L167.184 103.839L167.547 106.194L167.547 106.194L167.547 106.197C167.564 106.297 167.547 106.348 167.535 106.368C167.526 106.384 167.514 106.394 167.491 106.399C167.433 106.41 167.285 106.383 167.137 106.197L167.137 106.197L167.132 106.191L165.411 104.198L165.405 104.192L165.4 104.186C165.193 103.98 164.957 103.847 164.694 103.847V103.847L164.682 103.847L162.961 103.938L162.945 103.939L162.928 103.942C162.84 103.96 162.692 103.899 162.55 103.696C162.413 103.5 162.354 103.269 162.383 103.125L162.383 103.125L162.384 103.121L162.746 101.129L162.75 101.108V101.087C162.75 100.854 162.641 100.545 162.544 100.351L162.545 100.351L162.538 100.339L161.179 97.984Z" fill="white" stroke="#16110D" stroke-width="0.458599"/>
<path d="M165.049 104.651L165.043 104.645L165.037 104.639L164.913 104.514L164.872 104.473L164.86 104.462L164.857 104.459L164.857 104.458L164.856 104.458L164.856 104.458L164.856 104.458L164.694 104.62L164.856 104.458L164.784 104.385L164.682 104.391L162.968 104.481C162.879 104.48 162.76 104.448 162.641 104.384C162.519 104.319 162.415 104.229 162.349 104.13L162.336 104.111L162.32 104.095C162.096 103.871 161.947 103.494 162.021 103.125L162.021 103.125L162.022 103.121L162.384 101.129L162.388 101.108V101.088L162.388 101.084C162.388 101.039 162.388 100.974 162.372 100.895C162.356 100.814 162.325 100.727 162.273 100.623L162.273 100.622L162.266 100.611L160.908 98.2558L160.908 98.2558L160.906 98.2524C160.793 98.0642 160.735 97.8338 160.735 97.6231C160.735 97.4062 160.795 97.2501 160.871 97.1739L160.887 97.1579L160.9 97.139C160.946 97.07 161.016 97.0282 161.126 97.0124C161.24 96.9961 161.383 97.0103 161.544 97.0495L163.341 97.7681L163.522 97.8406L163.623 97.6732L164.435 96.3195C164.511 96.2062 164.574 96.151 164.638 96.1187C164.706 96.0847 164.801 96.0636 164.966 96.0636C165.116 96.0636 165.289 96.1401 165.454 96.2957C165.617 96.4496 165.756 96.6657 165.835 96.9031L166.65 99.3486L166.655 99.364L166.663 99.3786C166.77 99.593 166.881 99.7047 166.977 99.7998L166.977 99.8005L166.988 99.8114L167 99.8207L168.902 101.27L168.904 101.271C169.043 101.376 169.181 101.565 169.285 101.794C169.389 102.021 169.446 102.26 169.446 102.446C169.446 102.533 169.416 102.628 169.365 102.713C169.313 102.8 169.252 102.854 169.21 102.875L169.21 102.875L169.199 102.881L167.931 103.606L167.816 103.672V103.805V103.805V103.805V103.805V103.805V103.805V103.805V103.805V103.805V103.805V103.805V103.805V103.805V103.805V103.805V103.805V103.805V103.805V103.805V103.805V103.805V103.805V103.805V103.805V103.805V103.805V103.805V103.805V103.805V103.805V103.805V103.805V103.805V103.805V103.805V103.805V103.805V103.805V103.805V103.805V103.805V103.805V103.805V103.805V103.805V103.805V103.805V103.805V103.805V103.805V103.805V103.805V103.805V103.805V103.805V103.805V103.805V103.805V103.805V103.805V103.805V103.805V103.805V103.805V103.805V103.805V103.805V103.805V103.805V103.805V103.805V103.805V103.805V103.805V103.805V103.805V103.805V103.806V103.806V103.806V103.806V103.806V103.806V103.806V103.806V103.806V103.806V103.806V103.806V103.806V103.806V103.806V103.806V103.806V103.806V103.806V103.806V103.806V103.806V103.806V103.806V103.806V103.806V103.806V103.806V103.806V103.806V103.806V103.806V103.807V103.807V103.807V103.807V103.807V103.807V103.807V103.807V103.807V103.807V103.807V103.807V103.807V103.807V103.807V103.807V103.807V103.807V103.807V103.807V103.807V103.808V103.808V103.808V103.808V103.808V103.808V103.808V103.808V103.808V103.808V103.808V103.808V103.808V103.808V103.808V103.808V103.808V103.809V103.809V103.809V103.809V103.809V103.809V103.809V103.809V103.809V103.809V103.809V103.809V103.809V103.809V103.809V103.81V103.81V103.81V103.81V103.81V103.81V103.81V103.81V103.81V103.81V103.81V103.81V103.811V103.811V103.811V103.811V103.811V103.811V103.811V103.811V103.811V103.811V103.811V103.812V103.812V103.812V103.812V103.812V103.812V103.812V103.812V103.812V103.812V103.813V103.813V103.813V103.813V103.813V103.813V103.813V103.813V103.813V103.814V103.814V103.814V103.814V103.814V103.814V103.814V103.814V103.814V103.815V103.815V103.815V103.815V103.815V103.815V103.815V103.815V103.816V103.816V103.816V103.816V103.816V103.816V103.816V103.817V103.817V103.817V103.817V103.817V103.817V103.817V103.817V103.818V103.818V103.818V103.818V103.818V103.818V103.819V103.819V103.819V103.819V103.819V103.819V103.819V103.82V103.82V103.82V103.82V103.82V103.82V103.821V103.821V103.821V103.821V103.821V103.821V103.822V103.822V103.822V103.822V103.822V103.823V103.823V103.823V103.823V103.823V103.823V103.824V103.824V103.824V103.824V103.824V103.825V103.825V103.825V103.825V103.825V103.826V103.826V103.826V103.826V103.826V103.827V103.827V103.827V103.827V103.827V103.828V103.828V103.828V103.828V103.828V103.829V103.829V103.829V103.829V103.83V103.83V103.83V103.83V103.83V103.831V103.831V103.831V103.831V103.832V103.832V103.832V103.832V103.833V103.833V103.833V103.833V103.834V103.834V103.834V103.834V103.835V103.835V103.835V103.835V103.836V103.836V103.836V103.836V103.837V103.837V103.837V103.837V103.838V103.838V103.838V103.839V103.839V103.839V103.839V103.84V103.84V103.84V103.841V103.841V103.841V103.841V103.842V103.842V103.842V103.843V103.843V103.843V103.843V103.844V103.844V103.844V103.845V103.845V103.845V103.846V103.846V103.846V103.847V103.847V103.847V103.848V103.848V103.848V103.848V103.849V103.849V103.849V103.85V103.85V103.85V103.851V103.851V103.852V103.852V103.852V103.853V103.853V103.853V103.854V103.854V103.854V103.855V103.855V103.855V103.856V103.856V103.856V103.857V103.857V103.858V103.858V103.858V103.859V103.859V103.859V103.86V103.86V103.861V103.861V103.861V103.862V103.862V103.863V103.863V103.863V103.864V103.864V103.865V103.865V103.865V103.866V103.866V103.867V103.867V103.867V103.868V103.868V103.869V103.869V103.869V103.87V103.87V103.871V103.871V103.872V103.872V103.873V103.873V103.873V103.874V103.874V103.875V103.875V103.876V103.876V103.877V103.877V103.877V103.878V103.878V103.879V103.879V103.88V103.88V103.881V103.881V103.882V103.882V103.883V103.883V103.884V103.884V103.885V103.885V103.886V103.886V103.886V103.887V103.887V103.888V103.888V103.889V103.89V103.89V103.891V103.891V103.892V103.892V103.893V103.893V103.894V103.894V103.895V103.895V103.913L167.818 103.93L168.181 106.285L168.181 106.285L168.181 106.288C168.219 106.515 168.178 106.661 168.121 106.753C168.065 106.844 167.98 106.904 167.89 106.936C167.561 107.017 167.483 107.017 167.419 107.017C167.416 107.017 167.414 107.017 167.411 107.017C167.239 107.017 167.027 106.899 166.764 106.637L165.049 104.651ZM164.683 104.034L164.683 104.034H164.694C164.783 104.034 164.905 104.065 165.027 104.131C165.148 104.196 165.253 104.286 165.318 104.385L165.326 104.397L165.336 104.407L167.056 106.4L167.547 106.968L167.458 106.223L167.186 103.958L167.185 103.95L167.183 103.941C167.146 103.754 167.167 103.623 167.212 103.527C167.256 103.431 167.333 103.349 167.441 103.275L168.702 102.555L168.818 102.489V102.355C168.818 102.262 168.78 102.136 168.73 102.025C168.677 101.905 168.595 101.766 168.479 101.65L168.468 101.639L168.456 101.63L166.554 100.181L166.548 100.176L166.542 100.172C166.325 100.027 166.173 99.8076 166.094 99.4922L166.092 99.4836L166.089 99.4753L165.274 97.0299L165.269 97.0144L165.261 96.9998C165.154 96.7854 165.043 96.6738 164.947 96.5786L164.947 96.5779L164.739 96.3702L164.588 96.6221L163.773 97.9807L163.768 97.9882L163.764 97.9961C163.7 98.125 163.614 98.1902 163.514 98.2167C163.407 98.2452 163.257 98.2365 163.06 98.1582L161.342 97.4345L161.023 97.3004V97.6458C161.023 97.6482 161.023 97.651 161.023 97.6542C161.023 97.6881 161.022 97.7648 161.059 97.8389C161.078 97.8772 161.102 97.9064 161.12 97.9265C161.132 97.9395 161.146 97.9535 161.16 97.9676L162.503 100.296L162.507 100.303L162.511 100.309C162.669 100.546 162.726 100.834 162.665 101.015L162.66 101.03L162.657 101.046L162.295 103.039L162.291 103.059V103.08C162.291 103.221 162.353 103.416 162.429 103.568C162.468 103.647 162.519 103.73 162.582 103.797C162.639 103.858 162.739 103.94 162.876 103.943L164.683 104.034Z" fill="white" stroke="#16110D" stroke-width="0.458599"/>
<path d="M181.806 55.911C187.113 58.8178 191.35 66.051 191.286 72.0504C191.275 72.6405 191.214 73.1796 191.128 73.7127L191.137 73.7276L191.098 73.9114C191.061 74.1343 191.009 74.3662 190.947 74.5832L188.906 83.4403C188.575 85.0218 187.769 86.1536 186.636 86.7295L187.005 90.4638C187.844 90.9243 188.807 91.4537 189.895 92.0518C195.643 95.2069 198.595 103.829 199.97 109.417C200.053 109.772 200.093 110.091 200.101 110.389L200.283 110.485C202.335 111.612 203.808 110.114 203.185 107.555C201.825 101.958 198.873 93.3351 193.125 90.18C192.013 89.5759 191.074 89.0525 190.235 88.5919L189.866 84.8577C190.99 84.2667 191.805 83.15 192.136 81.5685L194.177 72.7113C194.239 72.4944 194.284 72.2865 194.328 72.0395L194.367 71.8558L194.359 71.8408C194.453 71.3227 194.505 70.7686 194.516 70.1786C194.596 64.1701 190.343 56.9459 185.036 54.0391C181.565 52.1432 178.52 52.5785 176.799 54.764C178.258 54.5631 179.971 54.9001 181.806 55.911Z" fill="#16110D"/>
<path d="M172.698 83.0723C173.802 83.6803 174.77 84.2031 175.605 84.6804L178.867 82.8156C178.84 82.7699 176.021 81.2744 175.994 81.2288C175.985 81.2135 175.969 81.2227 175.96 81.2075C172.659 79.3987 170.206 80.3263 168.441 82.204C169.654 81.9521 171.065 82.1786 172.698 83.0723Z" fill="#007550"/>
<path d="M203.764 107.651C202.192 101.269 199.124 92.9965 193.317 89.8102L190.669 88.3633L190.354 85.3256C191.192 84.7801 191.831 83.9659 192.254 82.9313C192.39 82.5895 192.508 82.2174 192.584 81.8092L194.602 72.9271C194.654 72.6942 194.707 72.4614 194.768 72.2436L194.853 71.8505L194.899 71.6418L194.865 71.6207C194.93 71.1581 194.947 70.7227 194.965 70.2874C195.032 64.0717 190.593 56.5511 185.104 53.5457C184.911 53.4342 184.73 53.3771 184.546 53.2806C184.347 53.1932 184.163 53.0968 183.964 53.0094C183.773 52.9372 183.608 52.8709 183.417 52.7987C183.169 52.6993 182.913 52.6241 182.667 52.564C182.543 52.534 182.411 52.4889 182.288 52.4588C181.483 52.2757 180.694 52.2256 179.951 52.2902C179.935 52.2993 179.911 52.2933 179.911 52.2933C179.556 52.3362 179.21 52.3942 178.891 52.4975C178.835 52.5097 178.779 52.5218 178.732 52.5491C178.413 52.6524 178.119 52.7617 177.82 52.9344C177.788 52.9526 177.772 52.9617 177.741 52.9799C177.694 53.0072 177.653 53.0103 177.606 53.0376C176.992 53.3923 176.459 53.8829 176.01 54.4459C176.01 54.4459 176.01 54.4459 175.994 54.455L175.261 55.608C174.697 56.7637 174.398 58.1517 174.369 59.748C174.364 59.9536 174.368 60.1743 174.38 60.41L174.503 61.7975C174.553 62.133 174.603 62.4684 174.669 62.7948L176.482 73.6964C176.77 75.6156 177.525 77.6097 178.63 79.4823L178.339 81.6352C178.156 81.5387 177.972 81.4423 177.721 81.3036C177.171 81.0142 176.627 80.7007 176.409 80.5831L176.251 80.4927C176.125 80.4233 175.993 80.3782 175.868 80.3089C175.693 80.2276 175.534 80.1371 175.368 80.0708C175.203 80.0046 175.053 79.9292 174.896 79.8781C174.656 79.7938 174.425 79.7247 174.194 79.6555C174.047 79.6194 173.899 79.5834 173.76 79.5625C173.547 79.5235 173.318 79.4936 173.098 79.4789C172.984 79.4639 172.878 79.4641 172.764 79.4492C172.479 79.4315 172.196 79.4531 171.923 79.4898C171.842 79.496 171.754 79.5263 171.673 79.5325C171.465 79.5721 171.24 79.6209 171.024 79.6847C170.921 79.7242 170.825 79.7394 170.721 79.7789C170.69 79.7971 170.649 79.8002 170.618 79.8184C170.53 79.8487 170.461 79.9093 170.389 79.9306C170.15 80.0277 169.921 80.1399 169.685 80.2763C169.575 80.34 169.474 80.4187 169.348 80.4915C169.136 80.6339 168.925 80.7764 168.731 80.949C168.63 81.0277 168.522 81.1307 168.43 81.2245C168.29 81.3457 168.166 81.4578 168.035 81.594L167.016 82.8714C166.105 84.1879 165.431 85.6914 164.941 87.0072C164.163 89.1579 165.688 92.5293 168.028 93.8104L199.902 111.3C200.187 111.46 200.493 111.587 200.789 111.659C201.571 111.875 202.303 111.756 202.888 111.317C203.356 110.965 203.67 110.46 203.807 109.834C203.984 109.205 203.961 108.449 203.764 107.651ZM178.102 54.1282C178.259 54.0372 178.433 53.9372 178.599 53.8614C178.646 53.8341 178.709 53.7977 178.765 53.7855C178.916 53.7187 179.084 53.6822 179.228 53.6397C179.3 53.6184 179.387 53.588 179.468 53.5818C179.596 53.5484 179.742 53.5451 179.895 53.5177C180.016 53.5084 180.128 53.4841 180.234 53.4839C180.339 53.4837 180.444 53.4836 180.55 53.4834C180.72 53.4862 180.866 53.4829 181.021 53.4947C181.07 53.5067 181.135 53.5097 181.185 53.5217C182.205 53.641 183.303 53.999 184.431 54.623C189.586 57.4566 193.724 64.503 193.677 70.3226C193.679 70.8275 193.626 71.3445 193.525 71.8889L193.502 72.0642C193.465 72.288 193.41 72.4816 193.358 72.7144L191.333 81.6207C191.262 81.9655 191.173 82.28 191.051 82.5734C190.7 83.4446 190.143 84.1106 189.392 84.4836L189.053 84.6595C189.166 84.351 189.255 84.0364 189.326 83.6917L191.353 74.8247C191.405 74.5918 191.474 74.3499 191.51 74.1261L191.647 73.5001L191.614 73.479C191.679 73.0164 191.696 72.581 191.713 72.1456C191.78 65.93 187.341 58.4095 181.852 55.4041C180.565 54.6896 179.286 54.2744 178.071 54.1463C178.086 54.1372 178.102 54.1282 178.102 54.1282ZM189.041 84.7472L189.477 89.1331L192.669 90.8935C198.375 94.0165 201.299 102.939 202.524 107.983C202.659 108.533 202.677 109.029 202.626 109.443C202.551 109.851 202.397 110.163 202.147 110.347C201.796 110.611 201.267 110.573 200.642 110.265C200.621 110.014 200.575 109.757 200.513 109.51C198.956 103.118 195.873 94.8548 190.066 91.6686L187.418 90.2216L187.102 87.1839C187.997 86.6262 188.651 85.8029 189.041 84.7472ZM171.026 80.9393C171.058 80.9211 171.098 80.918 171.13 80.8999C171.321 80.83 171.505 80.7844 171.689 80.7387C171.729 80.7356 171.745 80.7265 171.785 80.7234C171.994 80.6838 172.212 80.6593 172.423 80.659C172.438 80.6499 172.447 80.665 172.463 80.6559C172.69 80.6464 172.925 80.6521 173.163 80.6971C173.163 80.6971 173.179 80.688 173.188 80.7031C173.432 80.7239 173.679 80.784 173.925 80.844C173.925 80.844 173.925 80.844 173.95 80.85C174.501 80.9973 175.081 81.2292 175.674 81.5547L177.638 82.6279L175.67 83.7646L173.089 82.3599C172.429 81.9922 171.766 81.7272 171.116 81.5559C170.82 81.4838 170.533 81.4268 170.255 81.3849C170.471 81.179 170.732 81.0486 171.026 80.9393ZM166.144 87.3651C166.725 85.774 167.591 83.9165 168.817 82.5602C169.937 82.4193 171.152 82.6895 172.43 83.3888L175.622 85.1493L178.858 83.3001L179.44 82.9636L179.518 82.4526L179.96 79.1597L179.853 78.9785C178.752 77.1845 178.025 75.275 177.741 73.4344L175.936 62.5086C175.872 62.2215 175.832 61.9405 175.784 61.6443L175.745 61.3632C175.671 60.7375 175.642 60.1873 175.648 59.6976C175.675 57.9199 176.076 56.4531 176.83 55.3697C178.169 55.2436 179.689 55.6009 181.251 56.4601C186.407 59.2936 190.545 66.3401 190.497 72.1597C190.5 72.6645 190.446 73.1816 190.345 73.7259L190.322 73.9012C190.277 74.1099 190.231 74.3186 190.169 74.5363L188.145 83.4426C187.861 84.8216 187.2 85.8112 186.213 86.3207L185.826 86.5238L186.291 90.9943L189.483 92.7548C195.073 95.8235 197.98 104.432 199.263 109.503L168.725 92.7392C166.896 91.7505 165.579 88.9471 166.144 87.3651Z" fill="#16110D"/>
<path d="M238.742 88.4575L244.57 84.6943L238.742 84.3992L238.004 85.0633L237.487 87.0555L238.742 88.4575C238.668 88.4575 238.668 88.4575 238.742 88.4575Z" fill="#150035"/>
<path d="M238.594 89.1213L238.299 88.8262L236.897 87.2028L236.971 86.9077L237.488 84.7678L238.447 83.8824L244.866 84.1775L245.087 84.9154L244.718 85.1368L238.594 89.1213ZM238.078 86.9077L238.816 87.7193L242.874 85.063L238.89 84.9154L238.447 85.2843L238.078 86.9077Z" fill="#150035"/>
<path d="M248.48 55.5473L230.329 45.0694C229.296 44.4791 228.337 44.4053 227.673 44.7743L221.771 48.4637C221.771 48.4637 221.697 48.5375 221.771 48.5375C222.066 49.054 224.501 54.2191 224.722 55.1783C224.796 55.5473 225.607 59.5318 226.493 64.1067V66.3941C226.493 67.6485 226.935 69.1242 227.747 70.3786C228.706 75.1748 229.444 79.2331 229.518 79.3807L237.855 82.1846H238.446C238.446 82.1846 238.519 82.1109 238.446 82.1109L238.003 80.7827C237.855 80.1924 237.782 79.4545 237.782 78.7904L245.603 87.4974H245.676L251.431 83.9556C251.431 83.9556 251.505 83.9556 251.505 83.8818C252.169 83.439 252.612 82.6274 252.612 81.373V62.4095C252.464 59.9008 250.694 56.8017 248.48 55.5473Z" fill="#FFC856"/>
<path d="M245.528 88.0883C245.381 88.0883 245.233 88.0145 245.086 87.8669L238.371 80.4143C238.371 80.4881 238.371 80.6357 238.445 80.7095L238.888 81.9639C238.962 82.259 238.888 82.5542 238.593 82.7018L238.445 82.7756H237.634L228.927 79.824L228.853 79.5289L227.156 70.6006C226.345 69.1986 225.902 67.7229 225.902 66.3947V64.181C224.869 58.7945 224.205 55.6217 224.131 55.3265C223.984 54.7362 222.582 51.5634 221.254 48.7594C221.106 48.4643 221.254 48.1691 221.475 48.0215L227.378 44.3322C228.337 43.8894 229.444 43.9632 230.624 44.6273L248.775 55.1052C251.136 56.4333 252.981 59.7538 252.981 62.4101V81.4474C252.981 82.7756 252.538 83.8824 251.652 84.3989L245.824 88.0145C245.75 88.0145 245.676 88.0883 245.528 88.0883ZM237.043 77.3153L245.602 86.8339L250.988 83.5134L251.357 83.9562L251.062 83.5134C251.579 83.1445 251.874 82.4804 251.874 81.4474V62.4101C251.874 60.1227 250.177 57.1712 248.185 55.9906L230.034 45.5128C229.222 44.9962 228.411 44.9225 227.894 45.2176L222.36 48.6118C223.172 50.309 224.943 54.1459 225.164 54.9576C225.238 55.4003 226.197 60.0489 226.935 63.8859V64.0335V66.3209C226.935 67.4277 227.378 68.8297 228.042 70.0103L228.116 70.2316L229.813 78.9386L237.56 81.5212L237.339 80.8571C237.191 80.1192 237.117 79.4551 237.043 78.791V77.3153Z" fill="#150035"/>
<path d="M248.48 55.5479L231.289 45.5865L222.73 50.9731L241.176 60.713L245.013 61.3033L250.915 57.8353C250.177 56.8761 249.366 56.0644 248.48 55.5479Z" fill="white"/>
<path d="M245.086 61.8937L240.88 61.2296L221.623 51.0469L231.214 44.9963L248.701 55.1052C249.586 55.6217 250.472 56.5072 251.21 57.5402L251.505 57.9829L245.086 61.8937ZM241.323 60.1965L244.864 60.7869L250.103 57.6878C249.513 56.9499 248.922 56.4334 248.258 56.0644L231.288 46.2507L223.762 50.9731L241.323 60.1965Z" fill="#150035"/>
<path d="M252.296 62.4689L246.417 66.0078L246.987 66.9561L252.866 63.4172L252.296 62.4689Z" fill="#150035"/>
<path d="M252.067 76.144L246.188 79.6829L246.758 80.6312L252.637 77.0924L252.067 76.144Z" fill="#150035"/>
<path d="M224.5 48.6855L242.651 59.1634C244.791 60.4177 246.562 63.443 246.562 65.9518V84.9891C246.562 87.4978 244.791 88.5309 242.651 87.2765L240.585 86.0959C240.216 85.8745 239.921 86.0221 239.847 86.391C239.626 87.4978 238.814 89.6377 235.863 88.3833C235.273 88.1619 234.83 87.2765 234.978 86.6862C235.199 86.0221 235.42 85.0628 235.42 83.956C235.42 83.4395 235.051 82.8492 234.609 82.6278L224.5 76.7986C222.361 75.5442 220.59 72.5189 220.59 70.0101V50.9729C220.59 48.4641 222.361 47.4311 224.5 48.6855Z" fill="#FFC856"/>
<path d="M237.487 89.2691C236.97 89.2691 236.306 89.1215 235.642 88.8263C234.83 88.4574 234.24 87.2768 234.462 86.4651C234.609 85.8748 234.83 84.9894 234.83 83.8826C234.83 83.5874 234.609 83.1447 234.314 82.9971L224.206 77.1679C221.845 75.8397 220 72.5931 220 69.9367V50.9733C220 49.5713 220.516 48.4645 221.402 47.948C222.287 47.4314 223.468 47.5052 224.722 48.2431L242.873 58.721C245.234 60.0491 247.078 63.2958 247.078 65.9522V84.9894C247.078 86.3914 246.562 87.4982 245.677 88.0147C244.791 88.5312 243.611 88.4574 242.356 87.7195L240.29 86.5389C240.143 87.3506 239.7 88.3836 238.741 88.9739C238.446 89.1953 238.003 89.2691 237.487 89.2691ZM222.804 48.6858C222.509 48.6858 222.287 48.7596 222.066 48.9072C221.476 49.2023 221.181 49.9402 221.181 50.9733V70.0105C221.181 72.3717 222.804 75.1756 224.87 76.3562L234.978 82.1855C235.568 82.5544 236.011 83.2923 236.011 84.0301C236.011 85.2108 235.79 86.2438 235.568 86.9079C235.494 87.203 235.79 87.7933 236.159 87.9409C237.118 88.3098 237.856 88.3836 238.372 88.0885C239.036 87.7195 239.331 86.8341 239.405 86.3176C239.479 85.9486 239.7 85.7273 239.921 85.5797C240.217 85.4321 240.586 85.5059 240.954 85.6535L243.02 86.8341C243.906 87.3506 244.717 87.4244 245.234 87.1292C245.824 86.8341 246.119 86.0962 246.119 85.0632V65.9522C246.119 63.591 244.496 60.787 242.43 59.6064L224.279 49.1286C223.763 48.8334 223.246 48.6858 222.804 48.6858Z" fill="#150035"/>
<path d="M252.463 79.3811L246.635 82.9229V85.5055L246.266 87.055L251.357 83.9559L252.39 82.6278L252.537 81.2258L252.463 79.3811Z" fill="#150035"/>
</svg>
