<svg width="60" height="60" viewBox="0 0 60 60" fill="none" xmlns="http://www.w3.org/2000/svg">
<g clip-path="url(#clip0)">
<path d="M30 60C46.5685 60 60 46.5685 60 30C60 13.4315 46.5685 0 30 0C13.4315 0 0 13.4315 0 30C0 46.5685 13.4315 60 30 60Z" fill="#FF513F"/>
<path d="M38.8423 58.6753C51.0948 54.9014 60 43.4914 60 30.0006C60 29.2957 59.9738 28.5972 59.9261 27.9046L45.3554 13.334L33.5984 23.2742L10 29.8332L38.8423 58.6753Z" fill="#DE3624"/>
<path d="M10 29.8332L21.7851 36.9043L28.8562 48.6893L45.3554 13.334L10 29.8332Z" fill="#273B7A"/>
<path d="M45.3554 13.334L21.7851 36.9043L10 29.8332L45.3554 13.334Z" fill="#FFC856"/>
<path d="M45.3554 13.334L21.7852 36.9043L28.8563 48.6893L45.3554 13.334Z" fill="#DCA637"/>
</g>
<defs>
<clipPath id="clip0">
<rect width="60" height="60" fill="white"/>
</clipPath>
</defs>
</svg>
