<svg xmlns="http://www.w3.org/2000/svg" width="60" height="60" fill="none" xmlns:v="https://vecta.io/nano"><g clip-path="url(#A)"><path d="M30 60c16.57 0 30-13.43 30-30S46.57 0 30 0 0 13.432 0 30s13.432 30 30 30z" fill="#ff513f"/><path d="M38.842 58.675C51.095 54.9 60 43.49 60 30a30.49 30.49 0 0 0-.074-2.096l-14.57-14.57-11.757 9.94L10 29.833l28.842 28.842z" fill="#de3624"/><path d="M10 29.833l11.785 7.07 7.07 11.785 16.5-35.355L10 29.833z" fill="#273b7a"/><path d="M45.355 13.334l-23.57 23.57L10 29.833l35.355-16.5z" fill="#ffc856"/><path d="M45.355 13.334l-23.57 23.57 7.07 11.785 16.5-35.355z" fill="#dca637"/></g><defs><clipPath id="A"><path fill="#fff" d="M0 0h60v60H0z"/></clipPath></defs></svg>