<svg xmlns="http://www.w3.org/2000/svg" xmlns:xlink="http://www.w3.org/1999/xlink" width="5760" height="870" fill="none" xmlns:v="https://vecta.io/nano"><style><![CDATA[.B{fill:#fdd762}.C{fill:#e8a200}.D{opacity:.4}.E{fill:#f9bf30}.F{fill:#fff}.G{opacity:.2}.H{opacity:.7}.I{opacity:.8}.J{fill:#ffc856}]]></style><path d="M1920 0h1920v870H1920z" class="J"/><path fill="#ffd567" d="M0 0h1968v870H0z"/><path d="M3791 0h1969v870H3791z" class="J"/><mask id="A" mask-type="alpha" maskUnits="userSpaceOnUse" x="1920" y="0" width="1920" height="870"><path d="M1920 0h1920v870H1920z" class="J"/></mask><g mask="url(#A)"><path d="M2840 870l587-1349 40.5-152.5-205-108L2724-870h-804V870h920z" fill="#ffd567"/></g><mask id="B" mask-type="alpha" maskUnits="userSpaceOnUse" x="1558" y="416" width="755" height="454"><path fill="#c4c4c4" d="M1558 416h755v454h-755z"/></mask><g mask="url(#B)" class="F"><g style="mix-blend-mode:overlay" class="G"><path d="M2199.5 867.308l67.2-376.39c1.27-16.12-10.87-28.265-27-26.993L1863.3 531.1c-16.12 1.276-19.95 11.665-8.52 23.1l64.68 64.675c11.43 11.43 11.43 30.14-.01 41.574l-67.8 68.006-176.28 176.227c-11.43 11.44-11.1 30.388.34 41.82l109.12 109.12c11.43 11.43 30.14 11.44 41.57.01l243.75-244.49c11.43-11.433 30.14-11.437 41.57-.002l64.68 64.673c11.42 11.43 21.82 7.6 23.1-8.514z"/></g></g><path d="M3156 870l-65.5-170L3382 540l459 115.5L4255 870H3156z" fill="#5f3300" class="D"/><path d="M3425.95 364.493l-61.77 35.703c-4.6 2.55-12.44 2.346-17.63-.714l-59.22-34.275c-5.3-2.958-5.7-7.548-1.43-10.098l61.77-35.6c4.58-2.55 12.43-2.347 17.63.714l59.22 34.274c5.3 2.958 5.8 7.548 1.43 9.996z" fill="#ff8275"/><path d="M3428.7 586.766V360.82c-.2 1.428-1.12 2.55-2.96 3.673l-61.77 35.6c-2.03 1.122-5.1 1.836-8.25 1.836v227.475c2.95 0 6-.5 8.25-1.836l61.77-35.6c2.45-1.326 3.36-3.366 2.96-5.202z" fill="#d32727"/><path d="M3346.44 399.482l-59.2-34.275c-2.55-1.428-3.88-3.264-4.18-5.1v225.945c-.5 2.346.9 4.794 4.18 6.63l59.2 34.274c2.76 1.633 6.22 2.347 9.38 2.55V402.032c-3.36-.306-6.83-.918-9.38-2.55z" fill="#ff513f"/><path d="M3328.3 499.244l-61.77 35.6c-4.58 2.55-12.43 2.346-17.63-.714l-59.22-34.275c-5.3-2.958-5.7-7.548-1.42-10.098l61.76-35.6c4.6-2.55 12.44-2.346 17.64.714l59.2 34.275c5.4 2.652 6.02 7.344 1.43 10.098z" fill="#fed98c"/><path d="M3331.36 642.87V495.572c-.2 1.428-1.12 2.55-2.96 3.672l-61.76 35.6c-2.04 1.122-5.1 1.836-8.26 1.836V685.6c2.96 0 6-.5 8.26-1.836l61.76-35.6c2.25-1.428 3.37-3.264 2.96-5.305z" fill="#f2994a"/><path d="M3248.9 534.13l-59.22-34.274c-2.55-1.428-3.87-3.264-4.18-5.1v147.298c-.5 2.346.92 4.794 4.18 6.63l59.22 34.274c2.75 1.632 6.22 2.346 9.38 2.55V536.58c-3.16-.102-6.63-.816-9.38-2.45z" class="J"/><path d="M3233 610.942l-61.77 35.6c-4.58 2.55-12.43 2.346-17.63-.714l-59.22-34.274c-5.3-2.958-5.7-7.55-1.42-10.1l61.76-35.6c4.6-2.55 12.44-2.346 17.64.714l59.2 34.274c5.4 2.652 6.02 7.344 1.43 10.1z" fill="#ff8275"/><path d="M3236.06 697.953v-90.786c-.2 1.428-1.12 2.55-2.96 3.672l-61.76 35.6c-2.04 1.122-5.1 1.836-8.26 1.836v92.418c2.96 0 6-.408 8.26-1.836l61.76-35.6c2.25-1.326 3.37-3.468 2.96-5.304z" fill="#d32727"/><path d="M3153.6 645.828l-59.22-34.275c-2.54-1.428-3.87-3.264-4.18-5.1v90.786c-.5 2.346.92 4.794 4.18 6.63l59.22 34.274c2.75 1.632 6.22 2.346 9.38 2.55v-92.316c-3.16-.204-6.63-.918-9.38-2.55z" fill="#ff513f"/><path d="M3436.24 206.28l10.5-68.753-28.85 26.624 5.6 12.547-58.3 137.607-29.15-76.913-75.12 215.336-24.67-69.875-8.25 22.952c-.2.5-23.14 71.2-38.73 115.063-33.03 92.623-31.7 92.827-32.62 97.417l19.26-8.773c2.04-7.854 38.73-117.205 61.26-179.94l25.18 70.487 71.75-205.237 28.03 74.362 70.63-171.575 3.47 8.67z" fill="#007550"/><path d="M3228.3 406.316l7.75-23.257-15.8-8.773-8.26 22.952c-.2.408-71.14 212.276-71.14 212.276l15.8 8.772 71.65-211.97zM3423.4 176.8l-5.6-12.547 29.15-26.42-16.5-9.18-28.74 26.522 5.6 12.648-52.6 122.306-18.55-52.33 29.15 76.913 58.1-137.913zm-87.25 60.9l-16.3-9.18-68.8 196.872 9.68 27.44 75.43-215.132z" fill="#07b67e"/><path d="M3230.45 448.445l15.8 42.74 16.1 8.976-25.18-70.486-6.73 18.77zm97.95-137.3l17.64 49.167 16.1 8.977-28.03-74.363-5.7 16.22z" fill="#009a69"/><path d="M3436.24 206.28l-5.7-3.264 2.24-5.203 3.47 8.467z" fill="#07b67e"/><path d="M3551.24 621.868h-2.9c-3.24-6.37-9.2-12.378-17.9-17.404-27.74-16.02-72.7-16.02-100.45-.001-8.7 5.026-14.67 11.033-17.9 17.405h-2.9v11.602c0 10.5 6.94 20.997 20.8 29.006 27.74 16.02 72.7 16.022 100.45.002 13.87-8.01 20.8-18.51 20.8-29.008v-11.602z" class="E"/><path d="M3464.8 593.43c-12.2 1.367-24.04 5.115-34.82 11.03-8.7 5.026-14.67 11.033-17.9 17.404h-2.9v11.603c0 10.498 6.94 20.997 20.8 29.006 10.78 5.916 22.6 9.664 34.82 11.032V593.43z" class="B"/><path d="M3530.63 662.363c13.74-7.996 20.6-18.443 20.6-28.89V621.87h-2.9a41.4 41.4 0 0 0-14.26-15.11h-3.46v55.604z" class="C"/><g class="C D"><use xlink:href="#M" class="D"/><path d="M3430 604.462a55.88 55.88 0 0 0-9.92 7.208v43.613a52.12 52.12 0 0 0 3.08 2.611v-47.27h5.8v51.224l1.03.628a71.72 71.72 0 0 0 2.05 1.123v-52.975h5.8v55.768l3.08 1.257v-57.025h5.8v59.028l3.1.897v-59.925h5.8v61.33l3.08.608v-61.937h5.8v62.846l3.08.362v-63.208h5.8v63.68l3.08.128v-63.807h5.8v63.84l3.08-.1v-63.748h5.8v63.37l3.1-.315v-63.056h5.8v62.236a95.86 95.86 0 0 0 3.08-.563v-61.673h5.8v60.36l3.08-.84v-59.52h5.8v57.635a83.53 83.53 0 0 0 3.08-1.18v-56.455h5.8v53.834l3.08-1.635v-52.2h5.8v48.512l3.08-2.396v-46.116h.52a57.91 57.91 0 0 0-8.78-6.16 85.39 85.39 0 0 0-21.79-8.584h-56.86a85.78 85.78 0 0 0-21.8 8.583h0zm-15.74 13.808a33.06 33.06 0 0 0-2.18 3.597h-.9v21.268c.83 1.962 1.87 3.83 3.08 5.577V618.27z" class="D"/></g><path d="M3530.44 650.876c-27.74 16.02-72.7 16.02-100.45-.001-27.73-16.02-27.73-41.994 0-58.013 27.74-16.02 72.7-16.02 100.45.001 27.73 16.02 27.73 41.993 0 58.013z" class="B"/><g class="F"><path d="M3496.12 628.878c20.42-11.793 25.8-28.977 16.14-43.617-26.64-7.786-60-5.26-82.27 7.6-20.42 11.793-25.78 28.978-16.14 43.617 26.65 7.786 60 5.26 82.27-7.6z" class="G"/><path d="M3530.44 650.874c-27.74 16.02-72.7 16.02-100.45-.001-13.4-7.742-20.3-17.807-20.76-27.95-.48 10.85 6.43 21.786 20.76 30.065 27.74 16.02 72.7 16.02 100.45.001 14.33-8.28 21.24-19.215 20.75-30.063-.45 10.143-7.35 20.207-20.75 27.948z" class="H"/></g><path d="M3515.87 642.457c-19.7 11.37-51.6 11.37-71.3-.001s-19.7-29.808 0-41.18c19.68-11.37 51.6-11.37 71.3.001 19.7 11.372 19.7 29.808.01 41.18z" class="C"/><path d="M3444.56 603.935c19.7-11.37 51.6-11.37 71.3.001 9.26 5.348 14.16 12.258 14.7 19.26.62-7.9-4.28-15.896-14.7-21.92-19.7-11.372-51.6-11.372-71.3-.001-10.42 6.024-15.33 14.03-14.7 21.918.56-7.002 5.46-13.912 14.7-19.26zm60.44 4.18l-3.9 1.118 1.1.44-3.82 2.204c-3-1.498-6.3-2.272-9.67-2.262a18.5 18.5 0 0 0-9.32 2.52c-1 .565-1.96 1.25-2.8 2.04a6.12 6.12 0 0 0-1.51 2.156 7.71 7.71 0 0 0-.5 2.067 11.94 11.94 0 0 0 .09 2.236l.45 3.56a10.43 10.43 0 0 1 .09 2.496c-.1.733-.4 1.428-.85 2.02-.6.794-1.36 1.448-2.23 1.916a4.57 4.57 0 0 1-2.35.858 4.53 4.53 0 0 1-2.44-.508c-1.07-.614-1.34-1.38-.82-2.298 1.15-1.446 2.6-2.62 4.26-3.432v-2.67l-3.34 1.253-4.8-2.038c-2.3 1.204-4.25 2.964-5.7 5.118l-.55-.617v2.62c.02 1.797 1.4 3.57 4.14 5.314l-1.9 1.097-2.58-1.18v2.67l2.32 1.338 4.52-2.612a19.75 19.75 0 0 0 9.15 1.826 18.19 18.19 0 0 0 8.63-2.32 15.08 15.08 0 0 0 3.06-2.273 7.52 7.52 0 0 0 1.7-2.476 9 9 0 0 0 .63-2.443c.1-.862.08-1.73-.01-2.592l-.38-3.445-.1-1.507c.02-.44.07-.877.17-1.306a2.96 2.96 0 0 1 .78-1.488 7.38 7.38 0 0 1 1.66-1.26 6.8 6.8 0 0 1 2.57-.819c.88-.137 1.77.014 2.56.43.3.146.58.356.8.617.1.13.14.286.14.446l-3.98.828v2.67l8.06 3.586 1.76-1.163c.57-.4 1.1-.834 1.63-1.3a9.09 9.09 0 0 0 1.34-1.455 4.92 4.92 0 0 0 .77-1.572c.08-.26.12-.528.13-.798l.01-.01v-2.8l-1.02.214a.2.2 0 0 1-.04-.053c-.62-.717-1.35-1.336-2.15-1.84l4.23-2.443v-2.67z" class="E"/><path d="M3456.07 634.146l4.48-2.586c-3.06-1.94-4.43-3.914-4.1-5.92.33-2.006 2.4-4.178 6.2-6.517l8.15 3.456c-1.66.814-3.1 1.986-4.26 3.432-.52.918-.25 1.684.82 2.3a4.53 4.53 0 0 0 2.44.507 4.58 4.58 0 0 0 2.35-.857 6.8 6.8 0 0 0 2.23-1.917 4.42 4.42 0 0 0 .85-2.021 10.42 10.42 0 0 0-.09-2.495l-.45-3.56a11.94 11.94 0 0 1-.09-2.236c.06-.7.23-1.406.5-2.067.34-.82.86-1.557 1.5-2.155a14.53 14.53 0 0 1 2.81-2.041 18.54 18.54 0 0 1 9.32-2.522 21.51 21.51 0 0 1 9.67 2.262l4.26-2.456 2.36 1.364-4.23 2.444a9.59 9.59 0 0 1 2.15 1.838c.45.508.78 1.11.98 1.76.13.56.1 1.146-.06 1.696-.16.564-.42 1.096-.77 1.573a9.57 9.57 0 0 1-1.34 1.454c-.52.467-1.06.9-1.63 1.3l-1.76 1.163-8.06-3.586 1.5-.936 1.2-.832c.33-.228.62-.494.88-.793.17-.208.3-.445.38-.7.04-.115.05-.238.03-.357a.67.67 0 0 0-.15-.325 2.36 2.36 0 0 0-.8-.618c-.8-.416-1.68-.566-2.56-.43a6.78 6.78 0 0 0-2.57.818 7.25 7.25 0 0 0-1.66 1.261 2.96 2.96 0 0 0-.78 1.489c-.1.428-.15.866-.17 1.306 0 .31.03.814.1 1.506l.38 3.445c.1.862.1 1.73.01 2.592a9 9 0 0 1-.63 2.443c-.4.933-.96 1.776-1.7 2.476a14.81 14.81 0 0 1-3.06 2.273c-2.64 1.48-5.6 2.278-8.63 2.32a19.76 19.76 0 0 1-9.15-1.825l-4.52 2.61-2.32-1.338z" class="B"/><use xlink:href="#N" class="E"/><path d="M3464.8 581.818c-12.2 1.368-24.04 5.116-34.82 11.032-8.7 5.026-14.67 11.033-17.9 17.404h-2.9v11.603c0 10.498 6.94 20.996 20.8 29.006 10.78 5.916 22.6 9.664 34.82 11.032v-80.077z" class="B"/><path d="M3530.63 650.748c13.74-7.996 20.6-18.442 20.6-28.89v-11.602h-2.9a41.39 41.39 0 0 0-14.26-15.11h-3.46v55.603z" class="C"/><path d="M3547.58 608.905a32.82 32.82 0 0 0-3.08-4.46v34.868c1.15-1.404 2.18-2.898 3.08-4.467v-25.94zM3430 592.85c-3.56 2.032-6.88 4.45-9.92 7.208v43.612a51.75 51.75 0 0 0 3.08 2.612v-47.27h5.8v51.223l1.03.628c.67.387 1.36.756 2.05 1.124v-52.975h5.8v55.768c1 .436 2.04.855 3.08 1.257v-57.025h5.8v59.028a92.24 92.24 0 0 0 3.08.897v-59.925h5.8v61.328l3.08.6v-61.937h5.8v62.846l3.08.362v-63.208h5.8v63.68l3.08.127v-63.806h5.8v63.84l3.08-.1v-63.748h5.8v63.37l3.08-.315v-63.056h5.8v62.236a98.71 98.71 0 0 0 3.08-.563v-61.673h5.8v60.36c1.04-.264 2.06-.544 3.08-.84v-59.52h5.8v57.635a83.53 83.53 0 0 0 3.08-1.18v-56.455h5.8v53.833c1.04-.525 2.07-1.07 3.08-1.635v-52.198h5.8v48.5c1.1-.78 2.1-1.58 3.1-2.395v-46.116h.5a57.68 57.68 0 0 0-8.77-6.16c-6.84-3.848-14.17-6.737-21.8-8.584h-56.86a85.53 85.53 0 0 0-21.79 8.583h0zm-15.73 13.808a31.63 31.63 0 0 0-2.19 3.597h-.9v21.268a30.51 30.51 0 0 0 3.09 5.577v-30.442z" class="D C"/><use xlink:href="#O" class="B"/><g class="F"><path d="M3496.12 617.264c20.42-11.793 25.8-28.978 16.14-43.617-26.64-7.786-60-5.26-82.27 7.6-20.42 11.793-25.78 28.977-16.14 43.617 26.65 7.786 60 5.26 82.27-7.6z" class="G"/><use xlink:href="#P" class="H"/></g><use xlink:href="#Q" class="C"/><path d="M3444.57 592.323c19.68-11.37 51.6-11.37 71.3 0 9.26 5.348 14.16 12.26 14.72 19.262.62-7.9-4.3-15.896-14.72-21.92-19.7-11.372-51.6-11.372-71.3-.001-10.43 6.024-15.34 14.03-14.72 21.918.56-7.002 5.46-13.912 14.72-19.26zm60.43 4.18l-3.9 1.117 1.1.442-3.82 2.204a21.45 21.45 0 0 0-9.67-2.262 18.5 18.5 0 0 0-9.32 2.52c-1 .565-1.96 1.25-2.8 2.04a6.11 6.11 0 0 0-1.51 2.156c-.26.66-.43 1.357-.5 2.066a11.95 11.95 0 0 0 .09 2.237l.45 3.56c.13.825.16 1.663.1 2.496a4.52 4.52 0 0 1-.84 2.021c-.6.794-1.37 1.448-2.24 1.916a4.56 4.56 0 0 1-2.35.857 4.54 4.54 0 0 1-2.44-.507c-1.07-.615-1.34-1.38-.82-2.3 1.15-1.446 2.6-2.618 4.26-3.432v-2.67l-3.34 1.254-4.8-2.04a15.57 15.57 0 0 0-5.69 5.118l-.55-.616v2.62c.02 1.798 1.4 3.57 4.14 5.315l-1.9 1.097-2.58-1.18v2.67l2.32 1.34 4.52-2.612a19.75 19.75 0 0 0 9.15 1.826 18.19 18.19 0 0 0 8.63-2.32 15.08 15.08 0 0 0 3.06-2.273 7.52 7.52 0 0 0 1.7-2.476 9.8 9.8 0 0 0 .63-2.444c.08-.862.07-1.73-.01-2.6l-.4-3.445-.1-1.507c.02-.44.07-.877.17-1.306.1-.56.38-1.075.78-1.5a7.25 7.25 0 0 1 1.66-1.26c.8-.442 1.67-.72 2.57-.82a4.11 4.11 0 0 1 2.56.429c.3.147.58.357.8.618.1.13.14.286.14.446l-3.98.828v2.67l8.06 3.586 1.76-1.163a17.52 17.52 0 0 0 1.63-1.3 9.64 9.64 0 0 0 1.35-1.455 5.11 5.11 0 0 0 .76-1.572c.08-.26.12-.528.13-.798l.01-.01v-2.8l-1.02.213c-.02-.018-.03-.034-.04-.052a9.57 9.57 0 0 0-2.15-1.839l4.23-2.443v-2.67z" class="E"/><path d="M3456.07 622.53l4.48-2.586c-3.06-1.94-4.43-3.914-4.1-5.92.33-2.006 2.4-4.178 6.2-6.517l8.15 3.456c-1.66.814-3.1 1.986-4.26 3.432-.52.918-.25 1.684.82 2.3a4.55 4.55 0 0 0 2.44.507 4.58 4.58 0 0 0 2.35-.857c.87-.468 1.64-1.122 2.24-1.917.44-.593.73-1.287.84-2.02a10.42 10.42 0 0 0-.09-2.495l-.45-3.56a11.94 11.94 0 0 1-.09-2.236c.06-.71.23-1.406.5-2.066a6.11 6.11 0 0 1 1.51-2.156c.85-.79 1.8-1.476 2.8-2.04 2.83-1.65 6.05-2.52 9.32-2.52 3.36-.01 6.67.764 9.67 2.262l4.26-2.456 2.36 1.364-4.23 2.443a9.59 9.59 0 0 1 2.15 1.838c.45.508.78 1.11.98 1.76a3.26 3.26 0 0 1-.06 1.697 5.12 5.12 0 0 1-.76 1.572c-.4.53-.85 1.017-1.35 1.454-.52.467-1.06.9-1.63 1.3l-1.76 1.162-8.06-3.586 1.5-.936 1.2-.832c.33-.228.62-.494.88-.793a2.32 2.32 0 0 0 .39-.701.86.86 0 0 0 .02-.357.67.67 0 0 0-.15-.325 2.36 2.36 0 0 0-.8-.618c-.78-.416-1.68-.566-2.56-.43-.9.098-1.78.376-2.57.82a7.22 7.22 0 0 0-1.66 1.26 2.96 2.96 0 0 0-.78 1.489c-.1.43-.15.866-.17 1.306 0 .31.03.814.1 1.507l.4 3.444c.08.862.1 1.73.01 2.592-.1.84-.32 1.66-.63 2.443-.4.933-.97 1.776-1.7 2.476-.92.89-1.95 1.653-3.06 2.274-2.64 1.48-5.6 2.277-8.63 2.32-3.15.132-6.3-.494-9.15-1.825l-4.52 2.612-2.32-1.34z" class="B"/><use xlink:href="#N" y="-11.612" class="E"/><path d="M3464.8 570.21a94.17 94.17 0 0 0-34.82 11.031c-8.7 5.027-14.67 11.033-17.9 17.405h-2.9v11.602c0 10.5 6.94 20.997 20.8 29.006 10.78 5.917 22.6 9.664 34.82 11.033V570.21z" class="B"/><path d="M3530.63 639.136c13.74-7.996 20.6-18.442 20.6-28.9v-11.603h-2.9a41.39 41.39 0 0 0-14.26-15.11h-3.46v55.603z" class="C"/><path d="M3547.58 597.295c-.9-1.567-1.93-3.058-3.08-4.46v34.868c1.15-1.404 2.18-2.897 3.08-4.466v-25.94zM3430 581.24c-3.56 2.03-6.9 4.448-9.92 7.207v43.613a51.75 51.75 0 0 0 3.08 2.612V587.4h5.8v51.224l1.03.628c.67.387 1.36.756 2.05 1.124V587.4h5.8v55.768c1 .436 2.04.855 3.08 1.257V587.4h5.8v59.03a83.78 83.78 0 0 0 3.08.896V587.4h5.8v61.33l3.08.608V587.4h5.8v62.847l3.08.36V587.4h5.8v63.68l3.08.128V587.4h5.8v63.84l3.08-.1V587.4h5.8v63.37l3.08-.314V587.4h5.8v62.237a101.73 101.73 0 0 0 3.08-.563V587.4h5.8v60.36c1.04-.264 2.06-.544 3.08-.84V587.4h5.8v57.636c1.04-.376 2.07-.77 3.08-1.18V587.4h5.8v53.834c1.04-.525 2.07-1.07 3.08-1.635v-52.2h5.8v48.512a53.62 53.62 0 0 0 3.09-2.396V587.4h.5a57.75 57.75 0 0 0-8.77-6.16 85.46 85.46 0 0 0-21.8-8.585h-56.86a85.57 85.57 0 0 0-21.79 8.584h0zm-15.73 13.807a31.64 31.64 0 0 0-2.19 3.598h-.9v21.267c.83 1.962 1.87 3.83 3.1 5.577v-30.442z" class="D C"/><path d="M3530.44 627.65c-27.74 16.02-72.7 16.02-100.44-.001-27.74-16.02-27.74-41.994-.01-58.013 27.74-16.02 72.7-16.02 100.45.001 27.73 16.02 27.73 41.993 0 58.013z" class="B"/><g class="F"><use xlink:href="#R" class="G"/><path d="M3530.44 627.65c-27.74 16.02-72.7 16.02-100.45-.002-13.4-7.74-20.3-17.806-20.76-27.95-.48 10.848 6.43 21.786 20.76 30.065 27.74 16.02 72.7 16.02 100.45.001 14.33-8.28 21.24-19.215 20.76-30.063-.46 10.143-7.36 20.207-20.76 27.948z" class="H"/></g><use xlink:href="#S" class="C"/><path d="M3444.57 580.7c19.68-11.372 51.6-11.37 71.3 0 9.26 5.348 14.16 12.258 14.72 19.262.62-7.9-4.3-15.896-14.72-21.92-19.7-11.37-51.6-11.372-71.3 0-10.43 6.023-15.34 14.03-14.72 21.918.56-7.003 5.46-13.912 14.72-19.26zm60.43 4.184l-3.9 1.117 1.1.44-3.82 2.205a21.45 21.45 0 0 0-9.67-2.262 18.5 18.5 0 0 0-9.32 2.52 14.53 14.53 0 0 0-2.81 2.041c-.65.598-1.17 1.334-1.5 2.155a7.72 7.72 0 0 0-.5 2.067 11.94 11.94 0 0 0 .09 2.236l.45 3.56a10.42 10.42 0 0 1 .09 2.495c-.1.734-.4 1.428-.84 2.02-.6.794-1.37 1.448-2.24 1.917a4.58 4.58 0 0 1-2.35.857 4.55 4.55 0 0 1-2.44-.507c-1.07-.615-1.34-1.38-.82-2.3 1.15-1.446 2.6-2.618 4.26-3.432v-2.67l-3.34 1.254-4.8-2.04c-2.3 1.205-4.25 2.964-5.7 5.118l-.55-.617v2.62c.02 1.798 1.4 3.57 4.14 5.315l-1.9 1.097-2.58-1.182v2.67l2.32 1.338 4.52-2.6a19.76 19.76 0 0 0 9.15 1.825c3.02-.042 6-.84 8.63-2.32a14.81 14.81 0 0 0 3.06-2.273 7.52 7.52 0 0 0 1.7-2.476c.3-.782.53-1.604.63-2.443.08-.862.07-1.73-.01-2.592l-.4-3.444-.1-1.507c.02-.44.07-.877.17-1.306a2.96 2.96 0 0 1 .78-1.489 7.25 7.25 0 0 1 1.66-1.261 6.78 6.78 0 0 1 2.57-.818c.88-.137 1.78.013 2.56.43a2.37 2.37 0 0 1 .8.617.79.79 0 0 1 .14.447l-3.98.827v2.67l8.06 3.586 1.76-1.163c.57-.4 1.1-.833 1.63-1.3.5-.437.95-.924 1.35-1.454a5.12 5.12 0 0 0 .76-1.572c.08-.26.12-.528.13-.8l.01-.01v-2.8l-1.02.214c-.02-.018-.03-.035-.04-.053a9.59 9.59 0 0 0-2.15-1.838l4.23-2.444v-2.67z" class="E"/><path d="M3456.07 610.92l4.48-2.586c-3.06-1.94-4.43-3.913-4.1-5.92.33-2.006 2.4-4.178 6.2-6.517l8.15 3.456c-1.66.814-3.1 1.986-4.26 3.432-.52.918-.25 1.684.82 2.3a4.55 4.55 0 0 0 2.44.507 4.56 4.56 0 0 0 2.35-.857c.87-.468 1.64-1.122 2.24-1.916a4.52 4.52 0 0 0 .84-2.021c.07-.833.04-1.67-.1-2.496l-.45-3.56a11.95 11.95 0 0 1-.09-2.237c.06-.71.23-1.405.5-2.066a6.11 6.11 0 0 1 1.51-2.156c.85-.79 1.8-1.476 2.8-2.04 2.83-1.65 6.05-2.52 9.32-2.52 3.36-.01 6.67.764 9.67 2.262l4.26-2.456 2.36 1.364-4.23 2.443a9.57 9.57 0 0 1 2.15 1.839c.45.507.78 1.108.98 1.76a3.26 3.26 0 0 1-.06 1.697 5.11 5.11 0 0 1-.76 1.572 9.64 9.64 0 0 1-1.35 1.455 17.52 17.52 0 0 1-1.63 1.3l-1.76 1.163-8.06-3.586 1.5-.937 1.2-.83a4.75 4.75 0 0 0 .88-.793 2.33 2.33 0 0 0 .39-.701c.03-.116.04-.238.02-.358a.67.67 0 0 0-.15-.325c-.22-.26-.5-.47-.8-.618a4.11 4.11 0 0 0-2.56-.429c-.9.098-1.78.377-2.57.82a7.25 7.25 0 0 0-1.66 1.26c-.4.414-.67.93-.78 1.49-.1.43-.15.866-.17 1.306 0 .312.03.814.1 1.507l.4 3.445c.08.86.1 1.73.01 2.59a9.81 9.81 0 0 1-.63 2.444 7.37 7.37 0 0 1-1.7 2.475c-.92.89-1.95 1.653-3.06 2.274a18.2 18.2 0 0 1-8.63 2.32 19.75 19.75 0 0 1-9.15-1.826l-4.52 2.612-2.32-1.34z" class="B"/><path d="M3551.24 587.03h-2.9c-3.24-6.37-9.2-12.377-17.9-17.403-27.74-16.02-72.7-16.02-100.45-.001-8.7 5.026-14.67 11.033-17.9 17.404h-2.9v11.603c0 10.498 6.94 20.996 20.8 29.006 27.74 16.02 72.7 16.02 100.45.001 13.87-8 20.8-18.51 20.8-29.007V587.03z" class="E"/><path d="M3464.8 558.596c-12.2 1.367-24.04 5.115-34.82 11.03-8.7 5.026-14.67 11.033-17.9 17.404h-2.9v11.603c0 10.5 6.94 20.997 20.8 29.006 10.78 5.916 22.6 9.664 34.82 11.032v-80.076z" class="B"/><path d="M3530.63 627.524c13.74-7.997 20.6-18.443 20.6-28.89V587.03h-2.9a41.39 41.39 0 0 0-14.26-15.11h-3.46v55.604z" class="C"/><path d="M3547.58 585.678c-.9-1.567-1.93-3.058-3.08-4.46v34.867c1.15-1.404 2.18-2.897 3.08-4.466v-25.94zM3430 569.624c-3.56 2.03-6.88 4.448-9.92 7.207v43.613a56.01 56.01 0 0 0 3.08 2.612v-47.27h5.8V627l1.03.628c.67.386 1.36.755 2.05 1.124v-52.976h5.8v55.768c1 .436 2.04.855 3.08 1.257v-57.025h5.8v59.028a87.71 87.71 0 0 0 3.08.897v-59.925h5.8v61.33l3.08.608v-61.937h5.8v62.846l3.08.362v-63.208h5.8v63.68a120.03 120.03 0 0 0 3.08.127v-63.806h5.8v63.84l3.08-.1V575.8h5.8v63.37l3.08-.314V575.79h5.8v62.237a101.73 101.73 0 0 0 3.08-.563V575.79h5.8v60.36c1.04-.264 2.06-.544 3.08-.84v-59.52h5.8v57.635a83.52 83.52 0 0 0 3.08-1.179V575.79h5.8v53.834c1.04-.526 2.07-1.07 3.08-1.635v-52.2h5.8V624.3c1.1-.78 2.1-1.58 3.1-2.396v-46.116h.5a57.75 57.75 0 0 0-8.77-6.16 85.46 85.46 0 0 0-21.8-8.585h-56.86c-7.62 1.847-14.95 4.736-21.8 8.584h0zm-15.73 13.806a31.64 31.64 0 0 0-2.19 3.598h-.9v21.267c.83 1.962 1.87 3.83 3.1 5.577V583.43z" class="D C"/><path d="M3530.44 616.036c-27.74 16.02-72.7 16.02-100.44 0-27.74-16.02-27.74-41.994-.01-58.014 27.74-16.02 72.7-16.02 100.45.001 27.73 16.02 27.73 41.994 0 58.013z" class="B"/><g class="F"><path d="M3496.13 594.04c20.4-11.793 25.78-28.977 16.14-43.617-26.65-7.785-60-5.26-82.28 7.6-20.4 11.793-25.78 28.978-16.14 43.617 26.65 7.786 60 5.26 82.28-7.6z" class="G"/><use xlink:href="#P" y="-23.223" class="H"/></g><path d="M3515.87 607.62c-19.7 11.37-51.6 11.37-71.3 0s-19.7-29.81 0-41.18 51.6-11.37 71.3.001c19.68 11.37 19.68 29.808 0 41.18z" class="C"/><path d="M3444.57 569.098c19.68-11.372 51.6-11.37 71.3.001 9.26 5.347 14.16 12.258 14.72 19.26.62-7.9-4.3-15.896-14.72-21.92-19.7-11.372-51.6-11.372-71.3-.001-10.43 6.024-15.34 14.03-14.72 21.918.56-7.002 5.46-13.912 14.72-19.26zm60.43 4.182l-3.9 1.117 1.1.44-3.82 2.205a21.45 21.45 0 0 0-9.67-2.262 18.5 18.5 0 0 0-9.32 2.52c-1 .565-1.96 1.25-2.8 2.04a6.11 6.11 0 0 0-1.51 2.156c-.26.66-.43 1.357-.5 2.066a11.94 11.94 0 0 0 .09 2.236l.45 3.56a10.42 10.42 0 0 1 .09 2.495 4.52 4.52 0 0 1-.84 2.022c-.6.794-1.37 1.448-2.24 1.916a4.58 4.58 0 0 1-2.35.857 4.55 4.55 0 0 1-2.44-.507c-1.07-.615-1.34-1.38-.82-2.3 1.15-1.446 2.6-2.618 4.26-3.432v-2.67l-3.34 1.254-4.8-2.04c-2.3 1.205-4.25 2.964-5.7 5.118l-.55-.617v2.62c.02 1.798 1.4 3.57 4.14 5.315l-1.9 1.097-2.58-1.182v2.67l2.32 1.34 4.52-2.612a19.75 19.75 0 0 0 9.15 1.826 18.2 18.2 0 0 0 8.63-2.32c1.1-.62 2.14-1.385 3.06-2.274a7.38 7.38 0 0 0 1.7-2.475 9.81 9.81 0 0 0 .63-2.444c.08-.862.07-1.73-.01-2.592l-.4-3.444-.1-1.507c.02-.44.07-.877.17-1.306a2.96 2.96 0 0 1 .78-1.489 7.25 7.25 0 0 1 1.66-1.26c.8-.442 1.67-.72 2.57-.82a4.11 4.11 0 0 1 2.56.429 2.36 2.36 0 0 1 .8.618c.1.13.14.286.14.446l-3.98.827v2.67l8.06 3.587 1.76-1.163c.57-.4 1.1-.834 1.63-1.3.5-.437.95-.924 1.35-1.454a5.12 5.12 0 0 0 .76-1.572c.08-.26.12-.528.13-.798l.01-.01v-2.8l-1.02.213c-.02-.018-.03-.034-.04-.053a9.59 9.59 0 0 0-2.15-1.838l4.23-2.443v-2.67z" class="E"/><path d="M3456.07 599.306l4.48-2.586c-3.06-1.94-4.43-3.913-4.1-5.92.33-2.005 2.4-4.177 6.2-6.516l8.15 3.455c-1.66.814-3.1 1.987-4.26 3.432-.52.918-.25 1.684.82 2.3a4.55 4.55 0 0 0 2.44.508 4.57 4.57 0 0 0 2.35-.858c.87-.468 1.64-1.122 2.24-1.916a4.52 4.52 0 0 0 .84-2.021 10.43 10.43 0 0 0-.09-2.496l-.45-3.56a11.95 11.95 0 0 1-.09-2.237c.06-.71.23-1.405.5-2.066a6.12 6.12 0 0 1 1.51-2.156c.85-.79 1.8-1.476 2.8-2.04 2.83-1.65 6.05-2.52 9.32-2.52 3.36-.01 6.67.764 9.67 2.262l4.26-2.456 2.36 1.364-4.23 2.443a9.57 9.57 0 0 1 2.15 1.839 4.75 4.75 0 0 1 .98 1.76 3.26 3.26 0 0 1-.06 1.697 5.11 5.11 0 0 1-.76 1.572 9.64 9.64 0 0 1-1.35 1.455c-.52.466-1.06.9-1.63 1.3l-1.76 1.163-8.06-3.586 1.5-.937 1.2-.83c.33-.228.62-.494.88-.793a2.33 2.33 0 0 0 .39-.701.86.86 0 0 0 .02-.357c-.02-.12-.07-.23-.15-.326-.22-.26-.5-.47-.8-.618a4.11 4.11 0 0 0-2.56-.429c-.9.098-1.78.377-2.57.82-.6.337-1.17.762-1.66 1.26a2.96 2.96 0 0 0-.78 1.488c-.1.43-.15.866-.17 1.306 0 .312.03.814.1 1.507l.4 3.445c.08.86.1 1.73.01 2.592-.1.84-.32 1.66-.63 2.443-.4.933-.97 1.775-1.7 2.476-.92.888-1.95 1.652-3.06 2.273a18.19 18.19 0 0 1-8.63 2.32 19.75 19.75 0 0 1-9.15-1.826l-4.52 2.612-2.32-1.34z" class="B"/><path d="M3551.24 575.416h-2.9c-3.24-6.37-9.2-12.377-17.9-17.403-27.74-16.02-72.7-16.02-100.45-.001-8.7 5.026-14.67 11.033-17.9 17.404h-2.9v11.603c0 10.5 6.94 20.997 20.8 29.006 27.74 16.02 72.7 16.022 100.45.002 13.87-8.01 20.8-18.51 20.8-29.008v-11.603z" class="E"/><path d="M3464.8 546.98c-12.2 1.368-24.04 5.116-34.82 11.032-8.7 5.026-14.67 11.033-17.9 17.404h-2.9v11.603c0 10.498 6.94 20.996 20.8 29.006 10.78 5.916 22.6 9.664 34.82 11.032V546.98z" class="B"/><path d="M3530.63 615.9c13.74-7.996 20.6-18.443 20.6-28.89v-11.603h-2.9a41.4 41.4 0 0 0-14.26-15.11h-3.46V615.9z" class="C"/><path d="M3547.58 574.067a32.82 32.82 0 0 0-3.08-4.46v34.868c1.15-1.404 2.18-2.898 3.08-4.467v-25.94zM3430 558.012c-3.56 2.032-6.88 4.45-9.92 7.208v43.612a51.75 51.75 0 0 0 3.08 2.612v-47.27h5.8v51.223l1.04.628c.66.387 1.35.756 2.04 1.124v-52.975h5.8v55.768c1 .436 2.04.855 3.08 1.257v-57.025h5.8v59.028c1 .315 2.04.613 3.08.897v-59.925h5.8v61.328l3.1.6v-61.937h5.8v62.846l3.08.362v-63.208h5.8v63.68l3.08.127v-63.806h5.8v63.84l3.08-.1v-63.748h5.8v63.37l3.08-.315v-63.056h5.8V626.4l3.1-.563v-61.673h5.8v60.36a87.64 87.64 0 0 0 3.08-.839v-59.52h5.8V621.8a83.53 83.53 0 0 0 3.08-1.18v-56.455h5.8V618a76.21 76.21 0 0 0 3.08-1.636v-52.198h5.8v48.512c1.08-.78 2.1-1.582 3.08-2.396v-46.116h.5a57.68 57.68 0 0 0-8.77-6.16c-6.84-3.848-14.17-6.737-21.8-8.584h-56.85c-7.63 1.847-14.96 4.735-21.8 8.583zm-15.73 13.808a31.63 31.63 0 0 0-2.19 3.597h-.9v21.268a29.88 29.88 0 0 0 3.08 5.577V571.82z" class="D C"/><path d="M3530.44 604.425c-27.74 16.02-72.7 16.02-100.44-.001-27.74-16.02-27.74-41.994-.01-58.013 27.74-16.02 72.7-16.02 100.45 0 27.73 16.02 27.73 41.994 0 58.014z" class="B"/><g class="F"><path d="M3496.12 582.426c20.42-11.793 25.8-28.977 16.14-43.617-26.64-7.785-60-5.26-82.27 7.6-20.42 11.794-25.78 28.978-16.14 43.618 26.65 7.785 60 5.26 82.27-7.6z" class="G"/><path d="M3530.44 604.425c-27.74 16.02-72.7 16.02-100.45-.002-13.4-7.74-20.3-17.806-20.76-27.95-.48 10.848 6.43 21.785 20.76 30.065 27.74 16.02 72.7 16.02 100.45 0 14.33-8.278 21.24-19.215 20.76-30.062-.46 10.142-7.36 20.207-20.76 27.948z" class="H"/></g><use xlink:href="#S" y="-23.226" class="C"/><path d="M3444.57 557.484c19.68-11.37 51.6-11.37 71.3.001 9.26 5.348 14.16 12.26 14.72 19.262.62-7.9-4.3-15.897-14.72-21.92-19.7-11.37-51.6-11.372-71.3 0-10.43 6.023-15.34 14.03-14.72 21.918.56-7.003 5.46-13.912 14.72-19.26zm60.43 4.183l-3.9 1.118 1.1.44-3.82 2.204a21.45 21.45 0 0 0-9.67-2.262 18.5 18.5 0 0 0-9.32 2.52c-1 .565-1.96 1.25-2.8 2.04a6.11 6.11 0 0 0-1.51 2.156c-.26.66-.43 1.357-.5 2.066a11.95 11.95 0 0 0 .09 2.237l.45 3.56a10.43 10.43 0 0 1 .09 2.496 4.52 4.52 0 0 1-.84 2.021c-.6.794-1.37 1.448-2.24 1.916a4.56 4.56 0 0 1-2.35.857 4.54 4.54 0 0 1-2.44-.507c-1.07-.615-1.34-1.38-.82-2.3 1.15-1.445 2.6-2.618 4.26-3.432v-2.67l-3.34 1.253-4.8-2.038c-2.3 1.204-4.25 2.964-5.7 5.118l-.55-.617v2.62h.01c.02 1.798 1.4 3.57 4.14 5.315l-1.9 1.097-2.58-1.182v2.672l2.32 1.338 4.52-2.612a19.75 19.75 0 0 0 9.15 1.826 18.19 18.19 0 0 0 8.63-2.32 15.08 15.08 0 0 0 3.06-2.273 7.52 7.52 0 0 0 1.7-2.476 9.79 9.79 0 0 0 .63-2.444c.08-.862.07-1.73-.01-2.6l-.4-3.445-.1-1.507c.02-.44.07-.877.17-1.306.1-.56.38-1.075.78-1.5a7.25 7.25 0 0 1 1.66-1.26c.8-.442 1.67-.72 2.57-.82a4.11 4.11 0 0 1 2.56.429c.3.147.58.357.8.618.1.13.14.286.14.446l-3.98.828v2.67l8.06 3.586 1.76-1.163c.57-.4 1.1-.834 1.63-1.3a9.64 9.64 0 0 0 1.35-1.455 5.11 5.11 0 0 0 .76-1.572c.08-.26.12-.528.13-.798l.01-.01v-2.8l-1.02.213c-.02-.018-.03-.034-.04-.052-.62-.717-1.35-1.336-2.15-1.84l4.23-2.443v-2.67z" class="E"/><path d="M3456.07 587.694l4.48-2.587c-3.06-1.94-4.43-3.913-4.1-5.92.33-2.005 2.4-4.178 6.2-6.516l8.15 3.456c-1.66.813-3.1 1.986-4.26 3.43-.52.918-.25 1.684.82 2.3a4.55 4.55 0 0 0 2.44.508 4.57 4.57 0 0 0 2.35-.858c.87-.468 1.64-1.122 2.24-1.916a4.52 4.52 0 0 0 .84-2.021 10.43 10.43 0 0 0-.09-2.496l-.45-3.56a11.95 11.95 0 0 1-.09-2.237c.06-.71.23-1.405.5-2.066a6.12 6.12 0 0 1 1.51-2.156c.85-.79 1.8-1.476 2.8-2.04 2.83-1.65 6.05-2.52 9.32-2.52 3.36-.01 6.67.764 9.67 2.262l4.26-2.456 2.36 1.364-4.23 2.443c.8.503 1.53 1.122 2.15 1.84a4.75 4.75 0 0 1 .98 1.76 3.26 3.26 0 0 1-.06 1.697 5.11 5.11 0 0 1-.76 1.572 9.64 9.64 0 0 1-1.35 1.455c-.52.466-1.06.9-1.63 1.3l-1.76 1.163-8.06-3.586 1.5-.936 1.2-.832c.33-.228.62-.494.88-.793a2.33 2.33 0 0 0 .39-.701.86.86 0 0 0 .02-.357c-.02-.12-.07-.23-.15-.326-.22-.26-.5-.47-.8-.617a4.11 4.11 0 0 0-2.56-.43 6.8 6.8 0 0 0-2.57.819c-.6.337-1.17.762-1.66 1.26a2.96 2.96 0 0 0-.78 1.488c-.1.43-.15.867-.17 1.306a19.67 19.67 0 0 0 .09 1.507l.4 3.445c.08.86.1 1.73.01 2.592-.1.84-.32 1.66-.63 2.443-.4.933-.97 1.776-1.7 2.476-.92.888-1.95 1.652-3.06 2.273a18.19 18.19 0 0 1-8.63 2.32 19.75 19.75 0 0 1-9.15-1.826l-4.52 2.612-2.32-1.338z" class="B"/><path d="M3551.24 563.806h-2.9c-3.24-6.37-9.2-12.377-17.9-17.403-27.74-16.02-72.7-16.02-100.45-.001-8.7 5.026-14.67 11.033-17.9 17.404h-2.9v11.603c0 10.5 6.94 20.997 20.8 29.006 27.74 16.02 72.7 16.02 100.45.002 13.87-8.01 20.8-18.51 20.8-29.008v-11.603z" class="E"/><path d="M3464.8 535.37c-12.2 1.368-24.04 5.115-34.82 11.032-8.7 5.026-14.67 11.033-17.9 17.404h-2.9v11.603c0 10.498 6.94 20.996 20.8 29.006 10.78 5.916 22.6 9.664 34.82 11.032V535.37z" class="B"/><path d="M3530.63 604.3c13.74-7.996 20.6-18.443 20.6-28.89v-11.603h-2.9a41.4 41.4 0 0 0-14.26-15.11h-3.46V604.3z" class="C"/><g class="C D"><use xlink:href="#M" y="-58.063" class="D"/><path d="M3430 546.4c-3.56 2.03-6.88 4.448-9.92 7.207v43.613a52.12 52.12 0 0 0 3.08 2.611v-47.27h5.8v51.224l1.03.628a71.72 71.72 0 0 0 2.05 1.123V552.56h5.8v55.768c1 .436 2.04.855 3.08 1.257V552.56h5.8v59.028a87.71 87.71 0 0 0 3.08.897V552.56h5.8v61.33l3.08.608V552.56h5.8v62.846l3.08.362V552.56h5.8v63.68a120.03 120.03 0 0 0 3.08.127V552.56h5.8v63.84l3.08-.1v-63.75h5.8v63.37l3.08-.315V552.56h5.8v62.236a95.86 95.86 0 0 0 3.08-.563V552.56h5.8v60.36c1.04-.264 2.06-.544 3.08-.84v-59.52h5.8v57.635c1.04-.376 2.07-.77 3.08-1.18V552.56h5.8v53.834c1.04-.526 2.07-1.07 3.08-1.635v-52.2h5.8v48.512a53.62 53.62 0 0 0 3.09-2.396V552.56h.5a57.75 57.75 0 0 0-8.77-6.16c-6.84-3.85-14.17-6.738-21.8-8.585h-56.86c-7.62 1.847-14.95 4.736-21.8 8.584h0zm-15.73 13.807a31.63 31.63 0 0 0-2.19 3.597h-.9v21.268c.83 1.962 1.87 3.83 3.1 5.577v-30.442z" class="D"/></g><use xlink:href="#O" y="-46.448" class="B"/><g class="F"><use xlink:href="#R" y="-34.834" class="G"/><path d="M3530.44 592.813c-27.74 16.02-72.7 16.02-100.45-.001-13.4-7.74-20.3-17.807-20.76-27.95-.48 10.848 6.43 21.786 20.76 30.065 27.74 16.02 72.7 16.02 100.45.001 14.33-8.28 21.24-19.215 20.76-30.063-.46 10.143-7.36 20.207-20.76 27.948z" class="H"/></g><use xlink:href="#Q" y="-46.449" class="C"/><path d="M3444.57 545.874c19.68-11.37 51.6-11.37 71.3.001 9.26 5.348 14.16 12.258 14.72 19.26.62-7.9-4.3-15.896-14.72-21.92-19.7-11.372-51.6-11.372-71.3-.001-10.43 6.024-15.34 14.03-14.72 21.918.56-7.002 5.46-13.912 14.72-19.26zm60.43 4.182l-3.9 1.117 1.1.44-3.82 2.205a21.45 21.45 0 0 0-9.67-2.262 18.5 18.5 0 0 0-9.32 2.52c-1 .565-1.96 1.25-2.8 2.04-.65.598-1.17 1.334-1.5 2.155a7.72 7.72 0 0 0-.5 2.067 11.94 11.94 0 0 0 .09 2.236l.45 3.56a10.42 10.42 0 0 1 .09 2.495c-.1.734-.4 1.428-.84 2.02a6.9 6.9 0 0 1-2.24 1.917 4.58 4.58 0 0 1-2.35.857 4.55 4.55 0 0 1-2.44-.507c-1.07-.615-1.34-1.38-.82-2.3 1.15-1.446 2.6-2.618 4.26-3.432v-2.67l-3.34 1.254-4.8-2.04c-2.3 1.205-4.25 2.964-5.7 5.118l-.55-.617v2.62c.02 1.798 1.4 3.57 4.14 5.315l-1.9 1.097-2.58-1.182v2.67l2.32 1.34 4.52-2.612a19.75 19.75 0 0 0 9.15 1.825c3.02-.042 6-.84 8.63-2.32 1.1-.62 2.14-1.384 3.06-2.273a7.52 7.52 0 0 0 1.7-2.476c.3-.782.53-1.604.63-2.443.08-.862.07-1.73-.01-2.592l-.4-3.444-.1-1.507c.02-.44.07-.877.17-1.306a2.96 2.96 0 0 1 .78-1.489 7.22 7.22 0 0 1 1.66-1.26 6.86 6.86 0 0 1 2.57-.82c.88-.137 1.78.013 2.56.43a2.36 2.36 0 0 1 .8.618c.1.13.14.286.14.446l-3.98.827v2.67l8.06 3.586 1.76-1.162c.57-.4 1.1-.834 1.63-1.3.5-.437.95-.924 1.35-1.454a5.12 5.12 0 0 0 .76-1.572c.08-.26.12-.528.13-.8l.01-.01v-2.8l-1.02.213c-.02-.018-.03-.035-.04-.053a9.59 9.59 0 0 0-2.15-1.838l4.23-2.443v-2.67z" class="E"/><path d="M3456.07 576.085l4.48-2.586c-3.06-1.94-4.43-3.914-4.1-5.92.33-2.006 2.4-4.178 6.2-6.517l8.15 3.456c-1.66.814-3.1 1.986-4.26 3.432-.52.918-.25 1.684.82 2.298a4.54 4.54 0 0 0 2.44.508 4.58 4.58 0 0 0 2.35-.857c.87-.47 1.64-1.123 2.24-1.917.44-.593.73-1.287.84-2.02a10.42 10.42 0 0 0-.09-2.495l-.45-3.56a11.94 11.94 0 0 1-.09-2.236c.06-.7.23-1.406.5-2.067.34-.82.86-1.557 1.5-2.155a14.53 14.53 0 0 1 2.81-2.041 18.54 18.54 0 0 1 9.32-2.522 21.51 21.51 0 0 1 9.67 2.262l4.26-2.456 2.36 1.364-4.23 2.444a9.59 9.59 0 0 1 2.15 1.838c.45.508.78 1.11.98 1.76.13.56.1 1.146-.06 1.696-.16.564-.42 1.096-.76 1.573-.4.53-.85 1.017-1.35 1.454-.52.467-1.06.9-1.63 1.3l-1.76 1.163-8.06-3.586 1.5-.936 1.2-.832c.33-.228.62-.494.88-.793a2.33 2.33 0 0 0 .39-.701.86.86 0 0 0 .02-.357c-.02-.12-.07-.23-.15-.326a2.37 2.37 0 0 0-.8-.617c-.78-.416-1.68-.566-2.56-.43a6.78 6.78 0 0 0-2.57.818 7.25 7.25 0 0 0-1.66 1.261 2.96 2.96 0 0 0-.78 1.489c-.1.43-.15.866-.17 1.306 0 .31.03.814.1 1.506l.4 3.445c.08.862.1 1.73.01 2.592-.1.84-.32 1.66-.63 2.443-.4.933-.97 1.776-1.7 2.476a14.81 14.81 0 0 1-3.06 2.273c-2.64 1.48-5.6 2.278-8.63 2.32a19.76 19.76 0 0 1-9.15-1.825l-4.52 2.61-2.32-1.338z" class="B"/><path d="M3556.3 552.194h-2.9c-3.24-6.37-9.2-12.377-17.9-17.403-27.74-16.02-72.7-16.02-100.44-.001-8.7 5.027-14.67 11.033-17.92 17.404h-2.88v11.603c0 10.5 6.93 20.997 20.8 29.006 27.74 16.02 72.7 16.022 100.44.002 13.87-8 20.8-18.51 20.8-29.008v-11.603z" class="E"/><path d="M3469.9 523.758c-12.22 1.368-24.05 5.115-34.82 11.03-8.7 5.027-14.67 11.033-17.92 17.404h-2.88v11.603c0 10.5 6.93 20.997 20.8 29.006 10.77 5.916 22.6 9.664 34.82 11.033v-80.077z" class="B"/><path d="M3535.7 592.688c13.73-7.997 20.6-18.443 20.6-28.89v-11.603h-2.9c-3.4-6.167-8.3-11.367-14.25-15.1h-3.46v55.604z" class="C"/><path d="M3552.66 550.845c-.9-1.566-1.94-3.058-3.08-4.46v34.868a34.8 34.8 0 0 0 3.08-4.467v-25.94zm-117.6-16.045a55.88 55.88 0 0 0-9.92 7.208V585.6a46.08 46.08 0 0 0 3.08 2.612v-47.27h5.8v51.223l1.03.628 2.05 1.124v-52.975h5.8v55.767a92.33 92.33 0 0 0 3.08 1.258v-57.025h5.8v59.028a97.02 97.02 0 0 0 3.08.896v-59.924h5.8v61.328l3.08.608v-61.936h5.8v62.846l3.08.362v-63.208h5.8v63.68l3.1.127v-63.806h5.8v63.84l3.08-.1v-63.748h5.8v63.37l3.08-.314v-63.056h5.8v62.236l3.08-.563v-61.673h5.8v60.36a104.4 104.4 0 0 0 3.08-.839v-59.52h5.8v57.635l3.1-1.18v-56.455h5.8v53.833a68.97 68.97 0 0 0 3.08-1.635v-52.198h5.8v48.512l3.08-2.396v-46.116h.52c-2.73-2.322-5.67-4.384-8.78-6.16-6.84-3.848-14.17-6.737-21.8-8.584h-56.86a85.6 85.6 0 0 0-21.8 8.583zm-15.73 13.798a31.63 31.63 0 0 0-2.19 3.597h-.9v21.268a30.53 30.53 0 0 0 3.08 5.577v-30.442z" class="D C"/><path d="M3535.5 581.203c-27.73 16.02-72.7 16.02-100.44-.001s-27.74-41.993 0-58.013c27.73-16.02 72.7-16.02 100.44.001s27.74 41.993 0 58.013z" class="B"/><g class="F"><path d="M3501.2 559.206c20.42-11.793 25.8-28.978 16.14-43.617-26.65-7.786-60-5.26-82.27 7.6-20.42 11.793-25.8 28.977-16.14 43.617 26.64 7.786 60 5.26 82.27-7.6z" class="G"/><path d="M3535.5 581.2c-27.73 16.02-72.7 16.02-100.44-.001-13.4-7.74-20.3-17.807-20.76-27.95-.48 10.85 6.42 21.786 20.76 30.065 27.74 16.02 72.7 16.02 100.44.001 14.33-8.28 21.24-19.215 20.76-30.063-.45 10.143-7.36 20.207-20.76 27.948z" class="H"/></g><path d="M3520.94 572.784c-19.7 11.37-51.6 11.37-71.3-.001s-19.7-29.808 0-41.18 51.6-11.37 71.3 0 19.7 29.808 0 41.18z" class="C"/><path d="M3449.64 534.262c19.7-11.37 51.6-11.37 71.3.001 9.26 5.348 14.16 12.258 14.7 19.26.62-7.9-4.28-15.896-14.7-21.92-19.7-11.37-51.6-11.372-71.3-.001-10.43 6.024-15.33 14.03-14.7 21.92.55-7.003 5.45-13.913 14.7-19.26zm60.44 4.18l-3.9 1.118 1.1.44-3.82 2.204c-3-1.498-6.32-2.272-9.67-2.262a18.49 18.49 0 0 0-9.32 2.522c-1.02.564-1.96 1.25-2.8 2.04-.66.6-1.17 1.335-1.5 2.156a7.35 7.35 0 0 0-.5 2.067c-.05.746-.02 1.495.08 2.236l.46 3.56c.12.826.15 1.663.1 2.496a4.42 4.42 0 0 1-.85 2.021 6.82 6.82 0 0 1-2.24 1.916c-.68.5-1.5.796-2.34.858a4.56 4.56 0 0 1-2.45-.508c-1.06-.614-1.33-1.38-.8-2.298a12.47 12.47 0 0 1 4.25-3.432v-2.67l-3.34 1.254-4.8-2.04c-2.3 1.205-4.25 2.964-5.7 5.118l-.55-.617v2.62h.02c.01 1.8 1.38 3.57 4.14 5.315l-1.9 1.097-2.58-1.18v2.67l2.3 1.338 4.53-2.612a19.71 19.71 0 0 0 9.14 1.826c3.03-.043 6-.84 8.63-2.32 1.12-.62 2.15-1.385 3.06-2.273a7.52 7.52 0 0 0 1.7-2.476 9.38 9.38 0 0 0 .63-2.443c.08-.862.08-1.73-.01-2.592l-.38-3.445-.1-1.507c.01-.44.07-.877.17-1.306.1-.56.38-1.075.77-1.488.5-.5 1.05-.923 1.67-1.26a6.79 6.79 0 0 1 2.56-.818 4.14 4.14 0 0 1 2.57.43 2.47 2.47 0 0 1 .8.617c.1.13.14.286.14.446l-3.98.828v2.67l8.06 3.586 1.76-1.163a17.23 17.23 0 0 0 1.62-1.3c.5-.437.95-.924 1.35-1.455.34-.476.6-1.008.77-1.572.07-.26.12-.528.13-.798l.01-.01v-2.8l-1.03.214c-.01-.018-.02-.035-.04-.053a9.35 9.35 0 0 0-2.15-1.838l4.23-2.444v-2.67z" class="E"/><path d="M3461.15 564.472l4.48-2.586c-3.06-1.94-4.43-3.913-4.1-5.92s2.4-4.178 6.2-6.516l8.14 3.456c-1.65.813-3.1 1.986-4.25 3.43-.53.918-.26 1.684.8 2.3.75.394 1.6.57 2.45.508.84-.062 1.66-.36 2.34-.858a6.82 6.82 0 0 0 2.24-1.916c.45-.593.74-1.288.85-2.02.06-.833.03-1.67-.1-2.496l-.46-3.56c-.1-.74-.13-1.5-.08-2.237.06-.71.22-1.405.5-2.066.34-.82.85-1.558 1.5-2.156a14.27 14.27 0 0 1 2.81-2.041 18.5 18.5 0 0 1 9.32-2.521c3.35-.01 6.67.764 9.67 2.262l4.25-2.456 2.36 1.364-4.23 2.443c.8.502 1.53 1.122 2.15 1.84.46.508.8 1.11.98 1.76.14.56.12 1.147-.05 1.697-.17.564-.43 1.096-.77 1.572a9.64 9.64 0 0 1-1.35 1.455 16.03 16.03 0 0 1-1.62 1.3l-1.76 1.163-8.06-3.586 1.5-.937 1.2-.83a5.05 5.05 0 0 0 .88-.793c.17-.208.3-.446.38-.7a.62.62 0 0 0 .02-.357.76.76 0 0 0-.14-.326c-.22-.26-.5-.47-.8-.617-.8-.416-1.7-.567-2.57-.43-.9.098-1.77.377-2.56.82a7.07 7.07 0 0 0-1.67 1.261c-.4.413-.66.93-.77 1.488-.1.43-.16.866-.17 1.306 0 .312.03.814.1 1.507l.38 3.445c.1.86.1 1.73.01 2.592a9.38 9.38 0 0 1-.63 2.443c-.4.933-.97 1.776-1.7 2.476-.9.888-1.94 1.652-3.06 2.273-2.64 1.48-5.6 2.277-8.63 2.32a19.71 19.71 0 0 1-9.14-1.826l-4.53 2.612-2.3-1.34z" class="B"/><path d="M3542.05 538.022h-2.9c-3.24-6.37-9.2-12.377-17.92-17.403-27.73-16.02-72.7-16.02-100.44-.001-8.7 5.026-14.67 11.033-17.9 17.404h-2.9v11.603c0 10.5 6.93 20.997 20.8 29.006 27.74 16.02 72.7 16.02 100.45.002 13.86-8.01 20.8-18.51 20.8-29.008v-11.603z" class="E"/><path d="M3455.62 509.585c-12.2 1.368-24.04 5.116-34.82 11.032-8.7 5.026-14.67 11.033-17.9 17.404h-2.9v11.603c0 10.498 6.93 20.996 20.8 29.006 10.78 5.916 22.6 9.664 34.82 11.032v-80.077z" class="B"/><path d="M3521.44 578.516c13.74-7.996 20.6-18.443 20.6-28.89v-11.603h-2.9a41.39 41.39 0 0 0-14.26-15.11h-3.46v55.604z" class="C"/><path d="M3538.4 536.675c-.9-1.567-1.93-3.058-3.08-4.46v34.868c1.15-1.404 2.18-2.898 3.08-4.466v-25.94zm-117.6-16.055c-3.56 2.03-6.9 4.448-9.92 7.207v43.613a52.13 52.13 0 0 0 3.08 2.612v-47.27h5.8v51.224l1.03.628c.67.387 1.36.756 2.05 1.124V526.78h5.8v55.768c1 .436 2.04.855 3.08 1.257V526.78h5.8v59.03a83.78 83.78 0 0 0 3.08.896V526.78h5.8v61.33l3.08.608V526.78h5.8v62.846l3.08.362V526.78h5.8v63.68l3.08.128V526.78h5.8v63.84l3.08-.1v-63.75h5.8v63.37l3.08-.314V526.78h5.8v62.237a101.73 101.73 0 0 0 3.08-.563V526.78h5.8v60.36c1.04-.264 2.06-.544 3.08-.84v-59.52h5.8v57.636c1.04-.376 2.07-.77 3.08-1.18V526.78h5.8v53.834c1.04-.525 2.07-1.07 3.08-1.635v-52.2h5.8v48.512a53.62 53.62 0 0 0 3.09-2.396V526.78h.5a58.25 58.25 0 0 0-8.77-6.16 85.46 85.46 0 0 0-21.8-8.585h-56.86a85.57 85.57 0 0 0-21.79 8.584h0zm-15.72 13.807c-.8 1.15-1.54 2.35-2.2 3.597h-.9v21.268c.83 1.962 1.87 3.83 3.1 5.577v-30.442z" class="D C"/><path d="M3521.25 567.03c-27.74 16.02-72.7 16.02-100.45-.001-27.73-16.02-27.73-41.994 0-58.013 27.74-16.02 72.7-16.02 100.44 0 27.74 16.02 27.74 41.994.01 58.014z" class="B"/><g class="F"><path d="M3486.94 545.032c20.4-11.793 25.78-28.977 16.14-43.617-26.65-7.785-60-5.26-82.28 7.6-20.42 11.794-25.78 28.978-16.14 43.618 26.65 7.785 60 5.26 82.28-7.6z" class="G"/><path d="M3521.25 567.03c-27.74 16.02-72.7 16.02-100.45-.002-13.4-7.74-20.3-17.806-20.76-27.95-.48 10.848 6.43 21.785 20.76 30.065 27.74 16.02 72.7 16.02 100.45 0 14.33-8.278 21.23-19.214 20.75-30.062-.45 10.142-7.35 20.207-20.75 27.948z" class="H"/></g><path d="M3506.67 558.61c-19.68 11.372-51.6 11.37-71.3 0s-19.7-29.81 0-41.18c19.68-11.37 51.6-11.37 71.3.001s19.7 29.808 0 41.18z" class="C"/><path d="M3435.37 520.1c19.7-11.37 51.6-11.37 71.3.001 9.26 5.348 14.16 12.258 14.7 19.26.62-7.9-4.28-15.896-14.7-21.92-19.7-11.372-51.6-11.372-71.3-.001-10.42 6.024-15.33 14.03-14.7 21.918.55-7.002 5.46-13.912 14.7-19.26zm60.45 4.17l-3.9 1.118 1.1.44-3.82 2.204a21.45 21.45 0 0 0-9.67-2.262 18.5 18.5 0 0 0-9.32 2.52c-1 .565-1.96 1.25-2.8 2.04a6.11 6.11 0 0 0-1.51 2.156c-.26.66-.43 1.357-.5 2.066a11.95 11.95 0 0 0 .09 2.237l.45 3.56a10.43 10.43 0 0 1 .09 2.496 4.52 4.52 0 0 1-.84 2.021c-.6.794-1.37 1.448-2.24 1.916a4.56 4.56 0 0 1-2.35.857 4.52 4.52 0 0 1-2.44-.507c-1.07-.615-1.34-1.38-.82-2.3 1.15-1.445 2.6-2.618 4.26-3.432v-2.67l-3.34 1.253-4.8-2.038c-2.3 1.204-4.25 2.964-5.7 5.118l-.55-.617v2.62h.01c.02 1.798 1.4 3.57 4.14 5.315l-1.9 1.097-2.58-1.18v2.67l2.32 1.34 4.52-2.612a19.75 19.75 0 0 0 9.15 1.826 18.19 18.19 0 0 0 8.63-2.32 15.08 15.08 0 0 0 3.06-2.273 7.52 7.52 0 0 0 1.7-2.476c.3-.782.53-1.604.63-2.443.08-.863.07-1.73-.01-2.592l-.4-3.445-.1-1.507c.02-.44.07-.877.17-1.306a2.96 2.96 0 0 1 .78-1.488 7.38 7.38 0 0 1 1.66-1.26c.8-.442 1.67-.72 2.57-.82a4.11 4.11 0 0 1 2.56.429c.3.147.58.357.8.618.1.13.14.286.14.446l-3.98.828v2.67l8.06 3.586 1.76-1.163a17.52 17.52 0 0 0 1.63-1.3 9.64 9.64 0 0 0 1.35-1.455 5.11 5.11 0 0 0 .76-1.572c.08-.26.12-.528.13-.798v-2.8l-1.02.213c-.02-.018-.03-.034-.04-.052a9.57 9.57 0 0 0-2.15-1.839l4.23-2.443v-2.67z" class="E"/><path d="M3446.88 550.3l4.48-2.586c-3.06-1.94-4.43-3.914-4.1-5.92.33-2.005 2.4-4.177 6.2-6.516l8.15 3.456c-1.66.813-3.1 1.986-4.26 3.432-.52.917-.25 1.684.82 2.298.75.394 1.6.57 2.44.508a4.58 4.58 0 0 0 2.35-.857c.87-.47 1.64-1.123 2.24-1.917.44-.593.73-1.287.84-2.02a10.43 10.43 0 0 0-.09-2.496l-.45-3.56a11.94 11.94 0 0 1-.09-2.236c.06-.7.23-1.406.5-2.067.34-.82.86-1.557 1.5-2.155.85-.79 1.8-1.477 2.8-2.042 2.83-1.65 6.05-2.52 9.32-2.52 3.36-.01 6.67.764 9.67 2.262l4.26-2.456 2.36 1.364-4.23 2.443c.8.503 1.53 1.122 2.15 1.84a4.75 4.75 0 0 1 .98 1.76 3.26 3.26 0 0 1-.06 1.697 5.11 5.11 0 0 1-.76 1.572c-.4.53-.85 1.018-1.35 1.455-.52.467-1.06.9-1.63 1.3l-1.76 1.163-8.06-3.586 1.5-.936 1.2-.832c.33-.228.62-.494.88-.793.17-.208.3-.446.38-.7.04-.115.05-.238.03-.357s-.07-.23-.15-.326a2.37 2.37 0 0 0-.8-.617c-.78-.416-1.68-.566-2.56-.43a6.78 6.78 0 0 0-2.57.818c-.6.337-1.17.762-1.66 1.26a2.96 2.96 0 0 0-.78 1.488c-.1.43-.15.867-.17 1.306a19.67 19.67 0 0 0 .09 1.507l.4 3.445c.08.86.1 1.73.01 2.592-.1.84-.32 1.66-.63 2.443-.4.933-.97 1.776-1.7 2.476a14.81 14.81 0 0 1-3.06 2.273 18.19 18.19 0 0 1-8.63 2.32 19.75 19.75 0 0 1-9.15-1.826l-4.52 2.612-2.32-1.338z" class="B"/><path d="M3438.32 680.518h-2.96c-3.3-6.51-9.4-12.65-18.3-17.785-28.34-16.37-74.3-16.37-102.64-.001-8.9 5.137-15 11.275-18.3 17.786h-2.95v11.856c0 10.728 7.1 21.456 21.26 29.64 28.34 16.37 74.3 16.372 102.64.001 14.17-8.185 21.26-18.914 21.26-29.642v-11.856z" class="E"/><path d="M3350 651.46c-12.48 1.398-24.57 5.227-35.58 11.273-8.9 5.136-15 11.274-18.3 17.785h-2.95v11.856c0 10.73 7.1 21.456 21.26 29.64 11 6.046 23.1 9.876 35.58 11.274v-81.83z" class="B"/><path d="M3417.26 721.897c14.04-8.17 21.06-18.846 21.06-29.523v-11.856h-2.95c-3.47-6.302-8.5-11.616-14.57-15.44h-3.54v56.82z" class="C"/><path d="M3434.58 679.14a34.98 34.98 0 0 0-3.14-4.558v35.63a33.96 33.96 0 0 0 3.14-4.564V679.14zm-120.16-16.408a57.17 57.17 0 0 0-10.14 7.365v44.567a50.97 50.97 0 0 0 3.15 2.669V669.03h5.94v52.344l1.05.642 2.1 1.148V669.03h5.94v56.988a81.19 81.19 0 0 0 3.15 1.284V669.03h5.93v60.32a101.48 101.48 0 0 0 3.15.916V669.03h5.93v62.67l3.15.622V669.03h5.94v64.22l3.14.37v-64.6h5.94v65.07l3.15.13v-65.2h5.93v65.235l3.15-.092V669.03h5.93v64.757l3.15-.32V669.03h5.94v63.598l3.14-.576V669.03h5.94v61.68a98.34 98.34 0 0 0 3.15-.858V669.03h5.93v58.896a93.02 93.02 0 0 0 3.15-1.206v-57.7h5.93v55a78.38 78.38 0 0 0 3.15-1.671v-53.34h5.93v49.573l3.15-2.448V669.03h.53c-2.8-2.373-5.8-4.48-8.97-6.296a87.27 87.27 0 0 0-22.27-8.772h-58.1a87.41 87.41 0 0 0-22.27 8.771zm-16.07 14.1c-.83 1.175-1.57 2.403-2.23 3.676h-.92v21.733c.85 2.004 1.9 3.915 3.15 5.7v-31.108z" class="D C"/><path d="M3417.06 710.16c-28.34 16.37-74.3 16.37-102.64-.001-28.34-16.37-28.34-42.912 0-59.282s74.3-16.37 102.64 0 28.35 42.913 0 59.283z" class="B"/><g class="F"><path d="M3382 687.68c20.86-12.05 26.35-29.61 16.5-44.57-27.23-7.956-61.32-5.374-84.07 7.766-20.87 12.052-26.35 29.612-16.5 44.572 27.23 7.956 61.33 5.375 84.08-7.767z" class="G"/><path d="M3417.06 710.16c-28.34 16.37-74.3 16.37-102.64-.001-13.7-7.91-20.75-18.197-21.2-28.562-.5 11.086 6.56 22.263 21.2 30.723 28.34 16.37 74.3 16.37 102.64.001 14.65-8.46 21.7-19.636 21.2-30.72-.46 10.365-7.5 20.65-21.2 28.56z" class="H"/></g><use xlink:href="#T" class="C"/><path d="M3329.3 662.192c20.12-11.62 52.74-11.62 72.86.001 9.46 5.465 14.47 12.526 15.03 19.683.64-8.062-4.37-16.244-15.03-22.4-20.12-11.62-52.74-11.62-72.86-.001-10.66 6.156-15.67 14.337-15.03 22.398.56-7.156 5.57-14.217 15.03-19.68zm61.78 4.273l-4 1.142 1.14.45-3.9 2.252a22.02 22.02 0 0 0-9.9-2.31 19.02 19.02 0 0 0-9.52 2.576c-1.04.577-2 1.278-2.87 2.086a6.08 6.08 0 0 0-1.54 2.203 7.67 7.67 0 0 0-.51 2.112 12.47 12.47 0 0 0 .09 2.285l.46 3.637c.13.844.17 1.7.1 2.55-.12.75-.4 1.46-.87 2.066a7 7 0 0 1-2.28 1.958 4.67 4.67 0 0 1-2.4.876 4.65 4.65 0 0 1-2.5-.519c-1.1-.628-1.36-1.4-.83-2.35 1.17-1.477 2.66-2.675 4.35-3.506v-2.73l-3.42 1.28-4.9-2.083c-2.34 1.23-4.34 3.03-5.82 5.23l-.56-.63v2.676h.02c.01 1.838 1.4 3.65 4.23 5.432l-1.94 1.12-2.64-1.208v2.73l2.37 1.367 4.62-2.67a20.17 20.17 0 0 0 9.35 1.866 18.5 18.5 0 0 0 8.81-2.371c1.14-.634 2.2-1.415 3.13-2.323.75-.715 1.34-1.576 1.74-2.53a9.77 9.77 0 0 0 .64-2.496 13.79 13.79 0 0 0-.01-2.649l-.4-3.52c-.06-.708-.1-1.222-.1-1.54.01-.45.07-.896.17-1.334a3.06 3.06 0 0 1 .79-1.521c.5-.5 1.08-.944 1.7-1.3.8-.45 1.7-.736 2.62-.836.9-.14 1.82.014 2.62.438a2.37 2.37 0 0 1 .82.63c.1.132.15.293.14.456l-4.06.846v2.73l8.23 3.665a40.61 40.61 0 0 0 1.8-1.188 16.54 16.54 0 0 0 1.65-1.33c.5-.447.97-.945 1.38-1.486a5.11 5.11 0 0 0 .78-1.607c.08-.266.13-.54.14-.816v-.01-2.87l-1.05.218c-.02-.02-.02-.035-.04-.054a9.47 9.47 0 0 0-2.2-1.879l4.33-2.496v-2.73z" class="E"/><path d="M3341.07 693.065l4.58-2.643c-3.13-1.983-4.53-4-4.2-6.048s2.44-4.27 6.33-6.66l8.33 3.53c-1.7.83-3.18 2.03-4.35 3.507-.54.938-.26 1.72.83 2.35a4.65 4.65 0 0 0 2.5.518c.86-.063 1.7-.366 2.4-.875.9-.48 1.67-1.147 2.28-1.96.46-.606.75-1.316.87-2.065.07-.85.03-1.707-.1-2.55l-.46-3.638c-.1-.757-.13-1.522-.1-2.285a7.68 7.68 0 0 1 .51-2.112c.34-.84.87-1.59 1.54-2.203a14.68 14.68 0 0 1 2.87-2.085c2.9-1.686 6.18-2.575 9.52-2.576a22.01 22.01 0 0 1 9.89 2.311l4.34-2.5 2.42 1.394-4.33 2.497c.83.513 1.57 1.146 2.2 1.878a4.79 4.79 0 0 1 1 1.799c.14.573.12 1.172-.06 1.734a5.1 5.1 0 0 1-.78 1.607c-.4.542-.87 1.04-1.38 1.486a16.39 16.39 0 0 1-1.65 1.329l-1.8 1.188-8.23-3.664 1.54-.957a18.7 18.7 0 0 0 1.22-.85c.33-.233.63-.505.9-.8a2.4 2.4 0 0 0 .39-.717.75.75 0 0 0 .02-.365c-.02-.12-.07-.236-.15-.332a2.34 2.34 0 0 0-.82-.631c-.8-.425-1.72-.58-2.62-.44-.92.1-1.8.385-2.62.837-.62.344-1.2.778-1.7 1.288a3.06 3.06 0 0 0-.79 1.521c-.1.438-.16.885-.17 1.334-.01.32.03.833.1 1.54l.4 3.52a13.79 13.79 0 0 1 .01 2.649c-.1.858-.32 1.697-.64 2.497-.4.953-1 1.814-1.74 2.53-.94.907-2 1.688-3.13 2.323a18.51 18.51 0 0 1-8.81 2.37 20.17 20.17 0 0 1-9.35-1.865l-4.62 2.67-2.37-1.368z" class="B"/><path d="M3438.32 668.65h-2.96c-3.3-6.5-9.4-12.648-18.3-17.784-28.34-16.37-74.3-16.37-102.64-.001-8.9 5.137-15 11.275-18.3 17.785h-2.95v11.857c0 10.728 7.1 21.456 21.26 29.64 28.34 16.37 74.3 16.37 102.64.001 14.17-8.185 21.26-18.914 21.26-29.642V668.65z" class="E"/><path d="M3350 639.592c-12.48 1.398-24.57 5.228-35.58 11.273-8.9 5.136-15 11.274-18.3 17.785h-2.95v11.857c0 10.728 7.1 21.456 21.26 29.64 11 6.045 23.1 9.875 35.58 11.273v-81.83z" class="B"/><path d="M3417.26 710.028c14.04-8.17 21.06-18.846 21.06-29.523V668.65h-2.95c-3.47-6.302-8.5-11.616-14.57-15.44h-3.54v56.82z" class="C"/><path d="M3434.58 667.27c-.92-1.6-1.98-3.125-3.15-4.558v35.63c1.17-1.435 2.23-2.96 3.15-4.565V667.27zm-120.16-16.406c-3.64 2.077-7.04 4.546-10.14 7.366v44.567a53.32 53.32 0 0 0 3.15 2.668V657.16h5.94v52.344l1.05.642 2.1 1.15V657.16h5.94v56.988a81.2 81.2 0 0 0 3.15 1.285V657.16h5.93v60.32a110.18 110.18 0 0 0 3.15.916V657.16h5.93v62.67l3.15.622V657.16h5.93v64.22l3.15.37v-64.6h5.94v65.072l3.15.13V657.16h5.93v65.236l3.15-.093V657.16h5.93v64.757l3.15-.32V657.16h5.93v63.598a109.17 109.17 0 0 0 3.15-.575V657.16h5.94v61.68a101.03 101.03 0 0 0 3.15-.857V657.16h5.93v58.896c1.06-.384 2.1-.786 3.15-1.205v-57.7h5.93v55.012a78.38 78.38 0 0 0 3.15-1.671v-53.34h5.93v49.573c1.1-.797 2.16-1.616 3.15-2.448V657.16h.53c-2.8-2.372-5.8-4.48-8.97-6.295-6.98-3.933-14.48-6.885-22.27-8.773h-58.1a87.41 87.41 0 0 0-22.27 8.771h0zm-16.07 14.1c-.83 1.175-1.57 2.403-2.24 3.676h-.9v21.733c.85 2.005 1.9 3.915 3.15 5.7v-31.108z" class="D C"/><path d="M3417.06 698.292c-28.34 16.37-74.3 16.37-102.64-.001s-28.34-42.912 0-59.282 74.3-16.37 102.64.001 28.34 42.912 0 59.282z" class="B"/><g class="F"><path d="M3382 675.814c20.86-12.05 26.35-29.612 16.5-44.572-27.23-7.956-61.32-5.374-84.07 7.766-20.87 12.052-26.35 29.612-16.5 44.572 27.23 7.956 61.33 5.375 84.08-7.766z" class="G"/><path d="M3417.06 698.292c-28.34 16.37-74.3 16.37-102.64-.001-13.7-7.91-20.75-18.196-21.2-28.562-.5 11.086 6.56 22.263 21.2 30.723 28.34 16.37 74.3 16.37 102.64.001 14.65-8.46 21.7-19.635 21.2-30.72-.46 10.364-7.5 20.65-21.2 28.56z" class="H"/></g><use xlink:href="#U" class="C"/><path d="M3329.3 650.325c20.12-11.62 52.74-11.62 72.86.001 9.46 5.465 14.47 12.527 15.03 19.683.64-8.062-4.37-16.244-15.03-22.4-20.12-11.62-52.74-11.62-72.86-.001-10.66 6.156-15.67 14.337-15.03 22.398.56-7.155 5.57-14.216 15.03-19.68zm61.78 4.275l-4 1.142 1.14.45-3.9 2.252a22.05 22.05 0 0 0-9.9-2.312 18.93 18.93 0 0 0-9.52 2.577 14.68 14.68 0 0 0-2.87 2.085c-.67.612-1.2 1.364-1.54 2.203a7.68 7.68 0 0 0-.51 2.112c-.04.763-.01 1.528.1 2.285l.46 3.638c.13.843.17 1.7.1 2.55-.12.75-.4 1.46-.87 2.065a6.99 6.99 0 0 1-2.28 1.958c-.7.5-1.54.813-2.4.876a4.65 4.65 0 0 1-2.5-.518c-1.1-.628-1.36-1.4-.83-2.35 1.17-1.478 2.66-2.676 4.35-3.507v-2.73l-3.42 1.28-4.9-2.084c-2.34 1.232-4.34 3.03-5.82 5.23l-.56-.63v2.676l.02.001c.01 1.837 1.4 3.648 4.23 5.43l-1.94 1.12-2.64-1.207v2.73l2.37 1.368 4.62-2.67a20.17 20.17 0 0 0 9.35 1.866 18.52 18.52 0 0 0 8.81-2.371c1.14-.634 2.2-1.415 3.13-2.323.75-.716 1.34-1.577 1.74-2.53a9.79 9.79 0 0 0 .64-2.497 13.79 13.79 0 0 0-.01-2.649l-.4-3.52c-.06-.707-.1-1.22-.1-1.54.01-.45.07-.897.17-1.335a3.06 3.06 0 0 1 .79-1.521 7.74 7.74 0 0 1 1.7-1.288 6.85 6.85 0 0 1 2.62-.837 4.2 4.2 0 0 1 2.62.44 2.34 2.34 0 0 1 .82.631c.1.132.15.292.14.456l-4.06.845v2.73l8.23 3.664a46.07 46.07 0 0 0 1.81-1.188 16.39 16.39 0 0 0 1.65-1.329c.5-.446.97-.944 1.38-1.486a5.1 5.1 0 0 0 .78-1.607 3.23 3.23 0 0 0 .14-.815l.01-.01v-2.872l-1.05.218c-.02-.018-.02-.035-.04-.054-.63-.732-1.37-1.365-2.2-1.878l4.33-2.497v-2.73z" class="E"/><path d="M3341.07 681.196l4.58-2.643c-3.13-1.983-4.53-4-4.2-6.048s2.44-4.27 6.33-6.66l8.33 3.532c-1.7.83-3.18 2.03-4.35 3.507-.54.938-.26 1.72.83 2.35.77.402 1.63.58 2.5.518.86-.063 1.7-.366 2.4-.876a6.99 6.99 0 0 0 2.28-1.958c.46-.606.75-1.316.87-2.065.07-.85.03-1.707-.1-2.55l-.46-3.637c-.1-.757-.13-1.522-.1-2.285a7.67 7.67 0 0 1 .51-2.112 6.08 6.08 0 0 1 1.54-2.203 14.68 14.68 0 0 1 2.87-2.085 18.91 18.91 0 0 1 9.52-2.577c3.43-.01 6.82.78 9.9 2.312l4.34-2.5 2.42 1.394-4.33 2.497c.83.513 1.57 1.146 2.2 1.878.46.52.8 1.133 1 1.8.14.573.12 1.172-.06 1.734a5.11 5.11 0 0 1-.78 1.607c-.4.54-.87 1.04-1.38 1.486a16.39 16.39 0 0 1-1.65 1.329 44.96 44.96 0 0 1-1.81 1.188l-8.23-3.665 1.54-.956c.4-.256.8-.54 1.22-.85.33-.233.63-.505.9-.8a2.4 2.4 0 0 0 .39-.717c.04-.118.04-.243.02-.365a.69.69 0 0 0-.15-.332 2.34 2.34 0 0 0-.82-.631c-.8-.425-1.72-.58-2.62-.44-.92.1-1.8.385-2.62.837-.62.344-1.2.778-1.7 1.288a3.06 3.06 0 0 0-.79 1.521c-.1.438-.16.885-.17 1.334-.01.32.03.833.1 1.54l.4 3.52a13.79 13.79 0 0 1 .01 2.649 9.79 9.79 0 0 1-.64 2.497c-.4.953-1 1.814-1.74 2.53-.94.907-2 1.688-3.13 2.322a18.5 18.5 0 0 1-8.81 2.371 20.17 20.17 0 0 1-9.35-1.865l-4.62 2.67-2.37-1.368z" class="B"/><path d="M3428.16 663.072h-2.96c-3.3-6.5-9.4-12.648-18.3-17.784-28.35-16.37-74.3-16.37-102.64-.001-8.9 5.136-15 11.275-18.3 17.785H3283v11.857c0 10.728 7.1 21.456 21.26 29.64 28.34 16.37 74.3 16.37 102.64.001 14.17-8.186 21.26-18.914 21.26-29.642v-11.857z" class="E"/><path d="M3339.84 634.014c-12.5 1.397-24.57 5.227-35.58 11.272-8.9 5.137-15 11.275-18.3 17.786H3283v11.856c0 10.728 7.1 21.456 21.26 29.64 11 6.045 23.1 9.875 35.58 11.273v-81.828z" class="B"/><path d="M3407.1 704.452c14.03-8.17 21.06-18.846 21.06-29.523v-11.856h-2.96c-3.46-6.302-8.48-11.616-14.57-15.44h-3.53v56.82z" class="C"/><path d="M3424.42 661.693c-.93-1.6-1.98-3.125-3.15-4.558v35.63a34.99 34.99 0 0 0 3.15-4.565v-26.508zm-120.16-16.407c-3.64 2.076-7.04 4.546-10.14 7.366v44.567a50.97 50.97 0 0 0 3.15 2.669v-48.305h5.93v52.344l1.06.642c.68.395 1.4.772 2.1 1.148v-54.134h5.93v56.988a103.94 103.94 0 0 0 3.15 1.284v-58.272h5.94v60.32a101.48 101.48 0 0 0 3.15.916v-61.236h5.93v62.67l3.15.622v-63.292h5.93v64.22l3.15.37v-64.6h5.93v65.072l3.15.13v-65.202h5.94v65.236l3.14-.093v-65.143h5.94v64.757l3.15-.32v-64.436h5.93v63.598a109.17 109.17 0 0 0 3.15-.575v-63.023h5.93v61.68a101.03 101.03 0 0 0 3.15-.857v-60.823h5.94v58.896c1.06-.384 2.1-.786 3.14-1.205v-57.7h5.94v55c1.07-.537 2.12-1.094 3.15-1.67v-53.34h5.93v49.573a59.62 59.62 0 0 0 3.15-2.448v-47.125h.52a58.42 58.42 0 0 0-8.96-6.295 87.38 87.38 0 0 0-22.27-8.773h-58.1a87.05 87.05 0 0 0-22.27 8.77zm-16.08 14.1a32.8 32.8 0 0 0-2.23 3.677h-.9v21.733c.84 2.004 1.9 3.914 3.14 5.7v-31.1z" class="D C"/><path d="M3406.9 692.714c-28.34 16.37-74.3 16.37-102.64-.001-28.35-16.37-28.35-42.912 0-59.282 28.34-16.37 74.3-16.37 102.64.001 28.34 16.37 28.34 42.912 0 59.282z" class="B"/><g class="F"><path d="M3371.84 670.236c20.86-12.05 26.35-29.612 16.5-44.57-27.23-7.956-61.32-5.375-84.07 7.766-20.87 12.05-26.35 29.612-16.5 44.57 27.23 7.957 61.33 5.375 84.08-7.766z" class="G"/><path d="M3406.9 692.713c-28.34 16.37-74.3 16.37-102.64-.001-13.7-7.91-20.76-18.196-21.22-28.562-.5 11.086 6.57 22.263 21.22 30.723 28.34 16.37 74.3 16.37 102.64.001 14.65-8.46 21.7-19.635 21.2-30.72-.46 10.364-7.52 20.65-21.2 28.56z" class="H"/></g><use xlink:href="#U" x="-10.17" y="-5.588" class="C"/><path d="M3319.15 644.747c20.12-11.62 52.74-11.62 72.86.001 9.46 5.465 14.47 12.526 15.03 19.683.63-8.062-4.38-16.244-15.03-22.4-20.12-11.62-52.74-11.62-72.86-.001-10.66 6.156-15.67 14.337-15.03 22.398.56-7.156 5.57-14.217 15.03-19.68zm61.75 4.273l-4 1.142 1.13.45-3.9 2.252a22.01 22.01 0 0 0-9.89-2.311 18.89 18.89 0 0 0-9.52 2.576c-1.04.577-2 1.277-2.87 2.086a6.07 6.07 0 0 0-1.54 2.203 7.01 7.01 0 0 0-.51 2.111 12.48 12.48 0 0 0 .09 2.286l.46 3.637a10.88 10.88 0 0 1 .09 2.55 4.37 4.37 0 0 1-.86 2.065 6.94 6.94 0 0 1-2.29 1.959 4.64 4.64 0 0 1-2.4.876 4.66 4.66 0 0 1-2.5-.519c-1.1-.628-1.37-1.4-.83-2.35a12.68 12.68 0 0 1 4.34-3.507v-2.73l-3.4 1.28-4.9-2.083c-2.34 1.23-4.34 3.03-5.82 5.23l-.56-.63v2.677h.01c.02 1.838 1.42 3.648 4.23 5.43l-1.94 1.12-2.63-1.207v2.73l2.37 1.368 4.62-2.67a20.13 20.13 0 0 0 9.34 1.866 18.59 18.59 0 0 0 8.82-2.371c1.14-.634 2.2-1.415 3.13-2.323.74-.715 1.33-1.577 1.73-2.53a9.39 9.39 0 0 0 .65-2.497 13.78 13.78 0 0 0-.01-2.648l-.4-3.52-.1-1.54c.02-.45.08-.896.18-1.335.1-.57.4-1.1.8-1.52a7.26 7.26 0 0 1 1.7-1.288 6.87 6.87 0 0 1 2.62-.837 4.2 4.2 0 0 1 2.62.44 2.37 2.37 0 0 1 .82.63c.1.132.14.292.14.456l-4.06.846v2.73l8.23 3.665a55.39 55.39 0 0 0 1.8-1.189c.58-.408 1.14-.852 1.66-1.328a10.53 10.53 0 0 0 1.38-1.487 5.33 5.33 0 0 0 .78-1.606c.08-.266.12-.54.14-.816l.01-.01v-2.872l-1.05.22c-.02-.02-.02-.036-.04-.054a9.87 9.87 0 0 0-2.2-1.879l4.32-2.497v-2.73z" class="E"/><path d="M3330.9 675.618l4.57-2.643c-3.12-1.983-4.52-4-4.2-6.05s2.44-4.27 6.33-6.66l8.32 3.532a12.66 12.66 0 0 0-4.34 3.507c-.54.938-.26 1.72.83 2.35.77.402 1.63.58 2.5.518a4.64 4.64 0 0 0 2.39-.876c.9-.478 1.68-1.147 2.3-1.958.46-.606.75-1.316.86-2.065a10.89 10.89 0 0 0-.09-2.551l-.46-3.637c-.1-.757-.13-1.522-.1-2.285.06-.725.23-1.437.5-2.112a6.08 6.08 0 0 1 1.54-2.203 14.68 14.68 0 0 1 2.87-2.085 18.9 18.9 0 0 1 9.52-2.577c3.43-.01 6.82.78 9.9 2.312l4.34-2.5 2.4 1.394-4.32 2.496c.82.514 1.56 1.147 2.2 1.88.46.52.8 1.133 1 1.8.14.573.12 1.172-.06 1.734-.17.577-.43 1.12-.78 1.607-.4.54-.87 1.04-1.38 1.486-.52.477-1.08.92-1.66 1.33-.52.367-1.13.764-1.8 1.188l-8.23-3.665 1.54-.956c.4-.257.8-.54 1.22-.85a4.83 4.83 0 0 0 .89-.81c.18-.213.3-.456.4-.717.03-.118.04-.243.02-.365s-.07-.236-.15-.333c-.23-.266-.5-.48-.82-.63-.8-.424-1.72-.578-2.62-.438-.92.1-1.8.385-2.62.836-.63.345-1.2.78-1.7 1.29a3.06 3.06 0 0 0-.79 1.521c-.1.438-.16.885-.18 1.334 0 .32.03.832.1 1.54l.4 3.52a13.79 13.79 0 0 1 .01 2.649 9.41 9.41 0 0 1-.65 2.497 7.62 7.62 0 0 1-1.73 2.529c-.94.908-2 1.69-3.13 2.324a18.58 18.58 0 0 1-8.82 2.37 20.14 20.14 0 0 1-9.34-1.865l-4.62 2.67-2.37-1.368z" class="B"/><path d="M3438.32 644.92h-2.96c-3.3-6.5-9.4-12.648-18.3-17.784-28.34-16.37-74.3-16.37-102.64-.001-8.9 5.136-15 11.274-18.3 17.785h-2.95v11.856c0 10.73 7.1 21.456 21.26 29.64 28.34 16.37 74.3 16.372 102.64.002 14.17-8.186 21.26-18.914 21.26-29.643V644.92z" class="E"/><path d="M3350 615.86c-12.48 1.398-24.57 5.227-35.58 11.273-8.9 5.136-15 11.274-18.3 17.785h-2.95v11.856c0 10.73 7.1 21.456 21.26 29.64 11 6.046 23.1 9.875 35.58 11.273V615.86z" class="B"/><path d="M3417.26 686.298c14.03-8.17 21.06-18.846 21.06-29.523v-11.857h-2.96c-3.46-6.3-8.48-11.615-14.57-15.44h-3.53v56.82z" class="C"/><path d="M3434.58 643.54c-.93-1.6-1.98-3.125-3.15-4.558v35.63c1.17-1.435 2.23-2.96 3.15-4.565V643.54zm-120.16-16.407a57.17 57.17 0 0 0-10.14 7.365v44.567a50.97 50.97 0 0 0 3.15 2.669V633.43h5.93v52.344l1.06.642 2.1 1.15V633.43h5.94v56.988a87.7 87.7 0 0 0 3.14 1.285V633.43h5.94v60.32l3.15.916V633.43h5.93v62.67l3.15.622V633.43h5.93v64.22l3.15.37v-64.6h5.94v65.07l3.14.13v-65.2h5.94v65.236l3.15-.093V633.43h5.93v64.757l3.15-.32V633.43h5.93v63.598a100.27 100.27 0 0 0 3.15-.575V633.43h5.93v61.68a98.33 98.33 0 0 0 3.15-.857V633.43h5.94v58.896l3.15-1.205v-57.7h5.93v55.012a78.38 78.38 0 0 0 3.15-1.671v-53.34h5.93v49.573l3.15-2.448V633.43h.53c-2.8-2.372-5.8-4.48-8.97-6.295a87.38 87.38 0 0 0-22.27-8.773h-58.1a87.27 87.27 0 0 0-22.27 8.772h0zm-16.07 14.11c-.83 1.175-1.58 2.403-2.24 3.676h-.9v21.733c.84 2.005 1.9 3.915 3.15 5.7v-31.108z" class="D C"/><path d="M3417.06 674.56c-28.34 16.37-74.3 16.37-102.64-.001s-28.35-42.912 0-59.283c28.34-16.37 74.3-16.37 102.64.001 28.34 16.37 28.34 42.913 0 59.283z" class="B"/><g class="F"><path d="M3382 652.08c20.86-12.05 26.35-29.61 16.5-44.57-27.23-7.956-61.32-5.375-84.07 7.766-20.87 12.05-26.35 29.612-16.5 44.572 27.23 7.956 61.33 5.374 84.08-7.767z" class="G"/><path d="M3417.06 674.56c-28.34 16.37-74.3 16.37-102.64-.002-13.7-7.9-20.75-18.196-21.2-28.56-.5 11.086 6.56 22.263 21.2 30.723 28.34 16.37 74.3 16.37 102.64.001 14.65-8.46 21.7-19.636 21.2-30.72-.46 10.365-7.5 20.65-21.2 28.56z" class="H"/></g><use xlink:href="#T" y="-35.596" class="C"/><path d="M3329.3 626.595c20.12-11.62 52.74-11.62 72.86.001 9.46 5.464 14.47 12.526 15.03 19.683.64-8.062-4.37-16.244-15.03-22.4-20.12-11.62-52.74-11.62-72.86-.001-10.66 6.155-15.67 14.337-15.03 22.398.56-7.156 5.57-14.217 15.03-19.68zm61.77 4.273l-4 1.142 1.14.45-3.9 2.253a22.05 22.05 0 0 0-9.9-2.312 18.93 18.93 0 0 0-9.52 2.577 14.68 14.68 0 0 0-2.87 2.085 6.08 6.08 0 0 0-1.54 2.203 7.68 7.68 0 0 0-.51 2.112c-.04.763-.01 1.528.1 2.285l.46 3.637c.13.844.16 1.7.1 2.55-.12.75-.4 1.46-.87 2.065a6.99 6.99 0 0 1-2.28 1.958c-.7.5-1.54.813-2.4.876a4.65 4.65 0 0 1-2.5-.518c-1.1-.628-1.37-1.4-.83-2.35a12.6 12.6 0 0 1 4.35-3.507v-2.73l-3.42 1.282-4.9-2.084c-2.34 1.23-4.34 3.03-5.82 5.23l-.56-.63v2.676h.01c.02 1.837 1.42 3.648 4.24 5.43l-1.95 1.12-2.63-1.207v2.73l2.37 1.368 4.62-2.67a20.13 20.13 0 0 0 9.34 1.865c3.1-.043 6.13-.858 8.82-2.37 1.14-.635 2.2-1.416 3.13-2.323.75-.716 1.34-1.577 1.73-2.53a9.4 9.4 0 0 0 .65-2.497 13.79 13.79 0 0 0-.01-2.649l-.4-3.52c-.06-.708-.1-1.222-.1-1.54a7.48 7.48 0 0 1 .18-1.334 3.06 3.06 0 0 1 .79-1.521 7.23 7.23 0 0 1 1.7-1.288 6.85 6.85 0 0 1 2.62-.837 4.2 4.2 0 0 1 2.62.44 2.34 2.34 0 0 1 .82.631c.1.132.15.292.14.456l-4.06.845v2.73l8.23 3.664a45.18 45.18 0 0 0 1.8-1.188c.58-.408 1.14-.852 1.66-1.33.5-.446.97-.944 1.38-1.486a5.1 5.1 0 0 0 .78-1.607 3.76 3.76 0 0 0 .14-.815l.01-.01v-2.872l-1.05.218c-.02-.018-.02-.035-.04-.054-.63-.732-1.37-1.365-2.2-1.878l4.32-2.497v-2.73z" class="E"/><path d="M3341.07 657.466l4.58-2.643c-3.13-1.983-4.53-4-4.2-6.048s2.44-4.27 6.33-6.66l8.33 3.532a12.6 12.6 0 0 0-4.35 3.507c-.54.938-.26 1.72.83 2.35a4.65 4.65 0 0 0 2.5.518c.86-.063 1.7-.366 2.4-.876a6.99 6.99 0 0 0 2.28-1.958c.46-.606.75-1.316.87-2.065.06-.85.03-1.707-.1-2.55l-.46-3.637c-.1-.757-.13-1.522-.1-2.285a7.68 7.68 0 0 1 .51-2.112 6.08 6.08 0 0 1 1.54-2.203 14.68 14.68 0 0 1 2.87-2.085 18.93 18.93 0 0 1 9.52-2.577c3.43-.01 6.82.78 9.9 2.312l4.34-2.5 2.4 1.394-4.32 2.497c.83.513 1.57 1.146 2.2 1.878.46.52.8 1.133 1 1.8.14.573.12 1.172-.06 1.734a5.1 5.1 0 0 1-.78 1.607c-.4.54-.87 1.04-1.38 1.486-.52.477-1.08.92-1.66 1.33a37.34 37.34 0 0 1-1.8 1.188l-8.23-3.665 1.54-.956a22.41 22.41 0 0 0 1.22-.85c.33-.233.63-.505.9-.8a2.4 2.4 0 0 0 .39-.717c.03-.117.04-.243.02-.365a.69.69 0 0 0-.15-.332 2.34 2.34 0 0 0-.82-.631c-.8-.425-1.72-.58-2.62-.44-.92.1-1.8.385-2.62.837a7.23 7.23 0 0 0-1.7 1.288 3.06 3.06 0 0 0-.79 1.521c-.1.438-.16.885-.18 1.334 0 .32.04.833.1 1.54l.4 3.52a13.79 13.79 0 0 1 .01 2.649 9.41 9.41 0 0 1-.65 2.497c-.4.953-.98 1.814-1.73 2.53-.94.907-2 1.688-3.13 2.323-2.7 1.512-5.72 2.327-8.82 2.37a20.13 20.13 0 0 1-9.34-1.865l-4.62 2.67-2.37-1.368z" class="B"/><path d="M3309.6 744.3h-2.64c-2.96-5.812-8.4-11.292-16.34-15.878-25.3-14.616-66.34-14.616-91.64-.001-7.94 4.586-13.4 10.066-16.34 15.88H3180v10.586c0 9.578 6.33 19.156 18.98 26.464 25.3 14.616 66.33 14.616 91.64.001 12.65-7.308 18.98-16.887 18.98-26.465V744.3z" class="E"/><path d="M3230.74 718.37c-11.14 1.248-21.93 4.667-31.76 10.065-7.94 4.585-13.4 10.066-16.34 15.878H3180v10.586c0 9.578 6.33 19.156 18.98 26.464 9.83 5.397 20.62 8.816 31.76 10.065V718.37z" class="B"/><path d="M3290.8 781.254c12.54-7.295 18.8-16.826 18.8-26.358V744.3h-2.64c-3.1-5.626-7.57-10.37-13-13.786h-3.16v50.73z" class="C"/><path d="M3306.26 743.083c-.83-1.43-1.76-2.8-2.8-4.07v31.8c1.05-1.28 2-2.644 2.8-4.075V743.08zm-107.28-14.648c-3.25 1.853-6.28 4.058-9.05 6.575v39.8a43.8 43.8 0 0 0 2.8 2.383v-43.127h5.3V780.8l.94.573c.6.352 1.24.7 1.87 1.025v-48.332h5.3v50.88c.92.398 1.86.78 2.8 1.147v-52.027h5.3V787.9a78.81 78.81 0 0 0 2.81.818v-54.672h5.3V790l2.8.555v-56.508h5.3v57.337l2.8.33v-57.668h5.3v58.097l2.8.117v-58.214h5.3V792.3l2.8-.082v-58.16h5.3v57.816l2.8-.287v-57.53h5.3v56.78c.94-.157 1.88-.33 2.8-.513v-56.268h5.3v55.07c.94-.24 1.88-.496 2.8-.766v-54.303h5.3v52.583a83.6 83.6 0 0 0 2.81-1.076v-51.507h5.3v49.115a68.35 68.35 0 0 0 2.82-1.492v-47.623h5.3v44.26c1-.712 1.93-1.443 2.8-2.186v-42.074h.47a51.97 51.97 0 0 0-8-5.62c-6.24-3.512-12.93-6.147-19.9-7.832h-51.87c-6.95 1.685-13.64 4.32-19.88 7.83h0zm-14.35 12.597c-.74 1.05-1.4 2.145-2 3.282h-.82v19.403c.76 1.8 1.7 3.495 2.8 5.088v-27.773z" class="D C"/><path d="M3290.62 770.777c-25.3 14.616-66.33 14.615-91.64-.001s-25.3-38.312 0-52.928c25.3-14.615 66.33-14.615 91.64.001 25.3 14.616 25.3 38.313 0 52.928z" class="B"/><g class="F"><path d="M3259.32 750.71c18.62-10.76 23.52-26.437 14.72-39.793-24.3-7.103-54.75-4.8-75.06 6.933-18.63 10.76-23.53 26.438-14.73 39.794 24.3 7.104 54.75 4.8 75.07-6.934z" class="G"/><path d="M3290.62 770.775c-25.3 14.616-66.34 14.615-91.64-.001-12.23-7.062-18.53-16.245-18.94-25.5-.44 9.898 5.86 19.877 18.94 27.43 25.3 14.616 66.33 14.616 91.64.001 13.07-7.553 19.38-17.53 18.94-27.428-.4 9.254-6.72 18.436-18.94 25.498z" class="H"/></g><path d="M3277.32 763.096c-17.96 10.375-47.08 10.374-65.04 0-17.97-10.375-17.97-27.196-.01-37.57 17.97-10.374 47.1-10.374 65.05.001s17.97 27.195 0 37.57z" class="C"/><path d="M3212.27 727.95c17.97-10.374 47.1-10.374 65.05.001 8.45 4.88 12.92 11.184 13.42 17.573.57-7.198-3.9-14.503-13.42-20-17.96-10.375-47.08-10.375-65.05-.001-9.5 5.496-13.98 12.8-13.42 19.997.5-6.388 4.98-12.692 13.42-17.57zm55.15 3.816l-3.57 1.02 1.02.402-3.5 2a19.61 19.61 0 0 0-8.82-2.063c-3 .001-5.92.794-8.5 2.3a13.18 13.18 0 0 0-2.57 1.862c-.6.545-1.07 1.217-1.37 1.966a6.47 6.47 0 0 0-.45 1.886c-.04.68-.02 1.364.08 2.04l.4 3.247c.12.754.14 1.518.08 2.277-.1.67-.36 1.303-.77 1.844a6.16 6.16 0 0 1-2.04 1.749 4.18 4.18 0 0 1-2.14.782 4.15 4.15 0 0 1-2.23-.463c-.97-.56-1.22-1.26-.74-2.097 1.04-1.32 2.37-2.4 3.88-3.13v-2.437l-3.05 1.144-4.38-1.86a14.19 14.19 0 0 0-5.2 4.67l-.5-.563v2.4h.01c.02 1.64 1.27 3.257 3.78 4.85l-1.73 1-2.36-1.078v2.437l2.12 1.22 4.12-2.383a18 18 0 0 0 8.35 1.666 16.57 16.57 0 0 0 7.87-2.117 13.37 13.37 0 0 0 2.8-2.074c.67-.64 1.2-1.407 1.55-2.26.3-.713.5-1.463.58-2.23.07-.786.07-1.578-.01-2.364l-.35-3.143-.1-1.375a6.82 6.82 0 0 1 .16-1.191c.1-.5.35-.982.7-1.36a6.42 6.42 0 0 1 1.52-1.15 6.07 6.07 0 0 1 2.34-.747 3.78 3.78 0 0 1 2.34.392c.28.133.52.326.72.563.1.118.14.26.13.407l-3.63.755V743l7.35 3.272 1.6-1.06c.52-.364 1.02-.76 1.48-1.186a8.39 8.39 0 0 0 1.23-1.327 4.56 4.56 0 0 0 .7-1.435 3.56 3.56 0 0 0 .12-.728l.01-.01v-2.564l-.93.195c-.02-.016-.02-.03-.04-.048a8.79 8.79 0 0 0-1.96-1.677l3.86-2.23v-2.437z" class="E"/><path d="M3222.77 755.513l4.1-2.36c-2.8-1.77-4.04-3.57-3.75-5.4.3-1.83 2.18-3.812 5.66-5.946l7.43 3.153c-1.5.743-2.84 1.812-3.88 3.13-.48.838-.24 1.537.74 2.097.68.36 1.46.52 2.23.463a4.17 4.17 0 0 0 2.14-.782 6.17 6.17 0 0 0 2.04-1.748 4.03 4.03 0 0 0 .77-1.844 9.64 9.64 0 0 0-.08-2.277l-.4-3.247c-.1-.676-.12-1.36-.08-2.04.05-.647.2-1.282.45-1.885.3-.75.77-1.42 1.37-1.967.78-.72 1.64-1.347 2.57-1.862 2.58-1.505 5.5-2.3 8.5-2.3a19.61 19.61 0 0 1 8.82 2.064l3.88-2.24 2.16 1.244-3.86 2.23c.73.46 1.4 1.024 1.96 1.678.4.463.72 1.01.9 1.606a2.81 2.81 0 0 1-.05 1.548c-.15.514-.38 1-.7 1.434-.36.484-.77.93-1.23 1.327a14.11 14.11 0 0 1-1.48 1.187l-1.6 1.06-7.35-3.272 1.38-.854 1.1-.76a4.76 4.76 0 0 0 .8-.724 2.16 2.16 0 0 0 .35-.639.72.72 0 0 0 .02-.326c-.02-.11-.07-.21-.14-.297-.2-.238-.44-.43-.72-.563-.72-.38-1.54-.517-2.34-.392-.83.1-1.62.344-2.34.747a6.42 6.42 0 0 0-1.52 1.15c-.36.377-.6.848-.7 1.358a6.82 6.82 0 0 0-.16 1.191c0 .285.03.744.1 1.375l.35 3.143c.08.786.08 1.578.01 2.365-.1.765-.3 1.515-.58 2.23-.36.85-.88 1.62-1.55 2.26a13.12 13.12 0 0 1-2.79 2.074 16.57 16.57 0 0 1-7.87 2.116 18.01 18.01 0 0 1-8.35-1.665l-4.12 2.382-2.12-1.22z" class="B"/><path d="M3317.37 728.424h-2.63c-2.96-5.812-8.4-11.292-16.35-15.878-25.3-14.616-66.33-14.616-91.63-.001-7.94 4.586-13.4 10.066-16.35 15.88h-2.63V739c0 9.578 6.32 19.156 18.98 26.463 25.3 14.617 66.33 14.617 91.64.002 12.65-7.308 18.97-16.887 18.97-26.465v-10.586z" class="E"/><path d="M3238.52 702.482c-11.14 1.248-21.93 4.667-31.76 10.065-7.94 4.586-13.4 10.066-16.35 15.878h-2.63v10.586c0 9.58 6.32 19.156 18.98 26.464 9.83 5.397 20.62 8.817 31.76 10.065v-73.058z" class="B"/><path d="M3298.57 765.37c12.53-7.295 18.8-16.826 18.8-26.358v-10.586h-2.63c-3.1-5.626-7.57-10.37-13-13.785h-3.16v50.73z" class="C"/><path d="M3314.04 727.194c-.83-1.43-1.77-2.8-2.8-4.07v31.812a31.64 31.64 0 0 0 2.81-4.076v-23.667zm-107.28-14.648a50.4 50.4 0 0 0-9.05 6.576v39.8a43.48 43.48 0 0 0 2.8 2.383v-43.127h5.3V764.9l.95.573 1.87 1.025v-48.332h5.3v50.88a84.69 84.69 0 0 0 2.81 1.147v-52.027h5.3v53.855a101.9 101.9 0 0 0 2.8.818v-54.673h5.3v55.953l2.8.555v-56.508h5.3v57.338l2.8.33v-57.668h5.3v58.098l2.8.116v-58.214h5.3V776.4l2.8-.083v-58.16h5.3v57.817l2.8-.287v-57.53h5.3v56.782l2.8-.514v-56.268h5.3v55.07l2.82-.765v-54.304h5.3v52.584l2.8-1.077v-51.507h5.3v49.115l2.8-1.5V718.17h5.3v44.26a49.21 49.21 0 0 0 2.81-2.186V718.17h.47a53.03 53.03 0 0 0-8-5.62 77.97 77.97 0 0 0-19.89-7.832h-51.87a77.79 77.79 0 0 0-19.88 7.83h0zm-14.36 12.597a28.35 28.35 0 0 0-2 3.282h-.8v19.403a27.82 27.82 0 0 0 2.8 5.09v-27.774z" class="D C"/><path d="M3298.4 754.9c-25.3 14.616-66.34 14.616-91.64 0-25.3-14.616-25.3-38.313 0-52.93 25.3-14.615 66.33-14.615 91.63.001 25.3 14.616 25.3 38.313.01 52.928z" class="B"/><g class="F"><path d="M3267.1 734.82c18.63-10.76 23.53-26.438 14.73-39.794-24.3-7.103-54.75-4.798-75.06 6.934-18.63 10.76-23.53 26.438-14.73 39.794 24.3 7.103 54.75 4.798 75.06-6.934z" class="G"/><path d="M3298.4 754.89c-25.3 14.615-66.34 14.615-91.64-.001-12.23-7.063-18.53-16.246-18.94-25.5-.44 9.897 5.86 19.876 18.94 27.43 25.3 14.617 66.33 14.617 91.64.001 13.07-7.553 19.37-17.53 18.93-27.427-.4 9.253-6.7 18.435-18.93 25.498z" class="H"/></g><path d="M3285.1 747.2c-17.96 10.374-47.08 10.374-65.05-.001-17.96-10.375-17.96-27.195 0-37.57s47.1-10.374 65.05.001 17.96 27.195 0 37.57z" class="C"/><path d="M3220.05 712.065c17.96-10.375 47.1-10.374 65.05.001 8.45 4.88 12.92 11.183 13.42 17.573.57-7.198-3.9-14.503-13.42-20-17.96-10.375-47.1-10.375-65.05-.001-9.5 5.496-14 12.8-13.42 19.997.5-6.4 4.97-12.693 13.42-17.57zm55.15 3.817l-3.57 1.02 1 .403-3.48 2c-2.74-1.367-5.76-2.073-8.82-2.064-3 .001-5.92.795-8.5 2.3-.93.516-1.8 1.14-2.57 1.863a5.49 5.49 0 0 0-1.38 1.966 6.79 6.79 0 0 0-.45 1.886 11.59 11.59 0 0 0 .08 2.04l.42 3.247c.1.753.14 1.518.08 2.277-.1.67-.37 1.303-.77 1.844a6.3 6.3 0 0 1-2.04 1.75 4.18 4.18 0 0 1-2.14.782c-.78.056-1.55-.104-2.24-.463-.97-.56-1.2-1.26-.74-2.098a11.38 11.38 0 0 1 3.88-3.131v-2.436l-3.04 1.144-4.4-1.86a14.19 14.19 0 0 0-5.2 4.67l-.5-.563v2.4h.01c.01 1.64 1.26 3.257 3.78 4.85l-1.74 1-2.35-1.078v2.437l2.1 1.22 4.13-2.383c2.6 1.214 5.47 1.785 8.34 1.666a16.61 16.61 0 0 0 7.88-2.117 13.57 13.57 0 0 0 2.79-2.074 6.88 6.88 0 0 0 1.55-2.259c.3-.713.48-1.463.57-2.23.08-.786.07-1.58-.01-2.365l-.35-3.142-.08-1.375c.02-.4.07-.8.16-1.192a2.72 2.72 0 0 1 .7-1.358 6.63 6.63 0 0 1 1.52-1.15c.72-.403 1.52-.657 2.34-.747a3.76 3.76 0 0 1 2.34.392 2.17 2.17 0 0 1 .73.563c.1.118.13.26.13.407l-3.63.755v2.437l7.35 3.272 1.6-1.06a16.35 16.35 0 0 0 1.48-1.186 8.39 8.39 0 0 0 1.23-1.327c.3-.435.55-.92.7-1.435a3.56 3.56 0 0 0 .12-.728l.01-.01v-2.564l-.94.195-.03-.048a8.79 8.79 0 0 0-1.96-1.677l3.86-2.23v-2.437z" class="E"/><path d="M3230.55 739.626l4.1-2.36c-2.8-1.77-4.05-3.57-3.75-5.4.3-1.83 2.18-3.812 5.65-5.946l7.43 3.153a11.38 11.38 0 0 0-3.88 3.131c-.48.838-.23 1.537.74 2.098.7.36 1.46.52 2.24.463a4.18 4.18 0 0 0 2.14-.783c.8-.427 1.5-1.023 2.04-1.748.4-.54.67-1.175.77-1.844.06-.76.03-1.524-.08-2.277l-.42-3.247c-.1-.676-.1-1.36-.08-2.04a6.79 6.79 0 0 1 .45-1.885c.3-.75.78-1.42 1.38-1.967.78-.72 1.64-1.346 2.57-1.862 2.58-1.505 5.5-2.3 8.5-2.3 3.06-.01 6.08.697 8.82 2.064l3.88-2.24 2.16 1.245-3.86 2.23c.73.458 1.4 1.023 1.96 1.677a4.16 4.16 0 0 1 .89 1.606c.12.512.1 1.046-.05 1.548-.15.515-.4 1-.7 1.435a8.39 8.39 0 0 1-1.23 1.327c-.47.425-.96.822-1.48 1.186l-1.6 1.06-7.35-3.272 1.38-.854 1.1-.76a4.8 4.8 0 0 0 .8-.723c.15-.2.27-.407.34-.64.04-.105.05-.217.03-.326a.67.67 0 0 0-.14-.297 2.17 2.17 0 0 0-.73-.563 3.76 3.76 0 0 0-2.34-.392c-.82.1-1.62.344-2.34.747a6.63 6.63 0 0 0-1.52 1.15 2.72 2.72 0 0 0-.7 1.358c-.1.392-.14.79-.16 1.192 0 .284.03.743.08 1.375l.35 3.142c.08.786.1 1.578.01 2.365-.1.766-.28 1.516-.57 2.23a6.88 6.88 0 0 1-1.55 2.259 13.61 13.61 0 0 1-2.79 2.074 16.61 16.61 0 0 1-7.88 2.117c-2.87.12-5.73-.452-8.34-1.666l-4.13 2.383-2.1-1.22z" class="B"/><g style="mix-blend-mode:darken" opacity=".03" clip-path="url(#L)"><use xlink:href="#V" fill="url(#C)"/><use xlink:href="#V" fill="url(#D)" stroke="#c24400" stroke-width="6" stroke-miterlimit="10"/><path opacity=".35" d="M3698.2 287.45l-.46.264c-1.87 1.006-2.9 3.094-2.6 5.285 2.4 15.62-3.28 31.693-15.55 42.21-1.53 1.354-2.12 3.52-1.48 5.456l.06.1c1.36 4.367 6.84 5.75 10.24 2.707 15.03-13.524 21.87-33.85 18.5-53.385-.6-3.516-4.6-5.147-7.64-3.255l-1.07.616z" fill="url(#E)"/><path d="M3670.3 336.552c20.17-11.604 27.13-37.324 15.55-57.446s-37.3-27.027-57.48-15.422-27.13 37.323-15.55 57.445 37.3 27.027 57.48 15.423z" fill="#c24400"/><path d="M3666.3 291.847c-2.38-1.412-5.24-2.136-8.6-2.094s-8.42 1.053-15.12 3.084c-2.72.82-4.52 1.1-5.57.83-1-.23-1.7-.714-2.14-1.477-.6-1.07-.7-2.17-.35-3.32.4-1.182 1.38-2.214 2.96-3.123 1.88-1.086 3.7-1.458 5.33-1.107.62.12 1.27.425 1.87.758 2.26 1.34 4.92 1.365 7 .03l.26-.146c5.15-3.438 2.9-12.172-3.4-13.087-.05.03-.08-.022-.13.008-2.74-.4-5.82.03-9.12 1.252l-4.1-7.124c-.4-.712-1.24-.978-1.9-.597l-7.5 4.314c-.67.382-.86 1.235-.45 1.947l4.02 6.97c-2.28 1.714-4.07 3.426-5.3 5.21-1.87 2.77-2.9 5.592-2.9 8.514a15.28 15.28 0 0 0 2.08 8.087c2.17 3.765 5.2 6.085 9.15 7.06 3.88.954 9.25.502 16-1.477 4.12-1.218 6.94-1.623 8.54-1.192 1.53.41 2.68 1.235 3.4 2.456.76 1.324.9 2.736.4 4.37-.47 1.554-1.7 2.943-3.6 4.03-2.6 1.497-5.15 1.674-7.64.533-.54-.23-1.06-.542-1.55-.934-2.32-1.783-5.37-1.785-7.63-.283l-.84.55c-4.26 2.858-3.55 9.763 1.3 12.396 1.1.593 2.25 1.076 3.44 1.48 3.64 1.15 8.06.572 13.38-1.744l3.66 6.36c.4.712 1.25.98 1.9.597l7.55-4.343c.66-.38.85-1.235.44-1.947l-3.78-6.564c1.73-1.472 3.17-2.978 4.3-4.57 2.05-2.937 3.05-6.154 3.08-9.63.04-3.475-.75-6.743-2.54-9.847-1.58-2.748-3.52-4.817-5.9-6.228z" fill="url(#F)"/><g class="I"><path d="M3633.76 290.256c.18.306.37.53.62.726a4.1 4.1 0 0 1 .11-2.164c.4-1.182 1.38-2.213 2.96-3.123 1.9-1.086 3.7-1.457 5.34-1.106.6.12 1.26.424 1.86.757 2.26 1.34 4.92 1.365 7 .03l.25-.147c3.58-2.397 3.58-7.344 1.2-10.438 1.17 2.982.67 6.59-2.3 8.504l-.26.147c-2.05 1.385-4.7 1.36-7-.03-.62-.384-1.24-.637-1.86-.758-1.62-.35-3.45.02-5.33 1.107-1.6.91-2.55 1.94-2.96 3.122-.33 1.204-.24 2.304.38 3.372z" fill="url(#G)" class="I"/><path d="M3632.26 307.712c3.88.953 9.25.502 16-1.477 4.12-1.218 6.94-1.623 8.55-1.192 1.12.3 2.05.85 2.75 1.6-.13-.335-.28-.72-.46-1.025-.7-1.222-1.85-2.048-3.38-2.457-1.52-.41-4.4.025-8.54 1.192-6.77 1.93-12.1 2.43-16 1.477-3.63-.89-6.44-2.933-8.58-6.174.2.356.33.69.54 1.047 2.14 3.715 5.2 6.085 9.12 7z" fill="url(#H)" class="I"/><path d="M3656.4 325.933c-5.32 2.316-9.8 2.924-13.38 1.743-1.2-.403-2.35-.887-3.44-1.48a7.42 7.42 0 0 1-2.41-2.067c.65 1.593 1.84 3.075 3.53 4 1.1.593 2.25 1.077 3.43 1.48 3.65 1.15 8.07.573 13.4-1.743l-1.12-1.934z" fill="url(#I)" class="I"/><path d="M3669.5 328.548l-7.55 4.343c-.66.382-1.5.115-1.9-.597l1.12 1.934c.4.712 1.24.978 1.9.597l7.55-4.343c.66-.382.85-1.235.44-1.947l-1.1-1.934c.4.712.22 1.566-.44 1.947z" fill="url(#J)" class="I"/><path d="M3673.6 305.807c-.03 3.476-1.1 6.67-3.08 9.63-1.12 1.593-2.53 3.15-4.3 4.57l1.1 1.934c1.74-1.47 3.18-2.978 4.3-4.57a16.85 16.85 0 0 0 3.08-9.629c.03-3.476-.76-6.744-2.55-9.848-.2-.356-.38-.66-.63-.988 1.43 2.836 2.1 5.77 2.06 8.902z" fill="url(#K)" class="I"/></g></g><defs><linearGradient id="C" x1="3626.06" y1="259.644" x2="3671" y2="337.759" xlink:href="#W"><stop stop-color="gold"/><stop offset="1" stop-color="#ff9a00"/></linearGradient><linearGradient id="D" x1="3617.32" y1="277.719" x2="3701.84" y2="337.045" xlink:href="#W"><stop stop-color="#fc0"/><stop offset="1" stop-color="#ff9a00"/></linearGradient><linearGradient id="E" x1="3706.35" y1="339.269" x2="3682.43" y2="297.715" xlink:href="#W"><stop stop-color="#c24400" stop-opacity=".8"/><stop offset="1" stop-color="#c24400" stop-opacity=".3"/></linearGradient><linearGradient id="F" x1="3666.77" y1="332.528" x2="3631.39" y2="271.034" xlink:href="#W"><stop stop-color="gold"/><stop offset="1" stop-color="#ff9a00"/></linearGradient><linearGradient id="G" x1="3642.66" y1="281.121" x2="3661.88" y2="314.521" xlink:href="#W"><stop stop-color="gold"/><stop offset="1" stop-color="#ff9a00"/></linearGradient><linearGradient id="H" x1="3631.97" y1="287.272" x2="3651.19" y2="320.671" xlink:href="#W"><stop stop-color="gold"/><stop offset="1" stop-color="#ff9a00"/></linearGradient><linearGradient id="I" x1="3626.74" y1="290.284" x2="3645.96" y2="323.684" xlink:href="#W"><stop stop-color="gold"/><stop offset="1" stop-color="#ff9a00"/></linearGradient><linearGradient id="J" x1="3638.55" y1="283.487" x2="3657.77" y2="316.886" xlink:href="#W"><stop stop-color="gold"/><stop offset="1" stop-color="#ff9a00"/></linearGradient><linearGradient id="K" x1="3650.56" y1="276.575" x2="3669.78" y2="309.975" xlink:href="#W"><stop stop-color="gold"/><stop offset="1" stop-color="#ff9a00"/></linearGradient><clipPath id="L"><path transform="matrix(.866744 -.498754 .498754 .866744 3560 274.854)" d="M0 0h130.03v130.92H0z" class="F"/></clipPath><path id="M" d="M3547.58 620.518c-.9-1.567-1.93-3.06-3.08-4.46v34.868c1.15-1.404 2.18-2.898 3.08-4.467v-25.94z"/><path id="N" d="M3551.24 610.255h-2.9c-3.24-6.37-9.2-12.377-17.9-17.403-27.74-16.02-72.7-16.02-100.45-.001-8.7 5.026-14.67 11.033-17.9 17.404h-2.9v11.603c0 10.498 6.94 20.996 20.8 29.006 27.74 16.02 72.7 16.02 100.45.001 13.87-8 20.8-18.51 20.8-29.007v-11.603z"/><path id="O" d="M3530.44 639.262c-27.74 16.02-72.7 16.02-100.44-.001-27.74-16.02-27.74-41.994-.01-58.014 27.74-16.02 72.7-16.02 100.45.001 27.73 16.02 27.73 41.994 0 58.014z"/><path id="P" d="M3530.44 639.26c-27.74 16.02-72.7 16.02-100.45-.001-13.4-7.74-20.3-17.807-20.76-27.95-.48 10.85 6.43 21.786 20.76 30.065 27.74 16.02 72.7 16.02 100.45.001 14.33-8.28 21.24-19.215 20.76-30.063-.46 10.143-7.36 20.207-20.76 27.948z"/><path id="Q" d="M3515.87 630.844c-19.7 11.372-51.6 11.37-71.3 0s-19.7-29.81 0-41.18 51.6-11.37 71.3.001c19.68 11.37 19.68 29.808 0 41.18z"/><path id="R" d="M3496.13 605.652c20.4-11.793 25.78-28.978 16.14-43.617-26.65-7.786-60-5.26-82.28 7.6-20.42 11.794-25.78 28.978-16.14 43.618 26.65 7.785 60 5.26 82.28-7.6z"/><path id="S" d="M3515.87 619.232c-19.7 11.37-51.6 11.37-71.3-.001s-19.7-29.808 0-41.18 51.6-11.37 71.3 0c19.68 11.372 19.68 29.81 0 41.18z"/><path id="T" d="M3402.17 701.556c-20.12 11.62-52.74 11.62-72.86 0s-20.12-30.46 0-42.08 52.74-11.62 72.86.001 20.12 30.46 0 42.08z"/><path id="U" d="M3402.17 689.7c-20.12 11.62-52.74 11.62-72.86-.001s-20.12-30.46 0-42.08 52.74-11.62 72.86.001 20.12 30.46 0 42.08z"/><path id="V" d="M3679.24 352.072c28.76-16.547 38.68-53.222 22.17-81.916s-53.2-38.54-81.96-21.993c-28.76 16.548-38.68 53.223-22.17 81.916s53.2 38.54 81.96 21.993z"/><linearGradient id="W" gradientUnits="userSpaceOnUse"/></defs></svg>