<svg id="svg" version="1.1" xmlns="http://www.w3.org/2000/svg" xmlns:xlink="http://www.w3.org/1999/xlink" width="400" height="400" viewBox="0, 0, 400,400"><g id="svgg"><path id="path0" d="M85.200 1.913 L 85.200 3.827 82.033 3.813 C 80.137 3.805,78.893 3.960,78.933 4.200 C 78.970 4.420,78.817 4.569,78.592 4.531 C 78.155 4.457,78.110 8.643,78.543 9.076 C 79.285 9.818,77.712 10.400,74.965 10.400 C 71.256 10.400,71.296 10.323,71.424 17.200 C 71.557 24.377,71.723 24.000,68.422 24.000 C 65.570 24.000,64.823 24.380,64.854 25.818 C 64.897 27.831,64.861 301.184,64.818 302.498 C 64.686 306.462,65.538 307.522,69.196 307.946 L 71.392 308.200 71.410 311.200 C 71.433 315.161,71.468 315.200,75.024 315.200 C 77.116 315.200,78.012 315.349,78.042 315.700 C 78.065 315.975,78.140 317.138,78.209 318.285 C 78.278 319.432,78.467 320.585,78.629 320.847 C 78.815 321.148,78.753 321.218,78.462 321.038 C 78.208 320.881,78.000 320.949,78.000 321.189 C 78.000 321.429,78.250 321.721,78.555 321.838 C 78.861 321.955,79.407 322.828,79.770 323.777 C 80.738 326.311,84.006 328.442,84.875 327.105 C 85.084 326.783,85.166 326.962,85.101 327.600 C 85.003 328.575,85.070 328.602,87.800 328.674 C 89.340 328.715,90.825 328.760,91.100 328.774 C 91.422 328.791,91.600 329.440,91.600 330.600 C 91.600 331.590,91.755 332.400,91.945 332.400 C 92.134 332.400,92.210 332.816,92.112 333.324 C 91.799 334.961,97.741 336.577,99.304 335.279 C 99.638 335.003,100.039 334.980,100.413 335.218 C 101.129 335.673,375.029 335.707,378.714 335.253 C 381.799 334.873,382.369 334.339,382.759 331.460 C 383.135 328.690,383.194 328.629,385.374 328.742 C 386.362 328.793,387.256 328.632,387.416 328.374 C 387.627 328.032,387.777 328.039,387.999 328.399 C 388.848 329.772,389.860 328.106,389.811 325.416 C 389.748 321.980,389.740 321.988,393.432 321.887 L 396.600 321.800 396.629 319.316 C 396.651 317.378,396.519 316.794,396.029 316.662 C 395.516 316.524,395.529 316.484,396.100 316.446 C 396.485 316.421,396.800 316.130,396.800 315.800 C 396.800 315.367,397.244 315.200,398.400 315.200 L 400.000 315.200 400.000 165.823 L 400.000 16.446 398.300 16.293 L 396.600 16.140 398.300 16.070 C 400.456 15.981,400.546 15.200,398.400 15.200 C 396.267 15.200,396.346 14.487,398.500 14.293 L 400.200 14.140 398.500 14.070 C 396.344 13.981,396.254 13.200,398.400 13.200 C 399.962 13.200,400.000 13.167,400.000 11.800 C 400.000 10.433,399.962 10.400,398.400 10.400 C 397.410 10.400,396.783 10.209,396.756 9.900 C 396.732 9.625,396.687 8.320,396.656 7.000 C 396.582 3.893,396.446 3.735,393.923 3.842 C 390.038 4.007,389.600 3.796,389.600 1.768 L 389.600 0.000 238.422 0.000 L 87.244 0.000 87.094 1.900 L 86.944 3.800 86.872 1.900 C 86.764 -0.960,85.200 -0.947,85.200 1.913 M66.646 37.376 C 66.768 37.692,66.677 38.277,66.446 38.676 C 66.074 39.314,66.023 39.274,66.012 38.333 C 66.005 37.747,65.775 37.176,65.500 37.065 C 65.206 36.946,65.294 36.850,65.713 36.832 C 66.104 36.814,66.525 37.059,66.646 37.376 M65.476 39.500 C 65.375 39.885,65.293 39.570,65.293 38.800 C 65.293 38.030,65.375 37.715,65.476 38.100 C 65.576 38.485,65.576 39.115,65.476 39.500 M356.254 45.856 C 356.114 46.877,356.000 100.337,356.000 164.656 L 356.000 281.600 237.457 281.600 L 118.915 281.600 118.651 278.759 C 118.506 277.197,118.396 224.038,118.407 160.627 C 118.418 97.217,118.311 45.035,118.171 44.668 C 117.932 44.045,125.966 44.000,237.212 44.000 L 356.509 44.000 356.254 45.856 M67.570 283.534 C 67.185 284.129,67.164 284.122,67.370 283.467 C 67.496 283.064,67.645 229.064,67.699 163.467 L 67.799 44.200 67.900 163.534 C 67.972 248.271,67.876 283.062,67.570 283.534 M113.301 276.059 C 113.135 276.225,113.090 225.474,113.200 163.280 L 113.400 50.200 113.501 162.979 C 113.556 225.008,113.466 275.894,113.301 276.059 M115.600 162.700 L 115.400 275.000 115.298 163.200 C 115.206 63.214,115.250 50.400,115.687 50.400 C 115.749 50.400,115.710 100.935,115.600 162.700 M117.100 218.900 C 117.043 249.755,116.997 224.510,116.997 162.800 C 116.997 101.090,117.043 75.845,117.100 106.700 C 117.157 137.555,117.157 188.045,117.100 218.900 M359.100 218.900 C 359.043 249.755,358.997 224.510,358.997 162.800 C 358.997 101.090,359.043 75.845,359.100 106.700 C 359.157 137.555,359.157 188.045,359.100 218.900 M34.899 64.637 C 35.033 64.853,28.021 64.956,17.562 64.892 L 0.000 64.784 0.000 225.392 L 0.000 386.000 1.933 386.000 C 3.213 386.000,3.867 386.169,3.867 386.500 C 3.868 386.850,3.288 386.958,1.934 386.861 C 0.398 386.751,0.000 386.850,0.000 387.339 C 0.000 387.787,0.520 387.997,1.900 388.106 L 3.800 388.256 1.900 388.328 C -0.725 388.427,-0.846 389.600,1.768 389.600 C 3.796 389.600,4.007 390.038,3.842 393.923 C 3.736 396.429,3.896 396.571,6.900 396.644 C 8.165 396.675,9.470 396.723,9.800 396.750 C 10.225 396.785,10.400 397.267,10.400 398.400 C 10.400 400.972,13.075 400.880,13.307 398.300 L 13.460 396.600 13.530 398.300 L 13.600 400.000 174.626 400.000 L 335.653 400.000 335.526 378.861 C 335.390 356.043,335.397 356.116,333.324 356.512 C 332.816 356.610,332.400 356.534,332.400 356.345 C 332.400 356.155,331.500 356.000,330.400 356.000 C 329.300 356.000,328.400 356.144,328.400 356.321 C 328.400 356.498,327.365 356.513,326.100 356.355 C 324.835 356.197,260.845 356.052,183.900 356.034 L 44.000 356.000 43.993 214.300 C 43.986 61.510,44.013 66.241,43.168 65.397 C 42.525 64.754,34.516 64.018,34.899 64.637 M197.061 64.891 C 196.808 65.051,196.292 65.086,195.915 64.969 C 195.538 64.852,194.869 64.949,194.428 65.185 C 193.546 65.657,193.540 65.704,193.536 72.600 C 193.535 75.020,193.523 83.390,193.511 91.200 C 193.490 103.672,193.504 108.139,193.580 114.584 C 193.628 118.630,193.431 118.591,212.800 118.454 C 226.513 118.357,228.785 118.426,230.000 118.975 L 231.400 119.607 229.974 119.373 C 228.148 119.073,227.425 119.838,227.789 121.684 C 227.984 122.671,227.943 122.850,227.624 122.400 C 227.324 121.976,227.207 141.442,227.225 188.783 C 227.239 225.624,227.394 255.533,227.570 255.249 C 227.745 254.965,227.805 255.604,227.703 256.670 C 227.294 260.924,228.108 261.077,251.667 261.172 C 267.799 261.237,268.744 261.201,268.920 260.520 C 269.072 259.935,269.116 259.922,269.154 260.451 C 269.203 261.143,278.548 261.302,280.061 260.636 C 281.220 260.125,281.877 250.000,280.751 250.000 C 280.422 250.000,280.423 249.854,280.756 249.453 C 281.093 249.047,281.183 225.273,281.105 157.618 L 281.000 66.329 280.035 65.548 C 279.363 65.004,278.512 64.781,277.235 64.813 C 276.226 64.839,274.427 64.728,273.237 64.567 C 271.963 64.394,271.167 64.423,271.300 64.637 C 271.432 64.849,269.500 64.960,266.663 64.903 C 253.720 64.646,197.466 64.636,197.061 64.891 M206.017 66.943 C 205.728 67.232,205.447 67.206,205.100 66.856 C 204.699 66.452,204.758 66.412,205.400 66.651 C 206.139 66.927,206.154 66.891,205.600 66.175 C 205.042 65.454,205.050 65.439,205.717 65.963 C 206.214 66.354,206.306 66.654,206.017 66.943 M251.129 67.900 C 243.720 67.961,231.480 67.961,223.929 67.900 C 216.378 67.839,222.440 67.789,237.400 67.789 C 252.360 67.789,258.538 67.839,251.129 67.900 M272.752 69.400 C 273.394 70.193,273.392 70.194,272.500 69.438 C 272.005 69.019,271.614 68.389,271.632 68.038 C 271.658 67.496,271.697 67.491,271.884 68.000 C 272.005 68.330,272.396 68.960,272.752 69.400 M280.700 202.900 C 280.643 224.515,280.596 206.830,280.596 163.600 C 280.596 120.370,280.643 102.685,280.700 124.300 C 280.757 145.915,280.757 181.285,280.700 202.900 M199.634 110.179 C 199.835 110.055,200.000 110.132,200.000 110.352 C 200.000 110.571,199.640 110.723,199.200 110.690 C 198.367 110.627,198.194 110.339,198.692 109.842 C 198.852 109.681,199.047 109.742,199.126 109.977 C 199.204 110.213,199.433 110.303,199.634 110.179 M198.400 111.616 C 198.400 111.798,198.895 112.004,199.500 112.073 C 200.208 112.155,200.584 112.425,200.556 112.833 C 200.531 113.182,200.759 113.467,201.061 113.467 C 201.423 113.467,201.536 113.182,201.389 112.633 C 201.208 111.957,201.280 111.988,201.769 112.800 C 202.101 113.350,202.365 114.070,202.358 114.400 C 202.349 114.790,202.223 114.719,202.000 114.200 C 201.768 113.661,201.645 113.596,201.622 114.000 C 201.592 114.533,201.545 114.533,201.200 114.000 C 200.987 113.670,200.809 113.557,200.806 113.748 C 200.803 113.940,200.013 113.452,199.051 112.663 C 198.090 111.875,197.161 111.359,196.987 111.515 C 196.814 111.672,196.796 111.583,196.949 111.317 C 197.240 110.810,198.400 111.049,198.400 111.616 M206.645 112.588 C 205.869 113.771,205.621 113.817,204.576 112.970 C 204.149 112.624,204.045 112.467,204.345 112.622 C 204.644 112.776,205.066 112.654,205.282 112.351 C 205.587 111.924,205.625 111.958,205.450 112.500 C 205.111 113.554,205.790 113.340,206.400 112.201 C 206.694 111.651,207.019 111.285,207.121 111.388 C 207.224 111.491,207.010 112.031,206.645 112.588 M211.300 112.682 C 210.805 112.778,209.995 112.778,209.500 112.682 C 209.005 112.587,209.410 112.509,210.400 112.509 C 211.390 112.509,211.795 112.587,211.300 112.682 M220.300 113.496 C 219.035 113.575,216.965 113.575,215.700 113.496 C 214.435 113.416,215.470 113.351,218.000 113.351 C 220.530 113.351,221.565 113.416,220.300 113.496 M210.600 114.000 C 208.816 114.454,206.881 114.454,206.600 114.000 C 206.443 113.747,207.351 113.617,209.076 113.647 C 211.174 113.684,211.524 113.765,210.600 114.000 M204.400 114.824 C 204.400 115.277,204.220 115.536,204.000 115.400 C 203.780 115.264,203.600 114.893,203.600 114.576 C 203.600 114.259,203.780 114.000,204.000 114.000 C 204.220 114.000,204.400 114.371,204.400 114.824 M208.402 115.703 L 209.800 115.872 208.349 115.936 C 207.385 115.979,206.714 115.765,206.349 115.300 C 205.871 114.690,205.878 114.660,206.402 115.067 C 206.732 115.324,207.632 115.611,208.402 115.703 M218.117 115.496 C 216.751 115.574,214.411 115.574,212.917 115.497 C 211.422 115.420,212.540 115.356,215.400 115.355 C 218.260 115.355,219.482 115.418,218.117 115.496 M218.700 117.096 C 217.435 117.175,215.365 117.175,214.100 117.096 C 212.835 117.016,213.870 116.951,216.400 116.951 C 218.930 116.951,219.965 117.016,218.700 117.096 M232.794 183.700 C 232.790 221.358,232.651 241.589,232.400 241.200 C 231.858 240.361,231.858 125.600,232.400 125.600 C 232.665 125.600,232.798 145.229,232.794 183.700 M233.500 212.269 C 233.442 228.291,233.395 215.300,233.395 183.400 C 233.395 151.500,233.442 138.391,233.500 154.269 C 233.558 170.146,233.558 196.246,233.500 212.269 M117.199 277.700 C 117.200 278.104,115.930 278.070,115.267 277.650 C 114.915 277.426,115.152 277.326,115.966 277.356 C 116.644 277.380,117.199 277.535,117.199 277.700 M112.914 278.280 C 112.749 278.709,112.594 278.782,112.492 278.477 C 112.404 278.212,112.139 278.114,111.904 278.259 C 111.651 278.416,111.593 278.335,111.762 278.062 C 112.225 277.313,113.213 277.500,112.914 278.280 M114.000 280.400 C 114.353 280.628,114.406 280.790,114.128 280.794 C 113.794 280.798,113.756 281.151,114.000 281.999 C 114.316 283.102,114.282 283.165,113.572 282.785 C 113.147 282.558,112.800 282.278,112.800 282.162 C 112.800 282.047,113.003 282.078,113.252 282.232 C 113.511 282.392,113.635 282.304,113.542 282.026 C 113.289 281.268,112.621 281.467,112.400 282.366 C 112.209 283.142,112.180 283.136,111.754 282.225 C 111.497 281.675,111.452 281.044,111.648 280.736 C 111.901 280.336,111.989 280.327,111.994 280.700 C 111.997 280.975,112.180 281.200,112.400 281.200 C 112.620 281.200,112.779 281.065,112.753 280.900 C 112.600 279.935,113.020 279.767,114.000 280.400 M115.975 283.800 C 115.975 284.020,115.710 283.851,115.387 283.424 C 115.064 282.996,114.800 282.467,114.800 282.247 C 114.800 282.027,115.064 282.196,115.387 282.624 C 115.710 283.051,115.975 283.580,115.975 283.800 M71.310 291.861 C 70.941 292.011,70.976 292.323,71.453 293.130 C 71.890 293.871,71.907 293.989,71.508 293.514 C 71.050 292.969,70.820 292.928,70.385 293.314 C 69.925 293.723,69.922 293.689,70.368 293.100 C 70.826 292.495,70.797 292.396,70.149 292.372 C 69.320 292.341,70.530 291.652,71.400 291.660 C 71.620 291.662,71.580 291.752,71.310 291.861 M67.089 294.781 C 66.977 295.210,67.082 295.627,67.322 295.707 C 67.563 295.788,67.471 295.964,67.119 296.099 C 66.667 296.272,66.517 296.147,66.609 295.672 C 66.680 295.303,66.753 294.775,66.769 294.500 C 66.786 294.225,66.911 294.000,67.047 294.000 C 67.182 294.000,67.201 294.351,67.089 294.781 M69.087 298.372 C 69.948 299.543,70.391 299.851,70.822 299.578 C 71.841 298.933,72.474 299.115,72.039 299.927 C 71.624 300.702,71.663 301.797,72.122 302.255 C 72.275 302.408,72.400 302.683,72.400 302.867 C 72.400 303.050,72.075 302.885,71.678 302.500 C 71.206 302.043,71.102 301.698,71.378 301.506 C 71.613 301.343,71.401 301.210,70.900 301.206 C 69.818 301.199,69.777 301.471,70.697 302.569 C 71.240 303.216,71.158 303.191,70.327 302.458 C 69.740 301.940,69.068 301.634,68.834 301.779 C 68.574 301.939,68.502 301.800,68.647 301.421 C 68.778 301.079,69.046 300.800,69.243 300.800 C 70.534 300.800,69.155 298.429,67.820 298.354 C 67.138 298.315,67.119 298.276,67.705 298.123 C 68.093 298.022,68.305 297.770,68.177 297.563 C 68.049 297.356,67.749 297.308,67.511 297.455 C 67.251 297.615,67.191 297.537,67.362 297.262 C 67.768 296.605,67.806 296.630,69.087 298.372 M71.210 298.008 L 72.142 298.817 71.204 298.673 C 70.688 298.595,70.222 298.231,70.168 297.865 C 70.045 297.025,70.082 297.031,71.210 298.008 M293.932 329.100 C 262.985 329.157,212.225 329.157,181.132 329.100 C 150.040 329.043,175.360 328.997,237.400 328.997 C 299.440 328.997,324.880 329.043,293.932 329.100 M294.868 333.100 C 263.115 333.156,211.275 333.156,179.668 333.100 C 148.060 333.043,174.040 332.997,237.400 332.997 C 300.760 332.997,326.620 333.043,294.868 333.100 M48.700 358.676 C 48.315 358.776,47.685 358.776,47.300 358.676 C 46.915 358.575,47.230 358.493,48.000 358.493 C 48.770 358.493,49.085 358.575,48.700 358.676 M316.705 359.075 C 316.322 359.175,315.602 359.179,315.105 359.083 C 314.607 358.987,314.920 358.905,315.800 358.901 C 316.680 358.896,317.087 358.975,316.705 359.075 M332.793 383.895 C 332.367 384.557,332.353 384.556,332.570 383.867 C 332.696 383.464,332.831 382.384,332.870 381.467 L 332.940 379.800 333.093 381.495 C 333.177 382.427,333.042 383.507,332.793 383.895 M334.282 390.100 C 334.187 390.595,334.109 390.190,334.109 389.200 C 334.109 388.210,334.187 387.805,334.282 388.300 C 334.378 388.795,334.378 389.605,334.282 390.100 " stroke="none" fill="#74cccc" fill-rule="evenodd"></path><path id="path1" d="M84.920 2.000 C 84.920 3.210,84.995 3.705,85.087 3.100 C 85.178 2.495,85.178 1.505,85.087 0.900 C 84.995 0.295,84.920 0.790,84.920 2.000 M86.914 1.800 C 86.917 2.900,86.995 3.303,87.087 2.695 C 87.179 2.086,87.177 1.186,87.082 0.695 C 86.987 0.203,86.911 0.700,86.914 1.800 M389.714 1.800 C 389.717 2.900,389.795 3.303,389.887 2.695 C 389.979 2.086,389.977 1.186,389.882 0.695 C 389.787 0.203,389.711 0.700,389.714 1.800 M78.812 3.984 C 77.859 4.587,78.509 4.714,79.600 4.139 C 80.151 3.848,80.331 3.612,80.000 3.612 C 79.670 3.612,79.135 3.780,78.812 3.984 M78.093 6.400 C 78.093 7.170,78.175 7.485,78.276 7.100 C 78.376 6.715,78.376 6.085,78.276 5.700 C 78.175 5.315,78.093 5.630,78.093 6.400 M396.800 13.600 C 396.800 13.820,397.520 14.000,398.400 14.000 C 399.280 14.000,400.000 13.820,400.000 13.600 C 400.000 13.380,399.280 13.200,398.400 13.200 C 397.520 13.200,396.800 13.380,396.800 13.600 M71.309 15.600 C 71.309 16.590,71.387 16.995,71.482 16.500 C 71.578 16.005,71.578 15.195,71.482 14.700 C 71.387 14.205,71.309 14.610,71.309 15.600 M396.800 14.800 C 396.800 15.020,397.520 15.200,398.400 15.200 C 399.280 15.200,400.000 15.020,400.000 14.800 C 400.000 14.580,399.280 14.400,398.400 14.400 C 397.520 14.400,396.800 14.580,396.800 14.800 M397.500 16.282 C 397.995 16.378,398.805 16.378,399.300 16.282 C 399.795 16.187,399.390 16.109,398.400 16.109 C 397.410 16.109,397.005 16.187,397.500 16.282 M64.598 164.000 C 64.598 237.370,64.644 267.385,64.700 230.700 C 64.756 194.015,64.756 133.985,64.700 97.300 C 64.644 60.615,64.598 90.630,64.598 164.000 M65.500 37.065 C 65.775 37.176,66.005 37.747,66.012 38.333 C 66.023 39.274,66.074 39.314,66.446 38.676 C 66.993 37.735,66.618 36.791,65.713 36.832 C 65.294 36.850,65.206 36.946,65.500 37.065 M65.293 38.800 C 65.293 39.570,65.375 39.885,65.476 39.500 C 65.576 39.115,65.576 38.485,65.476 38.100 C 65.375 37.715,65.293 38.030,65.293 38.800 M356.093 45.200 C 356.093 45.970,356.175 46.285,356.276 45.900 C 356.376 45.515,356.376 44.885,356.276 44.500 C 356.175 44.115,356.093 44.430,356.093 45.200 M67.699 163.467 C 67.645 229.064,67.496 283.064,67.370 283.467 C 67.164 284.122,67.185 284.129,67.570 283.534 C 67.876 283.062,67.972 248.271,67.900 163.534 L 67.799 44.200 67.699 163.467 M118.597 163.800 C 118.597 226.720,118.643 252.400,118.700 220.868 C 118.756 189.335,118.756 137.855,118.700 106.468 C 118.643 75.080,118.597 100.880,118.597 163.800 M113.200 163.280 C 113.090 225.474,113.135 276.225,113.301 276.059 C 113.466 275.894,113.556 225.008,113.501 162.979 L 113.400 50.200 113.200 163.280 M115.385 50.900 C 115.281 51.175,115.241 101.710,115.298 163.200 L 115.400 275.000 115.600 162.700 C 115.710 100.935,115.749 50.400,115.687 50.400 C 115.626 50.400,115.489 50.625,115.385 50.900 M116.997 162.800 C 116.997 224.510,117.043 249.755,117.100 218.900 C 117.157 188.045,117.157 137.555,117.100 106.700 C 117.043 75.845,116.997 101.090,116.997 162.800 M358.997 162.800 C 358.997 224.510,359.043 249.755,359.100 218.900 C 359.157 188.045,359.157 137.555,359.100 106.700 C 359.043 75.845,358.997 101.090,358.997 162.800 M6.000 64.688 C 21.809 64.967,35.107 64.973,34.939 64.700 C 34.836 64.535,26.888 64.440,17.276 64.489 C 7.664 64.538,2.590 64.627,6.000 64.688 M214.600 64.694 C 247.034 64.969,271.506 64.972,271.338 64.700 C 271.236 64.535,255.638 64.442,236.676 64.494 C 217.714 64.546,207.780 64.636,214.600 64.694 M205.600 66.175 C 206.154 66.891,206.139 66.927,205.400 66.651 C 204.758 66.412,204.699 66.452,205.100 66.856 C 205.447 67.206,205.728 67.232,206.017 66.943 C 206.306 66.654,206.214 66.354,205.717 65.963 C 205.050 65.439,205.042 65.454,205.600 66.175 M223.929 67.900 C 231.480 67.961,243.720 67.961,251.129 67.900 C 258.538 67.839,252.360 67.789,237.400 67.789 C 222.440 67.789,216.378 67.839,223.929 67.900 M271.632 68.038 C 271.614 68.389,272.005 69.019,272.500 69.438 C 273.392 70.194,273.394 70.193,272.752 69.400 C 272.396 68.960,272.005 68.330,271.884 68.000 C 271.697 67.491,271.658 67.496,271.632 68.038 M193.301 73.000 C 193.305 73.880,193.387 74.193,193.483 73.695 C 193.579 73.198,193.575 72.478,193.475 72.095 C 193.375 71.713,193.296 72.120,193.301 73.000 M193.324 91.000 L 193.379 105.800 193.590 92.000 C 193.705 84.410,193.680 77.750,193.534 77.200 C 193.388 76.650,193.294 82.860,193.324 91.000 M280.596 163.600 C 280.596 206.830,280.643 224.515,280.700 202.900 C 280.757 181.285,280.757 145.915,280.700 124.300 C 280.643 102.685,280.596 120.370,280.596 163.600 M193.301 109.000 C 193.305 109.880,193.387 110.193,193.483 109.695 C 193.579 109.198,193.575 108.478,193.475 108.095 C 193.375 107.713,193.296 108.120,193.301 109.000 M198.692 109.842 C 198.194 110.339,198.367 110.627,199.200 110.690 C 199.640 110.723,200.000 110.571,200.000 110.352 C 200.000 110.132,199.835 110.055,199.634 110.179 C 199.433 110.303,199.204 110.213,199.126 109.977 C 199.047 109.742,198.852 109.681,198.692 109.842 M196.949 111.317 C 196.796 111.583,196.814 111.672,196.987 111.515 C 197.161 111.359,198.090 111.875,199.051 112.663 C 200.013 113.452,200.803 113.940,200.806 113.748 C 200.809 113.557,200.987 113.670,201.200 114.000 C 201.545 114.533,201.592 114.533,201.622 114.000 C 201.645 113.596,201.768 113.661,202.000 114.200 C 202.223 114.719,202.349 114.790,202.358 114.400 C 202.365 114.070,202.101 113.350,201.769 112.800 C 201.280 111.988,201.208 111.957,201.389 112.633 C 201.536 113.182,201.423 113.467,201.061 113.467 C 200.759 113.467,200.531 113.182,200.556 112.833 C 200.584 112.425,200.208 112.155,199.500 112.073 C 198.895 112.004,198.400 111.798,198.400 111.616 C 198.400 111.049,197.240 110.810,196.949 111.317 M206.400 112.201 C 205.790 113.340,205.111 113.554,205.450 112.500 C 205.625 111.958,205.587 111.924,205.282 112.351 C 205.066 112.654,204.644 112.776,204.345 112.622 C 204.045 112.467,204.149 112.624,204.576 112.970 C 205.004 113.317,205.494 113.600,205.667 113.600 C 206.074 113.600,207.367 111.634,207.121 111.388 C 207.019 111.285,206.694 111.651,206.400 112.201 M209.500 112.682 C 209.995 112.778,210.805 112.778,211.300 112.682 C 211.795 112.587,211.390 112.509,210.400 112.509 C 209.410 112.509,209.005 112.587,209.500 112.682 M215.700 113.496 C 216.965 113.575,219.035 113.575,220.300 113.496 C 221.565 113.416,220.530 113.351,218.000 113.351 C 215.470 113.351,214.435 113.416,215.700 113.496 M206.600 114.000 C 206.881 114.454,208.816 114.454,210.600 114.000 C 211.524 113.765,211.174 113.684,209.076 113.647 C 207.351 113.617,206.443 113.747,206.600 114.000 M203.600 114.576 C 203.600 114.893,203.780 115.264,204.000 115.400 C 204.220 115.536,204.400 115.277,204.400 114.824 C 204.400 114.371,204.220 114.000,204.000 114.000 C 203.780 114.000,203.600 114.259,203.600 114.576 M206.349 115.300 C 206.714 115.765,207.385 115.979,208.349 115.936 L 209.800 115.872 208.402 115.703 C 207.632 115.611,206.732 115.324,206.402 115.067 C 205.878 114.660,205.871 114.690,206.349 115.300 M212.917 115.497 C 214.411 115.574,216.751 115.574,218.117 115.496 C 219.482 115.418,218.260 115.355,215.400 115.355 C 212.540 115.356,211.422 115.420,212.917 115.497 M214.100 117.096 C 215.365 117.175,217.435 117.175,218.700 117.096 C 219.965 117.016,218.930 116.951,216.400 116.951 C 213.870 116.951,212.835 117.016,214.100 117.096 M210.325 118.699 C 213.914 118.766,219.674 118.766,223.125 118.699 C 226.576 118.633,223.640 118.578,216.600 118.578 C 209.560 118.579,206.736 118.633,210.325 118.699 M232.006 183.100 C 232.010 219.532,232.154 240.820,232.400 241.200 C 232.651 241.589,232.790 221.358,232.794 183.700 C 232.798 145.229,232.665 125.600,232.400 125.600 C 232.135 125.600,232.002 145.029,232.006 183.100 M233.395 183.400 C 233.395 215.300,233.442 228.291,233.500 212.269 C 233.558 196.246,233.558 170.146,233.500 154.269 C 233.442 138.391,233.395 151.500,233.395 183.400 M227.324 246.200 C 227.326 247.520,227.401 248.012,227.490 247.293 C 227.579 246.574,227.577 245.494,227.486 244.893 C 227.395 244.292,227.322 244.880,227.324 246.200 M115.267 277.650 C 115.930 278.070,117.200 278.104,117.199 277.700 C 117.199 277.535,116.644 277.380,115.966 277.356 C 115.152 277.326,114.915 277.426,115.267 277.650 M111.762 278.062 C 111.593 278.335,111.651 278.416,111.904 278.259 C 112.139 278.114,112.404 278.212,112.492 278.477 C 112.594 278.782,112.749 278.709,112.914 278.280 C 113.213 277.500,112.225 277.313,111.762 278.062 M112.753 280.300 C 112.727 280.465,112.727 280.735,112.753 280.900 C 112.779 281.065,112.620 281.200,112.400 281.200 C 112.180 281.200,111.997 280.975,111.994 280.700 C 111.989 280.327,111.901 280.336,111.648 280.736 C 111.452 281.044,111.497 281.675,111.754 282.225 C 112.180 283.136,112.209 283.142,112.400 282.366 C 112.621 281.467,113.289 281.268,113.542 282.026 C 113.635 282.304,113.511 282.392,113.252 282.232 C 113.003 282.078,112.800 282.047,112.800 282.162 C 112.800 282.278,113.147 282.558,113.572 282.785 C 114.282 283.165,114.316 283.102,114.000 281.999 C 113.756 281.151,113.794 280.798,114.128 280.794 C 114.406 280.790,114.353 280.628,114.000 280.400 C 113.276 279.932,112.817 279.895,112.753 280.300 M114.800 282.247 C 114.800 282.467,115.064 282.996,115.387 283.424 C 115.710 283.851,115.975 284.020,115.975 283.800 C 115.975 283.580,115.710 283.051,115.387 282.624 C 115.064 282.196,114.800 282.027,114.800 282.247 M70.200 292.000 C 69.456 292.320,69.452 292.346,70.149 292.372 C 70.797 292.396,70.826 292.495,70.368 293.100 C 69.922 293.689,69.925 293.723,70.385 293.314 C 70.820 292.928,71.050 292.969,71.508 293.514 C 71.907 293.989,71.890 293.871,71.453 293.130 C 70.976 292.323,70.941 292.011,71.310 291.861 C 71.580 291.752,71.620 291.662,71.400 291.660 C 71.180 291.658,70.640 291.811,70.200 292.000 M66.769 294.500 C 66.753 294.775,66.680 295.303,66.609 295.672 C 66.517 296.147,66.667 296.272,67.119 296.099 C 67.471 295.964,67.563 295.788,67.322 295.707 C 67.082 295.627,66.977 295.210,67.089 294.781 C 67.201 294.351,67.182 294.000,67.047 294.000 C 66.911 294.000,66.786 294.225,66.769 294.500 M67.362 297.262 C 67.191 297.537,67.251 297.615,67.511 297.455 C 67.749 297.308,68.049 297.356,68.177 297.563 C 68.305 297.770,68.093 298.022,67.705 298.123 C 67.119 298.276,67.138 298.315,67.820 298.354 C 69.155 298.429,70.534 300.800,69.243 300.800 C 69.046 300.800,68.778 301.079,68.647 301.421 C 68.502 301.800,68.574 301.939,68.834 301.779 C 69.068 301.634,69.740 301.940,70.327 302.458 C 71.158 303.191,71.240 303.216,70.697 302.569 C 69.777 301.471,69.818 301.199,70.900 301.206 C 71.401 301.210,71.613 301.343,71.378 301.506 C 71.102 301.698,71.206 302.043,71.678 302.500 C 72.075 302.885,72.400 303.050,72.400 302.867 C 72.400 302.683,72.275 302.408,72.122 302.255 C 71.663 301.797,71.624 300.702,72.039 299.927 C 72.474 299.115,71.841 298.933,70.822 299.578 C 70.391 299.851,69.948 299.543,69.087 298.372 C 67.806 296.630,67.768 296.605,67.362 297.262 M70.168 297.865 C 70.222 298.231,70.688 298.595,71.204 298.673 L 72.142 298.817 71.210 298.008 C 70.082 297.031,70.045 297.025,70.168 297.865 M181.132 329.100 C 212.225 329.157,262.985 329.157,293.932 329.100 C 324.880 329.043,299.440 328.997,237.400 328.997 C 175.360 328.997,150.040 329.043,181.132 329.100 M179.668 333.100 C 211.275 333.156,263.115 333.156,294.868 333.100 C 326.620 333.043,300.760 332.997,237.400 332.997 C 174.040 332.997,148.060 333.043,179.668 333.100 M324.800 356.223 C 326.315 356.553,328.400 356.609,328.400 356.320 C 328.400 356.144,327.455 356.021,326.300 356.046 C 325.145 356.072,324.470 356.152,324.800 356.223 M47.300 358.676 C 47.685 358.776,48.315 358.776,48.700 358.676 C 49.085 358.575,48.770 358.493,48.000 358.493 C 47.230 358.493,46.915 358.575,47.300 358.676 M315.105 359.083 C 315.602 359.179,316.322 359.175,316.705 359.075 C 317.087 358.975,316.680 358.896,315.800 358.901 C 314.920 358.905,314.607 358.987,315.105 359.083 M332.870 381.467 C 332.831 382.384,332.696 383.464,332.570 383.867 C 332.353 384.556,332.367 384.557,332.793 383.895 C 333.042 383.507,333.177 382.427,333.093 381.495 L 332.940 379.800 332.870 381.467 M0.000 386.361 C 0.000 386.560,0.870 386.785,1.934 386.861 C 3.288 386.958,3.868 386.850,3.867 386.500 C 3.867 386.169,3.213 386.000,1.933 386.000 C 0.870 386.000,0.000 386.163,0.000 386.361 M334.109 389.200 C 334.109 390.190,334.187 390.595,334.282 390.100 C 334.378 389.605,334.378 388.795,334.282 388.300 C 334.187 387.805,334.109 388.210,334.109 389.200 M0.905 388.287 C 1.514 388.379,2.414 388.377,2.905 388.282 C 3.397 388.187,2.900 388.111,1.800 388.114 C 0.700 388.117,0.297 388.195,0.905 388.287 M0.905 389.887 C 1.514 389.979,2.414 389.977,2.905 389.882 C 3.397 389.787,2.900 389.711,1.800 389.714 C 0.700 389.717,0.297 389.795,0.905 389.887 M13.309 398.400 C 13.309 399.390,13.387 399.795,13.482 399.300 C 13.578 398.805,13.578 397.995,13.482 397.500 C 13.387 397.005,13.309 397.410,13.309 398.400 " stroke="none" fill="#78cccc" fill-rule="evenodd"></path><path id="path2" d="M84.920 2.000 C 84.920 3.210,84.995 3.705,85.087 3.100 C 85.178 2.495,85.178 1.505,85.087 0.900 C 84.995 0.295,84.920 0.790,84.920 2.000 M86.914 1.800 C 86.917 2.900,86.995 3.303,87.087 2.695 C 87.179 2.086,87.177 1.186,87.082 0.695 C 86.987 0.203,86.911 0.700,86.914 1.800 M389.714 1.800 C 389.717 2.900,389.795 3.303,389.887 2.695 C 389.979 2.086,389.977 1.186,389.882 0.695 C 389.787 0.203,389.711 0.700,389.714 1.800 M78.812 3.984 C 77.859 4.587,78.509 4.714,79.600 4.139 C 80.151 3.848,80.331 3.612,80.000 3.612 C 79.670 3.612,79.135 3.780,78.812 3.984 M78.093 6.400 C 78.093 7.170,78.175 7.485,78.276 7.100 C 78.376 6.715,78.376 6.085,78.276 5.700 C 78.175 5.315,78.093 5.630,78.093 6.400 M396.800 13.600 C 396.800 13.820,397.520 14.000,398.400 14.000 C 399.280 14.000,400.000 13.820,400.000 13.600 C 400.000 13.380,399.280 13.200,398.400 13.200 C 397.520 13.200,396.800 13.380,396.800 13.600 M71.309 15.600 C 71.309 16.590,71.387 16.995,71.482 16.500 C 71.578 16.005,71.578 15.195,71.482 14.700 C 71.387 14.205,71.309 14.610,71.309 15.600 M396.800 14.800 C 396.800 15.020,397.520 15.200,398.400 15.200 C 399.280 15.200,400.000 15.020,400.000 14.800 C 400.000 14.580,399.280 14.400,398.400 14.400 C 397.520 14.400,396.800 14.580,396.800 14.800 M397.500 16.282 C 397.995 16.378,398.805 16.378,399.300 16.282 C 399.795 16.187,399.390 16.109,398.400 16.109 C 397.410 16.109,397.005 16.187,397.500 16.282 M64.598 164.000 C 64.598 237.370,64.644 267.385,64.700 230.700 C 64.756 194.015,64.756 133.985,64.700 97.300 C 64.644 60.615,64.598 90.630,64.598 164.000 M65.500 37.065 C 65.775 37.176,66.005 37.747,66.012 38.333 C 66.023 39.274,66.074 39.314,66.446 38.676 C 66.993 37.735,66.618 36.791,65.713 36.832 C 65.294 36.850,65.206 36.946,65.500 37.065 M65.293 38.800 C 65.293 39.570,65.375 39.885,65.476 39.500 C 65.576 39.115,65.576 38.485,65.476 38.100 C 65.375 37.715,65.293 38.030,65.293 38.800 M356.093 45.200 C 356.093 45.970,356.175 46.285,356.276 45.900 C 356.376 45.515,356.376 44.885,356.276 44.500 C 356.175 44.115,356.093 44.430,356.093 45.200 M67.699 163.467 C 67.645 229.064,67.496 283.064,67.370 283.467 C 67.164 284.122,67.185 284.129,67.570 283.534 C 67.876 283.062,67.972 248.271,67.900 163.534 L 67.799 44.200 67.699 163.467 M118.597 163.800 C 118.597 226.720,118.643 252.400,118.700 220.868 C 118.756 189.335,118.756 137.855,118.700 106.468 C 118.643 75.080,118.597 100.880,118.597 163.800 M113.200 163.280 C 113.090 225.474,113.135 276.225,113.301 276.059 C 113.466 275.894,113.556 225.008,113.501 162.979 L 113.400 50.200 113.200 163.280 M115.385 50.900 C 115.281 51.175,115.241 101.710,115.298 163.200 L 115.400 275.000 115.600 162.700 C 115.710 100.935,115.749 50.400,115.687 50.400 C 115.626 50.400,115.489 50.625,115.385 50.900 M116.997 162.800 C 116.997 224.510,117.043 249.755,117.100 218.900 C 117.157 188.045,117.157 137.555,117.100 106.700 C 117.043 75.845,116.997 101.090,116.997 162.800 M358.997 162.800 C 358.997 224.510,359.043 249.755,359.100 218.900 C 359.157 188.045,359.157 137.555,359.100 106.700 C 359.043 75.845,358.997 101.090,358.997 162.800 M6.000 64.688 C 21.809 64.967,35.107 64.973,34.939 64.700 C 34.836 64.535,26.888 64.440,17.276 64.489 C 7.664 64.538,2.590 64.627,6.000 64.688 M214.600 64.694 C 247.034 64.969,271.506 64.972,271.338 64.700 C 271.236 64.535,255.638 64.442,236.676 64.494 C 217.714 64.546,207.780 64.636,214.600 64.694 M205.600 66.175 C 206.154 66.891,206.139 66.927,205.400 66.651 C 204.758 66.412,204.699 66.452,205.100 66.856 C 205.447 67.206,205.728 67.232,206.017 66.943 C 206.306 66.654,206.214 66.354,205.717 65.963 C 205.050 65.439,205.042 65.454,205.600 66.175 M223.929 67.900 C 231.480 67.961,243.720 67.961,251.129 67.900 C 258.538 67.839,252.360 67.789,237.400 67.789 C 222.440 67.789,216.378 67.839,223.929 67.900 M271.632 68.038 C 271.614 68.389,272.005 69.019,272.500 69.438 C 273.392 70.194,273.394 70.193,272.752 69.400 C 272.396 68.960,272.005 68.330,271.884 68.000 C 271.697 67.491,271.658 67.496,271.632 68.038 M193.301 73.000 C 193.305 73.880,193.387 74.193,193.483 73.695 C 193.579 73.198,193.575 72.478,193.475 72.095 C 193.375 71.713,193.296 72.120,193.301 73.000 M193.324 91.000 L 193.379 105.800 193.590 92.000 C 193.705 84.410,193.680 77.750,193.534 77.200 C 193.388 76.650,193.294 82.860,193.324 91.000 M280.596 163.600 C 280.596 206.830,280.643 224.515,280.700 202.900 C 280.757 181.285,280.757 145.915,280.700 124.300 C 280.643 102.685,280.596 120.370,280.596 163.600 M193.301 109.000 C 193.305 109.880,193.387 110.193,193.483 109.695 C 193.579 109.198,193.575 108.478,193.475 108.095 C 193.375 107.713,193.296 108.120,193.301 109.000 M198.692 109.842 C 198.194 110.339,198.367 110.627,199.200 110.690 C 199.640 110.723,200.000 110.571,200.000 110.352 C 200.000 110.132,199.835 110.055,199.634 110.179 C 199.433 110.303,199.204 110.213,199.126 109.977 C 199.047 109.742,198.852 109.681,198.692 109.842 M196.949 111.317 C 196.796 111.583,196.814 111.672,196.987 111.515 C 197.161 111.359,198.090 111.875,199.051 112.663 C 200.013 113.452,200.803 113.940,200.806 113.748 C 200.809 113.557,200.987 113.670,201.200 114.000 C 201.545 114.533,201.592 114.533,201.622 114.000 C 201.645 113.596,201.768 113.661,202.000 114.200 C 202.223 114.719,202.349 114.790,202.358 114.400 C 202.365 114.070,202.101 113.350,201.769 112.800 C 201.280 111.988,201.208 111.957,201.389 112.633 C 201.536 113.182,201.423 113.467,201.061 113.467 C 200.759 113.467,200.531 113.182,200.556 112.833 C 200.584 112.425,200.208 112.155,199.500 112.073 C 198.895 112.004,198.400 111.798,198.400 111.616 C 198.400 111.049,197.240 110.810,196.949 111.317 M206.400 112.201 C 205.790 113.340,205.111 113.554,205.450 112.500 C 205.625 111.958,205.587 111.924,205.282 112.351 C 205.066 112.654,204.644 112.776,204.345 112.622 C 204.045 112.467,204.149 112.624,204.576 112.970 C 205.004 113.317,205.494 113.600,205.667 113.600 C 206.074 113.600,207.367 111.634,207.121 111.388 C 207.019 111.285,206.694 111.651,206.400 112.201 M209.500 112.682 C 209.995 112.778,210.805 112.778,211.300 112.682 C 211.795 112.587,211.390 112.509,210.400 112.509 C 209.410 112.509,209.005 112.587,209.500 112.682 M215.700 113.496 C 216.965 113.575,219.035 113.575,220.300 113.496 C 221.565 113.416,220.530 113.351,218.000 113.351 C 215.470 113.351,214.435 113.416,215.700 113.496 M206.600 114.000 C 206.881 114.454,208.816 114.454,210.600 114.000 C 211.524 113.765,211.174 113.684,209.076 113.647 C 207.351 113.617,206.443 113.747,206.600 114.000 M203.600 114.576 C 203.600 114.893,203.780 115.264,204.000 115.400 C 204.220 115.536,204.400 115.277,204.400 114.824 C 204.400 114.371,204.220 114.000,204.000 114.000 C 203.780 114.000,203.600 114.259,203.600 114.576 M206.349 115.300 C 206.714 115.765,207.385 115.979,208.349 115.936 L 209.800 115.872 208.402 115.703 C 207.632 115.611,206.732 115.324,206.402 115.067 C 205.878 114.660,205.871 114.690,206.349 115.300 M212.917 115.497 C 214.411 115.574,216.751 115.574,218.117 115.496 C 219.482 115.418,218.260 115.355,215.400 115.355 C 212.540 115.356,211.422 115.420,212.917 115.497 M214.100 117.096 C 215.365 117.175,217.435 117.175,218.700 117.096 C 219.965 117.016,218.930 116.951,216.400 116.951 C 213.870 116.951,212.835 117.016,214.100 117.096 M210.325 118.699 C 213.914 118.766,219.674 118.766,223.125 118.699 C 226.576 118.633,223.640 118.578,216.600 118.578 C 209.560 118.579,206.736 118.633,210.325 118.699 M232.006 183.100 C 232.010 219.532,232.154 240.820,232.400 241.200 C 232.651 241.589,232.790 221.358,232.794 183.700 C 232.798 145.229,232.665 125.600,232.400 125.600 C 232.135 125.600,232.002 145.029,232.006 183.100 M233.395 183.400 C 233.395 215.300,233.442 228.291,233.500 212.269 C 233.558 196.246,233.558 170.146,233.500 154.269 C 233.442 138.391,233.395 151.500,233.395 183.400 M227.324 246.200 C 227.326 247.520,227.401 248.012,227.490 247.293 C 227.579 246.574,227.577 245.494,227.486 244.893 C 227.395 244.292,227.322 244.880,227.324 246.200 M115.267 277.650 C 115.930 278.070,117.200 278.104,117.199 277.700 C 117.199 277.535,116.644 277.380,115.966 277.356 C 115.152 277.326,114.915 277.426,115.267 277.650 M111.762 278.062 C 111.593 278.335,111.651 278.416,111.904 278.259 C 112.139 278.114,112.404 278.212,112.492 278.477 C 112.594 278.782,112.749 278.709,112.914 278.280 C 113.213 277.500,112.225 277.313,111.762 278.062 M112.753 280.300 C 112.727 280.465,112.727 280.735,112.753 280.900 C 112.779 281.065,112.620 281.200,112.400 281.200 C 112.180 281.200,111.997 280.975,111.994 280.700 C 111.989 280.327,111.901 280.336,111.648 280.736 C 111.452 281.044,111.497 281.675,111.754 282.225 C 112.180 283.136,112.209 283.142,112.400 282.366 C 112.621 281.467,113.289 281.268,113.542 282.026 C 113.635 282.304,113.511 282.392,113.252 282.232 C 113.003 282.078,112.800 282.047,112.800 282.162 C 112.800 282.278,113.147 282.558,113.572 282.785 C 114.282 283.165,114.316 283.102,114.000 281.999 C 113.756 281.151,113.794 280.798,114.128 280.794 C 114.406 280.790,114.353 280.628,114.000 280.400 C 113.276 279.932,112.817 279.895,112.753 280.300 M114.800 282.247 C 114.800 282.467,115.064 282.996,115.387 283.424 C 115.710 283.851,115.975 284.020,115.975 283.800 C 115.975 283.580,115.710 283.051,115.387 282.624 C 115.064 282.196,114.800 282.027,114.800 282.247 M70.200 292.000 C 69.456 292.320,69.452 292.346,70.149 292.372 C 70.797 292.396,70.826 292.495,70.368 293.100 C 69.922 293.689,69.925 293.723,70.385 293.314 C 70.820 292.928,71.050 292.969,71.508 293.514 C 71.907 293.989,71.890 293.871,71.453 293.130 C 70.976 292.323,70.941 292.011,71.310 291.861 C 71.580 291.752,71.620 291.662,71.400 291.660 C 71.180 291.658,70.640 291.811,70.200 292.000 M66.769 294.500 C 66.753 294.775,66.680 295.303,66.609 295.672 C 66.517 296.147,66.667 296.272,67.119 296.099 C 67.471 295.964,67.563 295.788,67.322 295.707 C 67.082 295.627,66.977 295.210,67.089 294.781 C 67.201 294.351,67.182 294.000,67.047 294.000 C 66.911 294.000,66.786 294.225,66.769 294.500 M67.362 297.262 C 67.191 297.537,67.251 297.615,67.511 297.455 C 67.749 297.308,68.049 297.356,68.177 297.563 C 68.305 297.770,68.093 298.022,67.705 298.123 C 67.119 298.276,67.138 298.315,67.820 298.354 C 69.155 298.429,70.534 300.800,69.243 300.800 C 69.046 300.800,68.778 301.079,68.647 301.421 C 68.502 301.800,68.574 301.939,68.834 301.779 C 69.068 301.634,69.740 301.940,70.327 302.458 C 71.158 303.191,71.240 303.216,70.697 302.569 C 69.777 301.471,69.818 301.199,70.900 301.206 C 71.401 301.210,71.613 301.343,71.378 301.506 C 71.102 301.698,71.206 302.043,71.678 302.500 C 72.075 302.885,72.400 303.050,72.400 302.867 C 72.400 302.683,72.275 302.408,72.122 302.255 C 71.663 301.797,71.624 300.702,72.039 299.927 C 72.474 299.115,71.841 298.933,70.822 299.578 C 70.391 299.851,69.948 299.543,69.087 298.372 C 67.806 296.630,67.768 296.605,67.362 297.262 M70.168 297.865 C 70.222 298.231,70.688 298.595,71.204 298.673 L 72.142 298.817 71.210 298.008 C 70.082 297.031,70.045 297.025,70.168 297.865 M181.132 329.100 C 212.225 329.157,262.985 329.157,293.932 329.100 C 324.880 329.043,299.440 328.997,237.400 328.997 C 175.360 328.997,150.040 329.043,181.132 329.100 M179.668 333.100 C 211.275 333.156,263.115 333.156,294.868 333.100 C 326.620 333.043,300.760 332.997,237.400 332.997 C 174.040 332.997,148.060 333.043,179.668 333.100 M324.800 356.223 C 326.315 356.553,328.400 356.609,328.400 356.320 C 328.400 356.144,327.455 356.021,326.300 356.046 C 325.145 356.072,324.470 356.152,324.800 356.223 M47.300 358.676 C 47.685 358.776,48.315 358.776,48.700 358.676 C 49.085 358.575,48.770 358.493,48.000 358.493 C 47.230 358.493,46.915 358.575,47.300 358.676 M315.105 359.083 C 315.602 359.179,316.322 359.175,316.705 359.075 C 317.087 358.975,316.680 358.896,315.800 358.901 C 314.920 358.905,314.607 358.987,315.105 359.083 M332.870 381.467 C 332.831 382.384,332.696 383.464,332.570 383.867 C 332.353 384.556,332.367 384.557,332.793 383.895 C 333.042 383.507,333.177 382.427,333.093 381.495 L 332.940 379.800 332.870 381.467 M0.000 386.361 C 0.000 386.560,0.870 386.785,1.934 386.861 C 3.288 386.958,3.868 386.850,3.867 386.500 C 3.867 386.169,3.213 386.000,1.933 386.000 C 0.870 386.000,0.000 386.163,0.000 386.361 M334.109 389.200 C 334.109 390.190,334.187 390.595,334.282 390.100 C 334.378 389.605,334.378 388.795,334.282 388.300 C 334.187 387.805,334.109 388.210,334.109 389.200 M0.905 388.287 C 1.514 388.379,2.414 388.377,2.905 388.282 C 3.397 388.187,2.900 388.111,1.800 388.114 C 0.700 388.117,0.297 388.195,0.905 388.287 M0.905 389.887 C 1.514 389.979,2.414 389.977,2.905 389.882 C 3.397 389.787,2.900 389.711,1.800 389.714 C 0.700 389.717,0.297 389.795,0.905 389.887 M13.309 398.400 C 13.309 399.390,13.387 399.795,13.482 399.300 C 13.578 398.805,13.578 397.995,13.482 397.500 C 13.387 397.005,13.309 397.410,13.309 398.400 " stroke="none" fill="#78cccc" fill-rule="evenodd"></path><path id="path3" d="M84.920 2.000 C 84.920 3.210,84.995 3.705,85.087 3.100 C 85.178 2.495,85.178 1.505,85.087 0.900 C 84.995 0.295,84.920 0.790,84.920 2.000 M86.914 1.800 C 86.917 2.900,86.995 3.303,87.087 2.695 C 87.179 2.086,87.177 1.186,87.082 0.695 C 86.987 0.203,86.911 0.700,86.914 1.800 M389.714 1.800 C 389.717 2.900,389.795 3.303,389.887 2.695 C 389.979 2.086,389.977 1.186,389.882 0.695 C 389.787 0.203,389.711 0.700,389.714 1.800 M78.812 3.984 C 77.859 4.587,78.509 4.714,79.600 4.139 C 80.151 3.848,80.331 3.612,80.000 3.612 C 79.670 3.612,79.135 3.780,78.812 3.984 M78.093 6.400 C 78.093 7.170,78.175 7.485,78.276 7.100 C 78.376 6.715,78.376 6.085,78.276 5.700 C 78.175 5.315,78.093 5.630,78.093 6.400 M396.800 13.600 C 396.800 13.820,397.520 14.000,398.400 14.000 C 399.280 14.000,400.000 13.820,400.000 13.600 C 400.000 13.380,399.280 13.200,398.400 13.200 C 397.520 13.200,396.800 13.380,396.800 13.600 M71.309 15.600 C 71.309 16.590,71.387 16.995,71.482 16.500 C 71.578 16.005,71.578 15.195,71.482 14.700 C 71.387 14.205,71.309 14.610,71.309 15.600 M396.800 14.800 C 396.800 15.020,397.520 15.200,398.400 15.200 C 399.280 15.200,400.000 15.020,400.000 14.800 C 400.000 14.580,399.280 14.400,398.400 14.400 C 397.520 14.400,396.800 14.580,396.800 14.800 M397.500 16.282 C 397.995 16.378,398.805 16.378,399.300 16.282 C 399.795 16.187,399.390 16.109,398.400 16.109 C 397.410 16.109,397.005 16.187,397.500 16.282 M64.598 164.000 C 64.598 237.370,64.644 267.385,64.700 230.700 C 64.756 194.015,64.756 133.985,64.700 97.300 C 64.644 60.615,64.598 90.630,64.598 164.000 M65.500 37.065 C 65.775 37.176,66.005 37.747,66.012 38.333 C 66.023 39.274,66.074 39.314,66.446 38.676 C 66.993 37.735,66.618 36.791,65.713 36.832 C 65.294 36.850,65.206 36.946,65.500 37.065 M65.293 38.800 C 65.293 39.570,65.375 39.885,65.476 39.500 C 65.576 39.115,65.576 38.485,65.476 38.100 C 65.375 37.715,65.293 38.030,65.293 38.800 M356.093 45.200 C 356.093 45.970,356.175 46.285,356.276 45.900 C 356.376 45.515,356.376 44.885,356.276 44.500 C 356.175 44.115,356.093 44.430,356.093 45.200 M67.699 163.467 C 67.645 229.064,67.496 283.064,67.370 283.467 C 67.164 284.122,67.185 284.129,67.570 283.534 C 67.876 283.062,67.972 248.271,67.900 163.534 L 67.799 44.200 67.699 163.467 M118.597 163.800 C 118.597 226.720,118.643 252.400,118.700 220.868 C 118.756 189.335,118.756 137.855,118.700 106.468 C 118.643 75.080,118.597 100.880,118.597 163.800 M113.200 163.280 C 113.090 225.474,113.135 276.225,113.301 276.059 C 113.466 275.894,113.556 225.008,113.501 162.979 L 113.400 50.200 113.200 163.280 M115.385 50.900 C 115.281 51.175,115.241 101.710,115.298 163.200 L 115.400 275.000 115.600 162.700 C 115.710 100.935,115.749 50.400,115.687 50.400 C 115.626 50.400,115.489 50.625,115.385 50.900 M116.997 162.800 C 116.997 224.510,117.043 249.755,117.100 218.900 C 117.157 188.045,117.157 137.555,117.100 106.700 C 117.043 75.845,116.997 101.090,116.997 162.800 M358.997 162.800 C 358.997 224.510,359.043 249.755,359.100 218.900 C 359.157 188.045,359.157 137.555,359.100 106.700 C 359.043 75.845,358.997 101.090,358.997 162.800 M6.000 64.688 C 21.809 64.967,35.107 64.973,34.939 64.700 C 34.836 64.535,26.888 64.440,17.276 64.489 C 7.664 64.538,2.590 64.627,6.000 64.688 M214.600 64.694 C 247.034 64.969,271.506 64.972,271.338 64.700 C 271.236 64.535,255.638 64.442,236.676 64.494 C 217.714 64.546,207.780 64.636,214.600 64.694 M205.600 66.175 C 206.154 66.891,206.139 66.927,205.400 66.651 C 204.758 66.412,204.699 66.452,205.100 66.856 C 205.447 67.206,205.728 67.232,206.017 66.943 C 206.306 66.654,206.214 66.354,205.717 65.963 C 205.050 65.439,205.042 65.454,205.600 66.175 M223.929 67.900 C 231.480 67.961,243.720 67.961,251.129 67.900 C 258.538 67.839,252.360 67.789,237.400 67.789 C 222.440 67.789,216.378 67.839,223.929 67.900 M271.632 68.038 C 271.614 68.389,272.005 69.019,272.500 69.438 C 273.392 70.194,273.394 70.193,272.752 69.400 C 272.396 68.960,272.005 68.330,271.884 68.000 C 271.697 67.491,271.658 67.496,271.632 68.038 M193.301 73.000 C 193.305 73.880,193.387 74.193,193.483 73.695 C 193.579 73.198,193.575 72.478,193.475 72.095 C 193.375 71.713,193.296 72.120,193.301 73.000 M193.324 91.000 L 193.379 105.800 193.590 92.000 C 193.705 84.410,193.680 77.750,193.534 77.200 C 193.388 76.650,193.294 82.860,193.324 91.000 M280.596 163.600 C 280.596 206.830,280.643 224.515,280.700 202.900 C 280.757 181.285,280.757 145.915,280.700 124.300 C 280.643 102.685,280.596 120.370,280.596 163.600 M193.301 109.000 C 193.305 109.880,193.387 110.193,193.483 109.695 C 193.579 109.198,193.575 108.478,193.475 108.095 C 193.375 107.713,193.296 108.120,193.301 109.000 M198.692 109.842 C 198.194 110.339,198.367 110.627,199.200 110.690 C 199.640 110.723,200.000 110.571,200.000 110.352 C 200.000 110.132,199.835 110.055,199.634 110.179 C 199.433 110.303,199.204 110.213,199.126 109.977 C 199.047 109.742,198.852 109.681,198.692 109.842 M196.949 111.317 C 196.796 111.583,196.814 111.672,196.987 111.515 C 197.161 111.359,198.090 111.875,199.051 112.663 C 200.013 113.452,200.803 113.940,200.806 113.748 C 200.809 113.557,200.987 113.670,201.200 114.000 C 201.545 114.533,201.592 114.533,201.622 114.000 C 201.645 113.596,201.768 113.661,202.000 114.200 C 202.223 114.719,202.349 114.790,202.358 114.400 C 202.365 114.070,202.101 113.350,201.769 112.800 C 201.280 111.988,201.208 111.957,201.389 112.633 C 201.536 113.182,201.423 113.467,201.061 113.467 C 200.759 113.467,200.531 113.182,200.556 112.833 C 200.584 112.425,200.208 112.155,199.500 112.073 C 198.895 112.004,198.400 111.798,198.400 111.616 C 198.400 111.049,197.240 110.810,196.949 111.317 M206.400 112.201 C 205.790 113.340,205.111 113.554,205.450 112.500 C 205.625 111.958,205.587 111.924,205.282 112.351 C 205.066 112.654,204.644 112.776,204.345 112.622 C 204.045 112.467,204.149 112.624,204.576 112.970 C 205.004 113.317,205.494 113.600,205.667 113.600 C 206.074 113.600,207.367 111.634,207.121 111.388 C 207.019 111.285,206.694 111.651,206.400 112.201 M209.500 112.682 C 209.995 112.778,210.805 112.778,211.300 112.682 C 211.795 112.587,211.390 112.509,210.400 112.509 C 209.410 112.509,209.005 112.587,209.500 112.682 M215.700 113.496 C 216.965 113.575,219.035 113.575,220.300 113.496 C 221.565 113.416,220.530 113.351,218.000 113.351 C 215.470 113.351,214.435 113.416,215.700 113.496 M206.600 114.000 C 206.881 114.454,208.816 114.454,210.600 114.000 C 211.524 113.765,211.174 113.684,209.076 113.647 C 207.351 113.617,206.443 113.747,206.600 114.000 M203.600 114.576 C 203.600 114.893,203.780 115.264,204.000 115.400 C 204.220 115.536,204.400 115.277,204.400 114.824 C 204.400 114.371,204.220 114.000,204.000 114.000 C 203.780 114.000,203.600 114.259,203.600 114.576 M206.349 115.300 C 206.714 115.765,207.385 115.979,208.349 115.936 L 209.800 115.872 208.402 115.703 C 207.632 115.611,206.732 115.324,206.402 115.067 C 205.878 114.660,205.871 114.690,206.349 115.300 M212.917 115.497 C 214.411 115.574,216.751 115.574,218.117 115.496 C 219.482 115.418,218.260 115.355,215.400 115.355 C 212.540 115.356,211.422 115.420,212.917 115.497 M214.100 117.096 C 215.365 117.175,217.435 117.175,218.700 117.096 C 219.965 117.016,218.930 116.951,216.400 116.951 C 213.870 116.951,212.835 117.016,214.100 117.096 M210.325 118.699 C 213.914 118.766,219.674 118.766,223.125 118.699 C 226.576 118.633,223.640 118.578,216.600 118.578 C 209.560 118.579,206.736 118.633,210.325 118.699 M232.006 183.100 C 232.010 219.532,232.154 240.820,232.400 241.200 C 232.651 241.589,232.790 221.358,232.794 183.700 C 232.798 145.229,232.665 125.600,232.400 125.600 C 232.135 125.600,232.002 145.029,232.006 183.100 M233.395 183.400 C 233.395 215.300,233.442 228.291,233.500 212.269 C 233.558 196.246,233.558 170.146,233.500 154.269 C 233.442 138.391,233.395 151.500,233.395 183.400 M227.324 246.200 C 227.326 247.520,227.401 248.012,227.490 247.293 C 227.579 246.574,227.577 245.494,227.486 244.893 C 227.395 244.292,227.322 244.880,227.324 246.200 M115.267 277.650 C 115.930 278.070,117.200 278.104,117.199 277.700 C 117.199 277.535,116.644 277.380,115.966 277.356 C 115.152 277.326,114.915 277.426,115.267 277.650 M111.762 278.062 C 111.593 278.335,111.651 278.416,111.904 278.259 C 112.139 278.114,112.404 278.212,112.492 278.477 C 112.594 278.782,112.749 278.709,112.914 278.280 C 113.213 277.500,112.225 277.313,111.762 278.062 M112.753 280.300 C 112.727 280.465,112.727 280.735,112.753 280.900 C 112.779 281.065,112.620 281.200,112.400 281.200 C 112.180 281.200,111.997 280.975,111.994 280.700 C 111.989 280.327,111.901 280.336,111.648 280.736 C 111.452 281.044,111.497 281.675,111.754 282.225 C 112.180 283.136,112.209 283.142,112.400 282.366 C 112.621 281.467,113.289 281.268,113.542 282.026 C 113.635 282.304,113.511 282.392,113.252 282.232 C 113.003 282.078,112.800 282.047,112.800 282.162 C 112.800 282.278,113.147 282.558,113.572 282.785 C 114.282 283.165,114.316 283.102,114.000 281.999 C 113.756 281.151,113.794 280.798,114.128 280.794 C 114.406 280.790,114.353 280.628,114.000 280.400 C 113.276 279.932,112.817 279.895,112.753 280.300 M114.800 282.247 C 114.800 282.467,115.064 282.996,115.387 283.424 C 115.710 283.851,115.975 284.020,115.975 283.800 C 115.975 283.580,115.710 283.051,115.387 282.624 C 115.064 282.196,114.800 282.027,114.800 282.247 M70.200 292.000 C 69.456 292.320,69.452 292.346,70.149 292.372 C 70.797 292.396,70.826 292.495,70.368 293.100 C 69.922 293.689,69.925 293.723,70.385 293.314 C 70.820 292.928,71.050 292.969,71.508 293.514 C 71.907 293.989,71.890 293.871,71.453 293.130 C 70.976 292.323,70.941 292.011,71.310 291.861 C 71.580 291.752,71.620 291.662,71.400 291.660 C 71.180 291.658,70.640 291.811,70.200 292.000 M66.769 294.500 C 66.753 294.775,66.680 295.303,66.609 295.672 C 66.517 296.147,66.667 296.272,67.119 296.099 C 67.471 295.964,67.563 295.788,67.322 295.707 C 67.082 295.627,66.977 295.210,67.089 294.781 C 67.201 294.351,67.182 294.000,67.047 294.000 C 66.911 294.000,66.786 294.225,66.769 294.500 M67.362 297.262 C 67.191 297.537,67.251 297.615,67.511 297.455 C 67.749 297.308,68.049 297.356,68.177 297.563 C 68.305 297.770,68.093 298.022,67.705 298.123 C 67.119 298.276,67.138 298.315,67.820 298.354 C 69.155 298.429,70.534 300.800,69.243 300.800 C 69.046 300.800,68.778 301.079,68.647 301.421 C 68.502 301.800,68.574 301.939,68.834 301.779 C 69.068 301.634,69.740 301.940,70.327 302.458 C 71.158 303.191,71.240 303.216,70.697 302.569 C 69.777 301.471,69.818 301.199,70.900 301.206 C 71.401 301.210,71.613 301.343,71.378 301.506 C 71.102 301.698,71.206 302.043,71.678 302.500 C 72.075 302.885,72.400 303.050,72.400 302.867 C 72.400 302.683,72.275 302.408,72.122 302.255 C 71.663 301.797,71.624 300.702,72.039 299.927 C 72.474 299.115,71.841 298.933,70.822 299.578 C 70.391 299.851,69.948 299.543,69.087 298.372 C 67.806 296.630,67.768 296.605,67.362 297.262 M70.168 297.865 C 70.222 298.231,70.688 298.595,71.204 298.673 L 72.142 298.817 71.210 298.008 C 70.082 297.031,70.045 297.025,70.168 297.865 M181.132 329.100 C 212.225 329.157,262.985 329.157,293.932 329.100 C 324.880 329.043,299.440 328.997,237.400 328.997 C 175.360 328.997,150.040 329.043,181.132 329.100 M179.668 333.100 C 211.275 333.156,263.115 333.156,294.868 333.100 C 326.620 333.043,300.760 332.997,237.400 332.997 C 174.040 332.997,148.060 333.043,179.668 333.100 M324.800 356.223 C 326.315 356.553,328.400 356.609,328.400 356.320 C 328.400 356.144,327.455 356.021,326.300 356.046 C 325.145 356.072,324.470 356.152,324.800 356.223 M47.300 358.676 C 47.685 358.776,48.315 358.776,48.700 358.676 C 49.085 358.575,48.770 358.493,48.000 358.493 C 47.230 358.493,46.915 358.575,47.300 358.676 M315.105 359.083 C 315.602 359.179,316.322 359.175,316.705 359.075 C 317.087 358.975,316.680 358.896,315.800 358.901 C 314.920 358.905,314.607 358.987,315.105 359.083 M332.870 381.467 C 332.831 382.384,332.696 383.464,332.570 383.867 C 332.353 384.556,332.367 384.557,332.793 383.895 C 333.042 383.507,333.177 382.427,333.093 381.495 L 332.940 379.800 332.870 381.467 M0.000 386.361 C 0.000 386.560,0.870 386.785,1.934 386.861 C 3.288 386.958,3.868 386.850,3.867 386.500 C 3.867 386.169,3.213 386.000,1.933 386.000 C 0.870 386.000,0.000 386.163,0.000 386.361 M334.109 389.200 C 334.109 390.190,334.187 390.595,334.282 390.100 C 334.378 389.605,334.378 388.795,334.282 388.300 C 334.187 387.805,334.109 388.210,334.109 389.200 M0.905 388.287 C 1.514 388.379,2.414 388.377,2.905 388.282 C 3.397 388.187,2.900 388.111,1.800 388.114 C 0.700 388.117,0.297 388.195,0.905 388.287 M0.905 389.887 C 1.514 389.979,2.414 389.977,2.905 389.882 C 3.397 389.787,2.900 389.711,1.800 389.714 C 0.700 389.717,0.297 389.795,0.905 389.887 M13.309 398.400 C 13.309 399.390,13.387 399.795,13.482 399.300 C 13.578 398.805,13.578 397.995,13.482 397.500 C 13.387 397.005,13.309 397.410,13.309 398.400 " stroke="none" fill="#78cccc" fill-rule="evenodd"></path><path id="path4" d="M84.920 2.000 C 84.920 3.210,84.995 3.705,85.087 3.100 C 85.178 2.495,85.178 1.505,85.087 0.900 C 84.995 0.295,84.920 0.790,84.920 2.000 M86.914 1.800 C 86.917 2.900,86.995 3.303,87.087 2.695 C 87.179 2.086,87.177 1.186,87.082 0.695 C 86.987 0.203,86.911 0.700,86.914 1.800 M389.714 1.800 C 389.717 2.900,389.795 3.303,389.887 2.695 C 389.979 2.086,389.977 1.186,389.882 0.695 C 389.787 0.203,389.711 0.700,389.714 1.800 M78.812 3.984 C 77.859 4.587,78.509 4.714,79.600 4.139 C 80.151 3.848,80.331 3.612,80.000 3.612 C 79.670 3.612,79.135 3.780,78.812 3.984 M78.093 6.400 C 78.093 7.170,78.175 7.485,78.276 7.100 C 78.376 6.715,78.376 6.085,78.276 5.700 C 78.175 5.315,78.093 5.630,78.093 6.400 M396.800 13.600 C 396.800 13.820,397.520 14.000,398.400 14.000 C 399.280 14.000,400.000 13.820,400.000 13.600 C 400.000 13.380,399.280 13.200,398.400 13.200 C 397.520 13.200,396.800 13.380,396.800 13.600 M71.309 15.600 C 71.309 16.590,71.387 16.995,71.482 16.500 C 71.578 16.005,71.578 15.195,71.482 14.700 C 71.387 14.205,71.309 14.610,71.309 15.600 M396.800 14.800 C 396.800 15.020,397.520 15.200,398.400 15.200 C 399.280 15.200,400.000 15.020,400.000 14.800 C 400.000 14.580,399.280 14.400,398.400 14.400 C 397.520 14.400,396.800 14.580,396.800 14.800 M397.500 16.282 C 397.995 16.378,398.805 16.378,399.300 16.282 C 399.795 16.187,399.390 16.109,398.400 16.109 C 397.410 16.109,397.005 16.187,397.500 16.282 M64.598 164.000 C 64.598 237.370,64.644 267.385,64.700 230.700 C 64.756 194.015,64.756 133.985,64.700 97.300 C 64.644 60.615,64.598 90.630,64.598 164.000 M65.500 37.065 C 65.775 37.176,66.005 37.747,66.012 38.333 C 66.023 39.274,66.074 39.314,66.446 38.676 C 66.993 37.735,66.618 36.791,65.713 36.832 C 65.294 36.850,65.206 36.946,65.500 37.065 M65.293 38.800 C 65.293 39.570,65.375 39.885,65.476 39.500 C 65.576 39.115,65.576 38.485,65.476 38.100 C 65.375 37.715,65.293 38.030,65.293 38.800 M356.093 45.200 C 356.093 45.970,356.175 46.285,356.276 45.900 C 356.376 45.515,356.376 44.885,356.276 44.500 C 356.175 44.115,356.093 44.430,356.093 45.200 M67.699 163.467 C 67.645 229.064,67.496 283.064,67.370 283.467 C 67.164 284.122,67.185 284.129,67.570 283.534 C 67.876 283.062,67.972 248.271,67.900 163.534 L 67.799 44.200 67.699 163.467 M118.597 163.800 C 118.597 226.720,118.643 252.400,118.700 220.868 C 118.756 189.335,118.756 137.855,118.700 106.468 C 118.643 75.080,118.597 100.880,118.597 163.800 M113.200 163.280 C 113.090 225.474,113.135 276.225,113.301 276.059 C 113.466 275.894,113.556 225.008,113.501 162.979 L 113.400 50.200 113.200 163.280 M115.385 50.900 C 115.281 51.175,115.241 101.710,115.298 163.200 L 115.400 275.000 115.600 162.700 C 115.710 100.935,115.749 50.400,115.687 50.400 C 115.626 50.400,115.489 50.625,115.385 50.900 M116.997 162.800 C 116.997 224.510,117.043 249.755,117.100 218.900 C 117.157 188.045,117.157 137.555,117.100 106.700 C 117.043 75.845,116.997 101.090,116.997 162.800 M358.997 162.800 C 358.997 224.510,359.043 249.755,359.100 218.900 C 359.157 188.045,359.157 137.555,359.100 106.700 C 359.043 75.845,358.997 101.090,358.997 162.800 M6.000 64.688 C 21.809 64.967,35.107 64.973,34.939 64.700 C 34.836 64.535,26.888 64.440,17.276 64.489 C 7.664 64.538,2.590 64.627,6.000 64.688 M214.600 64.694 C 247.034 64.969,271.506 64.972,271.338 64.700 C 271.236 64.535,255.638 64.442,236.676 64.494 C 217.714 64.546,207.780 64.636,214.600 64.694 M205.600 66.175 C 206.154 66.891,206.139 66.927,205.400 66.651 C 204.758 66.412,204.699 66.452,205.100 66.856 C 205.447 67.206,205.728 67.232,206.017 66.943 C 206.306 66.654,206.214 66.354,205.717 65.963 C 205.050 65.439,205.042 65.454,205.600 66.175 M223.929 67.900 C 231.480 67.961,243.720 67.961,251.129 67.900 C 258.538 67.839,252.360 67.789,237.400 67.789 C 222.440 67.789,216.378 67.839,223.929 67.900 M271.632 68.038 C 271.614 68.389,272.005 69.019,272.500 69.438 C 273.392 70.194,273.394 70.193,272.752 69.400 C 272.396 68.960,272.005 68.330,271.884 68.000 C 271.697 67.491,271.658 67.496,271.632 68.038 M193.301 73.000 C 193.305 73.880,193.387 74.193,193.483 73.695 C 193.579 73.198,193.575 72.478,193.475 72.095 C 193.375 71.713,193.296 72.120,193.301 73.000 M193.324 91.000 L 193.379 105.800 193.590 92.000 C 193.705 84.410,193.680 77.750,193.534 77.200 C 193.388 76.650,193.294 82.860,193.324 91.000 M280.596 163.600 C 280.596 206.830,280.643 224.515,280.700 202.900 C 280.757 181.285,280.757 145.915,280.700 124.300 C 280.643 102.685,280.596 120.370,280.596 163.600 M193.301 109.000 C 193.305 109.880,193.387 110.193,193.483 109.695 C 193.579 109.198,193.575 108.478,193.475 108.095 C 193.375 107.713,193.296 108.120,193.301 109.000 M198.692 109.842 C 198.194 110.339,198.367 110.627,199.200 110.690 C 199.640 110.723,200.000 110.571,200.000 110.352 C 200.000 110.132,199.835 110.055,199.634 110.179 C 199.433 110.303,199.204 110.213,199.126 109.977 C 199.047 109.742,198.852 109.681,198.692 109.842 M196.949 111.317 C 196.796 111.583,196.814 111.672,196.987 111.515 C 197.161 111.359,198.090 111.875,199.051 112.663 C 200.013 113.452,200.803 113.940,200.806 113.748 C 200.809 113.557,200.987 113.670,201.200 114.000 C 201.545 114.533,201.592 114.533,201.622 114.000 C 201.645 113.596,201.768 113.661,202.000 114.200 C 202.223 114.719,202.349 114.790,202.358 114.400 C 202.365 114.070,202.101 113.350,201.769 112.800 C 201.280 111.988,201.208 111.957,201.389 112.633 C 201.536 113.182,201.423 113.467,201.061 113.467 C 200.759 113.467,200.531 113.182,200.556 112.833 C 200.584 112.425,200.208 112.155,199.500 112.073 C 198.895 112.004,198.400 111.798,198.400 111.616 C 198.400 111.049,197.240 110.810,196.949 111.317 M206.400 112.201 C 205.790 113.340,205.111 113.554,205.450 112.500 C 205.625 111.958,205.587 111.924,205.282 112.351 C 205.066 112.654,204.644 112.776,204.345 112.622 C 204.045 112.467,204.149 112.624,204.576 112.970 C 205.004 113.317,205.494 113.600,205.667 113.600 C 206.074 113.600,207.367 111.634,207.121 111.388 C 207.019 111.285,206.694 111.651,206.400 112.201 M209.500 112.682 C 209.995 112.778,210.805 112.778,211.300 112.682 C 211.795 112.587,211.390 112.509,210.400 112.509 C 209.410 112.509,209.005 112.587,209.500 112.682 M215.700 113.496 C 216.965 113.575,219.035 113.575,220.300 113.496 C 221.565 113.416,220.530 113.351,218.000 113.351 C 215.470 113.351,214.435 113.416,215.700 113.496 M206.600 114.000 C 206.881 114.454,208.816 114.454,210.600 114.000 C 211.524 113.765,211.174 113.684,209.076 113.647 C 207.351 113.617,206.443 113.747,206.600 114.000 M203.600 114.576 C 203.600 114.893,203.780 115.264,204.000 115.400 C 204.220 115.536,204.400 115.277,204.400 114.824 C 204.400 114.371,204.220 114.000,204.000 114.000 C 203.780 114.000,203.600 114.259,203.600 114.576 M206.349 115.300 C 206.714 115.765,207.385 115.979,208.349 115.936 L 209.800 115.872 208.402 115.703 C 207.632 115.611,206.732 115.324,206.402 115.067 C 205.878 114.660,205.871 114.690,206.349 115.300 M212.917 115.497 C 214.411 115.574,216.751 115.574,218.117 115.496 C 219.482 115.418,218.260 115.355,215.400 115.355 C 212.540 115.356,211.422 115.420,212.917 115.497 M214.100 117.096 C 215.365 117.175,217.435 117.175,218.700 117.096 C 219.965 117.016,218.930 116.951,216.400 116.951 C 213.870 116.951,212.835 117.016,214.100 117.096 M210.325 118.699 C 213.914 118.766,219.674 118.766,223.125 118.699 C 226.576 118.633,223.640 118.578,216.600 118.578 C 209.560 118.579,206.736 118.633,210.325 118.699 M232.006 183.100 C 232.010 219.532,232.154 240.820,232.400 241.200 C 232.651 241.589,232.790 221.358,232.794 183.700 C 232.798 145.229,232.665 125.600,232.400 125.600 C 232.135 125.600,232.002 145.029,232.006 183.100 M233.395 183.400 C 233.395 215.300,233.442 228.291,233.500 212.269 C 233.558 196.246,233.558 170.146,233.500 154.269 C 233.442 138.391,233.395 151.500,233.395 183.400 M227.324 246.200 C 227.326 247.520,227.401 248.012,227.490 247.293 C 227.579 246.574,227.577 245.494,227.486 244.893 C 227.395 244.292,227.322 244.880,227.324 246.200 M115.267 277.650 C 115.930 278.070,117.200 278.104,117.199 277.700 C 117.199 277.535,116.644 277.380,115.966 277.356 C 115.152 277.326,114.915 277.426,115.267 277.650 M111.762 278.062 C 111.593 278.335,111.651 278.416,111.904 278.259 C 112.139 278.114,112.404 278.212,112.492 278.477 C 112.594 278.782,112.749 278.709,112.914 278.280 C 113.213 277.500,112.225 277.313,111.762 278.062 M112.753 280.300 C 112.727 280.465,112.727 280.735,112.753 280.900 C 112.779 281.065,112.620 281.200,112.400 281.200 C 112.180 281.200,111.997 280.975,111.994 280.700 C 111.989 280.327,111.901 280.336,111.648 280.736 C 111.452 281.044,111.497 281.675,111.754 282.225 C 112.180 283.136,112.209 283.142,112.400 282.366 C 112.621 281.467,113.289 281.268,113.542 282.026 C 113.635 282.304,113.511 282.392,113.252 282.232 C 113.003 282.078,112.800 282.047,112.800 282.162 C 112.800 282.278,113.147 282.558,113.572 282.785 C 114.282 283.165,114.316 283.102,114.000 281.999 C 113.756 281.151,113.794 280.798,114.128 280.794 C 114.406 280.790,114.353 280.628,114.000 280.400 C 113.276 279.932,112.817 279.895,112.753 280.300 M114.800 282.247 C 114.800 282.467,115.064 282.996,115.387 283.424 C 115.710 283.851,115.975 284.020,115.975 283.800 C 115.975 283.580,115.710 283.051,115.387 282.624 C 115.064 282.196,114.800 282.027,114.800 282.247 M70.200 292.000 C 69.456 292.320,69.452 292.346,70.149 292.372 C 70.797 292.396,70.826 292.495,70.368 293.100 C 69.922 293.689,69.925 293.723,70.385 293.314 C 70.820 292.928,71.050 292.969,71.508 293.514 C 71.907 293.989,71.890 293.871,71.453 293.130 C 70.976 292.323,70.941 292.011,71.310 291.861 C 71.580 291.752,71.620 291.662,71.400 291.660 C 71.180 291.658,70.640 291.811,70.200 292.000 M66.769 294.500 C 66.753 294.775,66.680 295.303,66.609 295.672 C 66.517 296.147,66.667 296.272,67.119 296.099 C 67.471 295.964,67.563 295.788,67.322 295.707 C 67.082 295.627,66.977 295.210,67.089 294.781 C 67.201 294.351,67.182 294.000,67.047 294.000 C 66.911 294.000,66.786 294.225,66.769 294.500 M67.362 297.262 C 67.191 297.537,67.251 297.615,67.511 297.455 C 67.749 297.308,68.049 297.356,68.177 297.563 C 68.305 297.770,68.093 298.022,67.705 298.123 C 67.119 298.276,67.138 298.315,67.820 298.354 C 69.155 298.429,70.534 300.800,69.243 300.800 C 69.046 300.800,68.778 301.079,68.647 301.421 C 68.502 301.800,68.574 301.939,68.834 301.779 C 69.068 301.634,69.740 301.940,70.327 302.458 C 71.158 303.191,71.240 303.216,70.697 302.569 C 69.777 301.471,69.818 301.199,70.900 301.206 C 71.401 301.210,71.613 301.343,71.378 301.506 C 71.102 301.698,71.206 302.043,71.678 302.500 C 72.075 302.885,72.400 303.050,72.400 302.867 C 72.400 302.683,72.275 302.408,72.122 302.255 C 71.663 301.797,71.624 300.702,72.039 299.927 C 72.474 299.115,71.841 298.933,70.822 299.578 C 70.391 299.851,69.948 299.543,69.087 298.372 C 67.806 296.630,67.768 296.605,67.362 297.262 M70.168 297.865 C 70.222 298.231,70.688 298.595,71.204 298.673 L 72.142 298.817 71.210 298.008 C 70.082 297.031,70.045 297.025,70.168 297.865 M181.132 329.100 C 212.225 329.157,262.985 329.157,293.932 329.100 C 324.880 329.043,299.440 328.997,237.400 328.997 C 175.360 328.997,150.040 329.043,181.132 329.100 M179.668 333.100 C 211.275 333.156,263.115 333.156,294.868 333.100 C 326.620 333.043,300.760 332.997,237.400 332.997 C 174.040 332.997,148.060 333.043,179.668 333.100 M324.800 356.223 C 326.315 356.553,328.400 356.609,328.400 356.320 C 328.400 356.144,327.455 356.021,326.300 356.046 C 325.145 356.072,324.470 356.152,324.800 356.223 M47.300 358.676 C 47.685 358.776,48.315 358.776,48.700 358.676 C 49.085 358.575,48.770 358.493,48.000 358.493 C 47.230 358.493,46.915 358.575,47.300 358.676 M315.105 359.083 C 315.602 359.179,316.322 359.175,316.705 359.075 C 317.087 358.975,316.680 358.896,315.800 358.901 C 314.920 358.905,314.607 358.987,315.105 359.083 M332.870 381.467 C 332.831 382.384,332.696 383.464,332.570 383.867 C 332.353 384.556,332.367 384.557,332.793 383.895 C 333.042 383.507,333.177 382.427,333.093 381.495 L 332.940 379.800 332.870 381.467 M0.000 386.361 C 0.000 386.560,0.870 386.785,1.934 386.861 C 3.288 386.958,3.868 386.850,3.867 386.500 C 3.867 386.169,3.213 386.000,1.933 386.000 C 0.870 386.000,0.000 386.163,0.000 386.361 M334.109 389.200 C 334.109 390.190,334.187 390.595,334.282 390.100 C 334.378 389.605,334.378 388.795,334.282 388.300 C 334.187 387.805,334.109 388.210,334.109 389.200 M0.905 388.287 C 1.514 388.379,2.414 388.377,2.905 388.282 C 3.397 388.187,2.900 388.111,1.800 388.114 C 0.700 388.117,0.297 388.195,0.905 388.287 M0.905 389.887 C 1.514 389.979,2.414 389.977,2.905 389.882 C 3.397 389.787,2.900 389.711,1.800 389.714 C 0.700 389.717,0.297 389.795,0.905 389.887 M13.309 398.400 C 13.309 399.390,13.387 399.795,13.482 399.300 C 13.578 398.805,13.578 397.995,13.482 397.500 C 13.387 397.005,13.309 397.410,13.309 398.400 " stroke="none" fill="red" ></path></g></svg>