<svg xmlns="http://www.w3.org/2000/svg" width="67" height="67" fill="none" xmlns:v="https://vecta.io/nano"><path d="M2.094 17.797L33.5 33.5l31.406-15.703v33.5L33.5 67 2.094 51.297v-33.5z" fill="#db5449"/><path d="M2.094 20.938v9.788l31.3 15.337 31.51-15.39v-9.736L33.5 36.327 2.094 20.938z" fill="#c54b42"/><path d="M33.5 67V33.5L4.188 18.844H2.094v32.453L33.5 67z" fill="#d05045"/><path d="M2.094 20.938v9.788l31.3 15.337L33.5 46v-9.684L2.094 20.938z" fill="#bb483e"/><path d="M0 16.7L33.5.003 67 16.7V18.9L33.5 35.597 0 18.95V16.7z" fill="#eb6258"/><path d="M52.71 5.287c-1.1-1.99-3.455-3.193-6.23-3.193-6.334 0-10.783 5.915-12.98 9.684-2.198-3.77-6.7-9.63-12.98-9.63-4.03 0-6.91 2.46-6.91 5.8 0 5.967 6.543 9.84 19.68 9.84s20.1-4.973 20.1-9.788c0-.942-.21-1.884-.68-2.722zm-30.83 6.438c-1.466-.995-1.99-2.094-1.99-2.827 0-.9.837-1.57 2.04-1.57 2.827 0 5.077 3.716 6.334 6.28-3.298-.262-5.234-1.152-6.386-1.884zm23.24 0c-1.152.733-3.088 1.623-6.386 1.884 1.204-2.565 3.455-6.28 6.334-6.28 1.204 0 2.04.68 2.04 1.57 0 .733-.523 1.832-1.99 2.827z" fill="#efefef"/><path d="M0 16.75l33.5 16.384L67 16.75v10.835L33.395 43.97 0 27.585V16.75z" fill="#e2574c"/><path d="M46.064 28.422v-1.204l-12.562-6.805-12.562 6.805v1.204l-8.375-3.664v-1.675l20.52-10.835.42.21.42-.21L54.44 23.03v1.675l-8.375 3.716z" fill="#efefef"/><path d="M46.06 27.22v33.448l8.375-4.187V23.03L46.06 27.22z" fill="#dcdcdc"/><path d="M12.56 56.53l8.375 4.188V27.27l-8.375-4.24c0 0 0 33.5 0 33.5z" fill="#d1d1d1"/></svg>