<svg xmlns="http://www.w3.org/2000/svg" width="60" height="50" fill="none" xmlns:v="https://vecta.io/nano"><path d="M26.9 33.11h-4.12l2.575-15.826h4.12L26.9 33.11zm-7.587-15.826l-3.928 10.885-.465-2.344v.001l-1.386-7.117s-.168-1.425-1.955-1.425H5.076L5 17.55s1.986.413 4.3 1.81l3.58 13.75h4.293l6.555-15.826h-4.434zM51.712 33.11h3.783l-3.3-15.826h-3.312c-1.53 0-1.902 1.18-1.902 1.18L40.837 33.11h4.295l.86-2.35h5.238l.483 2.35zm-4.534-5.598l2.165-5.922 1.218 5.922h-3.383zm-6.02-6.422l.588-3.4s-1.814-.7-3.706-.7c-2.045 0-6.9.894-6.9 5.24 0 4.09 5.7 4.14 5.7 6.287s-5.112 1.763-6.8.41l-.613 3.554s1.84.894 4.65.894 7.054-1.456 7.054-5.418c0-4.115-5.75-4.498-5.75-6.287s4.013-1.56 5.776-.588z" fill="#2566af"/><path d="M14.91 25.825l-1.386-7.117s-.168-1.425-1.955-1.425H5.076L5 17.55s3.12.647 6.115 3.07c2.863 2.317 3.796 5.204 3.796 5.204z" fill="#e6a540"/></svg>