<svg xmlns="http://www.w3.org/2000/svg" width="76" height="23" fill="none" xmlns:v="https://vecta.io/nano"><g clip-path="url(#B)" fill-rule="evenodd"><path d="M67.468 0H53.043c.776 5.093 5.43 9.857 10.547 9.857h11.478c.155-.493.155-1.15.155-1.643C75.223 3.614 71.8 0 67.468 0z" fill="url(#A)"/><g fill="#4db45f"><path d="M54.285 10.68V23h6.98v-6.57h6.204c3.412 0 6.36-2.464 7.3-5.75H54.285zM29.47 0v23h6.204s1.55 0 2.327-1.643l5.43-11.5h.776V23h6.98V0H44.98s-1.55.164-2.327 1.643l-5.428 11.5h-.776V0h-6.98zM0 23V0h6.98s2.016 0 3.102 3.286l3.102 9.857s.62-2.136 3.102-9.857C17.37 0 19.388 0 19.388 0h6.98v23h-6.98V10.68h-.776L14.735 23h-3.102L7.755 10.68H6.98V23H0z"/></g></g><defs><linearGradient id="A" x1="53.003" y1="4.929" x2="75.223" y2="4.929" gradientUnits="userSpaceOnUse"><stop stop-color="#00b4e6"/><stop offset="1" stop-color="#088ccb"/></linearGradient><clipPath id="B"><path fill="#fff" d="M0 0h76v23H0z"/></clipPath></defs></svg>