<svg xmlns="http://www.w3.org/2000/svg" width="60" height="50" fill="none" fill-rule="evenodd" xmlns:v="https://vecta.io/nano"><path d="M29.498 36.76c1.583-1.445 2.848-3.204 3.71-5.166a15.38 15.38 0 0 0 1.304-6.226 15.38 15.38 0 0 0-5.015-11.392C26.8 11.506 23.198 10 19.256 10 10.83 10 4 16.88 4 25.37s6.83 15.37 15.256 15.37c3.942 0 7.534-1.506 10.24-3.978z" fill="#3a9bd9"/><path d="M39.745 10a15.13 15.13 0 0 0-10.24 3.978c-.552.505-1.067 1.048-1.54 1.627h3.08a15.43 15.43 0 0 1 1.164 1.628H26.8a15.44 15.44 0 0 0-.88 1.628h7.164a15.33 15.33 0 0 1 .647 1.627h-8.458c-.177.534-.325 1.077-.443 1.627h9.344a15.41 15.41 0 0 1 .343 3.255 15.48 15.48 0 0 1-.786 4.882h-8.458a15.31 15.31 0 0 0 .646 1.628h7.164a15.4 15.4 0 0 1-.878 1.627H26.8a15.37 15.37 0 0 0 1.163 1.627h3.08c-.473.58-.987 1.123-1.54 1.628 2.707 2.472 6.3 3.978 10.24 3.978C48.168 40.74 55 33.86 55 25.37S48.17 10 39.745 10zM52.97 33.937c0-.274.22-.497.493-.497s.493.223.493.497-.22.496-.493.496a.5.5 0 0 1-.35-.146c-.093-.093-.144-.22-.144-.35zm.493.377c.207 0 .374-.168.374-.377s-.168-.377-.374-.377-.375.17-.375.377.168.377.375.377zm-.066-.16h-.1v-.437h.183c.038 0 .077.001.1.022a.13.13 0 0 1 .041.048c.01.02.014.04.014.06 0 .05-.03.095-.075.113l.08.192h-.112l-.066-.172h-.074v.173-.247h.056c.02 0 .043.001.06-.01.008-.006.015-.013.02-.022s.007-.02.007-.028-.003-.017-.007-.025-.01-.014-.018-.02c-.017-.01-.046-.008-.065-.008h-.053v.358h-.001z" fill="#cc2131"/><path d="M49.743 28.7c0-.274.22-.497.492-.497s.492.223.492.497-.22.496-.492.496-.492-.222-.492-.496zm.492.377c.207 0 .374-.17.374-.377s-.168-.378-.374-.378-.374.17-.374.378.167.377.374.377zm-.067-.16h-.1v-.436h.183c.038 0 .077.001.1.022a.13.13 0 0 1 .055.108c0 .05-.028.095-.075.113l.08.192h-.112l-.066-.172h-.074v.173-.247h.056c.02 0 .044.002.06-.008.008-.006.015-.013.02-.022s.007-.018.007-.028-.003-.018-.007-.025-.01-.014-.018-.02c-.017-.01-.046-.008-.064-.008h-.054v.358h-.001zm-32.813.28h-1.9l1.128-6-2.598 6h-1.73l-.316-5.956-1.132 5.956H9.084l1.473-7.792h2.963l.157 4.824 2.09-4.824h3.087l-1.497 7.792zm21.22-.078c-.52.144-.926.206-1.364.206-.97 0-1.502-.49-1.502-1.392 0-.178.02-.368.056-.57l.116-.62.09-.502.88-4.84h1.888l-.274 1.455h.97l-.26 1.54H38.2l-.5 2.644c-.02.086-.03.174-.033.262 0 .327.197.47.648.47a1.78 1.78 0 0 0 .512-.059l-.252 1.402zm5.546-6.207c-.16-.063-.197-.063-.215-.068l-.163-.037c-.063-.01-.127-.016-.19-.016-.623 0-1.073.28-1.654 1.03l.168-.96h-1.72l-1.157 6.337h1.9c.68-3.876.97-4.554 1.882-4.554a2.13 2.13 0 0 1 .24.016l.222.046.688-1.792zm-13.073 1.95c0 .8.448 1.352 1.463 1.766.778.318.898.412.898.7 0 .395-.343.572-1.102.572a6.13 6.13 0 0 1-1.722-.251l-.264 1.462.085.014.352.065a5.71 5.71 0 0 0 .502.055l1.06.053c2.027 0 2.963-.67 2.963-2.115 0-.87-.39-1.38-1.354-1.764-.805-.32-.9-.392-.9-.688 0-.34.32-.517.94-.517.377 0 .892.036 1.38.095l.274-1.467c-.497-.068-1.252-.124-1.7-.124-2.15 0-2.893.974-2.886 2.143zm-7.52 4.335H21.95l.037-.657c-.48.52-1.12.766-1.992.766-1.03 0-1.735-.706-1.735-1.73 0-1.544 1.227-2.444 3.335-2.444.216 0 .49.017.774.05.06-.208.075-.298.075-.412 0-.42-.33-.577-1.218-.577-.542 0-1.155.07-1.578.177l-.263.067-.17.04.263-1.425c.947-.244 1.57-.337 2.273-.337 1.632 0 2.494.644 2.494 1.86 0 .313-.03.55-.154 1.256l-.397 2.248-.067.403-.05.322-.032.22-.02.172zm-1.385-2.823a3.42 3.42 0 0 0-.424-.026c-1.076 0-1.62.324-1.62.964 0 .394.266.646.68.646.774 0 1.332-.647 1.364-1.584zm7.614 2.686c-.634.172-1.288.26-1.946.257-2.123-.002-3.23-.975-3.23-2.84 0-2.175 1.408-3.777 3.318-3.777 1.563 0 2.56.897 2.56 2.303 0 .467-.068.922-.233 1.565h-3.775c-.012.066-.018.132-.018.2 0 .735.563 1.11 1.666 1.11a5.03 5.03 0 0 0 1.972-.401l-.316 1.584zm-1.01-3.77l.016-.323c0-.515-.333-.817-.898-.817-.604 0-1.036.405-1.21 1.136l2.094.004zm21.278 1.034c-.284 2.108-1.746 3.043-3.688 3.043-2.148 0-3.016-1.313-3.016-2.92 0-2.246 1.47-3.768 3.74-3.768 1.97 0 3.016 1.25 3.016 2.86 0 .392-.001.417-.05.786zm-1.956-.81c0-.663-.267-1.29-1.045-1.29-.97 0-1.57 1.154-1.57 2.172 0 .86.412 1.436 1.1 1.424.412 0 1.29-.565 1.463-1.55a4.36 4.36 0 0 0 .062-.757z" fill="#fff"/></svg>