<svg xmlns="http://www.w3.org/2000/svg" xmlns:xlink="http://www.w3.org/1999/xlink" width="360" height="304" fill="none" xmlns:v="https://vecta.io/nano"><style><![CDATA[.B{fill:#000}.C{fill:#007550}.D{fill:#ff513f}]]></style><g fill="#ffc856"><path d="M0 0h360v304H0z"/><path d="M0 0L160 96L360 0V304L102.5 154.5L0 304L262.5 112L360 0H0Z" style="mix-blend-mode:screen" opacity=".3"/></g><g fill="#16110d"><use xlink:href="#B"/><path d="M221.485 126.686c.384.2.384.575 0 .766s-.96.192-1.344 0-.383-.575 0-.766c.384-.288.96-.288 1.344 0zm3.455-2.013c.384.192.384.575 0 .767a1.65 1.65 0 0 1-1.343 0c-.384-.192-.384-.575 0-.767a1.65 1.65 0 0 1 1.343 0z"/><use xlink:href="#C"/><use xlink:href="#D"/><use xlink:href="#E"/><use xlink:href="#F"/><path d="M242.22 114.707c.384.192.384.575 0 .767a1.65 1.65 0 0 1-1.344 0c-.384-.192-.384-.575 0-.767.48-.192 1.056-.192 1.344 0z"/><use xlink:href="#B" x="27.742" y="-15.908"/><use xlink:href="#G"/><use xlink:href="#H"/><use xlink:href="#I"/><use xlink:href="#B" x="41.564" y="-23.862"/><use xlink:href="#B" x="45.02" y="-25.874"/><use xlink:href="#B" x="-6.913"/><use xlink:href="#H" x="-38.11" y="17.93"/><use xlink:href="#I" x="-38.11" y="17.92"/><path d="M221.485 122.66c.384.19.384.575 0 .766s-.96.192-1.344 0-.383-.575 0-.766.96-.192 1.344 0z"/><use xlink:href="#J"/><use xlink:href="#K"/><use xlink:href="#H" x="-20.83" y="7.954"/><use xlink:href="#L"/><use xlink:href="#B" x="20.734" y="-15.908"/><use xlink:href="#G" x="-7.007"/><use xlink:href="#H" x="-7.008"/><use xlink:href="#G" x="-0.097" y="-4.025"/><use xlink:href="#M"/><use xlink:href="#D" x="24.189" y="-17.92"/><path d="M259.498 100.716c.384.192.384.575 0 .766s-.96.192-1.344 0-.384-.574 0-.766 1.056-.192 1.344 0z"/><use xlink:href="#H" x="-45.021" y="17.93"/><use xlink:href="#I" x="-45.023" y="17.92"/><use xlink:href="#H" x="-38.11" y="13.99"/><use xlink:href="#B" y="-7.954"/><path d="M221.485 118.636c.384.19.384.575 0 .766s-.96.192-1.344 0-.383-.575 0-.766.96-.192 1.344 0z"/><use xlink:href="#K" x="-3.456" y="-2.012"/><path d="M228.396 114.707c.384.192.384.575 0 .767a1.65 1.65 0 0 1-1.343 0c-.384-.192-.384-.575 0-.767.384-.288.96-.288 1.343 0z"/><use xlink:href="#B" x="13.823" y="-15.908"/><use xlink:href="#G" x="-13.919"/><use xlink:href="#H" x="-13.919"/><use xlink:href="#G" x="-7.007" y="-4.025"/><use xlink:href="#M" x="-6.911"/><use xlink:href="#B" x="31.1" y="-25.874"/><use xlink:href="#N"/><use xlink:href="#O"/><path d="M231.852 108.67c.384.2.384.575 0 .766s-.96.192-1.344 0 .96-.958 1.344-.766zm3.456-2.013c.384.192.384.575 0 .767a1.65 1.65 0 0 1-1.344 0c-.384-.192.96-.96 1.344-.767z"/><use xlink:href="#N" x="13.919"/><use xlink:href="#P"/><use xlink:href="#P" x="3.457" y="-2.013"/><use xlink:href="#Q"/><use xlink:href="#P" x="10.368" y="-5.941"/><use xlink:href="#P" x="13.824" y="-7.953"/><use xlink:href="#O" x="6.911"/><use xlink:href="#O" x="10.368" y="-2.013"/><use xlink:href="#R"/><use xlink:href="#S"/><use xlink:href="#P" x="6.912" y="-7.953"/><use xlink:href="#P" x="10.368" y="-9.966"/><use xlink:href="#P" x="13.824" y="-11.978"/><use xlink:href="#O" x="3.456" y="-2.013"/><use xlink:href="#O" x="6.911" y="-4.023"/><path d="M266.41 92.762c.384.192.384.575 0 .767s-.96.192-1.344 0-.384-.575 0-.767c.384-.288 1.056-.288 1.344 0z"/><use xlink:href="#R" y="-3.93"/><use xlink:href="#T"/><path d="M276.873 86.725c.384.192.384.575 0 .767s-.96.192-1.344 0 .96-.958 1.344-.767z"/><use xlink:href="#M" x="-146.58" y="3.45"/><use xlink:href="#G" x="-139.765" y="-4.504"/><use xlink:href="#H" x="-139.765" y="-4.504"/><use xlink:href="#B" x="-101.656" y="-26.449"/><use xlink:href="#Q" x="-150.132" y="1.437"/><use xlink:href="#G" x="-129.397" y="-10.542"/><use xlink:href="#P" x="-146.675" y="-0.575"/><use xlink:href="#G" x="-146.677" y="-4.504"/><use xlink:href="#H" x="-146.677" y="-4.504"/><use xlink:href="#B" x="-108.568" y="-26.449"/><use xlink:href="#G" x="-136.309" y="-10.542"/><use xlink:href="#P" x="-153.586" y="-0.575"/><use xlink:href="#Q" x="-157.042" y="1.437"/><path d="M99.095 104.166c.384.19.384.575 0 .766a1.64 1.64 0 0 1-1.344 0c-.384-.19-.384-.575 0-.766a1.64 1.64 0 0 1 1.344 0z"/><use xlink:href="#B" x="-115.48" y="-26.449"/><use xlink:href="#G" x="-143.221" y="-10.542"/><use xlink:href="#P" x="-160.498" y="-0.575"/><use xlink:href="#Q" x="-163.954" y="1.437"/><path d="M95.64 102.153c.384.192.384.575 0 .767a1.64 1.64 0 0 1-1.344 0c-.384-.192-.384-.575 0-.767a1.65 1.65 0 0 1 1.344 0z"/><use xlink:href="#G" x="-150.132" y="-10.542"/><use xlink:href="#P" x="-167.41" y="-0.575"/><use xlink:href="#Q" x="-170.866" y="1.437"/><use xlink:href="#U"/><use xlink:href="#P" x="-174.32" y="-0.575"/><use xlink:href="#Q" x="-177.777" y="1.437"/><use xlink:href="#P" x="-181.328" y="-0.575"/><use xlink:href="#P" x="-177.873" y="-2.587"/><path d="M95.543 94.2c.384.192.384.575 0 .767s-.96.192-1.344 0-.384-.575 0-.767c.384-.288.96-.288 1.344 0 .384.192-.384-.288 0 0z"/><use xlink:href="#S" x="-184.785" y="1.438"/><use xlink:href="#P" x="-177.873" y="-6.516"/><use xlink:href="#D" x="-67.003" y="17.345"/><use xlink:href="#U" x="76.219" y="35.84"/><use xlink:href="#D" x="-60.093" y="13.32"/><path d="M175.217 132.052c.384.192.384.575 0 .767a1.65 1.65 0 0 1-1.344 0c-.384-.192-.384-.575 0-.767.48-.287 1.056-.287 1.344 0z"/><use xlink:href="#H" x="-73.913" y="21.37"/><use xlink:href="#B" x="-35.805" y="-0.575"/><use xlink:href="#H" x="-67.003" y="17.345"/><use xlink:href="#B" x="-28.894" y="-4.6"/><use xlink:href="#V"/><use xlink:href="#W"/><use xlink:href="#G" x="-49.724" y="7.378"/><use xlink:href="#X"/><use xlink:href="#U" x="69.307" y="35.84"/><use xlink:href="#D" x="-67.003" y="13.32"/><use xlink:href="#Y"/><use xlink:href="#E" x="-63.548" y="11.404"/><use xlink:href="#Z"/><use xlink:href="#H" x="-73.913" y="17.345"/><use xlink:href="#B" x="-35.805" y="-4.6"/><use xlink:href="#V" x="-6.912"/><use xlink:href="#W" x="-6.911"/><use xlink:href="#G" x="-56.635" y="7.378"/><use xlink:href="#H" x="-56.636" y="7.38"/><use xlink:href="#a"/><use xlink:href="#E" x="-70.458" y="11.404"/><use xlink:href="#D" x="-63.547" y="7.379"/><use xlink:href="#E" x="-63.548" y="7.379"/><use xlink:href="#X" y="-4.025"/><use xlink:href="#Y" x="-6.912"/><use xlink:href="#Z" y="-4.025"/><use xlink:href="#V" x="-13.822"/><use xlink:href="#W" x="-13.822"/><use xlink:href="#G" x="-63.547" y="7.378"/><use xlink:href="#H" x="-63.547" y="7.38"/><use xlink:href="#G" x="-56.635" y="3.354"/><use xlink:href="#J" x="-73.914" y="13.32"/><path d="M154.482 132.052c.384.192.384.575 0 .767a1.65 1.65 0 0 1-1.343 0c-.384-.192-.384-.575 0-.767.384-.287.96-.287 1.343 0z"/><use xlink:href="#E" x="-70.458" y="7.379"/><use xlink:href="#D" x="-63.547" y="3.354"/><path d="M171.76 122.086c.384.192.384.575 0 .766s-.96.192-1.344 0-.384-.574 0-.766c.384-.288 1.056-.288 1.344 0z"/><use xlink:href="#b"/><use xlink:href="#D" x="-70.459" y="7.379"/><path d="M175.217 120.073c.384.192.384.575 0 .767a1.65 1.65 0 0 1-1.344 0c-.384-.192-.384-.575 0-.767.48-.19 1.056-.19 1.344 0z"/><use xlink:href="#G" x="-70.457" y="7.378"/><use xlink:href="#H" x="-70.458" y="7.38"/><use xlink:href="#G" x="-63.547" y="3.354"/><use xlink:href="#c"/><use xlink:href="#B" x="-70.46" y="3.354"/><path d="M151.026 130.04c.384.19.384.575 0 .766a1.64 1.64 0 0 1-1.343 0c-.384-.19-.384-.575 0-.766.383-.288.96-.288 1.343 0z"/><use xlink:href="#B" x="-56.636" y="-4.6"/><use xlink:href="#N" x="-87.736" y="21.284"/><use xlink:href="#c" x="-20.83" y="7.953"/><use xlink:href="#G" x="-77.467" y="7.378"/><use xlink:href="#H" x="-77.466" y="7.38"/><use xlink:href="#J" x="-70.458" y="7.379"/><use xlink:href="#b" y="-4.025"/><use xlink:href="#G" x="-70.554" y="3.354"/><use xlink:href="#H" x="-70.555" y="3.354"/><use xlink:href="#F" x="-53.18" y="-6.613"/><use xlink:href="#M" x="-108.471" y="25.3"/><use xlink:href="#B" x="-70.46" y="-0.575"/><use xlink:href="#K" x="-77.37" y="7.379"/><use xlink:href="#c" x="-27.742" y="7.953"/><use xlink:href="#G" x="-84.377" y="7.378"/><use xlink:href="#H" x="-84.377" y="7.38"/><use xlink:href="#G" x="-77.467" y="3.354"/><use xlink:href="#H" x="-77.466" y="3.354"/><use xlink:href="#J" x="-70.458" y="3.354"/><path d="M157.94 122c.383.192.383.575 0 .766s-.96.192-1.344 0-.384-.574 0-.766.96-.192 1.344 0z"/><use xlink:href="#c" x="-10.463" y="-2.013"/><use xlink:href="#H" x="-70.555" y="-0.575"/><use xlink:href="#B" x="-77.37" y="-0.575"/><use xlink:href="#H" x="-108.568" y="17.345"/><use xlink:href="#B" x="-70.46" y="-4.6"/><use xlink:href="#d"/><use xlink:href="#H" x="-91.289" y="7.38"/><use xlink:href="#G" x="-84.377" y="3.354"/><use xlink:href="#H" x="-84.377" y="3.354"/><use xlink:href="#c" x="-17.376" y="-2.013"/><use xlink:href="#H" x="-77.466" y="-0.575"/><use xlink:href="#H" x="-74.01" y="-2.587"/><path d="M151.026 122c.384.192.384.575 0 .766a1.64 1.64 0 0 1-1.343 0c-.384-.2-.384-.574 0-.766a1.64 1.64 0 0 1 1.343 0zm3.456-1.927c.384.192.384.575 0 .767a1.64 1.64 0 0 1-1.343 0c-.384-.192-.384-.575 0-.767.384-.287.96-.287 1.343 0z"/><use xlink:href="#H" x="-115.48" y="17.345"/><use xlink:href="#B" x="-77.37" y="-4.6"/><use xlink:href="#N" x="-108.471" y="21.284"/><use xlink:href="#K" x="-73.914" y="-2.586"/><use xlink:href="#d" y="-4.024"/><use xlink:href="#H" x="-91.289" y="3.354"/><use xlink:href="#c" x="-24.286" y="-2.013"/><use xlink:href="#H" x="-84.377" y="-0.575"/><use xlink:href="#H" x="-80.923" y="-2.587"/><use xlink:href="#G" x="-74.01" y="-6.612"/><use xlink:href="#c" x="-41.566" y="7.953"/><use xlink:href="#a" x="-3.456" y="-17.92"/><use xlink:href="#B" x="-84.282" y="-4.6"/><use xlink:href="#N" x="-115.383" y="21.284"/><use xlink:href="#c" x="-48.476" y="7.953"/><use xlink:href="#a" x="-3.456" y="-21.944"/><use xlink:href="#K" x="-73.914" y="-6.612"/><path d="M157.94 110.107c.383.192.383.575 0 .767s-.96.192-1.344 0-.384-.575 0-.767a1.16 1.16 0 0 1 1.344 0z"/><use xlink:href="#H" x="-91.289" y="-0.575"/><use xlink:href="#H" x="-87.833" y="-2.587"/><use xlink:href="#G" x="-80.921" y="-6.612"/><use xlink:href="#B" x="-46.27" y="-26.545"/><use xlink:href="#G" x="-105.112" y="7.378"/><use xlink:href="#H" x="-105.113" y="7.38"/><use xlink:href="#N" x="-122.293" y="21.284"/><use xlink:href="#c" x="-55.388" y="7.953"/><use xlink:href="#G" x="-112.024" y="7.378"/><use xlink:href="#H" x="-105.113" y="3.354"/><path d="M151.026 110.107c.384.192.384.575 0 .767a1.64 1.64 0 0 1-1.343 0c-.384-.192-.384-.575 0-.767.383-.287.96-.287 1.343 0z"/><use xlink:href="#K" x="-73.914" y="-10.541"/><use xlink:href="#b" y="-23.957"/><use xlink:href="#G" x="-87.833" y="-6.612"/><use xlink:href="#B" x="-53.18" y="-26.545"/><use xlink:href="#G" x="-80.921" y="-10.637"/><use xlink:href="#H" x="-112.023" y="7.38"/><use xlink:href="#G" x="-105.112" y="3.354"/><use xlink:href="#c" x="-62.299" y="7.953"/><use xlink:href="#G" x="-118.934" y="7.378"/><use xlink:href="#H" x="-118.935" y="7.38"/><use xlink:href="#c" x="-45.021" y="-2.013"/><use xlink:href="#H" x="-105.113" y="-0.575"/><use xlink:href="#K" x="-77.37" y="-12.553"/><use xlink:href="#a" y="-31.91"/><use xlink:href="#X" y="-35.936"/><use xlink:href="#G" x="-87.833" y="-10.637"/><use xlink:href="#S" x="-108.567" y="5.368"/><use xlink:href="#G" x="-112.024" y="3.354"/><use xlink:href="#H" x="-112.023" y="3.354"/><use xlink:href="#G" x="-125.847" y="7.378"/><use xlink:href="#H" x="-125.846" y="7.38"/><use xlink:href="#G" x="-118.934" y="3.354"/><use xlink:href="#H" x="-112.023" y="-0.575"/><use xlink:href="#H" x="-108.568" y="-2.587"/><use xlink:href="#G" x="-101.657" y="-6.612"/><use xlink:href="#J" x="-73.914" y="-18.591"/><path d="M154.482 100.045c.384.192.384.575 0 .767a1.65 1.65 0 0 1-1.343 0c-.384-.192-.384-.575 0-.767a1.64 1.64 0 0 1 1.343 0zm3.458-1.915c.383.192.383.575 0 .767s-.96.192-1.344 0-.384-.575 0-.767c.384-.288.96-.288 1.344 0z"/><use xlink:href="#H" x="-118.935" y="3.354"/><use xlink:href="#c" x="-51.933" y="-2.013"/><use xlink:href="#H" x="-132.853" y="7.38"/><use xlink:href="#G" x="-125.942" y="3.354"/><use xlink:href="#H" x="-125.943" y="3.354"/><use xlink:href="#C" x="-91.289" y="-16.577"/><use xlink:href="#e"/><use xlink:href="#Z" x="-31.197" y="-25.97"/><use xlink:href="#G" x="-101.657" y="-10.637"/><use xlink:href="#f"/><use xlink:href="#D" x="-101.657" y="-10.638"/><path d="M133.652 108.095c.384.19.384.575 0 .766s-.96.192-1.344 0-.383-.575 0-.766c.384-.288 1.056-.288 1.344 0z"/><use xlink:href="#G" x="-132.853" y="3.354"/><use xlink:href="#H" x="-132.853" y="3.354"/><use xlink:href="#B" x="-94.745" y="-18.592"/><use xlink:href="#g"/><path d="M137.107 102.057c.384.192.384.575 0 .767a1.64 1.64 0 0 1-1.343 0c-.384-.192-.384-.575 0-.767s1.056-.19 1.343 0z"/><use xlink:href="#e" y="-4.025"/><use xlink:href="#R" x="-125.845" y="3.353"/><use xlink:href="#M" x="-125.846" y="3.355"/><use xlink:href="#E" x="-105.112" y="-12.553"/><use xlink:href="#H" x="-139.765" y="3.354"/><use xlink:href="#B" x="-101.656" y="-18.592"/><use xlink:href="#M" x="-132.756" y="3.355"/><use xlink:href="#D" x="-101.657" y="-18.591"/><use xlink:href="#g" y="-4.025"/><path d="M137.107 98.033c.384.192.384.575 0 .767a1.64 1.64 0 0 1-1.343 0c-.383-.192-.384-.575 0-.767s1.056-.192 1.343 0zm3.457-1.917c.383.192.383.575 0 .767s-.96.192-1.344 0-.384-.575 0-.767c.384-.288 1.056-.288 1.344 0z"/><use xlink:href="#H" x="-129.398" y="-2.587"/><use xlink:href="#G" x="-122.487" y="-6.612"/><use xlink:href="#B" x="-108.568" y="-18.592"/><use xlink:href="#M" x="-139.668" y="3.355"/><use xlink:href="#H" x="-136.309" y="-2.587"/><use xlink:href="#G" x="-129.397" y="-6.612"/><use xlink:href="#O" x="-125.846" y="-0.67"/><path d="M133.652 96.116c.384.192.384.575 0 .767s-.96.192-1.344 0-.383-.575 0-.767c.384-.288 1.056-.288 1.344 0z"/><use xlink:href="#B" x="-94.745" y="-26.545"/><use xlink:href="#G" x="-122.487" y="-10.637"/><path d="M201.615 116.05a1.64 1.64 0 0 1 1.343 0c.384.19.384.575 0 .766a1.64 1.64 0 0 1-1.343 0c-.288-.19-.384-.48 0-.766z"/><use xlink:href="#L" x="-28.894" y="-0.575"/><path d="M209.87 112.12c.384.19.384.574 0 .766s-.96.192-1.344 0-.384-.575 0-.766.96-.192 1.344 0z"/><use xlink:href="#G" x="-35.901" y="-0.575"/><use xlink:href="#H" x="-35.903" y="-0.575"/><use xlink:href="#E" x="-15.071" y="-12.553"/><path d="M223.693 104.166c.384.2.384.575 0 .766s-.96.192-1.344 0-.383-.575 0-.766c.384-.288 1.056-.288 1.344 0zm3.455-2.013c.384.192.384.575 0 .767a1.64 1.64 0 0 1-1.343 0c-.384-.192-.384-.575 0-.767s1.055-.2 1.343 0z"/><use xlink:href="#e" x="90.041" y="-3.93"/><use xlink:href="#P" x="-35.804" y="-0.575"/><use xlink:href="#P" x="-32.348" y="-2.587"/><use xlink:href="#f" x="90.041" y="-3.929"/><path d="M244.523 92.187c.384.192.384.575 0 .767s-.96.192-1.343 0-.384-.575 0-.767c.384-.287.96-.287 1.343 0z"/><use xlink:href="#P" x="-21.98" y="-8.528"/><use xlink:href="#P" x="-18.525" y="-10.541"/><use xlink:href="#P" x="-15.07" y="-12.553"/><path d="M198.16 114.132c.384-.192.96-.192 1.344 0s.384.575 0 .767a1.65 1.65 0 0 1-1.344 0c-.384-.288-.384-.575 0-.767zm4.798-2.012c.384.2.384.574 0 .766s-.96.192-1.344 0-.384-.575 0-.766.96-.192 1.344 0z"/><use xlink:href="#G" x="-42.813" y="-0.575"/><use xlink:href="#H" x="-42.813" y="-0.575"/><use xlink:href="#H" x="-39.357" y="-2.587"/><use xlink:href="#M" x="-35.806" y="-0.574"/><use xlink:href="#D" x="-11.616" y="-18.495"/><use xlink:href="#g" x="90.041" y="-3.93"/><use xlink:href="#h"/><use xlink:href="#i"/><use xlink:href="#P" x="-35.804" y="-4.599"/><use xlink:href="#Q" x="-39.26" y="-2.588"/><use xlink:href="#f" x="90.041" y="-7.858"/><use xlink:href="#f" x="93.497" y="-9.871"/><use xlink:href="#P" x="-21.98" y="-12.553"/><use xlink:href="#P" x="-18.525" y="-14.566"/><path d="M194.703 112.12c.384-.192.96-.192 1.344 0s.384.574 0 .766-.96.192-1.344 0-.384-.575 0-.766z"/><use xlink:href="#G" x="-49.724" y="-0.575"/><use xlink:href="#H" x="-49.725" y="-0.575"/><use xlink:href="#H" x="-46.269" y="-2.587"/><use xlink:href="#M" x="-42.716" y="-0.574"/><use xlink:href="#B" x="-4.704" y="-26.449"/><use xlink:href="#G" x="-32.447" y="-10.542"/><use xlink:href="#O" x="-35.805" y="-0.575"/><path d="M223.693 96.116c.384.192.384.575 0 .767s-.96.192-1.344 0-.383-.575 0-.767 1.056-.192 1.344 0z"/><use xlink:href="#h" y="-4.024"/><path d="M230.605 92.187c.383.192.383.575 0 .767s-.96.192-1.344 0-.384-.575 0-.767c.384-.287 1.056-.287 1.344 0z"/><use xlink:href="#P" x="-35.804" y="-8.528"/><use xlink:href="#P" x="-32.348" y="-10.541"/><use xlink:href="#f" x="90.041" y="-11.883"/><use xlink:href="#f" x="93.497" y="-13.896"/><use xlink:href="#Q" x="-28.892" y="-12.555"/><path d="M191.248 110.107c.384-.192.96-.192 1.344 0s.384.575 0 .767a1.65 1.65 0 0 1-1.344 0c-.384-.192-.384-.575 0-.767z"/><use xlink:href="#H" x="-56.636" y="-0.575"/><use xlink:href="#H" x="-53.18" y="-2.587"/><use xlink:href="#M" x="-49.628" y="-0.574"/><use xlink:href="#B" x="-11.616" y="-26.449"/><use xlink:href="#G" x="-39.357" y="-10.542"/><use xlink:href="#P" x="-56.634" y="-0.575"/><use xlink:href="#P" x="-53.18" y="-2.587"/><use xlink:href="#O" x="-35.805" y="-4.599"/><path d="M223.693 92.187c.384.192.384.575 0 .767s-.96.192-1.344 0-.383-.575 0-.767c.384-.287 1.056-.287 1.344 0z"/><use xlink:href="#h" y="-7.953"/><use xlink:href="#i" y="-7.954"/><use xlink:href="#P" x="-35.804" y="-12.553"/><use xlink:href="#P" x="-32.348" y="-14.566"/><path d="M241.067 82.22c.384.192.384.575 0 .767s-.96.192-1.343 0-.384-.575 0-.767c.383-.287.96-.287 1.343 0z"/><use xlink:href="#f" x="93.497" y="-17.823"/><path d="M187.792 108.095c.384-.192.96-.192 1.344 0s.384.575 0 .766-.96.192-1.344 0-.384-.575 0-.766z"/><use xlink:href="#H" x="-60.091" y="-2.587"/><use xlink:href="#G" x="-53.18" y="-6.612"/><use xlink:href="#B" x="-18.527" y="-26.545"/><use xlink:href="#M" x="-49.628" y="-4.6"/><use xlink:href="#P" x="-63.546" y="-0.575"/><use xlink:href="#P" x="-60.09" y="-2.587"/><use xlink:href="#P" x="-56.634" y="-4.599"/><use xlink:href="#P" x="-53.18" y="-6.613"/><use xlink:href="#Q" x="-56.635" y="-4.6"/><path d="M223.693 88.162c.384.192.384.575 0 .767s-.96.192-1.344 0-.383-.575 0-.767.96-.192 1.344 0z"/><use xlink:href="#f" x="76.122" y="-11.883"/><path d="M230.605 84.137c.383.192.383.575 0 .767s-.96.192-1.344 0-.384-.575 0-.767.96-.192 1.344 0zm2.11-2.012c.384-.192.96-.192 1.344 0s.384.575 0 .767-.96.192-1.344 0c-.288-.192-.288-.48 0-.767.384-.192-.288.287 0 0zm4.8-1.917c.383.192.383.575 0 .767s-.96.192-1.344 0c-.288-.287.96-1.054 1.344-.767zm-53.18 25.875c.384-.192.96-.192 1.344 0s.384.575 0 .766-.96.192-1.344 0-.384-.575 0-.766z"/><use xlink:href="#G" x="-60.091" y="-6.612"/><use xlink:href="#B" x="-25.438" y="-26.545"/><use xlink:href="#M" x="-56.539" y="-4.6"/><use xlink:href="#P" x="-70.457" y="-0.575"/><use xlink:href="#P" x="-67.002" y="-2.587"/><use xlink:href="#P" x="-63.546" y="-4.599"/><use xlink:href="#P" x="-60.09" y="-6.613"/><use xlink:href="#Q" x="-63.546" y="-4.6"/><use xlink:href="#P" x="-53.18" y="-10.541"/><use xlink:href="#P" x="-49.723" y="-12.553"/><path d="M223.693 84.137c.384.192.384.575 0 .767s-.96.192-1.344 0-.383-.575 0-.767.96-.192 1.344 0zM180.88 104.07c.384-.192.96-.192 1.344 0s.384.575 0 .767a1.65 1.65 0 0 1-1.344 0c-.384-.192-.384-.48 0-.767z"/><use xlink:href="#B" x="-32.35" y="-26.545"/><use xlink:href="#M" x="-63.45" y="-4.6"/><use xlink:href="#P" x="-77.368" y="-0.575"/><use xlink:href="#P" x="-73.913" y="-2.587"/><use xlink:href="#P" x="-70.457" y="-4.599"/><use xlink:href="#P" x="-67.002" y="-6.613"/><use xlink:href="#Q" x="-70.458" y="-4.6"/><use xlink:href="#P" x="-60.09" y="-10.541"/><use xlink:href="#T" x="-60.091" y="-2.587"/><path d="M177.425 102.153a1.65 1.65 0 0 1 1.344 0c.384.192.384.575 0 .767s-.96.192-1.344 0c-.384-.287-.384-.575 0-.767z"/><use xlink:href="#M" x="-70.361" y="-4.6"/><use xlink:href="#P" x="-84.28" y="-0.575"/><use xlink:href="#P" x="-80.824" y="-2.587"/><use xlink:href="#P" x="-77.368" y="-4.599"/><use xlink:href="#P" x="-73.913" y="-6.613"/><use xlink:href="#Q" x="-77.369" y="-4.6"/><use xlink:href="#P" x="-67.002" y="-10.541"/><path d="M173.97 100.14c.384-.192.96-.192 1.344 0s.383.575 0 .767a1.65 1.65 0 0 1-1.344 0c-.384-.288-.384-.575 0-.767z"/><use xlink:href="#P" x="-91.19" y="-0.575"/><use xlink:href="#P" x="-87.735" y="-2.587"/><use xlink:href="#P" x="-84.28" y="-4.599"/><use xlink:href="#P" x="-80.824" y="-6.613"/><path d="M192.592 90.174c.384.192.384.575 0 .767s-.96.192-1.344 0c-.384-.288.96-1.054 1.344-.767zm-22.078 7.954a1.64 1.64 0 0 1 1.343 0c.383.192.384.575 0 .767a1.64 1.64 0 0 1-1.343 0c-.383-.192-.384-.575 0-.767z"/><use xlink:href="#O" x="-80.825" y="-2.587"/><use xlink:href="#T" x="-94.648" y="5.367"/><use xlink:href="#P" x="-11.614" y="-14.566"/><use xlink:href="#P" x="-8.158" y="-16.578"/><use xlink:href="#P" x="-15.07" y="-16.578"/><use xlink:href="#Q" x="-18.526" y="-14.567"/><use xlink:href="#P" x="-8.158" y="-20.507"/><use xlink:href="#Q" x="-25.437" y="-14.567"/><use xlink:href="#P" x="-15.07" y="-20.507"/><use xlink:href="#P" x="-11.614" y="-22.519"/><use xlink:href="#T" x="-25.437" y="-10.541"/><path d="M251.435 76.184c.384.192.384.575 0 .767s-.96.192-1.344 0 .96-.958 1.344-.767z"/></g><path d="M159.474 134.5L89.496 94.146c-.96-.575-.768-1.437.288-2.108l97.528-56.252c1.056-.575 2.688-.67 3.647-.192l69.98 40.344c.96.575.768 1.437-.288 2.108l-97.528 56.252c-1.056.67-2.688.767-3.648.192z" fill="#fbeacc"/><path d="M161 131.423c-.672 0-1.344-.096-1.824-.383L89.208 90.696c-.576-.287-.864-.767-.864-1.342s.384-1.15 1.152-1.63l97.528-56.156c1.248-.67 2.976-.767 4.127-.192l69.98 40.344c.576.287.864.767.864 1.342s-.384 1.15-1.152 1.63l-97.528 56.252a5.8 5.8 0 0 1-2.304.479zm28.318-99.47c-.672 0-1.248.192-1.824.48L89.976 88.683c-.384.192-.672.48-.672.767 0 .192.192.383.384.48l69.978 40.344c.768.48 2.208.384 3.168-.19l97.528-56.252c.384-.192.672-.48.672-.767 0-.192-.192-.383-.384-.48L190.67 32.24c-.383-.192-.863-.288-1.343-.288z" class="B"/><path d="M225.036 89.504l-26.1-15.045c-.096-.096-.096-.192 0-.287l4.512-2.587a.44.44 0 0 1 .48 0l26.1 15.045c.096.096.096.192 0 .287l-4.512 2.587c-.192.096-.384.096-.48 0z" class="C"/><path d="M225.228 87.396c-.192 0-.288 0-.48-.096l-26.11-15.045c-.192-.096-.288-.287-.288-.575 0-.192.096-.48.384-.575l4.51-2.587c.288-.192.672-.192.96 0l26.1 15.045c.192.096.288.288.288.575 0 .192-.096.48-.384.575l-4.512 2.587c-.096.096-.288.096-.48.096zM199.6 71.68l25.63 14.758 4.032-2.3-25.63-14.758-4.03 2.3z" class="B"/><path d="M193.36 71.296l-26.1-15.045c-.096-.096-.096-.192 0-.287l4.51-2.587a.44.44 0 0 1 .48 0l26.1 15.045c.096.096.096.192 0 .287l-4.51 2.587c-.192.096-.384.096-.48 0z" class="C"/><path d="M193.55 69.188c-.192 0-.288 0-.48-.096l-26.1-15.045c-.192-.096-.288-.287-.288-.575 0-.192.096-.48.384-.575l4.51-2.587c.288-.192.672-.192.96 0l26.1 15.045c.192.096.288.288.288.575 0 .192-.096.48-.384.575l-4.51 2.587c-.096.096-.288.096-.48.096zm-25.63-15.716l25.63 14.758 4.03-2.3-25.63-14.758-4.03 2.3z" class="B"/><path d="M216.6 93.954l-26.1-15.045c-.096-.096-.096-.192 0-.288l4.512-2.587a.44.44 0 0 1 .48 0l26.1 15.045c.096.096.096.192 0 .287l-4.512 2.587c-.096.096-.288.096-.48 0z" class="C"/><path d="M216.878 91.846c-.192 0-.288 0-.48-.096l-26.1-15.045c-.192-.096-.288-.288-.288-.575 0-.192.096-.48.384-.575l4.512-2.587c.288-.192.672-.192.96 0l26.11 15.045c.192.096.288.287.288.575 0 .192-.096.48-.384.575l-4.51 2.587c-.192.096-.288.096-.48.096zm-25.63-15.716l25.63 14.758 4.032-2.3-25.63-14.758-4.032 2.3z" class="B"/><path d="M184.72 76.088l-26.1-15.045c-.096-.096-.096-.192 0-.288l4.512-2.587a.44.44 0 0 1 .48 0l26.1 15.045c.096.096.096.192 0 .288l-4.512 2.587c-.096.096-.288.096-.48 0z" class="C"/><path d="M184.91 73.98c-.192 0-.288 0-.48-.096l-26.1-15.045c-.192-.096-.288-.288-.288-.575 0-.192.096-.48.384-.575l4.512-2.587c.288-.192.672-.192.96 0L190 70.146c.192.096.288.287.288.575 0 .192-.096.48-.384.575l-4.512 2.587c-.096.096-.288.096-.48.096zm-25.534-15.716l25.63 14.758 4.032-2.3-25.63-14.758-4.032 2.3z" class="B"/><path d="M196.24 105.55l-58.555-33.732c-.192-.096-.192-.287.096-.383l4.223-2.492c.192-.096.576-.096.768 0l58.555 33.732c.192.096.192.288-.096.383l-4.223 2.492c-.192.096-.576.192-.768 0z" class="C"/><path d="M196.623 103.537c-.192 0-.384 0-.576-.096L137.49 69.71c-.192-.096-.384-.383-.384-.575 0-.288.192-.48.384-.67l4.224-2.492c.384-.192.864-.192 1.248 0l58.555 33.732c.192.096.384.383.384.575 0 .287-.192.48-.384.67l-4.223 2.492c-.288 0-.48.096-.672.096zm-.096-.958h.192l3.935-2.3-58.17-33.54h-.192l-3.936 2.3 58.172 33.54z" class="B"/><path d="M242.124 79.346l-58.556-33.732c-.192-.096-.192-.287.096-.383l4.224-2.492c.192-.096.576-.096.768 0L247.21 76.47c.192.096.192.288-.096.383l-4.223 2.492c-.192.096-.576.192-.768 0z" class="C"/><path d="M242.507 77.333c-.192 0-.384 0-.576-.096l-58.555-33.732c-.192-.096-.384-.383-.384-.575 0-.288.192-.48.384-.67l4.224-2.492c.384-.192.864-.192 1.248 0L247.403 73.5c.192.096.384.383.384.575 0 .288-.192.48-.384.67l-4.224 2.492c-.288 0-.48.096-.672.096zm-.096-.958h.192l3.936-2.3-58.17-33.54h-.192l-3.936 2.3 58.17 33.54z" class="B"/><path d="M188.272 110.15l-58.555-33.732c-.192-.096-.192-.287.096-.383l4.223-2.492c.192-.096.576-.096.768 0l58.556 33.732c.192.096.192.288-.096.383l-4.224 2.492c-.288.096-.576.192-.768 0z" class="C"/><path d="M188.56 108.137c-.192 0-.384 0-.576-.096L129.43 74.31c-.192-.096-.384-.383-.384-.575 0-.287.192-.48.384-.67l4.224-2.492c.384-.192.863-.192 1.247 0l58.556 33.732a.79.79 0 0 1 .384.575c0 .287-.192.48-.384.67l-4.224 2.492c-.192 0-.384.096-.672.096zm0-.958h.288l3.936-2.3-58.172-33.54h-.192l-3.935 2.3 58.075 33.54z" class="B"/><path d="M180.304 114.845L121.75 81.113c-.192-.096-.192-.288.096-.383l4.224-2.492c.192-.096.576-.096.768 0l58.555 33.732c.192.096.192.287-.096.383l-4.224 2.492c-.288.095-.576.095-.768 0z" class="C"/><path d="M180.592 112.737c-.192 0-.384 0-.576-.096L121.46 78.91c-.192-.096-.384-.383-.384-.575 0-.287.192-.48.384-.67l4.224-2.492c.384-.192.864-.192 1.248 0l58.555 33.732c.192.096.384.384.384.575 0 .288-.192.48-.384.67l-4.224 2.492c-.192 0-.384.096-.672.096zm-.096-.96h.288l3.936-2.3-58.17-33.54h-.192l-3.936 2.3 58.075 33.54z" class="B"/><path d="M142.29 102.1L113.6 85.52c-.096-.096-.096-.192 0-.287l4.51-2.587c.192-.096.384-.096.48 0l28.702 16.58c.096.096.096.192 0 .287l-4.512 2.587c-.096.096-.288.096-.48 0z" class="C"/><path d="M142.483 99.99c-.192 0-.288 0-.48-.096l-28.606-16.578c-.192-.096-.288-.287-.288-.575 0-.192.096-.48.384-.575l4.512-2.587c.288-.192.672-.192.96 0l28.702 16.58c.192.096.288.287.288.575 0 .192-.096.48-.384.575l-4.512 2.587c-.192.096-.384.096-.576.096zm-28.126-17.153l28.126 16.195 4.032-2.3-28.222-16.29-3.936 2.396z" class="B"/><path d="M134.324 106.7l-28.7-16.578c-.096-.096-.096-.192 0-.287l4.51-2.587c.192-.096.384-.096.48 0l28.702 16.578c.096.096.096.192 0 .288l-4.512 2.587a.44.44 0 0 1-.48 0z" class="C"/><path d="M134.517 104.59c-.192 0-.288 0-.48-.096l-28.702-16.578c-.192-.096-.288-.287-.288-.575 0-.192.096-.48.384-.575l4.51-2.587c.288-.192.672-.192.96 0l28.702 16.58c.192.096.288.287.288.575 0 .19-.096.48-.384.575l-4.512 2.587c-.096.096-.288.096-.48.096zM106.39 87.438l28.126 16.195 4.03-2.3-28.222-16.29-3.935 2.396z" class="B"/><path d="M164.466 124.14l-14.687-8.53c-.096-.095-.096-.19 0-.19l4.608-2.684c.096-.095.288-.095.384 0l14.686 8.53c.096.096.096.192 0 .192l-4.607 2.683h-.384z" class="C"/><path d="M164.658 121.936c-.096 0-.288 0-.384-.096l-14.687-8.53c-.192-.095-.288-.287-.288-.48s.096-.383.288-.575l4.607-2.683c.288-.192.576-.192.864 0l14.687 8.53c.192.096.288.287.288.48s-.096.383-.288.575l-4.607 2.683c-.192.096-.288.096-.48.096zm-14.11-9.104l14.11 8.146 4.03-2.3-14.11-8.146-4.03 2.3z" class="B"/><path d="M212.94 120.022l63.835-36.32c1.535-.862 3.55-.383 4.51 1.246.864 1.533.384 3.546-1.248 4.504l-63.835 36.223c-1.535.863-3.55.384-4.51-1.246-.864-1.533-.288-3.545 1.248-4.408z" class="D"/><path d="M212.94 121.172l63.835-36.32c1.535-.862 3.55-.383 4.51 1.246.864 1.533-.576 2.587-2.208 3.45l-62.875 35.36c-1.535.862-3.55 2.204-4.51.67-.864-1.533-.288-3.545 1.248-4.408z" fill="#fae9cc"/><g class="B"><path d="M281.096 84.95c-.48-.862-1.344-1.437-2.208-1.63.576 1.533.096 3.258-1.44 4.12l-63.835 36.32c-.672.383-1.44.48-2.208.383.096.096.096.288.192.383.864 1.534 2.88 2.11 4.512 1.246l63.835-36.32c1.536-.958 2.112-2.97 1.152-4.504z"/><path d="M214.573 126.54c-.288 0-.672 0-.96-.096-.96-.288-1.824-.863-2.304-1.725s-.672-1.917-.384-2.875.864-1.82 1.728-2.3l63.835-36.32c.864-.48 1.92-.575 2.88-.383.96.287 1.824.862 2.304 1.725 1.056 1.82.384 4.12-1.44 5.08l-63.835 36.32c-.576.48-1.152.575-1.824.575zm63.835-42.74c-.48 0-.96.096-1.344.383L213.23 120.5c-.672.384-1.152.96-1.344 1.725s-.096 1.438.288 2.11.96 1.15 1.728 1.34 1.44.096 2.112-.287l63.835-36.32c.672-.383 1.152-.958 1.344-1.725s.096-1.437-.288-2.108-.96-1.15-1.728-1.342c-.288-.096-.48-.096-.768-.096z"/></g><g class="D"><path d="M249.13 97.694l23.326-13.224c.672-.383 1.44-.096 1.824.48l.096.192c.384.67.096 1.437-.48 1.82l-23.326 13.225c-.672.383-1.44.095-1.824-.48l-.096-.192c-.384-.67-.096-1.437.48-1.82z"/><path d="M249.13 98.844l23.326-13.224c.672-.383 1.44-.096 1.824.48l.096.192c.384.67.096 1.437-.48 1.82l-23.326 13.225c-.672.383-1.44.095-1.824-.48l-.096-.19c-.384-.67-.096-1.438.48-1.82z"/></g><path d="M249.9 100.856c-.192 0-.288 0-.48-.096a1.38 1.38 0 0 1-1.056-.862l-.096-.192c-.192-.383-.288-.862-.192-1.342a1.38 1.38 0 0 1 .864-1.054l23.326-13.224c.384-.192.864-.288 1.344-.192s.864.383 1.056.863l.096.192c.48.862.192 2.013-.672 2.492l-23.23 13.13c-.288.19-.576.287-.96.287zm23.23-16.1c-.192 0-.288 0-.384.096L249.42 98.077c-.192.096-.288.288-.384.48s0 .48.096.67l.096.192c.096.192.288.288.48.383s.48 0 .672-.096l23.326-13.225c.384-.192.576-.767.288-1.15l-.096-.192c-.096-.192-.288-.287-.48-.383h-.288z" class="B"/><path d="M213.806 126.25l.576-.48c.96-.767 1.152-2.204.384-3.162-.576-.863-1.632-1.15-2.592-.863l-.768.192-4.8 4.6c-.288.287-.384.766-.192 1.15s.672.575 1.152.48l6.24-1.917z" class="D"/><path d="M213.902 127.88l.576-.48c.96-.766 1.152-2.204.384-3.162-.576-.863-1.632-1.15-2.59-.863l-.768.192-4.8 4.6a1.02 1.02 0 0 0-.192 1.15c.192.383.672.575 1.152.48l6.24-1.917z" fill="#fae9cc"/><path d="M207.182 128.743c-.48 0-.96-.288-1.248-.767a1.46 1.46 0 0 1 .288-1.725l4.896-4.695.864-.288c1.152-.383 2.4.096 3.168 1.054.864 1.246.672 2.875-.48 3.833l-.672.48-6.336 2.013c-.192.096-.384.096-.48.096zm4.416-6.325l-4.8 4.6a.45.45 0 0 0-.096.575c.096.19.288.287.576.19l6.24-2.012.48-.383c.768-.575.864-1.725.288-2.492-.48-.67-1.344-.958-2.112-.67l-.576.192z" class="B"/><defs ><path id="B" d="M218.03 128.602c.384.192.384.575 0 .767s-.96.192-1.344 0-.384-.575 0-.767a1.65 1.65 0 0 1 1.344 0z"/><path id="C" d="M228.396 122.66c.384.19.384.575 0 .766a1.64 1.64 0 0 1-1.343 0c-.384-.19-.384-.575 0-.766s1.056-.192 1.343 0z"/><path id="D" d="M231.853 120.648c.384.192.384.575 0 .767s-.96.192-1.344 0-.384-.575 0-.767 1.056-.19 1.344 0z"/><path id="E" d="M235.308 118.636c.384.19.384.575 0 .766s-.96.192-1.344 0-.384-.575 0-.766 1.056-.192 1.344 0z"/><path id="F" d="M238.764 116.72c.384.192.384.575 0 .767s-.96.192-1.344 0-.384-.575 0-.767c.384-.287 1.056-.287 1.344 0z"/><path id="G" d="M249.227 110.682c.384.192.384.575 0 .767a1.65 1.65 0 0 1-1.344 0c-.384-.192-.384-.575 0-.767s.96-.192 1.344 0z"/><path id="H" d="M252.683 108.67c.384.19.384.575 0 .766s-.96.192-1.344 0-.384-.575 0-.766.96-.192 1.344 0z"/><path id="I" d="M256.14 106.753c.384.192.384.575 0 .767a1.65 1.65 0 0 1-1.344 0c-.384-.192-.384-.575 0-.767a1.16 1.16 0 0 1 1.344 0z"/><path id="J" d="M224.94 120.648c.384.192.384.575 0 .767a1.64 1.64 0 0 1-1.343 0c-.384-.192-.384-.575 0-.767a1.65 1.65 0 0 1 1.343 0z"/><path id="K" d="M228.396 118.636c.384.19.384.575 0 .766a1.64 1.64 0 0 1-1.343 0c-.384-.19-.384-.575 0-.766a1.64 1.64 0 0 1 1.343 0z"/><path id="L" d="M235.308 114.707c.384.192.384.575 0 .767a1.65 1.65 0 0 1-1.344 0c-.384-.192-.384-.575 0-.767.384-.288.96-.288 1.344 0z"/><path id="M" d="M252.586 104.74c.384.19.384.575 0 .766s-.96.192-1.344 0-.384-.575 0-.766c.384-.288.96-.288 1.344 0z"/><path id="N" d="M252.586 100.716c.384.192.384.575 0 .766s-.96.192-1.344 0-.384-.574 0-.766.96-.192 1.344 0z"/><path id="O" d="M256.042 98.703c.384.192.384.575 0 .767s-.96.192-1.344 0-.384-.575 0-.767 1.056-.192 1.344 0z"/><path id="P" d="M269.96 98.703c.384.192.384.575 0 .767s-.96.192-1.344 0-.384-.575 0-.767.96-.192 1.344 0z"/><path id="Q" d="M276.872 94.775c.384.192.384.575 0 .767s-.96.192-1.344 0-.384-.575 0-.767c.384-.287.96-.287 1.344 0z"/><path id="R" d="M269.865 94.68c.384.192.384.575 0 .767s-.96.192-1.344 0-.384-.575 0-.767c.48-.192 1.056-.192 1.344 0z"/><path id="S" d="M273.417 92.762c.384.192.384.575 0 .767s-.96.192-1.344 0-.384-.575 0-.767c.384-.288.96-.288 1.344 0z"/><path id="T" d="M272.073 88.737c.384-.192.96-.192 1.344 0s.384.575 0 .767-.96.192-1.344 0-.384-.575 0-.767-.384.192 0 0z"/><path id="U" d="M92.087 100.14c.384.192.384.575 0 .767a1.65 1.65 0 0 1-1.344 0c-.384-.192-.384-.575 0-.767s1.056-.192 1.344 0z"/><path id="V" d="M192.592 122.086c.384.192.384.575 0 .766s-.96.192-1.344 0-.384-.574 0-.766c.384-.288.96-.288 1.344 0z"/><path id="W" d="M196.047 120.073c.384.192.384.575 0 .767a1.65 1.65 0 0 1-1.344 0c-.384-.192-.384-.575 0-.767a1.65 1.65 0 0 1 1.344 0z"/><path id="X" d="M157.94 137.993c.383.192.383.575 0 .767s-.96.192-1.344 0-.384-.575 0-.767a1.65 1.65 0 0 1 1.344 0z"/><path id="Y" d="M168.306 132.052c.384.192.384.575 0 .767a1.65 1.65 0 0 1-1.344 0c-.384-.192-.384-.575 0-.767.384-.287 1.056-.287 1.344 0z"/><path id="Z" d="M175.217 128.027c.384.192.384.575 0 .767s-.96.192-1.344 0-.384-.575 0-.767c.48-.19 1.056-.19 1.344 0z"/><path id="a" d="M154.482 135.98c.384.192.384.575 0 .767a1.65 1.65 0 0 1-1.343 0c-.384-.192-.384-.575 0-.767a1.64 1.64 0 0 1 1.343 0z"/><path id="b" d="M157.94 130.04c.383.19.383.575 0 .766s-.96.192-1.344 0-.384-.575 0-.766.96-.192 1.344 0z"/><path id="c" d="M189.136 112.12c.384.192.384.575 0 .767s-.96.192-1.344 0-.384-.575 0-.767a1.16 1.16 0 0 1 1.344 0z"/><path id="d" d="M157.94 118.06c.383.192.383.575 0 .767a1.65 1.65 0 0 1-1.344 0c-.384-.192-.384-.575 0-.767s.96-.192 1.344 0z"/><path id="e" d="M140.564 104.07c.383.192.383.575 0 .767a1.65 1.65 0 0 1-1.344 0c-.384-.192-.384-.575 0-.767s1.056-.192 1.344 0z"/><path id="f" d="M151.026 98.033c.384.192.384.575 0 .767s-.96.192-1.343 0-.384-.575 0-.767.96-.192 1.343 0z"/><path id="g" d="M133.652 104.07c.384.192.384.575 0 .767a1.65 1.65 0 0 1-1.344 0c-.383-.192-.383-.575 0-.767s1.056-.192 1.344 0z"/><path id="h" d="M227.148 98.128c.384.192.384.575 0 .767s-.96.192-1.343 0-.384-.575 0-.767 1.055-.192 1.343 0z"/><path id="i" d="M230.605 96.116c.383.192.383.575 0 .767s-.96.192-1.344 0-.384-.575 0-.767 1.056-.192 1.344 0z"/></defs></svg>