<svg width="38" height="38" viewBox="0 0 38 38" fill="none" xmlns="http://www.w3.org/2000/svg">
<g clip-path="url(#clip0)">
<path d="M19.0579 38.0003C18.9312 38.0003 18.8038 37.9604 18.6969 37.8809L0.470512 24.3709C0.312885 24.2542 0.22192 24.0681 0.225392 23.8719C0.228517 23.6758 0.32712 23.4931 0.488913 23.3827L2.63388 21.9131C2.91094 21.7238 3.288 21.795 3.47757 22.0707C3.66644 22.3474 3.59631 22.7248 3.31959 22.9144L1.877 23.9028L19.0579 36.638L36.2535 23.8924L34.8324 22.8772C34.5602 22.6821 34.4967 22.3033 34.6914 22.0311C34.8862 21.7586 35.2657 21.695 35.5375 21.8898L37.637 23.3897C37.795 23.5022 37.8894 23.6841 37.8912 23.8778C37.8929 24.0723 37.8016 24.2552 37.6457 24.3709L19.419 37.8806C19.3124 37.9604 19.185 38.0003 19.0579 38.0003Z" fill="black"/>
<path d="M19.0579 34.9416C18.9312 34.9416 18.8038 34.9016 18.6969 34.8221L0.470512 21.3117C0.312885 21.1944 0.22192 21.009 0.225392 20.8125C0.228517 20.6163 0.32712 20.434 0.488913 20.3233L2.47626 18.9623C2.75436 18.7734 3.13037 18.8442 3.31994 19.1199C3.50916 19.3966 3.43868 19.774 3.16231 19.9639L1.877 20.8437L19.0579 33.5792L36.2538 20.833L35.031 19.9594C34.7584 19.765 34.6949 19.3858 34.8897 19.1133C35.0845 18.8411 35.4643 18.7776 35.7361 18.9723L37.6377 20.3306C37.7957 20.4431 37.8901 20.6246 37.8919 20.8187C37.8936 21.0125 37.8023 21.1961 37.6464 21.3117L19.4197 34.8221C19.3124 34.9016 19.185 34.9416 19.0579 34.9416Z" fill="black"/>
<path d="M1.1875 20.7812L2.96875 19.5938L19 30.875L35.0312 19.5938L36.8125 20.7812L19 33.8438L1.1875 20.7812Z" fill="#F2C94C"/>
<path d="M30.6713 13.6482C30.5494 13.6482 30.4258 13.6117 30.3192 13.535L24.228 9.18461C23.9555 8.99018 23.8923 8.61105 24.087 8.3385C24.2818 8.06595 24.6613 8.00276 24.9332 8.19754L31.0243 12.5479C31.2969 12.7423 31.3604 13.1215 31.1657 13.394C31.0473 13.56 30.8608 13.6482 30.6713 13.6482Z" fill="black"/>
<path d="M12.853 27.2827C12.7276 27.2827 12.6012 27.2442 12.4922 27.1636L6.51005 22.7296C6.24097 22.53 6.18473 22.1501 6.38367 21.8804C6.584 21.6113 6.96314 21.5554 7.23291 21.7543L13.2154 26.1884C13.4845 26.388 13.5404 26.7678 13.3415 27.0372C13.2224 27.198 13.0384 27.2827 12.853 27.2827Z" fill="black"/>
<path d="M15.4691 16.2699C15.4153 16.2699 15.3608 16.263 15.3073 16.248L7.067 13.9691C6.83959 13.9062 6.66912 13.7173 6.63058 13.4844C6.59169 13.2514 6.69134 13.0167 6.88577 12.8834L19.0983 4.5191C19.3091 4.37502 19.5865 4.37814 19.7938 4.52639L24.9337 8.19763C25.0902 8.30978 25.1847 8.48858 25.1878 8.68127C25.1909 8.87397 25.1024 9.05625 24.9496 9.17325L15.8382 16.1449C15.7309 16.2265 15.6007 16.2699 15.4691 16.2699ZM8.64848 13.1472L15.3403 14.9978L23.5608 8.70801L19.4341 5.76067L8.64848 13.1472Z" fill="black"/>
<path d="M6.87105 22.8487C6.74432 22.8487 6.6169 22.8087 6.50997 22.7292L0.470512 18.2525C0.312885 18.1351 0.22192 17.9497 0.225392 17.7536C0.228517 17.5571 0.32712 17.3748 0.488913 17.264L6.88528 12.8828C7.16269 12.6932 7.5394 12.7654 7.72897 13.0408C7.91819 13.3175 7.84771 13.6949 7.57134 13.8844L1.877 17.7845L6.86549 21.4821L15.1006 15.1809C15.3662 14.9774 15.7485 15.0278 15.9512 15.2941C16.155 15.56 16.104 15.9412 15.8381 16.1443L7.24012 22.7233C7.13145 22.807 7.0009 22.8487 6.87105 22.8487Z" fill="black"/>
<path d="M19.058 31.8817C18.9313 31.8817 18.8038 31.8421 18.6969 31.7626L12.4922 27.1633C12.3394 27.0495 12.2481 26.8707 12.2467 26.6804C12.2457 26.4894 12.3332 26.3092 12.4849 26.1936L21.1252 19.5827C21.2929 19.4539 21.5161 19.4216 21.7133 19.4994C21.9105 19.5757 22.0536 19.7497 22.0907 19.958L23.5708 28.266C23.6115 28.4931 23.5201 28.7229 23.3351 28.8604L19.4198 31.7626C19.3125 31.8421 19.1851 31.8817 19.058 31.8817ZM13.8622 26.6679L19.058 30.5193L22.3109 28.1091L21.071 21.1517L13.8622 26.6679Z" fill="black"/>
<path d="M22.9743 28.9797C22.7882 28.9797 22.6049 28.8953 22.4862 28.7342C22.2869 28.4648 22.3431 28.085 22.6122 27.8854L36.2538 17.774L30.6848 13.7958L21.8623 20.5467C21.5973 20.7505 21.2151 20.7002 21.012 20.4335C20.8082 20.1676 20.8589 19.7863 21.1252 19.5832L30.3036 12.5598C30.5144 12.3977 30.8077 12.3921 31.0247 12.548L37.6377 17.2716C37.7957 17.3841 37.8902 17.5657 37.8919 17.7598C37.8936 17.9538 37.8023 18.1372 37.6464 18.2528L23.3351 28.8606C23.226 28.9412 23.0997 28.9797 22.9743 28.9797Z" fill="black"/>
<path d="M15.9047 4.52393C15.7495 4.52393 15.5943 4.46456 15.4756 4.34616L13.5542 2.42444C13.3171 2.18731 13.3171 1.80331 13.5542 1.56652C13.791 1.32939 14.175 1.32939 14.4121 1.56652L16.3338 3.4879C16.5706 3.72503 16.5706 4.10903 16.3338 4.34616C16.2151 4.46456 16.0599 4.52393 15.9047 4.52393Z" fill="black"/>
<path d="M22.9768 4.52393C22.8212 4.52393 22.6664 4.46456 22.5476 4.34616C22.3109 4.10903 22.3109 3.72503 22.5476 3.4879L24.4694 1.56652C24.7062 1.32939 25.0902 1.32939 25.3273 1.56652C25.5641 1.80331 25.5641 2.18731 25.3273 2.42444L23.4056 4.34616C23.2872 4.46456 23.132 4.52393 22.9768 4.52393Z" fill="black"/>
<path d="M18.9177 3.64069C18.5823 3.64069 18.3108 3.36918 18.3108 3.03379V0.606897C18.3108 0.271506 18.5823 0 18.9177 0C19.2527 0 19.5242 0.271506 19.5242 0.606897V3.03379C19.5242 3.36953 19.2531 3.64069 18.9177 3.64069Z" fill="black"/>
</g>
<defs>
<clipPath id="clip0">
<rect width="38" height="38" fill="white"/>
</clipPath>
</defs>
</svg>
