<svg width="38" height="38" viewBox="0 0 38 38" fill="none" xmlns="http://www.w3.org/2000/svg">
<g clip-path="url(#clip0)">
<path d="M37.6153 19.9039L26.7805 13.4027L28.1327 12.5429C28.3607 12.3973 28.4985 12.1455 28.4985 11.8748C28.4985 11.604 28.3607 11.3523 28.1327 11.2066L19.4244 5.66502C19.1647 5.50033 18.8339 5.50033 18.5742 5.66502L9.86585 11.2067C9.63778 11.3523 9.50003 11.6041 9.50003 11.8748C9.50003 12.1456 9.63778 12.3973 9.86578 12.543L11.218 13.4043L0.384778 19.9039C0.147278 20.0464 2.77784e-05 20.3029 2.77784e-05 20.5799C-0.00153082 20.857 0.142528 21.1151 0.380028 21.2592L18.5883 32.3425C18.715 32.4201 18.8575 32.4581 19 32.4581C19.1425 32.4581 19.285 32.4201 19.4117 32.3425L37.62 21.2593C37.8575 21.1136 38 20.8571 38 20.58C37.9985 20.3029 37.8528 20.0464 37.6153 19.9039ZM19 7.27208L26.2343 11.8748L19 16.4776L11.7658 11.8748L19 7.27208ZM12.711 14.3543L18.5741 18.0846C18.7039 18.1669 18.8528 18.2081 19 18.2081C19.1473 18.2081 19.2961 18.1669 19.4243 18.0846L25.2874 14.3527L26.3308 14.9797L19 19.6458L11.6676 14.9798L12.711 14.3543ZM2.32278 20.5848L10.1508 15.8902L17.526 20.5832L10.0907 25.3142L2.32278 20.5848ZM19 30.7386L11.598 26.2324L19 21.5221L26.4021 26.2325L19 30.7386ZM27.9095 25.3158L20.4742 20.5832L27.8494 15.8902L35.6774 20.5864L27.9095 25.3158Z" fill="black"/>
<path d="M19 17.2188L10.6875 11.875L19 6.53125L27.3125 11.875L19 17.2188Z" fill="#F2C94C"/>
</g>
<defs>
<clipPath id="clip0">
<rect width="38" height="38" fill="white"/>
</clipPath>
</defs>
</svg>
