<svg width="38" height="38" viewBox="0 0 38 38" fill="none" xmlns="http://www.w3.org/2000/svg">
<path d="M5 27.5L1 29V31.5L5 29.5L10 31.5L14.5 29.5L19 31L23.5 30L28 31.5L32.5 29.5L37 31V29L32.5 27.5L28 29L23.5 27.5L19 29L14.5 27.5L10 29L5 27.5Z" fill="#F2C94C"/>
<path d="M37.9977 28.8559C37.9977 28.8455 37.9977 28.8362 37.9965 28.8258C37.9953 28.8188 37.9953 28.8119 37.9942 28.8049C37.993 28.7934 37.9907 28.7829 37.9896 28.7713C37.9884 28.7655 37.9884 28.7597 37.9861 28.754C37.9838 28.7377 37.9803 28.7203 37.9768 28.7041L32.4336 6.53764C32.3466 6.1851 32.03 5.9375 31.6658 5.9375H6.33305C5.97004 5.9375 5.6535 6.1851 5.56533 6.53764L0.0232306 28.704C0.018629 28.7203 0.016254 28.7376 0.0127657 28.7539C0.0115782 28.7597 0.0115782 28.7655 0.0092774 28.7724C0.00808989 28.7829 0.0069766 28.7933 0.00467581 28.8049C0.00467581 28.8119 0.0034883 28.8189 0.00237501 28.8258C0.00237501 28.8363 0.00118751 28.8455 0.00118751 28.8559C0 28.8629 0 28.871 0 28.878C0 28.8838 0 28.8896 0 28.8953V31.2704C0 31.5266 0.124094 31.7679 0.332799 31.9163C0.542691 32.0647 0.810622 32.103 1.05295 32.0183L5.32515 30.5259L9.63677 32.0183C9.80376 32.0775 9.98701 32.0763 10.1563 32.0183L14.4471 30.5259L18.7401 32.0183C18.9071 32.0775 19.0915 32.0775 19.2597 32.0183L23.5516 30.5259L27.8435 32.0183C28.0128 32.0775 28.196 32.0775 28.363 32.0183L32.6561 30.5259L36.948 32.0183C37.0327 32.0474 37.1208 32.0624 37.2078 32.0624C37.3702 32.0624 37.5313 32.0126 37.6659 31.9163C37.8758 31.7679 37.9999 31.5266 37.9999 31.2704V28.8953C38 28.8896 38 28.8838 38 28.878C37.9988 28.871 37.9988 28.8629 37.9977 28.8559ZM36.0842 27.6673L32.9159 26.5645C32.7477 26.5065 32.5646 26.5065 32.3964 26.5645L28.7679 27.8261L27.9805 21.5198L31.2159 20.4009L34.5639 21.5836L36.0842 27.6673ZM32.7838 14.4634L34.1035 19.7422L31.4815 18.8162C31.3133 18.7564 31.1277 18.7559 30.9585 18.8145L27.7787 19.9144L27.0887 14.3903L29.8012 13.4399L32.7838 14.4634ZM31.0489 7.52097L32.3269 12.6328L30.0563 11.8535C29.887 11.7955 29.705 11.7961 29.5368 11.8552L26.8881 12.783L26.2294 7.52097H31.0489ZM19.7909 7.52104H24.6337L25.2808 12.6909L22.8571 11.8542C22.6901 11.7962 22.5069 11.7962 22.3399 11.8548L19.7909 12.7407V7.52104ZM19.7908 14.417L22.5997 13.44L25.4988 14.442L26.1702 19.8077L23.3337 18.8156C23.1655 18.7565 22.9812 18.7565 22.813 18.815L19.7908 19.8657V14.417ZM19.7908 21.5419L23.0716 20.4009L26.3894 21.5616L27.1594 27.7288L23.8126 26.5644C23.6433 26.5065 23.4601 26.5065 23.2919 26.5644L19.7908 27.7821V21.5419ZM13.3652 7.52104H18.208V12.7407L15.6602 11.8548C15.4932 11.7962 15.3099 11.7962 15.1418 11.8542L12.7192 12.6909L13.3652 7.52104ZM18.208 21.5419V27.7821L14.707 26.5644C14.54 26.5065 14.3567 26.5065 14.1874 26.5644L10.8395 27.7288L11.6107 21.564L14.9273 20.401L18.208 21.5419ZM12.5001 14.4419L15.3992 13.4399L18.2079 14.417V19.8657L15.187 18.815C15.0177 18.7565 14.8344 18.7565 14.6651 18.8156L11.8286 19.8095L12.5001 14.4419ZM6.95115 7.52104H11.7695L11.112 12.783L8.46329 11.8553C8.29511 11.7961 8.11193 11.7955 7.94375 11.8536L5.67317 12.6329L6.95115 7.52104ZM5.21627 14.4634L8.19892 13.44L10.9102 14.3904L10.2214 19.9128L7.03924 18.8145C6.86995 18.756 6.6867 18.7566 6.51741 18.8162L3.89658 19.7423L5.21627 14.4634ZM3.43501 21.5836L6.78415 20.4008L10.0196 21.5174L9.23101 27.8273L5.58388 26.5644C5.4992 26.5354 5.41229 26.5203 5.3253 26.5203C5.23713 26.5203 5.14784 26.5354 5.06323 26.5644L1.91589 27.6649L3.43501 21.5836ZM36.4157 30.1572L32.916 28.9394C32.7478 28.8815 32.5646 28.8815 32.3965 28.9394L28.1034 30.4319L23.8126 28.9394C23.6433 28.8815 23.4601 28.8815 23.2919 28.9394L19 30.4319L14.707 28.9394C14.54 28.8815 14.3567 28.8815 14.1874 28.9394L9.89438 30.4331L5.58388 28.9394C5.4992 28.9104 5.41229 28.8953 5.3253 28.8953C5.23713 28.8953 5.14784 28.9104 5.06323 28.9394L1.5831 30.156V29.4579L5.3253 28.1509L9.63692 29.6434V29.6446C9.64619 29.6469 9.65317 29.6492 9.66126 29.6516C9.67633 29.6562 9.69258 29.6608 9.70883 29.6643C9.71811 29.6666 9.72739 29.6689 9.73667 29.6701C9.75173 29.6736 9.76799 29.6771 9.78305 29.6794C9.78765 29.6794 9.79233 29.6806 9.79701 29.6817C9.8051 29.6829 9.81326 29.6829 9.82016 29.684C9.82595 29.684 9.83063 29.684 9.83642 29.6852C9.85616 29.6864 9.87583 29.6875 9.89668 29.6875C9.90945 29.6875 9.92221 29.6863 9.93609 29.6852C9.94537 29.6852 9.95465 29.6852 9.96393 29.684C9.97788 29.6828 9.99176 29.6805 10.0068 29.6794C10.0149 29.6782 10.0231 29.6771 10.0312 29.6759C10.0451 29.6736 10.059 29.6701 10.0729 29.6666C10.0822 29.6643 10.0902 29.6631 10.0984 29.6608C10.1124 29.6574 10.1239 29.6528 10.1378 29.6493C10.1436 29.647 10.1494 29.6458 10.1564 29.6435L14.4471 28.151L18.7402 29.6435C18.7425 29.6447 18.7472 29.6458 18.7507 29.647C18.7611 29.6505 18.7727 29.6539 18.7843 29.6574C18.797 29.6609 18.8098 29.6632 18.8214 29.6667C18.833 29.669 18.8434 29.6713 18.8539 29.6737C18.869 29.676 18.884 29.6783 18.898 29.6807C18.9073 29.6819 18.9165 29.683 18.9258 29.6842C18.9513 29.6865 18.9745 29.6876 19 29.6876C19.0244 29.6876 19.0487 29.6865 19.0731 29.6842C19.0835 29.683 19.0916 29.6819 19.1009 29.6807C19.116 29.6784 19.1299 29.6761 19.145 29.6737C19.1555 29.6714 19.167 29.6691 19.1786 29.6667C19.1902 29.6632 19.2018 29.6609 19.2145 29.6574C19.2261 29.6539 19.2377 29.6505 19.2493 29.647C19.2528 29.6458 19.2563 29.6447 19.2598 29.6435L23.5518 28.151L27.8436 29.6435C27.8506 29.6458 27.8552 29.647 27.8622 29.6493C27.8749 29.6528 27.8877 29.6574 27.9016 29.6608C27.9097 29.6631 27.9178 29.6643 27.9271 29.6666C27.9411 29.6701 27.955 29.6736 27.9688 29.6759C27.9769 29.6771 27.9851 29.6782 27.9944 29.6794C28.0083 29.6817 28.0222 29.6829 28.0361 29.684C28.0477 29.6852 28.0616 29.6852 28.0732 29.6863C28.0825 29.6863 28.0929 29.6875 28.1033 29.6875C28.1231 29.6875 28.1427 29.6863 28.1636 29.6852C28.1682 29.684 28.1752 29.684 28.181 29.6829C28.1879 29.6829 28.1949 29.6817 28.2018 29.6817C28.2064 29.6805 28.2099 29.6794 28.2146 29.6794C28.2308 29.6771 28.2482 29.6736 28.2644 29.6701C28.2725 29.6689 28.2818 29.6666 28.2911 29.6643C28.3062 29.6608 28.3224 29.6562 28.3375 29.6516C28.3468 29.6493 28.3537 29.647 28.363 29.6435L32.6561 28.151L36.4157 29.4591V30.1572Z" fill="black"/>
</svg>
