<svg width="38" height="38" viewBox="0 0 38 38" fill="none" xmlns="http://www.w3.org/2000/svg">
<g clip-path="url(#clip0)">
<path d="M16 12.5L10 8.5L9.5 11.5L16.5 16L21.5 11.5L25.5 14V8.5L22 6.5L16 12.5Z" fill="#F2C94C"/>
<path d="M18.5 4L15 1.5V5.5L18.5 4Z" fill="#F2C94C"/>
<path d="M8.5 24.5V28.5L17.5 24.5V21H17L8.5 24.5Z" fill="#F2C94C"/>
<path d="M37.9624 33.8058C37.926 33.689 37.8559 33.5855 37.761 33.5083C37.7446 33.4948 37.735 33.4762 37.717 33.4642L23.8456 24.2691C23.8221 24.2578 23.7979 24.248 23.7732 24.2397C23.6643 24.1863 23.5428 24.1643 23.4221 24.176C23.2991 24.1889 23.1834 24.2404 23.0917 24.3234C23.0704 24.3368 23.0501 24.3515 23.0307 24.3674L21.2649 26.28L18.3825 24.3569V20.8987C18.3794 20.8782 18.3754 20.8578 18.3702 20.8377C18.3668 20.7983 18.3596 20.7594 18.3488 20.7213C18.344 20.7049 18.3467 20.6881 18.3405 20.6719L18.335 20.6632C18.3047 20.6091 18.2714 20.5568 18.2353 20.5063C18.2226 20.4908 18.2149 20.4708 18.2009 20.4566C18.182 20.4412 18.1623 20.4269 18.1418 20.4138C18.1253 20.4003 18.1155 20.3816 18.0973 20.3696L1.01113 9.13696C0.816686 9.00941 0.567883 8.99866 0.363204 9.10915C0.158526 9.21958 0.0308239 9.43338 0.0306756 9.66601V27.7388C-0.055497 28.0042 0.0446175 28.2946 0.275993 28.4505L14.5084 37.8798C14.5519 37.9001 14.5954 37.9203 14.6389 37.9407C14.7084 37.9683 14.7824 37.9832 14.8572 37.9849H37.3672C37.5351 37.9849 37.6961 37.9183 37.8148 37.7995C37.9334 37.6809 38.0001 37.5199 38.0001 37.352V33.992C37.9971 33.9718 37.9931 33.9517 37.988 33.932C37.9839 33.8891 37.9753 33.8469 37.9624 33.8058ZM20.3955 27.2217L17.3227 30.5498C17.311 30.5627 17.2998 30.5763 17.289 30.59C17.2757 30.6041 17.2702 30.6231 17.2583 30.6383C17.2469 30.6527 17.2307 30.6609 17.2204 30.6765C17.2117 30.6953 17.204 30.7147 17.1972 30.7343C17.1593 30.8068 17.1357 30.8859 17.1276 30.9672C17.1259 30.9866 17.1168 31.0042 17.1168 31.0238V33.6385L9.60956 28.6334L17.6755 25.407L20.3955 27.2217ZM17.1169 24.2669L8.89022 27.5576V25.1238L17.1169 21.8319V24.2669ZM1.29635 10.8396L16.3889 20.7615L8.33121 23.9843L1.29635 19.2943V10.8396ZM15.0487 36.7192L1.29635 27.6078V20.8153L7.62455 25.0342V28.4924C7.62588 28.5642 7.6396 28.6351 7.66504 28.7022C7.66793 28.7106 7.66637 28.7191 7.66964 28.7272C7.67335 28.7365 7.68032 28.7433 7.68447 28.7524C7.70197 28.7903 7.72325 28.8264 7.74802 28.8601C7.75848 28.8745 7.76708 28.8901 7.77858 28.9035C7.81566 28.9476 7.85859 28.9865 7.90628 29.0189L7.9065 29.0191L7.90672 29.0192L17.3986 35.3471C17.5928 35.4766 17.8425 35.4887 18.0483 35.3786C18.254 35.2684 18.3825 35.054 18.3825 34.8206V32.1952L25.2814 36.719H15.0487V36.7192ZM36.7344 36.7192H27.5889L18.7194 30.9031L23.5952 25.6224L36.7344 34.3322V36.7192H36.7344Z" fill="black"/>
<path d="M37.998 0.638264C37.9977 0.575674 37.988 0.513529 37.9694 0.453757C37.9661 0.443449 37.9588 0.435588 37.955 0.425576C37.9449 0.402216 37.9334 0.379524 37.9203 0.357572C37.8976 0.313077 37.8695 0.271548 37.8368 0.233801C37.8195 0.214149 37.8009 0.195609 37.7812 0.17833C37.7429 0.145107 37.7008 0.116778 37.6557 0.0937892C37.635 0.0815529 37.6135 0.0705774 37.5915 0.0608626C37.5202 0.0320889 37.4441 0.016738 37.3671 0.0156256H17.1169C17.0651 0.0155515 17.0135 0.0219291 16.9633 0.0347586L14.432 0.667557C14.3631 0.684762 14.2977 0.713387 14.2383 0.752321C14.2343 0.754916 14.2317 0.759366 14.2278 0.762035C14.1681 0.803787 14.1161 0.855624 14.0741 0.915174C14.0699 0.921106 14.0632 0.923998 14.0591 0.930154C14.0487 0.945727 14.0475 0.96397 14.0386 0.980063C14.0127 1.02582 13.9926 1.07462 13.9791 1.12541C13.9719 1.15456 13.9668 1.18415 13.9641 1.21403C13.959 1.23621 13.9553 1.2586 13.9527 1.28115V5.27246L9.30083 7.01675C9.29171 7.02016 9.28593 7.0278 9.2771 7.03158C9.2636 7.03729 9.24914 7.03907 9.23594 7.04582C9.18277 7.07289 9.13375 7.10737 9.09029 7.14823C9.08584 7.15239 9.08332 7.1578 9.07902 7.16195C9.03208 7.20964 8.993 7.26444 8.96333 7.32443C8.95406 7.3426 8.94672 7.36033 8.93931 7.37924C8.91765 7.43411 8.90386 7.49181 8.89837 7.55054C8.89696 7.56552 8.89266 7.57947 8.89229 7.59459C8.89214 7.59971 8.89021 7.60431 8.89021 7.60943V11.4064C8.89029 11.6087 8.98706 11.7989 9.15073 11.9181L16.1065 16.977C16.2156 17.0581 16.3479 17.1018 16.4838 17.1018H16.4881C16.5178 17.1017 16.5474 17.0994 16.5768 17.0949H16.5771C16.7093 17.0755 16.832 17.0145 16.9272 16.9207C16.9377 16.9108 16.9476 16.8997 16.9574 16.8892L21.1921 12.1837L25.6288 15.0995C25.6432 15.1089 25.6593 15.1124 25.6742 15.1205C25.6868 15.1274 25.698 15.1347 25.7111 15.1407C25.7264 15.1478 25.7416 15.1532 25.7574 15.1591C25.827 15.1867 25.9009 15.2017 25.9758 15.2033H25.9764L25.9768 15.2032L25.9771 15.2033L25.9816 15.2026C26.0387 15.2015 26.0954 15.1928 26.1501 15.1765C26.1666 15.1718 26.182 15.1647 26.1982 15.1586C26.212 15.1533 26.2255 15.1489 26.2388 15.1428C26.2663 15.1298 26.2929 15.1148 26.3183 15.098C26.3275 15.092 26.338 15.09 26.3469 15.0835L37.7377 6.85679C37.7515 6.84692 37.7581 6.8318 37.7708 6.82104C37.8951 6.71055 37.9734 6.55748 37.9903 6.39211C37.9916 6.37535 38 6.36103 38 6.3439V0.651464V0.648424L37.998 0.638264ZM15.2184 2.46369L17.4593 3.95769L15.2184 4.79784V2.46369ZM15.8512 15.2262L10.1558 11.0844V8.85226L15.8512 12.994V15.2262ZM21.5466 9.8979L17.1169 14.8202V12.9149L21.5466 7.99261V9.8979ZM25.3436 13.3972L22.0487 11.2318L22.6497 10.5641C22.7544 10.4479 22.8123 10.2971 22.8123 10.1408V7.52622L25.3436 9.21378V13.3972ZM25.962 8.10496L22.5305 5.8173C22.5176 5.80863 22.5025 5.80788 22.4893 5.80039C22.4462 5.7645 22.3932 5.74277 22.3374 5.73817C22.3129 5.73128 22.288 5.72586 22.2628 5.72208C22.2095 5.71548 22.1555 5.7157 22.1023 5.72282C22.0824 5.72527 22.0628 5.72356 22.0433 5.72794C21.9733 5.74359 21.9065 5.7711 21.8457 5.80922C21.8284 5.82005 21.8147 5.83525 21.7984 5.84778C21.7664 5.86914 21.7366 5.89354 21.7092 5.92046L16.3951 11.8247L10.8462 7.78919L19.0605 4.70914C19.0684 4.70618 19.0733 4.69958 19.081 4.69632C19.1496 4.66888 19.2127 4.62942 19.2674 4.57989C19.2749 4.57299 19.2799 4.56453 19.287 4.55727C19.3158 4.5299 19.3418 4.49987 19.3649 4.46753C19.3744 4.45315 19.3755 4.43631 19.3837 4.42148C19.4612 4.27494 19.4809 4.10467 19.439 3.94434C19.4343 3.92758 19.4372 3.91068 19.4309 3.89406C19.4199 3.87382 19.4077 3.85417 19.3943 3.83533C19.3573 3.75843 19.3035 3.69087 19.2368 3.63762C19.2193 3.62294 19.2088 3.60292 19.1893 3.58994L16.127 1.54827L17.1948 1.28115H35.41L25.962 8.10496ZM36.7344 6.02027L26.6092 13.3329V9.19895L36.7344 1.88599V6.02027Z" fill="black"/>
</g>
<defs>
<clipPath id="clip0">
<rect width="38" height="38" fill="white"/>
</clipPath>
</defs>
</svg>
