<svg width="1920" height="601" viewBox="0 0 1920 601" fill="none" xmlns="http://www.w3.org/2000/svg">
<path d="M1112.26 253.042L1179.14 259.53L1290.44 245.056L1232.04 234.575L1112.26 253.042Z" fill="#4F4F4F"/>
<path d="M1232.04 212.116L1111.76 236.572V253.042L1232.04 234.575L1290.93 245.056V226.59L1232.04 212.116Z" fill="#BDBDBD"/>
<path d="M1172.65 415.746L1151.19 418.74L1220.06 434.212L1244.02 429.72L1172.65 415.746Z" fill="#4F4F4F"/>
<path d="M1197.6 400.773L1173.65 404.766L1245.52 418.241L1268.48 413.25L1197.6 400.773Z" fill="#4F4F4F"/>
<path d="M1520.52 416.744V403.268L1284.45 495.101L899.646 382.806V393.287L1284.45 520.056L1520.52 416.744Z" fill="#E0E0E0"/>
<path d="M1520.52 403.269L1284.45 494.602L900.146 382.806L1035.9 371.826L1179.14 394.784V403.768L1172.65 404.766V415.247L1150.19 418.74V430.219L1220.56 447.688L1249.01 440.7L1269.47 435.21L1291.43 439.702L1451.64 397.279L1520.52 403.269Z" fill="#BDBDBD"/>
<path d="M1179.35 119.469V222.794" stroke="#333333" stroke-linecap="round" stroke-linejoin="round"/>
<path d="M1111.89 253.057L1179.35 259.634L1291.23 245.358" stroke="#333333" stroke-linecap="round" stroke-linejoin="round"/>
<path d="M1179.35 259.635V403.418" stroke="#333333" stroke-linecap="round" stroke-linejoin="round"/>
<path d="M1197.66 373.912L1179.35 371.878" stroke="#333333" stroke-linecap="round" stroke-linejoin="round"/>
<path d="M1179.35 137.308L1036.58 192.196V371.879L1179.35 394.821" stroke="#333333" stroke-linecap="round" stroke-linejoin="round"/>
<path d="M1291.22 439.638L1451.05 397.554V163.838L1291.22 71.4517V439.638Z" stroke="#333333" stroke-linecap="round" stroke-linejoin="round"/>
<path d="M1451.05 361.88L1291.22 384.303L1269.47 381.877" stroke="#333333" stroke-linecap="round" stroke-linejoin="round"/>
<path d="M1179.35 119.469L1175.76 114.575L1291.22 64.1465L1455.98 161.105L1451.05 163.84L1291.22 71.4527L1179.35 119.469Z" stroke="#333333" stroke-linecap="round" stroke-linejoin="round"/>
<path d="M1291.22 64.1465V71.4527" stroke="#333333" stroke-linecap="round" stroke-linejoin="round"/>
<path d="M1291.23 226.484L1232.39 211.941L1111.89 236.623V253.058L1232.15 234.702L1291.23 245.359V226.484Z" stroke="#333333" stroke-linecap="round" stroke-linejoin="round"/>
<path d="M1232.39 211.941L1232.15 234.702" stroke="#333333" stroke-linecap="round" stroke-linejoin="round"/>
<path d="M1179.35 366.831L1036.58 353.495" stroke="#333333" stroke-linecap="round" stroke-linejoin="round"/>
<path d="M1269.47 413.486V280.459L1197.66 284.638V400.963L1269.47 413.486Z" stroke="#333333" stroke-linecap="round" stroke-linejoin="round"/>
<path d="M1269.47 435.446L1220.31 448.011L1150.24 430.538V418.842L1172.62 415.505V404.861L1200.65 400.499V285.927L1269.47 281.692" stroke="#333333" stroke-linecap="round" stroke-linejoin="round"/>
<path d="M1172.62 404.861L1245.34 418.548L1269.47 413.485V435.446L1291.23 439.639" stroke="#333333" stroke-linecap="round" stroke-linejoin="round"/>
<path d="M1245.34 418.548V430.048L1172.62 415.505" stroke="#333333" stroke-linecap="round" stroke-linejoin="round"/>
<path d="M1245.33 430.048L1220.31 434.423L1150.24 418.843" stroke="#333333" stroke-linecap="round" stroke-linejoin="round"/>
<path d="M1220.31 426.641V456.693" stroke="#333333" stroke-linecap="round" stroke-linejoin="round"/>
<path d="M1197.66 284.64L1200.65 285.93" stroke="#333333" stroke-linecap="round" stroke-linejoin="round"/>
<path d="M1208.47 293.949L1260.22 291.916V310.469H1208.47V293.949Z" fill="#F2C94C"/>
<path d="M1208.47 293.949L1260.22 291.916V310.469H1208.47V293.949Z" stroke="#333333" stroke-linecap="round" stroke-linejoin="round"/>
<path d="M1208.47 320.215V335.15L1260.22 336.679V320.748L1208.47 320.215Z" fill="#F2C94C"/>
<path d="M1208.47 320.215V335.15L1260.22 336.679V320.748L1208.47 320.215Z" stroke="#333333" stroke-linecap="round" stroke-linejoin="round"/>
<path d="M1216 248.934C1216 250.898 1206.47 252.496 1194.7 252.496C1182.93 252.496 1173.37 250.898 1173.37 248.934C1173.37 246.971 1182.9 245.358 1194.67 245.358C1206.44 245.358 1216 246.957 1216 248.934Z" fill="#F2C94C"/>
<path d="M1216 248.934C1216 250.898 1206.47 252.496 1194.7 252.496C1182.93 252.496 1173.37 250.898 1173.37 248.934C1173.37 246.971 1182.9 245.358 1194.67 245.358C1206.44 245.358 1216 246.957 1216 248.934Z" stroke="#333333" stroke-linecap="round" stroke-linejoin="round"/>
<path d="M1273.47 317.553L1287.32 317.132V336.274L1273.47 335.867V317.553Z" stroke="#333333" stroke-linecap="round" stroke-linejoin="round"/>
<path d="M1276.45 320.483V324.886L1284.53 324.732V320.202L1276.45 320.483Z" stroke="#333333" stroke-linecap="round" stroke-linejoin="round"/>
<path d="M1284.7 327.704H1276.45" stroke="#333333" stroke-linecap="round" stroke-linejoin="round"/>
<path d="M1284.53 330.382H1276.45" stroke="#333333" stroke-linecap="round" stroke-linejoin="round"/>
<path d="M1284.53 332.891L1276.45 332.737" stroke="#333333" stroke-linecap="round" stroke-linejoin="round"/>
<path d="M1337.58 272.858V349.865L1383.27 347.37V278.994L1337.58 272.858Z" fill="#F2C94C"/>
<path d="M1385.26 279.494V347.517L1417.7 345.374V283.985L1385.26 279.494Z" fill="#F2C94C"/>
<path d="M1337.58 272.858V351.46L1421.62 346.131V284.638L1337.58 272.858Z" stroke="#333333" stroke-linecap="round" stroke-linejoin="round"/>
<path d="M1337.58 350.016L1417.52 345.725V284.063" stroke="#333333" stroke-linecap="round" stroke-linejoin="round"/>
<path d="M1417.52 345.724L1421.62 346.131" stroke="#333333" stroke-linecap="round" stroke-linejoin="round"/>
<path d="M1383.19 279.253V347.562" stroke="#333333" stroke-linecap="round" stroke-linejoin="round"/>
<path d="M1385.17 347.463V279.52" stroke="#333333" stroke-linecap="round" stroke-linejoin="round"/>
<path d="M1417.21 244.058L1385.26 236.072V167.697L1417.21 181.671V244.058Z" fill="#F2C94C"/>
<path d="M1382.77 235.573L1337.35 224.593V146.735L1382.77 166.699V235.573Z" fill="#F2C94C"/>
<path d="M1421.62 245.288L1337.58 224.673V141.794L1421.62 180.541V245.288Z" stroke="#333333" stroke-linecap="round" stroke-linejoin="round"/>
<path d="M1417.52 244.277V181.564L1337.58 146.477" stroke="#333333" stroke-linecap="round" stroke-linejoin="round"/>
<path d="M1417.52 181.566L1421.62 180.542" stroke="#333333" stroke-linecap="round" stroke-linejoin="round"/>
<path d="M1385.17 236.34V167.373" stroke="#333333" stroke-linecap="round" stroke-linejoin="round"/>
<path d="M1383.19 235.865V166.504" stroke="#333333" stroke-linecap="round" stroke-linejoin="round"/>
<path d="M1266.71 74.8614V64.1474L1202.06 28.8223L1145.62 62.2683V69.1258L1166.63 77.3996V137.883" stroke="#333333" stroke-linecap="round" stroke-linejoin="round"/>
<path d="M1172.03 135.793V74.5381L1166.63 77.3989" stroke="#333333" stroke-linecap="round" stroke-linejoin="round"/>
<path d="M1172.03 74.5381L1213.74 92.6564" stroke="#333333" stroke-linecap="round" stroke-linejoin="round"/>
<path d="M1213.74 97.9843V52.7585L1221.17 48.874V94.7449" stroke="#333333" stroke-linecap="round" stroke-linejoin="round"/>
<path d="M1221.17 48.8755L1202.08 38.2036L1145.62 69.1254" stroke="#333333" stroke-linecap="round" stroke-linejoin="round"/>
<path d="M1202.06 28.8223L1202.08 38.204" stroke="#333333" stroke-linecap="round" stroke-linejoin="round"/>
<path d="M1146.51 283.985V342.793L1058.86 338.886V291.971L1096.29 288.477L1096.79 340.577L1098.78 340.666L1099.28 288.477L1146.51 283.985Z" fill="#F2C94C"/>
<path d="M1146.51 282.814V342.793L1055.69 338.866V291.243L1146.51 282.814Z" stroke="#333333" stroke-linecap="round" stroke-linejoin="round"/>
<path d="M1055.69 291.244L1058.78 292.044L1146.51 283.938" stroke="#333333" stroke-linecap="round" stroke-linejoin="round"/>
<path d="M1058.78 292.042V339.007" stroke="#333333" stroke-linecap="round" stroke-linejoin="round"/>
<path d="M1098.75 288.354V340.731" stroke="#333333" stroke-linecap="round" stroke-linejoin="round"/>
<path d="M1096.61 288.55V340.648" stroke="#333333" stroke-linecap="round" stroke-linejoin="round"/>
<path d="M1058.36 243.06V201.136L1098.78 187.161L1146.51 171.19V223.327L1098.78 233.577V187.161L1096.79 187.851V234.076L1058.36 243.06Z" fill="#F2C94C"/>
<path d="M1055.69 243.395V199.964L1146.51 168.313V223.327L1055.69 243.395Z" stroke="#333333" stroke-linecap="round" stroke-linejoin="round"/>
<path d="M1098.75 233.874V187.415" stroke="#333333" stroke-linecap="round" stroke-linejoin="round"/>
<path d="M1096.61 234.35V188.129" stroke="#333333" stroke-linecap="round" stroke-linejoin="round"/>
<path d="M1146.51 171.13L1058.35 201.169V242.804" stroke="#333333" stroke-linecap="round" stroke-linejoin="round"/>
<path d="M1179.35 132.948L1032.83 189.869L1036.58 192.197" stroke="#333333" stroke-linecap="round" stroke-linejoin="round"/>
<path d="M1055.69 199.965L1058.35 201.171" stroke="#333333" stroke-linecap="round" stroke-linejoin="round"/>
<path d="M1196.97 140.574V205.18L1224.06 199.08V130.336L1196.97 140.574Z" stroke="#333333" stroke-linecap="round" stroke-linejoin="round"/>
<path d="M1266.71 120.782L1239.03 130.265V196.145L1266.71 190.749V120.782Z" fill="#F2C94C"/>
<path d="M1266.71 115.485L1233.41 127.461V197.635L1266.71 190.749V115.485Z" stroke="#333333" stroke-linecap="round" stroke-linejoin="round"/>
<path d="M1224.06 199.14L1200.75 204.131V143.029L1224.06 135.091" fill="#F2C94C"/>
<path d="M1200.75 204.395V143.029L1224.06 135.091" stroke="#333333" stroke-linecap="round" stroke-linejoin="round"/>
<path d="M1196.97 140.575L1200.75 143.03" stroke="#333333" stroke-linecap="round" stroke-linejoin="round"/>
<path d="M1233.41 127.464L1238.79 130.114L1266.71 120.564" stroke="#333333" stroke-linecap="round" stroke-linejoin="round"/>
<path d="M1238.79 130.113V196.444" stroke="#333333" stroke-linecap="round" stroke-linejoin="round"/>
<path d="M1451.05 397.555L1520.34 403.417V416.599L1284.53 520.331L899.84 393.25V382.691L1036.58 371.878" stroke="#333333" stroke-linecap="round" stroke-linejoin="round"/>
<path d="M1520.34 403.417L1284.53 494.906L899.84 382.69" stroke="#333333" stroke-linecap="round" stroke-linejoin="round"/>
<path d="M1284.53 494.906V520.331" stroke="#333333" stroke-linecap="round" stroke-linejoin="round"/>
<path d="M1451.05 102.586V468.922" stroke="#333333" stroke-linecap="round" stroke-linejoin="round"/>
<path d="M1451.05 397.556L1530 404.217" stroke="#333333" stroke-linecap="round" stroke-linejoin="round"/>
<path d="M1520.34 394.819V426.639" stroke="#333333" stroke-linecap="round" stroke-linejoin="round"/>
<path d="M1235.87 513.796L1530 399.589" stroke="#333333" stroke-linecap="round" stroke-linejoin="round"/>
<path d="M1235.87 541.718L1530 412.379" stroke="#333333" stroke-linecap="round" stroke-linejoin="round"/>
<path d="M878.186 376.367L1333.28 509.127" stroke="#333333" stroke-linecap="round" stroke-linejoin="round"/>
<path d="M880.11 386.728L1330.23 535.419" stroke="#333333" stroke-linecap="round" stroke-linejoin="round"/>
<path d="M923.121 373.913L1306.43 469.483" stroke="#333333" stroke-linecap="round" stroke-linejoin="round"/>
<path d="M1210.09 450.62L1281.27 432.431" stroke="#333333" stroke-linecap="round" stroke-linejoin="round"/>
<path d="M1087.32 404.861L1306.43 453.564" stroke="#333333" stroke-linecap="round" stroke-linejoin="round"/>
<path d="M1150.24 413.485V434.422" stroke="#333333" stroke-linecap="round" stroke-linejoin="round"/>
<path d="M1140.83 420.26L1150.24 418.843" stroke="#333333" stroke-linecap="round" stroke-linejoin="round"/>
<path d="M1150.24 430.538L1140.83 432.432" stroke="#333333" stroke-linecap="round" stroke-linejoin="round"/>
<path d="M1220.31 434.422L1210.09 436.217" stroke="#333333" stroke-linecap="round" stroke-linejoin="round"/>
<path d="M1284.53 474.404V551" stroke="#333333" stroke-linecap="round" stroke-linejoin="round"/>
<path d="M1280.4 264.836L1514.23 297.623" stroke="#333333" stroke-linecap="round" stroke-linejoin="round"/>
<path d="M1280.4 355.079L1502.59 340.999" stroke="#333333" stroke-linecap="round" stroke-linejoin="round"/>
<path d="M1184.1 1.10938L1505.44 190.202" stroke="#333333" stroke-linecap="round" stroke-linejoin="round"/>
<path d="M1169.34 117.381L1435.82 1" stroke="#333333" stroke-linecap="round" stroke-linejoin="round"/>
<path d="M1505.44 383.25L1084.66 494.008" stroke="#333333" stroke-linecap="round" stroke-linejoin="round"/>
<path d="M1280.58 385.787L1505.44 354.263" stroke="#333333" stroke-linecap="round" stroke-linejoin="round"/>
<path d="M1272.87 382.256L1302.28 385.525" stroke="#333333" stroke-linecap="round" stroke-linejoin="round"/>
<path d="M1173.83 371.262L1180.01 371.949" stroke="#333333" stroke-linecap="round" stroke-linejoin="round"/>
<path d="M975.036 367.657L1303.67 429.528" stroke="#333333" stroke-linecap="round" stroke-linejoin="round"/>
<path d="M1248.55 417.875L1235.87 420.541" stroke="#333333" stroke-linecap="round" stroke-linejoin="round"/>
<path d="M1188.51 402.379L1166.32 405.844" stroke="#333333" stroke-linecap="round" stroke-linejoin="round"/>
<path d="M1245.34 99.2456L1505.44 219.203" stroke="#333333" stroke-linecap="round" stroke-linejoin="round"/>
<path d="M1520.34 416.599L1530 417.651" stroke="#333333" stroke-linecap="round" stroke-linejoin="round"/>
<path d="M1276.09 436.723L1462.11 472.539" stroke="#333333" stroke-linecap="round" stroke-linejoin="round"/>
<path d="M1172.76 260.461L1303.67 243.773" stroke="#333333" stroke-linecap="round" stroke-linejoin="round"/>
<path d="M1208.47 230.438L1303.67 247.602" stroke="#333333" stroke-linecap="round" stroke-linejoin="round"/>
<path d="M1208.47 206.023L1261.79 219.205" stroke="#333333" stroke-linecap="round" stroke-linejoin="round"/>
<path d="M1091.99 240.704L1272.87 203.64" stroke="#333333" stroke-linecap="round" stroke-linejoin="round"/>
<path d="M1272.87 228.488L1091.99 256.1" stroke="#333333" stroke-linecap="round" stroke-linejoin="round"/>
<path d="M1164.79 258.205L1106.09 252.497" stroke="#333333" stroke-linecap="round" stroke-linejoin="round"/>
<path d="M1111.89 236.623L1106.09 235.782" stroke="#333333" stroke-linecap="round" stroke-linejoin="round"/>
<path d="M1172.76 286.083L1303.67 278.482" stroke="#333333" stroke-linecap="round" stroke-linejoin="round"/>
<path d="M1173.83 396.798L1302.28 419.207" stroke="#333333" stroke-linecap="round" stroke-linejoin="round"/>
<path d="M1169.34 210.888L1473.56 147.951" stroke="#333333" stroke-linecap="round" stroke-linejoin="round"/>
<path d="M1190.3 22.3281L1277.52 70.4708" stroke="#333333" stroke-linecap="round" stroke-linejoin="round"/>
<path d="M1106.56 84.7046L1240.5 6.08887" stroke="#333333" stroke-linecap="round" stroke-linejoin="round"/>
<path d="M1106.09 90.7778L1250.07 11.9097" stroke="#333333" stroke-linecap="round" stroke-linejoin="round"/>
<path d="M1163.51 76.1647L1058.35 34.7954" stroke="#333333" stroke-linecap="round" stroke-linejoin="round"/>
<path d="M1145.62 62.2674L1062.77 27.2788" stroke="#333333" stroke-linecap="round" stroke-linejoin="round"/>
<path d="M1208.47 193.01L1520.34 269.508" stroke="#333333" stroke-linecap="round" stroke-linejoin="round"/>
<path d="M946.403 301.396L1179.35 279.758" stroke="#333333" stroke-linecap="round" stroke-linejoin="round"/>
<path d="M964.532 334.927L1179.35 344.224" stroke="#333333" stroke-linecap="round" stroke-linejoin="round"/>
<path d="M1071.42 356.747L963.381 345.668" stroke="#333333" stroke-linecap="round" stroke-linejoin="round"/>
<path d="M1088.64 380.236L964.532 360.309" stroke="#333333" stroke-linecap="round" stroke-linejoin="round"/>
<path d="M1169.34 136.845L957.357 219.205" stroke="#333333" stroke-linecap="round" stroke-linejoin="round"/>
<path d="M1080.04 175.494L1029.77 194.818" stroke="#333333" stroke-linecap="round" stroke-linejoin="round"/>
<path d="M949.492 236.972L1179.35 156.87" stroke="#333333" stroke-linecap="round" stroke-linejoin="round"/>
<path d="M949.492 266.871L1179.35 216.064" stroke="#333333" stroke-linecap="round" stroke-linejoin="round"/>
<path d="M1179.35 159.941L955.503 236.201" stroke="#333333" stroke-linecap="round" stroke-linejoin="round"/>
<path d="M1232.15 205.853V241.009" stroke="#333333" stroke-linecap="round" stroke-linejoin="round"/>
<path d="M1111.89 233.018V256.717" stroke="#333333" stroke-linecap="round" stroke-linejoin="round"/>
<path d="M1197.66 295.562V278.004" stroke="#333333" stroke-linecap="round" stroke-linejoin="round"/>
<path d="M1269.47 291.173V272.858" stroke="#333333" stroke-linecap="round" stroke-linejoin="round"/>
<path d="M1169.34 1L1514.23 200.358" stroke="#333333" stroke-linecap="round" stroke-linejoin="round"/>
<path d="M1283.47 74.7755L1451.05 2.83496" stroke="#333333" stroke-linecap="round" stroke-linejoin="round"/>
<path d="M1198.86 111.098L1169.34 123.775" stroke="#333333" stroke-linecap="round" stroke-linejoin="round"/>
<path d="M1036.58 147.951V389.562" stroke="#333333" stroke-linecap="round" stroke-linejoin="round"/>
<path d="M1145.62 59.0991V72.5477" stroke="#333333" stroke-linecap="round" stroke-linejoin="round"/>
<path d="M1202.06 22.3281V44.5974" stroke="#333333" stroke-linecap="round" stroke-linejoin="round"/>
<path d="M925.985 380.615L878.186 384.402" stroke="#333333" stroke-linecap="round" stroke-linejoin="round"/>
<path d="M899.839 393.25L878.186 394.821" stroke="#333333" stroke-linecap="round" stroke-linejoin="round"/>
<path d="M1291.22 439.639V541.716" stroke="#333333" stroke-linecap="round" stroke-linejoin="round"/>
<path d="M1291.22 64.1478V1" stroke="#333333" stroke-linecap="round" stroke-linejoin="round"/>
<path d="M1179.35 123.775V33.5059" stroke="#333333" stroke-linecap="round" stroke-linejoin="round"/>
<path d="M899.84 373.449V405.03" stroke="#333333" stroke-linecap="round" stroke-linejoin="round"/>
</svg>
