<svg xmlns="http://www.w3.org/2000/svg" xmlns:xlink="http://www.w3.org/1999/xlink" width="5812" height="1394" fill="none" xmlns:v="https://vecta.io/nano"><style><![CDATA[.B{fill:#fdd762}.C{fill:#e8a200}.D{fill:#150035}.E{opacity:.4}.F{fill:#fff}.G{fill:#f9bf30}.H{opacity:.2}.I{fill:#ffc856}.J{opacity:.7}]]></style><g class="I"><path d="M52 0h1920v1394H52zm3840 0h1920v1394H3892z"/><path d="M1972 0h1920v1394H1972z"/></g><path fill-rule="evenodd" d="M2048 0H0v1394h2195.53L2048 0zm936.7 0L4244 1394h1516V0H2984.7z" fill="#ff513f" style="mix-blend-mode:overlay" class="H"/><path d="M3631 1317l-281 77h532l-251-77z" fill="#ffce67"/><g style="mix-blend-mode:screen" opacity=".14"><g class="D"><path d="M2161.42 295.438c-3.6-11.352-11.6-12.74-29.37-24.767-14.95-10-32.47-16.982-50.52-19.207-18.06-2.225-28.87-3.373-38.44 1.39l-10.42 1.263-7.12 17.906-.16.39c-4.4 12.222.83 27.384 17.42 43.46 16.2 15.92 37.55 25.764 60.2 28.915 32 4.613 52.28-4.447 58.4-18.695l7.12-17.906-7.1-12.747z"/><path d="M2076.24 341.798c-13.63-5.423-25.93-13.026-36-22.89-17-16.23-23.32-33.18-18.13-47.35l.16-.39 7.9-19.852 11.74-1.188c10.65-5.23 23.18-3.852 40.3-1.547 18.44 2.38 36.5 9.117 52.08 19.826 5 3.337 8.96 5.82 12.7 7.758 9.1 5.43 14.87 9.077 18.08 18.02l8.35 14.145-7.9 19.852c-7.37 17.362-30.77 25.182-62.36 20.725-9.73-1.617-18.76-3.858-26.93-7.11zm-40.84-84.342l-6.35 15.96c-4.26 11.833 1.44 25.827 16.56 39.96 15.35 14.677 36.14 24.755 58.24 28.14 27.78 3.842 48.7-2.263 54.82-16.51l6.36-15.96-7.26-12.358c-2.27-6.765-6.24-9.247-14.96-14.523l-12.93-8.302c-14.57-9.855-31.3-16.517-48.97-18.587-18.05-2.225-27.94-3.453-36.56 1.23l-1.1.468-7.86.48z"/></g><path d="M2160.06 272.8c20.43 25.716 10.5 50.63-22.15 55.665-32.5 4.646-75.72-12.55-96.54-38.422-20.43-25.717-10.5-50.63 22.15-55.665 33.06-4.88 76.27 12.316 96.54 38.422z" class="F"/><g class="D"><path d="M2083.75 324.047c-17.9-7.126-34.65-18.3-45.02-31.897-10.76-13.752-14.2-27.75-9.56-39.428s16.77-19.48 34.04-22.076c34-4.96 78.36 12.702 99.65 39.66 10.76 13.752 14.2 27.75 9.56 39.428s-16.77 19.48-34.04 22.076c-16.72 2.363-36.33-.482-54.63-7.764zm31.3-78.63c-16.74-6.662-35.42-9.586-51.2-7.303-14.46 2.36-24.5 8.3-28.2 17.632s-.66 20.93 8.38 32.194c19.8 25.017 61.46 41.595 93.04 37.028 14.46-2.36 24.5-8.3 28.2-17.63s.66-20.93-8.38-32.195c-9.36-12.743-25.1-23.063-41.83-29.725zm26.27 32.553c-14.96-16.78-44.94-28.7-67.34-26.803s-28.45 17.087-13.48 33.866 44.94 28.708 67.34 26.803c22.02-2.06 28.06-17.242 13.48-33.866z"/><path d="M2089.95 308.477c-12.85-5.113-24.37-12.406-32.1-21.34-8.1-9.088-10.77-18.264-7.67-26.05s11.34-12.623 23.47-13.656c23.34-1.985 54.87 10.564 70.46 28.042 8.1 9.09 10.77 18.265 7.67 26.05s-11.34 12.623-23.48 13.655c-11.74 1.187-25.52-1.6-38.36-6.702zm19.05-47.88c-11.67-4.648-24.28-6.96-34.94-6.24-9.33.794-15.63 4.15-17.64 9.21-2.02 5.06.25 11.825 6.5 18.816 14.34 16.08 43.15 27.544 64.23 25.563 9.33-.794 15.63-4.15 17.64-9.21s-.25-11.825-6.5-18.816c-6.86-7.7-17.6-14.674-29.3-19.322z"/></g><path d="M2137.3 288.1c-14.96-16.78-44.94-28.71-67.34-26.803-8 .87-13.84 3.058-17.65 6.955.24 5.056 2.82 11.043 8.05 17.18 14.96 16.78 44.93 28.708 67.34 26.802 8-.87 13.84-3.058 17.65-6.954-.1-5.446-2.67-11.432-8.05-17.18z" class="I"/><path d="M2089.95 308.478c-12.85-5.113-24.37-12.406-32.1-21.34-5.6-6.292-8.82-12.977-8.98-19.356l.07-1.323.86-1.013c4.35-4.13 11.42-7.177 19.82-7.892 23.34-1.985 54.87 10.564 70.46 28.042 5.6 6.292 8.8 12.977 8.98 19.357l-.08 1.322-.85 1.013c-4.35 4.13-11.42 7.177-19.83 7.892-11.74 1.187-25.52-1.6-38.36-6.702zm-34-39.23c.7 3.888 2.97 8.397 6.95 13.136 14.34 16.08 43.14 27.544 64.23 25.563 6.14-.71 10.73-2.042 14.07-4.77-.7-3.89-2.97-8.398-6.95-13.136-14.34-16.08-43.15-27.545-64.23-25.563-5.75.865-10.88 2.43-14.07 4.77z" class="D"/><path d="M2128.2 331.362l-5.06-2.014-5.9 14.792 5.06 2.014 5.9-14.792zm-91.6-50.88l-5.06-2.014-5.9 14.792 5.06 2.014 5.9-14.792zm82.44-19.047l-5.06-2.014-3.87 9.73 5.06 2.015 3.87-9.732z" class="I"/><g class="D"><path d="M2067.77 262.223l-3.25 8.174 9.58 8.775 8.47-6.55 30.57 38.77c3.8.616 7.4.688 10.97.76l5.2-.63 3.25-8.174-43.72-43.104-21.08 1.982z"/><path d="M2112.2 313.728l-29.7-37.526-8.3 6.16-12.63-11.337 4.5-11.29 24.2-2.998 45.98 45.356-4.5 11.288-6.68.946c-4.13.162-7.7.09-11.52-.525l-1.32-.076zm-28.4-44.22l1.25 1.4 29.7 37.525c3.42.46 6.45.767 9.26.53l3.34-.472 2-5.06-41.07-40.696-18.43 2.132-1.86 4.672 6.7 5.823 7.6-5.537 1.48-.314z"/></g><path d="M2086.22 264.603l-8.86 6.395-9.6-8.775 12.05-8.734 12.44-1.81 40.47 51.278-14.47 2.36-32.04-40.712z" class="F"/><path d="M2117.18 308.04l-31.42-40.012-8.32 6.16-14.02-12.346 15.77-11.308 14.86-2.204 44.44 56.017-21.3 3.693zm-30.1-46.705l1.24 1.398 31.2 39.468 8.17-1.26-36.65-46.15L2081 256.2l-8.86 6.395 5.3 4.815 7.6-5.537 2.03-.548z" class="D"/></g><path opacity=".3" d="M3548 554l-268 73-97.5-169-96 22.5-54.5-134 357-73.5 638.5 316.5L3711 681l-163-127z" fill="url(#A)"/><g style="mix-blend-mode:screen" opacity=".15"><g class="D"><path d="M2100.2 891.77c-17.3-6.545-26.72 1.895-58.5 11.97-26.6 8.598-51.98 23.246-72.08 43.12s-31.9 31.958-35.3 48.204l-8.5 13.928 15.3 26.5c10.65 17.15 34.2 25.36 69.78 20.6 35.03-4.43 67.58-20.97 93.23-45.55 36.42-34.565 44.9-68.034 33.43-89.22l-14.97-25.935-22.38-3.615z"/><path d="M2074.68 1040.3c-19.73 11.4-40.85 19.08-62.56 21.84-36.16 5.1-62.92-3.5-75.2-23.48l-.32-.57-16.6-28.75 9.86-15.47c3.88-18.025 17.62-31.975 36.92-50.634 20.66-20.2 46.27-35.737 74.34-44.42 8.87-2.866 15.72-5.32 21.68-8.01 15.4-5.882 25.4-9.4 39.4-4.697l25.3 3.44 16.6 28.755c14.1 25.697 1.08 61.77-34.78 96.007-11.34 10.3-22.77 19.16-34.6 26zm-142.18-31.42l13.35 23.12c10.33 16.58 32.9 23.1 64.68 18.28 32.68-4.6 65-20.23 90.4-43.93 31.44-30.177 44.14-61.565 32.66-82.752l-.65-1.127-12.7-21.99-22.06-3.05c-10.43-3.75-17.3-1.296-32.12 4.26l-22.57 7.772c-26.05 8.272-50.3 22.27-69.83 41.818-20.1 19.873-31.1 30.743-33.7 45.774l-.48 1.78-6.98 10.045z"/></g><path d="M2071.27 871.63c51.03-.147 71.87 35.937 46.55 80.625-25.65 44.124-88.23 80.255-139.83 80.725-51.03.15-71.87-35.934-46.55-80.622 25.88-45.013 88.47-81.146 139.83-80.728z" class="F"/><g class="D"><path d="M2060.27 1014.05c-25.93 14.97-55.7 24.63-82.25 24.18-27.14-.12-47.53-9.4-57.3-26.3-9.77-16.913-7.6-39.2 5.85-62.77 26.7-46.228 90.96-83.337 144.34-83.332 27.13.12 47.52 9.398 57.3 26.312 9.76 16.914 7.6 39.2-5.86 62.77-13.22 22.67-35.58 43.845-62.08 59.15zm-65.75-113.895c-24.24 13.998-45.8 33.96-58.22 55.413-11.05 19.914-13.48 37.852-5.66 51.382 7.8 13.53 24.88 20.97 47.33 20.8 49.58-.06 109.9-34.893 134.75-77.802 11.05-19.915 13.48-37.852 5.67-51.384-7.82-13.53-24.9-20.965-47.34-20.785-24.55-.86-52.3 8.4-76.53 22.386zm65-.693c-34.87 2.093-78.3 27.158-97.54 56.315s-6.55 51.143 28.32 49.053c34.88-2.1 78.3-27.16 97.54-56.316 18.7-28.83 6-50.82-28.32-49.052z"/><path d="M2047.25 991.492c-18.6 10.738-38.6 17.778-56.92 18.588-18.9 1.13-32.65-4.46-39.16-15.737s-4.47-25.983 5.95-41.776c20.06-30.37 65.72-56.738 102.05-58.918 18.9-1.134 32.65 4.457 39.16 15.733s4.47 25.983-5.95 41.776c-9.87 15.467-26.52 29.592-45.13 40.334zm-40.04-69.35c-16.9 9.766-31.87 22.914-41.26 36.603-8.02 12.148-10 23.06-5.76 30.388s14.67 11.076 29.2 10.206c33.42-2.006 75.14-26.094 93.03-53.7 8.02-12.148 10-23.06 5.76-30.388s-14.67-11.08-29.2-10.207c-15.98.96-34.85 7.343-51.77 17.108z"/></g><path d="M2068 914.12c-34.88 2.094-78.3 27.16-97.54 56.315-6.66 10.608-9.6 19.827-8.52 28.22 6.4 4.575 16.18 7.195 28.7 6.735 34.87-2.1 78.3-27.157 97.54-56.313 6.65-10.608 9.6-19.827 8.5-28.22-6.72-5.138-16.5-7.76-28.7-6.736z" class="I"/><path d="M2047.25 991.493c-18.6 10.737-38.6 17.777-56.92 18.587-13.08.78-24.32-1.75-32.26-7.7l-1.54-1.37-.4-2.015c-.85-9.283 2.25-20.844 9.47-31.778 20.05-30.37 65.72-56.738 102.05-58.918 13.08-.785 24.3 1.748 32.25 7.69l1.54 1.366.4 2.017c.85 9.282-2.24 20.844-9.46 31.777-9.87 15.468-26.52 29.593-45.13 40.335zm-80.57 3.67c5.42 2.882 13.1 4.463 22.7 4.178 33.42-2.006 75.14-26.094 93.03-53.7 5.05-8.18 7.85-15.055 7.74-21.757-5.43-2.883-13.1-4.464-22.7-4.18-33.43 2.006-75.15 26.095-93.03 53.71-4.5 7.853-7.52 15.618-7.74 21.757z" class="D"/><path d="M2112 966.898l-7.33 4.232 12.37 21.425 7.33-4.232-12.37-21.425zm-150.25 62.682l-7.33 4.24 12.37 21.42 7.33-4.23-12.37-21.43zm56.15-118.87l-7.33 4.23 8.14 14.096 7.33-4.232-8.14-14.095z" class="I"/><g class="D"><path d="M1969.5 973.99l6.84 11.84 19.93-3.238.17-16.636 76.7.063c4.42-4.058 7.96-8.353 11.5-12.65l4.25-6.963-6.84-11.84-94.66 11.807-17.9 27.616z"/><path d="M2075.1 969.404l-74.37.09-.5 16.07-25.98 4.477-9.44-16.35 19.64-32.388 99.6-12.395 9.44 16.35-5.3 9.067c-3.77 5.185-7.3 9.48-11.73 13.538l-1.37 1.54zm-81.27-7.956l2.9-.174 74.37-.09c3.86-3.732 7.16-7.138 9.56-10.783l2.65-4.534-4.23-7.33-89.2 10.895-15.15 24.535 3.9 6.766 13.55-2.564.58-14.62 1.04-2.104z"/></g><path d="M1990.16 953.792l-.74 16.962-19.93 3.238.95-23.1 9.78-16.92 101.5.032-11.05 19.915-80.5-.127z" class="F"/><g class="D"><path d="M2072.94 957.867l-79.05-.213-.5 16.072-28.56 5.214 1.4-30.127 11.62-20.24 111.1-.253-16.02 29.546zM1987 949.61l2.9-.174 78.17-.025 6.33-11.172-91.57.246-7.93 13.602-.74 16.96 10.98-1.826.58-14.618 1.28-2.994z"/><path d="M2248.6 871.485c-13.86-12.293-26.12-7.474-58.9-9.59-28.1-1.813-56.67 3.4-82.55 14.58-25.87 11.18-41.18 18.515-50.24 32.767l-13.12 9.83 4.98 29.452.32.564c3.8 19.605 23.18 36.235 57.78 44.075 34.6 7.837 70.83 4.207 103.56-9.424 46.1-19.102 66.57-47.456 63.07-71.747l-.1-1.453-4.65-28.888-20.15-10.166z"/><path d="M2234.06 979.112c-6.2 3.58-13.3 6.923-20.95 10.59-34.42 14.607-72.44 17.767-107.03 9.925-35.5-8.08-57.53-25.423-61.83-48.5l-.33-.564-5.47-32.922 15.37-11.132c10.43-15.793 27.75-23.54 52.5-34.07 26.43-11.503 55.9-16.48 85.12-15.318 9.37.605 16.07.494 22.78.383 16.63.17 27.13.122 38.8 9.922l22.02 12.095 5.48 32.922c2.04 24.378-14.33 48.11-46.46 66.666zm-183.73-57.808l3.9 26.308c3.48 19.042 23 33.33 54.04 40.216 32.26 7.69 67.94 4.38 100.1-8.925 39.8-16.973 62.8-42.27 59.62-65.997l-.1-1.453-4.15-25.42-19.02-10.816c-8.03-7.394-15.62-7.522-31.37-7.45-6.13-.215-14.3-.017-23.66-.622-27.22-1.574-55.22 3.315-79.96 13.842-25.87 11.178-40.06 17.863-47.75 30.575l-1.37 1.54-10.3 8.202z"/></g><path d="M2228.77 842.345c48.04 18.116 54.6 59.432 14.86 92.152s-111.4 44.02-158.9 25.58c-48.04-18.117-54.6-59.432-14.86-92.152 39.74-32.72 110.84-43.696 158.9-25.58z" class="F"/><g class="D"><path d="M2229.97 949.902c-42.28 24.414-104.27 31.634-147.54 15.273-25.08-9.58-40.9-25.255-43.8-44.622s6.7-39.195 27.53-56.488c40.87-33.37 115.1-45.4 164.37-26.5 25.08 9.578 40.9 25.254 43.8 44.622s-6.7 39.194-27.53 56.487c-4.42 4.057-10.63 7.638-16.83 11.22zm-140.66-88.685c-5.64 3.255-10.95 7.074-15.7 10.567-17.78 14.776-25.86 30.72-23.78 46.054 2.65 15.008 15.4 27.952 36.9 36.578 46.27 17.64 115.02 6.513 153.4-24.667 17.78-14.776 25.86-30.72 23.78-46.053-2.66-15.008-15.4-27.953-36.9-36.578-40.28-15.083-98.23-8.688-137.7 14.1zm118.32 3.105c-33-10.27-82.7-2.62-111.2 18.34-27.93 20.635-24.1 45.5 8.9 55.76s82.7 2.62 111.2-18.34c28.82-20.398 24.1-45.5-8.88-55.76z"/><path d="M2212.12 929.388c-29.9 17.253-76.45 23.84-108 13.482-18.44-5.893-29.55-16.02-31.46-28.446-2.24-12.99 5.46-25.703 20.83-36.835 29.06-21.286 81.35-29.675 116.12-18.928 18.44 5.893 29.55 16.02 31.46 28.446 2.24 12.99-5.46 25.703-20.83 36.835-2.5 2.19-5.32 3.82-8.13 5.446zm-104.95-47.66c-2.82 1.627-5.08 2.93-7 4.795-11.75 8.29-17.28 18.246-16.2 26.64s9.68 15.46 23.67 20.163c31.54 10.357 79.47 2.23 106.03-16.865 11.76-8.29 17.28-18.246 16.2-26.64-1.1-8.394-9.68-15.462-23.67-20.164-28.87-9.642-71.4-3.88-99.03 12.07z"/></g><path d="M2210.36 880.787c-33-10.27-82.7-2.62-111.2 18.34-10.06 7.313-16 15.253-18.15 23.257 4.47 6.44 12.4 12.38 24.3 16.042 33 10.27 82.7 2.62 111.2-18.34 10.07-7.313 16-15.253 18.15-23.257-3.9-6.766-12.4-12.38-24.3-16.042z" class="I"/><path d="M2212.1 929.4c-29.88 17.252-76.44 23.84-107.98 13.482-12.78-3.9-22.5-10.317-27.38-18.774l-1.3-2.256.7-2.667c2.06-9.458 9.13-18.05 20.32-26.012 29.05-21.287 81.34-29.675 116.12-18.93 12.77 3.9 22.5 10.317 27.37 18.774l1.3 2.256-.72 2.668c-2.06 9.457-9.12 18.048-20.3 26.01-2.5 2.192-5.32 3.82-8.14 5.447zm-124.47-8.57c4.38 4.987 10.45 8.998 19.67 11.945 31.54 10.357 79.47 2.23 106.04-16.865 7.8-6.01 12.7-11.847 15.26-17.834-4.38-4.987-10.46-8.997-19.68-11.944-31.54-10.357-79.47-2.23-106.03 16.865-7.8 6-13.27 12.172-15.26 17.833z" class="D"/><path d="M2224.3 947.705l3.96 24.42 8.35-1.353-3.95-24.42-8.36 1.353zm-162.4 5.137l3.95 24.422 8.36-1.353-3.96-24.422-8.35 1.353zm94.64-91.655l2.6 16.065 8.35-1.36-2.6-16.064-8.35 1.36z" class="I"/><g class="D"><path d="M2097.9 902.117l2.56 13.555 19.48 3.79 6.07-15.53 71.35 27.22c5.4-2.366 10.47-5.296 14.98-7.9l6.68-5.36-2.24-12.99-92.97-23.004-25.9 20.222z"/><path d="M2210.9 928.587c-3.95 2.278-7.33 4.23-11.6 5.946l-1.7.977-69.24-26.18-6.4 14.968-26.26-5.132-3.16-18.478 30.1-23.39 97.1 23.632 3.15 18.478-8.04 6.9-3.95 2.28zm-13.58-2.686c4.84-2.04 8.78-4.318 12.73-6.597l4.2-3.168-1.1-8.393-87.63-21.575-22.86 17.706 1.65 8.068 13.58 2.685 5.36-12.863 2.5-2.192 2.67.715 68.9 25.614z"/></g><path d="M2124 890.05l-6.63 15.857-19.48-3.8 9.5-21.28 15.3-12.584 94.64 36.32-17.78 14.776-75.55-29.3z" class="F"/><path d="M2199.8 923.71l-74-27.934-6.4 14.968-28.05-5.61 12.08-27.267 17.78-14.776 98.2 37.274 1.96 3.383-2.73 3.08-18.83 16.88zm-76.96-38.257l2.67.715 73.12 27.695 10.3-8.202-85.66-32.484-12.23 10.067-6.63 15.857 10.9 1.97 5.35-12.864 2.17-2.755z" class="D"/></g><g style="mix-blend-mode:screen" class="H"><g class="D"><path d="M4781.67 714.908c-33.06-3.306-45.46 15.703-95.87 47.934-42.15 27.272-79.34 64.462-104.96 108.263s-40.5 70.248-38.84 100l-8.27 28.1 38.85 38.846c26.44 24.8 71.07 28.1 130.57 3.3 58.68-23.96 107.44-67.766 140.5-122.31 47.1-76.86 46.28-138.842 16.53-170.247l-1.65-1.653-36.37-36.363-40.5 4.132z"/><path d="M4806.46 984.327c-28.93 28.923-62 52.063-98.35 66.943-60.33 25.62-110.74 23.14-141.32-5.8l-.83-.82-42.14-42.15 9.9-31.406c-1.65-33.058 15.7-63.636 40.5-104.958 26.44-44.628 63.63-83.47 108.26-111.57 14.05-9.09 24.8-16.53 33.9-23.967 23.96-17.355 39.66-28.1 66.1-26.446l45.46-5.785 42.14 42.148c36.37 38.017 30.58 106.61-15.7 182.644-14.87 23.14-30.58 43.8-47.93 61.156zm-261.16 11.57l33.9 33.883c25.62 23.97 67.76 24.8 120.66 1.65 54.54-23.14 103.3-65.284 136.36-118.177 40.5-66.94 47.93-127.272 18.18-158.676l-1.65-1.653-32.23-32.23-39.67 4.958c-19.84-1.653-30.58 5.785-53.72 22.314l-35.54 23.967c-41.32 26.446-76.86 61.983-101.65 104.958-25.62 43.8-39.67 67.768-37.2 95.04v3.306l-7.44 20.66z"/></g><path d="M4722.16 693.42c88.43-23.967 141.32 28.925 118.18 118.18-23.96 88.43-115.7 180.164-204.95 204.958-88.43 23.97-141.33-28.926-118.2-118.182 23.97-90.082 115.7-181.817 204.96-204.957z" class="F"/><g class="D"><path d="M4769.27 945.487c-38.02 38.016-85.12 68.593-131.4 80.163-47.1 12.4-86.78 5.8-111.57-19-24.8-24.8-31.4-64.46-19-111.566 24.8-92.562 119-186.776 211.57-211.57 47.1-12.397 86.77-5.785 111.57 19.008s31.4 64.462 19 111.57c-12.4 45.454-41.33 92.56-80.17 131.404zm-166.94-166.94c-35.54 35.537-63.64 80.164-75.2 123.14-9.9 39.67-5.78 71.9 14.05 91.735 19.84 19.83 52.9 24.8 91.74 14.05 85.95-23.14 174.38-111.57 197.52-197.52 9.9-39.67 5.78-71.9-14.05-91.735-19.84-19.835-52.9-24.794-91.74-14.05-42.97 9.917-86.77 38.843-122.3 74.38zm112.4-31.407c-59.5 19.835-123.14 83.47-142.98 142.974-19.83 59.504 12.4 91.735 71.9 71.9s123.14-83.47 142.98-142.975c19-58.677-13.23-90.908-71.9-71.9z"/><path d="M4736.2 912.428c-27.27 27.272-58.67 48.76-90.08 58.677-32.23 10.744-58.68 7.438-75.2-9.09-16.53-16.528-19.84-42.975-9.1-75.206 20.67-61.983 87.6-128.925 149.6-149.586 32.23-10.743 58.68-7.437 75.2 9.09 16.52 16.53 19.83 42.975 9.1 75.206-9.92 31.405-32.23 63.636-59.5 90.91zm-101.65-101.652c-24.8 24.793-44.63 54.545-54.54 82.644-8.27 24.793-6.62 44.628 4.13 55.37 10.74 10.744 30.58 12.397 55.37 4.132 57.02-19.008 118.18-80.164 136.36-136.362 8.27-24.793 6.6-44.628-4.13-55.372s-30.58-12.396-55.37-4.132c-27.27 9.09-57.03 28.926-81.82 53.72z"/></g><path d="M4736.2 768.628c-59.5 19.835-123.14 83.47-142.97 142.975-6.6 21.487-7.44 38.842-1.65 52.892 13.22 4.958 31.4 4.958 52.9-1.653 59.5-19.835 123.14-83.47 142.97-142.975 6.6-21.487 7.44-38.842 1.66-52.892-14.05-5.785-32.24-5.785-52.9 1.653z" class="I"/><path d="M4736.2 912.43c-27.27 27.273-58.67 48.76-90.08 58.678-22.3 7.438-42.97 8.264-59.5 1.652l-3.3-1.652-1.65-3.306c-5.8-15.703-5.8-37.2 1.65-59.504 20.66-61.983 87.6-128.925 149.6-149.586 22.3-7.438 42.97-8.264 59.5-1.653l3.3 1.653 1.65 3.306c5.8 15.702 5.8 37.2-1.65 59.504-9.92 31.405-32.23 63.636-59.5 90.908zm-138 43.802c10.74 2.48 24.8 1.652 41.32-3.306 57.02-19.008 118.18-80.165 136.36-136.363 4.96-16.53 6.6-29.752 3.3-41.322-10.75-2.48-24.8-1.653-41.32 3.306-57.03 19.008-118.18 80.165-136.37 136.363-4.13 15.702-5.78 30.578-3.3 41.322z" class="D"/><path d="M4837.04 839.703l-10.74 10.743 31.4 31.405 10.74-10.744-31.4-31.404zm-231.4 178.497l-10.74 10.75 31.4 31.4 10.74-10.74-31.4-31.4zm42.15-232.216l-10.74 10.744 20.66 20.66 10.75-10.744-20.67-20.66z" class="I"/><g class="D"><path d="M4593.24 918.2l17.35 17.356 33.06-14.876-7.44-28.926 133.06-35.537c5.78-9.09 9.9-18.18 14.05-27.272l4.13-14.05-17.36-17.355-158.67 64.462-18.18 56.198z"/><path d="M4774.23 861.188l-128.93 34.7 6.62 28.1-42.98 19.835-23.97-23.967 19-65.29 166.94-67.768 23.97 23.967-4.96 18.18c-4.13 10.744-8.26 19.835-14.05 28.926l-1.65 3.306zm-144.63 23.966l4.96-1.653 128.92-34.7c4.96-8.264 9.1-15.702 11.57-23.14l2.48-9.09-10.74-10.744-149.6 60.33-14.87 49.587 9.92 9.917 22.3-10.744-5.8-25.62.83-4.133z"/></g><path d="M4619.68 873.584l6.6 29.752-33.05 14.876-9.1-40.495 9.1-33.884 176.03-47.107-9.92 39.67-139.67 37.19z" class="F"/><g class="D"><path d="M4765.14 842.18l-137.2 36.364 6.6 28.1-47.1 22.314-11.57-52.892 10.75-40.496 192.56-52.066-14.05 58.677zm-152.9 25.62l4.95-1.653 135.54-36.363 5.8-22.314-158.68 42.975-7.44 27.272 6.6 29.752 18.18-8.264-5.78-25.62.83-5.785z"/><path d="M5029.6 610.776c-29.75-14.875-48.76-.826-106.6 10.744-49.6 9.917-96.7 32.23-136.36 63.636s-62.8 51.24-71.9 80.165l-18.2 23.14 22.32 48.76.82.827c15.7 32.23 57.03 52.065 120.66 49.586 63.64-2.48 124.8-25.62 175.2-64.462 71.07-54.546 93.4-113.223 76.03-153.718l-.82-2.48-21.5-47.933-39.67-8.265z"/><path d="M5054.4 804.163c-9.1 9.09-19.83 18.182-31.4 28.1-52.9 41.323-117.36 64.463-181 66.942-65.3 2.48-111.57-17.355-129.76-55.37l-.82-.827-24.8-54.545 21.48-26.446c10.75-32.23 37.2-53.72 75.2-83.47 40.5-32.232 89.25-54.545 140.5-66.116 16.53-3.305 28.1-6.61 39.67-9.917 28.93-7.438 47.1-12.396 71.9-.826l43.8 10.743 24.8 54.545c14.87 41.323-2.48 90.082-49.6 137.19zm-345.45-14.875l19 43.8c14.87 31.405 55.37 47.107 112.4 44.628 59.5-1.653 119.84-23.967 169.42-61.983 61.16-47.934 89.26-102.48 72.73-142.148l-.83-2.48-19-42.15-38.02-9.917c-17.36-9.09-30.58-5.785-57.85 1.653-10.75 2.48-24.8 6.61-41.32 9.917-47.94 9.917-94.22 31.405-132.23 61.157-39.67 31.404-61.16 49.586-68.6 75.206l-1.65 3.305-14.05 19.01z"/></g><path d="M4981.67 569.456c91.73 9.09 122.3 77.685 68.6 152.89s-172.73 128.1-263.63 118.18c-91.74-9.09-122.32-77.685-68.6-152.89s171.9-127.272 263.64-118.18z" class="F"/><g class="D"><path d="M5033.73 755.405c-61.98 61.984-166.1 103.305-248.76 95.04-47.93-4.96-82.64-24.793-96.7-57.024s-6.6-71.074 21.5-110.743c55.37-76.86 178.5-132.23 272.72-122.314 47.94 4.96 82.65 24.794 96.7 57.025s6.6 71.074-21.5 110.743c-5.8 9.1-14.88 18.182-23.97 27.272zm-285.12-88.43c-8.26 8.265-15.7 17.355-22.3 25.62-23.97 33.884-30.58 65.3-19.84 90.908 11.57 24.794 39.67 41.322 81 46.28 88.43 9.1 202.48-42.148 254.55-114.05 23.96-33.884 30.58-65.3 19.83-90.908-11.57-24.793-39.67-41.322-81-46.28-76.86-7.438-174.38 30.578-232.23 88.43zm206.6-49.575c-61.98-2.48-144.63 33.885-184.3 83.47-38.84 48.76-20.66 90.082 41.32 92.56 62 2.48 144.63-33.884 184.3-83.47 40.5-48.76 20.66-90.082-41.32-92.562z"/><path d="M4993.24 728.134c-43.8 43.8-121.5 76.86-181 73.553-34.7-1.653-58.68-14.05-67.77-34.71-9.92-21.487-2.48-47.106 19-73.553 40.5-50.412 127.27-89.255 192.56-86.776 34.7 1.653 58.67 14.05 67.77 34.7 9.9 21.488 2.47 47.108-19 73.554-3.3 4.958-7.44 9.09-11.57 13.223zM4789.1 694.25c-4.14 4.132-7.44 7.438-9.92 11.57-16.53 19.834-21.5 39.67-15.7 53.72 5.78 14.05 23.96 22.314 50.4 23.966 59.5 3.306 138.84-33.057 176.03-78.51 16.53-19.835 21.5-39.67 15.7-53.72-5.78-14.05-23.96-22.314-50.4-23.967-54.54-3.306-125.62 26.446-166.1 66.942z"/></g><path d="M4967.62 644.664c-61.98-2.48-144.63 33.884-184.3 83.47-14.05 17.356-20.66 33.884-20.66 48.76 10.75 9.09 27.27 15.703 49.6 16.53 61.98 2.48 144.62-33.884 184.3-83.47 14.05-17.355 20.66-33.884 20.66-48.76-9.9-9.918-27.27-15.703-49.58-16.53z" class="I"/><path d="M4993.24 728.134c-43.8 43.8-121.5 76.86-181 73.553-23.97-.827-43.8-7.438-56.2-19.835l-3.3-3.305v-4.96c-.82-17.355 7.44-35.537 23.14-54.545 40.5-50.413 127.27-89.256 192.56-86.776 23.97.826 43.8 7.438 56.2 19.834l3.3 3.306v4.96c.82 17.355-7.44 35.536-23.14 54.545-3.3 4.958-7.44 9.1-11.57 13.223zM4773.4 771.11c9.92 6.61 22.32 10.743 39.67 11.57 59.5 3.306 138.84-33.058 176.03-78.512 10.75-14.05 16.53-26.446 18.2-38.016-9.92-6.612-22.32-10.744-39.67-11.57-59.5-3.306-138.85 33.057-176.03 78.51-10.75 14.05-17.36 27.273-18.2 38.017z" class="D"/><path d="M5022.88 754.235l18.2 40.5 13.86-6.228-18.2-40.5-13.86 6.228zm-279.2 84.36l18.2 40.512 13.86-6.227-18.2-40.512-13.86 6.227zm121.5-202.9l12 26.642 13.85-6.24-12-26.642-13.86 6.24z" class="I"/><g class="D"><path d="M4782.5 733.916l10.75 22.314 35.53-2.48 3.3-29.75 136.36 14.05c8.27-6.61 15.7-14.05 22.32-20.66l9.1-12.396-9.92-21.488-171.9 3.306-35.54 47.107z"/><path d="M4990.76 727.305c-5.8 5.785-10.75 10.744-17.36 15.702l-2.48 2.48-132.23-13.223-4.13 28.926-47.93 3.306-14.05-30.58 41.32-54.545 179.34-4.132 14.04 30.58-10.74 15.702-5.78 5.785zm-24.8 1.653c7.44-5.785 13.23-11.57 19-17.356l5.8-7.437-5.8-14.05L4823 693.42l-31.4 41.322 6.62 13.223 24.8-1.653 3.3-24.793 3.3-4.96h4.96l131.4 12.397z"/></g><path d="M4822.16 700.86l-4.13 30.578-35.54 2.48 6.62-41.322 20.66-28.925 181 19.008-23.97 33.884-144.63-15.702z" class="F"/><path d="M4969.27 724l-141.32-14.05-4.13 28.926-51.24 3.306 8.26-52.893 23.97-33.884 187.6 19.01 4.96 4.958-3.3 6.612-24.8 38.016zm-151.24-30.578h4.96l139.67 14.05 14.05-19.008-163.64-16.53-16.53 23.14-4.13 30.58 19.84-1.653 3.3-24.793 2.48-5.785z" class="D"/></g><g style="mix-blend-mode:screen" opacity=".05"><g class="D"><path d="M1932.14 1039.77c-6.45-31.68-27.68-37.73-72.16-75.304-37.5-31.32-82.77-55.177-130.86-66.375s-76.95-17.41-104.13-7.304l-28.5.41-24.9 47.3c-15.43 31.72-5.65 74.152 34.53 122.322 39.18 47.64 93.93 80.34 154.15 95.36 85 21.65 142.38 3.03 163-33.67l1.06-2 23.33-44.27-15.5-36.45z"/><path d="M1688.86 1140.4c-35.2-18.55-66.24-42.6-90.54-72.13-41.2-48.7-53.4-96.267-35.32-133.02l27.56-52.32 32.05.173c30.25-11.057 63.67-3.732 109.22 7.412 49.1 11.728 95.9 35.108 134.88 68.496 12.5 10.44 22.5 18.284 32.03 24.592 23.04 17.277 37.55 28.777 43.63 53.837l18.46 40.58-27.03 51.32c-24.87 44.74-90.3 59.12-174.3 38-25.8-7.16-49.52-15.8-70.65-26.94zm-85.96-239.402l-21.74 41.253c-14.9 30.715-3.53 70.13 33.22 112.63 37.2 44.03 90.43 77.2 149.1 92.7 73.9 18.36 132.1 7.9 152.73-28.8l1.06-2 20.67-39.25-16.03-35.44c-4.18-18.9-14.2-26.75-36.2-43.503l-32.5-26.128c-36.5-30.79-79.75-53.587-126.84-64.255-48.1-11.198-74.4-17.354-99.04-7.195l-3.08.952-21.34-.963z"/></g><path d="M1934.98 978.27c47.74 75.29 13.8 139.69-75.8 143.88-89.1 3.2-200.78-55.65-249.53-131.47-47.75-75.3-13.82-139.685 75.8-143.882 90.63-3.668 202.3 55.178 249.53 131.474z" class="F"/><g class="D"><path d="M1714.26 1094.65c-46.3-24.38-88.28-59.36-112.36-99.047-25.1-40.215-30.37-79-14.46-109.176 15.9-30.185 50.87-47.755 98.22-49.8 93.18-3.613 207.88 56.823 257.58 135.716 25.1 40.216 30.37 78.986 14.47 109.176-15.9 30.18-50.87 47.75-98.23 49.8-45.82 1.57-97.93-11.75-145.22-36.67zm107.08-203.245c-43.26-22.796-92.83-36.06-136.1-34.438-39.73 2.207-68.5 15.33-81.22 39.48s-7.8 56.302 13.36 89.3c46.26 73.223 153.92 129.953 240.48 126.703 39.72-2.2 68.5-15.33 81.22-39.48s7.8-56.3-13.37-89.3c-21.6-37.088-61.1-69.47-104.36-92.266zm61.56 95.425c-35.58-49.594-113.05-90.415-174.07-91.714s-81.7 37.942-46.12 87.537c35.57 49.598 113.04 90.418 174.06 91.718 60.02.76 80.7-38.48 46.13-87.54z"/><path d="M1735.46 1054.4c-33.2-17.5-62.22-40.5-80.48-66.834-19.27-26.864-23.8-52.397-13.2-72.52s34.23-30.812 67.28-30.11c63.57 1.353 145.07 44.294 182.12 95.956 19.27 26.868 23.8 52.398 13.2 72.518-10.6 20.13-34.23 30.8-67.28 30.1-32.05-.17-68.43-11.63-101.64-29.12zm65.2-123.763c-30.18-15.905-63.55-25.772-92.52-26.897-25.43-.54-43.4 6.708-50.28 19.788s-2.72 31.992 12.1 52.656c34.1 47.526 108.54 86.756 166 87.476 25.43.54 43.4-6.7 50.28-19.8s2.72-32-12.1-52.657c-16.3-22.73-43.3-44.672-73.5-60.576z"/></g><path d="M1869.12 1013c-35.57-49.595-113.05-90.416-174.07-91.714-21.87.043-38.24 4.273-49.63 13.696-.8 13.72 4.43 30.618 16.76 48.686 35.58 49.592 113.05 90.412 174.07 91.712 21.88-.04 38.25-4.27 49.64-13.7 1.33-14.73-3.9-31.63-16.77-48.7z" class="I"/><path d="M1735.46 1054.4c-33.2-17.5-62.22-40.5-80.48-66.833-13.34-18.598-20.06-37.564-18.68-54.83l.6-3.55 2.6-2.488c12.92-9.9 32.9-16.088 55.78-15.6 63.56 1.352 145.06 44.294 182.12 95.952 13.34 18.6 20.05 37.57 18.67 54.83l-.6 3.55-2.6 2.5c-12.93 9.9-32.9 16.1-55.78 15.6-32.05-.17-68.44-11.63-101.64-29.12zM1655 938.74c.8 10.7 5.6 23.52 14.97 37.456 34.1 47.525 108.55 86.755 166.02 87.475 16.8-.15 29.56-2.43 39.36-8.83-.8-10.7-5.6-23.52-14.97-37.46-34.1-47.524-108.55-86.754-166.02-87.47-15.78.682-30.1 3.43-39.36 8.828z" class="D"/><path d="M1832.1 1127.17l-13.08-6.9-20.15 38.24 13.08 6.9 20.15-38.24zm-232.57-163.667l-13.08-6.892-20.14 38.235 13.08 6.894 20.14-38.237zm228-27.707l-13.08-6.892-13.25 25.155 13.08 6.9 13.25-25.154z" class="I"/><g class="D"><path d="M1688.9 923.175l-11.13 21.13 23.34 26.442 24.75-15.244 71.35 113.437c10.1 2.76 19.75 3.98 29.4 5.2l14.25-.2 11.14-21.13-105.62-128.92-57.47-.715z"/><path d="M1794.04 1074.98l-69.4-109.834-24.2 14.237-30.8-34.23 15.37-29.18 66.16-1.136 111.07 135.653-15.37 29.18-18.33.62c-11.18-.74-20.82-1.97-30.93-4.72l-3.55-.6zm-63.93-127.524l2.96 4.133 69.4 109.83c9.1 2.23 17.2 3.93 24.84 4.1l9.16-.3 6.9-13.08-99.15-121.66-50.38.454-6.36 12.074 16.4 17.646 22.15-12.756 4.08-.422z"/></g><path d="M1738 934.906l-25.75 14.714-23.35-26.442 35.02-20.112 34.1-1.31 94.5 150.053-39.73 2.2-74.8-119.104z" class="F"/><g class="D"><path d="M1809.1 1061.06l-73.3-117.043-24.22 14.238-34.3-37.358 45.83-25.987 40.73-1.677 103.85 163.987-58.58 3.84zm-67.85-134.732l2.97 4.133 72.83 115.51 22.4-1.05-85.64-135.112-27.5.94-25.75 14.713 12.92 14.52 22.15-12.756 5.6-.898z"/><path d="M2100.34 1240.22c5.25-31.93-13.28-45.56-40.7-96-23.5-43.24-57.8-80.6-98.42-108.42-40.62-27.83-65.72-43.625-95.22-43.744l-26.75-10.235-38.9 34.78-.53 1c-25.44 23.88-31.97 68-11.34 126.43 20.63 58.44 59.75 108.6 110.37 144.3 71.17 50.35 132.14 54.2 164.78 26.4l2.06-1.48 38.37-33.77-3.74-39.26z"/><path d="M1927.73 1318.96c-11.07-5.83-22.6-13.2-35.16-21.1-53.65-37.27-93.72-90.52-114.35-148.95-21.1-59.97-16-108.7 14.1-136.55l.53-1 43.56-38.75 30.76 12.356c33.06.703 60.65 19.093 99.25 45.863 41.62 28.36 76.4 67.25 101.9 111.54 7.84 14.42 14.24 24.22 20.65 34.02 15.24 24.74 25.08 40.2 21.47 66.6l2.63 43.8-43.56 38.75c-34.12 25.73-84.44 23.64-141.8-6.58zm-85.67-325.37l-35.23 30.28c-24.9 22.87-27.84 65.04-9.1 117.32 18.67 54.84 56.78 104.48 106.4 139.62 62.17 43.04 120.96 53.45 153.07 26.66l2.06-1.48 33.7-29.8-1.73-38.2c3.45-18.75-3.43-30.08-18.2-53.3-5.4-9.27-13.3-21.14-21.12-35.55-23.02-41.7-56.32-78.53-94.93-105.3-40.6-27.83-63.7-42.57-89.65-42.1l-3.55-.6-21.72-7.58z"/></g><path d="M2124.94 1183.77c17.97 87.88-36.98 136.06-122.36 107.8-85.37-28.27-168.8-123.65-185.77-211-17.97-87.878 36.98-136.055 122.35-107.785 85.38 28.275 167.8 123.125 185.78 211.005z" class="F"/><g class="D"><path d="M1967.1 1285.72c-75.47-39.76-143.86-124.65-159.98-203.84-9.2-46-.76-83.96 25.15-106.3s64.16-26.615 109.12-11.922c87.4 29.33 174.32 127.843 192.23 218.263 9.2 45.98.76 83.96-25.15 106.3s-64.16 26.6-109.12 11.92c-10.12-2.76-21.2-8.6-32.25-14.42zm.07-290.482c-10.06-5.302-20.65-9.597-30.24-13.362-38.4-12.518-69.5-9.62-90.2 7.746-19.72 17.898-27 48.768-19.7 88.608 17.02 84.8 97.5 176.06 179.32 203.75 38.4 12.5 69.5 9.6 90.2-7.75 19.7-17.9 26.98-48.77 19.7-88.6-15.22-73.58-78.64-153.27-149.08-190.382zM2072.77 1173c-15.55-58.32-73.15-124.66-130.66-147.25-56.5-22.07-89.68 6.74-74.14 65.06 15.55 58.33 73.15 124.67 130.66 147.26 57 23.6 89.68-6.74 74.14-65.07z"/><path d="M1980.78 1240.23c-53.32-28.1-106.42-90.8-120.5-147.05-8.46-32.74-3.84-58.58 12.75-72.98 17.1-15.4 43.07-15.87 73.84-3.52 58.52 23.12 119.6 92.6 136.1 154 8.46 32.74 3.84 58.6-12.74 73-17.12 15.4-43.08 15.87-73.84 3.5-5.57-1.64-10.6-4.3-15.63-6.94zm-27.3-199.5c-5.03-2.65-9.06-4.77-13.6-5.88-23.2-9.65-43.06-8.55-54.46.87-11.4 9.43-13.83 28.7-7.75 53.76 14.06 56.26 70.7 119.53 123.67 141 23.2 9.65 43.06 8.55 54.45-.88 11.4-9.42 13.84-28.7 7.76-53.76-12.64-51.65-60.76-109.14-110.06-135.12z"/></g><path d="M2051 1192.37c-15.55-58.32-73.15-124.66-130.66-147.26-20.18-8.06-37.45-9.44-51.28-5.16-5.35 12.6-6.74 29.88-1.08 50.85 15.55 58.33 73.15 124.67 130.66 147.26 20.18 8.06 37.45 9.45 51.28 5.16 6.36-12.07 6.74-29.87 1.08-50.85z" class="I"/><path d="M1980.78 1240.22c-53.32-28.1-106.42-90.78-120.5-147.04-6.13-22.5-5.7-42.85 2.25-57.94l2.12-4.03 4.6-1.43c15.9-5.76 35.17-3.32 57.36 5.8 58.52 23.12 119.62 92.6 136.12 154 6.13 22.5 5.7 42.85-2.25 57.95l-2.12 4.02-4.6 1.43c-15.9 5.77-35.18 3.32-57.37-5.8-5.56-1.64-10.6-4.3-15.62-6.95zm-103.25-191.95c-3.3 11.12-3.56 23.84.67 40.2 14.06 56.26 70.7 119.53 123.67 141 16.15 5.94 29.34 7.75 40.57 5.95 3.3-11.12 3.56-23.83-.67-40.2-14.07-56.26-70.7-119.53-123.67-141-16.16-5.94-30.35-8.27-40.57-5.95z" class="D"/><path d="M1965.06 1275.3l-32.4 28.6 9.78 11.1 32.4-28.6-9.78-11.1zm-158.82-235.23l-32.42 28.58 9.78 11.1 32.42-28.58-9.78-11.1zm223.58 54.5l-21.3 18.82 9.8 11.08 21.3-18.82-9.8-11.08z" class="I"/><g class="D"><path d="M1914.7 1046l-17.64 16.4 12.54 32.32 28.6-5.5 26.22 130.8c8.52 5.78 17.58 10.55 25.63 14.8l14.14 4.88 17.1-15.4-52.58-158.83-54.02-19.46z"/><path d="M1980.84 1237.68c-7.05-3.7-13.08-6.9-19.6-11.6l-3-1.6-25.8-126.7-28.07 4.5-16.88-43.6 24.38-21.87 62.6 22.7 55.5 165.5-24.38 21.86-17.7-5.46-7.04-3.7zm-8.68-22.57c7.52 5.25 14.56 8.96 21.6 12.67l8.58 3.24 11.4-9.43-49.72-149.6-47.46-17.3-10.38 9.95 8.67 22.57 24-4.07 5.56 1.65 1.43 4.6 26.32 125.7z"/></g><path d="M1956.86 1073.36l-29.6 4.97-12.54-32.32 40.3-5.76 32.84 10.88 34.46 173.7-38.4-12.52-27.06-138.95z" class="F"/><path d="M1977.72 1216.76l-27.64-135.4-28.08 4.5-17.83-46.68 51.55-7.55 38.4 12.52 36.37 179.84-3.2 6.04-7.1-1.17-42.48-12.1zm-15.13-149.38l1.42 4.6 27.17 133.86 21.7 7.58-31.76-156.85-26.27-8.7-29.6 4.97 7.25 17.96 24-4.07 6.1.64z" class="D"/></g><path d="M3394.32 265.187h-3.98c-4.47-8.785-12.7-17.067-24.7-23.998-38.25-22.092-100.26-22.092-138.5-.002-12 6.93-20.23 15.215-24.7 24h-3.98v16c0 14.477 9.56 28.953 28.68 39.998 38.25 22.09 100.26 22.092 138.5.002 19.12-11.046 28.68-25.523 28.68-40v-16z" class="G"/><path d="M3275.14 225.973a129.76 129.76 0 0 0-48.01 15.211c-12 6.93-20.23 15.214-24.7 24h-3.98v16c0 14.476 9.56 28.953 28.68 39.998 14.86 8.157 31.17 13.326 48 15.212v-110.42z" class="B"/><path d="M3365.9 321.028c18.94-11.026 28.4-25.43 28.4-39.84v-16h-3.98a57.18 57.18 0 0 0-19.66-20.836h-4.77v76.674z" class="C"/><g class="C E"><use xlink:href="#B" class="E"/><path d="M3227.13 241.186a77.01 77.01 0 0 0-13.68 9.939v60.14a67.3 67.3 0 0 0 4.25 3.602v-65.184h8v70.635l1.42.866 2.82 1.55v-73.05h8v76.9a117.94 117.94 0 0 0 4.25 1.734v-78.635h8v81.398l4.25 1.236v-82.634h8v84.57l4.25.838v-85.408h8v86.662l4.25.5v-87.16h8v87.8l4.24.176v-87.986h8v88.03l4.25-.125v-87.906h8v87.386l4.25-.434v-86.952h8v85.82l4.25-.776v-85.045h8v83.234a138.37 138.37 0 0 0 4.25-1.158v-82.076h8v79.477l4.24-1.627v-77.85h8v74.234a100.59 100.59 0 0 0 4.25-2.254v-71.98h8v66.896l4.25-3.304v-63.592h.7a80.44 80.44 0 0 0-12.1-8.495 117.47 117.47 0 0 0-30.06-11.837h-78.4a117.91 117.91 0 0 0-30.05 11.836zm-21.7 19.04c-1.1 1.585-2.12 3.242-3 4.96h-1.24v29.327a42.86 42.86 0 0 0 4.25 7.7v-41.977z" class="E"/></g><path d="M3365.64 305.188c-38.25 22.09-100.26 22.1-138.5-.001s-38.25-57.907 0-79.997 100.26-22.1 138.5.001 38.25 57.907 0 79.997z" class="B"/><g class="F"><path d="M3318.32 274.853c28.16-16.262 35.56-39.958 22.26-60.145-36.74-10.736-82.75-7.252-113.45 10.48-28.16 16.263-35.56 39.96-22.26 60.147 36.75 10.736 82.75 7.252 113.45-10.48z" class="H"/><path d="M3365.64 305.185c-38.25 22.1-100.26 22.09-138.5-.002-18.48-10.675-28-24.554-28.62-38.54-.67 14.96 8.85 30.04 28.62 41.458 38.25 22.09 100.26 22.09 138.5.001 19.76-11.416 29.3-26.497 28.62-41.455-.62 13.986-10.14 27.864-28.62 38.54z" class="J"/></g><use xlink:href="#C" class="C"/><path d="M3247.22 240.46c27.15-15.68 71.17-15.68 98.32.001 12.77 7.374 19.53 16.903 20.3 26.56.85-10.878-5.9-21.92-20.3-30.227-27.15-15.68-71.17-15.68-98.32-.001-14.38 8.307-21.14 19.347-20.28 30.224.76-9.656 7.52-19.184 20.28-26.557zm83.35 5.766l-5.4 1.54 1.53.608-5.26 3.04a29.69 29.69 0 0 0-13.34-3.119c-4.5.002-8.94 1.202-12.84 3.477-1.4.78-2.7 1.724-3.88 2.814a8.15 8.15 0 0 0-2.08 2.973 9.65 9.65 0 0 0-.68 2.85 15.9 15.9 0 0 0 .12 3.084l.62 4.907a14.69 14.69 0 0 1 .13 3.442 6.2 6.2 0 0 1-1.17 2.787 9.43 9.43 0 0 1-3.08 2.642c-.95.688-2.07 1.097-3.24 1.183a6.28 6.28 0 0 1-3.37-.7c-1.47-.848-1.84-1.904-1.12-3.17a17.12 17.12 0 0 1 5.86-4.732v-3.683l-4.6 1.73-6.63-2.812a21.48 21.48 0 0 0-7.85 7.058l-.76-.85v3.6l.02.001c.02 2.48 1.9 4.923 5.7 7.33l-2.62 1.513-3.56-1.63v3.683l3.2 1.845 6.23-3.6c3.95 1.835 8.27 2.698 12.62 2.517 4.17-.06 8.26-1.158 11.9-3.2a20.26 20.26 0 0 0 4.23-3.135 10.28 10.28 0 0 0 2.34-3.413c.44-1.08.73-2.212.87-3.37.1-1.2.1-2.386-.02-3.574l-.53-4.75c-.08-.955-.12-1.648-.12-2.078a9.93 9.93 0 0 1 .23-1.801 4.24 4.24 0 0 1 1.07-2.052 9.93 9.93 0 0 1 2.3-1.738c1.1-.6 2.3-.994 3.54-1.13 1.2-.188 2.45.02 3.53.592a3.29 3.29 0 0 1 1.1.852c.13.178.2.394.2.615l-5.5 1.14v3.683l11.1 4.946a64.91 64.91 0 0 0 2.43-1.604 22.55 22.55 0 0 0 2.24-1.793c.7-.603 1.3-1.275 1.86-2.006.47-.657.83-1.4 1.06-2.168.1-.358.16-.728.18-1.1l.01-.014v-3.875l-1.4.295c-.02-.025-.03-.048-.05-.073a13.19 13.19 0 0 0-2.97-2.535l5.83-3.37v-3.683z" class="G"/><path d="M3263.1 282.118l6.18-3.567c-4.22-2.676-6.1-5.396-5.67-8.162.45-2.765 3.3-5.76 8.55-8.986l11.23 4.766a17.12 17.12 0 0 0-5.86 4.732c-.73 1.266-.35 2.322 1.12 3.17a6.28 6.28 0 0 0 3.37.7c1.17-.086 2.3-.495 3.24-1.182 1.2-.646 2.26-1.548 3.08-2.643a6.2 6.2 0 0 0 1.17-2.787 14.68 14.68 0 0 0-.13-3.441l-.62-4.91a15.89 15.89 0 0 1-.12-3.083c.08-.98.3-1.94.68-2.85a8.15 8.15 0 0 1 2.08-2.973c1.17-1.1 2.47-2.035 3.88-2.814 3.9-2.275 8.33-3.475 12.84-3.477a29.68 29.68 0 0 1 13.34 3.12l5.87-3.387 3.25 1.88-5.83 3.37a13.19 13.19 0 0 1 2.97 2.535 6.31 6.31 0 0 1 1.34 2.428c.2.772.16 1.58-.07 2.34-.23.778-.6 1.51-1.06 2.168a13.14 13.14 0 0 1-1.86 2.006 22.55 22.55 0 0 1-2.24 1.793c-.7.496-1.52 1.03-2.43 1.603l-11.1-4.945 2.08-1.29c.54-.345 1.1-.727 1.65-1.146.44-.315.85-.682 1.2-1.094a2.97 2.97 0 0 0 .52-.967.92.92 0 0 0 .04-.492.96.96 0 0 0-.21-.449 3.29 3.29 0 0 0-1.1-.852 5.67 5.67 0 0 0-3.53-.591c-1.25.135-2.45.52-3.54 1.128-.85.465-1.62 1.05-2.3 1.74a4.23 4.23 0 0 0-1.07 2.052 9.93 9.93 0 0 0-.23 1.801c0 .43.04 1.123.12 2.078l.53 4.75c.12 1.188.13 2.385.02 3.574-.14 1.157-.43 2.29-.87 3.37-.54 1.287-1.34 2.45-2.34 3.414-1.27 1.225-2.7 2.28-4.23 3.135a25 25 0 0 1-11.89 3.2c-4.35.18-8.67-.683-12.62-2.518l-6.23 3.6-3.2-1.845z" class="B"/><path d="M3394.32 249.174h-3.98c-4.47-8.785-12.7-17.067-24.7-23.998-38.25-22.09-100.26-22.09-138.5-.001-12 6.93-20.23 15.214-24.7 24h-3.98v16c0 14.477 9.56 28.953 28.68 39.998 38.25 22.09 100.26 22.093 138.5.002 19.12-11.046 28.68-25.523 28.68-40v-16z" class="G"/><path d="M3275.14 209.96a129.78 129.78 0 0 0-48.01 15.212c-12 6.93-20.23 15.214-24.7 24h-3.98v16c0 14.477 9.56 28.953 28.68 39.998a129.8 129.8 0 0 0 48.01 15.213V209.96z" class="B"/><path d="M3365.9 305.012c18.94-11.026 28.42-25.43 28.4-39.838v-16h-3.98c-4.68-8.503-11.45-15.674-19.66-20.836h-4.77v76.674z" class="C"/><path d="M3389.28 247.314c-1.25-2.16-2.67-4.217-4.25-6.15v48.08a46.62 46.62 0 0 0 4.25-6.16v-35.77zm-162.15-22.14a77.11 77.11 0 0 0-13.68 9.939v60.14l4.25 3.6V233.67h8v70.634l1.42.866 2.82 1.55v-73.05h8v76.9a119.79 119.79 0 0 0 4.25 1.733V233.67h8v81.397l4.25 1.236V233.67h8v84.57l4.25.838V233.67h8v86.66l4.25.5v-87.16h8v87.8l4.24.176V233.67h8v88.03l4.25-.126V233.67h8v87.385l4.25-.434v-86.95h8v85.82l4.25-.777V233.67h8v83.233a138.37 138.37 0 0 0 4.25-1.158V233.67h8v79.476l4.24-1.627v-77.85h8v74.234l4.25-2.255v-71.98h8v66.895l4.25-3.304v-63.6h.7c-3.77-3.202-7.82-6.045-12.1-8.495a117.8 117.8 0 0 0-30.06-11.838h-78.4a117.91 117.91 0 0 0-30.05 11.836zm-21.7 19.04c-1.1 1.585-2.12 3.242-3 4.96h-1.24V278.5a42.48 42.48 0 0 0 4.25 7.691v-41.978z" class="E C"/><path d="M3365.64 289.173c-38.25 22.1-100.26 22.1-138.5-.001-38.24-22.09-38.25-57.908 0-79.998s100.26-22.1 138.5.001 38.25 57.907 0 79.998z" class="B"/><g class="F"><path d="M3318.32 258.84c28.16-16.262 35.56-39.96 22.26-60.146-36.74-10.736-82.75-7.252-113.45 10.48-28.16 16.262-35.56 39.96-22.26 60.146 36.75 10.736 82.75 7.253 113.45-10.48z" class="H"/><path d="M3365.64 289.172c-38.25 22.09-100.26 22.1-138.5-.002-18.48-10.674-28-24.554-28.62-38.54-.67 14.96 8.86 30.04 28.62 41.458 38.25 22.092 100.26 22.092 138.5.001 19.76-11.416 29.3-26.496 28.62-41.455-.62 13.986-10.14 27.865-28.62 38.54z" class="J"/></g><path d="M3345.54 277.564c-27.14 15.68-71.16 15.68-98.3 0s-27.15-41.105 0-56.785 71.16-15.68 98.3 0 27.15 41.105 0 56.785z" class="C"/><path d="M3247.23 224.445c27.14-15.68 71.16-15.68 98.3.001 12.77 7.374 19.53 16.904 20.3 26.56.85-10.88-5.9-21.92-20.3-30.228-27.15-15.68-71.17-15.68-98.3-.001-14.4 8.307-21.15 19.347-20.3 30.225.76-9.657 7.52-19.185 20.3-26.558zm83.34 5.765l-5.4 1.54 1.53.6-5.26 3.04c-4.14-2.066-8.7-3.134-13.34-3.12a25.51 25.51 0 0 0-12.84 3.476 20.18 20.18 0 0 0-3.88 2.815c-.9.825-1.62 1.84-2.08 2.972a9.68 9.68 0 0 0-.68 2.85 15.9 15.9 0 0 0 .12 3.084l.62 4.908a14.68 14.68 0 0 1 .13 3.441 6.08 6.08 0 0 1-1.17 2.787c-.82 1.095-1.87 1.997-3.08 2.643-.95.688-2.07 1.097-3.24 1.182a6.28 6.28 0 0 1-3.37-.7c-1.47-.847-1.84-1.904-1.12-3.17a17.25 17.25 0 0 1 5.86-4.732v-3.683l-4.6 1.73-6.63-2.8c-3.16 1.66-5.86 4.087-7.85 7.057l-.76-.85v3.6l.02.001c.02 2.48 1.9 4.922 5.7 7.33l-2.62 1.513-3.56-1.63v3.683l3.2 1.846 6.23-3.602a27.23 27.23 0 0 0 12.62 2.518 25.08 25.08 0 0 0 11.9-3.2 20.5 20.5 0 0 0 4.22-3.135c1-.965 1.8-2.128 2.34-3.414.44-1.08.73-2.212.87-3.37.1-1.2.1-2.386-.02-3.574l-.53-4.75c-.08-.955-.12-1.65-.12-2.078a10 10 0 0 1 .23-1.8 4.24 4.24 0 0 1 1.07-2.053 9.96 9.96 0 0 1 2.3-1.738c1.1-.6 2.3-.994 3.54-1.13a5.67 5.67 0 0 1 3.53.592 3.19 3.19 0 0 1 1.1.851 1.05 1.05 0 0 1 .2.616l-5.5 1.14v3.683l11.1 4.945a75.64 75.64 0 0 0 2.44-1.603 23.64 23.64 0 0 0 2.23-1.793c.7-.603 1.3-1.275 1.86-2.006.47-.657.83-1.4 1.06-2.168.1-.36.16-.728.18-1.1l.01-.013v-3.875l-1.4.294c-.02-.025-.03-.048-.05-.073-.86-.988-1.86-1.842-2.97-2.535l5.83-3.37v-3.683z" class="G"/><path d="M3263.1 266.103l6.18-3.566c-4.22-2.676-6.1-5.397-5.66-8.162.44-2.766 3.3-5.76 8.54-8.987l11.23 4.766c-2.28 1.122-4.28 2.74-5.86 4.732-.72 1.266-.35 2.323 1.12 3.17a6.28 6.28 0 0 0 3.37.7c1.17-.085 2.3-.495 3.24-1.182 1.2-.646 2.26-1.548 3.08-2.643.62-.818 1.02-1.775 1.17-2.787a14.68 14.68 0 0 0-.13-3.441l-.62-4.908c-.14-1.022-.18-2.055-.12-3.084.08-.98.3-1.94.68-2.85.46-1.132 1.17-2.148 2.08-2.972 1.17-1.09 2.48-2.036 3.88-2.815 3.9-2.275 8.33-3.475 12.84-3.476 4.63-.015 9.2 1.053 13.34 3.12l5.87-3.387 3.25 1.88-5.83 3.37a13.19 13.19 0 0 1 2.97 2.535c.62.7 1.08 1.53 1.35 2.428.18.773.15 1.58-.08 2.34a7.26 7.26 0 0 1-1.06 2.168 13.14 13.14 0 0 1-1.86 2.006 23.48 23.48 0 0 1-2.23 1.793c-.72.496-1.53 1.03-2.44 1.604l-11.1-4.945 2.08-1.29c.54-.346 1.1-.728 1.65-1.147.44-.315.85-.682 1.2-1.094.23-.287.4-.614.52-.966a.92.92 0 0 0 .04-.493.96.96 0 0 0-.21-.449 3.19 3.19 0 0 0-1.1-.851c-1.08-.574-2.32-.78-3.53-.592-1.25.135-2.45.52-3.54 1.13a9.93 9.93 0 0 0-2.3 1.738 4.23 4.23 0 0 0-1.07 2.053 9.91 9.91 0 0 0-.23 1.8c0 .43.04 1.124.12 2.08l.53 4.75c.12 1.188.13 2.386.02 3.575-.14 1.157-.43 2.3-.87 3.37-.54 1.286-1.34 2.448-2.34 3.414a20.5 20.5 0 0 1-4.22 3.135c-3.64 2.04-7.73 3.14-11.9 3.2-4.35.18-8.67-.683-12.62-2.518l-6.23 3.602-3.2-1.846z" class="B"/><path d="M3394.32 233.162h-3.98c-4.47-8.785-12.7-17.068-24.7-24-38.25-22.09-100.26-22.09-138.5-.001-12 6.93-20.23 15.214-24.7 24h-3.98v16c0 14.476 9.56 28.953 28.68 39.997 38.25 22.092 100.26 22.093 138.5.002 19.12-11.045 28.68-25.523 28.68-40v-16z" class="G"/><path d="M3275.14 193.95a129.78 129.78 0 0 0-48.01 15.212c-12 6.93-20.23 15.214-24.7 24h-3.98v16c0 14.477 9.56 28.953 28.68 39.998a129.8 129.8 0 0 0 48.01 15.213V193.95z" class="B"/><path d="M3365.9 289c18.94-11.026 28.42-25.43 28.4-39.84v-16h-3.98c-4.68-8.503-11.45-15.674-19.66-20.836h-4.77V289z" class="C"/><path d="M3389.28 231.303a46.66 46.66 0 0 0-4.25-6.151v48.08a46.62 46.62 0 0 0 4.25-6.16v-35.77zm-162.15-22.14a77.37 77.37 0 0 0-13.68 9.938v60.14a66.96 66.96 0 0 0 4.25 3.601V217.66h8v70.635l1.42.866a106.45 106.45 0 0 0 2.82 1.549v-73.05h8v76.9l4.25 1.733V217.66h8v81.397a131.49 131.49 0 0 0 4.25 1.237V217.66h8v84.57l4.25.84v-85.4h8v86.662l4.25.5v-87.16h8v87.8l4.24.176V217.66h8v88.03l4.25-.125V217.66h8v87.385l4.25-.433V217.66h8v85.82l4.25-.777V217.66h8v83.233a138.36 138.36 0 0 0 4.25-1.157V217.66h8v79.476l4.24-1.627v-77.85h8v74.234a100.6 100.6 0 0 0 4.25-2.255v-71.98h8v66.895l4.25-3.303v-63.6h.7a80.44 80.44 0 0 0-12.1-8.495c-9.43-5.307-19.54-9.3-30.06-11.838h-78.4a117.91 117.91 0 0 0-30.05 11.837zm-21.7 19.04c-1.1 1.585-2.12 3.242-3 4.96h-1.24v29.328a42.47 42.47 0 0 0 4.25 7.69v-41.978z" class="E C"/><path d="M3365.64 273.16c-38.25 22.09-100.26 22.1-138.5-.001-38.24-22.09-38.25-57.907 0-79.998s100.26-22.1 138.5.001 38.25 57.908 0 79.998z" class="B"/><g class="F"><path d="M3318.32 242.824c28.16-16.262 35.56-39.958 22.26-60.145-36.74-10.737-82.75-7.253-113.45 10.48-28.16 16.263-35.56 39.96-22.26 60.146 36.75 10.737 82.75 7.253 113.45-10.48z" class="H"/><path d="M3365.64 273.16c-38.25 22.1-100.26 22.09-138.5-.002-18.48-10.675-28-24.555-28.62-38.542-.67 14.96 8.86 30.042 28.62 41.46 38.25 22.09 100.26 22.09 138.5 0 19.76-11.415 29.3-26.496 28.62-41.454-.62 13.986-10.14 27.864-28.62 38.54z" class="J"/></g><path d="M3345.54 261.55c-27.14 15.68-71.16 15.68-98.3 0s-27.15-41.105 0-56.785 71.16-15.68 98.3.001 27.15 41.104 0 56.784z" class="C"/><g class="G"><use xlink:href="#D"/><path d="M3330.57 214.2l-5.4 1.54 1.53.608-5.26 3.04c-4.14-2.065-8.7-3.134-13.34-3.12-4.5.002-8.94 1.2-12.84 3.476-1.4.78-2.7 1.724-3.88 2.815a8.15 8.15 0 0 0-2.08 2.973c-.37.91-.6 1.87-.68 2.85a15.9 15.9 0 0 0 .12 3.084l.62 4.908c.18 1.138.22 2.293.13 3.442a6.08 6.08 0 0 1-1.17 2.786 9.33 9.33 0 0 1-3.08 2.643c-.95.688-2.07 1.097-3.24 1.182s-2.33-.157-3.37-.7c-1.47-.848-1.84-1.905-1.12-3.17 1.58-1.994 3.58-3.61 5.86-4.733v-3.683l-4.6 1.73-6.63-2.81c-3.16 1.66-5.86 4.087-7.85 7.057l-.76-.85v3.61h.02c.02 2.48 1.9 4.923 5.7 7.33l-2.62 1.513-3.56-1.63v3.683l3.2 1.846 6.23-3.602c3.95 1.835 8.27 2.7 12.62 2.518 4.17-.06 8.26-1.16 11.9-3.2a20.5 20.5 0 0 0 4.22-3.135c1-.965 1.8-2.127 2.34-3.414.44-1.08.73-2.212.87-3.37.1-1.19.1-2.386-.02-3.574l-.53-4.75c-.08-.955-.12-1.65-.12-2.078a9.93 9.93 0 0 1 .23-1.801c.16-.77.53-1.483 1.07-2.053a9.96 9.96 0 0 1 2.3-1.738c1.1-.6 2.3-.993 3.54-1.13 1.2-.188 2.45.02 3.53.592.43.202.8.492 1.1.85a1.05 1.05 0 0 1 .2.616l-5.5 1.14v3.683l11.1 4.945a75.64 75.64 0 0 0 2.44-1.603 23.64 23.64 0 0 0 2.23-1.793c.7-.603 1.3-1.275 1.86-2.006.47-.657.83-1.4 1.06-2.168.1-.36.16-.728.18-1.1l.01-.013v-3.875l-1.4.294c-.02-.025-.03-.048-.05-.072-.86-.99-1.86-1.843-2.97-2.536l5.83-3.37V214.2z"/></g><path d="M3263.1 250.09l6.18-3.566c-4.22-2.676-6.1-5.396-5.66-8.162.44-2.766 3.3-5.76 8.54-8.986l11.23 4.765c-2.28 1.122-4.28 2.74-5.86 4.733-.72 1.265-.35 2.322 1.12 3.17 1.04.542 2.2.785 3.37.7s2.3-.494 3.24-1.182a9.34 9.34 0 0 0 3.08-2.642 6.09 6.09 0 0 0 1.17-2.788 14.68 14.68 0 0 0-.13-3.441l-.62-4.908a15.9 15.9 0 0 1-.12-3.084 9.68 9.68 0 0 1 .68-2.85c.46-1.132 1.17-2.147 2.08-2.972 1.17-1.09 2.48-2.036 3.88-2.815 3.9-2.275 8.33-3.474 12.84-3.476 4.63-.015 9.2 1.054 13.34 3.12l5.87-3.387 3.25 1.88-5.83 3.37c1.1.693 2.1 1.547 2.97 2.536a6.47 6.47 0 0 1 1.35 2.427 4.53 4.53 0 0 1-.08 2.34c-.23.778-.6 1.51-1.06 2.168-.55.73-1.17 1.403-1.86 2.006a23.64 23.64 0 0 1-2.23 1.793 70.9 70.9 0 0 1-2.44 1.603l-11.1-4.945 2.08-1.29c.54-.346 1.1-.728 1.65-1.147a7.04 7.04 0 0 0 1.21-1.093 2.97 2.97 0 0 0 .52-.967.92.92 0 0 0 .04-.492c-.03-.165-.1-.32-.2-.45-.3-.36-.67-.65-1.1-.852a5.67 5.67 0 0 0-3.53-.592c-1.25.136-2.45.52-3.54 1.13a9.96 9.96 0 0 0-2.3 1.738c-.54.57-.9 1.282-1.07 2.053a9.93 9.93 0 0 0-.23 1.801c0 .43.04 1.123.12 2.078l.53 4.75c.12 1.188.13 2.385.02 3.574-.14 1.157-.43 2.3-.87 3.37-.54 1.287-1.34 2.45-2.34 3.414a20.5 20.5 0 0 1-4.22 3.135c-3.64 2.04-7.73 3.14-11.9 3.2-4.35.18-8.67-.683-12.62-2.518l-6.23 3.602-3.2-1.846z" class="B"/><path d="M3394.32 217.148h-3.98c-4.47-8.785-12.7-17.068-24.7-23.998-38.25-22.092-100.26-22.092-138.5-.002-12 6.93-20.23 15.215-24.7 24h-3.98v16c0 14.477 9.56 28.953 28.68 39.998 38.25 22.09 100.26 22.092 138.5.002 19.12-11.046 28.68-25.523 28.68-40v-16z" class="G"/><path d="M3275.14 177.938a129.76 129.76 0 0 0-48.01 15.211c-12 6.93-20.23 15.215-24.7 24h-3.98v16c0 14.476 9.56 28.953 28.68 39.998a129.78 129.78 0 0 0 48.01 15.212v-110.42z" class="B"/><path d="M3365.9 272.985c18.94-11.026 28.42-25.43 28.4-39.84v-16h-3.98a57.18 57.18 0 0 0-19.66-20.836h-4.77v76.674z" class="C"/><g class="C E"><use xlink:href="#B" y="-48.041" class="E"/><path d="M3227.13 193.146a77.01 77.01 0 0 0-13.68 9.939v60.14a67.3 67.3 0 0 0 4.25 3.602v-65.184h8v70.635l1.42.866 2.82 1.55v-73.05h8v76.9a117.94 117.94 0 0 0 4.25 1.734v-78.635h8v81.398l4.25 1.236v-82.634h8v84.57l4.25.84v-85.408h8v86.662l4.25.5v-87.16h8v87.8l4.24.176v-87.986h8v88.03l4.25-.125v-87.906h8v87.386l4.25-.434v-86.952h8v85.82l4.25-.776v-85.045h8v83.234l4.25-1.158v-82.076h8v79.477l4.24-1.627v-77.85h8v74.234a101.76 101.76 0 0 0 4.25-2.254v-71.98h8v66.896l4.25-3.304v-63.592h.7a80.44 80.44 0 0 0-12.1-8.495 117.47 117.47 0 0 0-30.06-11.837h-78.4a117.91 117.91 0 0 0-30.05 11.836zm-21.7 19.04c-1.1 1.585-2.12 3.242-3 4.96h-1.24v29.327a42.48 42.48 0 0 0 4.25 7.691v-41.978z" class="E"/></g><path d="M3365.64 257.146c-38.25 22.09-100.26 22.1-138.5-.001-38.24-22.09-38.25-57.907 0-79.997s100.26-22.1 138.5.001 38.25 57.907 0 79.997z" class="B"/><g class="F"><path d="M3318.32 226.813c28.16-16.262 35.56-39.958 22.26-60.145-36.74-10.736-82.75-7.253-113.45 10.48-28.16 16.262-35.56 39.958-22.26 60.146 36.75 10.736 82.75 7.252 113.45-10.48z" class="H"/><path d="M3365.64 257.147c-38.25 22.1-100.26 22.09-138.5-.002-18.48-10.675-28-24.554-28.62-38.54-.67 14.96 8.86 30.04 28.62 41.458 38.25 22.09 100.26 22.09 138.5.001 19.76-11.416 29.3-26.497 28.62-41.455-.62 13.986-10.14 27.864-28.62 38.54z" class="J"/></g><use xlink:href="#C" y="-48.042" class="C"/><path d="M3247.23 192.42c27.14-15.68 71.16-15.68 98.3.001 12.77 7.374 19.53 16.903 20.3 26.56.85-10.878-5.9-21.92-20.3-30.227-27.15-15.68-71.17-15.68-98.3-.001-14.4 8.307-21.15 19.347-20.3 30.224.76-9.656 7.52-19.184 20.3-26.557zm83.34 5.766l-5.4 1.54 1.53.6-5.26 3.04a29.69 29.69 0 0 0-13.34-3.119c-4.5.002-8.94 1.202-12.84 3.477a19.83 19.83 0 0 0-3.88 2.814 8.15 8.15 0 0 0-2.08 2.973 9.65 9.65 0 0 0-.68 2.85c-.06 1.03-.02 2.063.12 3.084l.62 4.908a14.69 14.69 0 0 1 .13 3.442 6.09 6.09 0 0 1-1.17 2.787 9.33 9.33 0 0 1-3.08 2.642c-.95.688-2.07 1.097-3.24 1.183s-2.33-.158-3.37-.7c-1.47-.848-1.84-1.905-1.12-3.17a17.12 17.12 0 0 1 5.86-4.732v-3.684l-4.6 1.73-6.63-2.812c-3.16 1.66-5.86 4.087-7.85 7.057l-.76-.85v3.6l.02.001c.02 2.48 1.9 4.923 5.7 7.33l-2.62 1.513-3.56-1.63v3.683l3.2 1.845 6.23-3.6c3.95 1.835 8.27 2.698 12.62 2.517 4.17-.06 8.26-1.158 11.9-3.2a20.5 20.5 0 0 0 4.22-3.135c1-.965 1.8-2.127 2.34-3.414.44-1.078.73-2.212.87-3.37.1-1.2.1-2.386-.02-3.574l-.53-4.75c-.08-.955-.12-1.648-.12-2.078a9.93 9.93 0 0 1 .23-1.801 4.23 4.23 0 0 1 1.07-2.052c.68-.688 1.45-1.273 2.3-1.74a9.31 9.31 0 0 1 3.54-1.129c1.2-.188 2.45.02 3.53.592.43.202.8.492 1.1.852.13.178.2.394.2.615l-5.5 1.14v3.683l11.1 4.945a73.99 73.99 0 0 0 2.44-1.603 23.64 23.64 0 0 0 2.23-1.793c.7-.603 1.3-1.275 1.86-2.006.47-.657.83-1.4 1.06-2.168.1-.358.16-.728.18-1.1l.01-.014v-3.875l-1.4.295c-.02-.025-.03-.048-.05-.073a13.19 13.19 0 0 0-2.97-2.535l5.83-3.37v-3.683z" class="G"/><path d="M3263.1 234.076l6.18-3.566c-4.22-2.676-6.1-5.396-5.66-8.162.44-2.765 3.3-5.76 8.54-8.986l11.23 4.766a17.12 17.12 0 0 0-5.86 4.732c-.72 1.266-.35 2.322 1.12 3.17 1.04.542 2.2.785 3.37.7s2.3-.495 3.24-1.182c1.2-.646 2.26-1.548 3.08-2.643a6.09 6.09 0 0 0 1.17-2.787 14.68 14.68 0 0 0-.13-3.441l-.62-4.91c-.14-1.02-.18-2.054-.12-3.084.08-.978.3-1.938.68-2.85a8.15 8.15 0 0 1 2.08-2.973 19.83 19.83 0 0 1 3.88-2.814c3.9-2.275 8.33-3.475 12.84-3.477a29.69 29.69 0 0 1 13.34 3.119l5.87-3.386 3.25 1.88-5.83 3.37a13.19 13.19 0 0 1 2.97 2.535 6.47 6.47 0 0 1 1.35 2.427 4.53 4.53 0 0 1-.08 2.34c-.23.778-.6 1.51-1.06 2.168-.55.73-1.17 1.403-1.86 2.006a23.64 23.64 0 0 1-2.23 1.793c-.72.496-1.53 1.03-2.44 1.603l-11.1-4.945 2.08-1.29c.54-.346 1.1-.728 1.65-1.146.44-.315.85-.682 1.2-1.094a2.97 2.97 0 0 0 .52-.967.92.92 0 0 0 .04-.492c-.03-.165-.1-.32-.2-.45-.3-.36-.67-.65-1.1-.852a5.67 5.67 0 0 0-3.53-.591c-1.25.135-2.45.52-3.54 1.128-.85.465-1.62 1.05-2.3 1.74a4.23 4.23 0 0 0-1.07 2.052 9.93 9.93 0 0 0-.23 1.801c0 .43.04 1.123.12 2.078l.53 4.75c.12 1.188.13 2.385.02 3.574-.14 1.157-.43 2.29-.87 3.37-.54 1.287-1.34 2.45-2.34 3.414a20.5 20.5 0 0 1-4.22 3.135c-3.64 2.04-7.73 3.14-11.9 3.2-4.35.18-8.67-.682-12.62-2.517l-6.23 3.6-3.2-1.846z" class="B"/><path d="M3394.32 201.132h-3.98c-4.47-8.785-12.7-17.067-24.7-23.998-38.25-22.09-100.26-22.09-138.5-.001-12 6.93-20.23 15.214-24.7 24h-3.98v16c0 14.477 9.56 28.953 28.68 39.998 38.25 22.092 100.26 22.093 138.5.002 19.12-11.046 28.68-25.523 28.68-40v-16z" class="G"/><path d="M3275.14 161.92a129.78 129.78 0 0 0-48.01 15.212c-12 6.93-20.23 15.214-24.7 24h-3.98v16c0 14.477 9.56 28.953 28.68 39.998a129.8 129.8 0 0 0 48.01 15.213V161.92z" class="B"/><path d="M3365.9 256.97c18.94-11.026 28.42-25.43 28.4-39.838v-16h-3.98c-4.68-8.504-11.45-15.674-19.66-20.836h-4.77v76.674z" class="C"/><path d="M3389.28 199.275c-1.25-2.16-2.67-4.217-4.24-6.15v48.08a47.58 47.58 0 0 0 4.24-6.159v-35.77zm-162.15-22.14a77.01 77.01 0 0 0-13.68 9.939v60.14l4.25 3.6V185.63h8v70.634l1.42.866a110.06 110.06 0 0 0 2.83 1.55v-73.05h8v76.9l4.25 1.733V185.63h8v81.397l4.25 1.236V185.63h8v84.57l4.24.838V185.63h8v86.66l4.25.5v-87.16h8v87.8l4.25.175V185.62h8v88.03l4.25-.125V185.62h8v87.385l4.25-.434v-86.95h8v85.82l4.24-.777V185.62h8v83.233l4.25-1.158V185.62h8v79.476a126.4 126.4 0 0 0 4.25-1.627v-77.85h8v74.234l4.25-2.255v-71.98h8v66.895l4.25-3.304v-63.6h.7c-3.76-3.202-7.8-6.046-12.1-8.495a117.8 117.8 0 0 0-30.06-11.838h-78.4a117.91 117.91 0 0 0-30.05 11.836zm-21.7 19.04c-1.1 1.585-2.12 3.242-3 4.96h-1.23v29.327a41.79 41.79 0 0 0 4.24 7.69v-41.978z" class="E C"/><path d="M3365.64 241.134c-38.25 22.1-100.26 22.09-138.5-.002-38.24-22.09-38.25-57.907 0-79.997s100.26-22.1 138.5.001 38.25 57.907 0 79.998z" class="B"/><g class="F"><path d="M3318.32 210.8c28.16-16.262 35.56-39.96 22.26-60.146-36.75-10.736-82.75-7.252-113.45 10.48-28.16 16.262-35.56 39.96-22.26 60.146 36.75 10.736 82.75 7.253 113.45-10.48z" class="H"/><path d="M3365.64 241.135c-38.25 22.09-100.26 22.1-138.5-.002-18.48-10.675-28-24.554-28.62-38.54-.67 14.96 8.86 30.04 28.62 41.458 38.25 22.092 100.26 22.092 138.5.001 19.76-11.416 29.3-26.497 28.62-41.455-.62 13.986-10.14 27.865-28.62 38.54z" class="J"/></g><path d="M3345.54 229.525c-27.14 15.68-71.16 15.68-98.3-.001s-27.15-41.104 0-56.784 71.16-15.68 98.3 0 27.15 41.105 0 56.785z" class="C"/><path d="M3247.23 176.406c27.14-15.68 71.16-15.68 98.3.001 12.77 7.374 19.53 16.904 20.3 26.56.85-10.88-5.9-21.92-20.3-30.227-27.15-15.682-71.17-15.682-98.3-.001-14.4 8.306-21.15 19.346-20.3 30.224.76-9.656 7.52-19.185 20.3-26.558zm83.34 5.766l-5.4 1.54 1.53.608-5.26 3.04c-4.14-2.066-8.7-3.134-13.34-3.12a25.51 25.51 0 0 0-12.84 3.476 20.18 20.18 0 0 0-3.88 2.815c-.9.824-1.62 1.84-2.08 2.972a9.68 9.68 0 0 0-.68 2.85 15.9 15.9 0 0 0 .12 3.084l.62 4.908a14.68 14.68 0 0 1 .13 3.441 6.08 6.08 0 0 1-1.17 2.787c-.82 1.095-1.87 1.997-3.08 2.643-.95.687-2.07 1.097-3.24 1.182a6.28 6.28 0 0 1-3.37-.7c-1.47-.847-1.84-1.904-1.12-3.17a17.25 17.25 0 0 1 5.86-4.732v-3.683l-4.6 1.73-6.63-2.8c-3.16 1.66-5.86 4.087-7.85 7.057l-.76-.85v3.6h.02c.02 2.48 1.9 4.922 5.7 7.33l-2.62 1.512-3.56-1.63v3.683l3.2 1.846 6.23-3.602a27.23 27.23 0 0 0 12.62 2.518 25.08 25.08 0 0 0 11.9-3.2 20.5 20.5 0 0 0 4.22-3.135c1-.965 1.8-2.128 2.34-3.414.44-1.08.73-2.212.87-3.37.1-1.2.1-2.386-.02-3.574l-.53-4.75c-.08-.955-.12-1.65-.12-2.078a10 10 0 0 1 .23-1.8 4.24 4.24 0 0 1 1.07-2.053 9.93 9.93 0 0 1 2.3-1.738c1.1-.6 2.3-.994 3.54-1.13a5.67 5.67 0 0 1 3.53.592 3.19 3.19 0 0 1 1.1.851 1.05 1.05 0 0 1 .2.616l-5.5 1.14v3.683l11.1 4.945a75.64 75.64 0 0 0 2.44-1.603 23.64 23.64 0 0 0 2.23-1.793c.7-.603 1.3-1.275 1.86-2.006.47-.657.83-1.4 1.06-2.168.1-.36.16-.728.18-1.1l.01-.013v-3.875l-1.4.294c-.02-.025-.03-.048-.05-.073-.86-.988-1.86-1.842-2.97-2.535l5.83-3.37v-3.683z" class="G"/><path d="M3263.1 218.064l6.18-3.567c-4.22-2.675-6.1-5.396-5.66-8.16.44-2.766 3.3-5.762 8.54-8.987l11.23 4.766c-2.28 1.122-4.28 2.74-5.86 4.732-.72 1.266-.35 2.322 1.12 3.17a6.28 6.28 0 0 0 3.37.7c1.17-.085 2.3-.495 3.24-1.182 1.2-.646 2.26-1.548 3.08-2.643a6.09 6.09 0 0 0 1.17-2.787 14.68 14.68 0 0 0-.13-3.441l-.62-4.91a15.89 15.89 0 0 1-.12-3.083c.08-.98.3-1.94.68-2.85a8.15 8.15 0 0 1 2.08-2.973 19.87 19.87 0 0 1 3.88-2.814c3.9-2.275 8.33-3.475 12.84-3.476 4.63-.015 9.2 1.053 13.34 3.12l5.87-3.387 3.25 1.88-5.83 3.37a13.19 13.19 0 0 1 2.97 2.535c.62.7 1.08 1.53 1.35 2.428.18.773.15 1.58-.08 2.34-.23.778-.6 1.51-1.06 2.168a13.14 13.14 0 0 1-1.86 2.006 23.48 23.48 0 0 1-2.23 1.793c-.72.496-1.53 1.03-2.44 1.604l-11.1-4.946 2.08-1.3c.54-.346 1.1-.728 1.65-1.147.44-.315.85-.682 1.2-1.094.23-.287.4-.614.52-.966a.92.92 0 0 0 .04-.493.96.96 0 0 0-.21-.449 3.19 3.19 0 0 0-1.1-.851c-1.08-.574-2.32-.78-3.53-.592-1.25.135-2.45.52-3.54 1.13a9.93 9.93 0 0 0-2.3 1.738 4.23 4.23 0 0 0-1.07 2.053 9.91 9.91 0 0 0-.23 1.8c0 .43.04 1.123.12 2.08l.53 4.75c.12 1.188.13 2.386.02 3.575-.14 1.157-.43 2.3-.87 3.37-.54 1.286-1.34 2.448-2.34 3.414a20.46 20.46 0 0 1-4.22 3.134c-3.64 2.04-7.73 3.14-11.9 3.2-4.35.18-8.67-.682-12.62-2.517l-6.23 3.6-3.2-1.845z" class="B"/><path d="M3394.32 185.125h-3.98c-4.47-8.785-12.7-17.068-24.7-24-38.25-22.09-100.26-22.09-138.5-.001-12 6.93-20.23 15.214-24.7 24h-3.98v16c0 14.477 9.56 28.954 28.68 39.998 38.25 22.092 100.26 22.093 138.5.002 19.12-11.046 28.68-25.523 28.68-40v-16z" class="G"/><path d="M3275.14 145.91a129.78 129.78 0 0 0-48.01 15.212c-12 6.93-20.23 15.214-24.7 24h-3.98v16c0 14.477 9.56 28.953 28.68 39.998a129.8 129.8 0 0 0 48.01 15.213V145.91z" class="B"/><path d="M3365.9 240.963c18.94-11.027 28.42-25.432 28.4-39.84v-16h-3.98c-4.68-8.503-11.45-15.674-19.66-20.836h-4.77v76.675z" class="C"/><path d="M3389.28 183.26a46.66 46.66 0 0 0-4.25-6.151v48.08a46.61 46.61 0 0 0 4.25-6.159v-35.77zm-162.15-22.14a77.37 77.37 0 0 0-13.68 9.938v60.14a66.96 66.96 0 0 0 4.25 3.601v-65.183h8v70.635l1.42.866 2.82 1.55v-73.05h8v76.9l4.25 1.733v-78.634h8v81.397a131.49 131.49 0 0 0 4.25 1.237v-82.634h8v84.57l4.25.84v-85.408h8v86.662l4.25.5v-87.16h8v87.8l4.24.176V169.6h8v88.03l4.25-.125V169.61h8V257l4.25-.433v-86.952h8v85.82l4.25-.776v-85.045h8v83.233a138.36 138.36 0 0 0 4.25-1.157v-82.076h8V249.1l4.24-1.627v-77.85h8v74.234a100.6 100.6 0 0 0 4.25-2.255v-71.98h8v66.895l4.25-3.303v-63.592h.7a80.44 80.44 0 0 0-12.1-8.495c-9.43-5.307-19.54-9.3-30.06-11.838h-78.4a117.91 117.91 0 0 0-30.05 11.837zm-21.7 19.04a43.62 43.62 0 0 0-3.01 4.961h-1.24v29.327a42.47 42.47 0 0 0 4.25 7.69V180.16z" class="E C"/><path d="M3365.64 225.123c-38.25 22.1-100.26 22.1-138.5-.001-38.24-22.09-38.25-57.907 0-79.998s100.26-22.1 138.5.001 38.25 57.908 0 79.998z" class="B"/><g class="F"><path d="M3318.32 194.79c28.16-16.262 35.56-39.958 22.26-60.146-36.74-10.736-82.75-7.252-113.45 10.48-28.16 16.263-35.56 39.96-22.26 60.146 36.75 10.736 82.75 7.253 113.45-10.48z" class="H"/><path d="M3365.64 225.123c-38.25 22.1-100.26 22.09-138.5-.003-18.48-10.674-28-24.554-28.62-38.54-.67 14.96 8.86 30.042 28.62 41.46 38.25 22.09 100.26 22.09 138.5 0 19.76-11.415 29.3-26.496 28.62-41.455-.62 13.987-10.14 27.865-28.62 38.54z" class="J"/></g><path d="M3345.54 213.515c-27.14 15.68-71.16 15.68-98.3-.001s-27.15-41.104 0-56.784 71.16-15.68 98.3.001 27.15 41.104 0 56.784z" class="C"/><g class="G"><use xlink:href="#D" y="-48.036"/><path d="M3330.57 166.16l-5.4 1.54 1.53.608-5.26 3.04c-4.14-2.066-8.7-3.134-13.34-3.12-4.5.002-8.94 1.2-12.84 3.476-1.4.78-2.7 1.724-3.88 2.815-.9.824-1.62 1.84-2.08 2.972a9.68 9.68 0 0 0-.68 2.85 15.9 15.9 0 0 0 .12 3.084l.62 4.908a14.68 14.68 0 0 1 .13 3.441 6.08 6.08 0 0 1-1.17 2.787c-.82 1.095-1.87 1.997-3.08 2.643-.95.688-2.07 1.097-3.24 1.182s-2.33-.157-3.37-.7c-1.47-.848-1.84-1.905-1.12-3.17 1.58-1.994 3.58-3.61 5.86-4.733v-3.683l-4.6 1.73-6.63-2.81c-3.16 1.66-5.86 4.087-7.85 7.057l-.76-.85v3.61h.02c.02 2.48 1.9 4.923 5.7 7.33l-2.62 1.512-3.56-1.63v3.683l3.2 1.846 6.23-3.602c3.95 1.835 8.27 2.7 12.62 2.518 4.17-.06 8.26-1.16 11.9-3.2a20.5 20.5 0 0 0 4.22-3.135c1-.965 1.8-2.127 2.34-3.414.44-1.08.73-2.212.87-3.37.1-1.19.1-2.386-.02-3.574l-.53-4.75c-.08-.955-.12-1.65-.12-2.078.02-.607.1-1.2.23-1.8.16-.77.53-1.483 1.07-2.053a9.96 9.96 0 0 1 2.3-1.738c1.1-.6 2.3-.994 3.54-1.13a5.67 5.67 0 0 1 3.53.592c.43.202.8.492 1.1.85a1.05 1.05 0 0 1 .2.616l-5.5 1.14v3.683l11.1 4.945a75.64 75.64 0 0 0 2.44-1.603 23.64 23.64 0 0 0 2.23-1.793c.7-.603 1.3-1.275 1.86-2.006.47-.657.83-1.4 1.06-2.168.1-.36.16-.728.18-1.1l.01-.013v-3.875l-1.4.294c-.02-.025-.03-.048-.05-.073-.86-.988-1.86-1.842-2.97-2.535l5.83-3.37v-3.683z"/></g><path d="M3263.1 202.054l6.18-3.566c-4.22-2.676-6.1-5.396-5.66-8.162.44-2.766 3.3-5.76 8.54-8.986l11.23 4.765c-2.28 1.122-4.28 2.74-5.86 4.733-.72 1.265-.35 2.322 1.12 3.17a6.28 6.28 0 0 0 3.37.7c1.17-.085 2.3-.494 3.24-1.182 1.2-.646 2.26-1.548 3.08-2.642a6.09 6.09 0 0 0 1.17-2.788 14.68 14.68 0 0 0-.13-3.441l-.62-4.908c-.14-1.022-.18-2.055-.12-3.084a9.68 9.68 0 0 1 .68-2.85c.46-1.132 1.17-2.147 2.08-2.972 1.17-1.09 2.48-2.036 3.88-2.815 3.9-2.275 8.33-3.474 12.84-3.476 4.63-.015 9.2 1.053 13.34 3.12l5.87-3.387 3.25 1.88-5.83 3.37c1.1.693 2.1 1.547 2.97 2.535a6.48 6.48 0 0 1 1.35 2.428 4.53 4.53 0 0 1-.08 2.34c-.23.778-.6 1.51-1.06 2.168-.55.73-1.17 1.403-1.86 2.006a23.47 23.47 0 0 1-2.23 1.792c-.72.497-1.53 1.03-2.44 1.604l-11.1-4.945 2.08-1.29c.54-.346 1.1-.728 1.65-1.147a7.04 7.04 0 0 0 1.21-1.093 2.97 2.97 0 0 0 .52-.967.92.92 0 0 0 .04-.493c-.03-.164-.1-.318-.2-.448a3.18 3.18 0 0 0-1.1-.852 5.67 5.67 0 0 0-3.53-.592c-1.25.135-2.45.52-3.54 1.13a9.96 9.96 0 0 0-2.3 1.738c-.54.57-.9 1.282-1.07 2.053a9.93 9.93 0 0 0-.23 1.801c0 .43.04 1.123.12 2.078l.53 4.75c.12 1.188.13 2.385.02 3.574-.14 1.157-.43 2.3-.87 3.37-.54 1.287-1.34 2.45-2.34 3.414a20.5 20.5 0 0 1-4.22 3.135c-3.64 2.04-7.73 3.14-11.9 3.2-4.35.18-8.67-.683-12.62-2.518l-6.23 3.602-3.2-1.846z" class="B"/><path d="M3401.32 169.11h-3.98c-4.48-8.785-12.7-17.068-24.7-23.998-38.24-22.092-100.26-22.092-138.5-.002-12 6.93-20.23 15.214-24.7 24h-4v16c0 14.476 9.57 28.953 28.7 39.998 38.25 22.09 100.26 22.092 138.5.002 19.12-11.046 28.68-25.524 28.68-40v-16z" class="G"/><path d="M3282.14 129.9a129.78 129.78 0 0 0-48.01 15.212c-12 6.93-20.23 15.214-24.7 24h-4v16c0 14.477 9.57 28.954 28.7 40 14.86 8.157 31.17 13.326 48 15.212V129.9z" class="B"/><path d="M3372.9 224.95c18.94-11.026 28.42-25.43 28.42-39.84v-16h-3.98c-4.68-8.503-11.45-15.674-19.66-20.836h-4.78v76.675z" class="C"/><g class="C E"><use xlink:href="#B" x="7" y="-96.076" class="E"/><path d="M3234.13 145.1a77.37 77.37 0 0 0-13.68 9.938v60.14a67.3 67.3 0 0 0 4.25 3.602v-65.184h8v70.635l1.43.866 2.82 1.55v-73.05h8v76.9a117.94 117.94 0 0 0 4.25 1.734v-78.635h8v81.397a131.49 131.49 0 0 0 4.25 1.237v-82.634h8v84.57l4.25.84v-85.408h8v86.662l4.25.5V153.6h8v87.8l4.25.176V153.6h8v88.03l4.25-.125V153.6h8v87.385l4.25-.433V153.6h8v85.82l4.25-.776v-85.045h8v83.233a138.36 138.36 0 0 0 4.25-1.157v-82.076h8v79.476l4.25-1.627v-77.85h8v74.234a108.46 108.46 0 0 0 4.25-2.254v-71.98h8v66.896l4.25-3.304v-63.592h.7c-3.76-3.2-7.8-6.045-12.1-8.495-9.43-5.307-19.54-9.3-30.06-11.838h-78.4c-10.5 2.548-20.62 6.53-30.05 11.837zm-21.7 19.04c-1.1 1.586-2.12 3.243-3 4.96h-1.24v29.327a42.86 42.86 0 0 0 4.25 7.7V164.15z" class="E"/></g><path d="M3372.64 209.113c-38.25 22.1-100.26 22.1-138.5-.001s-38.25-57.907 0-79.998c38.24-22.1 100.26-22.1 138.5.001 38.25 22.09 38.25 57.908.01 79.998z" class="B"/><g class="F"><path d="M3325.32 178.78c28.16-16.262 35.56-39.958 22.26-60.146-36.75-10.736-82.75-7.252-113.45 10.48-28.16 16.263-35.56 39.96-22.26 60.146 36.75 10.736 82.75 7.253 113.45-10.48z" class="H"/><path d="M3372.64 209.107c-38.25 22.1-100.26 22.09-138.5-.002-18.48-10.675-28-24.554-28.63-38.542-.66 14.96 8.86 30.042 28.63 41.46 38.25 22.09 100.26 22.09 138.5.001 19.76-11.416 29.28-26.497 28.62-41.455-.62 13.986-10.14 27.864-28.62 38.54z" class="J"/></g><path d="M3352.54 197.504c-27.15 15.68-71.16 15.68-98.3-.001s-27.15-41.104 0-56.785c27.14-15.68 71.16-15.68 98.3.001s27.15 41.104 0 56.785z" class="C"/><path d="M3254.22 144.385c27.15-15.68 71.17-15.68 98.32 0 12.77 7.375 19.53 16.904 20.3 26.56.85-10.88-5.9-21.92-20.3-30.227-27.15-15.68-71.17-15.68-98.32-.001-14.38 8.306-21.14 19.346-20.28 30.224.76-9.656 7.52-19.184 20.28-26.557zm83.35 5.765l-5.4 1.54 1.53.6-5.26 3.04a29.69 29.69 0 0 0-13.34-3.119c-4.5.002-8.95 1.2-12.84 3.477a20.09 20.09 0 0 0-3.88 2.814 8.15 8.15 0 0 0-2.08 2.973 9.65 9.65 0 0 0-.68 2.85 15.9 15.9 0 0 0 .12 3.084l.62 4.908a14.69 14.69 0 0 1 .13 3.442 6.31 6.31 0 0 1-1.17 2.787 9.43 9.43 0 0 1-3.08 2.642c-.95.688-2.07 1.097-3.24 1.182a6.26 6.26 0 0 1-3.37-.699c-1.47-.848-1.84-1.905-1.12-3.17a17.12 17.12 0 0 1 5.86-4.732v-3.684l-4.6 1.73-6.63-2.8c-3.16 1.66-5.86 4.087-7.85 7.057l-.76-.85v3.6l.02.001c.02 2.48 1.9 4.923 5.7 7.33l-2.62 1.513-3.56-1.63v3.682l3.2 1.846 6.23-3.6c3.95 1.835 8.27 2.698 12.62 2.517 4.17-.06 8.26-1.158 11.9-3.2 1.54-.856 2.96-1.9 4.23-3.135 1-.965 1.8-2.127 2.34-3.414.44-1.078.73-2.212.86-3.37.12-1.2.1-2.386-.01-3.574l-.53-4.75c-.08-.955-.12-1.648-.12-2.078a9.93 9.93 0 0 1 .23-1.801 4.23 4.23 0 0 1 1.07-2.052 9.97 9.97 0 0 1 2.3-1.74 9.32 9.32 0 0 1 3.53-1.129c1.22-.188 2.46.02 3.54.592a3.29 3.29 0 0 1 1.1.852c.13.178.2.394.2.615l-5.5 1.14v3.683l11.1 4.945a63.75 63.75 0 0 0 2.43-1.603 22.55 22.55 0 0 0 2.24-1.793c.7-.603 1.3-1.275 1.86-2.006.47-.657.83-1.4 1.06-2.168.1-.358.16-.728.18-1.1l.01-.013v-3.875l-1.4.294c-.02-.025-.03-.048-.05-.072a13.14 13.14 0 0 0-2.97-2.535l5.83-3.37v-3.683z" class="G"/><path d="M3270.1 186.043l6.18-3.566c-4.22-2.676-6.1-5.396-5.67-8.162.45-2.766 3.3-5.76 8.55-8.986l11.23 4.765c-2.28 1.123-4.28 2.74-5.86 4.733-.73 1.265-.35 2.322 1.12 3.17a6.26 6.26 0 0 0 3.37.699c1.17-.085 2.3-.494 3.24-1.182a9.43 9.43 0 0 0 3.08-2.642 6.31 6.31 0 0 0 1.17-2.787 14.69 14.69 0 0 0-.13-3.442l-.62-4.908c-.14-1.02-.18-2.054-.12-3.084.08-.978.3-1.938.68-2.85a8.15 8.15 0 0 1 2.08-2.973c1.17-1.09 2.47-2.036 3.88-2.814 3.9-2.276 8.33-3.475 12.84-3.477 4.63-.015 9.2 1.054 13.34 3.12l5.86-3.386 3.26 1.88-5.83 3.37c1.1.693 2.1 1.547 2.97 2.535.62.7 1.08 1.53 1.34 2.428.2.773.16 1.58-.07 2.34-.23.778-.6 1.51-1.06 2.168-.55.73-1.17 1.403-1.86 2.006a22.55 22.55 0 0 1-2.24 1.793c-.7.496-1.52 1.03-2.43 1.603l-11.1-4.945 2.08-1.29c.54-.346 1.1-.728 1.65-1.146.44-.315.85-.682 1.2-1.094a2.97 2.97 0 0 0 .52-.967 1.03 1.03 0 0 0 .04-.492c-.03-.165-.1-.32-.2-.45a3.29 3.29 0 0 0-1.1-.852 5.69 5.69 0 0 0-3.54-.592 9.32 9.32 0 0 0-3.53 1.129c-.85.465-1.62 1.05-2.3 1.74a4.23 4.23 0 0 0-1.07 2.052 9.93 9.93 0 0 0-.23 1.801c0 .43.04 1.123.12 2.078l.53 4.75c.12 1.188.13 2.385.01 3.574-.13 1.157-.42 2.29-.86 3.37-.54 1.287-1.34 2.45-2.34 3.414-1.27 1.225-2.7 2.28-4.23 3.135-3.63 2.04-7.72 3.14-11.9 3.2-4.35.18-8.67-.682-12.62-2.517l-6.23 3.6-3.2-1.846z" class="B"/><path d="M3381.65 149.568h-4c-4.47-8.785-12.7-17.068-24.7-23.998-38.25-22.092-100.26-22.092-138.5-.002-12 6.93-20.23 15.215-24.7 24h-4v16c0 14.477 9.56 28.953 28.7 39.998 38.25 22.09 100.26 22.092 138.5.002 19.13-11.046 28.7-25.523 28.7-40v-16z" class="G"/><path d="M3262.47 110.356a129.72 129.72 0 0 0-48.01 15.212c-12 6.93-20.23 15.214-24.7 24h-4v16c0 14.476 9.56 28.953 28.7 39.997a129.78 129.78 0 0 0 48.01 15.213V110.356z" class="B"/><path d="M3353.23 205.406c18.94-11.026 28.42-25.43 28.42-39.84v-16h-3.98c-4.68-8.504-11.45-15.675-19.67-20.837h-4.77v76.675z" class="C"/><path d="M3376.6 147.7c-1.25-2.16-2.67-4.217-4.25-6.15v48.08a46.61 46.61 0 0 0 4.25-6.159v-35.77zm-162.14-22.14a77.37 77.37 0 0 0-13.68 9.938v60.14l4.25 3.602v-65.184h8V204.7l1.43.866 2.82 1.55v-73.05h8v76.9a117.94 117.94 0 0 0 4.25 1.734v-78.635h8v81.397a123.91 123.91 0 0 0 4.24 1.237v-82.634h8v84.57l4.25.84v-85.408h8v86.662l4.25.5v-87.16h8v87.8a163.15 163.15 0 0 0 4.25.176V134.06h8v88.03l4.25-.125v-87.906h8v87.386L3303 221v-86.952h8v85.82l4.25-.776v-85.045h8V217.3a138.36 138.36 0 0 0 4.25-1.157v-82.076h8v79.476a116.75 116.75 0 0 0 4.25-1.626v-77.85h8V208.3a109.84 109.84 0 0 0 4.25-2.255v-71.98h8v66.896l4.24-3.304v-63.592h.7c-3.76-3.2-7.8-6.045-12.1-8.495a117.77 117.77 0 0 0-30.05-11.838h-78.4a117.66 117.66 0 0 0-30.05 11.837zm-21.7 19.03a43.62 43.62 0 0 0-3.01 4.961h-1.24v29.327a42.47 42.47 0 0 0 4.25 7.69V144.6z" class="E C"/><path d="M3352.96 189.566c-38.24 22.09-100.25 22.1-138.5-.001s-38.25-57.907 0-79.998c38.24-22.1 100.25-22.09 138.5.002s38.25 57.907 0 79.997z" class="B"/><g class="F"><path d="M3305.65 159.234c28.16-16.262 35.56-39.958 22.26-60.145-36.75-10.736-82.75-7.252-113.45 10.48-28.16 16.262-35.56 39.958-22.26 60.146 36.74 10.736 82.75 7.252 113.45-10.48z" class="H"/><path d="M3352.96 189.567c-38.24 22.1-100.25 22.09-138.5-.002-18.48-10.675-28-24.555-28.63-38.542-.66 14.96 8.86 30.042 28.63 41.46 38.25 22.09 100.26 22.09 138.5.001 19.77-11.416 29.3-26.497 28.63-41.455-.62 13.986-10.15 27.864-28.63 38.54z" class="J"/></g><path d="M3332.87 177.958c-27.15 15.68-71.17 15.68-98.32-.001-27.14-15.68-27.15-41.105 0-56.785s71.17-15.68 98.32.001 27.15 41.104 0 56.785z" class="C"/><path d="M3234.55 124.84c27.15-15.68 71.17-15.68 98.32.001 12.77 7.374 19.52 16.903 20.28 26.56.86-10.88-5.9-21.92-20.28-30.227-27.15-15.68-71.17-15.68-98.32-.001-14.38 8.307-21.14 19.346-20.28 30.224.76-9.656 7.52-19.184 20.28-26.557zm83.35 5.764l-5.4 1.54 1.53.608-5.26 3.04a29.68 29.68 0 0 0-13.34-3.12 25.54 25.54 0 0 0-12.85 3.477c-1.4.78-2.7 1.724-3.87 2.814a8.15 8.15 0 0 0-2.08 2.973 9.65 9.65 0 0 0-.68 2.85c-.06 1.03-.02 2.063.12 3.084l.62 4.9a14.15 14.15 0 0 1 .12 3.44c-.15 1-.55 1.97-1.16 2.787a9.38 9.38 0 0 1-3.09 2.643 6.25 6.25 0 0 1-3.23 1.182 6.27 6.27 0 0 1-3.37-.7c-1.47-.848-1.85-1.904-1.12-3.17a17.12 17.12 0 0 1 5.86-4.732v-3.683l-4.6 1.728-6.63-2.8a21.48 21.48 0 0 0-7.85 7.058l-.76-.85v3.6l.02.001c.02 2.48 1.9 4.923 5.7 7.33l-2.62 1.513-3.56-1.63v3.683l3.2 1.845 6.23-3.6c3.94 1.835 8.27 2.698 12.62 2.517 4.17-.06 8.25-1.158 11.9-3.2 1.54-.856 2.96-1.9 4.22-3.135a9.99 9.99 0 0 0 2.34-3.414c.45-1.078.74-2.212.87-3.37.12-1.2.1-2.386-.01-3.574l-.53-4.75c-.08-.955-.12-1.648-.12-2.078a9.93 9.93 0 0 1 .23-1.801 4.23 4.23 0 0 1 1.07-2.052 9.97 9.97 0 0 1 2.3-1.74 9.32 9.32 0 0 1 3.53-1.129c1.22-.188 2.46.02 3.54.592a3.29 3.29 0 0 1 1.1.852.97.97 0 0 1 .19.615l-5.48 1.14v3.683l11.1 4.945a63.75 63.75 0 0 0 2.43-1.603 22.55 22.55 0 0 0 2.24-1.793c.7-.603 1.3-1.275 1.86-2.006.47-.657.83-1.4 1.06-2.168.1-.358.16-.728.18-1.1v-3.89l-1.42.295c-.02-.025-.03-.048-.05-.073-.85-.988-1.85-1.843-2.96-2.535l5.83-3.37v-3.682z" class="G"/><path d="M3250.42 166.497l6.18-3.567c-4.22-2.676-6.1-5.396-5.67-8.162.45-2.765 3.3-5.76 8.55-8.986l11.23 4.766a17.12 17.12 0 0 0-5.86 4.732c-.73 1.266-.35 2.322 1.12 3.17a6.27 6.27 0 0 0 3.37.7 6.24 6.24 0 0 0 3.23-1.183c1.2-.645 2.27-1.547 3.1-2.642.6-.818 1-1.776 1.16-2.787.1-1.148.06-2.303-.12-3.44l-.62-4.91c-.14-1.02-.18-2.054-.12-3.084.08-.978.3-1.938.68-2.85a8.15 8.15 0 0 1 2.08-2.973c1.17-1.1 2.47-2.035 3.87-2.814a25.54 25.54 0 0 1 12.85-3.477 29.69 29.69 0 0 1 13.34 3.119l5.86-3.386 3.26 1.88-5.83 3.37c1.1.692 2.1 1.547 2.96 2.535.63.7 1.1 1.53 1.35 2.427.2.773.16 1.58-.07 2.34-.23.778-.6 1.51-1.06 2.168-.55.73-1.17 1.403-1.86 2.006-.7.643-1.46 1.242-2.24 1.793-.7.496-1.52 1.03-2.43 1.603l-11.1-4.945 2.08-1.29a24.66 24.66 0 0 0 1.64-1.146c.45-.315.86-.682 1.2-1.094a2.82 2.82 0 0 0 .53-.967 1.03 1.03 0 0 0 .04-.492c-.03-.165-.1-.32-.2-.45a3.29 3.29 0 0 0-1.1-.852 5.7 5.7 0 0 0-3.54-.591 9.3 9.3 0 0 0-3.53 1.128c-.85.465-1.62 1.05-2.3 1.74a4.23 4.23 0 0 0-1.07 2.052 9.93 9.93 0 0 0-.23 1.801c0 .43.04 1.123.12 2.078l.53 4.75c.12 1.188.13 2.385.01 3.574-.13 1.157-.42 2.29-.87 3.37a10 10 0 0 1-2.34 3.415 19.97 19.97 0 0 1-4.22 3.134c-3.64 2.04-7.72 3.14-11.9 3.2-4.35.18-8.68-.682-12.62-2.517l-6.23 3.6-3.2-1.845z" class="B"/><path d="M3215.36 302.775h-4c-4.48-8.807-12.74-17.1-24.77-24.058-38.34-22.146-100.5-22.146-138.84-.001-12.03 6.948-20.3 15.25-24.77 24.06h-4v16.04c0 14.513 9.6 29.025 28.76 40.097 38.34 22.146 100.5 22.147 138.85.002 19.17-11.073 28.75-25.586 28.75-40.1v-16.04z" class="G"/><path d="M3095.9 263.47c-16.9 1.9-33.24 7.07-48.13 15.25-12.03 6.948-20.3 15.252-24.77 24.06h-4v16.04c0 14.512 9.6 29.025 28.76 40.097 14.9 8.178 31.24 13.36 48.13 15.25V263.47z" class="B"/><path d="M3186.87 358.75c19-11.053 28.5-25.494 28.5-39.937v-16.04h-4a57.32 57.32 0 0 0-19.71-20.887h-4.8v76.864z" class="C"/><path d="M3210.3 300.915c-1.25-2.166-2.68-4.228-4.26-6.166v48.2a46.9 46.9 0 0 0 4.26-6.174v-35.86zm-162.54-22.195c-4.93 2.808-9.52 6.15-13.72 9.963v60.3a70.59 70.59 0 0 0 4.26 3.611V287.24h8.03v70.8l1.43.87c.92.534 1.88 1.044 2.83 1.553v-73.23h8.03v77.1a125.99 125.99 0 0 0 4.25 1.738v-78.83h8.03v81.598a139.99 139.99 0 0 0 4.26 1.24V287.24h8.03v84.778l4.26.84v-85.62h8.02v86.876l4.26.5v-87.376h8.03v88.027l4.26.176v-88.203h8.03v88.25l4.26-.126V287.24h8.02v87.6l4.26-.434v-87.167h8.03v86.033l4.26-.778v-85.255h8.03v83.44c1.43-.365 2.85-.752 4.26-1.16v-82.28h8.02v79.673c1.44-.52 2.86-1.064 4.26-1.63V287.24h8.03v74.418a102.26 102.26 0 0 0 4.26-2.261V287.24h8.03v67.06a75.33 75.33 0 0 0 4.25-3.312v-63.75h.72c-3.77-3.2-7.84-6.06-12.13-8.516-9.45-5.32-19.6-9.314-30.13-11.868h-78.6c-10.54 2.554-20.67 6.547-30.12 11.866zM3026 297.807c-1.1 1.6-2.12 3.25-3.02 4.972h-1.24v29.4a42.65 42.65 0 0 0 4.26 7.71v-42.082z" class="E C"/><path d="M3186.6 342.877c-38.34 22.145-100.5 22.144-138.85-.001s-38.34-58.05 0-80.196 100.5-22.145 138.85.001c38.34 22.145 38.34 58.05 0 80.196z" class="B"/><g class="F"><path d="M3139.18 312.472c28.22-16.303 35.64-40.058 22.3-60.295-36.84-10.763-82.96-7.27-113.73 10.506-28.23 16.302-35.65 40.058-22.3 60.295 36.83 10.762 82.95 7.27 113.73-10.506z" class="H"/><path d="M3186.6 342.874c-38.35 22.145-100.5 22.144-138.85-.002-18.53-10.7-28.08-24.615-28.7-38.637-.67 14.997 8.88 30.116 28.7 41.56 38.34 22.147 100.5 22.147 138.85.001 19.8-11.444 29.36-26.562 28.7-41.557-.62 14.02-10.17 27.933-28.7 38.634z" class="J"/></g><path d="M3166.46 331.238c-27.2 15.72-71.34 15.72-98.56-.001-27.2-15.72-27.2-41.206 0-56.925 27.22-15.72 71.34-15.72 98.56.001s27.22 41.206 0 56.925z" class="C"/><path d="M3067.9 277.987c27.22-15.72 71.34-15.72 98.56.001 12.8 7.393 19.58 16.946 20.34 26.626.86-10.905-5.92-21.974-20.34-30.3-27.22-15.72-71.34-15.72-98.56-.001-14.42 8.327-21.2 19.394-20.34 30.3.77-9.68 7.54-19.232 20.34-26.624zm83.55 5.78l-5.4 1.544 1.54.6-5.28 3.047a29.77 29.77 0 0 0-13.37-3.127 25.58 25.58 0 0 0-12.88 3.485 20.24 20.24 0 0 0-3.89 2.822 8.29 8.29 0 0 0-2.08 2.98 9.71 9.71 0 0 0-.68 2.856c-.06 1.032-.02 2.068.12 3.092l.62 4.92c.18 1.14.22 2.3.13 3.45a6.22 6.22 0 0 1-1.17 2.794c-.83 1.098-1.88 2.002-3.1 2.65a6.23 6.23 0 0 1-3.25 1.185c-1.17.085-2.34-.157-3.38-.7-1.47-.85-1.84-1.9-1.12-3.178a17.11 17.11 0 0 1 5.88-4.744v-3.692l-4.62 1.733-6.64-2.818c-3.17 1.665-5.88 4.097-7.87 7.075l-.76-.853v3.62l.01.001c.03 2.486 1.92 4.935 5.73 7.347l-2.63 1.517-3.56-1.633v3.692l3.2 1.85 6.25-3.6a27.31 27.31 0 0 0 12.65 2.524c4.18-.06 8.28-1.16 11.92-3.207 1.55-.858 2.97-1.914 4.24-3.142a10.31 10.31 0 0 0 2.34-3.423 12.73 12.73 0 0 0 .87-3.377c.12-1.192.1-2.392-.01-3.583l-.53-4.762c-.08-.957-.13-1.652-.12-2.083a9.15 9.15 0 0 1 .23-1.805c.15-.774.53-1.487 1.07-2.058.68-.7 1.45-1.277 2.3-1.743a9.4 9.4 0 0 1 3.55-1.132 5.7 5.7 0 0 1 3.54.594 3.33 3.33 0 0 1 1.11.853c.13.18.2.396.2.617l-5.5 1.144v3.692l11.14 4.958a75.2 75.2 0 0 0 2.44-1.608 23.65 23.65 0 0 0 2.24-1.797 13.24 13.24 0 0 0 1.87-2.011 7.31 7.31 0 0 0 1.06-2.173 5.15 5.15 0 0 0 .18-1.104l.01-.013v-3.885l-1.42.295c-.02-.025-.03-.048-.05-.073-.86-1-1.86-1.847-2.97-2.54l5.84-3.377v-3.692z" class="G"/><path d="M3083.8 319.748l6.2-3.575c-4.23-2.682-6.13-5.4-5.68-8.182s3.3-5.775 8.57-9.01l11.26 4.778a17.11 17.11 0 0 0-5.88 4.744c-.73 1.27-.35 2.328 1.12 3.177 1.04.544 2.2.787 3.38.702s2.3-.496 3.25-1.185c1.2-.647 2.26-1.55 3.1-2.65a6.22 6.22 0 0 0 1.17-2.794c.1-1.15.05-2.31-.13-3.45l-.62-4.92c-.14-1.025-.18-2.06-.12-3.092a9.7 9.7 0 0 1 .68-2.856 8.28 8.28 0 0 1 2.08-2.98c1.18-1.094 2.5-2.04 3.9-2.822a25.57 25.57 0 0 1 12.88-3.485 29.73 29.73 0 0 1 13.37 3.127l5.88-3.395 3.26 1.885-5.84 3.378c1.1.694 2.1 1.55 2.97 2.54.62.702 1.1 1.533 1.35 2.434.2.775.16 1.585-.07 2.345-.23.78-.6 1.515-1.06 2.174a13.28 13.28 0 0 1-1.87 2.01 23.66 23.66 0 0 1-2.24 1.798 62.09 62.09 0 0 1-2.44 1.607l-11.13-4.957 2.08-1.294 1.65-1.15c.44-.315.85-.683 1.2-1.096.24-.288.4-.616.53-.97.05-.16.06-.33.03-.494s-.1-.32-.2-.45c-.3-.36-.68-.65-1.1-.854-1.08-.574-2.33-.782-3.54-.593-1.25.136-2.45.52-3.55 1.132a9.95 9.95 0 0 0-2.3 1.742c-.54.57-.92 1.285-1.07 2.058-.14.593-.2 1.198-.23 1.805-.01.43.04 1.126.12 2.084l.53 4.76c.12 1.19.13 2.392.01 3.583-.13 1.16-.43 2.297-.87 3.378a10.31 10.31 0 0 1-2.34 3.422 20.1 20.1 0 0 1-4.24 3.143c-3.64 2.046-7.74 3.148-11.92 3.207-4.36.18-8.7-.684-12.65-2.524l-6.25 3.6-3.2-1.85z" class="B"/><path d="M3227.15 278.704h-4c-4.48-8.806-12.73-17.1-24.76-24.057-38.34-22.146-100.5-22.146-138.85-.002-12.03 6.95-20.28 15.252-24.76 24.06h-4v16.04c0 14.513 9.6 29.025 28.76 40.097 38.34 22.146 100.5 22.147 138.85.002 19.17-11.073 28.76-25.586 28.76-40.1v-16.04z" class="G"/><path d="M3107.67 239.397c-16.88 1.89-33.24 7.072-48.13 15.25-12.03 6.948-20.28 15.252-24.76 24.06h-4v16.04c0 14.513 9.6 29.025 28.76 40.097 14.9 8.178 31.25 13.36 48.13 15.25V239.397z" class="B"/><path d="M3198.66 334.683c19-11.054 28.5-25.494 28.5-39.938v-16.04h-4a57.25 57.25 0 0 0-19.71-20.888h-4.78v76.865z" class="C"/><path d="M3222.1 276.84c-1.25-2.166-2.67-4.228-4.26-6.166v48.2a45.96 45.96 0 0 0 4.26-6.174v-35.86zm-162.56-22.194a77.26 77.26 0 0 0-13.71 9.963v60.3l4.26 3.6v-65.345h8.02v70.8l1.43.868 2.83 1.554v-73.232h8.03v77.092l4.26 1.738v-78.83h8.03v81.6l4.26 1.24v-82.838h8.02v84.78l4.26.84v-85.62h8.03v86.877l4.26.5v-87.377h8.03v88.028l4.25.176v-88.204h8.03v88.25l4.26-.125v-88.124h8.03v87.602l4.26-.434v-87.168h8.02v86.034l4.26-.78v-85.255h8.03v83.44l4.26-1.16v-82.28h8.03v79.674l4.26-1.63v-78.043h8.02v74.418a102.25 102.25 0 0 0 4.26-2.26v-72.158h8.03v67.06l4.26-3.3v-63.75h.7a79.69 79.69 0 0 0-12.13-8.516 118.13 118.13 0 0 0-30.13-11.867h-78.6c-10.53 2.554-20.67 6.546-30.12 11.866zm-21.74 19.086a42.53 42.53 0 0 0-3.02 4.973h-1.24v29.4c1.14 2.712 2.57 5.295 4.26 7.7v-42.082z" class="E C"/><path d="M3198.4 318.805c-38.34 22.146-100.5 22.145-138.85-.001s-38.34-58.05 0-80.195 100.5-22.145 138.85.001 38.34 58.05 0 80.195z" class="B"/><g class="F"><path d="M3150.96 288.395c28.22-16.302 35.64-40.057 22.3-60.294-36.84-10.763-82.95-7.27-113.73 10.505-28.23 16.303-35.65 40.058-22.3 60.296 36.83 10.762 82.95 7.27 113.73-10.507z" class="H"/><path d="M3198.4 318.806c-38.34 22.145-100.5 22.144-138.85-.002-18.53-10.7-28.07-24.615-28.7-38.637-.66 14.997 8.9 30.116 28.7 41.56 38.34 22.146 100.5 22.146 138.85.001 19.8-11.444 29.36-26.562 28.7-41.558-.63 14.02-10.17 27.934-28.7 38.635z" class="J"/></g><path d="M3178.25 307.168c-27.22 15.72-71.35 15.72-98.56-.001-27.22-15.72-27.22-41.206 0-56.926 27.2-15.72 71.34-15.718 98.55.001 27.22 15.72 27.22 41.206.01 56.926z" class="C"/><path d="M3079.68 253.917c27.22-15.72 71.35-15.72 98.56.001 12.8 7.392 19.58 16.945 20.34 26.626.86-10.906-5.92-21.974-20.34-30.302-27.2-15.72-71.34-15.72-98.56-.001-14.4 8.327-21.2 19.395-20.33 30.3.76-9.68 7.54-19.23 20.33-26.623zm83.56 5.783l-5.4 1.545 1.53.6-5.27 3.047c-4.16-2.07-8.74-3.14-13.38-3.127a25.6 25.6 0 0 0-12.88 3.485c-1.4.78-2.7 1.728-3.88 2.822-.9.827-1.62 1.844-2.1 2.98a10.38 10.38 0 0 0-.68 2.856c-.06 1.032-.02 2.068.12 3.092l.62 4.92c.18 1.14.22 2.3.13 3.45a6.11 6.11 0 0 1-1.17 2.794c-.82 1.098-1.88 2.002-3.1 2.65a6.29 6.29 0 0 1-3.24 1.185 6.33 6.33 0 0 1-3.39-.701c-1.47-.85-1.84-1.9-1.12-3.178a17.2 17.2 0 0 1 5.88-4.744v-3.692l-4.6 1.733-6.65-2.818c-3.17 1.665-5.87 4.097-7.87 7.075l-.76-.853v3.62h.02c.02 2.486 1.92 4.935 5.72 7.347l-2.62 1.517-3.57-1.634v3.692l3.2 1.85 6.25-3.6a27.31 27.31 0 0 0 12.65 2.524 25.12 25.12 0 0 0 11.93-3.207c1.54-.858 2.96-1.914 4.23-3.142a10.31 10.31 0 0 0 2.34-3.423c.45-1.08.74-2.218.88-3.378a18.64 18.64 0 0 0-.02-3.582l-.53-4.762c-.08-.958-.12-1.653-.12-2.083.02-.608.1-1.213.23-1.806.16-.773.53-1.486 1.07-2.058.68-.7 1.46-1.276 2.3-1.742a9.41 9.41 0 0 1 3.54-1.132 5.72 5.72 0 0 1 3.55.594c.42.202.8.493 1.1.853a1.05 1.05 0 0 1 .2.617l-5.5 1.144v3.692l11.13 4.958a65.62 65.62 0 0 0 2.44-1.608 22.57 22.57 0 0 0 2.25-1.797 13.7 13.7 0 0 0 1.86-2.011 7.31 7.31 0 0 0 1.06-2.173 5.15 5.15 0 0 0 .18-1.104v-.013-3.885l-1.42.295c-.02-.025-.03-.048-.05-.073a13 13 0 0 0-2.97-2.541l5.85-3.377V259.7z" class="G"/><path d="M3095.6 295.676l6.2-3.575c-4.23-2.683-6.12-5.4-5.68-8.182.45-2.773 3.3-5.776 8.57-9.01l11.26 4.778a17.2 17.2 0 0 0-5.88 4.743c-.72 1.27-.35 2.328 1.12 3.178a6.34 6.34 0 0 0 3.39.702 6.3 6.3 0 0 0 3.24-1.185c1.2-.648 2.27-1.552 3.1-2.65a6.11 6.11 0 0 0 1.17-2.794c.1-1.15.05-2.31-.13-3.45l-.62-4.92c-.14-1.024-.18-2.06-.12-3.09.1-.98.32-1.943.68-2.857.47-1.135 1.18-2.153 2.1-2.98 1.17-1.093 2.48-2.04 3.88-2.82 3.9-2.28 8.36-3.484 12.88-3.485 4.64-.015 9.22 1.056 13.38 3.126l5.87-3.394 3.27 1.885-5.85 3.377c1.1.695 2.12 1.55 2.97 2.542.63.702 1.1 1.533 1.36 2.434a4.55 4.55 0 0 1-.08 2.345 7.29 7.29 0 0 1-1.06 2.173 13.7 13.7 0 0 1-1.86 2.011 22.72 22.72 0 0 1-2.25 1.798 55.41 55.41 0 0 1-2.44 1.607l-11.13-4.957 2.08-1.294c.54-.347 1.1-.73 1.65-1.15.45-.316.85-.684 1.2-1.096.24-.288.42-.616.53-.97.05-.16.07-.33.04-.494s-.1-.32-.2-.45c-.3-.36-.68-.652-1.1-.854-1.1-.574-2.33-.783-3.55-.593a9.32 9.32 0 0 0-3.54 1.132c-.85.466-1.63 1.053-2.3 1.742a4.25 4.25 0 0 0-1.07 2.058c-.13.593-.2 1.197-.23 1.805 0 .43.04 1.126.12 2.083l.53 4.762a18.65 18.65 0 0 1 .02 3.583c-.14 1.16-.43 2.296-.88 3.378a10.03 10.03 0 0 1-2.34 3.422c-1.27 1.228-2.7 2.285-4.23 3.143-3.65 2.045-7.75 3.148-11.93 3.207a27.32 27.32 0 0 1-12.65-2.524l-6.25 3.6-3.2-1.85z" class="B"/><path d="M3366 405.802h-4.1c-4.6-9.054-13.1-17.6-25.45-24.732-39.42-22.767-103.33-22.767-142.75-.002-12.36 7.143-20.85 15.68-25.45 24.734h-4.1V422.3c0 14.92 9.86 29.84 29.57 41.222 39.4 22.766 103.32 22.768 142.74.002C3356.15 452.13 3366 437.2 3366 422.3v-16.488z" class="G"/><path d="M3243.17 365.39c-17.35 1.943-34.16 7.27-49.48 15.676-12.36 7.144-20.85 15.68-25.45 24.734h-4.1v16.49c0 14.92 9.86 29.838 29.57 41.22 15.3 8.407 32.12 13.734 49.47 15.678V365.39z" class="B"/><path d="M3336.7 463.348c19.52-11.364 29.3-26.2 29.3-41.058v-16.488h-4.1c-4.82-8.764-11.8-16.154-20.26-21.474h-4.92v79.02z" class="C"/><path d="M3360.8 403.882c-1.3-2.226-2.76-4.346-4.38-6.34v49.55a49.08 49.08 0 0 0 4.38-6.347V403.88zm-167.1-22.816a79.5 79.5 0 0 0-14.1 10.243v61.98l4.38 3.7v-67.176h8.25v72.794l1.47.893 2.9 1.597v-75.284h8.25v79.252l4.38 1.787v-81.04h8.25v83.886l4.38 1.274v-85.16h8.25v87.154l4.38.865v-88.02h8.25v89.3l4.38.514V389.82h8.25v90.495l4.38.18V389.82h8.25v90.722l4.38-.13v-90.593h8.25v90.057l4.38-.447v-89.6h8.25v88.445l4.38-.8v-87.645h8.26V475.6l4.37-1.193v-84.585h8.26v81.906a119.71 119.71 0 0 0 4.37-1.677v-80.23h8.26v76.504a113.37 113.37 0 0 0 4.37-2.324v-74.18h8.26v68.94a79.44 79.44 0 0 0 4.38-3.405V389.82h.73a82.1 82.1 0 0 0-12.47-8.755c-9.72-5.47-20.14-9.574-30.97-12.2h-80.8c-10.83 2.625-21.25 6.73-30.96 12.198zm-22.36 19.622c-1.14 1.634-2.18 3.342-3.1 5.113h-1.27v30.224a42.9 42.9 0 0 0 4.37 7.925v-43.262z" class="E C"/><path d="M3336.44 447.024c-39.42 22.766-103.33 22.765-142.74-.001-39.42-22.767-39.42-59.678-.01-82.444 39.42-22.766 103.33-22.765 142.75.001 39.4 22.766 39.4 59.678 0 82.444z" class="B"/><g class="F"><path d="M3287.68 415.763c29-16.76 36.64-41.18 22.93-61.985-37.86-11.064-85.28-7.474-116.92 10.8-29 16.76-36.64 41.18-22.93 61.985 37.86 11.064 85.28 7.474 116.92-10.8z" class="H"/><path d="M3336.44 447.024c-39.42 22.766-103.33 22.765-142.74-.002-19.05-11-28.87-25.305-29.5-39.72-.68 15.417 9.13 30.96 29.5 42.726 39.4 22.767 103.32 22.767 142.74.001 20.37-11.765 30.18-27.307 29.5-42.723-.64 14.414-10.46 28.717-29.5 39.718z" class="J"/></g><use xlink:href="#E" class="C"/><path d="M3214.4 380.316c27.98-16.16 73.35-16.16 101.32.001 13.16 7.6 20.13 17.42 20.9 27.373.88-11.2-6.08-22.6-20.9-31.15-27.97-16.16-73.34-16.16-101.32-.002-14.82 8.56-21.78 19.938-20.9 31.15.78-9.952 7.75-19.77 20.9-27.37zm85.9 5.944l-5.55 1.588 1.57.627-5.42 3.132c-4.27-2.13-8.98-3.23-13.75-3.214-4.65.001-9.22 1.238-13.24 3.583a20.57 20.57 0 0 0-3.99 2.9 8.58 8.58 0 0 0-2.15 3.064 10.96 10.96 0 0 0-.7 2.936 16.09 16.09 0 0 0 .13 3.178l.64 5.06c.18 1.173.22 2.363.13 3.546-.16 1.043-.57 2.03-1.2 2.873-.85 1.128-1.94 2.058-3.18 2.723-.98.708-2.13 1.13-3.34 1.218a6.47 6.47 0 0 1-3.47-.721c-1.52-.874-1.9-1.962-1.16-3.267 1.63-2.054 3.7-3.72 6.05-4.877v-3.796l-4.75 1.782-6.82-2.897a22.06 22.06 0 0 0-8.1 7.273l-.78-.876v3.72l.02.001c.02 2.556 1.97 5.074 5.88 7.554l-2.7 1.558-3.66-1.68v3.796l3.3 1.902 6.43-3.712a28.03 28.03 0 0 0 13 2.595 25.83 25.83 0 0 0 12.26-3.297 21.05 21.05 0 0 0 4.35-3.231 10.48 10.48 0 0 0 2.4-3.518 13.87 13.87 0 0 0 .9-3.472c.12-1.225.12-2.46-.01-3.684l-.55-4.895c-.08-.984-.12-1.7-.12-2.14.02-.625.1-1.247.24-1.856a4.29 4.29 0 0 1 1.1-2.116c.7-.708 1.5-1.312 2.37-1.8 1.12-.628 2.36-1.024 3.64-1.164a5.96 5.96 0 0 1 3.65.6 3.41 3.41 0 0 1 1.13.878 1.1 1.1 0 0 1 .2.634l-5.65 1.176v3.796l11.45 5.096c.93-.592 1.77-1.143 2.5-1.652.8-.568 1.57-1.185 2.3-1.848.7-.62 1.35-1.314 1.92-2.067a7.67 7.67 0 0 0 1.09-2.235c.1-.37.16-.75.18-1.134l.02-.014v-.058c0-.017-.01-.034 0-.052v-3.883l-1.46.303c-.02-.026-.03-.05-.05-.075-.9-1.018-1.92-1.9-3.06-2.612l6-3.473v-3.795z" class="G"/><path d="M3230.76 423.25l6.36-3.675c-4.35-2.758-6.3-5.562-5.84-8.412.46-2.85 3.4-5.937 8.82-9.26l11.57 4.91c-2.35 1.157-4.42 2.823-6.05 4.878-.74 1.304-.36 2.393 1.16 3.266a6.46 6.46 0 0 0 3.47.721c1.2-.087 2.36-.51 3.34-1.218 1.24-.665 2.33-1.595 3.18-2.723.63-.843 1.04-1.83 1.2-2.872a15.59 15.59 0 0 0-.13-3.547l-.64-5.058c-.15-1.053-.2-2.117-.13-3.178a10.59 10.59 0 0 1 .7-2.937 8.58 8.58 0 0 1 2.15-3.064 20.57 20.57 0 0 1 3.99-2.9c4.02-2.345 8.6-3.58 13.24-3.583 4.77-.015 9.48 1.086 13.75 3.215l6.04-3.49 3.36 1.94-6 3.472c1.14.713 2.17 1.594 3.06 2.612.64.722 1.1 1.576 1.4 2.502.2.797.16 1.63-.08 2.412-.24.8-.6 1.557-1.1 2.234-.57.753-1.2 1.446-1.92 2.067-.73.663-1.5 1.28-2.3 1.848-.74.51-1.57 1.062-2.5 1.652l-11.45-5.096 2.14-1.33c.56-.356 1.12-.75 1.7-1.18a6.65 6.65 0 0 0 1.24-1.127c.25-.296.43-.634.55-.997.05-.163.06-.338.03-.507a1 1 0 0 0-.21-.463 3.41 3.41 0 0 0-1.13-.877 5.88 5.88 0 0 0-3.65-.61c-1.28.14-2.52.535-3.64 1.163a10.13 10.13 0 0 0-2.37 1.792c-.56.587-.94 1.32-1.1 2.115-.14.6-.22 1.23-.24 1.856 0 .443.04 1.157.12 2.14l.55 4.896c.13 1.224.13 2.458.01 3.683-.14 1.193-.44 2.36-.9 3.472-.56 1.326-1.38 2.524-2.4 3.52-1.3 1.262-2.77 2.348-4.35 3.23a25.83 25.83 0 0 1-12.26 3.297 28.04 28.04 0 0 1-13-2.594l-6.43 3.71-3.3-1.902z" class="B"/><path d="M3366 389.298h-4.1c-4.6-9.054-13.1-17.6-25.45-24.732-39.42-22.767-103.33-22.767-142.75-.002-12.36 7.143-20.85 15.68-25.45 24.734h-4.1v16.49c0 14.92 9.86 29.838 29.57 41.22 39.4 22.767 103.32 22.768 142.74.002 19.7-11.384 29.56-26.304 29.56-41.223v-16.49z" class="G"/><path d="M3243.17 348.888c-17.35 1.943-34.16 7.27-49.48 15.677-12.36 7.143-20.85 15.68-25.45 24.733h-4.1v16.49c0 14.92 9.86 29.84 29.57 41.22 15.3 8.407 32.12 13.733 49.47 15.678V348.888z" class="B"/><path d="M3336.7 446.843c19.52-11.363 29.3-26.208 29.3-41.057v-16.49h-4.1a58.84 58.84 0 0 0-20.26-21.473h-4.92v79.02z" class="C"/><path d="M3360.8 387.38c-1.3-2.227-2.76-4.346-4.38-6.34v49.55a49.08 49.08 0 0 0 4.38-6.347V387.38zm-167.1-22.816a79.5 79.5 0 0 0-14.1 10.243v61.98a68.26 68.26 0 0 0 4.38 3.711V373.32h8.25v72.794l1.47.893 2.9 1.597V373.32h8.25v79.252l4.38 1.787v-81.04h8.25v83.886a129.84 129.84 0 0 0 4.38 1.274v-85.16h8.25v87.154l4.38.865v-88.02h8.25v89.3l4.38.514V373.32h8.25v90.495l4.38.18V373.32h8.25v90.722l4.38-.13V373.32h8.25v90.057l4.38-.447v-89.6h8.25v88.445l4.38-.8V373.32h8.25v85.78a129.7 129.7 0 0 0 4.38-1.193V373.32h8.26v81.906l4.37-1.677v-80.23h8.26v76.504a113.37 113.37 0 0 0 4.37-2.324v-74.18h8.26v68.94a78.47 78.47 0 0 0 4.38-3.404V373.32h.73a82.1 82.1 0 0 0-12.47-8.755c-9.72-5.47-20.14-9.574-30.97-12.2h-80.8c-10.83 2.625-21.25 6.73-30.96 12.198zm-22.36 19.623a45.93 45.93 0 0 0-3.1 5.112h-1.27v30.224a42.9 42.9 0 0 0 4.37 7.925v-43.26z" class="E C"/><path d="M3336.44 430.522c-39.42 22.766-103.33 22.765-142.74-.002-39.42-22.766-39.42-59.677-.01-82.443 39.42-22.766 103.33-22.765 142.74.001 39.42 22.766 39.42 59.678.01 82.444z" class="B"/><g class="F"><path d="M3287.67 399.26c29.02-16.76 36.65-41.18 22.94-61.985-37.87-11.064-85.28-7.474-116.92 10.8-29.02 16.76-36.64 41.18-22.94 61.985 37.87 11.064 85.28 7.474 116.92-10.8z" class="H"/><use xlink:href="#F" class="J"/></g><path d="M3315.73 418.56c-27.98 16.16-73.34 16.16-101.32-.001s-27.98-42.362-.01-58.52c27.98-16.16 73.35-16.16 101.33 0s27.98 42.362 0 58.522z" class="C"/><g class="G"><use xlink:href="#G"/><path d="M3300.3 369.758l-5.55 1.588 1.57.627-5.42 3.132c-4.27-2.128-8.98-3.23-13.75-3.214-4.65.002-9.22 1.238-13.24 3.583a20.57 20.57 0 0 0-3.99 2.9 8.58 8.58 0 0 0-2.15 3.064c-.37.94-.6 1.928-.7 2.936-.06 1.06-.02 2.126.13 3.18l.64 5.058c.18 1.173.22 2.363.13 3.546-.16 1.043-.57 2.03-1.2 2.873-.85 1.128-1.94 2.058-3.18 2.723-.98.71-2.13 1.13-3.34 1.218a6.46 6.46 0 0 1-3.47-.721c-1.52-.873-1.9-1.962-1.16-3.266 1.63-2.055 3.7-3.72 6.05-4.878v-3.795l-4.75 1.782-6.82-2.898c-3.27 1.712-6.05 4.212-8.1 7.274l-.78-.877v3.722l.02.001c.02 2.555 1.97 5.073 5.88 7.553l-2.7 1.56-3.66-1.68v3.796l3.3 1.902 6.43-3.71a28.04 28.04 0 0 0 13 2.594 25.83 25.83 0 0 0 12.26-3.297c1.58-.882 3.04-1.968 4.35-3.23 1.03-.995 1.85-2.193 2.4-3.52.45-1.112.75-2.28.9-3.472.12-1.225.12-2.46-.01-3.683l-.55-4.896c-.08-.984-.12-1.698-.12-2.14.02-.625.1-1.247.24-1.856.16-.795.54-1.528 1.1-2.116.7-.708 1.5-1.312 2.37-1.79 1.12-.628 2.36-1.024 3.64-1.163 1.25-.195 2.53.02 3.65.61.43.208.82.508 1.13.878.13.184.2.407.2.634l-5.65 1.176v3.796l11.45 5.096a81.59 81.59 0 0 0 2.51-1.652c.8-.568 1.57-1.185 2.3-1.848.7-.62 1.35-1.314 1.92-2.067.48-.677.85-1.433 1.1-2.234.1-.37.16-.75.18-1.135l.02-.014v-.058c0-.017-.01-.034 0-.05V379.4l-1.46.303c-.02-.025-.03-.05-.05-.075-.9-1.018-1.92-1.9-3.06-2.612l6-3.472v-3.796z"/></g><path d="M3230.76 406.746l6.36-3.675c-4.35-2.758-6.3-5.562-5.84-8.412.46-2.85 3.4-5.937 8.82-9.26l11.57 4.912a17.7 17.7 0 0 0-6.05 4.876c-.74 1.305-.36 2.394 1.16 3.267a6.47 6.47 0 0 0 3.47.722c1.2-.088 2.36-.5 3.34-1.22 1.24-.665 2.33-1.595 3.18-2.723.63-.843 1.04-1.83 1.2-2.872a15.59 15.59 0 0 0-.13-3.547l-.64-5.058c-.15-1.053-.2-2.118-.13-3.18.1-1.008.33-1.997.7-2.936.48-1.167 1.22-2.214 2.15-3.064a20.57 20.57 0 0 1 3.99-2.9c4.02-2.345 8.6-3.58 13.24-3.583 4.77-.015 9.48 1.086 13.75 3.214l6.04-3.5 3.36 1.94-6 3.472c1.14.713 2.17 1.594 3.06 2.612.64.722 1.1 1.576 1.4 2.502.2.797.16 1.63-.08 2.412-.24.8-.6 1.557-1.1 2.234-.57.753-1.2 1.446-1.92 2.067-.73.663-1.5 1.28-2.3 1.848-.74.51-1.57 1.062-2.5 1.652l-11.45-5.096 2.14-1.33a28.96 28.96 0 0 0 1.7-1.182 6.65 6.65 0 0 0 1.24-1.127c.25-.296.43-.634.55-.997.05-.163.06-.338.03-.507a1 1 0 0 0-.21-.463 3.41 3.41 0 0 0-1.13-.877 5.88 5.88 0 0 0-3.65-.61c-1.28.14-2.52.535-3.64 1.163a10.13 10.13 0 0 0-2.37 1.792c-.56.587-.94 1.32-1.1 2.115-.14.6-.22 1.23-.24 1.856 0 .443.04 1.157.12 2.142l.55 4.895c.13 1.224.13 2.458.01 3.683-.14 1.193-.44 2.36-.9 3.472-.56 1.326-1.38 2.524-2.4 3.52-1.3 1.262-2.77 2.348-4.35 3.23a25.83 25.83 0 0 1-12.26 3.297 28.03 28.03 0 0 1-13-2.594l-6.43 3.71-3.3-1.902z" class="B"/><path d="M3351.87 381.54h-4.1c-4.6-9.054-13.1-17.6-25.46-24.732-39.4-22.767-103.32-22.767-142.74-.002-12.37 7.143-20.85 15.68-25.45 24.734h-4.1v16.49c0 14.92 9.86 29.838 29.56 41.22 39.42 22.767 103.33 22.768 142.75.002 19.7-11.384 29.56-26.304 29.56-41.223v-16.49z" class="G"/><path d="M3229.04 341.13c-17.36 1.944-34.17 7.27-49.48 15.677-12.37 7.143-20.85 15.68-25.45 24.733h-4.1v16.49c0 14.92 9.86 29.84 29.56 41.22 15.32 8.408 32.12 13.734 49.48 15.678V341.13z" class="B"/><path d="M3322.58 439.088c19.52-11.364 29.3-26.21 29.3-41.058v-16.488h-4.1c-4.82-8.764-11.8-16.154-20.26-21.474h-4.92v79.02z" class="C"/><path d="M3346.67 379.623a48.09 48.09 0 0 0-4.38-6.339v49.55c1.63-1.995 3.1-4.118 4.38-6.347v-36.865zm-167.1-22.816a79.18 79.18 0 0 0-14.1 10.242v61.98a74.23 74.23 0 0 0 4.38 3.712v-67.177h8.25v72.794l1.47.893a128.31 128.31 0 0 0 2.9 1.597v-75.284h8.26v79.252a115.6 115.6 0 0 0 4.37 1.787v-81.04h8.26v83.886a136.4 136.4 0 0 0 4.37 1.274v-85.16h8.26v87.155l4.38.864v-88.02h8.25v89.3l4.38.515V365.56h8.25v90.495l4.38.18V365.56h8.25v90.723l4.38-.13V365.56h8.25v90.057l4.38-.447v-89.6h8.25v88.445l4.38-.8V365.57h8.25v85.778l4.38-1.193V365.57h8.25v81.906l4.38-1.676v-80.23h8.25v76.504a106.85 106.85 0 0 0 4.38-2.324v-74.18h8.25v68.94l4.38-3.405v-65.536h.73c-3.87-3.3-8.05-6.23-12.47-8.755-9.7-5.47-20.13-9.574-30.97-12.2h-80.8a121.58 121.58 0 0 0-30.97 12.199zm-22.36 19.623a46.01 46.01 0 0 0-3.11 5.112h-1.27v30.224c1.18 2.788 2.65 5.444 4.38 7.925v-43.26z" class="E C"/><path d="M3322.3 422.764c-39.42 22.766-103.33 22.765-142.75-.001-39.4-22.766-39.4-59.678 0-82.444 39.42-22.766 103.33-22.765 142.74.001 39.42 22.767 39.42 59.678.01 82.444z" class="B"/><g class="F"><path d="M3273.54 391.504c29.02-16.76 36.65-41.18 22.94-61.984-37.87-11.065-85.28-7.475-116.92 10.8-29 16.76-36.64 41.18-22.94 61.985 37.87 11.065 85.28 7.475 116.92-10.8z" class="H"/><path d="M3322.3 422.762c-39.4 22.766-103.32 22.765-142.74-.002-19.04-11-28.86-25.305-29.5-39.72-.68 15.417 9.13 30.96 29.5 42.726 39.42 22.767 103.33 22.767 142.74.001 20.37-11.765 30.2-27.307 29.5-42.722-.64 14.413-10.45 28.716-29.5 39.717z" class="J"/></g><path d="M3301.6 410.8c-27.98 16.16-73.35 16.16-101.33-.001s-27.98-42.36 0-58.52 73.34-16.16 101.32.001 27.98 42.36.01 58.52z" class="C"/><path d="M3200.27 356.056c27.98-16.16 73.34-16.16 101.32.001 13.16 7.6 20.13 17.42 20.9 27.373.88-11.2-6.08-22.6-20.9-31.15-27.98-16.16-73.34-16.16-101.32-.001-14.82 8.56-21.8 19.938-20.9 31.148.78-9.95 7.74-19.77 20.9-27.37zm85.9 5.942l-5.56 1.588 1.58.627-5.42 3.132c-4.27-2.128-8.98-3.23-13.75-3.214-4.65.002-9.22 1.238-13.24 3.583a20.57 20.57 0 0 0-3.99 2.9c-.94.85-1.67 1.897-2.15 3.064a10.96 10.96 0 0 0-.7 2.936c-.06 1.06-.02 2.126.13 3.18l.64 5.058a15.59 15.59 0 0 1 .13 3.547 6.42 6.42 0 0 1-1.2 2.872 9.63 9.63 0 0 1-3.17 2.723 6.51 6.51 0 0 1-3.34 1.218 6.44 6.44 0 0 1-3.47-.721c-1.52-.873-1.9-1.962-1.16-3.267a17.7 17.7 0 0 1 6.05-4.876v-3.796l-4.75 1.782-6.83-2.898c-3.26 1.712-6.04 4.213-8.1 7.273l-.78-.876v3.723c.02 2.555 1.97 5.073 5.88 7.553l-2.7 1.56-3.66-1.68v3.795l3.3 1.902 6.42-3.7a28.09 28.09 0 0 0 13 2.594 25.76 25.76 0 0 0 12.26-3.297 20.56 20.56 0 0 0 4.35-3.23 10.53 10.53 0 0 0 2.42-3.52c.45-1.1.75-2.28.9-3.472.12-1.225.1-2.46-.01-3.683l-.55-4.895c-.08-.985-.13-1.7-.12-2.142.02-.625.1-1.246.24-1.856.16-.795.54-1.528 1.1-2.115a10.51 10.51 0 0 1 2.36-1.792 9.66 9.66 0 0 1 3.65-1.163 5.91 5.91 0 0 1 3.64.6c.44.207.83.507 1.14.877a1.1 1.1 0 0 1 .2.634l-5.65 1.176v3.796l11.45 5.096c.93-.6 1.77-1.142 2.5-1.652a23.52 23.52 0 0 0 2.31-1.848c.7-.62 1.35-1.314 1.92-2.067.48-.677.85-1.433 1.08-2.234.1-.37.17-.75.2-1.134l.01-.015v-3.993l-1.45.303c-.02-.025-.03-.05-.06-.075a13.25 13.25 0 0 0-3.05-2.612l6-3.472v-3.796z" class="G"/><path d="M3216.63 398.988l6.36-3.675c-4.35-2.758-6.3-5.56-5.84-8.412s3.4-5.937 8.8-9.26l11.58 4.91a17.6 17.6 0 0 0-6.05 4.877c-.74 1.304-.36 2.393 1.16 3.267a6.45 6.45 0 0 0 3.47.721 6.53 6.53 0 0 0 3.34-1.218 9.77 9.77 0 0 0 3.18-2.724c.63-.843 1.04-1.83 1.2-2.872.1-1.183.05-2.374-.13-3.547l-.64-5.058c-.15-1.053-.2-2.117-.13-3.178a10.59 10.59 0 0 1 .7-2.937 8.46 8.46 0 0 1 2.15-3.063c1.2-1.124 2.55-2.098 4-2.9 4.02-2.345 8.6-3.58 13.24-3.583 4.77-.015 9.48 1.086 13.75 3.215l6.04-3.5 3.36 1.938-6 3.472a13.49 13.49 0 0 1 3.05 2.613c.65.72 1.12 1.576 1.4 2.502a4.49 4.49 0 0 1-.08 2.411c-.23.802-.6 1.557-1.08 2.234-.57.753-1.2 1.446-1.92 2.067a23.52 23.52 0 0 1-2.31 1.848c-.73.51-1.57 1.062-2.5 1.653l-11.45-5.097 2.14-1.33a32.74 32.74 0 0 0 1.7-1.182c.45-.324.87-.703 1.24-1.127.24-.295.43-.633.55-.996a1.09 1.09 0 0 0 .03-.508 1.01 1.01 0 0 0-.21-.463 3.36 3.36 0 0 0-1.14-.877c-1.1-.59-2.4-.805-3.64-.6a9.66 9.66 0 0 0-3.65 1.163c-.87.48-1.66 1.083-2.36 1.792-.56.587-.94 1.32-1.1 2.115-.14.6-.22 1.23-.24 1.856-.01.443.04 1.157.12 2.142l.55 4.895c.12 1.224.13 2.458.01 3.683-.14 1.193-.44 2.36-.9 3.473-.56 1.325-1.38 2.523-2.42 3.518a20.56 20.56 0 0 1-4.35 3.23 25.75 25.75 0 0 1-12.26 3.297 28.08 28.08 0 0 1-13-2.594l-6.42 3.71-3.3-1.902z" class="B"/><path d="M3366 356.297h-4.1c-4.6-9.054-13.1-17.6-25.46-24.732-39.4-22.767-103.32-22.767-142.74-.002-12.36 7.143-20.85 15.68-25.45 24.734h-4.1v16.49c0 14.92 9.86 29.838 29.57 41.22 39.4 22.767 103.32 22.768 142.74.001 19.7-11.383 29.56-26.303 29.56-41.222v-16.49z" class="G"/><path d="M3243.17 315.884c-17.35 1.943-34.16 7.27-49.48 15.677-12.36 7.143-20.85 15.68-25.45 24.733h-4.1v16.49c0 14.92 9.86 29.84 29.57 41.22 15.3 8.407 32.12 13.734 49.47 15.678V315.884z" class="B"/><path d="M3336.7 413.842c19.52-11.364 29.3-26.21 29.3-41.058v-16.49h-4.1a58.84 58.84 0 0 0-20.26-21.473h-4.92v79.02z" class="C"/><path d="M3360.8 354.377c-1.28-2.226-2.75-4.346-4.37-6.34v49.55c1.62-1.995 3.1-4.118 4.37-6.347v-36.865zm-167.1-22.817c-5.06 2.888-9.78 6.322-14.1 10.243v61.98a70.88 70.88 0 0 0 4.37 3.712v-67.177h8.26v72.794l1.47.893c.95.55 1.93 1.074 2.9 1.597v-75.284h8.25v79.252c1.44.62 2.9 1.216 4.38 1.787v-81.04h8.25v83.886a129.84 129.84 0 0 0 4.38 1.274v-85.16h8.25v87.155l4.38.864v-88.02h8.25v89.3l4.38.515v-89.826h8.25V430.8l4.38.18v-90.676h8.25v90.722l4.38-.128v-90.594h8.25v90.057l4.38-.447v-89.6h8.25v88.445l4.38-.8v-87.645h8.25v85.778a129.7 129.7 0 0 0 4.38-1.193v-84.585h8.25v81.906c1.48-.534 2.94-1.093 4.38-1.676v-80.23h8.26v76.504a113.37 113.37 0 0 0 4.37-2.324v-74.18h8.26v68.94a72.28 72.28 0 0 0 4.37-3.405v-65.536h.73c-3.87-3.3-8.05-6.23-12.46-8.755a121.47 121.47 0 0 0-30.98-12.2h-80.8c-10.83 2.626-21.25 6.73-30.97 12.198zm-22.36 19.624a45.93 45.93 0 0 0-3.1 5.112h-1.28v30.224a43.54 43.54 0 0 0 4.38 7.925v-43.26z" class="E C"/><path d="M3336.44 397.52c-39.42 22.766-103.33 22.765-142.74-.001-39.42-22.766-39.42-59.678-.01-82.444 39.42-22.766 103.33-22.765 142.74.001 39.42 22.767 39.42 59.678.01 82.444z" class="B"/><g class="F"><path d="M3287.67 366.257c29.02-16.76 36.65-41.18 22.94-61.985-37.87-11.064-85.28-7.474-116.92 10.8-29.02 16.76-36.64 41.18-22.94 61.985 37.87 11.064 85.28 7.475 116.92-10.8z" class="H"/><use xlink:href="#F" y="-33.004" class="J"/></g><use xlink:href="#E" y="-49.503" class="C"/><g class="G"><use xlink:href="#G" y="-33.002"/><path d="M3300.3 336.755l-5.55 1.588 1.57.627-5.42 3.132c-4.27-2.128-8.98-3.23-13.75-3.214-4.65.001-9.22 1.238-13.24 3.583a20.57 20.57 0 0 0-3.99 2.9 8.58 8.58 0 0 0-2.15 3.064c-.37.94-.6 1.928-.7 2.936-.06 1.06-.02 2.126.13 3.18l.64 5.058c.18 1.173.22 2.363.13 3.546-.16 1.043-.57 2.03-1.2 2.873-.85 1.128-1.94 2.058-3.18 2.723-.98.71-2.13 1.13-3.34 1.218a6.47 6.47 0 0 1-3.47-.721c-1.52-.873-1.9-1.962-1.16-3.267 1.63-2.054 3.7-3.72 6.05-4.877v-3.795l-4.75 1.782-6.82-2.898a22.06 22.06 0 0 0-8.1 7.273l-.78-.876v3.722h.02c.02 2.556 1.97 5.074 5.88 7.554l-2.7 1.56-3.66-1.68v3.796l3.3 1.902 6.43-3.712a28.03 28.03 0 0 0 13 2.595 25.83 25.83 0 0 0 12.26-3.297 21.05 21.05 0 0 0 4.35-3.231c1.03-.994 1.85-2.192 2.4-3.518.45-1.112.75-2.28.9-3.472.12-1.225.12-2.46-.01-3.683l-.55-4.896c-.08-.984-.12-1.698-.12-2.14.02-.625.1-1.247.24-1.856a4.29 4.29 0 0 1 1.1-2.116 10.37 10.37 0 0 1 2.37-1.791c1.12-.628 2.36-1.024 3.64-1.163a5.88 5.88 0 0 1 3.65.61 3.41 3.41 0 0 1 1.13.877c.13.184.2.406.2.634l-5.65 1.176v3.796l11.45 5.096c.93-.592 1.77-1.142 2.5-1.652.8-.568 1.57-1.185 2.3-1.848.7-.62 1.35-1.314 1.92-2.067a7.67 7.67 0 0 0 1.09-2.235c.1-.37.16-.75.18-1.134l.02-.014v-.058c0-.017-.01-.034 0-.05v-3.884l-1.46.303c-.02-.025-.03-.05-.05-.075-.9-1.018-1.92-1.9-3.06-2.612l6-3.472v-3.796z"/></g><path d="M3230.76 373.745l6.36-3.675c-4.35-2.758-6.3-5.562-5.84-8.412.46-2.85 3.4-5.937 8.82-9.26l11.57 4.912c-2.35 1.156-4.42 2.822-6.05 4.877-.74 1.304-.36 2.393 1.16 3.267 1.07.56 2.27.808 3.47.72 1.2-.088 2.36-.5 3.34-1.22 1.24-.665 2.33-1.595 3.18-2.723.63-.843 1.04-1.83 1.2-2.872a15.59 15.59 0 0 0-.13-3.547l-.64-5.058c-.15-1.053-.2-2.117-.13-3.178a10.59 10.59 0 0 1 .7-2.937c.48-1.167 1.22-2.214 2.15-3.064a20.61 20.61 0 0 1 3.99-2.9c4.02-2.345 8.6-3.58 13.24-3.583 4.77-.015 9.48 1.086 13.75 3.214l6.04-3.5 3.36 1.94-6 3.472c1.14.713 2.17 1.594 3.06 2.612.64.722 1.1 1.576 1.4 2.502.2.797.16 1.63-.08 2.412-.24.8-.6 1.557-1.1 2.234-.57.753-1.2 1.446-1.92 2.067-.73.663-1.5 1.28-2.3 1.848-.74.51-1.57 1.062-2.5 1.652l-11.45-5.096 2.14-1.33a28.96 28.96 0 0 0 1.7-1.182 6.65 6.65 0 0 0 1.24-1.127 2.99 2.99 0 0 0 .55-.996 1.09 1.09 0 0 0 .03-.508c-.03-.17-.1-.33-.2-.463a3.41 3.41 0 0 0-1.13-.877 5.88 5.88 0 0 0-3.65-.61c-1.28.14-2.52.535-3.64 1.163a10.13 10.13 0 0 0-2.37 1.792c-.56.587-.94 1.32-1.1 2.115-.14.6-.22 1.23-.24 1.856 0 .443.04 1.157.12 2.142l.55 4.895c.13 1.224.13 2.458.01 3.683-.14 1.193-.44 2.36-.9 3.472-.56 1.326-1.38 2.524-2.4 3.52-1.3 1.262-2.77 2.348-4.35 3.23a25.82 25.82 0 0 1-12.26 3.297 28.03 28.03 0 0 1-13-2.594l-6.43 3.71-3.3-1.902z" class="B"/><defs><linearGradient id="A" x1="3330" y1="136" x2="3419" y2="776.5" gradientUnits="userSpaceOnUse"><stop offset=".004" stop-color="#5f3300"/><stop offset="1" stop-color="#5f3300" stop-opacity="0"/></linearGradient><path id="B" d="M3389.28 263.326a46.53 46.53 0 0 0-4.25-6.151v48.08c1.58-1.937 3-3.996 4.25-6.16v-35.77z"/><path id="C" d="M3345.54 293.58c-27.14 15.68-71.16 15.68-98.3-.001s-27.15-41.104 0-56.785 71.16-15.68 98.3.001 27.15 41.105 0 56.785z"/><path id="D" d="M3247.23 208.432c27.14-15.68 71.16-15.68 98.3.001 12.77 7.375 19.53 16.904 20.3 26.56.85-10.88-5.9-21.92-20.3-30.227-27.15-15.68-71.17-15.682-98.3-.001-14.4 8.306-21.15 19.346-20.3 30.224.76-9.656 7.52-19.184 20.3-26.558z"/><path id="E" d="M3315.73 435.06c-27.98 16.16-73.34 16.16-101.32-.001s-27.98-42.36-.01-58.52c27.98-16.16 73.35-16.16 101.33.001s27.98 42.36 0 58.52z"/><path id="F" d="M3336.44 430.522c-39.42 22.766-103.33 22.765-142.75-.002-19.04-11-28.86-25.305-29.5-39.72-.68 15.417 9.13 30.96 29.5 42.726 39.42 22.767 103.33 22.767 142.75.001 20.37-11.765 30.18-27.307 29.5-42.723-.64 14.414-10.46 28.717-29.5 39.718z"/><path id="G" d="M3214.4 363.815c27.98-16.16 73.35-16.16 101.32.001 13.16 7.6 20.13 17.42 20.9 27.373.88-11.21-6.08-22.6-20.9-31.15-27.97-16.16-73.34-16.16-101.32-.001-14.82 8.56-21.78 19.938-20.9 31.148.78-9.95 7.75-19.77 20.9-27.37z"/></defs></svg>