<svg xmlns="http://www.w3.org/2000/svg" xmlns:xlink="http://www.w3.org/1999/xlink" width="360" height="307" fill="none" xmlns:v="https://vecta.io/nano"><style><![CDATA[.B{fill:#001e20}.C{fill:#ff513f}.D{fill:#fff}.E{fill:#007550}.F{fill:#3c3c3b}.G{fill:#ededed}.H{fill:#ffc856}.I{stroke-width:.239}]]></style><g class="B"><path d="M0 3h360v304H0z"/><path d="M0 0l13 169 167 90.5L360 147v160H0L79 84.5 0 0z" style="mix-blend-mode:screen" opacity=".3"/></g><g stroke="#16110d" class="I"><path d="M206.464 34.323c3.305 2.816 8.685 2.816 12 0l-12.087.09m.077-.09l-.077.09m.077-.09l-.077.09m.077-.09c-1.278-1.086-2.057-2.44-2.342-3.86l.002.514m2.263 3.436c-1.15-.978-1.905-2.17-2.263-3.436m0 0a5.89 5.89 0 0 1-.121-.502m16.98-.068a6.69 6.69 0 0 1-.118.499l-.002-.5c.078-.397.117-.8.116-1.202l.004 1.213z" class="F"/><path d="M206.59 24.203c-3.27 2.77-3.288 7.26-.04 10.03 3.26 2.778 8.574 2.778 11.854 0 3.27-2.77 3.29-7.26.04-10.03-3.266-2.778-8.574-2.778-11.855 0z" class="G"/><use xlink:href="#B" class="F"/><use xlink:href="#B" y="0.61" class="H"/><g class="F"><path d="M216.7 26.9l.566-.48-.005-.73-.56.48v.73zm-3.327.438h.001c.197-.168.45-.328.747-.395.25-.056.528-.046.822.075v-.78c-.28-.14-.537-.156-.765-.104-.247.056-.467.2-.65.344l-.15.13-.078.067-.078-.067-.95-.813v.727l1.027.88.072-.063zm2.384.372v-.462a.65.65 0 0 0-.046-.228l-1.92 1.627v.73l1.967-1.665zm-3.502 2.954l.042-.035.257.038c1.433.202 2.842.397 3.934-.534h.001c.574-.485.777-.954.777-1.382v-.192c-.14.24-.343.478-.623.714-1.184 1.003-2.687.8-4.083.594l-.04-.005h-.001l-.15-.022-2.648 2.244v.73l2.534-2.148z"/><path d="M209.1 31.046h0l.002-.002c.5-.422 1.116-.554 1.78-.55v-.802c-.63.004-1.187.123-1.625.492-.232.205-.4.445-.4.7v.415a1.92 1.92 0 0 1 .252-.264zm-1.157 1.092c-.232-.237-.443-.5-.594-.784v.143c0 .467.243.92.594 1.328v-.687zm4.41 1.542h0l.265-.225v-.73l-.1.094c-.7.586-1.386.768-2.042.704-.618-.06-1.2-.336-1.675-.675l-.628.527-.077-.066-.526-.452v.727l.605.52.543-.456.072-.06.075.055c.482.35 1.04.627 1.634.684s1.222-.102 1.865-.648z"/></g><path d="M208.147 32.004l.09.092-.1.083-.513.43.54.464.543-.456.072-.06.075.055c.482.35 1.04.627 1.634.684.588.057 1.222-.102 1.864-.648h.001l.2-.17-.963-.825-.31.265-.078-.09.077.09c-.197.17-.45.324-.747.385s-.64.027-1.005-.17l-.154-.083.134-.113 2.772-2.35.257.038c1.433.202 2.835.397 3.935-.534h0c.64-.542.82-1.064.767-1.537-.055-.484-.36-.946-.755-1.355l-.09-.092.097-.082.7-.59-.54-.463-.792.676-.076-.055c-.48-.344-1.034-.62-1.625-.676-.574-.055-1.194.097-1.823.618l.963.825.073-.063.001-.001a1.81 1.81 0 0 1 .752-.395c.3-.068.638-.04.995.16l.15.084-.13.11-2.75 2.328-.05-.006-.282-.04c-1.43-.202-2.83-.396-3.93.535h0c-.65.547-.83 1.076-.77 1.556.063.49.38.96.8 1.375zm2.868-2.54l.313.01-.24.202-2.227 1.882-.074-.115c-.2-.295-.21-.58-.124-.83.084-.244.262-.447.448-.6.538-.458 1.2-.57 1.903-.55zm4.458-1.323h0c-.5.438-1.145.55-1.812.55h-.326l.25-.21 2.193-1.857.07.126c.162.287.163.56.072.8-.09.235-.265.434-.446.6z" class="G"/></g><path d="M176.73 136.19l-45.266-26.008c-.29-.146-.436-.436-.436-.582v-5.23c0-.146.145-.29.3-.29h8.706l34.24-19.906c.725-.436 1.596-.436 2.176-.145l36.852 21.213h8.705c.145 0 .3.146.3.29v5.23c0 .3-.145.436-.58.726l-42.8 24.556c-.725.435-1.596.435-2.176.145z" class="E"/><g class="B"><path d="M177.6 137.06c-.435 0-.87-.145-1.305-.3l-45.267-26.154c-.435-.29-.725-.727-.725-1.163v-5.23a.94.94 0 0 1 .87-.872h8.56l34.095-19.906c.87-.436 2.03-.58 2.757-.145l36.706 21.068h8.56c.145 0 .435.145.58.29s.3.436.3.58v5.23c0 .435-.3.87-.87 1.162l-42.655 24.846c-.435.436-1.015.58-1.596.58zm-.58-1.453c.3.145 1.16.145 1.596-.145l42.655-24.846c.145-.145.3-.145.3-.29v-4.94h-8.27c-.145 0-.3 0-.435-.145l-36.852-21.214c-.3-.145-1.16-.145-1.596.145l-34.24 19.905c-.145 0-.3.146-.435.146h-8.27v4.94s0 .145.145.145l45.412 26.3z"/><path d="M166.43 106.256c.58-.145 20.02-9.6 27.566-12.35l19.006 11.042h8.705c.145 0 .3.146.3.29v5.23c0 .3-.145.436-.58.726l-42.5 24.846h-.145v-5.52l-12.332-24.265z"/><path d="M179.05 136.624l-.3-.146c-.145-.145-.3-.3-.3-.58v-5.376l-12.478-24.12v-.582l.435-.145c.145 0 1.306-.58 2.757-1.307 5.658-2.616 18.86-8.864 24.8-11.043l.3-.145.3.145 19.006 11.043h8.415c.3 0 .435.145.58.3s.29.436.29.58v5.23c0 .436-.29.872-.87 1.162l-42.945 24.992zm.435-5.958v4.505l41.785-24.4c.145-.146.3-.146.3-.29v-4.94h-8.27l-.435-.145-18.86-10.898c-5.95 2.18-18.86 8.282-24.52 10.898-1.16.58-1.886.87-2.32 1.162l12.332 23.83v.3z"/></g><path d="M221.707 104.367L176.44 78.36c-.58-.29-1.596-.29-2.176.145L131.6 103.35c-.726.436-.726 1.017-.145 1.308l45.266 26.008c.58.29 1.596.29 2.176-.145l42.655-24.846c.726-.436.726-1.017.145-1.308z" class="D"/><g class="B"><path d="M177.743 131.393c-.435 0-.87-.145-1.306-.3l-45.266-26.01c-.436-.3-.726-.58-.726-1.017s.3-.872.87-1.308l42.655-24.845c.87-.436 2.03-.58 2.756-.145l45.267 26.01c.435.3.726.58.726 1.017s-.29.87-.87 1.307l-42.655 24.846c-.435.29-1.016.436-1.45.436zm-46.137-27.46l45.412 26.153c.3.146 1.16.146 1.596-.145l42.655-24.846c.145-.145.3-.145.3-.3h-.145l-45.267-26.01c-.3-.145-1.16-.145-1.596.145l-42.655 24.846c-.145 0-.3.145-.3.145z"/><path d="M134.092 106.53l-.16 5.374 1.16.035.16-5.374-1.16-.035z"/></g><path d="M208.36 114.393h-.87v4.068h.87v-4.068zm-19.877 1.6l-29.888-17.436c-.3-.145-.435-.436-.435-.58v-5.23c0-.145.145-.3.3-.3l18-5.376h.145L185 82.282c.725-.436 1.596-.436 2.176-.145l21.328 12.64h8.705c.145 0 .3.145.3.3v5.23c0 .3-.145.436-.58.727l-26.26 15.1c-.58.145-1.596.145-2.176-.145z" class="E"/><g class="B"><path d="M189.353 116.864c-.435 0-.87-.145-1.306-.29L158.16 99.138c-.435-.29-.725-.727-.725-1.162v-5.23c0-.436.3-.726.725-.872l17.99-5.376 8.414-4.795c.87-.436 2.032-.58 2.757-.145l21.328 12.496h8.414c.29 0 .436.145.58.29s.3.29.3.58v5.23c0 .435-.3.87-.87 1.162l-26.115 15.11c-.435.29-1.015.436-1.596.436zm-.58-1.308c.3.145 1.16.145 1.596-.145l26.26-15.11c.145-.145.3-.145.3-.29v-4.94h-8.27c-.146 0-.29 0-.436-.145l-21.472-12.64c-.3-.145-1.16-.145-1.596.145l-8.415 4.795c-.145 0-.145.145-.3.145l-17.7 5.376v4.94s0 .145.145.145l29.888 17.726z"/><path d="M209.665 94.632h7.545c.145 0 .3.145.3.29v5.23c0 .3-.145.436-.58.726l-26.116 14.966h-.145v-5.52c-.58-1.744 19.006-15.693 19.006-15.693z"/><path d="M190.805 116.572l-.435-.146c-.145-.145-.3-.3-.3-.58v-5.376c-.145-.58.145-1.89 9.43-9.008l9.72-7.265.145-.145h7.7c.3 0 .435.145.58.29s.3.436.3.58v5.23c0 .436-.3.872-.87 1.162l-26.26 15.257zm.58-6.103v4.504l25.4-14.53c.145-.146.3-.146.3-.29v-4.94h-7.11c-8.85 6.248-17.99 13.513-18.57 14.966v.3z"/></g><path d="M217.065 93.905L187.177 76.47c-.58-.29-1.596-.29-2.176.145l-26.26 15.11c-.725.436-.725 1.017-.145 1.308l29.888 17.436c.58.29 1.596.29 2.176-.145l26.26-15.11c.725-.29.725-.872.145-1.308z" class="D"/><g class="B"><path d="M189.495 111.196c-.435 0-.87-.145-1.306-.3L158.302 93.47c-.436-.29-.726-.58-.726-1.017s.3-.872.87-1.308l26.26-15.11c.87-.436 2.03-.58 2.757-.145l29.887 17.436c.436.29.726.58.726 1.017s-.3.872-.87 1.308l-26.26 15.11a2.45 2.45 0 0 1-1.451.435zm-30.758-18.743h0l30.033 17.436c.3.145 1.16.145 1.595-.146l26.26-15.11c.145-.145.3-.145.3-.145h-.145L186.883 77.05c-.3-.145-1.16-.145-1.596.145l-26.26 15.11c-.145 0-.145 0-.3.145z"/><path d="M161.314 95.03l-.162 5.373 1.16.035.162-5.373-1.16-.035z"/></g><path d="M212.266 98.2l-.07 4.794.87.013.07-4.794-.87-.013z" class="E"/><path d="M181.958 117.735l-9.576-5.52c-.145-.145-.3-.145-.435 0l-4.063 2.47c-.145 0-.145.145 0 .29l3.918 4.213v1.453c0 .436.3.872.58 1.017l1.306-1.598 4.352 4.795c0 .145.145.145.3 0l4.063-2.47s.145-.145.145-.436v-3.196c-.145-.436-.3-.872-.58-1.018z" class="D"/><g class="B"><path d="M178.038 125.58h-.145c-.145 0-.3-.146-.435-.29l-3.917-4.36-1.16 1.453-.435-.3c-.435-.29-.87-.872-.87-1.6v-1.162l-3.917-4.214c-.145-.3-.145-.87.3-1.017l4.063-2.47c.3-.145.58-.145 1.015 0l9.576 5.52c.435.29.87.872.87 1.6v3.196c0 .436-.3.727-.3.727l-.145.145-4.062 2.47c-.145.145-.3.29-.436.29zm-3.917-5.957l4.063 4.65 3.627-2.325v-3.196c0-.146-.145-.436-.29-.58l-9.575-5.522-3.482 2.18 3.627 4.068v1.598l1.16-1.453.87.582z"/><path d="M175.137 122.093v.29l2.9 2.325c.146.145.29.145.436.145l3.917-2.47s.145-.145.145-.436v-3.05c0-.146-.145-.146-.145-.146l-4.062 2.47-3.192.87z"/><path d="M178.183 125.435h-.145c-.145 0-.3-.145-.436-.3l-3.046-2.616.145-1.017 3.337-.726 4.062-2.47c.145-.146.435-.146.726 0s.3.3.3.58v3.05c0 .436-.3.727-.3.727l-.146.145-3.917 2.47c-.3.145-.435.145-.58.145zm-2.03-2.906l2.03 1.744 3.627-2.325v-2.18l-3.192 2.034v.145l-2.466.58z"/></g><path d="M177.748 125l-9.576-5.522c-.3-.145-.58-.58-.58-1.017v-3.196c0-.436.3-.58.58-.436l9.576 5.52c.3.145.58.58.58 1.017v3.197c-.145.436-.3.58-.58.436z" class="C"/><g class="B"><path d="M177.893 125.58c-.145 0-.3 0-.435-.145l-9.576-5.522c-.435-.3-.87-.87-.87-1.598v-3.196c0-.436.145-.727.435-.872a.92.92 0 0 1 .871 0l9.575 5.52c.435.29.87.872.87 1.598v3.197c0 .436-.145.726-.436.872-.145.145-.3.145-.435.145zm.145-1.162l-.3.436.3-.436zm-10.01-9.01v2.906c0 .145.145.436.29.58l9.285 5.376v-2.906c0-.145-.145-.436-.3-.58l-9.286-5.376z"/><path d="M174.197 112.917l-4.064 2.535.614.987 4.064-2.536-.614-.986z"/></g><path d="M181.976 120.608l-3.605 2.174.45.747 3.605-2.174-.45-.747z" class="C"/><path d="M242.022 99.428l-6.093-.58-10.882-6.393c-1.305-.727-3.337-.727-4.787.145l-2.177 1.308-.725-.436c-1.306-.727-3.337-.726-4.788.145l-2.176 1.308-.726-.436c-1.015-.58-2.32-.727-3.627-.436l-7.98-2.325.145-.872c1.74-1.017-.726-1.453-1.016-1.453l-7.7-2.034h-.145v6.393c0 .436.29 1.017.87 1.308l4.207 2.47v.145L194 99.282l-2.176.29v6.538c.145.872 1.16 1.453 2.61 1.6 2.032.145 3.918.58 5.804 1.017l4.352 1.162a92.76 92.76 0 0 0 13.203 2.18c4.353.3 8.27 1.453 11.317 3.196l.435.29 10.446-6.103c1.596-.872 2.467-2.18 2.612-3.487l-.58-6.538c.145.145 0 0 0 0z" class="H"/><g class="B"><path d="M229.108 116.137l-.726-.436c-2.902-1.744-6.82-2.76-11.026-3.05-4.643-.29-8.996-1.017-13.203-2.18l-4.353-1.162c-1.886-.436-3.772-.872-5.658-1.017-1.74-.146-2.902-1.017-3.047-2.034v-6.684c0-.29.3-.58.58-.58l1.886-.29.3-.872-3.772-2.18c-.726-.436-1.16-1.162-1.16-1.744v-6.684l.3-.29c.145-.145.435-.145.58-.145l7.835 2.18c.58.145 1.886.436 1.886 1.308.145.58-.3 1.017-.58 1.162v.145l7.4 2.18c1.306-.29 2.902-.145 3.917.436l.436.29 1.886-1.162c1.596-.872 3.917-.872 5.368-.145l.435.29 1.886-1.162c1.596-.872 3.918-.872 5.37-.145l10.88 6.248 5.948.58c.29 0 .58.29.58.726v6.393c-.145 1.6-1.16 2.906-2.902 3.923l-11.026 6.103zM192.11 100.01v6.102c0 .436.725 1.017 2.03 1.017 2.03.146 4.062.582 5.95 1.017l4.352 1.163c4.062 1.017 8.56 1.743 13.058 2.18 4.497.29 8.415 1.453 11.46 3.342l.146.145 10.156-5.81c1.45-.872 2.176-1.89 2.32-3.052v-5.957l-5.804-.58-.145-.145-10.88-6.248c-1.16-.58-3.047-.58-4.207.145l-2.612 1.453-1.016-.58c-1.16-.58-3.046-.58-4.207.145l-2.612 1.453-1.015-.58c-.726-.436-2.03-.58-3.192-.29h-.3l-8.56-2.47.3-1.743.3-.145c.145 0 .145-.145.145-.145-.145 0-.435-.145-.87-.29h-.145l-7.1-1.89v5.667c0 .29.29.58.58.727l4.207 2.47c.3.145.435.436.3.727l-.58 2.034-.435.146h-1.596z"/><path d="M229.1 115.118c0 .145.145.29.3.145l10.157-5.81c1.595-.872 2.466-2.18 2.61-3.488V99.57h-12.622c-.145 0-.29.145-.29.29v15.256h-.145z"/><path d="M229.4 115.845c-.145 0-.3 0-.435-.145-.29-.145-.436-.436-.436-.726V99.572a.94.94 0 0 1 .871-.872h12.767c.29 0 .58.29.58.727v6.393c-.145 1.598-1.16 2.906-2.902 3.923l-10.156 5.812c-.145.3-.3.3-.3.3zm.3-15.837v14.384l9.576-5.52c1.45-.872 2.176-1.89 2.32-3.05v-5.957l-11.897.145z"/></g><path d="M217.935 87.367l-.725-.436c-1.306-.727-3.337-.727-4.788.145l-2.176 1.308-.726-.436c-1.306-.727-3.337-.727-4.788.145l-2.176 1.308-6.964-4.068c-1.306-.726-3.337-.727-4.788.145l-.58.29c-1.306.727-1.45 2.034-.145 2.76l16.975 9.88s0 .145-.145.145l-3.047-.436-6.674-.727-1.74-.145c-1.886-.145-3.627.58-3.917 1.744l-.145.29c-.29 1.017.87 1.89 2.466 2.18 2.03.146 3.917.582 5.803 1.017l4.353 1.163c4.207 1.017 8.56 1.743 13.203 2.18 4.352.29 8.27 1.453 11.316 3.197l.436.3 10.446-6.102c2.176-1.308 3.046-3.197 2.32-4.94l-.145-.29c-.725-1.744-2.32-3.342-4.498-4.65L224.9 86.35c-1.306-.727-3.337-.727-4.788.145l-2.176.872z" class="D"/><g class="B"><path d="M229.105 109.598l-.725-.436c-2.902-1.744-6.82-2.76-11.027-3.052-4.643-.3-8.995-1.017-13.203-2.18l-4.352-1.162c-1.886-.436-3.772-.872-5.658-1.018-1.306-.145-2.322-.58-2.757-1.453-.3-.435-.435-1.017-.3-1.453l.145-.29c.435-1.308 2.32-2.325 4.497-2.18l1.74.145c2.322.145 4.498.436 6.82.727h.436l-14.51-8.427c-.725-.436-1.16-1.162-1.16-1.743 0-.727.435-1.453 1.305-1.89l.58-.29c1.596-.872 3.917-.872 5.368-.145L203 88.53l1.886-1.162c1.596-.872 3.917-.872 5.368-.145l.435.29 1.886-1.162c1.596-.872 3.918-.872 5.368-.145l.436.3 1.886-1.162c1.596-.872 3.917-.872 5.368-.145l12.187 6.974c2.322 1.308 3.917 3.05 4.788 4.795l.145.29c.87 2.034 0 4.214-2.61 5.667l-11.027 6.684zm-33.95-11.915c-1.45 0-2.756.58-2.902 1.308l-.145.29c0 .145 0 .29.145.58.29.3.87.726 1.887.87 2.03.146 4.062.582 5.948 1.017l4.353 1.163c4.062 1.017 8.56 1.743 13.057 2.18 4.498.29 8.415 1.453 11.462 3.342l.145.145 10.156-5.81c2.03-1.163 2.757-2.76 2.03-4.214l-.145-.29c-.725-1.598-2.176-3.05-4.352-4.36l-12.188-6.974c-1.16-.58-3.046-.58-4.207.145l-2.612 1.453-1.015-.58c-1.16-.58-3.047-.58-4.208.145l-2.61 1.453-1.016-.58c-1.16-.58-3.047-.58-4.207.145l-2.612 1.453-7.254-4.214c-1.16-.58-3.047-.58-4.208.145l-.58.29c-.435.29-.725.58-.725.872s.3.58.58.727l17.4 10.026-.145.436c-.145.29-.435.436-.725.436l-3.047-.436c-2.176-.29-4.498-.58-6.674-.727l-1.74-.145c.3-.29.145-.29.145-.29z"/><path d="M202.76 88.754l-.58 1.007 5.53 3.196.58-1.007-5.53-3.196zm3.837 8.56l-.58 1.007 3.518 2.034.58-1.007-3.518-2.034zm4.03-9.43l-.58 1.007 4.272 2.47.58-1.007-4.272-2.47zm7.676-.916l-.58 1.007 3.392 1.962.58-1.007-3.392-1.962zm-25.32 2.867h-1.16v6.538h1.16v-6.538zm11.026 13.368h-1.16v6.54h1.16v-6.54zm20.456 3.632h-1.16v6.54h1.16v-6.54zm-28.87-5.52h-1.16v6.54h1.16v-6.54zm5.873-33.268l-2.275 9.015 1.126.285 2.275-9.015-1.126-.285zM208.04 71l-6.445 6.894.847.794 6.445-6.894-.847-.794zm3.585 8.154l-8.384.722.1 1.158 8.383-.722-.1-1.158z"/></g><path d="M180.648 27.65c-2.612-4.214-5.37-2.034-5.95-1.598 0 0-.145 0-.145-.145-.58-1.162-3.337-6.538-5.95-5.376l-4.352 2.325V23l3.047 5.23 4.062 11.043-1.16.29v2.325c0 .145.146.145.146.145l4.207-2.325 5.368-4.214c.145 0 4.063-2.47.726-7.846z" class="D"/><path d="M170.345 42.762c-.145 0-.3 0-.3-.145-.145-.145-.3-.29-.3-.58v-2.76l.87-.29-3.772-10.46-3.047-5.23V23c0-.145.145-.29.29-.436l4.352-2.325c2.757-1.308 5.513 3.05 6.53 5.085a3.91 3.91 0 0 1 2.757-.727c1.305.145 2.466 1.162 3.482 2.76 3.482 5.812-.87 8.573-.87 8.718l-5.368 4.214-4.208 2.325c-.145.145-.3.145-.435.145zm.58-2.47v1.017l3.482-1.89 5.223-4.214c.145-.145 3.482-2.325.58-7.12-.87-1.308-1.74-2.18-2.61-2.325-1.16-.145-2.177.58-2.322.872l-.145.145h-.3c-.145 0-.435-.145-.435-.436-1.16-2.325-3.482-5.957-5.223-5.085l-3.773 2.18 2.902 4.94L172.522 40l-1.596.29z" class="B"/><path d="M176.44 30.556s-1.886-.145-2.177 0c-.3 0-4.497 1.744-4.497 1.744l-.58 1.453 2.03 5.812-1.16.29v2.325c0 .145.145.145.145.145L174.4 40l5.368-4.214s3.627-2.325 1.015-7.4l-4.352 2.18z" class="C"/><path d="M170.346 42.76c-.145 0-.3 0-.3-.145-.145-.145-.3-.29-.3-.58v-2.76l.87-.29-1.886-5.376.725-1.89.146-.145 4.642-1.89h2.177l4.787-2.615.29.58c2.9 5.376-1.16 8.137-1.16 8.137L174.99 40l-4.208 2.325c-.3.436-.435.436-.435.436zm.435-2.47v1.017l3.482-1.89 5.223-4.214c.145-.145 3.047-2.034 1.016-6.102l-4.062 2.18h-.146c-.87 0-1.886-.145-2.176 0-.3 0-2.466 1.017-4.062 1.744l-.435 1.017 2.176 6.102-1.016.145z" class="B"/><path d="M171.073 28.087l3.337-1.89v-.145c-.3-.58-1.016-2.18-2.176-3.487l-4.353 2.47-1.306 2.47.435.872.58 1.744 1.45 1.162 2.03-3.197z" class="C"/><path d="M169.62 32.3l-2.177-1.744-.725-1.89-.58-1.017 1.45-2.906 4.932-2.906.29.436c1.16 1.453 2.03 3.05 2.176 3.633.145.29 0 .436 0 .58v.29l-3.482 1.89-1.886 3.633zm-1.16-2.47l.725.58 1.45-2.76 3.192-1.744c-.3-.58-.87-1.598-1.596-2.615l-3.772 2.18-1.016 2.034.436.726.58 1.598z" class="B"/><path d="M176.295 30.12c-2.61-4.214-5.368-2.034-5.948-1.598 0 0-.145 0-.145-.145-.58-1.162-3.337-6.54-5.95-5.376-3.192 1.598.726 8.573.726 8.573l5.223 10.316.145.145 5.368-4.214c-.145.145 3.917-2.325.58-7.7z" class="C"/><g class="B"><path d="M170.5 42.908h-.3c-.145 0-.435-.145-.435-.436l-5.223-10.316c-.145-.145-2.757-4.94-1.886-7.7.3-.726.725-1.308 1.45-1.743.87-.436 2.466-.436 4.497 1.9.87 1.162 1.596 2.325 2.03 3.197a3.91 3.91 0 0 1 2.757-.727c1.306.145 2.466 1.162 3.482 2.76 3.482 5.812-.87 8.573-.87 8.718l-5.514 4.36zm-5.513-19.325c-.145 0-.3 0-.58.145-.435.145-.726.58-.87 1.017-.58 1.9 1.016 5.52 1.74 6.83l4.933 9.88 4.788-3.778c.145-.145 3.482-2.325.58-7.12-.87-1.308-1.74-2.18-2.756-2.325-1.16-.145-2.177.58-2.322.872l-.3.145h-.3c-.145 0-.435-.145-.435-.436-.3-.436-1.016-2.18-2.177-3.487-.435-.872-1.45-1.744-2.32-1.744zm3.393 8.823l-1.03.533 2.926 5.682 1.032-.533-2.927-5.682z"/><path d="M169.187 26.78l4.352-2.47 1.016 1.9-4.353 2.325-1.015-1.744zm7.398 10.75l2.03-.872 2.467-1.9.725-2.034.145-2.034-.435-.727-3.917 2.18.145 1.598-.436 1.9-.725 1.9z"/></g><path d="M205.46 50.315c-2.61-4.214-5.368-2.034-5.948-1.598 0 0-.146 0-.146-.145-.58-1.162-3.336-6.538-5.948-5.376l-4.353 2.325v.145l3.047 5.23 4.063 11.043-1.16.29v2.325c0 .145.145.145.145.145l4.207-2.325 5.37-4.214s3.917-2.47.725-7.846z" class="D"/><path d="M195.158 65.427c-.145 0-.3 0-.3-.145-.145-.145-.3-.29-.3-.58v-2.76l.87-.29-3.772-10.46-3.192-5.376v-.29c0-.145.145-.29.29-.436l4.352-2.325c1.016-.436 2.467-.58 4.498 1.89.87 1.162 1.596 2.325 2.03 3.197a3.91 3.91 0 0 1 2.757-.727c1.305.145 2.466 1.162 3.482 2.76 3.482 5.812-.87 8.573-.87 8.718l-5.368 4.214-4.208 2.325c0 .145-.145.29-.3.29zm.436-2.615v1.017l3.482-1.89 5.223-4.214c.145-.145 3.482-2.325.58-7.12-.87-1.308-1.74-2.18-2.757-2.325-1.16-.145-2.176.58-2.32.872l-.145.145h-.3c-.145 0-.436-.145-.436-.436-.3-.436-1.015-2.18-2.176-3.487-.87-1.017-2.03-2.18-3.047-1.598l-3.772 2.18 2.902 4.94 4.207 11.624-1.45.29z" class="B"/><path d="M201.253 53.223s-1.886-.145-2.176 0-4.498 1.744-4.498 1.744L194 56.42l2.03 5.812-1.16.29v2.325c0 .145.145.145.145.145l4.207-2.325 5.368-4.214s3.627-2.325 1.016-7.4l-4.353 2.18z" class="C"/><path d="M195.013 65.427c-.145 0-.3 0-.3-.145-.145-.145-.3-.29-.3-.58v-2.76l.87-.29-1.886-5.376.725-1.89.146-.145 4.642-1.89h2.176l4.788-2.615.3.58c2.902 5.376-1.16 8.137-1.16 8.137l-5.368 4.214-4.208 2.325c-.145.29-.3.436-.435.436zm.58-2.615v1.017l3.482-1.89 5.223-4.214c.145-.145 3.047-2.034 1.016-6.102l-4.062 2.18h-.146c-.87 0-1.886-.145-2.176 0-.3 0-2.466 1.017-4.062 1.744l-.435 1.017 2.176 6.103-1.016.145z" class="B"/><path d="M195.883 50.75l3.337-1.89v-.145c-.3-.58-1.015-2.18-2.176-3.487l-4.353 2.47-1.305 2.47.435.872.58 1.744 1.45 1.162 2.03-3.197z" class="C"/><path d="M194.43 54.82l-2.176-1.743-.725-1.89-.58-1.017 1.45-2.906 4.933-2.906.3.436c1.16 1.453 2.03 3.05 2.176 3.632.146.29 0 .436 0 .58v.29l-3.482 1.89-1.886 3.632zm-1.16-2.325l.725.58 1.45-2.76 3.192-1.744c-.3-.58-.87-1.598-1.596-2.615l-3.772 2.18-1.016 2.034.435.727.58 1.598z" class="B"/><path d="M201.108 52.787c-2.612-4.214-5.368-2.034-5.95-1.598 0 0-.145 0-.145-.145-.58-1.162-3.337-6.538-5.948-5.376-3.192 1.598.725 8.572.725 8.572l5.223 10.316c0 .145.145.145.145.145l5.368-4.214c-.145.145 3.773-2.325.58-7.7z" class="C"/><g class="B"><path d="M195.303 65.428h-.3c-.145 0-.436-.145-.436-.436l-5.223-10.316c-.145-.145-2.756-4.94-1.886-7.7.3-.727.726-1.308 1.45-1.744.87-.436 2.467-.436 4.498 1.9.87 1.162 1.596 2.325 2.03 3.197a3.91 3.91 0 0 1 2.757-.727c1.305.145 2.466 1.162 3.482 2.76 3.482 5.812-.87 8.573-.87 8.718l-5.513 4.36zm-5.513-19.18c-.145 0-.3 0-.58.145-.435.145-.725.58-.87 1.017-.58 1.9 1.015 5.52 1.74 6.83l4.933 9.88 4.788-3.778c.145-.145 3.482-2.325.58-7.12-.87-1.308-1.74-2.18-2.757-2.325-1.16-.145-2.176.58-2.32.872l-.145.145h-.3c-.145 0-.436-.145-.436-.436-.3-.436-1.015-2.18-2.176-3.487-.58-.872-1.596-1.744-2.466-1.744zm3.367 8.802l-1.03.533 2.926 5.682 1.032-.533-2.927-5.68z"/><path d="M193.998 49.3l4.353-2.325.87 1.9-4.207 2.325-1.016-1.9zm7.4 10.897l2.032-1.017 2.466-1.744.726-2.034v-2.034l-.3-.727-3.917 2.18.145 1.598-.435 1.743-.726 2.034z"/></g><path d="M168.752 38.693c-2.61-4.214-5.368-2.034-5.948-1.598 0 0-.146 0-.146-.145-.58-1.162-3.336-6.538-5.948-5.376l-4.353 2.325v.145l3.047 5.23 4.063 11.043-1.16.29v2.325c0 .145.145.145.145.145l4.207-2.325 5.37-4.214c.145 0 4.062-2.47.725-7.846z" class="D"/><path d="M158.595 53.658c-.145 0-.3 0-.3-.145-.145-.145-.3-.29-.3-.58v-2.76l.87-.29-3.772-10.46-3.192-5.376v-.29c0-.145.145-.29.3-.436l4.353-2.325c1.015-.436 2.466-.58 4.497 1.89.87 1.162 1.596 2.325 2.032 3.197.58-.436 1.595-.872 2.756-.727 1.306.145 2.467 1.162 3.482 2.76 3.482 5.812-.87 8.573-.87 8.718l-5.368 4.214-4.208 2.325c-.145.29-.3.29-.3.29zm.435-2.47v1.017l3.482-1.89 5.223-4.214c.145-.145 3.482-2.325.58-7.12-.87-1.308-1.74-2.18-2.757-2.325-1.16-.145-2.176.58-2.32.872l-.145.145h-.29c-.145 0-.435-.145-.435-.436-.3-.436-1.016-2.18-2.176-3.487-.87-1.017-2.03-2.18-3.047-1.598l-3.772 2.18 2.9 4.795 4.208 11.624-1.45.436z" class="B"/><path d="M164.545 41.6s-1.886-.145-2.176 0c-.3 0-4.498 1.744-4.498 1.744l-.58 1.453 2.03 5.812-1.16.29v2.325c0 .145.145.145.145.145l4.207-2.325 5.368-4.214s3.627-2.325 1.016-7.4l-4.353 2.18z" class="E"/><path d="M158.45 53.66c-.145 0-.3 0-.3-.145-.145-.145-.3-.29-.3-.58v-2.76l.87-.29-1.887-5.376.726-1.89.145-.145 4.643-1.89h2.176l4.788-2.615.3.58c2.902 5.376-1.16 8.137-1.16 8.137l-5.368 4.214-4.207 2.325c-.3.436-.3.436-.436.436zm.436-2.47v1.017l3.482-1.89 5.223-4.214c.145-.145 3.047-2.034 1.015-6.103l-4.062 2.18h-.145c-.87 0-1.886-.145-2.176 0-.29 0-2.467 1.017-4.063 1.744l-.435 1.017 2.176 6.102-1.015.145z" class="B"/><path d="M159.176 39.127l3.337-1.89v-.145c-.3-.58-1.015-2.18-2.176-3.487l-4.352 2.47-1.306 2.47.435.872.58 1.744 1.45 1.162 2.03-3.197z" class="E"/><path d="M157.724 43.196l-2.176-1.744-.725-1.89-.58-1.017 1.45-2.906 4.933-2.906.3.436c1.16 1.308 1.886 2.906 2.176 3.633.145.145 0 .436 0 .58v.29l-3.482 1.89-1.886 3.633zm-1.16-2.325l.725.58 1.45-2.76 3.192-1.743a21.38 21.38 0 0 0-1.596-2.615l-3.772 2.18-1.016 2.034.435.726.58 1.598z" class="B"/><path d="M164.4 41.164c-2.612-4.214-5.368-2.034-5.95-1.598 0 0-.145 0-.145-.145-.58-1.162-3.337-6.538-5.948-5.376-3.192 1.598.725 8.573.725 8.573l5.223 10.316.145.145 5.368-4.214c0 .145 3.918-2.325.58-7.7z" class="D"/><g class="B"><path d="M158.596 53.804h-.3c-.145 0-.436-.145-.436-.436l-5.223-10.316c-.145-.145-2.756-4.94-1.886-7.7.3-.727.726-1.308 1.45-1.744.87-.436 2.467-.436 4.498 1.9.87 1.162 1.596 2.325 2.03 3.197a3.91 3.91 0 0 1 2.757-.726c1.305.145 2.466 1.162 3.482 2.76 3.482 5.812-.87 8.572-.87 8.718l-5.513 4.36zm-5.368-19.18c-.145 0-.3 0-.58.145-.435.145-.725.58-.87 1.017-.58 1.9 1.015 5.52 1.74 6.83l4.933 9.88 4.788-3.778c.145-.145 3.482-2.325.58-7.12-.87-1.308-1.74-2.18-2.612-2.325-1.16-.145-2.176.58-2.32.872l-.145.145h-.3c-.145 0-.436-.145-.436-.436-.3-.436-1.015-2.18-2.176-3.487-.87-.872-1.74-1.744-2.6-1.744zm3.274 8.826l-1.03.533 2.926 5.682 1.032-.533-2.927-5.682z"/><path d="M157.3 37.675l4.353-2.325 1.015 1.9-4.352 2.18-1.016-1.744zm7.4 10.897l2.032-1.017 2.466-1.744.725-2.034.146-2.034-.3-.727-4.062 2.18.3 1.453-.58 1.9-.726 2.034zm-15.4-7.41s-2.756-5.812 1.306-9.88l.87.872c-3.628 3.487-1.306 8.427-1.16 8.573l-1.016.436z"/></g><path d="M229.686 27.957c2.327-3.753 4.782-1.812 5.3-1.424 0 0 .13 0 .13-.13.517-1.035 2.973-5.824 5.3-4.79l3.877 2.07v.13l-2.714 4.66-3.62 9.836 1.034.26v2.07c0 .13-.13.13-.13.13l-3.748-2.07-4.78-3.753s-3.5-2.2-.647-6.99z" class="D"/><path d="M238.865 41.418c.13 0 .258 0 .258-.13.13-.13.26-.26.26-.518v-2.46l-.776-.26 3.36-9.32 2.844-4.79v-.26c0-.13-.13-.26-.26-.388l-3.877-2.07c-.905-.388-2.197-.518-4.006 1.683-.776 1.035-1.422 2.07-1.8 2.847a3.48 3.48 0 0 0-2.455-.647c-1.163.13-2.197 1.035-3.102 2.46-3.1 5.177.776 7.636.776 7.766l4.78 3.753 3.748 2.07c0 .26.13.26.26.26zm-.388-2.2v.906l-3.102-1.682-4.652-3.753c-.13-.13-3.102-2.07-.517-6.342.775-1.165 1.55-1.94 2.455-2.07 1.034-.13 1.94.518 2.068.777l.13.13h.26c.13 0 .388-.13.388-.388.258-.388.904-1.94 1.938-3.106.776-.906 1.81-1.94 2.714-1.424l3.36 1.94-2.585 4.4-3.747 10.354 1.292.26z" class="B"/><path d="M233.435 30.547s1.68-.13 1.938 0c.26 0 4.007 1.553 4.007 1.553l.516 1.294-1.81 5.177 1.034.26v2.07c0 .13-.13.13-.13.13l-3.748-2.07-4.782-3.753s-3.23-2.07-.904-6.6l3.877 1.94z" class="C"/><path d="M238.992 41.418c.13 0 .26 0 .26-.13.13-.13.258-.26.258-.518v-2.46l-.646-.13 1.68-4.79-.646-1.683-.13-.13-4.136-1.683h-1.94l-4.264-2.33-.26.518c-2.585 4.79 1.034 7.248 1.034 7.248l4.782 3.753 3.748 2.07c0 .26.13.26.258.26zm-.388-2.2v.906l-3.1-1.682-4.653-3.753c-.13-.13-2.714-1.812-.904-5.436l3.618 1.94h.13c.776 0 1.68-.13 1.94 0 .258 0 2.197.906 3.62 1.553l.387.906-1.938 5.436.904.13z" class="B"/><path d="M238.217 28.346l-2.972-1.683v-.13c.258-.518.905-1.94 1.938-3.106l3.878 2.2 1.163 2.2-.388.777-.517 1.553-1.292 1.035-1.8-2.847z" class="C"/><path d="M239.64 32.1l1.938-1.553.646-1.682.517-.906-1.292-2.588-4.394-2.588-.26.388c-.904 1.165-1.68 2.59-1.938 3.236-.13.26 0 .388 0 .518v.26l3.1 1.683 1.68 3.236zm1.033-2.2l-.646.518-1.292-2.46-2.843-1.553c.258-.518.775-1.424 1.42-2.33l3.36 1.94.776 1.812-.388.647-.388 1.424z" class="B"/><path d="M233.564 30.158c2.326-3.753 4.782-1.812 5.3-1.424 0 0 .13 0 .13-.13.517-1.035 2.973-5.824 5.3-4.79 2.843 1.424-.646 7.636-.646 7.636l-4.653 9.19-.13.13-4.782-3.753c.13.13-3.36-2.07-.517-6.86z" class="C"/><g class="B"><path d="M238.863 41.548h.26c.13 0 .388-.13.388-.388l4.652-9.2c.13-.13 2.456-4.4 1.68-6.86-.258-.647-.646-1.165-1.292-1.553-.776-.388-2.197-.388-4.007 1.683-.775 1.035-1.42 2.07-1.8 2.847a3.48 3.48 0 0 0-2.455-.647c-1.163.13-2.197 1.035-3.102 2.46-3.102 5.177.775 7.636.775 7.766l4.9 3.883zm4.782-17.214c.13 0 .26 0 .517.13.388.13.646.518.775.906.517 1.682-.904 4.918-1.55 6.083l-4.394 8.8-4.265-3.365c-.13-.13-3.102-2.07-.517-6.342.775-1.165 1.55-1.94 2.455-2.07 1.034-.13 1.94.518 2.068.777l.13.13h.26c.13 0 .388-.13.388-.388.258-.388.904-1.94 1.938-3.106.646-.776 1.422-1.553 2.197-1.553zm-3.017 7.823l.92.475-2.607 5.062-.92-.475 2.607-5.062z"/><path d="M239.896 27.18l-3.877-2.2-.775 1.682 3.748 2.07.904-1.553zm-6.462 9.58l-1.94-.776-2.197-1.683-.646-1.812v-1.812l.258-.647 3.5 1.94-.13 1.424.388 1.683.776 1.682z"/></g><path d="M186.162 71.095c-2.61-4.214-5.368-2.034-5.948-1.598 0 0-.145 0-.145-.145-.58-1.162-3.337-6.538-5.95-5.376l-4.352 2.325v.145l3.046 5.23 4.063 11.043-1.16.29v2.325c0 .145.145.145.145.145l4.208-2.325 5.368-4.214s3.917-2.47.725-7.846z" class="D"/><path d="M175.86 86.206c-.145 0-.3 0-.3-.145-.145-.145-.3-.29-.3-.58v-2.76l.87-.29-3.773-10.46-3.19-5.376v-.29c0-.145.145-.29.3-.436l4.352-2.325c1.016-.436 2.467-.58 4.498 1.89.87 1.162 1.596 2.325 2.03 3.197a3.91 3.91 0 0 1 2.757-.726c1.305.145 2.466 1.162 3.482 2.76 3.482 5.812-.87 8.573-.87 8.718l-5.368 4.214-4.207 2.325c0 .29-.145.29-.29.29zm.436-2.47v1.017l3.482-1.89L185 78.65c.145-.145 3.482-2.325.58-7.12-.87-1.308-1.74-2.18-2.61-2.325-1.16-.145-2.177.58-2.322.872l-.145.145h-.3c-.145 0-.435-.145-.435-.436-.3-.436-1.016-2.18-2.177-3.487-.87-1.017-2.03-2.18-3.046-1.598l-3.773 2.18 2.757 4.795 4.208 11.77-1.45.29z" class="B"/><path d="M181.956 74.002s-1.886-.145-2.176 0c-.3 0-4.498 1.744-4.498 1.744l-.58 1.453 2.03 5.812-1.16.29v2.325c0 .145.145.145.145.145l4.207-2.325 5.368-4.214s3.628-2.325 1.016-7.4l-4.353 2.18z" class="C"/><path d="M175.716 86.206c-.145 0-.3 0-.3-.145-.145-.145-.3-.29-.3-.58v-2.76l.87-.29-1.886-5.376.726-1.89.145-.145 4.642-1.89h2.177l4.787-2.615.29.58c2.9 5.376-1.16 8.137-1.16 8.137l-5.368 4.214-4.208 2.325c-.145.436-.3.436-.435.436zm.435-2.47v1.017l3.482-1.89 5.223-4.214c.146-.145 3.047-2.034 1.016-6.102l-4.062 2.18h-.145c-.87 0-1.887-.145-2.177 0-.3 0-2.466 1.017-4.062 1.744l-.435 1.017 2.176 6.102-1.016.145z" class="B"/><path d="M176.6 71.53l3.337-1.89v-.145c-.3-.58-1.015-2.18-2.176-3.487l-4.352 2.47-1.306 2.47.435.872.58 1.743 1.45 1.162 2.03-3.197z" class="C"/><path d="M175.138 75.6l-2.176-1.744-.725-1.89-.58-1.017 1.45-2.906 4.933-2.906.3.436c1.16 1.453 2.03 3.05 2.176 3.632.146.145 0 .436 0 .58v.29l-3.482 1.89-1.886 3.632zm-1.305-2.325l.725.58 1.45-2.76 3.192-1.744c-.3-.58-.87-1.598-1.596-2.615l-3.772 2.18-1.016 2.034.435.727.58 1.598z" class="B"/><path d="M181.8 73.564c-2.612-4.214-5.368-2.034-5.95-1.598 0 0-.145 0-.145-.145-.58-1.162-3.337-6.538-5.948-5.376-3.192 1.598.725 8.573.725 8.573l5.223 10.316.145.145 5.37-4.214c-.146.145 3.772-2.325.58-7.7z" class="C"/><g class="B"><path d="M175.86 86.35h-.3c-.145 0-.435-.145-.435-.436L169.913 75.6c-.145-.145-2.757-4.94-1.886-7.7.3-.726.725-1.308 1.45-1.743.87-.436 2.466-.436 4.497 1.9.87 1.162 1.596 2.325 2.032 3.197.58-.436 1.595-.872 2.756-.727 1.306.145 2.467 1.162 3.482 2.76 3.482 5.812-.87 8.573-.87 8.718l-5.514 4.36zm-5.368-19.325c-.145 0-.3 0-.58.145-.435.145-.725.58-.87 1.017-.58 1.9 1.016 5.52 1.74 6.83l4.933 9.88 4.788-3.778c.145-.145 3.482-2.325.58-7.12-.87-1.308-1.74-2.18-2.757-2.325-1.16-.145-2.176.58-2.32.872l-.146.145h-.3c-.145 0-.435-.145-.435-.436-.3-.436-1.016-2.18-2.176-3.487-.58-.872-1.596-1.743-2.467-1.743zm3.374 8.79l-1.03.533 2.927 5.682 1.03-.533-2.927-5.682z"/><path d="M174.7 70.077l4.353-2.325.87 1.9-4.207 2.325-1.016-1.9zm7.256 10.9l2.176-.872 2.467-1.9.725-2.034v-2.034l-.3-.727-3.917 2.18.145 1.598-.435 1.9-.87 1.9zm8.414-4.94l-1.16-.145c.3-2.18-.58-3.778-.58-3.778l1.015-.436c.146.145 1.016 2.034.726 4.36z"/></g><path d="M194.72 57.582c-2.612-4.214-5.368-2.034-5.95-1.598 0 0-.145 0-.145-.145-.58-1.162-3.337-6.538-5.948-5.376l-4.353 2.325v.145l3.047 5.23 4.062 11.043-1.16.29v2.325c0 .145.145.145.145.145l4.207-2.325 5.368-4.214c.145 0 4.063-2.47.726-7.846z" class="D"/><path d="M184.566 72.693c-.145 0-.3 0-.3-.145-.145-.145-.3-.29-.3-.58v-2.76l.87-.29-3.772-10.46-3.047-5.23v-.29c0-.145.145-.29.3-.436l4.353-2.325c2.756-1.308 5.513 3.05 6.53 5.086.58-.436 1.596-.872 2.756-.727 1.306.145 2.467 1.162 3.482 2.76 3.482 5.812-.87 8.573-.87 8.718l-5.368 4.214L185 72.547c-.3.145-.3.145-.435.145zm.435-2.47v1.017l3.482-1.89 5.223-4.214c.145-.145 3.482-2.325.58-7.12-.87-1.308-1.74-2.18-2.612-2.325-1.16-.145-2.176.58-2.32.872l-.3.145h-.29c-.145 0-.435-.145-.435-.436-1.16-2.325-3.482-5.957-5.223-5.085l-3.772 2.18 2.902 4.94 4.207 11.624-1.45.3z" class="B"/><path d="M190.517 60.487s-1.886-.145-2.176 0c-.29 0-4.498 1.744-4.498 1.744l-.58 1.453 2.03 5.812-1.16.29v2.325c0 .145.145.145.145.145l4.208-2.325 5.368-4.214s3.627-2.325 1.015-7.4l-4.352 2.18z" class="E"/><path d="M184.42 72.692c-.145 0-.3 0-.3-.145-.145-.145-.3-.29-.3-.58v-2.76l.87-.29-1.886-5.376.726-1.89.145-.145 4.642-1.89h2.177L195.302 57l.29.58c2.9 5.376-1.16 8.137-1.16 8.137l-5.368 4.214-4.208 2.325c-.3.436-.3.436-.435.436zm.435-2.47v1.017l3.482-1.89 5.223-4.214c.146-.145 3.047-2.034 1.016-6.102l-4.062 2.18h-.145c-.87 0-1.887-.145-2.177 0-.3 0-2.466 1.017-4.062 1.744l-.435 1.017 2.176 6.102-1.016.145z" class="B"/><path d="M185.147 58.018l3.337-1.89v-.145c-.3-.58-1.016-2.18-2.176-3.487l-4.353 2.47-1.306 2.47.436.872.58 1.743 1.45 1.162 2.03-3.196z" class="E"/><path d="M183.695 62.232l-2.176-1.743-.726-1.89-.58-1.017 1.45-2.906 4.933-2.906.3.436c1.16 1.453 2.03 3.05 2.176 3.632.145.145 0 .436 0 .58v.29l-3.482 1.89-1.886 3.632zm-1.16-2.47l.726.58 1.45-2.76 3.19-1.744c-.3-.58-.87-1.598-1.596-2.615l-3.772 2.18-1.015 2.034.435.727.58 1.598z" class="B"/><path d="M190.37 60.052c-2.61-4.214-5.368-2.034-5.948-1.598 0 0-.145 0-.145-.145-.58-1.162-3.337-6.538-5.95-5.376-3.192 1.598.726 8.573.726 8.573l5.223 10.316.145.145 5.368-4.214c0 .145 3.917-2.325.58-7.7z" class="D"/><g class="B"><path d="M184.567 72.838h-.3c-.145 0-.435-.145-.435-.436l-5.223-10.316c-.145-.145-2.757-4.94-1.886-7.7.3-.726.725-1.308 1.45-1.744.87-.436 2.466-.436 4.497 1.9.87 1.162 1.596 2.325 2.032 3.196.58-.436 1.596-.872 2.756-.726 1.306.145 2.467 1.162 3.482 2.76 3.482 5.812-.87 8.573-.87 8.718l-5.513 4.36zm-5.37-19.325c-.145 0-.3 0-.58.145-.435.145-.725.58-.87 1.017-.58 1.9 1.015 5.52 1.74 6.83l4.932 9.88 4.788-3.778c.145-.145 3.482-2.325.58-7.12-.87-1.308-1.74-2.18-2.612-2.325-1.16-.145-2.176.58-2.32.872l-.3.145h-.3c-.145 0-.435-.145-.435-.436-.3-.436-1.016-2.18-2.176-3.487-.726-.872-1.596-1.744-2.467-1.744zm3.25 8.843l-1.032.533 2.926 5.682 1.032-.533-2.926-5.682z"/><path d="M183.407 56.7l4.353-2.47.87 1.9-4.352 2.325-.87-1.743zm7.255 10.76l2.176-.872 2.322-1.9.725-2.034.145-2.034-.3-.727-4.062 2.18.3 1.598-.58 1.9-.726 1.9z"/></g><g class="D"><use xlink:href="#C"/><path d="M133.64 113.81l-1.305.726c-.145.146-.436 0-.58 0l-1.305-.726c-.145-.145-.145-.29 0-.29l1.305-.726c.145-.145.436 0 .58 0l1.305.726c.146.146.146.29 0 .29z"/><use xlink:href="#D"/><path d="M136.83 115.7l-1.306.727c-.145.145-.435 0-.58 0l-1.306-.727c-.145-.145-.145-.29 0-.29l1.306-.726c.145-.145.435 0 .58 0l1.306.726c.145 0 .145.146 0 .29z"/><use xlink:href="#E"/><use xlink:href="#E" x="6.678"/><use xlink:href="#F"/><use xlink:href="#G"/><path d="M140.02 121.367l-1.305.726c-.145.145-.436 0-.58 0l-1.305-.726c-.146-.146-.146-.29 0-.29l1.305-.727c.145-.145.436 0 .58 0l1.305.727c.145.145.145.29 0 .29z"/><use xlink:href="#H"/><use xlink:href="#F" x="6.384" y="3.633"/><path d="M150.032 123.255l-1.306.727c-.145.145-.435 0-.58 0l-1.306-.727c-.145-.145-.145-.3 0-.3l1.306-.727c.145-.145.435 0 .58 0l1.306.727c0 .145.145.145 0 .3z"/><use xlink:href="#I"/><path d="M153.224 125.144l-1.306.726c-.145.145-.435 0-.58 0l-1.45-.726c-.145-.146-.145-.29 0-.29l1.306-.727c.145-.145.435 0 .58 0l1.306.727c.145 0 .145.145.145.29z"/><use xlink:href="#E" x="16.251" y="9.444"/><use xlink:href="#J"/><path d="M152.935 128.92l-1.306.727c-.145.145-.436 0-.58 0l-1.305-.727c-.145-.145-.145-.3 0-.3l1.305-.727c.145-.145.436 0 .58 0l1.306.727c.145 0 .145.145 0 .3z"/><use xlink:href="#F" x="22.924" y="9.298"/><path d="M156.417 130.8l-1.306.726c-.145.146-.435 0-.58 0l-1.306-.726c-.145-.145-.145-.3 0-.3l1.306-.726c.145-.145.435 0 .58 0l1.306.726c0 .146.145.3 0 .3zm6.528-.145l-1.305.726c-.146.145-.436 0-.58 0l-1.306-.726c-.145-.146-.145-.3 0-.3l1.306-.727c.145-.145.435 0 .58 0l1.305.727c0 .145.145.3 0 .3zm-3.337 2.035l-1.305.727c-.146.145-.436 0-.58 0l-1.306-.727c-.145-.145-.145-.3 0-.3l1.306-.727c.145-.145.435 0 .58 0l1.305.727v.3zm6.53-.146l-1.306.726c-.145.146-.435 0-.58 0l-1.306-.726c-.145-.146-.145-.3 0-.3l1.306-.726c.145-.146.435 0 .58 0l1.306.726c0 .145.145.3 0 .3z"/><use xlink:href="#E" x="29.163" y="16.855"/><path d="M169.473 134.588l-1.305.727c-.145.145-.435 0-.58 0l-1.305-.727c-.145-.145-.145-.3 0-.3l1.305-.727c.146-.145.436 0 .58 0l1.305.727c.146 0 .146.145 0 .3z"/><use xlink:href="#C" x="35.694" y="24.41"/><use xlink:href="#K"/><path d="M169.33 138.366l-1.306.726c-.145.145-.435 0-.58 0l-1.306-.726c-.145-.146-.145-.29 0-.29l1.306-.727c.145-.145.435 0 .58 0l1.306.727s.145.145 0 .29z"/><use xlink:href="#G" x="32.498" y="18.744"/><path d="M172.52 140.1l-1.305.726c-.145.146-.436 0-.58 0l-1.305-.726c-.146-.145-.146-.3 0-.3l1.305-.726c.145-.145.436 0 .58 0l1.305.726c0 .146.145.3 0 .3zm6.673 0l-1.306.726c-.145.146-.435 0-.58 0L176 140.1c-.145-.145-.145-.3 0-.3l1.306-.726c.145-.145.435 0 .58 0l1.306.726c.145.146.145.3 0 .3zm-3.336 2.034l-1.305.726c-.146.146-.436 0-.58 0l-1.306-.726c-.145-.145-.145-.3 0-.3l1.306-.726c.145-.145.435 0 .58 0l1.305.726c.145 0 .145.146 0 .3z"/><use xlink:href="#F" x="45.7" y="18.598"/><use xlink:href="#L"/><use xlink:href="#I" x="42.655" y="9.154"/><use xlink:href="#L" x="6.674" y="-3.924"/><path d="M196.024 130.52l-1.305.726c-.146.145-.436 0-.58 0l-1.306-.726c-.145-.146-.145-.3 0-.3l1.306-.726c.145-.146.435 0 .58 0l1.305.726s.145.145 0 .3zm3.336-2.035l-1.305.726c-.146.146-.436 0-.58 0l-1.306-.726c-.145-.146-.145-.3 0-.3l1.306-.726c.145-.146.435 0 .58 0l1.305.726c.145.145.145.3 0 .3z"/><use xlink:href="#C" x="72.254" y="14.53"/><path d="M206.035 124.562l-1.306.727c-.145.145-.435 0-.58 0l-1.306-.727c-.145-.145-.145-.29 0-.29l1.306-.726c.145-.145.435 0 .58 0l1.306.726c.145.146.145.29 0 .29z"/><use xlink:href="#K" x="36.707" y="-13.659"/><use xlink:href="#D" x="82.4" y="4.94"/><use xlink:href="#E" x="82.553" y="1.162"/><path d="M219.384 116.86l-1.306.726c-.145.146-.435 0-.58 0l-1.306-.726c-.145-.145-.145-.3 0-.3l1.306-.726c.145-.146.435 0 .58 0l1.306.726c.145.146.145.3 0 .3zm3.48-1.887l-1.306.727c-.145.145-.435 0-.58 0l-1.45-.727c-.145-.145-.145-.3 0-.3l1.306-.726c.145-.145.435 0 .58 0l1.306.726c.145 0 .145.146.145.3z"/><use xlink:href="#H" x="35.837" y="20.631"/><path d="M185.722 140.1l-1.306.726c-.145.146-.435 0-.58 0l-1.305-.726c-.145-.145-.145-.3 0-.3l1.305-.726c.146-.145.436 0 .58 0l1.306.726c.145 0 .145.146 0 .3zm3.338-2.035l-1.306.727c-.145.145-.436 0-.58 0l-1.305-.727c-.146-.145-.146-.3 0-.3l1.305-.727c.145-.145.436 0 .58 0l1.306.727c.145.145.145.3 0 .3zm3.338-1.89l-1.305.726c-.146.146-.436 0-.58 0l-1.306-.726c-.145-.146-.145-.3 0-.3l1.306-.726c.145-.146.435 0 .58 0l1.305.726c.145 0 .145.145 0 .3zm3.335-1.888l-1.305.726c-.146.145-.436 0-.58 0l-1.306-.726c-.145-.146-.145-.3 0-.3l1.306-.727c.145-.145.435 0 .58 0l1.305.727c.145 0 .145.145 0 .3z"/><use xlink:href="#E" x="65.58" y="14.675"/><path d="M202.555 130.373l-1.306.727c-.145.145-.435 0-.58 0l-1.305-.727c-.145-.145-.145-.3 0-.3l1.305-.727c.146-.145.436 0 .58 0l1.306.727s.145.145 0 .3zm3.335-1.888l-1.306.726c-.145.146-.435 0-.58 0l-1.305-.726c-.145-.146-.145-.3 0-.3l1.305-.726c.146-.146.436 0 .58 0l1.306.726c.145 0 .145.145 0 .3z"/><use xlink:href="#J" x="52.957" y="-0.435"/><path d="M212.563 124.562l-1.305.727c-.145.145-.436 0-.58 0l-1.305-.727c-.146-.145-.146-.3 0-.3l1.305-.726c.145-.145.436 0 .58 0l1.305.726c.145 0 .145.146 0 .3zm3.337-2.034l-1.305.727c-.146.145-.436 0-.58 0l-1.306-.727c-.145-.145-.145-.3 0-.3l1.306-.727c.145-.145.435 0 .58 0l1.305.727c.145.145.145.3 0 .3z"/><use xlink:href="#K" x="46.575" y="-15.692"/><use xlink:href="#F" x="85.744" y="-0.872"/><use xlink:href="#K" x="53.248" y="-19.615"/><path d="M229.54 118.896l-1.306.726c-.145.146-.435 0-.58 0l-1.306-.726c-.145-.146-.145-.29 0-.29l1.306-.726c.145-.146.435 0 .58 0l1.306.726c.145.145.145.29 0 .29z"/><use xlink:href="#E" x="92.71" y="3.197"/><use xlink:href="#L" x="47.006" y="-19.324"/><path d="M236.36 114.973l-1.305.726c-.146.146-.436 0-.58 0l-1.306-.726c-.145-.145-.145-.3 0-.3l1.306-.726c.145-.145.435 0 .58 0l1.305.726c0 .146.145.3 0 .3zm3.337-1.89l-1.306.727c-.145.145-.435 0-.58 0l-1.306-.727c-.145-.145-.145-.3 0-.3l1.306-.727c.145-.145.435 0 .58 0l1.306.727c.145.145.145.145 0 .3z"/><use xlink:href="#C" x="112.589" y="-0.871"/><path d="M232.73 120.785l-1.305.727c-.145.145-.436 0-.58 0l-1.306-.727c-.145-.145-.145-.3 0-.3l1.306-.727c.145-.145.436 0 .58 0l1.305.727c.146 0 .146.145 0 .3zm3.34-2.033l-1.305.726c-.146.146-.436 0-.58 0l-1.306-.726c-.145-.145-.145-.3 0-.3l1.306-.726c.145-.146.435 0 .58 0l1.305.726c.145.146.145.3 0 .3zm3.48-1.89l-1.306.727c-.145.145-.435 0-.58 0l-1.306-.727c-.145-.145-.145-.3 0-.3l1.306-.726c.145-.145.435 0 .58 0l1.306.726v.3zm3.338-1.9l-1.306.726c-.145.146-.435 0-.58 0l-1.306-.726c-.145-.145-.145-.3 0-.3l1.306-.726c.145-.145.435 0 .58 0l1.306.726s.145.146 0 .3z"/></g><g stroke="#16110d" class="I"><path d="M112.655 75.16c-.818-2.962-.317-5.756 1.174-7.89h0l.913-1.31c-.74 1.868-.866 4.036-.243 6.292h0c1.67 5.99 8.075 10.32 14.308 9.673 2.3-.236 4.26-1.125 5.738-2.458l-.913 1.31m-20.977-5.615l20.977 5.615m-20.977-5.615c1.638 5.88 7.94 10.14 14.058 9.504 3.035-.322 5.45-1.787 6.92-3.888m-20.977-5.615l20.977 5.615m-19.9-13.572l1.248-1.79-2.438 9.78c-.827-2.993-.322-5.823 1.2-7.988zm2.06-2.957l.01-.014-.01.014z" class="F"/><path d="M136.558 70.174c1.622 5.818-1.98 11.055-8.038 11.685-6.075.63-12.33-3.592-13.957-9.424-1.62-5.818 1.98-11.055 8.038-11.685 6.083-.626 12.33 3.592 13.957 9.424z" class="G"/><path d="M115.984 71.484h0c-.655-2.33-.37-4.52.773-6.167 1.128-1.625 3.07-2.68 5.476-2.924h0c2.7-.283 5.53.48 7.994 2.144s4.2 4.008 4.928 6.6h0c.655 2.33.37 4.52-.773 6.167-1.128 1.625-3.07 2.68-5.476 2.924-2.692.27-5.537-.485-7.995-2.144-2.465-1.665-4.21-4.008-4.927-6.6z" class="F"/><path d="M115.52 72.164h0c-.655-2.33-.37-4.52.773-6.168 1.128-1.625 3.07-2.68 5.476-2.924h0c2.7-.283 5.53.48 7.994 2.144s4.2 4.008 4.928 6.6h0c.655 2.33.37 4.52-.773 6.167-1.128 1.625-3.07 2.68-5.476 2.924-2.692.27-5.537-.485-7.994-2.144-2.466-1.665-4.2-4.008-4.928-6.6z" class="H"/><g class="F"><path d="M122.2 65.357l-.3-1.107.652-.928.303 1.103-.646.933zm3.64 3.173h0 0c-.095-.346-.26-.725-.55-1.03-.256-.272-.606-.483-1.08-.566l.7-.997a1.66 1.66 0 0 1 1.049.508c.253.27.407.6.5.937l.07.27.026.096.1-.01 1.887-.2-.664.957-1.986.2-.046-.174zm-3.087-1.55l.416-.6a1.01 1.01 0 0 1 .307-.277l.965 3.462-.654.943-1-3.548-.045.02zm1.907 6.116l-.014-.05-.047-.023-.265-.128c-1.845-.902-3.686-1.805-4.23-3.78v-.001c-.3-1.03-.15-1.753.205-2.264l.274-.396c-.066.43-.03.93.133 1.513.58 2.083 2.5 3.022 4.3 3.908l.04.02h.001l.217.105 1.323 4.756-.664.958-1.285-4.617zm3.5 3.044h0v-.002c-.246-.88-.868-1.517-1.66-2.038l.698-1.006c.757.5 1.343 1.103 1.568 1.906.1.422.13.857-.097 1.182l-.42.607c.004-.22-.033-.444-.086-.65zm.66 2.166c.523-.1 1.04-.264 1.473-.523l-.227.33c-.395.57-1.1.903-1.865 1.1l.62-.895z"/><path d="M122.323 76.466h0l-.14-.502.673-.973.086.312c.34 1.23 1.012 1.993 1.83 2.44.785.43 1.695.56 2.554.55l.317 1.12.1-.01 1.11-.12-.672.972-1.212.13-.313-1.105h-.09c-.862.022-1.763-.1-2.526-.518s-1.393-1.124-1.716-2.297z"/></g><path d="M128.44 78.03l-.126.024.035.122.273.962-1.1.12-.284-1-.024-.087-.092.002c-.85.022-1.738-.1-2.49-.51s-1.373-1.105-1.69-2.257h0l-.115-.412 1.895-.2.165.595c.095.346.262.716.554 1.015s.708.524 1.283.583l.172.018-.046-.164-1.36-4.887-.047-.023-.133-.064-.13-.063c-1.837-.898-3.663-1.792-4.212-3.765h0c-.32-1.145-.114-1.91.343-2.43.464-.527 1.205-.824 2-.983l.124-.025-.034-.12-.36-1.293 1.11-.12.388 1.412.092-.002c.842-.02 1.724.103 2.473.512.743.406 1.364 1.1 1.683 2.247l-1.896.202-.046-.173v-.002c-.1-.347-.266-.725-.553-1.03s-.696-.535-1.262-.585l-.17-.015.045.162 1.352 4.846.045.023.023.012.336.16c1.836.898 3.66 1.79 4.208 3.763h0c.327 1.16.114 1.93-.357 2.453-.48.53-1.242.825-2.058.98zm-1.364-5.214l-.26-.165.083.294 1.087 3.88.123-.05c.445-.185.684-.486.78-.828.094-.336.05-.7-.045-1.02-.258-.937-.934-1.582-1.77-2.11zm-4.088-5.114h0c.242.892.885 1.516 1.663 2.04l.265.18-.085-.306-1.065-3.822-.128.062c-.405.198-.616.498-.7.835-.08.33-.037.7.05 1z" class="G"/></g><defs ><path id="B" d="M217.953 33.1h0c1.3-1.104 2.02-2.496 2.02-3.907 0-1.39-.696-2.773-1.985-3.867h-.001c-1.443-1.232-3.38-1.905-5.473-1.905s-4.036.683-5.487 1.916h0c-1.3 1.104-2.02 2.496-2.02 3.907 0 1.39.696 2.773 1.986 3.867 1.444 1.223 3.39 1.906 5.473 1.906 2.09 0 4.036-.683 5.488-1.916z"/><path id="C" d="M130.443 112.067l-1.306.726c-.145.145-.435 0-.58 0l-1.306-.726c-.145-.146-.145-.29 0-.29l1.306-.726c.145-.146.435 0 .58 0l1.306.726c.145 0 .145.145 0 .29z"/><path id="D" d="M130.3 115.845l-1.306.726c-.145.146-.435 0-.58 0l-1.306-.726c-.145-.145-.145-.29 0-.29l1.306-.726c.145-.146.435 0 .58 0l1.306.726c.145 0 .145.146 0 .29z"/><path id="E" d="M133.492 117.588l-1.306.727c-.145.145-.435 0-.58 0l-1.306-.727c-.145-.145-.145-.3 0-.3l1.306-.727c.145-.145.435 0 .58 0l1.306.727c.145.145.145.3 0 .3z"/><path id="F" d="M136.83 119.622l-1.306.727c-.145.145-.435 0-.58 0l-1.306-.727c-.145-.145-.145-.3 0-.3l1.306-.727c.145-.145.435 0 .58 0l1.306.727c.145 0 .145.145 0 .3z"/><path id="G" d="M143.36 119.476l-1.305.727c-.146.145-.436 0-.58 0l-1.306-.727c-.145-.145-.145-.3 0-.3l1.306-.727c.145-.145.435 0 .58 0l1.305.727c.145 0 .145.145 0 .3z"/><path id="H" d="M146.55 121.367l-1.306.726c-.145.145-.435 0-.58 0l-1.306-.726c-.145-.146-.145-.29 0-.29l1.306-.727c.145-.145.435 0 .58 0l1.306.727c.145 0 .145.145 0 .29z"/><path id="I" d="M146.55 125.144l-1.306.726c-.145.145-.435 0-.58 0l-1.306-.726c-.145-.146-.145-.29 0-.29l1.306-.727c.145-.145.435 0 .58 0l1.306.727c.145.145.145.29 0 .29z"/><path id="J" d="M156.27 126.887l-1.305.727c-.145.145-.436 0-.58 0l-1.305-.727c-.146-.145-.146-.3 0-.3l1.305-.727c.145-.145.436 0 .58 0l1.305.727c.145.145.145.3 0 .3z"/><path id="K" d="M172.665 136.332l-1.306.726c-.145.146-.435 0-.58 0l-1.306-.726c-.145-.145-.145-.29 0-.29l1.306-.726c.145-.145.435 0 .58 0l1.306.726c.145.146.145.29 0 .29z"/><path id="L" d="M185.87 136.332l-1.306.726c-.145.146-.435 0-.58 0l-1.306-.726c-.145-.145-.145-.29 0-.29l1.306-.726c.145-.145.435 0 .58 0l1.306.726c.145 0 .145.146 0 .29z"/></defs></svg>