<svg width="360" height="304" viewBox="0 0 360 304" fill="none" xmlns="http://www.w3.org/2000/svg">
<rect width="360" height="304" fill="#007550"/>
<g style="mix-blend-mode:screen" opacity="0.1">
<path d="M0 0H360V66.5L145.386 239.522L0 0L94 43L0 59.5V239.522L360 304H0L360 246L323 0H0Z" fill="#007550"/>
</g>
<path d="M149.84 132.213L145.214 129.514L149.84 129.355L150.425 129.831L150.835 131.26L149.84 132.213Z" fill="#150035"/>
<path d="M149.898 132.69L150.19 132.425L151.303 131.314L151.244 131.102L150.776 129.514L150.659 129.461L149.956 128.879H149.722L144.862 129.038L144.687 129.567L144.979 129.726L149.898 132.69ZM150.366 131.102L149.78 131.684L146.56 129.779L149.722 129.673L150.073 129.937L150.366 131.102Z" fill="#150035"/>
<path d="M142.05 108.605L156.454 101.089C157.273 100.665 158.034 100.612 158.561 100.877L163.245 103.524C163.245 103.524 163.304 103.577 163.245 103.577C163.011 103.947 161.079 107.652 160.903 108.341C160.845 108.605 160.201 111.464 159.498 114.746V116.387C159.498 117.286 159.147 118.345 158.503 119.245C157.742 122.686 157.156 125.597 157.098 125.703L150.481 127.714H150.013C150.013 127.714 149.954 127.661 150.013 127.661L150.364 126.709C150.481 126.285 150.54 125.756 150.54 125.279L144.334 131.526H144.275L139.708 128.985C139.708 128.985 139.649 128.985 139.649 128.932C139.123 128.614 138.771 128.032 138.771 127.132V113.475C138.947 111.728 140.352 109.505 142.05 108.605Z" fill="#FFC856"/>
<path d="M144.451 131.896C144.568 131.896 144.744 131.843 144.803 131.737L150.131 126.391C150.131 126.444 150.131 126.497 150.072 126.603L149.721 127.503C149.662 127.715 149.721 127.926 149.955 128.032L150.072 128.085H150.716L157.625 125.968L157.684 125.756C157.684 125.703 158.328 122.792 159.031 119.351C159.675 118.345 160.026 117.287 160.026 116.334V114.693C160.377 113.158 161.314 108.711 161.431 108.341C161.548 107.812 163.012 105.059 163.715 103.63C163.832 103.418 163.715 103.206 163.539 103.1L158.855 100.507C158.094 100.189 157.215 100.242 156.279 100.718L141.875 108.235C140.002 109.188 138.538 111.57 138.538 113.475V127.079C138.538 128.032 138.889 128.826 139.592 129.197L144.217 131.79C144.276 131.896 144.334 131.896 144.451 131.896ZM151.185 124.221L144.393 131.049L140.06 128.614C139.65 128.35 139.416 127.82 139.416 127.132V113.528C139.416 111.887 140.763 109.77 142.344 108.923L156.747 101.407C157.391 101.036 158.035 100.983 158.445 101.195L162.836 103.63C162.251 104.688 160.787 107.547 160.611 108.182C160.553 108.447 160.084 110.458 159.206 114.587V114.64V116.281C159.206 117.075 158.855 118.081 158.328 118.928L158.269 119.086C157.625 121.998 157.098 124.591 156.923 125.333L150.775 127.185L150.951 126.709C151.068 126.232 151.126 125.703 151.185 125.227V124.221Z" fill="#150035"/>
<path d="M142.111 108.605L155.753 101.459L162.545 105.323L147.907 112.31L144.863 112.734L140.179 110.246C140.705 109.558 141.408 108.976 142.111 108.605Z" fill="white"/>
<path d="M144.804 113.158L148.141 112.681L163.423 105.377L155.811 101.036L141.935 108.288C141.232 108.658 140.529 109.294 139.944 110.035L139.71 110.352L144.804 113.158ZM147.79 111.94L144.979 112.364L140.822 110.141C141.291 109.611 141.759 109.241 142.286 108.976L155.753 101.936L161.725 105.324L147.79 111.94Z" fill="#150035"/>
<path d="M139.083 113.591L143.75 116.126L143.297 116.806L138.63 114.271L139.083 113.591Z" fill="#150035"/>
<path d="M139.215 123.377L143.882 125.912L143.429 126.592L138.762 124.057L139.215 123.377Z" fill="#150035"/>
<path d="M161.08 103.683L146.677 111.199C144.979 112.099 143.574 114.269 143.574 116.069V129.726C143.574 131.526 144.979 132.267 146.677 131.367L148.316 130.52C148.609 130.361 148.843 130.467 148.902 130.732C149.077 131.526 149.722 133.061 152.064 132.161C152.532 132.002 152.883 131.367 152.766 130.943C152.591 130.467 152.415 129.779 152.415 128.985C152.415 128.614 152.708 128.191 153.059 128.032L161.08 123.85C162.778 122.95 164.184 120.78 164.184 118.98V105.324C164.184 103.524 162.837 102.783 161.08 103.683Z" fill="#FFC856"/>
<path d="M150.775 132.797C151.185 132.797 151.712 132.691 152.239 132.479C152.883 132.215 153.351 131.368 153.175 130.785C153.058 130.362 152.883 129.727 152.883 128.933C152.883 128.721 153.058 128.403 153.293 128.297L161.314 124.116C163.188 123.163 164.651 120.834 164.651 118.928V105.271C164.651 104.266 164.241 103.472 163.539 103.101C162.836 102.731 161.899 102.783 160.904 103.313L146.501 110.829C144.627 111.782 143.163 114.111 143.163 116.017V129.674C143.163 130.679 143.573 131.473 144.276 131.844C144.978 132.215 145.915 132.162 146.91 131.632L148.55 130.785C148.667 131.368 149.018 132.109 149.779 132.532C150.072 132.744 150.424 132.797 150.775 132.797ZM162.485 103.683C162.719 103.683 162.895 103.736 163.07 103.842C163.539 104.054 163.773 104.583 163.773 105.324V118.981C163.773 120.675 162.485 122.687 160.846 123.533L152.824 127.715C152.356 127.98 152.004 128.509 152.004 129.039C152.004 129.938 152.18 130.627 152.356 131.103C152.414 131.262 152.18 131.738 151.887 131.844C151.126 132.109 150.541 132.162 150.131 131.95C149.604 131.685 149.37 131.05 149.311 130.679C149.253 130.415 149.077 130.256 148.901 130.15C148.667 130.044 148.374 130.097 148.081 130.203L146.442 131.05C145.739 131.421 145.095 131.473 144.686 131.262C144.217 131.05 143.983 130.521 143.983 129.78V116.123C143.983 114.429 145.271 112.417 146.91 111.57L161.314 104.001C161.724 103.789 162.134 103.683 162.485 103.683Z" fill="#150035"/>
<path d="M138.948 125.703L143.515 128.244V130.096L143.808 131.208L139.768 128.932L139.006 128.032L138.889 127.026L138.948 125.703Z" fill="#150035"/>
<path d="M88.1854 141.593L82.789 138.444L88.1854 138.258L88.8685 138.814L89.3467 140.482L88.1854 141.593Z" fill="#150035"/>
<path d="M88.2532 142.149L88.5947 141.84L89.8926 140.543L89.8243 140.296L89.2778 138.443L89.1412 138.382L88.3215 137.702H88.0482L82.3786 137.888L82.1736 138.505L82.5152 138.69L88.2532 142.149ZM88.7996 140.296L88.1165 140.975L84.3595 138.752L88.0482 138.629L88.4581 138.938L88.7996 140.296Z" fill="#150035"/>
<path d="M79.0972 114.049L95.9013 105.28C96.8576 104.786 97.7456 104.724 98.3604 105.033L103.825 108.121C103.825 108.121 103.893 108.183 103.825 108.183C103.552 108.615 101.298 112.938 101.093 113.741C101.024 114.049 100.273 117.384 99.4533 121.213V123.128C99.4533 124.177 99.0435 125.413 98.2921 126.462C97.4041 130.476 96.7209 133.873 96.6526 133.997L88.9337 136.343H88.3872C88.3872 136.343 88.3189 136.282 88.3872 136.282L88.7971 135.17C88.9337 134.676 89.002 134.058 89.002 133.503L81.7612 140.79H81.6929L76.3648 137.825C76.3648 137.825 76.2965 137.825 76.2965 137.764C75.6817 137.393 75.2719 136.714 75.2719 135.664V119.731C75.4768 117.693 77.1162 115.099 79.0972 114.049Z" fill="#FFC856"/>
<path d="M81.899 141.223C82.0356 141.223 82.2405 141.161 82.3088 141.037L88.525 134.8C88.525 134.862 88.525 134.924 88.4567 135.047L88.0468 136.097C87.9785 136.344 88.0468 136.591 88.3201 136.714L88.4567 136.776H89.2081L97.2686 134.306L97.3369 134.059C97.3369 133.997 98.0883 130.601 98.908 126.587C99.6594 125.413 100.069 124.178 100.069 123.066V121.152C100.479 119.361 101.572 114.174 101.709 113.741C101.845 113.124 103.553 109.912 104.373 108.245C104.509 107.998 104.373 107.751 104.168 107.628L98.7031 104.601C97.815 104.231 96.7904 104.293 95.6975 104.848L78.8934 113.618C76.7075 114.729 74.9998 117.508 74.9998 119.732V135.603C74.9998 136.714 75.4096 137.641 76.2293 138.073L81.6258 141.099C81.6941 141.223 81.7624 141.223 81.899 141.223ZM89.7546 132.268L81.8307 140.235L76.7758 137.394C76.2976 137.085 76.0244 136.467 76.0244 135.665V119.793C76.0244 117.879 77.5955 115.409 79.4399 114.421L96.2439 105.651C96.9953 105.219 97.7467 105.157 98.2249 105.404L103.348 108.245C102.665 109.48 100.957 112.815 100.752 113.556C100.684 113.865 100.138 116.212 99.1129 121.029V121.09V123.005C99.1129 123.931 98.7031 125.104 98.0883 126.093L98.02 126.278C97.2686 129.674 96.6538 132.7 96.4489 133.565L89.2764 135.726L89.4813 135.171C89.6179 134.615 89.6863 133.997 89.7546 133.441V132.268Z" fill="#150035"/>
<path d="M79.1669 114.05L95.083 105.713L103.007 110.221L85.9295 118.373L82.3774 118.867L76.9127 115.964C77.5275 115.162 78.3472 114.482 79.1669 114.05Z" fill="white"/>
<path d="M82.3099 119.361L86.2035 118.805L104.032 110.283L95.152 105.219L78.9627 113.68C78.143 114.112 77.3233 114.853 76.6402 115.718L76.367 116.088L82.3099 119.361ZM85.7937 117.941L82.5148 118.435L77.6649 115.841C78.2113 115.224 78.7578 114.791 79.3726 114.482L95.0837 106.269L102.051 110.221L85.7937 117.941Z" fill="#150035"/>
<path d="M75.6373 119.866L81.082 122.824L80.5532 123.617L75.1085 120.659L75.6373 119.866Z" fill="#150035"/>
<path d="M75.7896 131.284L81.2344 134.242L80.7056 135.036L75.2608 132.077L75.7896 131.284Z" fill="#150035"/>
<path d="M101.3 108.307L84.4955 117.076C82.5145 118.126 80.8751 120.658 80.8751 122.757V138.69C80.8751 140.79 82.5145 141.655 84.4955 140.605L86.4081 139.617C86.7497 139.431 87.0229 139.555 87.0912 139.864C87.2961 140.79 88.0476 142.581 90.7799 141.531C91.3264 141.346 91.7362 140.605 91.5996 140.111C91.3947 139.555 91.1898 138.752 91.1898 137.826C91.1898 137.394 91.5313 136.899 91.9412 136.714L101.3 131.836C103.281 130.786 104.92 128.254 104.92 126.154V110.221C104.92 108.121 103.349 107.257 101.3 108.307Z" fill="#FFC856"/>
<path d="M89.2765 142.273C89.7547 142.273 90.3695 142.149 90.9843 141.902C91.7357 141.594 92.2821 140.606 92.0772 139.926C91.9406 139.432 91.7357 138.691 91.7357 137.765C91.7357 137.518 91.9406 137.147 92.2138 137.024L101.572 132.145C103.758 131.033 105.466 128.316 105.466 126.093V110.16C105.466 108.987 104.988 108.06 104.168 107.628C103.348 107.196 102.255 107.257 101.094 107.875L84.29 116.644C82.1041 117.756 80.3963 120.473 80.3963 122.696V138.629C80.3963 139.803 80.8745 140.729 81.6942 141.161C82.5139 141.594 83.6068 141.532 84.7681 140.914L86.6808 139.926C86.8174 140.606 87.2272 141.47 88.1153 141.964C88.4568 142.211 88.8667 142.273 89.2765 142.273ZM102.938 108.307C103.212 108.307 103.417 108.369 103.621 108.493C104.168 108.74 104.441 109.357 104.441 110.222V126.155C104.441 128.131 102.938 130.478 101.026 131.466L91.6673 136.344C91.1209 136.653 90.711 137.271 90.711 137.888C90.711 138.938 90.9159 139.741 91.1209 140.297C91.1892 140.482 90.9159 141.038 90.5744 141.161C89.6864 141.47 89.0033 141.532 88.5251 141.285C87.9103 140.976 87.6371 140.235 87.5688 139.803C87.5005 139.494 87.2955 139.309 87.0906 139.185C86.8174 139.062 86.4758 139.123 86.1343 139.247L84.2216 140.235C83.4019 140.667 82.6505 140.729 82.1724 140.482C81.6259 140.235 81.3526 139.617 81.3526 138.753V122.82C81.3526 120.844 82.8554 118.497 84.7681 117.509L101.572 108.678C102.05 108.431 102.529 108.307 102.938 108.307Z" fill="#150035"/>
<path d="M75.4778 133.997L80.8059 136.961V139.122L81.1475 140.419L76.4341 137.764L75.5461 136.714L75.4095 135.541L75.4778 133.997Z" fill="#150035"/>
<path d="M107.05 88.87L102.232 86.0579L107.05 85.8925L107.66 86.3887L108.087 87.8775L107.05 88.87Z" fill="#150035"/>
<path d="M107.111 89.3661L107.416 89.0904L108.575 87.9325L108.514 87.712L108.026 86.0578L107.904 86.0026L107.172 85.3961H106.928L101.866 85.5615L101.683 86.1129L101.988 86.2783L107.111 89.3661ZM107.599 87.712L106.989 88.3185L103.635 86.3335L106.928 86.2232L107.294 86.4989L107.599 87.712Z" fill="#150035"/>
<path d="M98.9383 64.2783L113.942 56.4485C114.796 56.0074 115.589 55.9523 116.138 56.228L121.017 58.9849C121.017 58.9849 121.078 59.0401 121.017 59.0401C120.773 59.426 118.76 63.2858 118.577 64.0026C118.516 64.2783 117.845 67.2558 117.113 70.6744V72.3837C117.113 73.3211 116.748 74.4239 116.077 75.3612C115.284 78.9453 114.674 81.9779 114.613 82.0882L107.721 84.1835H107.233C107.233 84.1835 107.172 84.1284 107.233 84.1284L107.599 83.1359C107.721 82.6947 107.782 82.1434 107.782 81.6471L101.317 88.1535H101.256L96.4987 85.5068C96.4987 85.5068 96.4377 85.5068 96.4377 85.4517C95.8888 85.1209 95.5229 84.5143 95.5229 83.577V69.3511C95.7058 67.5315 97.1696 65.2156 98.9383 64.2783Z" fill="#FFC856"/>
<path d="M101.438 88.5393C101.56 88.5393 101.743 88.4842 101.804 88.3739L107.354 82.8049C107.354 82.86 107.354 82.9151 107.293 83.0254L106.927 83.9628C106.866 84.1833 106.927 84.4039 107.171 84.5142L107.293 84.5693H107.964L115.161 82.3638L115.222 82.1432C115.222 82.0881 115.893 79.0554 116.624 75.4714C117.295 74.4237 117.661 73.3209 117.661 72.3284V70.6191C118.027 69.0201 119.003 64.3884 119.125 64.0024C119.247 63.451 120.772 60.5838 121.504 59.095C121.626 58.8745 121.504 58.6539 121.321 58.5436L116.441 55.8418C115.649 55.511 114.734 55.5661 113.758 56.0624L98.7542 63.8921C96.8025 64.8846 95.2778 67.3659 95.2778 69.3509V83.5217C95.2778 84.5142 95.6437 85.3413 96.3756 85.7272L101.194 88.4291C101.255 88.5393 101.316 88.5393 101.438 88.5393ZM108.452 80.5442L101.377 87.6571L96.8635 85.1207C96.4366 84.845 96.1926 84.2936 96.1926 83.5768V69.4061C96.1926 67.6967 97.5954 65.4912 99.2421 64.6089L114.246 56.7792C114.917 56.3932 115.588 56.3381 116.014 56.5586L120.589 59.095C119.979 60.1978 118.454 63.1753 118.271 63.837C118.21 64.1127 117.722 66.208 116.807 70.5088V70.564V72.2733C116.807 73.1004 116.441 74.148 115.893 75.0302L115.832 75.1957C115.161 78.2283 114.612 80.9301 114.429 81.7021L108.025 83.6319L108.208 83.1357C108.33 82.6394 108.391 82.0881 108.452 81.5918V80.5442Z" fill="#150035"/>
<path d="M98.9985 64.278L113.209 56.8342L120.284 60.8594L105.037 68.1377L101.865 68.5789L96.9858 65.9873C97.5347 65.2705 98.2666 64.664 98.9985 64.278Z" fill="white"/>
<path d="M101.805 69.02L105.282 68.5238L121.2 60.9146L113.271 56.3932L98.8167 63.9472C98.0848 64.3332 97.353 64.9949 96.743 65.7668L96.4991 66.0977L101.805 69.02ZM104.916 67.7519L101.988 68.193L97.6579 65.8771C98.1458 65.3257 98.6337 64.9398 99.1827 64.6641L113.21 57.3306L119.431 60.8595L104.916 67.7519Z" fill="#150035"/>
<path d="M95.8476 69.4711L100.709 72.1123L100.237 72.8207L95.3755 70.1795L95.8476 69.4711Z" fill="#150035"/>
<path d="M95.9804 79.665L100.842 82.3062L100.37 83.0145L95.5083 80.3733L95.9804 79.665Z" fill="#150035"/>
<path d="M118.759 59.149L103.755 66.9788C101.986 67.9162 100.523 70.1769 100.523 72.0516V86.2775C100.523 88.1522 101.986 88.9242 103.755 87.9868L105.463 87.1046C105.768 86.9392 106.012 87.0494 106.073 87.3251C106.256 88.1522 106.927 89.7513 109.366 88.8139C109.854 88.6485 110.22 87.9868 110.098 87.5457C109.915 87.0494 109.732 86.3326 109.732 85.5055C109.732 85.1196 110.037 84.6785 110.403 84.513L118.759 80.1571C120.527 79.2197 121.991 76.959 121.991 75.0842V60.8584C121.991 58.9836 120.588 58.2117 118.759 59.149Z" fill="#FFC856"/>
<path d="M108.025 89.4766C108.452 89.4766 109.001 89.3663 109.55 89.1457C110.22 88.87 110.708 87.9878 110.525 87.3813C110.403 86.9402 110.22 86.2785 110.22 85.4514C110.22 85.2309 110.403 84.9 110.647 84.7898L119.003 80.4338C120.955 79.4413 122.479 77.0151 122.479 75.0301V60.8042C122.479 59.7566 122.053 58.9295 121.321 58.5435C120.589 58.1576 119.613 58.2127 118.576 58.7641L103.572 66.5938C101.621 67.5864 100.096 70.0125 100.096 71.9975V86.2234C100.096 87.271 100.523 88.0981 101.255 88.4841C101.987 88.8701 102.963 88.8149 103.999 88.2635L105.707 87.3813C105.829 87.9878 106.195 88.7598 106.988 89.2009C107.293 89.4214 107.659 89.4766 108.025 89.4766ZM120.223 59.1501C120.467 59.1501 120.65 59.2052 120.833 59.3155C121.321 59.536 121.565 60.0874 121.565 60.8594V75.0853C121.565 76.8497 120.223 78.945 118.515 79.8272L110.159 84.1832C109.672 84.4589 109.306 85.0103 109.306 85.5617C109.306 86.4991 109.489 87.2159 109.672 87.7121C109.733 87.8776 109.489 88.3738 109.184 88.4841C108.391 88.7598 107.781 88.8149 107.354 88.5944C106.805 88.3187 106.561 87.657 106.5 87.271C106.439 86.9953 106.256 86.8299 106.073 86.7196C105.829 86.6093 105.524 86.6645 105.219 86.7748L103.511 87.657C102.78 88.043 102.109 88.0981 101.682 87.8776C101.194 87.657 100.95 87.1056 100.95 86.3337V72.1078C100.95 70.3433 102.292 68.248 103.999 67.3658L119.003 59.4809C119.43 59.2603 119.857 59.1501 120.223 59.1501Z" fill="#150035"/>
<path d="M95.7054 82.0878L100.463 84.7344V86.6643L100.768 87.8222L96.5592 85.4512L95.7664 84.5139L95.6444 83.4662L95.7054 82.0878Z" fill="#150035"/>
<path d="M226.193 94.6934C219.294 90.3771 212.406 86.074 205.507 81.7578C220.311 74.3548 235.114 66.9634 249.919 59.5605C250.232 59.4139 253.767 57.7059 253.945 54.0761C254.07 51.5471 252.492 49.5212 251.463 48.2404C250.493 47.0383 247.16 43.2575 239.023 41.8754C232.347 40.7474 227.163 42.0229 224.136 42.8323C219.985 43.9511 217.032 45.4422 215.986 45.9624C208.216 49.8622 194.924 56.4301 177.802 64.973C171.685 60.9733 165.58 56.9753 159.463 52.9756C173.769 45.8714 188.062 38.7656 202.368 31.6613C205.763 30.029 210.496 28.0804 216.351 26.6236C221.428 25.3574 227.78 23.7903 236.17 24.6051C244.453 25.4175 250.608 28.1611 256.12 30.6066C263.186 33.7549 268.825 37.3607 272.823 40.2168C274.138 41.3001 277.677 44.5073 279.458 50.1314C280.056 52.0028 281.52 57.6199 279.481 62.8513C277.85 67.053 274.621 69.0258 272.972 70.0075C265.772 74.3135 248.873 83.3929 226.193 94.6934Z" fill="#FFC856" stroke="black" stroke-width="1.05142" stroke-miterlimit="10"/>
<path d="M273.415 83.9049C257.831 92.1229 242.235 100.339 226.651 108.558C226.502 103.941 226.352 99.3246 226.202 94.7082C239.01 88.0638 251.819 81.4195 264.627 74.7751C268.973 72.1031 273.308 69.4295 277.654 66.7574C278.589 62.9224 279.512 59.0857 280.447 55.2507C279.963 62.1513 279.491 69.042 279.007 75.9426C278.891 77.3414 278.52 79.2482 277.243 80.9634C275.827 82.8484 273.96 83.6124 273.415 83.9049Z" fill="#0A261D" stroke="black" stroke-width="1.05142" stroke-miterlimit="10"/>
<path d="M188.8 72.5253C187.008 73.2523 185.216 73.9792 183.414 74.6931C181.264 75.5489 179.116 76.3932 176.957 77.2244C176.758 72.9785 176.545 68.7426 176.346 64.4967C191.235 57.5175 206.136 50.54 221.025 43.5608C227.016 41.2619 232.185 41.0688 235.548 41.2707C235.548 41.2707 242.18 41.6737 248.809 45.4472C250.1 46.1854 251.712 47.2494 252.939 49.4288C254.052 51.416 254.367 53.4618 254.454 54.6638C254.393 55.2096 254.126 56.8593 252.763 58.2564C250.964 60.102 248.622 60.0955 248.211 60.0877C248.053 59.5952 247.717 58.678 247.004 57.8403C246.017 56.683 244.937 56.3972 244.537 56.3084C242.589 55.8241 240.086 55.3483 237.178 55.1835C234.49 55.0365 232.698 55.1505 230.03 55.4775C227.099 55.8284 222.922 56.6137 218.081 58.5006C208.325 63.1721 198.567 67.8553 188.8 72.5253Z" fill="#0A261D" stroke="black" stroke-width="1.05142" stroke-miterlimit="10"/>
<path d="M176.873 78.2139C171.222 74.4297 165.559 70.6439 159.908 66.8597C159.758 62.2433 159.609 57.6268 159.459 53.0104C165.078 56.6842 170.685 60.3564 176.306 64.0186C176.486 68.757 176.68 73.4855 176.873 78.2139Z" fill="white" stroke="black" stroke-width="1.05142" stroke-miterlimit="10"/>
<path d="M225.552 109.783L225.552 94.456C217.997 89.3215 208.285 81.6637 205.972 81.3546L205.972 96.2458C214.92 102.338 214.92 103.014 225.552 109.783Z" fill="white" stroke="black" stroke-width="1.05142" stroke-miterlimit="10"/>
<path d="M175.797 63.928C170.35 60.2889 164.903 56.6499 159.456 53.0109C163.684 50.7827 167.911 48.5661 172.127 46.3364C178.156 50.1121 184.195 53.901 190.224 57.6768C185.414 59.7682 180.605 61.8481 175.797 63.928Z" fill="white" stroke="black" stroke-width="1.05142" stroke-miterlimit="10"/>
<path d="M190.273 72.5925C185.763 74.4647 181.253 76.337 176.742 78.2093L176.276 63.7801C180.749 61.8322 185.234 59.8859 189.707 57.9379C189.903 62.8315 190.088 67.712 190.273 72.5925Z" fill="white" stroke="black" stroke-width="1.05142" stroke-miterlimit="10"/>
<path d="M238.577 102.337C234.183 104.579 230.428 107.532 226.02 109.783C225.814 105.147 226.225 99.2732 226.019 94.6374C230.384 92.3567 234.737 90.0745 239.101 87.7939C239.349 92.4706 238.329 97.6607 238.577 102.337Z" fill="white" stroke="black" stroke-width="1.05142" stroke-miterlimit="10"/>
<path d="M226.596 94.5721C219.577 90.1926 212.557 85.813 205.539 81.4219C209.767 79.1937 213.994 76.9771 218.21 74.7474C225.176 79.0845 232.141 83.4332 239.108 87.7703C234.931 90.0525 230.758 92.3115 226.596 94.5721Z" fill="white" stroke="black" stroke-width="1.05142" stroke-miterlimit="10"/>
<path d="M277.641 66.7442C275.045 68.3889 272.39 70.026 269.692 71.6336C259.271 77.8545 249.038 83.193 239.105 87.7819C232.138 83.4448 225.173 79.0961 218.207 74.759C224.695 71.7368 231.171 68.713 237.659 65.6907C241.745 63.644 245.83 61.6088 249.916 59.562C252.355 59.0984 254.24 57.4056 254.544 55.1245C254.817 53.0749 253.795 51.2058 253.067 49.871C251.342 46.7411 248.94 45.3358 247.757 44.7652C252.981 41.4209 258.204 38.0881 263.428 34.7438C265.374 35.4164 268.275 36.6998 271.397 39.2385C273.299 40.7773 276.231 43.1492 278.006 46.6982C282.121 54.9442 278.104 65.5685 277.641 66.7442Z" fill="#FF513F" stroke="black" stroke-width="1.05142" stroke-miterlimit="10"/>
<path d="M204.252 67.817L205.023 69.271L178.514 81.7735L177.743 80.3195L204.252 67.817Z" fill="black"/>
<path d="M179.051 57.1487L180.69 57.021L181.119 71.5836L179.48 71.7113L179.051 57.1487Z" fill="black"/>
<path d="M229.543 87.6039L230.754 86.927L231.182 101.49L229.543 101.617L229.543 87.6039Z" fill="#001E20"/>
<path d="M262.466 76.7296L262.084 88.6225L266.619 86.1786L267.001 74.2856L262.466 76.7296Z" fill="white" stroke="black" stroke-width="1.05142"/>
<path d="M270.936 72.1686L270.936 84.3808L273.398 83.0805L273.399 70.746L270.936 72.1686Z" fill="white" stroke="black" stroke-width="1.05142"/>
<path d="M108.239 100.227C111.384 95.1566 114.703 97.7793 115.402 98.3038C115.402 98.3038 115.577 98.3038 115.577 98.129C116.276 96.7302 119.595 90.2609 122.74 91.6597L127.981 94.4572V94.6321L124.312 100.927L119.42 114.215L120.818 114.565V117.362C120.818 117.537 120.643 117.537 120.643 117.537L115.577 114.739L109.112 109.669C109.112 109.669 104.395 106.696 108.239 100.227Z" fill="white"/>
<path d="M120.646 118.411C120.82 118.411 120.995 118.411 120.995 118.236C121.17 118.061 121.345 117.886 121.345 117.537V114.215L120.296 113.865L124.839 101.276L128.683 94.8067V94.457C128.683 94.2822 128.508 94.1073 128.333 93.9325L123.092 91.1349C121.869 90.6104 120.122 90.4355 117.676 93.4079C116.627 94.8067 115.754 96.2055 115.23 97.2545C114.531 96.73 113.308 96.2055 111.91 96.3803C110.338 96.5552 108.94 97.7791 107.717 99.7024C103.524 106.696 108.765 110.018 108.765 110.193L115.23 115.264L120.296 118.061C120.296 118.411 120.471 118.411 120.646 118.411ZM120.122 115.439V116.663L115.928 114.39L109.639 109.319C109.464 109.144 105.446 106.521 108.94 100.751C109.988 99.1779 111.036 98.1288 112.259 97.9539C113.657 97.7791 114.88 98.6533 115.055 99.003L115.23 99.1779H115.579C115.754 99.1779 116.103 99.003 116.103 98.6533C116.453 98.1288 117.326 96.0306 118.724 94.457C119.772 93.2331 121.17 91.8343 122.393 92.5337L126.935 95.1564L123.441 101.101L118.374 115.089L120.122 115.439Z" fill="#001E20"/>
<path d="M113.306 103.724C113.306 103.724 115.578 103.55 115.927 103.724C116.276 103.724 121.343 105.823 121.343 105.823L122.042 107.571L119.596 114.565L120.994 114.915V117.712C120.994 117.887 120.819 117.887 120.819 117.887L115.752 115.089L109.288 110.019C109.288 110.019 104.92 107.221 108.065 101.102L113.306 103.724Z" fill="#FF513F"/>
<path d="M120.821 118.411C120.996 118.411 121.171 118.411 121.171 118.236C121.346 118.062 121.52 117.887 121.52 117.537V114.215L120.647 114.04L122.918 107.571L122.044 105.298L121.87 105.123C119.598 104.074 116.803 103.025 116.279 102.85C115.929 102.85 114.357 102.85 113.658 102.85L107.892 99.7028L107.543 100.402C104.049 106.871 108.941 110.194 108.941 110.194L115.405 115.264L120.472 118.062C120.472 118.411 120.647 118.411 120.821 118.411ZM120.297 115.439V116.663L116.104 114.39L109.814 109.319C109.64 109.144 106.145 106.871 108.591 101.976L113.483 104.598H113.658C114.706 104.598 115.929 104.424 116.279 104.598C116.628 104.598 119.249 105.822 121.171 106.697L121.695 107.921L119.074 115.264L120.297 115.439Z" fill="#001E20"/>
<path d="M119.772 100.752L115.754 98.479V98.3041C116.103 97.6047 116.977 95.6814 118.375 94.1078L123.616 97.0802L125.188 100.053L124.664 101.102L123.965 103.2L122.218 104.599L119.772 100.752Z" fill="#FF513F"/>
<path d="M121.695 105.822L124.315 103.724L125.189 101.451L125.888 100.227L124.141 96.73L118.2 93.233L117.851 93.7576C116.628 95.3312 115.58 97.2545 115.23 98.1287C115.055 98.4784 115.23 98.6533 115.23 98.8281V99.1778L119.423 101.451L121.695 105.822ZM123.092 102.85L122.219 103.549L120.472 100.227L116.628 98.1287C116.977 97.4294 117.676 96.2054 118.55 94.9815L123.092 97.6042L124.141 100.052L123.616 100.926L123.092 102.85Z" fill="#001E20"/>
<path d="M113.484 103.2C116.629 98.1296 119.948 100.752 120.647 101.277C120.647 101.277 120.822 101.277 120.822 101.102C121.521 99.7032 124.84 93.2339 127.985 94.6327C131.829 96.556 127.112 104.949 127.112 104.949L120.822 117.363L120.647 117.538L114.183 112.467C114.357 112.642 109.64 109.669 113.484 103.2Z" fill="#FF513F"/>
<path d="M120.647 118.587H120.996C121.171 118.587 121.52 118.412 121.52 118.063L127.81 105.649C127.985 105.474 131.13 99.7038 130.081 96.3817C129.732 95.5074 129.208 94.808 128.334 94.2835C127.286 93.759 125.364 93.759 122.918 96.5565C121.87 97.9553 120.996 99.3541 120.472 100.403C119.773 99.8786 118.55 99.3541 117.153 99.5289C115.58 99.7038 114.182 100.928 112.959 102.851C108.766 109.845 114.008 113.167 114.008 113.342L120.647 118.587ZM127.111 95.3326C127.286 95.3326 127.461 95.3326 127.81 95.5074C128.334 95.6823 128.684 96.2068 128.859 96.7314C129.557 99.0044 127.635 103.376 126.762 104.949L120.822 116.839L115.056 112.293C114.881 112.118 110.863 109.495 114.357 103.725C115.405 102.152 116.454 101.103 117.677 100.928C119.074 100.753 120.297 101.627 120.472 101.977L120.647 102.152H120.996C121.171 102.152 121.52 101.977 121.52 101.627C121.87 101.103 122.743 99.0044 124.141 97.4308C125.015 96.3817 126.063 95.3326 127.111 95.3326Z" fill="#001E20"/>
<path d="M123.032 105.901L124.274 106.542L120.747 113.377L119.504 112.737L123.032 105.901Z" fill="#001E20"/>
<path d="M122.043 99.1779L116.801 96.2056L115.753 98.4786L120.82 101.276L122.043 99.1779Z" fill="#001E20"/>
<path d="M170.428 98.8734C173.573 93.8028 176.893 96.4255 177.591 96.9501C177.591 96.9501 177.766 96.9501 177.766 96.7752C178.465 95.3765 181.785 88.9071 184.929 90.3059L190.171 93.1035V93.2783L186.502 99.5728L181.61 112.861L183.008 113.211V116.008C183.008 116.183 182.833 116.183 182.833 116.183L177.766 113.386L171.302 108.315C171.302 108.315 166.584 105.343 170.428 98.8734Z" fill="white"/>
<path d="M182.836 117.057C183.011 117.057 183.186 117.057 183.186 116.882C183.36 116.708 183.535 116.533 183.535 116.183V112.861L182.487 112.511L187.029 99.9222L190.873 93.4529V93.1032C190.873 92.9284 190.698 92.7535 190.524 92.5787L185.282 89.7811C184.059 89.2566 182.312 89.0818 179.866 92.0541C178.818 93.4529 177.944 94.8517 177.42 95.9008C176.721 95.3762 175.498 94.8517 174.1 95.0265C172.528 95.2014 171.13 96.4253 169.907 98.3486C165.714 105.343 170.956 108.665 170.956 108.839L177.42 113.91L182.487 116.708C182.487 117.057 182.661 117.057 182.836 117.057ZM182.312 114.085V115.309L178.119 113.036L171.829 107.965C171.654 107.79 167.636 105.168 171.13 99.3977C172.179 97.8241 173.227 96.775 174.45 96.6002C175.848 96.4253 177.071 97.2996 177.245 97.6492L177.42 97.8241H177.769C177.944 97.8241 178.294 97.6492 178.294 97.2995C178.643 96.775 179.517 94.6769 180.914 93.1032C181.963 91.8793 183.36 90.4805 184.583 91.1799L189.126 93.8026L185.632 99.7474L180.565 113.735L182.312 114.085Z" fill="#001E20"/>
<path d="M175.492 102.372C175.492 102.372 177.763 102.197 178.113 102.372C178.462 102.372 183.529 104.47 183.529 104.47L184.228 106.218L181.782 113.212L183.179 113.562V116.359C183.179 116.534 183.005 116.534 183.005 116.534L177.938 113.737L171.473 108.666C171.473 108.666 167.105 105.869 170.25 99.749L175.492 102.372Z" fill="#FF513F"/>
<path d="M183.007 117.058C183.182 117.058 183.356 117.058 183.356 116.883C183.531 116.708 183.706 116.533 183.706 116.183V112.861L182.832 112.686L185.104 106.217L184.23 103.944L184.055 103.769C181.784 102.72 178.988 101.671 178.464 101.496C178.115 101.496 176.542 101.496 175.844 101.496L170.078 98.349L169.729 99.0484C166.234 105.518 171.126 108.84 171.126 108.84L177.591 113.91L182.658 116.708C182.658 117.058 182.832 117.058 183.007 117.058ZM182.483 114.085V115.309L178.29 113.036L172 107.966C171.825 107.791 168.331 105.518 170.777 100.622L175.669 103.245H175.844C176.892 103.245 178.115 103.07 178.464 103.245C178.814 103.245 181.434 104.469 183.356 105.343L183.881 106.567L181.26 113.91L182.483 114.085Z" fill="#001E20"/>
<path d="M181.96 99.3977L177.941 97.1247V96.9499C178.291 96.2505 179.164 94.3272 180.562 92.7535L185.804 95.7259L187.376 98.6983L186.852 99.7474L186.153 101.846L184.406 103.244L181.96 99.3977Z" fill="#FF513F"/>
<path d="M183.882 104.468L186.503 102.37L187.376 100.097L188.075 98.8731L186.328 95.3762L180.388 91.8793L180.038 92.4038C178.815 93.9774 177.767 95.9008 177.418 96.775C177.243 97.1247 177.418 97.2995 177.418 97.4744V97.8241L181.611 100.097L183.882 104.468ZM185.28 101.496L184.406 102.195L182.659 98.8731L178.815 96.775C179.165 96.0756 179.864 94.8517 180.737 93.6277L185.28 96.2504L186.328 98.6983L185.804 99.5725L185.28 101.496Z" fill="#001E20"/>
<path d="M175.669 101.846C178.814 96.7752 182.134 99.3979 182.833 99.9225C182.833 99.9225 183.007 99.9225 183.007 99.7476C183.706 98.3489 187.026 91.8795 190.171 93.2783C194.014 95.2016 189.297 103.594 189.297 103.594L183.007 116.008L182.833 116.183L176.368 111.113C176.543 111.287 171.826 108.315 175.669 101.846Z" fill="#FF513F"/>
<path d="M182.832 117.233H183.182C183.357 117.233 183.706 117.058 183.706 116.708L189.996 104.294C190.17 104.119 193.315 98.3494 192.267 95.0273C191.918 94.1531 191.393 93.4537 190.52 92.9291C189.472 92.4046 187.55 92.4046 185.104 95.2022C184.055 96.6009 183.182 97.9997 182.658 99.0488C181.959 98.5242 180.736 97.9997 179.338 98.1745C177.766 98.3494 176.368 99.5733 175.145 101.497C170.952 108.491 176.193 111.813 176.193 111.987L182.832 117.233ZM189.297 93.9782C189.472 93.9782 189.646 93.9782 189.996 94.1531C190.52 94.3279 190.869 94.8525 191.044 95.377C191.743 97.65 189.821 102.021 188.947 103.595L183.007 115.484L177.242 110.938C177.067 110.764 173.048 108.141 176.543 102.371C177.591 100.797 178.639 99.7482 179.862 99.5733C181.26 99.3985 182.483 100.273 182.658 100.622L182.832 100.797H183.182C183.357 100.797 183.706 100.622 183.706 100.273C184.055 99.7482 184.929 97.65 186.327 96.0764C187.2 95.0273 188.249 93.9782 189.297 93.9782Z" fill="#001E20"/>
<path d="M185.217 104.548L186.46 105.188L182.932 112.024L181.69 111.384L185.217 104.548Z" fill="#001E20"/>
<path d="M184.23 97.8247L178.989 94.8523L177.941 97.1253L183.007 99.9228L184.23 97.8247Z" fill="#001E20"/>
<path d="M175.492 110.763L172.871 109.714L169.901 107.441L169.028 104.993V102.545L169.377 101.671L174.094 104.294L173.92 106.217L174.444 108.49L175.492 110.763Z" fill="#001E20"/>
<path d="M113.307 112.118L110.686 111.069L107.716 108.796L106.842 106.348V103.9L107.192 103.026L111.909 105.649L111.734 107.572L112.258 109.845L113.307 112.118Z" fill="#001E20"/>
<path d="M280.674 78.3027C278.727 85.5488 272.819 87.0257 272.584 87.1882L272.994 88.6408C273.229 88.4784 280.018 86.7395 282.289 78.7489L280.674 78.3027Z" fill="black"/>
<path d="M131.469 67.5363C135.213 61.8439 139.164 64.7883 139.996 65.3771C139.996 65.3771 140.204 65.3771 140.204 65.1808C141.036 63.6105 144.987 56.3478 148.731 57.9182L154.97 61.0588V61.2551L150.602 68.3215L144.779 83.2394L146.443 83.8283V86.9689C146.443 87.1652 146.235 87.1652 146.235 87.1652L140.204 83.8283L132.509 78.1359C132.509 78.1359 126.894 74.799 131.469 67.5363Z" fill="white"/>
<path d="M146.238 87.9503C146.446 87.9503 146.654 87.9503 146.654 87.754C146.862 87.5577 147.07 87.3614 147.07 86.9688V83.2393L145.822 82.8467L151.229 68.7139L155.805 61.4512V61.0586C155.805 60.8623 155.597 60.666 155.389 60.4697L149.15 57.3291C147.694 56.7403 145.614 56.544 142.703 59.8809C141.455 61.4512 140.415 63.0215 139.791 64.1992C138.959 63.6104 137.504 63.0215 135.84 63.2178C133.968 63.4141 132.305 64.7881 130.849 66.9473C125.858 74.7989 132.097 78.5284 132.097 78.7247L139.791 84.4171L145.822 87.5577C146.03 87.754 146.03 87.9503 146.238 87.9503ZM145.614 84.4171V85.7911L140.623 83.2393L133.136 77.5469C132.928 77.3506 128.145 74.4063 132.305 67.9287C133.552 66.1621 134.8 64.9844 136.048 64.7881C137.712 64.5918 139.167 65.5733 139.375 65.9659L139.583 66.1621H139.999C140.207 66.1621 140.623 65.9658 140.623 65.5733C141.039 64.9844 142.079 62.6289 143.743 60.8623C144.99 59.4883 146.654 57.918 148.11 58.7031L153.517 61.6475L149.566 68.125L143.535 83.8282L145.614 84.4171Z" fill="#001E20"/>
<path d="M137.705 71.4647C137.705 71.4647 140.409 71.2684 140.825 71.4647C141.241 71.661 147.272 73.8202 147.272 73.8202L148.104 75.7831L145.192 83.6346L146.856 84.0272V87.1678C146.856 87.3641 146.648 87.3641 146.648 87.3641L140.617 84.2235L132.922 78.5311C132.922 78.5311 127.723 75.3905 131.466 68.5204L137.705 71.4647Z" fill="#FFC856"/>
<path d="M146.444 87.9505C146.652 87.9505 146.86 87.9505 146.86 87.7543C147.068 87.558 147.276 87.3617 147.276 86.9691V83.2396L146.028 82.847L148.731 75.5843L147.692 73.0326L147.484 72.8363C144.78 71.6586 141.453 70.4808 140.829 70.2845C140.413 70.2845 138.541 70.2845 137.709 70.2845L130.846 66.7513L130.43 67.5365C126.271 74.7992 132.094 78.5287 132.094 78.5287L139.789 84.221L145.82 87.3617C146.028 87.7543 146.236 87.9505 146.444 87.9505ZM145.82 84.4173V85.7914L140.829 83.2396L133.342 77.5472C133.134 77.3509 128.975 74.7992 131.886 69.3031L137.709 72.2474H137.917C139.165 72.2474 140.621 72.0511 141.037 72.2474C141.453 72.2474 144.572 73.6215 146.86 74.6029L147.484 75.9769L144.364 84.221L145.82 84.4173Z" fill="#001E20"/>
<path d="M145.195 68.1246L140.411 65.5729V65.3766C140.827 64.5914 141.867 62.4323 143.531 60.6656L149.77 64.0026L151.642 67.3395L151.018 68.5172L150.186 70.8727L148.106 72.443L145.195 68.1246Z" fill="#FFC856"/>
<path d="M147.485 73.6213L150.605 71.2658L151.645 68.714L152.477 67.34L150.397 63.4142L143.326 59.4884L142.91 60.0773C141.246 62.0402 139.999 64.1994 139.791 64.9845C139.583 65.1808 139.791 65.5734 139.791 65.7697V66.1623L144.782 68.714L147.485 73.6213ZM149.149 70.4806L148.109 71.2658L146.03 67.5363L141.454 65.1808C141.87 64.3956 142.702 63.0216 143.742 61.6476L149.149 64.5919L150.605 67.34L149.981 68.3214L149.149 70.4806Z" fill="#001E20"/>
<path d="M137.916 70.8742C141.659 65.1818 145.61 68.1262 146.442 68.715C146.442 68.715 146.65 68.715 146.65 68.5187C147.482 66.9484 151.433 59.6857 155.177 61.256C159.752 63.4152 154.137 72.8371 154.137 72.8371L146.65 86.7736C146.65 86.9698 146.442 86.9698 146.442 86.9698L138.747 81.2775C138.747 81.4738 133.132 78.1369 137.916 70.8742Z" fill="white"/>
<path d="M146.236 87.9515H146.652C146.859 87.9515 147.275 87.7552 147.275 87.3626L154.762 73.4261C154.97 73.2298 158.713 66.7523 157.466 63.0228C157.05 62.0414 156.426 61.2562 155.386 60.6673C154.138 60.0785 151.851 60.0785 148.939 63.2191C147.691 64.7894 146.651 66.3597 146.028 67.5374C145.196 66.9486 143.74 66.3597 142.076 66.556C140.205 66.7523 138.541 68.1263 137.085 70.2855C132.094 78.137 138.333 81.8665 138.333 82.0628L146.236 87.9515ZM153.93 62.0414C154.138 62.0414 154.346 62.0414 154.762 62.2377C155.386 62.4339 155.802 63.0228 156.01 63.6117C156.842 66.1634 154.554 71.0706 153.514 72.8372L146.444 86.1849L139.581 81.0814C139.373 80.8851 134.59 77.9407 138.749 71.4632C139.997 69.6966 141.244 68.5189 142.7 68.3226C144.364 68.1263 145.82 69.1077 146.028 69.5003L146.236 69.6966H146.652C146.859 69.6966 147.275 69.5003 147.275 69.1078C147.691 68.5189 148.731 66.1634 150.395 64.3968C151.435 63.2191 152.683 62.0414 153.93 62.0414Z" fill="#001E20"/>
<path d="M149.244 73.9728L150.723 74.6919L146.524 82.3658L145.045 81.6467L149.244 73.9728Z" fill="#001E20"/>
<path d="M147.899 66.1621L141.66 63.0215L140.413 65.5732L146.652 68.7138L147.899 66.1621Z" fill="#001E20"/>
<path d="M137.499 80.8853L134.38 79.5112L131.052 77.1558L130.012 74.4077L129.804 71.6597L130.22 70.6782L136.043 73.6226L135.627 75.7817L136.459 78.3335L137.499 80.8853Z" fill="#001E20"/>
<path d="M126.686 72.6391C127.518 65.1801 133.133 62.8246 133.341 62.6283L132.717 61.2543C132.509 61.4506 126.062 64.1986 125.022 72.4428L126.686 72.6391Z" fill="#001E20"/>
<path d="M221.003 23.1442C227.087 19.9536 234.325 22.3237 234.609 22.3549L234.61 20.9602C235.874 20.9603 226.592 17.8 219.651 22.3566L221.003 23.1442Z" fill="#001E20"/>
</svg>
