<svg width="360" height="304" viewBox="0 0 360 304" fill="none" xmlns="http://www.w3.org/2000/svg">
<rect width="360" height="304" fill="#FF513F"/>
<g style="mix-blend-mode:screen" opacity="0.3">
<path d="M0 0L360 37.5L0 64.5L360 304L108.5 242.5L0 0Z" fill="#FF513F"/>
</g>
<path d="M251.975 97.6797L243.563 102.073L207.84 36.2019L216.007 31.8739C216.202 31.7413 216.007 31.8739 216.241 31.7873C217.523 31.2791 219.255 31.5221 221.127 32.6177L249.279 49.1428C253.033 51.3547 255.938 56.1936 255.769 59.9714L254.213 94.0157C254.118 95.9105 253.274 97.1759 251.975 97.6797Z" fill="#FFC856"/>
<path d="M251.975 97.6797L243.563 102.073L207.84 36.2019L216.007 31.8739C216.202 31.7413 216.007 31.8739 216.241 31.7873C217.523 31.2791 219.255 31.5221 221.127 32.6177L249.279 49.1428C253.033 51.3547 255.938 56.1936 255.769 59.9714L254.213 94.0157C254.129 95.9046 253.285 97.1701 251.975 97.6797Z" fill="#FFC856"/>
<path d="M254.751 54.2948C255.771 56.1757 256.351 58.2017 256.275 59.978L254.72 94.0223C254.626 96.0238 253.698 97.5231 252.187 98.1283L244.047 102.455L207.162 36.0178L215.79 31.4529C215.86 31.4013 215.952 31.3379 216.1 31.325C217.616 30.7569 219.487 31.073 221.402 32.1983L249.554 48.7234C251.674 49.9665 253.528 52.0399 254.751 54.2948ZM243.784 101.4L251.806 97.2187C252.953 96.7707 253.635 95.6203 253.702 94.0099L255.258 59.9656C255.419 56.3537 252.615 51.7019 249.004 49.5735L220.853 33.0484C219.185 32.0706 217.611 31.7822 216.415 32.2433C216.366 32.2565 216.323 32.28 216.274 32.2932L216.241 32.3109L208.529 36.3915L243.784 101.4Z" fill="#16110D"/>
<path d="M246.03 98.3379L247.585 64.2944C247.76 60.5271 244.849 55.6778 241.095 53.466L212.944 36.9414C209.19 34.7296 206.006 36.0017 205.82 39.7749L204.264 73.8185C204.09 77.5858 207 82.435 210.754 84.6468L238.905 101.171C242.67 103.377 245.855 102.105 246.03 98.3379Z" fill="#FFC856"/>
<path d="M249.271 96.9127L250.049 79.8909L250.826 62.8691C251.001 59.1018 248.091 54.2526 244.336 52.0408L216.186 35.5162C212.431 33.3044 209.247 34.5765 209.061 38.3497L207.506 72.3932C207.331 76.1605 210.241 81.0098 213.996 83.2215L242.146 99.7462C245.911 101.952 249.096 100.68 249.271 96.9127Z" fill="#FFEECC"/>
<path d="M246.576 58.6004C247.596 60.4812 248.175 62.5072 248.1 64.2835L246.544 98.327C246.464 100.146 245.704 101.541 244.403 102.248C242.874 103.078 240.775 102.832 238.639 101.585L210.488 85.0599C206.596 82.775 203.579 77.7284 203.767 73.8055L205.323 39.762C205.414 37.9369 206.163 36.5482 207.464 35.8415C208.993 35.0111 211.092 35.2569 213.228 36.5045L241.379 53.0291C243.488 54.2781 245.353 56.3455 246.576 58.6004ZM206.169 79.0116C207.308 81.1106 209.045 83.0457 211.038 84.2098L239.189 100.734C241.005 101.806 242.732 102.039 243.935 101.385C244.889 100.867 245.463 99.7753 245.527 98.3146L247.082 64.2711C247.243 60.6593 244.434 55.9971 240.829 53.8792L212.678 37.3545C210.862 36.2829 209.13 36.0399 207.926 36.6936C206.972 37.2118 206.399 38.3033 206.335 39.764L204.779 73.8076C204.712 75.4446 205.234 77.2866 206.169 79.0116Z" fill="#16110D"/>
<path d="M211.154 35.3928L211.031 35.3213L210.889 35.3416L210.066 35.46L216.866 31.7672L219.312 32.1832L246.233 47.6303L251.206 51.1552L253.603 54.2575L246.219 58.268L243.695 54.9262L243.647 54.8629L243.579 54.8218L216.951 38.7489L216.951 38.7488L216.945 38.745L211.154 35.3928Z" fill="#FFF6EF" stroke="black" stroke-width="0.824314"/>
<path d="M247.564 63.0166L255.717 58.5886L255.884 62.1831L247.741 66.6052L247.564 63.0166Z" fill="#16110D"/>
<path d="M246.15 98.8688L253.881 94.6707L253.611 96.2696L248.76 99.9533L244.112 101.993L246.15 98.8688Z" fill="#16110D"/>
<path d="M229.265 69.5721L217.161 62.6805C217.055 65.9798 217.927 69.8648 219.864 73.6956C224.083 82.0713 231.71 87.0227 236.907 84.7515C242.099 82.4699 242.89 73.8345 238.682 65.453C236.05 60.2107 232.072 56.3179 228.201 54.694L229.265 69.5721Z" fill="#FFC856"/>
<path d="M236.171 65.8211C236.312 66.0809 236.453 66.3407 236.583 66.6063C239.362 72.1188 240.098 78.1088 238.517 82.209C237.714 84.2998 236.338 85.8271 234.546 86.6121C229.115 88.9966 221.154 83.9448 216.838 75.3392C214.946 71.5915 213.974 67.5995 214.093 64.0913L214.123 63.2143L226.127 70.0521L225.071 55.2911L225.869 55.6243C229.767 57.2468 233.579 61.0412 236.171 65.8211ZM218.166 75.6135C222.324 83.2821 229.358 87.7618 234.137 85.6773C235.658 85.0128 236.84 83.6982 237.538 81.8797C239.03 78.0295 238.3 72.3597 235.645 67.0758C233.329 62.4687 229.845 58.7377 226.218 56.9145L227.294 71.8934L215.113 64.9631C215.18 68.0881 216.11 71.5644 217.765 74.849C217.89 75.1043 218.031 75.3641 218.166 75.6135Z" fill="#16110D"/>
<path d="M212.969 55.8613L225.072 62.7528L224.003 47.8645C221.674 46.883 219.385 46.727 217.436 47.584C214.612 48.8218 213.097 51.931 212.969 55.8613Z" fill="#FFC856"/>
<path d="M221.943 48.9043L223.104 65.0745L209.88 57.5406L209.892 57.2517C210.026 52.9687 211.774 49.773 214.679 48.5043C216.711 47.6164 219.124 47.7181 221.668 48.7848L221.943 48.9043ZM221.926 63.2125L220.948 49.6061C218.774 48.7555 216.761 48.6923 215.083 49.4288C212.633 50.5034 211.14 53.2378 210.954 56.9576L221.926 63.2125Z" fill="#16110D"/>
<path d="M207.815 98.3811C201.141 94.4906 190.347 94.4906 183.674 98.3811C177 102.272 177 108.543 183.732 112.375C190.463 116.266 201.257 116.266 207.931 112.375C214.604 108.543 214.546 102.272 207.815 98.3811ZM204.971 110.691C199.922 113.653 191.74 113.653 186.691 110.691C181.643 107.788 181.585 103.026 186.633 100.123C191.682 97.2198 199.806 97.2198 204.855 100.123C209.962 103.026 210.02 107.788 204.971 110.691Z" fill="black"/>
<path d="M207.815 96.5232C201.141 92.6327 190.347 92.6327 183.674 96.5232C177 100.414 177 106.685 183.732 110.517C190.463 114.408 201.257 114.408 207.931 110.517C214.604 106.685 214.546 100.414 207.815 96.5232ZM204.971 108.833C199.922 111.795 191.74 111.795 186.691 108.833C181.643 105.93 181.585 101.169 186.633 98.2652C191.682 95.3619 199.806 95.3619 204.855 98.2652C209.962 101.169 210.02 105.872 204.971 108.833Z" fill="black"/>
<path d="M212.92 102.271H210.657V105.755H212.92V102.271Z" fill="black"/>
<path d="M180.946 102.271H178.683V105.755H180.946V102.271Z" fill="black"/>
<path d="M207.815 95.0714C201.141 91.1809 190.347 91.1809 183.674 95.0714C177 98.9619 177 105.233 183.732 109.066C190.463 112.956 201.257 112.956 207.931 109.066C214.604 105.175 214.546 98.9619 207.815 95.0714ZM205.319 107.556C200.096 110.575 191.624 110.575 186.343 107.556C181.12 104.536 181.062 99.6006 186.285 96.5812C191.508 93.5617 199.98 93.5617 205.203 96.5812C210.484 99.6006 210.542 104.536 205.319 107.556Z" fill="#FDF9E7"/>
<path opacity="0.46" d="M205.262 98.2067C200.039 95.1873 191.566 95.1873 186.344 98.2067C184.081 99.5423 182.804 101.168 182.514 102.852C182.804 104.536 184.139 106.22 186.402 107.555C191.683 110.575 200.155 110.575 205.378 107.555C207.641 106.278 208.86 104.594 209.208 102.91C208.802 101.168 207.525 99.5423 205.262 98.2067Z" fill="#DEDED7"/>
<g opacity="0.36">
<g opacity="0.36">
<g opacity="0.36">
<path opacity="0.36" d="M193.081 83.5161L187.835 84.5092L195.773 126.445L201.019 125.452L193.081 83.5161Z" fill="white"/>
</g>
<g opacity="0.36">
<path opacity="0.36" d="M196.58 79.2968L193.501 79.8796L201.439 121.815L204.518 121.232L196.58 79.2968Z" fill="white"/>
</g>
</g>
</g>
<path d="M218.55 113.362L210.658 108.833C210.484 108.717 210.252 108.775 210.02 108.891C209.556 109.182 209.149 109.878 209.149 110.459C209.149 110.691 209.265 110.924 209.382 110.982C209.382 110.982 209.382 110.982 209.44 110.982L217.332 115.511L218.666 113.42C218.608 113.42 218.608 113.362 218.55 113.362Z" fill="#043C5D"/>
<path d="M233.929 120.737L216.288 110.575C215.939 110.401 215.417 110.401 214.895 110.75C213.792 111.388 212.922 112.956 212.922 114.176C212.922 114.756 213.096 115.163 213.444 115.395L213.502 115.453L213.56 115.511L231.144 125.673C231.144 125.673 231.144 125.673 231.202 125.673L234.219 120.969C234.103 120.795 233.987 120.737 233.929 120.737Z" fill="#011D1F"/>
<path d="M232.594 120.853C231.491 121.492 230.562 123.06 230.562 124.337C230.562 125.615 231.491 126.137 232.594 125.499C233.696 124.86 234.625 123.292 234.625 122.015C234.567 120.679 233.696 120.156 232.594 120.853Z" fill="#FF513F"/>
<path d="M214.895 116.15C214.953 116.208 215.011 116.208 215.011 116.266L214.953 116.208C214.953 116.15 214.953 116.15 214.895 116.15Z" fill="#FF513F"/>
<path d="M185.029 20.6451V70.3435L101.804 112.707L109.488 95.6796L118.492 95.7862L138.689 55.9179L149.881 66.6458L160.055 51.2615L167.054 57.1657L185.029 20.6451Z" fill="#007550"/>
<path d="M101.803 112.706L93.7676 108.689L101.452 91.6615L109.487 95.6788L101.803 112.706Z" fill="#007550"/>
<path d="M101.033 112.951L95.5039 110.029L103.205 93.0015L111.24 97.0187L104.692 111.475L101.033 112.951Z" fill="#FFEECC"/>
<path d="M110.458 91.7528L118.493 95.7853L109.489 95.6787L101.454 91.6615L110.458 91.7528Z" fill="#007550"/>
<path d="M112.36 93.0623L120.563 97.1405L111.241 97.0187L103.373 93.0015L112.36 93.0623Z" fill="#FFEECC"/>
<path d="M130.654 51.901L138.689 55.9183L118.492 95.7865L110.457 91.754L130.654 51.901Z" fill="#007550"/>
<path d="M132.742 53.2545L140.777 57.287L120.564 97.14L112.528 93.1075L132.742 53.2545Z" fill="#FFEECC"/>
<path d="M152.02 47.2285L160.055 51.261L149.882 66.6453L143.166 60.2085L152.02 47.2285Z" fill="#007550"/>
<path d="M153.757 48.6138L161.792 52.631L151.619 68.0153L144.903 61.5786L153.757 48.6138Z" fill="#FFEECC"/>
<path d="M176.993 16.6278L185.028 20.6451L167.053 57.1656L160.054 51.2614L176.993 16.6278Z" fill="#007550"/>
<path d="M178.747 17.9819L185.028 21.1318V25.4686L168.791 58.5197L161.791 52.6156L178.747 17.9819Z" fill="#FFEECC"/>
<path d="M185.63 20.7667V20.3406L184.728 19.8993L176.693 15.8668L159.754 50.5005L151.786 46.5136L143.049 59.311L139.407 55.8111L139.073 55.4916L138.405 55.1568L130.37 51.1243L110.056 91.2056L101.62 91.1143H101.052L100.701 91.8904L93 108.918L101.035 112.951L101.804 113.331L102.288 113.088L185.647 70.6628V20.7667H185.63ZM177.278 17.3885L184.244 20.8884L166.837 56.2524L160.807 51.17L160.873 51.0635L160.807 51.033L177.278 17.3885ZM143.918 60.1327L152.237 47.9592L159.22 51.4591L149.764 65.7478L143.918 60.1327ZM130.938 52.646L137.92 56.1459L129.902 71.9563L118.208 95.0251L115.569 93.7012L111.225 91.5252L130.938 52.646ZM103.808 92.2099L110.29 92.286L113.698 93.9903L116.137 95.2229L113.013 95.1924L109.655 95.162L104.877 92.7577L103.808 92.2099ZM101.77 92.423L103.541 93.3055L108.736 95.9076L101.486 111.931L94.5202 108.431L101.77 92.423ZM103.006 111.475L109.906 96.2272L118.325 96.3185H118.876L119.261 95.5577L130.67 73.0367L138.856 56.8763L142.397 60.2697L149.982 67.5434L160.172 52.1287L167.255 58.0937L184.411 23.247V70.0542L103.006 111.475Z" fill="#16110D"/>
<path d="M173.357 114.654L173.368 114.537L173.352 108.652L170.549 108.741C169.616 107.788 168.485 106.882 167.087 106.07C158.652 101.117 144.926 101.026 136.436 105.873C135.031 106.669 133.881 107.558 132.942 108.504L130.069 108.489L130.026 114.269C129.802 117.625 131.905 121.023 136.309 123.609C144.744 128.563 158.47 128.654 166.96 123.807C171.42 121.278 173.54 118.009 173.357 114.654Z" fill="#FFC856"/>
<path d="M170.781 108.182C169.813 107.217 168.659 106.346 167.377 105.592C158.803 100.557 144.797 100.467 136.168 105.384C134.867 106.122 133.706 106.987 132.72 107.934L129.521 107.908L129.48 114.212C129.233 117.884 131.628 121.49 136.043 124.077C144.618 129.111 158.623 129.202 167.253 124.284C169.483 123.02 171.189 121.535 172.313 119.912C173.448 118.278 174.002 116.505 173.915 114.664L173.909 108.068L170.781 108.182ZM130.596 114.256L130.629 109.035L133.176 109.051L133.339 108.888C134.29 107.941 135.428 107.088 136.717 106.35C145.045 101.608 158.55 101.7 166.81 106.549C167.008 106.665 167.194 106.781 167.381 106.909L153.55 115.686L152.801 126.782C150.451 126.846 148.089 126.678 145.808 126.299L146.294 120.728L141.836 119.726L141.35 125.204C139.651 124.65 138.044 123.955 136.599 123.108C132.568 120.753 130.372 117.531 130.596 114.256Z" fill="#16110D"/>
<path d="M167.141 99.8592C175.576 104.813 175.528 112.749 167.026 117.596C158.524 122.431 144.798 122.34 136.375 117.398C127.94 112.445 127.988 104.509 136.49 99.6616C144.98 94.8144 158.706 94.9058 167.141 99.8592Z" fill="#FFC856"/>
<path d="M172.332 113.713C171.196 115.336 169.502 116.821 167.295 118.085C158.654 123.003 144.66 122.912 136.085 117.877C131.833 115.372 129.498 112.045 129.523 108.479C129.548 104.925 131.924 101.62 136.21 99.1735C144.851 94.2559 158.845 94.3466 167.419 99.3812C171.672 101.875 174.007 105.213 173.982 108.779C173.975 110.504 173.409 112.172 172.332 113.713ZM132.082 104.172C131.132 105.526 130.636 106.984 130.628 108.476C130.602 111.623 132.738 114.612 136.641 116.897C144.913 121.746 158.406 121.838 166.734 117.096C170.66 114.86 172.839 111.894 172.865 108.759C172.892 105.613 170.755 102.624 166.852 100.338C158.592 95.4893 145.087 95.3973 136.759 100.139C134.703 101.31 133.125 102.689 132.082 104.172Z" fill="#16110D"/>
<path d="M168.897 109.017C168.93 104.081 162.035 100.034 153.497 99.9773C144.959 99.921 138.011 103.877 137.979 108.814C137.946 113.75 144.841 117.798 153.379 117.854C161.917 117.91 168.865 113.954 168.897 109.017Z" fill="#FFEECC"/>
<path d="M166.637 111.374C165.814 112.553 164.584 113.628 162.993 114.53C156.791 118.066 146.741 117.999 140.577 114.38C137.49 112.57 135.797 110.139 135.813 107.541C135.83 104.942 137.556 102.537 140.669 100.769C146.871 97.2328 156.921 97.2991 163.085 100.918C166.172 102.728 167.865 105.159 167.849 107.758C167.84 109.028 167.425 110.241 166.637 111.374ZM137.946 104.575C137.285 105.521 136.939 106.524 136.942 107.561C136.924 109.74 138.419 111.822 141.157 113.423C147.005 116.857 156.555 116.924 162.455 113.564C165.208 111.995 166.726 109.928 166.744 107.749C166.761 105.57 165.267 103.488 162.529 101.887C156.68 98.4534 147.13 98.3858 141.23 101.746C139.778 102.566 138.664 103.524 137.946 104.575Z" fill="#16110D"/>
<path d="M158.357 103.321C161.887 105.397 161.861 108.719 158.307 110.744C154.753 112.77 149.007 112.727 145.477 110.662C141.946 108.586 141.972 105.264 145.527 103.239C149.081 101.213 154.827 101.256 158.357 103.321Z" fill="#FFC856"/>
<path d="M160.792 109.304C160.294 110.028 159.539 110.682 158.575 111.233C154.87 113.34 148.868 113.298 145.187 111.14C143.299 110.038 142.272 108.538 142.279 106.93C142.286 105.321 143.341 103.839 145.246 102.75C148.951 100.642 154.953 100.673 158.634 102.842C160.522 103.944 161.549 105.445 161.542 107.053C161.533 107.845 161.279 108.615 160.792 109.304ZM143.95 105.317C143.591 105.831 143.406 106.379 143.396 106.938C143.387 108.127 144.228 109.278 145.754 110.183C149.121 112.167 154.635 112.199 158.026 110.267C159.571 109.389 160.417 108.244 160.425 107.056C160.434 105.867 159.593 104.704 158.067 103.811C154.7 101.827 149.186 101.795 145.795 103.727C144.982 104.196 144.355 104.733 143.95 105.317Z" fill="#16110D"/>
<path d="M156.038 106.659C157.32 107.413 157.311 108.614 156.022 109.339C154.733 110.077 152.662 110.059 151.381 109.305C150.099 108.551 150.108 107.351 151.397 106.625C152.686 105.899 154.757 105.917 156.038 106.659Z" fill="#FFEECC"/>
<path d="M155.611 107.756C155.403 108.059 155.089 108.328 154.694 108.562C153.231 109.393 150.951 109.376 149.495 108.529C148.702 108.065 148.259 107.414 148.268 106.691C148.278 105.981 148.718 105.327 149.52 104.87C150.983 104.039 153.263 104.056 154.719 104.903C155.512 105.367 155.955 106.018 155.946 106.741C155.935 107.102 155.82 107.452 155.611 107.756ZM149.512 106.315C149.419 106.444 149.373 106.572 149.373 106.7C149.374 106.991 149.619 107.305 150.05 107.561C151.157 108.21 153.018 108.217 154.133 107.585C154.575 107.339 154.818 107.024 154.817 106.732C154.817 106.441 154.572 106.127 154.14 105.872C153.034 105.222 151.173 105.215 150.058 105.848C149.814 105.988 149.628 106.152 149.512 106.315Z" fill="#16110D"/>
<path d="M125.572 74.9167L140.755 99.2302L142.205 98.3217L127.022 74.0082L125.572 74.9167Z" fill="#FFEECC"/>
<path d="M142.978 98.5022L140.585 100L124.815 74.7431L127.207 73.245L142.978 98.5022ZM140.744 98.4616L141.592 98.0981L127.001 74.7372L126.153 75.1008L140.744 98.4616Z" fill="black"/>
<path d="M145.657 104.496L143.934 95.3181L141.466 98.7858L137.303 99.4728L144.751 105.058C145.171 105.372 145.763 105.009 145.657 104.496Z" fill="#FFC856"/>
<path d="M143.61 100.388L139.447 101.075L145.077 105.302C145.274 105.185 145.739 104.951 145.692 104.683L144.722 98.8353L143.61 100.388Z" fill="#FFEECC"/>
<path d="M146.227 104.717C146.193 105.066 146.008 105.381 145.695 105.569C145.3 105.814 144.8 105.792 144.415 105.514L135.918 99.1389L141.139 98.2859L144.233 93.9425L146.203 104.402C146.227 104.507 146.239 104.612 146.227 104.717ZM138.688 99.819L145.087 104.626L145.111 104.615L143.624 96.7293L141.781 99.3213L138.688 99.819Z" fill="black"/>
<path d="M120.598 72.7145L124.278 78.6129L130.744 82.4645C131.128 82.6965 131.605 82.3923 131.557 81.9496L130.897 74.4699L127.217 68.5715L126.104 74.1564L120.598 72.7145Z" fill="#FFC856"/>
<path d="M131.108 74.9126L128.9 71.3642L128.131 75.2119L123.056 73.897L126.735 79.7954L131.582 82.8123C131.699 82.7071 131.78 82.567 131.767 82.3806L131.108 74.9126Z" fill="#FFEECC"/>
<path d="M125.671 73.4587L119.374 71.8091L123.872 79.0105L130.454 82.92C130.815 83.1288 131.246 83.1277 131.606 82.9053C131.896 82.7181 132.081 82.4146 132.115 82.0766C132.127 82.0066 132.127 81.9483 132.115 81.8784L131.443 74.259L126.945 67.0576L125.671 73.4587ZM130.362 74.6348L131.033 81.9746L124.684 78.1926L123.994 77.0874L127.696 78.0913L127.984 77.0184L123.118 75.7029L121.81 73.5972L126.536 74.8315L127.5 70.0393L130.362 74.6348Z" fill="black"/>
</svg>
