<svg width="360" height="304" viewBox="0 0 360 304" fill="none" xmlns="http://www.w3.org/2000/svg">
<rect width="360" height="304" fill="#FF513F"/>
<g style="mix-blend-mode:screen" opacity="0.3">
<path d="M0 0L360 37.5L0 64.5L360 304L108.5 242.5L0 0Z" fill="#FF513F"/>
</g>
<path d="M145.156 124.283C147.61 120.558 150.199 122.485 150.744 122.87C150.744 122.87 150.881 122.87 150.881 122.742C151.426 121.714 154.016 116.961 156.469 117.989L160.558 120.044V120.173L157.695 124.797L153.879 134.561L154.97 134.946V137.002C154.97 137.13 154.833 137.13 154.833 137.13L150.881 134.946L145.838 131.221C145.838 131.221 142.158 129.037 145.156 124.283Z" fill="white"/>
<path d="M154.835 137.644C154.971 137.644 155.107 137.644 155.107 137.515C155.243 137.387 155.38 137.258 155.38 137.002V134.561L154.562 134.304L158.106 125.054L161.104 120.301V120.044C161.104 119.916 160.968 119.787 160.831 119.659L156.743 117.603C155.789 117.218 154.426 117.089 152.518 119.273C151.7 120.301 151.018 121.329 150.609 122.099C150.064 121.714 149.11 121.329 148.02 121.457C146.793 121.586 145.703 122.485 144.749 123.898C141.478 129.037 145.567 131.477 145.567 131.606L150.609 135.331L154.562 137.387C154.698 137.515 154.698 137.644 154.835 137.644ZM154.426 135.331V136.231L151.155 134.561L146.248 130.835C146.112 130.707 142.977 128.78 145.703 124.54C146.521 123.384 147.338 122.613 148.156 122.485C149.247 122.356 150.201 122.999 150.337 123.256L150.473 123.384H150.746C150.882 123.384 151.155 123.256 151.155 122.999C151.427 122.613 152.109 121.072 153.199 119.916C154.017 119.016 155.107 117.989 156.061 118.502L159.605 120.429L157.015 124.669L153.063 134.946L154.426 135.331Z" fill="#001E20"/>
<path d="M149.244 126.854C149.244 126.854 151.016 126.725 151.289 126.854C151.561 126.982 155.514 128.395 155.514 128.395L156.059 129.68L154.151 134.819L155.241 135.076V137.131C155.241 137.26 155.105 137.26 155.105 137.26L151.153 135.204L146.11 131.479C146.11 131.479 142.702 129.423 145.156 124.927L149.244 126.854Z" fill="#FFC856"/>
<path d="M154.971 137.644C155.107 137.644 155.243 137.644 155.243 137.516C155.379 137.387 155.516 137.259 155.516 137.002V134.561L154.698 134.304L156.47 129.551L155.788 127.881L155.652 127.752C153.88 126.981 151.699 126.211 151.291 126.082C151.018 126.082 149.791 126.082 149.246 126.082L144.749 123.77L144.476 124.284C141.75 129.037 145.566 131.478 145.566 131.478L150.609 135.203L154.562 137.259C154.698 137.516 154.834 137.644 154.971 137.644ZM154.562 135.332V136.231L151.291 134.561L146.384 130.835C146.248 130.707 143.522 129.037 145.43 125.44L149.246 127.367H149.383C150.2 127.367 151.154 127.238 151.427 127.367C151.699 127.367 153.744 128.266 155.243 128.908L155.652 129.808L153.608 135.203L154.562 135.332Z" fill="#001E20"/>
<path d="M154.152 124.668L151.018 122.998V122.87C151.29 122.356 151.972 120.943 153.062 119.786L157.151 121.97L158.377 124.154L157.969 124.925L157.423 126.467L156.06 127.494L154.152 124.668Z" fill="#FFC856"/>
<path d="M155.653 128.266L157.697 126.724L158.379 125.054L158.924 124.155L157.561 121.586L152.927 119.016L152.654 119.402C151.564 120.686 150.746 122.099 150.61 122.613C150.474 122.742 150.61 122.999 150.61 123.127V123.384L153.881 125.054L155.653 128.266ZM156.743 126.21L156.062 126.724L154.699 124.283L151.7 122.742C151.973 122.228 152.518 121.329 153.2 120.429L156.743 122.356L157.697 124.155L157.288 124.797L156.743 126.21Z" fill="#001E20"/>
<path d="M149.381 126.468C151.834 122.743 154.424 124.67 154.969 125.055C154.969 125.055 155.105 125.055 155.105 124.927C155.65 123.899 158.24 119.146 160.693 120.173C163.692 121.586 160.012 127.753 160.012 127.753L155.105 136.874C155.105 137.002 154.969 137.002 154.969 137.002L149.926 133.277C149.926 133.405 146.246 131.221 149.381 126.468Z" fill="white"/>
<path d="M154.834 137.645H155.107C155.243 137.645 155.516 137.516 155.516 137.259L160.422 128.138C160.558 128.01 163.012 123.77 162.194 121.33C161.921 120.687 161.512 120.173 160.831 119.788C160.013 119.403 158.514 119.403 156.606 121.458C155.788 122.486 155.107 123.514 154.698 124.284C154.153 123.899 153.199 123.514 152.108 123.642C150.882 123.77 149.791 124.67 148.837 126.083C145.566 131.221 149.655 133.662 149.655 133.791L154.834 137.645ZM159.877 120.687C160.013 120.687 160.149 120.687 160.422 120.816C160.831 120.944 161.104 121.33 161.24 121.715C161.785 123.385 160.286 126.597 159.604 127.753L154.97 136.489L150.473 133.148C150.336 133.02 147.202 131.093 149.928 126.854C150.745 125.697 151.563 124.927 152.517 124.798C153.607 124.67 154.561 125.312 154.698 125.569L154.834 125.697H155.107C155.243 125.697 155.516 125.569 155.516 125.312C155.788 124.927 156.47 123.385 157.56 122.229C158.241 121.458 159.059 120.687 159.877 120.687Z" fill="#001E20"/>
<path d="M156.805 128.495L157.774 128.966L155.025 133.99L154.056 133.519L156.805 128.495Z" fill="#001E20"/>
<path d="M155.924 123.384L151.835 121.329L151.018 122.999L155.107 125.054L155.924 123.384Z" fill="#001E20"/>
<path d="M149.109 133.02L147.065 132.12L144.884 130.579L144.202 128.78L144.066 126.982L144.339 126.339L148.155 128.266L147.882 129.68L148.427 131.35L149.109 133.02Z" fill="#001E20"/>
<path d="M142.021 127.623C142.566 122.742 146.246 121.2 146.382 121.071L145.973 120.172C145.837 120.301 141.612 122.099 140.931 127.495L142.021 127.623Z" fill="#001E20"/>
<path d="M223.12 57.3514L218.569 54.6989L223.12 54.5428L223.696 55.0109L224.1 56.4152L223.12 57.3514Z" fill="#150035"/>
<path d="M223.177 57.8191L223.466 57.5591L224.56 56.4668L224.502 56.2588L224.042 54.6985L223.926 54.6465L223.235 54.0743H223.005L218.223 54.2304L218.05 54.7505L218.338 54.9065L223.177 57.8191ZM223.638 56.2588L223.062 56.8309L219.894 54.9585L223.005 54.8545L223.35 55.1146L223.638 56.2588Z" fill="#150035"/>
<path d="M215.456 34.1539L229.628 26.7684C230.434 26.3523 231.183 26.3003 231.702 26.5603L236.31 29.1609C236.31 29.1609 236.368 29.2129 236.31 29.2129C236.08 29.577 234.179 33.2177 234.006 33.8939C233.948 34.1539 233.315 36.9625 232.623 40.1872V41.7995C232.623 42.6837 232.278 43.7239 231.644 44.6081C230.895 47.9888 230.319 50.8494 230.261 50.9534L223.752 52.9298H223.291C223.291 52.9298 223.233 52.8778 223.291 52.8778L223.636 51.9416C223.752 51.5255 223.809 51.0054 223.809 50.5373L217.703 56.6746H217.645L213.152 54.1781C213.152 54.1781 213.094 54.1781 213.094 54.1261C212.576 53.814 212.23 53.2419 212.23 52.3577V38.9389C212.403 37.2225 213.785 35.0381 215.456 34.1539Z" fill="#FFC856"/>
<path d="M217.819 57.0391C217.934 57.0391 218.107 56.9871 218.164 56.8831L223.407 51.63C223.407 51.682 223.407 51.734 223.349 51.838L223.004 52.7222C222.946 52.9303 223.004 53.1383 223.234 53.2423L223.349 53.2943H223.983L230.781 51.2139L230.838 51.0059C230.838 50.9538 231.472 48.0933 232.163 44.7126C232.797 43.7243 233.143 42.6841 233.143 41.7479V40.1356C233.488 38.6273 234.41 34.2584 234.525 33.8943C234.64 33.3742 236.081 30.6696 236.772 29.2653C236.887 29.0573 236.772 28.8492 236.599 28.7452L231.99 26.1967C231.242 25.8846 230.377 25.9366 229.456 26.4047L215.284 33.7903C213.441 34.7265 212 37.067 212 38.9394V52.3061C212 53.2423 212.346 54.0225 213.037 54.3866L217.588 56.9351C217.646 57.0391 217.704 57.0391 217.819 57.0391ZM224.444 49.4975L217.761 56.2069L213.498 53.8145C213.095 53.5544 212.865 53.0343 212.865 52.3581V38.9914C212.865 37.379 214.189 35.2986 215.745 34.4664L229.917 27.0809C230.55 26.7168 231.184 26.6648 231.587 26.8728L235.908 29.2653C235.332 30.3055 233.892 33.1141 233.719 33.7383C233.661 33.9983 233.2 35.9747 232.336 40.0316V40.0836V41.6959C232.336 42.4761 231.99 43.4643 231.472 44.2965L231.414 44.4525C230.781 47.3131 230.262 49.8616 230.089 50.5898L224.041 52.4102L224.213 51.9421C224.329 51.474 224.386 50.9538 224.444 50.4858V49.4975Z" fill="#150035"/>
<path d="M215.514 34.154L228.937 27.1326L235.619 30.9294L221.217 37.7948L218.221 38.2109L213.613 35.7664C214.131 35.0902 214.823 34.5181 215.514 34.154Z" fill="white"/>
<path d="M218.166 38.6278L221.45 38.1597L236.485 30.9822L228.996 26.7173L215.343 33.8428C214.652 34.2068 213.96 34.831 213.384 35.5591L213.154 35.8712L218.166 38.6278ZM221.104 37.4315L218.339 37.8476L214.249 35.6631C214.709 35.143 215.17 34.779 215.689 34.5189L228.939 27.6015L234.815 30.9302L221.104 37.4315Z" fill="#150035"/>
<path d="M212.54 39.0501L217.13 41.5441L216.684 42.2125L212.094 39.7186L212.54 39.0501Z" fill="#150035"/>
<path d="M212.666 48.6653L217.257 51.1593L216.811 51.8277L212.221 49.3338L212.666 48.6653Z" fill="#150035"/>
<path d="M234.18 29.3171L220.008 36.7026C218.337 37.5868 216.955 39.7192 216.955 41.4876V54.9064C216.955 56.6748 218.337 57.4029 220.008 56.5187L221.621 55.6866C221.909 55.5305 222.14 55.6346 222.197 55.8946C222.37 56.6748 223.004 58.1831 225.308 57.2989C225.769 57.1429 226.114 56.5187 225.999 56.1027C225.826 55.6346 225.654 54.9584 225.654 54.1783C225.654 53.8142 225.942 53.3981 226.287 53.2421L234.18 49.1332C235.85 48.249 237.233 46.1166 237.233 44.3482V30.9294C237.233 29.161 235.908 28.4329 234.18 29.3171Z" fill="#FFC856"/>
<path d="M224.041 57.9236C224.444 57.9236 224.962 57.8195 225.481 57.6115C226.115 57.3514 226.575 56.5193 226.403 55.9471C226.287 55.5311 226.115 54.9069 226.115 54.1268C226.115 53.9187 226.287 53.6067 226.518 53.5026L234.41 49.3938C236.254 48.4576 237.694 46.1691 237.694 44.2967V30.8779C237.694 29.8897 237.291 29.1096 236.599 28.7455C235.908 28.3814 234.986 28.4334 234.007 28.9535L219.835 36.3391C217.992 37.2753 216.552 39.5637 216.552 41.4361V54.8549C216.552 55.8431 216.955 56.6233 217.646 56.9874C218.337 57.3514 219.259 57.2994 220.238 56.7793L221.852 55.9471C221.967 56.5193 222.312 57.2474 223.061 57.6635C223.349 57.8715 223.695 57.9236 224.041 57.9236ZM235.562 29.3176C235.793 29.3176 235.966 29.3696 236.138 29.4736C236.599 29.6817 236.83 30.2018 236.83 30.9299V44.3487C236.83 46.0131 235.562 47.9895 233.949 48.8217L226.057 52.9305C225.596 53.1906 225.25 53.7107 225.25 54.2308C225.25 55.115 225.423 55.7911 225.596 56.2592C225.654 56.4152 225.423 56.8833 225.135 56.9874C224.386 57.2474 223.81 57.2994 223.407 57.0914C222.888 56.8313 222.658 56.2072 222.6 55.8431C222.543 55.5831 222.37 55.427 222.197 55.323C221.967 55.219 221.679 55.271 221.391 55.375L219.778 56.2072C219.086 56.5713 218.453 56.6233 218.049 56.4152C217.589 56.2072 217.358 55.6871 217.358 54.9589V41.5401C217.358 39.8758 218.625 37.8994 220.238 37.0672L234.41 29.6297C234.813 29.4216 235.217 29.3176 235.562 29.3176Z" fill="#150035"/>
<path d="M212.405 50.9537L216.898 53.4502V55.2706L217.186 56.3629L213.211 54.1264L212.462 53.2422L212.347 52.254L212.405 50.9537Z" fill="#150035"/>
<path d="M169.536 122.334C169.6 122.571 169.438 122.709 169.213 122.61C168.987 122.511 168.77 122.259 168.706 122.022C168.643 121.784 168.805 121.646 169.03 121.745C169.256 121.844 169.473 122.096 169.536 122.334Z" fill="#16110D"/>
<path d="M171.689 123.079C171.752 123.316 171.59 123.454 171.365 123.355C171.139 123.256 170.922 123.004 170.859 122.767C170.795 122.529 170.957 122.391 171.183 122.49C171.408 122.589 171.661 122.883 171.689 123.079Z" fill="#16110D"/>
<path d="M173.841 123.824C173.905 124.061 173.743 124.2 173.518 124.101C173.292 124.002 173.075 123.749 173.012 123.512C172.948 123.275 173.11 123.136 173.335 123.235C173.561 123.334 173.814 123.629 173.841 123.824Z" fill="#16110D"/>
<path d="M175.994 124.569C176.057 124.806 175.896 124.944 175.67 124.845C175.445 124.746 175.228 124.494 175.164 124.257C175.1 124.019 175.262 123.881 175.488 123.98C175.713 124.079 175.966 124.374 175.994 124.569Z" fill="#16110D"/>
<path d="M178.104 125.349C178.168 125.587 178.006 125.725 177.781 125.626C177.555 125.527 177.338 125.274 177.274 125.037C177.21 124.799 177.372 124.661 177.598 124.76C177.864 124.825 178.117 125.119 178.104 125.349Z" fill="#16110D"/>
<path d="M180.257 126.094C180.321 126.332 180.159 126.47 179.933 126.371C179.708 126.272 179.491 126.02 179.427 125.782C179.364 125.545 179.525 125.407 179.751 125.506C180.013 125.647 180.229 125.899 180.257 126.094Z" fill="#16110D"/>
<path d="M182.445 126.881C182.509 127.118 182.347 127.257 182.121 127.158C181.896 127.059 181.679 126.806 181.615 126.569C181.551 126.332 181.713 126.193 181.939 126.292C182.164 126.391 182.381 126.644 182.445 126.881Z" fill="#16110D"/>
<path d="M184.596 127.626C184.66 127.863 184.498 128.002 184.272 127.902C184.047 127.803 183.83 127.551 183.766 127.314C183.703 127.076 184.532 127.389 184.596 127.626Z" fill="#16110D"/>
<path d="M169.13 120.093C169.193 120.33 169.031 120.469 168.806 120.369C168.58 120.27 168.363 120.018 168.3 119.781C168.236 119.543 168.398 119.405 168.623 119.504C168.849 119.603 169.066 119.856 169.13 120.093Z" fill="#16110D"/>
<path d="M171.282 120.838C171.346 121.075 171.184 121.213 170.958 121.114C170.733 121.015 170.516 120.763 170.452 120.526C170.388 120.288 170.55 120.15 170.776 120.249C171.001 120.348 171.218 120.6 171.282 120.838Z" fill="#16110D"/>
<path d="M173.434 121.583C173.498 121.82 173.336 121.958 173.111 121.859C172.885 121.76 172.668 121.508 172.604 121.271C172.541 121.033 172.703 120.895 172.928 120.994C173.154 121.093 173.407 121.387 173.434 121.583Z" fill="#16110D"/>
<path d="M175.546 122.363C175.61 122.601 175.448 122.739 175.222 122.64C174.996 122.541 174.779 122.289 174.715 122.051C174.652 121.814 174.814 121.675 175.039 121.774C175.306 121.839 175.559 122.133 175.546 122.363Z" fill="#16110D"/>
<path d="M177.696 123.108C177.76 123.346 177.598 123.484 177.372 123.385C177.147 123.286 176.93 123.034 176.866 122.796C176.838 122.601 177.668 122.913 177.696 123.108Z" fill="#16110D"/>
<path d="M168.722 117.852C168.786 118.089 168.624 118.227 168.399 118.128C168.173 118.029 167.956 117.777 167.893 117.539C167.829 117.302 167.991 117.164 168.216 117.263C168.442 117.362 168.659 117.614 168.722 117.852Z" fill="#16110D"/>
<path d="M170.875 118.597C170.939 118.834 170.777 118.973 170.551 118.874C170.326 118.774 170.109 118.522 170.045 118.285C169.982 118.047 170.144 117.909 170.369 118.008C170.595 118.107 170.811 118.36 170.875 118.597Z" fill="#16110D"/>
<path d="M172.986 119.377C173.05 119.615 172.888 119.753 172.662 119.654C172.437 119.555 172.22 119.303 172.156 119.065C172.092 118.828 172.254 118.689 172.48 118.788C172.746 118.853 172.963 119.105 172.986 119.377Z" fill="#16110D"/>
<path d="M175.138 120.122C175.202 120.359 175.04 120.497 174.815 120.398C174.589 120.299 174.372 120.047 174.309 119.81C174.245 119.572 174.407 119.434 174.632 119.533C174.858 119.632 175.111 119.927 175.138 120.122Z" fill="#16110D"/>
<path d="M170.427 116.391C170.49 116.628 170.328 116.767 170.103 116.668C169.877 116.568 169.66 116.316 169.596 116.078C169.533 115.841 169.695 115.703 169.92 115.802C170.186 115.866 170.403 116.119 170.427 116.391Z" fill="#16110D"/>
<path d="M172.579 117.136C172.642 117.373 172.481 117.512 172.255 117.413C172.03 117.314 171.813 117.061 171.749 116.824C171.685 116.587 171.847 116.448 172.073 116.547C172.298 116.646 172.515 116.899 172.579 117.136Z" fill="#16110D"/>
<path d="M174.407 118.159C174.182 118.06 173.965 117.808 173.901 117.571C173.838 117.333 173.999 117.195 174.225 117.294C174.451 117.393 174.633 118.258 174.407 118.159Z" fill="#16110D"/>
<path d="M173.961 134.225C174.025 134.462 173.863 134.6 173.637 134.501C173.412 134.402 173.195 134.15 173.131 133.913C173.068 133.675 173.229 133.537 173.455 133.636C173.681 133.735 173.897 133.987 173.961 134.225Z" fill="#16110D"/>
<path d="M176.113 134.97C176.177 135.207 176.015 135.345 175.789 135.246C175.564 135.147 175.347 134.895 175.283 134.657C175.219 134.42 175.381 134.282 175.607 134.381C175.832 134.48 176.049 134.732 176.113 134.97Z" fill="#16110D"/>
<path d="M178.265 135.715C178.329 135.952 178.167 136.091 177.942 135.992C177.716 135.892 177.499 135.64 177.435 135.403C177.372 135.165 177.534 135.027 177.759 135.126C177.985 135.225 178.238 135.52 178.265 135.715Z" fill="#16110D"/>
<path d="M180.418 136.46C180.482 136.697 180.32 136.835 180.094 136.736C179.869 136.637 179.652 136.385 179.588 136.147C179.525 135.91 179.686 135.772 179.912 135.871C180.138 135.97 180.391 136.264 180.418 136.46Z" fill="#16110D"/>
<path d="M182.529 137.24C182.593 137.478 182.431 137.616 182.205 137.517C181.98 137.418 181.763 137.165 181.699 136.928C181.635 136.69 181.797 136.552 182.023 136.651C182.289 136.715 182.542 137.01 182.529 137.24Z" fill="#16110D"/>
<path d="M184.681 137.986C184.745 138.223 184.583 138.361 184.358 138.262C184.132 138.163 183.915 137.911 183.852 137.674C183.788 137.436 183.95 137.298 184.175 137.397C184.401 137.496 184.654 137.791 184.681 137.986Z" fill="#16110D"/>
<path d="M186.869 138.772C186.932 139.009 186.771 139.148 186.545 139.049C186.32 138.95 186.103 138.697 186.039 138.46C185.975 138.223 186.137 138.084 186.363 138.183C186.588 138.282 186.805 138.535 186.869 138.772Z" fill="#16110D"/>
<path d="M189.022 139.517C189.086 139.754 188.924 139.893 188.698 139.794C188.473 139.695 188.256 139.442 188.192 139.205C188.129 138.968 188.29 138.829 188.516 138.928C188.742 139.027 188.958 139.28 189.022 139.517Z" fill="#16110D"/>
<path d="M171.402 131.238C171.466 131.476 171.304 131.614 171.078 131.515C170.852 131.416 170.635 131.163 170.571 130.926C170.508 130.688 170.67 130.55 170.895 130.649C171.162 130.714 171.379 130.966 171.402 131.238Z" fill="#16110D"/>
<path d="M173.554 131.984C173.618 132.221 173.456 132.359 173.231 132.26C173.005 132.161 172.788 131.909 172.725 131.672C172.661 131.434 172.823 131.296 173.048 131.395C173.274 131.494 173.491 131.746 173.554 131.984Z" fill="#16110D"/>
<path d="M175.707 132.729C175.77 132.966 175.609 133.105 175.383 133.006C175.157 132.907 174.941 132.654 174.877 132.417C174.813 132.18 174.975 132.041 175.201 132.14C175.426 132.239 175.643 132.492 175.707 132.729Z" fill="#16110D"/>
<path d="M177.859 133.473C177.922 133.711 177.76 133.849 177.535 133.75C177.309 133.651 177.092 133.399 177.029 133.161C176.965 132.924 177.127 132.786 177.352 132.885C177.578 132.984 177.795 133.236 177.859 133.473Z" fill="#16110D"/>
<path d="M180.011 134.219C180.075 134.456 179.913 134.595 179.687 134.495C179.462 134.396 179.245 134.144 179.181 133.907C179.117 133.669 179.279 133.531 179.505 133.63C179.73 133.729 179.947 133.982 180.011 134.219Z" fill="#16110D"/>
<path d="M182.123 134.999C182.186 135.236 182.024 135.375 181.799 135.275C181.573 135.176 181.356 134.924 181.292 134.686C181.228 134.449 181.39 134.311 181.616 134.41C181.882 134.474 182.099 134.727 182.123 134.999Z" fill="#16110D"/>
<path d="M184.274 135.745C184.338 135.982 184.176 136.12 183.95 136.021C183.725 135.922 183.508 135.67 183.444 135.432C183.381 135.195 183.542 135.057 183.768 135.156C183.993 135.255 184.21 135.507 184.274 135.745Z" fill="#16110D"/>
<path d="M186.427 136.49C186.491 136.727 186.329 136.866 186.103 136.766C185.878 136.667 185.661 136.415 185.597 136.178C185.533 135.94 185.695 135.802 185.921 135.901C186.146 136 186.363 136.253 186.427 136.49Z" fill="#16110D"/>
<path d="M188.579 137.234C188.643 137.472 188.481 137.61 188.256 137.511C188.03 137.412 187.813 137.159 187.749 136.922C187.686 136.685 187.848 136.546 188.073 136.646C188.299 136.745 188.516 136.997 188.579 137.234Z" fill="#16110D"/>
<path d="M170.995 128.997C171.058 129.235 170.897 129.373 170.671 129.274C170.446 129.175 170.229 128.923 170.165 128.685C170.101 128.448 170.263 128.31 170.489 128.409C170.714 128.508 170.931 128.76 170.995 128.997Z" fill="#16110D"/>
<path d="M173.147 129.743C173.21 129.98 173.048 130.118 172.823 130.019C172.597 129.92 172.381 129.668 172.317 129.431C172.253 129.193 172.415 129.055 172.641 129.154C172.866 129.253 173.083 129.505 173.147 129.743Z" fill="#16110D"/>
<path d="M175.299 130.488C175.363 130.725 175.201 130.863 174.976 130.764C174.75 130.665 174.533 130.413 174.47 130.176C174.406 129.938 174.568 129.8 174.793 129.899C175.019 129.998 175.236 130.25 175.299 130.488Z" fill="#16110D"/>
<path d="M177.452 131.233C177.515 131.47 177.354 131.609 177.128 131.51C176.903 131.411 176.686 131.158 176.622 130.921C176.558 130.684 176.72 130.545 176.946 130.644C177.171 130.743 177.388 130.996 177.452 131.233Z" fill="#16110D"/>
<path d="M179.563 132.012C179.627 132.25 179.465 132.388 179.239 132.289C179.013 132.19 178.796 131.938 178.733 131.7C178.669 131.463 178.831 131.324 179.056 131.423C179.323 131.488 179.54 131.74 179.563 132.012Z" fill="#16110D"/>
<path d="M181.715 132.758C181.779 132.995 181.617 133.134 181.391 133.035C181.166 132.936 180.949 132.683 180.885 132.446C180.822 132.209 180.983 132.07 181.209 132.169C181.434 132.268 181.651 132.521 181.715 132.758Z" fill="#16110D"/>
<path d="M183.867 133.503C183.931 133.741 183.769 133.879 183.544 133.78C183.318 133.681 183.101 133.429 183.038 133.191C182.974 132.954 183.136 132.816 183.361 132.915C183.587 133.014 183.804 133.266 183.867 133.503Z" fill="#16110D"/>
<path d="M186.02 134.248C186.084 134.486 185.922 134.624 185.696 134.525C185.471 134.426 185.254 134.174 185.19 133.936C185.127 133.699 185.289 133.561 185.514 133.66C185.74 133.759 185.957 134.011 186.02 134.248Z" fill="#16110D"/>
<path d="M188.173 134.993C188.236 135.231 188.074 135.369 187.849 135.27C187.623 135.171 187.406 134.918 187.343 134.681C187.279 134.444 187.441 134.305 187.666 134.404C187.892 134.504 188.109 134.756 188.173 134.993Z" fill="#16110D"/>
<path d="M191.174 140.262C191.238 140.5 191.076 140.638 190.85 140.539C190.625 140.44 190.408 140.187 190.344 139.95C190.28 139.713 190.442 139.574 190.668 139.673C190.893 139.773 191.11 140.025 191.174 140.262Z" fill="#16110D"/>
<path d="M170.587 126.756C170.65 126.994 170.488 127.132 170.263 127.033C170.037 126.934 169.82 126.682 169.757 126.444C169.693 126.207 169.855 126.069 170.08 126.168C170.306 126.267 170.523 126.519 170.587 126.756Z" fill="#16110D"/>
<path d="M172.74 127.501C172.804 127.739 172.642 127.877 172.417 127.778C172.191 127.679 171.974 127.426 171.911 127.189C171.847 126.952 172.009 126.813 172.234 126.913C172.46 127.012 172.677 127.264 172.74 127.501Z" fill="#16110D"/>
<path d="M174.892 128.247C174.956 128.484 174.794 128.622 174.569 128.523C174.343 128.424 174.126 128.172 174.062 127.934C173.999 127.697 174.161 127.559 174.386 127.658C174.612 127.757 174.829 128.009 174.892 128.247Z" fill="#16110D"/>
<path d="M177.004 129.027C177.068 129.265 176.906 129.403 176.68 129.304C176.455 129.205 176.238 128.952 176.174 128.715C176.11 128.477 176.272 128.339 176.498 128.438C176.764 128.502 176.981 128.755 177.004 129.027Z" fill="#16110D"/>
<path d="M179.155 129.772C179.219 130.01 179.057 130.148 178.832 130.049C178.606 129.95 178.389 129.697 178.326 129.46C178.262 129.223 178.424 129.084 178.649 129.184C178.875 129.283 179.092 129.535 179.155 129.772Z" fill="#16110D"/>
<path d="M181.308 130.517C181.371 130.755 181.21 130.893 180.984 130.794C180.759 130.695 180.542 130.442 180.478 130.205C180.414 129.968 180.576 129.829 180.802 129.928C181.027 130.028 181.244 130.28 181.308 130.517Z" fill="#16110D"/>
<path d="M190.731 137.979C190.795 138.217 190.633 138.355 190.407 138.256C190.182 138.157 189.965 137.904 189.901 137.667C189.838 137.43 189.999 137.291 190.225 137.391C190.451 137.49 190.667 137.742 190.731 137.979Z" fill="#16110D"/>
<path d="M190.284 135.773C190.347 136.011 190.185 136.149 189.96 136.05C189.734 135.951 189.517 135.698 189.453 135.461C189.39 135.223 189.552 135.085 189.777 135.184C190.043 135.249 190.26 135.501 190.284 135.773Z" fill="#16110D"/>
<path d="M183.461 131.262C183.524 131.499 183.362 131.638 183.137 131.539C182.911 131.44 182.694 131.187 182.631 130.95C182.567 130.712 182.729 130.574 182.954 130.673C183.18 130.772 183.397 131.025 183.461 131.262Z" fill="#16110D"/>
<path d="M185.613 132.007C185.677 132.244 185.515 132.383 185.289 132.284C185.064 132.184 184.847 131.932 184.783 131.695C184.719 131.457 184.881 131.319 185.107 131.418C185.332 131.517 185.549 131.77 185.613 132.007Z" fill="#16110D"/>
<path d="M170.181 124.515C170.244 124.753 170.083 124.891 169.857 124.792C169.632 124.693 169.415 124.441 169.351 124.203C169.287 123.966 169.449 123.828 169.675 123.927C169.9 124.026 170.117 124.278 170.181 124.515Z" fill="#16110D"/>
<path d="M172.333 125.26C172.396 125.498 172.234 125.636 172.009 125.537C171.783 125.438 171.567 125.186 171.503 124.948C171.439 124.711 171.601 124.573 171.827 124.672C172.052 124.771 172.269 125.023 172.333 125.26Z" fill="#16110D"/>
<path d="M174.445 126.04C174.508 126.278 174.347 126.416 174.121 126.317C173.895 126.218 173.678 125.965 173.614 125.728C173.551 125.49 173.713 125.352 173.938 125.451C174.204 125.516 174.422 125.768 174.445 126.04Z" fill="#16110D"/>
<path d="M176.596 126.786C176.66 127.023 176.498 127.162 176.272 127.063C176.047 126.964 175.83 126.711 175.766 126.474C175.702 126.237 175.864 126.098 176.09 126.197C176.315 126.296 176.532 126.549 176.596 126.786Z" fill="#16110D"/>
<path d="M187.726 132.787C187.789 133.025 187.627 133.163 187.402 133.064C187.176 132.965 186.959 132.713 186.895 132.475C186.831 132.238 186.993 132.099 187.219 132.198C187.485 132.263 187.702 132.515 187.726 132.787Z" fill="#16110D"/>
<path d="M189.876 133.533C189.94 133.771 189.778 133.909 189.552 133.81C189.327 133.711 189.11 133.458 189.046 133.221C188.983 132.984 189.144 132.845 189.37 132.944C189.596 133.044 189.812 133.296 189.876 133.533Z" fill="#16110D"/>
<path d="M178.749 127.531C178.813 127.769 178.651 127.907 178.425 127.808C178.2 127.709 177.983 127.457 177.919 127.219C177.856 126.982 178.018 126.844 178.243 126.943C178.469 127.042 178.685 127.294 178.749 127.531Z" fill="#16110D"/>
<path d="M180.902 128.276C180.965 128.513 180.803 128.652 180.578 128.553C180.352 128.454 180.135 128.201 180.072 127.964C180.008 127.727 180.17 127.588 180.395 127.687C180.621 127.786 180.838 128.039 180.902 128.276Z" fill="#16110D"/>
<path d="M183.053 129.021C183.117 129.258 182.955 129.396 182.73 129.297C182.504 129.198 182.287 128.946 182.224 128.709C182.16 128.471 182.322 128.333 182.547 128.432C182.773 128.531 182.99 128.784 183.053 129.021Z" fill="#16110D"/>
<path d="M185.165 129.801C185.229 130.038 185.067 130.177 184.841 130.078C184.615 129.979 184.398 129.726 184.335 129.489C184.271 129.251 184.433 129.113 184.659 129.212C184.925 129.276 185.142 129.529 185.165 129.801Z" fill="#16110D"/>
<path d="M187.317 130.547C187.38 130.784 187.218 130.922 186.993 130.823C186.767 130.724 186.55 130.472 186.487 130.235C186.423 129.997 186.585 129.859 186.81 129.958C187.036 130.057 187.253 130.309 187.317 130.547Z" fill="#16110D"/>
<path d="M189.469 131.292C189.533 131.529 189.371 131.667 189.146 131.568C188.92 131.469 188.703 131.217 188.64 130.98C188.576 130.742 188.738 130.604 188.963 130.703C189.189 130.802 189.406 131.054 189.469 131.292Z" fill="#16110D"/>
<path d="M192.779 140.454C193.005 140.553 193.222 140.805 193.285 141.042C193.349 141.28 193.187 141.418 192.962 141.319C192.736 141.22 192.519 140.968 192.455 140.73C192.392 140.493 192.554 140.355 192.779 140.454Z" fill="#16110D"/>
<path d="M192.372 138.213C192.598 138.312 192.815 138.565 192.879 138.802C192.942 139.039 192.78 139.178 192.555 139.078C192.329 138.979 192.112 138.727 192.049 138.49C191.985 138.252 192.147 138.114 192.372 138.213Z" fill="#16110D"/>
<path d="M194.994 139.505C195.058 139.742 194.896 139.881 194.671 139.782C194.445 139.683 194.228 139.43 194.164 139.193C194.101 138.956 194.263 138.817 194.488 138.916C194.714 139.015 194.967 139.31 194.994 139.505Z" fill="#16110D"/>
<path d="M191.965 135.972C192.19 136.071 192.407 136.323 192.471 136.561C192.535 136.798 192.373 136.936 192.147 136.837C191.922 136.738 191.705 136.486 191.641 136.249C191.577 136.011 191.739 135.873 191.965 135.972Z" fill="#16110D"/>
<path d="M194.588 137.264C194.652 137.501 194.49 137.639 194.264 137.54C194.039 137.441 193.822 137.189 193.758 136.952C193.695 136.714 193.856 136.576 194.082 136.675C194.307 136.774 194.561 137.068 194.588 137.264Z" fill="#16110D"/>
<path d="M191.522 133.688C191.747 133.787 191.964 134.04 192.028 134.277C192.092 134.515 191.93 134.653 191.704 134.554C191.478 134.455 191.261 134.202 191.198 133.965C191.17 133.77 191.332 133.631 191.522 133.688Z" fill="#16110D"/>
<path d="M194.181 135.023C194.245 135.26 194.083 135.399 193.858 135.3C193.632 135.2 193.415 134.948 193.351 134.711C193.288 134.473 193.45 134.335 193.675 134.434C193.901 134.533 194.154 134.828 194.181 135.023Z" fill="#16110D"/>
<path d="M195.634 134.893C195.634 134.893 217.387 121.986 224.552 112.99L208.006 97.708C208.006 97.708 194.148 109.4 175.337 115.001C174.149 115.352 173.528 116.694 173.961 118.683L174.999 123.768C175.58 126.589 177.906 129.542 180.272 130.396L193.088 135.151C194.201 135.454 195.061 135.383 195.634 134.893Z" fill="#FFC856"/>
<path d="M202.362 122.495L199.324 108.84C199.232 108.404 198.7 108.197 198.333 108.51C196.501 110.001 190.805 113.911 176.228 118.275C175.043 118.625 174.424 119.963 174.856 121.947L175.28 124.085C176.027 126.682 178.21 129.303 180.379 130.097L193.162 134.839C194.189 135.211 195.089 135.105 195.66 134.617C195.66 134.617 196.263 134.249 197.229 133.644C198.104 131.205 199.142 126.569 202.362 122.495Z" fill="#F6E5CC"/>
<path d="M180.031 130.18L192.897 134.956C193.932 135.331 194.837 135.223 195.412 134.732C195.412 134.732 217.251 121.769 224.444 112.734L220.135 108.716L213.831 106.106C213.831 106.106 195.52 121.681 176.635 127.307C176.594 127.342 176.594 127.342 176.516 127.334C177.576 128.65 178.845 129.712 180.031 130.18Z" fill="black"/>
<path d="M177.129 128.219C175.996 126.901 175.113 125.297 174.813 123.71L173.775 118.625C173.41 116.798 173.84 115.4 174.886 114.801L174.849 114.758L175.286 114.606C193.823 109.018 207.713 97.4463 207.835 97.3415L207.999 97.2017L224.914 112.831L224.746 113.048C217.709 121.861 196.475 134.546 195.748 135.02C195.093 135.579 194.114 135.678 192.97 135.255L180.155 130.5C179.161 130.169 178.043 129.282 177.129 128.219ZM175.92 115.096L175.447 115.206C174.341 115.487 173.916 116.809 174.285 118.558L175.323 123.643C175.872 126.344 178.161 129.254 180.413 130.058L193.228 134.813C194.145 135.136 194.928 135.057 195.455 134.68L195.496 134.645C195.737 134.513 217.007 121.871 224.204 112.995L208.028 98.0612C206.356 99.4164 193.155 109.809 175.92 115.096Z" fill="black"/>
<path d="M241.253 114.074C246.476 109.612 249.52 100.393 248.121 93.499C247.449 90.2487 245.862 88.0742 243.893 87.1829C243.629 87.0406 243.361 86.9756 243.092 86.9106L234.374 83.7682L233.071 86.2045L224.584 112.796L233.452 116.031C233.716 116.173 233.984 116.238 234.253 116.303C236.358 116.858 238.805 116.165 241.253 114.074Z" fill="#FFC856"/>
<path d="M238.374 115.561C242.983 110.888 245.558 102.369 244.253 95.9167C243.581 92.6692 241.996 90.4966 240.028 89.606C239.764 89.4638 239.496 89.3989 239.228 89.3339L232.535 86.8956L224.374 112.603L233.235 115.835C233.499 115.977 233.767 116.042 234.035 116.107C235.339 116.39 236.823 116.224 238.374 115.561Z" fill="#FBEACC"/>
<path d="M224.267 112.921L232.809 86.0642L234.242 83.369L243.188 86.611C243.456 86.676 243.761 86.7834 243.988 86.8833C246.185 87.8745 247.727 90.1609 248.398 93.4111C249.87 100.39 246.741 109.755 241.477 114.251C239.07 116.308 236.5 117.106 234.281 116.501C234.013 116.436 233.709 116.328 233.445 116.186L224.267 112.921ZM234.512 84.0944L233.336 86.3487L224.944 112.638L233.548 115.73C233.812 115.872 234.08 115.937 234.348 116.002C236.413 116.592 238.787 115.814 241.072 113.862C246.213 109.471 249.211 100.365 247.808 93.5477C247.164 90.4944 245.732 88.3351 243.726 87.4014C243.462 87.2592 243.194 87.1942 242.966 87.0943L234.512 84.0944Z" fill="black"/>
<path d="M232.324 111.007C227.097 115.472 221.731 113.433 220.29 106.568C218.89 99.6683 221.935 90.443 227.162 85.978C232.389 81.5131 237.755 83.5526 239.196 90.4173C240.596 97.3169 237.55 106.542 232.324 111.007Z" fill="#FFC856"/>
<path d="M222.232 111.46C221.211 110.272 220.411 108.6 220.019 106.58C218.546 99.5961 221.678 90.2245 226.945 85.725C229.558 83.4927 232.28 82.7867 234.642 83.639C237.003 84.4914 238.696 86.8718 239.433 90.3638C240.906 97.3477 237.774 106.719 232.507 111.219C229.894 113.451 227.172 114.157 224.81 113.305C223.859 112.94 222.962 112.308 222.232 111.46ZM236.848 85.8753C236.191 85.1117 235.408 84.53 234.493 84.2075C232.322 83.4127 229.796 84.0989 227.346 86.1917C222.201 90.5865 219.201 99.6989 220.605 106.521C221.277 109.773 222.824 111.984 224.995 112.779C227.166 113.574 229.692 112.887 232.142 110.795C237.287 106.4 240.287 97.2873 238.883 90.4656C238.523 88.565 237.796 86.9784 236.848 85.8753Z" fill="black"/>
<path d="M229.938 109.153C234.619 105.154 237.368 96.9372 236.051 90.7258C235.441 87.7992 234.04 85.8415 232.224 85.0445C231.998 84.9448 231.771 84.8452 231.503 84.7803L208.204 75.9976L207.036 78.1695L199.455 102.032L213.996 107.364C214.223 107.464 223.321 111.064 223.588 111.129C225.575 111.633 227.74 111.03 229.938 109.153Z" fill="#FFC856"/>
<path d="M227.198 110.802C231.268 106.593 233.55 99.0726 232.403 93.3085C231.793 90.3843 230.393 88.4281 228.579 87.6317C228.353 87.5322 228.126 87.4326 227.859 87.3678L206.701 79.4186L199.503 102.06L214.033 107.388C214.259 107.488 223.349 111.085 223.617 111.149C224.727 111.374 225.932 111.298 227.198 110.802Z" fill="#FAE9CC"/>
<path d="M234.495 102.04C234.228 101.975 225.161 98.3872 224.935 98.2879L210.442 92.973L206.483 87.1414L208.222 76.1505L207.057 78.3153L199.501 102.1L213.994 107.415C214.22 107.515 223.287 111.103 223.554 111.167C225.416 111.697 227.615 111.062 229.765 109.225C231.794 107.492 233.481 104.953 234.608 102.09C234.572 102.048 234.572 102.048 234.495 102.04Z" fill="black"/>
<path d="M199.252 102.204L206.923 78.1172L208.223 75.6868L231.713 84.5272C231.903 84.5845 232.207 84.6917 232.434 84.7913C234.399 85.6805 235.792 87.7925 236.366 90.6769C237.642 96.9233 234.844 105.329 230.122 109.363C227.964 111.206 225.677 111.912 223.654 111.366C223.309 111.294 214.098 107.644 214.025 107.56L199.252 102.204ZM208.456 76.3682L207.414 78.3588L199.926 101.922L214.242 107.154C214.618 107.346 223.566 110.854 223.798 110.877C225.63 111.366 227.759 110.721 229.794 108.982C234.394 105.053 237.098 96.9477 235.854 90.8207C235.271 88.0904 234.024 86.1476 232.209 85.3505C231.982 85.2509 231.755 85.1513 231.524 85.1287L208.456 76.3682Z" fill="black"/>
<path d="M206.541 100.628C201.845 104.64 197.048 102.85 195.727 96.6192C194.443 90.4307 197.204 82.1107 201.859 78.1343C206.514 74.1578 211.352 75.9125 212.673 82.1434C213.957 88.3319 211.196 96.6518 206.541 100.628Z" fill="#FFC856"/>
<path d="M197.421 101.06C196.509 99.9989 195.777 98.4895 195.413 96.6661C194.133 90.4004 196.94 81.9684 201.676 77.9222C204.004 75.934 206.489 75.2826 208.624 76.035C210.795 76.8299 212.305 78.9983 212.909 82.0888C214.189 88.3545 211.382 96.7865 206.646 100.833C204.318 102.821 201.833 103.472 199.698 102.72C198.902 102.37 198.077 101.823 197.421 101.06ZM210.57 78.0517C209.987 77.3729 209.276 76.876 208.516 76.5687C206.573 75.8738 204.324 76.4704 202.119 78.354C197.504 82.2955 194.793 90.4259 196.041 96.5719C196.616 99.4653 198.058 101.472 199.961 102.201C201.904 102.896 204.153 102.3 206.358 100.416C210.972 96.4744 213.684 88.3441 212.436 82.1981C212.068 80.4521 211.446 79.0699 210.57 78.0517Z" fill="black"/>
<path d="M204.267 98.9815C208.306 95.5308 210.692 88.3455 209.596 82.9566C208.957 79.826 207.235 77.9879 205.116 77.6647C201.091 76.029 190.584 70.1489 188.169 53.0186C188.034 51.9569 186.575 51.6591 186.096 52.5833L160.758 103.202L162.953 106.989C164.194 109.091 167.008 109.482 168.617 107.814C173.361 102.879 183.388 95.1962 197.194 99.7283C199.084 101.35 201.696 101.177 204.267 98.9815Z" fill="#FFC856"/>
<path d="M196.84 99.6505C198.028 100.62 199.528 100.883 201.147 100.381C204.462 96.6679 206.29 90.4027 205.319 85.5723C204.68 82.4434 202.959 80.6062 200.842 80.2832C196.818 78.6484 186.468 72.8638 183.963 55.9669L160.387 103.08L162.581 106.865C163.361 108.184 164.798 108.867 166.164 108.729C167.596 107.432 169.345 106.012 171.354 104.81C176.765 100.409 185.519 95.9449 196.84 99.6505Z" fill="#F9E8CC"/>
<path d="M163.136 107.863C162.954 107.651 162.808 107.481 162.667 107.234L160.403 103.285L185.827 52.5185C186.089 52.0004 186.688 51.7093 187.265 51.8045C187.879 51.9421 188.321 52.3736 188.4 53.0415C190.756 69.8555 200.876 75.6979 205.129 77.4335C207.443 77.7369 209.156 79.7296 209.791 82.9375C210.923 88.3688 208.493 95.6663 204.371 99.1868C201.801 101.383 199.103 101.702 197.058 100.065C183.402 95.6256 173.461 103.161 168.794 108.104C167.969 108.956 166.78 109.383 165.548 109.186C164.661 109.06 163.792 108.626 163.136 107.863ZM161.062 103.31L163.184 107.013C163.714 107.958 164.651 108.554 165.651 108.73C166.692 108.87 167.682 108.539 168.384 107.792C173.133 102.78 183.278 95.0698 197.275 99.6594L197.389 99.7093C199.21 101.169 201.713 100.869 204.08 98.8476C208.038 95.4665 210.378 88.3933 209.315 83.124C208.703 80.1902 207.176 78.3323 205.094 78.0515L205.017 78.0439C200.687 76.3009 190.303 70.3161 187.887 53.1857C187.836 52.7146 187.499 52.4875 187.19 52.4574C186.922 52.3923 186.527 52.5092 186.35 52.8803L161.062 103.31Z" fill="black"/>
<path d="M156.141 114.597C157.305 114.633 158.009 114.547 158.009 114.547C162.227 114.181 166.731 112.173 171.181 108.372C184.897 96.6543 193.027 72.3461 189.234 54.1019C187.462 45.5359 183.429 39.8577 178.204 37.405C178.054 37.3126 177.863 37.2551 177.713 37.1627C177.635 37.1552 177.521 37.1052 177.485 37.0628C177.257 36.9629 177.03 36.863 176.762 36.7979C176.725 36.7555 176.684 36.7904 176.648 36.748C176.42 36.648 176.152 36.583 175.883 36.5179C166.13 33.7398 157.687 40.1432 157.687 40.1432L157.569 42.23L157.528 42.2649C148.016 50.3903 141.198 64.5292 139.206 78.5176C137.117 84.5697 136.292 90.9394 138.107 96.6731C140.678 104.851 144.471 109.262 148.064 111.711C150.342 113.371 152.894 114.281 155.645 114.432C155.799 114.448 155.918 114.42 156.031 114.47C156.1 114.632 156.141 114.597 156.141 114.597Z" fill="#FFC856"/>
<path d="M156.524 112.044C157.687 112.08 158.682 110.274 158.682 110.274L158.172 111.739C162.387 111.374 165.55 113.158 169.997 109.359C183.706 97.6481 191.831 73.3537 188.041 55.1197C186.27 46.5585 182.239 40.8835 177.017 38.4322C176.866 38.3398 176.675 38.2824 176.525 38.19C176.448 38.1825 176.334 38.1326 176.298 38.0902C176.07 37.9903 175.843 37.8905 175.575 37.8254C175.538 37.783 175.498 37.8179 175.461 37.7755C175.234 37.6756 174.965 37.6106 174.697 37.5456C164.949 34.7691 156.51 41.1688 156.51 41.1688L156.393 43.2545L156.352 43.2893C146.845 51.4101 140.03 65.5412 138.04 79.5217C135.952 85.5704 138.214 90.9174 140.028 96.6478C142.598 104.821 144.913 105.785 148.504 108.232C150.78 109.891 151.505 110.816 154.254 110.968C154.44 111.103 157.183 108.613 156.524 112.044Z" fill="#F8E7CC"/>
<path d="M170.964 108.476C175.485 104.614 179.385 99.3741 182.431 93.4694C178.796 96.0606 175.113 97.4455 171.685 97.7312C171.685 97.7312 170.982 97.8176 169.821 97.7819L169.744 97.7743C169.59 97.7593 169.513 97.7518 169.358 97.7367C166.614 97.5852 164.072 96.6006 161.796 95.0218C158.212 92.5789 154.427 88.1782 151.862 80.0203C150.052 74.3006 150.87 68.0233 152.959 61.9088C154.117 53.7266 156.984 45.4787 161.025 38.4306C158.833 39.4958 157.498 40.4896 157.498 40.4896L157.381 42.5714L157.34 42.6062C147.851 50.7119 141.048 64.8166 139.061 78.7711C136.977 84.8085 136.154 91.1628 137.965 96.8826C140.53 105.04 144.314 109.441 147.899 111.884C150.17 113.54 152.717 114.447 155.461 114.599C155.615 114.614 155.733 114.587 155.846 114.637L155.924 114.644C157.085 114.68 157.787 114.593 157.787 114.593C161.991 114.306 166.484 112.302 170.964 108.476Z" fill="black"/>
<path d="M143.93 108.471C141.413 105.544 139.34 101.651 137.859 96.8821C136.209 91.6697 136.557 85.4865 138.967 78.572C141.066 64.0501 148.104 50.1656 157.371 42.2495L157.452 40.1203L157.533 40.0505C157.615 39.9808 166.172 33.6273 175.967 36.3706C176.235 36.4356 176.463 36.5356 176.731 36.6006L176.845 36.6506C177.072 36.7505 177.341 36.8155 177.568 36.9155L177.682 36.9654C177.718 37.0078 177.796 37.0154 177.796 37.0154C177.987 37.0729 178.137 37.1653 178.287 37.2576C183.817 39.8178 187.755 45.7976 189.463 54.1242C193.215 72.4034 185.077 96.8661 171.319 108.618C166.992 112.315 162.443 114.435 158.066 114.863L157.989 114.856C157.989 114.856 157.243 114.977 156.043 114.899L156.002 114.934C155.848 114.919 155.693 114.904 155.539 114.888C152.751 114.694 150.122 113.777 147.808 112.075C146.505 111.054 145.134 109.871 143.93 108.471ZM157.98 40.4049L157.862 42.4917L157.781 42.5615C148.596 50.4079 141.599 64.2575 139.503 78.7021C137.135 85.5817 136.795 91.6103 138.413 96.703C140.627 103.641 143.921 108.626 148.261 111.614C150.502 113.231 152.977 114.133 155.687 114.32C155.842 114.335 155.96 114.308 156.074 114.358L156.174 114.64L156.151 114.365C156.887 114.398 157.474 114.339 157.746 114.327L157.942 114.307C162.237 113.949 166.709 111.821 170.955 108.194C184.59 96.5466 192.637 72.3081 188.914 54.226C187.233 46.0964 183.404 40.2439 178.025 37.776C177.875 37.6836 177.684 37.6262 177.57 37.5762L177.342 37.4763C177.115 37.3764 176.887 37.2764 176.655 37.2538L176.542 37.2038C176.314 37.1039 176.046 37.0389 175.814 37.0162C166.87 34.356 158.951 39.7226 157.98 40.4049Z" fill="black"/>
<path d="M167.354 105.039C154.41 116.097 141.006 111.135 137.465 93.9213C133.925 76.7076 141.55 53.7818 154.495 42.7242C167.439 31.6666 180.843 36.6282 184.383 53.842C187.924 71.0558 180.298 93.9816 167.354 105.039Z" fill="#FFC856"/>
<path d="M169.506 75.5531C171.425 84.8445 170.07 95.8312 166.338 105.695C166.664 105.417 167.066 105.146 167.392 104.868C180.295 93.8459 187.937 70.9594 184.367 53.8359C180.838 36.6777 167.477 31.7322 154.574 42.754C148.672 47.7956 143.868 55.3463 140.726 63.679C153.337 53.7134 166.105 58.8723 169.506 75.5531Z" fill="black"/>
<path d="M142.544 105.921C140.027 102.994 138.156 98.9246 137.153 93.9683C133.575 76.7121 141.287 53.6392 154.313 42.5119C160.642 37.1052 167.313 35.3075 173.065 37.3847C178.814 39.5393 182.921 45.3037 184.661 53.7522C188.239 71.0085 180.527 94.0813 167.501 105.209C161.172 110.615 154.501 112.413 148.748 110.336C146.386 109.483 144.295 107.958 142.544 105.921ZM178.857 42.2253C177.142 40.2312 175.161 38.833 172.876 37.9881C167.355 35.9335 160.88 37.7114 154.674 43.0135C141.811 54.0013 134.19 76.8497 137.698 93.9438C139.374 102.153 143.408 107.832 148.929 109.887C154.45 111.942 160.925 110.164 167.132 104.862C179.994 93.8739 187.616 71.0254 184.107 53.9314C183.099 49.0523 181.302 45.068 178.857 42.2253Z" fill="black"/>
<path d="M166.122 65.8867L160.493 83.2468L177.247 92.1309C180.872 85.5845 183.428 78.0422 184.548 70.5535L166.68 65.631C166.452 65.5313 166.212 65.6629 166.122 65.8867Z" fill="#FFC856"/>
<path d="M182.534 73.2831L165.593 68.6081L160.863 83.1391L176.929 91.6416C179.652 85.9413 181.635 79.6263 182.534 73.2831Z" fill="#F7E6CC"/>
<path d="M160.175 83.3684L165.895 65.7841C166.03 65.4484 166.351 65.2471 166.732 65.3619L184.869 70.3494L184.815 70.6155C183.728 78.2238 181.175 85.6892 177.51 92.2705L177.379 92.5291L160.175 83.3684ZM166.426 65.991L160.85 83.0854L177.154 91.6931C180.694 85.2932 183.156 78.0517 184.23 70.6747L166.629 65.817C166.511 65.8443 166.43 65.9138 166.426 65.991Z" fill="black"/>
<path d="M164.89 82.2052C168.074 79.4859 169.904 73.8767 169.053 69.676C168.569 67.2204 167.175 65.7636 165.557 65.528C165.134 65.4479 164.666 65.4799 164.193 65.5892L161.776 65.7417L161.217 67.3963C158.579 70.0911 156.95 74.8655 157.474 78.6846L156.91 80.4164L159.051 82.4122C159.161 82.5394 159.27 82.6667 159.384 82.7166C160.823 84.0613 162.891 83.9134 164.89 82.2052Z" fill="#FFC856"/>
<path d="M167.4 71.0078C166.917 68.5541 165.523 67.0984 163.906 66.8629C163.484 66.7828 163.016 66.8148 162.544 66.924L161.218 67.0276L161.074 67.5181C158.438 70.2109 156.811 74.9817 157.334 78.7979L156.771 80.5285L158.91 82.5228C159.019 82.6499 159.129 82.777 159.242 82.8269C160.503 83.8815 162.247 83.9353 164.02 82.7885C166.664 79.9413 168.191 74.889 167.4 71.0078Z" fill="#F6E5CC"/>
<path d="M156.55 80.5763L157.159 78.7325C156.681 74.8016 158.268 70.0624 160.947 67.333L161.551 65.5664L164.164 65.3941C164.636 65.2849 165.104 65.2528 165.568 65.2981L165.763 65.2783L165.568 65.2981C167.336 65.626 168.84 67.2099 169.364 69.6305C170.248 73.9504 168.372 79.6714 165.107 82.4601C163.026 84.2379 160.837 84.4904 159.206 83.0883C159.097 82.9611 158.947 82.8688 158.837 82.7416L156.55 80.5763ZM161.953 66.0328L161.357 67.6449C158.723 70.2622 157.177 74.9665 157.664 78.7428L157.659 78.8201L157.141 80.4397L159.132 82.343C159.241 82.4702 159.314 82.555 159.464 82.6474C160.835 83.8299 162.829 83.5972 164.666 82.0286C167.767 79.3792 169.593 73.8477 168.774 69.767C168.318 67.5086 167.115 66.1094 165.497 65.8738C165.11 65.8361 164.683 65.8332 164.211 65.9425L161.953 66.0328Z" fill="black"/>
<path d="M162.209 80.4423C159.432 82.8144 156.538 81.7545 155.773 78.0652C155.009 74.3758 156.647 69.444 159.465 67.037C162.241 64.665 165.136 65.7249 165.9 69.4142C166.665 73.1035 165.027 78.0354 162.209 80.4423Z" fill="#FFC856"/>
<path d="M156.75 80.7621C156.167 80.0834 155.751 79.1878 155.539 78.1179C154.742 74.3094 156.425 69.2661 159.283 66.8247C160.712 65.604 162.212 65.2062 163.545 65.6861C164.878 66.166 165.814 67.5009 166.173 69.4013C166.97 73.2098 165.287 78.2531 162.429 80.6945C161 81.9152 159.5 82.313 158.167 81.8331C157.598 81.5833 157.152 81.2288 156.75 80.7621ZM164.558 67.0285C164.229 66.6467 163.819 66.3347 163.401 66.1773C162.258 65.7549 160.955 66.1328 159.689 67.214C156.953 69.5508 155.361 74.3698 156.129 77.9812C156.461 79.6846 157.291 80.815 158.393 81.2722C159.535 81.6946 160.839 81.3166 162.105 80.2354C164.84 77.8986 166.433 73.0797 165.664 69.4682C165.411 68.4332 165.068 67.6225 164.558 67.0285Z" fill="black"/>
<path d="M184.383 53.842C180.843 36.6282 167.439 31.6666 154.495 42.7242C141.55 53.7818 133.884 76.7424 137.465 93.9213C141.006 111.135 154.41 116.097 167.354 105.039C180.298 93.9816 187.924 71.0558 184.383 53.842ZM140.569 91.2703C137.521 76.3589 144.117 56.5198 155.347 46.9272C166.576 37.3347 178.15 41.6513 181.239 56.5279C184.288 71.4394 177.691 91.2784 166.461 100.871C155.232 110.463 143.658 106.147 140.569 91.2703Z" fill="#FFC856"/>
<path d="M167.142 104.914C168 104.181 168.82 103.407 169.604 102.59C179.646 90.5549 185.086 71.1946 182.007 56.17C178.468 38.9636 165.07 34.0042 152.131 45.057C151.274 45.7892 150.453 46.5638 149.669 47.3808C139.628 59.4157 134.187 78.776 137.266 93.8007C140.805 111.007 154.163 116.001 167.142 104.914ZM150.978 51.044C152.27 49.4994 153.675 48.0049 155.144 46.7497C166.369 37.1613 177.938 41.476 181.026 56.3462C183.93 70.3436 178.232 88.7464 168.222 98.8419C166.931 100.386 165.526 101.881 164.056 103.136C152.832 112.725 141.262 108.41 138.175 93.5397C135.307 79.5846 140.964 61.2167 150.978 51.044Z" fill="#F7E6CC"/>
<path d="M142.544 105.921C140.027 102.994 138.156 98.9246 137.153 93.9683C133.575 76.7121 141.287 53.6392 154.313 42.5119C160.642 37.1052 167.313 35.3075 173.065 37.3847C178.814 39.5393 182.921 45.3037 184.661 53.7522C188.239 71.0085 180.527 94.0813 167.501 105.209C161.172 110.615 154.501 112.413 148.748 110.336C146.386 109.483 144.295 107.958 142.544 105.921ZM178.857 42.2253C177.142 40.2312 175.161 38.833 172.876 37.9881C167.355 35.9335 160.88 37.7114 154.674 43.0135C141.811 54.0013 134.19 76.8497 137.698 93.9438C139.374 102.153 143.408 107.832 148.929 109.887C154.45 111.942 160.925 110.164 167.132 104.862C179.994 93.8739 187.616 71.0254 184.107 53.9314C183.099 49.0523 181.302 45.068 178.857 42.2253ZM144.961 101.649C142.772 99.103 141.181 95.6052 140.297 91.2824C137.212 76.3285 143.858 56.2999 155.129 46.6725C160.641 41.9634 166.444 40.392 171.432 42.2392C176.42 44.0863 179.984 49.137 181.517 56.4382C184.602 71.392 177.955 91.4206 166.685 101.048C161.173 105.757 155.37 107.329 150.382 105.481C148.325 104.736 146.494 103.431 144.961 101.649ZM176.403 46.4556C174.944 44.7585 173.227 43.5026 171.247 42.7652C166.45 40.9756 160.843 42.5272 155.493 47.0968C144.346 56.6195 137.753 76.3813 140.806 91.2155C142.27 98.3544 145.729 103.201 150.526 104.99C155.323 106.78 160.93 105.228 166.28 100.659C177.427 91.1359 184.02 71.3741 180.967 56.54C180.074 52.3718 178.52 48.9164 176.403 46.4556Z" fill="black"/>
<path d="M225.413 105.435L225.349 105.196C225.325 104.923 225.184 104.677 224.804 104.562L221.05 103.151C220.407 102.894 219.348 103.139 218.738 103.661C218.412 103.938 218.282 104.197 218.346 104.435L218.341 104.512L218.672 106.209L221.589 106.648L224.361 106.919L225.683 106.816L225.413 105.435Z" fill="black"/>
<path d="M218.385 106.452L218.031 104.482C217.972 104.167 218.147 103.797 218.513 103.484C219.205 102.894 220.341 102.656 221.098 102.962L224.851 104.373C225.268 104.53 225.558 104.868 225.573 105.296L225.601 105.492L225.895 107.146L224.301 107.262L221.488 107.026L218.385 106.452ZM224.97 105.004C224.897 104.92 224.784 104.87 224.707 104.863L220.954 103.451C220.347 103.237 219.446 103.42 218.917 103.872C218.551 104.184 218.579 104.381 218.615 104.423L218.611 104.5L218.877 105.958L221.641 106.383L224.413 106.653L225.386 106.555L225.147 105.293C225.115 105.173 225.043 105.089 224.97 105.004Z" fill="#FDBC38"/>
<path d="M222.911 108.207L219.156 106.795C218.512 106.538 218.429 105.949 219.04 105.428C219.65 104.907 220.669 104.697 221.353 104.918L225.108 106.33C225.752 106.587 225.835 107.176 225.225 107.697C224.615 108.218 223.596 108.429 222.911 108.207Z" fill="black"/>
<path d="M218.505 106.694C218.396 106.567 218.364 106.448 218.295 106.286C218.24 105.893 218.379 105.481 218.786 105.133C219.478 104.543 220.614 104.305 221.372 104.611L225.127 106.023C225.544 106.18 225.762 106.434 225.822 106.75C225.877 107.142 225.738 107.555 225.331 107.902C224.639 108.493 223.503 108.731 222.745 108.424L218.99 107.012C218.8 106.955 218.65 106.863 218.505 106.694ZM225.319 106.739C225.246 106.655 225.133 106.605 225.019 106.555L221.264 105.143C220.657 104.929 219.756 105.112 219.227 105.564C218.982 105.772 218.892 105.996 218.92 106.192C218.948 106.388 219.138 106.446 219.252 106.496L223.007 107.908C223.614 108.122 224.515 107.939 225.044 107.487C225.288 107.278 225.378 107.055 225.387 106.901C225.391 106.824 225.355 106.781 225.319 106.739Z" fill="#FDBC38"/>
<path d="M145.667 89.697L119.444 96.3853L125.538 100.82L108.235 109.751L135.639 102.276L129.156 98.4696L145.667 89.697Z" fill="#FFC856"/>
<path d="M129.256 98.3514L136.947 94.2944L122.042 98.0775L125.646 100.696L123.551 101.821L125.428 103.176L118.102 106.995L132.704 103.026L129.038 100.832L131.375 99.5744L129.256 98.3514Z" fill="#F9E8CC"/>
<path d="M105.704 110.723L124.99 100.767L118.778 96.2804L147.872 88.8499L129.741 98.4871L136.376 102.388L105.704 110.723ZM126.081 100.874L110.749 108.785L134.937 102.209L128.567 98.451L143.39 90.5292L120.058 96.5228L126.081 100.874Z" fill="black"/>
<path d="M149.182 69.6514L115.802 49.8807L117.696 60.0969L91.2227 51.3016L126.544 71.5318L123.675 61.4906L149.182 69.6514Z" fill="#FFC856"/>
<path d="M123.729 61.4212L135.661 65.2155L116.529 53.9503L117.658 60.0165L115.529 59.3447L116.221 62.8545L104.982 59.1277L123.832 69.9013L122.216 64.2516L124.724 65.0378L123.729 61.4212Z" fill="#FAE9CC"/>
<path d="M88.7439 50.2141L117.371 59.7199L115.445 49.3868L151.434 70.6435L124.15 61.9631L127.05 72.1212L88.7439 50.2141ZM116.197 50.4246L118.059 60.52L93.7491 52.4385L126.113 70.9497L123.313 61.0713L146.958 68.6251L116.197 50.4246Z" fill="black"/>
<path d="M162.815 53.7627L150.8 29.0547L147.828 35.5875L135.536 19.8985L148.525 45.66L150.865 38.7971L162.815 53.7627Z" fill="#FFC856"/>
<path d="M146.717 34.4224L145.887 36.2234L139.512 28.0732L147.455 43.8278L148.93 39.4395L150.079 40.8575L150.766 38.8888L157.401 47.1796L149.696 31.2946L147.722 35.6727L146.717 34.4224Z" fill="#F6E5CC"/>
<path d="M148.606 46.3156L134.105 17.5785L147.785 35.0463L150.841 28.3705L164.156 55.7273L151.029 39.3099L148.606 46.3156ZM137.023 22.1934L148.491 44.9632L150.781 38.2893L161.549 51.7175L150.844 29.6736L147.918 36.0939L137.023 22.1934Z" fill="black"/>
<path d="M181.265 130.415C188.382 128.028 194.538 124.689 197.645 122.846C199.541 121.744 201.812 121.575 203.918 122.288L210.417 124.639L210.945 124.261L204.104 121.76C201.847 120.955 199.379 121.143 197.361 122.35C194.176 124.185 187.738 127.692 180.425 130.099L181.265 130.415Z" fill="#FFC856"/>
<path d="M179.984 130.567L179.546 130.719L179.852 130.828L179.984 130.567Z" fill="black"/>
<path d="M208.259 92.6079C208.259 92.6079 195.645 85.0325 184.762 88.2129C184.644 88.2403 184.525 88.2677 184.444 88.3375C182.384 93.1186 179.837 97.5796 176.896 101.418C182.111 98.6579 189.014 97.0352 197.231 99.7443C199.092 101.249 201.71 101.077 204.286 98.8759C205.808 97.4286 207.276 94.8474 208.259 92.6079Z" fill="black"/>
<path d="M236.621 104.661L245.56 108.031L243.078 111.924L240.188 114.764L237.699 116.003L235.295 116.432L231.724 115.42L225.951 113.335L229.626 112.484L232.432 110.456L235.19 107.214L236.621 104.661Z" fill="black"/>
<path d="M213.797 107.049L213.495 106.942L213.009 107.357L213.65 107.612C213.686 107.654 218.437 109.505 221.189 110.583L220.768 109.848C218.02 108.694 214.023 107.148 213.797 107.049Z" fill="#FDBC38"/>
<path d="M181.791 93.7942L180.815 94.4057C179.422 96.8613 177.877 99.2235 176.225 101.379L177.399 100.748C179.009 98.6273 180.434 96.2927 181.791 93.7942Z" fill="#FDBC38"/>
<path d="M167.846 77.5346L173.078 79.6737C173.078 79.6737 173.759 79.9729 178.541 81.8355C178.541 81.8355 178.541 81.8355 177.914 83.3254C176.259 87.2354 174.403 90.583 174.403 90.583L161.083 83.3116L162.838 83.1338L164.727 81.961L167.112 79.5568L167.846 77.5346Z" fill="black"/>
<path d="M173.94 90.2408L170.424 88.4348L170.394 88.9708L173.644 90.7123L173.94 90.2408Z" fill="#FFC856"/>
<path d="M256.353 61.3276L254.026 59.5171C254.007 59.5074 253.987 59.5171 253.978 59.5366L253.432 62.4761C253.432 62.4858 253.423 62.4956 253.413 62.4956L247.923 61.6974C246.775 62.1646 243.631 66.8854 243.456 68.1118L245.451 72.6769C245.451 72.6866 245.441 72.6963 245.432 72.6963L242.716 73.9227C242.696 73.9325 242.696 73.9617 242.706 73.9714L245.013 75.7721C245.334 76.0349 245.821 76.0836 246.405 75.85L253.286 73.0759C254.435 72.6087 255.525 71.2266 255.7 69.9904L256.732 62.6416C256.829 62.0381 256.674 61.5806 256.353 61.3276ZM247.943 67.7711C248.04 67.0995 248.634 66.3403 249.257 66.0873L252.42 64.8122L252.245 65.7563L252.741 66.1554L249.471 70.8761L248.965 70.4965L247.524 71.1487C247.505 71.1584 247.476 71.139 247.485 71.1195L247.943 67.7711Z" fill="#FFC856"/>
<path d="M245.695 76.3362C245.354 76.3362 245.052 76.2388 244.809 76.0344L242.375 74.1266L242.405 73.747L242.58 73.6497L245.033 72.5401L243.125 68.16L243.135 68.0724C243.32 66.7389 246.551 61.9013 247.797 61.4049L247.875 61.3757L253.16 62.1447L253.686 59.3025L254.036 59.1565L254.202 59.2733L256.528 61.0837C256.956 61.4147 257.132 61.9889 257.034 62.6995L256.002 70.0483C255.817 71.3818 254.649 72.8808 253.394 73.3869L246.512 76.161C246.23 76.2778 245.957 76.3362 245.695 76.3362ZM243.281 74.0293L245.208 75.538C245.461 75.7424 245.841 75.7522 246.288 75.5672L253.17 72.7932C254.211 72.3746 255.233 71.0703 255.389 69.9607L256.421 62.6119C256.489 62.1349 256.392 61.7651 256.148 61.5801L254.192 60.0617L253.696 62.7092L253.433 62.826L247.953 62.0376C246.882 62.6119 244.04 66.8752 243.767 68.0919L245.753 72.6472L245.724 72.91L245.549 73.0073L243.281 74.0293ZM247.476 71.5181L247.145 71.2942L247.155 71.0801L247.632 67.7317C247.739 66.9433 248.401 66.0965 249.14 65.8045L252.839 64.3153L252.596 65.639C252.625 65.6585 252.654 65.678 252.674 65.7072C253.014 65.9797 253.16 66.1062 253.005 66.3398L249.646 71.1774L249.51 71.1969C249.374 71.2163 249.364 71.2163 249.014 70.9438C248.985 70.9146 248.946 70.8951 248.916 70.8757L247.476 71.5181ZM252.012 65.3275L249.374 66.3885C248.848 66.6026 248.332 67.2548 248.255 67.8193L247.855 70.6518L248.829 70.2138C248.994 70.1359 249.053 70.1748 249.393 70.4376L252.313 66.223C252.304 66.2133 252.294 66.2036 252.274 66.1938C251.963 65.9505 251.875 65.8726 251.944 65.6585L252.012 65.3275Z" fill="#150035"/>
<path d="M243.379 65.3182L242.338 72.6865C242.162 73.9129 242.961 74.5359 244.109 74.0686L251.01 71.2849C252.159 70.8177 253.229 69.455 253.405 68.2285L254.446 60.8603C254.621 59.6338 253.823 59.0109 252.675 59.4781L245.774 62.2619C244.615 62.7194 243.545 64.0918 243.379 65.3182ZM250.747 62.7583C251.37 62.5052 251.799 62.8459 251.701 63.5078L251.127 67.5861C251.03 68.248 250.455 68.9878 249.832 69.2408L246.017 70.7787C245.394 71.0318 244.966 70.6911 245.063 70.0292L245.637 65.9509C245.735 65.289 246.309 64.5493 246.932 64.2962L250.747 62.7583Z" fill="white"/>
<path d="M243.389 74.536C243.058 74.536 242.766 74.4387 242.532 74.2537C242.104 73.9228 241.929 73.3485 242.026 72.638L243.068 65.2697C243.262 63.9265 244.391 62.4664 245.657 61.9603L252.558 59.1765C253.22 58.9137 253.823 58.9429 254.251 59.2739C254.68 59.6048 254.855 60.1791 254.758 60.8896L253.716 68.2579C253.531 69.6011 252.392 71.0612 251.127 71.5673L244.226 74.3511C243.924 74.4776 243.642 74.536 243.389 74.536ZM243.691 65.3573L242.649 72.7256C242.581 73.2025 242.678 73.5724 242.922 73.7573C243.165 73.9423 243.545 73.952 243.983 73.7671L250.884 70.9833C251.915 70.5647 252.928 69.2799 253.083 68.1703L254.125 60.802C254.193 60.3251 254.096 59.9552 253.852 59.7703C253.609 59.5853 253.229 59.5756 252.791 59.7605L245.89 62.5443C244.849 62.9629 243.846 64.2574 243.691 65.3573ZM245.637 71.1779C245.423 71.1779 245.238 71.1196 245.082 70.993C244.81 70.7789 244.693 70.409 244.752 69.9807L245.326 65.9024C245.433 65.1237 246.095 64.2866 246.815 63.9946L250.631 62.4567C251.039 62.2912 251.419 62.3204 251.692 62.5346C251.964 62.7487 252.081 63.1186 252.023 63.5469L251.448 67.6252C251.341 68.4039 250.679 69.241 249.959 69.533L246.143 71.0709C245.968 71.139 245.793 71.1779 245.637 71.1779ZM250.747 62.7585L250.864 63.0505L247.049 64.5884C246.533 64.8025 246.027 65.4449 245.949 65.9997L245.375 70.0781C245.345 70.2727 245.384 70.4382 245.462 70.5063C245.55 70.5745 245.705 70.5647 245.89 70.4966L249.706 68.9587C250.222 68.7446 250.728 68.1022 250.806 67.5473L251.38 63.469C251.409 63.2743 251.37 63.1089 251.292 63.0407C251.205 62.9726 251.049 62.9823 250.864 63.0505L250.747 62.7585Z" fill="#150035"/>
<path d="M252.777 69.791L252.387 70.2888L254.685 72.0908L255.075 71.5929L252.777 69.791Z" fill="#150035"/>
<path d="M246.282 64.7045L245.891 65.2024L248.189 67.0044L248.579 66.5065L246.282 64.7045Z" fill="#150035"/>
<path d="M244.98 73.5108L244.589 74.0087L246.887 75.8106L247.278 75.3128L244.98 73.5108Z" fill="#150035"/>
<path d="M254.371 61.8978L253.98 62.3956L256.278 64.1976L256.669 63.6998L254.371 61.8978Z" fill="#150035"/>
<g clip-path="url(#clip0)">
<path d="M123.262 33.8024L123.041 34.2378C121.879 33.6472 120.922 33.6401 120.292 33.962L114.735 36.8037L114.736 36.8039C114.731 36.8062 114.727 36.8084 114.723 36.8102C114.119 37.1175 113.681 37.7967 113.677 38.911C113.677 38.911 113.677 38.911 113.677 38.911L113.613 58.8747L113.124 58.8731L113.613 58.8747C113.609 60.0057 114.063 61.3026 114.837 62.4811C115.608 63.657 116.668 64.6703 117.818 65.2545L117.597 65.6901L117.818 65.2545L137.561 75.2851C138.757 75.8927 139.733 75.8815 140.363 75.5306L140.364 75.533L140.364 75.5328M123.262 33.8024L114.51 36.3702L120.07 33.527C120.886 33.1097 122.016 33.1686 123.263 33.8022L143.005 43.8329M123.262 33.8024L123.041 34.2378L142.784 44.2686L143.005 43.8329M123.262 33.8024L140.531 75.9948M140.364 75.5328L140.602 75.96L146.104 73.1463C146.91 72.7343 147.409 71.8585 147.413 70.6137L147.478 50.6499C147.486 48.1436 145.483 45.0919 143.005 43.8329M140.364 75.5328L140.363 75.5304C140.334 75.5465 140.326 75.5514 140.321 75.5543C140.318 75.5565 140.316 75.5575 140.308 75.5616L140.531 75.9948M140.364 75.5328L145.882 72.7112C146.484 72.4033 146.921 71.7244 146.925 70.6121L146.989 50.6483C146.993 49.517 146.538 48.2202 145.765 47.0417C144.994 45.866 143.934 44.8528 142.784 44.2686L143.005 43.8329M114.496 36.3779C113.691 36.7901 113.192 37.6653 113.188 38.9094L114.496 36.3779ZM114.496 36.3779L114.72 36.8118L114.496 36.3779ZM140.531 75.9948C140.531 75.9947 140.531 75.9946 140.531 75.9945L140.531 75.9948ZM114.697 36.8227L114.697 36.8226C114.697 36.8227 114.696 36.8229 114.696 36.8229L114.697 36.8227Z" fill="#007550" stroke="black" stroke-width="0.977296"/>
<path d="M125.733 53.8984L125.733 53.9001C125.708 54.1665 125.655 54.4844 125.506 54.7628M125.733 53.8984L125.075 54.5324M125.733 53.8984C125.815 53.0151 125.828 52.0891 125.693 51.0847C125.635 50.6537 125.479 50.257 125.229 49.91M125.733 53.8984L125.229 49.91M125.506 54.7628C125.506 54.7629 125.506 54.763 125.506 54.7632L125.075 54.5324M125.506 54.7628C125.506 54.7627 125.506 54.7626 125.506 54.7625L125.075 54.5324M125.506 54.7628C125.424 54.9158 125.288 55.0882 125.065 55.1698C124.832 55.2551 124.61 55.2033 124.443 55.1188M125.075 54.5324C124.975 54.7202 124.837 54.7704 124.665 54.6831M124.443 55.1188L124.665 54.6831M124.443 55.1188C124.443 55.1188 124.443 55.1188 124.443 55.1188L124.665 54.6831M124.443 55.1188C124.252 55.0217 124.085 54.8594 123.94 54.6851L123.94 54.6848C123.595 54.2693 123.357 53.8121 123.149 53.4058L124.665 54.6831M120.629 47.9744L120.628 47.9741C120.151 47.7235 119.675 47.4769 119.199 47.2349L120.629 47.9744ZM120.629 47.9744C120.878 48.1045 121.066 48.3407 121.186 48.7024M120.629 47.9744L121.186 48.7024M117.982 46.6272C117.917 46.595 117.852 46.563 117.786 46.5311L117.469 46.645L117.786 46.531L117.982 46.6272ZM117.982 46.6272C118.999 49.4386 120.129 52.2339 121.595 55.0001C122.357 56.4374 123.225 57.7943 124.337 59.0052C125.45 60.217 126.638 61.0652 127.888 61.7004C128.049 61.7821 128.211 61.8604 128.374 61.9355L128.375 61.9357C128.472 61.9805 128.549 62.0123 128.609 62.034C128.613 62 128.616 61.9608 128.618 61.9158L128.618 61.9147C128.642 61.4595 128.694 60.8651 129.029 60.4197L129.029 60.4194C129.154 60.2532 129.332 60.1135 129.565 60.0654C129.795 60.0182 130.009 60.0734 130.185 60.1628C130.185 60.1628 130.185 60.1628 130.185 60.1628L117.982 46.6272ZM117.982 46.6272C118.388 46.8262 118.793 47.0289 119.198 47.2349L117.982 46.6272ZM134.161 64.8751L134.176 64.8829L136.949 66.2932C136.938 66.2316 136.918 66.1567 136.883 66.0699C136.706 65.6307 136.47 65.1944 136.21 64.7428C135.782 64.0039 135.302 63.2976 134.81 62.5742C134.629 62.3074 134.445 62.0382 134.263 61.7641C134.263 61.764 134.263 61.7639 134.263 61.7638L134.669 61.4929L134.161 64.8751ZM134.161 64.8751L134.145 64.8685M134.161 64.8751L134.145 64.8685M134.145 64.8685C134.091 64.8454 134.036 64.8199 133.982 64.7924M134.145 64.8685L133.982 64.7924M136.638 56.1122L136.636 56.1109C136.574 56.0681 136.503 56.0305 136.409 55.9829L136.409 55.9826L133.22 54.3603L133.216 54.3582L133.216 54.3582L133.194 54.3468C133.194 54.3465 133.194 54.3463 133.193 54.3461C133.161 54.3301 133.135 54.3185 133.114 54.3103C132.929 54.6836 132.727 55.0715 132.492 55.4316C131.971 56.2334 131.349 57.0341 130.447 57.542L130.446 57.5426C130.439 57.5465 130.43 57.5518 130.42 57.5581C130.292 57.6347 129.91 57.8641 129.456 57.6335C129.456 57.6335 129.456 57.6335 129.456 57.6335L129.678 57.1979L136.638 56.1122ZM136.638 56.1122C136.883 56.2791 136.965 56.3862 136.992 56.4436C137.005 56.4718 137.023 56.5191 136.971 56.6561C136.761 57.2135 136.361 57.5687 135.858 58.0169L135.829 58.0423L136.638 56.1122ZM125.229 49.91L128.128 51.3832C128.333 51.5319 128.423 51.6404 128.475 51.7378C128.531 51.8422 128.568 51.9771 128.601 52.2265L128.592 55.9123L125.229 49.91ZM121.186 48.7024C121.707 50.2731 122.345 51.8424 123.149 53.4056L121.186 48.7024ZM133.982 64.7924C133.419 64.5063 132.935 64.0082 132.501 63.3375L133.982 64.7924ZM128.755 62.0724C128.755 62.0724 128.754 62.0724 128.753 62.0723C128.754 62.0723 128.755 62.0724 128.755 62.0724ZM124.433 49.689C124.433 49.6891 124.434 49.6884 124.436 49.687C124.434 49.6883 124.433 49.689 124.433 49.689Z" fill="white" stroke="#111010" stroke-width="0.977296"/>
<path d="M142.319 73.7673L146.82 71.4656C146.656 72.084 146.31 72.4917 145.882 72.7111C145.882 72.7111 145.882 72.7111 145.882 72.7111L142.181 74.6034C142.253 74.3425 142.3 74.0629 142.319 73.7673Z" fill="white" stroke="#16110D" stroke-width="0.977296"/>
<path d="M117.684 36.1061C117.372 35.9621 117.062 35.8496 116.758 35.7694L120.292 33.962C120.736 33.7347 121.344 33.6714 122.072 33.8618L117.684 36.1061Z" fill="#001E20" stroke="#16110D" stroke-width="0.977296"/>
<path d="M142.332 72.6626L142.393 53.7985L146.986 51.4494L146.925 70.3136L142.332 72.6626Z" fill="#001E20" stroke="#16110D" stroke-width="0.977296"/>
<path d="M137.432 46.1339L118.765 36.6503L123.263 34.3505L141.929 43.8342L137.432 46.1339Z" fill="#FBFBFE" stroke="#16110D" stroke-width="0.977296"/>
<path d="M146.98 50.3555L142.341 52.7276C142.187 51.5835 141.699 50.4052 141.01 49.3553C140.335 48.3265 139.448 47.3925 138.444 46.714L143 44.3842C144.066 44.9813 145.042 45.9401 145.765 47.0417C146.472 48.1197 146.913 49.2968 146.98 50.3555Z" fill="#F3F4FF" stroke="#16110D" stroke-width="0.977296"/>
</g>
<rect x="105.869" y="33.2605" width="48.8648" height="43.001" stroke="white"/>
<defs>
<clipPath id="clip0">
</clipPath>
</defs>
</svg>
