<svg xmlns="http://www.w3.org/2000/svg" width="360" height="304" fill="none" xmlns:v="https://vecta.io/nano"><style><![CDATA[.B{fill:#16110d}.C{fill:#fec}.D{fill:#ffc856}.E{fill:#007550}]]></style><g fill="#ff513f"><path d="M0 0h360v304H0z"/><path d="M0 0L360 37.5L0 64.5L360 304L108.5 242.5L0 0Z" style="mix-blend-mode:screen" opacity=".3"/></g><g class="D"><path d="M251.975 97.68l-8.412 4.393-35.723-65.87 8.167-4.328c.195-.133 0 0 .234-.087 1.282-.508 3.014-.265 4.886.83l28.152 16.525c3.754 2.212 6.66 7.05 6.5 10.83l-1.556 34.044c-.095 1.895-.94 3.16-2.238 3.664z"/><path d="M251.975 97.68l-8.412 4.393-35.723-65.87 8.167-4.328c.195-.133 0 0 .234-.087 1.282-.508 3.014-.265 4.886.83l28.152 16.525c3.754 2.212 6.66 7.05 6.5 10.83l-1.556 34.044c-.084 1.89-.928 3.154-2.238 3.664z"/></g><path d="M254.75 54.295c1.02 1.88 1.6 3.907 1.524 5.683l-1.555 34.044c-.094 2-1.022 3.5-2.533 4.106l-8.14 4.327-36.885-66.437 8.628-4.565c.07-.052.162-.115.3-.128 1.516-.568 3.387-.252 5.302.873l28.152 16.525c2.12 1.243 3.974 3.317 5.197 5.57zM243.784 101.4l8.022-4.18c1.147-.448 1.83-1.598 1.896-3.21l1.556-34.044c.16-3.612-2.643-8.264-6.254-10.392l-28.15-16.525c-1.668-.978-3.242-1.266-4.438-.805-.05.013-.092.037-.14.05l-.033.018-7.712 4.08 35.255 65.01z" class="B"/><path d="M246.03 98.338l1.555-34.044c.175-3.767-2.736-8.617-6.5-10.828l-28.15-16.525c-3.754-2.212-6.938-.94-7.124 2.834l-1.556 34.044c-.174 3.767 2.736 8.617 6.5 10.828l28.15 16.524c3.765 2.206 6.95.934 7.125-2.833z" class="D"/><path d="M249.27 96.913l1.555-34.044c.175-3.767-2.735-8.617-6.5-10.828l-28.15-16.525c-3.755-2.212-6.94-.94-7.125 2.834l-1.555 34.043c-.175 3.767 2.735 8.617 6.5 10.828l28.15 16.525c3.765 2.206 6.95.934 7.125-2.834z" class="C"/><path d="M246.576 58.6c1.02 1.88 1.6 3.907 1.524 5.683l-1.556 34.043c-.08 1.82-.84 3.214-2.14 3.92-1.53.83-3.628.584-5.764-.663l-28.15-16.525c-3.892-2.285-6.91-7.332-6.72-11.254l1.556-34.043c.09-1.825.84-3.214 2.14-3.92 1.53-.83 3.628-.585 5.764.663l28.15 16.525c2.11 1.25 3.974 3.316 5.197 5.57zm-40.407 20.41c1.14 2.1 2.876 4.034 4.87 5.198l28.15 16.524c1.816 1.072 3.543 1.305 4.746.65.954-.518 1.528-1.6 1.592-3.07l1.555-34.043c.16-3.612-2.648-8.274-6.253-10.392l-28.15-16.525c-1.816-1.072-3.548-1.315-4.752-.66-.954.518-1.527 1.6-1.59 3.07l-1.556 34.044c-.067 1.637.455 3.48 1.4 5.204z" class="B"/><path d="M211.154 35.393l-.123-.072-.142.02-.823.118 6.8-3.693 2.446.416 26.92 15.447 4.973 3.525 2.397 3.102-7.384 4.01-2.572-3.405-.068-.04-26.634-16.077-5.79-3.352z" fill="#fff6ef" stroke="#000" stroke-width=".824"/><path d="M247.564 63.017l8.153-4.428.167 3.595-8.143 4.422-.177-3.6zM246.15 98.87l7.73-4.198-.27 1.6-4.85 3.684-4.648 2.04 2.038-3.124z" class="B"/><path d="M229.265 69.572L217.16 62.68c-.106 3.3.766 7.184 2.703 11.015 4.22 8.376 11.846 13.327 17.043 11.056 5.192-2.282 5.983-10.917 1.775-19.298-2.632-5.242-6.6-9.135-10.48-10.76l1.064 14.878z" class="D"/><path d="M236.17 65.82l.412.785c2.78 5.512 3.515 11.502 1.934 15.603-.803 2.09-2.18 3.618-3.97 4.403-5.43 2.385-13.392-2.667-17.708-11.273-1.892-3.748-2.864-7.74-2.745-11.248l.03-.877 12.004 6.838-1.056-14.76.798.333c3.898 1.623 7.7 5.417 10.302 10.197zm-18.005 9.792c4.158 7.67 11.192 12.148 15.97 10.064 1.52-.665 2.703-1.98 3.4-3.798 1.492-3.85.762-9.52-1.893-14.804-2.316-4.607-5.8-8.338-9.427-10.16l1.076 14.98-12.18-6.93c.067 3.125.997 6.6 2.652 9.886.125.255.266.515.4.764z" class="B"/><path d="M212.97 55.86l12.103 6.892-1.07-14.888c-2.33-.98-4.618-1.138-6.567-.28-2.824 1.238-4.34 4.347-4.467 8.277z" class="D"/><path d="M221.943 48.904l1.16 16.17-13.224-7.534.012-.29c.134-4.283 1.882-7.48 4.787-8.747 2.032-.888 4.445-.786 6.99.28l.275.12zm-.017 14.308l-.978-13.606c-2.174-.85-4.187-.914-5.865-.177-2.45 1.075-3.943 3.81-4.13 7.53l10.972 6.255z" class="B"/><g fill="#000"><path d="M207.815 98.38c-6.674-3.89-17.468-3.89-24.14 0s-6.674 10.162.058 13.994c6.73 3.89 17.525 3.89 24.2 0 6.673-3.832 6.615-10.103-.116-13.994zm-2.844 12.3c-5.05 2.962-13.23 2.962-18.28 0-5.048-2.903-5.106-7.665-.058-10.568s13.173-2.903 18.222 0c5.107 2.903 5.165 7.665.116 10.568z"/><path d="M207.815 96.523c-6.674-3.89-17.468-3.89-24.14 0s-6.674 10.162.058 13.994c6.73 3.89 17.525 3.89 24.2 0 6.673-3.832 6.615-10.103-.116-13.994zm-2.844 12.3c-5.05 2.962-13.23 2.962-18.28 0-5.048-2.903-5.106-7.664-.058-10.568s13.173-2.903 18.222 0c5.107 2.904 5.165 7.607.116 10.568z"/><path d="M212.92 102.27h-2.263v3.484h2.263v-3.484zm-31.974 0h-2.263v3.484h2.263v-3.484z"/></g><path d="M207.815 95.07c-6.674-3.89-17.468-3.89-24.14 0s-6.674 10.162.058 13.995c6.73 3.9 17.525 3.9 24.2 0s6.615-10.104-.116-13.995zm-2.496 12.485c-5.223 3.02-13.695 3.02-18.976 0-5.223-3.02-5.28-7.955-.058-10.975s13.695-3.02 18.918 0c5.28 3.02 5.34 7.955.116 10.975z" fill="#fdf9e7"/><path opacity=".46" d="M205.262 98.207c-5.223-3.02-13.696-3.02-18.918 0-2.263 1.336-3.54 2.96-3.83 4.645.3 1.684 1.625 3.368 3.888 4.703 5.28 3.02 13.753 3.02 18.976 0 2.263-1.277 3.482-2.96 3.83-4.645-.406-1.742-1.683-3.368-3.946-4.703z" fill="#deded7"/><path opacity=".017" d="M193.08 83.516l-5.246.993 7.938 41.936 5.246-.993-7.938-41.936zm3.5-4.22l-3.08.583 7.938 41.935 3.08-.583-7.938-41.935z" fill="#fff"/><path d="M218.55 113.362l-7.892-4.53c-.174-.116-.406-.058-.638.058-.464.29-.87.987-.87 1.568 0 .232.116.465.233.523h.058l7.892 4.53 1.334-2.09c-.058 0-.058-.058-.116-.058z" fill="#043c5d"/><path d="M233.93 120.737l-17.64-10.162c-.35-.174-.87-.174-1.393.175-1.103.638-1.973 2.206-1.973 3.426 0 .58.174.987.522 1.22l.116.116 17.584 10.162h.058l3.017-4.704c-.116-.174-.232-.232-.3-.232z" fill="#011d1f"/><path d="M232.594 120.853c-1.103.64-2.032 2.207-2.032 3.484s.93 1.8 2.032 1.162 2.03-2.207 2.03-3.484c-.058-1.336-.93-1.86-2.03-1.162zm-17.7-4.703c.058.058.116.058.116.116l-.058-.058c0-.058 0-.058-.058-.058z" fill="#ff513f"/><g class="E"><path d="M185.03 20.645v49.698l-83.225 42.363 7.684-17.027 9.004.107 20.197-39.868 11.192 10.728 10.174-15.384 7 5.904 17.975-36.52z"/><path d="M101.803 112.706l-8.035-4.017 7.684-17.027 8.035 4.017-7.684 17.027z"/></g><path d="M101.033 112.95l-5.53-2.922 7.7-17.028 8.035 4.017-6.548 14.456-3.66 1.476z" class="C"/><path d="M110.458 91.753l8.035 4.033-9.004-.107-8.035-4.017 9.004.09z" class="E"/><path d="M112.36 93.062l8.203 4.078-9.322-.122-7.868-4.017 8.987.06z" class="C"/><path d="M130.654 51.9l8.035 4.017-20.197 39.868-8.035-4.032L130.654 51.9z" class="E"/><path d="M132.742 53.255l8.035 4.032-20.213 39.853-8.036-4.032 20.214-39.853z" class="C"/><path d="M152.02 47.23l8.035 4.033-10.173 15.384-6.716-6.437 8.854-12.98z" class="E"/><path d="M153.757 48.614l8.035 4.017-10.173 15.384-6.716-6.437 8.854-12.965z" class="C"/><path d="M176.993 16.628l8.035 4.017-17.975 36.52-7-5.904 16.94-34.634z" class="E"/><path d="M178.747 17.982l6.28 3.15v4.337L168.79 58.52l-7-5.904 16.956-34.634z" class="C"/><path d="M185.63 20.767v-.426l-.902-.44-8.035-4.033-16.94 34.634-7.968-3.987-8.737 12.797-3.976-3.82-.668-.335-8.035-4.032-20.314 40.08-9.004-.09L93 108.918l8.804 4.413.484-.243 83.36-42.425-.017-49.896zm-8.352-3.378l6.966 3.5-17.407 35.364-6.03-5.082.066-.107-.066-.03 16.47-33.644zm-33.36 42.744l8.32-12.173 6.983 3.5-9.456 14.29-5.846-5.615zm-12.98-7.487l6.982 3.5-19.712 38.88-6.983-3.5 19.713-38.88zM103.808 92.2l6.482.076L113.698 94l2.44 1.233-6.482-.06-4.778-2.404-1.07-.548zm-2.038.213l1.77.882 5.195 2.602-7.25 16.023-6.966-3.5 7.25-16.008zm1.236 19.052l6.9-15.248 8.42.09h.55l19.98-39.442 11.126 10.667 10.2-15.415 7.083 5.965 17.156-34.847v46.807l-81.405 41.42z" class="B"/><path d="M173.357 114.654l.01-.117-.016-5.885-2.803.09c-.933-.953-2.064-1.86-3.462-2.67-8.435-4.953-22.16-5.044-30.65-.197-1.405.796-2.555 1.685-3.494 2.63l-2.873-.015-.043 5.78c-.224 3.356 1.88 6.754 6.283 9.34 8.435 4.954 22.16 5.045 30.65.198 4.46-2.53 6.58-5.798 6.397-9.153z" class="D"/><path d="M170.78 108.182c-.968-.965-2.122-1.836-3.404-2.6-8.574-5.035-22.58-5.125-31.21-.208a17.31 17.31 0 0 0-3.448 2.55l-3.2-.026-.04 6.304c-.247 3.672 2.148 7.278 6.563 9.865 8.575 5.034 22.58 5.125 31.2.207 2.23-1.264 3.936-2.75 5.06-4.372 1.135-1.634 1.69-3.407 1.602-5.248l-.006-6.596-3.128.114zm-40.185 6.074l.033-5.22 2.547.016.163-.163c.95-.947 2.09-1.8 3.378-2.538 8.328-4.742 21.833-4.65 30.093.2.198.116.384.232.57.36l-13.83 8.777-.75 11.096a36.75 36.75 0 0 1-6.993-.483l.486-5.57-4.458-1.002-.486 5.478c-1.7-.554-3.306-1.25-4.75-2.096-4.03-2.355-6.227-5.577-6.003-8.852z" class="B"/><path d="M167.14 99.86c8.435 4.954 8.387 12.9-.115 17.737-8.502 4.835-22.228 4.744-30.65-.198-8.435-4.953-8.387-12.89.115-17.736 8.5-4.847 22.216-4.756 30.65.198z" class="D"/><path d="M172.332 113.713c-1.136 1.623-2.83 3.108-5.037 4.372-8.64 4.918-22.635 4.827-31.2-.208-4.252-2.505-6.587-5.832-6.562-9.398.025-3.554 2.4-6.86 6.687-9.305 8.64-4.918 22.635-4.827 31.21.208 4.253 2.494 6.588 5.832 6.563 9.398-.007 1.725-.573 3.393-1.65 4.934zm-40.25-9.54c-.95 1.354-1.446 2.812-1.454 4.304-.026 3.147 2.1 6.136 6.013 8.42 8.272 4.85 21.765 4.94 30.093.2 3.926-2.236 6.105-5.202 6.13-8.337.027-3.146-2.1-6.135-6.013-8.42-8.26-4.85-21.765-4.94-30.093-.2-2.056 1.17-3.634 2.55-4.677 4.033z" class="B"/><path d="M168.897 109.017c.033-4.936-6.862-8.983-15.4-9.04s-15.486 3.9-15.518 8.837 6.862 8.984 15.4 9.04 15.486-3.9 15.518-8.837z" class="C"/><path d="M166.637 111.374c-.823 1.18-2.053 2.254-3.644 3.156-6.202 3.536-16.252 3.47-22.416-.15-3.087-1.8-4.78-4.24-4.764-6.84s1.743-5.004 4.856-6.772c6.202-3.536 16.252-3.47 22.416.15 3.087 1.8 4.78 4.24 4.764 6.84-.01 1.27-.424 2.483-1.212 3.616zm-28.69-6.8c-.66.946-1.007 1.95-1.004 2.986-.018 2.18 1.477 4.26 4.215 5.862 5.848 3.434 15.398 3.5 21.298.14 2.753-1.57 4.27-3.636 4.29-5.815s-1.477-4.26-4.215-5.862c-5.85-3.434-15.4-3.5-21.3-.14-1.452.82-2.566 1.778-3.284 2.83z" class="B"/><path d="M158.357 103.32c3.53 2.076 3.504 5.398-.05 7.423s-9.3 1.983-12.83-.082c-3.53-2.076-3.505-5.398.05-7.423s9.3-1.983 12.83.082z" class="D"/><path d="M160.792 109.304c-.498.724-1.253 1.378-2.217 1.93-3.705 2.107-9.707 2.065-13.388-.093-1.888-1.102-2.915-2.602-2.908-4.2s1.062-3.09 2.967-4.18c3.705-2.108 9.707-2.077 13.388.092 1.888 1.102 2.915 2.603 2.908 4.21a3.95 3.95 0 0 1-.75 2.251zm-16.842-3.987c-.36.514-.544 1.062-.554 1.62-.01 1.19.832 2.34 2.358 3.245 3.367 1.984 8.88 2.016 12.272.084 1.545-.878 2.39-2.023 2.4-3.21s-.832-2.352-2.358-3.245c-3.367-1.984-8.88-2.016-12.272-.084-.813.47-1.44 1.006-1.845 1.6z" class="B"/><path d="M156.038 106.66c1.282.754 1.273 1.955-.016 2.68-1.29.738-3.36.72-4.64-.034s-1.273-1.954.016-2.68 3.36-.708 4.64.034z" class="C"/><path d="M155.61 107.756c-.208.303-.522.572-.917.806-1.463.83-3.743.814-5.2-.033-.793-.464-1.236-1.115-1.227-1.838.01-.7.45-1.364 1.252-1.82 1.463-.83 3.743-.814 5.2.033.793.464 1.236 1.115 1.227 1.838a1.89 1.89 0 0 1-.335 1.015zm-6.1-1.44c-.093.13-.14.257-.14.385.001.29.246.605.677.86 1.107.65 2.968.656 4.083.024.442-.246.685-.56.684-.853s-.245-.605-.677-.86c-1.106-.65-2.967-.657-4.082-.024-.244.14-.43.304-.546.467z" class="B"/><path d="M125.572 74.917l15.183 24.313 1.45-.908-15.183-24.314-1.45.91z" class="C"/><path d="M142.978 98.502L140.585 100l-15.77-25.257 2.392-1.498 15.77 25.257zm-2.234-.04l.848-.364L127 74.737l-.848.364 14.59 23.36z" fill="#000"/><path d="M145.657 104.496l-1.723-9.178-2.468 3.468-4.163.687 7.448 5.585c.42.314 1.012-.05.906-.562z" class="D"/><path d="M143.6 100.388l-4.163.687 5.63 4.227c.197-.117.662-.35.615-.62l-.97-5.848-1.112 1.553z" class="C"/><path d="M146.227 104.717c-.034.35-.22.664-.532.852-.395.245-.895.223-1.28-.055l-8.497-6.375 5.22-.853 3.094-4.343 1.97 10.46c.024.105.036.2.024.315zm-7.54-4.898l6.4 4.807.024-.01-1.487-7.886-1.843 2.592-3.093.498z" fill="#000"/><path d="M120.598 72.715l3.68 5.898 6.466 3.852c.384.232.86-.072.813-.515l-.66-7.48-3.68-5.898-1.113 5.585-5.506-1.442z" class="D"/><path d="M131.108 74.913l-2.208-3.548-.77 3.848-5.075-1.315 3.68 5.898 4.847 3.017c.117-.105.198-.245.185-.432l-.66-7.468z" class="C"/><path d="M125.67 73.46l-6.297-1.65 4.498 7.2 6.582 3.9c.36.21.792.208 1.152-.015.3-.187.475-.49.51-.83a.55.55 0 0 0 0-.198l-.672-7.62-4.498-7.2-1.274 6.4zm4.69 1.176l.67 7.34-6.35-3.782-.7-1.105 3.702 1.004.288-1.073-4.866-1.315-1.308-2.106 4.726 1.234.964-4.792 2.862 4.596z" fill="#000"/></svg>