<svg width="360" height="307" viewBox="0 0 360 307" fill="none" xmlns="http://www.w3.org/2000/svg">
<rect y="3" width="360" height="304" fill="#001E20"/>
<g style="mix-blend-mode:screen" opacity="0.3">
<path d="M0 0L13 169L180 259.5L360 147V307H0L79 84.5L0 0Z" fill="#001E20"/>
</g>
<path d="M148.527 110.992C147.246 115.747 143.366 116.717 143.212 116.824L143.48 117.777C143.635 117.67 148.094 116.528 149.588 111.285L148.527 110.992Z" fill="black"/>
<path d="M156.388 42.4198C158.333 40.4749 159.423 39.3844 161.368 37.4395L156.388 42.4198Z" stroke="black" stroke-width="0.996061"/>
<path d="M214.289 73.2977L218.364 68.8154H229.89L225.408 73.2977H214.289Z" fill="white" stroke="black" stroke-width="0.996061"/>
<path d="M233.583 71.3055L228.603 76.7839L242.049 79.274" stroke="black" stroke-width="0.996061"/>
<path d="M247.527 74.2937L242.547 79.772L242.049 80.7681" stroke="black" stroke-width="0.996061"/>
<path d="M243.045 114.463V112.248L247.029 110.854V113.268L243.045 114.463Z" fill="white" stroke="black" stroke-width="0.996061"/>
<path d="M138.155 28.9474L142.232 24.3995L155.638 35.9571L150.419 40.7409L138.155 28.9474Z" fill="white" stroke="black" stroke-width="0.996061"/>
<path d="M144.762 26.3375L146.64 27.8658L141.738 32.9559L140.072 31.6005L144.762 26.3375Z" fill="black" stroke="black" stroke-width="0.996061"/>
<line x1="136.206" y1="77.5264" x2="151.445" y2="40.2403" stroke="black" stroke-width="0.996061"/>
<line x1="165.412" y1="51.1501" x2="169.683" y2="43.1816" stroke="black" stroke-width="0.996061"/>
<path d="M156.388 42.4208C158.333 40.4758 159.423 39.3854 161.368 37.4405L156.388 42.4208Z" stroke="black" stroke-width="0.996061"/>
<path d="M168.1 95.11C167.375 93.696 166.65 92.2749 165.926 90.8608C162.774 87.6317 159.615 84.4026 156.464 81.1805C155.943 83.0026 155.415 84.8317 154.895 86.6538C150.617 83.4599 146.333 80.266 142.056 77.072C142.527 75.5524 143.005 74.0399 143.477 72.5203C139.98 68.7425 136.477 64.9576 132.98 61.1797C134.549 55.4391 136.118 49.6914 137.687 43.9508C139.46 37.4644 141.226 30.9781 142.998 24.4917C147.17 28.2836 151.335 32.0826 155.507 35.8745C156.295 35.3539 157.09 34.8333 157.878 34.3127C161.803 37.6333 165.729 40.9538 169.654 44.2744C168.993 46.9899 168.339 49.7055 167.678 52.421C171.427 58.7315 174.565 60.7506 176.816 61.3626C182.17 62.833 186.461 61.3626 186.461 61.3626C186.82 61.243 187.432 61.0109 188.199 60.9687C188.769 60.9335 189.747 60.9194 190.872 61.6581C191.906 62.3335 193.285 63.7405 193.194 64.5003C193.124 65.1124 192.153 64.8661 190.668 65.246C189.289 65.6048 188.234 66.3013 187.517 66.8922C186.384 67.3847 184.583 68.447 182.951 70.846C181.431 73.0902 180.854 75.3344 180.109 78.2258C179.11 82.1021 179.44 83.2488 179.581 83.6498C180.425 86.0558 182.402 86.4639 182.859 86.5553C183.788 86.7453 184.548 86.4568 185.441 85.9151C188.438 84.0719 188.945 81.7082 191.182 80.0971C192.089 79.4429 193.489 78.7675 195.537 78.8589C197.288 80.076 199.42 81.8066 201.699 84.2548C204.485 87.2518 206.603 90.3613 208.115 92.8799C209.424 95.0748 210.936 97.9381 212.386 101.498C214.102 105.705 215.186 109.567 215.882 112.585C216.086 113.669 216.36 115.645 216.058 117.854C215.854 119.318 215.565 121.435 214.412 122.111C213.216 122.807 211.457 121.745 210.05 119.508C210.015 119.916 209.769 122.568 208.284 123.574C206.68 124.657 204.267 123.398 202.726 120.253C202.691 120.507 202.227 123.771 200.06 124.629C198.534 125.234 196.754 124.411 195.452 122.498C195.382 122.772 194.573 125.917 192.519 126.142C190.408 126.374 188.269 123.363 187.706 120.774C187.235 118.572 188.065 117.475 187.32 115.498C186.679 113.802 185.927 114.006 185.216 112.459C184.112 110.046 185.701 108.048 184.864 106.099C184.126 104.375 182.62 105.015 179.933 103.229C179.553 102.975 178.399 101.765 176.106 99.3944C173.073 96.2638 172.356 95.4477 171.125 95.0256C169.865 94.6035 168.803 94.8427 168.1 95.11Z" fill="white" stroke="black" stroke-width="1.49409" stroke-miterlimit="10"/>
<path d="M247.824 73.9461C247.767 87.4957 247.711 101.045 247.655 114.595C244.193 114.968 240.739 115.334 237.278 115.706C236.997 117.149 236.715 118.591 236.427 120.033C232.579 119.632 228.73 119.231 224.882 118.83C224.333 116.319 223.792 113.8 223.243 111.288C220.907 111.436 218.579 111.577 216.243 111.725C215.293 107.588 213.141 99.8283 208.476 92.0193C203.664 83.9571 198.564 79.8416 195.898 77.9984C194.828 77.9702 193.203 78.125 191.543 79.2365C188.806 81.0727 188.56 83.7671 185.802 85.0546C185.176 85.343 182.489 86.5952 180.927 84.4495C179.689 82.74 179.78 79.7431 179.808 78.927C180.055 71.2869 180.927 65.3302 188.261 60.3499C188.261 60.3499 192.922 63.1754 197.41 63.3513C201.575 67.8327 205.74 72.314 209.904 76.7954C213.021 76.4647 216.145 76.1341 219.261 75.8034C219.296 73.1512 219.331 70.506 219.374 67.8538C223.433 67.8678 227.485 67.8819 231.544 67.896C231.896 69.0427 232.248 70.1894 232.6 71.3361C237.679 72.2085 242.751 73.0738 247.824 73.9461Z" fill="white" stroke="black" stroke-width="1.49409" stroke-miterlimit="10"/>
<path d="M219.638 80.2712L224.618 74.2948" stroke="black" stroke-width="1.49409" stroke-miterlimit="10"/>
<path d="M183.922 127.687C181.559 129.221 178.991 127.715 178.132 125.309C177.387 123.227 178.104 120.961 178.21 120.624C176.754 121.278 175.044 120.356 174.017 118.394C173.095 116.642 172.863 114.334 173.419 112.505C171.618 112.597 170.584 111.872 169.965 110.908C169.015 109.431 169.472 108.031 168.452 106.075C167.242 103.761 165.751 104.119 165.181 102.452C164.85 101.481 164.829 99.828 166.384 96.8592C166.581 96.7044 167.833 95.8039 169.409 96.7818C171.259 97.9356 171.935 100.672 171.998 100.933C172.434 100.869 173.806 100.75 175.311 102.107C177.309 103.908 177.964 106.891 178.069 107.391C179.441 105.667 181.355 105.639 182.529 106.997C184.056 108.77 184.584 113.209 182.726 115.917C182.79 115.861 183.761 115.066 184.823 115.959C185.709 116.705 186.272 118.309 186.145 119.857C185.4 122.467 184.661 125.077 183.922 127.687Z" fill="white" stroke="black" stroke-width="1.49409" stroke-miterlimit="10"/>
<path d="M163.119 100.524C162.395 99.1101 161.67 97.689 160.945 96.275C157.794 93.0459 154.635 89.8168 151.483 86.5947C150.963 88.4168 150.435 90.2459 149.914 92.068C145.637 88.8741 141.353 85.6801 137.075 82.4862C137.547 80.9666 138.025 79.4541 138.496 77.9345C135 74.1566 131.496 70.3718 128 66.5939C129.569 60.8533 131.138 55.1056 132.706 49.365C134.479 42.8786 136.245 36.3922 138.018 29.9059C142.19 33.6978 146.355 37.4967 150.526 41.2887C151.314 40.7681 152.109 40.2475 152.897 39.7269C156.823 43.0474 160.748 46.368 164.674 49.6886C164.013 52.4041 163.358 55.1197 162.697 57.8352C166.447 64.1457 169.584 66.1648 171.836 66.7768C177.189 68.2472 181.481 66.7768 181.481 66.7768C181.84 66.6572 182.452 66.4251 183.218 66.3829C183.788 66.3477 184.766 66.3336 185.892 67.0723C186.926 67.7477 188.305 69.1547 188.213 69.9145C188.143 70.5265 187.172 70.2803 185.688 70.6602C184.309 71.019 183.254 71.7155 182.536 72.3064C181.403 72.7989 179.602 73.8612 177.97 76.2601C176.451 78.5043 175.874 80.7485 175.128 83.6399C174.129 87.5163 174.46 88.663 174.6 89.064C175.445 91.47 177.422 91.8781 177.879 91.9695C178.807 92.1595 179.567 91.871 180.461 91.3293C183.458 89.4861 183.964 87.1223 186.201 85.5113C187.109 84.857 188.509 84.1817 190.556 84.2731C192.308 85.4902 194.439 87.2208 196.719 89.669C199.505 92.666 201.622 95.7755 203.135 98.2941C204.443 100.489 205.956 103.352 207.405 106.912C209.122 111.119 210.205 114.981 210.902 117.999C211.106 119.083 211.38 121.06 211.077 123.269C210.873 124.732 210.585 126.85 209.431 127.525C208.235 128.221 206.477 127.159 205.07 124.922C205.034 125.33 204.788 127.982 203.304 128.988C201.7 130.072 199.287 128.812 197.746 125.668C197.711 125.921 197.246 129.185 195.08 130.043C193.553 130.648 191.773 129.825 190.472 127.912C190.401 128.186 189.592 131.331 187.538 131.556C185.428 131.788 183.289 128.777 182.726 126.188C182.255 123.986 183.085 122.889 182.339 120.912C181.699 119.216 180.946 119.42 180.236 117.873C179.131 115.46 180.721 113.462 179.884 111.513C179.145 109.789 177.64 110.43 174.952 108.643C174.572 108.389 173.419 107.179 171.125 104.809C168.093 101.678 167.375 100.862 166.144 100.44C164.878 100.018 163.823 100.257 163.119 100.524Z" fill="white" stroke="black" stroke-width="1.49409" stroke-miterlimit="10"/>
<path d="M242.453 80.2211C242.396 93.7707 242.34 107.32 242.284 120.87C238.822 121.243 235.368 121.609 231.907 121.981C231.625 123.424 231.344 124.866 231.056 126.308C227.207 125.907 223.359 125.506 219.511 125.105C218.962 122.594 218.421 120.075 217.872 117.563C215.536 117.711 213.208 117.852 210.872 118C209.922 113.863 207.769 106.103 203.105 98.2943C198.293 90.2321 193.193 86.1166 190.526 84.2734C189.457 84.2452 187.832 84.4 186.172 85.5115C183.435 87.3477 183.189 90.0421 180.431 91.3296C179.805 91.618 177.118 92.8703 175.556 90.7246C174.318 89.015 174.409 86.0181 174.437 85.202C174.683 77.5619 180.635 73.5659 182.506 72.3067C184.364 71.0614 187.551 69.4504 192.039 69.6263C196.204 74.1076 200.369 78.589 204.533 83.0704C207.65 82.7397 210.773 82.4091 213.89 82.0784C213.925 79.4262 213.96 76.781 214.003 74.1288C218.062 74.1428 222.114 74.1569 226.173 74.171C226.525 75.3177 226.877 76.4644 227.229 77.6111C232.308 78.4835 237.38 79.3488 242.453 80.2211Z" fill="white" stroke="black" stroke-width="1.49409" stroke-miterlimit="10"/>
<path d="M180.658 131.359C178.294 132.893 175.726 131.387 174.868 128.981C174.122 126.899 174.84 124.633 174.945 124.296C173.489 124.95 171.779 124.028 170.752 122.065C169.831 120.314 169.599 118.006 170.154 116.177C168.353 116.269 167.319 115.544 166.7 114.58C165.75 113.103 166.208 111.703 165.188 109.747C163.977 107.432 162.486 107.791 161.916 106.124C161.586 105.153 161.564 103.5 163.119 100.531C163.316 100.376 164.568 99.4758 166.144 100.454C167.995 101.607 168.67 104.344 168.733 104.604C169.169 104.541 170.541 104.421 172.047 105.779C174.045 107.58 174.699 110.563 174.804 111.063C176.176 109.339 178.09 109.311 179.265 110.669C180.791 112.441 181.319 116.881 179.462 119.589C179.525 119.533 180.496 118.738 181.558 119.631C182.445 120.377 183.007 121.981 182.881 123.529C182.135 126.132 181.396 128.742 180.658 131.359Z" fill="white" stroke="black" stroke-width="1.49409" stroke-miterlimit="10"/>
<path d="M231.915 121.981C231.634 123.423 231.352 124.866 231.064 126.308C227.216 125.907 223.368 125.506 219.519 125.105C218.971 122.593 218.429 120.075 217.88 117.563C216.586 103.085 215.298 88.6066 214.004 74.1284C218.063 74.1425 222.115 74.1566 226.175 74.1706C226.526 75.3173 226.878 76.4641 227.23 77.6108C231.113 78.2721 234.99 78.9404 238.873 79.6017C240.062 79.8057 241.258 80.0098 242.447 80.2138C242.391 93.7634 242.334 107.313 242.278 120.863C238.831 121.242 235.377 121.608 231.915 121.981Z" fill="#FCC956" stroke="black" stroke-width="1.49409" stroke-miterlimit="10"/>
<path d="M136.189 78.5254C136.175 80.1576 136.161 81.7897 136.147 83.4219C140.248 86.7495 144.343 90.0771 148.444 93.4047C149.556 91.5615 150.66 89.7183 151.772 87.8751C156.225 75.4863 160.685 63.0975 165.138 50.7087C160.903 46.8183 156.675 42.9278 152.44 39.0374C151.828 39.7761 151.216 40.5218 150.604 41.2605C146.411 37.4756 142.211 33.6908 138.018 29.9059C136.245 36.3922 134.479 42.8786 132.706 49.365C131.138 55.1056 129.569 60.8533 128 66.5939C130.723 70.5687 133.459 74.5506 136.189 78.5254Z" fill="#FCC956" stroke="black" stroke-width="1.49409" stroke-miterlimit="10"/>
<path d="M162.69 57.8286L151.476 86.5881" stroke="black" stroke-width="1.49409" stroke-miterlimit="10"/>
<path d="M191.748 69.3145L196.728 63.3381" stroke="black" stroke-width="1.49409" stroke-miterlimit="10"/>
<path d="M163.533 57.8114L168.34 49.393" stroke="black" stroke-width="1.49409" stroke-miterlimit="10"/>
<path d="M242.547 86.2475L247.527 80.2711" stroke="black" stroke-width="1.49409" stroke-miterlimit="10"/>
<path d="M204.696 82.2632L209.677 76.2869" stroke="black" stroke-width="1.49409" stroke-miterlimit="10"/>
<path d="M182.509 66.0753L188.037 60.6015" stroke="black" stroke-width="1.49409" stroke-miterlimit="10"/>
<path d="M213.898 82.0785L217.887 117.564" stroke="black" stroke-width="1.49409" stroke-miterlimit="10"/>
<path d="M243.045 121.012V80.6942L247.063 75.2612L248.02 116.686L243.045 121.012Z" fill="black" stroke="black" stroke-width="0.996061"/>
<path d="M243.045 115.947V111.553L248.025 107.255V111.114L243.045 115.947Z" fill="white" stroke="black" stroke-width="0.996061"/>
<path d="M228.219 76.8132L226.705 73.408L231.014 69.0991L232.471 71.2848L228.219 76.8132Z" fill="black" stroke="black" stroke-width="0.996061"/>
<path d="M192.41 69.2956L196.747 64.0915L208.515 76.8002L204.184 81.9612L192.41 69.2956Z" fill="black" stroke="black" stroke-width="0.996061"/>
<path d="M194.618 71.8104L199.43 67.1351L201.752 69.5046L196.955 74.1571L194.618 71.8104Z" fill="white" stroke="black" stroke-width="0.996061"/>
<path d="M212.113 118.572L215.598 118.18L215.598 120.863L211.298 125.097L212.113 118.572Z" fill="#030309" stroke="black" stroke-width="0.996061"/>
<path d="M181.892 127.025L182.497 127.025L183.609 128.924L180.689 130.87L181.892 127.025Z" fill="#030309" stroke="black" stroke-width="0.996061"/>
<path d="M151.793 88.5948L152.587 88.5316L153.691 90.5785L150.028 93.1387L151.793 88.5948Z" fill="#030309" stroke="black" stroke-width="0.996061"/>
<line x1="253.005" y1="75.2763" x2="254.001" y2="112.131" stroke="black" stroke-width="0.996061"/>
<path d="M148.349 106.432C148.535 109.19 147.615 111.461 145.972 112.921L145.972 112.921L145.525 113.319C146.249 111.96 146.595 110.313 146.471 108.477L146.471 108.477C146.073 102.782 141.218 97.3623 135.618 96.3637C133.856 96.0473 132.22 96.2103 130.815 96.765L131.257 96.3711L131.257 96.3709M148.349 106.432L131.257 96.3709M148.349 106.432C147.965 100.943 143.263 95.6964 137.869 94.7345C135.198 94.2647 132.874 94.9342 131.257 96.3709M148.349 106.432L131.257 96.3709M146.123 113.091L145.133 113.972L148.575 106.416C148.766 109.234 147.825 111.578 146.123 113.091ZM143.803 115.157L143.792 115.167L143.803 115.157Z" fill="black" stroke="#16110D" stroke-width="0.454362"/>
<path d="M126.555 104.943C126.364 102.208 127.283 99.9431 128.9 98.4806C130.518 97.0182 132.856 96.3383 135.543 96.8176C140.937 97.7794 145.639 103.027 146.023 108.515C146.214 111.25 145.295 113.515 143.678 114.978C142.06 116.44 139.722 117.12 137.034 116.641C131.634 115.672 126.938 110.431 126.555 104.943Z" fill="#EDEDED" stroke="#16110D" stroke-width="0.454362"/>
<path d="M144.592 108.991L144.592 108.991C144.426 106.564 143.327 104.091 141.477 102.026C139.632 99.9672 137.294 98.604 134.916 98.172L144.592 108.991ZM144.592 108.991C144.75 111.176 144.117 112.984 142.86 114.109C141.621 115.22 139.776 115.656 137.65 115.272L137.649 115.272M144.592 108.991L137.649 115.272M137.649 115.272C135.263 114.848 132.94 113.484 131.089 111.418C129.238 109.353 128.139 106.879 127.973 104.453L127.973 104.452M137.649 115.272L127.973 104.452M127.973 104.452C127.815 102.268 128.448 100.46 129.705 99.3344M127.973 104.452L129.705 99.3344M129.705 99.3344C130.944 98.2243 132.789 97.7884 134.915 98.1719L129.705 99.3344Z" fill="#3C3C3B" stroke="#16110D" stroke-width="0.454362"/>
<path d="M145.149 108.494L145.149 108.493C144.983 106.067 143.884 103.594 142.033 101.528C140.189 99.4694 137.851 98.1062 135.472 97.6742L145.149 108.494ZM145.149 108.494C145.306 110.678 144.674 112.486 143.417 113.612C142.178 114.722 140.332 115.158 138.206 114.774L138.206 114.774M145.149 108.494L138.206 114.774M138.206 114.774C135.819 114.35 133.496 112.986 131.645 110.92C129.795 108.855 128.696 106.382 128.53 103.955L128.53 103.955M138.206 114.774L128.53 103.955M128.53 103.955C128.372 101.77 129.005 99.9625 130.262 98.8366M128.53 103.955L130.262 98.8366M130.262 98.8366C131.501 97.7265 133.346 97.2906 135.472 97.6741L130.262 98.8366Z" fill="#FFC856" stroke="#16110D" stroke-width="0.454362"/>
<path d="M137.832 112.932L137.887 113.711L137.363 114.173L137.311 113.398L137.832 112.932Z" fill="#3C3C3B" stroke="#16110D" stroke-width="0.454362"/>
<path d="M135.269 109.147L135.269 109.147L135.269 109.149C135.308 109.753 135.537 110.521 136.32 110.969L135.733 111.495C135.026 111.166 134.816 110.532 134.774 109.968L134.759 109.715L134.749 109.536L134.572 109.504L133.12 109.249L133.638 108.785L135.264 109.071L135.269 109.147Z" fill="#3C3C3B" stroke="#16110D" stroke-width="0.454362"/>
<path d="M137.71 111.174L137.322 111.522C137.287 111.554 137.243 111.584 137.188 111.61L136.971 108.505L137.491 108.04L137.703 111.079L137.71 111.174Z" fill="#3C3C3B" stroke="#16110D" stroke-width="0.454362"/>
<path d="M137.3 105.327L137.307 105.422L137.379 105.484L137.588 105.662C137.588 105.662 137.588 105.662 137.588 105.662C139.05 106.922 140.456 108.144 140.577 109.955L140.577 109.956C140.645 110.908 140.399 111.461 140.039 111.784L140.032 111.79C140.091 111.494 140.109 111.156 140.082 110.774C139.941 108.757 138.397 107.426 136.985 106.209C136.969 106.195 136.952 106.181 136.936 106.167L136.935 106.166L136.799 106.05L136.494 101.661L137.013 101.196L137.3 105.327Z" fill="#3C3C3B" stroke="#16110D" stroke-width="0.454362"/>
<path d="M134.874 101.897L134.874 101.897L134.874 101.902C134.934 102.739 135.35 103.455 135.923 104.102L135.315 104.646C134.788 104.039 134.43 103.417 134.379 102.722C134.36 102.326 134.424 101.992 134.633 101.804L134.874 101.589C134.868 101.695 134.869 101.799 134.874 101.897Z" fill="#3C3C3B" stroke="#16110D" stroke-width="0.454362"/>
<path d="M134.888 99.7582C134.556 99.731 134.218 99.7302 133.893 99.7735C134.257 99.4783 134.769 99.3563 135.346 99.3477L134.888 99.7582Z" fill="#3C3C3B" stroke="#16110D" stroke-width="0.454362"/>
<path d="M135.379 98.8175L135.897 98.3539L136.822 98.5155L136.886 99.3797L136.898 99.5419L137.056 99.5827C137.794 99.7744 138.534 100.098 139.104 100.631C139.669 101.159 140.079 101.903 140.152 102.968L140.152 102.968L140.18 103.374L139.66 103.84L139.657 103.787C139.657 103.787 139.657 103.787 139.657 103.787C139.577 102.608 139.115 101.756 138.466 101.148C137.864 100.586 137.112 100.243 136.379 100.035L136.313 99.1548L136.3 98.9784L136.126 98.9479L135.379 98.8175Z" fill="#3C3C3B" stroke="#16110D" stroke-width="0.454362"/>
<path d="M134.943 100.22L135.211 100.245L135.191 99.9766L135.135 99.2267L135.881 99.3571L135.946 100.221L135.958 100.383L136.115 100.424C136.854 100.616 137.593 100.939 138.163 101.472C138.728 102 139.139 102.745 139.211 103.809L139.211 103.81L139.227 104.037L137.776 103.782L137.743 103.304C137.743 103.304 137.743 103.304 137.743 103.304C137.698 102.616 137.398 101.758 136.346 101.341L136.01 101.208L136.035 101.568L136.355 106.162L136.361 106.257L136.434 106.319L136.642 106.497C136.642 106.497 136.642 106.497 136.643 106.497C138.104 107.757 139.504 108.973 139.631 110.791L139.631 110.791C139.705 111.852 139.395 112.422 138.952 112.73C138.49 113.051 137.823 113.128 137.104 113.069L136.84 113.048L136.859 113.312L136.934 114.376L136.188 114.246L136.11 113.076L136.099 112.913L135.941 112.872C135.21 112.679 134.476 112.358 133.909 111.826C133.379 111.329 132.984 110.638 132.881 109.665L134.329 109.919L134.334 109.995L134.334 109.995L134.334 109.999C134.385 110.683 134.668 111.572 135.71 111.971L136.042 112.098L136.018 111.743L135.698 107.185L135.692 107.094L135.624 107.033C135.618 107.027 135.612 107.022 135.605 107.016C135.526 106.944 135.433 106.859 135.335 106.786C133.875 105.528 132.479 104.313 132.352 102.497L132.352 102.496C132.274 101.422 132.591 100.849 133.046 100.543C133.522 100.222 134.207 100.151 134.943 100.22ZM135.139 105.116L135.576 105.578L135.531 104.944L135.277 101.376L135.26 101.138L135.024 101.167C134.56 101.223 134.258 101.451 134.09 101.769C133.931 102.071 133.906 102.43 133.933 102.745C133.995 103.673 134.494 104.433 135.139 105.116ZM138.029 110.541L138.029 110.541C137.974 109.656 137.5 108.923 136.905 108.259L136.463 107.766L136.51 108.427L136.754 111.929L136.772 112.182L137.022 112.136C137.455 112.057 137.729 111.817 137.88 111.504C138.024 111.204 138.048 110.853 138.029 110.541Z" fill="#EDEDED" stroke="#16110D" stroke-width="0.454362"/>
<path d="M213.554 47.5049C214.823 45.7047 215.471 43.3557 215.289 40.6587L213.554 47.5049Z" fill="black" stroke="#16110D" stroke-width="0.454362"/>
<path d="M190.656 36.2325C190.417 32.8037 191.569 29.9586 193.602 28.12C195.635 26.2816 198.572 25.4297 201.942 26.0306C208.7 27.2357 214.588 33.8066 215.069 40.6829C215.309 44.1117 214.157 46.9568 212.123 48.7954C210.09 50.6338 207.153 51.4857 203.783 50.8848C197.017 49.6712 191.137 43.1086 190.656 36.2325Z" fill="#EDEDED" stroke="#16110D" stroke-width="0.454362"/>
<path d="M213.284 41.2793L213.283 41.2784C213.075 38.2359 211.697 35.1374 209.38 32.5511C207.071 29.9734 204.142 28.2647 201.159 27.7229L213.284 41.2793ZM213.284 41.2793C213.481 44.0182 212.688 46.2937 211.103 47.7136C209.54 49.1137 207.218 49.6591 204.551 49.178L204.551 49.1779M213.284 41.2793L204.551 49.1779M204.551 49.1779C201.558 48.6463 198.648 46.9365 196.33 44.3497C194.013 41.7635 192.635 38.665 192.427 35.6225L192.427 35.6216M204.551 49.1779L192.427 35.6216M192.427 35.6216C192.229 32.8827 193.022 30.6072 194.607 29.1873M192.427 35.6216L194.607 29.1873M194.607 29.1873C196.17 27.7872 198.493 27.2418 201.159 27.7228L194.607 29.1873Z" fill="#3C3C3B" stroke="#16110D" stroke-width="0.454362"/>
<path d="M213.978 40.6562L213.978 40.6553C213.77 37.6128 212.392 34.5143 210.075 31.9281C207.765 29.3503 204.836 27.6416 201.853 27.0998L213.978 40.6562ZM213.978 40.6562C214.175 43.3951 213.382 45.6706 211.798 47.0906C210.235 48.4906 207.912 49.036 205.246 48.5549L205.245 48.5548M213.978 40.6562L205.245 48.5548M205.245 48.5548C202.252 48.0233 199.342 46.3135 197.025 43.7267C194.707 41.1405 193.33 38.042 193.121 34.9994L193.121 34.9986M205.245 48.5548L193.121 34.9986M193.121 34.9986C192.924 32.2596 193.717 29.9841 195.302 28.5642M193.121 34.9986L195.302 28.5642M195.302 28.5642C196.864 27.1642 199.187 26.6188 201.853 27.0998L195.302 28.5642Z" fill="#FFC856" stroke="#16110D" stroke-width="0.454362"/>
<path d="M204.836 46.0806L204.915 47.1961L204.154 47.8678L204.081 46.7576L204.836 46.0806Z" fill="#3C3C3B" stroke="#16110D" stroke-width="0.454362"/>
<path d="M201.644 41.4701L201.644 41.4701L201.644 41.4718C201.694 42.2329 201.985 43.1958 202.997 43.7369L202.178 44.4709C201.242 44.0535 200.968 43.2259 200.914 42.5022L200.895 42.1857L200.885 42.0063L200.708 41.9752L198.781 41.6362L199.535 40.9613L201.636 41.331L201.644 41.4701Z" fill="#3C3C3B" stroke="#16110D" stroke-width="0.454362"/>
<path d="M204.693 44.0283L204.189 44.4804C204.124 44.5384 204.04 44.5898 203.933 44.6316L203.655 40.6495L204.41 39.9731L204.683 43.8812L204.693 44.0283Z" fill="#3C3C3B" stroke="#16110D" stroke-width="0.454362"/>
<path d="M204.18 36.7014L204.187 36.7966L204.259 36.8585L204.39 36.9699L204.52 37.0806C204.52 37.0807 204.52 37.0808 204.52 37.081C206.34 38.65 208.117 40.1909 208.27 42.479L208.27 42.4802C208.356 43.6789 208.047 44.3891 207.58 44.8074L207.44 44.933C207.542 44.5298 207.579 44.0574 207.539 43.5083C207.366 41.0141 205.455 39.3675 203.686 37.8429C203.668 37.8276 203.65 37.8122 203.633 37.7969L203.632 37.7962L203.501 37.6848L203.443 37.6352L203.059 32.1065L203.814 31.4302L204.18 36.7014Z" fill="#3C3C3B" stroke="#16110D" stroke-width="0.454362"/>
<path d="M201.151 32.4231L201.151 32.4231L201.152 32.4277C201.226 33.4739 201.754 34.369 202.484 35.182L201.641 35.9375C200.958 35.161 200.487 34.3608 200.421 33.4582C200.397 32.9613 200.475 32.5204 200.757 32.2679L201.163 31.904C201.144 32.0808 201.143 32.2575 201.151 32.4231Z" fill="#3C3C3B" stroke="#16110D" stroke-width="0.454362"/>
<path d="M201.132 29.8132C200.646 29.7718 200.151 29.7759 199.687 29.8597L199.766 29.7886C200.268 29.3393 201.009 29.1769 201.832 29.1858L201.132 29.8132Z" fill="#3C3C3B" stroke="#16110D" stroke-width="0.454362"/>
<path d="M201.601 28.6169L202.354 27.9424L203.579 28.1563L203.663 29.2789L203.675 29.441L203.832 29.4818C204.76 29.7225 205.692 30.1292 206.413 30.8031C207.128 31.4721 207.647 32.4152 207.738 33.758L207.739 33.7583L207.776 34.2928L207.021 34.969L207.008 34.7877C207.008 34.7876 207.008 34.7876 207.008 34.7875C206.909 33.3308 206.34 32.2798 205.539 31.5316C204.787 30.8284 203.842 30.4021 202.92 30.1449L202.835 29.0065L202.822 28.83L202.648 28.7996L201.601 28.6169Z" fill="#3C3C3B" stroke="#16110D" stroke-width="0.454362"/>
<path d="M201.186 30.274L201.454 30.2988L201.434 30.0309L201.359 29.0227L202.405 29.2054L202.489 30.328L202.501 30.4901L202.658 30.531C203.585 30.7716 204.518 31.1783 205.239 31.8522C205.954 32.5212 206.473 33.4643 206.564 34.8071L206.564 34.8074L206.589 35.1629L204.663 34.8241L204.62 34.184C204.62 34.184 204.62 34.184 204.62 34.1839C204.564 33.3386 204.197 32.2922 202.911 31.7817L202.575 31.6486L202.6 32.0086L202.999 37.7433L203.005 37.8385L203.078 37.9004L203.208 38.0119L203.338 38.1225C203.338 38.1226 203.338 38.1228 203.339 38.1229C205.158 39.6916 206.928 41.2245 207.088 43.5216L207.088 43.5216C207.181 44.8592 206.791 45.5929 206.217 45.9913C205.623 46.4034 204.775 46.4989 203.873 46.425L203.61 46.4034L203.628 46.6674L203.727 48.068L202.681 47.8853L202.581 46.3816L202.57 46.2185L202.412 46.1769C201.494 45.9354 200.568 45.5304 199.852 44.8584C199.166 44.2154 198.66 43.3177 198.543 42.0508L200.468 42.3896L200.476 42.5286L200.476 42.5286L200.477 42.5323C200.539 43.3753 200.886 44.4588 202.158 44.9456L202.49 45.073L202.466 44.7176L202.067 39.0286L202.061 38.9376L201.993 38.8762C201.985 38.8693 201.978 38.8622 201.97 38.8551C201.87 38.7644 201.755 38.6594 201.634 38.5698C199.816 37.0028 198.05 35.4708 197.89 33.1762L197.89 33.1755C197.792 31.8214 198.192 31.0837 198.781 30.6868C199.391 30.2756 200.263 30.1884 201.186 30.274ZM201.467 36.4026L201.903 36.8648L201.858 36.2305L201.542 31.7779L201.525 31.5399L201.288 31.5684C200.727 31.6359 200.366 31.9107 200.166 32.2901C199.974 32.654 199.943 33.0902 199.976 33.478C200.053 34.6178 200.665 35.5546 201.467 36.4026ZM204.976 43.2166L204.976 43.2162C204.908 42.1306 204.327 41.2273 203.588 40.4027L203.146 39.9094L203.192 40.5701L203.498 44.9415L203.515 45.1951L203.765 45.1491C204.287 45.0531 204.615 44.766 204.795 44.3908C204.969 44.0293 205 43.6018 204.976 43.2166Z" fill="#EDEDED" stroke="#16110D" stroke-width="0.454362"/>
<path d="M191.373 28.0531C188.125 31.2131 188.906 34.4818 188.883 34.6439L188.023 34.8963C188.045 34.7342 187.17 30.9648 190.719 27.4211L191.373 28.0531Z" fill="black"/>
<path d="M218.413 44.8641C216.726 51.1278 211.615 52.4054 211.411 52.5458L211.765 53.8014C211.969 53.6609 217.843 52.1568 219.81 45.2495L218.413 44.8641Z" fill="black"/>
<path d="M116.051 73.6628C114.909 73.4577 113.82 73.472 112.821 73.6791C114.159 72.749 115.943 72.3458 117.974 72.7031C122.677 73.5421 126.791 78.1325 127.126 82.9193C127.269 85.0296 126.665 86.793 125.562 88.0343C125.893 87.0341 126.032 85.9145 125.95 84.7117L125.95 84.7107C125.587 79.5103 121.167 74.5749 116.051 73.6628Z" fill="#030309" stroke="#16110D" stroke-width="0.908724"/>
<path d="M107.937 81.5703C107.767 79.1344 108.585 77.1189 110.023 75.8184C111.462 74.5179 113.542 73.9122 115.936 74.3391C120.742 75.1961 124.933 79.873 125.275 84.7635C125.445 87.1995 124.627 89.215 123.188 90.5155C121.75 91.816 119.67 92.4217 117.276 91.9948C112.464 91.1317 108.279 86.4607 107.937 81.5703Z" fill="#EDEDED" stroke="#16110D" stroke-width="0.454362"/>
<path d="M123.998 85.1899L123.998 85.1891C123.85 83.0284 122.871 80.8247 121.221 78.9835C119.577 77.1484 117.494 75.9342 115.376 75.5494L123.998 85.1899ZM123.998 85.1899C124.138 87.1353 123.574 88.7416 122.459 89.7409C121.359 90.7261 119.719 91.1148 117.826 90.7732L117.825 90.7731M123.998 85.1899L117.825 90.7731M117.825 90.7731C115.7 90.3956 113.63 89.1807 111.98 87.3391C110.331 85.4979 109.352 83.2942 109.204 81.1335L109.204 81.1326M117.825 90.7731L109.204 81.1326M109.204 81.1326C109.064 79.1873 109.627 77.5809 110.743 76.5817M109.204 81.1326L110.743 76.5817M110.743 76.5817C111.842 75.5965 113.482 75.2078 115.375 75.5493L110.743 76.5817Z" fill="#3C3C3B" stroke="#16110D" stroke-width="0.454362"/>
<path d="M124.495 84.7445L124.495 84.7436C124.347 82.5829 123.368 80.3792 121.718 78.5381C120.074 76.703 117.991 75.4887 115.873 75.1039L124.495 84.7445ZM124.495 84.7445C124.635 86.6898 124.071 88.2962 122.956 89.2954C121.856 90.2807 120.216 90.6694 118.323 90.3277L118.322 90.3276M124.495 84.7445L118.322 90.3276M118.322 90.3276C116.197 89.9502 114.127 88.7353 112.477 86.8936C110.828 85.0525 109.849 82.8488 109.701 80.688L109.701 80.6872M118.322 90.3276L109.701 80.6872M109.701 80.6872C109.561 78.7419 110.124 77.1355 111.24 76.1362M109.701 80.6872L111.24 76.1362M111.24 76.1362C112.339 75.1511 113.979 74.7623 115.872 75.1039L111.24 76.1362Z" fill="#FFC856" stroke="#16110D" stroke-width="0.454362"/>
<path d="M117.96 88.7569L118.005 89.3915L117.583 89.7639L117.541 89.1322L117.96 88.7569Z" fill="#3C3C3B" stroke="#16110D" stroke-width="0.454362"/>
<path d="M115.669 85.3271L115.669 85.3271L115.669 85.3288C115.704 85.8654 115.905 86.5492 116.591 86.9572L116.104 87.3939C115.495 87.1037 115.313 86.5529 115.276 86.0575L115.262 85.8316L115.252 85.6522L115.075 85.621L113.828 85.4016L114.244 85.0284L115.666 85.2786L115.669 85.3271Z" fill="#3C3C3B" stroke="#16110D" stroke-width="0.454362"/>
<path d="M117.849 87.1264L117.512 87.4288C117.489 87.4491 117.462 87.4685 117.43 87.4866L117.24 84.763L117.658 84.3883L117.844 87.0527L117.849 87.1264Z" fill="#3C3C3B" stroke="#16110D" stroke-width="0.454362"/>
<path d="M117.485 81.9153L117.491 82.0105L117.564 82.0724L117.75 82.2311C117.75 82.2312 117.75 82.2313 117.75 82.2314C119.058 83.3586 120.304 84.4436 120.411 86.0489L120.411 86.0501C120.468 86.8519 120.275 87.3303 119.986 87.618C120.028 87.3689 120.039 87.0891 120.017 86.7766C119.891 84.9649 118.505 83.7709 117.246 82.686C117.231 82.6725 117.215 82.6591 117.2 82.6457L117.199 82.6449L117.084 82.5474L116.814 78.6503L117.232 78.2756L117.485 81.9153Z" fill="#3C3C3B" stroke="#16110D" stroke-width="0.454362"/>
<path d="M115.317 78.8521L115.317 78.8521L115.317 78.8567C115.37 79.6041 115.739 80.2428 116.244 80.8175L115.737 81.2714C115.277 80.7366 114.967 80.1921 114.924 79.5855C114.906 79.2337 114.964 78.9455 115.142 78.7859L115.314 78.6318C115.312 78.7076 115.313 78.7816 115.317 78.8521Z" fill="#3C3C3B" stroke="#16110D" stroke-width="0.454362"/>
<path d="M115.344 76.9164C115.08 76.8953 114.811 76.8929 114.55 76.9204C114.849 76.7101 115.248 76.6152 115.696 76.6007L115.344 76.9164Z" fill="#3C3C3B" stroke="#16110D" stroke-width="0.454362"/>
<path d="M115.844 76.0849L116.26 75.7121L117.056 75.8511L117.113 76.6041L117.125 76.7663L117.282 76.8071C117.939 76.9777 118.595 77.2648 119.1 77.7371C119.6 78.2045 119.965 78.8639 120.029 79.8085L120.029 79.8088L120.053 80.1597L119.635 80.5342C119.563 79.4768 119.148 78.7102 118.564 78.1639C118.028 77.6626 117.359 77.3561 116.707 77.1691L116.649 76.3996L116.636 76.2232L116.462 76.1927L115.844 76.0849Z" fill="#3C3C3B" stroke="#16110D" stroke-width="0.454362"/>
<path d="M115.403 77.3771L115.67 77.4019L115.65 77.134L115.602 76.4954L116.22 76.6032L116.276 77.3562L116.288 77.5183L116.445 77.5591C117.103 77.7297 117.759 78.0168 118.264 78.4891C118.764 78.9566 119.128 79.616 119.192 80.5605L119.192 80.5608L119.204 80.7327L117.957 80.5134L117.93 80.1061C117.93 80.106 117.93 80.1059 117.93 80.1058C117.889 79.4855 117.617 78.7089 116.666 78.3314L116.331 78.1983L116.356 78.5583L116.641 82.6615L116.647 82.7566L116.72 82.8186L116.906 82.9773C116.906 82.9774 116.906 82.9775 116.906 82.9777C118.214 84.1045 119.455 85.1839 119.567 86.7958L119.567 86.7958C119.632 87.7378 119.358 88.237 118.971 88.5052C118.565 88.7871 117.977 88.8567 117.336 88.8043L117.073 88.7827L117.091 89.0467L117.156 89.9663L116.539 89.8586L116.471 88.8333L116.46 88.6702L116.302 88.6286C115.651 88.4574 115 88.1715 114.498 87.7006C114.034 87.2658 113.687 86.6637 113.59 85.8175L114.833 86.0361L114.836 86.0846L114.836 86.0846L114.836 86.0883C114.882 86.7039 115.137 87.5095 116.08 87.8705L116.413 87.9979L116.388 87.6425L116.103 83.5721L116.097 83.481L116.029 83.4197C116.024 83.4147 116.018 83.4095 116.012 83.4043C115.942 83.3402 115.858 83.2637 115.769 83.1979C114.464 82.0729 113.227 80.9943 113.115 79.3847L113.115 79.384C113.045 78.4306 113.327 77.9289 113.723 77.6617C114.141 77.3802 114.746 77.3163 115.403 77.3771ZM115.562 81.7421L115.999 82.2043L115.954 81.57L115.727 78.3841L115.71 78.1462L115.473 78.1747C115.052 78.2254 114.775 78.4339 114.621 78.7251C114.476 79.0008 114.454 79.3268 114.478 79.6101C114.534 80.4473 114.984 81.131 115.562 81.7421ZM118.185 86.5692L118.185 86.5687C118.135 85.7703 117.707 85.1105 117.175 84.5166L116.733 84.0233L116.779 84.684L116.998 87.8117L117.015 88.0653L117.265 88.0193C117.66 87.9468 117.911 87.728 118.049 87.4412C118.18 87.1682 118.202 86.8495 118.185 86.5692Z" fill="#EDEDED" stroke="#16110D" stroke-width="0.454362"/>
</svg>
