<svg width="360" height="307" viewBox="0 0 360 307" fill="none" xmlns="http://www.w3.org/2000/svg">
<rect y="3" width="360" height="304" fill="#001E20"/>
<g style="mix-blend-mode:screen" opacity="0.3">
<path d="M0 0L13 169L180 259.5L360 147V307H0L79 84.5L0 0Z" fill="#001E20"/>
</g>
<path d="M206.464 34.323C209.769 37.1388 215.149 37.1388 218.474 34.323L206.387 34.414M206.464 34.323L206.387 34.414M206.464 34.323L206.387 34.4139C206.387 34.4139 206.387 34.414 206.387 34.414M206.464 34.323C205.186 33.2367 204.407 31.8824 204.122 30.4642L204.124 30.978M206.387 34.414C205.237 33.4364 204.482 32.2428 204.124 30.978M204.124 30.978C204.076 30.8119 204.036 30.6445 204.003 30.4763M220.983 30.4078C220.95 30.5749 220.911 30.7412 220.865 30.9064L220.863 30.3963C220.941 29.999 220.98 29.5971 220.979 29.1946L220.983 30.4078Z" fill="#3C3C3B" stroke="#16110D" stroke-width="0.238956"/>
<path d="M206.589 24.203C203.32 26.9716 203.301 31.4644 206.549 34.232C209.808 37.0096 215.123 37.0099 218.403 34.2317C221.673 31.4631 221.692 26.9704 218.444 24.2028C215.178 21.4251 209.87 21.4249 206.589 24.203Z" fill="#EDEDED" stroke="#16110D" stroke-width="0.238956"/>
<path d="M217.953 33.0992L217.953 33.0989C219.263 31.9946 219.972 30.603 219.972 29.1921C219.972 27.8007 219.276 26.4192 217.987 25.325L217.986 25.3248C216.543 24.0926 214.605 23.4194 212.513 23.4194C210.422 23.4194 208.477 24.1024 207.026 25.335L207.026 25.3353C205.716 26.4397 205.006 27.8312 205.006 29.2422C205.006 30.6335 205.702 32.015 206.992 33.1091C208.436 34.3318 210.381 35.0148 212.465 35.0148C214.556 35.0148 216.501 34.3318 217.953 33.0992Z" fill="#3C3C3B" stroke="#16110D" stroke-width="0.238956"/>
<path d="M217.953 33.7111L217.953 33.7108C219.263 32.6064 219.972 31.2149 219.972 29.8039C219.972 28.4126 219.276 27.031 217.987 25.9369L217.986 25.9366C216.543 24.7045 214.605 24.0312 212.513 24.0312C210.422 24.0312 208.477 24.7143 207.026 25.9468L207.026 25.9471C205.716 27.0515 205.006 28.443 205.006 29.854C205.006 31.2453 205.702 32.6268 206.992 33.721C208.436 34.9436 210.381 35.6266 212.465 35.6266C214.556 35.6266 216.501 34.9436 217.953 33.7111Z" fill="#FFC856" stroke="#16110D" stroke-width="0.238956"/>
<path d="M216.689 26.8906L217.255 26.4116L217.25 25.6821L216.689 26.1611V26.8906Z" fill="#3C3C3B" stroke="#16110D" stroke-width="0.238956"/>
<path d="M213.363 27.3284L213.363 27.3284L213.364 27.3278C213.561 27.1598 213.813 26.9997 214.111 26.9326C214.362 26.8761 214.639 26.887 214.933 27.0081V26.2279C214.652 26.0871 214.396 26.0723 214.168 26.1236C213.921 26.1792 213.701 26.3146 213.519 26.4675L213.37 26.5971L213.292 26.6645L213.214 26.5975L212.264 25.7844V26.5119L213.291 27.3912L213.363 27.3284Z" fill="#3C3C3B" stroke="#16110D" stroke-width="0.238956"/>
<path d="M215.747 27.6901V27.2282C215.747 27.159 215.732 27.0831 215.701 26.9998L213.78 28.6264V29.3554L215.666 27.7584L215.747 27.6901Z" fill="#3C3C3B" stroke="#16110D" stroke-width="0.238956"/>
<path d="M212.245 30.6544L212.287 30.6195L212.34 30.6273L212.544 30.6573C212.544 30.6573 212.544 30.6573 212.544 30.6573C213.977 30.8595 215.386 31.0546 216.478 30.1235L216.479 30.1231C217.053 29.6386 217.256 29.1686 217.256 28.7414V28.5491C217.117 28.7882 216.913 29.0274 216.633 29.2635C215.449 30.2666 213.946 30.0544 212.55 29.8572L212.511 29.8517L212.51 29.8516L212.359 29.8294L209.711 32.0735V32.8024L212.245 30.6544Z" fill="#3C3C3B" stroke="#16110D" stroke-width="0.238956"/>
<path d="M209.11 31.0464L209.11 31.0464L209.112 31.0448C209.611 30.623 210.228 30.4903 210.892 30.4935V29.6919C210.263 29.6962 209.705 29.8145 209.267 30.1844C209.035 30.389 208.858 30.6289 208.858 30.8956V31.3103C208.934 31.2119 209.022 31.1237 209.11 31.0464Z" fill="#3C3C3B" stroke="#16110D" stroke-width="0.238956"/>
<path d="M207.943 32.1375C207.711 31.9009 207.5 31.6376 207.349 31.3539V31.4971C207.349 31.9642 207.592 32.4161 207.943 32.8248V32.1375Z" fill="#3C3C3B" stroke="#16110D" stroke-width="0.238956"/>
<path d="M212.354 33.6804L212.354 33.6803L212.619 33.4556V32.7267L212.508 32.8203C212.508 32.8203 212.508 32.8203 212.508 32.8204C211.819 33.4065 211.122 33.588 210.466 33.5246C209.848 33.4649 209.276 33.1884 208.791 32.8501L208.241 33.3118L208.163 33.377L208.086 33.311L207.56 32.8591V33.5863L208.165 34.1058L208.708 33.6498L208.78 33.59L208.855 33.6446C209.337 33.9934 209.896 34.2716 210.489 34.3289C211.078 34.3858 211.711 34.2266 212.354 33.6804Z" fill="#3C3C3B" stroke="#16110D" stroke-width="0.238956"/>
<path d="M208.147 32.0043L208.238 32.0965L208.139 32.1798L207.626 32.6104L208.166 33.074L208.709 32.618L208.781 32.5582L208.856 32.6128C209.338 32.9616 209.897 33.2398 210.49 33.2971C211.078 33.354 211.712 33.1948 212.354 32.6486L212.355 32.6485L212.555 32.4787L211.592 31.6541L211.281 31.9186L211.203 31.8278L211.28 31.9188L211.28 31.9188C211.083 32.0874 210.831 32.2426 210.533 32.3043C210.233 32.3665 209.893 32.3316 209.528 32.1332L209.374 32.0499L209.508 31.937L212.239 29.6223L212.28 29.5874L212.333 29.5952L212.537 29.6252C212.537 29.6252 212.538 29.6252 212.538 29.6252C213.97 29.8274 215.372 30.0226 216.472 29.0912L216.472 29.0912C217.111 28.549 217.293 28.027 217.239 27.5538C217.184 27.0702 216.879 26.6078 216.484 26.1991L216.395 26.1073L216.492 26.0248L217.191 25.4339L216.651 24.9706L215.93 25.5856L215.859 25.6464L215.783 25.5918C215.304 25.2478 214.749 24.9721 214.158 24.916C213.584 24.8614 212.964 25.0133 212.335 25.5343L213.298 26.3591L213.371 26.2963L213.371 26.2963L213.372 26.295C213.572 26.1275 213.826 25.9675 214.124 25.9005C214.424 25.8327 214.762 25.8619 215.119 26.0618L215.269 26.146L215.138 26.2573L212.427 28.552L212.388 28.5853L212.337 28.5795C212.33 28.5788 212.324 28.5781 212.318 28.5774C212.237 28.5684 212.144 28.5579 212.055 28.5384C210.624 28.3364 209.224 28.1425 208.126 29.073L208.126 29.0733C207.476 29.6201 207.296 30.1488 207.357 30.629C207.42 31.1201 207.738 31.5903 208.147 32.0043ZM211.015 29.4637L211.328 29.4728L211.089 29.6744L208.966 31.4681L208.862 31.556L208.788 31.4414C208.598 31.1461 208.579 30.8628 208.664 30.6118C208.748 30.3676 208.926 30.1653 209.112 30.0125C209.65 29.5546 210.313 29.4433 211.015 29.4637ZM215.473 28.1404L215.473 28.1406C214.963 28.5789 214.328 28.6905 213.661 28.6905H213.335L213.584 28.4799L215.666 26.7162L215.777 26.6226L215.847 26.749C216.009 27.0363 216.01 27.3087 215.919 27.55C215.83 27.7854 215.654 27.9838 215.473 28.1404Z" fill="#EDEDED" stroke="#16110D" stroke-width="0.238956"/>
<path d="M176.731 136.189L131.465 110.181C131.174 110.035 131.029 109.745 131.029 109.599V104.369C131.029 104.223 131.174 104.078 131.319 104.078H139.88H140.025L174.265 84.1722C174.99 83.7363 175.861 83.7363 176.441 84.0269L213.293 105.24H213.438H221.998C222.143 105.24 222.288 105.386 222.288 105.531V110.762C222.288 111.052 222.143 111.198 221.708 111.488L178.907 136.044C178.182 136.479 177.311 136.479 176.731 136.189Z" fill="#007550"/>
<path d="M177.601 137.06C177.166 137.06 176.731 136.915 176.296 136.77L131.029 110.616C130.594 110.325 130.304 109.889 130.304 109.453V104.223C130.304 103.787 130.739 103.351 131.174 103.351H139.734L173.829 83.4451C174.7 83.0092 175.86 82.8639 176.586 83.2998L213.292 104.368H221.852C221.997 104.368 222.287 104.513 222.433 104.659C222.578 104.804 222.723 105.095 222.723 105.24V110.471C222.723 110.906 222.433 111.342 221.852 111.633L179.197 136.479C178.762 136.915 178.182 137.06 177.601 137.06ZM177.021 135.607C177.311 135.752 178.182 135.752 178.617 135.462L221.272 110.616C221.417 110.471 221.562 110.471 221.562 110.325V105.385H213.292C213.147 105.385 213.002 105.385 212.857 105.24L176.005 84.0263C175.715 83.881 174.845 83.881 174.409 84.1716L140.169 104.077C140.024 104.077 139.879 104.223 139.734 104.223H131.464V109.163C131.464 109.163 131.464 109.308 131.609 109.308L177.021 135.607Z" fill="#001E20"/>
<path d="M166.431 106.256C167.011 106.111 186.452 96.6664 193.997 93.9058L213.003 104.948H213.148H221.708C221.853 104.948 221.998 105.094 221.998 105.239V110.47C221.998 110.76 221.853 110.906 221.418 111.196L178.908 136.042H178.763V130.521L166.431 106.256Z" fill="#001E20"/>
<path d="M179.051 136.624L178.761 136.478C178.616 136.333 178.471 136.188 178.471 135.897V130.521L165.993 106.402V105.82L166.428 105.675C166.573 105.675 167.734 105.094 169.185 104.368C174.843 101.752 188.046 95.5043 193.995 93.3249L194.285 93.1796L194.575 93.3249L213.581 104.368H221.996C222.286 104.368 222.431 104.513 222.576 104.658C222.722 104.803 222.867 105.094 222.867 105.239V110.47C222.867 110.906 222.576 111.342 221.996 111.632L179.051 136.624ZM179.486 130.666V135.171L221.271 110.761C221.416 110.615 221.561 110.615 221.561 110.47V105.53H213.291L212.856 105.385L193.995 94.4872C188.046 96.6667 175.134 102.769 169.475 105.385C168.315 105.966 167.589 106.256 167.154 106.547L179.486 130.376V130.666Z" fill="#001E20"/>
<path d="M221.707 104.367L176.441 78.359C175.861 78.0684 174.845 78.0684 174.265 78.5043L131.61 103.35C130.884 103.786 130.884 104.367 131.465 104.658L176.731 130.666C177.311 130.957 178.327 130.957 178.907 130.521L221.562 105.675C222.288 105.239 222.288 104.658 221.707 104.367Z" fill="white"/>
<path d="M177.743 131.393C177.308 131.393 176.873 131.248 176.437 131.103L131.171 105.094C130.735 104.804 130.445 104.513 130.445 104.077C130.445 103.641 130.735 103.205 131.316 102.769L173.971 77.9235C174.841 77.4876 176.002 77.3423 176.727 77.7782L221.994 103.787C222.429 104.077 222.72 104.368 222.72 104.804C222.72 105.24 222.429 105.675 221.849 106.111L179.194 130.957C178.759 131.248 178.178 131.393 177.743 131.393ZM131.606 103.932L177.018 130.085C177.308 130.231 178.178 130.231 178.614 129.94L221.269 105.094C221.414 104.949 221.559 104.949 221.559 104.804C221.559 104.804 221.559 104.804 221.414 104.804L176.147 78.7953C175.857 78.65 174.986 78.65 174.551 78.9406L131.896 103.787C131.751 103.787 131.606 103.932 131.606 103.932Z" fill="#001E20"/>
<path d="M134.092 106.529L133.931 111.903L135.091 111.938L135.252 106.564L134.092 106.529Z" fill="#001E20"/>
<path d="M208.359 114.393H207.488V118.461H208.359V114.393Z" fill="#007550"/>
<path d="M188.483 115.992L158.595 98.5558C158.305 98.4105 158.16 98.1199 158.16 97.9746V92.7439C158.16 92.5986 158.305 92.4533 158.45 92.4533L176.441 87.0772H176.586L185.001 82.2824C185.726 81.8465 186.597 81.8465 187.177 82.1371L208.505 94.778H208.65H217.21C217.355 94.778 217.5 94.9233 217.5 95.0686V100.299C217.5 100.59 217.355 100.735 216.92 101.026L190.659 116.137C190.079 116.282 189.063 116.282 188.483 115.992Z" fill="#007550"/>
<path d="M189.353 116.864C188.918 116.864 188.483 116.719 188.047 116.573L158.16 99.1375C157.725 98.8469 157.435 98.411 157.435 97.9751V92.7443C157.435 92.3085 157.725 92.0179 158.16 91.8726L176.151 86.4965L184.565 81.7017C185.436 81.2658 186.597 81.1205 187.322 81.5564L208.65 94.052H217.064C217.355 94.052 217.5 94.1973 217.645 94.3426C217.79 94.4879 217.935 94.6332 217.935 94.9238V100.155C217.935 100.59 217.645 101.026 217.064 101.317L190.949 116.428C190.514 116.719 189.934 116.864 189.353 116.864ZM188.773 115.556C189.063 115.701 189.934 115.701 190.369 115.411L216.629 100.3C216.774 100.155 216.919 100.155 216.919 100.009V95.0691H208.65C208.504 95.0691 208.359 95.0691 208.214 94.9238L186.742 82.2829C186.452 82.1376 185.581 82.1376 185.146 82.4282L176.731 87.223C176.586 87.223 176.586 87.3683 176.441 87.3683L158.74 92.7443V97.6845C158.74 97.6845 158.74 97.8298 158.885 97.8298L188.773 115.556Z" fill="#001E20"/>
<path d="M209.665 94.6323H217.21C217.355 94.6323 217.5 94.7776 217.5 94.9229V100.154C217.5 100.444 217.355 100.59 216.92 100.88L190.804 115.846H190.659V110.325C190.079 108.581 209.665 94.6323 209.665 94.6323Z" fill="#001E20"/>
<path d="M190.805 116.572L190.37 116.426C190.225 116.281 190.08 116.136 190.08 115.845V110.469C189.935 109.888 190.225 108.58 199.51 101.461C204.298 97.8283 209.231 94.3411 209.231 94.1958L209.376 94.0505C209.521 94.0505 209.521 94.0505 217.066 94.0505C217.356 94.0505 217.501 94.1958 217.646 94.3411C217.791 94.4864 217.936 94.777 217.936 94.9223V100.153C217.936 100.589 217.646 101.025 217.066 101.315L190.805 116.572ZM191.386 110.469V114.973L216.776 100.444C216.921 100.298 217.066 100.298 217.066 100.153V95.2129C215.035 95.2129 210.972 95.2129 209.957 95.2129C201.106 101.461 191.966 108.726 191.386 110.179V110.469Z" fill="#001E20"/>
<path d="M217.065 93.9051L187.177 76.4694C186.597 76.1788 185.581 76.1788 185.001 76.6147L158.74 91.7257C158.015 92.1616 158.015 92.7427 158.595 93.0333L188.483 110.469C189.063 110.76 190.079 110.76 190.659 110.324L216.92 95.2128C217.645 94.9222 217.645 94.341 217.065 93.9051Z" fill="white"/>
<path d="M189.495 111.196C189.06 111.196 188.624 111.051 188.189 110.906L158.302 93.4701C157.866 93.1795 157.576 92.8889 157.576 92.453C157.576 92.0171 157.866 91.5812 158.447 91.1453L184.707 76.0343C185.578 75.5984 186.738 75.4532 187.464 75.889L217.351 93.3248C217.787 93.6154 218.077 93.906 218.077 94.3419C218.077 94.7778 217.787 95.2137 217.206 95.6496L190.946 110.761C190.511 111.051 190.075 111.196 189.495 111.196ZM158.737 92.453C158.737 92.453 158.882 92.453 158.737 92.453L188.77 109.889C189.06 110.034 189.93 110.034 190.365 109.743L216.626 94.6325C216.771 94.4872 216.916 94.4872 216.916 94.4872C216.916 94.4872 216.916 94.4872 216.771 94.4872L186.883 77.0514C186.593 76.9061 185.723 76.9061 185.287 77.1967L159.027 92.3077C158.882 92.3077 158.882 92.3077 158.737 92.453Z" fill="#001E20"/>
<path d="M161.314 95.0309L161.152 100.404L162.312 100.439L162.474 95.0659L161.314 95.0309Z" fill="#001E20"/>
<path d="M212.266 98.2001L212.195 102.994L213.066 103.007L213.136 98.2129L212.266 98.2001Z" fill="#007550"/>
<path d="M181.958 117.735L172.382 112.214C172.237 112.069 172.092 112.069 171.947 112.214L167.884 114.684C167.739 114.684 167.739 114.829 167.884 114.975L171.802 119.188C171.802 119.188 171.802 119.188 171.802 119.334V120.641C171.802 121.077 172.092 121.513 172.382 121.658L173.688 120.06L178.04 124.855C178.04 125 178.185 125 178.33 124.855L182.393 122.385C182.393 122.385 182.538 122.24 182.538 121.949V118.753C182.393 118.317 182.248 117.881 181.958 117.735Z" fill="white"/>
<path d="M178.038 125.581H177.893C177.748 125.581 177.603 125.435 177.458 125.29L173.541 120.931L172.38 122.384L171.945 122.094C171.51 121.803 171.074 121.222 171.074 120.495V119.333L167.157 115.119C167.012 114.829 167.012 114.248 167.447 114.102L171.51 111.632C171.8 111.487 172.09 111.487 172.525 111.632L182.101 117.153C182.536 117.444 182.971 118.025 182.971 118.752V121.948C182.971 122.384 182.681 122.675 182.681 122.675L182.536 122.82L178.474 125.29C178.329 125.435 178.184 125.581 178.038 125.581ZM174.121 119.624L178.184 124.273L181.811 121.948V118.752C181.811 118.606 181.666 118.316 181.52 118.171L171.945 112.649L168.463 114.829L172.09 118.897V119.188V120.495L173.251 119.042L174.121 119.624Z" fill="#001E20"/>
<path d="M175.137 122.093C175.137 122.093 175.137 122.239 175.137 122.384L178.038 124.709C178.184 124.854 178.329 124.854 178.474 124.854L182.391 122.384C182.391 122.384 182.536 122.239 182.536 121.948V118.897C182.536 118.751 182.391 118.751 182.391 118.751L178.329 121.222L175.137 122.093Z" fill="#001E20"/>
<path d="M178.183 125.435H178.038C177.893 125.435 177.748 125.29 177.602 125.145L174.556 122.529L174.701 121.512L178.038 120.786L182.1 118.316C182.245 118.17 182.535 118.17 182.826 118.316C183.116 118.461 183.116 118.606 183.116 118.897V121.948C183.116 122.384 182.826 122.675 182.826 122.675L182.68 122.82L178.763 125.29C178.473 125.435 178.328 125.435 178.183 125.435ZM176.152 122.529L178.183 124.273L181.81 121.948V119.769L178.618 121.803V121.948L176.152 122.529Z" fill="#001E20"/>
<path d="M177.748 124.999L168.172 119.477C167.882 119.332 167.592 118.896 167.592 118.46V115.264C167.592 114.828 167.882 114.683 168.172 114.828L177.748 120.349C178.038 120.494 178.328 120.93 178.328 121.366V124.563C178.183 124.999 178.038 125.144 177.748 124.999Z" fill="#FF513F"/>
<path d="M177.893 125.58C177.748 125.58 177.603 125.58 177.458 125.435L167.882 119.913C167.447 119.623 167.012 119.042 167.012 118.315V115.119C167.012 114.683 167.157 114.392 167.447 114.247C167.737 114.101 168.027 114.101 168.318 114.247L177.893 119.768C178.328 120.059 178.764 120.64 178.764 121.366V124.563C178.764 124.999 178.619 125.289 178.328 125.435C178.183 125.58 178.038 125.58 177.893 125.58ZM178.038 124.418L177.748 124.854L178.038 124.418ZM168.027 115.409V118.315C168.027 118.46 168.172 118.751 168.318 118.896L177.603 124.272V121.366C177.603 121.221 177.458 120.93 177.313 120.785L168.027 115.409Z" fill="#001E20"/>
<path d="M174.197 112.917L170.133 115.452L170.747 116.439L174.811 113.903L174.197 112.917Z" fill="#001E20"/>
<path d="M181.976 120.608L178.371 122.782L178.82 123.529L182.425 121.355L181.976 120.608Z" fill="#FF513F"/>
<path d="M242.022 99.4277L235.929 98.8465L225.047 92.4534C223.742 91.7269 221.71 91.7269 220.26 92.5987L218.083 93.9063L217.358 93.4704C216.052 92.7439 214.021 92.744 212.57 93.6157L210.394 94.9234L209.668 94.4875C208.653 93.9063 207.347 93.761 206.041 94.0516L198.062 91.7269L198.207 90.8551C199.948 89.838 197.481 89.4021 197.191 89.4021L189.501 87.3679H189.356V93.761C189.356 94.1969 189.647 94.7781 190.227 95.0687L194.434 97.5388C194.434 97.5388 194.434 97.5388 194.434 97.6841L193.999 99.2824L191.823 99.5729C191.823 100.154 191.823 106.111 191.823 106.111C191.968 106.983 192.984 107.564 194.434 107.71C196.466 107.855 198.352 108.291 200.238 108.727L204.59 109.889C208.798 110.906 213.15 111.633 217.793 112.069C222.146 112.359 226.063 113.522 229.11 115.265L229.545 115.556L239.991 109.453C241.587 108.581 242.458 107.274 242.603 105.966L242.022 99.4277C242.167 99.573 242.022 99.4277 242.022 99.4277Z" fill="#FFC856"/>
<path d="M229.108 116.137L228.382 115.701C225.48 113.957 221.563 112.94 217.356 112.65C212.713 112.359 208.36 111.633 204.153 110.47L199.8 109.308C197.914 108.872 196.028 108.436 194.142 108.291C192.401 108.145 191.24 107.274 191.095 106.257C191.095 106.257 191.095 106.111 191.095 99.5728C191.095 99.2822 191.385 98.9917 191.676 98.9917L193.562 98.7011L193.852 97.8293L190.08 95.6498C189.354 95.2139 188.919 94.4874 188.919 93.9062V87.2225L189.209 86.9319C189.354 86.7866 189.644 86.7866 189.789 86.7866L197.624 88.9661C198.204 89.1114 199.51 89.402 199.51 90.2738C199.655 90.855 199.22 91.2909 198.93 91.4362V91.5814L206.329 93.7609C207.635 93.4703 209.231 93.6156 210.246 94.1968L210.682 94.4874L212.568 93.325C214.164 92.4532 216.485 92.4532 217.936 93.1797L218.371 93.4703L220.257 92.3079C221.853 91.4361 224.175 91.4362 225.626 92.1626L236.507 98.4105L242.455 98.9917C242.746 98.9917 243.036 99.2822 243.036 99.7181V106.111C242.891 107.71 241.875 109.017 240.134 110.034L229.108 116.137ZM192.111 100.009C192.111 102.043 192.111 105.821 192.111 106.111C192.111 106.547 192.836 107.128 194.142 107.128C196.173 107.274 198.204 107.71 200.091 108.145L204.443 109.308C208.505 110.325 213.003 111.051 217.501 111.487C221.998 111.778 225.916 112.94 228.962 114.829L229.108 114.974L239.264 109.163C240.714 108.291 241.44 107.274 241.585 106.111V100.154L235.781 99.5728L235.636 99.4276L224.755 93.1797C223.594 92.5985 221.708 92.5985 220.548 93.325L217.936 94.778L216.92 94.1968C215.76 93.6156 213.874 93.6156 212.713 94.3421L210.101 95.7951L209.086 95.2139C208.36 94.778 207.055 94.6327 205.894 94.9233H205.749H205.604L197.044 92.4532L197.334 90.7097L197.624 90.5644C197.769 90.5644 197.769 90.4191 197.769 90.4191C197.624 90.4191 197.334 90.2738 196.899 90.1285H196.754L189.644 88.2396V93.9062C189.644 94.1968 189.935 94.4874 190.225 94.6327L194.432 97.1028C194.722 97.2481 194.867 97.5387 194.722 97.8293L194.142 99.8634L193.707 100.009H192.111Z" fill="#001E20"/>
<path d="M229.11 115.118C229.11 115.263 229.255 115.409 229.4 115.263L239.557 109.452C241.152 108.58 242.023 107.272 242.168 105.964V99.5713H242.023H229.546C229.401 99.5713 229.255 99.7166 229.255 99.8619V115.118H229.11Z" fill="#001E20"/>
<path d="M229.4 115.845C229.255 115.845 229.11 115.845 228.965 115.7C228.674 115.555 228.529 115.264 228.529 114.974V99.572C228.529 99.1361 228.965 98.7002 229.4 98.7002H242.167C242.458 98.7002 242.748 98.9908 242.748 99.4267V105.82C242.603 107.418 241.587 108.726 239.846 109.743L229.69 115.555C229.545 115.845 229.4 115.845 229.4 115.845ZM229.69 100.008V114.392L239.266 108.871C240.717 107.999 241.442 106.982 241.587 105.82V99.8626L229.69 100.008Z" fill="#001E20"/>
<path d="M217.935 87.3674L217.21 86.9315C215.904 86.205 213.873 86.205 212.422 87.0768L210.246 88.3845L209.52 87.9486C208.214 87.2221 206.183 87.2221 204.732 88.0939L202.556 89.4016L195.592 85.3332C194.286 84.6068 192.255 84.6067 190.804 85.4785L190.224 85.7691C188.918 86.4956 188.773 87.8033 190.079 88.5298L207.054 98.4101C207.054 98.4101 207.054 98.5554 206.909 98.5554L203.862 98.1195C201.686 97.8289 199.364 97.5383 197.188 97.393L195.447 97.2477C193.561 97.1024 191.82 97.8289 191.53 98.9913L191.385 99.2819C191.094 100.299 192.255 101.171 193.851 101.461C195.882 101.607 197.768 102.043 199.654 102.478L204.007 103.641C208.214 104.658 212.567 105.384 217.21 105.82C221.562 106.111 225.48 107.273 228.526 109.017L228.962 109.307L239.408 103.205C241.584 101.897 242.454 100.008 241.729 98.2648L241.584 97.9742C240.859 96.2306 239.263 94.6323 237.086 93.3246L224.899 86.3503C223.593 85.6238 221.562 85.6238 220.111 86.4956L217.935 87.3674Z" fill="white"/>
<path d="M229.105 109.598L228.38 109.162C225.478 107.418 221.561 106.401 217.353 106.11C212.71 105.82 208.358 105.093 204.15 103.931L199.798 102.769C197.912 102.333 196.026 101.897 194.14 101.751C192.834 101.606 191.818 101.17 191.383 100.298C191.093 99.8626 190.948 99.2814 191.093 98.8455L191.238 98.5549C191.673 97.2472 193.559 96.2301 195.735 96.3754L197.476 96.5207C199.798 96.666 201.974 96.9566 204.295 97.2472H204.731L190.222 88.8199C189.497 88.384 189.062 87.6575 189.062 87.0764C189.062 86.3499 189.497 85.6234 190.367 85.1875L190.948 84.8969C192.544 84.0251 194.865 84.0251 196.316 84.7516L202.99 88.5293L204.876 87.3669C206.472 86.4952 208.793 86.4951 210.244 87.2216L210.679 87.5122L212.565 86.3499C214.161 85.4781 216.483 85.4781 217.933 86.2046L218.369 86.4951L220.255 85.3328C221.851 84.461 224.172 84.461 225.623 85.1875L237.81 92.1618C240.132 93.4695 241.727 95.213 242.598 96.9566L242.743 97.2472C243.614 99.2814 242.743 101.461 240.132 102.914L229.105 109.598ZM195.155 97.6831C193.704 97.6831 192.399 98.2643 192.253 98.9908L192.108 99.2814C192.108 99.4267 192.108 99.572 192.253 99.8626C192.544 100.153 193.124 100.589 194.14 100.734C196.171 100.88 198.202 101.316 200.088 101.751L204.441 102.914C208.503 103.931 213.001 104.657 217.498 105.093C221.996 105.384 225.913 106.546 228.96 108.435L229.105 108.58L239.261 102.769C241.292 101.606 242.018 100.008 241.292 98.5549L241.147 98.2643C240.422 96.666 238.971 95.213 236.795 93.9054L224.607 86.931C223.447 86.3499 221.561 86.3499 220.4 87.0764L217.788 88.5293L216.773 87.9481C215.612 87.3669 213.726 87.3669 212.565 88.0934L209.954 89.5464L208.938 88.9652C207.778 88.384 205.891 88.384 204.731 89.1105L202.119 90.5635L194.865 86.3499C193.704 85.7687 191.818 85.7687 190.657 86.4951L190.077 86.7858C189.642 87.0764 189.352 87.3669 189.352 87.6575C189.352 87.9481 189.642 88.2387 189.932 88.384L207.342 98.4096L207.197 98.8455C207.052 99.1361 206.762 99.2814 206.472 99.2814L203.425 98.8455C201.249 98.5549 198.927 98.2643 196.751 98.119L195.01 97.9737C195.3 97.6831 195.155 97.6831 195.155 97.6831Z" fill="#001E20"/>
<path d="M202.761 88.754L202.181 89.7607L207.71 92.9567L208.29 91.9499L202.761 88.754Z" fill="#001E20"/>
<path d="M206.597 97.3149L206.017 98.3215L209.535 100.356L210.115 99.3491L206.597 97.3149Z" fill="#001E20"/>
<path d="M210.626 87.8855L210.046 88.8921L214.318 91.3621L214.898 90.3555L210.626 87.8855Z" fill="#001E20"/>
<path d="M218.302 86.9705L217.722 87.9771L221.114 89.9386L221.694 88.932L218.302 86.9705Z" fill="#001E20"/>
<path d="M192.982 89.8373H191.821V96.3757H192.982V89.8373Z" fill="#001E20"/>
<path d="M204.008 103.205H202.848V109.744H204.008V103.205Z" fill="#001E20"/>
<path d="M224.464 106.837H223.304V113.376H224.464V106.837Z" fill="#001E20"/>
<path d="M195.593 101.316H194.433V107.855H195.593V101.316Z" fill="#001E20"/>
<path d="M201.466 68.0484L199.191 77.0638L200.317 77.3486L202.592 68.3332L201.466 68.0484Z" fill="#001E20"/>
<path d="M208.04 71.0009L201.595 77.8953L202.442 78.6896L208.887 71.7953L208.04 71.0009Z" fill="#001E20"/>
<path d="M211.625 79.1543L203.241 79.8763L203.341 81.0344L211.724 80.3123L211.625 79.1543Z" fill="#001E20"/>
<path d="M180.648 27.6502C178.036 23.4365 175.279 25.616 174.699 26.0519C174.699 26.0519 174.554 26.0519 174.554 25.9066C173.974 24.7442 171.217 19.3682 168.605 20.5306L164.253 22.8553V23.0006L167.3 28.2314L171.362 39.274L170.201 39.5646V41.8894C170.201 42.0347 170.347 42.0347 170.347 42.0347L174.554 39.7099L179.922 35.4963C180.067 35.4963 183.985 33.0262 180.648 27.6502Z" fill="white"/>
<path d="M170.345 42.7616C170.2 42.7616 170.055 42.7616 170.055 42.6163C169.91 42.471 169.765 42.3257 169.765 42.0351V39.2744L170.635 38.9838L166.863 28.5224L163.816 23.2917V23.0011C163.816 22.8558 163.961 22.7105 164.107 22.5652L168.459 20.2404C171.216 18.9327 173.972 23.2917 174.988 25.3258C175.568 24.8899 176.584 24.454 177.745 24.5993C179.05 24.7446 180.211 25.7617 181.227 27.36C184.709 33.1719 180.356 35.9326 180.356 36.0779L174.988 40.2915L170.78 42.6163C170.635 42.7616 170.49 42.7616 170.345 42.7616ZM170.926 40.2915V41.3086L174.408 39.4197L179.631 35.2061C179.776 35.0608 183.113 32.8813 180.211 28.0865C179.341 26.7788 178.47 25.907 177.6 25.7617C176.439 25.6164 175.423 26.3429 175.278 26.6335L175.133 26.7788H174.843C174.698 26.7788 174.408 26.6335 174.408 26.3429C173.247 24.0181 170.926 20.3857 169.185 21.2575L165.412 23.437L168.314 28.3771L172.522 40.0009L170.926 40.2915Z" fill="#001E20"/>
<path d="M176.441 30.5564C176.441 30.5564 174.555 30.4111 174.264 30.5564C173.974 30.5564 169.767 32.3 169.767 32.3L169.187 33.753L171.218 39.5649L170.057 39.8555V42.1803C170.057 42.3256 170.202 42.3256 170.202 42.3256L174.41 40.0008L179.778 35.7872C179.778 35.7872 183.405 33.4624 180.793 28.377L176.441 30.5564Z" fill="#FF513F"/>
<path d="M170.346 42.7614C170.201 42.7614 170.056 42.7614 170.056 42.6161C169.911 42.4708 169.766 42.3255 169.766 42.0349V39.2742L170.636 38.9836L168.75 33.6076L169.475 31.7187L169.621 31.5734C171.507 30.7017 173.828 29.8299 174.263 29.6846C174.553 29.6846 175.859 29.6846 176.44 29.6846L181.227 27.0692L181.518 27.6504C184.419 33.0264 180.357 35.7871 180.357 35.7871L174.989 40.0007L170.781 42.3255C170.491 42.7614 170.346 42.7614 170.346 42.7614ZM170.781 40.2913V41.3084L174.263 39.4195L179.486 35.2059C179.631 35.0606 182.533 33.1717 180.502 29.1034L176.44 31.2829H176.294C175.424 31.2829 174.408 31.1376 174.118 31.2829C173.828 31.2829 171.652 32.2999 170.056 33.0264L169.621 34.0435L171.797 40.146L170.781 40.2913Z" fill="#001E20"/>
<path d="M171.073 28.087L174.41 26.1981V26.0528C174.12 25.4716 173.394 23.8734 172.234 22.5657L167.881 25.0357L166.575 27.5058L167.01 28.3776L167.591 30.1212L169.042 31.2836L171.073 28.087Z" fill="#FF513F"/>
<path d="M169.621 32.3007L167.444 30.5571L166.719 28.6682L166.139 27.6511L167.59 24.7452L172.522 21.8392L172.813 22.2751C173.973 23.7281 174.844 25.3264 174.989 25.9076C175.134 26.1982 174.989 26.3435 174.989 26.4888V26.7794L171.507 28.6682L169.621 32.3007ZM168.46 29.8306L169.185 30.4118L170.636 27.6511L173.828 25.9076C173.538 25.3264 172.958 24.3093 172.232 23.2922L168.46 25.4717L167.444 27.5058L167.88 28.2323L168.46 29.8306Z" fill="#001E20"/>
<path d="M176.295 30.1211C173.684 25.9075 170.927 28.087 170.347 28.5229C170.347 28.5229 170.202 28.5229 170.202 28.3776C169.621 27.2152 166.865 21.8391 164.253 23.0015C161.061 24.5998 164.979 31.5741 164.979 31.5741L170.202 41.8903L170.347 42.0356L175.715 37.822C175.57 37.9673 179.632 35.4972 176.295 30.1211Z" fill="#FF513F"/>
<path d="M170.491 42.9076H170.201C170.056 42.9076 169.766 42.7623 169.766 42.4717L164.543 32.1555C164.398 32.0102 161.786 27.2154 162.657 24.4547C162.947 23.7283 163.382 23.1471 164.108 22.7112C164.978 22.2753 166.574 22.2753 168.605 24.6001C169.476 25.7624 170.201 26.9248 170.636 27.7966C171.217 27.3607 172.232 26.9248 173.393 27.0701C174.699 27.2154 175.859 28.2325 176.875 29.8308C180.357 35.6427 176.005 38.4034 176.005 38.5487L170.491 42.9076ZM164.978 23.583C164.833 23.583 164.688 23.583 164.398 23.7283C163.963 23.8736 163.672 24.3095 163.527 24.7453C162.947 26.6342 164.543 30.2667 165.268 31.5743L170.201 41.4546L174.989 37.6769C175.134 37.5316 178.471 35.3521 175.569 30.5573C174.699 29.2496 173.828 28.3778 172.813 28.2325C171.652 28.0872 170.636 28.8137 170.491 29.1043L170.201 29.2496H169.911C169.766 29.2496 169.476 29.1043 169.476 28.8137C169.186 28.3778 168.46 26.6342 167.299 25.3265C166.864 24.4548 165.849 23.583 164.978 23.583Z" fill="#001E20"/>
<path d="M168.369 32.4055L167.338 32.9384L170.264 38.6206L171.296 38.0877L168.369 32.4055Z" fill="#001E20"/>
<path d="M169.187 26.7792L173.539 24.3091L174.555 26.198L170.202 28.5227L169.187 26.7792Z" fill="#001E20"/>
<path d="M176.585 37.5311L178.616 36.6593L181.083 34.7704L181.808 32.7363L181.953 30.7021L181.518 29.9756L177.601 32.1551L177.746 33.7533L177.31 35.6422L176.585 37.5311Z" fill="#001E20"/>
<path d="M205.461 50.3151C202.85 46.1015 200.093 48.2809 199.513 48.7168C199.513 48.7168 199.367 48.7168 199.367 48.5715C198.787 47.4091 196.031 42.0331 193.419 43.1955L189.066 45.5203V45.6656L192.113 50.8963L196.176 61.939L195.015 62.2295V64.5543C195.015 64.6996 195.16 64.6996 195.16 64.6996L199.367 62.3749L204.736 58.1612C204.736 58.1612 208.653 55.6911 205.461 50.3151Z" fill="white"/>
<path d="M195.158 65.4266C195.013 65.4266 194.868 65.4266 194.868 65.2813C194.723 65.136 194.578 64.9907 194.578 64.7001V61.9394L195.448 61.6488L191.676 51.1874L188.484 45.8113V45.5207C188.484 45.3754 188.629 45.2301 188.775 45.0848L193.127 42.7601C194.143 42.3242 195.594 42.1789 197.625 44.6489C198.495 45.8113 199.221 46.9737 199.656 47.8455C200.236 47.4096 201.252 46.9737 202.413 47.119C203.718 47.2643 204.879 48.2814 205.895 49.8797C209.377 55.6916 205.024 58.4523 205.024 58.5976L199.656 62.8112L195.448 65.136C195.448 65.2813 195.303 65.4266 195.158 65.4266ZM195.594 62.8112V63.8283L199.076 61.9394L204.299 57.7258C204.444 57.5805 207.781 55.401 204.879 50.6062C204.008 49.2985 203.138 48.4267 202.122 48.2814C200.962 48.1361 199.946 48.8626 199.801 49.1532L199.656 49.2985H199.366C199.221 49.2985 198.93 49.1532 198.93 48.8626C198.64 48.4267 197.915 46.6831 196.754 45.3754C195.884 44.3583 194.723 43.196 193.707 43.7772L189.935 45.9566L192.837 50.8968L197.044 62.5206L195.594 62.8112Z" fill="#001E20"/>
<path d="M201.253 53.2232C201.253 53.2232 199.367 53.0779 199.077 53.2232C198.787 53.3685 194.579 54.9667 194.579 54.9667L193.999 56.4197L196.03 62.2316L194.87 62.5222V64.847C194.87 64.9923 195.015 64.9923 195.015 64.9923L199.222 62.6675L204.59 58.4539C204.59 58.4539 208.217 56.1291 205.606 51.0437L201.253 53.2232Z" fill="#FF513F"/>
<path d="M195.013 65.4274C194.868 65.4274 194.723 65.4274 194.723 65.2821C194.578 65.1368 194.433 64.9915 194.433 64.7009V61.9403L195.303 61.6497L193.417 56.2736L194.142 54.3848L194.288 54.2395C196.174 53.3677 198.495 52.4959 198.93 52.3506C199.22 52.3506 200.526 52.3506 201.106 52.3506L205.894 49.7352L206.184 50.3164C209.086 55.6925 205.024 58.4531 205.024 58.4531L199.656 62.6668L195.448 64.9915C195.303 65.2821 195.158 65.4274 195.013 65.4274ZM195.593 62.8121V63.8291L199.075 61.9403L204.298 57.7266C204.443 57.5813 207.345 55.6925 205.314 51.6241L201.252 53.8036H201.106C200.236 53.8036 199.22 53.6583 198.93 53.8036C198.64 53.8036 196.464 54.8207 194.868 55.5472L194.433 56.5642L196.609 62.6668L195.593 62.8121Z" fill="#001E20"/>
<path d="M195.883 50.7512L199.22 48.8623V48.717C198.93 48.1358 198.205 46.5375 197.044 45.2299L192.691 47.6999L191.386 50.17L191.821 51.0418L192.401 52.7854L193.852 53.9477L195.883 50.7512Z" fill="#FF513F"/>
<path d="M194.431 54.8198L192.255 53.0763L191.53 51.1874L190.949 50.1703L192.4 47.2644L197.333 44.3584L197.623 44.7943C198.784 46.2473 199.654 47.8455 199.799 48.4267C199.945 48.7173 199.799 48.8626 199.799 49.0079V49.2985L196.317 51.1874L194.431 54.8198ZM193.271 52.4951L193.996 53.0763L195.447 50.3156L198.639 48.572C198.349 47.9908 197.768 46.9738 197.043 45.9567L193.271 48.1361L192.255 50.1703L192.69 50.8968L193.271 52.4951Z" fill="#001E20"/>
<path d="M201.108 52.7873C198.496 48.5736 195.74 50.7531 195.159 51.189C195.159 51.189 195.014 51.189 195.014 51.0437C194.434 49.8813 191.677 44.5053 189.066 45.6677C185.874 47.2659 189.791 54.2402 189.791 54.2402L195.014 64.5564C195.014 64.7017 195.159 64.7017 195.159 64.7017L200.527 60.4881C200.382 60.6334 204.3 58.1633 201.108 52.7873Z" fill="#FF513F"/>
<path d="M195.303 65.4276H195.013C194.868 65.4276 194.577 65.2823 194.577 64.9917L189.354 54.6756C189.209 54.5303 186.598 49.7354 187.468 46.9748C187.758 46.2483 188.194 45.6671 188.919 45.2312C189.79 44.7953 191.386 44.7953 193.417 47.1201C194.287 48.2825 195.013 49.4448 195.448 50.3166C196.028 49.8807 197.044 49.4448 198.205 49.5901C199.51 49.7354 200.671 50.7525 201.687 52.3508C205.169 58.1627 200.816 60.9234 200.816 61.0687L195.303 65.4276ZM189.79 46.2483C189.645 46.2483 189.499 46.2483 189.209 46.3936C188.774 46.5389 188.484 46.9748 188.339 47.4107C187.758 49.2995 189.354 52.932 190.08 54.2397L195.013 64.1199L199.801 60.3422C199.946 60.1969 203.283 58.0174 200.381 53.2226C199.51 51.9149 198.64 51.0431 197.624 50.8978C196.464 50.7525 195.448 51.479 195.303 51.7696L195.158 51.9149H194.868C194.723 51.9149 194.432 51.7696 194.432 51.479C194.142 51.0431 193.417 49.2995 192.256 47.9919C191.676 47.1201 190.66 46.2483 189.79 46.2483Z" fill="#001E20"/>
<path d="M193.157 55.0501L192.126 55.5829L195.052 61.2644L196.084 60.7316L193.157 55.0501Z" fill="#001E20"/>
<path d="M193.998 49.2985L198.351 46.9738L199.221 48.8626L195.014 51.1874L193.998 49.2985Z" fill="#001E20"/>
<path d="M201.397 60.1966L203.429 59.1795L205.895 57.4359L206.621 55.4018V53.3676L206.33 52.6411L202.413 54.8206L202.558 56.4189L202.123 58.1624L201.397 60.1966Z" fill="#001E20"/>
<path d="M168.752 38.6928C166.141 34.4791 163.384 36.6586 162.804 37.0945C162.804 37.0945 162.658 37.0945 162.658 36.9492C162.078 35.7868 159.322 30.4108 156.71 31.5732L152.357 33.8979V34.0433L155.404 39.274L159.467 50.3167L158.306 50.6072V52.932C158.306 53.0773 158.451 53.0773 158.451 53.0773L162.658 50.7525L168.027 46.5389C168.172 46.5389 172.089 44.0688 168.752 38.6928Z" fill="white"/>
<path d="M158.595 53.658C158.45 53.658 158.305 53.658 158.305 53.5127C158.16 53.3674 158.015 53.2221 158.015 52.9316V50.1709L158.885 49.8803L155.113 39.4188L151.921 34.0428V33.7522C151.921 33.6069 152.066 33.4616 152.211 33.3163L156.564 30.9915C157.579 30.5556 159.03 30.4103 161.061 32.8804C161.932 34.0428 162.657 35.2052 163.093 36.077C163.673 35.6411 164.688 35.2052 165.849 35.3505C167.155 35.4958 168.316 36.5128 169.331 38.1111C172.813 43.9231 168.461 46.6837 168.461 46.829L163.093 51.0427L158.885 53.3674C158.74 53.658 158.595 53.658 158.595 53.658ZM159.03 51.188V52.2051L162.512 50.3162L167.735 46.1025C167.88 45.9572 171.217 43.7778 168.316 38.9829C167.445 37.6752 166.575 36.8034 165.559 36.6581C164.398 36.5128 163.383 37.2393 163.238 37.5299L163.093 37.6752H162.802C162.657 37.6752 162.367 37.5299 162.367 37.2393C162.077 36.8034 161.351 35.0599 160.191 33.7522C159.32 32.7351 158.16 31.5727 157.144 32.1539L153.372 34.3334L156.273 39.1282L160.481 50.7521L159.03 51.188Z" fill="#001E20"/>
<path d="M164.545 41.5988C164.545 41.5988 162.659 41.4535 162.369 41.5988C162.079 41.5988 157.871 43.3424 157.871 43.3424L157.291 44.7953L159.322 50.6073L158.162 50.8979V53.2226C158.162 53.3679 158.307 53.3679 158.307 53.3679L162.514 51.0432L167.882 46.8295C167.882 46.8295 171.509 44.5047 168.898 39.4193L164.545 41.5988Z" fill="#007550"/>
<path d="M158.45 53.6589C158.305 53.6589 158.16 53.6588 158.16 53.5135C158.015 53.3682 157.87 53.223 157.87 52.9324V50.1717L158.741 49.8811L156.854 44.5051L157.58 42.6162L157.725 42.4709C159.611 41.5991 161.932 40.7273 162.368 40.582C162.658 40.582 163.964 40.582 164.544 40.582L169.332 37.9667L169.622 38.5479C172.524 43.9239 168.461 46.6845 168.461 46.6845L163.093 50.8982L158.886 53.223C158.596 53.6588 158.596 53.6589 158.45 53.6589ZM158.886 51.1888V52.2059L162.368 50.317L167.591 46.1034C167.736 45.9581 170.638 44.0692 168.606 40.0008L164.544 42.1803H164.399C163.528 42.1803 162.513 42.035 162.223 42.1803C161.932 42.1803 159.756 43.1974 158.16 43.9239L157.725 44.941L159.901 51.0435L158.886 51.1888Z" fill="#001E20"/>
<path d="M159.176 39.1273L162.513 37.2384V37.0931C162.223 36.5119 161.498 34.9136 160.337 33.606L155.985 36.076L154.679 38.5461L155.114 39.4179L155.694 41.1615L157.145 42.3239L159.176 39.1273Z" fill="#007550"/>
<path d="M157.724 43.1961L155.548 41.4525L154.823 39.5636L154.242 38.5466L155.693 35.6406L160.626 32.7346L160.916 33.1705C162.077 34.4782 162.802 36.0765 163.092 36.803C163.237 36.9483 163.092 37.2389 163.092 37.3842V37.6748L159.61 39.5636L157.724 43.1961ZM156.564 40.8713L157.289 41.4525L158.74 38.6918L161.932 36.9483C161.641 36.3671 161.061 35.35 160.336 34.3329L156.564 36.5124L155.548 38.5466L155.983 39.273L156.564 40.8713Z" fill="#001E20"/>
<path d="M164.401 41.1637C161.789 36.9501 159.033 39.1296 158.452 39.5655C158.452 39.5655 158.307 39.5655 158.307 39.4202C157.727 38.2578 154.97 32.8817 152.359 34.0441C149.167 35.6424 153.084 42.6167 153.084 42.6167L158.307 52.9329L158.452 53.0782L163.82 48.8646C163.82 49.0099 167.738 46.5398 164.401 41.1637Z" fill="white"/>
<path d="M158.596 53.804H158.306C158.161 53.804 157.87 53.6587 157.87 53.3681L152.647 43.0519C152.502 42.9066 149.891 38.1118 150.761 35.3511C151.051 34.6246 151.487 34.0434 152.212 33.6075C153.083 33.1716 154.679 33.1716 156.71 35.4964C157.58 36.6588 158.306 37.8212 158.741 38.693C159.321 38.2571 160.337 37.8212 161.498 37.9665C162.803 38.1118 163.964 39.1289 164.98 40.7272C168.462 46.5391 164.109 49.2997 164.109 49.445L158.596 53.804ZM153.228 34.6246C153.083 34.6246 152.937 34.6246 152.647 34.7699C152.212 34.9152 151.922 35.3511 151.777 35.787C151.196 37.6759 152.792 41.3083 153.518 42.616L158.451 52.4963L163.239 48.7186C163.384 48.5733 166.721 46.3938 163.819 41.5989C162.948 40.2913 162.078 39.4195 161.207 39.2742C160.047 39.1289 159.031 39.8554 158.886 40.146L158.741 40.2913H158.451C158.306 40.2913 158.015 40.146 158.015 39.8554C157.725 39.4195 157 37.6759 155.839 36.3682C154.969 35.4964 154.098 34.6246 153.228 34.6246Z" fill="#001E20"/>
<path d="M156.502 43.4501L155.471 43.9829L158.397 49.6651L159.429 49.1323L156.502 43.4501Z" fill="#001E20"/>
<path d="M157.291 37.6748L161.644 35.35L162.659 37.2389L158.307 39.4183L157.291 37.6748Z" fill="#001E20"/>
<path d="M164.69 48.572L166.722 47.5549L169.188 45.8113L169.913 43.7771L170.059 41.743L169.768 41.0165L165.706 43.196L165.996 44.6489L165.416 46.5378L164.69 48.572Z" fill="#001E20"/>
<path d="M149.309 41.1627C149.309 41.1627 146.553 35.3508 150.615 31.2825L151.486 32.1543C147.858 35.6414 150.18 40.5816 150.325 40.7269L149.309 41.1627Z" fill="#001E20"/>
<path d="M229.686 27.9574C232.013 24.204 234.468 26.1454 234.985 26.5337C234.985 26.5337 235.114 26.5337 235.114 26.4043C235.631 25.3689 238.087 20.5801 240.413 21.6155L244.29 23.6863V23.8157L241.576 28.4751L237.957 38.3114L238.991 38.5703V40.6411C238.991 40.7705 238.862 40.7705 238.862 40.7705L235.114 38.6997L230.333 34.9464C230.333 34.9464 226.843 32.7461 229.686 27.9574Z" fill="white"/>
<path d="M238.865 41.418C238.994 41.418 239.123 41.418 239.123 41.2886C239.252 41.1591 239.382 41.0297 239.382 40.7708V38.3118L238.606 38.0529L241.966 28.7342L244.81 23.9455V23.6866C244.81 23.5572 244.68 23.4278 244.551 23.2984L240.674 21.2275C239.769 20.8393 238.477 20.7098 236.668 22.9101C235.892 23.9455 235.246 24.9809 234.858 25.7574C234.341 25.3692 233.437 24.9809 232.403 25.1103C231.24 25.2397 230.206 26.1457 229.301 27.5694C226.2 32.7464 230.077 35.2055 230.077 35.335L234.858 39.0883L238.606 41.1591C238.606 41.418 238.735 41.418 238.865 41.418ZM238.477 39.2177V40.1237L235.375 38.4412L230.723 34.6878C230.594 34.5584 227.621 32.617 230.206 28.346C230.981 27.1811 231.757 26.4046 232.661 26.2751C233.695 26.1457 234.6 26.7929 234.729 27.0517L234.858 27.1811H235.117C235.246 27.1811 235.505 27.0517 235.505 26.7928C235.763 26.4046 236.409 24.8515 237.443 23.6866C238.219 22.7807 239.252 21.7452 240.157 22.2629L243.517 24.2043L240.932 28.6048L237.185 38.9589L238.477 39.2177Z" fill="#001E20"/>
<path d="M233.435 30.547C233.435 30.547 235.115 30.4176 235.373 30.547C235.632 30.547 239.38 32.1001 239.38 32.1001L239.896 33.3943L238.087 38.5714L239.121 38.8302V40.901C239.121 41.0305 238.992 41.0305 238.992 41.0305L235.244 38.9596L230.462 35.2063C230.462 35.2063 227.231 33.1355 229.558 28.6056L233.435 30.547Z" fill="#FF513F"/>
<path d="M238.992 41.4184C239.121 41.4184 239.251 41.4184 239.251 41.289C239.38 41.1595 239.509 41.0301 239.509 40.7713V38.3122L238.863 38.1827L240.543 33.394L239.897 31.7114L239.768 31.582C238.088 30.8055 236.02 30.0289 235.632 29.8995C235.374 29.8995 234.21 29.8995 233.693 29.8995L229.429 27.5698L229.17 28.0875C226.585 32.8763 230.204 35.3354 230.204 35.3354L234.986 39.0887L238.734 41.1595C238.734 41.4184 238.863 41.4184 238.992 41.4184ZM238.604 39.2181V40.1241L235.503 38.4416L230.85 34.6882C230.721 34.5588 228.136 32.8763 229.946 29.2524L233.564 31.1937H233.693C234.469 31.1937 235.374 31.0643 235.632 31.1937C235.89 31.1937 237.829 32.0997 239.251 32.7469L239.638 33.6528L237.7 39.0887L238.604 39.2181Z" fill="#001E20"/>
<path d="M238.217 28.3462L235.245 26.6636V26.5342C235.503 26.0165 236.15 24.5928 237.183 23.428L241.061 25.6282L242.224 27.8285L241.836 28.605L241.319 30.1581L240.027 31.1935L238.217 28.3462Z" fill="#FF513F"/>
<path d="M239.64 32.0994L241.578 30.5463L242.224 28.8638L242.741 27.9578L241.449 25.3693L237.055 22.7808L236.796 23.169C235.892 24.3339 235.116 25.7576 234.858 26.4047C234.729 26.6635 234.858 26.793 234.858 26.9224V27.1812L237.959 28.8638L239.64 32.0994ZM240.673 29.8992L240.027 30.4169L238.735 27.9578L235.892 26.4047C236.15 25.887 236.667 24.981 237.313 24.075L240.673 26.0164L241.449 27.8284L241.061 28.4755L240.673 29.8992Z" fill="#001E20"/>
<path d="M233.564 30.1583C235.89 26.4049 238.346 28.3463 238.863 28.7346C238.863 28.7346 238.992 28.7346 238.992 28.6052C239.509 27.5698 241.965 22.781 244.291 23.8164C247.134 25.2401 243.645 31.4526 243.645 31.4526L238.992 40.6418L238.863 40.7712L234.081 37.0179C234.21 37.1473 230.721 34.9471 233.564 30.1583Z" fill="#FF513F"/>
<path d="M238.863 41.5481H239.122C239.251 41.5481 239.51 41.4186 239.51 41.1598L244.162 31.9705C244.291 31.8411 246.618 27.5701 245.842 25.111C245.584 24.4638 245.196 23.9461 244.55 23.5578C243.774 23.1696 242.353 23.1696 240.543 25.2404C239.768 26.2758 239.122 27.3112 238.734 28.0877C238.217 27.6995 237.313 27.3112 236.279 27.4406C235.116 27.57 234.082 28.476 233.177 29.8997C230.075 35.0768 233.952 37.5358 233.952 37.6653L238.863 41.5481ZM243.645 24.3344C243.774 24.3344 243.904 24.3344 244.162 24.4638C244.55 24.5933 244.808 24.9815 244.937 25.3698C245.454 27.0523 244.033 30.288 243.387 31.4528L238.993 40.2538L234.728 36.8887C234.599 36.7593 231.626 34.8179 234.211 30.5468C234.986 29.382 235.762 28.6055 236.666 28.476C237.7 28.3466 238.605 28.9937 238.734 29.2526L238.863 29.382H239.122C239.251 29.382 239.51 29.2526 239.51 28.9937C239.768 28.6055 240.414 27.0523 241.448 25.8875C242.094 25.111 242.87 24.3344 243.645 24.3344Z" fill="#001E20"/>
<path d="M240.628 32.1573L241.547 32.632L238.94 37.6935L238.021 37.2188L240.628 32.1573Z" fill="#001E20"/>
<path d="M239.896 27.1812L236.019 24.981L235.244 26.6635L238.992 28.7343L239.896 27.1812Z" fill="#001E20"/>
<path d="M233.434 36.7592L231.495 35.9827L229.298 34.3001L228.652 32.4881V30.6762L228.91 30.0291L232.4 31.9704L232.27 33.3941L232.658 35.0767L233.434 36.7592Z" fill="#001E20"/>
<path d="M186.162 71.0946C183.551 66.881 180.794 69.0605 180.214 69.4964C180.214 69.4964 180.069 69.4964 180.069 69.3511C179.488 68.1887 176.732 62.8126 174.12 63.975L169.768 66.2998V66.4451L172.814 71.6758L176.877 82.7185L175.716 83.0091V85.3339C175.716 85.4791 175.861 85.4791 175.861 85.4791L180.069 83.1544L185.437 78.9407C185.437 78.9407 189.354 76.4707 186.162 71.0946Z" fill="white"/>
<path d="M175.86 86.2056C175.715 86.2056 175.57 86.2056 175.57 86.0603C175.425 85.915 175.28 85.7697 175.28 85.4791V82.7184L176.151 82.4279L172.378 71.9664L169.187 66.5904V66.2998C169.187 66.1545 169.332 66.0092 169.477 65.8639L173.829 63.5391C174.845 63.1032 176.296 62.9579 178.327 65.428C179.197 66.5904 179.923 67.7528 180.358 68.6245C180.938 68.1887 181.954 67.7528 183.115 67.8981C184.42 68.0434 185.581 69.0604 186.597 70.6587C190.079 76.4706 185.726 79.2313 185.726 79.3766L180.358 83.5902L176.151 85.915C176.151 86.2056 176.006 86.2056 175.86 86.2056ZM176.296 83.7355V84.7526L179.778 82.8637L185.001 78.6501C185.146 78.5048 188.483 76.3253 185.581 71.5305C184.711 70.2228 183.84 69.351 182.97 69.2057C181.809 69.0604 180.793 69.7869 180.648 70.0775L180.503 70.2228H180.213C180.068 70.2228 179.778 70.0775 179.778 69.7869C179.488 69.351 178.762 67.6075 177.601 66.2998C176.731 65.2827 175.57 64.1203 174.555 64.7015L170.782 66.881L173.539 71.6758L177.747 83.4449L176.296 83.7355Z" fill="#001E20"/>
<path d="M181.956 74.002C181.956 74.002 180.07 73.8567 179.78 74.002C179.49 74.002 175.282 75.7456 175.282 75.7456L174.702 77.1985L176.733 83.0105L175.573 83.3011V85.6259C175.573 85.7712 175.718 85.7711 175.718 85.7711L179.925 83.4464L185.293 79.2327C185.293 79.2327 188.921 76.908 186.309 71.8225L181.956 74.002Z" fill="#FF513F"/>
<path d="M175.716 86.2064C175.571 86.2064 175.426 86.2065 175.426 86.0612C175.281 85.9159 175.136 85.7706 175.136 85.48V82.7193L176.006 82.4287L174.12 77.0527L174.846 75.1638L174.991 75.0185C176.877 74.1467 179.198 73.2749 179.633 73.1296C179.924 73.1296 181.229 73.1296 181.81 73.1296L186.597 70.5143L186.888 71.0955C189.789 76.4715 185.727 79.2321 185.727 79.2321L180.359 83.4458L176.151 85.7705C176.006 86.2064 175.861 86.2064 175.716 86.2064ZM176.151 83.7364V84.7535L179.633 82.8646L184.856 78.651C185.002 78.5057 187.903 76.6168 185.872 72.5485L181.81 74.7279H181.665C180.794 74.7279 179.778 74.5826 179.488 74.7279C179.198 74.7279 177.022 75.745 175.426 76.4715L174.991 77.4886L177.167 83.5911L176.151 83.7364Z" fill="#001E20"/>
<path d="M176.59 71.5299L179.927 69.641V69.4957C179.637 68.9145 178.912 67.3162 177.751 66.0085L173.399 68.4786L172.093 70.9487L172.528 71.8205L173.108 73.564L174.559 74.7264L176.59 71.5299Z" fill="#FF513F"/>
<path d="M175.138 75.5989L172.962 73.8553L172.237 71.9665L171.656 70.9494L173.107 68.0434L178.04 65.1375L178.33 65.5734C179.491 67.0263 180.361 68.6246 180.506 69.2058C180.652 69.3511 180.506 69.6417 180.506 69.787V70.0776L177.024 71.9665L175.138 75.5989ZM173.833 73.2742L174.558 73.8553L176.009 71.0947L179.201 69.3511C178.911 68.7699 178.33 67.7528 177.605 66.7357L173.833 68.9152L172.817 70.9494L173.252 71.6759L173.833 73.2742Z" fill="#001E20"/>
<path d="M181.81 73.5644C179.198 69.3507 176.442 71.5302 175.861 71.9661C175.861 71.9661 175.716 71.9661 175.716 71.8208C175.136 70.6584 172.379 65.2824 169.768 66.4448C166.576 68.043 170.493 75.0174 170.493 75.0174L175.716 85.3335L175.861 85.4788L181.23 81.2652C181.084 81.4105 185.002 78.9404 181.81 73.5644Z" fill="#FF513F"/>
<path d="M175.861 86.3506H175.571C175.426 86.3506 175.136 86.2053 175.136 85.9147L169.913 75.5986C169.768 75.4533 167.156 70.6584 168.027 67.8977C168.317 67.1713 168.752 66.5901 169.478 66.1542C170.348 65.7183 171.944 65.7183 173.975 68.043C174.846 69.2054 175.571 70.3678 176.007 71.2396C176.587 70.8037 177.602 70.3678 178.763 70.5131C180.069 70.6584 181.23 71.6755 182.245 73.2738C185.727 79.0857 181.375 81.8464 181.375 81.9917L175.861 86.3506ZM170.493 67.026C170.348 67.026 170.203 67.026 169.913 67.1713C169.478 67.3166 169.188 67.7525 169.042 68.1884C168.462 70.0772 170.058 73.7097 170.783 75.0174L175.716 84.8977L180.504 81.1199C180.649 80.9746 183.986 78.7951 181.085 74.0003C180.214 72.6926 179.344 71.8208 178.328 71.6755C177.167 71.5302 176.152 72.2567 176.007 72.5473L175.861 72.6926H175.571C175.426 72.6926 175.136 72.5473 175.136 72.2567C174.846 71.8208 174.12 70.0772 172.96 68.7695C172.379 67.8977 171.364 67.026 170.493 67.026Z" fill="#001E20"/>
<path d="M173.866 75.8143L172.835 76.3473L175.762 82.0289L176.793 81.4959L173.866 75.8143Z" fill="#001E20"/>
<path d="M174.701 70.0771L179.054 67.7523L179.924 69.6412L175.717 71.966L174.701 70.0771Z" fill="#001E20"/>
<path d="M181.956 80.9756L184.132 80.1038L186.599 78.215L187.324 76.1808V74.1467L187.034 73.4202L183.117 75.5996L183.262 77.1979L182.827 79.0868L181.956 80.9756Z" fill="#001E20"/>
<path d="M190.371 76.0347L189.21 75.8894C189.5 73.7099 188.63 72.1117 188.63 72.1117L189.645 71.6758C189.791 71.8211 190.661 73.7099 190.371 76.0347Z" fill="#001E20"/>
<path d="M194.721 57.5816C192.109 53.3679 189.353 55.5474 188.772 55.9833C188.772 55.9833 188.627 55.9833 188.627 55.838C188.047 54.6756 185.29 49.2996 182.679 50.462L178.326 52.7867V52.932L181.373 58.1628L185.435 69.2054L184.275 69.496V71.8208C184.275 71.9661 184.42 71.9661 184.42 71.9661L188.627 69.6413L193.995 65.4277C194.14 65.4277 198.058 62.9576 194.721 57.5816Z" fill="white"/>
<path d="M184.566 72.6926C184.421 72.6926 184.276 72.6926 184.276 72.5473C184.131 72.402 183.986 72.2567 183.986 71.9661V69.2055L184.856 68.9149L181.084 58.4534L178.037 53.2227V52.9321C178.037 52.7868 178.182 52.6415 178.327 52.4962L182.68 50.1714C185.436 48.8638 188.193 53.2227 189.209 55.2569C189.789 54.821 190.805 54.3851 191.965 54.5304C193.271 54.6757 194.432 55.6928 195.447 57.291C198.929 63.103 194.577 65.8636 194.577 66.0089L189.209 70.2225L185.001 72.5473C184.711 72.6926 184.711 72.6926 184.566 72.6926ZM185.001 70.2225V71.2396L188.483 69.3508L193.706 65.1371C193.851 64.9918 197.188 62.8124 194.287 58.0175C193.416 56.7098 192.546 55.838 191.675 55.6928C190.514 55.5475 189.499 56.274 189.354 56.5645L189.064 56.7098H188.773C188.628 56.7098 188.338 56.5645 188.338 56.2739C187.178 53.9492 184.856 50.3167 183.115 51.1885L179.343 53.368L182.245 58.3081L186.452 69.932L185.001 70.2225Z" fill="#001E20"/>
<path d="M190.517 60.4871C190.517 60.4871 188.631 60.3418 188.341 60.4871C188.05 60.4871 183.843 62.2307 183.843 62.2307L183.263 63.6836L185.294 69.4956L184.133 69.7862V72.1109C184.133 72.2562 184.278 72.2562 184.278 72.2562L188.486 69.9315L193.854 65.7178C193.854 65.7178 197.481 63.3931 194.869 58.3076L190.517 60.4871Z" fill="#007550"/>
<path d="M184.421 72.6921C184.276 72.6921 184.131 72.6921 184.131 72.5468C183.986 72.4015 183.841 72.2562 183.841 71.9656V69.2049L184.711 68.9143L182.825 63.5383L183.551 61.6494L183.696 61.5041C185.582 60.6323 187.903 59.7605 188.338 59.6152C188.629 59.6152 189.934 59.6152 190.515 59.6152L195.302 56.9999L195.593 57.5811C198.494 62.9571 194.432 65.7178 194.432 65.7178L189.064 69.9314L184.856 72.2562C184.566 72.6921 184.566 72.6921 184.421 72.6921ZM184.856 70.222V71.2391L188.338 69.3502L193.561 65.1366C193.707 64.9913 196.608 63.1024 194.577 59.0341L190.515 61.2135H190.37C189.499 61.2135 188.483 61.0682 188.193 61.2135C187.903 61.2135 185.727 62.2306 184.131 62.9571L183.696 63.9742L185.872 70.0767L184.856 70.222Z" fill="#001E20"/>
<path d="M185.147 58.0183L188.484 56.1294V55.9841C188.194 55.4029 187.468 53.8046 186.308 52.4969L181.955 54.967L180.649 57.4371L181.085 58.3089L181.665 60.0524L183.116 61.2148L185.147 58.0183Z" fill="#007550"/>
<path d="M183.695 62.2317L181.519 60.4882L180.793 58.5993L180.213 57.5822L181.664 54.6762L186.597 51.7703L186.887 52.2062C188.047 53.6591 188.918 55.2574 189.063 55.8386C189.208 55.9839 189.063 56.2745 189.063 56.4198V56.7104L185.581 58.5993L183.695 62.2317ZM182.534 59.7617L183.26 60.3429L184.711 57.5822L187.902 55.8386C187.612 55.2574 187.032 54.2403 186.306 53.2232L182.534 55.4027L181.519 57.4369L181.954 58.1634L182.534 59.7617Z" fill="#001E20"/>
<path d="M190.371 60.0518C187.76 55.8381 185.003 58.0176 184.423 58.4535C184.423 58.4535 184.278 58.4535 184.278 58.3082C183.698 57.1458 180.941 51.7698 178.329 52.9322C175.137 54.5305 179.055 61.5048 179.055 61.5048L184.278 71.8209L184.423 71.9662L189.791 67.7526C189.791 67.8979 193.708 65.4278 190.371 60.0518Z" fill="white"/>
<path d="M184.567 72.838H184.276C184.131 72.838 183.841 72.6927 183.841 72.4021L178.618 62.086C178.473 61.9407 175.861 57.1458 176.732 54.3852C177.022 53.6587 177.457 53.0775 178.183 52.6416C179.053 52.2057 180.649 52.2057 182.68 54.5305C183.551 55.6929 184.276 56.8552 184.712 57.727C185.292 57.2911 186.308 56.8552 187.468 57.0005C188.774 57.1458 189.935 58.1629 190.95 59.7612C194.432 65.5731 190.08 68.3338 190.08 68.4791L184.567 72.838ZM179.198 53.5134C179.053 53.5134 178.908 53.5134 178.618 53.6587C178.183 53.804 177.893 54.2399 177.748 54.6758C177.167 56.5646 178.763 60.1971 179.489 61.5048L184.421 71.385L189.209 67.6073C189.354 67.462 192.691 65.2825 189.79 60.4877C188.919 59.18 188.049 58.3082 187.178 58.1629C186.017 58.0176 185.002 58.7441 184.857 59.0347L184.567 59.18H184.276C184.131 59.18 183.841 59.0347 183.841 58.7441C183.551 58.3082 182.825 56.5646 181.665 55.257C180.939 54.3852 180.069 53.5134 179.198 53.5134Z" fill="#001E20"/>
<path d="M182.446 62.3564L181.414 62.8893L184.34 68.5715L185.372 68.0387L182.446 62.3564Z" fill="#001E20"/>
<path d="M183.407 56.7102L187.76 54.2401L188.63 56.129L184.278 58.4537L183.407 56.7102Z" fill="#001E20"/>
<path d="M190.662 67.4612L192.838 66.5895L195.16 64.7006L195.885 62.6664L196.03 60.6323L195.74 59.9058L191.678 62.0852L191.968 63.6835L191.388 65.5724L190.662 67.4612Z" fill="#001E20"/>
<path d="M130.443 112.067L129.137 112.793C128.992 112.938 128.702 112.793 128.557 112.793L127.251 112.067C127.106 111.921 127.106 111.776 127.251 111.776L128.557 111.05C128.702 110.904 128.992 111.05 129.137 111.05L130.443 111.776C130.588 111.776 130.588 111.921 130.443 112.067Z" fill="white"/>
<path d="M133.639 113.811L132.334 114.537C132.189 114.683 131.898 114.537 131.753 114.537L130.448 113.811C130.303 113.666 130.303 113.52 130.448 113.52L131.753 112.794C131.898 112.649 132.189 112.794 132.334 112.794L133.639 113.52C133.785 113.666 133.785 113.811 133.639 113.811Z" fill="white"/>
<path d="M130.301 115.845L128.995 116.571C128.85 116.717 128.56 116.571 128.415 116.571L127.109 115.845C126.964 115.7 126.964 115.554 127.109 115.554L128.415 114.828C128.56 114.682 128.85 114.828 128.995 114.828L130.301 115.554C130.446 115.554 130.446 115.7 130.301 115.845Z" fill="white"/>
<path d="M136.83 115.699L135.524 116.426C135.379 116.571 135.089 116.426 134.944 116.426L133.638 115.699C133.493 115.554 133.493 115.408 133.638 115.408L134.944 114.682C135.089 114.537 135.379 114.682 135.524 114.682L136.83 115.408C136.975 115.408 136.975 115.554 136.83 115.699Z" fill="white"/>
<path d="M133.492 117.588L132.186 118.315C132.041 118.46 131.751 118.315 131.606 118.315L130.3 117.588C130.155 117.443 130.155 117.298 130.3 117.298L131.606 116.571C131.751 116.426 132.041 116.571 132.186 116.571L133.492 117.298C133.637 117.443 133.637 117.588 133.492 117.588Z" fill="white"/>
<path d="M140.169 117.588L138.863 118.315C138.718 118.46 138.428 118.315 138.283 118.315L136.977 117.588C136.832 117.443 136.832 117.298 136.977 117.298L138.283 116.571C138.428 116.426 138.718 116.571 138.863 116.571L140.169 117.298C140.314 117.443 140.314 117.588 140.169 117.588Z" fill="white"/>
<path d="M136.83 119.622L135.524 120.349C135.379 120.494 135.089 120.349 134.944 120.349L133.638 119.622C133.493 119.477 133.493 119.332 133.638 119.332L134.944 118.605C135.089 118.46 135.379 118.605 135.524 118.605L136.83 119.332C136.975 119.332 136.975 119.477 136.83 119.622Z" fill="white"/>
<path d="M143.359 119.476L142.054 120.203C141.908 120.348 141.618 120.203 141.473 120.203L140.167 119.476C140.022 119.331 140.022 119.186 140.167 119.186L141.473 118.459C141.618 118.314 141.908 118.459 142.054 118.459L143.359 119.186C143.504 119.186 143.504 119.331 143.359 119.476Z" fill="white"/>
<path d="M140.02 121.367L138.715 122.093C138.57 122.238 138.279 122.093 138.134 122.093L136.829 121.367C136.683 121.221 136.683 121.076 136.829 121.076L138.134 120.349C138.279 120.204 138.57 120.349 138.715 120.349L140.02 121.076C140.165 121.221 140.165 121.367 140.02 121.367Z" fill="white"/>
<path d="M146.55 121.367L145.244 122.093C145.099 122.238 144.809 122.093 144.664 122.093L143.358 121.367C143.213 121.221 143.213 121.076 143.358 121.076L144.664 120.349C144.809 120.204 145.099 120.349 145.244 120.349L146.55 121.076C146.695 121.076 146.695 121.221 146.55 121.367Z" fill="white"/>
<path d="M143.214 123.255L141.908 123.982C141.763 124.127 141.473 123.982 141.328 123.982L140.022 123.255C139.877 123.11 139.877 122.965 140.022 122.965L141.328 122.238C141.473 122.093 141.763 122.238 141.908 122.238L143.214 122.965C143.359 122.965 143.359 123.11 143.214 123.255Z" fill="white"/>
<path d="M150.032 123.255L148.726 123.982C148.581 124.127 148.291 123.982 148.146 123.982L146.84 123.255C146.695 123.11 146.695 122.965 146.84 122.965L148.146 122.238C148.291 122.093 148.581 122.238 148.726 122.238L150.032 122.965C150.032 123.11 150.177 123.11 150.032 123.255Z" fill="white"/>
<path d="M146.55 125.144L145.244 125.87C145.099 126.015 144.809 125.87 144.664 125.87L143.358 125.144C143.213 124.998 143.213 124.853 143.358 124.853L144.664 124.126C144.809 123.981 145.099 124.126 145.244 124.126L146.55 124.853C146.695 124.998 146.695 125.144 146.55 125.144Z" fill="white"/>
<path d="M153.224 125.144L151.918 125.87C151.773 126.015 151.483 125.87 151.338 125.87L149.887 125.144C149.742 124.998 149.742 124.853 149.887 124.853L151.193 124.126C151.338 123.981 151.628 124.126 151.773 124.126L153.079 124.853C153.224 124.853 153.224 124.998 153.224 125.144Z" fill="white"/>
<path d="M149.743 127.032L148.437 127.759C148.292 127.904 148.002 127.759 147.857 127.759L146.551 127.032C146.406 126.887 146.406 126.742 146.551 126.742L147.857 126.015C148.002 125.87 148.292 126.015 148.437 126.015L149.743 126.742C149.888 126.887 149.888 127.032 149.743 127.032Z" fill="white"/>
<path d="M156.271 126.887L154.966 127.614C154.821 127.759 154.53 127.614 154.385 127.614L153.08 126.887C152.934 126.742 152.934 126.597 153.08 126.597L154.385 125.87C154.53 125.725 154.821 125.87 154.966 125.87L156.271 126.597C156.416 126.742 156.416 126.887 156.271 126.887Z" fill="white"/>
<path d="M152.935 128.92L151.629 129.647C151.484 129.792 151.193 129.647 151.048 129.647L149.743 128.92C149.598 128.775 149.598 128.63 149.743 128.63L151.048 127.903C151.193 127.758 151.484 127.903 151.629 127.903L152.935 128.63C153.08 128.63 153.08 128.775 152.935 128.92Z" fill="white"/>
<path d="M159.754 128.92L158.448 129.647C158.303 129.792 158.013 129.647 157.868 129.647L156.562 128.92C156.417 128.775 156.417 128.63 156.562 128.63L157.868 127.903C158.013 127.758 158.303 127.903 158.448 127.903L159.754 128.63C159.899 128.63 159.899 128.775 159.754 128.92Z" fill="white"/>
<path d="M156.417 130.811L155.111 131.537C154.966 131.683 154.676 131.537 154.531 131.537L153.225 130.811C153.08 130.666 153.08 130.52 153.225 130.52L154.531 129.794C154.676 129.649 154.966 129.794 155.111 129.794L156.417 130.52C156.417 130.666 156.562 130.811 156.417 130.811Z" fill="white"/>
<path d="M162.945 130.665L161.64 131.391C161.494 131.536 161.204 131.391 161.059 131.391L159.753 130.665C159.608 130.519 159.608 130.374 159.753 130.374L161.059 129.647C161.204 129.502 161.494 129.647 161.64 129.647L162.945 130.374C162.945 130.519 163.09 130.665 162.945 130.665Z" fill="white"/>
<path d="M159.608 132.699L158.303 133.426C158.157 133.571 157.867 133.426 157.722 133.426L156.416 132.699C156.271 132.554 156.271 132.409 156.416 132.409L157.722 131.682C157.867 131.537 158.157 131.682 158.303 131.682L159.608 132.409C159.608 132.409 159.608 132.554 159.608 132.699Z" fill="white"/>
<path d="M166.137 132.554L164.831 133.28C164.686 133.426 164.396 133.28 164.251 133.28L162.945 132.554C162.8 132.408 162.8 132.263 162.945 132.263L164.251 131.537C164.396 131.391 164.686 131.537 164.831 131.537L166.137 132.263C166.137 132.408 166.282 132.554 166.137 132.554Z" fill="white"/>
<path d="M162.655 134.443L161.349 135.17C161.204 135.315 160.914 135.17 160.769 135.17L159.463 134.443C159.318 134.298 159.318 134.153 159.463 134.153L160.769 133.426C160.914 133.281 161.204 133.426 161.349 133.426L162.655 134.153C162.8 134.298 162.8 134.443 162.655 134.443Z" fill="white"/>
<path d="M169.473 134.588L168.168 135.315C168.023 135.46 167.733 135.315 167.587 135.315L166.282 134.588C166.137 134.443 166.137 134.298 166.282 134.298L167.587 133.571C167.733 133.426 168.023 133.571 168.168 133.571L169.473 134.298C169.619 134.298 169.619 134.443 169.473 134.588Z" fill="white"/>
<path d="M166.137 136.477L164.831 137.203C164.686 137.348 164.396 137.203 164.251 137.203L162.945 136.477C162.8 136.331 162.8 136.186 162.945 136.186L164.251 135.46C164.396 135.314 164.686 135.46 164.831 135.46L166.137 136.186C166.282 136.186 166.282 136.331 166.137 136.477Z" fill="white"/>
<path d="M172.665 136.332L171.359 137.058C171.214 137.204 170.924 137.058 170.779 137.058L169.473 136.332C169.328 136.187 169.328 136.041 169.473 136.041L170.779 135.315C170.924 135.17 171.214 135.315 171.359 135.315L172.665 136.041C172.81 136.187 172.81 136.332 172.665 136.332Z" fill="white"/>
<path d="M169.329 138.366L168.023 139.092C167.878 139.237 167.588 139.092 167.443 139.092L166.137 138.366C165.992 138.22 165.992 138.075 166.137 138.075L167.443 137.348C167.588 137.203 167.878 137.348 168.023 137.348L169.329 138.075C169.329 138.075 169.474 138.22 169.329 138.366Z" fill="white"/>
<path d="M175.858 138.22L174.553 138.947C174.407 139.092 174.117 138.947 173.972 138.947L172.666 138.22C172.521 138.075 172.521 137.93 172.666 137.93L173.972 137.203C174.117 137.058 174.407 137.203 174.553 137.203L175.858 137.93C176.003 137.93 176.003 138.075 175.858 138.22Z" fill="white"/>
<path d="M172.519 140.109L171.214 140.835C171.069 140.981 170.778 140.835 170.633 140.835L169.328 140.109C169.182 139.964 169.182 139.818 169.328 139.818L170.633 139.092C170.778 138.947 171.069 139.092 171.214 139.092L172.519 139.818C172.519 139.964 172.664 140.109 172.519 140.109Z" fill="white"/>
<path d="M179.193 140.109L177.887 140.835C177.742 140.981 177.452 140.835 177.307 140.835L176.001 140.109C175.856 139.964 175.856 139.818 176.001 139.818L177.307 139.092C177.452 138.947 177.742 139.092 177.887 139.092L179.193 139.818C179.338 139.964 179.338 140.109 179.193 140.109Z" fill="white"/>
<path d="M175.857 142.144L174.552 142.87C174.406 143.016 174.116 142.87 173.971 142.87L172.665 142.144C172.52 141.999 172.52 141.853 172.665 141.853L173.971 141.127C174.116 140.982 174.406 141.127 174.552 141.127L175.857 141.853C176.002 141.853 176.002 141.999 175.857 142.144Z" fill="white"/>
<path d="M182.531 138.22L181.225 138.947C181.08 139.092 180.79 138.947 180.645 138.947L179.339 138.22C179.194 138.075 179.194 137.93 179.339 137.93L180.645 137.203C180.79 137.058 181.08 137.203 181.225 137.203L182.531 137.93C182.676 137.93 182.676 138.075 182.531 138.22Z" fill="white"/>
<path d="M185.869 136.332L184.563 137.058C184.418 137.204 184.128 137.058 183.983 137.058L182.677 136.332C182.532 136.187 182.532 136.041 182.677 136.041L183.983 135.315C184.128 135.17 184.418 135.315 184.563 135.315L185.869 136.041C186.014 136.041 186.014 136.187 185.869 136.332Z" fill="white"/>
<path d="M189.205 134.298L187.899 135.024C187.754 135.169 187.464 135.024 187.319 135.024L186.013 134.298C185.868 134.152 185.868 134.007 186.013 134.007L187.319 133.28C187.464 133.135 187.754 133.28 187.899 133.28L189.205 134.007C189.35 134.152 189.35 134.298 189.205 134.298Z" fill="white"/>
<path d="M192.544 132.408L191.238 133.134C191.093 133.28 190.803 133.134 190.658 133.134L189.352 132.408C189.207 132.263 189.207 132.117 189.352 132.117L190.658 131.391C190.803 131.246 191.093 131.391 191.238 131.391L192.544 132.117C192.689 132.117 192.689 132.263 192.544 132.408Z" fill="white"/>
<path d="M196.024 130.52L194.719 131.246C194.573 131.391 194.283 131.246 194.138 131.246L192.832 130.52C192.687 130.374 192.687 130.229 192.832 130.229L194.138 129.503C194.283 129.357 194.573 129.503 194.719 129.503L196.024 130.229C196.024 130.229 196.169 130.374 196.024 130.52Z" fill="white"/>
<path d="M199.361 128.485L198.056 129.211C197.91 129.357 197.62 129.211 197.475 129.211L196.169 128.485C196.024 128.339 196.024 128.194 196.169 128.194L197.475 127.468C197.62 127.322 197.91 127.468 198.056 127.468L199.361 128.194C199.506 128.339 199.506 128.485 199.361 128.485Z" fill="white"/>
<path d="M202.697 126.597L201.391 127.323C201.246 127.468 200.956 127.323 200.811 127.323L199.505 126.597C199.36 126.451 199.36 126.306 199.505 126.306L200.811 125.58C200.956 125.434 201.246 125.58 201.391 125.58L202.697 126.306C202.842 126.306 202.842 126.451 202.697 126.597Z" fill="white"/>
<path d="M206.035 124.562L204.729 125.289C204.584 125.434 204.294 125.289 204.149 125.289L202.843 124.562C202.698 124.417 202.698 124.271 202.843 124.271L204.149 123.545C204.294 123.4 204.584 123.545 204.729 123.545L206.035 124.271C206.18 124.417 206.18 124.562 206.035 124.562Z" fill="white"/>
<path d="M209.372 122.673L208.066 123.399C207.921 123.545 207.631 123.399 207.486 123.399L206.18 122.673C206.035 122.528 206.035 122.382 206.18 122.382L207.486 121.656C207.631 121.511 207.921 121.656 208.066 121.656L209.372 122.382C209.517 122.528 209.517 122.673 209.372 122.673Z" fill="white"/>
<path d="M212.71 120.785L211.404 121.511C211.259 121.657 210.969 121.511 210.824 121.511L209.518 120.785C209.373 120.64 209.373 120.494 209.518 120.494L210.824 119.768C210.969 119.622 211.259 119.768 211.404 119.768L212.71 120.494C212.855 120.494 212.855 120.64 212.71 120.785Z" fill="white"/>
<path d="M216.045 118.749L214.739 119.476C214.594 119.621 214.304 119.476 214.159 119.476L212.853 118.749C212.708 118.604 212.708 118.459 212.853 118.459L214.159 117.732C214.304 117.587 214.594 117.732 214.739 117.732L216.045 118.459C216.19 118.604 216.19 118.749 216.045 118.749Z" fill="white"/>
<path d="M219.384 116.861L218.078 117.587C217.933 117.733 217.643 117.587 217.498 117.587L216.192 116.861C216.047 116.716 216.047 116.57 216.192 116.57L217.498 115.844C217.643 115.698 217.933 115.844 218.078 115.844L219.384 116.57C219.529 116.716 219.529 116.861 219.384 116.861Z" fill="white"/>
<path d="M222.864 114.973L221.558 115.7C221.413 115.845 221.123 115.7 220.978 115.7L219.527 114.973C219.382 114.828 219.382 114.682 219.527 114.682L220.833 113.956C220.978 113.811 221.268 113.956 221.413 113.956L222.719 114.682C222.864 114.682 222.864 114.828 222.864 114.973Z" fill="white"/>
<path d="M182.387 141.998L181.081 142.724C180.936 142.869 180.646 142.724 180.501 142.724L179.195 141.998C179.05 141.852 179.05 141.707 179.195 141.707L180.501 140.98C180.646 140.835 180.936 140.98 181.081 140.98L182.387 141.707C182.532 141.707 182.532 141.852 182.387 141.998Z" fill="white"/>
<path d="M185.722 140.109L184.416 140.835C184.271 140.981 183.981 140.835 183.835 140.835L182.53 140.109C182.385 139.964 182.385 139.818 182.53 139.818L183.835 139.092C183.981 138.947 184.271 139.092 184.416 139.092L185.722 139.818C185.867 139.818 185.867 139.964 185.722 140.109Z" fill="white"/>
<path d="M189.061 138.075L187.755 138.802C187.61 138.947 187.319 138.802 187.174 138.802L185.869 138.075C185.723 137.93 185.723 137.785 185.869 137.785L187.174 137.058C187.319 136.913 187.61 137.058 187.755 137.058L189.061 137.785C189.206 137.93 189.206 138.075 189.061 138.075Z" fill="white"/>
<path d="M192.398 136.186L191.093 136.912C190.947 137.058 190.657 136.912 190.512 136.912L189.206 136.186C189.061 136.04 189.061 135.895 189.206 135.895L190.512 135.169C190.657 135.023 190.947 135.169 191.093 135.169L192.398 135.895C192.543 135.895 192.543 136.04 192.398 136.186Z" fill="white"/>
<path d="M195.733 134.298L194.428 135.024C194.282 135.169 193.992 135.024 193.847 135.024L192.541 134.298C192.396 134.152 192.396 134.007 192.541 134.007L193.847 133.28C193.992 133.135 194.282 133.28 194.428 133.28L195.733 134.007C195.878 134.007 195.878 134.152 195.733 134.298Z" fill="white"/>
<path d="M199.072 132.263L197.766 132.99C197.621 133.135 197.331 132.99 197.186 132.99L195.88 132.263C195.735 132.118 195.735 131.973 195.88 131.973L197.186 131.246C197.331 131.101 197.621 131.246 197.766 131.246L199.072 131.973C199.217 132.118 199.217 132.263 199.072 132.263Z" fill="white"/>
<path d="M202.555 130.373L201.249 131.1C201.104 131.245 200.814 131.1 200.668 131.1L199.363 130.373C199.218 130.228 199.218 130.083 199.363 130.083L200.668 129.356C200.814 129.211 201.104 129.356 201.249 129.356L202.555 130.083C202.555 130.083 202.7 130.228 202.555 130.373Z" fill="white"/>
<path d="M205.891 128.485L204.585 129.211C204.44 129.357 204.15 129.211 204.004 129.211L202.699 128.485C202.554 128.339 202.554 128.194 202.699 128.194L204.004 127.468C204.15 127.322 204.44 127.468 204.585 127.468L205.891 128.194C206.036 128.194 206.036 128.339 205.891 128.485Z" fill="white"/>
<path d="M209.227 126.452L207.922 127.179C207.777 127.324 207.486 127.179 207.341 127.179L206.036 126.452C205.89 126.307 205.89 126.162 206.036 126.162L207.341 125.435C207.486 125.29 207.777 125.435 207.922 125.435L209.227 126.162C209.372 126.307 209.372 126.452 209.227 126.452Z" fill="white"/>
<path d="M212.563 124.562L211.258 125.289C211.113 125.434 210.822 125.289 210.677 125.289L209.372 124.562C209.226 124.417 209.226 124.271 209.372 124.271L210.677 123.545C210.822 123.4 211.113 123.545 211.258 123.545L212.563 124.271C212.708 124.271 212.708 124.417 212.563 124.562Z" fill="white"/>
<path d="M215.9 122.528L214.595 123.255C214.449 123.4 214.159 123.255 214.014 123.255L212.708 122.528C212.563 122.383 212.563 122.238 212.708 122.238L214.014 121.511C214.159 121.366 214.449 121.511 214.595 121.511L215.9 122.238C216.045 122.383 216.045 122.528 215.9 122.528Z" fill="white"/>
<path d="M219.239 120.64L217.933 121.366C217.788 121.512 217.498 121.366 217.353 121.366L216.047 120.64C215.902 120.495 215.902 120.349 216.047 120.349L217.353 119.623C217.498 119.478 217.788 119.623 217.933 119.623L219.239 120.349C219.384 120.495 219.384 120.64 219.239 120.64Z" fill="white"/>
<path d="M222.574 118.749L221.268 119.476C221.123 119.621 220.833 119.476 220.688 119.476L219.382 118.749C219.237 118.604 219.237 118.459 219.382 118.459L220.688 117.732C220.833 117.587 221.123 117.732 221.268 117.732L222.574 118.459C222.719 118.459 222.719 118.604 222.574 118.749Z" fill="white"/>
<path d="M225.913 116.717L224.607 117.443C224.462 117.589 224.172 117.443 224.027 117.443L222.721 116.717C222.576 116.572 222.576 116.426 222.721 116.426L224.027 115.7C224.172 115.555 224.462 115.7 224.607 115.7L225.913 116.426C226.058 116.572 226.058 116.717 225.913 116.717Z" fill="white"/>
<path d="M229.541 118.896L228.235 119.622C228.09 119.768 227.8 119.622 227.655 119.622L226.349 118.896C226.204 118.75 226.204 118.605 226.349 118.605L227.655 117.879C227.8 117.733 228.09 117.879 228.235 117.879L229.541 118.605C229.686 118.75 229.686 118.896 229.541 118.896Z" fill="white"/>
<path d="M226.202 120.785L224.896 121.512C224.751 121.657 224.461 121.512 224.316 121.512L223.01 120.785C222.865 120.64 222.865 120.495 223.01 120.495L224.316 119.768C224.461 119.623 224.751 119.768 224.896 119.768L226.202 120.495C226.347 120.64 226.347 120.785 226.202 120.785Z" fill="white"/>
<path d="M232.876 117.008L231.57 117.734C231.425 117.88 231.135 117.734 230.99 117.734L229.684 117.008C229.539 116.863 229.539 116.717 229.684 116.717L230.99 115.991C231.135 115.846 231.425 115.991 231.57 115.991L232.876 116.717C233.021 116.717 233.021 116.863 232.876 117.008Z" fill="white"/>
<path d="M236.359 114.973L235.054 115.699C234.908 115.845 234.618 115.699 234.473 115.699L233.167 114.973C233.022 114.828 233.022 114.682 233.167 114.682L234.473 113.956C234.618 113.811 234.908 113.956 235.054 113.956L236.359 114.682C236.359 114.828 236.504 114.973 236.359 114.973Z" fill="white"/>
<path d="M239.697 113.084L238.391 113.811C238.246 113.956 237.956 113.811 237.811 113.811L236.505 113.084C236.36 112.939 236.36 112.794 236.505 112.794L237.811 112.067C237.956 111.922 238.246 112.067 238.391 112.067L239.697 112.794C239.842 112.939 239.842 112.939 239.697 113.084Z" fill="white"/>
<path d="M243.032 111.196L241.726 111.922C241.581 112.067 241.291 111.922 241.146 111.922L239.84 111.196C239.695 111.05 239.695 110.905 239.84 110.905L241.146 110.179C241.291 110.033 241.581 110.179 241.726 110.179L243.032 110.905C243.177 110.905 243.177 111.05 243.032 111.196Z" fill="white"/>
<path d="M232.731 120.785L231.426 121.512C231.281 121.657 230.99 121.512 230.845 121.512L229.539 120.785C229.394 120.64 229.394 120.495 229.539 120.495L230.845 119.768C230.99 119.623 231.281 119.768 231.426 119.768L232.731 120.495C232.877 120.495 232.877 120.64 232.731 120.785Z" fill="white"/>
<path d="M236.07 118.752L234.765 119.478C234.619 119.624 234.329 119.478 234.184 119.478L232.878 118.752C232.733 118.607 232.733 118.461 232.878 118.461L234.184 117.735C234.329 117.589 234.619 117.735 234.765 117.735L236.07 118.461C236.215 118.607 236.215 118.752 236.07 118.752Z" fill="white"/>
<path d="M239.549 116.863L238.243 117.59C238.098 117.735 237.808 117.59 237.663 117.59L236.357 116.863C236.212 116.718 236.212 116.572 236.357 116.572L237.663 115.846C237.808 115.701 238.098 115.846 238.243 115.846L239.549 116.572C239.549 116.718 239.549 116.718 239.549 116.863Z" fill="white"/>
<path d="M242.888 114.973L241.582 115.699C241.437 115.845 241.147 115.699 241.002 115.699L239.696 114.973C239.551 114.828 239.551 114.682 239.696 114.682L241.002 113.956C241.147 113.811 241.437 113.956 241.582 113.956L242.888 114.682C242.888 114.682 243.033 114.828 242.888 114.973Z" fill="white"/>
<path d="M112.655 75.1607C111.837 72.1984 112.338 69.4046 113.829 67.2696L113.829 67.2695L114.742 65.9603C114.001 67.8279 113.876 69.996 114.499 72.2519L114.499 72.2521C116.168 78.2409 122.574 82.5722 128.807 81.9248C131.106 81.6887 133.067 80.7997 134.545 79.4668L133.632 80.7759L133.632 80.776M112.655 75.1607L133.632 80.776M112.655 75.1607C114.293 81.0407 120.594 85.2999 126.713 84.6643C129.748 84.3419 132.164 82.8769 133.632 80.776M112.655 75.1607L133.632 80.776M113.732 67.2037L114.98 65.4131L112.542 75.1918C111.715 72.1989 112.22 69.3692 113.732 67.2037ZM115.793 64.247L115.803 64.2328L115.793 64.247Z" fill="#3C3C3B" stroke="#16110D" stroke-width="0.238956"/>
<path d="M136.558 70.174C138.18 75.9918 134.579 81.2294 128.52 81.8593C122.445 82.4908 116.189 78.2672 114.563 72.4352C112.942 66.6174 116.542 61.3798 122.601 60.7499C128.684 60.1236 134.932 64.342 136.558 70.174Z" fill="#EDEDED" stroke="#16110D" stroke-width="0.238956"/>
<path d="M115.984 71.484L115.984 71.4836C115.329 69.1542 115.614 66.9644 116.757 65.3162C117.885 63.6908 119.827 62.6374 122.233 62.3923L122.233 62.3922C124.932 62.1097 127.762 62.8715 130.227 64.5366C132.693 66.2015 134.437 68.545 135.155 71.136L135.155 71.1364C135.81 73.4658 135.525 75.6556 134.382 77.3038C133.254 78.9292 131.312 79.9826 128.906 80.2277C126.214 80.4988 123.369 79.7429 120.911 78.0834C118.446 76.4185 116.702 74.075 115.984 71.484Z" fill="#3C3C3B" stroke="#16110D" stroke-width="0.238956"/>
<path d="M115.52 72.1637L115.52 72.1633C114.865 69.8339 115.15 67.6441 116.293 65.9958C117.421 64.3705 119.363 63.3171 121.769 63.072L121.769 63.072C124.469 62.7894 127.298 63.5512 129.763 65.2163C132.229 66.8812 133.973 69.2247 134.691 71.8157L134.691 71.8161C135.346 74.1455 135.061 76.3353 133.918 77.9836C132.79 79.6089 130.848 80.6623 128.442 80.9074C125.75 81.1785 122.905 80.4226 120.448 78.7631C117.982 77.0982 116.238 74.7547 115.52 72.1637Z" fill="#FFC856" stroke="#16110D" stroke-width="0.238956"/>
<path d="M122.209 65.3566L121.9 64.2495L122.552 63.3212L122.855 64.4241L122.209 65.3566Z" fill="#3C3C3B" stroke="#16110D" stroke-width="0.238956"/>
<path d="M125.851 68.5288L125.851 68.5288L125.851 68.528C125.756 68.1816 125.591 67.8035 125.302 67.4975C125.046 67.2251 124.696 67.0141 124.223 66.9317L124.914 65.9352C125.388 65.992 125.722 66.1877 125.963 66.4427C126.216 66.7119 126.37 67.0527 126.463 67.38L126.534 67.6497L126.56 67.7461L126.66 67.7354L128.547 67.5348L127.883 68.4918L125.897 68.703L125.851 68.5288Z" fill="#3C3C3B" stroke="#16110D" stroke-width="0.238956"/>
<path d="M122.763 66.981L123.179 66.3805C123.249 66.2804 123.35 66.1874 123.486 66.1032L124.451 69.5648L123.797 70.508L122.845 67.0924L122.808 66.9602L122.763 66.981Z" fill="#3C3C3B" stroke="#16110D" stroke-width="0.238956"/>
<path d="M124.669 73.0955L124.655 73.0451L124.608 73.0221L124.343 72.8944C124.343 72.8944 124.343 72.8943 124.343 72.8943C122.498 71.992 120.657 71.089 120.114 69.113L120.114 69.1124C119.824 68.0824 119.964 67.3593 120.319 66.8479L120.593 66.4522C120.527 66.8816 120.562 67.3826 120.726 67.9653C121.306 70.0483 123.226 70.9877 125.036 71.873L125.077 71.8931L125.078 71.8934L125.295 71.9985L126.618 76.7547L125.954 77.713L124.669 73.0955Z" fill="#3C3C3B" stroke="#16110D" stroke-width="0.238956"/>
<path d="M128.171 76.1386L128.171 76.1386L128.17 76.1363C127.924 75.2572 127.302 74.6197 126.509 74.0982L127.207 73.0923C127.964 73.6035 128.55 74.1952 128.775 74.9985C128.884 75.4207 128.904 75.8551 128.678 76.1806L128.257 76.788C128.261 76.5665 128.224 76.3435 128.171 76.1386Z" fill="#3C3C3B" stroke="#16110D" stroke-width="0.238956"/>
<path d="M128.83 78.3059C129.353 78.2053 129.869 78.0423 130.303 77.7831L130.076 78.1117C129.681 78.6824 128.987 79.0148 128.211 79.2012L128.83 78.3059Z" fill="#3C3C3B" stroke="#16110D" stroke-width="0.238956"/>
<path d="M122.323 76.4661L122.323 76.4659L122.184 75.9644L122.857 74.9913L122.943 75.303C122.943 75.303 122.943 75.3031 122.943 75.3031C123.282 76.5333 123.955 77.2958 124.772 77.7419C125.557 78.1705 126.467 78.3023 127.326 78.2905L127.616 79.3166L127.643 79.4113L127.742 79.4007L128.853 79.2807L128.181 80.2525L126.969 80.3834L126.681 79.3655L126.656 79.2785L126.565 79.2808C125.703 79.3028 124.802 79.1795 124.039 78.7628C123.279 78.3483 122.646 77.6385 122.323 76.4661Z" fill="#3C3C3B" stroke="#16110D" stroke-width="0.238956"/>
<path d="M128.439 78.0312L128.313 78.0551L128.348 78.177L128.621 79.1388L127.511 79.2581L127.227 78.2586L127.203 78.1718L127.111 78.1741C126.261 78.1957 125.373 78.0744 124.62 77.6649C123.872 77.2576 123.247 76.5599 122.929 75.4076L122.929 75.4074L122.814 74.9951L124.709 74.7937L124.874 75.3885C124.969 75.7345 125.136 76.1043 125.428 76.4033C125.722 76.7043 126.136 76.9273 126.711 76.9861L126.883 77.0036L126.837 76.8394L125.491 72.0024L125.477 71.952L125.43 71.9291L125.297 71.8653L125.166 71.8019C125.166 71.8019 125.166 71.8018 125.166 71.8018C123.329 70.9036 121.503 70.0101 120.954 68.0373L120.954 68.0373C120.635 66.8921 120.84 66.1262 121.297 65.6064C121.761 65.079 122.502 64.7826 123.298 64.6229L123.422 64.5981L123.388 64.4778L123.027 63.1845L124.136 63.0652L124.5 64.3895L124.524 64.4769L124.616 64.4749C125.458 64.4564 126.34 64.5777 127.089 64.9867C127.832 65.3924 128.453 66.0862 128.772 67.2336L126.876 67.4352L126.83 67.2621L126.83 67.2621L126.83 67.2602C126.731 66.9132 126.564 66.5355 126.277 66.2309C125.988 65.9238 125.581 65.6963 125.015 65.6458L124.845 65.6306L124.89 65.7927L126.229 70.5903L126.242 70.6384L126.287 70.6618C126.294 70.6658 126.302 70.6699 126.31 70.674C126.413 70.7281 126.529 70.789 126.646 70.8352C128.482 71.7328 130.305 72.6264 130.854 74.5977L130.854 74.5981C131.181 75.7566 130.968 76.5291 130.497 77.0514C130.018 77.5818 129.255 77.8764 128.439 78.0312ZM127.075 72.8176L126.815 72.6531L126.898 72.9467L127.949 76.7005L127.985 76.8275L128.108 76.7763C128.553 76.5912 128.792 76.2908 128.889 75.9484C128.983 75.6128 128.939 75.2482 128.844 74.9289C128.586 73.9917 127.91 73.347 127.075 72.8176ZM122.987 67.7036L122.987 67.7039C123.229 68.5964 123.872 69.2196 124.65 69.7446L124.915 69.9239L124.83 69.6175L123.802 65.9309L123.765 65.7957L123.637 65.8579C123.232 66.0554 123.021 66.3563 122.938 66.6934C122.857 67.0246 122.901 67.3831 122.987 67.7036Z" fill="#EDEDED" stroke="#16110D" stroke-width="0.238956"/>
</svg>
