<svg xmlns="http://www.w3.org/2000/svg" xmlns:xlink="http://www.w3.org/1999/xlink" width="360" height="304" fill="none" xmlns:v="https://vecta.io/nano"><style><![CDATA[.B{fill:#ffc856}.C{fill:#000}.D{fill:#150035}.E{fill:#001e20}.F{stroke:#16110d}.G{fill:#f6e5cc}.H{fill:#fdbc38}]]></style><g fill="#ff513f"><path d="M0 0h360v304H0z"/><path d="M0 0L360 37.5L0 64.5L360 304L108.5 242.5L0 0Z" style="mix-blend-mode:screen" opacity=".3"/></g><path d="M145.156 124.283c2.454-3.725 5.043-1.798 5.588-1.413 0 0 .137 0 .137-.128.545-1.028 3.135-5.78 5.588-4.753l4.09 2.055v.13l-2.863 4.624-3.816 9.764 1.09.385v2.056c0 .128-.137.128-.137.128l-3.952-2.184-5.043-3.725s-3.68-2.184-.682-6.938z" fill="#fff"/><path d="M154.835 137.644c.136 0 .272 0 .272-.13.136-.128.273-.257.273-.513v-2.44l-.818-.257 3.544-9.25 2.998-4.753v-.257c0-.128-.136-.257-.273-.385l-4.088-2.056c-.954-.385-2.317-.514-4.225 1.67-.818 1.028-1.5 2.056-1.91 2.826-.545-.385-1.5-.77-2.59-.642-1.227.13-2.317 1.028-3.27 2.44-3.27 5.14.818 7.58.818 7.708l5.042 3.725 3.953 2.056c.136.128.136.257.273.257zm-.41-2.313v.9l-3.27-1.67-4.907-3.726c-.136-.128-3.27-2.055-.545-6.295.818-1.156 1.635-1.927 2.453-2.055 1.09-.13 2.045.514 2.18.77l.136.128h.273c.136 0 .41-.128.41-.385.272-.386.954-1.927 2.044-3.083.818-.9 1.908-1.927 2.862-1.414l3.544 1.927-2.6 4.24-3.952 10.277 1.363.385z" class="E"/><path d="M149.244 126.854s1.772-.13 2.045 0 4.225 1.54 4.225 1.54l.545 1.285-1.908 5.14 1.1.257v2.055c0 .13-.136.13-.136.13l-3.952-2.056-5.043-3.725s-3.408-2.056-.954-6.552l4.088 1.927z" class="B"/><path d="M154.97 137.644c.136 0 .272 0 .272-.128.136-.13.273-.257.273-.514v-2.44l-.818-.257 1.772-4.753-.682-1.67-.136-.13-4.36-1.67h-2.045l-4.497-2.312-.273.514c-2.726 4.753 1.1 7.194 1.1 7.194l5.043 3.725 3.953 2.056c.136.257.272.385.41.385zm-.41-2.312v.9l-3.27-1.67-4.907-3.726c-.136-.128-2.862-1.798-.954-5.395l3.816 1.927h.137c.817 0 1.77-.13 2.044 0 .272 0 2.317.9 3.816 1.54l.41.9-2.044 5.395.954.13z" class="E"/><path d="M154.152 124.668l-3.134-1.67v-.128c.272-.514.954-1.927 2.044-3.084l4.09 2.184 1.226 2.184-.408.77-.546 1.542-1.363 1.027-1.908-2.826z" class="B"/><path d="M155.653 128.266l2.044-1.542.682-1.67.545-.9-1.363-2.57-4.634-2.57-.273.386c-1.1 1.284-1.908 2.697-2.044 3.21-.136.13 0 .386 0 .514v.257l3.27 1.67 1.772 3.212zm1.1-2.056l-.68.514-1.363-2.44-3-1.54c.273-.514.818-1.413 1.5-2.313l3.543 1.927.954 1.8-.41.642-.545 1.413z" class="E"/><path d="M149.38 126.468c2.453-3.725 5.043-1.798 5.588-1.413 0 0 .136 0 .136-.128.545-1.028 3.135-5.78 5.588-4.754 3 1.413-.68 7.58-.68 7.58l-4.907 9.12c0 .128-.136.128-.136.128l-5.043-3.725c0 .128-3.68-2.056-.545-6.81z" fill="#fff"/><g class="E"><path d="M154.834 137.645h.273c.136 0 .4-.13.4-.386l4.906-9.12c.136-.128 2.6-4.368 1.772-6.808-.273-.643-.682-1.157-1.363-1.542-.818-.385-2.317-.385-4.225 1.67-.818 1.028-1.5 2.056-1.908 2.826a3.86 3.86 0 0 0-2.6-.642c-1.226.128-2.317 1.028-3.27 2.44-3.27 5.138.818 7.58.818 7.708l5.18 3.854zm5.043-16.958a1.07 1.07 0 0 1 .545.13c.4.128.682.514.818.9.545 1.67-.954 4.882-1.636 6.038l-4.634 8.736-4.497-3.34c-.137-.128-3.27-2.055-.545-6.294.817-1.157 1.635-1.927 2.6-2.056 1.1-.128 2.044.514 2.18.77l.136.128h.273c.136 0 .4-.128.4-.385.272-.385.954-1.927 2.044-3.083.68-.77 1.5-1.542 2.317-1.542zm-3.072 7.808l.97.47-2.75 5.024-.97-.47 2.75-5.024z"/><path d="M155.924 123.384l-4.1-2.055-.817 1.67 4.1 2.055.817-1.67zm-6.814 9.636l-2.044-.9-2.18-1.54-.682-1.8-.136-1.798.273-.643 3.816 1.927-.273 1.414.545 1.67.682 1.67zm-7.1-5.397c.545-4.88 4.225-6.423 4.36-6.552l-.4-.9c-.136.13-4.36 1.927-5.042 7.323l1.1.128z"/></g><g class="D"><path d="M223.12 57.35l-4.55-2.652 4.55-.156.576.468.404 1.404-.98.936z"/><path d="M223.177 57.82l.29-.26 1.094-1.092-.058-.208-.46-1.56-.116-.052-.69-.572h-.23l-4.782.156-.173.52.288.156 4.84 2.913zm.46-1.56l-.576.572-3.168-1.872 3.11-.104.345.26.288 1.144z"/></g><path d="M215.456 34.154l14.172-7.385c.806-.416 1.555-.468 2.074-.208l4.608 2.6s.058.052 0 .052c-.23.364-2.13 4.005-2.304 4.68l-1.383 6.293V41.8c0 .884-.345 1.924-.98 2.81l-1.383 6.345-6.51 1.976h-.46s-.058-.052 0-.052l.345-.936c.116-.416.173-.936.173-1.404l-6.106 6.137h-.058l-4.493-2.496s-.058 0-.058-.052c-.518-.312-.864-.884-.864-1.768V38.94c.173-1.716 1.555-3.9 3.226-4.785z" class="B"/><path d="M217.82 57.04c.115 0 .288-.052.345-.156l5.243-5.253c0 .052 0 .104-.058.208l-.345.884c-.058.208 0 .416.23.52l.115.052h.634l6.798-2.08.057-.208c0-.052.634-2.913 1.325-6.293.634-.988.98-2.03.98-2.965v-1.612l1.382-6.24c.115-.52 1.556-3.225 2.247-4.63.115-.208 0-.416-.173-.52l-4.61-2.55c-.748-.312-1.613-.26-2.534.208L215.284 33.8c-1.843.936-3.284 3.277-3.284 5.15v13.367c0 .936.346 1.716 1.037 2.08l4.55 2.548c.058.104.116.104.23.104zm6.625-7.542l-6.683 6.71-4.263-2.392c-.403-.26-.633-.78-.633-1.456V38.99c0-1.612 1.324-3.693 2.88-4.525l14.172-7.385c.633-.364 1.267-.416 1.67-.208l4.32 2.392c-.576 1.04-2.016 3.85-2.19 4.473l-1.383 6.293v1.664c0 .78-.346 1.768-.864 2.6l-.058.156-1.325 6.137-6.048 1.82.172-.468c.116-.468.173-.988.23-1.456v-.988z" class="D"/><path d="M215.514 34.154l13.423-7.02 6.682 3.797-14.402 6.865-2.996.416-4.608-2.445c.518-.676 1.2-1.248 1.9-1.612z" fill="#fff"/><path d="M218.166 38.628l3.284-.468 15.035-7.178-7.5-4.265-13.653 7.125c-.7.364-1.383.988-1.96 1.716l-.23.312 5.012 2.757zm2.938-1.196l-2.765.416-4.1-2.184c.46-.52.92-.884 1.44-1.144l13.25-6.917 5.876 3.33-13.7 6.5zm-8.564 1.618l4.6 2.494-.446.668-4.6-2.494.446-.67zm.126 9.615l4.6 2.494-.446.668-4.6-2.494.445-.668z" class="D"/><path d="M234.18 29.317l-14.172 7.385c-1.67.884-3.053 3.017-3.053 4.785v13.42c0 1.768 1.382 2.497 3.053 1.612l1.613-.832c.288-.156.52-.052.576.208.173.78.807 2.29 3.11 1.404.46-.156.806-.78.69-1.196-.173-.468-.345-1.144-.345-1.924 0-.364.288-.78.633-.936l7.893-4.11c1.67-.884 3.053-3.017 3.053-4.785V30.93c0-1.768-1.325-2.497-3.053-1.612z" class="B"/><g class="D"><path d="M224.04 57.924c.403 0 .92-.104 1.44-.312.634-.26 1.094-1.092.922-1.664-.116-.416-.288-1.04-.288-1.82 0-.208.172-.52.403-.624l7.892-4.11c1.844-.936 3.284-3.225 3.284-5.097v-13.42c0-.988-.403-1.768-1.095-2.132s-1.613-.312-2.592.208l-14.172 7.386c-1.843.936-3.283 3.225-3.283 5.097v13.42c0 .988.403 1.768 1.094 2.133s1.613.312 2.592-.208l1.614-.832c.115.572.46 1.3 1.21 1.716.288.208.634.26.98.26zm11.52-28.606c.23 0 .404.052.576.156.46.208.692.728.692 1.456v13.42c0 1.664-1.268 3.64-2.88 4.473l-7.892 4.11c-.46.26-.807.78-.807 1.3 0 .884.173 1.56.346 2.028.058.156-.173.624-.46.728-.75.26-1.325.312-1.728.104-.52-.26-.75-.884-.807-1.248-.057-.26-.23-.416-.403-.52-.23-.104-.518-.052-.806.052l-1.613.832c-.692.364-1.325.416-1.73.208-.46-.208-.69-.728-.69-1.456V41.54c0-1.664 1.267-3.64 2.88-4.473L234.4 29.63c.403-.208.807-.312 1.152-.312z"/><path d="M212.405 50.954l4.493 2.497v1.82l.288 1.092-3.975-2.237-.75-.884-.115-.988.058-1.3z"/></g><g fill="#16110d"><path d="M169.536 122.334c.064.237-.098.375-.323.276s-.443-.35-.507-.588.1-.376.324-.277a.98.98 0 0 1 .506.589zm2.154.746c.063.237-.1.375-.324.276a.98.98 0 0 1-.506-.588c-.064-.238.098-.376.324-.277s.478.393.506.6zm2.15.744c.064.237-.098.376-.323.277s-.443-.352-.506-.6.098-.376.323-.277.48.394.506.6zm2.154.746c.063.237-.098.375-.324.276a.98.98 0 0 1-.506-.588c-.064-.238.098-.376.324-.277s.478.394.506.6zm2.1.78c.064.238-.098.376-.323.277a.99.99 0 0 1-.507-.59c-.064-.238.098-.376.324-.277.266.065.52.36.506.6zm2.153.744c.064.238-.098.376-.324.277a.98.98 0 0 1-.506-.59c-.064-.24.098-.375.324-.276.262.14.478.393.506.588z"/><use xlink:href="#B"/><path d="M184.596 127.626c.064.237-.098.376-.324.276s-.442-.35-.506-.588.766.075.83.312zm-15.466-7.533c.063.237-.1.376-.324.276a.98.98 0 0 1-.506-.588c-.064-.238.098-.376.323-.277a.99.99 0 0 1 .507.59zm2.152.745c.064.237-.098.375-.324.276a.98.98 0 0 1-.506-.588c-.064-.238.098-.376.324-.277a.98.98 0 0 1 .506.59zm2.152.745c.064.237-.098.375-.323.276s-.443-.35-.507-.588.1-.376.324-.277.48.393.506.6zm2.112.78c.064.238-.098.376-.324.277a.98.98 0 0 1-.507-.59c-.064-.24.1-.376.324-.277.267.065.52.36.507.6zm2.15.745c.064.238-.098.376-.324.277a.98.98 0 0 1-.506-.59c-.028-.195.802.117.83.312zm-8.974-5.256c.064.237-.098.375-.323.276a.98.98 0 0 1-.506-.589c-.064-.237.098-.375.323-.276a.98.98 0 0 1 .506.589zm2.153.745c.064.237-.098.376-.324.277a.99.99 0 0 1-.506-.589c-.063-.238.1-.376.324-.277a.99.99 0 0 1 .506.59zm2.11.78c.064.238-.098.376-.324.277a.98.98 0 0 1-.506-.59c-.064-.24.098-.376.324-.277a.69.69 0 0 1 .506.589z"/><use xlink:href="#C"/><path d="M170.427 116.39c.063.237-.1.376-.324.277a.99.99 0 0 1-.507-.59c-.063-.237.1-.375.324-.276a.69.69 0 0 1 .507.589z"/><use xlink:href="#D"/><path d="M174.407 118.16c-.225-.1-.442-.35-.506-.588s.098-.376.324-.277.408.964.182.865zm-.447 16.065c.064.237-.098.375-.324.276a.98.98 0 0 1-.506-.588c-.064-.238.098-.376.324-.277a.98.98 0 0 1 .506.59zm2.153.745c.064.237-.098.375-.324.276a.98.98 0 0 1-.506-.59c-.064-.24.098-.375.324-.276a.98.98 0 0 1 .506.59z"/><use xlink:href="#E"/><path d="M180.418 136.46c.064.237-.098.375-.324.276a.98.98 0 0 1-.506-.59c-.064-.24.098-.375.324-.276s.48.393.506.6zm2.112.78c.064.238-.098.376-.324.277a.99.99 0 0 1-.506-.589c-.064-.238.098-.376.324-.277.266.064.52.36.506.6z"/><use xlink:href="#C" x="9.542" y="17.864"/><use xlink:href="#D" x="14.29" y="21.636"/><path d="M189.022 139.517c.064.237-.098.376-.324.277a.99.99 0 0 1-.506-.589c-.063-.237.098-.376.324-.277s.442.352.506.6zm-17.62-8.28c.064.238-.098.376-.324.277s-.443-.352-.507-.6.1-.376.324-.277a.69.69 0 0 1 .507.589z"/><use xlink:href="#F"/><path d="M175.707 132.73c.063.237-.098.376-.324.277s-.442-.352-.506-.59.098-.376.324-.277a.99.99 0 0 1 .506.589z"/><use xlink:href="#G"/><use xlink:href="#H"/><path d="M182.123 135c.063.237-.1.376-.324.276a.99.99 0 0 1-.507-.59c-.064-.24.098-.375.324-.276a.69.69 0 0 1 .507.589zm2.15.745c.064.237-.098.375-.324.276a.98.98 0 0 1-.506-.59c-.064-.24.098-.375.324-.276a.98.98 0 0 1 .506.59z"/><use xlink:href="#H" x="6.417" y="2.28"/><path d="M188.58 137.234c.064.238-.098.376-.323.277a.99.99 0 0 1-.507-.59c-.064-.238.1-.376.324-.276a.98.98 0 0 1 .506.588zm-17.585-8.237c.063.238-.098.376-.324.277a.98.98 0 0 1-.506-.59c-.064-.24.098-.375.324-.276a.98.98 0 0 1 .506.588zm2.152.746c.063.237-.1.375-.324.276a.99.99 0 0 1-.506-.588c-.064-.238.098-.376.324-.277a.98.98 0 0 1 .506.59z"/><use xlink:href="#F" x="1.746" y="-1.496"/><use xlink:href="#D" x="4.872" y="14.097"/><path d="M179.563 132.012c.064.238-.098.376-.324.277a.98.98 0 0 1-.506-.589c-.064-.237.098-.376.323-.277a.69.69 0 0 1 .507.589zm2.152.746c.064.237-.098.376-.324.277a.99.99 0 0 1-.506-.589c-.063-.237.098-.376.324-.277a.99.99 0 0 1 .506.589zm2.152.745c.064.238-.098.376-.323.277a.98.98 0 0 1-.506-.589c-.064-.237.098-.375.323-.276a.98.98 0 0 1 .506.588zm2.153.745c.064.238-.098.376-.324.277a.98.98 0 0 1-.506-.59c-.064-.24.1-.375.324-.276a.98.98 0 0 1 .506.588zm2.153.745c.063.238-.1.376-.324.277a.99.99 0 0 1-.506-.59c-.063-.238.098-.376.323-.277a.99.99 0 0 1 .507.589zm3 5.27c.064.238-.098.376-.324.277a.99.99 0 0 1-.506-.589c-.064-.237.098-.376.324-.277a.99.99 0 0 1 .506.589z"/><use xlink:href="#G" x="-7.273" y="-6.717"/><use xlink:href="#I"/><path d="M174.892 128.247c.064.237-.098.375-.323.276s-.443-.35-.507-.6.1-.375.324-.276a.98.98 0 0 1 .506.589zm2.112.78c.064.238-.098.376-.324.277a.99.99 0 0 1-.506-.589c-.064-.238.098-.376.324-.277a.69.69 0 0 1 .506.589z"/><use xlink:href="#I" x="6.415" y="2.272"/><path d="M181.308 130.517c.063.238-.098.376-.324.277a.99.99 0 0 1-.506-.589c-.064-.237.098-.376.324-.277a.99.99 0 0 1 .506.589zm9.422 7.463c.064.238-.098.376-.324.277a.99.99 0 0 1-.506-.589c-.063-.237.098-.376.324-.276s.442.35.506.588zm-.446-2.207c.063.238-.1.376-.324.277s-.443-.352-.507-.6.1-.376.324-.277c.266.065.483.317.507.6zm-6.824-4.51c.063.237-.1.376-.324.277a.99.99 0 0 1-.506-.59c-.063-.238.098-.376.323-.277a.99.99 0 0 1 .507.59zm2.153.745c.064.237-.098.376-.324.277a.99.99 0 0 1-.506-.589c-.064-.238.098-.376.324-.277a.99.99 0 0 1 .506.589zm-15.433-7.492c.063.238-.098.376-.324.277a.98.98 0 0 1-.506-.59c-.064-.24.098-.375.324-.276a.98.98 0 0 1 .506.588zm2.153.745c.063.238-.1.376-.324.277s-.442-.35-.506-.6.098-.375.324-.276a.98.98 0 0 1 .506.588zm2.112.78c.063.238-.098.376-.324.277s-.443-.352-.507-.6.1-.376.324-.277a.69.69 0 0 1 .507.589z"/><use xlink:href="#B" x="-5.849" y="-0.094"/><path d="M187.726 132.787c.063.238-.1.376-.324.277s-.443-.35-.507-.6.098-.376.324-.277c.266.065.483.317.507.6zm2.15.746c.064.238-.098.376-.324.277a.99.99 0 0 1-.506-.589c-.063-.237.098-.376.324-.277a.99.99 0 0 1 .506.589zm-11.126-6.003c.064.238-.098.376-.324.277a.98.98 0 0 1-.506-.59c-.064-.24.1-.375.324-.276a.99.99 0 0 1 .506.588zm2.152.746c.063.237-.1.376-.324.277a.99.99 0 0 1-.506-.59c-.063-.238.098-.376.323-.277a.99.99 0 0 1 .507.59zm2.15.744c.064.237-.098.375-.323.276a.98.98 0 0 1-.506-.588c-.064-.238.098-.376.323-.277s.443.352.506.6zm2.112.78c.064.237-.098.376-.324.277a.98.98 0 0 1-.506-.59c-.063-.238.098-.376.324-.277a.69.69 0 0 1 .506.589zm2.152.747c.063.237-.1.375-.324.276a.98.98 0 0 1-.506-.588c-.064-.238.098-.376.323-.277s.443.35.507.6z"/><use xlink:href="#F" x="15.916" y="-0.692"/><path d="M192.78 140.454a.98.98 0 0 1 .506.588c.064.238-.098.376-.323.277s-.443-.35-.507-.6.1-.375.324-.276zm-.408-2.24a.99.99 0 0 1 .507.59c.064.238-.1.376-.324.276a.98.98 0 0 1-.506-.588c-.064-.238.098-.376.323-.277zm2.622 1.292c.064.237-.098.376-.323.277a.99.99 0 0 1-.507-.59c-.064-.238.1-.376.324-.277s.48.394.506.6zm-3.03-3.533c.225.1.442.35.506.6s-.098.375-.324.276a.98.98 0 0 1-.506-.588c-.064-.238.098-.376.324-.277zm2.623 1.292c.064.237-.098.375-.324.276a.98.98 0 0 1-.506-.588c-.064-.238.098-.376.324-.277s.48.393.506.6zm-3.066-3.576a.99.99 0 0 1 .506.589c.064.238-.098.376-.324.277a.98.98 0 0 1-.506-.59c-.028-.195.134-.334.324-.277z"/><use xlink:href="#E" x="15.915" y="-0.692"/></g><path d="M195.634 134.893s21.753-12.907 28.918-21.903l-16.546-15.282S194.148 109.4 175.337 115c-1.188.35-1.81 1.693-1.376 3.682l1.038 5.085c.58 2.82 2.907 5.774 5.273 6.628l12.816 4.755c1.113.303 1.973.232 2.546-.258z" class="B"/><path d="M202.362 122.495l-3.038-13.655c-.092-.436-.624-.643-.99-.33-1.832 1.49-7.528 5.4-22.105 9.765-1.185.35-1.804 1.688-1.372 3.672l.424 2.138c.747 2.597 2.93 5.218 5.1 6.012l12.783 4.742c1.027.372 1.927.266 2.498-.222l1.57-.973c.875-2.44 1.913-7.075 5.133-11.15z" class="G"/><g class="C"><path d="M180.03 130.18l12.866 4.776c1.035.375 1.94.267 2.515-.224 0 0 21.84-12.963 29.032-21.998l-4.31-4.018-6.304-2.6s-18.31 15.575-37.196 21.2c-.04.035-.04.035-.12.027 1.06 1.316 2.33 2.378 3.515 2.846z"/><path d="M177.13 128.22c-1.133-1.318-2.016-2.922-2.316-4.51l-1.038-5.085c-.365-1.827.065-3.225 1.11-3.824l-.037-.043.437-.152c18.537-5.588 32.427-17.16 32.55-17.264l.164-.14 16.915 15.63-.168.217c-7.037 8.813-28.27 21.498-28.998 21.972-.655.56-1.634.658-2.778.235l-12.815-4.755c-.994-.33-2.112-1.218-3.026-2.28zm-1.21-13.123l-.473.1c-1.106.28-1.53 1.603-1.162 3.352l1.038 5.085c.55 2.7 2.838 5.61 5.1 6.415l12.815 4.755c.917.323 1.7.244 2.227-.133l.04-.035c.24-.132 21.51-12.774 28.708-21.65L208.028 98.06c-1.672 1.355-14.873 11.748-32.108 17.035z"/></g><path d="M241.253 114.074c5.223-4.462 8.267-13.68 6.868-20.575-.672-3.25-2.26-5.425-4.228-6.316-.264-.142-.532-.207-.8-.272l-8.718-3.142-1.303 2.436-8.487 26.592 8.868 3.235c.264.142.532.207.8.272 2.105.555 4.552-.138 7-2.23z" class="B"/><path d="M238.374 115.56c4.61-4.673 7.184-13.192 5.88-19.644-.672-3.248-2.257-5.42-4.225-6.31-.264-.142-.532-.207-.8-.272l-6.693-2.438-8.16 25.707 8.86 3.232c.264.142.532.207.8.272 1.304.283 2.788.117 4.34-.546z" fill="#fbeacc"/><path d="M224.267 112.92l8.542-26.857 1.433-2.695 8.946 3.242c.268.065.573.172.8.272 2.197.99 3.74 3.278 4.4 6.528 1.472 6.98-1.657 16.344-6.92 20.84-2.407 2.057-4.977 2.855-7.196 2.25-.268-.065-.572-.173-.836-.315l-9.178-3.265zm10.245-28.827l-1.176 2.254-8.392 26.29 8.604 3.092c.264.142.532.207.8.272 2.065.6 4.44-.188 6.724-2.14 5.14-4.39 8.14-13.497 6.736-20.314-.644-3.053-2.076-5.213-4.082-6.146-.264-.142-.532-.207-.76-.307l-8.454-3z" class="C"/><path d="M232.324 111.007c-5.227 4.465-10.593 2.426-12.034-4.44-1.4-6.9 1.645-16.125 6.872-20.6s10.593-2.425 12.034 4.44c1.4 6.9-1.646 16.125-6.872 20.6z" class="B"/><path d="M222.232 111.46c-1.02-1.188-1.82-2.86-2.213-4.88-1.473-6.984 1.66-16.355 6.926-20.855 2.613-2.232 5.335-2.938 7.697-2.086s4.054 3.233 4.79 6.725c1.473 6.984-1.66 16.355-6.926 20.855-2.613 2.232-5.335 2.938-7.697 2.086-.95-.365-1.848-.997-2.578-1.845zm14.616-25.585c-.657-.764-1.44-1.345-2.355-1.668-2.17-.795-4.697-.11-7.147 1.984-5.145 4.395-8.145 13.507-6.74 20.33.672 3.252 2.22 5.463 4.4 6.258s4.697.108 7.147-1.984c5.145-4.395 8.145-13.508 6.74-20.33-.36-1.9-1.087-3.487-2.035-4.6z" class="C"/><path d="M229.938 109.153c4.68-4 7.43-12.216 6.113-18.427-.6-2.927-2.01-4.884-3.827-5.68-.226-.1-.453-.2-.72-.264l-23.3-8.783-1.168 2.172-7.58 23.862 14.54 5.332c.227.1 9.325 3.7 9.592 3.765 1.987.504 4.152-.1 6.35-1.976z" class="B"/><path d="M227.198 110.802c4.07-4.21 6.352-11.73 5.205-17.494-.6-2.924-2-4.88-3.824-5.677-.226-.1-.453-.2-.72-.264L206.7 79.42l-7.198 22.64 14.53 5.328c.226.1 9.316 3.697 9.584 3.76 1.1.225 2.315.15 3.58-.347z" fill="#fae9cc"/><g class="C"><path d="M234.495 102.04c-.267-.065-9.334-3.653-9.56-3.752l-14.493-5.315-3.96-5.832 1.74-10.99-1.165 2.165L199.5 102.1l14.493 5.315c.226.1 9.293 3.688 9.56 3.752 1.862.53 4.06-.105 6.21-1.942 2.03-1.733 3.716-4.272 4.843-7.135-.036-.042-.036-.042-.113-.05z"/><path d="M199.252 102.204l7.67-24.087 1.3-2.43 23.5 8.84a7.27 7.27 0 0 1 .721.264c1.965.89 3.358 3 3.932 5.886 1.276 6.246-1.522 14.652-6.244 18.686-2.158 1.843-4.445 2.55-6.468 2.003-.345-.072-9.556-3.722-9.63-3.806l-14.773-5.356zm9.204-25.836l-1.042 1.99-7.488 23.563 14.316 5.232c.376.192 9.324 3.7 9.556 3.723 1.832.49 3.96-.156 5.996-1.895 4.6-3.93 7.304-12.034 6.06-18.16-.583-2.73-1.83-4.673-3.645-5.47-.227-.1-.454-.2-.685-.222l-23.068-8.76z"/></g><path d="M206.54 100.628c-4.696 4.012-9.493 2.222-10.814-4.01-1.284-6.19 1.477-14.51 6.132-18.485s9.493-2.222 10.814 4.01c1.284 6.19-1.477 14.508-6.132 18.485z" class="B"/><path d="M197.42 101.06c-.912-1.06-1.644-2.57-2.008-4.394-1.28-6.266 1.527-14.698 6.263-18.744 2.328-1.988 4.813-2.64 6.948-1.887 2.17.795 3.68 2.963 4.285 6.054 1.28 6.266-1.527 14.698-6.263 18.744-2.328 1.988-4.813 2.64-6.948 1.887a6.43 6.43 0 0 1-2.277-1.66zm13.15-23.008a5.36 5.36 0 0 0-2.054-1.483c-1.943-.695-4.192-.098-6.397 1.785-4.615 3.942-7.326 12.072-6.078 18.218.575 2.893 2.017 4.9 3.92 5.63 1.943.695 4.192.1 6.397-1.785 4.614-3.942 7.326-12.072 6.078-18.218-.368-1.746-1-3.128-1.866-4.146z" class="C"/><path d="M204.267 98.982c4.04-3.45 6.425-10.636 5.33-16.025-.64-3.13-2.36-4.97-4.48-5.292-4.025-1.636-14.532-7.516-16.947-24.646-.135-1.062-1.594-1.36-2.073-.435l-25.338 50.62 2.195 3.787c1.24 2.102 4.055 2.493 5.664.825 4.744-4.935 14.77-12.618 28.577-8.086 1.9 1.622 4.502 1.45 7.073-.747z" class="B"/><path d="M196.84 99.65c1.188.97 2.688 1.233 4.307.73 3.315-3.713 5.143-9.978 4.172-14.81-.64-3.13-2.36-4.966-4.477-5.29-4.024-1.635-14.374-7.42-16.88-24.316l-23.576 47.113 2.194 3.785c.78 1.32 2.217 2.002 3.583 1.864 1.432-1.297 3.18-2.717 5.2-3.92 5.41-4.4 14.165-8.865 25.486-5.16z" fill="#f9e8cc"/><path d="M163.136 107.863c-.182-.212-.328-.382-.47-.63l-2.264-3.95 25.424-50.766c.262-.518.86-.81 1.438-.714.614.138 1.056.57 1.135 1.237 2.356 16.814 12.476 22.656 16.73 24.392 2.314.303 4.027 2.296 4.662 5.504 1.132 5.43-1.298 12.73-5.42 16.25-2.57 2.196-5.268 2.515-7.313.878-13.656-4.44-23.597 3.096-28.264 8.04a3.68 3.68 0 0 1-3.246 1.082 3.89 3.89 0 0 1-2.412-1.323zm-2.074-4.553l2.122 3.703c.53.945 1.467 1.54 2.467 1.717 1.04.14 2.03-.19 2.733-.938 4.75-5.012 14.894-12.722 28.89-8.133l.114.05c1.82 1.46 4.324 1.16 6.69-.862 3.958-3.38 6.298-10.454 5.235-15.724-.612-2.934-2.14-4.792-4.22-5.072l-.077-.008c-4.33-1.743-14.714-7.728-17.13-24.858-.05-.47-.388-.698-.697-.728a.76.76 0 0 0-.84.423l-25.288 50.43z" class="C"/><path d="M156.14 114.597c1.164.036 1.868-.05 1.868-.05 4.218-.366 8.722-2.374 13.172-6.175 13.716-11.718 21.846-36.026 18.053-54.27-1.772-8.566-5.805-14.244-11.03-16.697-.15-.092-.34-.15-.49-.242a.43.43 0 0 1-.228-.1c-.228-.1-.455-.2-.723-.265-.037-.042-.078-.008-.114-.05-.228-.1-.496-.165-.765-.23-9.753-2.778-18.196 3.625-18.196 3.625l-.118 2.087-.04.035c-9.512 8.125-16.33 22.264-18.322 36.253-2.09 6.052-2.914 12.422-1.1 18.156 2.57 8.178 6.364 12.59 9.957 15.038a13.98 13.98 0 0 0 7.581 2.721c.154.016.273-.012.386.038.07.162.1.127.1.127z" class="B"/><path d="M156.524 112.044c1.163.036 2.158-1.77 2.158-1.77l-.5 1.465c4.215-.365 7.378 1.42 11.825-2.38 13.71-11.71 21.834-36.005 18.044-54.24-1.77-8.56-5.802-14.236-11.024-16.687-.15-.092-.342-.15-.492-.242a.43.43 0 0 1-.227-.1c-.228-.1-.455-.2-.723-.265-.037-.042-.077-.008-.114-.05-.227-.1-.496-.165-.764-.23C164.95 34.77 156.5 41.17 156.5 41.17l-.117 2.086-.04.035c-9.507 8.12-16.322 22.252-18.312 36.232-2.088 6.05.174 11.396 1.988 17.126 2.57 8.173 4.885 9.137 8.476 11.584 2.276 1.66 3 2.584 5.75 2.736.186.135 2.93-2.355 2.27 1.076z" fill="#f8e7cc"/><g class="C"><path d="M170.964 108.476c4.52-3.862 8.42-9.102 11.467-15.007-3.635 2.59-7.318 3.976-10.746 4.262 0 0-.703.086-1.864.05l-.077-.008-.386-.038c-2.744-.15-5.286-1.136-7.562-2.715-3.584-2.443-7.37-6.844-9.934-15-1.8-5.72-.992-11.997 1.097-18.112 1.158-8.182 4.025-16.43 8.066-23.478-2.192 1.065-3.527 2.06-3.527 2.06l-.117 2.082-.04.035c-9.49 8.106-16.292 22.2-18.28 36.165-2.084 6.037-2.907 12.392-1.096 18.11 2.565 8.157 6.35 12.558 9.934 15 2.27 1.656 4.818 2.563 7.562 2.715.154.015.272-.012.385.038l.078.007c1.16.036 1.863-.05 1.863-.05 4.204-.287 8.697-2.29 13.177-6.117z"/><path d="M143.93 108.47c-2.517-2.927-4.6-6.82-6.07-11.59-1.65-5.212-1.302-11.396 1.108-18.3 2.1-14.522 9.137-28.406 18.404-36.323l.08-2.13.08-.07c.082-.07 8.64-6.423 18.434-3.68.268.065.496.165.764.23l.114.05c.227.1.496.165.723.265l.114.05c.036.042.114.05.114.05.19.057.34.15.49.242 5.53 2.56 9.468 8.54 11.176 16.867 3.752 18.28-4.386 42.742-18.144 54.494-4.327 3.697-8.876 5.817-13.253 6.245l-.077-.007s-.746.12-1.946.043l-.04.035-.463-.046c-2.788-.194-5.417-1.11-7.73-2.813-1.303-1.02-2.674-2.204-3.878-3.604zm14.05-68.066l-.118 2.087-.08.07c-9.185 7.846-16.182 21.696-18.278 36.14-2.368 6.88-2.708 12.908-1.1 18 2.214 6.938 5.508 11.923 9.848 14.91 2.24 1.617 4.716 2.52 7.426 2.706.155.015.273-.012.387.038l.1.282-.023-.275c.736.033 1.323-.026 1.595-.038l.196-.02c4.295-.358 8.767-2.486 13.013-6.113 13.635-11.647 21.682-35.886 17.96-53.968-1.68-8.13-5.5-13.982-10.89-16.45-.15-.092-.34-.15-.455-.2l-.228-.1c-.227-.1-.455-.2-.687-.223l-.113-.05a2.5 2.5 0 0 0-.728-.188c-8.944-2.66-16.863 2.706-17.834 3.39z"/></g><path d="M167.354 105.04c-12.944 11.058-26.348 6.096-29.89-11.118s4.085-40.14 17.03-51.197 26.348-6.096 29.888 11.118-4.085 40.14-17.03 51.197z" class="B"/><g class="C"><path d="M169.506 75.553c1.92 9.29.564 20.278-3.168 30.142.326-.278.728-.55 1.054-.827 12.903-11.022 20.545-33.91 16.975-51.032-3.53-17.158-16.9-22.104-29.793-11.082-5.902 5.042-10.706 12.592-13.848 20.925 12.61-9.966 25.38-4.807 28.78 11.874z"/><path d="M142.544 105.92c-2.517-2.927-4.388-6.996-5.39-11.953-3.578-17.256 4.134-40.33 17.16-51.456 6.33-5.407 13-7.204 18.752-5.127 5.75 2.155 9.856 7.92 11.596 16.368 3.578 17.256-4.134 40.33-17.16 51.457-6.33 5.406-13 7.204-18.753 5.127-2.362-.853-4.453-2.378-6.204-4.415zm36.313-63.696c-1.715-1.994-3.696-3.392-5.98-4.237-5.52-2.055-11.996-.277-18.202 5.025C141.81 54 134.2 76.85 137.698 93.944c1.676 8.21 5.7 13.888 11.23 15.943s11.996.277 18.203-5.025c12.862-10.988 20.484-33.837 16.975-50.93-1.008-4.88-2.805-8.863-5.25-11.706z"/></g><path d="M166.122 65.887l-5.63 17.36 16.754 8.884c3.625-6.546 6.18-14.09 7.3-21.577L166.68 65.63c-.228-.1-.468.032-.558.256z" class="B"/><path d="M182.534 73.283l-16.94-4.675-4.73 14.53 16.066 8.502c2.723-5.7 4.706-12.015 5.605-18.358z" fill="#f7e6cc"/><path d="M160.175 83.368l5.72-17.584c.135-.336.456-.537.837-.422l18.137 4.987-.054.266a63.35 63.35 0 0 1-7.305 21.655l-.13.26-17.204-9.16zm6.25-17.377l-5.576 17.094 16.304 8.608a62.39 62.39 0 0 0 7.076-21.018l-17.6-4.858c-.118.027-.2.097-.203.174z" class="C"/><path d="M164.9 82.205c3.184-2.72 5.014-8.33 4.163-12.53-.484-2.456-1.878-3.912-3.496-4.148-.423-.08-.89-.048-1.364.06l-2.417.152-.56 1.655c-2.638 2.695-4.267 7.47-3.743 11.288l-.564 1.732 2.14 1.996c.1.127.22.255.333.304 1.44 1.345 3.507 1.197 5.506-.51z" class="B"/><path d="M167.4 71.008c-.483-2.454-1.877-3.91-3.494-4.145-.422-.08-.9-.048-1.362.06l-1.326.104-.144.5c-2.636 2.693-4.263 7.464-3.74 11.28l-.563 1.73 2.14 1.994c.11.127.22.254.332.304 1.26 1.055 3.005 1.108 4.778-.038 2.644-2.847 4.17-7.9 3.38-11.78z" class="G"/><path d="M156.55 80.576l.61-1.844c-.478-3.93 1.11-8.67 3.788-11.4l.604-1.767 2.613-.172c.472-.11.94-.14 1.404-.096l.195-.02-.195.02c1.768.328 3.272 1.912 3.796 4.332.884 4.32-.992 10.04-4.257 12.83-2.08 1.778-4.27 2.03-5.9.628-.11-.127-.26-.22-.37-.347l-2.287-2.165zm5.403-14.544l-.596 1.612c-2.634 2.617-4.18 7.322-3.693 11.098l-.005.077-.518 1.62 1.99 1.903c.11.127.182.212.332.304 1.37 1.182 3.365.95 5.202-.62 3.1-2.65 4.927-8.18 4.108-12.262-.456-2.258-1.66-3.658-3.277-3.893-.387-.038-.814-.04-1.286.07l-2.258.1z" class="C"/><path d="M162.21 80.442c-2.777 2.372-5.67 1.312-6.436-2.377s.874-8.62 3.692-11.028c2.776-2.372 5.67-1.312 6.435 2.377s-.873 8.62-3.69 11.028z" class="B"/><path d="M156.75 80.762c-.583-.68-1-1.574-1.21-2.644-.797-3.81.886-8.852 3.744-11.293 1.43-1.22 2.93-1.62 4.262-1.14s2.27 1.815 2.628 3.715c.797 3.808-.886 8.852-3.744 11.293-1.43 1.22-2.93 1.618-4.262 1.14-.57-.25-1.015-.604-1.417-1.07zm7.808-13.734c-.33-.382-.74-.694-1.157-.85-1.143-.422-2.446-.044-3.712 1.037-2.736 2.337-4.328 7.156-3.56 10.767.332 1.703 1.162 2.834 2.264 3.29 1.142.422 2.446.044 3.712-1.037 2.735-2.337 4.328-7.156 3.56-10.767-.253-1.035-.596-1.846-1.106-2.44z" class="C"/><path d="M184.383 53.842c-3.54-17.214-16.944-22.175-29.888-11.118s-20.61 34.018-17.03 51.197c3.54 17.214 16.945 22.176 29.89 11.118s20.57-33.983 17.03-51.197zM140.57 91.27c-3.048-14.91 3.548-34.75 14.778-44.343s22.803-5.276 25.892 9.6c3.05 14.912-3.548 34.75-14.778 44.343s-22.803 5.276-25.892-9.6z" class="B"/><path d="M167.142 104.914a34.17 34.17 0 0 0 2.462-2.324c10.042-12.035 15.482-31.395 12.403-46.42-3.54-17.206-16.937-22.166-29.876-11.113a34.2 34.2 0 0 0-2.462 2.324c-10.04 12.035-15.482 31.395-12.403 46.42 3.54 17.206 16.897 22.2 29.876 11.113zm-16.164-53.87c1.292-1.545 2.697-3.04 4.166-4.294 11.225-9.588 22.794-5.274 25.882 9.597 2.904 13.997-2.794 32.4-12.804 42.496-1.29 1.544-2.696 3.04-4.166 4.294-11.224 9.59-22.794 5.274-25.88-9.596-2.868-13.955 2.79-32.323 12.803-42.496z" fill="#f7e6cc"/><path d="M142.544 105.92c-2.517-2.927-4.388-6.996-5.4-11.953-3.578-17.256 4.134-40.33 17.16-51.456 6.33-5.407 13-7.204 18.752-5.127 5.75 2.155 9.856 7.92 11.596 16.368 3.578 17.256-4.134 40.33-17.16 51.457-6.33 5.406-13 7.204-18.753 5.127-2.362-.853-4.453-2.378-6.204-4.415zm36.313-63.696c-1.715-1.994-3.696-3.392-5.98-4.237-5.52-2.055-11.996-.277-18.202 5.025C141.8 54 134.2 76.85 137.698 93.944c1.676 8.2 5.7 13.888 11.23 15.943s11.996.277 18.203-5.025c12.862-10.988 20.484-33.837 16.975-50.93-1.008-4.88-2.805-8.863-5.25-11.706zM144.96 101.65c-2.2-2.546-3.78-6.044-4.664-10.367-3.085-14.954 3.56-34.982 14.832-44.6 5.512-4.7 11.315-6.28 16.303-4.433s8.552 6.898 10.085 14.2c3.085 14.954-3.562 34.982-14.832 44.6-5.512 4.7-11.315 6.28-16.303 4.433-2.057-.745-3.888-2.05-5.42-3.832zm31.442-55.193c-1.46-1.697-3.176-2.953-5.156-3.7-4.797-1.8-10.404-.238-15.754 4.332-11.147 9.523-17.74 29.284-14.687 44.12 1.464 7.14 4.923 11.985 9.72 13.774s10.404.238 15.754-4.33c11.147-9.523 17.74-29.285 14.687-44.12-.893-4.168-2.447-7.624-4.564-10.084zm49.01 58.978l-.064-.24c-.024-.273-.165-.52-.545-.634l-3.754-1.4c-.643-.257-1.702-.012-2.312.5-.326.277-.456.536-.392.774l-.005.077.33 1.697 2.917.44 2.772.27 1.322-.103-.27-1.38z" class="C"/><path d="M218.385 106.452l-.354-1.97c-.06-.315.116-.685.482-.998.692-.6 1.828-.828 2.585-.522l3.753 1.41c.417.157.707.495.722.923l.028.196.294 1.654-1.594.116-2.813-.236-3.103-.574zm6.585-1.448c-.073-.084-.186-.134-.263-.14l-3.753-1.412c-.607-.214-1.508-.03-2.037.42-.366.312-.338.51-.302.55l-.004.077.266 1.458 2.764.425 2.772.27.973-.098-.24-1.262c-.032-.12-.104-.204-.177-.29z" class="H"/><path d="M222.91 108.207l-3.755-1.412c-.644-.257-.727-.846-.116-1.367s1.63-.73 2.313-.5l3.755 1.412c.644.257.727.846.117 1.367s-1.63.732-2.314.5z" class="C"/><path d="M218.505 106.694c-.11-.127-.14-.246-.2-.408-.055-.393.084-.805.49-1.153.692-.6 1.828-.828 2.586-.522l3.755 1.412c.417.157.635.41.695.727.055.392-.084.805-.49 1.152-.692.59-1.828.83-2.586.522L219 107.012a.97.97 0 0 1-.485-.318zm6.814.045c-.073-.084-.186-.134-.3-.184l-3.755-1.412c-.607-.214-1.508-.03-2.037.42-.245.208-.335.432-.307.628s.218.254.332.304l3.755 1.412c.607.214 1.508.03 2.037-.42.244-.21.334-.432.343-.586.004-.077-.032-.12-.068-.162z" class="H"/><path d="M145.667 89.697l-26.223 6.688 6.094 4.435-17.303 8.93 27.404-7.475-6.483-3.806 16.51-8.773z" class="B"/><path d="M129.256 98.35l7.69-4.057-14.905 3.783 3.604 2.618-2.095 1.125 1.877 1.355-7.326 3.82 14.602-3.97-3.666-2.194 2.337-1.258-2.12-1.223z" fill="#f9e8cc"/><path d="M105.704 110.723L125 100.767l-6.212-4.487 29.094-7.43-18.13 9.637 6.635 3.9-30.672 8.335zm20.377-9.85l-15.332 7.91 24.188-6.576-6.37-3.758L143.4 90.53l-23.332 5.994 6.023 4.35z" class="C"/><path d="M149.182 69.65l-33.38-19.77 1.894 10.216-26.473-8.795 35.32 20.23-2.87-10.04 25.507 8.16z" class="B"/><path d="M123.73 61.42l11.932 3.794L116.53 53.95l1.13 6.066-2.13-.672.692 3.5-11.24-3.727 18.85 10.774-1.616-5.65 2.508.786-.995-3.617z" fill="#fae9cc"/><path d="M88.744 50.214l28.627 9.506-1.926-10.333 35.99 21.257-27.284-8.68 2.9 10.158-38.306-21.907zm27.453.2l1.862 10.095-24.3-8.082 32.364 18.51-2.8-9.878 23.645 7.554-30.76-18.2z" class="C"/><path d="M162.815 53.763L150.8 29.055l-2.972 6.533-12.292-15.69 12.99 25.76 2.34-6.863 11.95 14.966z" class="B"/><path d="M146.717 34.422l-.83 1.8-6.375-8.15 7.943 15.755 1.475-4.388 1.15 1.418.687-1.97 6.635 8.29-7.705-15.885-1.974 4.378-1.005-1.25z" class="G"/><path d="M148.606 46.316l-14.5-28.737 13.68 17.468 3.056-6.676 13.315 27.357L151.03 39.3l-2.423 7.006zm-11.583-24.122l11.468 22.77 2.3-6.674 10.768 13.428-10.705-22.044-2.926 6.42-10.895-13.9z" class="C"/><path d="M181.265 130.415c7.117-2.387 13.273-5.726 16.38-7.57 1.896-1.102 4.167-1.27 6.273-.558l6.5 2.35.528-.378-6.84-2.5c-2.257-.805-4.725-.617-6.743.6-3.185 1.835-9.623 5.342-16.936 7.75l.84.316z" class="B"/><path d="M179.984 130.567l-.438.152.306.1.132-.26zm28.276-37.96s-12.614-7.575-23.497-4.395c-.118.027-.237.055-.318.125-2.06 4.78-4.607 9.242-7.548 13.08 5.215-2.76 12.118-4.383 20.335-1.674 1.86 1.505 4.48 1.333 7.055-.868 1.522-1.447 3-4.03 3.973-6.268zm28.36 12.052l8.94 3.37-2.482 3.893-2.9 2.84-2.5 1.24-2.404.43-3.57-1.012-5.773-2.085 3.675-.85 2.806-2.028 2.758-3.242 1.43-2.553z" class="C"/><path d="M213.797 107.05l-.302-.107-.486.415.64.255c.036.042 4.787 1.893 7.54 2.97l-.42-.735-6.97-2.8zM181.8 93.794l-.976.6c-1.393 2.456-2.938 4.818-4.6 6.973l1.174-.63c1.6-2.12 3.035-4.455 4.392-6.954z" class="H"/><path d="M167.846 77.535l5.232 2.14 5.463 2.162-.627 1.5-3.51 7.258-13.32-7.27 1.755-.178 1.89-1.173 2.385-2.404.734-2.022z" class="C"/><path d="M173.94 90.24l-3.516-1.806-.03.536 3.25 1.742.296-.472zm82.413-28.912l-2.327-1.8c-.02-.01-.04 0-.048.02l-.546 2.94c0 .01-.01.02-.02.02l-5.5-.798c-1.148.467-4.292 5.188-4.467 6.414l1.995 4.565c0 .01-.01.02-.02.02l-2.716 1.226c-.02.01-.02.04-.01.05l2.307 1.8c.32.263.808.312 1.392.078l6.88-2.774c1.15-.467 2.24-1.85 2.414-3.086l1.032-7.35c.097-.603-.058-1.06-.38-1.314zm-8.4 6.444c.097-.672.7-1.43 1.314-1.684l3.163-1.275-.175.944.496.4-3.27 4.72-.506-.38-1.44.652c-.02.01-.048-.01-.04-.03l.458-3.348z" class="B"/><path d="M245.695 76.336c-.34 0-.643-.097-.886-.302l-2.434-1.908.03-.38.175-.097 2.453-1.1-1.908-4.38.01-.088c.185-1.334 3.416-6.17 4.662-6.668l.078-.03 5.285.77.526-2.842.35-.146.166.117 2.326 1.8c.428.33.604.905.506 1.616l-1.032 7.35c-.185 1.334-1.353 2.832-2.608 3.34l-6.882 2.774c-.282.117-.555.175-.817.175zm-2.414-2.307l1.927 1.51c.253.204.633.214 1.08.03l6.882-2.774c1.04-.42 2.063-1.723 2.22-2.832l1.032-7.35c.068-.477-.03-.847-.273-1.032l-1.956-1.518-.496 2.648-.263.117-5.48-.788c-1.07.574-3.913 4.838-4.186 6.054l1.986 4.555-.03.263-.175.097-2.268 1.022zm4.195-2.51l-.33-.224.01-.214.477-3.348c.107-.788.77-1.635 1.508-1.927l3.7-1.49-.243 1.324c.03.02.058.04.078.068.34.272.486.4.33.633l-3.36 4.838-.136.02c-.136.02-.146.02-.496-.253-.03-.03-.068-.05-.098-.068l-1.44.642zm4.536-6.19l-2.638 1.06c-.526.214-1.042.866-1.12 1.43l-.4 2.832.974-.438c.165-.078.224-.04.564.224l2.92-4.215a.12.12 0 0 0-.039-.029c-.31-.243-.4-.32-.33-.535l.068-.33z" class="D"/><path d="M243.38 65.318l-1.04 7.368c-.176 1.226.623 1.85 1.77 1.382l6.9-2.784c1.15-.467 2.22-1.83 2.395-3.056l1.04-7.368c.175-1.227-.623-1.85-1.77-1.382l-6.9 2.784c-1.16.458-2.23 1.83-2.395 3.056zm7.368-2.56c.623-.253 1.052.088.954.75l-.574 4.078c-.097.662-.672 1.402-1.295 1.655l-3.815 1.538c-.623.253-1.05-.088-.954-.75l.574-4.078a2.34 2.34 0 0 1 1.295-1.655l3.815-1.538z" fill="#fff"/><g class="D"><path d="M243.39 74.536c-.33 0-.623-.097-.857-.282-.428-.33-.603-.905-.506-1.616l1.042-7.368c.194-1.343 1.323-2.803 2.59-3.31l6.9-2.784c.662-.263 1.265-.234 1.693.097s.604.905.507 1.616l-1.042 7.368c-.185 1.343-1.324 2.803-2.59 3.31l-6.9 2.784a2.18 2.18 0 0 1-.837.185zm.302-9.18l-1.042 7.368c-.068.477.03.847.273 1.032s.623.195 1.06.01l6.9-2.784c1.03-.42 2.044-1.703 2.2-2.813l1.042-7.368c.068-.477-.03-.847-.273-1.032s-.623-.195-1.06-.01l-6.9 2.784c-1.04.42-2.044 1.713-2.2 2.813zm1.946 5.82a.85.85 0 0 1-.555-.185c-.272-.214-.39-.584-.33-1.012l.574-4.078c.107-.78.77-1.616 1.49-1.908l3.816-1.538c.408-.165.788-.136 1.06.078s.39.584.33 1.012l-.575 4.078c-.107.78-.77 1.616-1.49 1.908l-3.816 1.538a1.43 1.43 0 0 1-.506.107zm5.1-8.42l.117.292-3.815 1.538c-.516.214-1.022.857-1.1 1.41l-.574 4.078c-.03.195.01.36.087.428.088.068.243.058.428-.01l3.816-1.538c.516-.214 1.022-.856 1.1-1.41l.574-4.078c.03-.195-.01-.36-.088-.428-.087-.068-.243-.058-.428.01l-.117-.292z"/><path d="M252.777 69.8l-.4.498 2.298 1.802.4-.498-2.298-1.802zm-6.495-5.086l-.4.498 2.298 1.802.4-.498-2.297-1.802zM244.98 73.5l-.4.498 2.298 1.802.4-.498-2.298-1.802zm9.4-11.612l-.4.498 2.298 1.802.4-.498-2.298-1.802z"/></g><g clip-path="url(#A)" stroke-width=".977"><path d="M123.262 33.802l-.22.435c-1.162-.59-2.12-.598-2.75-.276l-5.556 2.842c-.617.314-1.055.993-1.06 2.107l-.064 19.964-.49-.002.49.002c-.004 1.13.45 2.428 1.224 3.606s1.83 2.19 2.98 2.773l-.22.436.22-.436 19.743 10.03c1.196.608 2.172.596 2.802.246l.001.002h0m-17.102-41.73L114.5 36.37l5.56-2.843c.816-.417 1.946-.358 3.193.275l19.742 10.03m-19.743-10.03l-.22.435 19.743 10.03.22-.436m-19.743-10.03l17.27 42.192m-.167-.462l.238.427 5.502-2.814c.806-.412 1.305-1.288 1.31-2.533l.065-19.964c.008-2.506-1.995-5.558-4.473-6.817m-2.64 31.7l-.001-.002-.042.024.2.44m-.167-.462l5.518-2.822c.602-.308 1.04-.987 1.043-2.1l.064-19.964c.004-1.13-.45-2.428-1.224-3.607s-1.83-2.19-2.98-2.773l.22-.436m-28.51-7.455c-.805.412-1.304 1.287-1.308 2.532l1.308-2.532zm0 0l.224.434-.224-.434zm26.035 39.617h0zm-25.834-39.172h0 0z" fill="#007550" stroke="#000"/><g fill="#fff"><path d="M125.733 53.898v.002c-.025.266-.078.584-.227.863m.227-.864l-.658.634m.658-.634c.082-.883.095-1.81-.04-2.814a2.58 2.58 0 0 0-.464-1.175m.504 3.988l-.504-3.988m.277 4.853l-.43-.23m.43.23l-.43-.23m.43.23c-.082.153-.218.325-.44.407-.233.085-.455.033-.622-.05m.632-.586c-.1.188-.238.238-.4.15m-.222.436l.222-.436m-.222.436l.222-.436m-.222.436c-.19-.097-.358-.26-.503-.434h0c-.345-.416-.583-.873-.79-1.28l1.516 1.277m-4.036-6.71h-.001l-1.43-.74 1.43.74zm0 0c.25.13.437.366.557.728m-.557-.728l.557.728m-3.204-2.075l-.196-.096-.317.114.317-.114.196.096zm0 0c1.017 2.81 2.147 5.607 3.613 8.373.762 1.437 1.63 2.794 2.742 4.005a12.3 12.3 0 0 0 3.551 2.695l.486.235h.001l.234.098.01-.12c.024-.455.076-1.05.41-1.495h0a.9.9 0 0 1 .536-.354c.23-.047.444.008.62.097l-12.203-13.536zm0 0l1.216.608-1.216-.608zm16.18 18.248l.015.008 2.773 1.4a1.13 1.13 0 0 0-.066-.223c-.177-.44-.413-.876-.673-1.327l-1.4-2.17-.547-.8.406-.27-.508 3.382zm0 0l-.016-.007m.016.007l-.016-.007m0 0l-.163-.076m.163.076l-.163-.076m2.656-8.68l-.002-.001a1.95 1.95 0 0 0-.227-.128h0l-3.215-1.636-.08-.037-.622 1.12c-.52.802-1.143 1.602-2.045 2.1l-.001.001-.026.016c-.128.077-.5.306-.964.075l.222-.436 6.96-1.086zm0 0c.245.167.327.274.354.33.013.028.03.075-.02.212-.2.557-.6.913-1.113 1.36l-.03.025.81-1.93zM125.23 49.9l2.9 1.473c.205.15.295.257.347.355.056.104.093.24.126.49l-.01 3.686-3.363-6.002zm-4.043-1.208a32.83 32.83 0 0 0 1.963 4.703l-1.963-4.703zm12.796 16.1c-.563-.286-1.047-.784-1.48-1.455l1.48 1.455zm-5.227-2.72zm-4.322-12.383z" stroke="#111010"/><g class="F"><path d="M142.32 73.767l4.5-2.302c-.164.618-.5 1.026-.938 1.246l-3.7 1.892a4.14 4.14 0 0 0 .138-.836z"/></g></g><g class="E F"><path d="M117.684 36.106a5.74 5.74 0 0 0-.926-.337l3.534-1.807c.444-.227 1.052-.3 1.78-.1l-4.388 2.244zm24.648 36.557l.06-18.864 4.593-2.35-.06 18.864-4.593 2.35z"/></g><path d="M137.432 46.134l-18.667-9.484 4.498-2.3 18.666 9.484-4.497 2.3z" fill="#fbfbfe" class="F"/><path d="M146.98 50.356l-4.64 2.372c-.154-1.144-.642-2.322-1.33-3.372-.675-1.03-1.562-1.963-2.566-2.64l4.556-2.33c1.066.597 2.042 1.556 2.765 2.657.707 1.078 1.148 2.255 1.215 3.314z" fill="#f3f4ff" class="F"/></g><path stroke="#fff" d="M105.87 33.26h48.865v43H105.87z"/><defs><clipPath id="A"/><path id="B" d="M182.445 126.88c.064.237-.098.376-.324.277a.99.99 0 0 1-.506-.589c-.064-.237.098-.376.324-.277a.99.99 0 0 1 .506.589z"/><path id="C" d="M175.138 120.122c.064.237-.098.375-.323.276a.98.98 0 0 1-.506-.588c-.064-.238.098-.376.323-.277s.48.394.506.59z"/><path id="D" d="M172.58 117.136c.063.237-.098.376-.324.277a.99.99 0 0 1-.506-.589c-.064-.237.098-.376.324-.277a.99.99 0 0 1 .506.589z"/><path id="E" d="M178.265 135.715c.064.237-.098.376-.323.277a.99.99 0 0 1-.507-.589c-.063-.238.1-.376.324-.277s.48.394.506.59z"/><path id="F" d="M173.554 131.984c.064.237-.098.375-.323.276a.98.98 0 0 1-.506-.588c-.064-.238.098-.376.323-.277a.98.98 0 0 1 .506.589z"/><path id="G" d="M177.86 133.473c.063.238-.1.376-.324.277a.98.98 0 0 1-.506-.589c-.064-.237.098-.375.323-.276s.443.35.507.588z"/><path id="H" d="M180.01 134.22c.064.237-.098.376-.324.276s-.442-.35-.506-.588.098-.376.324-.277a.99.99 0 0 1 .506.589z"/><path id="I" d="M172.74 127.5c.064.238-.098.376-.323.277s-.443-.352-.506-.59.098-.376.323-.276a.98.98 0 0 1 .506.588z"/></defs></svg>