<svg xmlns="http://www.w3.org/2000/svg" width="360" height="307" fill="none" xmlns:v="https://vecta.io/nano"><style><![CDATA[.B{fill:#001e20}.C{fill:#fff}.D{fill:#007550}.E{fill:#ff513f}.F{fill:#ffb5ad}.G{fill:#020202}.H{fill:#ffd45d}.I{fill:#353638}.J{fill:#fffeff}]]></style><g fill="#ffc856"><path d="M0 3h360v304H0z"/><path d="M0 3L160 99L360 3V307L102.5 157.5L0 307L262.5 115L360 3H0Z" style="mix-blend-mode:screen" opacity=".3"/></g><g class="B"><path d="M127.402 42.836c-.472-1.656-1.713-1.8-4.217-3.564-2.2-1.468-4.66-2.44-7.217-2.756s-4.126-.5-5.542.238l-1.538.172-1.06 2.695c-.604 1.75.17 3.96 2.543 6.277s5.458 3.707 8.747 4.138c4.605.603 7.527-.667 8.428-2.734l.03-.075.974-2.47-1.146-1.922z"/><path d="M115.17 49.52c-1.947-.767-3.67-1.878-5.202-3.26-2.448-2.348-3.387-4.793-2.666-6.844l.03-.075 1.15-2.92 1.717-.188c1.595-.755 3.314-.51 5.796-.225 2.632.345 5.28 1.302 7.44 2.845l1.8 1.14c1.334.785 2.173 1.29 2.613 2.586l1.19 2.026-1.12 2.845c-1.078 2.516-4.45 3.61-8.98 3.035-1.24-.143-2.573-.494-3.77-.966zm-5.95-12.116l-.914 2.32c-.574 1.676.26 3.734 2.39 5.785 2.178 2.155 5.263 3.543 8.448 4.02 4.022.547 6.976-.365 7.876-2.432l.944-2.396-1.025-1.788c-.304-.985-.874-1.295-2.208-2.08l-1.874-1.17c-2.114-1.438-4.54-2.307-6.99-2.668-2.632-.345-4.052-.472-5.26.177l-.18.016-1.21.215z"/></g><path d="M127.25 39.5c2.933 3.75 1.518 7.343-3.155 8-4.703.742-10.917-1.706-13.925-5.485-2.933-3.75-1.518-7.343 3.156-8 4.748-.638 10.96 1.8 13.924 5.485z" class="C"/><g class="B"><path d="M116.276 46.93c-2.62-1.032-5.004-2.663-6.508-4.553-1.55-1.994-2.053-4.008-1.404-5.655.678-1.722 2.42-2.852 4.884-3.178 4.88-.758 11.32 1.778 14.373 5.662 1.55 1.994 2.053 4.008 1.404 5.655-.678 1.722-2.42 2.852-4.884 3.178-2.388.356-5.244-.077-7.865-1.1zm4.483-11.38c-2.396-.944-5.073-1.393-7.357-1.082-2.105.295-3.505 1.214-4.036 2.56s-.06 3.004 1.205 4.626c2.813 3.616 8.877 6.005 13.4 5.28 2.105-.295 3.505-1.214 4.036-2.56s.06-3.003-1.205-4.625c-1.413-1.68-3.573-3.224-6.043-4.197zm3.775 4.687c-2.164-2.4-6.506-4.12-9.732-3.834s-4.08 2.457-1.917 4.866 6.506 4.12 9.732 3.834c3.197-.2 4.08-2.457 1.917-4.866z"/><path d="M117.162 44.683c-1.872-.737-3.52-1.82-4.678-3.053-1.202-1.338-1.538-2.68-1.125-3.73.442-1.123 1.678-1.847 3.366-1.96 3.33-.33 7.897 1.468 10.106 3.98 1.203 1.338 1.54 2.68 1.126 3.73-.443 1.123-1.68 1.847-3.367 1.96-1.642.218-3.557-.2-5.428-.928zm2.713-6.887c-1.647-.65-3.487-1.028-5.025-.855-1.33.082-2.223.594-2.518 1.343s.084 1.763.925 2.7c2.044 2.275 6.237 3.927 9.283 3.657 1.33-.082 2.223-.594 2.518-1.343s-.084-1.763-.925-2.7c-1.008-1.175-2.537-2.123-4.258-2.802z"/></g><path d="M123.943 41.734c-2.164-2.41-6.506-4.12-9.732-3.834-1.18.14-2.015.504-2.55.985.063.717.426 1.552 1.193 2.46 2.164 2.41 6.506 4.12 9.732 3.834 1.18-.14 2.015-.504 2.55-.985-.034-.792-.397-1.626-1.193-2.46z" class="H"/><path d="M117.16 44.683c-1.872-.737-3.52-1.82-4.678-3.053-.842-.937-1.25-1.876-1.33-2.772l.014-.254.163-.195c.595-.63 1.61-1 2.863-1.12 3.33-.33 7.897 1.468 10.107 3.98.84.937 1.25 1.876 1.33 2.772l-.014.254-.163.195c-.594.63-1.608 1-2.863 1.12-1.642.218-3.557-.19-5.428-.928zm-4.9-5.562c.123.567.47 1.223.996 1.862 2.044 2.275 6.237 3.927 9.283 3.657.896-.08 1.597-.322 2-.683-.123-.567-.47-1.223-.996-1.862-2.044-2.275-6.236-3.927-9.283-3.657-.792.034-1.493.277-2 .683z" class="B"/><path d="M122.693 47.986l-.75-.295-.855 2.17.75.295.855-2.17zm-13.22-7.282l-.748-.295-.856 2.17.75.295.855-2.17zm11.896-2.752l-.75-.295-.53 1.348.75.295.53-1.348z" class="H"/><g class="B"><path d="M113.972 38.066l-.472 1.198 1.41 1.248 1.22-.903 4.392 5.535 1.6.11.746-.138.472-1.198-6.293-6.197-3.076.345z"/><path d="M120.302 45.488l-4.272-5.4-1.22.903-1.847-1.68.65-1.647 3.54-.422 6.608 6.495-.648 1.647-1 .125c-.537.048-1.12-.01-1.703-.066l-.105.045zm-4.067-6.36l.195.163 4.346 5.43 1.346.097.462-.077.295-.75-5.977-5.9-2.643.343-.266.674.976.817 1.086-.783.18-.016z"/></g><path d="M116.606 38.41l-1.25.978-1.41-1.248 1.726-1.31 1.747-.263 5.85 7.32-2.105.295-4.557-5.773z" class="C"/><g class="B"><path d="M121.06 44.663l-4.587-5.698-1.22.903-1.967-1.812 2.203-1.64 2.105-.295 6.422 8.064-2.956.48zm-4.353-6.73l.195.163 4.512 5.67 1.21-.216-5.25-6.65-1.463.202-1.325.948.78.653 1.087-.783.254.014z"/><path d="M137.462 52.42c.065-1.704-.924-2.266-2.7-4.782-1.5-2.144-3.487-3.88-5.84-5.154-2.278-1.243-3.746-1.908-5.284-1.735l-1.48-.41-1.842 2.042-.03.075c-1.247 1.41-1.295 3.727.125 6.708s3.764 5.374 6.686 6.957c4.06 2.205 7.302 2.098 8.818.447l.104-.045 1.812-1.967-.37-2.135z"/><path d="M128.852 57.59c-.674-.265-1.318-.606-1.962-.946a15.92 15.92 0 0 1-6.851-7.196c-1.466-3.085-1.48-5.685-.07-7.29l.03-.075 2.1-2.282 1.63.47c1.717-.188 3.276.685 5.508 1.824 2.352 1.273 4.423 3.04 5.96 5.288l1.31 1.726c.933 1.146 1.55 1.994 1.527 3.37l.386 2.314-2.1 2.282c-1.56 1.547-4.324 1.756-7.468.517zm-6.468-16.73l-1.678 1.847c-1.144 1.366-1.058 3.562.226 6.23 1.33 2.772 3.57 5.21 6.416 6.765 3.566 1.924 6.7 2.116 8.25.57l.104-.045 1.65-1.772-.324-2.03c.054-1.016-.352-1.522-1.255-2.743l-1.31-1.726c-1.445-2.04-3.412-3.852-5.644-4.99-2.278-1.243-3.596-1.85-4.954-1.692l-.18.016-1.302-.426z"/></g><path d="M138.52 49.293c1.414 4.535-1.186 7.402-5.794 6.366s-9.59-5.508-11.08-10.072c-1.414-4.535 1.186-7.402 5.793-6.366s9.592 5.508 11.08 10.072z" class="C"/><g class="B"><path d="M130.77 55.58c-4.192-1.65-8.278-5.77-9.614-9.84-.8-2.386-.502-4.435.716-5.77s3.233-1.84 5.672-1.225c4.786 1.02 9.936 5.73 11.47 10.4.8 2.386.5 4.435-.717 5.77s-3.233 1.84-5.67 1.225c-.658-.086-1.257-.322-1.856-.558zm-1.754-15.306c-.6-.236-1.152-.367-1.706-.5-2.064-.467-3.766-.1-4.687.92-.95 1.096-1.166 2.74-.483 4.74 1.398 4.355 6.157 8.738 10.7 9.745 2.064.467 3.765.1 4.686-.92.95-1.096 1.166-2.74.484-4.74-1.216-3.938-5.016-7.683-8.984-9.246zm6.664 8.764c-1.136-3.042-4.6-6.132-7.7-7.012s-4.687.92-3.52 3.888c1.137 3.042 4.6 6.132 7.702 7.012s4.686-.92 3.52-3.888z"/><path d="M131.13 53.126c-2.994-1.18-6.147-4.15-7.24-7.09-.65-1.64-.524-3.06.263-3.96s2.176-1.132 3.882-.633c3.262.94 6.835 4.163 8.092 7.34.65 1.64.524 3.06-.263 3.96s-2.176 1.132-3.882.633c-.224-.088-.553-.132-.853-.25zm-2.55-10.43c-.224-.09-.524-.207-.778-.22-1.33-.352-2.332-.227-2.822.358s-.544 1.602-.104 2.9c1.12 2.863 4.424 5.893 7.386 6.715 1.332.352 2.332.227 2.822-.358s.545-1.602.105-2.9c-.955-2.625-3.84-5.404-6.61-6.495z"/></g><path d="M134.626 50.18c-1.137-3.042-4.6-6.132-7.702-7.012-1.107-.263-2.05-.288-2.704.06-.266.674-.216 1.645.238 2.688 1.137 3.042 4.59 6.132 7.702 7.012 1.107.263 2.048.288 2.704-.06.265-.674.186-1.57-.238-2.688z" class="H"/><path d="M131.13 53.126c-2.994-1.18-6.147-4.15-7.24-7.09-.424-1.118-.52-2.194-.27-3.047l.09-.225.21-.09c.834-.363 1.88-.383 3.062-.09 3.262.94 6.835 4.163 8.092 7.34.424 1.118.52 2.194.27 3.047l-.088.225-.21.09c-.835.363-1.88.383-3.063.09-.224-.088-.553-.132-.853-.25zm-6.52-9.573c-.13.553.007 1.3.295 2.105 1.12 2.863 4.424 5.894 7.387 6.715.853.25 1.615.3 2.137.064.13-.553-.007-1.3-.295-2.105-1.12-2.863-4.424-5.893-7.387-6.715-.853-.25-1.54-.26-2.137-.063z" class="B"/><path d="M130.616 55.005l-1.57 1.726.595.54 1.57-1.726-.595-.54zm-9.76-11.513l-1.57 1.726.595.542 1.57-1.726-.595-.542zm12.08 1.668l-.974 1.072.595.54.974-1.072-.595-.54z" class="H"/><g class="B"><path d="M126.567 43.2l-.89.946.83 1.624 1.477-.456 2.187 6.742c.494.28.943.458 1.468.665l.732.116.892-.946-3.673-8.02-3.022-.67z"/><path d="M131.2 52.977c-.374-.147-.748-.295-1.093-.517l-.15-.06-2.096-6.533-1.477.456-1.132-2.175 1.218-1.336 3.47.848 3.93 8.466-1.188 1.26-.958-.204-.524-.207zm-.603-1.102c.42.252.87.43 1.243.576l.48.102.5-.585-3.492-7.602-2.663-.703-.5.585.603 1.102 1.268-.365.33.043.09.21 2.142 6.638z"/></g><path d="M128.95 44.397l-1.55.427-.83-1.624 2.12-.55 1.765.35 2.856 8.995-2.064-.467-2.294-7.13z" class="C"/><path d="M130.87 51.813l-2.203-6.92-1.477.456-1.223-2.384 2.61-.7 2.064.467 2.993 9.308-.148.374-.358.032-2.26-.63zm-1.625-7.73l.09.21 2.203 6.92 1.182.293-2.598-8.114-1.436-.306-1.552.427.484.97 1.268-.365.358-.032z" class="B"/><path d="M206.84 87.266l1.318-47.585a.67.67 0 0 1 .689-.649l16.532.458c.265.007.468.22.46.485l-1.323 47.77-.003.08c-.126.4-.177.548-.576.768l-6.906 3.727c-.834.45-2.266.352-3.2-.227l-6.233-3.826c-.5-.28-.77-.575-.76-1z" class="E"/><path d="M218.215 50.056l5.813-3.135-1.18 42.6-7.3 3.324 1.18-42.53c.542.038 1.09-.05 1.488-.258z" class="F"/><path d="M213.593 92.5l-6.234-3.826c-.467-.278-.988-.696-.968-1.4l1.32-47.585c.017-.622.54-1.114 1.164-1.097l16.53.458a.93.93 0 0 1 .911.959l-1.353 47.976c-.15.457-.252.742-.792 1.027l-6.906 3.727c-.446.24-1.04.352-1.64.335-.717-.008-1.452-.202-2.032-.564zm-4.756-52.986c-.116-.003-.21.086-.214.202l-1.32 47.585c-.004.138.038.3.527.602l6.234 3.826c.797.483 2.055.587 2.748.203l6.906-3.727c.235-.132.247-.132.336-.452l1.302-47.793-16.52-.458v.01z" class="G"/><path d="M218.38 44.08l6.906-3.727c.834-.45.753-1.28-.18-1.85l-6.234-3.826c-.933-.568-2.365-.676-3.2-.227l-6.906 3.727c-.833.45-.752 1.28.18 1.85l6.234 3.826c.92.58 2.364.676 3.198.227z" class="E"/><path d="M208.565 41.722c.036-.022.06-.044.095-.067l6.906-3.727c.834-.45 2.265-.352 3.198.227l6.234 3.826c.125.073.227.156.318.228l-.043 1.555c-.036.022-.06.044-.095.067l-6.906 3.727c-.834.45-2.266.352-3.2-.215l-6.233-3.826c-.126-.073-.228-.156-.318-.228l.043-1.566z" class="F"/><path d="M214.926 44.248l-6.234-3.826c-.637-.386-.992-.926-.977-1.468.013-.484.303-.902.82-1.176l6.906-3.727c.975-.526 2.592-.424 3.66.24l6.234 3.826c.637.386.992.926.977 1.468-.013.484-.302.902-.82 1.176l-6.906 3.727c-.446.24-1.04.352-1.64.335-.694-.03-1.44-.224-2.02-.575zm.955-9.4l-6.906 3.727c-.13.066-.33.2-.335.394-.005.16.14.42.537.66l6.234 3.826c.796.483 2.054.587 2.748.203l6.906-3.727c.117-.066.33-.2.334-.394.005-.16-.138-.42-.537-.66l-6.233-3.826c-.444-.266-1.03-.42-1.573-.436-.452-.001-.87.068-1.175.233z" class="G"/><path d="M226.96 97.652l.978-35.263a.67.67 0 0 1 .689-.649l16.53.458a.47.47 0 0 1 .461.485l-.985 35.54c-.127.4-.177.548-.577.768l-6.906 3.728c-.834.45-2.265.352-3.198-.216l-6.234-3.826c-.49-.313-.77-.598-.76-1.024z" class="E"/><path d="M238 72.75l5.814-3.135-.84 30.276-7.3 3.324.837-30.207c.543.038 1.09-.04 1.488-.258z" class="F"/><path d="M233.7 102.875l-6.233-3.826c-.467-.278-.988-.696-.968-1.4l.977-35.263c.018-.622.54-1.114 1.164-1.097l16.532.458a.93.93 0 0 1 .91.959l-.984 35.528-.027.126c-.15.457-.252.742-.792 1.027l-6.906 3.727c-.446.242-1.04.352-1.64.335-.717-.02-1.452-.213-2.033-.563zM228.613 62.2c-.115-.003-.2.086-.213.2l-.978 35.263c-.003.138.038.3.527.602l6.234 3.827c.797.483 2.055.587 2.748.203l6.906-3.728c.235-.132.247-.13.337-.452l.96-35.47-16.52-.458-.001.012z" class="G"/><path d="M238.16 66.774l6.906-3.727c.834-.45.753-1.28-.18-1.85l-6.234-3.826c-.933-.567-2.364-.676-3.2-.215l-6.906 3.727c-.833.45-.752 1.28.18 1.85l6.234 3.826c.92.567 2.364.665 3.198.215z" class="E"/><path d="M228.343 64.416c.035-.022.06-.044.094-.066l6.906-3.727c.834-.45 2.266-.352 3.198.227l6.234 3.826c.126.073.227.156.318.228l-.043 1.555-.095.067-6.906 3.727c-.833.45-2.265.352-3.198-.227l-6.234-3.826c-.125-.073-.227-.156-.317-.228l.043-1.555z" class="F"/><path d="M234.706 66.944l-6.234-3.826c-.637-.386-.993-.926-.978-1.468.014-.484.303-.902.82-1.176l6.906-3.727c.974-.526 2.59-.424 3.66.24l6.234 3.826c.637.386.993.926.978 1.468-.014.484-.303.902-.82 1.176l-6.906 3.727c-.446.24-1.04.352-1.64.335-.694-.02-1.44-.224-2.02-.575zm.954-9.378l-6.906 3.727c-.13.066-.33.2-.335.394-.005.16.14.42.537.66l6.234 3.826c.796.483 2.054.587 2.748.203l6.906-3.727c.117-.066.33-.2.334-.394.005-.16-.138-.42-.537-.66l-6.233-3.826c-.444-.266-1.03-.42-1.573-.435-.45-.012-.87.057-1.175.233z" class="G"/><path d="M241.64 106.943l.633-22.837a.67.67 0 0 1 .689-.649l16.53.458a.47.47 0 0 1 .461.485l-.638 23.02-.002.08c-.127.4-.178.548-.577.767l-6.906 3.727c-.834.45-2.266.353-3.2-.215l-6.234-3.826c-.5-.29-.77-.586-.758-1.012z" class="E"/><path d="M252.318 94.48l5.814-3.135-.495 17.85-7.3 3.324.493-17.78c.554.038 1.09-.05 1.488-.258z" class="F"/><path d="M248.376 112.165l-6.234-3.826c-.466-.278-.987-.696-.967-1.4l.633-22.836c.017-.622.54-1.114 1.164-1.097l16.53.458a.93.93 0 0 1 .911.959l-.64 23.102-.026.126c-.152.457-.252.742-.792 1.027l-6.906 3.727c-.447.24-1.04.352-1.64.335-.705-.008-1.452-.202-2.032-.564zm-5.43-28.237c-.116-.003-.21.086-.214.202l-.633 22.837c-.004.138.038.3.527.602l6.234 3.826c.797.483 2.055.587 2.748.203l6.906-3.727c.235-.132.247-.132.336-.452l.616-23.044-16.52-.458v.01z" class="G"/><path d="M252.482 88.504l6.906-3.727c.834-.45.753-1.282-.18-1.85l-6.234-3.826c-.933-.568-2.364-.676-3.198-.227l-6.906 3.727c-.834.45-.753 1.282.18 1.85l6.234 3.826c.933.58 2.365.676 3.198.227z" class="E"/><path d="M242.667 86.145c.035-.022.06-.044.094-.066l6.906-3.727c.834-.45 2.266-.352 3.2.215l6.234 3.826c.125.073.227.156.317.228l-.043 1.555c-.035.022-.06.044-.094.067l-6.906 3.727c-.834.45-2.266.352-3.198-.227l-6.234-3.826c-.126-.073-.227-.156-.318-.228l.043-1.543z" class="F"/><path d="M249.04 88.673l-6.234-3.826c-.637-.386-.993-.927-.978-1.468.014-.484.303-.902.82-1.176l6.906-3.727c.974-.526 2.59-.424 3.66.24l6.234 3.826c.637.386.993.926.978 1.468-.014.484-.303.902-.82 1.176l-6.906 3.727c-.446.24-1.04.352-1.64.335-.705-.03-1.44-.224-2.02-.575zm.942-9.4L243.076 83c-.13.066-.33.2-.334.394-.005.16.138.42.537.66l6.233 3.826c.797.483 2.055.587 2.748.203l6.906-3.727c.118-.066.33-.2.335-.394.005-.16-.14-.42-.537-.66l-6.234-3.826a3.36 3.36 0 0 0-1.573-.435c-.44-.001-.858.068-1.175.232z" class="G"/><path d="M256.572 115.818l.248-8.97a.67.67 0 0 1 .689-.649l16.532.458c.266.007.468.22.46.485l-.254 9.167-.003.08c-.127.4-.177.548-.576.767l-6.906 3.728c-.834.45-2.266.352-3.2-.227l-6.234-3.827c-.49-.3-.77-.586-.758-1.012z" class="E"/><path d="M266.864 117.208l5.814-3.135-.11 3.985-7.3 3.324.108-3.915c.554.038 1.09-.04 1.488-.26z" class="F"/><path d="M263.32 121.04l-6.234-3.826c-.467-.278-.987-.696-.967-1.4l.248-8.97c.017-.622.54-1.115 1.164-1.098l16.532.458a.93.93 0 0 1 .91.959l-.256 9.236-.026.126c-.152.457-.252.742-.792 1.027l-6.906 3.727c-.447.24-1.04.352-1.64.335-.717-.02-1.452-.213-2.032-.563zm-5.826-14.384c-.115-.003-.2.087-.214.202l-.248 8.97c-.004.138.038.3.527.602l6.234 3.827c.796.483 2.054.587 2.748.203l6.906-3.728c.235-.13.246-.13.336-.45l.243-9.18-16.53-.458-.001.01z" class="G"/><path d="M267.03 111.23l6.906-3.727c.834-.45.753-1.28-.18-1.85l-6.234-3.826c-.933-.567-2.364-.676-3.198-.227l-6.906 3.727c-.834.45-.753 1.282.18 1.85l6.234 3.827c.933.58 2.364.676 3.198.226z" class="E"/><path d="M257.225 108.873c.036-.022.06-.045.095-.067l6.906-3.727c.834-.45 2.266-.352 3.2.215l6.233 3.827c.126.072.228.156.318.227l-.043 1.555c-.035.022-.06.045-.094.067l-6.906 3.727c-.834.45-2.266.352-3.2-.227l-6.234-3.826c-.125-.073-.227-.156-.317-.228l.042-1.543z" class="F"/><path d="M263.588 111.4l-6.233-3.826c-.638-.386-.993-.926-.978-1.468.014-.483.303-.902.82-1.176l6.906-3.727c.975-.526 2.592-.423 3.66.24l6.234 3.826c.637.387.993.927.978 1.468-.014.484-.303.902-.82 1.176l-6.906 3.727c-.446.24-1.04.352-1.64.335-.705-.02-1.44-.224-2.02-.575zm.954-9.378l-6.906 3.727c-.13.066-.33.2-.334.394-.005.162.138.42.537.66l6.234 3.826c.796.483 2.054.587 2.747.203l6.906-3.727c.118-.066.33-.2.335-.394.005-.162-.14-.42-.537-.66l-6.234-3.826c-.443-.266-1.03-.42-1.573-.435-.45-.013-.87.056-1.175.232z" class="G"/><path d="M230.316 61.17c0-1.954-1.192-4.235-2.66-5.084l-64.885-37.485a2.48 2.48 0 0 0-.212-.115c-.504-.24-.972-.256-1.352-.106-1.617.24-2.36 1.786-2.36 1.786l.547.53.725-.044v50.242c0 1.954 1.193 4.235 2.66 5.084l63.904 36.92.857 1.856s1.9.01 2.562-2.033c.01-.018.018-.035.018-.062.01-.018.01-.026.018-.044.115-.327.176-.716.176-1.167V61.17z" class="C"/><g class="B"><path d="M227.532 115.046h-.186l-.9-1.945-63.824-36.874c-1.547-.893-2.8-3.28-2.8-5.33V20.972l-.548.035-.795-.77.088-.186c.035-.07.813-1.67 2.545-1.945.46-.177.99-.133 1.528.115l.036.018c.08.035.16.07.238.124l64.885 37.485c1.546.893 2.8 3.28 2.8 5.33v50.287c0 .354-.035.68-.115.98l-.026.08-.044.15-.053.168c-.698 2.184-2.793 2.2-2.828 2.2zm-67.13-94.693v50.552c0 1.865 1.13 4.03 2.51 4.827l63.984 36.963.813 1.76c.442-.053 1.573-.327 2.076-1.715l.07-.212c.106-.3.16-.672.16-1.07V61.17c0-1.857-1.13-4.03-2.51-4.827L162.62 18.86a2.01 2.01 0 0 0-.195-.097l-.017-.01c-.407-.186-.796-.22-1.114-.088l-.07.018c-1.13.168-1.803 1.06-2.033 1.44l.3.292.9-.062z"/><path d="M163.204 19.027l-.495-.283c-.07-.044-.14-.08-.212-.106-.503-.24-.972-.256-1.352-.106-1.617.24-2.36 1.786-2.36 1.786l.548.53.725-.044v.053l3.145-1.83z"/></g><path d="M226.667 119.484c.008-.01.008-.018.017-.026.195-.32 1.414-2.458-.026-4.394l-1.608-.044-.3 1.476L161.066 79.7c-1.467-.85-4.03-.743-5.726.24l-40.48 22.288-.875-1.052c-1.98 2.157-.38 3.916-.38 3.916.16.195.38.38.654.54l64.885 37.485c1.467.85 4.03.743 5.726-.238l40.673-22.394c.513-.3.893-.637 1.123-1-.018.018-.01.01 0-.01z" class="D"/><g class="B"><path d="M181.62 144c-1 0-1.926-.203-2.633-.6L114.1 105.905c-.3-.177-.548-.38-.733-.6-.01-.01-1.74-1.98.397-4.297l.22-.247.937 1.123L155.2 79.7c1.767-1.017 4.462-1.132 6.008-.23l63.33 36.583.283-1.326 1.988.053.088.115c1.573 2.113.203 4.465.044 4.72l-.256-.132.248.15-.09.124c-.265.37-.654.707-1.15 1l-40.682 22.393c-.98.557-2.218.85-3.393.85zm-67.65-42.356c-1.44 1.803-.22 3.218-.168 3.28a2.13 2.13 0 0 0 .583.486l64.885 37.485c1.387.804 3.826.698 5.434-.24l40.682-22.393c.45-.257.804-.575 1.016-.902l.036-.053c.194-.32 1.237-2.22.062-3.943l-1.22-.036-.344 1.636-64.028-36.98c-1.387-.805-3.826-.698-5.434.24l-40.7 22.41-.804-1z"/><path d="M115.144 102.077l-.3.168-.875-1.052c-1.98 2.157-.38 3.916-.38 3.916.16.195.38.38.654.54l.9.52v-4.093zm67.236-14.764l44.296 25.585.857 1.857s1.9.008 2.563-2.034c.01-.017.017-.035.017-.062.01-.017.01-.026.018-.044a3.52 3.52 0 0 0 .177-1.167V61.17c0-.902-.256-1.865-.663-2.732L182.38 87.313z"/></g><path d="M226.075 114.498L161.2 77.013c-1.467-.85-2.66-3.12-2.66-5.084V21.643c0-1.954 1.193-2.856 2.66-2.007l64.885 37.485c1.467.85 2.66 3.12 2.66 5.084v50.286c0 1.954-1.192 2.856-2.66 2.007z" class="D"/><path d="M227.135 115.108c-.38 0-.787-.123-1.202-.362L161.048 77.26c-1.546-.893-2.8-3.28-2.8-5.33V21.644c0-1.132.39-2.007 1.06-2.405.575-.336 1.3-.283 2.024.14l64.885 37.485c1.546.893 2.8 3.29 2.8 5.33v50.287c0 1.14-.39 2.015-1.07 2.404-.24.15-.522.22-.813.22zm-.9-.857c.547.318 1.06.362 1.45.14.495-.283.777-.972.777-1.9V62.196c0-1.865-1.13-4.03-2.51-4.827l-64.885-37.485c-.548-.318-1.06-.363-1.45-.142-.495.283-.778.973-.778 1.9V71.93c0 1.865 1.13 4.03 2.5 4.827l64.885 37.494z" class="B"/><path d="M225.606 109.043l-63.948-36.937c-.486-.283-.884-1.043-.884-1.697V23.023c0-.654.398-.955.884-.672l63.948 36.937c.486.283.884 1.043.884 1.697v47.386c0 .655-.398.955-.884.672z" class="D"/><g class="B"><path d="M225.96 109.442a1.09 1.09 0 0 1-.495-.142l-63.948-36.946c-.574-.336-1.034-1.185-1.034-1.945V23.023c0-.45.168-.805.45-.973.256-.15.566-.133.866.044l63.948 36.937c.574.336 1.034 1.185 1.034 1.945v47.387c0 .45-.168.804-.45.972-.115.07-.238.107-.37.107zm-.203-.655c.07.045.203.098.292.045.08-.045.16-.195.16-.47V60.976c0-.548-.336-1.21-.743-1.44L161.517 22.6c-.07-.035-.194-.097-.29-.044-.08.044-.16.194-.16.47V70.4c0 .548.335 1.21.742 1.44l63.948 36.937z"/><path d="M162.603 71.46c-.486-.283-.883-1.043-.883-1.697V22.377l-.053-.035c-.486-.283-.884.018-.884.672V70.41c0 .654.398 1.415.884 1.698l63.948 36.937c.486.282.884-.018.884-.672l-63.896-36.91z"/></g><path d="M196.934 95.756l-6.592-3.8c-.292-.168-.53-.62-.53-1.017 0-.39.238-.566.53-.398l6.592 3.8c.29.168.53.62.53 1.017 0 .39-.24.566-.53.398z" class="C"/><path d="M197.145 96.11a.68.68 0 0 1-.353-.106l-6.592-3.8c-.39-.22-.672-.77-.672-1.264 0-.31.115-.557.327-.68.186-.106.416-.097.636.026l6.592 3.8c.39.22.672.77.672 1.264 0 .31-.115.557-.327.68a.55.55 0 0 1-.283.079zm-7.016-5.35s-.026.053-.026.177c0 .31.203.654.388.76l6.592 3.8c.045.026.062.026.062.026s.027-.053.027-.177c0-.31-.204-.654-.39-.76l-6.592-3.8c-.035-.026-.062-.026-.062-.026z" class="B"/><path d="M161.03 79.745l-.035-.027c-1.352-.778-3.605-.743-5.284.027h5.32z" class="D"/><path d="M161.03 80.028h-6.654l1.2-.557c1.802-.822 4.135-.822 5.55-.01l.936.54-1.042.027zm-2.872-.575h.724a4.97 4.97 0 0 0-.724 0zm68.43 35.62l-1.608-.045-.3 1.477L181.7 91.68v52.028c1.087-.018 2.2-.292 3.102-.805l40.673-22.393c.513-.3.893-.637 1.122-1 0 0 .01-.01.01-.018.01-.01.01-.018.018-.027.185-.318 1.405-2.457-.036-4.393z" class="B"/><path d="M179.127 141.49l-64.885-37.485c-1.467-.848-1.28-2.325.407-3.306l40.673-23.5c1.696-.98 4.26-1.087 5.726-.24l64.885 37.485c1.466.85 1.28 2.325-.407 3.307l-40.673 23.498c-1.688.973-4.26 1.08-5.726.23z" class="C"/><path d="M181.62 142.347c-1 0-1.927-.204-2.633-.6l-64.885-37.485c-.734-.425-1.14-1.026-1.14-1.69 0-.778.565-1.556 1.546-2.122l40.674-23.5c1.776-1.025 4.47-1.132 6.017-.24l64.885 37.485c.733.424 1.14 1.025 1.14 1.688 0 .778-.566 1.556-1.547 2.122l-40.673 23.5c-.963.566-2.21.85-3.384.85zm-2.342-1.105c1.387.804 3.826.69 5.434-.24l40.674-23.5c.795-.46 1.255-1.052 1.255-1.618 0-.45-.3-.866-.85-1.185l-64.884-37.484c-1.388-.805-3.827-.7-5.435.24l-40.673 23.5c-.795.46-1.255 1.052-1.255 1.618 0 .45.3.866.848 1.185l64.885 37.485z" class="B"/><path d="M197.084 130.58l-63.948-36.937c-.486-.283-.424-.778.132-1.105l22.17-12.8c.566-.327 1.423-.362 1.91-.08l63.948 36.937c.486.282.424.778-.132 1.105l-22.17 12.8c-.565.336-1.422.37-1.908.09z" class="D"/><path d="M197.914 131.057c-.362 0-.707-.07-.972-.23L132.994 93.9c-.3-.177-.477-.433-.477-.734 0-.336.22-.654.61-.875l22.17-12.8c.653-.38 1.617-.416 2.2-.08l63.948 36.937c.31.177.477.433.477.734 0 .327-.22.654-.6.875l-22.17 12.802a2.56 2.56 0 0 1-1.228.309zm-41.39-51.312a1.96 1.96 0 0 0-.937.23l-22.17 12.8c-.24.142-.318.283-.318.37 0 .106.115.186.185.23l63.948 36.936c.398.23 1.14.195 1.618-.08l22.16-12.793c.238-.14.318-.283.318-.37 0-.106-.115-.186-.186-.23l-63.948-36.937c-.168-.106-.415-.16-.67-.16z" class="B"/><path d="M158.255 126.646L139.973 116.1c-.486-.283-.424-.778.14-1.105l12.115-7.002c.565-.327 1.422-.363 1.908-.08l18.274 10.565c.486.283.424.778-.142 1.105l-12.114 7.002c-.557.318-1.414.354-1.9.07z" class="D"/><path d="M159.086 127.123c-.362 0-.707-.07-.972-.23l-18.282-10.556c-.3-.176-.478-.433-.478-.733 0-.336.22-.655.6-.876l12.115-7.002c.654-.38 1.617-.415 2.2-.08l18.282 10.556c.3.177.477.433.477.734 0 .335-.22.654-.6.875l-12.115 6.993c-.362.212-.804.318-1.228.318zM153.307 108c-.327 0-.672.08-.937.23l-12.114 7.002c-.24.142-.327.283-.327.372 0 .106.115.185.185.23l18.283 10.556c.406.23 1.14.195 1.617-.08l12.114-7.002c.24-.133.327-.283.327-.37 0-.107-.115-.186-.185-.23l-18.274-10.556c-.185-.097-.433-.15-.7-.15zm1.687 2.3l-1.034-.6a1.43 1.43 0 0 0-1.255 0l-1.034.6-.3-.504 1.034-.6a2.03 2.03 0 0 1 1.829 0l1.034.6-.283.504zm13.856 9.92l-.3-.504 1.033-.6c.106-.062.177-.142.177-.195s-.07-.133-.177-.194l-1.033-.593.3-.504 1.034.6c.292.168.468.425.468.7s-.168.52-.468.698l-1.034.593zm-25.308-3.3l-1.034-.602c-.3-.168-.468-.424-.468-.698s.168-.53.468-.698l1.034-.602.292.504-1.034.593c-.106.062-.177.14-.177.194s.07.133.177.195l1.034.6-.292.513zm15.508 8.647c-.327 0-.654-.07-.92-.22l-1.034-.592.3-.504 1.034.6c.336.195.92.195 1.246 0l1.034-.6.3.504-1.033.592c-.248.15-.584.22-.9.22z" class="B"/><path d="M192.223 131.155l-1.573-.91c-.318-.185-.274-.504.088-.716s.92-.23 1.23-.053l1.572.91c.318.185.274.504-.088.716s-.9.238-1.228.053z" class="D"/><path d="M192.762 131.57c-.247 0-.495-.053-.68-.16l-1.573-.9c-.23-.132-.354-.336-.354-.557 0-.256.16-.486.45-.654.46-.265 1.113-.283 1.52-.053l1.573.902c.23.132.353.336.353.557 0 .256-.16.486-.442.654a1.69 1.69 0 0 1-.848.221zm-.4-.663c.23.133.672.106.946-.053.123-.07.16-.14.16-.15 0 0-.018-.027-.07-.062l-1.573-.902c-.23-.133-.67-.106-.936.053-.124.07-.16.142-.16.15s.018.027.07.062l1.564.902zm-30.76-50.33l-1.572-.9c-.32-.186-.274-.504.088-.707.362-.212.92-.23 1.228-.053l1.573.902c.318.186.274.504-.088.707-.363.22-.9.248-1.23.062z" class="B"/><path d="M153.3 85.518l-1.838-1.06c-.24-.14-.212-.39.07-.548l1.697-.98c.283-.16.707-.177.945-.035l1.838 1.06c.248.14.212.39-.07.548l-1.697.98c-.274.16-.698.177-.945.035z" class="C"/><path d="M153.714 85.898c-.204 0-.407-.044-.557-.133l-1.838-1.06c-.194-.115-.31-.292-.31-.486 0-.22.14-.424.38-.557l1.696-.98c.37-.212.902-.23 1.237-.035l1.838 1.06c.195.115.3.292.3.486 0 .22-.133.424-.38.557l-1.697.98c-.203.115-.442.168-.68.168zM151.62 84.2l1.83 1.06a.78.78 0 0 0 .653-.035l1.697-.98c.027-.018.044-.026.062-.044l-1.83-1.06c-.142-.08-.45-.08-.654.035l-1.697.98-.062.044z" class="B"/><path d="M157.25 83.237l-1.838-1.06c-.24-.14-.212-.39.07-.548l.344-.195c.283-.16.707-.177.946-.035l1.838 1.06c.247.14.212.38-.07.548l-.345.195c-.283.16-.707.177-.945.035z" class="C"/><path d="M157.655 83.626a1.13 1.13 0 0 1-.557-.133l-1.838-1.06c-.194-.115-.31-.292-.31-.486 0-.22.142-.424.38-.557l.345-.195c.37-.212.9-.23 1.237-.044l1.838 1.06c.194.115.31.292.31.486 0 .22-.14.424-.38.557l-.345.195c-.194.115-.44.177-.68.177zM157.4 83c.14.08.45.08.654-.035l.344-.194.062-.044-1.83-1.06c-.14-.08-.45-.08-.654.035l-.344.194c-.027.018-.044.026-.062.044L157.4 83z" class="B"/><path d="M157.292 87.825l-1.838-1.06c-.24-.14-.212-.39.07-.548l1.696-.98c.283-.16.707-.177.946-.035l1.838 1.06c.247.14.212.38-.07.548l-1.697.98c-.282.15-.707.168-.945.035z" class="C"/><path d="M157.698 88.206c-.203 0-.406-.044-.557-.133l-1.838-1.06c-.194-.115-.31-.292-.31-.486 0-.22.142-.424.38-.557l1.697-.98c.37-.212.9-.23 1.237-.035l1.838 1.06c.194.115.31.292.31.486 0 .22-.133.424-.38.557l-1.697.98a1.46 1.46 0 0 1-.68.168zm-.265-.637c.14.08.45.08.654-.044l1.696-.98.062-.044-1.83-1.06c-.14-.08-.45-.08-.654.035l-1.696.98c-.027.018-.044.026-.062.044l1.83 1.07z" class="B"/><path d="M161.233 85.545l-1.838-1.06c-.238-.14-.212-.39.07-.548l.345-.195c.282-.16.706-.177.945-.035l1.838 1.06c.247.14.212.39-.07.548l-.344.195c-.283.16-.707.177-.946.035z" class="C"/><path d="M161.65 85.925c-.203 0-.406-.044-.556-.133l-1.838-1.06c-.195-.115-.3-.292-.3-.486 0-.22.142-.424.38-.557l.345-.194c.37-.212.9-.23 1.237-.035l1.838 1.06c.194.115.31.292.31.486 0 .22-.132.424-.38.557l-.344.195c-.204.115-.45.168-.68.168zm-2.103-1.697l1.83 1.06c.142.08.45.08.654-.035l.345-.195c.026-.018.044-.026.062-.044l-1.83-1.06c-.142-.08-.45-.08-.654.035l-.345.195c-.026.018-.044.035-.062.044z" class="B"/><path d="M161.277 90.124l-1.838-1.06c-.238-.14-.212-.38.07-.548l1.696-.98c.283-.16.707-.177.946-.035L164 88.56c.247.14.212.39-.07.548l-1.696.98c-.283.16-.707.177-.946.035z" class="C"/><path d="M161.692 90.513c-.203 0-.406-.044-.556-.133l-1.838-1.06c-.195-.115-.3-.292-.3-.486 0-.22.133-.424.38-.557l1.697-.98c.37-.212.9-.23 1.237-.035l1.838 1.06c.194.115.31.292.31.486 0 .22-.132.424-.38.557l-1.696.98a1.52 1.52 0 0 1-.681.168zm-2.094-1.697l1.83 1.06c.14.08.45.08.654-.035l1.697-.98c.026-.018.044-.026.06-.044l-1.83-1.06c-.14-.08-.45-.08-.654.035l-1.696.98c-.035.018-.053.026-.062.044z" class="B"/><path d="M165.22 87.844l-1.838-1.06c-.24-.14-.212-.39.07-.548l.345-.195c.283-.16.707-.177.945-.035l1.838 1.06c.248.14.212.39-.07.548l-.345.195c-.274.16-.698.177-.945.035z" class="C"/><path d="M165.634 88.232c-.204 0-.407-.044-.557-.133l-1.838-1.06c-.194-.115-.31-.292-.31-.486 0-.22.14-.424.38-.557l.344-.195c.37-.212.902-.23 1.237-.035l1.838 1.06c.195.115.3.292.3.486 0 .22-.142.424-.38.557l-.345.195a1.49 1.49 0 0 1-.68.168zm-2.095-1.697l1.83 1.06c.142.08.45.08.654-.044l.345-.194c.027-.018.044-.035.062-.044l-1.83-1.06c-.142-.08-.45-.08-.654.035l-.345.194c-.026.027-.053.044-.062.053z" class="B"/><path d="M165.262 92.43l-1.837-1.06c-.24-.14-.213-.39.07-.548l1.697-.98c.283-.16.707-.177.945-.035l1.838 1.06c.248.14.212.39-.07.548l-1.697.98c-.274.15-.698.168-.946.035z" class="C"/><path d="M165.68 92.812c-.204 0-.407-.044-.557-.133l-1.838-1.06c-.195-.115-.31-.292-.31-.486 0-.22.132-.424.38-.557l1.696-.98c.37-.212.9-.23 1.237-.035l1.838 1.06c.195.115.31.292.31.486 0 .22-.132.424-.38.557l-1.696.98c-.203.115-.442.168-.68.168zm-.266-.636c.142.08.45.08.654-.035l1.697-.98c.026-.018.044-.026.062-.044l-1.83-1.06c-.142-.08-.45-.08-.654.035l-1.697.98c-.026.018-.044.035-.062.044l1.83 1.06z" class="B"/><path d="M169.212 90.15l-1.838-1.06c-.24-.14-.212-.39.07-.548l.345-.195c.283-.16.707-.177.946-.044l1.838 1.06c.247.14.212.39-.07.548l-.345.194c-.283.168-.707.186-.945.044z" class="C"/><path d="M169.62 90.54c-.203 0-.407-.044-.557-.133l-1.838-1.06c-.194-.115-.31-.292-.31-.486 0-.22.14-.424.38-.557l.345-.195c.37-.212.9-.23 1.237-.035l1.838 1.06c.194.115.31.292.31.486 0 .22-.133.424-.38.557l-.345.194a1.46 1.46 0 0 1-.68.168zm-.265-.636c.14.08.45.08.654-.035l.344-.194c.027-.018.044-.035.062-.044l-1.83-1.06c-.14-.08-.45-.08-.654.035l-.344.194-.062.044 1.83 1.06z" class="B"/><path d="M169.256 94.73l-1.838-1.06c-.24-.14-.212-.38.07-.548l1.697-.98c.283-.16.707-.177.945-.035l1.838 1.06c.248.142.212.39-.07.548l-1.697.98c-.283.16-.707.177-.945.035z" class="C"/><path d="M169.663 95.12c-.203 0-.407-.044-.557-.133l-1.838-1.06c-.194-.115-.31-.292-.31-.486 0-.22.133-.424.38-.557l1.697-.98c.37-.212.9-.23 1.237-.044l1.838 1.06c.194.115.31.292.31.486 0 .22-.133.424-.38.557l-1.697.98a1.37 1.37 0 0 1-.68.177zm-.265-.636c.14.08.45.08.654-.035l1.696-.98c.027-.018.044-.035.062-.044l-1.83-1.06c-.14-.08-.45-.08-.654.035l-1.696.98c-.027.018-.045.026-.062.044l1.83 1.06z" class="B"/><path d="M173.2 92.458l-1.838-1.06c-.24-.14-.212-.39.07-.548l.344-.195c.283-.16.707-.177.946-.035l1.838 1.06c.247.14.212.38-.07.548l-.345.195c-.282.15-.698.168-.945.035z" class="C"/><path d="M173.614 92.838c-.203 0-.406-.044-.557-.133l-1.838-1.06c-.194-.115-.31-.292-.31-.486 0-.22.142-.424.38-.557l.345-.194c.37-.212.9-.23 1.237-.035l1.838 1.06c.194.115.31.292.31.486 0 .22-.133.424-.38.557l-.345.195c-.203.106-.45.168-.68.168zm-.274-.637c.142.08.45.08.654-.035l.345-.195c.026-.018.044-.026.06-.044l-1.83-1.06a.78.78 0 0 0-.653.035l-.345.195c-.027.018-.044.027-.062.044l1.83 1.06z" class="B"/><path d="M173.25 97.038l-1.83-1.06c-.247-.14-.212-.38.062-.548l1.697-.98c.282-.16.706-.177.945-.035l1.838 1.06c.247.14.212.39-.07.548l-1.696.98c-.283.16-.698.177-.946.035z" class="C"/><path d="M173.667 97.427c-.203 0-.407-.044-.557-.133l-1.838-1.06c-.194-.115-.31-.292-.31-.486 0-.22.14-.424.38-.557l1.696-.98c.372-.212.902-.23 1.238-.035l1.837 1.06c.195.115.3.292.3.486 0 .22-.133.424-.38.557l-1.697.98c-.203.106-.45.168-.68.168zm-.274-.636c.14.08.45.08.654-.035l1.696-.98c.027-.018.045-.026.062-.044l-1.83-1.06c-.14-.08-.45-.08-.654.035l-1.696.98-.062.044 1.83 1.06z" class="B"/><path d="M177.193 94.765l-1.838-1.06c-.238-.14-.212-.38.07-.548l.345-.195c.282-.16.706-.177.945-.035l1.838 1.06c.247.14.212.39-.07.548l-.344.195c-.274.16-.698.177-.946.035z" class="C"/><path d="M177.608 95.146c-.203 0-.406-.044-.556-.133l-1.838-1.06c-.195-.115-.3-.292-.3-.486 0-.22.142-.424.38-.557l.345-.194c.37-.212.9-.23 1.237-.044l1.838 1.06c.194.115.31.292.31.486 0 .22-.132.424-.38.557l-.344.195c-.204.124-.442.177-.68.177zm-.265-.637c.14.08.45.08.654-.035l.345-.195c.026-.018.044-.035.06-.044l-1.83-1.06c-.14-.08-.45-.08-.654.035l-.344.195c-.027.018-.044.035-.062.044l1.83 1.06z" class="B"/><path d="M177.235 99.345l-1.838-1.06c-.238-.142-.212-.39.07-.548l1.696-.98c.283-.16.707-.177.946-.035l1.838 1.06c.247.14.212.38-.07.548l-1.696.98c-.274.16-.698.177-.946.035z" class="C"/><path d="M177.65 99.734c-.203 0-.406-.044-.557-.133l-1.837-1.06c-.195-.115-.3-.292-.3-.486 0-.22.142-.424.38-.557l1.697-.98c.37-.212.9-.23 1.237-.035l1.838 1.06c.194.115.31.292.31.486 0 .22-.132.424-.38.557l-1.696.98c-.195.106-.442.168-.68.168zm-2.094-1.697l1.83 1.06c.14.08.45.08.654-.035l1.697-.98c.026-.018.044-.035.06-.044l-1.83-1.06c-.14-.08-.45-.08-.654.035l-1.696.98c-.027.018-.044.026-.062.044z" class="B"/><path d="M181.184 97.064l-1.838-1.06c-.238-.142-.212-.39.07-.548l.345-.194c.283-.16.707-.177.945-.035l1.838 1.06c.248.14.212.38-.07.548l-.345.195c-.283.16-.707.177-.946.035z" class="C"/><path d="M181.6 97.453c-.203 0-.406-.044-.556-.133l-1.83-1.06c-.195-.115-.3-.292-.3-.486 0-.22.142-.424.38-.557l.345-.194c.37-.212.9-.23 1.237-.044l1.838 1.06c.194.115.31.292.31.486 0 .22-.132.424-.38.557l-.344.194c-.213.115-.46.177-.7.177zm-.274-.636c.142.08.45.08.654-.035l.345-.195c.026-.018.044-.035.062-.044l-1.83-1.06c-.142-.08-.45-.08-.654.035l-.345.195c-.026.018-.044.035-.062.044l1.83 1.06z" class="B"/><path d="M181.23 101.652l-1.83-1.06c-.248-.14-.212-.39.07-.548l1.697-.98c.283-.16.707-.177.946-.035l1.837 1.06c.248.142.213.38-.07.55l-1.697.98c-.29.15-.716.168-.954.035z" class="C"/><path d="M181.645 102.033a1.13 1.13 0 0 1-.556-.133l-1.838-1.06c-.195-.115-.3-.292-.3-.486 0-.22.142-.424.38-.557l1.697-.98c.37-.212.9-.23 1.237-.035l1.838 1.06c.194.115.31.292.31.486 0 .22-.132.425-.38.557l-1.696.982c-.204.115-.45.168-.68.168zm-2.103-1.698l1.83 1.06a.78.78 0 0 0 .654-.035l1.697-.982c.026-.017.044-.035.062-.044l-1.83-1.06c-.142-.08-.45-.08-.654.035l-1.697.98c-.026.018-.044.035-.062.044z" class="B"/><path d="M185.172 99.372l-1.838-1.06c-.24-.14-.212-.39.07-.548l.345-.194c.283-.16.707-.177.946-.044l1.837 1.06c.248.14.213.39-.07.548l-.345.195c-.283.168-.698.186-.945.044z" class="C"/><path d="M185.587 99.76c-.204 0-.407-.044-.557-.133l-1.838-1.06c-.194-.115-.31-.292-.31-.486 0-.22.14-.424.38-.557l.344-.195c.372-.212.902-.23 1.237-.035l1.838 1.06c.195.115.3.292.3.486 0 .22-.133.424-.38.557l-.345.195a1.52 1.52 0 0 1-.68.168zm-2.094-1.698l1.83 1.06c.14.08.45.08.654-.035l.344-.195c.027-.018.044-.035.062-.044l-1.83-1.06c-.142-.08-.45-.08-.654.035l-.345.194c-.026.018-.053.026-.06.044z" class="B"/><path d="M185.216 103.95l-1.838-1.06c-.24-.14-.212-.38.07-.548l1.697-.98c.283-.16.707-.177.945-.035l1.838 1.06c.248.142.212.38-.07.55l-1.697.98c-.274.16-.698.177-.945.035z" class="C"/><path d="M185.632 104.34a1.12 1.12 0 0 1-.557-.133l-1.838-1.06c-.194-.115-.31-.292-.31-.487 0-.22.14-.424.38-.557l1.696-.98c.37-.212.902-.23 1.237-.035l1.838 1.06c.195.114.3.29.3.486 0 .22-.133.424-.38.566l-1.697.98c-.203.097-.442.16-.68.16zm-2.095-1.697l1.83 1.06c.14.08.45.08.653-.036l1.697-.98c.027-.018.044-.036.062-.044l-1.83-1.06a.78.78 0 0 0-.654.035l-1.697.98c-.026.018-.053.027-.062.045z" class="B"/><path d="M189.155 101.68l-1.838-1.06c-.238-.14-.212-.38.07-.548l.344-.195c.283-.16.707-.177.946-.035l1.838 1.06c.247.14.212.39-.07.548l-.344.195c-.274.15-.698.168-.946.035z" class="C"/><path d="M189.57 102.06c-.203 0-.406-.044-.557-.132l-1.83-1.06c-.194-.115-.31-.292-.31-.486 0-.22.14-.425.38-.557l.345-.194c.37-.212.9-.23 1.237-.035l1.838 1.06c.194.115.31.29.31.486 0 .22-.133.424-.38.557l-.345.194c-.203.106-.45.168-.69.168zm-2.094-1.697l1.83 1.06c.14.08.45.08.654-.036l.344-.194c.027-.018.045-.027.062-.044l-1.83-1.06c-.14-.08-.45-.08-.654.035l-.344.195c-.027.017-.044.035-.062.044z" class="B"/><path d="M189.2 106.26l-1.83-1.06c-.248-.14-.213-.38.07-.548l1.697-.98c.283-.16.707-.177.945-.035l1.838 1.06c.248.142.212.39-.07.55l-1.697.98c-.283.16-.707.177-.954.035z" class="C"/><path d="M189.616 106.64c-.203 0-.406-.044-.557-.133l-1.838-1.06c-.194-.115-.31-.292-.31-.487 0-.22.14-.424.38-.557l1.697-.98c.37-.212.9-.23 1.237-.035l1.838 1.06c.194.115.31.29.31.486 0 .22-.133.424-.38.557l-1.697.98c-.203.115-.44.168-.68.168zm-2.094-1.697l1.83 1.06c.14.08.45.08.654-.036l1.696-.98c.027-.018.045-.027.062-.044l-1.83-1.06c-.14-.08-.45-.08-.654.035l-1.696.98-.062.045z" class="B"/><path d="M193.153 103.978l-1.838-1.06c-.248-.14-.212-.38.062-.548l.344-.195c.283-.16.707-.176.946-.035l1.838 1.06c.247.14.212.39-.07.548l-.345.195c-.274.16-.698.176-.936.035z" class="C"/><path d="M193.567 104.367c-.203 0-.406-.044-.557-.133l-1.837-1.06c-.195-.115-.3-.29-.3-.486 0-.22.133-.424.38-.557l.345-.194c.37-.213.9-.23 1.237-.036l1.838 1.06c.194.115.31.292.31.486 0 .22-.132.425-.38.557l-.344.195c-.204.106-.45.168-.68.168zm-2.103-1.698l1.83 1.06a.78.78 0 0 0 .654-.035l.345-.195c.026-.017.044-.026.062-.044l-1.83-1.06c-.14-.08-.45-.08-.653.036l-.345.194c-.027.018-.044.027-.062.044z" class="B"/><path d="M193.195 108.557l-1.838-1.06c-.248-.14-.212-.39.07-.548l1.696-.98c.283-.16.707-.177.946-.036l1.83 1.06c.247.142.212.39-.07.55l-1.697.98c-.273.16-.698.177-.936.035z" class="C"/><path d="M193.6 108.946c-.203 0-.406-.044-.557-.132l-1.837-1.06c-.195-.115-.3-.292-.3-.487 0-.22.133-.424.37-.557l1.697-.98c.37-.212.9-.23 1.237-.035l1.838 1.06c.194.115.31.29.31.486 0 .22-.132.424-.38.557l-1.696.98c-.195.106-.442.168-.672.168zm-.274-.636c.142.08.45.08.654-.036l1.697-.98c.026-.018.044-.035.062-.044l-1.83-1.06c-.14-.08-.45-.08-.653.035l-1.697.98c-.027.018-.044.036-.062.045l1.83 1.06z" class="B"/><path d="M197.137 106.285l-1.838-1.06c-.24-.14-.212-.39.07-.548l.345-.195c.283-.16.707-.176.945-.035l1.83 1.06c.248.14.213.38-.07.548l-.345.195c-.265.16-.69.176-.936.035z" class="C"/><path d="M197.552 106.665a1.13 1.13 0 0 1-.557-.132l-1.838-1.06c-.194-.115-.31-.292-.31-.486 0-.22.14-.425.38-.557l.344-.195c.37-.212.902-.23 1.237-.035l1.838 1.06c.195.115.3.29.3.486 0 .22-.133.424-.38.557l-.345.194c-.203.115-.442.168-.68.168zm-2.095-1.697l1.83 1.06c.142.08.45.08.654-.036l.345-.194c.026-.018.044-.035.062-.044l-1.83-1.06a.78.78 0 0 0-.654.035l-.345.195-.062.044z" class="B"/><path d="M197.18 110.865l-1.83-1.06c-.247-.142-.212-.38.07-.548l1.696-.982c.283-.16.707-.176.946-.035l1.838 1.06c.247.14.212.39-.07.548l-1.697.98c-.282.16-.706.177-.954.036z" class="C"/><path d="M197.595 111.254a1.13 1.13 0 0 1-.557-.133l-1.838-1.06c-.194-.115-.31-.292-.31-.486 0-.22.132-.424.38-.557l1.696-.98c.37-.213.9-.23 1.237-.036l1.838 1.06c.195.115.31.292.31.486 0 .22-.132.425-.38.557l-1.696.982a1.49 1.49 0 0 1-.68.168zm-.266-.637a.78.78 0 0 0 .654-.035l1.697-.982c.026-.017.044-.035.062-.044l-1.83-1.06c-.142-.08-.45-.08-.654.045l-1.697.98c-.026.018-.044.026-.062.044l1.83 1.052z" class="B"/><path d="M201.13 108.584l-1.838-1.06c-.247-.14-.212-.38.07-.548l.345-.195c.283-.16.707-.176.945-.035l1.838 1.06c.248.14.212.39-.07.548l-.344.195c-.283.16-.707.176-.946.035z" class="C"/><path d="M201.536 108.973c-.203 0-.407-.044-.557-.133l-1.838-1.06c-.194-.115-.31-.29-.31-.486 0-.22.133-.424.38-.557l.345-.194c.37-.213.9-.23 1.237-.036l1.838 1.06c.194.115.31.292.31.486 0 .22-.133.425-.38.557l-.345.195a1.49 1.49 0 0 1-.68.168zm-.265-.637c.14.08.45.08.654-.035l.344-.195c.027-.017.044-.026.062-.044l-1.83-1.06c-.14-.08-.45-.08-.654.036l-.344.194c-.027.018-.045.027-.062.044l1.83 1.06z" class="B"/><path d="M201.175 113.173l-1.838-1.06c-.247-.142-.212-.38.07-.548l1.697-.982c.282-.16.706-.176.945-.035l1.83 1.06c.248.14.212.39-.07.548l-1.696.98c-.274.15-.698.168-.937.036z" class="C"/><path d="M201.58 113.553c-.203 0-.407-.045-.557-.133l-1.838-1.06c-.194-.115-.31-.292-.31-.486 0-.22.132-.425.38-.557l1.696-.98c.372-.213.902-.23 1.238-.036l1.837 1.06c.195.115.3.292.3.486 0 .22-.133.425-.38.557l-1.697.982c-.194.115-.442.168-.68.168zm-2.094-1.698l1.83 1.06c.14.08.45.08.654-.035l1.696-.982c.027-.017.044-.026.062-.044l-1.83-1.06c-.14-.08-.45-.08-.654.036l-1.697.98-.06.044z" class="B"/><path d="M205.114 110.89l-1.838-1.06c-.238-.142-.212-.38.07-.548l.344-.195c.283-.16.707-.176.946-.035l1.83 1.06c.247.14.212.39-.07.548l-.344.194c-.274.16-.698.177-.937.036z" class="C"/><path d="M205.53 111.27c-.203 0-.406-.044-.557-.132l-1.83-1.06c-.194-.115-.31-.292-.31-.487 0-.22.14-.424.38-.556l.345-.195c.37-.212.9-.23 1.237-.035l1.838 1.06c.194.114.31.29.31.486 0 .22-.133.424-.38.557l-.345.194c-.212.115-.46.168-.69.168zm-.274-.627c.142.08.45.08.654-.036l.345-.194c.026-.018.044-.036.06-.045l-1.83-1.06c-.14-.08-.45-.08-.654.035l-.344.194c-.027.018-.044.027-.062.045l1.83 1.06z" class="B"/><path d="M205.168 115.48l-1.838-1.06c-.24-.14-.212-.39.07-.548l1.696-.98c.283-.16.707-.177.946-.036l1.838 1.06c.247.142.212.39-.07.55l-1.697.98c-.282.16-.707.177-.945.035z" class="C"/><path d="M205.583 115.86c-.203 0-.407-.045-.557-.133l-1.838-1.06c-.194-.115-.31-.292-.31-.486 0-.22.14-.425.38-.557l1.696-.98c.372-.213.902-.23 1.238-.036l1.837 1.06c.195.115.3.292.3.486 0 .22-.133.425-.38.557l-1.697.982c-.203.115-.45.168-.68.168zm-.274-.637c.14.08.45.08.654-.035l1.696-.982c.027-.017.044-.035.062-.044l-1.83-1.06c-.14-.08-.45-.08-.654.036l-1.696.98-.062.044 1.83 1.06z" class="B"/><path d="M209.11 113.2l-1.838-1.06c-.238-.14-.212-.39.07-.548l.345-.195c.282-.16.706-.176.945-.035l1.838 1.06c.247.14.212.38-.07.548l-.344.195c-.274.16-.698.176-.946.035z" class="C"/><path d="M209.524 113.588c-.203 0-.406-.044-.556-.133l-1.838-1.06c-.195-.115-.3-.29-.3-.486 0-.22.133-.424.38-.557l.345-.194c.37-.213.9-.23 1.237-.036l1.838 1.06c.194.115.31.292.31.486 0 .22-.132.425-.38.557l-.344.195c-.204.106-.442.168-.68.168zm-.265-.637a.78.78 0 0 0 .654-.035l.345-.195c.026-.017.044-.026.06-.044l-1.83-1.06c-.14-.08-.45-.08-.654.036l-.344.194c-.027.018-.044.027-.062.044l1.83 1.06z" class="B"/><path d="M213.103 115.506l-1.83-1.06c-.248-.14-.212-.39.07-.548l.344-.195c.283-.16.707-.176.946-.035l1.838 1.06c.247.14.212.39-.07.548l-.345.194c-.29.16-.716.177-.954.036z" class="C"/><path d="M213.51 115.886a1.13 1.13 0 0 1-.557-.132l-1.838-1.06c-.195-.115-.31-.292-.31-.487 0-.22.132-.424.38-.556l.344-.195c.37-.212.902-.23 1.237-.035l1.838 1.06c.195.114.3.29.3.486 0 .22-.133.424-.38.557l-.345.194c-.194.115-.442.168-.68.168zm-.266-.636c.142.08.45.08.654-.036l.345-.194c.026-.018.044-.036.062-.044l-1.83-1.06a.78.78 0 0 0-.654.035l-.345.195c-.026.017-.044.026-.062.044l1.83 1.06z" class="B"/><path d="M149.402 87.782l-1.838-1.06c-.248-.14-.212-.38.07-.548l1.696-.98c.283-.16.698-.177.946-.035l1.838 1.06c.238.14.212.38-.07.548l-1.697.98c-.282.16-.707.177-.945.035z" class="C"/><path d="M149.808 88.17c-.203 0-.406-.044-.556-.133l-1.838-1.06c-.195-.115-.3-.292-.3-.486 0-.22.133-.424.38-.566l1.697-.98c.37-.212.9-.23 1.237-.035l1.838 1.06c.194.115.31.292.31.486 0 .22-.132.424-.38.557l-1.696.98a1.37 1.37 0 0 1-.681.177zm-.265-.637c.142.08.45.08.654-.035l1.697-.98c.026-.018.044-.026.062-.044l-1.83-1.06c-.142-.08-.45-.08-.654.035l-1.697.98c-.026.018-.044.035-.062.044l1.83 1.06z" class="B"/><path d="M153.387 90.09l-1.838-1.06c-.247-.14-.212-.39.07-.548l1.696-.98c.283-.16.707-.177.946-.035l1.838 1.06c.238.14.212.39-.07.548l-1.696.98c-.274.16-.698.177-.946.035z" class="C"/><path d="M153.803 90.47c-.204 0-.407-.044-.557-.133l-1.838-1.06c-.195-.115-.31-.292-.31-.486 0-.22.14-.424.38-.557l1.696-.98c.37-.212.9-.23 1.237-.035l1.838 1.06c.195.115.31.292.31.486 0 .22-.14.424-.38.557l-1.697.98a1.41 1.41 0 0 1-.68.168zm-2.095-1.69l1.83 1.06c.142.08.45.08.654-.035l1.697-.98c.026-.018.044-.026.062-.044l-1.83-1.06c-.142-.08-.45-.08-.654.035l-1.697.98c-.035.01-.053.026-.062.044z" class="B"/><path d="M157.38 92.397l-1.838-1.06c-.247-.142-.212-.38.07-.548l1.697-.98c.282-.16.698-.177.945-.035l1.838 1.06c.24.142.212.38-.07.548l-1.696.98c-.283.15-.707.168-.946.035z" class="C"/><path d="M157.787 92.777c-.203 0-.407-.044-.557-.133l-1.838-1.06c-.194-.115-.31-.292-.31-.486 0-.22.133-.424.38-.557l1.697-.98c.37-.212.9-.23 1.237-.035l1.838 1.06c.194.115.31.292.31.486 0 .22-.142.424-.38.557l-1.697.98a1.46 1.46 0 0 1-.68.168zm-2.094-1.697l1.83 1.06c.14.08.45.08.654-.035l1.696-.98c.027-.018.044-.035.062-.044l-1.83-1.06c-.14-.08-.45-.08-.654.035l-1.696.98-.062.044z" class="B"/><path d="M161.366 94.695l-1.838-1.06c-.248-.14-.212-.38.07-.548l1.697-.98c.283-.16.707-.177.945-.035l1.838 1.06c.24.14.213.39-.07.548l-1.697.98c-.283.16-.707.177-.945.035z" class="C"/><path d="M161.78 95.084c-.203 0-.406-.044-.557-.133l-1.838-1.06c-.194-.115-.31-.292-.31-.486 0-.22.142-.424.38-.557l1.697-.98c.37-.212.9-.23 1.237-.044l1.838 1.06c.194.115.31.292.31.486 0 .22-.14.424-.38.557l-1.697.98c-.203.115-.45.177-.68.177zm-.274-.636c.142.08.45.08.654-.035l1.697-.98c.026-.018.044-.035.06-.044l-1.83-1.06c-.14-.08-.45-.08-.654.035l-1.696.98c-.027.018-.044.035-.062.044l1.83 1.06z" class="B"/><path d="M165.35 97.002l-1.838-1.06c-.247-.142-.212-.38.07-.548l1.696-.98c.283-.16.698-.177.946-.035l1.838 1.06c.238.142.212.38-.07.548l-1.696.98c-.274.16-.7.177-.946.035z" class="C"/><path d="M165.767 97.383c-.203 0-.406-.044-.556-.133l-1.838-1.06c-.195-.115-.3-.292-.3-.486 0-.22.133-.424.38-.557l1.697-.98c.37-.212.9-.23 1.237-.035l1.838 1.06c.194.115.31.292.31.486 0 .22-.14.424-.38.557l-1.696.98c-.203.115-.442.168-.68.168zm-.265-.637c.142.08.45.08.654-.035l1.697-.98c.026-.018.044-.026.062-.044l-1.83-1.06c-.14-.08-.45-.08-.653.035l-1.697.98c-.026.018-.044.035-.062.044l1.83 1.06z" class="B"/><path d="M169.353 99.3l-1.838-1.06c-.238-.142-.212-.39.07-.548l1.697-.98c.282-.16.698-.177.945-.035l1.838 1.06c.24.14.212.39-.07.548l-1.696.98c-.283.16-.707.177-.946.035z" class="C"/><path d="M169.762 99.7a1.15 1.15 0 0 1-.557-.133l-1.838-1.06c-.195-.115-.31-.292-.31-.486 0-.22.132-.424.38-.557l1.696-.98c.37-.212.9-.23 1.237-.035l1.838 1.06c.195.115.31.292.31.486 0 .22-.132.424-.38.557l-1.696.98a1.46 1.46 0 0 1-.68.168zm-.266-.645c.142.08.45.08.654-.035l1.697-.98c.026-.018.044-.035.062-.044l-1.83-1.06c-.142-.08-.45-.08-.654.035l-1.697.98c-.026.018-.044.035-.062.044l1.83 1.06z" class="B"/><path d="M173.34 101.61l-1.838-1.06c-.247-.142-.212-.38.07-.548l1.697-.98c.282-.16.707-.177.945-.035l1.838 1.06c.24.14.212.38-.07.548l-1.696.98c-.283.16-.707.177-.946.036z" class="C"/><path d="M173.756 101.998a1.12 1.12 0 0 1-.557-.133l-1.838-1.06c-.194-.115-.31-.29-.31-.486 0-.22.14-.424.38-.557l1.696-.98c.37-.212.902-.23 1.237-.035l1.838 1.06c.195.115.3.292.3.486 0 .222-.142.425-.38.557l-1.697.982a1.52 1.52 0 0 1-.68.168zm-.274-.637c.14.08.45.08.654-.035l1.696-.98c.027-.018.044-.027.062-.045l-1.83-1.06c-.14-.08-.45-.08-.654.035l-1.697.98-.06.044 1.83 1.06z" class="B"/><path d="M177.324 103.916l-1.838-1.06c-.24-.14-.212-.38.07-.548l1.696-.98c.283-.16.698-.177.946-.036l1.838 1.06c.247.142.212.39-.07.548l-1.696.982c-.274.16-.7.176-.946.035z" class="C"/><path d="M177.74 104.305c-.203 0-.406-.044-.557-.133l-1.838-1.06c-.194-.115-.31-.29-.31-.486 0-.22.142-.424.38-.557l1.697-.98c.37-.212.9-.23 1.237-.036l1.838 1.06c.194.115.31.292.31.487 0 .22-.14.424-.38.556l-1.697.982c-.203.106-.44.168-.68.168zm-2.094-1.698l1.83 1.06c.14.08.45.08.654-.035l1.696-.98.062-.045-1.83-1.06c-.14-.08-.45-.08-.654.036l-1.696.98c-.027.018-.053.027-.062.044z" class="B"/><path d="M181.32 106.223l-1.838-1.06c-.248-.14-.212-.38.07-.548l1.696-.98c.283-.16.707-.177.946-.036l1.838 1.06c.238.14.212.39-.07.548l-1.697.98c-.282.16-.707.177-.945.036z" class="C"/><path d="M181.724 106.603c-.203 0-.406-.044-.556-.132l-1.838-1.06c-.195-.115-.31-.292-.31-.487 0-.22.14-.424.38-.556l1.697-.982c.37-.212.9-.23 1.237-.035l1.838 1.06c.194.115.31.29.31.486 0 .22-.14.424-.38.557l-1.696.98c-.195.115-.442.168-.68.168zm-2.094-1.697l1.83 1.06c.142.08.45.08.654-.036l1.697-.98c.026-.018.044-.035.062-.044l-1.83-1.06a.78.78 0 0 0-.654.035l-1.697.982c-.026.017-.044.035-.062.044z" class="B"/><path d="M185.304 108.522l-1.838-1.06c-.24-.142-.213-.39.07-.548l1.697-.982c.283-.16.707-.176.945-.035l1.838 1.06c.248.14.212.39-.07.548l-1.697.98c-.283.16-.698.177-.945.036z" class="C"/><path d="M185.72 108.91a1.12 1.12 0 0 1-.557-.133l-1.838-1.06c-.194-.115-.31-.292-.31-.486 0-.22.14-.424.38-.557l1.696-.98c.37-.212.9-.23 1.237-.036l1.838 1.06c.195.115.31.292.31.486 0 .22-.14.425-.38.557l-1.697.982a1.49 1.49 0 0 1-.68.168zm-2.095-1.698l1.83 1.06a.78.78 0 0 0 .654-.035l1.697-.982c.026-.017.044-.035.062-.044l-1.83-1.06c-.142-.08-.45-.08-.654.036l-1.697.98c-.026.018-.053.027-.062.044z" class="B"/><path d="M189.3 110.83l-1.838-1.06c-.24-.14-.212-.38.07-.548l1.696-.98c.283-.16.707-.177.946-.036l1.838 1.06c.238.142.212.39-.07.548l-1.697.982c-.274.16-.698.176-.945.035z" class="C"/><path d="M189.705 111.21c-.203 0-.407-.044-.557-.132l-1.838-1.06c-.194-.115-.31-.292-.31-.487 0-.22.14-.424.38-.557l1.696-.98c.372-.212.902-.23 1.238-.035l1.838 1.06c.194.115.31.29.31.486 0 .22-.142.424-.38.557l-1.697.98c-.203.115-.442.168-.68.168zm-2.094-1.697l1.83 1.06c.14.08.45.08.654-.036l1.696-.98c.027-.018.044-.035.062-.044l-1.83-1.06c-.14-.08-.45-.08-.654.035l-1.696.982c-.027.017-.045.035-.062.044z" class="B"/><path d="M193.284 113.128l-1.838-1.06c-.24-.14-.212-.39.07-.548l1.696-.98c.283-.16.698-.177.946-.036l1.838 1.06c.247.142.212.39-.07.548l-1.697.982c-.282.16-.706.176-.945.035z" class="C"/><path d="M193.7 113.517c-.203 0-.406-.045-.557-.133l-1.838-1.06c-.194-.115-.31-.292-.31-.486 0-.22.14-.424.38-.557l1.697-.98c.37-.213.9-.23 1.237-.036l1.838 1.06c.194.115.31.292.31.486 0 .22-.14.425-.38.557l-1.697.982c-.203.106-.45.168-.68.168zm-.274-.637c.14.08.45.08.654-.035l1.697-.982c.026-.017.044-.026.06-.044l-1.83-1.06c-.14-.08-.45-.08-.654.036l-1.696.98c-.027.018-.044.035-.062.044l1.83 1.06z" class="B"/><path d="M197.268 115.435l-1.838-1.06c-.238-.14-.212-.39.07-.548l1.697-.98c.282-.16.707-.177.945-.035l1.838 1.06c.248.142.212.39-.07.55l-1.696.98c-.274.16-.698.177-.946.035z" class="C"/><path d="M197.683 115.824c-.203 0-.406-.044-.556-.132l-1.838-1.06c-.195-.115-.3-.292-.3-.487 0-.22.142-.424.38-.557l1.697-.98c.37-.212.9-.23 1.237-.035l1.838 1.06c.194.115.31.29.31.486 0 .22-.14.424-.38.557l-1.696.98a1.49 1.49 0 0 1-.681.168zm-.265-.636c.142.08.45.08.654-.036l1.697-.98c.026-.018.044-.027.062-.044l-1.83-1.06c-.14-.08-.45-.08-.653.035l-1.697.982c-.026.017-.044.026-.062.044l1.83 1.06z" class="B"/><path d="M201.27 117.742l-1.838-1.06c-.238-.14-.212-.38.07-.548l1.697-.98c.282-.16.698-.177.945-.035l1.838 1.06c.24.14.212.38-.07.548l-1.696.98c-.283.16-.707.177-.946.035z" class="C"/><path d="M201.678 118.13a1.13 1.13 0 0 1-.557-.132l-1.838-1.06c-.194-.115-.31-.292-.31-.486 0-.22.132-.425.38-.566l1.696-.98c.37-.213.9-.23 1.237-.036l1.838 1.06c.195.115.31.292.31.486 0 .22-.14.425-.38.557l-1.696.982c-.194.115-.442.176-.68.176zm-.266-.636a.78.78 0 0 0 .654-.035l1.697-.982c.026-.017.044-.035.062-.044l-1.83-1.06c-.142-.08-.45-.08-.654.036l-1.697.98c-.026.018-.044.035-.062.044l1.83 1.06z" class="B"/><path d="M205.257 120.05l-1.838-1.06c-.24-.14-.212-.39.07-.548l1.697-.98c.283-.16.698-.177.945-.035l1.838 1.06c.248.142.212.39-.07.55l-1.697.98c-.283.16-.707.177-.945.035z" class="C"/><path d="M205.672 120.43a1.13 1.13 0 0 1-.557-.133l-1.838-1.06c-.194-.115-.31-.292-.31-.486 0-.22.14-.424.38-.557l1.696-.98c.37-.213.902-.23 1.237-.036l1.838 1.06c.195.115.3.292.3.486 0 .22-.142.425-.38.557l-1.697.982a1.41 1.41 0 0 1-.68.168zm-.274-.637c.14.08.45.08.654-.035l1.696-.982c.027-.017.044-.026.062-.044l-1.83-1.06c-.14-.08-.45-.08-.654.036l-1.697.98-.06.044 1.83 1.06z" class="B"/><path d="M209.243 122.35l-1.838-1.06c-.24-.14-.212-.39.07-.548l1.696-.98c.283-.16.707-.177.946-.036l1.838 1.06c.247.142.212.38-.07.548l-1.697.982c-.273.16-.698.176-.945.035z" class="C"/><path d="M209.658 122.738c-.203 0-.406-.044-.557-.132l-1.838-1.06c-.194-.115-.31-.292-.31-.487 0-.22.14-.424.38-.557l1.697-.98c.37-.212.9-.23 1.237-.044l1.838 1.06c.194.115.31.292.31.486 0 .22-.14.424-.38.557l-1.697.98a1.39 1.39 0 0 1-.68.177zm-2.094-1.697l1.83 1.06c.14.08.45.08.654-.036l1.696-.98.062-.044-1.83-1.06c-.14-.08-.45-.08-.654.035l-1.696.982c-.027.017-.053.035-.062.044z" class="B"/><path d="M145.47 90.053l-1.838-1.06c-.247-.14-.212-.39.07-.548l1.697-.98c.282-.16.706-.177.945-.035l1.838 1.06c.24.142.212.39-.07.548l-1.696.98c-.274.16-.698.177-.946.035z" class="C"/><path d="M145.885 90.433c-.204 0-.407-.044-.557-.133l-1.838-1.06c-.194-.115-.31-.292-.31-.486 0-.22.132-.424.38-.557l1.696-.98c.37-.212.902-.23 1.237-.035l1.83 1.06c.195.115.3.292.3.486 0 .22-.133.424-.38.557l-1.697.98c-.194.115-.433.168-.67.168zm-.266-.637c.142.08.45.08.654-.035l1.697-.98c.026-.018.044-.035.062-.044l-1.83-1.06c-.142-.08-.45-.08-.654.035l-1.697.98c-.026.018-.044.026-.062.044l1.83 1.06z" class="B"/><path d="M149.464 92.36l-1.838-1.06c-.24-.14-.212-.39.07-.548l1.697-.98c.283-.16.707-.177.945-.035l1.838 1.06c.24.14.212.38-.07.548l-1.697.98c-.283.15-.707.168-.945.035z" class="C"/><path d="M149.88 92.74c-.204 0-.407-.044-.557-.133l-1.838-1.06c-.194-.115-.31-.292-.31-.486 0-.22.132-.424.38-.557l1.696-.98c.37-.212.902-.23 1.237-.044l1.838 1.06c.195.115.3.292.3.486 0 .22-.133.424-.38.557l-1.697.98a1.42 1.42 0 0 1-.68.177zm-2.103-1.697l1.83 1.06c.14.08.45.08.654-.035l1.696-.98c.027-.018.044-.026.062-.044l-1.83-1.06c-.14-.08-.45-.08-.654.035l-1.696.98-.062.044z" class="B"/><path d="M153.45 94.66l-1.838-1.06c-.248-.14-.212-.38.07-.548l1.697-.98c.283-.16.707-.177.945-.035l1.838 1.06c.24.14.212.39-.07.548l-1.697.98c-.274.16-.698.177-.945.035z" class="C"/><path d="M153.865 95.048c-.203 0-.406-.044-.557-.133l-1.838-1.06c-.194-.115-.31-.292-.31-.486 0-.22.142-.424.38-.557l1.697-.98c.37-.212.9-.23 1.237-.035l1.83 1.06c.194.115.31.292.31.486 0 .22-.132.424-.38.557l-1.696.98c-.195.106-.442.168-.672.168zm-2.094-1.697l1.83 1.06c.14.08.45.08.654-.035l1.696-.98c.027-.018.045-.026.062-.044l-1.83-1.06c-.14-.08-.45-.08-.654.035l-1.696.98c-.036.018-.053.026-.062.044z" class="B"/><path d="M157.443 96.967l-1.838-1.06c-.248-.14-.212-.39.07-.548l1.696-.98c.283-.16.707-.177.946-.035l1.838 1.06c.238.142.212.39-.07.548l-1.697.98c-.282.15-.707.177-.945.035z" class="C"/><path d="M157.85 97.347c-.203 0-.406-.044-.556-.133l-1.838-1.06c-.195-.115-.31-.292-.31-.486 0-.22.132-.424.38-.557l1.697-.98c.37-.212.9-.23 1.237-.035l1.838 1.06c.194.115.31.292.31.486 0 .22-.132.424-.38.557l-1.696.98c-.203.115-.442.168-.68.168zm-2.094-1.697l1.83 1.06c.142.08.45.08.654-.035l1.697-.98c.026-.018.044-.035.062-.044l-1.83-1.06c-.142-.08-.45-.08-.654.035l-1.697.98c-.026.018-.044.035-.062.044z" class="B"/><path d="M161.428 99.266l-1.838-1.06c-.247-.142-.212-.39.07-.548l1.697-.98c.282-.16.698-.177.945-.035l1.838 1.06c.24.14.212.38-.07.548l-1.696.98c-.283.16-.707.177-.946.035z" class="C"/><path d="M161.844 99.655c-.204 0-.407-.044-.557-.133l-1.838-1.06c-.194-.115-.31-.292-.31-.486 0-.22.132-.424.38-.557l1.696-.98c.37-.212.9-.23 1.237-.035l1.83 1.06c.195.115.3.292.3.486 0 .22-.142.424-.38.557l-1.697.98c-.194.106-.442.168-.67.168zm-.274-.637a.78.78 0 0 0 .653-.035l1.697-.98c.027-.018.044-.035.062-.044l-1.83-1.06c-.142-.08-.45-.08-.654.035l-1.697.98c-.026.018-.044.027-.06.044l1.83 1.06z" class="B"/><path d="M165.422 101.573l-1.838-1.06c-.247-.14-.212-.38.07-.548l1.697-.98c.282-.16.707-.177.945-.035l1.838 1.06c.24.142.212.39-.07.548l-1.696.982c-.274.16-.698.176-.946.035z" class="C"/><path d="M165.838 101.962a1.12 1.12 0 0 1-.557-.133l-1.838-1.06c-.194-.115-.31-.29-.31-.486 0-.22.132-.424.38-.557l1.696-.98c.37-.212.902-.23 1.237-.035l1.838 1.06c.195.115.3.292.3.487 0 .22-.133.424-.38.557l-1.697.98a1.49 1.49 0 0 1-.68.168zm-2.095-1.698l1.83 1.06c.14.08.45.08.653-.035l1.697-.98c.027-.018.044-.027.062-.045l-1.83-1.06c-.142-.08-.45-.08-.654.035l-1.697.98-.062.044z" class="B"/><path d="M169.417 103.88l-1.837-1.06c-.248-.142-.213-.39.07-.548l1.697-.982c.283-.16.707-.177.945-.035l1.838 1.06c.24.14.212.39-.07.548l-1.696.98c-.283.16-.707.177-.946.036z" class="C"/><path d="M169.824 104.27c-.203 0-.406-.044-.557-.132l-1.838-1.06c-.194-.115-.31-.292-.31-.486 0-.22.133-.425.38-.557l1.697-.982c.37-.212.9-.23 1.237-.035l1.838 1.06c.194.115.31.292.31.486 0 .22-.133.424-.37.557l-1.697.98c-.203.106-.45.168-.69.168zm-.265-.636c.14.08.45.08.654-.036l1.696-.98.062-.044-1.83-1.06c-.14-.08-.45-.08-.654.035l-1.696.982c-.027.017-.045.035-.062.044l1.83 1.06z" class="B"/><path d="M173.403 106.188l-1.838-1.06c-.248-.142-.212-.39.07-.55l1.696-.98c.283-.16.707-.177.946-.035l1.838 1.06c.238.14.212.39-.07.548l-1.697.98c-.282.15-.707.168-.945.035z" class="C"/><path d="M173.818 106.568c-.203 0-.406-.044-.557-.132l-1.837-1.06c-.195-.115-.3-.292-.3-.486 0-.22.142-.425.38-.557l1.697-.982c.37-.212.9-.23 1.237-.035l1.838 1.06c.194.115.31.292.31.486 0 .22-.14.424-.38.557l-1.696.98c-.204.115-.45.168-.68.168zm-.274-.636c.142.08.45.08.654-.036l1.697-.98c.026-.018.044-.035.062-.044l-1.83-1.06c-.14-.08-.45-.08-.653.035l-1.697.982c-.027.017-.044.026-.062.044l1.83 1.06z" class="B"/><path d="M177.387 108.486l-1.838-1.06c-.247-.14-.212-.38.07-.548l1.696-.98c.283-.16.707-.177.946-.035l1.838 1.06c.24.14.212.38-.07.548l-1.696.98c-.274.16-.698.177-.946.035z" class="C"/><path d="M177.803 108.875a1.13 1.13 0 0 1-.557-.132l-1.838-1.06c-.194-.115-.31-.292-.31-.486 0-.22.14-.425.38-.557l1.696-.982c.37-.212.9-.23 1.237-.035l1.838 1.06c.195.115.31.292.31.486 0 .22-.14.424-.38.557l-1.697.98a1.49 1.49 0 0 1-.68.168zm-2.095-1.697l1.83 1.06a.76.76 0 0 0 .654-.044l1.697-.982c.026-.017.044-.026.062-.044l-1.83-1.06c-.142-.08-.45-.08-.654.036l-1.697.98c-.026.026-.044.035-.062.053z" class="B"/><path d="M181.38 110.795l-1.838-1.06c-.247-.142-.212-.39.07-.55l1.697-.98c.282-.16.698-.177.945-.035l1.838 1.06c.24.14.212.39-.07.548l-1.696.98c-.283.16-.707.177-.946.036z" class="C"/><path d="M181.787 111.174c-.203 0-.407-.044-.557-.132l-1.838-1.06c-.194-.115-.31-.292-.31-.486 0-.22.14-.425.38-.557l1.697-.982c.37-.212.9-.23 1.237-.035l1.838 1.06c.194.115.31.292.31.486 0 .22-.133.424-.38.557l-1.697.98c-.194.115-.442.168-.68.168zm-2.094-1.697l1.83 1.06c.14.08.45.08.654-.036l1.696-.98c.027-.018.044-.026.062-.044l-1.83-1.06c-.14-.08-.45-.08-.654.035l-1.696.982c-.027.017-.045.035-.062.044z" class="B"/><path d="M185.366 113.093l-1.838-1.06c-.248-.14-.212-.39.07-.548l1.697-.98c.283-.16.707-.177.945-.036l1.838 1.06c.24.142.213.39-.07.548l-1.697.982c-.274.16-.707.176-.945.035z" class="C"/><path d="M185.78 113.482c-.203 0-.398-.044-.557-.133l-1.838-1.06c-.194-.115-.31-.29-.31-.486 0-.22.142-.424.38-.557l1.697-.98c.37-.212.9-.23 1.237-.044l1.838 1.06c.194.115.31.292.31.487 0 .22-.14.424-.38.557l-1.697.98a1.39 1.39 0 0 1-.68.177zm-2.094-1.698l1.83 1.06c.14.08.45.08.654-.035l1.696-.98.062-.045-1.83-1.06c-.14-.08-.45-.08-.654.036l-1.696.98-.062.044z" class="B"/><path d="M189.352 115.4l-1.838-1.06c-.247-.14-.212-.38.07-.548l1.696-.98c.283-.16.698-.177.946-.035l1.838 1.06c.247.14.212.38-.07.548l-1.697.98c-.273.16-.698.177-.945.035z" class="C"/><path d="M189.767 115.79c-.203 0-.406-.044-.556-.132l-1.838-1.06c-.195-.115-.3-.292-.3-.486 0-.222.142-.425.38-.557l1.697-.982c.37-.212.9-.23 1.237-.035l1.838 1.06c.194.115.31.29.31.486 0 .22-.14.424-.38.557l-1.696.98a1.49 1.49 0 0 1-.681.168zm-2.094-1.697l1.83 1.06c.142.08.45.08.654-.036l1.697-.98c.026-.018.044-.035.062-.044l-1.83-1.06c-.14-.08-.45-.08-.653.035l-1.697.982c-.026.017-.044.026-.062.044z" class="B"/><path d="M193.346 117.708l-1.838-1.06c-.247-.14-.212-.38.07-.548l1.696-.98c.283-.16.707-.177.946-.036l1.838 1.06c.238.142.212.39-.07.548l-1.696.982c-.283.15-.707.176-.946.035z" class="C"/><path d="M193.762 118.088a1.12 1.12 0 0 1-.557-.133l-1.838-1.06c-.195-.115-.31-.292-.31-.486 0-.22.14-.424.38-.557l1.696-.98c.37-.212.9-.23 1.237-.036l1.838 1.06c.195.115.31.292.31.486 0 .22-.14.425-.38.557l-1.696.982a1.41 1.41 0 0 1-.68.168zm-.274-.637c.14.08.45.08.653-.035l1.697-.982c.027-.017.044-.026.062-.044l-1.83-1.06c-.142-.08-.45-.08-.654.036l-1.697.98c-.026.018-.044.035-.062.044l1.83 1.06z" class="B"/><path d="M197.338 120.015l-1.838-1.06c-.247-.14-.212-.39.07-.548l1.697-.98c.282-.16.707-.177.945-.035l1.838 1.06c.24.14.212.38-.07.548l-1.696.98c-.274.16-.698.177-.946.035z" class="C"/><path d="M197.754 120.395a1.13 1.13 0 0 1-.557-.132l-1.838-1.06c-.194-.115-.31-.292-.31-.487 0-.22.132-.424.38-.556l1.696-.982c.37-.212.902-.23 1.237-.035l1.838 1.06c.195.115.3.29.3.486 0 .22-.142.424-.38.557l-1.697.98a1.41 1.41 0 0 1-.68.168zm-2.094-1.697l1.83 1.06c.14.08.45.08.654-.036l1.696-.98c.027-.018.044-.027.062-.044l-1.83-1.06a.78.78 0 0 0-.654.035l-1.697.982a.19.19 0 0 0-.061.044z" class="B"/><path d="M201.332 122.314l-1.838-1.06c-.24-.142-.212-.38.07-.548l1.696-.982c.283-.16.698-.176.946-.035l1.838 1.06c.238.14.212.38-.07.548l-1.697.98c-.282.16-.707.177-.945.036z" class="C"/><path d="M201.74 122.703c-.203 0-.406-.044-.557-.133l-1.838-1.06c-.194-.115-.31-.292-.31-.486 0-.22.133-.424.38-.557l1.697-.98c.37-.213.9-.23 1.237-.036l1.838 1.06c.194.115.31.292.31.486 0 .22-.14.425-.38.557l-1.697.982a1.46 1.46 0 0 1-.68.168zm-.265-.637c.14.08.45.08.654-.044l1.696-.98.062-.045-1.83-1.06c-.14-.08-.45-.08-.654.035l-1.696.98c-.027.018-.044.027-.062.044l1.83 1.07z" class="B"/><path d="M205.32 124.622l-1.838-1.06c-.248-.142-.212-.39.07-.548l1.696-.982c.283-.16.707-.177.946-.035l1.838 1.06c.238.14.212.39-.07.548l-1.697.98c-.282.16-.707.177-.945.036z" class="C"/><path d="M205.734 125c-.203 0-.406-.044-.557-.132l-1.837-1.06c-.195-.115-.3-.292-.3-.487 0-.22.142-.424.38-.565l1.697-.982c.37-.212.9-.23 1.237-.035l1.838 1.06c.194.115.31.292.31.486 0 .22-.14.424-.38.557l-1.696.98c-.204.115-.45.177-.68.177zm-.274-.636c.142.08.45.08.654-.036l1.697-.98c.026-.018.044-.027.062-.044l-1.83-1.06c-.14-.08-.45-.08-.653.035l-1.697.98c-.027.018-.044.036-.062.045l1.83 1.06z" class="B"/><path d="M201.395 126.884l-1.838-1.06c-.247-.142-.212-.38.07-.55l1.696-.98c.283-.16.707-.177.946-.035l1.838 1.06c.238.14.212.39-.07.548l-1.697.98c-.282.16-.706.177-.945.035z" class="C"/><path d="M201.802 127.273a1.13 1.13 0 0 1-.557-.132l-1.838-1.06c-.194-.115-.31-.292-.31-.486 0-.22.132-.425.38-.557l1.696-.982c.37-.212.9-.23 1.237-.035l1.838 1.06c.195.115.31.292.31.486 0 .22-.14.424-.38.557l-1.697.98a1.45 1.45 0 0 1-.68.168zm-.266-.636c.142.08.45.08.654-.036l1.697-.98c.026-.018.044-.035.062-.044l-1.83-1.06a.76.76 0 0 0-.654.044l-1.697.982c-.026.017-.044.026-.062.044l1.83 1.052z" class="B"/><path d="M197.465 129.157l-1.838-1.06c-.24-.142-.212-.39.07-.548l1.697-.982c.283-.16.707-.177.945-.035l1.838 1.06c.248.14.212.39-.07.548l-1.697.98c-.283.16-.698.177-.945.036z" class="C"/><path d="M197.88 129.545a1.13 1.13 0 0 1-.557-.132l-1.83-1.06c-.195-.115-.31-.292-.31-.486 0-.22.132-.425.38-.557l1.696-.982c.37-.212.9-.23 1.237-.035l1.838 1.06c.195.115.31.292.31.486 0 .22-.132.424-.38.557l-1.696.98c-.212.106-.46.168-.69.168zm-2.095-1.697l1.83 1.06c.14.08.45.08.653-.036l1.697-.98c.027-.018.044-.035.062-.044l-1.83-1.06a.78.78 0 0 0-.654.035l-1.697.982c-.026.017-.053.026-.062.044z" class="B"/><path d="M149.51 96.94l-1.838-1.06c-.247-.14-.212-.39.07-.548l1.697-.98c.282-.16.698-.177.945-.035l1.838 1.06c.24.14.212.39-.07.548l-1.696.98c-.283.16-.707.177-.946.035z" class="C"/><path d="M149.915 97.33c-.203 0-.407-.044-.557-.133l-1.838-1.06c-.194-.115-.31-.292-.31-.486 0-.22.14-.424.38-.557l1.696-.98c.372-.212.902-.23 1.238-.035l1.837 1.06c.195.115.3.292.3.486 0 .22-.142.424-.38.557l-1.697.98c-.194.106-.442.168-.68.168zm-.265-.637c.14.08.45.08.654-.035l1.696-.98c.027-.018.044-.026.062-.044l-1.83-1.06c-.14-.08-.45-.08-.654.035l-1.696.98-.062.044 1.83 1.06z" class="B"/><path d="M153.493 99.248l-1.838-1.06c-.248-.14-.212-.39.07-.548l1.697-.98c.283-.16.698-.177.945-.035l1.838 1.06c.24.14.212.39-.07.548l-1.697.98c-.283.15-.707.168-.945.035z" class="C"/><path d="M153.908 99.628c-.203 0-.406-.044-.557-.133l-1.838-1.06c-.194-.115-.31-.292-.31-.486 0-.22.14-.424.38-.557l1.697-.98c.37-.212.9-.23 1.237-.035l1.838 1.06c.194.115.31.292.31.486 0 .22-.14.424-.38.557l-1.697.98c-.203.106-.45.168-.68.168zm-2.103-1.698l1.83 1.06c.14.08.45.08.654-.035l1.697-.98c.026-.018.044-.035.06-.044l-1.83-1.06c-.14-.08-.45-.08-.654.035l-1.696.98c-.027.018-.044.035-.062.044z" class="B"/><path d="M157.48 101.546l-1.838-1.06c-.247-.14-.212-.38.07-.548l1.696-.98c.283-.16.707-.177.946-.035l1.838 1.06c.238.142.212.38-.07.548l-1.697.982c-.273.16-.698.177-.945.035z" class="C"/><path d="M157.894 101.935c-.203 0-.406-.044-.556-.132l-1.838-1.06c-.195-.115-.3-.292-.3-.486 0-.22.142-.425.38-.557l1.697-.98c.37-.212.9-.23 1.237-.035l1.838 1.06c.194.115.31.292.31.486 0 .22-.14.424-.38.557l-1.696.98a1.48 1.48 0 0 1-.681.168zm-2.094-1.697l1.83 1.06c.142.08.45.08.654-.036l1.697-.98c.026-.018.044-.035.062-.044l-1.83-1.06a.78.78 0 0 0-.653.035l-1.697.982c-.027.017-.053.026-.062.044z" class="B"/><path d="M161.483 103.854l-1.838-1.06c-.247-.14-.212-.39.07-.548l1.696-.98c.283-.16.698-.177.946-.044l1.838 1.06c.238.142.212.39-.07.55l-1.697.98c-.282.168-.707.186-.945.044z" class="C"/><path d="M161.888 104.243c-.203 0-.406-.044-.556-.132l-1.838-1.06c-.195-.115-.31-.292-.31-.486 0-.22.14-.425.38-.557l1.696-.982c.37-.212.9-.23 1.237-.035l1.838 1.06c.195.115.31.292.31.486 0 .22-.14.424-.38.557l-1.696.98c-.195.106-.442.168-.68.168zm-2.094-1.697l1.83 1.06c.142.08.45.08.654-.036l1.697-.98c.026-.018.044-.026.062-.044l-1.83-1.06a.78.78 0 0 0-.654.035l-1.697.982c-.026.017-.044.035-.062.044z" class="B"/><path d="M165.467 106.162l-1.838-1.06c-.24-.142-.212-.39.07-.548l1.697-.982c.283-.16.698-.176.945-.035l1.838 1.06c.248.14.212.39-.07.548l-1.697.98c-.283.16-.707.177-.945.036z" class="C"/><path d="M165.883 106.55a1.13 1.13 0 0 1-.557-.132l-1.838-1.06c-.194-.115-.31-.292-.31-.486 0-.22.14-.425.38-.557l1.696-.982c.37-.212.902-.23 1.237-.035l1.838 1.06c.195.115.3.292.3.486 0 .22-.142.424-.38.557l-1.697.98a1.52 1.52 0 0 1-.68.168zm-2.095-1.697l1.83 1.06c.14.08.45.08.653-.036l1.697-.98c.026-.018.044-.035.062-.044l-1.83-1.06a.78.78 0 0 0-.654.035l-1.697.982c-.035.01-.053.026-.062.044z" class="B"/><path d="M169.452 108.46l-1.838-1.06c-.24-.142-.212-.38.07-.548l1.696-.982c.283-.16.707-.177.946-.035l1.838 1.06c.238.14.212.38-.07.548l-1.697.98c-.273.16-.698.177-.945.036z" class="C"/><path d="M169.867 108.85c-.203 0-.406-.044-.557-.132l-1.838-1.06c-.194-.115-.31-.292-.31-.486 0-.22.14-.425.38-.557l1.697-.982c.37-.212.9-.23 1.237-.035l1.838 1.06c.194.115.31.292.31.486 0 .22-.133.424-.38.557l-1.697.98c-.203.106-.44.168-.68.168zm-2.094-1.697l1.83 1.06c.14.08.45.08.654-.036l1.696-.98.062-.044-1.83-1.06c-.14-.08-.45-.08-.654.035l-1.696.982c-.027.017-.053.035-.062.044z" class="B"/><path d="M173.445 110.767l-1.838-1.06c-.238-.142-.212-.39.07-.55l1.696-.98c.283-.16.698-.177.946-.035l1.838 1.06c.247.14.212.39-.07.548l-1.696.98c-.283.16-.707.177-.946.035z" class="C"/><path d="M173.85 111.156c-.203 0-.406-.044-.556-.132l-1.838-1.06c-.195-.115-.3-.292-.3-.486 0-.22.142-.425.38-.557l1.697-.982c.37-.212.9-.23 1.237-.035l1.838 1.06c.194.115.31.292.31.486 0 .22-.132.424-.38.557l-1.696.98c-.195.106-.442.168-.68.168zm-2.094-1.697l1.83 1.06a.76.76 0 0 0 .654-.044l1.697-.982c.026-.017.044-.026.062-.044l-1.83-1.06c-.14-.08-.45-.08-.653.036l-1.697.98c-.027.026-.044.035-.062.053z" class="B"/><path d="M177.43 113.075l-1.837-1.06c-.24-.142-.213-.39.07-.548l1.697-.982c.283-.16.707-.177.945-.035l1.838 1.06c.24.14.212.39-.07.548l-1.697.98c-.283.16-.698.168-.946.036z" class="C"/><path d="M177.845 113.455c-.203 0-.406-.044-.556-.133l-1.838-1.06c-.195-.115-.31-.29-.31-.486 0-.22.14-.424.38-.557l1.696-.98c.37-.212.9-.23 1.237-.035l1.838 1.06c.195.115.31.292.31.487 0 .22-.14.424-.38.557l-1.696.98c-.203.115-.442.168-.68.168zm-.273-.637c.14.08.45.08.653-.035l1.697-.98c.027-.018.044-.036.062-.045l-1.83-1.06a.78.78 0 0 0-.654.035l-1.697.98c-.026.018-.044.027-.062.044l1.83 1.06z" class="B"/><path d="M181.417 115.374l-1.838-1.06c-.24-.142-.212-.39.07-.548l1.696-.982c.283-.16.698-.177.946-.035l1.838 1.06c.247.14.212.39-.07.548l-1.697.98c-.274.16-.698.177-.945.036z" class="C"/><path d="M181.832 115.762c-.203 0-.407-.044-.557-.132l-1.838-1.06c-.194-.115-.31-.292-.31-.486 0-.22.14-.425.38-.557l1.696-.982c.372-.212.902-.23 1.238-.035l1.837 1.06c.195.115.3.292.3.486 0 .22-.142.425-.38.557l-1.697.98a1.48 1.48 0 0 1-.68.168zm-.265-.636c.14.08.45.08.654-.035l1.696-.982c.027-.017.044-.035.062-.044l-1.83-1.06c-.14-.08-.45-.08-.654.035l-1.697.982c-.026.017-.044.026-.06.044l1.83 1.06z" class="B"/><path d="M185.408 117.68l-1.838-1.06c-.24-.142-.212-.38.07-.55l1.696-.98c.283-.16.707-.177.946-.035l1.838 1.06c.247.14.212.38-.07.548l-1.697.98c-.282.16-.706.177-.945.035z" class="C"/><path d="M185.824 118.06c-.203 0-.406-.044-.557-.133l-1.838-1.06c-.194-.115-.31-.29-.31-.486 0-.22.14-.424.38-.557l1.697-.98c.37-.212.9-.23 1.237-.036l1.838 1.06c.194.115.31.292.31.487 0 .22-.14.424-.38.557l-1.697.98c-.203.115-.45.168-.68.168zm-2.103-1.698l1.83 1.06c.14.08.45.08.654-.035l1.697-.98c.026-.018.044-.027.06-.045l-1.83-1.06c-.14-.08-.45-.08-.654.035l-1.696.98c-.027.018-.044.036-.062.044z" class="B"/><path d="M189.395 119.98l-1.838-1.06c-.238-.142-.212-.38.07-.55l1.697-.98c.282-.16.707-.177.945-.035l1.838 1.06c.247.14.212.39-.07.548l-1.696.98c-.274.16-.698.177-.946.035z" class="C"/><path d="M189.8 120.37a1.13 1.13 0 0 1-.556-.133l-1.838-1.06c-.195-.115-.3-.292-.3-.486 0-.22.142-.424.38-.557l1.697-.98c.37-.22.9-.23 1.237-.036l1.838 1.06c.194.115.31.292.31.486 0 .22-.14.425-.38.557l-1.696.982a1.49 1.49 0 0 1-.681.168zm-2.094-1.698l1.83 1.06a.78.78 0 0 0 .654-.035l1.697-.982c.026-.017.044-.026.062-.044l-1.83-1.06c-.14-.08-.45-.08-.653.036l-1.697.98-.062.044z" class="B"/><path d="M193.397 122.295l-1.838-1.06c-.238-.142-.212-.39.07-.55l1.697-.98c.282-.16.698-.177.945-.035l1.838 1.06c.247.14.212.38-.07.548l-1.696.98c-.283.15-.707.168-.946.035z" class="D"/><path d="M193.804 122.676c-.203 0-.406-.044-.556-.133l-1.838-1.06c-.195-.115-.31-.29-.31-.486 0-.22.14-.424.38-.557l1.696-.98c.37-.212.9-.23 1.237-.036l1.838 1.06c.195.115.31.292.31.487 0 .22-.14.424-.38.557l-1.696.98c-.203.115-.442.168-.68.168zm-2.094-1.698l1.83 1.06a.78.78 0 0 0 .654-.035l1.697-.98c.026-.018.044-.036.062-.045l-1.83-1.06a.78.78 0 0 0-.654.035l-1.697.98c-.026.018-.044.036-.062.044z" class="B"/><path d="M145.497 94.624l-5.805-3.35c-.248-.142-.212-.39.07-.548l1.687-.972c.283-.16.707-.186.955-.035l5.805 3.35c.247.14.212.39-.07.548l-1.687.972c-.283.16-.707.177-.955.035z" class="C"/><path d="M145.913 95.013c-.204 0-.407-.044-.557-.133l-5.806-3.35c-.194-.115-.31-.292-.31-.486 0-.22.142-.424.38-.566l1.688-.972c.37-.22.9-.23 1.246-.035l5.805 3.35c.195.115.3.292.3.495 0 .22-.133.424-.38.566l-1.688.972c-.203.097-.45.16-.69.16zm-6.07-3.996l5.797 3.35c.14.08.45.08.662-.035l1.688-.972a.23.23 0 0 0 .062-.044l-5.797-3.35c-.14-.08-.46-.08-.662.035l-1.688.973c-.027.018-.044.035-.062.044z" class="B"/><path d="M197.366 124.586l-5.805-3.35c-.247-.14-.212-.39.07-.548l1.687-.98c.283-.16.707-.177.955-.036l5.805 3.35c.248.14.212.39-.07.548l-1.687.973c-.283.167-.707.185-.955.044z" class="C"/><path d="M197.78 124.975c-.203 0-.407-.044-.566-.133l-5.805-3.35c-.195-.115-.31-.292-.31-.487 0-.22.14-.424.38-.565l1.687-.973c.37-.22.9-.23 1.246-.035l5.806 3.35c.194.115.31.292.31.487 0 .22-.14.424-.38.565l-1.688.973c-.194.106-.442.168-.68.168zm-.265-.637c.14.08.46.08.662-.035l1.688-.973c.036-.017.053-.035.062-.044l-5.797-3.35c-.14-.08-.45-.08-.662.044l-1.688.972-.062.044 5.797 3.342z" class="B"/><path d="M213.138 120.086l-5.806-3.35c-.247-.142-.212-.39.07-.548l1.688-.973c.283-.16.707-.177.954-.035l5.806 3.35c.247.14.212.39-.07.548l-1.688.972c-.283.16-.707.177-.954.036z" class="C"/><path d="M213.562 120.466c-.203 0-.406-.044-.565-.133l-5.806-3.35c-.194-.114-.31-.29-.31-.486 0-.22.14-.424.38-.566l1.688-.972c.37-.212.9-.23 1.245-.035l5.806 3.35c.194.115.31.292.31.486 0 .22-.14.425-.38.566l-1.688.973c-.203.115-.45.168-.68.168zm-6.08-3.987l5.796 3.36c.142.08.45.08.663-.044l1.688-.973.062-.044-5.797-3.35c-.14-.08-.45-.08-.663.036l-1.687.972c-.027.018-.045.027-.062.045z" class="B"/><path d="M145.62 99.186l-1.838-1.06c-.248-.14-.212-.39.07-.548l1.697-.98c.283-.16.707-.177.945-.035l1.838 1.06c.24.142.212.38-.07.548l-1.697.98c-.283.16-.707.177-.945.035z" class="C"/><path d="M146.026 99.566c-.203 0-.406-.044-.557-.133l-1.837-1.06c-.195-.115-.3-.292-.3-.486 0-.22.133-.424.38-.557l1.697-.98c.37-.212.9-.23 1.237-.035l1.838 1.06c.194.115.31.292.31.486 0 .22-.14.424-.38.557l-1.696.98c-.195.115-.442.168-.68.168zm-2.094-1.69l1.83 1.06c.14.08.45.08.654-.035l1.697-.98.06-.044-1.83-1.06c-.14-.08-.45-.08-.654.044l-1.696.98c-.027.01-.044.018-.062.035z" class="B"/><path d="M149.605 101.493l-1.838-1.06c-.247-.14-.212-.39.07-.548l1.696-.98c.283-.16.707-.177.946-.035l1.838 1.06c.238.142.212.38-.07.55l-1.697.98c-.282.15-.706.168-.945.035z" class="C"/><path d="M150.02 101.874a1.13 1.13 0 0 1-.556-.133l-1.838-1.06c-.195-.115-.3-.292-.3-.486 0-.22.142-.425.38-.557l1.697-.98c.37-.212.9-.23 1.237-.035l1.838 1.06c.194.115.31.292.31.486 0 .22-.14.425-.38.557l-1.696.982c-.204.106-.45.168-.68.168zm-2.094-1.698l1.83 1.06a.78.78 0 0 0 .654-.035l1.697-.982c.026-.017.044-.035.062-.044l-1.83-1.06c-.14-.08-.45-.08-.653.035l-1.697.98c-.035.018-.053.035-.062.044z" class="B"/><path d="M137.633 94.57l-1.838-1.06c-.24-.142-.212-.38.07-.548l1.697-.98c.283-.16.707-.177.945-.044l1.838 1.06c.248.14.212.38-.07.548l-1.697.98c-.274.168-.698.186-.945.044z" class="C"/><path d="M138.048 94.96c-.204 0-.407-.044-.557-.133l-1.838-1.06c-.194-.115-.31-.292-.31-.486 0-.22.14-.424.38-.557l1.696-.98c.37-.212.902-.23 1.237-.035l1.838 1.06c.195.115.3.292.3.486 0 .22-.142.424-.38.557l-1.697.98a1.49 1.49 0 0 1-.68.168zm-2.095-1.698l1.83 1.06a.78.78 0 0 0 .653-.035l1.697-.98c.027-.018.044-.035.062-.044l-1.83-1.06c-.142-.08-.45-.08-.654.035l-1.697.98c-.035.018-.053.027-.062.044z" class="B"/><path d="M141.624 96.88l-1.838-1.06c-.24-.14-.212-.39.07-.548l1.696-.98c.283-.16.707-.177.946-.035l1.838 1.06c.247.14.212.39-.07.548l-1.697.98c-.282.16-.707.177-.945.035z" class="C"/><path d="M142.032 97.268a1.13 1.13 0 0 1-.557-.133l-1.838-1.06c-.194-.115-.31-.292-.31-.486 0-.22.142-.424.38-.557l1.697-.98c.37-.212.9-.23 1.237-.035l1.838 1.06c.194.115.31.292.31.486 0 .22-.14.424-.38.557l-1.697.98a1.46 1.46 0 0 1-.68.168zm-2.094-1.698l1.83 1.06c.14.08.45.08.654-.035l1.696-.98c.027-.018.045-.026.062-.044l-1.83-1.06c-.14-.08-.45-.08-.654.035l-1.696.98c-.027.01-.044.026-.062.044z" class="B"/><path d="M169.54 113.004l-17.78-10.273c-.247-.142-.212-.39.07-.548l1.688-.973c.282-.16.706-.177.954-.035l17.778 10.273c.248.14.213.39-.07.548l-1.688.972c-.283.16-.707.177-.954.036z" class="C"/><path d="M169.955 113.393c-.203 0-.406-.044-.557-.133l-17.778-10.273c-.195-.115-.31-.29-.31-.486 0-.22.14-.424.38-.566l1.687-.972c.37-.22.9-.23 1.246-.035l17.78 10.273c.194.114.31.29.31.486 0 .22-.14.424-.38.566l-1.688.972c-.203.106-.45.168-.69.168zm-18.044-10.9l17.78 10.273c.14.08.45.08.663-.035l1.687-.972.062-.045-17.77-10.273c-.142-.08-.46-.08-.663.036l-1.688.972c-.035.018-.053.027-.07.044z" class="B"/><path d="M173.542 115.32l-1.837-1.06c-.248-.142-.213-.39.07-.548l1.697-.982c.283-.16.698-.177.945-.035l1.838 1.06c.24.14.212.38-.07.548l-1.696.98c-.274.15-.698.177-.946.036z" class="C"/><path d="M173.958 115.7c-.203 0-.407-.044-.557-.133l-1.838-1.06c-.194-.115-.31-.292-.31-.487 0-.22.132-.424.38-.557l1.696-.98c.372-.212.902-.23 1.238-.035l1.837 1.06c.195.115.3.292.3.487 0 .22-.142.424-.38.557l-1.697.98c-.203.115-.442.168-.68.168zm-2.094-1.697l1.83 1.06c.14.08.45.08.654-.035l1.696-.98c.027-.018.044-.027.062-.044l-1.83-1.06c-.14-.08-.45-.08-.654.035l-1.697.98-.06.045z" class="B"/><path d="M177.538 117.62l-1.838-1.06c-.24-.14-.212-.39.07-.548l1.696-.98c.283-.16.698-.177.946-.035l1.838 1.06c.238.14.212.39-.07.548l-1.697.98c-.282.16-.707.177-.945.035z" class="C"/><path d="M177.944 118.008c-.203 0-.406-.044-.557-.133l-1.838-1.06c-.194-.115-.31-.292-.31-.487 0-.22.142-.424.38-.557l1.697-.98c.37-.212.9-.23 1.237-.035l1.838 1.06c.194.115.31.292.31.487 0 .22-.14.424-.38.557l-1.696.98c-.195.106-.442.168-.68.168zm-2.094-1.697l1.83 1.06c.14.08.45.08.654-.035l1.696-.98c.027-.018.045-.027.062-.044l-1.83-1.06c-.14-.08-.45-.08-.654.035l-1.696.98c-.027.018-.044.036-.062.045z" class="B"/><path d="M181.522 119.926l-1.838-1.06c-.247-.14-.212-.38.07-.548l1.696-.98c.283-.16.707-.177.946-.035l1.838 1.06c.238.14.212.38-.07.548l-1.697.98c-.282.16-.706.177-.945.035z" class="C"/><path d="M181.937 120.307a1.13 1.13 0 0 1-.556-.133l-1.838-1.06c-.195-.115-.3-.292-.3-.486 0-.22.142-.424.38-.557l1.697-.98c.37-.213.9-.23 1.237-.036l1.838 1.06c.194.115.31.292.31.486 0 .22-.14.425-.38.557l-1.696.982c-.204.115-.45.168-.68.168zm-2.094-1.698l1.83 1.06a.78.78 0 0 0 .654-.035l1.697-.982c.026-.017.044-.035.062-.044l-1.83-1.06c-.14-.08-.45-.08-.653.036l-1.697.98c-.035.018-.053.035-.062.044z" class="B"/><path d="M185.508 122.225l-1.838-1.06c-.24-.14-.212-.39.07-.548l1.697-.98c.283-.16.698-.177.945-.036l1.838 1.06c.24.142.212.39-.07.548l-1.697.982c-.274.16-.698.176-.945.035z" class="C"/><path d="M185.923 122.614a1.12 1.12 0 0 1-.557-.133l-1.838-1.06c-.194-.114-.31-.29-.31-.486 0-.22.14-.424.38-.557l1.696-.98c.37-.212.902-.23 1.237-.035l1.838 1.06c.195.115.3.292.3.487 0 .22-.133.424-.38.557l-1.697.98a1.49 1.49 0 0 1-.68.168zm-2.095-1.697l1.83 1.06c.14.08.45.08.653-.035l1.697-.98c.026-.018.044-.036.062-.044l-1.83-1.06a.78.78 0 0 0-.654.035l-1.697.98-.062.045z" class="B"/><path d="M189.51 124.542l-1.838-1.06c-.247-.142-.212-.38.07-.548l1.697-.982c.282-.16.698-.176.945-.035l1.838 1.06c.24.14.212.39-.07.548l-1.696.98c-.283.16-.707.168-.946.036z" class="C"/><path d="M189.916 124.92c-.203 0-.407-.044-.557-.132l-1.838-1.06c-.194-.115-.31-.292-.31-.486 0-.22.14-.425.38-.557l1.696-.982c.372-.212.902-.23 1.238-.035l1.837 1.06c.195.115.3.292.3.486 0 .22-.142.425-.38.557l-1.697.982c-.194.114-.442.167-.68.167zm-2.094-1.697l1.83 1.06c.14.08.45.08.654-.035l1.696-.982c.027-.017.044-.026.062-.044l-1.83-1.06c-.14-.08-.45-.08-.654.036l-1.697.98-.06.044z" class="B"/><path d="M193.495 126.84l-1.838-1.06c-.248-.14-.212-.39.07-.548l1.697-.98c.283-.16.698-.177.945-.036l1.838 1.06c.24.142.212.39-.07.548l-1.697.982c-.283.16-.698.177-.945.035z" class="C"/><path d="M193.9 127.23c-.203 0-.398-.044-.557-.133l-1.838-1.06c-.194-.114-.31-.29-.31-.486 0-.22.133-.424.38-.557l1.697-.98c.37-.212.9-.23 1.237-.035l1.838 1.06c.194.115.31.292.31.487 0 .22-.142.424-.38.557l-1.697.98c-.203.106-.45.168-.68.168zm-.274-.637c.14.08.45.08.654-.035l1.696-.98c.027-.018.045-.036.062-.044l-1.83-1.06c-.14-.08-.45-.08-.654.035l-1.696.98c-.027.018-.044.036-.062.045l1.83 1.06z" class="B"/><path d="M217.09 117.805l-1.838-1.06c-.24-.142-.212-.38.07-.548l.345-.195c.283-.16.707-.177.945-.035l1.838 1.06c.248.14.213.39-.07.548l-.345.194c-.283.16-.707.177-.945.036z" class="C"/><path d="M217.504 118.194a1.12 1.12 0 0 1-.557-.133L215.1 117c-.194-.115-.3-.292-.3-.486 0-.22.132-.424.38-.557l.344-.194c.372-.213.902-.23 1.237-.036l1.838 1.06c.195.115.3.292.3.486 0 .22-.133.425-.38.557l-.345.195a1.52 1.52 0 0 1-.68.168zm-2.094-1.698l1.83 1.06c.14.08.45.08.653-.035l.345-.195c.027-.017.044-.035.062-.044l-1.83-1.06c-.142-.08-.45-.08-.654.036l-.345.194c-.035.018-.053.035-.06.044zm5.327-1.742l-.177-.106c-.318-.185-.283-.512.088-.725s.937-.238 1.255-.053l.177.106c.327.186.283.513-.088.725s-.928.24-1.255.053zm-1.66-1.414l-9.516-5.48.3-.504 9.517 5.48-.292.504zm-14.947-9.297l-.3.505 4.002 2.3.292-.505-4.003-2.3zm-39.542-22.84l-.3.506 4.6 2.637.3-.506-4.6-2.637zm-44.046 24.656l-3.915-2.263c-.4-.22-.6-.54-.6-.893s.212-.663.6-.893l8.015-4.624.3.504-8.014 4.624c-.203.115-.318.256-.318.4s.115.274.318.4l3.914 2.263-.3.504zm68.57 30l-6.127 3.546.292.505 6.127-3.546-.292-.505zm4.83-2.784l-3.572 2.067.292.505 3.572-2.067-.292-.505zm-67.896-36.03l-.3-.504 2.465-1.423.292.504-2.466 1.423zm-9.216 8.283h-.583v1.653h.583v-1.653zm5.685 3.325h-.583v1.653h.583v-1.653zm57.892 33.24h-.583v1.653h.583v-1.653zm-3.25-1.76h-.583v1.653h.583v-1.653zm-6.574-3.714H170v1.653h.583v-1.653z" class="B"/><path d="M225.862 120.2l-.54-.22c.557-1.36.398-2.316.398-2.325l.574-.097c0 .035.186 1.114-.433 2.643zm-3.287 2.035l-.548-.194c.433-1.23.23-2.325.22-2.334l.566-.115c.017.053.247 1.264-.24 2.643zm-38.773 19.67h-.583v1.36h.583v-1.36zm5.418-2.918h-.583v1.654h.583v-1.654zm26.843-13.668c-.1 0-.177-.027-.257-.07-.185-.106-.3-.336-.3-.6 0-.433.256-.9.592-1.105l1.67-.964c.194-.115.406-.123.583-.026.186.106.3.336.3.6 0 .433-.257.9-.592 1.105l-1.67.964c-.114.06-.22.097-.326.097zm1.997-2.255l-1.68.964c-.142.08-.3.354-.3.6 0 .036 0 .062.01.08l1.68-.964c.14-.08.3-.354.3-.6 0-.027 0-.062-.008-.08zm-5.893 4.492c-.088 0-.177-.026-.256-.07-.186-.115-.3-.336-.3-.6 0-.433.257-.9.592-1.105l1.67-.964c.195-.115.407-.124.584-.027.194.107.3.336.3.6 0 .434-.256.9-.592 1.106l-1.67.963a.69.69 0 0 1-.327.097zm1.997-2.245l-1.68.964c-.14.08-.3.353-.3.6 0 .035 0 .062.01.088l1.678-.964c.142-.08.3-.362.3-.6 0-.044-.01-.07-.01-.088z" class="D"/><path d="M227.497 55.85l-1.585 1.03.318.5 1.585-1.03-.318-.5zm-7.997-4.763l-1.583 1.035.32.5 1.583-1.035-.32-.5zm-56.137-29.992l-.318-.486 1.582-1.034.318.486-1.582 1.034zm5.595.905l-1.585 1.03.318.5 1.585-1.03-.318-.5z" class="B"/><path d="M230.03 60.274l-1.318.757.3.506 1.318-.757-.3-.506zm-68.465 10.063l-.66.38.3.505.66-.38-.3-.506zm68.45 38.267l-1.316.76.292.506 1.316-.76-.292-.505zm-.016 2.893l-1.317.76.3.505 1.317-.76-.3-.505z" class="D"/><g stroke="#000" stroke-width=".483" stroke-miterlimit="10"><path d="M225.257 82.962l-62.413-36.595.19-15.804 62.413 36.595-.19 15.804z" class="C"/><path d="M182.075 53.78l-11.21-6.148.09-7.404 11.21 6.157-.09 7.395z" class="J"/><path d="M214.675 65.066l-23.23-13.785.078-1.782 23.23 13.785-.078 1.782zm-2.387 2.614l-20.8-12.16.023-.47 20.8 12.158-.014.47zm-.35 2.505l-20.8-12.16.026-.712 20.8 12.16-.025.712z" class="I"/><path d="M176.333 64.105c1.054-1.087-.084-3.68-2.54-5.794s-5.302-2.945-6.355-1.86.084 3.68 2.54 5.793 5.302 2.945 6.355 1.86z" fill="#938370"/><path d="M197.826 76.668c1.054-1.087-.084-3.68-2.54-5.793s-5.302-2.945-6.355-1.86.084 3.68 2.54 5.793 5.302 2.945 6.355 1.86z" class="J"/><path d="M218.21 88.586c1.053-1.087-.084-3.68-2.54-5.794s-5.302-2.945-6.355-1.86.084 3.68 2.54 5.793 5.303 2.945 6.356 1.86z" class="I"/><path d="M176.693 68.793l-10.06-5.883 10.06 5.883zm21.163 11.737l-9.346-5.465 9.346 5.465zm20.364 12.318l-9.354-5.473 9.354 5.473zm-43.204-23.296l-5.87-3.432 5.87 3.432zm20.42 11.928l-4.677-2.732.006-.117 4.668 2.732.003.118zm20.38 11.92l-4.677-2.733 4.677 2.733z" class="J"/><path d="M175.86 73.52l-8.373-4.893.06-1.612 8.373 4.893-.06 1.612zm21.536 12.595l-8.875-5.2.06-1.613 8.884 5.192-.07 1.612zm20.384 11.912l-8.884-5.192.06-1.612 8.884 5.2-.06 1.613z" class="I"/><path d="M226.98 67.287l-64.733-37.842.106-2.747 64.74 37.843-.114 2.747z" fill="#938370"/><path d="M201.616 72.75l-15.563-9.094.037-.947 15.563 9.102-.037.94z" class="I"/><path d="M164.146 31.238l2.828 1.656m-2.85-1.187l2.83 1.648m-2.855-1.202l2.828 1.672"/></g><g class="B"><path d="M130.6 73.235c-1.28-.787-2.163-.147-4.815.195-2.275.347-4.438 1.178-6.27 2.483s-2.95 2.112-3.425 3.422l-.888 1.018.907 2.36c.645 1.483 2.445 2.446 5.34 2.538s5.698-.835 8.068-2.498c3.32-2.328 4.45-4.87 3.8-6.73l-.026-.066-.83-2.163-1.87-.56z"/><path d="M126.67 84.75c-1.704.655-3.47.957-5.27.97-2.96-.067-5.006-1.086-5.752-2.83l-.025-.066-.982-2.557.993-1.134c.58-1.427 1.832-2.283 3.597-3.563 1.896-1.33 4.165-2.278 6.465-2.56l1.83-.327c1.32-.282 2.158-.453 3.207.122l1.96.6.957 2.49c.79 2.254-.733 4.946-3.986 7.25-.857.705-1.947 1.2-2.996 1.602zm-10.95-4.22l.78 2.032c.62 1.417 2.37 2.25 4.95 2.31 2.672.102 5.476-.825 7.806-2.397 2.9-2.02 4.272-4.35 3.633-6.2l-.05-.13-.755-1.967-1.714-.545c-.777-.454-1.326-.318-2.647-.036l-1.896.352c-2.21.322-4.282 1.193-6.072 2.408-1.896 1.33-2.885 2.086-3.28 3.216l-.106.116-.65.852z"/></g><path d="M128.552 71.24c4.1.682 5.308 3.83 2.695 7.015-2.588 3.25-8.03 5.342-12.194 4.685-4.1-.682-5.308-3.83-2.695-7.015 2.588-3.25 8.095-5.367 12.194-4.685z" class="C"/><g class="B"><path d="M125.882 82.496c-2.295.882-4.8 1.24-6.873.9-2.173-.37-3.685-1.368-4.24-2.8s-.125-3.262 1.267-4.926c2.694-3.367 8.332-5.533 12.587-4.836 2.173.37 3.686 1.368 4.24 2.8s.124 3.262-1.268 4.926c-1.327 1.638-3.42 3.044-5.714 3.926zm-3.828-9.965c-2.098.806-4.085 2.096-5.372 3.643-1.18 1.43-1.54 2.848-1.085 4.028s1.734 1.967 3.503 2.265c3.943.667 9.253-1.373 11.735-4.508 1.18-1.43 1.54-2.848 1.086-4.028s-1.734-1.967-3.504-2.265c-1.926-.313-4.265.06-6.363.865zm5.193.79c-2.814-.273-6.616 1.187-8.523 3.274s-1.176 3.988 1.637 4.26 6.616-1.187 8.523-3.274 1.176-3.988-1.637-4.26z"/><path d="M125.126 80.53c-1.64.63-3.338.906-4.8.795-1.563-.152-2.57-.818-2.924-1.736s-.01-2.178 1-3.247c1.947-2.177 5.946-3.714 8.85-3.4 1.563.152 2.57.818 2.924 1.736s.01 2.178-1 3.247c-.928 1.11-2.4 1.976-4.04 2.605zm-2.317-6.03c-1.442.554-2.85 1.396-3.737 2.414-.807.837-1.08 1.694-.828 2.35s1.094 1.084 2.188 1.19c2.657.258 6.33-1.152 8.13-3.123.807-.837 1.08-1.694.828-2.35s-1.094-1.084-2.188-1.19c-1.34-.162-2.95.155-4.392.71z"/></g><path d="M127.75 74.632c-2.813-.273-6.615 1.188-8.522 3.274-.676.786-1 1.512-1.06 2.137.464.424 1.2.747 2.218.878 2.814.273 6.616-1.187 8.523-3.274.676-.786 1-1.512 1.06-2.138-.49-.49-1.215-.812-2.22-.878z" class="H"/><path d="M125.127 80.53c-1.64.63-3.338.906-4.8.795-1.095-.106-1.91-.47-2.49-1l-.14-.172-.01-.222c.01-.756.44-1.598 1.18-2.4 1.947-2.177 5.946-3.714 8.85-3.4 1.094.106 1.91.47 2.5 1l.142.17.01.222c-.01.756-.44 1.598-1.18 2.4-.928 1.11-2.4 1.976-4.04 2.605zm-6.46-.754c.414.293 1.024.5 1.74.61 2.657.258 6.328-1.152 8.13-3.123.53-.58.837-1.15.883-1.618-.414-.293-1.024-.5-1.74-.61-2.657-.258-6.328 1.152-8.13 3.123-.53.58-.837 1.15-.883 1.618z" class="B"/><path d="M130.63 79.392l-.655.252.73 1.9.656-.252-.73-1.9zm-12.796 3.11l-.655.252.73 1.9.656-.252-.73-1.9zm5.963-8.76l-.655.252.453 1.18.656-.252-.454-1.18z" class="H"/><g class="B"><path d="M119.106 78.178l.403 1.05 1.643-.03.253-1.3 6.09.97 1.094-.872.4-.53-.403-1.05-7.705-.275-1.775 2.036z"/><path d="M127.596 79.13l-5.934-.955-.252 1.3-2.18.01-.554-1.442 2.028-2.36 8.083.28.554 1.442-.57.67c-.318.348-.727.655-1.135.963l-.04.09zm-6.342-1.626l.222-.01 6 .93.923-.73.252-.323-.252-.656-7.326-.27-1.498 1.78.226.6 1.1-.05.237-1.144.106-.116z"/></g><path d="M120.977 76.782l-.228 1.366-1.644.03.34-1.86.968-1.2 8.083 1.26-1.18 1.43-6.337-1.026z" class="C"/><path d="M127.596 78.15l-6.312-.96-.253 1.3-2.335-.006.45-2.355 1.18-1.43 8.42 1.355.182.08.06.353-1.392 1.663zm-6.746-1.697l.222-.01 6.247.986.65-.852-7.3-1.183-.822.993-.293 1.39.887-.04.238-1.144.17-.14z" class="B"/><path d="M129.644 80.148l-.656.252.73 1.9.655-.252-.73-1.9z" class="H"/></svg>