<svg xmlns="http://www.w3.org/2000/svg" xmlns:xlink="http://www.w3.org/1999/xlink" width="360" height="304" fill="none" xmlns:v="https://vecta.io/nano"><style><![CDATA[.B{fill:#ffc856}.C{fill:#fff}.D{fill:#000}.E{stroke-width:1.072}.F{fill:#150035}.G{stroke:#16110d}.H{fill:#16110d}.I{fill:#fff183}.J{fill:#f6e5cc}.K{fill:#fdbc38}]]></style><g fill="#ff513f"><path d="M0 0h360v304H0z"/><path d="M0 0L360 37.5L0 64.5L360 304L108.5 242.5L0 0Z" style="mix-blend-mode:screen" opacity=".3"/></g><g class="H"><path d="M219.945 101.92c.235.12.235.355 0 .473s-.59.118-.825 0-.236-.354 0-.473.59-.118.825 0z"/><use xlink:href="#J"/><path d="M224.187 99.44c.236.118.236.355 0 .473a1.01 1.01 0 0 1-.825 0c-.235-.118-.235-.355 0-.473s.648-.118.825 0zm2.12-1.243c.236.118.236.355 0 .473s-.6.118-.825 0-.235-.355 0-.473.648-.118.825 0zm2.12-1.18c.236.118.236.355 0 .473s-.6.118-.824 0-.236-.355 0-.473c.235-.177.647-.177.824 0zm2.124-1.24c.236.118.236.355 0 .473s-.6.118-.824 0-.236-.355 0-.473c.294-.118.648-.118.824 0z"/><use xlink:href="#K"/><path d="M234.847 93.293c.236.118.236.355 0 .473s-.59.118-.825 0 .59-.59.825-.473z"/><use xlink:href="#L"/><path d="M219.945 99.44c.235.118.235.355 0 .473a1.01 1.01 0 0 1-.825 0c-.236-.118-.236-.355 0-.473s.59-.118.825 0z"/><use xlink:href="#J" y="-2.483"/><path d="M224.187 97.016c.236.118.236.355 0 .473s-.6.118-.825 0-.235-.355 0-.473c.236-.177.648-.177.825 0zm2.12-1.242c.236.118.236.355 0 .473s-.6.118-.824 0c-.177-.118.648-.6.824-.473z"/><use xlink:href="#M"/><use xlink:href="#L" y="-2.483"/><use xlink:href="#N"/><use xlink:href="#J" y="-4.905"/><use xlink:href="#O"/><use xlink:href="#L" y="-4.905"/><path d="M219.945 95.007c-.236.118-.6.118-.825 0s-.236-.355 0-.473 1.06.355.825.473zm12.842 11.64c.235.12.235.355 0 .473s-.6.118-.825 0-.236-.354 0-.473.6-.118.825 0z"/><use xlink:href="#L" x="17.08" y="4.726"/><path d="M237.027 104.166c.235.118.235.355 0 .473s-.59.118-.825 0-.236-.355 0-.473.648-.118.825 0z"/><use xlink:href="#J" x="17.082" y="2.245"/><path d="M241.267 101.744c.236.118.236.354 0 .473s-.6.118-.825 0-.235-.355 0-.473c.236-.177.648-.177.825 0zm2.123-1.242c.236.118.236.355 0 .473s-.6.118-.825 0-.235-.355 0-.473.648-.118.825 0z"/><use xlink:href="#L" x="27.744" y="-1.42"/><use xlink:href="#P"/><path d="M228.544 106.648c.236.118.236.354 0 .473s-.59.118-.824 0-.236-.355 0-.473c.235-.177.59-.177.824 0z"/><use xlink:href="#M" x="14.961" y="5.966"/><use xlink:href="#Q"/><use xlink:href="#L" x="17.08" y="2.245"/><use xlink:href="#R"/><path d="M239.148 100.502c.235.118.235.355 0 .473s-.59.118-.825 0-.235-.355 0-.473a.71.71 0 0 1 .825 0z"/><use xlink:href="#K" x="8.54" y="4.726"/><use xlink:href="#K" x="10.663" y="3.486"/><use xlink:href="#M" x="29.806" y="-2.66"/><use xlink:href="#M" x="10.72" y="5.966"/><use xlink:href="#M" x="12.84" y="4.726"/><use xlink:href="#M" x="14.961" y="3.485"/><use xlink:href="#R" x="-4.24"/><use xlink:href="#N" x="14.961" y="3.486"/><use xlink:href="#L" x="19.201" y="-1.42"/><use xlink:href="#P" x="-8.542"/><use xlink:href="#K" x="8.54" y="2.246"/><use xlink:href="#K" x="10.663" y="1.004"/><use xlink:href="#K" x="17.083" y="2.246"/><use xlink:href="#K" x="-8.423" y="9.632"/><use xlink:href="#M" x="10.72" y="3.485"/><path d="M228.544 101.684c.236.118.236.354 0 .472s-.59.12-.824 0-.236-.354 0-.472.59-.118.824 0z"/><use xlink:href="#O" x="14.961" y="3.486"/><use xlink:href="#Q" y="-4.906"/><use xlink:href="#L" x="17.08" y="-2.66"/><use xlink:href="#M" x="31.926" y="-3.902"/><use xlink:href="#O" x="29.806" y="-2.66"/><use xlink:href="#L" x="19.201" y="-3.9"/><use xlink:href="#P" x="-8.542" y="-2.482"/><use xlink:href="#K" x="-10.543" y="8.391"/><path d="M224.304 101.684c.236.118.236.354 0 .472a1 1 0 0 1-.825 0c-.235-.118-.235-.354 0-.472s.59-.118.825 0z"/><use xlink:href="#O" x="10.72" y="3.486"/><use xlink:href="#M" x="12.84" y="-0.18"/><path d="M241.267 94.356c.236.118.236.355 0 .473s-.59.118-.825 0-.235-.355 0-.473a.71.71 0 0 1 .825 0z"/><use xlink:href="#K" x="10.663" y="-1.418"/><use xlink:href="#M" x="14.961" y="-1.42"/><use xlink:href="#Q" y="-7.386"/><use xlink:href="#L" x="17.08" y="-5.142"/><use xlink:href="#N" x="17.082" y="-2.66"/><use xlink:href="#P" x="-8.542" y="-4.904"/><use xlink:href="#K" x="8.54" y="-2.659"/><path d="M251.105 95.597c.236-.118.6-.118.825 0s.236.355 0 .473-.6.118-.825 0-.235-.355 0-.473zm-2.12-1.24c.236-.118.6-.118.825 0s.236.355 0 .473-.6.118-.825 0-.235-.355 0-.473z"/><use xlink:href="#S"/><path d="M246.864 93.116c.236-.118.59-.118.825 0s.235.355 0 .473-.59.118-.825 0-.235-.355 0-.473z"/><use xlink:href="#S" x="-2.12" y="-1.241"/><path d="M244.684 91.875c.236-.118.59-.118.825 0s.236.355 0 .473-.59.118-.825 0c-.176-.118-.176-.355 0-.473z"/><use xlink:href="#S" x="-4.24" y="-2.483"/></g><path d="M248.218 89.63s4.536-27.36 2.238-39.77l-23.502 2.837s-.118 19.915-8.482 39.594c-.53 1.24.118 2.718 2.003 3.782l4.77 2.777c2.65 1.537 6.597 1.714 8.894.355l12.547-7.27c1-.71 1.53-1.477 1.53-2.305z" class="B"/><path d="M242.917 74.975l-13.018-7.27c-.412-.236-.942.06-.942.59-.06 2.6-.825 10.164-7.304 25.47-.53 1.24.118 2.718 2.003 3.782l2.002 1.182c2.592 1.24 6.185 1.3 8.306.06l12.546-7.27c1-.59 1.53-1.418 1.53-2.246l.295-2.01c-1.355-2.482-4.36-6.678-5.42-12.292z" class="J"/><g class="D"><path d="M233.965 99.145l12.546-7.27c1.002-.59 1.532-1.418 1.532-2.246 0 0 4.535-27.36 2.238-39.77l-6.126.71-6.36 3.368s-.06 26.297-8.424 45.976c0 .06 0 .06-.058.118 1.767.06 3.475-.236 4.653-.886z"/><path d="M230.253 100.267c-1.826 0-3.71-.413-5.183-1.3L220.3 96.2c-1.71-1.005-2.533-2.364-2.298-3.664h-.06l.177-.473c8.188-19.442 8.423-39.298 8.423-39.475v-.236l24.033-2.896.06.295c2.238 12.174-2.12 38.943-2.24 39.89 0 .945-.59 1.832-1.708 2.482l-12.546 7.27c-.943.59-2.415.886-3.888.886zm-11.31-8.39l-.236.473c-.53 1.123.236 2.423 1.885 3.368l4.77 2.778c2.533 1.477 6.42 1.655 8.6.355l12.546-7.27c.884-.532 1.355-1.24 1.414-1.95v-.06c.06-.296 4.477-27.065 2.297-39.416l-22.972 2.777c-.06 2.364-.766 20.8-8.305 38.944z"/></g><path d="M263.18 37.45c0-7.564-5.3-16.724-11.78-20.506-3.063-1.773-5.9-2.01-7.952-1.005-.295.118-.53.296-.766.473l-8.482 5.023 1.06 2.837 15.492 26.18 8.66-5.082c.294-.118.53-.295.765-.473 1.885-1.36 3.004-3.9 3.004-7.446z" class="B"/><path d="M262.414 40.877c-.59-7.2-5.655-15.483-11.722-19.028-3.063-1.773-5.9-2.01-7.95-1.005-.295.118-.53.295-.766.473l-6.538 3.84 15.02 25.292 8.66-5.082c.294-.118.53-.296.765-.473 1.12-.886 2.003-2.246 2.533-4.018z" fill="#fbeacc"/><path d="M250.634 50.805L234.966 24.39l-1.178-3.132 8.718-5.14c.235-.177.53-.354.765-.473 2.298-1.123 5.184-.768 8.247 1.005 6.597 3.782 11.957 13.12 11.957 20.742 0 3.487-1.12 6.205-3.122 7.623-.235.177-.53.355-.824.473l-8.895 5.32zm-16.08-29.252l1 2.6 15.315 25.884 8.364-4.964c.295-.118.53-.295.766-.473 1.885-1.3 2.886-3.84 2.886-7.15 0-7.446-5.242-16.487-11.663-20.2-2.886-1.655-5.595-2.01-7.716-1.005-.294.118-.53.295-.766.414l-8.187 4.905z" class="D"/><path d="M254.46 42.65c0 7.564-5.302 10.578-11.78 6.855C236.2 45.723 230.9 36.563 230.9 29s5.302-10.578 11.78-6.855c6.48 3.782 11.78 12.942 11.78 20.506z" class="B"/><path d="M247.923 51.395c-1.65 0-3.534-.532-5.42-1.655-6.597-3.782-11.957-13.12-11.957-20.742 0-3.782 1.296-6.56 3.593-7.92s5.36-1.064 8.66.827c6.597 3.782 11.957 13.12 11.957 20.742 0 3.782-1.296 6.56-3.593 7.92-.943.532-2.062.827-3.24.827zM237.44 20.843c-1.06 0-2.062.236-2.946.768-2.12 1.24-3.298 3.84-3.298 7.387 0 7.446 5.242 16.488 11.663 20.21 3.063 1.773 5.9 2.068 8 .827s3.3-3.84 3.3-7.387c0-7.446-5.242-16.487-11.663-20.2-1.767-1.064-3.534-1.596-5.065-1.596z" class="D"/><path d="M251.102 43.183c0-6.796-4.712-15-10.603-18.378-2.768-1.596-5.3-1.832-7.186-.886-.236.118-.47.236-.707.414L209.575 37.5l.943 2.54 13.96 23.52 14.254-8.332c.236-.118 9.366-5.14 9.6-5.318 1.767-1.3 2.77-3.546 2.77-6.737z" class="B"/><path d="M250.572 46.6c-.59-6.44-5.065-13.77-10.484-16.96-2.77-1.596-5.302-1.832-7.186-.886-.236.118-.472.236-.707.414l-20.91 11.996 13.253 22.338 14.255-8.332c.235-.118 9.365-5.14 9.6-5.318.942-.768 1.708-1.832 2.18-3.25z" fill="#fae9cc"/><g class="D"><path d="M248.568 34.082c-.236.177-9.366 5.2-9.602 5.32l-14.254 8.332-7.422-.886-7.657-9.396.942 2.54 13.96 23.52L238.8 55.18c.235-.118 9.365-5.14 9.6-5.32 1.708-1.182 2.71-3.487 2.71-6.62 0-2.955-.883-6.205-2.415-9.22-.058 0-.058 0-.117.06z"/><path d="M224.478 63.865L210.4 40.11l-1.06-2.837 23.208-13.296a7.47 7.47 0 0 1 .706-.414c2.062-1.005 4.713-.65 7.422.945 5.9 3.428 10.72 11.82 10.72 18.674 0 3.132-1.002 5.555-2.828 6.855-.294.236-9.542 5.32-9.66 5.32l-14.43 8.5zm-14.43-26.297l.883 2.305 13.784 23.224 14.018-8.214c.413-.177 9.366-5.14 9.543-5.32 1.65-1.182 2.59-3.428 2.59-6.382 0-6.678-4.653-14.774-10.425-18.142-2.592-1.477-5.007-1.832-6.892-.886-.236.118-.47.236-.648.414l-22.854 13z"/></g><path d="M227.895 56.478c0 6.796-4.712 9.514-10.602 6.146-5.83-3.368-10.603-11.642-10.603-18.378s4.713-9.514 10.603-6.146c5.83 3.368 10.602 11.642 10.602 18.378z" class="B"/><path d="M222.005 64.396c-1.473 0-3.18-.473-4.89-1.477-5.9-3.427-10.72-11.82-10.72-18.674 0-3.368 1.178-5.91 3.24-7.15 2.12-1.24 4.89-.946 7.775.768 5.89 3.428 10.72 11.82 10.72 18.674 0 3.368-1.178 5.91-3.24 7.15-.825.414-1.826.71-2.886.71zm-9.425-27.48c-.942 0-1.826.236-2.59.65-1.885 1.123-2.946 3.427-2.946 6.62 0 6.678 4.654 14.774 10.426 18.142 2.7 1.596 5.302 1.832 7.186.768 1.885-1.123 2.946-3.428 2.946-6.62 0-6.678-4.654-14.774-10.426-18.142-1.65-.946-3.18-1.418-4.595-1.418z" class="D"/><path d="M224.598 56.892c0-5.85-4.123-13-9.19-15.956-2.945-1.714-5.596-1.596-7.304-.06-4.064 2.186-15.963 6.737-31.336-3.546-.943-.65-2.18.355-1.767 1.418l23.207 57.5 4.536.886c2.533.473 4.77-1.596 4.535-4.137-.707-7.505 0-21.392 13.077-29.666 2.592-.414 4.24-2.718 4.24-6.44z" class="B"/><path d="M220.06 63.5c1.6-.296 2.827-1.36 3.534-3.073-.707-5.437-4.476-11.464-9.012-14.124-2.945-1.714-5.596-1.596-7.304-.06-4.064 2.187-15.786 6.678-31.042-3.368l21.618 53.54 4.535.886c1.59.296 3.122-.414 3.947-1.655-.06-2.127 0-4.61.412-7.15.177-7.682 2.592-18.2 13.312-24.997z" fill="#f9e8cc"/><path d="M203.57 97.608c-.295 0-.53 0-.825-.06l-4.712-.946-23.267-57.676a1.56 1.56 0 0 1 .412-1.714c.53-.414 1.178-.473 1.767-.06 15.08 10.105 26.683 5.85 30.983 3.546 1.826-1.714 4.595-1.714 7.6.06 5.124 2.955 9.307 10.223 9.307 16.192 0 3.723-1.59 6.205-4.3 6.737-12.9 8.214-13.666 21.924-12.9 29.37.118 1.3-.354 2.6-1.355 3.487-.707.65-1.65 1.064-2.71 1.064zm-5.066-1.536l4.418.886c1.12.236 2.238-.118 3.063-.827.824-.768 1.237-1.832 1.12-2.955-.766-7.564 0-21.57 13.253-29.96l.118-.06c2.415-.473 3.887-2.777 3.887-6.205 0-5.732-4.064-12.765-9.012-15.66-2.768-1.596-5.3-1.655-6.95-.118l-.06.06c-4.36 2.364-16.257 6.737-31.63-3.546-.412-.295-.825-.177-1.06.06-.236.177-.413.59-.236 1.005l23.1 57.322z" class="D"/><path d="M203.627 108.186c.824-.945 1.237-1.595 1.237-1.595 2.59-3.782 4.064-8.983 4.064-15.424 0-19.856-13.9-44.085-31.1-54.013-8.07-4.668-15.373-5.378-20.9-2.777-.177.06-.354.177-.53.236-.06.06-.177.118-.236.118-.236.118-.47.236-.707.414-.06 0-.06.06-.118.06-.235.118-.47.296-.707.473-8.894 6.146-9.542 17.787-9.542 17.787l1.59 1.596v.06c0 13.77 6.656 29.606 16.492 41.307 3.417 6.087 7.952 11.347 13.784 13.947 8.305 3.723 14.43 3.723 18.85 2.482a14.52 14.52 0 0 0 7.362-4.373c.118-.12.177-.237.295-.296.177.06.177 0 .177 0z" class="B"/><path d="M201.86 106.058c.824-.946.058-3.073.058-3.073l.825 1.477c2.592-3.782 6.185-5.14 6.185-11.582 0-19.856-13.9-44.085-31.1-54.013-8.07-4.67-15.373-5.378-20.9-2.777-.177.06-.354.177-.53.236-.06.06-.177.118-.236.118-.236.118-.47.236-.707.414-.06 0-.06.06-.118.06-.235.118-.47.295-.707.473-8.894 6.146-9.542 17.788-9.542 17.788l1.59 1.596v.06c0 13.77 6.656 29.607 16.492 41.307 3.417 6.087 9.248 8.037 15.08 10.637 8.305 3.723 10.66 2.482 15.08 1.24 2.886-.71 4.123-.65 6.126-2.836.235-.06.117-4.137 2.415-1.123z" fill="#f8e7cc"/><g class="D"><path d="M208.928 91.285c0-6.56-1.532-13.592-4.182-20.388-.413 4.905-1.826 8.982-3.947 12.055 0 0-.412.65-1.237 1.596l-.06.06-.294.295c-2.003 2.187-4.536 3.605-7.363 4.373-4.418 1.24-10.544 1.24-18.85-2.482-5.832-2.6-10.308-7.8-13.783-13.946-5.773-6.855-10.426-15.187-13.313-23.638-.647 2.6-.765 4.432-.765 4.432l1.6 1.596v.06c0 13.77 6.656 29.607 16.493 41.307 3.416 6.087 7.952 11.346 13.783 13.946 8.306 3.723 14.43 3.723 18.85 2.482a14.52 14.52 0 0 0 7.363-4.373c.118-.118.177-.236.295-.295l.058-.06c.825-.946 1.237-1.596 1.237-1.596 2.65-3.723 4.124-8.923 4.124-15.424z"/><path d="M190.374 113.977c-4.064 0-8.6-1.064-13.43-3.25-5.302-2.364-10.014-7.092-13.902-14.065-10.2-12.174-16.492-28.01-16.492-41.425l-1.65-1.596v-.118c0-.118.766-11.82 9.66-18.024.236-.177.472-.295.707-.473l.118-.06c.236-.118.47-.296.707-.414l.118-.06c.06 0 .118-.06.118-.06.176-.118.353-.177.53-.236 5.83-2.777 13.312-1.773 21.146 2.778 17.2 9.987 31.218 34.334 31.218 54.25 0 6.264-1.413 11.583-4.064 15.542l-.06.06s-.412.71-1.296 1.654v.06l-.353.355c-2.062 2.186-4.595 3.723-7.54 4.432-1.708.355-3.593.65-5.537.65zM145.5 53.405L147.08 55v.118c0 13.296 6.302 29.075 16.434 41.19 3.887 6.914 8.482 11.523 13.665 13.828 7.07 3.132 13.312 3.96 18.672 2.482 2.828-.71 5.243-2.128 7.245-4.255.118-.118.177-.236.295-.295l.294.118-.235-.178c.53-.6.883-1.122 1.06-1.36l.118-.177c2.65-3.84 4.005-9.1 4.005-15.246 0-19.738-13.9-43.848-30.924-53.717-7.657-4.432-14.96-5.437-20.616-2.718-.176.06-.353.177-.47.236l-.236.118c-.235.118-.47.236-.647.414l-.118.06c-.236.118-.472.295-.648.473-8.247 5.555-9.366 16.015-9.484 17.315z"/></g><path d="M203.57 91.936c0 18.733-13.136 26.356-29.334 16.96s-29.334-32.207-29.334-50.94 13.136-26.356 29.334-16.96 29.334 32.207 29.334 50.94z" class="B"/><g class="D"><path d="M181.48 69.182c8.777 5.082 16.67 14.124 22.03 24.347 0-.473.06-1.005.06-1.477 0-18.733-13.136-41.603-29.334-50.94-16.198-9.396-29.334-1.773-29.334 16.96 0 8.57 2.77 18.024 7.304 26.652.648-17.728 13.548-24.702 29.275-15.542z"/><path d="M187.31 113.268c-4.064 0-8.6-1.36-13.253-4.078-16.257-9.396-29.452-32.384-29.452-51.235 0-9.16 3.122-16.015 8.718-19.324 5.655-3.25 13.077-2.54 21.028 2.068 16.258 9.396 29.452 32.384 29.452 51.235 0 9.16-3.122 16.014-8.718 19.325-2.297 1.36-4.948 2.01-7.775 2.01zm-26.153-75.996c-2.768 0-5.242.65-7.48 1.95-5.42 3.132-8.423 9.8-8.423 18.792 0 18.615 13.077 41.366 29.157 50.703 7.717 4.492 15.02 5.2 20.44 2.07s8.423-9.8 8.423-18.792c0-18.615-13.077-41.366-29.157-50.703-4.595-2.66-9.012-4.02-12.96-4.02z"/></g><path d="M171.645 64.988l10.072 17.197 18.614-7.623c-2.77-7.74-7.07-15.306-12.31-21.63l-16.198 11.405c-.236.118-.295.414-.177.65z" class="B"/><path d="M188.84 56.536L173.468 67.35l8.423 14.42 17.847-7.328c-2.71-6.382-6.42-12.587-10.897-17.906z" fill="#f7e6cc"/><path d="M181.598 82.54l-10.2-17.433c-.177-.355-.118-.768.236-1.005l16.434-11.583.176.236c5.36 6.382 9.6 13.887 12.37 21.688l.118.296-19.144 7.8zm-9.66-17.728l9.896 16.96 18.083-7.446c-2.71-7.564-6.833-14.833-12.016-21.038l-15.963 11.228c-.06.118-.06.236 0 .295z" class="D"/><path d="M183.66 77.633c0-4.61-3.24-10.164-7.187-12.47-2.297-1.36-4.417-1.24-5.713-.06-.354.296-.648.71-.884 1.182l-1.53 2.127.942 1.655c.354 4.137 3.063 8.923 6.48 11.228l1 1.714 3.063-.355c.177 0 .353 0 .47-.06 2.062-.236 3.358-2.068 3.358-4.964z" class="B"/><path d="M176.413 67.468c-2.297-1.36-4.418-1.24-5.714-.06-.353.296-.648.71-.883 1.182l-.825 1.182.295.473c.353 4.137 3.063 8.923 6.48 11.228l1 1.714 3.063-.355c.177 0 .354 0 .472-.06 1.708-.295 2.945-1.714 3.24-4.018-.47-4.255-3.475-9.16-7.127-11.287z" class="J"/><path d="M176.65 83.424l-1.06-1.832c-3.475-2.423-6.184-7.15-6.538-11.346l-1-1.773 1.65-2.305a4.73 4.73 0 0 1 .884-1.241l.117-.177-.117.177c1.472-1.24 3.77-1.36 6.067-.06 4.064 2.364 7.363 8.037 7.363 12.764 0 3.014-1.296 5.023-3.535 5.378-.176 0-.353.06-.53.06l-3.298.355zm-7.952-14.95l.883 1.655c.295 4.078 3.004 8.746 6.362 11.05l.06.06.942 1.596 2.886-.295c.177 0 .295 0 .472-.06 1.885-.295 3.063-2.127 3.063-4.787 0-4.49-3.18-9.987-7-12.233-2.12-1.24-4.064-1.24-5.36-.06-.295.295-.59.65-.825 1.123l-1.472 1.95z" class="D"/><path d="M180.363 78.58c0 4.018-2.827 5.673-6.303 3.664s-6.302-6.914-6.302-10.992c0-4.018 2.827-5.673 6.302-3.664s6.303 6.914 6.303 10.992z" class="B"/><path d="M176.885 83.365c-.942 0-1.943-.296-2.945-.886-3.593-2.068-6.48-7.09-6.48-11.228 0-2.068.707-3.605 2.003-4.373s3.004-.59 4.77.473c3.593 2.068 6.48 7.09 6.48 11.228 0 2.068-.707 3.605-2.003 4.373-.59.296-1.178.414-1.826.414zm-5.654-16.37c-.53 0-1.06.118-1.473.355-1.12.65-1.708 2.01-1.708 3.84 0 3.96 2.768 8.746 6.185 10.696 1.6.945 3.063 1.064 4.182.473 1.12-.65 1.708-2.01 1.708-3.84 0-3.96-2.768-8.746-6.185-10.696-1-.532-1.885-.827-2.71-.827z" class="D"/><path d="M174.236 40.996c-16.198-9.396-29.334-1.773-29.334 16.96s13.136 41.603 29.334 50.94c16.198 9.396 29.334 1.773 29.334-16.96s-13.136-41.544-29.334-50.94zm0 63.41c-14.02-8.155-25.387-27.893-25.387-44.144s11.368-22.81 25.387-14.715c14.02 8.155 25.387 27.893 25.387 44.144s-11.368 22.81-25.387 14.715z" class="B"/><path d="M203.334 91.993l-.177-3.723c-2.768-17.02-14.55-35.457-28.686-43.67-16.198-9.396-29.333-1.773-29.333 16.96 0 1.24.06 2.482.176 3.723 2.77 17.02 14.55 35.457 28.686 43.67 16.198 9.397 29.334 1.832 29.334-16.96zm-54.19-25.174c-.353-2.186-.59-4.432-.59-6.56 0-16.25 11.368-22.81 25.387-14.715 13.194 7.623 24.033 25.588 25.27 41.19.353 2.186.59 4.432.59 6.56 0 16.25-11.37 22.81-25.388 14.715-13.135-7.623-23.973-25.53-25.27-41.19z" fill="#f7e6cc"/><path d="M187.3 113.268c-4.064 0-8.6-1.36-13.253-4.078-16.257-9.396-29.452-32.384-29.452-51.235 0-9.16 3.122-16.015 8.718-19.324 5.655-3.25 13.077-2.54 21.028 2.068 16.258 9.396 29.452 32.384 29.452 51.235 0 9.16-3.122 16.014-8.718 19.325-2.297 1.36-4.948 2-7.775 2zm-26.153-75.996c-2.768 0-5.242.65-7.48 1.95-5.42 3.132-8.423 9.8-8.423 18.792 0 18.615 13.077 41.366 29.157 50.703 7.717 4.492 15.02 5.2 20.44 2.07s8.423-9.8 8.423-18.792c0-18.615-13.077-41.366-29.157-50.703-4.595-2.66-9.012-4.02-12.96-4.02zm24.386 70.914c-3.534 0-7.422-1.182-11.486-3.546-14.078-8.155-25.564-28.07-25.564-44.38 0-7.978 2.7-13.946 7.6-16.783s11.368-2.186 18.26 1.773c14.078 8.155 25.564 28.07 25.564 44.38 0 7.978-2.7 13.946-7.598 16.783-2.003 1.182-4.3 1.773-6.774 1.773zm-22.678-65.832c-2.356 0-4.535.532-6.48 1.655-4.712 2.718-7.304 8.5-7.304 16.25 0 16.133 11.3 35.812 25.27 43.907 6.715 3.9 12.96 4.5 17.67 1.773s7.304-8.5 7.304-16.25c0-16.133-11.3-35.8-25.27-43.907-3.947-2.246-7.775-3.428-11.192-3.428zm82.407 1.833l-.236-.118c-.235-.177-.53-.236-.883 0l-3.7 2.127c-.648.355-1.178 1.418-1.178 2.305 0 .473.117.768.353.886l.06.06 1.6.946 2.357-2.127 2.12-2.127.825-1.182-1.296-.768z" class="D"/><path d="M241.266 50.805l-1.826-1.123c-.295-.177-.47-.59-.47-1.123 0-1.005.59-2.127 1.355-2.54l3.7-2.127c.413-.236.884-.236 1.237.06l.177.118 1.532.946-1.002 1.418-2.12 2.186-2.592 2.187zm3.357-6.56a.45.45 0 0 0-.294.118l-3.71 2.127c-.59.355-1.06 1.24-1.06 2.01 0 .532.177.65.235.65l.06.06 1.355.827 2.238-2.01 2.12-2.127.59-.886-1.178-.71c-.118-.06-.236-.06-.354-.06z" class="K"/><path d="M245.8 48.264l-3.71 2.127c-.648.355-1.178 0-1.178-.886s.53-1.89 1.178-2.305l3.71-2.127c.648-.355 1.178 0 1.178.886s-.53 1.89-1.178 2.305z" class="D"/><path d="M241.56 50.864c-.176 0-.294-.06-.47-.118-.353-.236-.59-.65-.59-1.24 0-1.005.59-2.127 1.355-2.54l3.71-2.127c.412-.236.765-.236 1.06-.06.353.236.59.65.59 1.24 0 1.005-.59 2.127-1.355 2.54l-3.71 2.127a.99.99 0 0 1-.589.177zm4.713-5.673c-.118 0-.236.06-.354.118l-3.71 2.127c-.59.355-1.06 1.24-1.06 2.01 0 .355.118.59.294.71s.354 0 .472-.06l3.71-2.127c.59-.355 1.06-1.24 1.06-2.01 0-.355-.118-.59-.236-.71-.06-.06-.118-.06-.176-.06z" class="K"/><path d="M235.025 98.2c2.945-7.623 4.476-15.128 5.124-19.03.413-2.364 1.826-4.373 3.83-5.614l6.303-3.723.06-.71-6.656 3.9c-2.18 1.3-3.71 3.487-4.124 6.028-.706 3.96-2.297 11.82-5.36 19.62l.825-.473z" class="B"/><path d="M234.024 99.144l-.177.473.295-.177-.118-.295zm-11.49-50.112s-14.667 5.082-19.556 16.428c-.06.118-.118.236-.118.355 2.415 5.14 4.24 10.46 5.302 15.66 1.354-6.323 4.77-13.237 12.546-18.142 2.474-.473 4.123-2.777 4.123-6.5-.118-2.305-1.178-5.378-2.297-7.8zm30.16-14.597l8.777-5.023 1.413 4.846.295 4.432-.707 2.955-1.296 2.305-3.24 2.246-5.596 3.3 1.826-3.664.294-3.782-.707-4.6-1.06-3.014z" class="D"/><path d="M238.557 54.94l-.294.177v.7l.648-.354c.06 0 4.83-2.66 7.598-4.196l-.883-.177-7.07 3.84zm-33.34 16.843l-.177 1.24c1 2.896 1.826 5.85 2.415 8.746l.295-1.418c-.6-2.837-1.473-5.673-2.533-8.57z" class="K"/><path d="M182.245 71.783l5.3-2.837 5.478-3.014.766 1.596 3.416 8.155-14.96 5.91 1.06-1.596.354-2.423-.295-3.723-1.12-2.068z" class="D"/><path d="M196.736 75.742l-3.887 1.655.412.414 3.652-1.477-.177-.6zm-43.888 61.25l19.686-22.547-8.078-.25 10.322-19.03-20.3 23.976 8.12-.528-9.74 18.378z" class="B"/><path d="M165.158 112.605l-2.227-.08 5.357-9.85-12.396 14.63 5.17-.358-.913 1.754 2.33-.136-5.38 10.174 12.64-14.445-5.393-.148.81-1.54z" class="J"/><path d="M153.83 119.5l22.656-26.766-11.497 21.187 8.265.275-21.796 24.986 10.68-20.185-8.308.503zm19.293-21.872l-17.96 21.185 7.905-.498-8.72 16.542 17.575-20.108-7.943-.252 9.145-16.87z" class="D"/><path d="M122.432 83.576l-28.865 7.87 6.588 4.682-19.12 10.126 30.174-8.714-7.053-4.058 18.277-9.906z" class="B"/><path d="M98.7 97.064l1.8 1.3-9.9 5.235 18.415-5.314-4.504-2.566 1.73-.954-2.016-1.178 10.107-5.49-18.516 5.026 4.41 3.11-1.525.832z" class="J"/><path d="M111.952 97.608l-33.684 9.725 21.3-11.263-6.734-4.806 31.983-8.72-20.066 10.88 7.2 4.182zm-28.175 7.515l26.686-7.68-6.863-3.963 16.418-8.935-25.767 7 6.478 4.61-16.952 8.972z" class="D"/><path d="M141.587 23.87c0-.13 0-.258-.126-.258l-7.933-4.52c-.25-.258-.88-.517-.88-.517-3.274-1.55-7.807-.904-12.718 2.712-7.555 5.424-13.6 16.4-14.354 25.83-.378 4.778.63 8.523 2.518 10.848l10.073 11.494c.126.13 7.052 4.004 8.06 4.65 0 0 .126 0 .126-.13l.504-19.372c6.044-5.94 10.45-14.852 11.08-22.988l.378-.517 3.274-7.232z" class="B"/><path d="M126.224 74.496c-.126 0-.25 0-.25-.13l-8.185-4.65-10.325-11.88c-1.89-2.583-2.77-6.328-2.393-10.848.756-9.557 6.8-20.534 14.607-26.216 4.9-3.487 9.57-4.52 13.22-2.712l1.007.516 7.933 4.52c.378.13.504.646.252.904l-3.4 7.232-.252.387c-.63 8.007-5.036 16.918-11.08 22.988l-.504 19.5-.252.258c-.126.13-.252.13-.378.13zm-7.68-5.553c.378.258 3.148 1.808 7.304 4.133l.503-18.855.126-.13c6.044-5.94 10.325-14.852 10.955-22.6v-.13l.378-.517L140.957 24l-7.68-4.39c-.252-.258-.882-.517-.882-.517-3.273-1.55-7.68-.646-12.214 2.712-7.43 5.424-13.473 16.143-14.102 25.44-.378 4.52.503 8.136 2.518 10.46l9.947 11.236z" class="F"/><path d="M134.787 42.21l.503-1.033c1.89-4.52 2.896-9.298 2.52-13.56 0-.387-.126-.646-.126-1.033l3.148-2.97c.126-.13.126-.258 0-.258l-7.304-4.262c-.125-.13-.63-.388-.63-.388-2.393-1.29-5.54-1.29-9.066.388-4.156 1.937-8.06 5.553-11.08 9.944l22.036 13.173z" class="C"/><path d="M135.038 42.855l-23.043-13.69.378-.517c3.274-4.65 7.177-8.265 11.207-10.202 3.525-1.68 6.925-1.808 9.443-.387 0 0 .378.258.63.387l7.303 4.262c.126.13.378.258.378.517s0 .387-.252.646l-2.896 2.84c0 .258 0 .517.126.775.378 4.003-.504 8.653-2.393 13.302l-.88 2.066zM113.38 28.908l21.154 12.527.252-.517c2.015-4.65 2.77-9.298 2.52-13.302 0-.387-.126-.646-.126-.904v-.258l3.022-2.84-6.926-4.133c-.252-.13-.63-.387-.63-.387-2.393-1.29-5.29-1.162-8.563.387-3.903 1.808-7.555 5.037-10.703 9.428z" class="F"/><g class="E G I"><path d="M129.002 63.042l-.196.1-.07.2c-.913 2.81-.91 5.733-.526 8.363.04.507-.243 1.128-.654 1.55-.204.21-.396.323-.53.36-.102.028-.135.01-.158-.014L116.686 62.14c-1.768-2.183-2.763-5.77-2.392-10.46.743-9.272 6.707-19.977 14.136-25.438 4.83-3.492 9.148-4.125 12.203-2.677 3.047 1.443 5.077 5.07 5.077 10.638 0 5.18-1.8 10.967-4.7 16.14-2.907 5.165-6.903 9.668-11.27 12.322l-.74.38z"/><path d="M140.956 23.398c-1.65-.91-3.566-1.17-5.62-.843 2.19-.39 4.202-.13 5.872.757 3.153 1.677 5.004 5.568 5.004 10.89 0 5.245-1.82 11.128-4.78 16.38-1.53 2.717-3.355 5.25-5.374 7.43 1.965-2.137 3.73-4.6 5.207-7.228 2.93-5.21 4.76-11.11 4.76-16.454 0-5.256-1.794-9.25-5.07-10.934zm-11.804 40.125l.45-.23a1.92 1.92 0 0 1-.224.137l-.207.106-.064.223c-.654 2.28-.777 4.935-.522 7.942h0l.001.013c.034.315-.03.68-.175 1.043.105-.288.16-.608.105-.923-.368-3.16-.117-5.915.61-8.15l.026-.08v-.08zm-2.424 10.198l-.326.317.326-.317z"/></g><path d="M138.575 36.35l.008-.004.008-.005c.65-.388 1.12-.35 1.398-.18.288.175.56.605.56 1.4s-.278 1.7-.748 2.528-1.105 1.526-1.76 1.92c-.648.388-1.12.35-1.398.18-.288-.175-.56-.605-.56-1.4 0-.8.253-1.713.705-2.535s1.08-1.512 1.788-1.904z" class="C E G"/><path d="M135.513 40.79c0 .657.216 1.228.5 1.6-.316-.33-.56-.854-.56-1.6 0-.92.31-1.927.827-2.834s1.21-1.67 1.938-2.132c.654-.382 1.233-.483 1.716-.348h-.358c-.202 0-.418.05-.6.1l-.572.184-.008.003-.046.016-.042.024c-.805.45-1.497 1.248-1.986 2.13s-.807 1.91-.807 2.86z" class="B E G"/><path d="M131.598 41.13c.306.18.547.62.55 1.365.001.727-.235 1.632-.737 2.523s-1.15 1.553-1.764 1.915c-.63.37-1.122.377-1.428.196s-.547-.62-.548-1.365c-.002-.727.234-1.632.736-2.523s1.15-1.552 1.764-1.915c.63-.37 1.122-.377 1.428-.196z" class="C E G"/><path d="M127.074 45.696c0 .658.215 1.23.5 1.6-.316-.33-.56-.854-.56-1.6 0-.92.3-1.927.827-2.834s1.2-1.67 1.937-2.132c.654-.382 1.233-.483 1.717-.348h-.358c-.203 0-.418.05-.6.1l-.572.184-.008.003-.046.016-.043.024c-.804.45-1.497 1.248-1.985 2.13s-.807 1.91-.807 2.86z" class="B E G"/><path d="M121.812 46.302l.015-.008.015-.01c.65-.388 1.12-.35 1.398-.18.288.175.56.605.56 1.4s-.278 1.7-.748 2.528-1.105 1.526-1.76 1.92c-.648.388-1.12.35-1.398.18-.288-.175-.56-.605-.56-1.4 0-.86.282-1.802.75-2.625s1.093-1.48 1.73-1.805z" class="C E G"/><g class="B"><path d="M118.764 50.603c0 .657.216 1.228.5 1.6-.316-.33-.56-.854-.56-1.6 0-.92.31-1.927.827-2.834s1.21-1.67 1.938-2.132c.658-.384 1.24-.485 1.727-.346l-.09.046-.027-.008h-.001c-.04-.012-.135-.04-.25-.04-.202 0-.418.05-.6.1l-.572.184-.008.003-.046.016-.042.024c-.805.45-1.497 1.248-1.986 2.13s-.807 1.91-.807 2.86z" class="E G"/><path d="M107.586 57.06l10.2 5.81-10.2-5.81z"/></g><path d="M107.772 56.588l-.494.9 10.214 5.877.493-.9-10.213-5.876z" class="F"/><path d="M105.57 48.28l10.2 5.812-10.2-5.812z" class="B"/><path d="M105.815 47.867l-.494.9 10.213 5.878.494-.9-10.213-5.878z" class="F"/><path d="M123.58 18.834l10.2 5.81-10.2-5.81z" class="B"/><path d="M123.72 18.377l-.493.9 10.213 5.877.493-.9-10.213-5.876z" class="F"/><path d="M154.136 71.56c0-.057 0-.115-.055-.115l-3.458-2.01c-.11-.115-.384-.23-.384-.23-1.427-.69-3.403-.402-5.543 1.205-3.294 2.41-5.928 7.3-6.257 11.48-.165 2.124.274 3.788 1.097 4.822l4.39 5.11c.055.057 3.074 1.78 3.513 2.066 0 0 .055 0 .055-.057l.22-8.6c2.635-2.64 4.556-6.6 4.83-10.217l.165-.23 1.427-3.214z" class="B"/><path d="M147.44 94.062c-.055 0-.1 0-.1-.057l-3.567-2.066-4.5-5.28c-.823-1.148-1.208-2.813-1.043-4.822.33-4.248 2.964-9.126 6.367-11.652 2.14-1.55 4.17-2.01 5.763-1.205l.44.23 3.458 2.01c.165.057.22.287.1.402l-1.482 3.214-.1.172c-.274 3.56-2.195 7.52-4.83 10.217l-.22 8.667-.11.115c-.055.057-.1.057-.165.057zm-3.348-2.468c.165.115 1.372.804 3.183 1.837l.22-8.38.055-.057c2.634-2.64 4.5-6.6 4.775-10.045V74.9l.165-.23 1.372-3.042-3.348-1.952c-.1-.115-.385-.23-.385-.23-1.427-.69-3.348-.287-5.324 1.205-3.238 2.41-5.872 7.175-6.147 11.308-.164 2.01.22 3.616 1.098 4.65l4.336 4.994z" class="F"/><path d="M151.173 79.712l.22-.46c.823-2.01 1.263-4.133 1.098-6.027 0-.172-.055-.287-.055-.46l1.372-1.32c.055-.057.055-.115 0-.115l-3.183-1.894c-.055-.057-.275-.172-.275-.172-1.043-.574-2.415-.574-3.952.172-1.81.86-3.512 2.468-4.83 4.42l9.606 5.855z" class="C"/><path d="M151.282 80l-10.045-6.084.165-.23c1.427-2.066 3.13-3.674 4.885-4.535 1.537-.746 3.02-.804 4.116-.172l.275.172 3.183 1.894c.055.057.165.115.165.23s0 .172-.1.287l-1.262 1.263c0 .115 0 .23.055.344.164 1.78-.22 3.846-1.043 5.912l-.384.918zm-9.44-6.2l9.22 5.568.1-.23c.878-2.066 1.207-4.133 1.098-5.912 0-.172-.055-.287-.055-.402v-.115l1.317-1.263-3.02-1.837c-.1-.057-.274-.172-.274-.172-1.043-.574-2.306-.517-3.733.172-1.7.803-3.293 2.24-4.665 4.2z" class="F"/><path d="M148.51 88.708l-.196.102-.067.2c-.414 1.3-.41 2.642-.242 3.836a.51.51 0 0 1-.046.212.82.82 0 0 1-.155.24l-4.287-4.927c-.706-.892-1.133-2.4-.976-4.437.318-4.04 2.876-8.717 6.043-11.09 2.06-1.518 3.817-1.733 5.004-1.16 1.182.57 2.044 2.044 2.044 4.46 0 2.242-.762 4.764-2.013 7.03-1.247 2.26-2.953 4.215-4.798 5.36l-.147.077-.164.086z" class="E G I"/><mask id="A" class="C"><use xlink:href="#T"/></mask><use xlink:href="#T" class="I"/><path d="M147.33 94.004l-.817.695.02.024.022.022.775-.74zm-4.446-5.223l-.852.65.017.022.02.02.816-.695zm-1.098-4.88l1.07.085v-.002l-1.07-.083zm6.367-11.652l.64.86.005-.004-.644-.857zm5.928-1.148l.51-.942h-.001l-.5.943zm-4.885 18.08l.497.95.03-.016.03-.018-.558-.915zm-.275.172l-.496-.95-.4.214-.126.445 1.032.3zm-.22 3.444l-1.068.09.002.024 1.066-.113zm-.714 1.32l-.438-.978-.03.013-.028.015.496.95zm-4.665-5.5l-.835.672.01.01.01.01.817-.694zm4.336 5.108l-.817.694.02.024.022.023.775-.74zm.1 0l-.497-.95-.156.082-.122.127.775.74zm.44-.803l-1.065.122.004.04.008.04 1.053-.2zm.274-3.73l1.022.326.05-.16v-.167h-1.073zm0-.115l-.774-.74-.298.31v.43h1.072zm.055-.057l-.496-.95-.157.082-.122.127.775.74zm.33-.172l.496.95.027-.014.027-.016-.55-.92zm4.885-17.277l-.527.934.015.008.015.008.497-.95zm-5.434 1.09l-.635-.864-.005.004.64.86zM142.17 83.96l-1.07-.07-.001.01 1.07.06zm5.544 9.145c.05 0 .14.01.24.057s.145.096.152.102l-1.55 1.482c.116.12.276.26.494.36.225.104.45.143.665.143v-2.144zm.432.205l-4.446-5.223-1.632 1.4 4.445 5.223 1.633-1.4zm-4.41-5.18c-.662-.866-1.032-2.234-.88-4.142l-2.137-.17c-.178 2.224.22 4.186 1.314 5.615l1.703-1.303zm-.88-4.145c.306-3.948 2.79-8.54 5.937-10.874l-1.278-1.722c-3.66 2.716-6.444 7.883-6.797 12.43l2.138.166zm5.942-10.877c1.974-1.483 3.706-1.64 4.774-1.062l1.02-1.886c-2.115-1.144-4.775-.498-7.082 1.234l1.288 1.715zm4.773-1.063c1 .537 1.744 1.9 1.744 4.11h2.144c0-2.603-.892-4.923-2.866-5.993l-1.022 1.885zm1.744 4.11c0 2.158-.74 4.635-1.98 6.88s-2.92 4.152-4.696 5.235l1.116 1.83c2.176-1.328 4.1-3.554 5.457-6.03s2.247-5.3 2.247-7.916h-2.144zm-6.615 12.08c-.122.064-.213.128-.253.157s-.033.022-.02.016l.993 1.9c.122-.064.213-.128.254-.157s.033-.022.02-.015l-.994-1.9zm-.8.832c-.32 1.144-.37 2.432-.255 3.823l2.136-.178c-.104-1.25-.044-2.257.184-3.065l-2.065-.58zm-.253 3.847c-.002-.02.002-.015-.007.022s-.027.08-.054.13-.054.083-.073.102-.01.003.048-.024l.877 1.957c.474-.213.814-.623 1.017-.984.2-.373.382-.884.324-1.428l-2.132.227zm-.144.257a.57.57 0 0 1 .18-.06c.038-.005.066-.005.042-.005v2.144c.066 0 .4.01.77-.18l-.993-1.9zm-4.986-3.867l4.336 5.11 1.634-1.388-4.336-5.11-1.634 1.388zm5.153 4.415l-.774.742.025.025c.01.01.02.02.032.03.022.02.05.045.085.07a1.16 1.16 0 0 0 .313.167 1.14 1.14 0 0 0 .608.04c.252-.053.453-.183.596-.333l-1.55-1.482a.99.99 0 0 1 .515-.284c.22-.046.408-.01.537.034s.213.102.264.14a1.08 1.08 0 0 1 .072.059c.01.01.02.018.028.026l.018.02c.006.006.006.006-.77.747zm.607.95c.345-.18.597-.486.748-.74.144-.244.346-.695.247-1.214l-2.106.403a.57.57 0 0 1 .003-.249c.008-.03.016-.04.01-.032s.003-.001.018-.012a.53.53 0 0 1 .085-.054l.994 1.9zm1.007-1.876c-.15-1.315-.044-2.42.23-3.283l-2.043-.65c-.384 1.205-.497 2.624-.318 4.18l2.13-.245zm.282-3.61v-.115h-2.145v.115h2.145zm-.298.626l.055-.057-1.55-1.482-.054.057 1.55 1.482zm-.223.152l.165-.086.164-.086-.993-1.9-.165.086-.164.086.993 1.9zm.383-.202c2.127-1.27 3.988-3.43 5.314-5.834s2.178-5.168 2.178-7.714h-2.144c0 2.103-.714 4.508-1.91 6.68s-2.822 4.004-4.537 5.03l1.1 1.84zM156.9 76.21c0-2.475-.83-4.642-2.66-5.6l-.993 1.9c.804.42 1.5 1.583 1.5 3.7h2.144zm-2.63-5.584c-1.977-1.113-4.434-.427-6.595 1.16l1.27 1.728c1.9-1.397 3.395-1.514 4.272-1.02l1.053-1.868zm-6.6 1.165c-3.49 2.597-6.282 7.648-6.577 12.097l2.14.142c.254-3.817 2.73-8.294 5.718-10.52l-1.28-1.72zM141.1 83.9c-.118 2.1.282 4.01 1.388 5.382l1.67-1.345c-.65-.808-1.02-2.113-.917-3.917l-2.14-.12z" mask="url(#A)" class="H"/><path d="M152.974 77.367l.01-.005.008-.005c.11-.067.186-.086.23-.09s.054.005.058.008.104.074.104.37c0 .29-.102.644-.29.98s-.432.602-.662.743a.55.55 0 0 1-.23.089c-.04.003-.054-.005-.06-.008s-.103-.074-.103-.37.095-.658.272-.987.416-.588.662-.727z" class="C E G"/><mask id="B" class="C"><use xlink:href="#U"/></mask><use xlink:href="#U" class="B"/><path d="M151.722 80.114l-.57.908.102.064.115.04.352-1.012zm.824-3.444l-.55-.92-.015.01-.015.01.58.9zm1.098-.115l.57-.908-.035-.022-.038-.02-.496.95zM152.82 80l-.58-.902-.042.027-.04.03.66.844zm0-2.927l-.353-1.012-.093.032-.085.05.53.93zm-.878 2.64l-.775.74.074.077.088.06.613-.88zm.66-.115l-.532-.93-.02.01-.02.012.57.908zm.878-2.64l.775-.74-.317-.33h-.458v1.072zm-1.317 2.2a.42.42 0 0 1 .069.006c.02.004.034.008.032.007a.86.86 0 0 1-.05-.018l-.138-.05-.705 2.025c.017.006.39.175.792.175v-2.144zm.13.05c.028.018.035.033.033.028s-.024-.048-.024-.153h-2.145c0 .84.373 1.55.997 1.94l1.14-1.816zm.01-.125c0-.237.082-.546.255-.855s.39-.54.57-.654l-1.16-1.803c-.535.344-.976.862-1.283 1.412s-.527 1.218-.527 1.9h2.145zm.795-1.5a.67.67 0 0 1 .107-.053c.025-.01.037-.01.036-.01a.13.13 0 0 1-.034-.002c-.02-.004-.042-.01-.058-.02l.993-1.9c-.776-.406-1.572-.197-2.144.145l1.1 1.84zm-.022-.127c-.028-.017-.035-.033-.033-.028s.024.048.024.153h2.145c0-.84-.373-1.55-.997-1.94l-1.14 1.816zm-.01.125c0 .237-.082.546-.255.855s-.39.54-.57.654l1.16 1.803c.535-.344.976-.862 1.283-1.412s.527-1.218.527-1.9h-2.145zm-.906 1.567l.003 2.145c.433 0 .892-.123 1.32-.458l-1.323-1.687zm1.1-3.27a1.82 1.82 0 0 0-.493.077l-.3.098.706 2.025.11-.038.072-.023.01-.003c-.005.001-.016.003-.032.005a.68.68 0 0 1-.074.004v-2.144zm-.97.256c-.527.3-.925.793-1.186 1.273-.264.486-.453 1.077-.453 1.667h2.145c0-.156.058-.397.192-.643.137-.252.288-.39.364-.435l-1.062-1.863zm-1.64 2.94c0 .538.2 1.04.517 1.372l1.55-1.482a.5.5 0 0 1 .06.076c.01.016.014.026.015.03l-2.142.003zm.68 1.51a1.43 1.43 0 0 0 1.107.223 2.18 2.18 0 0 0 .734-.309l-1.14-1.816c-.1.056-.084.036-.007.02a.65.65 0 0 1 .23-.001c.107.018.21.06.3.123l-1.226 1.76zm1.803-.063c.527-.3.925-.793 1.186-1.273.264-.486.453-1.077.453-1.667h-2.145c0 .156-.058.397-.192.643-.137.252-.288.39-.365.435l1.063 1.862zm1.64-2.94c0-.538-.2-1.04-.517-1.372l-1.55 1.482a.44.44 0 0 1-.06-.076l-.016-.03 2.143-.003zm-1.292-1.703h-.204l-.016 2.144h.204l.016-2.144z" mask="url(#B)" class="H"/><path d="M149.638 79.493h0c.004.002.022.013.044.064a.72.72 0 0 1 .044.274c.001.262-.084.613-.283.973s-.448.612-.665.743a.65.65 0 0 1-.249.097c-.053.006-.072-.005-.075-.007h0c-.003-.002-.022-.013-.043-.064s-.045-.144-.045-.274c0-.262.085-.613.283-.973s.448-.612.665-.743c.108-.065.193-.09.25-.097s.07.005.074.007h0z" class="C E G"/><mask id="C" class="C"><use xlink:href="#V"/></mask><use xlink:href="#V" class="B"/><path d="M148.045 82.295l-.57.908.103.064.114.04.353-1.012zm.823-3.444l-.55-.92-.015.01-.015.01.58.902zm1.098-.115l.57-.908-.036-.022-.037-.02-.497.95zm-.823 3.444l-.58-.9-.042.027-.04.03.662.844zm0-2.927l-.353-1.012-.093.032-.086.05.532.93zm-.88 2.64l-.775.74.074.077.088.06.613-.88zm.66-.115l-.53-.93-.02.01-.02.012.57.908zm.878-2.64l.775-.74-.317-.33h-.458v1.072zm-1.317 2.2c.023 0 .047.002.07.006l.032.007-.05-.018-.137-.05-.706 2.025c.017.006.39.174.792.174v-2.144zm.13.05c.027.017.035.033.032.028s-.024-.048-.024-.153h-2.144c0 .84.372 1.55.996 1.94l1.14-1.816zm.008-.125c0-.237.083-.546.255-.855s.39-.538.57-.654l-1.16-1.803c-.534.344-.975.862-1.282 1.412s-.527 1.218-.527 1.9h2.144zm.795-1.5a.66.66 0 0 1 .107-.053c.025-.01.037-.01.036-.01s-.014.001-.034-.002-.04-.01-.058-.02l.994-1.9c-.777-.406-1.573-.197-2.145.145l1.1 1.84zm-.022-.127c-.028-.018-.035-.033-.032-.028s.024.048.024.153h2.144c0-.84-.373-1.55-.996-1.94l-1.14 1.816zm-.008.125c0 .237-.083.546-.256.855s-.4.538-.57.654l1.16 1.803c.534-.344.975-.862 1.282-1.413s.527-1.218.527-1.9h-2.144zm-.907 1.567l.003 2.145c.433 0 .892-.123 1.32-.458l-1.323-1.687zm1.1-3.27c-.21 0-.398.05-.493.077l-.3.098.705 2.025.1-.037.072-.023.01-.003-.033.005c-.016.002-.04.004-.073.004v-2.144zm-.97.256c-.527.3-.925.793-1.186 1.273-.264.486-.452 1.077-.452 1.667h2.144c0-.156.058-.397.192-.643.137-.252.288-.39.365-.435l-1.063-1.862zm-1.638 2.94c0 .538.2 1.04.516 1.372l1.55-1.482a.44.44 0 0 1 .06.076l.016.03h-2.142zm.678 1.51c.37.258.778.287 1.108.223a2.2 2.2 0 0 0 .734-.309l-1.14-1.816c-.1.056-.084.036-.007.02.047-.01.127-.018.23-.001s.21.06.3.123l-1.226 1.76zm1.803-.063c.527-.3.925-.793 1.186-1.273.264-.486.453-1.077.453-1.667h-2.144c0 .156-.06.397-.193.643-.137.252-.288.39-.364.435l1.062 1.862zm1.64-2.94c0-.538-.2-1.04-.517-1.372l-1.55 1.482a.47.47 0 0 1-.059-.076c-.01-.016-.014-.026-.016-.03l2.142-.003zm-1.292-1.703h-.205l-.014 2.144h.204l.015-2.144z" mask="url(#C)" class="H"/><path d="M145.658 81.793l.016-.008.015-.01c.11-.067.187-.086.23-.09s.054.005.06.008.103.074.103.37c0 .29-.102.644-.29.98s-.43.603-.662.743c-.11.066-.186.086-.23.09s-.054-.005-.058-.008-.104-.074-.104-.37c0-.324.106-.694.29-1.024s.42-.573.63-.682z" class="C E G"/><mask id="D" class="C"><use xlink:href="#W"/></mask><use xlink:href="#W" class="B"/><path d="M144.422 84.475l-.57.908.102.064.115.04.353-1.012zm.823-3.444l-.55-.92-.015.01-.015.01.58.9zm1.098-.115l.57-.908-.036-.022-.037-.02-.497.95zm-.824 3.444l-.58-.902-.042.027-.04.03.66.844zm0-2.927l-.352-1.012-.093.032-.086.05.53.93zm-.878 2.64l-.775.74.074.077.088.06.613-.88zm.66-.115l-.53-.93-.02.01-.02.012.57.908zm.878-2.64l.775-.74-.557-.583-.715.374.497.95zm-1.317 2.2c.023 0 .047.002.07.006l.032.007-.05-.018-.137-.05-.706 2.025c.017.006.39.175.792.175v-2.144zm.13.05c.027.017.035.033.032.028s-.024-.048-.024-.153h-2.144c0 .84.372 1.55.996 1.94l1.14-1.816zm.008-.125c0-.237.083-.546.255-.855s.39-.54.57-.654l-1.16-1.803c-.534.344-.975.862-1.282 1.412s-.527 1.218-.527 1.9H145zm.795-1.5a.67.67 0 0 1 .107-.053c.025-.01.037-.01.036-.01a.13.13 0 0 1-.034-.002c-.02-.004-.04-.01-.058-.02l.994-1.9c-.777-.406-1.573-.197-2.145.145l1.1 1.84zm-.022-.127c-.028-.018-.035-.033-.032-.028s.024.048.024.153h2.144c0-.84-.373-1.55-.996-1.94l-1.14 1.816zm-.008.125c0 .237-.083.546-.256.855s-.4.54-.57.654l1.16 1.803c.534-.344.975-.862 1.282-1.412s.527-1.218.527-1.9h-2.144zm-.907 1.567l.003 2.145c.433 0 .892-.123 1.32-.458l-1.323-1.687zm1.1-3.27c-.21 0-.398.05-.493.077l-.3.098.705 2.025.1-.038.072-.023.01-.003-.033.005a.66.66 0 0 1-.073.004v-2.144zm-.97.256c-.527.3-.925.793-1.186 1.273-.264.486-.452 1.077-.452 1.667h2.144c0-.156.058-.397.192-.643.137-.252.288-.39.365-.435l-1.063-1.862zm-1.638 2.94c0 .538.2 1.04.516 1.372l1.55-1.482c.033.034.05.06.06.076l.016.03-2.142.003zm.678 1.51c.37.258.778.287 1.108.223a2.2 2.2 0 0 0 .734-.309l-1.14-1.816c-.1.056-.084.036-.007.02a.65.65 0 0 1 .23-.001c.107.018.21.06.3.123l-1.226 1.76zm1.803-.063c.527-.3.925-.793 1.186-1.273.264-.486.453-1.077.453-1.667h-2.144c0 .156-.06.397-.193.643-.137.252-.288.39-.364.435l1.062 1.862zm1.64-2.94c0-.538-.2-1.04-.517-1.372l-1.55 1.482c-.032-.034-.05-.06-.06-.076s-.014-.026-.016-.03l2.142-.003zm-1.79-1.58a.86.86 0 0 1 .291-.09.9.9 0 0 1 .295.012l.065.016-.133-.035c-.058-.012-.14-.025-.24-.025V82.4c-.087 0-.156-.01-.2-.02l-.075-.02c-.032-.01.062.02.143.038.107.022.247.038.41.017a1.29 1.29 0 0 0 .436-.138l-.994-1.9z" mask="url(#D)" class="H"/><path d="M139.316 86.313l4.446 2.583-4.446-2.583z" class="B"/><path d="M139.398 86.102l-.215.4 4.452 2.612.215-.4-4.452-2.612z" class="F"/><path d="M138.438 82.41l4.446 2.583-4.446-2.583z" class="B"/><path d="M138.544 82.226l-.215.4 4.452 2.612.215-.4-4.452-2.612z" class="F"/><path d="M146.29 69.323l4.446 2.583-4.446-2.583z" class="B"/><path d="M146.35 69.12l-.215.4 4.452 2.612.215-.4-4.452-2.612z" class="F"/><path d="M133.525 105.152c0-.065 0-.13-.06-.13l-3.865-2.245c-.123-.128-.43-.257-.43-.257-1.595-.77-3.804-.45-6.196 1.348-3.68 2.694-6.625 8.147-6.993 12.83-.184 2.374.306 4.234 1.227 5.39l4.907 5.71c.06.064 3.435 1.99 3.926 2.3 0 0 .06 0 .06-.064l.246-9.623c2.944-2.95 5.09-7.378 5.398-11.42l.184-.257 1.595-3.592z" class="B"/><path d="M126.04 130.3c-.06 0-.123 0-.123-.064l-3.987-2.3-5.03-5.902c-.92-1.283-1.35-3.143-1.166-5.388.368-4.748 3.313-10.2 7.116-13.023 2.393-1.732 4.662-2.245 6.44-1.347l.49.256 3.865 2.246c.184.064.245.32.122.45l-1.656 3.592-.123.193c-.306 3.977-2.453 8.404-5.398 11.42l-.245 9.687-.123.128c-.06.064-.123.064-.184.064zm-3.742-2.758c.184.128 1.534.898 3.558 2.052l.245-9.366.062-.064c2.944-2.95 5.03-7.377 5.337-11.227v-.064l.184-.256 1.533-3.4-3.742-2.182c-.122-.128-.43-.256-.43-.256-1.595-.77-3.742-.32-5.95 1.347-3.62 2.694-6.563 8.02-6.87 12.638-.184 2.245.245 4.042 1.227 5.196l4.846 5.582z" class="F"/><path d="M130.213 114.26l.245-.513c.92-2.245 1.41-4.62 1.227-6.736 0-.192-.06-.32-.06-.513l1.533-1.476c.062-.064.062-.128 0-.128l-3.558-2.117c-.06-.064-.306-.192-.306-.192-1.166-.642-2.7-.642-4.417.192-2.025.962-3.926 2.76-5.398 4.94l10.735 6.543z" class="C"/><path d="M130.334 114.582l-11.226-6.8.184-.257c1.595-2.31 3.497-4.106 5.46-5.068 1.718-.834 3.374-.898 4.6-.192l.307.192 3.558 2.117c.06.064.184.128.184.257s0 .192-.123.32l-1.41 1.412c0 .128 0 .256.06.385.184 1.988-.245 4.298-1.165 6.607l-.43 1.027zm-10.55-6.93l10.306 6.223.123-.257c.98-2.31 1.35-4.618 1.227-6.607 0-.193-.062-.32-.062-.45v-.13l1.472-1.41-3.373-2.053c-.123-.064-.307-.192-.307-.192-1.166-.642-2.577-.578-4.172.192-1.9.898-3.68 2.502-5.214 4.683z" class="F"/><path d="M127.266 124.372l-.196.102-.066.2c-.46 1.442-.457 2.934-.268 4.262.008.156-.084.4-.246.558l-.045.044-4.837-5.557c-.803-1.014-1.282-2.72-1.105-5.004.357-4.532 3.225-9.778 6.78-12.442 2.312-1.704 4.302-1.958 5.658-1.303s2.32 2.328 2.32 5.042c0 2.52-.855 5.35-2.257 7.89-1.398 2.533-3.313 4.727-5.386 6.016l-.35.183z" class="E G I"/><mask id="E" class="C"><use xlink:href="#X"/></mask><use xlink:href="#X" class="I"/><path d="M125.92 130.235l-.816.695.02.024.02.022.775-.74zm-4.97-5.837l-.85.65.017.022.018.02.816-.694zm-1.227-5.453l1.07.085v-.003l-1.07-.082zm7.116-13.023l.64.86.005-.004-.644-.857zm6.625-1.283l.51-.943h-.001l-.5.943zm-5.46 20.208l.496.95.032-.017.03-.018-.558-.915zm-.307.192l-.497-.95-.4.214-.125.446 1.032.3zm-.245 3.85l-1.07.09.002.024 1.067-.113zm-.798 1.476l-.438-.98-.03.014-.03.015.497.95zm-5.214-6.16l-.835.672.018.022.817-.694zm4.846 5.7l-.817.693.02.025.022.022.775-.74zm.123 0l-.497-.95-.156.082-.122.128.775.74zm.49-.9l-1.066.123.005.04.007.04 1.054-.202zm.306-4.17l1.022.325.05-.16v-.166h-1.072zm0-.13l-.775-.74-.297.31v.43h1.072zm.062-.064l-.497-.95-.156.082-.122.127.775.74zm.368-.192l.496.95.027-.014.027-.016-.55-.92zm5.46-19.3l-.526.934.015.008.014.008.497-.95zm-6.073 1.22l-.635-.864-.005.004.64.86zm-6.87 12.638l-1.07-.07-.001.01 1.07.06zm6.195 10.347c.04 0 .12.008.215.05.042.02.075.042.098.06l.025.02-1.542 1.49c.123.128.3.27.515.376.23.107.466.148.69.148v-2.144zm.387.184l-4.968-5.837-1.633 1.39 4.97 5.838 1.632-1.4zm-4.933-5.794c-.766-1-1.18-2.565-1-4.716l-2.137-.17c-.197 2.468.247 4.625 1.444 6.2l1.703-1.303zm-1-4.72c.345-4.447 3.14-9.612 6.686-12.244l-1.278-1.722c-4.06 3.013-7.154 8.754-7.546 13.8l2.138.165zm6.69-12.248c2.226-1.672 4.216-1.876 5.47-1.197l1.02-1.886c-2.302-1.246-5.22-.553-7.78 1.368l1.288 1.715zm5.47-1.198c1.164.63 2.016 2.2 2.016 4.703h2.144c0-2.887-.99-5.423-3.138-6.588l-1.022 1.885zm2.016 4.703c0 2.44-.836 5.228-2.228 7.75s-3.286 4.673-5.295 5.898l1.117 1.83c2.41-1.47 4.534-3.94 6.055-6.692s2.495-5.9 2.495-8.786h-2.144zm-7.46 13.612c-.128.068-.224.136-.27.167l-.037.026.994 1.9c.128-.067.224-.135.27-.167s.043-.028.037-.025l-.993-1.9zm-.842.853c-.354 1.26-.4 2.682-.282 4.228l2.137-.178c-.117-1.405-.05-2.548.21-3.47l-2.064-.58zm-.28 4.252c0-.006.003.017-.01.07a.74.74 0 0 1-.072.175.71.71 0 0 1-.101.14c-.033.033-.033.02.015 0l.877 1.957c.497-.223.86-.656 1.078-1.046.226-.402.408-.947.347-1.52l-2.133.226zm-.228.413c.07-.037.13-.05.162-.055s.055-.003.028-.003v2.144c.073 0 .43.01.804-.186l-.994-1.9zm-5.534-4.515l4.846 5.71 1.634-1.387-4.846-5.7-1.634 1.388zm5.663 5.016l-.774.74c.016.016.02.02.025.026s.02.02.032.03a1.33 1.33 0 0 0 .086.07c.064.048.17.118.316.17a1.14 1.14 0 0 0 .612.04 1.16 1.16 0 0 0 .601-.335l-1.55-1.482c.114-.12.285-.235.5-.282a1.01 1.01 0 0 1 .533.034c.123.043.21.1.26.14.028.02.05.04.07.058.01.01.02.018.028.026l.018.02c.006.005.006.006-.77.747zm.62.95c.358-.188.624-.51.786-.78.155-.262.363-.733.26-1.27l-2.107.403c-.023-.123-.003-.204.002-.222s.01-.022-.001-.004a.28.28 0 0 1-.024.032c.024-.02.05-.038.09-.06l.994 1.9zm1.06-1.97c-.17-1.484-.05-2.74.263-3.722l-2.043-.65c-.423 1.326-.548 2.894-.35 4.618l2.13-.245zm.313-4.047v-.13h-2.144v.13h2.144zm-.297.612l.06-.064-1.55-1.482-.062.064 1.55 1.482zm-.217.145l.368-.192-.993-1.9-.368.192.993 1.9zm.422-.222c2.353-1.406 4.42-3.8 5.894-6.473s2.418-5.74 2.418-8.56h-2.144c0 2.376-.806 5.086-2.152 7.525s-3.175 4.508-5.116 5.668l1.1 1.84zm8.312-15.034c0-2.745-.92-5.108-2.906-6.146l-.994 1.9c.96.5 1.756 1.86 1.756 4.246h2.144zm-2.877-6.13c-2.144-1.208-4.834-.475-7.234 1.29l1.27 1.728c2.14-1.573 3.867-1.738 4.912-1.15l1.052-1.868zm-7.24 1.293c-3.87 2.88-6.972 8.492-7.3 13.427l2.14.142c.286-4.304 3.072-9.34 6.44-11.85l-1.28-1.72zm-7.3 13.438c-.13 2.33.315 4.427 1.524 5.928l1.67-1.344c-.754-.937-1.167-2.43-1.053-4.464l-2.14-.12z" mask="url(#E)" class="H"/><path d="M132.195 111.586l.008-.004.008-.005c.26-.16.37-.1.39-.09.03.02.145.124.145.467 0 .336-.118.744-.33 1.127s-.493.69-.762.853c-.26.16-.37.1-.388.09-.03-.02-.146-.124-.146-.467s.11-.757.312-1.133.476-.675.765-.838z" class="C E G"/><mask id="F" class="C"><use xlink:href="#Y"/></mask><use xlink:href="#Y" class="B"/><path d="M130.827 114.71l-.57.908.102.065.115.04.352-1.012zm.92-3.85l-.55-.92-.016.01-.015.01.58.902zm1.227-.128l.57-.91-.035-.022-.038-.02-.496.95zm-.92 3.85l-.58-.902-.042.027-.04.03.66.844zm0-3.272l-.353-1.012-.092.032-.086.05.53.93zm-.98 2.95l-.775.74.074.077.088.06.613-.88zm.736-.128l-.53-.932-.02.012-.02.012.57.908zm.98-2.95l.775-.74-.316-.33h-.46v1.072zm-1.472 2.584c.018 0 .038.002.056.005l.02.004c-.01-.002-.024-.008-.063-.022l-.15-.055-.705 2.024c.036.013.42.188.843.188v-2.144zm.08.036c.012.007.005.008-.01-.018s-.04-.094-.04-.23h-2.144c0 .9.4 1.65 1.055 2.063l1.14-1.816zm-.05-.247c0-.29.1-.657.302-1.017s.458-.633.68-.776l-1.16-1.803c-.576.37-1.056.933-1.39 1.534s-.573 1.327-.573 2.062h2.144zm.95-1.774a.6.6 0 0 1 .21-.088c-.013-.003-.023-.007-.03-.01l.993-1.9c-.815-.427-1.656-.21-2.273.158l1.1 1.84zm.107-.14c-.012-.008-.005-.008.01.018s.04.093.04.228h2.145c0-.9-.4-1.65-1.055-2.063l-1.14 1.817zm.05.246c0 .29-.1.658-.3 1.018s-.458.633-.68.775l1.16 1.803c.576-.37 1.056-.933 1.39-1.534s.573-1.326.573-2.062h-2.145zm-1.06 1.85c-.016.012-.026.02-.032.02a.12.12 0 0 1-.043.007v2.144c.46 0 .944-.13 1.398-.485l-1.323-1.687zm1.152-3.628c-.217 0-.412.05-.516.08l-.328.107.706 2.024.124-.042.086-.027.023-.007a.44.44 0 0 1-.095.008v-2.144zm-1.022.27c-.563.32-.993.85-1.277 1.373-.287.53-.49 1.17-.49 1.803h2.145c0-.2.072-.49.23-.78.16-.295.343-.47.456-.535l-1.063-1.862zm-1.768 3.176c0 .572.213 1.1.543 1.447l1.55-1.482c.03.03.044.054.05.063s.002-.004.002-.028h-2.145zm.705 1.585a1.47 1.47 0 0 0 1.141.229c.31-.06.577-.202.778-.328l-1.14-1.816a.67.67 0 0 1-.089.049c-.014.007 0-.001.04-.01a.6.6 0 0 1 .211 0 .71.71 0 0 1 .286.116l-1.226 1.76zm1.88-.076c.563-.32.993-.85 1.277-1.373.288-.53.49-1.17.49-1.804h-2.144c0 .2-.073.5-.23.78-.16.296-.344.47-.456.535l1.062 1.863zm1.768-3.177c0-.57-.212-1.1-.543-1.446l-1.55 1.482a.36.36 0 0 1-.051-.064c-.006-.01-.001.004-.001.028h2.144zm-1.318-1.777h-.245v2.144h.245v-2.144z" mask="url(#F)" class="H"/><path d="M128.53 113.963c.027.016.13.1.13.434.001.305-.098.71-.325 1.118s-.51.7-.765.853c-.27.162-.398.116-.424.1s-.13-.1-.13-.434c-.001-.306.098-.71.324-1.12s.512-.7.766-.853c.27-.16.397-.116.424-.1z" class="C E G"/><mask id="G" class="C"><use xlink:href="#Z"/></mask><use xlink:href="#Z" class="B"/><path d="M126.718 117.15l-.57.908.103.064.114.04.353-1.012zm.92-3.85l-.55-.92-.015.01-.015.01.58.902zm1.227-.13l.57-.908-.036-.022-.037-.02-.497.95zm-.92 3.85l-.58-.902-.042.027-.04.03.662.844zm0-3.272l-.353-1.013-.093.033-.085.05.53.93zm-.98 2.95l-.775.74.074.077.087.06.614-.88zm.736-.128l-.532-.932-.02.01-.02.012.57.91zm.98-2.95l.775-.74-.317-.332h-.458v1.073zm-1.472 2.584c.018 0 .037.002.056.005l.02.004-.062-.022-.15-.055-.706 2.024c.037.013.422.188.844.188v-2.144zm.08.036c.012.007.004.007-.01-.018s-.04-.094-.04-.23h-2.144c0 .9.398 1.65 1.054 2.063l1.14-1.816zm-.05-.247c0-.29.1-.657.3-1.017s.458-.633.68-.776l-1.16-1.803c-.576.37-1.056.933-1.39 1.534s-.573 1.327-.573 2.062h2.144zm.95-1.774c.118-.07.188-.085.2-.088-.012-.003-.023-.007-.03-.01l.994-1.9c-.815-.426-1.656-.2-2.274.158l1.1 1.84zm.107-.14c-.01-.008-.004-.008.01.018s.04.093.04.228h2.144c0-.9-.398-1.65-1.054-2.063l-1.14 1.817zm.05.246c0 .29-.1.658-.3 1.018s-.458.633-.68.775l1.16 1.803c.576-.37 1.056-.933 1.392-1.534s.572-1.326.572-2.062h-2.144zm-1.062 1.85c-.015.012-.026.018-.03.02-.02.006-.03.007-.043.007v2.144c.46 0 .944-.13 1.398-.485l-1.324-1.687zm1.153-3.63a1.9 1.9 0 0 0-.517.082l-.327.106.706 2.025.123-.042.086-.027.024-.007a.45.45 0 0 1-.095.008v-2.145zm-1.022.27c-.563.32-.993.85-1.277 1.373-.288.53-.49 1.17-.49 1.803h2.144c0-.2.073-.49.23-.78.16-.295.344-.47.456-.535l-1.062-1.862zm-1.768 3.176c0 .572.212 1.1.543 1.447l1.55-1.482c.03.03.045.053.05.063s.001-.004.001-.028h-2.144zm.704 1.585c.38.265.8.296 1.142.23.31-.06.577-.202.777-.328l-1.14-1.817a.74.74 0 0 1-.089.05c-.014.007 0-.002.038-.01a.58.58 0 0 1 .212 0 .72.72 0 0 1 .286.116l-1.227 1.76zm1.88-.076c.563-.32.993-.85 1.277-1.374.287-.528.49-1.168.49-1.803h-2.145c0 .2-.072.5-.23.78-.16.295-.343.47-.456.535l1.063 1.863zm1.768-3.177c0-.57-.213-1.1-.543-1.446l-1.55 1.48c-.03-.03-.044-.053-.05-.063s-.002.004-.002.028H130zm-1.318-1.778h-.245v2.145h.245v-2.145z" mask="url(#G)" class="H"/><path d="M124.02 116.533l.015-.008.016-.01c.26-.16.37-.1.388-.1.03.02.146.124.146.466s-.118.744-.33 1.127-.493.69-.762.854c-.26.158-.37.1-.39.1-.03-.02-.145-.124-.145-.467 0-.374.122-.798.33-1.175s.482-.658.73-.788z" class="C E G"/><mask id="H" class="C"><use xlink:href="#a"/></mask><use xlink:href="#a" class="B"/><path d="M122.668 119.586l-.57.908.102.065.114.04.353-1.013zm.92-3.85l-.55-.92-.016.01-.015.01.58.9zm1.227-.128l.57-.908-.036-.023-.037-.02-.497.95zm-.92 3.85l-.58-.902-.042.027-.04.03.66.844zm0-3.272l-.353-1.012-.093.032-.085.05.53.93zm-.98 2.95l-.775.74.074.077.088.062.613-.88zm.736-.128l-.53-.93-.02.01-.02.012.57.908zm.98-2.95l.775-.74-.557-.583-.714.374.496.95zm-1.472 2.584c.018 0 .037.002.056.005s.025.006.02.005l-.214-.078-.706 2.025c.037.012.422.188.844.188v-2.145zm.08.036c.012.007.004.008-.01-.018a.5.5 0 0 1-.041-.228h-2.144c0 .9.398 1.65 1.055 2.062l1.14-1.816zm-.05-.246c0-.29.1-.658.302-1.018s.457-.633.68-.775l-1.16-1.803c-.576.37-1.056.933-1.39 1.534s-.573 1.326-.573 2.062h2.144zm.95-1.775c.118-.07.188-.085.21-.087-.013-.004-.023-.007-.03-.01l.993-1.9c-.815-.426-1.656-.21-2.273.158l1.1 1.84zm.108-.14a.52.52 0 0 1 .049.247h2.145c0-.9-.4-1.652-1.055-2.063l-1.14 1.816zm.05.247c0 .3-.1.657-.3 1.017s-.458.633-.68.775l1.16 1.804c.577-.37 1.056-.933 1.392-1.535s.573-1.326.573-2.06h-2.145zm-1.06 1.85c-.016.013-.026.02-.032.022-.02.006-.028.006-.043.006v2.145a2.22 2.22 0 0 0 1.398-.485l-1.323-1.688zm1.152-3.628c-.217 0-.412.05-.516.08l-.328.107.706 2.025.124-.043.086-.027.023-.006c-.002 0-.038.007-.095.007v-2.144zm-1.022.27c-.563.32-.993.85-1.277 1.373-.288.53-.49 1.17-.49 1.804h2.144c0-.2.073-.5.23-.78.16-.296.343-.472.455-.536l-1.062-1.862zm-1.768 3.177c0 .57.212 1.1.543 1.446l1.55-1.482c.03.03.044.054.05.063s.001-.003.001-.027h-2.144zm.705 1.585c.38.265.8.296 1.14.228.31-.06.577-.202.778-.328l-1.14-1.816a.73.73 0 0 1-.089.05c-.014.006 0-.002.038-.01s.115-.016.212 0 .2.057.286.117l-1.226 1.76zm1.88-.077c.563-.32.993-.85 1.277-1.373.288-.53.49-1.17.49-1.803h-2.144c0 .2-.073.49-.23.778-.16.296-.343.472-.455.536l1.062 1.862zm1.768-3.176c0-.572-.212-1.102-.543-1.447l-1.55 1.482c-.03-.03-.044-.054-.05-.063s-.001.003-.001.028h2.144zm-1.814-1.656c.07-.037.164-.072.28-.087s.22-.003.29.012c.032.006.055.013.062.015l-.138-.037a1.21 1.21 0 0 0-.243-.025v2.144a.95.95 0 0 1-.196-.02l-.072-.018c-.03-.01.065.022.148.04.108.023.25.04.417.018a1.33 1.33 0 0 0 .445-.141l-.993-1.9z" mask="url(#H)" class="H"/><path d="M116.96 121.638l4.97 2.887-4.97-2.887z" class="B"/><path d="M117.052 121.403l-.24.447 4.975 2.92.24-.448-4.976-2.92z" class="F"/><path d="M115.98 117.276l4.97 2.887-4.97-2.887z" class="B"/><path d="M116.098 117.07l-.24.448 4.976 2.92.24-.447-4.976-2.92z" class="F"/><path d="M124.753 102.65l4.97 2.887-4.97-2.887z" class="B"/><path d="M124.822 102.423l-.24.447 4.976 2.92.24-.447-4.975-2.92z" class="F"/><g class="E"><g stroke="#000"><path d="M283.675 88.748c.677-.353 1.096-1.102 1.1-2.168l.054-17.088-1.153 19.256zm0 0l-4.62 2.408 4.62-2.408zm-19.43-33.2h0l16.58 8.586.246-.476-.246.476c.942.488 1.818 1.338 2.457 2.33s1.012 2.084 1.01 3.026h0l-.054 17.088c-.003.925-.358 1.458-.81 1.694l-4.638 2.415h-.001c-.477.27-1.246.296-2.227-.213l-16.58-8.586c-.942-.488-1.817-1.34-2.457-2.33s-1.012-2.085-1.01-3.026l.054-17.088c.003-.927.36-1.46.813-1.695l.013-.007 4.664-2.43c.478-.25 1.234-.258 2.188.236zm-6.894 2.216l.007-.003-.006.003z" fill="#007550"/><path d="M280.36 89.35l3.395-1.788c-.146.347-.37.578-.625.712l-2.824 1.488a3.84 3.84 0 0 0 .054-.412z" fill="#faf7fc"/><path d="M259.762 56.9l-.454-.182 2.7-1.417c.27-.142.63-.206 1.066-.14l-3.302 1.74zm20.615 31.22l.05-15.874 3.556-1.874-.05 15.874-3.556 1.873z" class="D"/><path d="M276.174 65.5l-15.25-7.982 3.478-1.832 15.25 7.982-3.478 1.832z" fill="#fefdff"/><path d="M283.973 69.175l-3.616 1.905c-.154-.942-.55-1.9-1.096-2.755-.534-.838-1.227-1.606-2.015-2.187l3.552-1.87c.84.5 1.61 1.288 2.188 2.195.565.886.92 1.847.987 2.713z" fill="#f8effe"/></g><g stroke="#fff" class="C"><path d="M267.202 81.283h0l-3.098-1.67 3.098 1.67zm0 0l3.1 1.575m-3.1-1.575l3.33 1.09M261 76.027h0c-.115-.373-.247-.904-.28-1.75h0l-.035-3.256.055-3.212c.04-.815.178-1.24.317-1.54h0c.185-.395.43-.666.813-.864s.745-.244 1.188-.19L261 76.027zm0 0a5.27 5.27 0 0 0 .628 1.342c.3.455.572.796.962 1.157m-1.6-2.5l1.6 2.5m11.354-5.964l.001.001a6.56 6.56 0 0 1 .281 1.749h0l.035 3.257-.055 3.21c-.04.816-.18 1.24-.317 1.538l-.001.001c-.184.394-.43.666-.812.864s-.746.244-1.188.19m2.056-10.812l-1.993 10.28m1.993-10.28c-.152-.492-.337-.886-.628-1.342a5.55 5.55 0 0 0-.961-1.157c-.295-.274-.732-.64-1.515-1.088l-3.1-1.67-3.1-1.576m9.303 6.832l-9.303-6.832m7.247 17.644l.063-.532m-.063.532l.063-.532m-.063.532c-.336-.04-.797-.14-1.585-.516m1.648-.016c-.27-.032-.674-.114-1.417-.468m-.23.484l.23-.484m-.23.484l.23-.484m-3.286-15.55h0l-3.126-1.59 3.126 1.59zm0 0l3.128 1.684a9.01 9.01 0 0 1 1.75 1.265c.47.436.864.896 1.262 1.52a6.91 6.91 0 0 1 .815 1.738m-6.955-6.206l6.955 6.206m-12.8-8.193h0c-.304.157-.5.367-.645.697l.645-.698zm0 0c.308-.16.62-.203 1.044-.154.413.05.9.183 1.685.552l-2.73-.398zm-.955 2.24h0l-.056 3.227.036 3.276c.032.818.15 1.417.324 1.977l-.51.158.51-.158c.18.578.42 1.114.816 1.738a7.45 7.45 0 0 0 1.26 1.519l-2.38-11.738zm0 0c.037-.778.158-1.215.3-1.542l-.3 1.542zm7.258 14.687h0l3.126 1.59c.776.368 1.274.502 1.686.55.423.05.736.006 1.044-.153s.5-.367.645-.697l-6.5-1.3zm0 0l-3.127-1.684m3.127 1.684l-3.127-1.684m-1.98-1.554c.295.274.732.64 1.515 1.088l-1.515-1.088zm2.05-12.795c-.788-.375-1.248-.476-1.584-.516l1.584.516zm-.072 14.35c-.776-.444-1.297-.844-1.75-1.266l1.75 1.266zm9.938 1.432l.056-3.227-.035-3.277m-.02 6.504l.02-6.504m-.02 6.504c-.037.778-.158 1.215-.3 1.54l.3-1.54zm.02-6.504c-.033-.818-.152-1.417-.325-1.977m.325 1.977l-.325-1.977"/><path d="M267.728 71.17h0c.8.42 1.5 1.12 2 1.903s.825 1.7.822 2.552c-.003.87-.353 1.602-1.04 1.958-.67.346-1.5.25-2.295-.167s-1.5-1.12-1.998-1.903-.826-1.7-.823-2.552l3.335-1.8zm0 0c-.796-.416-1.625-.512-2.295-.166m2.295.166l-2.295-.166m0 0c-.687.355-1.037 1.088-1.04 1.958l1.04-1.958zm1.802-.315h0c.983.514 1.896 1.4 2.562 2.457s1.057 2.198 1.054 3.195h0c-.003.988-.38 1.56-.866 1.8-.503.26-1.3.264-2.278-.253h0c-.983-.514-1.896-1.4-2.562-2.457s-1.057-2.198-1.054-3.196c.003-.988.38-1.56.866-1.8.503-.26 1.3-.264 2.278.253zm4.075 1.017h0a1.24 1.24 0 0 1 .442.43c.125.196.182.4.182.525h0c0 .02-.001.037-.003.05a.47.47 0 0 1-.13-.049h0a1.24 1.24 0 0 1-.443-.431c-.127-.2-.183-.4-.182-.525h0c0-.02.001-.037.003-.05a.48.48 0 0 1 .131.049zm-.67 0c-.002.526.406 1.168.912 1.432s.916.052.918-.474l-1.83-.958z"/></g><path d="M256.37 91.196l.008-.005m-.008.005h0l.008-.005m-.008.005l.006-.004m-.006.004l.008-.005m6.208-2.638h0l15.8 8.51.254-.472-.254.472c.89.478 1.742 1.35 2.386 2.393s1.05 2.208 1.09 3.24h0l.736 18.26c.042 1.032-.283 1.63-.68 1.89l-4.2 2.77-.001-.002h-.001c-.396.284-1.065.354-1.987-.143l-15.8-8.508-.255.472.255-.472c-.89-.48-1.742-1.35-2.387-2.393s-1.05-2.208-1.1-3.24l-.536.022.536-.022-.736-18.26c-.042-1.034.284-1.63.683-1.893l.012-.01 4.22-2.784c.397-.262 1.056-.314 1.953.17z" fill="#007550" stroke="#000"/><g stroke="#060606"><path d="M279.436 124.014l3.05-2.012c-.123.414-.334.688-.57.845l-2.515 1.658c.02-.158.032-.322.035-.49z" fill="#131415"/><path d="M258.565 90.257a4.31 4.31 0 0 0-.487-.188l2.554-1.685c.245-.162.6-.243 1.03-.17l-3.096 2.042zm20.82 32.485l-.685-17 3.192-2.105.685 17-3.192 2.105z" class="D"/><path d="M274.375 98.76l-14.727-7.93 3.22-2.124 14.727 7.93-3.22 2.123z" fill="#fefdff"/><path d="M281.84 102.4l-3.25 2.143c-.186-.98-.597-1.973-1.144-2.858-.553-.894-1.263-1.71-2.062-2.306l3.27-2.158c.8.5 1.536 1.297 2.115 2.234.583.944.97 1.99 1.07 2.945z" fill="#fafdff"/></g><path d="M264.37 108.37l-.1-2.745 2.98 1.605-.157-3.88c-.067-1.66.336-2.47.825-2.78s1.34-.295 2.613.4h0l2.4 1.414.095 2.356-1-.538c-.382-.206-.732-.344-1.047-.387-.33-.046-.666.01-.933.245-.247.22-.35.52-.4.782-.05.27-.055.572-.043.875h0l.115 2.852 3.38 1.82-.195 2.58-3.075-1.655.413 10.236-2.47-1.33-.412-10.235-.27-.145-2.712-1.46z" stroke="#fff" class="C"/></g><defs ><path id="J" d="M222.066 100.68c.235.118.235.355 0 .473s-.59.118-.825 0-.235-.355 0-.473.648-.118.825 0z"/><path id="K" d="M232.727 94.534c.236.118.236.355 0 .473s-.59.118-.825 0-.235-.355 0-.473.59-.118.825 0z"/><path id="L" d="M217.826 100.68c.235.118.235.355 0 .473s-.59.118-.825 0-.236-.355 0-.473.59-.118.825 0z"/><path id="M" d="M215.704 99.44c.236.118.236.355 0 .473s-.59.118-.824 0-.236-.355 0-.473.59-.118.824 0z"/><path id="N" d="M219.945 97.016c.235.118.235.355 0 .473s-.59.118-.825 0-.236-.355 0-.473a.71.71 0 0 1 .825 0z"/><path id="O" d="M215.704 97.016c.236.118.236.355 0 .473s-.59.118-.824 0-.236-.355 0-.473c.235-.177.59-.177.824 0z"/><path id="P" d="M247.69 98.02c.235.118.235.355 0 .473s-.59.118-.825 0-.235-.355 0-.473.59-.118.825 0z"/><path id="Q" d="M232.787 104.166c.235.118.235.355 0 .473s-.6.118-.825 0-.236-.355 0-.473.59-.118.825 0z"/><path id="R" d="M237.027 101.684c.235.118.235.354 0 .472a1 1 0 0 1-.825 0c-.236-.118-.236-.354 0-.472s.59-.118.825 0z"/><path id="S" d="M251.87 93.116c.236.118.236.355 0 .473s-.59.118-.824 0-.236-.355 0-.473.648-.118.824 0z"/><path id="T" d="M147.715 94.177c-.165 0-.274-.057-.384-.172l-4.446-5.223c-.878-1.148-1.262-2.812-1.098-4.88.33-4.248 2.964-9.126 6.367-11.652 2.14-1.607 4.336-2.01 5.928-1.148 1.482.804 2.305 2.64 2.305 5.05 0 4.764-3.238 10.62-7.2 13.03-.1.057-.165.115-.275.172-.274.976-.33 2.124-.22 3.444.055.517-.33 1.148-.714 1.32-.11.057-.22.057-.274.057zm-4.39-5.568l4.336 5.108s.055.057.1 0c.22-.115.494-.516.44-.803-.165-1.435-.055-2.698.274-3.73v-.115l.055-.057.33-.172c3.842-2.296 6.97-7.978 6.97-12.628 0-2.296-.768-3.96-2.085-4.65-1.428-.804-3.403-.402-5.434 1.09-3.24 2.41-5.873 7.175-6.148 11.308-.11 1.952.275 3.56 1.153 4.65z"/><path id="U" d="M152.162 80.228c-.165 0-.275-.057-.44-.115-.274-.172-.493-.517-.493-1.033 0-.918.603-1.952 1.317-2.41.384-.23.768-.287 1.098-.115.274.172.493.517.493 1.033 0 .918-.603 1.952-1.317 2.41a1.02 1.02 0 0 1-.658.23zm1.097-3.272c-.11 0-.274.057-.44.115-.604.344-1.098 1.263-1.098 2.01 0 .287.1.517.22.63.165.115.384.057.66-.115.603-.344 1.097-1.263 1.097-2.01 0-.287-.11-.517-.22-.63h-.22z"/><path id="V" d="M148.484 82.41c-.165 0-.275-.057-.44-.115-.275-.172-.494-.517-.494-1.033 0-.918.604-1.95 1.317-2.41.384-.23.77-.287 1.098-.115.274.172.494.517.494 1.033 0 .918-.604 1.952-1.317 2.41-.22.172-.44.23-.66.23zm1.098-3.272c-.1 0-.275.057-.44.115-.604.344-1.098 1.263-1.098 2.01 0 .287.1.517.22.63.165.115.385.057.66-.115.604-.344 1.098-1.263 1.098-2.01 0-.287-.1-.517-.22-.63h-.22z"/><path id="W" d="M144.86 84.6c-.165 0-.275-.057-.44-.115-.275-.172-.494-.517-.494-1.033 0-.918.604-1.952 1.317-2.41.384-.23.768-.287 1.098-.115.274.172.494.517.494 1.033 0 .918-.604 1.952-1.318 2.41a1.02 1.02 0 0 1-.658.23zm1.098-3.272c-.1 0-.275.057-.44.115-.603.344-1.097 1.263-1.097 2.01 0 .287.1.517.22.63.165.115.384.057.66-.115.604-.344 1.098-1.263 1.098-2.01 0-.287-.1-.517-.22-.63-.1.057-.165 0-.22 0z"/><path id="X" d="M126.348 130.428c-.184 0-.306-.064-.43-.193l-4.97-5.837c-.98-1.284-1.41-3.144-1.227-5.453.368-4.748 3.313-10.2 7.116-13.023 2.393-1.797 4.846-2.246 6.625-1.283 1.657.898 2.577 2.95 2.577 5.645 0 5.325-3.62 11.868-8.036 14.563-.123.064-.184.128-.307.192-.307 1.09-.368 2.374-.245 3.85.06.578-.368 1.283-.798 1.476-.123.064-.245.064-.307.064zm-4.907-6.223l4.846 5.7s.06.064.123 0c.245-.13.552-.578.49-.9-.185-1.603-.062-3.015.306-4.17v-.13l.062-.064.368-.192c4.294-2.566 7.8-8.917 7.8-14.114 0-2.566-.858-4.426-2.33-5.196-1.595-.898-3.803-.45-6.073 1.22-3.62 2.694-6.564 8.02-6.87 12.638-.123 2.18.306 3.977 1.288 5.196z"/><path id="Y" d="M131.318 114.84c-.184 0-.306-.064-.49-.128-.306-.192-.552-.577-.552-1.155 0-1.026.675-2.18 1.473-2.694.43-.257.858-.32 1.227-.128.306.192.552.577.552 1.154 0 1.027-.675 2.182-1.473 2.695-.245.192-.5.256-.736.256zm1.227-3.656c-.123 0-.307.064-.49.128-.674.385-1.227 1.41-1.227 2.245 0 .32.123.578.246.706.184.128.43.064.736-.128.675-.385 1.227-1.412 1.227-2.246 0-.32-.123-.577-.246-.705h-.245z"/><path id="Z" d="M127.21 117.277c-.184 0-.307-.064-.49-.128-.307-.193-.552-.577-.552-1.155 0-1.026.675-2.18 1.472-2.694.43-.257.86-.32 1.227-.13.307.193.552.578.552 1.155 0 1.027-.675 2.18-1.472 2.695-.245.192-.49.256-.736.256zm1.227-3.656c-.123 0-.307.064-.49.128-.675.385-1.227 1.41-1.227 2.245 0 .32.123.578.246.706.184.128.43.064.736-.128.674-.385 1.227-1.412 1.227-2.246 0-.32-.123-.577-.246-.705h-.245z"/><path id="a" d="M123.16 119.715c-.184 0-.307-.065-.49-.13-.306-.192-.552-.577-.552-1.154 0-1.027.675-2.182 1.472-2.695.43-.256.86-.32 1.227-.128.307.192.552.577.552 1.155 0 1.026-.674 2.18-1.472 2.694-.245.192-.49.257-.736.257zm1.227-3.657c-.123 0-.307.064-.49.128-.675.385-1.227 1.412-1.227 2.246 0 .32.123.577.246.705.184.13.43.064.736-.128.675-.385 1.227-1.41 1.227-2.245 0-.32-.123-.578-.246-.706-.122.064-.184 0-.245 0z"/></defs></svg>