<svg width="60" height="60" viewBox="0 0 60 60" fill="none" xmlns="http://www.w3.org/2000/svg">
<rect x="-6.10352e-05" width="60" height="60" fill="#F2C94C"/>
<g clip-path="url(#clip0)">
<rect x="60" width="60" height="60" rx="10" transform="rotate(90 60 0)" fill="white"/>
<path fill-rule="evenodd" clip-rule="evenodd" d="M60 7.5C60 5.51088 59.2098 3.60322 57.8033 2.1967C56.3968 0.790176 54.4891 -2.40888e-07 52.5 -3.27835e-07L7.5 -2.29485e-06C5.51088 -2.3818e-06 3.60323 0.790174 2.1967 2.1967C0.790181 3.60322 3.57381e-06 5.51087 3.48686e-06 7.5L1.51985e-06 52.5C1.4329e-06 54.4891 0.790179 56.3968 2.1967 57.8033C3.60322 59.2098 5.51088 60 7.5 60L52.5 60C54.4891 60 56.3968 59.2098 57.8033 57.8033C59.2098 56.3968 60 54.4891 60 52.5L60 7.5ZM28.6725 20.0775C28.4982 19.9032 28.3599 19.6962 28.2655 19.4684C28.1712 19.2407 28.1226 18.9965 28.1226 18.75C28.1226 18.5035 28.1712 18.2593 28.2655 18.0316C28.3599 17.8038 28.4982 17.5968 28.6725 17.4225C28.8468 17.2482 29.0538 17.1099 29.2816 17.0155C29.5093 16.9212 29.7535 16.8726 30 16.8726C30.2465 16.8726 30.4907 16.9212 30.7184 17.0155C30.9462 17.1099 31.1532 17.2482 31.3275 17.4225L42.5775 28.6725C42.7521 28.8467 42.8906 29.0536 42.9852 29.2814C43.0797 29.5092 43.1284 29.7534 43.1284 30C43.1284 30.2466 43.0797 30.4908 42.9852 30.7186C42.8906 30.9464 42.7521 31.1533 42.5775 31.3275L31.3275 42.5775C30.9754 42.9296 30.4979 43.1274 30 43.1274C29.5021 43.1274 29.0246 42.9296 28.6725 42.5775C28.3204 42.2254 28.1226 41.7479 28.1226 41.25C28.1226 40.7521 28.3204 40.2746 28.6725 39.9225L36.7238 31.875L18.75 31.875C18.2527 31.875 17.7758 31.6775 17.4242 31.3258C17.0725 30.9742 16.875 30.4973 16.875 30C16.875 29.5027 17.0725 29.0258 17.4242 28.6742C17.7758 28.3225 18.2527 28.125 18.75 28.125L36.7238 28.125L28.6725 20.0775Z" fill="#F2C94C"/>
</g>
<defs>
<clipPath id="clip0">
<rect width="60" height="60" fill="white" transform="translate(60) rotate(90)"/>
</clipPath>
</defs>
</svg>
