<svg xmlns="http://www.w3.org/2000/svg" width="24" height="26" fill="none" xmlns:v="https://vecta.io/nano"><style>circle{mix-blend-mode:difference}.A{mix-blend-mode:difference}</style><circle cx="12" cy="12" r="11.5" stroke="#fff"/><path class="A" d="M8 10.198h1.512c.1-1.584.684-2.88 2.52-2.88 1.35 0 2.196.864 2.196 2.268 0 .756-.252 1.296-1.026 2.07-1.476 1.476-1.98 1.944-1.98 4.122v.108h1.476c0-2.106.54-2.34 1.746-3.474.882-.828 1.404-1.656 1.404-3.006 0-2.106-1.494-3.456-3.798-3.456C9.286 5.95 8 7.84 8 10.198zm4.878 6.984h-1.9V19h1.9v-1.818z" fill="#fff"/></svg>