<svg xmlns="http://www.w3.org/2000/svg" width="30" height="30" fill="#001e20" xmlns:v="https://vecta.io/nano"><path d="M19.616 16.155h4.038a1.67 1.67 0 0 1 1.226.505 1.67 1.67 0 0 1 .505 1.226v.577a4.44 4.44 0 0 1-1.352 3.263c-.902.9-2 1.352-3.263 1.352h-1.154a1.11 1.11 0 0 0-.811.343 1.11 1.11 0 0 0-.343.811v2.308a1.11 1.11 0 0 0 .343.811 1.11 1.11 0 0 0 .811.343h1.154c1.25 0 2.443-.244 3.58-.73S26.468 25.82 27.298 25s1.487-1.812 1.974-2.948a8.99 8.99 0 0 0 .73-3.579V5.77a3.33 3.33 0 0 0-1.01-2.452 3.34 3.34 0 0 0-2.452-1.01h-6.923c-.96 0-1.78.336-2.452 1s-1 1.5-1 2.452v6.923c0 .962.337 1.78 1 2.452s1.5 1 2.452 1zM1 15.146c.673.673 1.5 1 2.452 1H7.5c.48 0 .9.168 1.226.505a1.71 1.71 0 0 1 .505 1.226v.577a4.44 4.44 0 0 1-1.352 3.263 4.45 4.45 0 0 1-3.264 1.352H3.46a1.11 1.11 0 0 0-.811.343 1.11 1.11 0 0 0-.343.811v2.308a1.11 1.11 0 0 0 .343.811 1.11 1.11 0 0 0 .811.343h1.154c1.25 0 2.443-.244 3.58-.73s2.118-1.145 2.947-1.974 1.488-1.812 1.974-2.948a9.01 9.01 0 0 0 .73-3.58V5.77c0-.962-.337-1.78-1-2.452a3.34 3.34 0 0 0-2.452-1.01H3.46a3.33 3.33 0 0 0-2.452 1.01C.336 3.992 0 4.8 0 5.77v6.923a3.33 3.33 0 0 0 1.01 2.452z"/></svg>