<svg xmlns="http://www.w3.org/2000/svg" width="360" height="666" fill="none" xmlns:v="https://vecta.io/nano"><path fill="#007550" d="M0 0h360v666H0z"/><path d="M76.172 624.312l4.323 9.652-10.103 1.603-3.41-13.91 9.19 2.656z" fill="#ffc856"/><path d="M59.957 627.61l7.025-5.953 3.41 13.91-10.435-7.958z" fill="#fff"/><path d="M75.486 634.76l-5.42 24.62-8.787-1.83 14.208-22.8z" fill="#001e20"/><path d="M43.878 646.865l10.877 9.326 6.523 1.358 14.208-22.8-5.094.808-4.808 8.952-21.707 2.346z" fill="#fff"/><g fill="#001e20"><path d="M78.315 629.09l5.05 4.286-3.46-.72-1.6-3.565z"/><path d="M80.495 633.964l2.87-.59-3.46-.72.59 1.3z"/></g><path d="M70.392 635.568l-10.435-7.96-27.503 20.525 33.107-3.487 4.83-9.08z" fill="#ffc856"/><path d="M31.153 655.28l-10.65-2.218 11.95-4.927 11.4-1.198-12.7 8.343zm38.91 4.1l5.613 6.36-4.527-.942-5.88-6.417 4.793.998zm-10.45-2.176l5.613 6.36-4.526-.943-5.88-6.415 4.793.998zm14.294-31.32l-1.67 1.514 1.415 1.788 1.67-1.514z" fill="#001e20"/><g clip-path="url(#D)"><path fill-rule="evenodd" d="M336.023 666.763L303.798 342.2l-7.826-6.675 31.305 331.228s5.294.7 8.746 0z" fill="url(#A)"/><path opacity=".5" d="M311.624 418.4l-6.445 13.81-1.61-18.415 6.675-7.826 1.38 12.43z" fill="#b17b9d"/><g fill-rule="evenodd"><path d="M305.18 413.566l-2.992.7L255 372.824 290.217 304l3.913.69L345 353.26l-39.82 60.307z" fill="url(#B)"/><path d="M302.187 414.256L255 372.824 290.217 304l51.33 48.338-39.36 61.918z" fill="url(#C)"/></g><path d="M314.156 381.1l5.064-8.287-17.493-22.788-19.105-3.913v-7.596l-11.28 11.51 9.207 13.35 1.61-7.596 15.653 2.302 16.342 23.018z" fill="#5e3e51"/><path d="M345 353.258l-3.453-.92L290.217 304l3.913.69L345 353.258z" fill="#ffff9d"/></g><defs><linearGradient id="A" x1="316.12" y1="667.127" x2="316.12" y2="335.592" gradientUnits="userSpaceOnUse"><stop stop-color="#796f8d"/><stop offset="1" stop-color="#9f9aa2"/></linearGradient><linearGradient id="B" x1="312.102" y1="411.761" x2="285.737" y2="305.116" gradientUnits="userSpaceOnUse"><stop stop-color="#c47000"/><stop offset=".989" stop-color="#ff9a4a"/></linearGradient><linearGradient id="C" x1="310.531" y1="412.149" x2="284.166" y2="305.504" gradientUnits="userSpaceOnUse"><stop stop-color="#ffba00"/><stop offset=".989" stop-color="#ffe856"/></linearGradient><clipPath id="D"><path fill="#fff" transform="translate(255 304)" d="M0 0h90v362H0z"/></clipPath></defs></svg>