<svg xmlns="http://www.w3.org/2000/svg" width="5760" height="650" fill="none" xmlns:v="https://vecta.io/nano"><g fill="#007550"><path d="M1920 0h1920v650H1920z"/><path d="M3813 0h1947v650H3813zM0 0h1949v650H0z"/></g><mask id="A" mask-type="alpha" maskUnits="userSpaceOnUse" x="2962" y="0" width="488" height="650"><path fill="#007550" d="M2962 0h488v650h-488z"/></mask><g mask="url(#A)"><path d="M3006.34 649.544h375.85c-10.03-14.112-19.46-27.77-28.1-41.2-15.92-25.038-29.1-48.7-38.92-71.472-9.04-21.17-15.33-41.427-18.48-60.775-5.9-35.28-1.38-68.058 9.24-96.5 9.83-26.86 24.37-50.304 37.94-72.156 23.6-38.012 40.3-73.066 27.9-100.152-12.78-28.225-47.77-49.394-81.18-69.88-30.28-18.437-56.62-34.598-59.37-50.986-2.16-13.43 15.53-25.266 32.44-35.28 15.53-9.105 28.7-19.12 24.96-27.314-4.72-10.243-23-17.07-41.28-25.038L3159.08-6c15.92 7.74 32.24 15.478 32.63 24.81s-17.9 17.982-38.13 27.087c-22.22 10.015-45.8 20.258-49.74 35.28s16.7 32.778 40.7 51.442c26.54 20.714 54.65 43.703 55.83 70.8.6 14.34-6.3 30.046-18.28 45.752-13.96 18.21-33.8 36.646-56.02 57.132-24.18 22.534-50.33 46.9-73.33 75.115-23.98 29.363-44.03 63.505-54.05 101.518-5.3 20.258-7.87 41.882-7.67 64.644.2 24.128 3.54 49.62 9.44 76.708 1.37 8.194 3.53 16.616 5.9 25.265z" fill="#1a1a1a"/><g fill="#ffa800"><path d="M3030.9 622.913c2.17 8.65 4.72 17.527 7.47 26.63h9.24c-2.95-9.104-5.5-18.2-7.86-27.086-7.08-26.86-11.6-52.125-12.97-76.253-1.18-22.534.4-44.158 4.7-64.2 8.06-37.784 26.54-71.7 48.95-101.063 21.43-27.997 46.4-52.352 69.4-74.66 21.03-20.486 40.1-38.923 52.88-57.132 11.2-15.706 17.3-31.412 16.12-45.524-2.56-27.315-31.45-50.077-58.78-70.562-24.57-18.665-46-36.192-42.65-51.442 3.14-14.795 26.14-25.266 47.76-35.28 19.86-9.105 37.55-17.754 36.76-27.087-.78-9.332-17.3-16.844-33.4-24.8-.8 0-1.38 0-2.17-.228 16.12 7.74 32.63 15.478 33.42 24.8s-17.1 17.982-37.15 27.087c-21.82 10.015-45.02 20.486-48.36 35.28-3.34 15.023 17.9 32.777 42.26 51.442 27.13 20.713 55.83 43.475 58.2 70.8 1.18 14.112-5.3 30.045-16.5 45.524-13.17 18.2-32.44 36.646-53.67 57.132-23.4 22.534-48.35 46.662-70.17 74.887-22.8 29.363-41.48 63.278-50.13 101.063-4.52 20.03-6.3 41.654-5.3 64.2.8 24.127 5.1 49.62 12 76.48zm242.58-485.97c32.64 20.486 66.84 41.882 78.24 69.88 11.2 27.542-7.67 62.367-33.22 100.608-14.74 21.85-30.67 45.524-41.87 72.6-12 28.68-18.28 61.685-14.15 97.194 2.36 19.347 7.47 39.833 15.72 61.23 8.65 23 20.84 46.9 35.58 72.155 7.47 12.747 15.92 25.95 24.77 39.378h8.85c-9.24-13.657-17.7-26.86-25.36-39.833-15.14-25.038-27.33-49.166-36.37-71.928-8.25-21.17-13.76-41.655-16.3-61.002-4.52-35.5 1.37-68.514 13.17-96.966 11-26.86 26.73-50.532 41.08-72.383 25.16-38.013 43.64-73.066 32.24-100.608-11.8-27.997-46-49.166-78.83-69.88-29.68-18.437-55.63-34.598-57.6-50.987-1.77-13.657 16.7-25.266 34-35.28 15.93-9.105 29.7-18.892 26.15-27.314-4.33-10.015-22.4-17.07-40.5-25.038-.78 0-1.37 0-2.16-.228 18.1 7.967 36.17 14.795 40.3 25.038 3.34 8.194-10.42 17.982-26.54 27.314-17.5 10.015-35.97 21.624-34.4 35.28 1.77 15.934 27.72 32.095 57.2 50.76z"/></g><g fill="#fff"><path d="M3230.63 9.706c4.52 2.96 8.26 5.918 10.03 9.332-.8 0-1.58 0-2.36-.228-1.77-3.414-5.5-6.373-10.03-9.332 1 .228 1.58.228 2.36.228zm9.83 18.892c-2.16 3.414-6.1 6.6-11 9.788-.78 0-1.77 0-2.55-.228 4.9-3.187 9.04-6.373 11.2-9.788.6 0 1.57 0 2.36.228zm-30.07 20.03c-7.08 3.642-14.16 7.284-20.84 11.38-.98 0-1.77 0-2.75-.228 6.68-4.097 13.76-7.74 21.03-11.38.8 0 1.77.228 2.56.228zm-36.37 24.355c-3.54 4.552-5.1 9.788-4.13 14.795-.98 0-2.16 0-3.14-.228-1-5.235.78-10.47 4.32-14.795.98 0 1.97 0 2.95.228zm6.68 31.867c6.3 6.6 14.75 12.747 23.98 19.575-1.17 0-2.35 0-3.34-.227-9.24-6.6-17.5-12.975-23.98-19.575 1.18.227 2.16.227 3.34.227zm55.63 41.427c10.8 7.74 21.43 15.706 30.47 24.355h-3.73c-9.05-8.65-19.46-16.616-30.28-24.355h3.54zm50.52 51.67c4.13 9.56 5.1 20.258 2.75 30.956h-4.32c2.36-10.698 1.57-21.396-2.56-30.956h4.13zm-14.35 66.692c-9.24 13.43-20.83 27.314-33.42 42.337h-5.3c12.77-15.023 24.57-28.907 33.8-42.337h4.9zm-73.7 93.78c-13.37 19.348-25.36 40.517-33.42 63.506h-6.5c8.26-23.217 20.45-44.158 34-63.506h5.9zm-43.84 143.173c1.97 30.956 11 64.872 25.56 100.836-2.76.227-5.5.227-8.46.455-14.35-35.964-22.8-69.88-24.57-100.836 2.56-.455 5.1-.455 7.47-.455zM3204.5-3.496c3.14 1.366 6.1 2.73 9.24 4.325-.8 0-1.38 0-2.17-.228-3.14-1.366-6.1-2.96-9.23-4.325.78.228 1.37.228 2.16.228z"/></g><path fill-rule="evenodd" d="M3375.86 650.23l-21.6-217.6-5.25-4.475 21 222.085s3.55.463 5.86 0z" fill="url(#B)"/><path opacity=".5" d="M3359.5 483.704l-4.32 9.26-1.08-12.347 4.48-5.247.92 8.334z" fill="#b17b9d"/><g fill-rule="evenodd"><path d="M3355.18 480.463l-2 .463-31.64-27.78 23.6-46.146 2.63.463 34.1 32.564-26.7 40.436z" fill="url(#C)"/><path d="M3353.18 480.926l-31.64-27.78 23.6-46.146 34.42 32.4-26.4 41.516z" fill="url(#D)"/></g><path d="M3361.2 458.7l3.4-5.556-11.73-15.28-12.8-2.624v-5.093l-7.56 7.717 6.17 8.95 1.08-5.093 10.5 1.544 10.96 15.433z" fill="#5e3e51"/><path d="M3381.88 440.027l-2.3-.617-34.42-32.4 2.63.463 34.1 32.564z" fill="#ffff9d"/></g><path d="M3492.05 376.988c-.93 0-1.68.56-1.68 1.494l-.37 3.175c0 .373 0 .747.37 1.12a1.04 1.04 0 0 0 .94.56h.18c.75 0 1.5-.56 1.68-1.494l.38-3.174c0-.747-.56-1.68-1.5-1.68zm162.3-150.898c-.56-.747-1.5-.747-2.24-.187-.37.187-.56.56-.56 1.12 0 .373.2.747.38 1.12 1.3 1.494 2.6 3.175 3.73 4.856.38.373.75.56 1.12.56.38 0 .75 0 .94-.373.37-.187.56-.56.56-.934s0-.747-.38-1.12c-.74-1.68-2.24-3.36-3.55-5.042zm19.6 39.782l-1.68-6.163c-.18-.374-.37-.747-.74-.934-.38-.187-.75-.187-1.12-.187-.38.187-.75.374-.94.747s-.2.747-.2 1.12l1.7 5.976c.18.747.74 1.12 1.5 1.12h.37c.75 0 1.3-.747 1.12-1.68zm-33.6-52.855c-.75-.56-1.7-.374-2.25.373-.18.374-.37.747-.18 1.12 0 .373.37.747.56.934 1.68 1.12 3.17 2.428 4.85 3.735a1.46 1.46 0 0 0 .94.373 1.67 1.67 0 0 0 1.3-.56c.57-.747.57-1.68-.18-2.24l-5.04-3.735zm24.84 28.948c-.38-.747-1.3-1.12-2.06-.56-.75.373-1.12 1.307-.56 2.054l2.8 5.602a1.42 1.42 0 0 0 1.3.934c.2 0 .56 0 .75-.187.37-.186.74-.56.74-.933a1.17 1.17 0 0 0 0-1.121c-1.12-1.867-2.05-3.922-2.98-5.8zm11.95 63.31c.37 0 .75-.187 1.12-.56s.37-.747.37-1.12c0-2.054-.18-4.295-.37-6.35 0-.934-.75-1.494-1.68-1.494-.94 0-1.5.747-1.5 1.68l.38 6.163a1.67 1.67 0 0 0 1.68 1.681zm0-20.54l-.75-6.35c-.2-.934-.93-1.494-1.87-1.308-.93.187-1.5.934-1.3 1.868.37 2.054.56 4.108.74 6.163 0 .747.75 1.307 1.5 1.307h.18c1.12 0 1.68-.934 1.5-1.68zm.74 58.267c.94 0 1.5-.747 1.5-1.68l-.2-6.35c0-.374-.18-.747-.56-1.12-.37-.373-.75-.373-1.12-.373-.93 0-1.5.747-1.5 1.68l.18 6.35c0 .747.75 1.307 1.68 1.494zm2.63 16.994l-.56-6.163c0-.934-.75-1.494-1.68-1.494-.38 0-.75.186-1.12.56-.2.373-.38.747-.38 1.12l.56 6.35c0 .747.75 1.307 1.5 1.494h.18c.38 0 .75-.187 1.13-.56.18-.374.37-.934.37-1.307zm-3-35.856c.94 0 1.5-.747 1.5-1.68v-6.35c0-.934-.75-1.494-1.68-1.494-.94 0-1.5.747-1.5 1.68v6.35c.2.747.75 1.494 1.68 1.494zm4.48 48.182c0-.374-.37-.747-.56-1.12-.37-.187-.75-.373-1.12-.187-.37 0-.75.374-.93.56-.2.373-.38.747-.38 1.12l1.12 6.163c.2.747.75 1.307 1.5 1.307h.37c.37 0 .75-.373.94-.747.18-.373.37-.747.18-1.12l-1.12-5.976zm-52.85-165.652c-2.05-.934-3.92-1.68-5.98-2.24-.37-.187-.74 0-1.12.186-.37.187-.56.56-.74.934-.2.374 0 .747.18 1.12.2.373.56.56.94.747 1.87.56 3.73 1.307 5.8 2.24.18 0 .37.187.56.187.56 0 1.3-.374 1.5-.934a1.17 1.17 0 0 0 0-1.121c-.37-.56-.75-.933-1.12-1.12zM3610.46 202h-6.54c-.93 0-1.5.747-1.5 1.68 0 .747.74 1.494 1.5 1.494h.2a24.45 24.45 0 0 1 5.23 0h1.12c.93 0 1.5-.747 1.5-1.494 0-.374-.2-.747-.37-1.12-.38-.373-.75-.56-1.12-.56zm-91.7 84.974c-.75-.374-1.68 0-2.06.747l-2.8 5.8c-.37.747 0 1.68.75 2.054.2 0 .37.187.56.187.56 0 1.3-.373 1.5-.934l2.62-5.602c.56-.934.2-1.868-.56-2.24zm-7.86 17.18c-.37-.187-.74-.187-1.12 0a2.28 2.28 0 0 0-.93.933l-2.24 5.8c-.37.747.2 1.68.93 2.054.2 0 .38.187.56.187.75 0 1.3-.374 1.5-.934l2.24-5.8c.18-.934-.2-1.868-.94-2.24zm-11.94 35.857c-.74-.187-1.68.373-1.86 1.12l-1.5 6.163c-.18.934.38 1.68 1.12 1.867h.2c.75 0 1.5-.56 1.68-1.307.37-2.054.93-4.108 1.5-6.163.18-.747-.2-1.494-1.13-1.68zm-4.1 18.3c-.38 0-.75 0-1.12.187-.38.187-.56.56-.75.934l-1.12 6.163c0 .373 0 .747.37 1.12a1.04 1.04 0 0 0 .94.56h.18c.75 0 1.5-.56 1.68-1.307l1.12-6.163c0-.373 0-.747-.18-1.12-.38 0-.75-.374-1.12-.374zm526.08 72.836c0 .747.75 1.494 1.5 1.494.37 0 .74-.186 1.12-.56.37-.373.37-.747.37-1.12 0-2.24-.2-4.296-.37-6.35 0-.374-.2-.747-.56-1.12-.38-.186-.75-.373-1.12-.373-.94 0-1.5.934-1.5 1.68.38 2.24.56 4.295.56 6.35zm-516.56-109.253c-.75-.187-1.68.187-2.05.934l-1.87 5.976c-.2.373 0 .747.18 1.12.2.374.56.56.94.747h.37c.75 0 1.3-.373 1.5-1.12l1.86-5.976c.38-.56-.18-1.494-.93-1.68zm56.22-96.923c-.37 0-.74.187-1.12.373l-4.48 4.67a1.54 1.54 0 0 0 .19 2.241 1.41 1.41 0 0 0 .93.374c.37 0 .93-.187 1.3-.56l4.3-4.483c.56-.56.56-1.68 0-2.24-.37-.186-.74-.373-1.12-.373zm14.75-12.14c-.38 0-.75 0-1.12.187l-5.23 3.735c-.38.187-.56.56-.56 1.12 0 .374 0 .747.37 1.12s.75.56 1.12.56.75-.187 1.12-.373l5.04-3.735c.38-.187.56-.56.75-.934 0-.374 0-.747-.2-1.12-.56-.186-.93-.373-1.3-.56zm16.05-8.403c-2.06.56-4.1 1.494-5.98 2.24-.37.187-.75.56-.75.934a1.23 1.23 0 0 0 0 1.121 1.42 1.42 0 0 0 1.3.934c.2 0 .56 0 .75-.187 1.87-.934 3.73-1.494 5.8-2.24.37-.187.75-.374.93-.747.2-.374.2-.747.2-1.12-.56-.747-1.5-1.12-2.24-.934zm-63.67 66.108c-.38-.186-.75-.186-1.12-.186-.38.186-.75.373-.94.747l-3.17 5.415c-.2.374-.2.747-.2 1.12.2.374.37.747.75.934.18.187.37.187.75.187.56 0 1.12-.374 1.5-.747l3-5.416c.18-.374.18-.747.18-1.12-.18-.373-.37-.747-.74-.934zm20.17-31.373c-.37 0-.74.186-1.12.56l-3.92 5.042c-.2.374-.37.747-.37 1.12s.18.747.56 1.12a1.41 1.41 0 0 0 .93.374c.56 0 .93-.187 1.3-.56l3.73-5.042c.2-.373.38-.747.38-1.12s-.2-.747-.56-1.12c0-.373-.56-.56-.94-.373zm-10.1 15.315c-.38-.187-.75-.373-1.12-.187-.38 0-.75.374-.94.747l-3.55 5.23c-.56.747-.18 1.68.56 2.24.2.186.56.186.75.186.56 0 1.12-.186 1.3-.747l3.36-5.23c.2-.373.37-.747.2-1.12 0-.374-.2-.747-.56-1.12zm425.06 115.413h-.18c-1.87 0-3.93-.187-6.17 0-.93 0-1.5.747-1.5 1.68 0 .747.75 1.494 1.5 1.494h6.35c.94 0 1.68-.56 1.68-1.494-.18-.933-.93-1.68-1.68-1.68zm18.86 2.987l-6.16-1.494c-.93-.187-1.68.374-1.87 1.307 0 .374 0 .747.2 1.12s.56.56.93.747c2.06.373 4.1.934 5.98 1.494h.37c.75 0 1.3-.374 1.5-1.12.37-.933 0-1.68-.94-2.054zm16.44 11.205c.56 0 1.12-.187 1.3-.747.18-.374.37-.747.18-1.12 0-.373-.37-.747-.56-.933-1.68-1.12-3.54-2.428-5.6-3.362-.75-.373-1.68-.187-2.05.56-.38.747-.2 1.68.56 2.055 1.86.933 3.55 2.054 5.23 3.174.37.187.74.374.93.374zm-3.56 107.758l-4.3 4.483c-.37.373-.56.747-.56 1.12s.2.747.38 1.12c.37.373.74.373 1.12.56.37 0 .93-.187 1.12-.374l4.48-4.482c.56-.56.56-1.68 0-2.24a1.54 1.54 0 0 0-2.24-.187zm-49.67-120.457c-.37-.187-.74-.373-1.12-.187l-6.35 1.308c-.93.186-1.3 1.12-1.12 1.867.2.747.75 1.12 1.5 1.308h.37l5.98-1.12c.37 0 .74-.373.93-.56.2-.374.37-.747.2-1.12.18-.934 0-1.307-.38-1.494zm-18.5 4.484c-.37-.187-.74-.187-1.12 0l-5.97 2.24c-.38.187-.75.56-.94.934a1.23 1.23 0 0 0 0 1.12 1.42 1.42 0 0 0 1.3.934c.2 0 .37 0 .75-.187l5.8-2.24c.74-.373 1.3-1.12.93-2.054-.2-.187-.37-.56-.75-.747zm-17.36 7.656c-.37-.187-.75 0-1.12.186l-5.6 2.988c-.75.374-.94 1.308-.56 2.055.18.56.74.747 1.3.747.38 0 .56 0 .75-.187l5.42-2.988c.37-.187.56-.56.74-.934.2-.373 0-.747-.18-1.12 0-.374-.38-.747-.75-.747zm-223.18 7.097c-.2-.747-1.12-1.307-1.87-1.12s-1.3 1.12-1.12 1.868l1.87 5.976c.18.56.74.934 1.5 1.12h.56c.75-.373 1.3-1.12.93-2.054l-1.86-5.8zm322.53 86.465c-.75-.56-1.68-.373-2.24.374l-3.55 5.042c-.18.374-.37.747-.37 1.12s.2.747.56 1.12a1.43 1.43 0 0 0 .93.374 1.66 1.66 0 0 0 1.3-.56l3.73-5.23c.57-.747.38-1.867-.37-2.24zm12.7-63.683c.18-.373.18-.747.18-1.12-.56-2.055-1.3-4.1-2.24-5.977-.18-.373-.37-.747-.93-.933-.37-.187-.75-.187-1.12 0-.75.373-1.12 1.307-.94 2.054l2.06 5.8c.2.56.75 1.12 1.5 1.12h.56c.38-.374.75-.56.94-.934zm.75 28.76c-.38 0-.75 0-1.12.373-.38.187-.56.56-.56 1.12l-1.12 5.976c-.2.934.37 1.68 1.12 1.867h.37c.75 0 1.5-.56 1.68-1.12.56-2.054.94-4.1 1.3-6.35 0-.373 0-.747-.37-1.12-.38-.56-.75-.747-1.3-.747zm-13.08-52.478c-.56-.56-1.5-.747-2.24-.187-.56.56-.74 1.494-.18 2.24 1.3 1.494 2.6 3.175 3.73 4.856.37.374.75.56 1.3.747.37 0 .74 0 .93-.373.38-.187.56-.56.56-.934s0-.747-.18-1.12c-1.13-1.867-2.43-3.548-3.93-5.23zm8.4 70.592c-.38-.187-.75-.187-1.12 0-.38.187-.75.374-.94.934-.74 1.868-1.68 3.735-2.6 5.603-.38.747 0 1.68.74 2.054.2.187.38.187.56.187.57 0 1.13-.374 1.5-.934l2.6-5.8c.38-.747 0-1.68-.74-2.054zm-125.86-67.23l-5.23 3.362c-.75.56-.94 1.494-.38 2.24.2.373.75.747 1.3.747.37 0 .56 0 .93-.187l5.23-3.362c.38-.186.56-.56.75-.933 0-.374 0-.747-.2-1.12-.74-.934-1.68-1.12-2.42-.747zm-135.04 57.147l-6.16-.747c-.37 0-.75 0-1.12.373-.37.187-.56.56-.56.934-.2.934.37 1.68 1.3 1.868 2.05.373 4.3.56 6.35.747.74 0 1.5-.56 1.68-1.494 0-.934-.56-1.68-1.5-1.68zm-18.1-3.55c-2.06-.56-3.92-1.307-5.8-2.054-.75-.374-1.68.187-2.06.934a1.23 1.23 0 0 0 0 1.12c.2.374.56.747.94.747l5.97 2.054h.38c.74 0 1.3-.373 1.5-1.12.37-.56 0-1.494-.93-1.68zm36.8 3.55l-6.17.374c-.93 0-1.5.747-1.5 1.68 0 .747.75 1.494 1.5 1.494h.2c2.06 0 4.3-.186 6.35-.373.93 0 1.5-.747 1.5-1.68 0-.373-.2-.747-.57-1.12-.56-.187-.93-.374-1.3-.374zm-53.6-11.017l-5.23-3.362c-.75-.56-1.68-.373-2.24.374s-.38 1.68.37 2.24c1.68 1.307 3.55 2.428 5.42 3.548.18.187.56.187.74.187.56 0 1.12-.187 1.5-.747.37-.747.18-1.68-.56-2.24zm73 8.027c-.38-.187-.75-.186-1.12-.186-2.06.56-4.1.933-5.98 1.307-.93.187-1.5.934-1.3 1.867.2.747.75 1.308 1.5 1.308h.37l6.16-1.308c.38-.186.75-.373.94-.747.18-.373.18-.747.18-1.12-.18-.56-.37-.934-.74-1.12zm-91.7-23.717c-.18-.373-.56-.56-1.12-.56-.37 0-.74 0-1.12.374-.37.186-.56.56-.56 1.12 0 .374 0 .747.38 1.12 1.3 1.68 2.8 3.175 4.3 4.67.37.373.75.373 1.12.373.38 0 .94-.187 1.12-.373.56-.56.56-1.68 0-2.24l-4.1-4.483zm142.88.748c-.37-.187-.75 0-1.12.187l-5.4 3.175c-.38.187-.56.56-.75.934s0 .747.2 1.12c.18.56.74.747 1.3.747.38 0 .56 0 .94-.187l5.4-3.174c.75-.374.94-1.494.56-2.24l-1.12-.56zM3692.63 408c-.2-.374-.56-.747-.93-.747-.38-.187-.75-.187-1.12 0-.38.187-.75.56-.75.934a1.17 1.17 0 0 0 0 1.12l3 5.603c.18.373.74.747 1.3.747.38 0 .56 0 .94-.187.37-.187.56-.56.74-.934.2-.373 0-.747-.18-1.12l-3-5.416zm167.52 6.163l-5.23 3.548c-.38.187-.56.56-.75.934 0 .373 0 .747.2 1.12.18.374.74.747 1.3.747.38 0 .75 0 .94-.186l5.23-3.55c.74-.56.93-1.494.37-2.24-.37-.56-1.5-.747-2.05-.373zm-49.12 27.267l-5.8 2.24c-.74.374-1.3 1.12-.93 2.055.2.56.75 1.12 1.5 1.12h.56l5.98-2.24a1.87 1.87 0 0 0 .93-2.054c-.56-1.12-1.5-1.494-2.24-1.12zm17-7.844l-5.6 2.802c-.37.186-.74.56-.74.933a1.17 1.17 0 0 0 0 1.121 1.39 1.39 0 0 0 1.3.934c.2 0 .57 0 .75-.187l5.6-2.8c.75-.374 1.13-1.308.75-2.055-.37-.747-1.3-1.12-2.05-.747zm47.62-30.068l-5.23 3.55c-.75.56-.93 1.494-.37 2.24.18.373.74.747 1.3.747.38 0 .75 0 .94-.187l.18-.187 4.86-3.36c.37-.187.56-.56.75-.934 0-.374 0-.747-.2-1.12-.56-1.12-1.5-1.307-2.24-.747zm106.25 100.848c-.37 0-.75 0-1.12.374-.75.747-1.68 1.307-2.43 1.867-.37.187-.56.56-.56 1.12 0 .373 0 .747.37 1.12.38.374.75.56 1.13.56.37 0 .74-.187 1.12-.374.74-.747 1.68-1.307 2.42-2.054.75-.56.75-1.494.2-2.24-.2-.187-.56-.374-1.12-.374z" fill="#006d4a"/><path d="M2367.9 606.71l4.46 10.023-10.42 1.665-3.5-14.446 9.47 2.758z" fill="#ffc856"/><path d="M2351.2 610.133l7.24-6.182 3.5 14.446-10.75-8.264z" fill="#fff"/><path d="M2367.2 617.558l-5.6 25.567-9.05-1.9 14.64-23.667z" fill="#001e20"/><path d="M2334.6 630.13l11.2 9.685 6.73 1.41 14.64-23.667-5.25.84-4.95 9.296-22.38 2.436z" fill="#fff"/><g fill="#001e20"><path d="M2370.1 611.67l5.2 4.45-3.57-.75-1.64-3.702z"/><path d="M2372.36 616.732l2.95-.612-3.56-.75.6 1.36z"/></g><path d="M2361.94 618.397l-10.75-8.264-28.35 21.314 34.12-3.62 4.98-9.43z" fill="#ffc856"/><path d="M2321.5 638.868l-10.98-2.304 12.32-5.116 11.76-1.244-13.1 8.664zm40.1 4.257l5.8 6.605-4.67-.98-6.06-6.663 4.94 1.037zm-10.77-2.26l5.8 6.605-4.67-.98-6.06-6.663 4.94 1.037zm14.74-32.526l-1.722 1.572 1.458 1.857 1.722-1.572z" fill="#001e20"/><path stroke="#001e20" stroke-width="4" stroke-dasharray="8.01 8.02" d="M2265 509V125" style="mix-blend-mode:screen" opacity=".6"/><g style="mix-blend-mode:screen" opacity=".6"><circle cx="2265" cy="117" r="7.5" fill="#001e20"/><circle cx="2265" cy="117" r="7.5" stroke="#001e20"/></g><g style="mix-blend-mode:screen" opacity=".6"><circle cx="2265" cy="517" r="7.5" fill="#001e20"/><circle cx="2265" cy="517" r="7.5" stroke="#001e20"/></g><circle cx="3491" cy="395" r="8" fill="#006d4a"/><g fill="#001e20"><circle cx="1920" cy="541" r="109" style="mix-blend-mode:screen" opacity=".4"/><circle cx="2014.5" cy="99.5" r="44.5" style="mix-blend-mode:screen" opacity=".2"/><circle cx="2108" cy="317" r="28" style="mix-blend-mode:screen" opacity=".3"/></g><defs><linearGradient id="B" x1="3362.52" y1="650.473" x2="3362.52" y2="428.182" gradientUnits="userSpaceOnUse"><stop stop-color="#796f8d"/><stop offset="1" stop-color="#9f9aa2"/></linearGradient><linearGradient id="C" x1="3359.82" y1="479.253" x2="3342.15" y2="407.748" gradientUnits="userSpaceOnUse"><stop stop-color="#c47000"/><stop offset=".989" stop-color="#ff9a4a"/></linearGradient><linearGradient id="D" x1="3358.77" y1="479.513" x2="3341.09" y2="408.008" gradientUnits="userSpaceOnUse"><stop stop-color="#ffba00"/><stop offset=".989" stop-color="#ffe856"/></linearGradient></defs></svg>