<svg width="5760" height="650" viewBox="0 0 5760 650" fill="none" xmlns="http://www.w3.org/2000/svg">
<rect x="1920" width="1920" height="650" fill="#007550"/>
<rect x="3813" width="1947" height="650" fill="#007550"/>
<rect width="1949" height="650" fill="#007550"/>
<mask id="mask0" mask-type="alpha" maskUnits="userSpaceOnUse" x="2962" y="0" width="488" height="650">
<rect x="2962" width="488" height="650" fill="#007550"/>
</mask>
<g mask="url(#mask0)">
<path d="M3006.34 649.544H3382.19C3372.16 635.432 3362.73 621.775 3354.08 608.345C3338.16 583.307 3324.99 559.635 3315.16 536.873C3306.12 515.704 3299.83 495.446 3296.68 476.098C3290.78 440.817 3295.3 408.04 3305.92 379.588C3315.75 352.729 3330.29 329.284 3343.86 307.432C3367.45 269.42 3384.16 234.366 3371.77 207.28C3358.99 179.055 3324 157.886 3290.59 137.4C3260.31 118.963 3233.97 102.802 3231.22 86.4136C3229.06 72.984 3246.75 61.1478 3263.66 51.1325C3279.19 42.0277 3292.36 32.0125 3288.62 23.8182C3283.9 13.5753 3265.62 6.7467 3247.34 -1.21999C3218.25 -2.81333 3188.76 -4.40666 3159.08 -6C3175 1.73907 3191.32 9.47813 3191.71 18.8105C3192.1 28.1429 3173.82 36.7925 3153.58 45.8973C3131.36 55.9125 3107.77 66.1554 3103.84 81.1783C3099.91 96.2012 3120.55 113.956 3144.53 132.62C3171.07 153.334 3199.18 176.323 3200.36 203.41C3200.95 217.75 3194.07 233.456 3182.08 249.162C3168.12 267.371 3148.27 285.808 3126.06 306.294C3101.88 328.828 3075.73 353.184 3052.73 381.409C3028.75 410.772 3008.7 444.914 2998.68 482.927C2993.37 503.185 2990.81 524.809 2991.01 547.571C2991.21 571.699 2994.55 597.192 3000.45 624.279C3001.82 632.473 3003.98 640.895 3006.34 649.544Z" fill="#1A1A1A"/>
<path d="M3030.91 622.913C3033.08 631.562 3035.63 640.44 3038.38 649.544H3047.62C3044.67 640.44 3042.12 631.335 3039.76 622.458C3032.68 595.599 3028.16 570.333 3026.79 546.205C3025.61 523.671 3027.18 502.047 3031.5 482.016C3039.56 444.232 3058.04 410.316 3080.45 380.953C3101.88 352.956 3126.84 328.601 3149.84 306.294C3170.87 285.808 3189.94 267.371 3202.72 249.162C3213.92 233.456 3220.02 217.75 3218.84 203.638C3216.28 176.323 3187.39 153.561 3160.06 133.076C3135.49 114.411 3114.06 96.884 3117.41 81.6335C3120.55 66.8382 3143.55 56.3677 3165.17 46.3524C3185.03 37.2476 3202.72 28.5981 3201.93 19.2657C3201.15 9.93329 3184.63 2.42185 3168.52 -5.54484C3167.73 -5.54484 3167.14 -5.54484 3166.35 -5.77246C3182.47 1.96661 3198.98 9.70567 3199.77 19.0381C3200.56 28.3705 3182.67 37.02 3162.62 46.1248C3140.8 56.1401 3117.6 66.6106 3114.26 81.4059C3110.92 96.4288 3132.15 114.183 3156.52 132.848C3183.65 153.561 3212.35 176.323 3214.71 203.638C3215.89 217.75 3209.4 233.683 3198.2 249.162C3185.03 267.371 3165.76 285.808 3144.53 306.294C3121.14 328.828 3096.18 352.956 3074.36 381.181C3051.55 410.544 3032.88 444.459 3024.23 482.244C3019.71 502.275 3017.94 523.898 3018.92 546.433C3019.71 570.56 3024.03 596.054 3030.91 622.913Z" fill="#FFA800"/>
<path d="M3273.48 136.944C3306.12 157.43 3340.32 178.826 3351.72 206.824C3362.93 234.366 3344.05 269.191 3318.5 307.432C3303.76 329.283 3287.83 352.956 3276.63 380.042C3264.64 408.722 3258.35 441.727 3262.48 477.236C3264.84 496.583 3269.95 517.069 3278.2 538.466C3286.85 561.455 3299.04 585.355 3313.78 610.621C3321.25 623.368 3329.7 636.57 3338.55 649.999H3347.4C3338.16 636.342 3329.7 623.14 3322.04 610.166C3306.9 585.128 3294.71 561 3285.67 538.238C3277.42 517.069 3271.91 496.583 3269.36 477.236C3264.84 441.727 3270.73 408.722 3282.53 380.27C3293.54 353.411 3309.26 329.738 3323.61 307.887C3348.77 269.874 3367.25 234.821 3355.85 207.279C3344.05 179.282 3309.85 158.113 3277.02 137.4C3247.34 118.963 3221.39 102.802 3219.43 86.4129C3217.66 72.7558 3236.14 61.1472 3253.43 51.1319C3269.36 42.0271 3283.12 32.2395 3279.58 23.8175C3275.25 13.8023 3257.17 6.74606 3239.08 -1.22062C3238.3 -1.22062 3237.71 -1.22062 3236.92 -1.44824C3255.01 6.51844 3273.09 13.347 3277.22 23.5899C3280.56 31.7842 3266.8 41.5719 3250.68 50.9043C3233.19 60.9195 3214.71 72.5281 3216.28 86.1853C3218.05 102.119 3244 118.28 3273.48 136.944Z" fill="#FFA800"/>
<path d="M3230.63 9.70614C3235.15 12.6652 3238.89 15.6242 3240.66 19.0385C3239.87 19.0385 3239.08 19.0385 3238.3 18.8109C3236.53 15.3966 3232.79 12.4376 3228.27 9.47852C3229.26 9.70614 3229.85 9.70614 3230.63 9.70614ZM3240.46 28.5986C3238.3 32.0129 3234.37 35.1995 3229.45 38.3862C3228.67 38.3862 3227.68 38.3862 3226.9 38.1586C3231.81 34.9719 3235.94 31.7852 3238.1 28.3709C3238.69 28.3709 3239.67 28.3709 3240.46 28.5986ZM3210.39 48.6291C3203.31 52.271 3196.23 55.9129 3189.55 60.0101C3188.57 60.0101 3187.78 60.0101 3186.8 59.7824C3193.48 55.6853 3200.56 52.0434 3207.83 48.4015C3208.62 48.4015 3209.6 48.6291 3210.39 48.6291ZM3174.02 72.9844C3170.48 77.5368 3168.91 82.772 3169.89 87.7797C3168.91 87.7797 3167.73 87.7797 3166.75 87.552C3165.76 82.3168 3167.53 77.0815 3171.07 72.7568C3172.05 72.7568 3173.04 72.7568 3174.02 72.9844ZM3180.7 104.851C3186.99 111.452 3195.45 117.598 3204.68 124.426C3203.51 124.426 3202.33 124.426 3201.34 124.199C3192.1 117.598 3183.85 111.224 3177.36 104.624C3178.54 104.851 3179.52 104.851 3180.7 104.851ZM3236.33 146.278C3247.14 154.017 3257.76 161.984 3266.8 170.633C3265.62 170.633 3264.25 170.633 3263.07 170.633C3254.02 161.984 3243.61 154.017 3232.79 146.278C3233.97 146.278 3235.15 146.278 3236.33 146.278ZM3286.85 197.948C3290.98 207.508 3291.96 218.206 3289.6 228.904C3288.23 228.904 3286.66 228.904 3285.28 228.904C3287.64 218.206 3286.85 207.508 3282.72 197.948C3284.1 197.948 3285.48 197.948 3286.85 197.948ZM3272.5 264.64C3263.26 278.07 3251.67 291.954 3239.08 306.977C3237.32 306.977 3235.55 306.977 3233.78 306.977C3246.55 291.954 3258.35 278.07 3267.59 264.64C3269.36 264.64 3270.93 264.64 3272.5 264.64ZM3198.79 358.419C3185.42 377.767 3173.43 398.936 3165.37 421.925C3163.21 421.925 3161.05 421.925 3158.88 421.925C3167.14 398.708 3179.33 377.767 3192.89 358.419C3194.86 358.419 3196.82 358.419 3198.79 358.419ZM3154.95 501.592C3156.92 532.548 3165.96 566.464 3180.51 602.428C3177.75 602.655 3175 602.655 3172.05 602.883C3157.7 566.919 3149.25 533.004 3147.48 502.047C3150.04 501.592 3152.59 501.592 3154.95 501.592Z" fill="white"/>
<path d="M3204.49 -3.49601C3207.63 -2.1303 3210.58 -0.764578 3213.73 0.828759C3212.94 0.828759 3212.35 0.828759 3211.56 0.60114C3208.42 -0.764578 3205.47 -2.35792 3202.33 -3.72363C3203.11 -3.49601 3203.7 -3.49601 3204.49 -3.49601Z" fill="white"/>
<path fill-rule="evenodd" clip-rule="evenodd" d="M3375.86 650.229L3354.26 432.619L3349.01 428.144L3370 650.229C3370 650.229 3373.55 650.692 3375.86 650.229Z" fill="url(#paint0_linear)"/>
<path opacity="0.5" d="M3359.5 483.704L3355.18 492.964L3354.1 480.617L3358.58 475.37L3359.5 483.704Z" fill="#B17B9D"/>
<path fill-rule="evenodd" clip-rule="evenodd" d="M3355.18 480.463L3353.18 480.926L3321.54 453.146L3345.15 407L3347.78 407.463L3381.88 440.027L3355.18 480.463Z" fill="url(#paint1_linear)"/>
<path fill-rule="evenodd" clip-rule="evenodd" d="M3353.18 480.926L3321.54 453.146L3345.15 407L3379.57 439.41L3353.18 480.926Z" fill="url(#paint2_linear)"/>
<path d="M3361.2 458.701L3364.6 453.145L3352.87 437.866L3340.06 435.242V430.149L3332.5 437.866L3338.67 446.817L3339.75 441.724L3350.24 443.268L3361.2 458.701Z" fill="#5E3E51"/>
<path d="M3381.88 440.027L3379.57 439.41L3345.15 407L3347.78 407.463L3381.88 440.027Z" fill="#FFFF9D"/>
</g>
<path d="M3492.05 376.988C3491.12 376.988 3490.37 377.548 3490.37 378.482C3490.19 379.602 3490.19 380.536 3490 381.657C3490 382.03 3490 382.404 3490.37 382.777C3490.56 383.151 3490.93 383.337 3491.31 383.337H3491.49C3492.24 383.337 3492.99 382.777 3493.17 381.843C3493.36 380.723 3493.36 379.789 3493.55 378.669C3493.55 377.922 3492.99 376.988 3492.05 376.988Z" fill="#006D4A"/>
<path d="M3654.34 226.091C3653.78 225.344 3652.85 225.344 3652.1 225.904C3651.73 226.091 3651.54 226.465 3651.54 227.025C3651.54 227.398 3651.73 227.772 3651.92 228.145C3653.22 229.639 3654.53 231.32 3655.65 233.001C3656.03 233.374 3656.4 233.561 3656.77 233.561C3657.15 233.561 3657.52 233.561 3657.71 233.188C3658.08 233.001 3658.27 232.627 3658.27 232.254C3658.27 231.88 3658.27 231.507 3657.89 231.133C3657.15 229.453 3655.65 227.772 3654.34 226.091Z" fill="#006D4A"/>
<path d="M3673.95 265.872C3673.39 263.817 3672.83 261.763 3672.27 259.709C3672.09 259.335 3671.9 258.962 3671.53 258.775C3671.15 258.588 3670.78 258.588 3670.41 258.588C3670.03 258.775 3669.66 258.962 3669.47 259.335C3669.28 259.709 3669.28 260.082 3669.28 260.456C3669.84 262.323 3670.41 264.378 3670.97 266.432C3671.15 267.179 3671.71 267.552 3672.46 267.552C3672.65 267.552 3672.83 267.552 3672.83 267.552C3673.58 267.552 3674.14 266.805 3673.95 265.872Z" fill="#006D4A"/>
<path d="M3640.34 213.017C3639.59 212.457 3638.65 212.643 3638.09 213.39C3637.91 213.764 3637.72 214.137 3637.91 214.511C3637.91 214.884 3638.28 215.258 3638.47 215.445C3640.15 216.565 3641.64 217.873 3643.32 219.18C3643.51 219.367 3643.88 219.553 3644.26 219.553C3644.82 219.553 3645.19 219.367 3645.56 218.993C3646.13 218.246 3646.13 217.312 3645.38 216.752C3643.7 215.631 3642.02 214.324 3640.34 213.017Z" fill="#006D4A"/>
<path d="M3665.18 241.965C3664.8 241.218 3663.87 240.844 3663.12 241.405C3662.37 241.778 3662 242.712 3662.56 243.459C3663.49 245.326 3664.43 247.194 3665.36 249.061C3665.55 249.622 3666.11 249.995 3666.67 249.995C3666.86 249.995 3667.23 249.995 3667.42 249.808C3667.79 249.622 3668.16 249.248 3668.16 248.875C3668.35 248.501 3668.35 248.128 3668.16 247.754C3667.04 245.887 3666.11 243.832 3665.18 241.965Z" fill="#006D4A"/>
<path d="M3677.13 305.274C3677.5 305.274 3677.88 305.087 3678.25 304.714C3678.62 304.34 3678.62 303.967 3678.62 303.593C3678.62 301.539 3678.44 299.298 3678.25 297.244C3678.25 296.31 3677.5 295.75 3676.57 295.75C3675.63 295.75 3675.07 296.497 3675.07 297.43C3675.26 299.485 3675.26 301.539 3675.45 303.593C3675.45 304.527 3676.19 305.274 3677.13 305.274Z" fill="#006D4A"/>
<path d="M3677.13 284.733C3676.94 282.492 3676.57 280.438 3676.38 278.384C3676.19 277.45 3675.45 276.89 3674.51 277.076C3673.58 277.263 3673.02 278.01 3673.21 278.944C3673.58 280.998 3673.77 283.052 3673.95 285.107C3673.95 285.854 3674.7 286.414 3675.45 286.414H3675.63C3676.75 286.414 3677.31 285.48 3677.13 284.733Z" fill="#006D4A"/>
<path d="M3677.87 343C3678.81 343 3679.37 342.253 3679.37 341.319C3679.37 339.265 3679.18 337.211 3679.18 334.97C3679.18 334.596 3679 334.223 3678.62 333.849C3678.25 333.476 3677.87 333.476 3677.5 333.476C3676.57 333.476 3676.01 334.223 3676.01 335.156C3676.01 337.211 3676.01 339.452 3676.19 341.506C3676.19 342.253 3676.94 342.813 3677.87 343Z" fill="#006D4A"/>
<path d="M3680.49 359.994C3680.3 357.939 3680.12 355.885 3679.93 353.831C3679.93 352.897 3679.18 352.337 3678.25 352.337C3677.87 352.337 3677.5 352.523 3677.13 352.897C3676.94 353.27 3676.75 353.644 3676.75 354.017C3676.94 356.072 3677.13 358.126 3677.31 360.367C3677.31 361.114 3678.06 361.674 3678.81 361.861H3678.99C3679.37 361.861 3679.74 361.674 3680.12 361.301C3680.3 360.927 3680.49 360.367 3680.49 359.994Z" fill="#006D4A"/>
<path d="M3677.5 324.138C3678.44 324.138 3679 323.391 3679 322.457C3679 320.403 3679 318.349 3679 316.108C3679 315.174 3678.25 314.614 3677.32 314.614C3676.38 314.614 3675.82 315.361 3675.82 316.295C3675.82 318.349 3675.82 320.403 3675.82 322.644C3676.01 323.391 3676.57 324.138 3677.5 324.138Z" fill="#006D4A"/>
<path d="M3681.98 372.321C3681.98 371.947 3681.61 371.574 3681.42 371.2C3681.05 371.013 3680.67 370.827 3680.3 371.013C3679.93 371.013 3679.55 371.387 3679.37 371.574C3679.18 371.947 3678.99 372.321 3678.99 372.694C3679.37 374.748 3679.74 376.99 3680.11 378.857C3680.3 379.604 3680.86 380.164 3681.61 380.164C3681.79 380.164 3681.79 380.164 3681.98 380.164C3682.35 380.164 3682.73 379.791 3682.92 379.417C3683.1 379.044 3683.29 378.67 3683.1 378.297C3682.73 376.616 3682.35 374.562 3681.98 372.321Z" fill="#006D4A"/>
<path d="M3629.13 206.668C3627.08 205.734 3625.21 204.987 3623.15 204.427C3622.78 204.24 3622.41 204.427 3622.03 204.613C3621.66 204.8 3621.47 205.174 3621.29 205.547C3621.1 205.921 3621.29 206.294 3621.47 206.668C3621.66 207.041 3622.03 207.228 3622.41 207.415C3624.28 207.975 3626.14 208.722 3628.2 209.656C3628.38 209.656 3628.57 209.843 3628.76 209.843C3629.32 209.843 3630.06 209.469 3630.25 208.909C3630.44 208.535 3630.44 208.162 3630.25 207.788C3629.88 207.228 3629.5 206.855 3629.13 206.668Z" fill="#006D4A"/>
<path d="M3610.46 202H3610.08C3609.9 202 3609.71 202 3609.52 202C3607.65 202 3605.79 202 3603.92 202C3602.99 202 3602.43 202.747 3602.43 203.681C3602.43 204.428 3603.17 205.175 3603.92 205.175H3604.11C3605.79 204.988 3607.65 204.988 3609.34 205.175H3609.9H3610.46C3611.39 205.175 3611.95 204.428 3611.95 203.681C3611.95 203.307 3611.76 202.934 3611.58 202.56C3611.2 202.187 3610.83 202 3610.46 202Z" fill="#006D4A"/>
<path d="M3518.76 286.974C3518.01 286.6 3517.08 286.974 3516.7 287.721C3515.77 289.588 3514.84 291.456 3513.9 293.51C3513.53 294.257 3513.9 295.191 3514.65 295.564C3514.84 295.564 3515.02 295.751 3515.21 295.751C3515.77 295.751 3516.52 295.378 3516.7 294.817C3517.64 292.95 3518.38 291.082 3519.32 289.215C3519.88 288.281 3519.51 287.347 3518.76 286.974Z" fill="#006D4A"/>
<path d="M3510.91 304.155C3510.54 303.968 3510.17 303.968 3509.79 304.155C3509.42 304.341 3509.05 304.715 3508.86 305.088C3508.11 306.956 3507.37 309.01 3506.62 310.878C3506.25 311.625 3506.81 312.559 3507.55 312.932C3507.74 312.932 3507.93 313.119 3508.11 313.119C3508.86 313.119 3509.42 312.745 3509.61 312.185C3510.35 310.318 3511.1 308.263 3511.85 306.396C3512.03 305.462 3511.66 304.528 3510.91 304.155Z" fill="#006D4A"/>
<path d="M3498.96 340.012C3498.22 339.825 3497.28 340.385 3497.1 341.132C3496.54 343.186 3496.16 345.241 3495.6 347.295C3495.42 348.229 3495.98 348.976 3496.72 349.162H3496.91C3497.66 349.162 3498.4 348.602 3498.59 347.855C3498.96 345.801 3499.52 343.747 3500.09 341.692C3500.27 340.945 3499.9 340.198 3498.96 340.012Z" fill="#006D4A"/>
<path d="M3494.86 358.312C3494.48 358.312 3494.11 358.312 3493.74 358.499C3493.36 358.686 3493.18 359.059 3492.99 359.433C3492.62 361.487 3492.24 363.541 3491.87 365.596C3491.87 365.969 3491.87 366.343 3492.24 366.716C3492.43 367.09 3492.8 367.276 3493.18 367.276H3493.36C3494.11 367.276 3494.86 366.716 3495.04 365.969C3495.42 363.915 3495.79 361.861 3496.16 359.806C3496.16 359.433 3496.16 359.059 3495.98 358.686C3495.6 358.686 3495.23 358.312 3494.86 358.312Z" fill="#006D4A"/>
<path d="M4020.94 431.148C4020.94 431.895 4021.69 432.642 4022.44 432.642C4022.81 432.642 4023.18 432.456 4023.56 432.082C4023.93 431.709 4023.93 431.335 4023.93 430.962C4023.93 428.721 4023.74 426.666 4023.56 424.612C4023.56 424.238 4023.37 423.865 4023 423.491C4022.62 423.305 4022.25 423.118 4021.88 423.118C4020.94 423.118 4020.38 424.052 4020.38 424.799C4020.76 427.04 4020.94 429.094 4020.94 431.148Z" fill="#006D4A"/>
<path d="M3504.38 321.895C3503.63 321.708 3502.7 322.082 3502.33 322.829C3501.58 324.883 3501.02 326.751 3500.46 328.805C3500.27 329.178 3500.46 329.552 3500.64 329.925C3500.83 330.299 3501.2 330.486 3501.58 330.672C3501.76 330.672 3501.76 330.672 3501.95 330.672C3502.7 330.672 3503.26 330.299 3503.45 329.552C3504.01 327.498 3504.75 325.63 3505.31 323.576C3505.69 323.016 3505.13 322.082 3504.38 321.895Z" fill="#006D4A"/>
<path d="M3560.59 224.972C3560.22 224.972 3559.85 225.159 3559.47 225.345C3557.98 226.839 3556.48 228.334 3554.99 230.014C3554.43 230.575 3554.43 231.695 3555.18 232.255C3555.36 232.442 3555.74 232.629 3556.11 232.629C3556.48 232.629 3557.04 232.442 3557.42 232.069C3558.91 230.575 3560.22 229.081 3561.71 227.586C3562.27 227.026 3562.27 225.906 3561.71 225.345C3561.34 225.159 3560.97 224.972 3560.59 224.972Z" fill="#006D4A"/>
<path d="M3575.35 212.833C3574.97 212.833 3574.6 212.833 3574.23 213.02C3572.55 214.14 3570.86 215.448 3569 216.755C3568.62 216.942 3568.44 217.315 3568.44 217.875C3568.44 218.249 3568.44 218.622 3568.81 218.996C3569.18 219.369 3569.56 219.556 3569.93 219.556C3570.3 219.556 3570.68 219.369 3571.05 219.183C3572.73 217.875 3574.41 216.568 3576.09 215.448C3576.47 215.261 3576.65 214.887 3576.84 214.514C3576.84 214.14 3576.84 213.767 3576.65 213.393C3576.09 213.207 3575.72 213.02 3575.35 212.833Z" fill="#006D4A"/>
<path d="M3591.41 204.429C3589.35 204.99 3587.3 205.923 3585.43 206.67C3585.06 206.857 3584.68 207.231 3584.68 207.604C3584.5 207.978 3584.5 208.351 3584.68 208.725C3584.87 209.285 3585.43 209.659 3585.99 209.659C3586.18 209.659 3586.55 209.659 3586.74 209.472C3588.61 208.538 3590.47 207.978 3592.53 207.231C3592.9 207.044 3593.28 206.857 3593.46 206.484C3593.65 206.11 3593.65 205.737 3593.65 205.363C3593.09 204.616 3592.15 204.243 3591.41 204.429Z" fill="#006D4A"/>
<path d="M3527.73 270.538C3527.35 270.352 3526.98 270.352 3526.61 270.352C3526.23 270.538 3525.86 270.725 3525.67 271.099C3524.55 272.966 3523.62 274.834 3522.5 276.514C3522.31 276.888 3522.31 277.261 3522.31 277.635C3522.5 278.009 3522.68 278.382 3523.06 278.569C3523.24 278.756 3523.43 278.756 3523.81 278.756C3524.37 278.756 3524.93 278.382 3525.3 278.009C3526.23 276.141 3527.35 274.46 3528.29 272.593C3528.47 272.219 3528.47 271.846 3528.47 271.472C3528.29 271.099 3528.1 270.725 3527.73 270.538Z" fill="#006D4A"/>
<path d="M3547.89 239.165C3547.52 239.165 3547.15 239.351 3546.77 239.725C3545.46 241.406 3544.16 243.086 3542.85 244.767C3542.66 245.141 3542.48 245.514 3542.48 245.888C3542.48 246.261 3542.66 246.635 3543.04 247.008C3543.22 247.195 3543.6 247.382 3543.97 247.382C3544.53 247.382 3544.9 247.195 3545.28 246.821C3546.59 245.141 3547.89 243.46 3549.01 241.779C3549.2 241.406 3549.39 241.032 3549.39 240.659C3549.39 240.285 3549.2 239.912 3548.83 239.538C3548.83 239.165 3548.27 238.978 3547.89 239.165Z" fill="#006D4A"/>
<path d="M3537.81 254.479C3537.43 254.292 3537.06 254.106 3536.69 254.292C3536.31 254.292 3535.94 254.666 3535.75 255.039C3534.63 256.72 3533.32 258.588 3532.2 260.269C3531.64 261.016 3532.02 261.949 3532.76 262.51C3532.95 262.696 3533.32 262.696 3533.51 262.696C3534.07 262.696 3534.63 262.51 3534.82 261.949C3535.94 260.269 3537.06 258.401 3538.18 256.72C3538.37 256.347 3538.55 255.973 3538.37 255.6C3538.37 255.226 3538.18 254.853 3537.81 254.479Z" fill="#006D4A"/>
<path d="M3962.86 369.893H3962.68C3960.81 369.893 3958.75 369.706 3956.51 369.893C3955.58 369.893 3955.02 370.64 3955.02 371.573C3955.02 372.32 3955.77 373.067 3956.51 373.067H3956.7C3958.75 373.067 3960.62 373.067 3962.68 373.067H3962.86C3963.8 373.067 3964.54 372.507 3964.54 371.573C3964.36 370.64 3963.61 369.893 3962.86 369.893Z" fill="#006D4A"/>
<path d="M3981.72 372.881C3979.67 372.321 3977.62 371.761 3975.56 371.387C3974.63 371.2 3973.88 371.761 3973.69 372.694C3973.69 373.068 3973.69 373.441 3973.88 373.815C3974.07 374.188 3974.44 374.375 3974.81 374.562C3976.87 374.935 3978.92 375.496 3980.79 376.056C3980.98 376.056 3980.98 376.056 3981.16 376.056C3981.91 376.056 3982.47 375.682 3982.66 374.935C3983.03 374.002 3982.66 373.255 3981.72 372.881Z" fill="#006D4A"/>
<path d="M3998.16 384.085C3998.72 384.085 3999.28 383.898 3999.47 383.338C3999.65 382.964 3999.84 382.591 3999.65 382.217C3999.65 381.844 3999.28 381.47 3999.09 381.284C3997.41 380.163 3995.55 378.856 3993.49 377.922C3992.74 377.549 3991.81 377.735 3991.44 378.482C3991.06 379.229 3991.25 380.163 3992 380.537C3993.86 381.47 3995.55 382.591 3997.23 383.711C3997.6 383.898 3997.97 384.085 3998.16 384.085Z" fill="#006D4A"/>
<path d="M3994.61 491.843C3993.3 493.337 3991.81 494.832 3990.31 496.326C3989.94 496.699 3989.75 497.073 3989.75 497.446C3989.75 497.82 3989.94 498.193 3990.13 498.567C3990.5 498.94 3990.87 498.94 3991.25 499.127C3991.62 499.127 3992.18 498.94 3992.37 498.753C3993.86 497.259 3995.36 495.765 3996.85 494.271C3997.41 493.711 3997.41 492.59 3996.85 492.03C3996.29 491.283 3995.17 491.283 3994.61 491.843Z" fill="#006D4A"/>
<path d="M3944.93 371.386C3944.56 371.199 3944.19 371.013 3943.81 371.199C3941.76 371.573 3939.7 371.946 3937.46 372.507C3936.53 372.693 3936.16 373.627 3936.34 374.374C3936.53 375.121 3937.09 375.495 3937.84 375.682C3938.02 375.682 3938.02 375.682 3938.21 375.682C3940.26 375.308 3942.32 374.748 3944.19 374.561C3944.56 374.561 3944.93 374.188 3945.12 374.001C3945.31 373.627 3945.49 373.254 3945.31 372.88C3945.49 371.946 3945.31 371.573 3944.93 371.386Z" fill="#006D4A"/>
<path d="M3926.44 375.869C3926.07 375.682 3925.7 375.682 3925.32 375.869C3923.46 376.616 3921.4 377.363 3919.35 378.11C3918.97 378.297 3918.6 378.67 3918.41 379.044C3918.23 379.417 3918.23 379.791 3918.41 380.164C3918.6 380.724 3919.16 381.098 3919.72 381.098C3919.91 381.098 3920.09 381.098 3920.47 380.911C3922.34 380.164 3924.39 379.417 3926.26 378.67C3927 378.297 3927.56 377.55 3927.19 376.616C3927 376.429 3926.82 376.056 3926.44 375.869Z" fill="#006D4A"/>
<path d="M3909.08 383.526C3908.71 383.339 3908.33 383.526 3907.96 383.712C3906.09 384.646 3904.22 385.58 3902.36 386.7C3901.61 387.074 3901.42 388.008 3901.8 388.755C3901.98 389.315 3902.54 389.502 3903.1 389.502C3903.48 389.502 3903.66 389.502 3903.85 389.315C3905.72 388.194 3907.59 387.261 3909.27 386.327C3909.64 386.14 3909.83 385.767 3910.01 385.393C3910.2 385.02 3910.01 384.646 3909.83 384.273C3909.83 383.899 3909.45 383.526 3909.08 383.526Z" fill="#006D4A"/>
<path d="M3685.91 390.623C3685.72 389.876 3684.79 389.316 3684.04 389.502C3683.29 389.689 3682.73 390.623 3682.92 391.37C3683.48 393.424 3684.23 395.478 3684.79 397.346C3684.97 397.906 3685.53 398.28 3686.28 398.466C3686.47 398.466 3686.65 398.466 3686.84 398.466C3687.59 398.093 3688.15 397.346 3687.77 396.412C3687.21 394.545 3686.65 392.677 3685.91 390.623Z" fill="#006D4A"/>
<path d="M4008.43 477.088C4007.68 476.528 4006.75 476.715 4006.19 477.462C4005.07 479.143 4003.76 480.823 4002.64 482.504C4002.46 482.878 4002.27 483.251 4002.27 483.625C4002.27 483.998 4002.46 484.372 4002.83 484.745C4003.02 484.932 4003.39 485.119 4003.76 485.119C4004.32 485.119 4004.7 484.932 4005.07 484.558C4006.38 482.878 4007.68 481.197 4008.8 479.329C4009.37 478.582 4009.18 477.462 4008.43 477.088Z" fill="#006D4A"/>
<path d="M4021.13 413.405C4021.31 413.032 4021.31 412.658 4021.31 412.285C4020.75 410.23 4020.01 408.176 4019.07 406.308C4018.89 405.935 4018.7 405.561 4018.14 405.375C4017.77 405.188 4017.39 405.188 4017.02 405.375C4016.27 405.748 4015.9 406.682 4016.08 407.429C4016.83 409.297 4017.58 411.164 4018.14 413.218C4018.33 413.779 4018.89 414.339 4019.63 414.339C4019.82 414.339 4020.01 414.339 4020.19 414.339C4020.57 413.965 4020.94 413.779 4021.13 413.405Z" fill="#006D4A"/>
<path d="M4021.88 442.166C4021.5 442.166 4021.13 442.166 4020.76 442.539C4020.38 442.726 4020.2 443.1 4020.2 443.66C4019.82 445.714 4019.45 447.768 4019.08 449.636C4018.89 450.57 4019.45 451.317 4020.2 451.503C4020.38 451.503 4020.38 451.503 4020.57 451.503C4021.32 451.503 4022.06 450.943 4022.25 450.383C4022.81 448.329 4023.19 446.274 4023.56 444.033C4023.56 443.66 4023.56 443.286 4023.19 442.913C4022.81 442.353 4022.44 442.166 4021.88 442.166Z" fill="#006D4A"/>
<path d="M4008.8 389.688C4008.24 389.128 4007.31 388.941 4006.56 389.501C4006 390.062 4005.82 390.995 4006.38 391.742C4007.68 393.236 4008.99 394.917 4010.11 396.598C4010.48 396.972 4010.86 397.158 4011.42 397.345C4011.79 397.345 4012.16 397.345 4012.35 396.972C4012.73 396.785 4012.91 396.411 4012.91 396.038C4012.91 395.664 4012.91 395.291 4012.73 394.917C4011.6 393.05 4010.3 391.369 4008.8 389.688Z" fill="#006D4A"/>
<path d="M4017.21 460.281C4016.83 460.094 4016.46 460.094 4016.09 460.281C4015.71 460.468 4015.34 460.655 4015.15 461.215C4014.41 463.083 4013.47 464.95 4012.54 466.818C4012.16 467.565 4012.54 468.498 4013.28 468.872C4013.47 469.059 4013.66 469.059 4013.84 469.059C4014.41 469.059 4014.97 468.685 4015.34 468.125C4016.27 466.257 4017.21 464.203 4017.95 462.335C4018.33 461.588 4017.95 460.655 4017.21 460.281Z" fill="#006D4A"/>
<path d="M3891.34 393.049C3889.47 394.17 3887.79 395.29 3886.11 396.411C3885.36 396.971 3885.17 397.905 3885.73 398.652C3885.92 399.025 3886.48 399.399 3887.04 399.399C3887.41 399.399 3887.6 399.399 3887.97 399.212C3889.65 398.091 3891.52 396.971 3893.2 395.85C3893.58 395.664 3893.76 395.29 3893.95 394.917C3893.95 394.543 3893.95 394.17 3893.76 393.796C3893.02 392.862 3892.08 392.675 3891.34 393.049Z" fill="#006D4A"/>
<path d="M3756.31 450.197C3754.26 450.01 3752.2 449.823 3750.15 449.45C3749.78 449.45 3749.4 449.45 3749.03 449.823C3748.66 450.01 3748.47 450.384 3748.47 450.757C3748.28 451.691 3748.84 452.438 3749.78 452.625C3751.83 452.998 3754.07 453.185 3756.13 453.372C3756.87 453.372 3757.62 452.812 3757.81 451.878C3757.81 450.944 3757.25 450.197 3756.31 450.197Z" fill="#006D4A"/>
<path d="M3738.2 446.647C3736.14 446.087 3734.28 445.34 3732.41 444.593C3731.66 444.219 3730.73 444.78 3730.35 445.527C3730.17 445.9 3730.17 446.274 3730.35 446.647C3730.54 447.021 3730.91 447.394 3731.29 447.394C3733.16 448.141 3735.21 448.888 3737.26 449.448C3737.45 449.448 3737.45 449.448 3737.64 449.448C3738.38 449.448 3738.94 449.075 3739.13 448.328C3739.5 447.768 3739.13 446.834 3738.2 446.647Z" fill="#006D4A"/>
<path d="M3774.99 450.197C3772.93 450.384 3770.88 450.571 3768.82 450.571C3767.89 450.571 3767.33 451.318 3767.33 452.251C3767.33 452.998 3768.08 453.745 3768.82 453.745H3769.01C3771.07 453.745 3773.31 453.559 3775.36 453.372C3776.29 453.372 3776.86 452.625 3776.86 451.691C3776.86 451.318 3776.67 450.944 3776.29 450.571C3775.73 450.384 3775.36 450.197 3774.99 450.197Z" fill="#006D4A"/>
<path d="M3721.39 439.179C3719.52 438.058 3717.84 436.938 3716.16 435.817C3715.41 435.257 3714.48 435.444 3713.92 436.191C3713.36 436.938 3713.54 437.872 3714.29 438.432C3715.97 439.739 3717.84 440.86 3719.71 441.98C3719.89 442.167 3720.27 442.167 3720.45 442.167C3721.01 442.167 3721.57 441.98 3721.95 441.42C3722.32 440.673 3722.13 439.739 3721.39 439.179Z" fill="#006D4A"/>
<path d="M3794.41 447.207C3794.03 447.02 3793.66 447.021 3793.29 447.021C3791.23 447.581 3789.18 447.954 3787.31 448.328C3786.38 448.515 3785.82 449.262 3786 450.195C3786.19 450.942 3786.75 451.503 3787.5 451.503C3787.68 451.503 3787.68 451.503 3787.87 451.503C3789.93 451.129 3791.98 450.569 3794.03 450.195C3794.41 450.009 3794.78 449.822 3794.97 449.448C3795.15 449.075 3795.15 448.701 3795.15 448.328C3794.97 447.768 3794.78 447.394 3794.41 447.207Z" fill="#006D4A"/>
<path d="M3702.71 423.491C3702.53 423.118 3702.15 422.931 3701.59 422.931C3701.22 422.931 3700.85 422.931 3700.47 423.305C3700.1 423.491 3699.91 423.865 3699.91 424.425C3699.91 424.799 3699.91 425.172 3700.29 425.546C3701.59 427.227 3703.09 428.721 3704.58 430.215C3704.95 430.588 3705.33 430.588 3705.7 430.588C3706.08 430.588 3706.64 430.401 3706.82 430.215C3707.38 429.654 3707.38 428.534 3706.82 427.974C3705.33 426.479 3704.02 424.985 3702.71 423.491Z" fill="#006D4A"/>
<path d="M3845.58 424.238C3845.21 424.051 3844.83 424.238 3844.46 424.425C3842.59 425.546 3840.91 426.666 3839.05 427.6C3838.67 427.787 3838.49 428.16 3838.3 428.534C3838.11 428.907 3838.3 429.281 3838.49 429.654C3838.67 430.214 3839.23 430.401 3839.79 430.401C3840.17 430.401 3840.35 430.401 3840.73 430.214C3842.59 429.094 3844.27 428.16 3846.14 427.04C3846.89 426.666 3847.08 425.546 3846.7 424.799C3846.33 424.612 3845.96 424.425 3845.58 424.238Z" fill="#006D4A"/>
<path d="M3692.63 407.989C3692.44 407.615 3692.07 407.242 3691.7 407.242C3691.32 407.055 3690.95 407.055 3690.58 407.242C3690.2 407.429 3689.83 407.802 3689.83 408.176C3689.64 408.549 3689.64 408.923 3689.83 409.296C3690.76 411.164 3691.88 413.031 3692.82 414.899C3693 415.272 3693.56 415.646 3694.12 415.646C3694.5 415.646 3694.68 415.646 3695.06 415.459C3695.43 415.272 3695.62 414.899 3695.8 414.525C3695.99 414.152 3695.8 413.778 3695.62 413.405C3694.5 411.537 3693.56 409.856 3692.63 407.989Z" fill="#006D4A"/>
<path d="M3860.15 414.153C3858.47 415.273 3856.6 416.581 3854.92 417.701C3854.54 417.888 3854.36 418.261 3854.17 418.635C3854.17 419.008 3854.17 419.382 3854.36 419.755C3854.54 420.129 3855.1 420.502 3855.66 420.502C3856.04 420.502 3856.41 420.502 3856.6 420.316C3858.28 419.195 3860.15 418.075 3861.83 416.767C3862.57 416.207 3862.76 415.273 3862.2 414.526C3861.83 413.966 3860.71 413.779 3860.15 414.153Z" fill="#006D4A"/>
<path d="M3811.03 441.419C3809.16 442.166 3807.11 442.913 3805.24 443.66C3804.5 444.034 3803.93 444.781 3804.31 445.715C3804.5 446.275 3805.06 446.835 3805.8 446.835C3805.99 446.835 3806.18 446.835 3806.36 446.835C3808.23 446.088 3810.28 445.341 3812.34 444.594C3813.09 444.221 3813.46 443.287 3813.27 442.54C3812.71 441.419 3811.78 441.046 3811.03 441.419Z" fill="#006D4A"/>
<path d="M3828.03 433.576C3826.16 434.51 3824.29 435.444 3822.42 436.378C3822.05 436.564 3821.68 436.938 3821.68 437.311C3821.49 437.685 3821.49 438.058 3821.68 438.432C3821.86 438.992 3822.42 439.366 3822.98 439.366C3823.17 439.366 3823.55 439.366 3823.73 439.179C3825.6 438.245 3827.47 437.311 3829.33 436.378C3830.08 436.004 3830.46 435.07 3830.08 434.323C3829.71 433.576 3828.77 433.203 3828.03 433.576Z" fill="#006D4A"/>
<path d="M3875.65 403.508C3873.97 404.629 3872.1 405.936 3870.42 407.057C3869.67 407.617 3869.49 408.551 3870.05 409.298C3870.23 409.671 3870.79 410.045 3871.35 410.045C3871.73 410.045 3872.1 410.045 3872.29 409.858L3872.47 409.671C3874.16 408.551 3875.84 407.43 3877.33 406.31C3877.7 406.123 3877.89 405.749 3878.08 405.376C3878.08 405.002 3878.08 404.629 3877.89 404.255C3877.33 403.135 3876.4 402.948 3875.65 403.508Z" fill="#006D4A"/>
<path d="M3981.91 504.356C3981.54 504.356 3981.16 504.356 3980.79 504.73C3980.04 505.477 3979.11 506.037 3978.36 506.597C3977.99 506.784 3977.8 507.158 3977.8 507.718C3977.8 508.091 3977.8 508.465 3978.17 508.838C3978.55 509.212 3978.92 509.399 3979.3 509.399C3979.67 509.399 3980.04 509.212 3980.42 509.025C3981.16 508.278 3982.1 507.718 3982.84 506.971C3983.59 506.41 3983.59 505.477 3983.03 504.73C3982.84 504.543 3982.47 504.356 3981.91 504.356Z" fill="#006D4A"/>
<path d="M2367.9 606.709L2372.36 616.732L2361.94 618.397L2358.43 603.951L2367.9 606.709Z" fill="#FFC856"/>
<path d="M2351.19 610.133L2358.43 603.951L2361.94 618.397L2351.19 610.133Z" fill="white"/>
<path d="M2367.19 617.558L2361.6 643.125L2352.55 641.225L2367.19 617.558Z" fill="#001E20"/>
<path d="M2334.61 630.129L2345.82 639.814L2352.55 641.225L2367.19 617.558L2361.94 618.397L2356.99 627.693L2334.61 630.129Z" fill="white"/>
<path d="M2370.11 611.67L2375.32 616.121L2371.75 615.372L2370.11 611.67Z" fill="#001E20"/>
<path d="M2372.36 616.732L2375.31 616.12L2371.75 615.371L2372.36 616.732Z" fill="#001E20"/>
<path d="M2361.94 618.397L2351.19 610.133L2322.84 631.447L2356.96 627.826L2361.94 618.397Z" fill="#FFC856"/>
<path d="M2321.5 638.868L2310.52 636.564L2322.84 631.448L2334.6 630.204L2321.5 638.868Z" fill="#001E20"/>
<path d="M2361.6 643.125L2367.39 649.73L2362.72 648.751L2356.66 642.088L2361.6 643.125Z" fill="#001E20"/>
<path d="M2350.83 640.866L2356.62 647.471L2351.95 646.492L2345.89 639.829L2350.83 640.866Z" fill="#001E20"/>
<rect width="2.33199" height="2.36099" transform="matrix(-0.738552 0.674197 0.617704 0.78641 2365.57 608.341)" fill="#001E20"/>
<g style="mix-blend-mode:screen" opacity="0.6">
<line x1="2265" y1="509" x2="2265" y2="125" stroke="#001E20" stroke-width="4" stroke-dasharray="8.01 8.02"/>
</g>
<g style="mix-blend-mode:screen" opacity="0.6">
<circle cx="2265" cy="117" r="7.5" fill="#001E20"/>
<circle cx="2265" cy="117" r="7.5" stroke="#001E20"/>
</g>
<g style="mix-blend-mode:screen" opacity="0.6">
<circle cx="2265" cy="517" r="7.5" fill="#001E20"/>
<circle cx="2265" cy="517" r="7.5" stroke="#001E20"/>
</g>
<circle cx="3491" cy="395" r="8" fill="#006D4A"/>
<g style="mix-blend-mode:screen" opacity="0.4">
<circle cx="1920" cy="541" r="109" fill="#001E20"/>
</g>
<g style="mix-blend-mode:screen" opacity="0.2">
<circle cx="2014.5" cy="99.5" r="44.5" fill="#001E20"/>
</g>
<g style="mix-blend-mode:screen" opacity="0.3">
<circle cx="2108" cy="317" r="28" fill="#001E20"/>
</g>
<defs>
<linearGradient id="paint0_linear" x1="3362.52" y1="650.473" x2="3362.52" y2="428.182" gradientUnits="userSpaceOnUse">
<stop stop-color="#796F8D"/>
<stop offset="1" stop-color="#9F9AA2"/>
</linearGradient>
<linearGradient id="paint1_linear" x1="3359.82" y1="479.253" x2="3342.15" y2="407.748" gradientUnits="userSpaceOnUse">
<stop stop-color="#C47000"/>
<stop offset="0.9888" stop-color="#FF9A4A"/>
</linearGradient>
<linearGradient id="paint2_linear" x1="3358.77" y1="479.513" x2="3341.09" y2="408.008" gradientUnits="userSpaceOnUse">
<stop stop-color="#FFBA00"/>
<stop offset="0.9888" stop-color="#FFE856"/>
</linearGradient>
</defs>
</svg>
