<svg width="185" height="213" viewBox="0 0 185 213" fill="none" xmlns="http://www.w3.org/2000/svg">
<g filter="url(#filter0_d)">
<rect x="10" y="8" width="165" height="165" rx="5" fill="white"/>
</g>
<g clip-path="url(#clip0)">
<path d="M92.4988 52.8892C93.8469 52.8892 94.9402 51.7959 94.9402 50.4477V38.0112C94.9402 36.6631 93.8472 35.5698 92.4988 35.5698C91.1504 35.5698 90.0574 36.6628 90.0574 38.0112V50.4477C90.0576 51.7959 91.1506 52.8892 92.4988 52.8892Z" fill="url(#paint0_linear)"/>
<path d="M74.1438 56.8995C74.6079 57.6361 75.4006 58.0394 76.2114 58.0394C76.6563 58.0394 77.1067 57.9178 77.5107 57.6632C78.6514 56.9444 78.9932 55.4369 78.2744 54.296L71.7695 43.975C71.0505 42.8343 69.543 42.4923 68.4026 43.2113C67.262 43.93 66.9202 45.4376 67.6389 46.5785L74.1438 56.8995Z" fill="url(#paint1_linear)"/>
<path d="M107.495 57.6642C107.899 57.9184 108.349 58.0397 108.794 58.0397C109.605 58.0397 110.398 57.6359 110.862 56.8988L117.36 46.5778C118.078 45.4367 117.736 43.9296 116.595 43.2108C115.453 42.4928 113.947 42.8356 113.228 43.9762L106.73 54.2973C106.012 55.4386 106.355 56.9457 107.495 57.6642V57.6642Z" fill="url(#paint2_linear)"/>
<path d="M154.213 93.0467L149.971 85.5528C149.307 84.379 147.817 83.9664 146.644 84.6309C145.471 85.2952 145.058 86.7847 145.722 87.9578L149.962 95.4485C150.175 95.825 150.12 96.188 150.068 96.3709C150.018 96.5469 149.881 96.8719 149.522 97.0701L142.984 100.691C142.403 101.012 141.645 100.81 141.329 100.251L139.668 97.313C139.661 97.2999 139.653 97.2876 139.646 97.2747L122.476 66.9051C122.264 66.5313 122.317 66.1729 122.368 65.9925C122.417 65.8179 122.553 65.4954 122.912 65.2969L129.458 61.6749C130.046 61.3492 130.785 61.5469 131.107 62.1168L134.933 68.8777C135.598 70.0513 137.088 70.4637 138.261 69.7999C139.434 69.1358 139.847 67.6461 139.183 66.4727L135.358 59.7147C133.726 56.8226 130.02 55.7852 127.095 57.4022L120.549 61.0242C119.133 61.8069 118.11 63.1006 117.669 64.6678C117.252 66.1453 117.401 67.6878 118.083 69.0416L114.477 70.0865C112.942 70.5308 112.009 70.7718 111.492 70.7718C111.49 70.7718 111.488 70.7718 111.486 70.7718C111.13 70.7706 110.741 70.6346 109.633 70.2147C109.13 70.0242 108.504 69.7869 107.734 69.5184L101.346 67.2852C97.8129 66.0513 96.2194 66.1177 93.9108 66.3284L83.0182 67.3033C78.0526 67.7432 74.8868 68.8633 73.1393 70.806L66.9318 69.0074C67.5997 67.6595 67.743 66.1319 67.3304 64.6678C66.889 63.1016 65.8666 61.8082 64.4518 61.0254L57.9103 57.4017C54.9825 55.7833 51.2738 56.8211 49.6422 59.7125L30.7936 93.0433C29.9867 94.4639 29.787 96.1163 30.2318 97.6961C30.6737 99.2649 31.6966 100.56 33.1102 101.342L39.6517 104.965C40.587 105.482 41.6031 105.728 42.6058 105.728C44.736 105.728 46.8068 104.619 47.9198 102.654L48.611 101.432C50.4972 102.262 52.0809 103.468 53.1603 104.897C52.1061 106.128 51.442 107.649 51.2557 109.302C51.0096 111.489 51.6273 113.635 52.995 115.345C54.3509 117.04 56.2899 118.11 58.4581 118.362C58.2286 120.53 58.8487 122.655 60.2059 124.346C61.6088 126.1 63.5914 127.123 65.6654 127.365C65.4369 129.53 66.0548 131.652 67.4078 133.344C68.7631 135.043 70.7025 136.116 72.8729 136.367C72.6432 138.537 73.2633 140.663 74.6205 142.355C76.2382 144.377 78.6263 145.43 81.0372 145.43C82.837 145.43 84.6495 144.843 86.1627 143.634L91.2745 139.544C91.6805 139.22 92.0494 138.862 92.3812 138.476L95.3011 140.809C96.8112 142.014 98.6195 142.599 100.417 142.599C102.829 142.599 105.221 141.544 106.841 139.52C107.695 138.453 108.235 137.234 108.479 135.977C109.333 136.272 110.234 136.425 111.153 136.425C111.462 136.425 111.772 136.408 112.083 136.373C114.27 136.13 116.226 135.054 117.585 133.35C118.945 131.656 119.565 129.532 119.336 127.364C121.408 127.122 123.392 126.099 124.799 124.346C126.2 122.594 126.763 120.436 126.543 118.362C128.71 118.109 130.648 117.04 132 115.348C133.369 113.642 133.989 111.5 133.747 109.315C133.563 107.656 132.898 106.131 131.842 104.896C132.918 103.468 134.499 102.26 136.386 101.43L137.079 102.655C138.191 104.62 140.261 105.727 142.392 105.727C143.395 105.727 144.412 105.481 145.348 104.964L151.886 101.342C153.299 100.561 154.322 99.2681 154.765 97.702C155.213 96.1236 155.017 94.4712 154.213 93.0467V93.0467ZM43.6703 100.25C43.3529 100.81 42.5944 101.012 42.016 100.692L35.4747 97.0694C35.1175 96.8716 34.9813 96.5479 34.9315 96.3724C34.8805 96.1905 34.826 95.8294 35.0414 95.451L53.8929 62.1136C54.1088 61.731 54.5155 61.5167 54.9379 61.5167C55.1434 61.5167 55.3524 61.5672 55.5453 61.6739L62.0848 65.2964C62.0856 65.2969 62.0863 65.2974 62.087 65.2977C62.4449 65.4957 62.5809 65.8182 62.6302 65.9927C62.681 66.1732 62.7347 66.5315 62.5201 66.9095L43.6703 100.25ZM61.4862 112.813C60.7977 113.365 59.9283 113.614 59.0399 113.515C58.151 113.417 57.3588 112.983 56.8085 112.295C56.257 111.606 56.0084 110.737 56.1083 109.848C56.2076 108.964 56.641 108.176 57.3329 107.625L66.473 100.319C67.9076 99.1736 70.0074 99.4092 71.1539 100.841C71.7052 101.53 71.954 102.398 71.8544 103.283C71.7552 104.166 71.3216 104.954 70.6337 105.501C70.6185 105.513 70.6056 105.526 70.5909 105.539L61.4884 112.812C61.4877 112.812 61.4869 112.813 61.4862 112.813V112.813ZM64.0165 121.293C63.4654 120.606 63.2164 119.741 63.3148 118.856C63.4132 117.971 63.847 117.179 64.536 116.626L64.5367 116.626C64.5372 116.626 64.5377 116.625 64.5382 116.625C64.5384 116.625 64.5384 116.625 64.5387 116.624L77.7042 106.106C79.1385 104.96 81.2389 105.194 82.3851 106.628C82.9357 107.316 83.1844 108.183 83.0861 109.068C82.9874 109.954 82.5524 110.746 81.8617 111.298L68.6996 121.813C67.2635 122.959 65.1639 122.728 64.0165 121.293V121.293ZM73.4545 131.52C72.5658 131.422 71.7743 130.988 71.2233 130.297C70.6727 129.609 70.4239 128.742 70.5223 127.857C70.621 126.971 71.0553 126.18 71.745 125.628C71.7455 125.628 71.7462 125.627 71.7467 125.627L80.8575 118.349C80.8683 118.34 80.88 118.333 80.8907 118.325C82.3214 117.179 84.421 117.413 85.5685 118.843C86.12 119.532 86.3688 120.401 86.2689 121.29C86.1693 122.174 85.736 122.962 85.0443 123.513L75.9044 130.819C75.2137 131.37 74.3434 131.618 73.4545 131.52V131.52ZM89.4501 133.502C89.3512 134.388 88.9174 135.178 88.2264 135.73L83.1144 139.821C81.6781 140.967 79.5785 140.736 78.4315 139.302C77.8805 138.616 77.6312 137.749 77.7296 136.863C77.828 135.976 78.2613 135.186 78.9491 134.636C78.9498 134.636 78.9508 134.635 78.9515 134.635L84.0624 130.549C84.0651 130.547 84.068 130.545 84.0707 130.543C85.5055 129.398 87.6053 129.633 88.7518 131.065C89.3009 131.752 89.5492 132.617 89.4501 133.502V133.502ZM128.19 112.295C127.64 112.983 126.847 113.417 125.958 113.515C125.07 113.615 124.201 113.365 123.512 112.813C123.512 112.813 123.511 112.813 123.511 112.813C123.511 112.812 123.51 112.812 123.51 112.812L116.977 107.592C115.923 106.751 114.387 106.922 113.546 107.976C112.704 109.029 112.876 110.565 113.929 111.407L120.46 116.625C121.892 117.772 122.129 119.867 120.988 121.293C119.838 122.727 117.738 122.96 116.305 121.812L109.218 116.157C108.165 115.316 106.629 115.489 105.787 116.542C104.947 117.596 105.119 119.132 106.173 119.973L113.256 125.625C113.946 126.178 114.38 126.97 114.479 127.857C114.577 128.742 114.328 129.607 113.773 130.3C113.224 130.988 112.432 131.421 111.544 131.52C110.654 131.618 109.784 131.37 109.096 130.821L105.57 128.001C105.564 127.996 105.558 127.991 105.552 127.986L102.573 125.605L102.016 125.159C100.963 124.317 99.4269 124.488 98.5851 125.541C98.4799 125.673 98.3903 125.812 98.3165 125.956C97.963 126.647 97.9689 127.458 98.3007 128.137C98.4542 128.452 98.6754 128.739 98.9669 128.972L102.512 131.807C103.935 132.957 104.168 135.045 103.028 136.47C101.882 137.903 99.7816 138.137 98.3478 136.993L94.3256 133.78C94.493 131.69 93.8739 129.653 92.5643 128.015C91.7504 126.998 90.7408 126.227 89.6322 125.71C90.4447 124.583 90.9606 123.259 91.1207 121.835C91.3668 119.649 90.7491 117.503 89.379 115.79C88.5648 114.775 87.5565 114.007 86.4501 113.491C87.264 112.36 87.7799 111.033 87.9386 109.608C88.1815 107.426 87.5633 105.285 86.1981 103.577C83.849 100.64 79.8763 99.7476 76.5699 101.151C76.3053 99.9356 75.7645 98.7891 74.9662 97.7908C72.1395 94.2586 66.9633 93.6807 63.4254 96.5035L56.8883 101.729C55.41 99.8423 53.4005 98.2779 51.0245 97.1622L64.4716 73.3777L71.6312 75.4522C71.6639 75.8353 71.7259 76.2381 71.8297 76.6648C73.5629 83.7908 80.1239 87.1111 88.9528 85.3321C96.3917 83.8353 99.4542 86.065 105.554 90.5066C106.186 90.9673 106.844 91.4461 107.532 91.939C111.919 95.086 116.606 98.785 119.749 101.292L127.674 107.626C128.362 108.175 128.796 108.966 128.894 109.853C128.992 110.74 128.743 111.606 128.19 112.295V112.295ZM128.114 101.727L122.796 97.4771C119.609 94.9354 114.856 91.1846 110.377 87.9712C109.698 87.4852 109.051 87.0137 108.428 86.5601C102.103 81.9544 97.5323 78.6268 87.9894 80.5459C85.0685 81.1346 78.1095 81.8228 76.5746 75.5123C76.3583 74.6214 76.578 74.3152 76.6715 74.1846C76.9979 73.7295 78.3114 72.6219 83.4503 72.1668L94.3544 71.191C96.1312 71.0289 97.0226 70.9473 99.7345 71.8946L106.123 74.128C106.833 74.376 107.401 74.5909 107.902 74.7808C110.979 75.9461 111.794 75.9459 115.835 74.7762L120.545 73.4114L133.974 97.1636C131.597 98.2786 129.59 99.8418 128.114 101.727Z" fill="url(#paint3_linear)"/>
<path d="M142.444 79.6599C143.792 79.6599 144.885 78.5632 144.885 77.2148C144.885 75.8665 143.792 74.7734 142.444 74.7734C141.096 74.7734 140.003 75.8667 140.003 77.2148V77.2217C140.003 78.5701 141.096 79.6599 142.444 79.6599Z" fill="url(#paint4_linear)"/>
</g>
<rect x="69.5" y="165.5" width="45" height="45" fill="white" stroke="url(#paint5_linear)" stroke-width="5"/>
<path d="M95.8485 196.344C95.8485 197.72 96.1045 198.68 96.6165 199.224C97.1285 199.736 98.0245 199.992 99.3045 199.992V201C95.8485 200.872 93.6405 200.808 92.6805 200.808C91.6245 200.808 89.3205 200.856 85.7685 200.952L84.4245 201V199.992C85.9285 199.992 87.0485 199.704 87.7845 199.128C88.5525 198.552 88.9365 197.528 88.9365 196.056V184.344C88.9365 182.808 88.7925 181.688 88.5045 180.984C88.2485 180.248 87.8005 179.768 87.1605 179.544C86.5205 179.288 85.5445 179.16 84.2325 179.16V178.104C87.0165 178.04 89.3045 177.832 91.0965 177.48C92.8885 177.096 94.4725 176.488 95.8485 175.656V196.344Z" fill="url(#paint6_linear)"/>
<defs>
<filter id="filter0_d" x="0" y="0" width="185" height="185" filterUnits="userSpaceOnUse" color-interpolation-filters="sRGB">
<feFlood flood-opacity="0" result="BackgroundImageFix"/>
<feColorMatrix in="SourceAlpha" type="matrix" values="0 0 0 0 0 0 0 0 0 0 0 0 0 0 0 0 0 0 127 0"/>
<feOffset dy="2"/>
<feGaussianBlur stdDeviation="5"/>
<feColorMatrix type="matrix" values="0 0 0 0 0 0 0 0 0 0 0 0 0 0 0 0 0 0 0.25 0"/>
<feBlend mode="normal" in2="BackgroundImageFix" result="effect1_dropShadow"/>
<feBlend mode="normal" in="SourceGraphic" in2="effect1_dropShadow" result="shape"/>
</filter>
<linearGradient id="paint0_linear" x1="92.4988" y1="35.5698" x2="92.4988" y2="52.8892" gradientUnits="userSpaceOnUse">
<stop stop-color="#F2C94C"/>
<stop offset="1" stop-color="#F29C4C"/>
</linearGradient>
<linearGradient id="paint1_linear" x1="72.9567" y1="42.835" x2="72.9567" y2="58.0394" gradientUnits="userSpaceOnUse">
<stop stop-color="#F2C94C"/>
<stop offset="1" stop-color="#F29C4C"/>
</linearGradient>
<linearGradient id="paint2_linear" x1="112.045" y1="42.8354" x2="112.045" y2="58.0397" gradientUnits="userSpaceOnUse">
<stop stop-color="#F2C94C"/>
<stop offset="1" stop-color="#F29C4C"/>
</linearGradient>
<linearGradient id="paint3_linear" x1="92.5001" y1="56.6377" x2="92.5001" y2="145.43" gradientUnits="userSpaceOnUse">
<stop stop-color="#F2C94C"/>
<stop offset="1" stop-color="#F29C4C"/>
</linearGradient>
<linearGradient id="paint4_linear" x1="142.444" y1="74.7734" x2="142.444" y2="79.6599" gradientUnits="userSpaceOnUse">
<stop stop-color="#F2C94C"/>
<stop offset="1" stop-color="#F29C4C"/>
</linearGradient>
<linearGradient id="paint5_linear" x1="92" y1="163" x2="92" y2="213" gradientUnits="userSpaceOnUse">
<stop stop-color="#F2C94C"/>
<stop offset="1" stop-color="#F29C4C"/>
</linearGradient>
<linearGradient id="paint6_linear" x1="91.5" y1="149" x2="91.5" y2="213" gradientUnits="userSpaceOnUse">
<stop stop-color="#F2C94C"/>
<stop offset="1" stop-color="#F29C4C"/>
</linearGradient>
<clipPath id="clip0">
<rect width="125" height="125" fill="white" transform="translate(30 28)"/>
</clipPath>
</defs>
</svg>
