<svg width="185" height="213" viewBox="0 0 185 213" fill="none" xmlns="http://www.w3.org/2000/svg">
    <g filter="url(#filter0_d)">
        <rect x="10" y="8" width="165" height="165" rx="5" fill="white"/>
    </g>
    <path d="M43.6719 114.033H121.797C122.315 114.033 122.812 113.829 123.178 113.467C123.544 113.105 123.75 112.613 123.75 112.1C123.75 111.588 123.544 111.096 123.178 110.734C122.812 110.371 122.315 110.168 121.797 110.168H43.6719C42.1179 110.168 40.6275 109.557 39.5287 108.47C38.4298 107.382 37.8125 105.908 37.8125 104.37C37.8125 102.833 38.4298 101.358 39.5287 100.271C40.6275 99.1833 42.1179 98.5725 43.6719 98.5725H51.4844C52.0024 98.5725 52.4992 98.3689 52.8654 98.0064C53.2317 97.644 53.4375 97.1525 53.4375 96.6399V85.0445C53.4375 84.532 53.2317 84.0404 52.8654 83.678C52.4992 83.3156 52.0024 83.1119 51.4844 83.1119C50.9664 83.1119 50.4696 83.3156 50.1033 83.678C49.737 84.0404 49.5312 84.532 49.5312 85.0445V94.7073H43.6719C41.5584 94.7045 39.5016 95.3829 37.8125 96.6399V42.5281C37.8125 40.9904 38.4298 39.5158 39.5287 38.4285C40.6275 37.3412 42.1179 36.7304 43.6719 36.7304H49.5312V77.3143C49.5312 77.8268 49.737 78.3184 50.1033 78.6808C50.4696 79.0432 50.9664 79.2468 51.4844 79.2468C52.0024 79.2468 52.4992 79.0432 52.8654 78.6808C53.2317 78.3184 53.4375 77.8268 53.4375 77.3143V44.4606H125.703C126.221 44.4606 126.718 44.257 127.084 43.8946C127.45 43.5322 127.656 43.0406 127.656 42.5281C127.656 42.0155 127.45 41.524 127.084 41.1615C126.718 40.7991 126.221 40.5955 125.703 40.5955H53.4375V34.7978C53.4375 34.2853 53.2317 33.7937 52.8654 33.4313C52.4992 33.0688 52.0024 32.8652 51.4844 32.8652H43.6719C41.0828 32.8683 38.6007 33.8873 36.77 35.6988C34.9392 37.5103 33.9094 39.9663 33.9062 42.5281V104.37C33.9094 106.932 34.9392 109.388 36.77 111.199C38.6007 113.011 41.0828 114.03 43.6719 114.033V114.033Z" fill="url(#paint0_linear)"/>
    <path d="M141.328 32.8652H133.516C132.998 32.8652 132.501 33.0688 132.135 33.4313C131.768 33.7937 131.562 34.2853 131.562 34.7978V96.6399C131.562 97.1525 131.768 97.644 132.135 98.0064C132.501 98.3689 132.998 98.5725 133.516 98.5725H141.328C142.882 98.5725 144.372 99.1833 145.471 100.271C146.57 101.358 147.188 102.833 147.188 104.37C147.188 105.908 146.57 107.382 145.471 108.47C144.372 109.557 142.882 110.168 141.328 110.168H129.609C129.091 110.168 128.595 110.371 128.228 110.734C127.862 111.096 127.656 111.588 127.656 112.1C127.656 112.613 127.862 113.105 128.228 113.467C128.595 113.829 129.091 114.033 129.609 114.033H141.328C143.917 114.03 146.399 113.011 148.23 111.199C150.061 109.388 151.091 106.932 151.094 104.37V42.5281C151.091 39.9663 150.061 37.5103 148.23 35.6988C146.399 33.8873 143.917 32.8683 141.328 32.8652V32.8652ZM141.328 94.7073H135.469V36.7304H141.328C142.882 36.7304 144.372 37.3412 145.471 38.4285C146.57 39.5158 147.188 40.9904 147.188 42.5281V96.6399C145.498 95.3829 143.442 94.7045 141.328 94.7073V94.7073Z" fill="url(#paint1_linear)"/>
    <path d="M108.125 65.7192C108.125 65.4294 108.059 65.1433 107.933 64.882C107.806 64.6207 107.621 64.391 107.393 64.2099L87.8613 48.7494C87.5151 48.4754 87.0849 48.3262 86.6416 48.3262C86.1983 48.3262 85.7681 48.4754 85.4219 48.7494L65.8906 64.2099C65.8652 64.2311 65.8555 64.264 65.832 64.2852C65.6522 64.4849 65.4883 64.6982 65.3418 64.923C65.2221 65.1719 65.1588 65.4436 65.1562 65.7192V88.91C65.1562 89.4225 65.362 89.9141 65.7283 90.2765C66.0946 90.639 66.5914 90.8426 67.1094 90.8426H106.172C106.69 90.8426 107.187 90.639 107.553 90.2765C107.919 89.9141 108.125 89.4225 108.125 88.91V65.7192ZM76.875 86.9774V79.2472H80.7812V86.9774H76.875ZM104.219 86.9774H84.6875V77.3146C84.6875 76.8021 84.4817 76.3105 84.1154 75.9481C83.7492 75.5856 83.2524 75.382 82.7344 75.382H74.9219C74.4039 75.382 73.9071 75.5856 73.5408 75.9481C73.1745 76.3105 72.9688 76.8021 72.9688 77.3146V86.9774H69.0625V67.6518H94.4531C94.9711 67.6518 95.4679 67.4482 95.8342 67.0857C96.2005 66.7233 96.4062 66.2318 96.4062 65.7192C96.4062 65.2067 96.2005 64.7151 95.8342 64.3527C95.4679 63.9903 94.9711 63.7866 94.4531 63.7866H72.6777L86.6406 52.7343L104.219 66.6488V86.9774Z" fill="url(#paint2_linear)"/>
    <path d="M88.5938 73.4492V81.1794C88.5938 81.692 88.7995 82.1835 89.1658 82.546C89.5321 82.9084 90.0289 83.112 90.5469 83.112H98.3594C98.8774 83.112 99.3742 82.9084 99.7404 82.546C100.107 82.1835 100.312 81.692 100.312 81.1794V73.4492C100.312 72.9366 100.107 72.4451 99.7404 72.0826C99.3742 71.7202 98.8774 71.5166 98.3594 71.5166H90.5469C90.0289 71.5166 89.5321 71.7202 89.1658 72.0826C88.7995 72.4451 88.5938 72.9366 88.5938 73.4492ZM92.5 75.3817H96.4062V79.2469H92.5V75.3817Z" fill="url(#paint3_linear)"/>
    <path d="M113.984 86.977C113.466 86.977 112.97 87.1806 112.603 87.543C112.237 87.9055 112.031 88.397 112.031 88.9096C112.031 89.4221 112.237 89.9137 112.603 90.2761C112.97 90.6385 113.466 90.8421 113.984 90.8421H121.797C122.315 90.8421 122.812 90.6385 123.178 90.2761C123.544 89.9137 123.75 89.4221 123.75 88.9096C123.75 88.397 123.544 87.9055 123.178 87.543C122.812 87.1806 122.315 86.977 121.797 86.977H119.844V52.1908H121.797C122.315 52.1908 122.812 51.9872 123.178 51.6248C123.544 51.2624 123.75 50.7708 123.75 50.2582C123.75 49.7457 123.544 49.2541 123.178 48.8917C122.812 48.5293 122.315 48.3257 121.797 48.3257H113.984C113.466 48.3257 112.97 48.5293 112.603 48.8917C112.237 49.2541 112.031 49.7457 112.031 50.2582C112.031 50.7708 112.237 51.2624 112.603 51.6248C112.97 51.9872 113.466 52.1908 113.984 52.1908H115.938V86.977H113.984Z" fill="url(#paint4_linear)"/>
    <path d="M106.172 106.302C106.69 106.302 107.187 106.099 107.553 105.736C107.919 105.374 108.125 104.882 108.125 104.37V96.6396C108.125 96.127 107.919 95.6355 107.553 95.2731C107.187 94.9106 106.69 94.707 106.172 94.707C105.654 94.707 105.157 94.9106 104.791 95.2731C104.425 95.6355 104.219 96.127 104.219 96.6396V98.5722H69.0625V96.6396C69.0625 96.127 68.8567 95.6355 68.4904 95.2731C68.1242 94.9106 67.6274 94.707 67.1094 94.707C66.5914 94.707 66.0946 94.9106 65.7283 95.2731C65.362 95.6355 65.1562 96.127 65.1562 96.6396V104.37C65.1562 104.882 65.362 105.374 65.7283 105.736C66.0946 106.099 66.5914 106.302 67.1094 106.302C67.6274 106.302 68.1242 106.099 68.4904 105.736C68.8567 105.374 69.0625 104.882 69.0625 104.37V102.437H104.219V104.37C104.219 104.882 104.425 105.374 104.791 105.736C105.157 106.099 105.654 106.302 106.172 106.302Z" fill="url(#paint5_linear)"/>
    <path d="M125.703 104.37C126.221 104.37 126.718 104.166 127.084 103.804C127.45 103.441 127.656 102.95 127.656 102.437V99.5385C127.656 98.6412 127.404 97.7617 126.927 96.9984C126.45 96.2352 125.768 95.6184 124.957 95.2171C124.146 94.8158 123.238 94.646 122.335 94.7266C121.432 94.8071 120.569 95.135 119.844 95.6733C119.118 95.135 118.256 94.8071 117.353 94.7266C116.449 94.646 115.541 94.8158 114.73 95.2171C113.919 95.6184 113.237 96.2352 112.76 96.9984C112.284 97.7617 112.031 98.6412 112.031 99.5385V102.437C112.031 102.95 112.237 103.441 112.603 103.804C112.97 104.166 113.466 104.37 113.984 104.37C114.502 104.37 114.999 104.166 115.365 103.804C115.732 103.441 115.938 102.95 115.938 102.437V99.5385C115.938 99.2822 116.04 99.0364 116.224 98.8552C116.407 98.674 116.655 98.5722 116.914 98.5722C117.173 98.5722 117.421 98.674 117.605 98.8552C117.788 99.0364 117.891 99.2822 117.891 99.5385C117.891 100.051 118.096 100.543 118.463 100.905C118.829 101.267 119.326 101.471 119.844 101.471C120.362 101.471 120.859 101.267 121.225 100.905C121.591 100.543 121.797 100.051 121.797 99.5385C121.797 99.2822 121.9 99.0364 122.083 98.8552C122.266 98.674 122.514 98.5722 122.773 98.5722C123.032 98.5722 123.281 98.674 123.464 98.8552C123.647 99.0364 123.75 99.2822 123.75 99.5385V102.437C123.75 102.95 123.956 103.441 124.322 103.804C124.688 104.166 125.185 104.37 125.703 104.37Z" fill="url(#paint6_linear)"/>
    <path d="M133.516 117.898H100.312C99.7944 117.898 99.2976 118.102 98.9313 118.464C98.565 118.826 98.3592 119.318 98.3592 119.831C98.3592 120.343 98.565 120.835 98.9313 121.197C99.2976 121.559 99.7944 121.763 100.312 121.763H119.844V125.628H82.7342V121.763H92.4999C93.0179 121.763 93.5147 121.559 93.8809 121.197C94.2472 120.835 94.453 120.343 94.453 119.831C94.453 119.318 94.2472 118.826 93.8809 118.464C93.5147 118.102 93.0179 117.898 92.4999 117.898H80.7811C80.594 117.898 80.4078 117.925 80.2284 117.977L68.5096 121.398C68.1139 121.511 67.7643 121.745 67.511 122.066C67.2577 122.388 67.1136 122.78 67.0993 123.188C67.085 123.595 67.2013 123.996 67.4314 124.334C67.6616 124.672 67.9938 124.93 68.3807 125.07L80.0995 129.381C80.3183 129.458 80.549 129.496 80.7811 129.493H133.516C135.07 129.493 136.56 128.883 137.659 127.795C138.758 126.708 139.375 125.233 139.375 123.696C139.375 122.158 138.758 120.683 137.659 119.596C136.56 118.509 135.07 117.898 133.516 117.898V117.898ZM123.75 121.763H127.656V125.628H123.75V121.763ZM78.828 122.416V124.78L75.2421 123.462L78.828 122.416ZM133.516 125.628H131.562V121.763H133.516C134.034 121.763 134.53 121.967 134.897 122.329C135.263 122.692 135.469 123.183 135.469 123.696C135.469 124.208 135.263 124.7 134.897 125.062C134.53 125.425 134.034 125.628 133.516 125.628Z" fill="url(#paint7_linear)"/>
    <path d="M137.422 133.359H35.8594C35.3414 133.359 34.8446 133.562 34.4783 133.925C34.112 134.287 33.9062 134.779 33.9062 135.291V146.887C33.9062 147.399 34.112 147.891 34.4783 148.253C34.8446 148.616 35.3414 148.819 35.8594 148.819H59.2969C59.8149 148.819 60.3117 148.616 60.6779 148.253C61.0442 147.891 61.25 147.399 61.25 146.887C61.25 146.374 61.0442 145.883 60.6779 145.52C60.3117 145.158 59.8149 144.954 59.2969 144.954H37.8125V137.224H41.7188V139.157C41.7188 139.669 41.9245 140.161 42.2908 140.523C42.6571 140.886 43.1539 141.089 43.6719 141.089C44.1899 141.089 44.6867 140.886 45.0529 140.523C45.4192 140.161 45.625 139.669 45.625 139.157V137.224H49.5312V139.157C49.5312 139.669 49.737 140.161 50.1033 140.523C50.4696 140.886 50.9664 141.089 51.4844 141.089C52.0024 141.089 52.4992 140.886 52.8654 140.523C53.2317 140.161 53.4375 139.669 53.4375 139.157V137.224H57.3438V139.157C57.3438 139.669 57.5495 140.161 57.9158 140.523C58.2821 140.886 58.7789 141.089 59.2969 141.089C59.8149 141.089 60.3117 140.886 60.6779 140.523C61.0442 140.161 61.25 139.669 61.25 139.157V137.224H65.1562V139.157C65.1562 139.669 65.362 140.161 65.7283 140.523C66.0946 140.886 66.5914 141.089 67.1094 141.089C67.6274 141.089 68.1242 140.886 68.4904 140.523C68.8567 140.161 69.0625 139.669 69.0625 139.157V137.224H72.9688V139.157C72.9688 139.669 73.1745 140.161 73.5408 140.523C73.9071 140.886 74.4039 141.089 74.9219 141.089C75.4399 141.089 75.9367 140.886 76.3029 140.523C76.6692 140.161 76.875 139.669 76.875 139.157V137.224H80.7812V139.157C80.7812 139.669 80.987 140.161 81.3533 140.523C81.7196 140.886 82.2164 141.089 82.7344 141.089C83.2524 141.089 83.7492 140.886 84.1154 140.523C84.4817 140.161 84.6875 139.669 84.6875 139.157V137.224H88.5938V139.157C88.5938 139.669 88.7995 140.161 89.1658 140.523C89.5321 140.886 90.0289 141.089 90.5469 141.089C91.0649 141.089 91.5617 140.886 91.9279 140.523C92.2942 140.161 92.5 139.669 92.5 139.157V137.224H96.4062V139.157C96.4062 139.669 96.612 140.161 96.9783 140.523C97.3446 140.886 97.8414 141.089 98.3594 141.089C98.8774 141.089 99.3742 140.886 99.7404 140.523C100.107 140.161 100.312 139.669 100.312 139.157V137.224H104.219V139.157C104.219 139.669 104.425 140.161 104.791 140.523C105.157 140.886 105.654 141.089 106.172 141.089C106.69 141.089 107.187 140.886 107.553 140.523C107.919 140.161 108.125 139.669 108.125 139.157V137.224H112.031V139.157C112.031 139.669 112.237 140.161 112.603 140.523C112.97 140.886 113.466 141.089 113.984 141.089C114.502 141.089 114.999 140.886 115.365 140.523C115.732 140.161 115.938 139.669 115.938 139.157V137.224H119.844V139.157C119.844 139.669 120.05 140.161 120.416 140.523C120.782 140.886 121.279 141.089 121.797 141.089C122.315 141.089 122.812 140.886 123.178 140.523C123.544 140.161 123.75 139.669 123.75 139.157V137.224H127.656V139.157C127.656 139.669 127.862 140.161 128.228 140.523C128.595 140.886 129.091 141.089 129.609 141.089C130.127 141.089 130.624 140.886 130.99 140.523C131.357 140.161 131.562 139.669 131.562 139.157V137.224H135.469V144.954H67.1094C66.5914 144.954 66.0946 145.158 65.7283 145.52C65.362 145.883 65.1562 146.374 65.1562 146.887C65.1562 147.399 65.362 147.891 65.7283 148.253C66.0946 148.616 66.5914 148.819 67.1094 148.819H137.422C137.94 148.819 138.437 148.616 138.803 148.253C139.169 147.891 139.375 147.399 139.375 146.887V135.291C139.375 134.779 139.169 134.287 138.803 133.925C138.437 133.562 137.94 133.359 137.422 133.359Z" fill="url(#paint8_linear)"/>
    <rect x="69.5" y="165.5" width="45" height="45" fill="white" stroke="url(#paint9_linear)" stroke-width="5"/>
    <path d="M91.6375 175.512C94.1015 175.512 96.0535 176.056 97.4935 177.144C98.9335 178.2 99.6535 179.688 99.6535 181.608C99.6535 182.92 99.2695 184.136 98.5015 185.256C97.7655 186.376 96.8855 187.368 95.8615 188.232C94.8375 189.096 93.4295 190.168 91.6375 191.448C89.3335 193.048 87.7175 194.328 86.7895 195.288H97.1575C98.0215 195.288 98.6615 195.224 99.0775 195.096C99.5255 194.968 99.8295 194.76 99.9895 194.472C100.15 194.184 100.278 193.736 100.374 193.128H101.382C101.382 196.904 101.446 199.608 101.574 201.24C100.87 201.08 98.4855 201 94.4215 201H80.4535V200.088C80.8695 199.64 81.6855 198.872 82.9015 197.784C84.7575 196.088 86.2935 194.584 87.5095 193.272C88.7575 191.928 89.8295 190.392 90.7255 188.664C91.6535 186.904 92.1175 185.08 92.1175 183.192C92.1175 181.496 91.7335 180.264 90.9655 179.496C90.2295 178.696 89.1255 178.296 87.6535 178.296C86.3095 178.296 85.1095 178.616 84.0535 179.256C83.0295 179.864 82.0855 180.776 81.2215 181.992L80.4055 181.512C82.7735 177.512 86.5175 175.512 91.6375 175.512Z" fill="url(#paint10_linear)"/>
    <defs>
        <filter id="filter0_d" x="0" y="0" width="185" height="185" filterUnits="userSpaceOnUse" color-interpolation-filters="sRGB">
            <feFlood flood-opacity="0" result="BackgroundImageFix"/>
            <feColorMatrix in="SourceAlpha" type="matrix" values="0 0 0 0 0 0 0 0 0 0 0 0 0 0 0 0 0 0 127 0"/>
            <feOffset dy="2"/>
            <feGaussianBlur stdDeviation="5"/>
            <feColorMatrix type="matrix" values="0 0 0 0 0 0 0 0 0 0 0 0 0 0 0 0 0 0 0.25 0"/>
            <feBlend mode="normal" in2="BackgroundImageFix" result="effect1_dropShadow"/>
            <feBlend mode="normal" in="SourceGraphic" in2="effect1_dropShadow" result="shape"/>
        </filter>
        <linearGradient id="paint0_linear" x1="80.7812" y1="32.8652" x2="80.7813" y2="114.033" gradientUnits="userSpaceOnUse">
            <stop stop-color="#F2C94C"/>
            <stop offset="1" stop-color="#F29C4C"/>
        </linearGradient>
        <linearGradient id="paint1_linear" x1="139.375" y1="32.8652" x2="139.375" y2="114.033" gradientUnits="userSpaceOnUse">
            <stop stop-color="#F2C94C"/>
            <stop offset="1" stop-color="#F29C4C"/>
        </linearGradient>
        <linearGradient id="paint2_linear" x1="86.6406" y1="48.3262" x2="86.6406" y2="90.8426" gradientUnits="userSpaceOnUse">
            <stop stop-color="#F2C94C"/>
            <stop offset="1" stop-color="#F29C4C"/>
        </linearGradient>
        <linearGradient id="paint3_linear" x1="94.4531" y1="71.5166" x2="94.4531" y2="83.112" gradientUnits="userSpaceOnUse">
            <stop stop-color="#F2C94C"/>
            <stop offset="1" stop-color="#F29C4C"/>
        </linearGradient>
        <linearGradient id="paint4_linear" x1="117.891" y1="48.3257" x2="117.891" y2="90.8421" gradientUnits="userSpaceOnUse">
            <stop stop-color="#F2C94C"/>
            <stop offset="1" stop-color="#F29C4C"/>
        </linearGradient>
        <linearGradient id="paint5_linear" x1="86.6406" y1="94.707" x2="86.6406" y2="106.302" gradientUnits="userSpaceOnUse">
            <stop stop-color="#F2C94C"/>
            <stop offset="1" stop-color="#F29C4C"/>
        </linearGradient>
        <linearGradient id="paint6_linear" x1="119.844" y1="94.707" x2="119.844" y2="104.37" gradientUnits="userSpaceOnUse">
            <stop stop-color="#F2C94C"/>
            <stop offset="1" stop-color="#F29C4C"/>
        </linearGradient>
        <linearGradient id="paint7_linear" x1="103.237" y1="117.898" x2="103.237" y2="129.493" gradientUnits="userSpaceOnUse">
            <stop stop-color="#F2C94C"/>
            <stop offset="1" stop-color="#F29C4C"/>
        </linearGradient>
        <linearGradient id="paint8_linear" x1="86.6406" y1="133.359" x2="86.6406" y2="148.819" gradientUnits="userSpaceOnUse">
            <stop stop-color="#F2C94C"/>
            <stop offset="1" stop-color="#F29C4C"/>
        </linearGradient>
        <linearGradient id="paint9_linear" x1="92" y1="163" x2="92" y2="213" gradientUnits="userSpaceOnUse">
            <stop stop-color="#F2C94C"/>
            <stop offset="1" stop-color="#F29C4C"/>
        </linearGradient>
        <linearGradient id="paint10_linear" x1="91" y1="149" x2="91" y2="213" gradientUnits="userSpaceOnUse">
            <stop stop-color="#F2C94C"/>
            <stop offset="1" stop-color="#F29C4C"/>
        </linearGradient>
    </defs>
</svg>
