<svg width="185" height="213" viewBox="0 0 185 213" fill="none" xmlns="http://www.w3.org/2000/svg">
    <g filter="url(#filter0_d)">
        <rect x="10" y="8" width="165" height="165" rx="5" fill="white"/>
    </g>
    <g clip-path="url(#clip0)">
    <path d="M150.79 35.2393V29.8311C150.79 28.8198 149.97 28 148.959 28H124.384C123.373 28 122.553 28.8198 122.553 29.8311V35.2393C120.193 35.4683 118.343 37.4619 118.343 39.8804V47.3274C118.343 49.7917 120.265 51.8108 122.689 51.9753V117.333C122.689 127.358 106.645 127.065 106.837 117.016C109.091 116.688 110.829 114.749 110.829 112.406V104.959C110.829 102.603 109.071 100.655 106.799 100.343V80.678C109.071 80.3667 110.829 78.4182 110.829 76.062V68.6152C110.829 66.2107 109 64.2263 106.66 63.978V56.6421C106.66 40.8489 93.6355 28 77.6267 28H64.1382C57.8657 28 51.8459 29.8733 46.73 33.4172C44.7974 34.7559 46.8799 37.7683 48.8154 36.4275C53.3159 33.3101 58.6145 31.6621 64.1382 31.6621H77.6267C91.6165 31.6621 102.998 42.8682 102.998 56.6423V63.9514H81.8247C81.9265 57.6084 76.7498 52.5947 70.4995 52.4783C64.2039 52.3611 58.6492 57.1973 58.6492 63.667V128.704H37.4761V57.9146C37.4761 52.8545 38.9407 47.9431 41.7114 43.7107C42.9993 41.7437 39.9373 39.7349 38.6475 41.7048C35.4854 46.5349 33.814 52.1401 33.814 57.9146V128.866C31.6472 129.267 30 131.167 30 133.449V140.896C30 143.272 31.7878 145.236 34.0886 145.521V151.162C34.0886 152.173 34.9084 152.993 35.9197 152.993H60.4944C61.5056 152.993 62.3254 152.173 62.3254 151.162V145.543C64.7422 145.371 66.6575 143.355 66.6575 140.896V133.448C66.6575 130.984 64.7349 128.965 62.3113 128.8V63.667C62.3113 53.6294 78.3679 53.9424 78.1626 64.0056C75.9092 64.3335 74.1711 66.2727 74.1711 68.6157V76.0625C74.1711 78.2871 75.7378 80.1501 77.825 80.6133V100.409C75.7378 100.872 74.1711 102.735 74.1711 104.959V112.406C74.1711 114.811 76.0002 116.795 78.3398 117.043V124.358C78.3398 140.151 91.3643 153 107.373 153H120.862C125.998 153 131.073 151.71 135.539 149.268C137.602 148.141 135.849 144.926 133.783 146.055C129.854 148.203 125.386 149.338 120.862 149.338H107.373C93.3835 149.338 82.002 138.132 82.002 124.358V117.071H103.175C103.078 123.405 108.264 128.406 114.5 128.522C120.796 128.639 126.351 123.802 126.351 117.333V51.9917H147.524V123.085C147.524 129.129 145.497 134.809 141.662 139.511C140.176 141.333 143.011 143.649 144.5 141.825C148.812 136.539 151.186 129.883 151.186 123.085V51.9104C153.353 51.509 155 49.6086 155 47.3276V39.8806C155 37.4619 153.149 35.4685 150.79 35.2393V35.2393ZM44.9646 141.898V132.447H51.6929V141.898H44.9646ZM33.6621 140.896V133.449C33.6621 132.896 34.1116 132.447 34.6641 132.447H41.3022V141.898H34.6641C34.1116 141.898 33.6621 141.448 33.6621 140.896V140.896ZM58.6633 149.331H37.7507V145.606H58.6633V149.331ZM62.9954 133.449V140.896C62.9954 141.448 62.5459 141.898 61.9934 141.898H55.3552V132.447H61.9934C62.5459 132.447 62.9954 132.896 62.9954 133.449ZM107.167 104.959V112.406C107.167 112.959 106.717 113.408 106.165 113.408L99.5264 113.386V103.989L106.165 103.957C106.717 103.957 107.167 104.407 107.167 104.959V104.959ZM89.1357 77.0647V67.6135H95.864V77.0647H89.1357ZM103.137 80.8828V100.295H81.4871V80.8828H103.137ZM95.864 103.989V113.386H89.1357V103.989H95.864ZM104.829 67.6133H106.165C106.717 67.6133 107.167 68.0627 107.167 68.6155V76.0623C107.167 76.615 106.717 77.0645 106.165 77.0645H99.5264V67.6133H104.829ZM77.8333 68.6155C77.8333 68.0627 78.2827 67.6133 78.8354 67.6133H85.4736V77.0645H78.8354C78.2827 77.0645 77.8333 76.615 77.8333 76.0623V68.6155ZM77.8333 112.406V104.96C77.8333 104.407 78.2827 103.958 78.8354 103.958L85.4736 103.989V113.387L78.8354 113.409C78.283 113.408 77.8333 112.959 77.8333 112.406V112.406ZM126.215 31.6621H147.128V35.2163H126.215V31.6621ZM140.035 38.8784V48.3296H133.307V38.8784H140.035ZM123.007 48.3296C122.454 48.3296 122.005 47.8801 122.005 47.3276V39.8806C122.005 39.3281 122.454 38.8787 123.007 38.8787H129.645V48.3296H123.007ZM151.338 47.3276C151.338 47.8801 150.888 48.3296 150.336 48.3296H143.698V38.8784H150.336C150.889 38.8784 151.338 39.3279 151.338 39.8804V47.3276Z" fill="url(#paint0_linear8)"/>
    </g>
    <rect x="69.5" y="165.5" width="45" height="45" fill="white" stroke="url(#paint1_linear8)" stroke-width="5"/>
    <path d="M94.7029 180.84C96.6869 182.536 98.1749 183.88 99.1669 184.872C100.191 185.832 101.087 186.984 101.855 188.328C102.623 189.64 103.007 191.064 103.007 192.6C103.007 194.36 102.495 195.928 101.471 197.304C100.479 198.68 99.0869 199.752 97.2949 200.52C95.5029 201.288 93.4869 201.672 91.2469 201.672C89.2309 201.672 87.3749 201.368 85.6789 200.76C83.9829 200.12 82.6229 199.176 81.5989 197.928C80.6069 196.68 80.1109 195.192 80.1109 193.464C80.1109 191.384 80.8149 189.576 82.2229 188.04C83.6309 186.504 85.5349 185.208 87.9349 184.152C85.9509 182.456 84.4149 180.856 83.3269 179.352C82.2389 177.816 81.6949 176.088 81.6949 174.168C81.6949 172.504 82.1589 171.08 83.0869 169.896C84.0149 168.712 85.2469 167.832 86.7829 167.256C88.3189 166.648 90.0149 166.344 91.8709 166.344C94.6229 166.344 96.8789 166.968 98.6389 168.216C100.399 169.432 101.279 171.048 101.279 173.064C101.279 174.632 100.719 176.04 99.5989 177.288C98.5109 178.504 96.8789 179.688 94.7029 180.84ZM91.4869 167.208C90.4309 167.208 89.5829 167.576 88.9429 168.312C88.3349 169.016 88.0309 169.976 88.0309 171.192C88.0309 172.792 88.5269 174.28 89.5189 175.656C90.5429 177.032 92.0149 178.552 93.9349 180.216C94.5429 179.352 94.9909 178.312 95.2789 177.096C95.5669 175.848 95.7109 174.632 95.7109 173.448C95.7109 171.496 95.3269 169.976 94.5589 168.888C93.8229 167.768 92.7989 167.208 91.4869 167.208ZM91.4869 200.808C92.9909 200.808 94.1749 200.344 95.0389 199.416C95.9029 198.456 96.3349 197.192 96.3349 195.624C96.3349 194.184 95.9829 192.856 95.2789 191.64C94.5749 190.424 93.7429 189.352 92.7829 188.424C91.8229 187.496 90.4469 186.28 88.6549 184.776C86.9269 186.6 86.0629 189.208 86.0629 192.6C86.0629 195.032 86.4789 197.016 87.3109 198.552C88.1749 200.056 89.5669 200.808 91.4869 200.808Z" fill="url(#paint2_linear8)"/>
    <defs>
        <linearGradient id="paint0_linear8" x1="92.5" y1="28" x2="92.5" y2="153" gradientUnits="userSpaceOnUse">
            <stop stop-color="#F2C94C"/>
            <stop offset="1" stop-color="#F29C4C"/>
        </linearGradient>
        <linearGradient id="paint1_linear8" x1="92" y1="163" x2="92" y2="213" gradientUnits="userSpaceOnUse">
            <stop stop-color="#F2C94C"/>
            <stop offset="1" stop-color="#F29C4C"/>
        </linearGradient>
        <linearGradient id="paint2_linear8" x1="91.5" y1="149" x2="91.5" y2="213" gradientUnits="userSpaceOnUse">
            <stop stop-color="#F2C94C"/>
            <stop offset="1" stop-color="#F29C4C"/>
        </linearGradient>
        <clipPath id="clip0">
            <rect width="125" height="125" fill="white" transform="translate(30 28)"/>
        </clipPath>
    </defs>
</svg>
