<svg width="185" height="213" viewBox="0 0 185 213" fill="none" xmlns="http://www.w3.org/2000/svg">
    <g filter="url(#filter0_d)">
        <rect x="10" y="8" width="165" height="165" rx="5" fill="white"/>
    </g>
    <g clip-path="url(#clip0)">
        <path d="M152.721 136.138H150.638V121.555C150.638 120.404 149.705 119.471 148.554 119.471H142.304V109.055C142.304 107.903 141.371 106.971 140.221 106.971H133.97V96.5539C133.97 95.4042 133.038 94.4711 131.887 94.4711H117.304V29.8883C117.304 28.737 116.372 27.8047 115.22 27.8047C114.071 27.8047 113.137 28.737 113.137 29.8883V65.3047H108.97V29.8883C108.97 28.737 108.037 27.8047 106.888 27.8047C105.736 27.8047 104.803 28.737 104.803 29.8883V65.3047H100.637V29.8883C100.637 28.737 99.7044 27.8047 98.5532 27.8047C97.4027 27.8047 96.4703 28.737 96.4703 29.8883V136.138H63.1383V29.8883C63.1383 28.737 62.2044 27.8047 61.0547 27.8047C59.9034 27.8047 58.9711 28.737 58.9711 29.8883V65.3047H54.8039V29.8883C54.8039 28.737 53.8716 27.8047 52.7211 27.8047C51.5706 27.8047 50.6375 28.737 50.6375 29.8883V65.3047H46.4711V29.8883C46.4711 28.737 45.538 27.8047 44.3883 27.8047C43.237 27.8047 42.3047 28.737 42.3047 29.8883V136.138H31.8883C30.737 136.138 29.8047 137.071 29.8047 138.221V150.722C29.8047 151.872 30.737 152.805 31.8883 152.805H152.722C153.872 152.805 154.805 151.872 154.805 150.722V138.221C154.805 137.071 153.872 136.138 152.721 136.138ZM146.471 136.138H117.304V123.638H146.471V136.138ZM138.138 119.471H117.304V111.138H138.138V119.471ZM129.805 98.6375V106.971H117.304V98.6375H129.805ZM100.638 69.4719H113.138V136.138H100.638V69.4719ZM46.4711 69.4719H58.9711V136.138H46.4711V69.4719ZM150.638 148.638H33.9711V140.305H150.638V148.638Z" fill="url(#paint0_linear5)"/>
    </g>
    <rect x="69.5" y="165.5" width="45" height="45" fill="white" stroke="url(#paint1_linear5)" stroke-width="5"/>
    <path d="M98.9644 174.36C98.9644 178.104 99.0284 180.792 99.1564 182.424C98.4844 182.264 96.2604 182.184 92.4844 182.184H85.0924L84.3244 190.392C86.1804 189.112 88.5964 188.472 91.5724 188.472C94.6444 188.472 96.9644 189.176 98.5324 190.584C100.132 191.992 100.932 193.816 100.932 196.056C100.932 198.424 100.004 200.52 98.1484 202.344C96.2924 204.2 93.8924 205.624 90.9484 206.616C88.0364 207.608 85.0284 208.104 81.9244 208.104V207.24C83.9404 207.208 85.8604 206.76 87.6844 205.896C89.5084 205.064 90.9804 203.816 92.1004 202.152C93.2204 200.52 93.7804 198.584 93.7804 196.344C93.7804 194.328 93.3004 192.792 92.3404 191.736C91.4124 190.648 90.0524 190.104 88.2604 190.104C87.3964 190.104 86.6284 190.216 85.9564 190.44C85.2844 190.664 84.6124 191.016 83.9404 191.496L83.2684 191.064L84.8044 176.04C85.4444 176.168 86.3084 176.232 87.3964 176.232H95.3164C96.2444 176.232 96.8844 176.104 97.2364 175.848C97.6204 175.56 97.8604 175.064 97.9564 174.36H98.9644Z" fill="url(#paint2_linear5)"/>
    <defs>
        <linearGradient id="paint0_linear5" x1="92.3047" y1="27.8047" x2="92.3047" y2="152.805" gradientUnits="userSpaceOnUse">
            <stop stop-color="#F2C94C"/>
            <stop offset="1" stop-color="#F29C4C"/>
        </linearGradient>
        <linearGradient id="paint1_linear5" x1="92" y1="163" x2="92" y2="213" gradientUnits="userSpaceOnUse">
            <stop stop-color="#F2C94C"/>
            <stop offset="1" stop-color="#F29C4C"/>
        </linearGradient>
        <linearGradient id="paint2_linear5" x1="91.5" y1="149" x2="91.5" y2="213" gradientUnits="userSpaceOnUse">
            <stop stop-color="#F2C94C"/>
            <stop offset="1" stop-color="#F29C4C"/>
        </linearGradient>
        <clipPath id="clip0">
            <rect width="125" height="125" fill="white" transform="translate(30 28)"/>
        </clipPath>
    </defs>
</svg>
