<svg width="185" height="213" viewBox="0 0 185 213" fill="none" xmlns="http://www.w3.org/2000/svg">
    <g filter="url(#filter0_d)">
        <rect x="10" y="8" width="165" height="165" rx="5" fill="white"/>
    </g>
    <path d="M145.234 49.4844H131.562V45.5781C131.558 44.0255 130.939 42.5379 129.841 41.44C128.743 40.3422 127.256 39.7234 125.703 39.7188H112.031V33.8594C112.031 33.3414 111.825 32.8446 111.459 32.4783C111.093 32.112 110.596 31.9062 110.078 31.9062H35.8594C35.3414 31.9062 34.8446 32.112 34.4783 32.4783C34.112 32.8446 33.9062 33.3414 33.9062 33.8594V143.234C33.9062 143.752 34.112 144.249 34.4783 144.615C34.8446 144.982 35.3414 145.188 35.8594 145.188H94.8047C95.2101 146.326 95.9563 147.311 96.9418 148.01C97.9274 148.709 99.1043 149.088 100.312 149.094H112.031C113.584 149.089 115.071 148.47 116.169 147.372C117.267 146.275 117.886 144.787 117.891 143.234V110.031H119.844C120.362 110.031 120.859 109.825 121.225 109.459C121.591 109.093 121.797 108.596 121.797 108.078V100.266C121.797 99.7476 121.591 99.2508 121.225 98.8846C120.859 98.5183 120.362 98.3125 119.844 98.3125H112.031V90.5H145.234C146.787 90.4954 148.275 89.8765 149.372 88.7787C150.47 87.6809 151.089 86.1932 151.094 84.6406V55.3438C151.089 53.7912 150.47 52.3035 149.372 51.2057C148.275 50.1078 146.787 49.489 145.234 49.4844V49.4844ZM131.562 65.1094V61.2031H139.375V78.7812H112.031V70.9688H125.703C127.256 70.9641 128.743 70.3453 129.841 69.2475C130.939 68.1496 131.558 66.662 131.562 65.1094V65.1094ZM125.703 43.625C126.221 43.625 126.718 43.8308 127.084 44.1971C127.45 44.5633 127.656 45.0601 127.656 45.5781V65.1094C127.656 65.6274 127.45 66.1242 127.084 66.4904C126.718 66.8567 126.221 67.0625 125.703 67.0625H55.3906C54.8726 67.0625 54.3758 66.8567 54.0096 66.4904C53.6433 66.1242 53.4375 65.6274 53.4375 65.1094V45.5781C53.4375 45.0601 53.6433 44.5633 54.0096 44.1971C54.3758 43.8308 54.8726 43.625 55.3906 43.625H125.703ZM82.7344 72.9219C81.1818 72.9265 79.6941 73.5453 78.5963 74.6432C77.4985 75.741 76.8796 77.2287 76.875 78.7812V92.4531C76.875 92.9711 76.6692 93.4679 76.3029 93.8342C75.9367 94.2005 75.4399 94.4062 74.9219 94.4062C74.4039 94.4062 73.9071 94.2005 73.5408 93.8342C73.1745 93.4679 72.9688 92.9711 72.9688 92.4531V86.5938C72.9688 85.0397 72.3514 83.5494 71.2526 82.4505C70.1537 81.3517 68.6634 80.7344 67.1094 80.7344C65.5554 80.7344 64.065 81.3517 62.9662 82.4505C61.8673 83.5494 61.25 85.0397 61.25 86.5938V108.078C61.25 108.596 61.0442 109.093 60.6779 109.459C60.3117 109.825 59.8149 110.031 59.2969 110.031C58.7789 110.031 58.2821 109.825 57.9158 109.459C57.5495 109.093 57.3438 108.596 57.3438 108.078V70.9688H92.5V86.5938C92.5 87.1118 92.2942 87.6085 91.9279 87.9748C91.5617 88.3411 91.0649 88.5469 90.5469 88.5469C90.0289 88.5469 89.5321 88.3411 89.1658 87.9748C88.7995 87.6085 88.5938 87.1118 88.5938 86.5938V78.7812C88.5891 77.2287 87.9703 75.741 86.8725 74.6432C85.7746 73.5453 84.287 72.9265 82.7344 72.9219V72.9219ZM94.4531 141.281H37.8125V35.8125H108.125V39.7188H55.3906C53.838 39.7234 52.3504 40.3422 51.2525 41.44C50.1547 42.5379 49.5359 44.0255 49.5312 45.5781V49.4844H47.5781C46.5431 49.4875 45.5513 49.9 44.8194 50.6319C44.0875 51.3638 43.675 52.3556 43.6719 53.3906V57.2969C43.675 58.3319 44.0875 59.3237 44.8194 60.0556C45.5513 60.7875 46.5431 61.2 47.5781 61.2031H49.5312V65.1094C49.5375 66.3176 49.9158 67.4945 50.6148 68.48C51.3137 69.4656 52.2993 70.2118 53.4375 70.6172V108.078C53.4375 109.632 54.0548 111.122 55.1537 112.221C56.2525 113.32 57.7429 113.938 59.2969 113.938C60.8509 113.938 62.3412 113.32 63.4401 112.221C64.5389 111.122 65.1562 109.632 65.1562 108.078V86.5938C65.1562 86.0757 65.362 85.579 65.7283 85.2127C66.0946 84.8464 66.5914 84.6406 67.1094 84.6406C67.6274 84.6406 68.1242 84.8464 68.4904 85.2127C68.8567 85.579 69.0625 86.0757 69.0625 86.5938V92.4531C69.0625 94.0071 69.6798 95.4975 70.7787 96.5963C71.8775 97.6952 73.3679 98.3125 74.9219 98.3125C76.4759 98.3125 77.9662 97.6952 79.0651 96.5963C80.1639 95.4975 80.7812 94.0071 80.7812 92.4531V78.7812C80.7812 78.2632 80.987 77.7665 81.3533 77.4002C81.7196 77.0339 82.2164 76.8281 82.7344 76.8281C83.2524 76.8281 83.7492 77.0339 84.1154 77.4002C84.4817 77.7665 84.6875 78.2632 84.6875 78.7812V86.5938C84.6875 88.1478 85.3048 89.6381 86.4037 90.737C87.5025 91.8358 88.9929 92.4531 90.5469 92.4531C92.1009 92.4531 93.5912 91.8358 94.6901 90.737C95.7889 89.6381 96.4062 88.1478 96.4062 86.5938V70.9688H108.125V78.7812H106.172C104.619 78.7859 103.132 79.4047 102.034 80.5025C100.936 81.6004 100.317 83.088 100.312 84.6406V98.3125H92.5C91.982 98.3125 91.4852 98.5183 91.1189 98.8846C90.7526 99.2508 90.5469 99.7476 90.5469 100.266V108.078C90.5469 108.596 90.7526 109.093 91.1189 109.459C91.4852 109.825 91.982 110.031 92.5 110.031H94.4531V141.281ZM49.5312 53.3906V57.2969H47.5781V53.3906H49.5312ZM113.984 143.234C113.984 143.752 113.779 144.249 113.412 144.615C113.046 144.982 112.549 145.188 112.031 145.188H100.312C99.7945 145.188 99.2977 144.982 98.9314 144.615C98.5651 144.249 98.3594 143.752 98.3594 143.234V110.031H113.984V143.234ZM117.891 102.219V106.125H94.4531V102.219H117.891ZM147.188 84.6406C147.188 85.1586 146.982 85.6554 146.615 86.0217C146.249 86.388 145.752 86.5938 145.234 86.5938H112.031C110.996 86.5968 110.004 87.0094 109.273 87.7413C108.541 88.4732 108.128 89.4649 108.125 90.5V98.3125H104.219V84.6406C104.219 84.1226 104.425 83.6258 104.791 83.2596C105.157 82.8933 105.654 82.6875 106.172 82.6875H139.375C140.41 82.6844 141.402 82.2719 142.134 81.54C142.866 80.8081 143.278 79.8163 143.281 78.7812V61.2031C143.278 60.1681 142.866 59.1763 142.134 58.4444C141.402 57.7125 140.41 57.3 139.375 57.2969H131.562V53.3906H145.234C145.752 53.3906 146.249 53.5964 146.615 53.9627C146.982 54.329 147.188 54.8257 147.188 55.3438V84.6406Z" fill="url(#paint0_linear9)"/>
    <path d="M59.2969 117.844C58.138 117.844 57.0052 118.187 56.0416 118.831C55.078 119.475 54.327 120.39 53.8835 121.461C53.44 122.532 53.324 123.71 53.5501 124.846C53.7762 125.983 54.3342 127.027 55.1537 127.846C55.9731 128.666 57.0172 129.224 58.1538 129.45C59.2904 129.676 60.4685 129.56 61.5392 129.116C62.6098 128.673 63.5249 127.922 64.1688 126.958C64.8126 125.995 65.1562 124.862 65.1562 123.703C65.1562 122.149 64.5389 120.659 63.4401 119.56C62.3412 118.461 60.8509 117.844 59.2969 117.844V117.844ZM59.2969 125.656C58.9106 125.656 58.533 125.542 58.2118 125.327C57.8906 125.112 57.6403 124.807 57.4924 124.451C57.3446 124.094 57.3059 123.701 57.3813 123.322C57.4566 122.943 57.6427 122.595 57.9158 122.322C58.189 122.049 58.537 121.863 58.9158 121.788C59.2947 121.712 59.6874 121.751 60.0443 121.899C60.4012 122.047 60.7062 122.297 60.9208 122.618C61.1355 122.939 61.25 123.317 61.25 123.703C61.25 124.221 61.0442 124.718 60.6779 125.084C60.3117 125.45 59.8149 125.656 59.2969 125.656Z" fill="url(#paint1_linear9)"/>
    <path d="M74.9219 102.219C73.763 102.219 72.6302 102.562 71.6666 103.206C70.703 103.85 69.952 104.765 69.5085 105.836C69.065 106.907 68.949 108.085 69.1751 109.221C69.4012 110.358 69.9592 111.402 70.7787 112.221C71.5981 113.041 72.6422 113.599 73.7788 113.825C74.9154 114.051 76.0935 113.935 77.1642 113.491C78.2348 113.048 79.1499 112.297 79.7938 111.333C80.4376 110.37 80.7812 109.237 80.7812 108.078C80.7812 106.524 80.1639 105.034 79.0651 103.935C77.9662 102.836 76.4759 102.219 74.9219 102.219ZM74.9219 110.031C74.5356 110.031 74.158 109.917 73.8368 109.702C73.5156 109.487 73.2653 109.182 73.1174 108.826C72.9696 108.469 72.9309 108.076 73.0063 107.697C73.0816 107.318 73.2677 106.97 73.5408 106.697C73.814 106.424 74.162 106.238 74.5408 106.163C74.9197 106.087 75.3124 106.126 75.6693 106.274C76.0262 106.422 76.3312 106.672 76.5458 106.993C76.7605 107.314 76.875 107.692 76.875 108.078C76.875 108.596 76.6692 109.093 76.3029 109.459C75.9367 109.825 75.4399 110.031 74.9219 110.031Z" fill="url(#paint2_linear9)"/>
    <path d="M57.3438 49.4844C57.3438 50.0024 57.5495 50.4992 57.9158 50.8654C58.2821 51.2317 58.7789 51.4375 59.2969 51.4375H112.031C112.549 51.4375 113.046 51.2317 113.412 50.8654C113.779 50.4992 113.984 50.0024 113.984 49.4844C113.984 48.9664 113.779 48.4696 113.412 48.1033C113.046 47.737 112.549 47.5312 112.031 47.5312H59.2969C58.7789 47.5312 58.2821 47.737 57.9158 48.1033C57.5495 48.4696 57.3438 48.9664 57.3438 49.4844Z" fill="url(#paint3_linear9)"/>
    <path d="M119.844 51.4375H121.797C122.315 51.4375 122.812 51.2317 123.178 50.8654C123.544 50.4992 123.75 50.0024 123.75 49.4844C123.75 48.9664 123.544 48.4696 123.178 48.1033C122.812 47.737 122.315 47.5312 121.797 47.5312H119.844C119.326 47.5312 118.829 47.737 118.463 48.1033C118.096 48.4696 117.891 48.9664 117.891 49.4844C117.891 50.0024 118.096 50.4992 118.463 50.8654C118.829 51.2317 119.326 51.4375 119.844 51.4375Z" fill="url(#paint4_linear9)"/>
    <rect x="69.5" y="165.5" width="45" height="45" fill="white" stroke="url(#paint5_linear9)" stroke-width="5"/>
    <path d="M91.5784 175.512C95.0984 175.512 97.8504 176.68 99.8344 179.016C101.85 181.32 102.858 184.568 102.858 188.76C102.858 192.76 101.866 196.168 99.8824 198.984C97.8984 201.768 95.4664 203.912 92.5864 205.416C89.7064 206.92 86.8424 207.88 83.9944 208.296L83.8024 207.336C85.7224 206.76 87.4024 206.04 88.8424 205.176C90.3144 204.312 91.6104 203 92.7304 201.24C93.8824 199.512 94.6984 197.224 95.1784 194.376C94.5064 195.368 93.6264 196.104 92.5384 196.584C91.4504 197.064 90.2824 197.304 89.0344 197.304C87.3064 197.304 85.7224 196.888 84.2824 196.056C82.8744 195.192 81.7384 193.976 80.8744 192.408C80.0424 190.84 79.6264 189 79.6264 186.888C79.6264 184.52 80.1544 182.488 81.2104 180.792C82.2984 179.064 83.7544 177.752 85.5784 176.856C87.4024 175.96 89.4024 175.512 91.5784 175.512ZM90.9544 195.912C91.7544 195.912 92.5704 195.64 93.4024 195.096C94.2664 194.52 94.9384 193.64 95.4184 192.456C95.5464 191.4 95.6104 190.088 95.6104 188.52C95.6104 184.264 95.1624 181.192 94.2664 179.304C93.3704 177.416 92.2984 176.472 91.0504 176.472C89.8664 176.472 88.8744 177.304 88.0744 178.968C87.2744 180.6 86.8744 183.112 86.8744 186.504C86.8744 189.736 87.2424 192.12 87.9784 193.656C88.7464 195.16 89.7384 195.912 90.9544 195.912Z" fill="url(#paint6_linear9)"/>
    <defs>
        <linearGradient id="paint0_linear9" x1="92.5" y1="31.9062" x2="92.5" y2="149.094" gradientUnits="userSpaceOnUse">
            <stop stop-color="#F2C94C"/>
            <stop offset="1" stop-color="#F29C4C"/>
        </linearGradient>
        <linearGradient id="paint1_linear9" x1="59.2969" y1="117.844" x2="59.2969" y2="129.563" gradientUnits="userSpaceOnUse">
            <stop stop-color="#F2C94C"/>
            <stop offset="1" stop-color="#F29C4C"/>
        </linearGradient>
        <linearGradient id="paint2_linear9" x1="74.9219" y1="102.219" x2="74.9219" y2="113.938" gradientUnits="userSpaceOnUse">
            <stop stop-color="#F2C94C"/>
            <stop offset="1" stop-color="#F29C4C"/>
        </linearGradient>
        <linearGradient id="paint3_linear9" x1="85.6641" y1="47.5312" x2="85.6641" y2="51.4375" gradientUnits="userSpaceOnUse">
            <stop stop-color="#F2C94C"/>
            <stop offset="1" stop-color="#F29C4C"/>
        </linearGradient>
        <linearGradient id="paint4_linear9" x1="120.82" y1="47.5312" x2="120.82" y2="51.4375" gradientUnits="userSpaceOnUse">
            <stop stop-color="#F2C94C"/>
            <stop offset="1" stop-color="#F29C4C"/>
        </linearGradient>
        <linearGradient id="paint5_linear9" x1="92" y1="163" x2="92" y2="213" gradientUnits="userSpaceOnUse">
            <stop stop-color="#F2C94C"/>
            <stop offset="1" stop-color="#F29C4C"/>
        </linearGradient>
        <linearGradient id="paint6_linear9" x1="91.5" y1="149" x2="91.5" y2="213" gradientUnits="userSpaceOnUse">
            <stop stop-color="#F2C94C"/>
            <stop offset="1" stop-color="#F29C4C"/>
        </linearGradient>
    </defs>
</svg>
