<svg width="185" height="213" viewBox="0 0 185 213" fill="none" xmlns="http://www.w3.org/2000/svg">
    <g filter="url(#filter0_d)">
        <rect x="10" y="8" width="165" height="165" rx="5" fill="white"/>
    </g>
    <path d="M137.178 137.619C135.83 137.619 134.736 138.713 134.736 140.061C134.736 141.408 135.83 142.502 137.178 142.502C138.525 142.502 139.619 141.408 139.619 140.061C139.619 138.713 138.525 137.619 137.178 137.619Z" fill="url(#paint0_linear7)"/>
    <path d="M152.559 53.1465H150.117V30.4414C150.117 29.093 149.024 28 147.676 28H137.178C135.829 28 134.736 29.093 134.736 30.4414V34.5845L122.529 41.0269L110.322 34.5845V30.4414C110.322 29.093 109.229 28 107.881 28H97.3828C96.0344 28 94.9414 29.093 94.9414 30.4414V38.498H82.7344C81.386 38.498 80.293 39.5911 80.293 40.9395V55.5879V63.6445H72.2363C70.8879 63.6445 69.7949 64.7375 69.7949 66.0859V69.8162L57.3972 80.0183L45.3809 69.8374V66.0859C45.3809 64.7375 44.2878 63.6445 42.9395 63.6445H32.4414C31.093 63.6445 30 64.7375 30 66.0859V129.562V150.559C30 151.907 31.093 153 32.4414 153H152.559C153.907 153 155 151.907 155 150.559V129.562V55.5879C155 54.2395 153.907 53.1465 152.559 53.1465ZM139.619 51.4998C139.619 51.4949 139.619 51.4902 139.619 51.4854V36.0894C139.619 36.0842 139.619 36.0793 139.619 36.0742V32.8828H145.234V53.1465H139.619V51.4998ZM134.736 40.1057V47.4692L127.76 43.7876L134.736 40.1057ZM110.322 40.1057L117.299 43.7874L110.322 47.469V40.1057ZM110.322 52.9902L122.529 46.5479L134.736 52.9902V53.1465H112.764H110.322V52.9902ZM115.205 117.355H134.736V127.121H115.205V117.355ZM112.764 112.473H99.8242V102.707H120.088V112.473H112.764ZM115.205 97.8242V88.0586H134.736V97.8242H122.529H115.205ZM112.764 83.1758H99.8242V73.4102H120.088V83.1758H112.764ZM115.205 68.5273V58.0293H134.736V68.5273H122.529H115.205ZM99.8242 40.9395V32.8828H105.439V36.0745C105.439 36.0796 105.439 36.0845 105.439 36.0896V51.4856C105.439 51.4905 105.439 51.4951 105.439 51.5V53.1465H99.8242V40.9395ZM85.1758 43.3809H94.9414V53.1465H85.1758V43.3809ZM85.1758 58.0293H97.3828H110.322V68.5273H97.3828H85.1758V58.0293ZM85.1758 73.4102H94.9414V83.1758H85.1758V73.4102ZM85.1758 88.0586H97.3828H110.322V97.8242H97.3828H85.1758V88.0586ZM85.1758 102.707H94.9414V112.473H85.1758V102.707ZM85.1758 117.355H97.3828H110.322V127.121H85.1758V117.355ZM74.6777 100.269C74.6777 100.268 74.6777 100.267 74.6777 100.267V70.9717C74.6777 70.9709 74.6777 70.9705 74.6777 70.9697V68.5273H80.293V127.121H74.6777V100.269ZM69.7949 76.1396V90.5222L61.1836 83.2261L69.7949 76.1396ZM45.3809 76.2371L53.5654 83.1716L45.3809 89.9067V76.2371ZM45.3809 96.2305L57.3516 86.3794L69.7949 96.9219V99.113L57.3972 109.315L45.3809 99.1343V96.2305ZM69.7949 105.437V119.819L61.1836 112.523L69.7949 105.437ZM45.3809 105.534L53.5654 112.468L45.3809 119.204V105.534ZM45.3809 125.527L57.3516 115.676L69.7949 126.219V127.121H45.3809V125.527ZM34.8828 68.5273H40.498V95.0745C40.498 95.0752 40.498 95.0762 40.498 95.0769V124.371C40.498 124.372 40.498 124.373 40.498 124.374V127.121H34.8828V68.5273ZM150.117 148.117H34.8828V132.004H150.117V148.117ZM150.117 127.121H139.619V117.355H150.117V127.121ZM150.117 112.473H137.178H124.971V102.707H137.178H150.117V112.473ZM150.117 97.8242H139.619V88.0586H150.117V97.8242ZM150.117 83.1758H137.178H124.971V73.4102H137.178H150.117V83.1758ZM150.117 68.5273H139.619V58.0293H150.117V68.5273Z" fill="url(#paint1_linear7)"/>
    <path d="M127.412 137.619H47.8223C46.4739 137.619 45.3809 138.712 45.3809 140.061C45.3809 141.409 46.4739 142.502 47.8223 142.502H127.412C128.76 142.502 129.854 141.409 129.854 140.061C129.854 138.712 128.76 137.619 127.412 137.619Z" fill="url(#paint2_linear7)"/>
    <rect x="69.5" y="165.5" width="45" height="45" fill="white" stroke="url(#paint3_linear7)" stroke-width="5"/>
    <path d="M101.87 177.24C101.486 178.136 100.702 179.672 99.5181 181.848C98.2381 184.152 97.1981 186.168 96.3981 187.896C95.5981 189.624 94.8941 191.592 94.2861 193.8C93.7101 196.008 93.4221 198.312 93.4221 200.712L93.5181 202.344C93.6141 203.176 93.6621 203.928 93.6621 204.6C93.6621 205.592 93.3581 206.424 92.7501 207.096C92.1421 207.768 91.2781 208.104 90.1581 208.104C89.0061 208.104 88.1261 207.72 87.5181 206.952C86.9421 206.184 86.6541 205.16 86.6541 203.88C86.6541 201.896 87.0861 199.88 87.9501 197.832C88.8141 195.752 89.8381 193.832 91.0221 192.072C92.2381 190.28 93.8061 188.12 95.7261 185.592C96.1101 185.048 96.5261 184.488 96.9741 183.912C97.4221 183.336 97.8861 182.712 98.3661 182.04H85.5981C84.7341 182.04 84.0781 182.104 83.6301 182.232C83.2141 182.36 82.9261 182.568 82.7661 182.856C82.6061 183.144 82.4781 183.592 82.3821 184.2H81.3741C81.3741 180.36 81.3101 177.624 81.1821 175.992C81.8861 176.152 84.2701 176.232 88.3341 176.232H101.87V177.24Z" fill="url(#paint4_linear7)"/>
    <defs>
        <linearGradient id="paint0_linear7" x1="137.178" y1="137.619" x2="137.178" y2="142.502" gradientUnits="userSpaceOnUse">
            <stop stop-color="#F2C94C"/>
            <stop offset="1" stop-color="#F29C4C"/>
        </linearGradient>
        <linearGradient id="paint1_linear7" x1="92.5" y1="28" x2="92.5" y2="153" gradientUnits="userSpaceOnUse">
            <stop stop-color="#F2C94C"/>
            <stop offset="1" stop-color="#F29C4C"/>
        </linearGradient>
        <linearGradient id="paint2_linear7" x1="87.6172" y1="137.619" x2="87.6172" y2="142.502" gradientUnits="userSpaceOnUse">
            <stop stop-color="#F2C94C"/>
            <stop offset="1" stop-color="#F29C4C"/>
        </linearGradient>
        <linearGradient id="paint3_linear7" x1="92" y1="163" x2="92" y2="213" gradientUnits="userSpaceOnUse">
            <stop stop-color="#F2C94C"/>
            <stop offset="1" stop-color="#F29C4C"/>
            </linearGradient>
        <linearGradient id="paint4_linear7" x1="91" y1="149" x2="91" y2="213" gradientUnits="userSpaceOnUse">
            <stop stop-color="#F2C94C"/>
            <stop offset="1" stop-color="#F29C4C"/>
        </linearGradient>
    </defs>
</svg>
