<svg width="185" height="213" viewBox="0 0 185 213" fill="none" xmlns="http://www.w3.org/2000/svg">
    <g filter="url(#filter0_d)">
    <rect x="10" y="8" width="165" height="165" rx="5" fill="white"/>
    </g>
    <g clip-path="url(#clip0)">
    <path d="M121.1 32.9135L48.9714 28.0891C46.6201 27.9333 44.5808 29.7163 44.4233 32.0668L43.8591 40.5036H34.2725C31.9167 40.5036 30 42.4204 30 44.7761V148.65C30 151.005 31.9167 152.922 34.2725 152.922H89.4827C89.9612 152.922 90.4353 152.727 90.7747 152.389L99.1091 144.091C99.1939 144.109 99.2803 144.123 99.3691 144.129L113.598 145.081C115.869 145.231 117.994 143.384 118.146 141.103L125.078 37.4619C125.234 35.1357 123.426 33.069 121.1 32.9135V32.9135ZM91.3137 146.659V133.939C91.3137 133.603 91.5877 133.329 91.9241 133.329H104.595L91.3137 146.659ZM114.492 140.859C114.433 141.228 114.216 141.417 113.843 141.427L102.544 140.671L110.296 132.954C110.641 132.61 110.835 132.143 110.835 131.656V44.7763C110.835 42.4206 108.918 40.5039 106.563 40.5039H87.5215C85.1541 40.5039 85.1541 44.166 87.5215 44.166H106.563C106.899 44.166 107.173 44.4399 107.173 44.7763V129.667H91.9241C89.5684 129.667 87.6516 131.584 87.6516 133.939V149.26H34.2725C33.936 149.26 33.6621 148.986 33.6621 148.65V44.7763C33.6621 44.4399 33.936 44.166 34.2725 44.166H77.7705C80.1379 44.166 80.1379 40.5039 77.7705 40.5039H47.5293L48.0772 32.3115C48.1367 31.9426 48.3533 31.7534 48.7268 31.7434L120.856 36.5676C121.225 36.6272 121.414 36.8437 121.424 37.2172L114.492 140.859Z" fill="url(#paint0_linear)"/>
    <path d="M95.3876 85.873H45.4478C44.4366 85.873 43.6168 86.6929 43.6168 87.7041C43.6168 88.7153 44.4366 89.5352 45.4478 89.5352H95.3876C96.399 89.5352 97.2186 88.7153 97.2186 87.7041C97.2186 86.6929 96.399 85.873 95.3876 85.873Z" fill="url(#paint1_linear)"/>
    <path d="M95.3876 98.6377H45.4478C44.4366 98.6377 43.6168 99.4575 43.6168 100.469C43.6168 101.48 44.4366 102.3 45.4478 102.3H95.3876C96.399 102.3 97.2186 101.48 97.2186 100.469C97.2186 99.4575 96.399 98.6377 95.3876 98.6377Z" fill="url(#paint2_linear)"/>
    <path d="M43.6168 74.939C43.6168 75.9502 44.4366 76.77 45.4478 76.77H95.3876C96.399 76.77 97.2186 75.9502 97.2186 74.939C97.2186 73.9277 96.399 73.1079 95.3876 73.1079H45.4478C44.4366 73.1079 43.6168 73.9277 43.6168 74.939Z" fill="url(#paint3_linear)"/>
    <path d="M52.4139 62.1743C52.4139 63.1855 53.2338 64.0054 54.245 64.0054H86.5905C87.6017 64.0054 88.4215 63.1855 88.4215 62.1743C88.4215 61.1631 87.6017 60.3433 86.5905 60.3433H54.245C53.2338 60.3433 52.4139 61.1631 52.4139 62.1743V62.1743Z" fill="url(#paint4_linear)"/>
    <path d="M77.5475 135.126C74.2543 135.134 70.9611 135.141 67.6678 135.147C66.5609 135.148 65.4542 135.15 64.3475 135.15C62.3419 135.152 60.9906 134.749 60.5414 132.543C60.1615 130.678 57.5228 130.929 57.0101 132.543C55.743 136.532 53.6473 134.969 52.4735 132.286C51.3024 129.61 51.0021 126.614 50.4906 123.766C50.1146 121.673 46.9491 122.259 46.8939 124.253C46.8212 126.877 46.5761 129.46 45.9098 132.006C45.2225 134.632 44.1925 137.157 43.17 139.666C42.2787 141.854 45.8231 142.795 46.7013 140.64C47.6073 138.416 48.5145 136.18 49.1898 133.874C50.4447 136.891 53.0409 140.304 56.7404 138.293C57.4286 137.919 58.0714 137.387 58.6356 136.766C60.5595 138.989 63.423 138.814 66.1024 138.811C69.9176 138.806 73.7328 138.798 77.548 138.788C79.9037 138.782 79.9081 135.119 77.5475 135.126V135.126Z" fill="url(#paint5_linear)"/>
    <path d="M153.519 88.166C152.567 87.2192 151.259 86.7336 149.931 86.6977L148.547 86.7046V84.0876C148.547 82.4936 147.6 80.8096 146.244 79.9709V76.2849C146.244 68.6997 134.435 68.7327 134.435 76.3206V80.0071C133.053 80.8611 132.126 82.3852 132.126 84.1213V86.8025C126.031 87.2175 126.014 96.5058 132.133 96.8689C132.172 105.066 132.17 113.129 132.126 121.463C132.114 123.761 135.776 123.896 135.788 121.482C135.832 113.141 135.834 105.071 135.796 96.8672L144.88 96.822C144.88 96.822 144.869 123.885 144.869 136.076C144.869 142.018 135.782 142.057 135.782 136.014L135.785 132.675C135.928 130.312 132.273 130.091 132.129 132.454V135.588C132.129 138.273 132.96 140.548 134.568 142.147C134.711 145.979 136.325 149.686 139.053 152.391C139.835 153.167 140.918 152.93 141.676 152.346C144.45 149.567 146.014 145.902 146.111 141.991C147.32 140.787 148.53 139.575 148.53 135.425L148.532 118.738C151.698 119.638 155 117.188 155 113.868V91.7312C155 90.3828 154.474 89.1167 153.519 88.166V88.166ZM135.788 86.7678V84.1211C135.788 83.5793 136.16 83.125 136.661 82.99L143.991 82.9536C144.196 83.0044 144.385 83.1013 144.539 83.2541C144.762 83.4766 144.885 83.7725 144.885 84.0876V86.7229L135.788 86.7678ZM140.347 74.0725C141.471 74.0725 142.582 75.1746 142.582 76.2849V79.2551L138.097 79.2773V76.3206C138.097 75.0869 139.106 74.0786 140.347 74.0725V74.0725ZM140.344 148.267C139.493 147.061 138.877 145.696 138.533 144.262C139.1 144.384 139.674 144.448 140.249 144.448C140.89 144.448 141.531 144.369 142.163 144.215C141.827 145.671 141.212 147.044 140.344 148.267ZM151.338 113.868C151.338 115.602 148.542 115.738 148.542 113.9C148.542 113.9 148.545 96.5723 148.547 94.9839C148.548 93.9595 147.697 93.1506 146.702 93.1506L132.447 93.2214C130.679 93.2214 130.72 90.4551 132.465 90.4465L149.949 90.3599C150.795 90.4319 151.257 90.8892 151.338 91.7312V113.868H151.338Z" fill="url(#paint6_linear)"/>
    </g>
    <rect x="69.5" y="165.5" width="45" height="45" fill="white" stroke="url(#paint7_linear)" stroke-width="5"/>
    <path d="M91.0893 175.512C93.4893 175.512 95.4573 176.008 96.9933 177C98.5293 177.992 99.2973 179.336 99.2973 181.032C99.2973 182.856 98.4173 184.488 96.6573 185.928C94.8973 187.368 92.5293 188.376 89.5533 188.952C92.9133 188.824 95.6653 189.416 97.8093 190.728C99.9533 192.008 101.025 193.848 101.025 196.248C101.025 198.584 100.017 200.664 98.0013 202.488C95.9853 204.344 93.3933 205.768 90.2253 206.76C87.0893 207.752 83.9053 208.248 80.6733 208.248V207.288C82.7853 207.224 84.8493 206.744 86.8653 205.848C88.9133 204.984 90.5933 203.736 91.9053 202.104C93.2173 200.472 93.8733 198.536 93.8733 196.296C93.8733 194.408 93.4093 192.856 92.4813 191.64C91.5853 190.424 90.3693 189.752 88.8333 189.624C88.3853 189.848 87.9373 190.04 87.4893 190.2C87.0733 190.328 86.7053 190.392 86.3853 190.392C85.7773 190.392 85.4733 190.168 85.4733 189.72C85.4733 189.368 85.6173 189.112 85.9053 188.952C86.1933 188.76 86.5613 188.664 87.0093 188.664C87.2013 188.664 87.4573 188.696 87.7773 188.76C88.1293 188.792 88.4333 188.824 88.6893 188.856C91.1533 187.128 92.3853 184.984 92.3853 182.424C92.3853 180.984 92.0173 179.928 91.2812 179.256C90.5453 178.552 89.4893 178.2 88.1133 178.2C86.8333 178.2 85.6493 178.52 84.5613 179.16C83.5053 179.8 82.6093 180.728 81.8733 181.944L81.0093 181.512C82.0013 179.688 83.2813 178.232 84.8493 177.144C86.4493 176.056 88.5293 175.512 91.0893 175.512Z" fill="url(#paint8_linear)"/>
    <defs>
        <linearGradient id="paint0_linear" x1="77.5438" y1="28.0796" x2="77.5438" y2="152.922" gradientUnits="userSpaceOnUse">
            <stop stop-color="#F2C94C"/>
            <stop offset="1" stop-color="#F29C4C"/>
        </linearGradient>
        <linearGradient id="paint1_linear" x1="70.4177" y1="85.873" x2="70.4177" y2="89.5352" gradientUnits="userSpaceOnUse">
            <stop stop-color="#F2C94C"/>
            <stop offset="1" stop-color="#F29C4C"/>
        </linearGradient>
        <linearGradient id="paint2_linear" x1="70.4177" y1="98.6377" x2="70.4177" y2="102.3" gradientUnits="userSpaceOnUse">
            <stop stop-color="#F2C94C"/>
            <stop offset="1" stop-color="#F29C4C"/>
        </linearGradient>
        <linearGradient id="paint3_linear" x1="70.4177" y1="73.1079" x2="70.4177" y2="76.77" gradientUnits="userSpaceOnUse">
            <stop stop-color="#F2C94C"/>
            <stop offset="1" stop-color="#F29C4C"/>
        </linearGradient>
        <linearGradient id="paint4_linear" x1="70.4177" y1="60.3433" x2="70.4177" y2="64.0054" gradientUnits="userSpaceOnUse">
            <stop stop-color="#F2C94C"/>
            <stop offset="1" stop-color="#F29C4C"/>
        </linearGradient>
        <linearGradient id="paint5_linear" x1="61.1719" y1="122.451" x2="61.1719" y2="141.858" gradientUnits="userSpaceOnUse">
            <stop stop-color="#F2C94C"/>
            <stop offset="1" stop-color="#F29C4C"/>
        </linearGradient>
        <linearGradient id="paint6_linear" x1="141.275" y1="70.6128" x2="141.275" y2="152.884" gradientUnits="userSpaceOnUse">
            <stop stop-color="#F2C94C"/>
            <stop offset="1" stop-color="#F29C4C"/>
        </linearGradient>
        <linearGradient id="paint7_linear" x1="92" y1="163" x2="92" y2="213" gradientUnits="userSpaceOnUse">
            <stop stop-color="#F2C94C"/>
            <stop offset="1" stop-color="#F29C4C"/>
        </linearGradient>
        <linearGradient id="paint8_linear" x1="91" y1="149" x2="91" y2="213" gradientUnits="userSpaceOnUse">
            <stop stop-color="#F2C94C"/>
            <stop offset="1" stop-color="#F29C4C"/>
        </linearGradient>
        <clipPath id="clip0">
            <rect width="125" height="125" fill="white" transform="translate(30 28)"/>
        </clipPath>
    </defs>
</svg>
