<svg width="185" height="213" viewBox="0 0 185 213" fill="none" xmlns="http://www.w3.org/2000/svg">
    <g filter="url(#filter0_d)">
        <rect x="10" y="8" width="165" height="165" rx="5" fill="white"/>
    </g>
    <g clip-path="url(#clip0)">
        <path d="M39.6187 121.606C39.877 121.711 40.1477 121.763 40.4165 121.763C40.9583 121.763 41.4915 121.553 41.8894 121.159L75.8394 87.5682L109.777 121.159C110.371 121.749 111.267 121.926 112.048 121.606C112.825 121.287 113.333 120.534 113.333 119.701V92.903C113.333 91.7652 112.4 90.8417 111.25 90.8417C110.1 90.8417 109.167 91.7652 109.167 92.903V114.723L77.3188 83.2001C76.5376 82.4271 75.1418 82.4271 74.3606 83.2001L42.5002 114.725V90.8417H52.917C54.0669 90.8417 55.0002 89.9182 55.0002 88.7804V86.7191H59.167V88.7804C59.167 89.9182 60.1003 90.8417 61.2502 90.8417C62.4001 90.8417 63.3335 89.9182 63.3335 88.7804V84.6575C63.3335 83.5197 62.4001 82.5962 61.2502 82.5962H52.9167C51.7668 82.5962 50.8335 83.5197 50.8335 84.6575V86.7188H40.4167C39.2668 86.7188 38.3335 87.6424 38.3335 88.7802V119.701C38.3333 120.534 38.8416 121.287 39.6187 121.606Z" fill="url(#paint0_linear10)"/>
        <path d="M88.5395 72.275C88.4104 74.1943 88.3332 76.2452 88.3332 78.4737C88.3332 88.7991 91.4478 94.965 96.6665 94.965C103.246 94.965 105 87.1915 105 82.5966C105 81.4588 104.066 80.5352 102.916 80.5352C101.767 80.5352 100.833 81.4588 100.833 82.5966C100.833 82.6789 100.654 90.8421 96.6665 90.8421C94.2519 90.8421 92.4997 85.6411 92.4997 78.4737C92.4997 54.4398 101.025 51.7023 101.293 51.626C102.391 51.3786 103.098 50.3087 102.875 49.21C102.652 48.0947 101.562 47.3693 100.425 47.5939C100.008 47.6763 98.4978 48.0681 96.6811 49.6079C96.6833 49.2533 96.7124 48.8989 96.8083 48.5462C97.0959 47.4826 97.7854 46.5941 98.75 46.0438C99.7146 45.4935 100.837 45.3471 101.91 45.6314C102.985 45.9179 103.885 46.6004 104.439 47.5526C105.589 49.5212 104.906 52.0485 102.916 53.1844C101.919 53.7554 101.579 55.0169 102.154 56.0023C102.54 56.662 103.239 57.0309 103.96 57.0309C104.314 57.0309 104.673 56.9422 105 56.7548C108.979 54.4789 110.346 49.4265 108.05 45.4913C106.937 43.5846 105.139 42.22 102.989 41.6489C100.835 41.0778 98.5915 41.3728 96.6665 42.4734C94.7395 43.5742 93.3603 45.3531 92.7832 47.4804C92.2436 49.4717 92.4998 51.5393 93.479 53.4214C91.6914 56.2992 90.0207 60.5846 89.0915 66.9585C85.9729 63.2625 84.1665 58.5542 84.1665 53.7366C84.1665 42.37 93.5124 33.1226 105 33.1226C116.487 33.1226 125.833 42.3702 125.833 53.7366C125.833 65.103 116.487 74.3506 105 74.3506C102.737 74.3506 100.512 73.994 98.3894 73.293C97.302 72.9342 96.1186 73.5157 95.7539 74.5938C95.3872 75.6739 95.9768 76.8407 97.0686 77.2016C99.6186 78.0447 102.287 78.4734 105 78.4734C118.785 78.4734 130 67.3769 130 53.7366C130 40.0966 118.785 29 105 29C91.2146 29 80 40.0966 80 53.7368C80 60.7663 83.1897 67.5977 88.5395 72.275Z" fill="url(#paint1_linear10)"/>
        <path d="M154.39 89.3852L132.752 67.9755C131.94 67.1716 130.621 67.1716 129.807 67.9755C128.994 68.7816 128.994 70.0864 129.807 70.8903L150.834 91.6961V99.0884H143.363L142.5 98.2349V92.9042C142.5 91.7664 141.567 90.8428 140.417 90.8428H138.334V88.7815C138.334 87.6437 137.4 86.7202 136.25 86.7202H130.865L130 85.8648V80.536C130 79.3982 129.067 78.4747 127.917 78.4747H122.53L122.327 78.2746C121.515 77.4707 120.196 77.4707 119.382 78.2746C118.569 79.0808 118.569 80.3855 119.382 81.1894L120.194 81.9934C120.584 82.3809 121.115 82.5973 121.667 82.5973H125.834V86.718C125.834 87.2642 126.052 87.7879 126.442 88.1735L128.525 90.2389C128.917 90.6264 129.446 90.8428 130 90.8428H134.167V92.9042C134.167 94.042 135.101 94.9655 136.25 94.9655H138.334V99.0884C138.334 99.6346 138.552 100.16 138.944 100.546L141.027 102.607C141.417 102.995 141.948 103.211 142.5 103.211H152.917C154.067 103.211 155 102.287 155 101.15V90.8426C155 90.2964 154.782 89.7708 154.39 89.3852Z" fill="url(#paint2_linear10)"/>
        <path d="M82.0833 119.702C80.9333 119.702 80 120.626 80 121.763V138.255C80 139.393 80.9333 140.316 82.0833 140.316H94.5833C95.7332 140.316 96.6665 139.393 96.6665 138.255V121.763C96.6665 120.626 95.7332 119.702 94.5833 119.702H82.0833ZM92.5 136.193H84.1668V123.825H92.5V136.193Z" fill="url(#paint3_linear10)"/>
        <path d="M152.917 148.561H130V140.107C134.748 139.149 138.333 134.987 138.333 130.009C138.333 129.741 138.215 103.21 127.917 103.21C117.619 103.21 117.5 129.741 117.5 130.009C117.5 134.987 121.085 139.149 125.833 140.107V148.561H109.166V124.855C109.166 123.717 108.233 122.794 107.083 122.794C105.933 122.794 105 123.717 105 124.855V148.561H75.8333V121.763C75.8333 120.625 74.8999 119.702 73.75 119.702H57.0833C55.9333 119.702 55 120.625 55 121.763V148.561H46.6667V124.855C46.6667 123.717 45.7334 122.794 44.5835 122.794C43.4336 122.794 42.5 123.717 42.5 124.855V148.561H32.0833C30.9333 148.561 30 149.485 30 150.623C30 151.76 30.9333 152.684 32.0833 152.684H152.917C154.066 152.684 155 151.761 155 150.623C155 149.485 154.067 148.561 152.917 148.561ZM71.6667 134.131H69.5835C68.4336 134.131 67.5002 135.055 67.5002 136.193C67.5002 137.331 68.4336 138.254 69.5835 138.254H71.6667V148.561H59.1667V123.824H71.6667V134.131ZM121.667 130.009C121.667 119.739 124.454 107.333 127.917 107.333C131.379 107.333 134.167 119.739 134.167 130.009C134.167 133.418 131.363 136.193 127.917 136.193C124.471 136.193 121.667 133.418 121.667 130.009Z" fill="url(#paint4_linear10)"/>
    </g>
    <rect x="69.5" y="165.5" width="45" height="45" fill="white" stroke="url(#paint5_linear10)" stroke-width="5"/>
    <path d="M82.0015 195.023C82.0015 196.198 82.2201 197.018 82.6575 197.483C83.0948 197.92 83.8601 198.139 84.9535 198.139V199C82.0015 198.891 80.1155 198.836 79.2955 198.836C78.3935 198.836 76.4255 198.877 73.3915 198.959L72.2435 199V198.139C73.5281 198.139 74.4848 197.893 75.1135 197.401C75.7695 196.909 76.0975 196.034 76.0975 194.777V184.773C76.0975 183.461 75.9745 182.504 75.7285 181.903C75.5098 181.274 75.1271 180.864 74.5805 180.673C74.0338 180.454 73.2001 180.345 72.0795 180.345V179.443C74.4575 179.388 76.4118 179.211 77.9425 178.91C79.4731 178.582 80.8261 178.063 82.0015 177.352V195.023ZM99.5828 177.229C101.742 177.229 103.669 177.68 105.364 178.582C107.058 179.484 108.37 180.755 109.3 182.395C110.256 184.035 110.735 185.921 110.735 188.053C110.735 190.24 110.243 192.208 109.259 193.957C108.302 195.706 106.935 197.087 105.159 198.098C103.409 199.082 101.4 199.574 99.1318 199.574C96.9998 199.574 95.0864 199.123 93.3918 198.221C91.6971 197.319 90.3714 196.048 89.4148 194.408C88.4581 192.768 87.9798 190.868 87.9798 188.709C87.9798 186.55 88.4581 184.595 89.4148 182.846C90.3988 181.097 91.7654 179.73 93.5148 178.746C95.2641 177.735 97.2868 177.229 99.5828 177.229ZM99.2138 177.967C98.2298 177.967 97.3551 178.391 96.5898 179.238C95.8244 180.085 95.2231 181.315 94.7858 182.928C94.3758 184.513 94.1708 186.399 94.1708 188.586C94.1708 192.057 94.6628 194.64 95.6468 196.335C96.6581 198.002 97.9428 198.836 99.5008 198.836C100.485 198.836 101.346 198.412 102.084 197.565C102.849 196.69 103.45 195.46 103.888 193.875C104.325 192.262 104.544 190.363 104.544 188.176C104.544 184.705 104.038 182.135 103.027 180.468C102.043 178.801 100.772 177.967 99.2138 177.967Z" fill="url(#paint6_linear10)"/>
    <defs>
        <linearGradient id="paint0_linear10" x1="75.8334" y1="82.5962" x2="75.8334" y2="121.763" gradientUnits="userSpaceOnUse">
            <stop stop-color="#F2C94C"/>
            <stop offset="1" stop-color="#F29C4C"/>
        </linearGradient>
        <linearGradient id="paint1_linear10" x1="105" y1="29" x2="105" y2="94.965" gradientUnits="userSpaceOnUse">
            <stop stop-color="#F2C94C"/>
            <stop offset="1" stop-color="#F29C4C"/>
        </linearGradient>
        <linearGradient id="paint2_linear10" x1="136.886" y1="67.3726" x2="136.886" y2="103.211" gradientUnits="userSpaceOnUse">
            <stop stop-color="#F2C94C"/>
            <stop offset="1" stop-color="#F29C4C"/>
        </linearGradient>
        <linearGradient id="paint3_linea10" x1="88.3333" y1="119.702" x2="88.3333" y2="140.316" gradientUnits="userSpaceOnUse">
            <stop stop-color="#F2C94C"/>
            <stop offset="1" stop-color="#F29C4C"/>
        </linearGradient>
        <linearGradient id="paint4_linear10" x1="92.4999" y1="103.21" x2="92.4999" y2="152.684" gradientUnits="userSpaceOnUse">
            <stop stop-color="#F2C94C"/>
            <stop offset="1" stop-color="#F29C4C"/>
        </linearGradient>
        <linearGradient id="paint5_linear10" x1="92" y1="163" x2="92" y2="213" gradientUnits="userSpaceOnUse">
            <stop stop-color="#F2C94C"/>
            <stop offset="1" stop-color="#F29C4C"/>
        </linearGradient>
        <linearGradient id="paint6_linear10" x1="91.5" y1="154" x2="91.5" y2="209" gradientUnits="userSpaceOnUse">
            <stop stop-color="#F2C94C"/>
            <stop offset="1" stop-color="#F29C4C"/>
        </linearGradient>
        <clipPath id="clip0">
            <rect width="125" height="123.684" fill="white" transform="translate(30 29)"/>
        </clipPath>
    </defs>
</svg>
