<svg width="185" height="213" viewBox="0 0 185 213" fill="none" xmlns="http://www.w3.org/2000/svg">
    <g filter="url(#filter0_d)">
        <rect x="10" y="8" width="165" height="165" rx="5" fill="white"/>
    </g>
    <path d="M130.608 64.458H111.25C110.1 64.458 109.167 65.3892 109.167 66.5413V91.5413C109.167 92.6934 110.1 93.6245 111.25 93.6245H140.417C141.567 93.6245 142.5 92.6934 142.5 91.5413V76.3496C142.5 69.7935 137.165 64.458 130.608 64.458ZM138.333 89.458H113.333V68.6248H130.608C134.866 68.6248 138.333 72.0894 138.333 76.3499V89.458V89.458Z" fill="url(#paint0_linear4)"/>
    <path d="M123.75 97.7915H117.5C116.35 97.7915 115.417 98.7227 115.417 99.8748C115.417 101.027 116.35 101.958 117.5 101.958H123.75C124.9 101.958 125.833 101.027 125.833 99.8748C125.833 98.7227 124.9 97.7915 123.75 97.7915Z" fill="url(#paint1_linear4)"/>
    <path d="M130 106.125C121.958 106.125 115.417 112.669 115.417 120.708C115.417 128.748 121.958 135.292 130 135.292C138.041 135.292 144.583 128.748 144.583 120.708C144.583 112.669 138.041 106.125 130 106.125ZM130 131.125C124.256 131.125 119.583 126.452 119.583 120.708C119.583 114.965 124.256 110.292 130 110.292C135.743 110.292 140.416 114.964 140.416 120.708C140.416 126.452 135.743 131.125 130 131.125Z" fill="url(#paint2_linear4)"/>
    <path d="M132.127 114.458H127.873C125.6 114.458 123.75 116.309 123.75 118.579V122.836C123.75 125.109 125.6 126.958 127.873 126.958H132.127C134.4 126.958 136.25 125.108 136.25 122.838V118.581C136.25 116.309 134.4 114.458 132.127 114.458ZM132.083 122.792H127.917V118.625H132.083V122.792Z" fill="url(#paint3_linear4)"/>
    <path d="M55 106.125C46.9583 106.125 40.4167 112.669 40.4167 120.708C40.4167 128.748 46.9585 135.292 55 135.292C63.0415 135.292 69.5832 128.748 69.5832 120.708C69.5832 112.669 63.0417 106.125 55 106.125ZM55 131.125C49.2563 131.125 44.5833 126.452 44.5833 120.708C44.5833 114.965 49.2561 110.292 55 110.292C60.7436 110.292 65.4167 114.964 65.4167 120.708C65.4167 126.452 60.7436 131.125 55 131.125Z" fill="url(#paint4_linear4)"/>
    <path d="M57.1274 114.458H52.8733C50.6003 114.458 48.7502 116.309 48.7502 118.579V122.836C48.7502 125.109 50.6003 126.958 52.8733 126.958H57.1274C59.4004 126.958 61.2502 125.108 61.2502 122.838V118.581C61.2502 116.309 59.4001 114.458 57.1274 114.458ZM57.0835 122.792H52.917V118.625H57.0837V122.792H57.0835Z" fill="url(#paint5_linear4)"/>
    <path d="M142.329 74.5649C142.175 73.5442 141.3 72.792 140.269 72.792H119.584C118.434 72.792 117.5 73.7231 117.5 74.8752V83.2085C117.5 84.3606 118.434 85.2918 119.584 85.2918H140.417C141.567 85.2918 142.5 84.3606 142.5 83.2085V76.3501C142.5 75.7502 142.421 75.1711 142.329 74.5649ZM138.333 81.1252H121.667V76.9585H138.333V81.1252Z" fill="url(#paint6_linear4)"/>
    <path d="M142.5 89.4585H107.083C105.933 89.4585 105 90.3896 105 91.5417V116.542C105 117.694 105.933 118.625 107.083 118.625H118.227C119.377 118.625 120.31 117.694 120.31 116.542C120.31 115.39 119.377 114.458 118.227 114.458H109.166V93.6252H142.5C147.096 93.6252 150.833 97.3628 150.833 101.959V114.458H141.773C140.623 114.458 139.689 115.39 139.689 116.542C139.689 117.694 140.623 118.625 141.773 118.625H152.916C154.066 118.625 155 117.694 155 116.542V101.959C155 95.0649 149.391 89.4585 142.5 89.4585Z" fill="url(#paint7_linear4)"/>
    <path d="M55 106.125H32.0833C30.9333 106.125 30 107.056 30 108.208V116.541C30 117.694 30.9333 118.625 32.0833 118.625H43.2271C44.1084 118.625 44.8958 118.069 45.1895 117.237C46.6604 113.083 50.604 110.292 54.9998 110.292C56.1497 110.292 57.083 109.36 57.083 108.208C57.083 107.056 56.1499 106.125 55 106.125ZM41.8355 114.458H34.1667V110.292H44.8105C43.5979 111.477 42.5833 112.883 41.8355 114.458Z" fill="url(#paint8_linear4)"/>
    <path d="M107.083 106.125H54.9998C53.8499 106.125 52.9165 107.056 52.9165 108.208C52.9165 109.36 53.8499 110.292 54.9998 110.292C59.3955 110.292 63.3394 113.083 64.8081 117.237C65.104 118.069 65.8894 118.625 66.7727 118.625H107.083C108.233 118.625 109.166 117.694 109.166 116.541V108.208C109.167 107.056 108.233 106.125 107.083 106.125ZM105 114.458H68.1643C67.4165 112.883 66.4019 111.477 65.1892 110.292H105V114.458Z" fill="url(#paint9_linear4)"/>
    <path d="M154.748 99.4624C154.552 98.4895 153.698 97.7915 152.706 97.7915H144.584C143.434 97.7915 142.5 98.7227 142.5 99.8748V108.208C142.5 109.36 143.434 110.291 144.584 110.291H152.917C154.067 110.291 155 109.36 155 108.208V101.958C155 101.125 154.915 100.283 154.748 99.4624ZM150.834 106.125H146.667V101.958H150.834V106.125Z" fill="url(#paint10_linear4)"/>
    <path d="M40.4167 131.125H32.0833C30.9333 131.125 30 132.056 30 133.208C30 134.36 30.9333 135.292 32.0833 135.292H40.4165C41.5664 135.292 42.4998 134.36 42.4998 133.208C42.4998 132.056 41.5667 131.125 40.4167 131.125Z" fill="url(#paint11_linear4)"/>
    <path d="M152.917 131.125H105C103.85 131.125 102.917 132.056 102.917 133.208C102.917 134.36 103.85 135.292 105 135.292H152.917C154.067 135.292 155 134.36 155 133.208C155 132.056 154.067 131.125 152.917 131.125Z" fill="url(#paint12_linear4)"/>
    <path d="M96.667 131.125H88.3337C87.1838 131.125 86.2505 132.056 86.2505 133.208C86.2505 134.36 87.1838 135.292 88.3337 135.292H96.667C97.8169 135.292 98.7502 134.36 98.7502 133.208C98.7502 132.056 97.8169 131.125 96.667 131.125Z" fill="url(#paint13_linear4)"/>
    <path d="M79.9998 131.125H54.9998C53.8499 131.125 52.9165 132.056 52.9165 133.208C52.9165 134.36 53.8499 135.292 54.9998 135.292H79.9998C81.1497 135.292 82.083 134.36 82.083 133.208C82.083 132.056 81.1497 131.125 79.9998 131.125Z" fill="url(#paint14_linear4)"/>
    <path d="M107.083 89.4585H32.0833C30.9333 89.4585 30 90.3896 30 91.5417V108.208C30 109.361 30.9333 110.292 32.0833 110.292H107.083C108.233 110.292 109.167 109.361 109.167 108.208V91.5417C109.167 90.3899 108.233 89.4585 107.083 89.4585ZM105 106.125H34.1667V93.6252H105V106.125Z" fill="url(#paint15_linear4)"/>
    <path d="M63.3332 72.792H38.3333C37.1833 72.792 36.25 73.7231 36.25 74.8752V91.542C36.25 92.6941 37.1833 93.6252 38.3333 93.6252H63.3332C64.4831 93.6252 65.4165 92.6941 65.4165 91.542V74.8752C65.4167 73.7231 64.4834 72.792 63.3332 72.792ZM61.25 89.4585H40.4167V76.9585H61.25V89.4585Z" fill="url(#paint16_linear4)"/>
    <path d="M94.5832 64.458H63.3333C62.1834 64.458 61.25 65.3892 61.25 66.5413V91.5413C61.25 92.6934 62.1834 93.6245 63.3333 93.6245H94.5832C95.7331 93.6245 96.6665 92.6934 96.6665 91.5413V66.5413C96.6667 65.3894 95.7334 64.458 94.5832 64.458ZM92.5 89.458H65.4167V68.6248H92.5V89.458Z" fill="url(#paint17_linear4)"/>
    <path d="M73.75 51.9585H48.75C47.6001 51.9585 46.6667 52.8896 46.6667 54.0417V74.8753C46.6667 76.0274 47.6001 76.9585 48.75 76.9585H63.3333C64.4832 76.9585 65.4165 76.0274 65.4165 74.8753V68.6253H73.75C74.8999 68.6253 75.8333 67.6941 75.8333 66.542V54.042C75.8333 52.8899 74.8999 51.9585 73.75 51.9585ZM71.6668 64.4585H63.3335C62.1836 64.4585 61.2502 65.3897 61.2502 66.5418V72.7918H50.8333V56.1252H71.6665V64.4585H71.6668Z" fill="url(#paint18_linear4)"/>
    <path d="M79.3898 81.7353L75.2231 77.5685C74.4106 76.7538 73.0898 76.7538 72.2773 77.5685C71.4626 78.383 71.4626 79.6999 72.2773 80.5143L76.444 84.6811C76.8503 85.0873 77.3837 85.2915 77.9169 85.2915C78.4504 85.2915 78.9836 85.0873 79.3898 84.6811C80.2043 83.8666 80.2043 82.55 79.3898 81.7353Z" fill="url(#paint19_linear4)"/>
    <path d="M85.4168 73.2105C84.4959 72.5209 83.1917 72.7064 82.5001 73.6273L76.2501 81.9605C75.5604 82.8792 75.7459 84.1856 76.6668 84.8751C77.0418 85.1563 77.4793 85.2918 77.9149 85.2918C78.5482 85.2918 79.1754 85.0042 79.5836 84.4586L85.8336 76.1253C86.523 75.2064 86.3375 73.9 85.4168 73.2105Z" fill="url(#paint20_linear4)"/>
    <path d="M107.083 54.042C103.638 54.042 100.833 56.8462 100.833 60.292V91.542C100.833 92.6941 101.767 93.6252 102.917 93.6252H111.25C112.4 93.6252 113.333 92.6941 113.333 91.542V60.292C113.333 56.8462 110.529 54.042 107.083 54.042ZM109.167 89.4585H105V60.292C105 59.1421 105.934 58.2087 107.083 58.2087C108.233 58.2087 109.167 59.1421 109.167 60.292V89.4585H109.167Z" fill="url(#paint21_linear4)"/>
    <path d="M98.75 45.708C97.6001 45.708 96.6667 46.6392 96.6667 47.7913C96.6667 48.9434 97.6001 49.8748 98.75 49.8748C102.196 49.8748 105 52.679 105 56.1248C105 57.2769 105.933 58.208 107.083 58.208C108.233 58.208 109.166 57.2769 109.166 56.1248C109.167 50.3811 104.494 45.708 98.75 45.708Z" fill="url(#paint22_linear4)"/>
    <path d="M107.083 97.7915H32.0833C30.9333 97.7915 30 98.7227 30 99.8748V108.208C30 109.36 30.9333 110.291 32.0833 110.291H107.083C108.233 110.291 109.167 109.36 109.167 108.208V99.8748C109.167 98.7227 108.233 97.7915 107.083 97.7915ZM105 106.125H34.1667V101.958H105V106.125Z" fill="url(#paint23_linear4)"/>
    <rect x="69.5" y="165.5" width="45" height="45" fill="white" stroke="url(#paint24_linear4)" stroke-width="5"/>
    <path d="M102.176 199.512C101.792 199.416 100.192 199.336 97.3763 199.272V207.768H91.8083V199.272H78.7043V198.264L96.6083 175.512H97.3763V194.328H97.7603C98.6243 194.328 99.2643 194.264 99.6803 194.136C100.128 194.008 100.432 193.8 100.592 193.512C100.752 193.224 100.88 192.776 100.976 192.168H101.984C101.984 195.56 102.048 198.008 102.176 199.512ZM91.8083 194.328V183.144L83.1203 194.328H91.8083Z" fill="url(#paint25_linear4)"/>
    <defs>
        <linearGradient id="paint0_linear4" x1="125.833" y1="64.458" x2="125.833" y2="93.6245" gradientUnits="userSpaceOnUse">
            <stop stop-color="#F2C94C"/>
            <stop offset="1" stop-color="#F29C4C"/>
        </linearGradient>
        <linearGradient id="paint1_linear4" x1="120.625" y1="97.7915" x2="120.625" y2="101.958" gradientUnits="userSpaceOnUse">
            <stop stop-color="#F2C94C"/>
            <stop offset="1" stop-color="#F29C4C"/>
        </linearGradient>
        <linearGradient id="paint2_linear4" x1="130" y1="106.125" x2="130" y2="135.292" gradientUnits="userSpaceOnUse">
            <stop stop-color="#F2C94C"/>
            <stop offset="1" stop-color="#F29C4C"/>
        </linearGradient>
        <linearGradient id="paint3_linear4" x1="130" y1="114.458" x2="130" y2="126.958" gradientUnits="userSpaceOnUse">
            <stop stop-color="#F2C94C"/>
            <stop offset="1" stop-color="#F29C4C"/>
        </linearGradient>
        <linearGradient id="paint4_linear4" x1="55" y1="106.125" x2="55" y2="135.292" gradientUnits="userSpaceOnUse">
            <stop stop-color="#F2C94C"/>
            <stop offset="1" stop-color="#F29C4C"/>
        </linearGradient>
        <linearGradient id="paint5_linear4" x1="55.0002" y1="114.458" x2="55.0002" y2="126.958" gradientUnits="userSpaceOnUse">
            <stop stop-color="#F2C94C"/>
            <stop offset="1" stop-color="#F29C4C"/>
        </linearGradient>
        <linearGradient id="paint6_linear4" x1="130" y1="72.792" x2="130" y2="85.2918" gradientUnits="userSpaceOnUse">
            <stop stop-color="#F2C94C"/>
            <stop offset="1" stop-color="#F29C4C"/>
        </linearGradient>
        <linearGradient id="paint7_linear4" x1="130" y1="89.4585" x2="130" y2="118.625" gradientUnits="userSpaceOnUse">
            <stop stop-color="#F2C94C"/>
            <stop offset="1" stop-color="#F29C4C"/>
        </linearGradient>
        <linearGradient id="paint8_linear4" x1="43.5415" y1="106.125" x2="43.5415" y2="118.625" gradientUnits="userSpaceOnUse">
            <stop stop-color="#F2C94C"/>
            <stop offset="1" stop-color="#F29C4C"/>
        </linearGradient>
        <linearGradient id="paint9_linear4" x1="81.0414" y1="106.125" x2="81.0414" y2="118.625" gradientUnits="userSpaceOnUse">
            <stop stop-color="#F2C94C"/>
            <stop offset="1" stop-color="#F29C4C"/>
        </linearGradient>
        <linearGradient id="paint10_linear4" x1="148.75" y1="97.7915" x2="148.75" y2="110.291" gradientUnits="userSpaceOnUse">
            <stop stop-color="#F2C94C"/>
            <stop offset="1" stop-color="#F29C4C"/>
        </linearGradient>
        <linearGradient id="paint11_linear4" x1="36.2499" y1="131.125" x2="36.2499" y2="135.292" gradientUnits="userSpaceOnUse">
            <stop stop-color="#F2C94C"/>
            <stop offset="1" stop-color="#F29C4C"/>
        </linearGradient>
        <linearGradient id="paint12_linear4" x1="128.958" y1="131.125" x2="128.958" y2="135.292" gradientUnits="userSpaceOnUse">
            <stop stop-color="#F2C94C"/>
            <stop offset="1" stop-color="#F29C4C"/>
        </linearGradient>
        <linearGradient id="paint13_linear4" x1="92.5004" y1="131.125" x2="92.5004" y2="135.292" gradientUnits="userSpaceOnUse">
            <stop stop-color="#F2C94C"/>
            <stop offset="1" stop-color="#F29C4C"/>
        </linearGradient>
        <linearGradient id="paint14_linear4" x1="67.4998" y1="131.125" x2="67.4998" y2="135.292" gradientUnits="userSpaceOnUse">
            <stop stop-color="#F2C94C"/>
            <stop offset="1" stop-color="#F29C4C"/>
        </linearGradient>
        <linearGradient id="paint15_linear4" x1="69.5833" y1="89.4585" x2="69.5833" y2="110.292" gradientUnits="userSpaceOnUse">
            <stop stop-color="#F2C94C"/>
            <stop offset="1" stop-color="#F29C4C"/>
        </linearGradient>
        <linearGradient id="paint16_linear4" x1="50.8332" y1="72.792" x2="50.8332" y2="93.6252" gradientUnits="userSpaceOnUse">
            <stop stop-color="#F2C94C"/>
            <stop offset="1" stop-color="#F29C4C"/>
        </linearGradient>
        <linearGradient id="paint17_linear4" x1="78.9583" y1="64.458" x2="78.9583" y2="93.6245" gradientUnits="userSpaceOnUse">
            <stop stop-color="#F2C94C"/>
            <stop offset="1" stop-color="#F29C4C"/>
        </linearGradient>
        <linearGradient id="paint18_linear4" x1="61.25" y1="51.9585" x2="61.25" y2="76.9585" gradientUnits="userSpaceOnUse">
            <stop stop-color="#F2C94C"/>
            <stop offset="1" stop-color="#F29C4C"/>
        </linearGradient>
        <linearGradient id="paint19_linear4" x1="75.8335" y1="76.9575" x2="75.8335" y2="85.2915" gradientUnits="userSpaceOnUse">
            <stop stop-color="#F2C94C"/>
            <stop offset="1" stop-color="#F29C4C"/>
        </linearGradient>
        <linearGradient id="paint20_linear4" x1="81.0418" y1="72.7939" x2="81.0418" y2="85.2918" gradientUnits="userSpaceOnUse">
            <stop stop-color="#F2C94C"/>
            <stop offset="1" stop-color="#F29C4C"/>
        </linearGradient>
        <linearGradient id="paint21_linear4" x1="107.083" y1="54.042" x2="107.083" y2="93.6252" gradientUnits="userSpaceOnUse">
            <stop stop-color="#F2C94C"/>
            <stop offset="1" stop-color="#F29C4C"/>
        </linearGradient>
        <linearGradient id="paint22_linear4" x1="102.917" y1="45.708" x2="102.917" y2="58.208" gradientUnits="userSpaceOnUse">
            <stop stop-color="#F2C94C"/>
            <stop offset="1" stop-color="#F29C4C"/>
        </linearGradient>
        <linearGradient id="paint23_linear4" x1="69.5833" y1="97.7915" x2="69.5833" y2="110.291" gradientUnits="userSpaceOnUse">
            <stop stop-color="#F2C94C"/>
            <stop offset="1" stop-color="#F29C4C"/>
        </linearGradient>
        <linearGradient id="paint24_linear4" x1="92" y1="163" x2="92" y2="213" gradientUnits="userSpaceOnUse">
            <stop stop-color="#F2C94C"/>
            <stop offset="1" stop-color="#F29C4C"/>
        </linearGradient>
        <linearGradient id="paint25_linear4" x1="91" y1="149" x2="91" y2="213" gradientUnits="userSpaceOnUse">
            <stop stop-color="#F2C94C"/>
            <stop offset="1" stop-color="#F29C4C"/>
        </linearGradient>
    </defs>
</svg>
