<svg width="185" height="213" viewBox="0 0 185 213" fill="none" xmlns="http://www.w3.org/2000/svg">
    <g filter="url(#filter0_d)">
    <rect x="10" y="8" width="165" height="165" rx="5" fill="white"/>
    </g>
    <path d="M73.1948 104.222C68.6276 104.222 64.9131 107.938 64.9131 112.505C64.9131 117.071 68.6286 120.787 73.1948 120.787C77.7619 120.787 81.4765 117.071 81.4765 112.505C81.4765 107.938 77.7619 104.222 73.1948 104.222V104.222ZM73.1948 115.904C71.3208 115.904 69.7959 114.379 69.7959 112.505C69.7959 110.63 71.3208 109.105 73.1948 109.105C75.0688 109.105 76.5937 110.63 76.5937 112.505C76.5937 114.379 75.0688 115.904 73.1948 115.904Z" fill="url(#paint0_linear6)"/>
    <path d="M150.571 28H69.5336C68.1851 28 67.0922 29.0929 67.0922 30.4414V87.3653H61.4016C60.7951 87.3653 60.2095 87.5913 59.7603 87.9985L32.9974 112.291C32.2506 112.97 31.9979 114.038 32.3613 114.979C32.7246 115.92 33.6297 116.54 34.6386 116.54H45.4762V150.559C45.4762 151.907 46.5691 153 47.9176 153H98.4728C99.8213 153 100.914 151.907 100.914 150.559V141.357H150.571C151.92 141.357 153.013 140.263 153.013 138.915V67.978C153.013 66.6295 151.92 65.5366 150.571 65.5366C149.223 65.5366 148.13 66.6295 148.13 67.978V136.474H100.914V116.54H111.751C112.76 116.54 113.665 115.92 114.028 114.979C114.393 114.038 114.139 112.97 113.392 112.291L112.012 111.038L86.6291 87.9976C86.18 87.5894 85.5954 87.3634 84.9888 87.3634H71.975V32.8828H148.13V48.4535C148.13 49.8019 149.223 50.8949 150.571 50.8949C151.92 50.8949 153.013 49.8019 153.013 48.4535V30.4414C153.013 29.0929 151.92 28 150.571 28V28ZM62.3438 92.2481H84.0456L105.428 111.657H99.4322L83.2465 96.5997C82.7944 96.1791 82.2003 95.9455 81.5833 95.9455H65.0637C64.4534 95.9455 63.8649 96.1744 63.4148 96.5873L46.9668 111.657H40.9605L62.3438 92.2481ZM68.2681 148.117V129.259H78.1214V148.117H68.2681ZM83.0042 148.117V126.818C83.0042 125.469 81.9113 124.376 80.5628 124.376H65.8266C64.4782 124.376 63.3852 125.469 63.3852 126.818V148.117H50.3581V115.173L66.0136 100.828H80.6239L96.0314 115.163V148.117H83.0042Z" fill="url(#paint1_linear6)"/>
    <path d="M110.972 47.3833H135.524C136.872 47.3833 137.965 46.2894 137.965 44.9419C137.965 43.5934 136.872 42.5005 135.524 42.5005H110.972C109.623 42.5005 108.53 43.5934 108.53 44.9419C108.53 46.2894 109.623 47.3833 110.972 47.3833V47.3833Z" fill="url(#paint2_linear6)"/>
    <path d="M110.972 59.6001H135.524C136.872 59.6001 137.965 58.5062 137.965 57.1587C137.965 55.8102 136.872 54.7173 135.524 54.7173H110.972C109.623 54.7173 108.53 55.8102 108.53 57.1587C108.53 58.5062 109.623 59.6001 110.972 59.6001V59.6001Z" fill="url(#paint3_linear6)"/>
    <path d="M110.972 71.8164H135.524C136.872 71.8164 137.965 70.7225 137.965 69.375C137.965 68.0265 136.872 66.9336 135.524 66.9336H110.972C109.623 66.9336 108.53 68.0265 108.53 69.375C108.53 70.7225 109.623 71.8164 110.972 71.8164V71.8164Z" fill="url(#paint4_linear6)"/>
    <path d="M93.7246 84.0332H135.524C136.872 84.0332 137.966 82.9403 137.966 81.5918C137.966 80.2433 136.872 79.1504 135.524 79.1504H93.7246C92.3761 79.1504 91.2832 80.2433 91.2832 81.5918C91.2832 82.9403 92.3761 84.0332 93.7246 84.0332Z" fill="url(#paint5_linear6)"/>
    <path d="M108.53 96.2495H135.524C136.872 96.2495 137.965 95.1566 137.965 93.8081C137.965 92.4596 136.872 91.3667 135.524 91.3667H108.53C107.182 91.3667 106.089 92.4596 106.089 93.8081C106.089 95.1566 107.182 96.2495 108.53 96.2495V96.2495Z" fill="url(#paint6_linear6)"/>
    <path d="M135.524 103.583H120.385C119.036 103.583 117.943 104.676 117.943 106.025C117.943 107.373 119.036 108.466 120.385 108.466H135.524C136.872 108.466 137.966 107.373 137.966 106.025C137.966 104.676 136.872 103.583 135.524 103.583V103.583Z" fill="url(#paint7_linear6)"/>
    <path d="M127.591 126.158C127.724 127.402 128.774 128.341 130.019 128.341C130.04 128.341 130.061 128.34 130.081 128.34C131.353 128.308 132.386 127.305 132.457 126.035C132.469 125.816 132.478 125.589 132.484 125.359C132.561 125.036 132.763 124.54 133.152 124.12C133.47 123.778 133.806 123.604 134.15 123.604C134.689 123.604 135.346 124.663 135.346 125.899C135.346 127.248 136.439 128.341 137.787 128.341C139.136 128.341 140.229 127.248 140.229 125.899C140.229 121.874 137.558 118.721 134.15 118.721C133.209 118.721 132.295 118.943 131.457 119.367C130.987 118.336 130.327 117.393 129.408 116.632C126.512 114.234 122.486 114.352 119.619 116.919C116.722 119.511 116.722 122.905 116.722 125.899C116.722 127.248 117.815 128.341 119.164 128.341C120.512 128.341 121.605 127.248 121.605 125.899C121.605 123.213 121.664 121.641 122.876 120.557C123.677 119.84 125.053 119.366 126.294 120.393C127.141 121.095 127.616 122.769 127.607 124.951C127.557 125.364 127.55 125.771 127.591 126.158Z" fill="url(#paint8_linear6)"/>
    <path d="M85.0385 75.7732C85.9502 76.1518 87.0002 75.942 87.6992 75.2439L91.7609 71.1813L95.8236 75.2439C96.2909 75.7112 96.9155 75.9592 97.5507 75.9592C97.8654 75.9592 98.182 75.8981 98.4843 75.7732C99.397 75.3956 99.9911 74.5048 99.9911 73.5178V59.8783C101.509 58.0415 102.423 55.686 102.423 53.1225C102.423 47.265 97.6575 42.4995 91.8 42.4995C85.9435 42.4995 81.178 47.265 81.178 53.1225C81.178 55.6411 82.0601 57.9567 83.5307 59.7791V73.5178C83.5307 74.5048 84.1258 75.3956 85.0385 75.7732V75.7732ZM95.1093 67.6241L93.488 66.0019C93.0112 65.525 92.3865 65.2876 91.7619 65.2876C91.1362 65.2876 90.5116 65.525 90.0348 66.0019L88.4145 67.6241V63.1962C88.9781 63.385 89.5608 63.5252 90.1549 63.6167C91.8048 63.8752 93.5214 63.7388 95.1093 63.22V67.6241ZM91.801 47.3833C94.9652 47.3833 97.5402 49.9572 97.5402 53.1225C97.5402 54.7495 96.8592 56.2191 95.7682 57.2643C94.4588 58.5165 92.6106 59.081 90.8244 58.7778C88.1226 58.3124 86.0608 55.9549 86.0608 53.1225C86.0608 49.9572 88.6357 47.3833 91.801 47.3833V47.3833Z" fill="url(#paint9_linear6)"/>
    <path d="M152.6 56.5111C152.068 55.6976 151.045 55.2809 150.095 55.4707C149.078 55.6748 148.293 56.5207 148.152 57.5459C148.011 58.5673 148.569 59.6001 149.492 60.0531C150.396 60.4965 151.506 60.3354 152.242 59.6449C153.102 58.8381 153.253 57.4896 152.6 56.5111Z" fill="url(#paint10_linear6)"/>
    <rect x="69.5" y="165.5" width="45" height="45" fill="white" stroke="url(#paint11_linear6)" stroke-width="5"/>
    <path d="M94.1269 179.88C95.8549 179.88 97.4229 180.296 98.8309 181.128C100.271 181.96 101.407 183.176 102.239 184.776C103.103 186.344 103.535 188.168 103.535 190.248C103.535 192.616 102.991 194.664 101.903 196.392C100.847 198.12 99.4069 199.432 97.5829 200.328C95.7589 201.224 93.7589 201.672 91.5829 201.672C88.0629 201.672 85.2949 200.472 83.2789 198.072C81.2949 195.672 80.3029 192.312 80.3029 187.992C80.3029 183.544 81.2949 179.768 83.2789 176.664C85.2949 173.56 87.7589 171.176 90.6709 169.512C93.6149 167.848 96.5429 166.776 99.4549 166.296L99.6469 167.256C97.5989 167.896 95.7909 168.728 94.2229 169.752C92.6869 170.776 91.3269 172.36 90.1429 174.504C88.9909 176.648 88.2229 179.496 87.8389 183.048C88.5109 181.96 89.3909 181.16 90.4789 180.648C91.5989 180.136 92.8149 179.88 94.1269 179.88ZM92.0629 200.712C93.2789 200.712 94.2869 199.896 95.0869 198.264C95.8869 196.6 96.2869 194.072 96.2869 190.68C96.2869 187.416 95.9029 185.032 95.1349 183.528C94.3989 182.024 93.4229 181.272 92.2069 181.272C91.3749 181.272 90.5269 181.576 89.6629 182.184C88.7989 182.792 88.1269 183.704 87.6469 184.92C87.5829 186.328 87.5509 187.448 87.5509 188.28C87.5509 192.664 87.9829 195.832 88.8469 197.784C89.7429 199.736 90.8149 200.712 92.0629 200.712Z" fill="url(#paint12_linear6)"/>
    <defs>
        <linearGradient id="paint0_linear6" x1="73.1948" y1="104.222" x2="73.1948" y2="120.787" gradientUnits="userSpaceOnUse">
            <stop stop-color="#F2C94C"/>
            <stop offset="1" stop-color="#F29C4C"/>
        </linearGradient>
        <linearGradient id="paint1_linear6" x1="92.6049" y1="28" x2="92.6049" y2="153" gradientUnits="userSpaceOnUse">
            <stop stop-color="#F2C94C"/>
            <stop offset="1" stop-color="#F29C4C"/>
        </linearGradient>
        <linearGradient id="paint2_linear6" x1="123.248" y1="42.5005" x2="123.248" y2="47.3833" gradientUnits="userSpaceOnUse">
            <stop stop-color="#F2C94C"/>
            <stop offset="1" stop-color="#F29C4C"/>
        </linearGradient>
        <linearGradient id="paint3_linear6" x1="123.248" y1="54.7173" x2="123.248" y2="59.6001" gradientUnits="userSpaceOnUse">
            <stop stop-color="#F2C94C"/>
            <stop offset="1" stop-color="#F29C4C"/>
        </linearGradient>
        <linearGradient id="paint4_linear6" x1="123.248" y1="66.9336" x2="123.248" y2="71.8164" gradientUnits="userSpaceOnUse">
            <stop stop-color="#F2C94C"/>
            <stop offset="1" stop-color="#F29C4C"/>
        </linearGradient>
        <linearGradient id="paint5_linear6" x1="114.624" y1="79.1504" x2="114.624" y2="84.0332" gradientUnits="userSpaceOnUse">
            <stop stop-color="#F2C94C"/>
            <stop offset="1" stop-color="#F29C4C"/>
        </linearGradient>
        <linearGradient id="paint6_linear6" x1="122.027" y1="91.3667" x2="122.027" y2="96.2495" gradientUnits="userSpaceOnUse">
            <stop stop-color="#F2C94C"/>
            <stop offset="1" stop-color="#F29C4C"/>
        </linearGradient>
        <linearGradient id="paint7_linear6" x1="127.954" y1="103.583" x2="127.954" y2="108.466" gradientUnits="userSpaceOnUse">
            <stop stop-color="#F2C94C"/>
            <stop offset="1" stop-color="#F29C4C"/>
        </linearGradient>
        <linearGradient id="paint8_linear6" x1="128.475" y1="114.911" x2="128.475" y2="128.341" gradientUnits="userSpaceOnUse">
            <stop stop-color="#F2C94C"/>
            <stop offset="1" stop-color="#F29C4C"/>
        </linearGradient>
        <linearGradient id="paint9_linear6" x1="91.8005" y1="42.4995" x2="91.8005" y2="75.9594" gradientUnits="userSpaceOnUse">
            <stop stop-color="#F2C94C"/>
            <stop offset="1" stop-color="#F29C4C"/>
        </linearGradient>
        <linearGradient id="paint10_linear6" x1="150.567" y1="55.4253" x2="150.567" y2="60.3009" gradientUnits="userSpaceOnUse">
            <stop stop-color="#F2C94C"/>
            <stop offset="1" stop-color="#F29C4C"/>
        </linearGradient>
        <linearGradient id="paint11_linear6" x1="92" y1="163" x2="92" y2="213" gradientUnits="userSpaceOnUse">
            <stop stop-color="#F2C94C"/>
            <stop offset="1" stop-color="#F29C4C"/>
        </linearGradient>
        <linearGradient id="paint12_linear6" x1="91.5" y1="149" x2="91.5" y2="213" gradientUnits="userSpaceOnUse">
            <stop stop-color="#F2C94C"/>
            <stop offset="1" stop-color="#F29C4C"/>
        </linearGradient>
    </defs>
</svg>
