<svg width="45" height="45" viewBox="0 0 45 45" fill="none" xmlns="http://www.w3.org/2000/svg">
<path fill-rule="evenodd" clip-rule="evenodd" d="M39.375 2.8125H5.625C4.87908 2.8125 4.16371 3.10882 3.63626 3.63626C3.10882 4.16371 2.8125 4.87908 2.8125 5.625V39.375C2.8125 40.1209 3.10882 40.8363 3.63626 41.3637C4.16371 41.8912 4.87908 42.1875 5.625 42.1875H39.375C40.1209 42.1875 40.8363 41.8912 41.3637 41.3637C41.8912 40.8363 42.1875 40.1209 42.1875 39.375V5.625C42.1875 4.87908 41.8912 4.16371 41.3637 3.63626C40.8363 3.10882 40.1209 2.8125 39.375 2.8125ZM5.625 0C4.13316 0 2.70242 0.592632 1.64752 1.64752C0.592632 2.70242 0 4.13316 0 5.625L0 39.375C0 40.8668 0.592632 42.2976 1.64752 43.3525C2.70242 44.4074 4.13316 45 5.625 45H39.375C40.8668 45 42.2976 44.4074 43.3525 43.3525C44.4074 42.2976 45 40.8668 45 39.375V5.625C45 4.13316 44.4074 2.70242 43.3525 1.64752C42.2976 0.592632 40.8668 0 39.375 0L5.625 0Z" fill="#BDBDBD"/>
<path fill-rule="evenodd" clip-rule="evenodd" d="M23.4956 31.9334C23.6266 31.8028 23.7305 31.6476 23.8014 31.4768C23.8723 31.3059 23.9088 31.1228 23.9088 30.9378C23.9088 30.7528 23.8723 30.5697 23.8014 30.3988C23.7305 30.228 23.6266 30.0728 23.4956 29.9422L16.0509 22.5003L23.4956 15.0584C23.6264 14.9277 23.7301 14.7725 23.8008 14.6016C23.8716 14.4308 23.908 14.2477 23.908 14.0628C23.908 13.8779 23.8716 13.6948 23.8008 13.524C23.7301 13.3532 23.6264 13.1979 23.4956 13.0672C23.3649 12.9364 23.2097 12.8327 23.0388 12.762C22.868 12.6912 22.6849 12.6548 22.5 12.6548C22.3151 12.6548 22.132 12.6912 21.9612 12.762C21.7903 12.8327 21.6351 12.9364 21.5044 13.0672L13.0669 21.5047C12.9359 21.6353 12.832 21.7905 12.7611 21.9613C12.6902 22.1322 12.6537 22.3153 12.6537 22.5003C12.6537 22.6853 12.6902 22.8684 12.7611 23.0393C12.832 23.2101 12.9359 23.3653 13.0669 23.4959L21.5044 31.9334C21.635 32.0644 21.7902 32.1683 21.961 32.2392C22.1319 32.3101 22.315 32.3466 22.5 32.3466C22.685 32.3466 22.8681 32.3101 23.039 32.2392C23.2098 32.1683 23.365 32.0644 23.4956 31.9334Z" fill="#BDBDBD"/>
<path fill-rule="evenodd" clip-rule="evenodd" d="M32.3438 22.5C32.3438 22.127 32.1956 21.7694 31.9319 21.5056C31.6681 21.2419 31.3105 21.0938 30.9375 21.0938H16.875C16.502 21.0938 16.1444 21.2419 15.8806 21.5056C15.6169 21.7694 15.4688 22.127 15.4688 22.5C15.4688 22.873 15.6169 23.2306 15.8806 23.4944C16.1444 23.7581 16.502 23.9062 16.875 23.9062H30.9375C31.3105 23.9062 31.6681 23.7581 31.9319 23.4944C32.1956 23.2306 32.3438 22.873 32.3438 22.5Z" fill="#BDBDBD"/>
</svg>
