<svg width="48" height="48" viewBox="0 0 48 48" fill="none" xmlns="http://www.w3.org/2000/svg">
<rect width="48" height="48" fill="#F2F2F2"/>
<path d="M24 0V3.87879H44.1212V44.1212H24V48H48V0H24Z" fill="#2488FF"/>
<path d="M3.87879 44.1212V3.87879H24V0H0V48H24V44.1212H3.87879Z" fill="#57A4FF"/>
<path d="M9.26684 23.4543L16.3052 26.0811L19.0295 34.8424C19.2038 35.4033 19.89 35.6107 20.3452 35.2384L24.2686 32.0402C24.6798 31.7049 25.2657 31.6884 25.6952 32.0003L32.7716 37.1378C33.2587 37.4918 33.949 37.225 34.0711 36.6363L39.2549 11.7019C39.3882 11.0588 38.7566 10.5223 38.1442 10.7592L9.25869 21.9025C8.54577 22.1772 8.55188 23.1865 9.26684 23.4543ZM18.5904 24.6829L32.3459 16.211C32.593 16.0592 32.8474 16.3935 32.635 16.5904L21.2828 27.1428C20.8837 27.5141 20.6264 28.0113 20.5534 28.551L20.1669 31.4167C20.1154 31.7992 19.5782 31.8371 19.4724 31.4668L17.9852 26.241C17.815 25.6451 18.0632 25.0083 18.5904 24.6829Z" fill="#57A4FF"/>
</svg>
