<svg width="48" height="48" viewBox="0 0 48 48" fill="none" xmlns="http://www.w3.org/2000/svg">
<path fill-rule="evenodd" clip-rule="evenodd" d="M0 0V48H48V0H0ZM40.5958 10.6212L34.9562 37.7476C34.8234 38.3881 34.0724 38.6783 33.5425 38.2932L25.844 32.704C25.3767 32.3647 24.7394 32.3827 24.292 32.7475L20.0237 36.2268C19.5284 36.6319 18.7819 36.4062 18.5922 35.7961L15.6285 26.2645L7.97138 23.4068C7.19356 23.1154 7.18692 22.0173 7.96251 21.7186L39.3874 9.59567C40.0536 9.33806 40.7409 9.92165 40.5958 10.6212Z" fill="#828282"/>
<path fill-rule="evenodd" clip-rule="evenodd" d="M33.0795 15.5271L18.1147 24.7438C17.5411 25.0978 17.2712 25.7904 17.4562 26.4389L19.0742 32.1241C19.1893 32.5269 19.7737 32.4858 19.8297 32.0696L20.2502 28.9519C20.3297 28.3649 20.6096 27.8238 21.0438 27.4199L33.3939 15.9398C33.6251 15.7256 33.3483 15.362 33.0795 15.5271Z" fill="#828282"/>
</svg>
