<svg xmlns="http://www.w3.org/2000/svg" width="119" height="88" fill="none" xmlns:v="https://vecta.io/nano"><path d="M54.094 26.797L85.5 42.5l31.406-15.703v33.5L85.5 76 54.094 60.297v-33.5z" fill="#db5449"/><path d="M54.094 29.938v9.788l31.3 15.337 31.51-15.39v-9.736L85.5 45.327l-31.406-15.39z" fill="#c54b42"/><path d="M85.5 76V42.5L56.188 27.844h-2.094v32.453L85.5 76z" fill="#d05045"/><path d="M54.094 29.938v9.788l31.3 15.337L85.5 55v-9.684l-31.406-15.39z" fill="#bb483e"/><path d="M52 25.7L85.5 9.003 119 25.7V27.9L85.5 44.597 52 27.95V25.7z" fill="#eb6258"/><path d="M104.71 14.287c-1.1-1.99-3.455-3.193-6.23-3.193-6.334 0-10.783 5.915-12.98 9.684-2.2-3.77-6.7-9.63-12.98-9.63-4.03 0-6.91 2.46-6.91 5.8 0 5.967 6.543 9.84 19.68 9.84s20.1-4.973 20.1-9.788c0-.942-.2-1.884-.68-2.722zm-30.83 6.438c-1.466-.995-1.99-2.094-1.99-2.827 0-.9.837-1.57 2.04-1.57 2.827 0 5.077 3.716 6.334 6.28-3.298-.262-5.234-1.152-6.386-1.884zm23.24 0c-1.152.733-3.088 1.623-6.386 1.884 1.204-2.565 3.455-6.28 6.334-6.28 1.204 0 2.04.68 2.04 1.57 0 .733-.523 1.832-1.99 2.827z" fill="#efefef"/><path d="M52 25.75l33.5 16.384L119 25.75v10.835L85.395 52.97 52 36.585V25.75z" fill="#e2574c"/><path d="M98.064 37.422v-1.204l-12.562-6.805-12.562 6.805v1.204l-8.375-3.664v-1.675l20.52-10.835.42.21.42-.21L106.44 32.03v1.675l-8.375 3.716z" fill="#efefef"/><path d="M98.06 36.22v33.448l8.375-4.187V32.03L98.06 36.22z" fill="#dcdcdc"/><path d="M64.56 65.53l8.375 4.188V36.27l-8.375-4.24c0 0 0 33.5 0 33.5z" fill="#d1d1d1"/><path d="M1.5 12.75L24 24l22.5-11.25v24L24 48 1.5 36.75v-24z" fill="#db5449"/><path d="M1.5 15v7.012L23.925 33 46.5 21.975V15L24 26.025 1.5 15z" fill="#c54b42"/><path d="M24 48V24L3 13.5H1.5v23.25L24 48z" fill="#d05045"/><path d="M1.5 15v7.012L23.925 33l.075-.038v-6.937L1.5 15z" fill="#bb483e"/><path d="M0 11.965L24 .003l24 11.962v1.575L24 25.503 0 13.578v-1.612z" fill="#eb6258"/><path d="M37.763 3.788C36.976 2.363 35.288 1.5 33.3 1.5c-4.537 0-7.725 4.238-9.3 6.938-1.575-2.7-4.8-6.9-9.3-6.9-2.887 0-4.95 1.763-4.95 4.163 0 4.275 4.688 7.05 14.1 7.05s14.4-3.562 14.4-7.012c0-.675-.15-1.35-.487-1.95zM15.676 8.4c-1.05-.712-1.425-1.5-1.425-2.025 0-.637.6-1.125 1.463-1.125 2.025 0 3.637 2.662 4.537 4.5-2.362-.188-3.75-.825-4.575-1.35zm16.65 0c-.825.525-2.212 1.162-4.575 1.35.863-1.837 2.475-4.5 4.537-4.5.862 0 1.463.487 1.463 1.125 0 .525-.375 1.313-1.425 2.025z" fill="#efefef"/><path d="M0 12l24 11.738L48 12v7.762L23.925 31.5 0 19.763V12z" fill="#e2574c"/><path d="M33 20.363V19.5l-9-4.875-9 4.875v.862l-6-2.625v-1.2l14.7-7.763.3.15.3-.15L39 16.5v1.2l-6 2.663z" fill="#efefef"/><path d="M32.998 19.5v23.963l6-3V16.5l-6 3z" fill="#dcdcdc"/><path d="M9 40.5l6 3V19.538L9 16.5c0 0 0 24 0 24z" fill="#d1d1d1"/><path d="M7.688 48.344L33 61l25.313-12.656v27L33 88 7.688 75.344v-27z" fill="#db5449"/><path d="M7.688 50.875v7.89l25.228 12.36 25.397-12.403v-7.847L33 63.278 7.688 50.875z" fill="#c54b42"/><path d="M33 88V61L9.375 49.188H7.688v26.156L33 88z" fill="#d05045"/><path d="M7.688 50.875v7.89l25.228 12.36.084-.042v-7.805L7.688 50.875z" fill="#bb483e"/><path d="M6 47.46l27-13.458L60 47.46v1.772L33 62.7 6 49.275V47.46z" fill="#eb6258"/><path d="M48.483 38.26c-.886-1.603-2.784-2.574-5.02-2.574-5.105 0-8.69 4.767-10.462 7.805-1.772-3.037-5.4-7.762-10.463-7.762-3.248 0-5.57 1.983-5.57 4.683 0 4.81 5.273 7.93 15.862 7.93s16.2-4.008 16.2-7.89c0-.76-.17-1.52-.548-2.194zm-24.848 5.19c-1.18-.8-1.603-1.687-1.603-2.278 0-.717.675-1.266 1.645-1.266 2.278 0 4.092 2.995 5.105 5.063-2.658-.21-4.22-.928-5.147-1.52zm18.73 0c-.928.59-2.49 1.308-5.147 1.52.97-2.067 2.784-5.062 5.105-5.062.97 0 1.645.548 1.645 1.266 0 .59-.422 1.477-1.603 2.278z" fill="#efefef"/><path d="M6 47.5l27 13.205L60 47.5v8.733L32.916 69.438 6 56.233V47.5z" fill="#e2574c"/><path d="M43.126 56.908v-.97L33 50.453l-10.125 5.484v.97l-6.75-2.953v-1.35l16.537-8.733.337.17.338-.17 16.537 8.69v1.35l-6.75 2.995z" fill="#efefef"/><path d="M43.123 55.938v26.958l6.75-3.375V52.563l-6.75 3.375z" fill="#dcdcdc"/><path d="M16.124 79.562l6.75 3.375V55.98l-6.75-3.417c0 0 0 27 0 27z" fill="#d1d1d1"/></svg>