<svg width="80" height="80" viewBox="0 0 80 80" fill="none" xmlns="http://www.w3.org/2000/svg">
<path d="M76 52C78.2091 52 80 50.2091 80 48C80 45.7909 78.2091 44 76 44H71.6133C68.7274 43.9125 65.8782 44.6652 63.412 46.1667C65.812 36.196 60.5427 23.9427 52.18 17.652L54.0613 12.6547C55.1443 9.7616 54.7461 6.52199 52.9947 3.97733C51.2852 1.48818 48.4596 0.000558293 45.44 0H34.56C31.5417 0.00159636 28.7175 1.48849 27.008 3.976C25.2568 6.52222 24.8586 9.76291 25.9413 12.6573L27.8227 17.652C19.4947 23.9187 14.184 36.1507 16.5893 46.1653C14.1222 44.6651 11.2728 43.9129 8.38667 44H4C1.79086 44 0 45.7909 0 48C0 50.2091 1.79086 52 4 52H6.66667V57.4187C5.896 57.3547 5.02533 57.3333 4 57.3333C1.79086 57.3333 0 59.1242 0 61.3333C0 63.5425 1.79086 65.3333 4 65.3333C4.57333 65.3333 5.352 65.3333 5.86667 65.352C6.01733 65.5707 6.19067 65.832 6.32133 66.028C8.87867 69.8813 13.096 73.1213 19.216 75.9333C27.4133 79.7067 37.2 80 40 80C42.8 80 52.5853 79.7067 60.7867 75.936C66.0732 73.5813 70.6866 69.9415 74.2067 65.348C74.716 65.3333 75.408 65.3333 76 65.3333C78.2091 65.3333 80 63.5425 80 61.3333C80 59.1242 78.2091 57.3333 76 57.3333C74.984 57.3333 74.112 57.3333 73.3333 57.3867V52H76ZM28.436 11.72C27.6562 9.68685 27.9185 7.40099 29.1385 5.59731C30.3586 3.79363 32.3827 2.6995 34.56 2.66667H45.44C47.6169 2.69939 49.6406 3.79299 50.8609 5.596C52.0811 7.39902 52.3441 9.68427 51.5653 11.7173L49.9013 16.1333C49.13 15.6791 48.3311 15.2735 47.5093 14.9187L49.0573 10.7853C49.5511 9.53675 49.3832 8.12348 48.6107 7.02533C47.9061 5.9634 46.7144 5.32743 45.44 5.33333H34.56C33.2917 5.32583 32.1045 5.95601 31.4 7.01067C30.6196 8.10633 30.4441 9.52159 30.9333 10.7747L32.4853 14.9187C31.6631 15.2735 30.8638 15.6791 30.092 16.1333L28.436 11.72ZM35.004 14.0253L33.4307 9.828C33.2575 9.39325 33.3205 8.89995 33.5973 8.52267C33.8075 8.19502 34.1708 7.99779 34.56 8H45.44C45.8345 7.99897 46.2019 8.2003 46.4133 8.53333C46.6844 8.91269 46.7413 9.40478 46.564 9.836L44.996 14.0227C41.7291 13.1002 38.2704 13.1011 35.004 14.0253ZM40 16C52.0067 16 60.7347 28.6067 61.3013 40C61.605 43.7974 60.6184 47.5862 58.5013 50.7533C55.2 55.708 48.2827 58.6667 40 58.6667C31.6707 58.6667 24.7547 55.712 21.48 50.7293C19.4802 47.732 18.4941 44.1724 18.6667 40.5733C18.9573 27.7333 28.972 16 40 16ZM2.66667 48C2.66667 47.2636 3.26362 46.6667 4 46.6667H8.38667C10.874 46.564 13.333 47.2267 15.432 48.5653C16.9036 49.6302 18.2198 50.8948 19.3427 52.3227C23.1147 57.9653 30.8227 61.3333 40 61.3333C49.144 61.3333 56.8667 57.9547 60.6667 52.3147C61.7887 50.8885 63.104 49.6257 64.5747 48.5627C66.672 47.2261 69.1285 46.5644 71.6133 46.6667H76C76.7364 46.6667 77.3333 47.2636 77.3333 48C77.3333 48.7364 76.7364 49.3333 76 49.3333H71.6133C69.6724 49.2356 67.7477 49.7319 66.096 50.756C64.3734 52.0437 62.8804 53.6128 61.68 55.3973C59.7161 58.0157 57.1093 60.0824 54.112 61.3973C49.6218 63.1735 44.8284 64.0575 40 64C35.1742 64.059 30.3832 63.1772 25.8947 61.404C22.896 60.0896 20.2877 58.0228 18.3227 55.404C17.1226 53.6188 15.6296 52.0492 13.9067 50.7613C12.2549 49.7345 10.3291 49.2364 8.38667 49.3333H4C3.26362 49.3333 2.66667 48.7364 2.66667 48ZM33.3333 71.548V66.156C35.1006 66.417 36.8812 66.5781 38.6667 66.6387V71.972C37.3493 71.9373 35.476 71.8267 33.3333 71.548ZM17.3333 58.4307C18.8697 60.1393 20.6704 61.5902 22.6667 62.728V68.7133C20.8063 67.884 19.0218 66.894 17.3333 65.7547V58.4307ZM25.3333 64.0493C27.0557 64.7612 28.8414 65.3089 30.6667 65.6853V71.128C28.8589 70.7982 27.0767 70.341 25.3333 69.76V64.0493ZM41.3333 66.6387C43.1188 66.5783 44.8995 66.4167 46.6667 66.1547V71.548C44.524 71.8267 42.6507 71.9373 41.3333 71.9773V66.6387ZM49.3333 65.684C51.1587 65.3085 52.9444 64.7611 54.6667 64.0493V69.7613C52.9234 70.3421 51.1411 70.7988 49.3333 71.128V65.684ZM57.3333 62.728C59.3298 61.59 61.1306 60.1386 62.6667 58.4293V65.5853C61.0032 66.8118 59.2157 67.8602 57.3333 68.7133V62.728ZM9.33333 52.0453C10.4136 52.0751 11.4672 52.3872 12.3893 52.9507C13.227 53.569 13.9911 54.2812 14.6667 55.0733V63.6067C14.0365 63.0004 13.4712 62.3301 12.98 61.6067C12.1482 60.0727 10.8788 58.8209 9.33333 58.0107V52.0453ZM77.3333 61.3333C77.3333 62.0697 76.7364 62.6667 76 62.6667C74.976 62.6667 73.9187 62.6667 73.364 62.7253C73.0063 62.7637 72.6794 62.945 72.4573 63.228C71.7059 64.2866 70.8812 65.2913 69.9893 66.2347C67.0466 69.2971 63.5443 71.7674 59.672 73.512C51.964 77.0573 42.6667 77.3333 40 77.3333C37.3333 77.3333 28.036 77.0573 20.324 73.5107C10.3067 68.9067 8.73067 64.5093 7.57733 63.2C7.38107 62.977 7.11593 62.8259 6.824 62.7707C5.88638 62.6683 4.94261 62.6335 4 62.6667C3.26362 62.6667 2.66667 62.0697 2.66667 61.3333C2.66667 60.597 3.26362 60 4 60C8.40667 60 8.848 60.2013 10.7587 63.0787C12.7253 66.04 16.3187 68.7347 21.4387 71.088C28.6573 74.4093 37.4667 74.6667 40 74.6667C42.5333 74.6667 51.3413 74.4093 58.5573 71.0893C63.0756 69.0888 67.0156 65.9798 70.012 62.0507C71.536 60 72.1333 60 76 60C76.7364 60 77.3333 60.597 77.3333 61.3333ZM67.8667 60.46C67.1229 61.502 66.274 62.4649 65.3333 63.3333V55.0733C66.0095 54.28 66.7745 53.5669 67.6133 52.948C68.5351 52.3863 69.5876 52.0752 70.6667 52.0453V57.992C69.5354 58.5584 68.5706 59.4088 67.8667 60.46Z" fill="#F2F2F2"/>
</svg>
