<svg width="80" height="80" viewBox="0 0 80 80" fill="none" xmlns="http://www.w3.org/2000/svg">
<path d="M76.3519 11.2019C75.2684 7.79432 73.7999 5.35444 73.7377 5.2519C73.4969 4.85502 73.0011 4.64857 72.552 4.75157C72.4358 4.77812 69.6626 5.4254 66.4638 7.02299C62.1452 9.17906 59.1286 12.0575 57.7388 15.3456C56.582 18.0839 56.4159 21.4316 57.2366 25.1298C55.4884 23.1775 53.5219 21.4696 51.3782 20.0317C50.7236 18.7385 48.9928 15.5548 46.2869 12.2273C45.3957 11.1319 43.6813 12.5065 44.5818 13.613C46.405 15.8555 47.7774 18.0611 48.6357 19.5763L38.6276 17.6253L29.1189 4.65544C30.0423 4.66826 30.9688 4.75752 31.8907 4.93834C34.8135 5.51054 37.7006 6.99919 40.4733 9.36217C41.5596 10.2882 42.9704 8.60274 41.8983 7.6895C38.8354 5.07933 35.6105 3.42772 32.3128 2.78181C27.2787 1.7967 21.4075 3.08989 15.332 6.52311C10.8038 9.08201 7.77571 11.8927 7.64936 12.0108C7.24424 12.3894 7.1797 13.0769 7.5189 13.5191C7.96293 14.4301 9.64567 17.7164 12.4467 21.2544C14.0979 23.3404 15.8392 25.1257 17.6405 26.5929C17.1287 27.0218 16.6307 27.4704 16.1487 27.9423C13.5742 30.4605 11.6031 33.4309 10.309 36.6783C9.16502 39.5476 8.54979 42.6343 8.51545 45.8157C8.45869 51.0182 9.96611 56.0358 12.8757 60.3268C15.7179 64.5181 19.6913 67.7362 24.366 69.6327C25.6743 70.1624 26.5015 68.1276 25.1922 67.5966C23.4985 66.9095 21.9073 66.0292 20.4397 64.9823C20.6274 63.9413 21.0628 60.195 18.5744 56.3168C18.226 55.7744 19.2674 53.644 19.8891 52.3714C20.5308 51.0599 21.1932 49.704 21.5027 48.4273C21.8313 47.0709 21.4615 45.9325 20.4338 45.1337C19.6794 44.5473 18.692 44.2438 17.8218 43.976C17.2565 43.802 16.6156 43.6052 16.3867 43.4143C15.9152 43.0193 15.1452 41.5594 14.5264 40.3871C13.8397 39.0866 13.186 37.8488 12.5186 37.0866C14.0205 33.5197 16.4329 30.3635 19.4542 27.9488C22.214 29.8288 25.3639 31.1261 28.712 31.3888C24.8292 34.3973 23.5731 38.2393 25.3685 41.9298C27.465 46.2392 31.7804 45.5507 35.5876 44.9442C36.2463 44.8389 36.9279 44.7304 37.5807 44.6489C37.8256 44.6182 37.8993 44.6851 37.9488 44.7285C38.7823 45.4701 38.7576 49.0118 38.7398 51.5982C38.7155 55.1756 38.6926 58.5548 40.0252 60.2898C40.705 61.1742 41.6621 61.6264 42.7841 61.6264C43.4566 61.6264 44.1872 61.4644 44.9535 61.1357C48.2672 59.7166 51.7119 55.4457 51.1864 52.0665C50.7272 49.1121 50.4233 47.1602 51.1397 45.5869C51.8021 44.1307 53.4033 42.7826 56.5569 41.0623C56.9345 42.7629 57.1249 44.5322 57.1053 46.3472C57.038 52.5426 54.5615 58.3411 50.1326 62.6738C45.1828 67.516 38.2262 69.9074 31.3446 69.1489C29.9425 68.9969 29.7003 71.1786 31.1043 71.3333C38.6368 72.1628 46.2526 69.5444 51.6689 64.2448C56.5179 59.501 59.2288 53.1537 59.3025 46.3705C59.4005 37.3769 54.7858 29.409 47.7609 24.819C49.2125 23.784 50.2937 22.8891 50.8934 22.3695C53.4546 24.207 55.7265 26.4706 57.6166 29.1078C62.1539 35.4401 63.9534 43.1593 62.6845 50.8452C60.0638 66.7108 45.0249 77.488 29.1565 74.8663C21.4702 73.597 14.7388 69.4112 10.2014 63.0789C5.66358 56.7471 3.86411 49.0269 5.13349 41.3415C5.36146 39.9586 3.19486 39.5956 2.96598 40.9836C1.60047 49.2485 3.53636 57.55 8.41474 64.3593C13.2941 71.1676 20.5336 75.6693 28.7985 77.0348C30.527 77.32 32.2574 77.4609 33.9758 77.4609C40.4715 77.4609 46.7905 75.444 52.1751 71.5855C58.9853 66.7062 63.4874 59.4681 64.852 51.2032C65.8522 45.1469 65.0781 39.071 62.674 33.577C63.7836 33.2497 65.6719 32.6143 67.74 31.5816C72.0577 29.4255 75.0748 26.5471 76.4641 23.259C77.8548 19.9699 77.8159 15.8006 76.3519 11.2019ZM12.5827 41.4125C13.4003 42.9625 14.1734 44.4273 14.9768 45.0993C15.5458 45.575 16.3377 45.8185 17.1759 46.0762C19.3233 46.7363 19.5727 47.0604 19.3667 47.9095C19.1141 48.9537 18.5043 50.2007 17.9152 51.4059C16.7804 53.7277 15.7088 55.9195 16.7245 57.5034C18.1651 59.7482 18.4119 61.9583 18.3871 63.333C11.8429 57.4319 9.1783 48.1114 11.6159 39.64C11.9391 40.1939 12.2787 40.8376 12.5827 41.4125ZM65.7405 19.8212L62.6181 12.2543C64.1374 10.8334 65.9003 9.76408 67.4017 9.01106C68.6807 8.36928 69.8975 7.88954 70.8734 7.54942L65.7405 19.8212ZM72.899 8.40132C73.3353 9.33882 73.8411 10.5478 74.2732 11.9142C74.747 13.4138 75.1819 15.2724 75.2684 17.211L67.9511 20.2299L72.899 8.40132ZM59.7626 16.2012C60.0867 15.4349 60.5055 14.7244 60.9894 14.0684L64.5439 22.6813L61.3542 30.3085C60.9061 29.3577 60.3783 28.109 59.9306 26.6904C59.032 23.8499 58.2739 19.7236 59.7626 16.2012ZM66.8016 29.5935C65.5707 30.2115 64.3961 30.6793 63.4393 31.0167L66.7494 23.1033L75.175 19.6266C75.0528 20.5705 74.8198 21.5062 74.4403 22.4034C72.9521 25.9259 69.4649 28.2582 66.8016 29.5935ZM27.1835 28.9682C26.7953 28.8922 26.4122 28.7993 26.0345 28.6935L38.1946 19.78L48.2072 21.7314C44.5598 24.6052 35.6833 30.6335 27.1835 28.9682ZM16.0704 22.094C13.4698 19.2911 11.5637 16.2941 10.4692 14.3751L23.211 16.8594L16.0704 22.094ZM18.3208 7.43498L23.6519 14.7066L10.8276 12.2067C12.4422 10.9318 15.1073 9.01793 18.3208 7.43498ZM26.8306 15.3264L20.3674 6.5103C22.3024 5.71516 24.3793 5.0894 26.5083 4.81108L35.4494 17.0059L26.8306 15.3264ZM26.1467 17.4316L35.2594 19.2078L23.564 27.7803C21.3585 26.7618 19.3736 25.2974 17.6369 23.6696L26.1467 17.4316ZM55.9599 38.887C51.9989 40.9973 50.0594 42.6549 49.1393 44.6768C48.1509 46.848 48.513 49.1785 49.0143 52.4039C49.3105 54.3059 47.05 57.8476 44.0883 59.1161C42.9924 59.5853 42.2119 59.5299 41.7674 58.9508C40.8945 57.8146 40.9183 54.3759 40.937 51.6133C40.9631 47.791 40.986 44.49 39.409 43.087C38.8419 42.5825 38.1163 42.3692 37.3102 42.4681C36.6194 42.5542 35.9186 42.6659 35.2415 42.7739C31.2027 43.4175 28.6612 43.6752 27.3447 40.9685C25.2115 36.5845 29.5296 33.3371 31.4851 32.1446C31.8834 31.902 32.2528 31.6159 32.5961 31.2973C37.3225 30.7324 41.7885 28.7045 45.7683 26.1644C50.54 29.0153 54.203 33.5271 55.9599 38.887Z" fill="#F2F2F2"/>
</svg>
