<svg width="90" height="90" viewBox="0 0 90 90" fill="none" xmlns="http://www.w3.org/2000/svg">
<g clip-path="url(#clip0)">
<path d="M88.0826 9.27645L69.5278 0.155996C69.1058 -0.0519987 68.6116 -0.0519987 68.1904 0.155996L49.652 9.25185C49.1368 9.51203 48.817 10.0451 48.8297 10.6221V23.4425L41.0899 17.2883C40.5271 16.8425 39.7324 16.8425 39.1702 17.2883L1.64323 47.2366C1.31223 47.4983 1.10498 47.8859 1.06994 48.3064C1.0349 48.7269 1.17655 49.1428 1.45984 49.456L8.94616 57.7004C9.23541 58.0195 9.64544 58.2014 10.0763 58.2007C10.4088 58.2007 10.7301 58.0821 10.9821 57.8652L13.3319 55.944V88.3934C13.3707 89.2702 14.0774 89.9702 14.9541 90H65.2605C66.1044 90 66.7694 89.2366 66.7694 88.3934V55.944L69.1767 57.8652C69.8073 58.3692 70.7221 58.2968 71.2663 57.7004L78.7556 49.4552C79.0389 49.1436 79.1813 48.7276 79.1477 48.3071C79.1142 47.8867 78.9084 47.499 78.5789 47.2359L75.7706 44.9941L81.9038 40.7917C85.9131 38.0587 88.9078 32.3407 88.9078 27.4913V10.6467C88.9197 10.0697 88.5984 9.53663 88.0826 9.27645ZM48.448 86.9464H31.8442V67.2891H48.448V86.9464ZM63.7159 86.9464H51.5016V65.7317C51.5016 64.8886 50.7262 64.2355 49.8823 64.2355H30.3331C29.9298 64.228 29.5399 64.3816 29.2506 64.6627C28.9614 64.9437 28.7959 65.3284 28.7906 65.7317V86.9464H16.3855V53.4981L40.0507 34.5705L63.7159 53.4981V86.9464ZM75.4031 48.6076L69.9743 54.585L41.0623 31.4223C40.5047 30.9757 39.7115 30.9757 39.1538 31.4223L10.2403 54.585L4.81236 48.6076L40.1379 20.4344L48.8297 27.3496V27.4913C48.8297 32.3407 51.8236 38.0587 55.8322 40.7917L68.0226 49.116C68.537 49.4694 69.2169 49.4694 69.732 49.116L73.133 46.7945L75.4031 48.6076ZM85.8542 27.4913C85.8542 31.2918 83.3263 36.1271 80.184 38.269L68.8531 46.0065L57.5453 38.269C54.4031 36.1264 51.8833 31.2918 51.8833 27.4913V11.5748L68.8688 3.22671L85.8542 11.5979V27.4913Z" fill="#F2F2F2"/>
<path d="M62.8772 23.5119C62.4947 23.1175 61.9304 22.9595 61.3988 23.0974C60.8673 23.2346 60.4506 23.6476 60.3074 24.1776C60.165 24.7077 60.3179 25.2743 60.7078 25.6604L65.4626 30.4227C65.7526 30.7015 66.1425 30.8506 66.5435 30.8364H66.5473C66.9476 30.8506 67.3367 30.7037 67.6267 30.4279L77.0223 21.0525C77.4174 20.6693 77.5747 20.1027 77.4331 19.5704C77.2922 19.0381 76.8747 18.6244 76.3424 18.4865C75.8094 18.3493 75.2435 18.5111 74.8633 18.9084L66.5525 27.2215L62.8772 23.5119Z" fill="#F2F2F2"/>
</g>
<defs>
<clipPath id="clip0">
<rect width="90" height="90" fill="white"/>
</clipPath>
</defs>
</svg>
