<svg width="100" height="100" viewBox="0 0 100 100" fill="none" xmlns="http://www.w3.org/2000/svg">
<g clip-path="url(#clip0)">
<path d="M50 8.39375C50.8092 8.39375 51.4648 7.73789 51.4648 6.92891V1.46484C51.4648 0.655859 50.8092 0 50 0C49.1908 0 48.5352 0.655859 48.5352 1.46484V6.92891C48.5352 7.73789 49.1908 8.39375 50 8.39375Z" fill="#F2F2F2"/>
<path d="M78.7946 12.7855L74.9298 16.6505C74.3577 17.2226 74.3577 18.1501 74.9298 18.722C75.2159 19.008 75.5909 19.1511 75.9657 19.1511C76.3405 19.1511 76.7155 19.0082 77.0017 18.722L80.8665 14.857C81.4386 14.2849 81.4386 13.3574 80.8665 12.7855C80.294 12.2134 79.3667 12.2134 78.7946 12.7855Z" fill="#F2F2F2"/>
<path d="M22.9984 68.5824L19.1335 72.4474C18.5615 73.0195 18.5615 73.947 19.1335 74.5189C19.4197 74.8048 19.7947 74.948 20.1695 74.948C20.5443 74.948 20.9193 74.805 21.2054 74.5189L25.0702 70.6539C25.6423 70.0818 25.6423 69.1542 25.0702 68.5824C24.498 68.0103 23.5706 68.0103 22.9984 68.5824Z" fill="#F2F2F2"/>
<path d="M92.1876 42.1875H86.7235C85.9143 42.1875 85.2587 42.8434 85.2587 43.6523C85.2587 44.4613 85.9143 45.1172 86.7235 45.1172H92.1876C92.9968 45.1172 93.6524 44.4613 93.6524 43.6523C93.6524 42.8434 92.9968 42.1875 92.1876 42.1875Z" fill="#F2F2F2"/>
<path d="M13.2766 42.1875H7.8125C7.00332 42.1875 6.34766 42.8434 6.34766 43.6523C6.34766 44.4613 7.00332 45.1172 7.8125 45.1172H13.2766C14.0857 45.1172 14.7414 44.4613 14.7414 43.6523C14.7414 42.8434 14.0855 42.1875 13.2766 42.1875Z" fill="#F2F2F2"/>
<path d="M77.0015 68.5824C76.4292 68.0103 75.5019 68.0103 74.9298 68.5824C74.3577 69.1544 74.3577 70.0818 74.9298 70.6539L78.7946 74.5189C79.0808 74.805 79.4556 74.948 79.8306 74.948C80.2054 74.948 80.5804 74.805 80.8665 74.5189C81.4386 73.9468 81.4386 73.0193 80.8665 72.4474L77.0015 68.5824Z" fill="#F2F2F2"/>
<path d="M22.9984 18.722C23.2845 19.0082 23.6593 19.1511 24.0343 19.1511C24.4092 19.1511 24.7842 19.0082 25.0703 18.722C25.6424 18.15 25.6424 17.2226 25.0703 16.6505L21.2054 12.7855C20.6334 12.2134 19.706 12.2134 19.1338 12.7855C18.5617 13.3576 18.5617 14.2851 19.1338 14.857L22.9984 18.722Z" fill="#F2F2F2"/>
<path d="M80.7617 43.6523C80.7617 34.3328 76.6051 25.6184 69.3574 19.7436C68.7289 19.2342 67.8066 19.3307 67.2971 19.9592C66.7875 20.5877 66.8842 21.51 67.5127 22.0195C74.0707 27.3354 77.832 35.2203 77.832 43.6523C77.832 58.5076 66.1334 70.6818 51.4648 71.4463V68.099C55.1305 67.7699 58.3881 66.2014 60.7518 63.6C63.6205 60.4424 65.1367 55.8641 65.1367 50.3594C65.1367 43.6426 61.2777 37.1482 58.9773 33.875C57.0102 31.0756 52.602 25.7812 50 25.7812C47.398 25.7812 42.9898 31.0756 41.0227 33.875C38.7223 37.1482 34.8633 43.6426 34.8633 50.3594C34.8633 52.8916 35.1811 55.2365 35.8078 57.3285C36.0398 58.1035 36.8563 58.5432 37.6314 58.3113C38.4064 58.0791 38.8465 57.2627 38.6143 56.4877C38.0693 54.6688 37.793 52.6068 37.793 50.3594C37.793 44.6135 41.1561 38.8541 43.1605 35.9326C46.2994 31.3578 49.168 29.0482 50 28.7322C50.832 29.0482 53.7004 31.3576 56.8395 35.9326C58.8441 38.8541 62.207 44.6135 62.207 50.3594C62.207 58.924 58.1314 64.4604 51.4648 65.1594V59.2682L57.4088 54.4596C58.0379 53.9508 58.1353 53.0283 57.6264 52.3994C57.1176 51.7705 56.1951 51.6728 55.5662 52.1818L51.4648 55.4998V48.618L55.9949 45.0143C56.6281 44.5105 56.733 43.5891 56.2293 42.9561C55.7258 42.3227 54.8041 42.218 54.1711 42.7217L51.4648 44.8742V38.3789C51.4648 37.5699 50.8092 36.9141 50 36.9141C49.1908 36.9141 48.5352 37.5699 48.5352 38.3789V44.8742L45.8289 42.7213C45.1961 42.2176 44.2742 42.3225 43.7707 42.9557C43.267 43.5887 43.3719 44.5102 44.0051 45.0139L48.5352 48.6176V55.4994L44.4338 52.1814C43.8049 51.6725 42.8824 51.7703 42.3736 52.399C41.8648 53.0279 41.9623 53.9504 42.5912 54.4592L48.5352 59.2678V65.1576C45.6 64.8445 43.1018 63.5752 41.2484 61.4402C40.7178 60.8291 39.7926 60.7639 39.182 61.2941C38.5711 61.8244 38.5057 62.7496 39.0359 63.3605C41.4209 66.1082 44.7541 67.7607 48.5352 68.099V71.4461C33.8666 70.6818 22.168 58.5076 22.168 43.6521C22.168 28.3057 34.6533 15.8203 50 15.8203C54.4145 15.8203 58.6352 16.823 62.5447 18.8008C63.267 19.166 64.1479 18.8768 64.5131 18.1549C64.8783 17.433 64.5891 16.5518 63.8672 16.1865C59.5438 13.9996 54.8781 12.8906 50 12.8906C33.0379 12.8906 19.2383 26.6902 19.2383 43.6523C19.2383 56.4055 27.0393 67.3707 38.1199 72.0273C36.7619 72.7758 35.8398 74.2217 35.8398 75.8789C35.8398 77.7887 37.0645 79.4178 38.7695 80.0225V83.4543C37.0645 84.059 35.8398 85.6879 35.8398 87.5979C35.8398 89.5078 37.0645 91.1367 38.7695 91.7414V94.5959C38.7695 97.5758 41.1939 100 44.1738 100H55.8262C58.8061 100 61.2305 97.5758 61.2305 94.5959V91.7414C62.9355 91.1367 64.1602 89.5078 64.1602 87.5979C64.1602 85.6879 62.9355 84.059 61.2305 83.4543V80.0225C62.9355 79.4178 64.1602 77.7889 64.1602 75.8789C64.1602 74.2217 63.2381 72.776 61.8801 72.0273C72.9607 67.3707 80.7617 56.4055 80.7617 43.6523ZM58.3008 80.2734V83.2031H41.6992V80.2734H58.3008ZM59.7656 89.0625H50C49.1908 89.0625 48.5352 89.7184 48.5352 90.5273C48.5352 91.3363 49.1908 91.9922 50 91.9922H58.3008V94.5957C58.3008 95.9602 57.1906 97.0703 55.8262 97.0703H44.1738C42.8094 97.0703 41.6992 95.9602 41.6992 94.5957V91.9922H43.765C44.5742 91.9922 45.2299 91.3363 45.2299 90.5273C45.2299 89.7184 44.5742 89.0625 43.765 89.0625H40.2344C39.4266 89.0625 38.7695 88.4055 38.7695 87.5977C38.7695 86.7898 39.4266 86.1328 40.2344 86.1328H59.7656C60.5734 86.1328 61.2305 86.7898 61.2305 87.5977C61.2305 88.4055 60.5734 89.0625 59.7656 89.0625ZM59.7656 77.3438H40.2344C39.4266 77.3438 38.7695 76.6867 38.7695 75.8789C38.7695 75.0711 39.4266 74.4141 40.2344 74.4141H59.7656C60.5734 74.4141 61.2305 75.0711 61.2305 75.8789C61.2305 76.6867 60.5734 77.3438 59.7656 77.3438Z" fill="#F2F2F2"/>
</g>
<defs>
<clipPath id="clip0">
<rect width="100" height="100" fill="white"/>
</clipPath>
</defs>
</svg>
