<svg width="100" height="100" viewBox="0 0 100 100" fill="none" xmlns="http://www.w3.org/2000/svg">
<g clip-path="url(#clip0)">
<path d="M59.1852 12.0275C58.1348 11.7746 57.0815 12.4201 56.8288 13.4685C56.576 14.5172 57.2212 15.5722 58.2698 15.825C74.1002 19.6412 85.1562 33.6946 85.1562 50.0004C85.1562 69.3855 69.3854 85.1565 50.0001 85.1565C30.6148 85.1565 14.844 69.3855 14.844 50.0004C14.844 33.6952 25.8994 19.6418 41.729 15.8252C42.7777 15.5722 43.4228 14.5172 43.17 13.4687C42.9171 12.4201 41.8616 11.7754 40.8136 12.0277C32.4386 14.0471 24.851 18.8882 19.4485 25.6595C13.8807 32.6378 10.9377 41.0548 10.9377 50.0004C10.9377 71.5394 28.4611 89.0628 50.0001 89.0628C71.5391 89.0628 89.0624 71.5396 89.0624 50.0004C89.0624 41.0546 86.1195 32.6374 80.5513 25.6589C75.1486 18.8879 67.5606 14.0467 59.1852 12.0275Z" fill="#F2F2F2"/>
<path d="M98.8226 45.3022L96.5377 41.0391L96.9187 35.7688C97.2851 32.3907 95.9377 29.0938 93.3096 26.9438L89.5166 23.838L88.0246 19.3435C87.1891 15.907 84.5791 13.1449 81.1928 12.122L76.511 10.7076L72.9255 6.56306C70.804 4.06756 67.5929 2.76952 64.3353 3.08964L59.4759 3.57381L54.6992 1.17753C51.7555 -0.391795 48.2457 -0.393163 45.3016 1.17734L41.0387 3.4621L35.7686 3.08085C32.3891 2.71444 29.0934 4.06209 26.9436 6.69001L23.8376 10.483L19.3433 11.975C15.9066 12.8105 13.1445 15.4204 12.1216 18.8066L10.7074 23.4884L6.56286 27.0741C4.06756 29.1956 2.76874 32.4061 3.08925 35.6643L3.57342 40.5237L1.17714 45.3004C-0.392381 48.2443 -0.393553 51.7539 1.17675 54.6982L3.4617 58.9611L3.08046 64.2314C2.71425 67.6095 4.0617 70.9062 6.68962 73.0564L10.4826 76.1622L11.9746 80.6567C12.8099 84.0932 15.4199 86.8553 18.8064 87.8782L23.488 89.2924L27.0737 93.4371C29.1954 95.9324 32.4051 97.2313 35.6639 96.9106L40.5231 96.4264L45.2994 98.8223C46.7719 99.6074 48.3859 100 50 100C51.6129 100 53.2258 99.608 54.6974 98.8231L58.9605 96.5383L64.2306 96.9195C67.6085 97.2852 70.9054 95.9383 73.0558 93.3104L76.1616 89.5174L80.6563 88.0256C84.0926 87.1901 86.8545 84.5801 87.8774 81.1938L89.2918 76.5122L93.4365 72.9265C95.9318 70.805 97.2307 67.5945 96.9101 64.3361L96.4258 59.4771L98.8219 54.7004C100.391 51.7562 100.393 48.2465 98.8226 45.3022ZM95.3666 52.8775C95.358 52.8935 95.3496 52.9096 95.3416 52.9256L92.6803 58.2312C92.5145 58.5617 92.4459 58.9326 92.4824 59.3007L93.0229 64.7206C93.2178 66.7025 92.4266 68.6575 90.8936 69.9611L86.308 73.9282C86.0284 74.1702 85.8233 74.4864 85.7165 74.8403L84.1381 80.0639C83.509 82.1467 81.7999 83.7481 79.6778 84.2428C79.6198 84.2563 79.5624 84.2725 79.5059 84.2913L74.3938 85.9879C74.0429 86.1045 73.7321 86.3182 73.4979 86.6043L70.0331 90.836C68.7171 92.4446 66.6954 93.266 64.6267 93.0332C64.6009 93.0303 64.5749 93.028 64.5493 93.026L58.6779 92.6014C58.3082 92.5748 57.9402 92.6533 57.6144 92.8279L52.8558 95.3783C51.0613 96.3354 48.918 96.3315 47.1221 95.3672C47.1061 95.3588 47.09 95.3504 47.074 95.3424L41.7686 92.6811C41.4959 92.5444 41.1959 92.4737 40.8928 92.4737C40.8284 92.4737 40.7637 92.4768 40.6991 92.4832L35.2792 93.0233C33.2975 93.219 31.3423 92.427 30.0387 90.8942L26.0716 86.3086C25.8298 86.029 25.5134 85.8237 25.1593 85.7169L19.9357 84.1389C17.8527 83.5098 16.2515 81.8007 15.7568 79.6784C15.7433 79.6204 15.7271 79.5632 15.7083 79.5065L14.0117 74.3942C13.8953 74.0433 13.6816 73.7327 13.3955 73.4985L9.16403 70.0335C7.55544 68.7175 6.73396 66.6964 6.96677 64.6273C6.9697 64.6015 6.97204 64.5757 6.974 64.5497L7.3986 58.6781C7.42536 58.3093 7.34665 57.9406 7.17204 57.6146L4.62147 52.8564C3.66444 51.0619 3.66854 48.9186 4.6324 47.1227C4.641 47.1068 4.6492 47.0908 4.65721 47.0748L7.31852 41.7692C7.48434 41.4387 7.5529 41.0678 7.51618 40.6998L6.97614 35.2795C6.78122 33.2977 7.57243 31.3426 9.10543 30.0391L13.691 26.072C13.9706 25.83 14.1757 25.5138 14.2828 25.1599L15.8609 19.9361C16.49 17.8532 18.1991 16.2521 20.3214 15.7572C20.3794 15.7437 20.4366 15.7275 20.4933 15.7087L25.6052 14.0119C25.9561 13.8955 26.2667 13.6818 26.5009 13.3956L29.9661 9.16403C31.2821 7.55563 33.3038 6.73454 35.3723 6.96696C35.3981 6.96989 35.4239 6.97224 35.4497 6.97419L41.3211 7.3988C41.6889 7.42497 42.0586 7.34685 42.3846 7.17224L47.143 4.62186C48.9373 3.66483 51.0808 3.66874 52.8765 4.63279C52.8924 4.64119 52.9084 4.64959 52.9246 4.6576L58.2302 7.31892C58.5607 7.48474 58.9316 7.55349 59.2996 7.51657L64.7197 6.97653C66.7013 6.78122 68.6566 7.57282 69.9601 9.10582L73.9272 13.6914C74.169 13.971 74.4854 14.1761 74.8395 14.2831L80.0631 15.8613C82.146 16.4904 83.7471 18.1997 84.242 20.3218C84.2555 20.3798 84.2717 20.437 84.2905 20.4937L85.9873 25.6056C86.104 25.9565 86.3174 26.2671 86.6036 26.5013L90.8352 29.9663C92.4438 31.2823 93.2651 33.3032 93.0322 35.3725C93.0293 35.3983 93.027 35.4241 93.0252 35.4501L92.6006 41.3217C92.5738 41.6905 92.6526 42.0592 92.827 42.3852L95.3775 47.1436C96.3348 48.9385 96.3307 51.0818 95.3666 52.8775Z" fill="#F2F2F2"/>
<path d="M41.5239 39.3585C41.2107 38.6984 40.5398 38.2407 39.7605 38.2407H29.4408C28.3621 38.2407 27.4877 39.1152 27.4877 40.1939V69.7574C27.4877 70.8361 28.3621 71.7105 29.4408 71.7105H39.7605C40.57 71.7105 41.2644 71.2182 41.5605 70.5164C43.0493 70.7254 44.5831 71.1488 46.18 71.591C48.5807 72.2557 51.063 72.943 53.6421 72.943H64.9172C68.4027 72.943 71.2271 71.0951 72.4726 67.9996C73.0793 66.4914 73.1855 64.9262 72.831 63.6158C73.4795 63.0328 74.0275 62.3071 74.442 61.4596C75.282 59.7424 75.4498 57.8114 74.9736 56.185C75.8611 55.3276 76.5232 54.1954 76.8693 52.8604C77.1929 51.6124 77.1873 50.3809 76.8994 49.3139C78.6611 48.2776 79.8476 46.3948 79.8476 44.2733C79.8476 42.6095 79.1998 41.0763 78.0232 39.9564C76.8935 38.881 75.3888 38.2886 73.7865 38.2886L57.8938 38.289C56.6864 36.7743 56.3106 34.7189 56.9981 33.0644C58.409 29.6687 58.3215 26.7943 56.7151 23.7447C55.5225 21.4812 52.3159 19.2277 49.6208 19.6125C47.9917 19.8453 46.813 20.9967 46.4673 22.6928C46.3655 23.1918 46.3376 23.7308 46.3054 24.3551C46.2257 25.8949 46.1163 28.0039 44.787 30.5505C43.886 32.2769 43.5855 34.0525 43.3202 35.6191C42.9403 37.8632 42.7562 38.9443 41.5239 39.3585ZM31.3939 42.147H37.8074V67.8043H31.3939V42.147ZM47.1718 36.271C47.3993 34.9271 47.6345 33.5372 48.2501 32.3582C49.9733 29.0566 50.1192 26.24 50.2065 24.5572C50.2298 24.109 50.2516 23.6855 50.295 23.4726C50.2952 23.4713 50.2956 23.4697 50.296 23.4683C50.9735 23.4777 52.6409 24.3924 53.2591 25.5658C54.329 27.5963 54.3645 29.2226 53.3911 31.566C52.5132 33.6789 52.5792 36.1306 53.4475 38.3105C52.4973 38.4427 51.7653 39.2562 51.7653 40.2427C51.7653 41.3212 52.6399 42.1958 53.7184 42.1958L73.7865 42.1952C74.3816 42.1952 74.9299 42.405 75.3299 42.7858C75.609 43.0513 75.9414 43.5251 75.9414 44.2735C75.9414 45.3212 74.981 46.227 73.8441 46.2519L68.817 46.3612C67.7387 46.3847 66.8834 47.2778 66.9068 48.3563C66.9301 49.4204 67.7996 50.2671 68.8588 50.2671C68.8731 50.2671 68.8875 50.2671 68.9022 50.2667L73.0889 50.1757C73.2254 50.5626 73.2965 51.3007 73.009 52.1462C72.7642 52.8653 72.1074 54.0715 70.4551 54.0715C69.3766 54.0715 68.502 54.946 68.502 56.0247C68.502 57.1034 69.3766 57.9778 70.4551 57.9778C70.7512 57.9778 71.0418 57.9594 71.3262 57.9233C71.3504 58.476 71.2367 59.1235 70.9334 59.7434C70.5748 60.4762 69.866 61.35 68.5258 61.35C67.4473 61.35 66.5727 62.2244 66.5727 63.3032C66.5727 64.3819 67.4473 65.2563 68.5258 65.2563C68.7279 65.2563 68.9279 65.2473 69.1254 65.2295C69.1203 65.6043 69.0441 66.0729 68.8311 66.5854C68.5248 67.3225 67.5301 69.0367 64.9176 69.0367H53.6424C51.5942 69.0367 49.4708 68.4488 47.2227 67.8264C45.4339 67.3311 43.5997 66.8236 41.714 66.5971V43.3114C46.1112 42.5146 46.7175 38.9548 47.1718 36.271Z" fill="#F2F2F2"/>
<path d="M50.0003 14.8438C51.0791 14.8438 51.9535 13.9693 51.9535 12.8906C51.9535 11.8119 51.0791 10.9375 50.0003 10.9375H49.999C48.9203 10.9375 48.0466 11.8119 48.0466 12.8906C48.0466 13.9693 48.9216 14.8438 50.0003 14.8438Z" fill="#F2F2F2"/>
</g>
<defs>
<clipPath id="clip0">
<rect width="100" height="100" fill="white"/>
</clipPath>
</defs>
</svg>
