<svg width="46" height="46" viewBox="0 0 46 46" fill="none" xmlns="http://www.w3.org/2000/svg">
<g clip-path="url(#clip0)">
<rect width="46" height="46" fill="white"/>
<path fill-rule="evenodd" clip-rule="evenodd" d="M46 0L0 0L0 46H46V0ZM18.0225 29.953C16.3449 28.9952 15.0467 27.641 13.9165 26.1098C11.7139 23.1246 10.0268 19.8472 8.5121 16.4757C8.16975 15.7158 8.41973 15.3086 9.25544 15.2939C10.6485 15.2665 12.0409 15.2698 13.432 15.292C13.9978 15.3015 14.3732 15.6249 14.5897 16.1594C15.3425 18.0093 16.2634 19.7696 17.4192 21.4031C17.7284 21.8379 18.0427 22.2705 18.4882 22.5774C18.9821 22.9178 19.3594 22.8066 19.5923 22.2535C19.7406 21.9022 19.8054 21.5286 19.8367 21.1532C19.9475 19.8677 19.9607 18.5808 19.7699 17.2991C19.6515 16.498 19.1984 15.98 18.3997 15.8285C17.9925 15.7508 18.0536 15.6012 18.2496 15.3678C18.5938 14.9667 18.9177 14.7167 19.5593 14.7167H24.3774C25.1372 14.8649 25.3077 15.2073 25.4109 15.971L25.4147 21.3255C25.4057 21.6213 25.563 22.4978 26.0937 22.6919C26.4921 22.8236 26.7658 22.5313 27.0086 22.2719C27.0249 22.2545 27.0411 22.2373 27.0572 22.2203C28.211 20.9958 29.0344 19.548 29.7701 18.0499C30.096 17.3913 30.3772 16.7071 30.6508 16.0225C30.8525 15.5158 31.1669 15.2663 31.7384 15.2753L36.377 15.281C36.5139 15.281 36.6545 15.281 36.7895 15.3032C37.5698 15.4381 37.7843 15.7748 37.5418 16.5385C37.1775 17.6894 36.4771 18.6576 35.7808 19.6201C35.7532 19.6582 35.7256 19.6963 35.6981 19.7344C35.3338 20.2378 34.9585 20.733 34.5831 21.2282C34.1599 21.7866 33.7366 22.3451 33.3289 22.9157C32.6262 23.9015 32.6816 24.3972 33.5566 25.2513C33.8127 25.5012 34.0727 25.7472 34.3327 25.9932C35.0581 26.6796 35.7836 27.3661 36.4249 28.1367C36.8098 28.5993 37.1739 29.0765 37.4514 29.6125C37.8453 30.3805 37.4884 31.2219 36.8023 31.2682L32.5392 31.2664C31.4388 31.3568 30.5619 30.9132 29.8224 30.1603C29.4286 29.759 29.0521 29.3388 28.6758 28.9188C28.4901 28.7116 28.3045 28.5044 28.1169 28.2996C27.8858 28.0444 27.6415 27.8058 27.3513 27.6155C26.7689 27.2381 26.2637 27.3527 25.9309 27.9592C25.5923 28.5771 25.5128 29.2632 25.4815 29.9511C25.4352 30.9554 25.1321 31.2181 24.1241 31.2665C21.9674 31.3664 19.9221 31.0387 18.0225 29.953Z" fill="#2F80ED"/>
</g>
<defs>
<clipPath id="clip0">
<rect width="46" height="46" fill="white"/>
</clipPath>
</defs>
</svg>
