<svg width="48" height="48" viewBox="0 0 48 48" fill="none" xmlns="http://www.w3.org/2000/svg">
<rect width="48" height="48" fill="#F2F2F2"/>
<path d="M24 0V3.87879H44.1212V44.1212H24V48H48V0H24Z" fill="#5AAAE7"/>
<path d="M3.87879 44.1212V3.87879H24V0H0V48H24V44.1212H3.87879Z" fill="#78B9EB"/>
<path d="M14.5214 27.2449C15.7008 28.8427 17.0555 30.2557 18.806 31.2552C20.7881 32.3881 22.9224 32.73 25.1729 32.6258C26.2247 32.5753 26.5409 32.3012 26.5893 31.2533C26.6219 30.5354 26.7049 29.8195 27.0582 29.1747C27.4055 28.5418 27.9326 28.4222 28.5403 28.816C28.8432 29.0146 29.0981 29.2636 29.3393 29.5299C29.9317 30.1766 30.5052 30.8461 31.1189 31.4715C31.8906 32.2571 32.8056 32.72 33.9538 32.6257L38.4023 32.6276C39.1182 32.5792 39.4907 31.7013 39.0796 30.8999C38.79 30.3406 38.4101 29.8426 38.0085 29.3599C37.0994 28.2676 36.0283 27.3372 35.0155 26.3491C34.1024 25.4579 34.0446 24.9405 34.7778 23.9119C35.5806 22.7884 36.4413 21.7099 37.2501 20.5923C38.0045 19.5483 38.7787 18.5059 39.1739 17.2574C39.4269 16.4605 39.2031 16.1092 38.3889 15.9684C38.2481 15.9452 38.1014 15.9452 37.9585 15.9452L33.1182 15.9393C32.5218 15.9299 32.1938 16.1903 31.9834 16.719C31.6978 17.4333 31.4044 18.1473 31.0644 18.8346C30.2967 20.3978 29.4374 21.9086 28.2334 23.1863C27.9672 23.4679 27.6717 23.8251 27.2281 23.6784C26.6743 23.4758 26.5102 22.5613 26.5196 22.2525L26.5156 16.6652C26.4079 15.8683 26.23 15.5111 25.4371 15.3564H20.4095C19.7401 15.3564 19.4021 15.6173 19.0429 16.0358C18.8384 16.2794 18.7746 16.4355 19.1996 16.5166C20.033 16.6747 20.5058 17.2152 20.6294 18.0511C20.8284 19.3885 20.8147 20.7314 20.699 22.0728C20.6664 22.4645 20.5987 22.8543 20.4441 23.221C20.201 23.798 19.8073 23.9141 19.292 23.5589C18.8271 23.2387 18.499 22.7872 18.1764 22.3336C16.9704 20.6291 16.0094 18.7922 15.2239 16.8619C14.998 16.3041 14.6063 15.9667 14.0158 15.9568C12.5643 15.9336 11.1113 15.9301 9.65773 15.9587C8.78568 15.974 8.52484 16.399 8.88207 17.1919C10.4627 20.71 12.2231 24.1299 14.5214 27.2449Z" fill="#78B9EB"/>
</svg>
