<svg xmlns="http://www.w3.org/2000/svg" width="46" height="46" fill="none" xmlns:v="https://vecta.io/nano"><path d="M13.917 26.1c1.13 1.53 2.428 2.885 4.106 3.843 1.9 1.086 3.945 1.413 6.102 1.314 1.008-.048 1.31-.31 1.357-1.315.03-.688.11-1.374.45-1.992.333-.607.838-.72 1.42-.344a4.02 4.02 0 0 1 .766.684l1.705 1.86c.74.753 1.616 1.197 2.717 1.106l4.263.002c.686-.046 1.043-.888.65-1.656-.277-.536-.642-1.013-1.026-1.476-.87-1.047-1.898-1.938-2.868-2.885-.875-.854-.93-1.35-.228-2.336l2.37-3.18c.723-1 1.465-2 1.844-3.196.242-.764.028-1.1-.752-1.235-.135-.022-.276-.022-.412-.022l-4.64-.006c-.572-.01-.886.24-1.088.747l-.88 2.027c-.736 1.498-1.56 2.946-2.713 4.17-.255.27-.538.612-.964.472-.53-.194-.688-1.07-.68-1.366l-.004-5.355c-.103-.764-.274-1.106-1.033-1.254H19.56c-.642 0-.965.25-1.3.65-.196.233-.257.383.15.46.8.152 1.252.67 1.37 1.47.19 1.282.178 2.57.067 3.854-.03.375-.096.75-.244 1.1-.233.553-.6.664-1.104.324-.445-.307-.76-.74-1.07-1.174-1.156-1.633-2.077-3.394-2.83-5.244-.216-.535-.592-.858-1.158-.867a117.24 117.24 0 0 0-4.177.002c-.836.015-1.086.422-.743 1.182 1.515 3.372 3.202 6.65 5.404 9.634z" fill="#fff"/><path d="M23 0v3.717h19.283v38.566H23V46h23V0H23z" fill="#5aaae7"/><path d="M3.717 42.283V3.717H23V0H0v46h23v-3.717H3.717z" fill="#78b9eb"/></svg>