<svg width="48" height="48" viewBox="0 0 48 48" fill="none" xmlns="http://www.w3.org/2000/svg">
<path fill-rule="evenodd" clip-rule="evenodd" d="M0 0V48H48V0H0ZM35.984 26.5558C37.0859 27.6308 38.251 28.6429 39.2401 29.8313C39.677 30.3565 40.0903 30.8982 40.4053 31.5067C40.8525 32.3785 40.4472 33.3336 39.6685 33.3863L34.8289 33.3842C33.5797 33.4868 32.5843 32.9832 31.7448 32.1286C31.0772 31.4481 30.4532 30.7198 29.8087 30.0162C29.5465 29.7266 29.2691 29.4556 28.9396 29.2396C28.2784 28.8112 27.705 28.9413 27.3271 29.6298C26.9428 30.3313 26.8525 31.11 26.817 31.8911C26.7644 33.0312 26.4204 33.3294 25.2761 33.3843C22.8277 33.4977 20.5058 33.1257 18.3494 31.8932C16.445 30.8059 14.9713 29.2686 13.6882 27.5304C11.1878 24.1415 9.27276 20.421 7.5533 16.5934C7.16466 15.7308 7.44854 15.2685 8.39715 15.2519C9.97851 15.2206 11.5592 15.2244 13.1384 15.2498C13.7807 15.2605 14.2069 15.6276 14.4526 16.2344C15.3073 18.3344 16.3526 20.3329 17.6647 22.1872C18.0157 22.6806 18.3726 23.1719 18.8783 23.5202C19.4389 23.9066 19.8674 23.7804 20.1317 23.1526C20.3 22.7538 20.3736 22.3297 20.4091 21.9034C20.5348 20.4441 20.5499 18.9832 20.3333 17.5282C20.1989 16.6188 19.6846 16.0307 18.7778 15.8588C18.3155 15.7706 18.3848 15.6007 18.6074 15.3357C18.9982 14.8805 19.3658 14.5966 20.0942 14.5966H25.5637C26.4264 14.7649 26.6199 15.1534 26.7371 16.0205L26.7414 22.099C26.7311 22.4349 26.9096 23.4298 27.5121 23.6502C27.9948 23.8098 28.3162 23.4212 28.6059 23.1148C29.9158 21.7248 30.8505 20.0812 31.6857 18.3805C32.0555 17.6329 32.3748 16.8562 32.6855 16.0789C32.9144 15.5038 33.2713 15.2205 33.9201 15.2308L39.1859 15.2372C39.3412 15.2372 39.5009 15.2372 39.6541 15.2624C40.5399 15.4156 40.7834 15.7978 40.5082 16.6648C40.0782 18.023 39.2359 19.1571 38.4152 20.2928C37.5353 21.5086 36.599 22.682 35.7256 23.9042C34.9279 25.0234 34.9907 25.5861 35.984 26.5558Z" fill="#828282"/>
</svg>
