<svg width="5760" height="1280" viewBox="0 0 5760 1280" fill="none" xmlns="http://www.w3.org/2000/svg">
<rect x="1920" width="1920" height="1280" fill="#FFC856"/>
<rect x="3840" width="1920" height="1280" fill="#FFC049"/>
<rect width="1920" height="1280" fill="#FFC049"/>
<g style="mix-blend-mode:multiply" opacity="0.1">
<circle cx="2052" cy="242" r="44" stroke="#FFC856" stroke-width="12"/>
</g>
<g style="mix-blend-mode:multiply" opacity="0.2">
<circle cx="2102" cy="890" r="23" stroke="#FFC856" stroke-width="12"/>
</g>
<g style="mix-blend-mode:overlay" opacity="0.2">
<path d="M2585 541L3842 0V1280L2585 541Z" fill="#001E20"/>
</g>
<g style="mix-blend-mode:overlay" opacity="0.2">
<path d="M2165 541.5L1920 0V1279.5L2165 541.5Z" fill="#001E20"/>
</g>
<g style="mix-blend-mode:overlay" opacity="0.2" clip-path="url(#clip0)">
<path d="M3511.15 874.079L3513.01 873.696C3532.82 869.667 3550.2 857.849 3561.38 840.815C3572.57 823.78 3576.64 802.907 3572.72 782.737C3568.81 762.567 3557.21 744.733 3540.46 733.114C3523.71 721.496 3503.16 717.034 3483.29 720.699C3463.41 724.363 3445.82 735.859 3434.33 752.683C3422.85 769.508 3418.4 790.301 3421.96 810.537C3425.52 830.773 3436.8 848.815 3453.34 860.737C3469.88 872.66 3490.35 877.498 3510.29 874.199C3510.33 874.195 3510.38 874.194 3510.43 874.189C3510.67 874.164 3510.91 874.128 3511.15 874.079ZM3436.92 809.932C3434.42 797.78 3435.53 785.173 3440.09 773.704C3444.65 762.235 3452.47 752.42 3462.56 745.5C3472.65 738.58 3484.55 734.866 3496.76 734.827C3508.97 734.788 3520.94 738.426 3531.16 745.282C3541.37 752.137 3549.38 761.902 3554.16 773.341C3558.94 784.78 3560.29 797.379 3558.02 809.546C3555.75 821.713 3549.98 832.901 3541.43 841.695C3532.88 850.489 3521.93 856.494 3509.98 858.951C3493.96 862.226 3477.26 858.904 3463.57 849.714C3449.87 840.525 3440.29 826.218 3436.92 809.932Z" fill="white"/>
<path d="M3639.78 903.759L3581.03 864.348C3590.54 852.072 3597.28 837.818 3600.78 822.584C3604.28 807.349 3604.46 791.5 3601.3 776.145C3589.32 717.874 3532.95 680.052 3475.63 691.832C3418.32 703.613 3381.43 760.605 3393.41 818.876C3402.72 864.186 3438.88 897.127 3481.45 904.006L3501.51 1001.57C3502.5 1007.32 3510.15 1009.65 3514.04 1005.39L3535.55 983.32L3564.01 995.119C3569.27 997.496 3575.37 992.335 3574.03 986.667L3565.17 943.592L3599.22 966.431C3603.94 969.808 3610.91 965.965 3610.68 960.148L3610.42 929.001L3638.63 916.963C3643.98 914.885 3644.68 906.825 3639.78 903.759ZM3407.91 815.894C3397.61 765.755 3429.34 716.715 3478.66 706.578C3527.98 696.441 3576.49 728.986 3586.79 779.126C3597.1 829.266 3565.36 878.305 3516.04 888.442C3466.73 898.579 3418.22 866.034 3407.91 815.894ZM3536.49 967.498C3535.13 966.936 3533.64 966.793 3532.21 967.087C3530.78 967.381 3529.47 968.1 3528.44 969.152L3513.18 984.816L3496.84 905.325C3511.82 905.492 3526.65 902.444 3540.35 896.382L3556.69 975.873L3536.49 967.498ZM3600.05 917.065C3598.71 917.639 3597.56 918.606 3596.76 919.843C3595.96 921.081 3595.54 922.534 3595.55 924.019L3595.74 946.124L3560.88 922.738L3553.97 889.1C3560.1 885.209 3565.81 880.687 3571.02 875.606L3620.08 908.523L3600.05 917.065Z" fill="white"/>
<path d="M3524.16 831.052C3529.8 832.899 3535.39 826.688 3533.07 821.143L3525.1 800.275L3537.28 781.762C3540.72 776.892 3536.59 769.545 3530.69 770.042L3508.73 771.159L3495.08 753.558C3491.56 748.703 3483.43 750.375 3482.11 756.225L3476.5 777.783L3455.88 785.419C3450.27 787.29 3449.37 795.665 3454.45 798.786L3472.95 810.993L3473.86 833.312C3473.91 839.325 3481.48 842.829 3485.95 838.907L3502.98 824.895L3524.16 831.052ZM3488.05 817.754L3487.59 806.568C3487.54 805.362 3487.21 804.185 3486.62 803.134C3486.03 802.083 3485.2 801.191 3484.2 800.531L3474.93 794.412L3485.27 790.585C3486.38 790.172 3487.38 789.493 3488.18 788.604C3488.97 787.716 3489.55 786.644 3489.85 785.48L3492.66 774.675L3499.5 783.496C3500.24 784.447 3501.19 785.205 3502.27 785.707C3503.36 786.209 3504.54 786.439 3505.73 786.379L3516.74 785.82L3510.63 795.102C3509.97 796.102 3509.56 797.249 3509.44 798.448C3509.31 799.646 3509.46 800.86 3509.89 801.987L3513.89 812.446L3503.27 809.358C3502.13 809.025 3500.92 808.976 3499.76 809.215C3498.6 809.454 3497.51 809.974 3496.59 810.731L3488.05 817.754Z" fill="white"/>
</g>
<defs>
<clipPath id="clip0">
<rect width="315.888" height="321.152" fill="white" transform="translate(3303 722.599) rotate(-11.615)"/>
</clipPath>
</defs>
</svg>
