<svg xmlns="http://www.w3.org/2000/svg" width="85" height="85" fill="none" xmlns:v="https://vecta.io/nano"><path d="M85 62.767H0V1.34h85v61.426z" fill="#ffd98b"/><path d="M85 1.34H42.5v61.426H85V1.34z" fill="#ffd581"/><path d="M67.402 53.636H17.598v-2.5c0-2.288-1.862-4.15-4.15-4.15h-2.5V18.773h2.5c2.288 0 4.15-1.862 4.15-4.15v-2.5h49.805v2.5c0 2.288 1.862 4.15 4.15 4.15h2.5v28.223h-2.5c-2.288 0-4.15 1.862-4.15 4.15v2.5zm-45.17-4.98h40.534a9.17 9.17 0 0 1 6.295-6.295V23.408a9.17 9.17 0 0 1-6.295-6.296H22.233a9.17 9.17 0 0 1-6.296 6.296V42.36a9.17 9.17 0 0 1 6.296 6.295z" fill="#ff9a00"/><path d="M49.07 29.616c-3.623-3.5-9.52-3.5-13.142 0l-3.46-3.583c5.53-5.34 14.53-5.34 20.06 0l-3.46 3.583zm-10.056 4.1H21.25v4.98h17.764v-4.98z" fill="#fff5cc"/><path d="M67.402 14.622v-2.5H42.5v4.98h20.267a9.17 9.17 0 0 0 6.295 6.296V42.36a9.17 9.17 0 0 0-6.295 6.295H42.5v4.98h24.902v-2.5c0-2.288 1.862-4.15 4.15-4.15h2.5V18.773h-2.5c-2.288 0-4.15-1.862-4.15-4.15z" fill="#e67500"/><path d="M49.07 29.615l3.46-3.583c-2.766-2.67-6.398-4.006-10.03-4.006v4.964c2.38 0 4.76.875 6.57 2.624z" fill="#ffdaaa"/><path d="M35.34 83.66l-4.192-7.546L23.6 71.92l18.182-18.182 11.74 11.74L35.34 83.66z" fill="#ff513f"/><path d="M70.247 83.66L52.065 65.477l11.74-11.74L81.986 71.92l-7.547 4.193-4.192 7.546z" fill="#bf1200"/><path d="M52.793 66.917c-8.696 0-15.77-7.075-15.77-15.772s7.075-15.77 15.77-15.77 15.77 7.075 15.77 15.77-7.075 15.772-15.77 15.772z" fill="#ffd2cd"/><path d="M52.793 35.374v31.543c8.696 0 15.77-7.075 15.77-15.772s-7.075-15.77-15.77-15.77z" fill="#ffb2aa"/><path d="M52.793 58.616a7.48 7.48 0 0 1-7.471-7.471 7.48 7.48 0 0 1 7.471-7.471 7.48 7.48 0 0 1 7.471 7.471 7.48 7.48 0 0 1-7.471 7.471zm0-9.96c-1.373 0-2.5 1.117-2.5 2.5s1.117 2.5 2.5 2.5 2.5-1.117 2.5-2.5-1.117-2.5-2.5-2.5z" fill="#ff513f"/><path d="M55.283 51.146c0 1.373-1.117 2.5-2.5 2.5v4.98a7.48 7.48 0 0 0 7.471-7.471 7.48 7.48 0 0 0-7.471-7.471v4.98c1.373 0 2.5 1.117 2.5 2.5z" fill="#bf1200"/></svg>