<svg width="85" height="85" viewBox="0 0 85 85" fill="none" xmlns="http://www.w3.org/2000/svg">
<path d="M42.4999 85C65.6915 76.3244 81.0614 54.1644 81.0614 29.4035V14.3962C73.1105 14.3962 66.6652 7.95082 66.6652 0H42.4999H18.3347C18.3347 7.95082 11.8893 14.3962 3.93848 14.3962V29.4034C3.93848 54.1644 19.3084 76.3244 42.4999 85Z" fill="#00AB75"/>
<path d="M42.5 85C65.6916 76.3244 81.0614 54.1644 81.0614 29.4035V14.3962C73.1106 14.3962 66.6652 7.95082 66.6652 0H42.5C42.5 0 42.5 66.0742 42.5 85Z" fill="#007550"/>
<path d="M37.1283 57.4878L24.3447 44.7044L31.3881 37.6609L37.1283 43.401L53.6123 26.917L60.6557 33.9604L37.1283 57.4878Z" fill="#F1F1F2"/>
<path d="M42.5 52.1158V38.0291L53.6121 26.917L60.6555 33.9604L42.5 52.1158Z" fill="#E6E6E6"/>
</svg>
