<svg xmlns="http://www.w3.org/2000/svg" width="85" height="85" fill="none" xmlns:v="https://vecta.io/nano"><path d="M42.5 85a59.36 59.36 0 0 0 38.562-55.596V14.396A14.4 14.4 0 0 1 66.665 0h-48.33A14.4 14.4 0 0 1 3.938 14.396v15.007c0 24.76 15.37 46.92 38.56 55.597z" fill="#00ab75"/><path d="M42.5 85a59.36 59.36 0 0 0 38.561-55.596V14.396A14.4 14.4 0 0 1 66.665 0H42.5v85z" fill="#007550"/><path d="M37.128 57.488L24.345 44.704l7.043-7.044 5.74 5.74 16.484-16.484 7.043 7.043-23.527 23.527z" fill="#f1f1f2"/><path d="M42.5 52.116V38.03l11.112-11.112 7.043 7.043L42.5 52.116z" fill="#e6e6e6"/></svg>