<svg xmlns="http://www.w3.org/2000/svg" width="81" height="81" fill="none" xmlns:v="https://vecta.io/nano"><path d="M81 59.814H0V1.278h81v58.535z" fill="#ffc856"/><path d="M81 1.278H40.5v58.535H81V1.278z" fill="#ffc03f"/><path d="M64.23 51.112H16.77V48.74a3.96 3.96 0 0 0-3.955-3.955H10.44V17.9h2.373a3.96 3.96 0 0 0 3.955-3.955v-2.373h47.46v2.373a3.96 3.96 0 0 0 3.955 3.955h2.373v26.895h-2.373a3.96 3.96 0 0 0-3.955 3.955v2.373zm-43.044-4.746h38.626c.82-2.894 3.105-5.178 6-6v-18.06c-2.894-.82-5.178-3.105-6-6H21.187c-.82 2.894-3.105 5.178-6 6v18.06c2.894.82 5.178 3.105 6 6z" fill="#ff9a00"/><path d="M46.762 28.222c-3.453-3.334-9.07-3.334-12.523 0l-3.297-3.414c5.27-5.1 13.846-5.1 19.117 0l-3.297 3.414zm-9.584 3.906H20.25v4.746h16.928v-4.746z" fill="#fff5cc"/><path d="M64.23 13.935v-2.373H40.5v4.746h19.313c.82 2.894 3.105 5.178 6 6v18.06c-2.894.82-5.178 3.105-6 6H40.5v4.746h23.73V48.74a3.96 3.96 0 0 1 3.955-3.955h2.373V17.9h-2.373a3.96 3.96 0 0 1-3.955-3.955z" fill="#e67500"/><path d="M46.762 28.222l3.297-3.414C47.423 22.263 43.962 21 40.5 21v4.73c2.268 0 4.535.834 6.262 2.5z" fill="#ffdaaa"/><path d="M33.677 79.72l-3.995-7.19-7.192-3.995 17.327-17.327 11.187 11.187L33.677 79.72z" fill="#ff513f"/><path d="M66.94 79.722L49.614 62.396 60.8 51.21l17.326 17.327-7.19 3.995-3.995 7.19z" fill="#bf1200"/><path d="M50.31 63.77a15.05 15.05 0 0 1-15.029-15.029A15.05 15.05 0 0 1 50.309 33.71a15.05 15.05 0 0 1 15.029 15.029 15.05 15.05 0 0 1-15.029 15.029z" fill="#ffd2cd"/><path d="M50.31 33.7v30.06a15.05 15.05 0 0 0 15.029-15.029A15.05 15.05 0 0 0 50.309 33.71z" fill="#ffb2aa"/><path d="M50.31 55.858a7.13 7.13 0 0 1-7.119-7.119 7.13 7.13 0 0 1 7.119-7.119 7.13 7.13 0 0 1 7.119 7.119 7.13 7.13 0 0 1-7.119 7.119zm0-9.492c-1.308 0-2.373 1.065-2.373 2.373S49 51.112 50.31 51.112s2.373-1.064 2.373-2.373-1.065-2.373-2.373-2.373z" fill="#ff513f"/><path d="M52.682 48.74c0 1.31-1.065 2.373-2.373 2.373v4.746a7.13 7.13 0 0 0 7.119-7.119 7.13 7.13 0 0 0-7.119-7.119v4.746c1.31 0 2.373 1.064 2.373 2.373z" fill="#bf1200"/></svg>