<svg width="165" height="92" viewBox="0 0 165 92" fill="none" xmlns="http://www.w3.org/2000/svg">
<path d="M2.64632 52.3601C0.982718 52.7365 -0.189361 53.7151 0.0374937 54.5431C0.226539 55.3712 1.66329 55.7476 3.3647 55.3335L10.6997 85.9339C11.0777 87.59 12.7413 88.5686 14.4049 88.1922L65.8631 75.9972C66.6571 75.809 67.1486 75.0186 66.9596 74.2282L58.9062 40.5415C58.7172 39.7511 57.9232 39.2618 57.1292 39.4499L2.64632 52.3601Z" fill="#733D3D"/>
<path d="M39.1327 52.5481C33.6504 49.8005 28.168 47.0528 22.6857 44.3052C30.0207 40.5413 31.0415 34.218 31.6087 26.6526C32.1758 19.1248 33.1967 12.8015 40.5316 9C46.0139 11.7476 51.4962 14.4953 56.9786 17.2429C49.6436 21.0068 48.6228 27.3301 48.0556 34.8955C47.4507 42.4609 46.4298 48.7842 39.1327 52.5481Z" fill="#8AAD4A"/>
<path d="M40.4942 24.3945C43.8592 26.0506 46.3168 30.1909 46.1656 33.9547C45.9765 37.7563 42.12 38.6972 39.1709 37.154C35.8815 35.4227 33.2727 31.3577 33.4995 27.5938C33.7264 23.8675 37.5451 22.9266 40.4942 24.3945Z" fill="#63802D"/>
<path d="M42.9511 31.583C43.3292 31.7712 43.5183 31.8841 43.8964 32.0723C43.8586 32.5616 43.8586 32.8251 43.8208 33.3144C43.4427 33.1262 43.2536 33.0509 42.9133 32.8628C42.7621 33.879 42.4596 34.7071 42.0437 35.1211C41.5522 34.5941 41.3254 34.3307 40.8338 33.8414C41.2497 33.3897 41.5522 32.5993 41.59 31.7712C41.6656 30.9055 41.3632 30.3409 41.1741 30.3409C40.4936 30.3409 40.3423 34.0672 38.3762 33.2015C37.4688 32.7875 36.7126 31.5078 36.6748 29.7764C36.2967 29.5882 36.1077 29.4753 35.7296 29.2871C35.7674 28.7978 35.7674 28.5343 35.8052 28.045C36.1833 28.2332 36.3724 28.3084 36.7127 28.4966C36.8261 27.7439 37.0529 27.104 37.3932 26.6523C37.8847 27.1416 38.1116 27.4051 38.6031 27.8944C38.225 28.4214 38.036 29.0236 37.9982 29.6634C37.9225 30.5291 38.3006 31.0937 38.4519 31.0937C39.0946 31.0561 39.2837 27.3675 41.2119 28.2332C42.1572 28.6848 42.8755 29.8893 42.9511 31.583Z" fill="#CEEB98"/>
<path d="M26.1641 43.8912C30.7012 46.1872 35.2761 48.4455 39.8131 50.7415C51.0424 42.4609 42.2707 25.8998 53.5 17.6193C48.9629 15.3233 44.388 13.065 39.8509 10.769C28.5838 19.0872 37.3934 35.6107 26.1641 43.8912ZM47.375 17.544C46.4297 18.485 46.7322 19.7271 47.7152 20.254C48.0177 20.4046 48.358 20.4799 48.6983 20.4799C43.8587 28.6098 47.0725 38.697 42.2329 46.7894C42.0817 46.5259 41.8548 46.3001 41.5524 46.1495C40.5315 45.6602 39.2082 46.1119 38.263 47.0152C37.9605 47.3163 37.7336 47.6551 37.5824 47.9938C35.4273 46.9023 33.2344 45.8108 31.0792 44.7192C31.533 44.5687 31.9489 44.3429 32.2513 44.0041C33.1966 43.0631 32.8941 41.8211 31.911 41.2941C31.6086 41.1436 31.2683 41.0683 30.928 41.0683C35.7676 32.9383 32.5538 22.8511 37.3934 14.7588C37.5446 15.0222 37.7714 15.2481 38.0739 15.3986C39.0948 15.8879 40.4181 15.4363 41.3633 14.5329C41.6658 14.2318 41.8926 13.8931 42.0439 13.5543C44.199 14.6458 46.3919 15.7374 48.547 16.8289C48.1311 16.9794 47.7152 17.2053 47.375 17.544Z" fill="#63802D"/>
<path d="M42.6112 18.2969C43.0649 18.5227 43.2162 19.1249 42.9515 19.6142C42.6868 20.1412 42.1575 20.367 41.7038 20.1412C41.2501 19.9153 41.061 19.3131 41.2879 18.7862C41.5526 18.2969 42.1575 18.071 42.6112 18.2969Z" fill="#CEEB98"/>
<path d="M37.6584 42.1598C38.1122 42.3856 38.6793 42.1974 38.8683 41.7458C39.0574 41.2565 38.8305 40.6919 38.3768 40.466C37.9231 40.2402 37.4316 40.466 37.2047 40.9177C36.9779 41.3694 37.1669 41.8963 37.6584 42.1598Z" fill="#CEEB98"/>
<path d="M34.7843 61.28C30.9277 56.5375 27.0712 51.7574 23.2525 47.0149C31.4949 46.6008 35.0489 41.2561 38.7164 34.6317C42.3839 28.0073 45.9001 22.6626 54.1803 22.2485C58.0369 26.991 61.8934 31.7712 65.7121 36.5136C57.4319 36.9277 53.9157 42.2724 50.2482 48.8968C46.5807 55.5212 43.0266 60.866 34.7843 61.28Z" fill="#8AAD4A"/>
<path d="M47.7149 36.2125C50.0591 39.1107 50.6262 43.8908 48.887 47.2407C47.1478 50.6281 43.2535 49.913 41.174 47.2783C38.8676 44.3425 38.2249 39.5623 40.0019 36.2501C41.7789 32.9755 45.6354 33.6907 47.7149 36.2125Z" fill="#63802D"/>
<path d="M46.9584 43.816C47.2231 44.1548 47.3743 44.3053 47.639 44.6441C47.4121 45.0957 47.2987 45.2839 47.034 45.7356C46.7694 45.4345 46.6559 45.2463 46.3913 44.9452C45.8619 45.8109 45.2192 46.4507 44.6521 46.6766C44.4252 45.9991 44.3118 45.6603 44.0849 45.0205C44.6521 44.757 45.257 44.1924 45.6351 43.4396C46.051 42.6868 46.0132 42.047 45.8619 41.9717C45.2192 41.7082 43.5178 45.0204 42.1189 43.402C41.4383 42.6492 41.287 41.1813 41.9676 39.5628C41.7029 39.2241 41.5517 39.0735 41.287 38.7348C41.5139 38.2831 41.6273 38.0949 41.892 37.6432C42.1567 37.982 42.2701 38.1325 42.5347 38.4337C42.9506 37.7938 43.4422 37.3045 43.8959 37.041C44.1227 37.6809 44.2362 38.0196 44.463 38.6971C43.8959 39.0359 43.48 39.4875 43.1775 40.0521C42.7616 40.8049 42.8372 41.4824 42.9885 41.5577C43.5934 41.8211 45.2948 38.5089 46.6937 40.0898C47.4499 40.8049 47.6012 42.1975 46.9584 43.816Z" fill="#CEEB98"/>
<path d="M26.5416 48.1059C29.7553 52.058 32.9313 56.0101 36.1451 59.9621C49.8319 57.0263 48.6599 38.3575 62.3468 35.4217C59.133 31.4696 55.957 27.5175 52.7432 23.5654C39.0564 26.5013 40.2284 45.1701 26.5416 48.1059ZM56.8266 32.8246C55.5789 33.2762 55.3143 34.556 56.0326 35.4217C56.2595 35.6851 56.5242 35.8733 56.8266 36.0239C49.038 41.4439 47.7903 51.9451 40.0016 57.3274C39.9638 57.0263 39.8504 56.7252 39.6235 56.4617C38.9051 55.5961 37.5062 55.4455 36.2585 55.8972C35.8426 56.0477 35.5023 56.2736 35.2376 56.4994C33.7253 54.6174 32.1751 52.7355 30.6628 50.8536C31.1543 50.8912 31.608 50.8536 32.0239 50.703C33.2716 50.2513 33.5362 48.9716 32.8179 48.1059C32.591 47.8425 32.3264 47.6543 32.0239 47.5037C39.8125 42.0837 41.0602 31.5825 48.8489 26.2001C48.8867 26.5013 49.0001 26.8024 49.227 27.0658C49.9454 27.9315 51.3443 28.0821 52.592 27.6304C53.0079 27.4799 53.3482 27.254 53.6129 27.0282C55.1252 28.9101 56.6754 30.7921 58.1878 32.674C57.734 32.5987 57.2425 32.6364 56.8266 32.8246Z" fill="#63802D"/>
<path d="M52.1764 31.545C52.5167 31.9591 52.3655 32.5236 51.9118 32.9C51.4581 33.2764 50.8531 33.2388 50.5506 32.8624C50.2104 32.4484 50.286 31.8085 50.7397 31.4698C51.1934 31.0934 51.8362 31.131 52.1764 31.545Z" fill="#CEEB98"/>
<path d="M37.7336 51.2307C38.0739 51.6448 38.6411 51.6824 39.0191 51.3436C39.3972 51.0049 39.3972 50.365 39.0948 49.951C38.7545 49.537 38.2252 49.537 37.8471 49.8757C37.469 50.2521 37.4312 50.8167 37.7336 51.2307Z" fill="#CEEB98"/>
<path d="M30.745 43.2495C33.7581 40.5231 34.4474 36.3925 32.2845 34.0236C30.1216 31.6546 25.9256 31.9444 22.9124 34.6708C19.8992 37.3972 19.2099 41.5278 21.3728 43.8967C23.5357 46.2657 27.7318 45.9759 30.745 43.2495Z" fill="#C5982C"/>
<path d="M32.6292 40.8809H30.7009L30.6631 41.1067H32.5157C32.5535 41.0314 32.5913 40.9561 32.6292 40.8809Z" fill="#E2AD31"/>
<path d="M33.1202 39.7891H31.0029L30.7761 40.6924H32.7043C32.8556 40.3913 33.0068 40.0902 33.1202 39.7891Z" fill="#E2AD31"/>
<path d="M31.8348 39.6379H33.1581C33.2338 39.4121 33.3094 39.1863 33.3472 38.9604H31.9861L31.8348 39.6379Z" fill="#E2AD31"/>
<path d="M30.6543 42.6463C33.2858 39.663 33.5365 35.599 31.2144 33.5691C28.8922 31.5392 24.8765 32.3121 22.245 35.2954C19.6135 38.2788 19.3627 42.3428 21.6849 44.3727C24.007 46.4026 28.0227 45.6297 30.6543 42.6463Z" fill="#EFC24E"/>
<path d="M29.8869 41.9768C32.0362 39.5401 32.2395 36.2195 30.341 34.5599C28.4425 32.9003 25.161 33.5303 23.0118 35.967C20.8625 38.4036 20.6592 41.7243 22.5577 43.3838C24.4562 45.0434 27.7376 44.4135 29.8869 41.9768Z" fill="#E8B438"/>
<path d="M21.702 39.2244C22.4204 36.2509 25.256 33.8796 28.0161 33.8796C28.9613 33.8796 29.7553 34.1431 30.3981 34.6324C29.7175 33.9926 28.8101 33.6538 27.7136 33.6538C24.9158 33.6538 22.0801 36.0627 21.3995 38.9985C20.9458 40.9557 21.5129 42.6871 22.7606 43.5905C21.7398 42.6118 21.2861 41.031 21.702 39.2244Z" fill="#F5ECD6"/>
<path d="M26.5797 41.2947L26.3907 42.0475H25.6345L25.8235 41.3323C25.2186 41.2947 24.6515 41.1065 24.349 40.8054L24.9917 39.8268C25.332 40.0903 25.8235 40.2784 26.3529 40.2784C26.8822 40.2784 27.109 40.1279 27.1469 39.9021C27.3359 39.1493 24.6893 39.7139 25.1052 37.9448C25.2942 37.1921 25.937 36.5899 26.9956 36.4393L27.1847 35.6865H27.9408L27.7518 36.4017C28.2055 36.4393 28.6214 36.5899 28.9239 36.778L28.3189 37.7567C27.9408 37.5308 27.5628 37.3803 27.1847 37.3803C26.6553 37.3803 26.4285 37.5685 26.3529 37.7943C26.1638 38.5094 28.8104 37.9825 28.3945 39.7139C28.2433 40.5043 27.6006 41.1441 26.5797 41.2947Z" fill="#F5ECD6"/>
<path d="M26.3905 41.1814L26.2015 41.9342H25.4453L25.6343 41.2191C25.0294 41.1814 24.4623 40.9932 24.1598 40.6921L24.8025 39.7135C25.1428 39.977 25.6343 40.1652 26.1637 40.1652C26.693 40.1652 26.9199 40.0146 26.9577 39.7888C27.1467 39.036 24.5001 39.6006 24.916 37.8316C25.105 37.0788 25.7478 36.4766 26.8064 36.326L26.9955 35.5732H27.7517L27.5626 36.2884C28.0163 36.326 28.4322 36.4766 28.7347 36.6648L28.1297 37.6434C27.7517 37.4175 27.3736 37.267 26.9955 37.267C26.4661 37.267 26.2393 37.4552 26.1637 37.681C25.9746 38.3962 28.6213 37.8692 28.2054 39.6006C28.0163 40.4287 27.4114 41.0309 26.3905 41.1814Z" fill="#EFC24E"/>
<path opacity="0.2" d="M21.4753 44.1553C21.7022 44.4187 22.0047 44.6069 22.2693 44.7951L31.7972 34.181C31.5704 33.9175 31.3435 33.6541 31.0789 33.4282L21.4753 44.1553Z" fill="#EFD489"/>
<path opacity="0.2" d="M22.6472 45.0207C23.2144 45.2842 23.8193 45.4724 24.4999 45.51L32.7422 36.3638C32.6288 35.6863 32.4019 35.0841 32.0617 34.5571L22.6472 45.0207Z" fill="#EFD489"/>
<path d="M18.1861 58.2693C22.5921 58.2693 26.1638 54.9159 26.1638 50.7792C26.1638 46.6425 22.5921 43.2891 18.1861 43.2891C13.7801 43.2891 10.2084 46.6425 10.2084 50.7792C10.2084 54.9159 13.7801 58.2693 18.1861 58.2693Z" fill="#C5982C"/>
<path d="M25.8238 52.9614H23.4796V53.1873H25.7482C25.7482 53.112 25.786 53.0367 25.8238 52.9614Z" fill="#E2AD31"/>
<path d="M26.088 51.6831H23.517V52.737H25.8611C25.9746 52.3982 26.0502 52.0595 26.088 51.6831Z" fill="#E2AD31"/>
<path d="M24.5004 51.5321H26.1262C26.164 51.2686 26.164 51.0051 26.164 50.7793H24.5004V51.5321Z" fill="#E2AD31"/>
<path d="M17.7324 58.2693C21.8878 58.2693 25.2564 54.9159 25.2564 50.7792C25.2564 46.6425 21.8878 43.2891 17.7324 43.2891C13.577 43.2891 10.2084 46.6425 10.2084 50.7792C10.2084 54.9159 13.577 58.2693 17.7324 58.2693Z" fill="#EFC24E"/>
<path d="M17.7325 56.9138C21.1361 56.9138 23.8953 54.167 23.8953 50.7787C23.8953 47.3903 21.1361 44.6436 17.7325 44.6436C14.3288 44.6436 11.5696 47.3903 11.5696 50.7787C11.5696 54.167 14.3288 56.9138 17.7325 56.9138Z" fill="#E8B438"/>
<path d="M11.9853 51.0422C11.9853 47.6547 14.7454 44.907 18.1482 44.907C19.2825 44.907 20.3789 45.2081 21.2864 45.7727C20.2655 45.0576 19.0556 44.6436 17.6945 44.6436C14.2917 44.6436 11.5316 47.3912 11.5316 50.7787C11.5316 53.037 12.7415 54.9942 14.5563 56.0481C13.0062 54.9566 11.9853 53.1123 11.9853 51.0422Z" fill="#F5ECD6"/>
<path d="M18.5267 53.4132V54.2789H17.6193V53.4508C16.8631 53.4132 16.1069 53.1874 15.6532 52.8486L16.1447 51.7195C16.6362 52.0206 17.3168 52.2464 17.9217 52.2464C18.5645 52.2464 18.7913 52.0582 18.7913 51.7947C18.7913 50.929 15.7288 51.5689 15.7288 49.5741C15.7288 48.746 16.3338 48.0309 17.5814 47.8803V47.0522H18.4889V47.8803C19.056 47.9179 19.6231 48.0685 20.039 48.332L19.5853 49.4611C19.056 49.1977 18.5645 49.0471 18.073 49.0471C17.4302 49.0471 17.2034 49.2729 17.2034 49.5364C17.2034 50.3645 20.2659 49.7622 20.2659 51.7195C20.3415 52.5475 19.7366 53.225 18.5267 53.4132Z" fill="#F5ECD6"/>
<path d="M18.2614 53.3005V54.1661H17.354V53.3381C16.5978 53.3005 15.8416 53.0746 15.3879 52.7359L15.8795 51.6067C16.371 51.9078 17.0515 52.1336 17.6565 52.1336C18.2992 52.1336 18.5261 51.9455 18.5261 51.682C18.5261 50.8163 15.4636 51.4561 15.4636 49.4613C15.4636 48.6332 16.0685 47.9181 17.3162 47.7299V46.9019H18.2236V47.7299C18.7908 47.7675 19.3579 47.9181 19.7738 48.1816L19.3201 49.3107C18.7908 49.0473 18.2992 48.8967 17.8077 48.8967C17.165 48.8967 16.9381 49.1225 16.9381 49.386C16.9381 50.2141 20.0006 49.6118 20.0006 51.5691C20.0385 52.4348 19.4713 53.1499 18.2614 53.3005Z" fill="#EFC24E"/>
<path opacity="0.2" d="M13.1194 56.7259C13.4975 56.9893 13.8756 57.2528 14.2915 57.4786L22.8364 45.2837C22.4961 44.9825 22.118 44.6814 21.7399 44.418L13.1194 56.7259Z" fill="#EFD489"/>
<path opacity="0.2" d="M14.8593 57.705C15.6154 58.0061 16.4094 58.1943 17.279 58.2696L24.6518 47.7684C24.3115 47.0156 23.8578 46.3005 23.2907 45.6982L14.8593 57.705Z" fill="#EFD489"/>
<path d="M50.2104 48.897C51.9118 45.8106 53.5754 42.9877 55.7305 40.8423C55.6171 40.8423 55.5415 40.8423 55.428 40.8799L10.2084 51.6446C10.4352 53.7148 11.5317 55.5214 13.1197 56.7259C13.1575 56.7635 13.2331 56.8011 13.2709 56.8388C13.3843 56.9141 13.4978 56.9893 13.6112 57.0646C13.6868 57.1023 13.7624 57.1775 13.838 57.2152C13.9515 57.2904 14.1027 57.3657 14.2161 57.441C14.2539 57.441 14.254 57.4786 14.2918 57.4786C14.4808 57.5539 14.632 57.6668 14.8211 57.7421C15.0101 57.8174 15.1992 57.8927 15.426 57.9679C15.5017 58.0056 15.5773 58.0056 15.6907 58.0432C15.8419 58.0809 15.9554 58.1185 16.1066 58.1561C16.22 58.1938 16.2956 58.1938 16.4091 58.2314C16.5225 58.2691 16.6737 58.269 16.7872 58.3067C16.9006 58.3067 17.014 58.3443 17.0896 58.3443C17.1274 58.3443 17.2031 58.3443 17.2409 58.3443C17.3921 58.3443 17.5433 58.382 17.6946 58.382C17.7702 58.382 17.8836 58.382 17.9592 58.382C18.0349 58.382 18.0727 58.382 18.1483 58.382C21.6645 58.382 24.6136 56.2366 25.7101 53.3007C25.7101 53.2631 25.7479 53.2255 25.7479 53.1502C25.7479 53.1125 25.7857 53.1125 25.7857 53.0749C25.8235 52.9996 25.8235 52.9243 25.8613 52.8491C25.8991 52.7361 25.8991 52.6609 25.9369 52.548C25.9369 52.4727 25.9748 52.3974 25.9748 52.3221C26.0126 52.1339 26.0504 51.9834 26.0504 51.7952C26.0504 51.7575 26.0882 51.6823 26.0882 51.6446C26.126 51.3812 26.126 51.1177 26.126 50.8919C26.126 50.8542 26.126 50.8166 26.126 50.7789C28.9995 54.317 31.873 57.8927 34.7465 61.4307C43.0267 60.8661 46.5807 55.5214 50.2104 48.897Z" fill="#CFCFA6"/>
<path d="M3.36492 55.333C0.264581 55.9728 0.0377197 54.5425 0.0377197 54.5425L0.378005 56.0105C0.378005 56.0105 6.65431 82.2824 8.77162 91.0522C8.92285 91.6921 10.1327 92.2943 12.0988 91.8426L63.5569 79.6476C64.3509 79.4594 64.8425 78.669 64.6534 77.8786L56.6001 44.1919C56.411 43.4014 55.617 42.9121 54.8231 43.1003L3.36492 55.333Z" fill="#FF513F"/>
<path d="M64.0114 75.1314L16.5232 86.3854C14.5193 86.8747 13.3472 86.2349 13.196 85.595C11.608 79.0082 7.67586 62.5224 5.82322 54.7312L3.40343 55.2957C0.529937 55.898 0.114042 54.6935 0.0762329 54.543L0.416512 55.9733C0.416512 55.9733 6.69282 82.2451 8.81013 91.015C8.96137 91.6548 10.1713 92.2571 12.1373 91.8054L63.5955 79.6104C64.3895 79.4222 64.881 78.6318 64.6919 77.8414L64.0114 75.1314Z" fill="#F8E6E6"/>
<path d="M59.4733 56.1616L44.085 59.8126C40.9469 60.5654 39.0186 63.6894 39.7748 66.8134C40.531 69.9374 43.6691 71.857 46.8073 71.1042L62.1956 67.4533L59.4733 56.1616Z" fill="#F8E6E6"/>
<path d="M61.7043 55.6724C62.4605 55.4843 62.347 55.1455 62.347 55.1455L62.4227 55.5219C62.4227 55.5219 63.9728 62.0334 64.5022 64.1788C64.54 64.3294 64.3509 64.5929 63.8594 64.7058L45.9001 68.959C43.4047 69.5612 40.8715 68.018 40.2665 65.5338C39.6616 63.0497 41.2118 60.5279 43.745 59.9256L61.7043 55.6724Z" fill="#8E4949"/>
<path d="M47.904 64.1408C48.2821 65.7593 47.2991 67.4154 45.6355 67.7918C44.0097 68.1682 42.3461 67.1896 41.968 65.5335C41.5899 63.915 42.573 62.2589 44.2366 61.8825C45.9002 61.4685 47.526 62.4847 47.904 64.1408Z" fill="#E8B7B7"/>
<path d="M44.536 67.602C46.2269 67.5613 47.5645 66.1637 47.5236 64.4805C47.4827 62.7972 46.0788 61.4657 44.3879 61.5064C42.697 61.5471 41.3594 62.9446 41.4003 64.6279C41.4412 66.3112 42.8451 67.6427 44.536 67.602Z" fill="#F3D4D4"/>
<path d="M45.0301 63.3123C45.2191 64.0651 44.7654 64.8179 44.0093 64.9684C43.2531 65.1566 42.4969 64.705 42.3456 63.9522C42.1566 63.1994 42.6103 62.4466 43.3665 62.2961C44.0849 62.1079 44.8411 62.5596 45.0301 63.3123Z" fill="#F7E4E4"/>
</svg>
