<svg width="165" height="92" viewBox="0 0 165 92" fill="none" xmlns="http://www.w3.org/2000/svg">
<path d="M50.524 85.6015H49.6453L40.376 47.6851H40.9336L50.524 85.6015Z" fill="#5E425B"/>
<path d="M40.9366 46.6912C40.8593 46.363 40.6855 46.0657 40.4377 45.8378C40.1899 45.61 39.8796 45.4621 39.547 45.4134C38.9312 45.3728 38.5548 45.8792 38.7064 46.5443C38.7837 46.8725 38.9574 47.1698 39.2052 47.3977C39.453 47.6256 39.7634 47.7734 40.096 47.8221C40.7118 47.8627 41.0882 47.3564 40.9366 46.6912Z" fill="#5E425B"/>
<path d="M41.2746 43.7676L41.6968 46.5815C41.6968 46.5815 39.9656 47.9677 40.564 48.7481C41.1528 49.516 43.12 48.6589 43.1923 47.3463C43.2645 46.0342 43.6669 44.9898 41.2746 43.7676Z" fill="#FFBB83"/>
<path d="M35.7068 44.7205C38.7687 46.2573 40.6703 45.3849 40.7979 46.6969C40.925 48.0026 39.9749 47.3142 39.3292 47.368C39.1607 47.3749 39.0011 47.446 38.8829 47.5667C38.7648 47.6875 38.697 47.8488 38.6932 48.018C38.6895 48.1871 38.7501 48.3514 38.8627 48.4773C38.9754 48.6032 39.1317 48.6813 39.2997 48.6957C40.265 48.9352 41.9731 48.6745 42.3654 47.7274C42.5612 47.1331 42.6109 46.5001 42.51 45.8824C42.4092 45.2647 42.161 44.6806 41.7865 44.1799C40.9811 43.291 37.3065 41.9263 37.3065 41.9263L35.7068 44.7205Z" fill="#FFBB83"/>
<path d="M37.5029 44.792C38.4908 46.5993 38.4983 48.7813 39.0812 49.0017C39.6642 49.2221 40.2016 49.0017 40.0909 48.4506C39.9802 47.8996 39.9721 45.6075 39.447 44.9242C38.9219 44.241 37.5029 44.792 37.5029 44.792Z" fill="#FFBB83"/>
<path d="M10.6263 14.3389L12.2937 14.7527L12.767 15.8769L11.1374 15.517L10.6263 14.3389Z" fill="#9B4031"/>
<path d="M92.7698 84.7588H88.9561V88.9742H90.3137L92.7698 84.7588Z" fill="#5E425B"/>
<path d="M85.7241 84.7588H81.9104V88.9742H83.2681L85.7241 84.7588Z" fill="#5E425B"/>
<path d="M55.4088 84.7588H51.5951V88.9742H52.9523L55.4088 84.7588Z" fill="#5E425B"/>
<path d="M49.7849 84.7588H45.9712V88.9742H47.3289L49.7849 84.7588Z" fill="#5E425B"/>
<path d="M82.4518 91.6857C83.6835 91.6857 84.6819 90.684 84.6819 89.4483C84.6819 88.2126 83.6835 87.2109 82.4518 87.2109C81.2202 87.2109 80.2218 88.2126 80.2218 89.4483C80.2218 90.684 81.2202 91.6857 82.4518 91.6857Z" fill="#7A6479"/>
<path d="M89.6778 91.6857C90.9094 91.6857 91.9078 90.684 91.9078 89.4483C91.9078 88.2126 90.9094 87.2109 89.6778 87.2109C88.4462 87.2109 87.4478 88.2126 87.4478 89.4483C87.4478 90.684 88.4462 91.6857 89.6778 91.6857Z" fill="#5E425B"/>
<path d="M46.1955 91.6857C47.4271 91.6857 48.4255 90.684 48.4255 89.4483C48.4255 88.2126 47.4271 87.2109 46.1955 87.2109C44.9639 87.2109 43.9655 88.2126 43.9655 89.4483C43.9655 90.684 44.9639 91.6857 46.1955 91.6857Z" fill="#7A6479"/>
<path d="M52.0776 91.6857C53.3092 91.6857 54.3076 90.684 54.3076 89.4483C54.3076 88.2126 53.3092 87.2109 52.0776 87.2109C50.846 87.2109 49.8475 88.2126 49.8475 89.4483C49.8475 90.684 50.846 91.6857 52.0776 91.6857Z" fill="#5E425B"/>
<path d="M47.1724 85.6017H46.2936L37.9294 48.2476H38.4867L47.1724 85.6017Z" fill="#5E425B"/>
<path d="M37.9502 41.575L36.0108 40.2119L33.2087 45.7436L35.1236 46.6105L37.9502 41.575Z" fill="#FCE7CA"/>
<path d="M7.15575 32.2471C14.6843 38.8667 34.0455 46.6906 34.0455 46.6906L37.0198 40.5154C37.0198 40.5154 14.4181 18.085 11.468 16C10.0199 14.9765 5.16094 15.7123 3.54184 19.1223C1.85778 22.669 3.16599 28.7389 7.15575 32.2471Z" fill="#5E425B"/>
<path d="M16.0005 21.9182C14.2037 19.6169 11.1573 18.5018 11.1309 15.8205C9.38119 15.0892 5.05248 15.9414 3.54185 19.123C1.85779 22.6697 3.16595 28.7396 7.15576 32.2477C14.6843 38.8674 34.0455 46.6913 34.0455 46.6913L36.2722 42.0682C32.1162 39.3101 21.1658 28.534 16.0005 21.9182Z" fill="#543A52"/>
<path d="M10.2261 49.4146L32.3323 90.4002L32.7632 90.141L24.9972 38.6572L10.2261 49.4146Z" fill="#493247"/>
<path d="M16.345 43.7515L9.62274 49.7178L32.3324 90.4007L32.5271 90.2838L22.249 49.7609L16.345 43.7515Z" fill="#3D283C"/>
<path d="M8.9981 66.9896L2.21075 88.6283L2.72788 88.7579L17.7243 66.6651L22.5073 48.7661L25.4809 44.3562L24.9638 38.2603L8.50029 45.2212L8.9981 66.9896Z" fill="#493247"/>
<path d="M2.41818 88.6798L12.8764 67.4435L16.559 41.814L6.86497 45.9126L8.28675 66.7946L2.21075 88.6282L2.41818 88.6798Z" fill="#3D283C"/>
<path d="M12.5531 57.9106C20.1159 53.2413 21.8611 41.3735 21.8611 41.3735L10.2908 44.5512L12.5531 57.9106Z" fill="#3D283C"/>
<path d="M22.141 51.5112L19.4695 50.4306L22.2272 49.9547L24.8337 46.1924L22.141 51.5112Z" fill="#3D283C"/>
<path d="M23.5256 30.231C22.5492 25.1735 18.7939 17.7984 11.8744 14.9463L23.8034 40.8284C23.8034 40.8284 24.4967 35.2611 23.5256 30.231Z" fill="#9B4031"/>
<path d="M7.10308 49.4117L25.558 42.2036C25.558 42.2036 23.9741 18.1101 10.5057 14.9097C4.92282 13.5831 1.11002 15.6338 1.12916 22.7445C1.15618 32.7881 7.10308 49.4117 7.10308 49.4117Z" fill="#FCE7CA"/>
<path d="M3.9306 15.0794L4.17206 9.04913L4.90411 7.34814L10.0939 11.9958L10.9263 15.0183C8.61905 14.5146 6.22873 14.5355 3.9306 15.0794Z" fill="#ED7656"/>
<path d="M3.37439 15.4975L3.8458 13.3799L10.7344 13.8422L11.5657 15.212C9.69632 15.9583 6.51656 15.7136 3.37439 15.4975Z" fill="#EDD2B2"/>
<path d="M7.24319 56.5258C12.9193 57.9495 24.4946 41.7957 24.3173 34.2392C24.1401 26.6828 9.60121 14.6386 6.16271 14.6465C2.72421 14.6543 -0.908786 17.588 0.204729 24.1614C1.56097 32.1676 5.82543 56.1702 7.24319 56.5258Z" fill="#5E425B"/>
<path d="M12.0736 26.8184C8.50634 22.6058 6.00699 18.2446 4.94999 14.7754C1.93576 15.3982 -0.777854 18.3609 0.204703 24.1613C1.01986 28.9735 2.8856 39.5632 4.55246 47.3251C6.75606 44.3159 12.2162 43.3823 17.7051 45.3132C18.4038 45.5593 19.0871 45.8474 19.7513 46.176C21.8799 42.8518 23.5316 39.294 24.1009 36.4041C20.6317 35.0904 16.1446 31.6259 12.0736 26.8184Z" fill="#543A52"/>
<path d="M4.45172 3.88929C3.85124 5.81716 5.22738 12.2983 5.87377 12.7523C6.52017 13.2062 10.7432 13.4548 11.1311 12.936C11.5189 12.4172 9.2781 3.6083 8.50244 3.15431C7.72679 2.70032 4.77492 2.85167 4.45172 3.88929Z" fill="#FFBB83"/>
<path d="M5.35667 91.9997H3.15893L1.26288 88.4113C1.26288 88.4113 2.55567 87.071 3.20202 87.7627C3.84836 88.4545 3.76223 91.0918 3.76223 91.0918L5.35667 91.9997Z" fill="#CCBFA3"/>
<path d="M32.2895 91.6977H35.1336L38.7534 89.4062L34.5734 90.2277C34.5734 90.2277 33.4529 89.6224 32.548 89.8818C31.6431 90.1412 32.2895 91.6977 32.2895 91.6977Z" fill="#CCBFA3"/>
<path d="M67.3668 36.0552L64.2642 37.0063C66.7635 43.1456 74.434 42.9726 74.434 42.9726L75.2958 38.6493C75.2958 38.6493 70.2109 38.6492 67.3668 36.0552Z" fill="#AAA743"/>
<path d="M91.8433 51.9651L95.9138 53.7392C99.125 47.9428 94.1929 42.0464 94.1929 42.0464L90.1196 43.2319C90.1196 43.2319 93.9117 47.7282 91.8433 51.9651Z" fill="#AAA743"/>
<path d="M25.5685 68.4174L25.0655 71.1393C31.6678 71.4582 34.75 64.409 34.75 64.409L31.2074 61.7998C31.2074 61.7998 29.1131 66.9259 25.5685 68.4174Z" fill="#AAA743"/>
<path d="M3.53373 65.344L1.4691 63.5073C-2.20916 69.0169 2.21971 75.3028 2.21971 75.3028L6.27501 73.6045C6.27501 73.6045 2.97859 69.1598 3.53373 65.344Z" fill="#AAA743"/>
<path d="M47.6216 41.25L47.4514 43.8104C53.9882 43.6752 56.1806 36.9282 56.1806 36.9282L52.3823 34.7368C52.3823 34.7368 50.9326 39.6336 47.6216 41.25Z" fill="#AAA743"/>
<path d="M90.269 66.5831L46.2845 65.585C46.8955 67.6694 47.0765 69.857 46.8164 72.014L90.862 72.6689C90.2538 70.3629 89.9551 68.2678 90.269 66.5831Z" fill="#AAA743"/>
<path d="M87.205 55.1983L46.9564 53.7007C47.68 55.7403 47.8627 57.9336 47.4865 60.0655L87.791 61.253C87.291 59.2762 87.0934 57.2347 87.205 55.1983Z" fill="#AAA743"/>
<path d="M87.214 49.8248L45.562 47.9878C46.2985 50.223 46.5841 52.2846 46.082 54.0365L87.7874 55.5696C87.2497 53.7056 87.0554 51.7588 87.214 49.8248Z" fill="#9B963A"/>
<path d="M89.0735 60.9409L46.4249 59.665C47.0746 61.7316 47.2559 63.9177 46.9556 66.0636L89.6635 67.0086C88.8355 65.0987 88.6291 62.9754 89.0735 60.9409Z" fill="#AAA743"/>
<path d="M90.5117 72.3988L48.2395 71.7559C48.8575 73.8442 49.0401 76.0379 48.7757 78.2001L91.1066 78.5108C90.3463 76.5685 90.1402 74.452 90.5117 72.3988Z" fill="#AAA743"/>
<path d="M92.451 78.1666L47.6589 77.8174C48.3933 79.5558 48.447 81.8087 48.1957 84.2965L93.0499 84.2914C92.2813 82.3467 92.0738 80.2242 92.451 78.1666Z" fill="#AAA743"/>
<path d="M84.1025 66.6049L45.8143 65.5864C46.3393 67.6863 46.4874 69.8631 46.2516 72.0151L84.5932 72.6835C84.0738 70.3801 83.8225 68.2874 84.1025 66.6049Z" fill="#9B963A"/>
<path d="M81.4845 55.2318L46.4484 53.7041C47.072 55.7652 47.2211 57.9414 46.8844 60.0687L81.9693 61.2802C81.5417 59.2945 81.3787 57.2606 81.4845 55.2318Z" fill="#9B963A"/>
<path d="M83.0859 60.9691L45.9607 59.6675C46.5197 61.7515 46.6679 63.9249 46.3971 66.0658L83.574 67.0301C82.8593 65.0931 82.6905 62.996 83.0859 60.9691Z" fill="#9B963A"/>
<path d="M84.2897 72.414L47.4929 71.7578C48.0241 73.8617 48.1734 76.0443 47.9339 78.2012L84.7819 78.5187C84.1269 76.554 83.958 74.4588 84.2897 72.414Z" fill="#9B963A"/>
<path d="M85.9522 78.1752L46.9622 77.8184C47.5951 79.5566 47.6327 81.8092 47.4035 84.2965L86.4479 84.2922C85.7855 82.3247 85.6152 80.2241 85.9522 78.1752Z" fill="#9B963A"/>
<path d="M82.2941 78.3892L79.8032 78.4582L80.079 84.2931L83.2945 84.2595L82.2941 78.3892Z" fill="#A8A042"/>
<path d="M81.859 72.8018L79.3771 72.8689L79.6533 78.2994L82.856 78.2644L81.859 72.8018Z" fill="#A8A042"/>
<path d="M80.3614 66.6108L77.8903 66.6893L78.1533 72.8652L81.3429 72.8226L80.3614 66.6108Z" fill="#A8A042"/>
<path d="M72.2474 78.5654L69.7635 78.6326L69.8441 84.3265L73.0474 84.2939L72.2474 78.5654Z" fill="#A8A042"/>
<path d="M73.0493 72.8989L70.574 72.9684L70.6569 78.6226L73.8498 78.5867L73.0493 72.8989Z" fill="#A8A042"/>
<path d="M69.4609 66.5752L66.7861 66.6532L66.8611 72.7511L70.3118 72.708L69.4609 66.5752Z" fill="#A8A042"/>
<path d="M59.6439 66.2666L56.9795 66.3451L57.0167 72.4283L60.2355 72.6047L59.6439 66.2666Z" fill="#A8A042"/>
<path d="M51.0957 65.9116L48.4408 65.9897L48.4446 72.0601L51.6511 72.2355L51.0957 65.9116Z" fill="#A8A042"/>
<path d="M53.0173 60.0929L50.1601 59.9741L49.608 65.826L52.7863 65.9911L53.0173 60.0929Z" fill="#A8A042"/>
<path d="M62.7641 60.6426L59.8937 60.5234L59.3756 66.3909L62.5685 66.5565L62.7641 60.6426Z" fill="#A8A042"/>
<path d="M72.2687 60.8092L69.3809 60.6914L69.1456 66.487L72.3597 66.6507L72.2687 60.8092Z" fill="#A8A042"/>
<path d="M69.8141 54.8185L66.9347 54.7036L66.9371 60.5342L70.1436 60.695L69.8141 54.8185Z" fill="#A8A042"/>
<path d="M69.3507 49.0745L66.4827 48.9639L66.4836 54.751L69.6774 54.907L69.3507 49.0745Z" fill="#A8A042"/>
<path d="M60.1954 54.4948L57.3283 54.3799L57.2953 60.1968L60.4877 60.3571L60.1954 54.4948Z" fill="#A8A042"/>
<path d="M60.401 48.6751L57.5443 48.5649L57.5122 54.3388L60.6928 54.4939L60.401 48.6751Z" fill="#A8A042"/>
<path d="M51.4541 54.2866L48.5978 54.1797L48.5417 59.658L51.7214 59.8079L51.4541 54.2866Z" fill="#A8A042"/>
<path d="M51.3212 48.2362L48.4767 48.126L48.4111 53.8861L51.5781 54.0408L51.3212 48.2362Z" fill="#A8A042"/>
<path d="M80.4151 61.0528L78.3951 60.9482L78.2344 66.7358L80.7352 66.681L80.4151 61.0528Z" fill="#A8A042"/>
<path d="M78.7619 55.299L76.7509 55.1978L76.5845 60.9413L79.0749 60.8841L78.7619 55.299Z" fill="#A8A042"/>
<path d="M77.6729 49.463L75.6699 49.3618L75.4993 55.2085L77.9793 55.1475L77.6729 49.463Z" fill="#A8A042"/>
<path d="M62.7768 78.4468L60.8992 78.514L60.5211 84.2623L62.9385 84.2292L62.7768 78.4468Z" fill="#A8A042"/>
<path d="M62.5152 72.7505L60.8935 72.8186L60.5518 78.5258L62.6391 78.4908L62.5152 72.7505Z" fill="#A8A042"/>
<path d="M53.0823 72.2832L50.6428 72.2524L50.1506 77.9298L53.2912 78.0239L53.0823 72.2832Z" fill="#A8A042"/>
<path d="M53.2553 78.0669L51.3852 78.1378L50.9642 84.2522L53.3727 84.2172L53.2553 78.0669Z" fill="#A8A042"/>
<path d="M77.3999 84.6902C76.6016 83.5002 76.3293 78.561 76.3293 78.561L75.9416 78.5798C76.2756 80.6026 75.8788 84.4587 75.8788 84.4587L77.3999 84.6902Z" fill="#827B2B"/>
<path d="M88.9891 72.8465C88.5431 71.611 88.2466 66.8008 88.2466 66.8008L88.0614 66.8204C88.3283 68.9223 88.3407 72.9305 88.3407 72.9305L88.9891 72.8465Z" fill="#9B963A"/>
<path d="M88.1807 66.6708C87.7376 65.5087 87.4463 60.9814 87.4463 60.9814L87.2617 61.0002C87.5258 62.9784 87.7609 66.7227 87.7609 66.7227L88.1807 66.6708Z" fill="#9B963A"/>
<path d="M86.6274 60.94C86.1429 59.8421 85.6844 55.5625 85.6844 55.5625L85.5013 55.5804C85.838 57.4504 86.2248 60.988 86.2248 60.988L86.6274 60.94Z" fill="#9B963A"/>
<path d="M84.2483 60.9689C83.824 59.8518 83.5983 55.4976 83.5983 55.4976L83.4144 55.5158C83.6492 57.4183 83.8706 61.0144 83.8706 61.0144L84.2483 60.9689Z" fill="#9B963A"/>
<path d="M85.3841 66.9054C85.0077 65.7062 84.9746 61.0352 84.9746 61.0352L84.7892 61.0544C84.9404 63.0955 84.9267 66.9633 84.9267 66.9633L85.3841 66.9054Z" fill="#9B963A"/>
<path d="M86.8095 72.6586C86.4305 71.45 86.393 66.7437 86.393 66.7437L86.2068 66.7629C86.3605 68.8195 86.1573 72.7408 86.1573 72.7408L86.8095 72.6586Z" fill="#9B963A"/>
<path d="M89.2522 78.2329C88.8432 77.1271 88.6956 72.8213 88.6956 72.8213L88.509 72.8387C88.6308 74.659 88.6609 76.4842 88.599 78.3075L89.2522 78.2329Z" fill="#9B963A"/>
<path d="M86.9166 78.3671C86.5095 77.2617 86.3684 72.957 86.3684 72.957L86.1819 72.9745C86.301 74.7943 86.3283 76.619 86.2638 78.4416L86.9166 78.3671Z" fill="#9B963A"/>
<path d="M91.4643 84.3562C90.9558 83.1611 90.3182 78.2012 90.3182 78.2012L90.1323 78.2198C90.5012 80.2512 90.7039 84.1238 90.7039 84.1238L91.4643 84.3562Z" fill="#9B963A"/>
<path d="M88.983 84.4812C88.4769 83.2865 87.8474 78.3281 87.8474 78.3281L87.6617 78.3467C88.0272 80.3775 88.2237 84.2488 88.2237 84.2488L88.983 84.4812Z" fill="#9B963A"/>
<path d="M67.6099 84.6468C66.8219 83.4592 66.5809 78.5298 66.5809 78.5298L66.1946 78.5485C66.5149 80.5674 66.0961 84.4158 66.0961 84.4158L67.6099 84.6468Z" fill="#827B2B"/>
<path d="M77.0664 78.5383C76.3331 77.4757 76.6229 72.8438 76.6229 72.8438L76.2365 72.8628C76.5697 74.8709 76.1133 78.5827 76.1133 78.5827L77.0664 78.5383Z" fill="#827B2B"/>
<path d="M75.7027 72.9737C74.8883 71.7702 74.8108 66.5244 74.8108 66.5244L74.4277 66.5464C74.9181 68.8196 74.7569 73.0248 74.7569 73.0248L75.7027 72.9737Z" fill="#827B2B"/>
<path d="M76.4566 66.5709C75.659 65.5131 75.6414 60.895 75.6414 60.895L75.2594 60.9149C75.7222 62.9159 75.5137 66.6173 75.5137 66.6173L76.4566 66.5709Z" fill="#827B2B"/>
<path d="M74.1793 60.7988C73.4816 59.7227 73.8834 55.021 73.8834 55.021L73.5014 55.0416C73.7803 57.0783 73.2367 60.847 73.2367 60.847L74.1793 60.7988Z" fill="#827B2B"/>
<path d="M64.2527 60.5452C63.6126 59.4163 64.2511 54.4849 64.2511 54.4849L63.8698 54.5065C64.0441 56.6426 63.3118 60.5956 63.3118 60.5956L64.2527 60.5452Z" fill="#827B2B"/>
<path d="M54.9649 59.9705C54.333 58.8883 54.9934 54.1592 54.9934 54.1592L54.6135 54.18C54.7766 56.2286 54.0276 60.0191 54.0276 60.0191L54.9649 59.9705Z" fill="#827B2B"/>
<path d="M54.4754 54.1207C53.8463 53.0473 54.5057 48.353 54.5057 48.353L54.1272 48.3741C54.2889 50.4071 53.5417 54.17 53.5417 54.17L54.4754 54.1207Z" fill="#827B2B"/>
<path d="M63.7715 54.5304C63.1335 53.4544 63.7675 48.749 63.7675 48.749L63.3876 48.7701C63.5622 50.808 62.8345 54.5797 62.8345 54.5797L63.7715 54.5304Z" fill="#827B2B"/>
<path d="M72.6779 54.9393C72.0313 53.8608 72.6409 49.1445 72.6409 49.1445L72.2596 49.1657C72.4465 51.2083 71.7374 54.9886 71.7374 54.9886L72.6779 54.9393Z" fill="#827B2B"/>
<path d="M66.8624 66.603C66.1222 65.4914 66.3422 60.6396 66.3422 60.6396L65.9607 60.6605C66.3187 62.7627 65.9208 66.6515 65.9208 66.6515L66.8624 66.603Z" fill="#827B2B"/>
<path d="M57.1503 66.1775C56.5448 65.074 57.3367 60.2563 57.3367 60.2563L56.9544 60.2771C57.0626 62.3646 56.2073 66.2258 56.2073 66.2258L57.1503 66.1775Z" fill="#827B2B"/>
<path d="M63.9153 72.8961C63.1136 71.6955 63.1376 66.5669 63.1376 66.5669L62.7561 66.5888C63.2274 68.8568 63.0436 72.8587 63.0436 72.8587L63.9153 72.8961Z" fill="#827B2B"/>
<path d="M54.8753 72.3744C54.1298 71.2076 54.322 66.1206 54.322 66.1206L53.9411 66.1419C54.3106 68.3464 53.9351 72.4241 53.9351 72.4241L54.8753 72.3744Z" fill="#827B2B"/>
<path d="M67.6854 78.5175C66.9612 77.4567 67.277 72.8335 67.277 72.8335L66.892 72.8525C67.2121 74.8569 66.7356 78.5617 66.7356 78.5617L67.6854 78.5175Z" fill="#827B2B"/>
<path d="M57.6096 78.1697C56.895 77.1116 57.2388 72.4995 57.2388 72.4995L56.8552 72.5185C57.1614 74.518 56.6635 78.2139 56.6635 78.2139L57.6096 78.1697Z" fill="#827B2B"/>
<path d="M58.1048 84.8663C57.4367 83.5844 57.6826 78.2646 57.6826 78.2646L57.2959 78.2848C57.3244 80.4228 57.2461 82.561 57.0612 84.6911L58.1048 84.8663Z" fill="#827B2B"/>
<path d="M80.1564 49.5137C80.0581 51.4515 80.1839 53.3943 80.5315 55.3031L87.7874 55.5698C87.2497 53.7058 87.0554 51.759 87.214 49.825L80.1564 49.5137Z" fill="#AAA743"/>
<path d="M90.8053 72.6682L79.9803 72.6001L83.2199 73.4628L90.8053 72.6682Z" fill="#9B963A"/>
<path d="M91.0571 78.1769L83.1699 78.0928L84.6968 79.165L91.0571 78.1769Z" fill="#9B963A"/>
<path d="M89.6641 66.5952L80.8219 66.5337L82.5327 67.586L89.6641 66.5952Z" fill="#9B963A"/>
<path d="M88.1357 60.9383L79.3303 60.8872L81.7571 61.4543L88.1357 60.9383Z" fill="#9B963A"/>
<path d="M87.2364 55.5763L78.3182 55.1743L80.0422 56.2772L87.2364 55.5763Z" fill="#9B963A"/>
<path d="M79.4728 57.5937L86.353 57.3647L79.7047 57.8694L79.4728 57.5937Z" fill="#9B963A"/>
<path d="M79.4166 52.9375L86.6249 53.1147L79.6594 53.2246L79.4166 52.9375Z" fill="#9B963A"/>
<path d="M79.8584 58.958L86.7169 59.5464L80.0559 59.2607L79.8584 58.958Z" fill="#9B963A"/>
<path d="M82.5468 70.9644L89.4807 71.3877L82.7546 71.2666L82.5468 70.9644Z" fill="#9B963A"/>
<path d="M82.0542 63.5801L88.1302 63.967L82.2579 63.8795L82.0542 63.5801Z" fill="#9B963A"/>
<path d="M83.2859 77.1191L90.2618 76.9365L83.5202 77.4043L83.2859 77.1191Z" fill="#9B963A"/>
<path d="M84.6167 81.9336L87.5705 82.0279L84.727 82.2287L84.6167 81.9336Z" fill="#9B963A"/>
<path d="M79.9734 55.3141L61.216 54.6605L46.0819 54.0366L61.2905 54.1099L79.9734 55.3141Z" fill="#827B2B"/>
<path d="M63.4062 60.4284L45.8359 59.6206L63.3148 60.7704L82.0589 61.0244L63.4062 60.4284Z" fill="#827B2B"/>
<path d="M67.8454 66.409L46.2874 65.6948L61.5045 66.7183L83.401 66.6762L67.8454 66.409Z" fill="#827B2B"/>
<path d="M68.8764 72.6578L46.1649 72.0117L62.1956 72.9912L76.724 73.0962L85.4295 72.7495L68.8764 72.6578Z" fill="#827B2B"/>
<path d="M69.4624 78.3256L46.9177 77.8574L62.8315 78.7154L77.2505 78.7045L85.8891 78.2855L69.4624 78.3256Z" fill="#827B2B"/>
<path d="M82.3433 49.6087C82.6704 51.7108 82.8079 55.6805 82.8079 55.6805L83.4452 55.5946C82.9897 54.4238 82.5667 50.0363 82.5261 49.6074L82.3433 49.6087Z" fill="#9B963A"/>
<path d="M84.84 49.7195C85.1371 51.7953 85.4319 55.5861 85.4319 55.5861L85.8569 55.6303C85.4178 54.4743 85.0574 50.1419 85.023 49.7183L84.84 49.7195Z" fill="#9B963A"/>
<path d="M93.4809 83.9585H82.7078V85.6014H93.4809V83.9585Z" fill="#6D4D6B"/>
<path d="M82.1071 91.0274C82.9764 91.0274 83.6811 90.3204 83.6811 89.4483C83.6811 88.5761 82.9764 87.8691 82.1071 87.8691C81.2379 87.8691 80.5332 88.5761 80.5332 89.4483C80.5332 90.3204 81.2379 91.0274 82.1071 91.0274Z" fill="#C9ADC1"/>
<path d="M45.6372 91.0274C46.5064 91.0274 47.2111 90.3204 47.2111 89.4483C47.2111 88.5761 46.5064 87.8691 45.6372 87.8691C44.7679 87.8691 44.0632 88.5761 44.0632 89.4483C44.0632 90.3204 44.7679 91.0274 45.6372 91.0274Z" fill="#C9ADC1"/>
<path d="M83.311 83.9585H44.0968V85.6014H83.311V83.9585Z" fill="#5E425B"/>
<path d="M94.7525 49.1245C95.4022 48.9292 95.7359 48.1243 95.4977 47.3266C95.2595 46.5289 94.5397 46.0405 93.89 46.2358C93.2402 46.4311 92.9066 47.236 93.1448 48.0337C93.3829 48.8314 94.1028 49.3198 94.7525 49.1245Z" fill="#C1BB4D"/>
<path d="M69.8116 40.9619C70.4614 40.7666 70.7951 39.9616 70.5569 39.1639C70.3187 38.3662 69.5988 37.8779 68.9491 38.0732C68.2993 38.2684 67.9657 39.0734 68.2039 39.8711C68.4421 40.6689 69.1619 41.1572 69.8116 40.9619Z" fill="#C1BB4D"/>
<path d="M52.7619 39.9847C52.9675 39.1778 52.6087 38.496 51.9605 38.4618C51.3123 38.4276 50.6202 39.054 50.4145 39.8609C50.2089 40.6677 50.5677 41.3496 51.2159 41.3838C51.8641 41.4179 52.5562 40.7916 52.7619 39.9847Z" fill="#C1BB4D"/>
<path d="M31.108 67.4173C31.3136 66.6104 30.9548 65.9286 30.3066 65.8944C29.6584 65.8602 28.9662 66.4866 28.7606 67.2935C28.555 68.1004 28.9138 68.7822 29.562 68.8164C30.2102 68.8506 30.9023 68.2241 31.108 67.4173Z" fill="#C1BB4D"/>
<path d="M3.30617 69.4594C3.06755 68.6618 2.40964 68.2633 1.83673 68.5694C1.26383 68.8756 0.992873 69.7704 1.23155 70.5681C1.47022 71.3658 2.12807 71.7642 2.70097 71.4581C3.27388 71.1519 3.54485 70.2571 3.30617 69.4594Z" fill="#C1BB4D"/>
<path d="M4.11381 11.0862L4.80626 9.38655L6.11154 8.69202C6.11154 8.69202 6.19695 4.25664 5.35667 3.93242C4.51638 3.60821 6.14322 2.77452 7.27385 2.95704C8.40448 3.13955 9.19188 2.57054 8.54552 1.55453C7.89917 0.538527 2.51253 0.797934 2.85727 3.34873C2.85727 3.34873 0.436257 2.9351 4.11381 11.0862Z" fill="#773525"/>
<path d="M5.2921 9.37225C5.71084 9.14517 5.77048 8.44172 5.42533 7.80105C5.08017 7.16039 4.46092 6.82514 4.04218 7.05222C3.62344 7.2793 3.56379 7.98272 3.90895 8.62338C4.25411 9.26405 4.87336 9.59933 5.2921 9.37225Z" fill="#FFBB83"/>
<path d="M5.11766 9.11518C5.40481 8.95945 5.44579 8.47727 5.20922 8.03819C4.97264 7.59912 4.54808 7.36943 4.26094 7.52516C3.9738 7.68089 3.93281 8.16307 4.16939 8.60214C4.40597 9.04122 4.83052 9.27091 5.11766 9.11518Z" fill="#ED7656"/>
<path d="M5.26297 9.16787C5.45975 9.06114 5.48781 8.7307 5.32568 8.42981C5.16354 8.12891 4.87259 7.9715 4.67582 8.07823C4.47904 8.18496 4.45096 8.51541 4.6131 8.8163C4.77523 9.1172 5.0662 9.2746 5.26297 9.16787Z" fill="#FFBB83"/>
<path d="M37.202 47.4254C36.56 48.3915 36.4909 49.5872 37.202 49.7169C37.913 49.8465 38.6886 47.9875 38.4732 47.5119C38.2578 47.0364 37.7191 46.6472 37.202 47.4254Z" fill="#ED7656"/>
<path d="M38.9381 48.7468C38.8348 48.0916 38.4111 47.5605 37.9916 47.5605C37.5722 47.5605 37.3158 48.0916 37.419 48.7468C37.5223 49.402 37.946 49.9331 38.3655 49.9331C38.785 49.9331 39.0413 49.4019 38.9381 48.7468Z" fill="#5E425B"/>
<path d="M8.2175 6.54452C8.16418 6.16554 7.943 5.88862 7.72186 5.92452C7.49931 5.96065 7.35972 6.29987 7.41158 6.68372C7.46376 7.06961 7.68891 7.35035 7.91292 7.3093C8.13543 7.26853 8.27109 6.92544 8.2175 6.54452Z" fill="#604748"/>
<path d="M7.93116 4.44516L6.47267 4.65722C6.44353 4.6608 6.41547 4.67054 6.39035 4.68577C6.36522 4.701 6.34359 4.7214 6.32688 4.74561C6.31016 4.76982 6.29874 4.79731 6.29337 4.82627C6.288 4.85522 6.2888 4.88499 6.2957 4.91362L6.40143 5.38063C6.41613 5.44136 6.45291 5.49437 6.50455 5.52932C6.55619 5.56427 6.61897 5.57863 6.68061 5.56956L8.14177 5.33707C8.1699 5.33281 8.19682 5.32265 8.22077 5.30725C8.24471 5.29184 8.26514 5.27151 8.28073 5.24764C8.29632 5.22376 8.3067 5.19686 8.31121 5.16869C8.31573 5.14051 8.31426 5.1117 8.30691 5.08413L8.19943 4.63069C8.18501 4.57223 8.14976 4.52111 8.10034 4.48693C8.05092 4.45275 7.99074 4.43789 7.93116 4.44516Z" fill="#662828"/>
<path d="M9.68594 6.34783C9.64483 6.05932 9.51793 5.85708 9.40197 5.89525C9.28553 5.93351 9.22357 6.19954 9.26416 6.49031C9.30484 6.78222 9.43317 6.98672 9.55013 6.9461C9.66666 6.90566 9.72723 6.63742 9.68594 6.34783Z" fill="#604748"/>
<path d="M9.58365 4.24503L8.95312 4.33192C8.89953 4.3393 8.87445 4.44175 8.89718 4.56084L8.98311 5.01174C9.00602 5.13173 9.06821 5.22258 9.12195 5.21445L9.75424 5.11872C9.80689 5.11073 9.83066 5.00819 9.80747 4.88981L9.7203 4.44482C9.69725 4.3272 9.63611 4.23785 9.58365 4.24503Z" fill="#662828"/>
<path d="M8.8244 6.80029C9.86414 7.65862 10.43 8.26945 10.3402 8.72737C10.3001 8.85631 10.2255 8.97176 10.1246 9.06116C10.0237 9.15055 9.90024 9.21047 9.76774 9.23442L9.77759 9.25916C9.77759 9.25916 10.6408 9.2009 10.7649 8.74024C10.8863 8.28951 10.1495 7.68888 8.8244 6.80029Z" fill="#ED7656"/>
<path d="M10.208 9.95361L8.11419 10.2388C8.11419 10.2388 7.89176 11.7687 9.28774 11.6973C10.3107 11.645 10.208 9.95361 10.208 9.95361Z" fill="#422931"/>
<path d="M10.0242 10.689C10.0675 10.4859 10.0874 10.2785 10.0835 10.0708L8.39006 10.3357C8.37469 10.5836 8.4291 10.8309 8.54709 11.0494L10.0242 10.689Z" fill="#FFEFDC"/>
<path d="M39.0563 45.855L39.4396 48.5893C39.4396 48.5893 37.6232 49.9354 38.215 50.6953C38.8068 51.4553 40.9272 50.6526 41.0337 49.3393C41.1402 48.0259 41.6065 46.9693 39.0563 45.855Z" fill="#FFBB83"/>
<path d="M33.3022 47.7607C36.1786 49.0578 38.3763 47.4689 38.5056 48.7335C38.6348 49.9981 37.6653 49.3496 37.0189 49.4144C36.8554 49.4159 36.6988 49.481 36.5823 49.5961C36.4657 49.7111 36.3981 49.867 36.3939 50.0311C36.3897 50.1951 36.4492 50.3543 36.5598 50.4752C36.6703 50.5961 36.8233 50.6692 36.9866 50.679C37.9562 50.906 39.7338 50.6466 40.1539 49.7062C40.5741 48.7659 40.3801 47.0474 39.5398 46.2367C38.6995 45.4261 35.0798 44.4209 35.0798 44.4209L33.3022 47.7607Z" fill="#FFBB83"/>
<path d="M35.735 44.3616L33.7546 43.0591L31.1237 48.675L33.064 49.4823L35.735 44.3616Z" fill="#FCE7CA"/>
<path d="M5.55959 34.7461C12.9172 41.3642 31.699 49.5922 31.699 49.5922L34.8889 43.1026C34.8889 43.1026 12.828 20.4486 9.90395 18.3151C8.46649 17.2662 3.62658 18.0202 2.01531 21.5001C0.348926 25.099 1.64039 31.2207 5.55959 34.7461Z" fill="#5E425B"/>
<path d="M7.90944 28.3844C5.48624 25.9659 4.0338 22.738 3.82849 19.3149C3.05055 19.8787 2.42693 20.6302 2.01532 21.4999C0.348937 25.0988 1.91143 30.8439 5.83067 34.3693C13.1883 40.9874 31.699 49.592 31.699 49.592L34.0387 44.8321C29.2438 42.3655 14.0856 34.3402 7.90944 28.3844Z" fill="#543A52"/>
<path d="M31.6539 44.2913C31.993 44.2913 32.2679 44.0154 32.2679 43.6752C32.2679 43.3349 31.993 43.0591 31.6539 43.0591C31.3147 43.0591 31.0398 43.3349 31.0398 43.6752C31.0398 44.0154 31.3147 44.2913 31.6539 44.2913Z" fill="#FCE7CA"/>
<path d="M29.7793 43.3186C30.1185 43.3186 30.3934 43.0428 30.3934 42.7025C30.3934 42.3623 30.1185 42.0864 29.7793 42.0864C29.4402 42.0864 29.1653 42.3623 29.1653 42.7025C29.1653 43.0428 29.4402 43.3186 29.7793 43.3186Z" fill="#FCE7CA"/>
</svg>
