<svg xmlns="http://www.w3.org/2000/svg" xmlns:xlink="http://www.w3.org/1999/xlink" width="165" height="92" fill="none" xmlns:v="https://vecta.io/nano"><style><![CDATA[.B{opacity:.42}.C{fill:#5f0}.D{fill:#b11e7e}.E{opacity:.2}.F{fill:#f9c142}.G{fill:#ffe158}.H{fill:#f5ac33}.I{opacity:.73}.J{fill:#fee980}.K{fill:#fff2bb}.L{opacity:.3}.M{fill:#ffd454}.N{opacity:.4}.O{opacity:.08}.P{fill:#a9d275}.Q{fill:#67a34c}.R{fill:#fdb743}.S{fill:#f29828}.T{opacity:.66}.U{fill:#ffd112}]]></style><circle cx="43" cy="51" r="37" fill="#001e20" style="mix-blend-mode:multiply" opacity=".7"/><path d="M52.488 60.528v5.185c-.748-.076-1.476-.282-2.153-.6v-3.966a6.48 6.48 0 0 1 2.153-.609zm3.346.176v4.834a7.86 7.86 0 0 1-.929.174l-.638.057v-5.296l.638.06c.313.04.623.097.93.172z" class="H"/><path d="M58.027 62.386c0 .965-1.318 1.778-3.122 2.034l-.523.057a7.71 7.71 0 0 1-.703.029h-.182a6.59 6.59 0 0 1-.682-.04l-.324-.038c-.426-.055-.847-.15-1.256-.284-1.15-.38-1.906-1.025-1.906-1.755 0-.97 1.333-1.784 3.158-2.038a8.09 8.09 0 0 1 .837-.069h.356c.4 0 .82.03 1.226.086l.117.02.628.126c.254.062.503.14.745.237.996.372 1.632.97 1.632 1.635z" class="F"/><path d="M55.022 60.373l-2.208 4.1-.324-.038a6.88 6.88 0 0 1-1.256-.284l2.093-3.863h.356a9.09 9.09 0 0 1 1.226.086l.113.008zm1.378.364l-2.017 3.74a7.71 7.71 0 0 1-.703.029h-.182l2.158-4.004a5.59 5.59 0 0 1 .745.233z" class="G"/><g class="H"><path d="M52.488 58.567v5.18c-.747-.077-1.476-.283-2.153-.61v-3.962c.677-.327 1.406-.533 2.153-.61z"/><use xlink:href="#V"/></g><path d="M58.027 60.425c0 .965-1.318 1.776-3.122 2.034l-.523.057a7.71 7.71 0 0 1-.703.029h-.182a6.56 6.56 0 0 1-.682-.04l-.324-.038c-.426-.055-.847-.15-1.256-.284-1.15-.383-1.906-1.026-1.906-1.755 0-.97 1.333-1.786 3.158-2.038l.837-.072h.356c.4 0 .82.03 1.226.086l.117.017.628.128a5.86 5.86 0 0 1 .749.227c.992.385 1.628.98 1.628 1.648z" class="F"/><path d="M55.022 58.4l-2.208 4.092-.324-.038a6.89 6.89 0 0 1-1.256-.284l2.093-3.865h.356a9.09 9.09 0 0 1 1.226.086l.113.008zm1.378.377l-2.017 3.743-.703.03h-.182l2.158-3.993a5.84 5.84 0 0 1 .745.221z" class="G"/><g class="H"><use xlink:href="#W"/><use xlink:href="#V" y="-1.961"/></g><path d="M58.027 58.464c0 .965-1.318 1.776-3.122 2.034l-.523.057a7.71 7.71 0 0 1-.703.029h-.182a6.58 6.58 0 0 1-.682-.04c-.11 0-.21-.023-.324-.038-.426-.055-.847-.15-1.256-.284-1.15-.383-1.906-1.026-1.906-1.755 0-.97 1.333-1.786 3.158-2.038l.837-.072h.356c.4 0 .82.03 1.226.086l.117.017.628.128c.253.062.502.14.745.235.996.376 1.632.97 1.632 1.64z" class="F"/><path d="M55.022 56.45l-2.208 4.092c-.1 0-.2-.023-.324-.038a6.88 6.88 0 0 1-1.256-.284l2.093-3.865h.356a9.09 9.09 0 0 1 1.226.086l.113.008zm1.378.363l-2.017 3.743-.703.03h-.182l2.158-4.004a6.05 6.05 0 0 1 .745.23z" class="G"/><path d="M69.73 61.27s-4.85-5.3-13.332-3.497v17.443l3.976.965 9.356-14.91z" fill="#7fae5b"/><path d="M60.463 75.778l-3.915-.952v-16.2l.163-.034c7.753-1.637 12.3 3.194 12.334 3.245l.107.116-8.69 13.826zm-3.507-1.276l3.32.805 8.37-13.303c-.718-.698-4.91-4.4-11.677-3.045l-.013 15.543z" fill="#507c39"/><path d="M65.368 57.427l-3.794-1.893-.337 5.24 4.13-3.348z" fill="#568f4c"/><path d="M65.368 57.427L58.665 76.91s-1.4-.227-2.024-.84a.84.84 0 0 1-.249-.383c-.046-.148-.05-.307-.012-.458v-17.44s3.384 1.522 8.988-.36z" class="P"/><path d="M63.803 58.953c-.027-.027-.06-.045-.098-.054s-.075-.008-.11.004c-3.792 1.288-6.368.748-7.203.498v.43c.956.27 3.382.706 6.93-.42l-5.73 15.65a4.03 4.03 0 0 1-1.209-.42v.467c.417.192.86.323 1.314.39a.21.21 0 0 0 .22-.13l5.935-16.208c.01-.035.01-.073.003-.108a.21.21 0 0 0-.051-.096z" class="Q"/><path d="M64.052 61.254L58.665 76.91s-1.4-.227-2.024-.84l1.74-15.802.705.2a19.44 19.44 0 0 0 4.966.776z" fill="#bcc6a5" style="mix-blend-mode:multiply"/><path d="M69.73 61.27l-2.85 5.424-.534 1.017-.693 1.314-4.46 8.5-.065.074c-1.465 1.68-4.085.42-4.085.42L58.9 61.065a20.84 20.84 0 0 0 10.821.206z" class="P"/><path d="M61.545 62.707c-.03-.008-.06-.01-.1-.005a.21.21 0 0 0-.083.032c-.025.016-.046.038-.062.063a.19.19 0 0 0-.028.084l-1.557 14.13c-.005.042.004.085.024.123a.21.21 0 0 0 .089.087 4.52 4.52 0 0 0 1.29.37l.065-.073.172-.324c-.418-.035-.828-.13-1.218-.286l1.513-13.736a18.07 18.07 0 0 0 6.812.5l.234-.443a17.38 17.38 0 0 1-7.163-.511zm6.033 2.66l-.697 1.328c-.936.097-1.882-.023-2.764-.35-.266-.103.123-.967.182-1.17a8.64 8.64 0 0 0 3.279.191zm-1.23 2.343l-.693 1.314a6.02 6.02 0 0 1-2.386-.383c-.268-.103.12-.967.18-1.168a8.59 8.59 0 0 0 2.898.237z" class="Q"/><path d="M63.99 79.4c-1.78-3.167-8.58-4.857-15.034-4.857s-13.253 1.68-15.034 4.857c-.292.507-.447 1.083-.448 1.67-.001.02-.001.04 0 .06.073 4.203 8.01 6.465 15.486 6.465s15.406-2.266 15.486-6.465c.001-.02.001-.04 0-.06-.004-.587-.16-1.162-.456-1.67z" fill="#fff" style="mix-blend-mode:screen" opacity=".28"/><path d="M40.055 71.875l-6.527 8.253s11.158 5.95 26.786 2.366L58.63 71.107s-8.942 4.483-18.574.767z" class="P"/><path d="M58.16 72.12l-.224.093a26.8 26.8 0 0 1-9.8 1.891c-2.65.01-5.282-.438-7.78-1.326l-.12-.042-5.623 7.1.3.128c2.08.88 7.743 2.927 15.354 2.927a44.4 44.4 0 0 0 9.132-.958l.21-.042-1.45-9.78zm-7.89 10.273c-7.205 0-12.642-1.847-14.914-2.772l5.006-6.33a23.33 23.33 0 0 0 7.776 1.303c3.318-.008 6.606-.624 9.704-1.818l1.28 8.71c-2.913.6-5.878.904-8.852.908z" class="Q"/><g fill="#3b8842"><path d="M43.58 77.953c.34-.92.895-1.743 1.616-2.404a6.13 6.13 0 0 1 2.532-1.396 2.24 2.24 0 0 1 1.167-.009 2.25 2.25 0 0 1 1.015.579c.5.494.965 1.307.948 2.642a5.72 5.72 0 0 1-.454 2.129c-.57 1.362-1.917 3.627-4.453 3.13-3.574-.704-2.37-4.67-2.37-4.67zm8.843-1.983v.77s2.683.128 4.526-.77v-.84s-2.735.942-4.526.84zm0 1.434v.767s2.683.128 4.526-.767v-.84s-2.735.94-4.526.84zm-15.105.774l-.527.542 4.685 1.217.316-.88-4.474-.88z"/><path d="M41.154 77.402c-.373.706-1.046.992-1.502.63s-.523-1.217-.153-1.923 1.046-.992 1.503-.63.523 1.217.153 1.923zm14.946 2.64c.088-.83-.28-1.552-.82-1.6s-1.05.57-1.14 1.4.28 1.552.82 1.6 1.05-.57 1.14-1.4z"/></g><path d="M39.593 53.38l-9.545-6.256s-3.304 14.434 3.725 32.432l10.76-4.134s-6.4-9.848-4.94-22.04z" class="P"/><path d="M43.435 75.044l-.14-.252a38.76 38.76 0 0 1-4.051-11.349 33.53 33.53 0 0 1-.458-9.537l.015-.15-8.224-5.39-.057.385c-.393 2.648-1.12 9.787.6 18.88a65.56 65.56 0 0 0 2.997 10.718l.088.235 9.233-3.54zm-11.83-7.507c-1.624-8.617-1.046-15.44-.65-18.326l7.324 4.796c-.287 3.183-.125 6.39.48 9.53a39.37 39.37 0 0 0 3.976 11.248L34.5 77.936c-1.252-3.38-2.22-6.858-2.896-10.4z" class="Q"/><path d="M34.443 58.724s3.06.538 4.652 4.245a3.18 3.18 0 0 1 .273 1.363 3.16 3.16 0 0 1-.338 1.348c-.368.702-1.063 1.393-2.37 1.622-.73.12-1.477.07-2.185-.145-1.465-.42-3.976-1.612-4.066-4.735-.12-4.405 4.035-3.7 4.035-3.7zm3.934 10.2l-.75.143s.48 3.228 1.773 5.254l.812-.156s-1.528-3.087-1.833-5.24zm-1.404.266l-.75.143s.48 3.228 1.773 5.254l.814-.156s-1.528-3.087-1.835-5.24zM32.8 51.288l-.65-.527-.132 5.82.93.214-.15-5.506zm1.626 4.435c-.774-.313-1.205-1.06-.96-1.68s1.07-.853 1.848-.54 1.205 1.05.96 1.68-1.065.864-1.848.54zm.672 18.335c-.837 0-1.5-.542-1.507-1.2s.684-1.2 1.52-1.185 1.5.542 1.507 1.2-.684 1.2-1.52 1.185z" fill="#3b8842"/><path d="M46.1 74.168v5.18a6.48 6.48 0 0 1-2.153-.61v-3.962a6.48 6.48 0 0 1 2.153-.609zm3.345.177v4.834a8.32 8.32 0 0 1-.93.172l-.628.06v-5.3l.628.06c.313.038.623.093.93.166z" class="H"/><path d="M51.647 76.025c0 .963-1.318 1.776-3.12 2.034l-.523.057-.703.03h-.182c-.232 0-.46-.017-.682-.04l-.326-.038c-.426-.057-.846-.152-1.256-.284-1.15-.382-1.91-1.026-1.91-1.755 0-.97 1.335-1.786 3.158-2.038a8.2 8.2 0 0 1 .837-.072h.358c.4.001.82.03 1.226.084l.117.02.628.128c.253.062.502.14.745.235.998.374 1.632.97 1.632 1.64z" class="F"/><path d="M48.644 74l-2.208 4.102-.326-.038a7.23 7.23 0 0 1-1.256-.284l2.1-3.882h.358c.4.001.82.03 1.226.084l.117.017zm1.376.374l-2.017 3.74-.703.03h-.182l2.157-3.993c.253.06.502.134.745.225z" class="G"/><path d="M46.1 72.383v5.18a6.45 6.45 0 0 1-2.153-.61v-3.96a6.43 6.43 0 0 1 2.153-.61zm3.345.177v4.834a8.39 8.39 0 0 1-.929.172l-.628.06V72.33l.628.06c.313.04.623.098.93.172z" class="H"/><path d="M51.647 74.24c0 .962-1.318 1.776-3.12 2.034l-.523.057-.703.03h-.182c-.232 0-.46-.017-.682-.04-.11 0-.21-.025-.326-.038-.426-.057-.846-.152-1.256-.284-1.15-.383-1.91-1.026-1.91-1.755 0-.97 1.335-1.786 3.158-2.04a7.62 7.62 0 0 1 .837-.071h.358a8.84 8.84 0 0 1 1.226.084l.117.02a6.36 6.36 0 0 1 .628.128c.253.062.502.14.745.235.998.374 1.632.97 1.632 1.64z" class="F"/><path d="M48.644 72.228l-2.208 4.092c-.1 0-.2-.025-.326-.038a7.23 7.23 0 0 1-1.256-.284l2.082-3.865h.358a8.84 8.84 0 0 1 1.226.084l.123.01zm1.376.362l-2.017 3.743-.703.03h-.182l2.157-3.993a5.95 5.95 0 0 1 .745.221z" class="G"/><path d="M46.1 70.597v5.18a6.57 6.57 0 0 1-2.153-.6v-3.96a6.4 6.4 0 0 1 2.153-.61zm3.345.18V75.6a7.92 7.92 0 0 1-.929.174l-.628.06v-5.296l.628.06c.313.038.623.094.93.168z" class="H"/><path d="M51.647 72.455c0 .965-1.318 1.778-3.12 2.036l-.523.055a7.71 7.71 0 0 1-.703.029h-.182c-.232 0-.46-.017-.682-.04l-.326-.04c-.426-.055-.847-.15-1.256-.284-1.15-.38-1.91-1.026-1.91-1.755 0-.97 1.335-1.784 3.158-2.04a8.2 8.2 0 0 1 .837-.069l.358-.01a8.84 8.84 0 0 1 1.226.086l.117.02.628.126a5.95 5.95 0 0 1 .745.237c.998.385 1.632.98 1.632 1.648z" class="F"/><path d="M48.644 70.442l-2.208 4.098-.326-.04c-.426-.055-.847-.15-1.256-.284l2.082-3.863.358-.01a9.09 9.09 0 0 1 1.226.086l.123.013zm1.376.363l-2.017 3.735a7.71 7.71 0 0 1-.703.029h-.182l2.166-4a6.02 6.02 0 0 1 .737.237z" class="G"/><path d="M46.1 68.813v5.18a6.43 6.43 0 0 1-2.153-.609v-3.962a6.48 6.48 0 0 1 2.153-.61zm3.345.177v4.834a7.94 7.94 0 0 1-.929.175l-.628.057V68.76l.628.06a8.39 8.39 0 0 1 .929.172z" class="H"/><path d="M51.647 70.67c0 .965-1.318 1.778-3.12 2.034l-.523.057a7.71 7.71 0 0 1-.703.029h-.182c-.228-.001-.456-.015-.682-.04l-.326-.038c-.426-.055-.847-.15-1.256-.284-1.15-.38-1.91-1.026-1.91-1.755 0-.97 1.335-1.784 3.158-2.038a8.2 8.2 0 0 1 .837-.069l.358-.01a8.86 8.86 0 0 1 1.226.086l.117.02.628.126a5.64 5.64 0 0 1 .745.237c.998.382 1.632.98 1.632 1.645z" class="F"/><path d="M48.644 68.655l-2.208 4.1-.326-.038c-.426-.055-.847-.15-1.256-.284l2.082-3.863.358-.01a8.83 8.83 0 0 1 1.226.086l.123.02zm1.376.365l-2.017 3.74-.703.03h-.182l2.157-3.993a5.64 5.64 0 0 1 .745.223z" class="G"/><g class="H"><use xlink:href="#W" x="-6.378" y="10.423"/><path d="M49.455 67.205v4.834a7.96 7.96 0 0 1-.929.172l-.628.06v-5.296l.628.06c.313.04.623.097.93.172z"/></g><path d="M51.647 68.886c0 .965-1.318 1.776-3.12 2.034l-.523.057c-.228.02-.465.03-.703.03h-.182c-.232 0-.46-.017-.682-.04-.11 0-.21-.023-.326-.038-.426-.055-.847-.15-1.256-.284-1.15-.382-1.91-1.026-1.91-1.755 0-.97 1.335-1.786 3.158-2.04l.837-.07h.358a8.84 8.84 0 0 1 1.226.086l.117.017.628.128a5.98 5.98 0 0 1 .745.235c.998.376 1.632.973 1.632 1.64z" class="F"/><path d="M48.644 66.87l-2.208 4.096c-.1 0-.2-.023-.326-.038-.426-.055-.847-.15-1.256-.284l2.082-3.865h.358a9.09 9.09 0 0 1 1.226.086l.123.004zm1.376.365l-2.017 3.743a7.71 7.71 0 0 1-.703.029h-.182l2.157-3.993a5.95 5.95 0 0 1 .745.221z" class="G"/><g class="H"><use xlink:href="#W" x="-6.378" y="8.637"/><path d="M49.455 65.42v4.834c-.306.075-.616.132-.93.172l-.628.06V65.19l.628.06c.313.04.623.097.93.172z"/></g><path d="M51.647 67.102c0 .962-1.318 1.776-3.12 2.034l-.523.057-.703.03h-.182c-.232 0-.46-.017-.682-.04l-.326-.038a7.04 7.04 0 0 1-1.256-.284c-1.15-.383-1.91-1.026-1.91-1.755 0-.97 1.335-1.786 3.158-2.04l.837-.07h.358a8.84 8.84 0 0 1 1.226.086l.117.017.628.128c.253.062.502.14.745.235.998.376 1.632.97 1.632 1.64z" class="F"/><path d="M48.644 65.083l-2.208 4.092-.326-.038a6.96 6.96 0 0 1-1.256-.284l2.082-3.865h.358a9.09 9.09 0 0 1 1.226.086l.123.008zm1.376.367l-2.017 3.743-.703.03h-.182l2.166-4.008a5.98 5.98 0 0 1 .737.235z" class="G"/><path d="M46.1 63.46v5.18a6.48 6.48 0 0 1-2.153-.609v-3.96a6.43 6.43 0 0 1 2.153-.61zm3.345.176v4.834a8.39 8.39 0 0 1-.929.172l-.628.06v-5.3l.628.06a7.98 7.98 0 0 1 .93.177z" class="H"/><path d="M51.647 65.318c0 .962-1.318 1.776-3.12 2.034l-.523.057-.703.03h-.182c-.232 0-.46-.017-.682-.04l-.326-.038a7.23 7.23 0 0 1-1.256-.284c-1.15-.383-1.91-1.026-1.91-1.755 0-.97 1.335-1.786 3.158-2.038a7.62 7.62 0 0 1 .837-.072h.358c.4 0 .82.028 1.226.084l.117.02a6.33 6.33 0 0 1 .628.128c.253.062.502.14.745.235.998.374 1.632.97 1.632 1.64z" class="F"/><path d="M48.644 63.302l-2.208 4.092-.326-.038a7.24 7.24 0 0 1-1.256-.284l2.082-3.865h.358a8.86 8.86 0 0 1 1.226.084l.123.01zm1.376.365L48.003 67.4l-.703.03h-.182l2.166-4.008c.25.062.496.14.737.235z" class="G"/><path d="M46.1 61.674v5.183c-.748-.076-1.476-.283-2.153-.612v-3.96a6.45 6.45 0 0 1 2.153-.612zm3.345.178v4.834a7.94 7.94 0 0 1-.929.174l-.628.06v-5.3l.628.06a7.94 7.94 0 0 1 .929.172z" class="H"/><path d="M51.647 63.532c0 .965-1.318 1.778-3.12 2.036l-.523.057-.703.027h-.182c-.232 0-.46-.017-.682-.04l-.326-.04a6.88 6.88 0 0 1-1.256-.284c-1.15-.38-1.91-1.026-1.91-1.755 0-.97 1.335-1.784 3.158-2.036a7.64 7.64 0 0 1 .837-.072l.358-.01a8.86 8.86 0 0 1 1.226.086l.117.02.628.126c.253.064.502.143.745.237.998.385 1.632.98 1.632 1.648z" class="F"/><path d="M48.644 61.5l-2.208 4.092-.326-.04c-.426-.055-.847-.15-1.256-.284l2.082-3.863.358-.01a9.09 9.09 0 0 1 1.226.086l.123.02zm1.376.382l-2.017 3.743-.703.027h-.182l2.166-4.008c.25.064.496.143.737.238z" class="G"/><path d="M46.1 59.9v5.18c-.748-.076-1.476-.282-2.153-.6V60.5a6.4 6.4 0 0 1 2.153-.61zm3.345.176V64.9a7.92 7.92 0 0 1-.929.175l-.628.057V59.83l.628.06a8.38 8.38 0 0 1 .929.179z" class="H"/><path d="M51.647 61.748c0 .965-1.318 1.778-3.12 2.036l-.523.055a7.71 7.71 0 0 1-.703.029h-.182c-.228-.001-.456-.015-.682-.04-.11 0-.21-.023-.326-.038-.426-.055-.847-.15-1.256-.284-1.15-.38-1.91-1.026-1.91-1.755 0-.97 1.335-1.784 3.158-2.038a8.2 8.2 0 0 1 .837-.069h.358a8.86 8.86 0 0 1 1.226.086l.117.02.628.126a5.64 5.64 0 0 1 .745.237c.998.372 1.632.977 1.632 1.635z" class="F"/><path d="M48.644 59.734l-2.208 4.088c-.1 0-.2-.023-.326-.038-.426-.055-.847-.15-1.256-.284l2.082-3.863h.358a8.83 8.83 0 0 1 1.226.086l.123.01zm1.376.364l-2.017 3.74a7.71 7.71 0 0 1-.703.029h-.182l2.157-3.993c.253.057.502.13.745.223z" class="G"/><path d="M55.38 74.54l-10.133 2.774-2.888-8.577-.163-.5-.264-.78s5.273-3.648 10.543-4.094L55.38 74.54z" fill="#7fae5b"/><path d="M51.678 64.453l-.234.044c-3.602.668-7.088 2.46-9.248 3.747l.163.5c2.072-1.242 5.44-3 8.942-3.697l2.423 9.945.483-.132-2.53-10.397z" fill="#507c39"/><path d="M59.237 75.853s-3.116-.307-6.663 1.73a9.26 9.26 0 0 1-6.883.99l-.086-.246-.035-.105-.186-.528-3.14-7.963-.134-.273c0-.015-.015-.03-.02-.042l-.193-.435c-.578-1.442.03-1.513.03-1.513-.437 2.368 13.958-3.543 13.958-3.543l3.35 11.93z" class="P"/><g class="Q"><path d="M54.624 65.318l-.245.088c-3.233 1.16-9.017 3.112-12.48 3.573a9.76 9.76 0 0 0 .21.477c3.44-.5 8.944-2.33 12.188-3.5l2.775 8.854a17.45 17.45 0 0 0-6.12 1.89 9.49 9.49 0 0 1-5.569.979l.186.528a9.98 9.98 0 0 0 5.619-1.07 16.87 16.87 0 0 1 6.244-1.858l.3-.03-3.118-9.945zm-1.798 3.584l-4.953 1.548.232.748 4.954-1.547-.232-.75z"/><path d="M53.337 70.552L48.384 72.1l.232.75 4.954-1.55-.232-.75zm-7.732 7.77l-.036-.105-.186-.528-3.14-7.963-.134-.273c0-.015-.015-.03-.02-.042 1.787-.23 3.68 1.47 4.342 3.993.517 1.952.144 3.85-.827 4.918z"/></g><path d="M56.516 77.987l-1.337.773c-.605.35-1.574-.11-2.51-1.09a7.39 7.39 0 0 1-.613-.723l-.368-.525-.3-.502a10.18 10.18 0 0 1-.532-1.072c-.306-.69-.492-1.427-.548-2.18-.03-.708.144-1.246.54-1.47s.948-.11 1.54.27a6.52 6.52 0 0 1 1.603 1.572c.238.32.457.654.655 1l.278.52.268.584c.122.292.227.59.314.895 1.716.523 1.626 1.597 1.02 1.946z" class="S"/><path d="M55.32 72.26l-4.472 2.585a6.57 6.57 0 0 1-.548-2.179l3.417-1.978a6.56 6.56 0 0 1 1.603 1.572zm1.516 3.003l-4.164 2.406a7.39 7.39 0 0 1-.613-.723l-.368-.525 4.564-2.638.268.584a8.04 8.04 0 0 1 .314.895z" class="H"/><path d="M56.48 78c-.837.48-2.19-.263-3.315-1.702l-.3-.42-.375-.597-.088-.16-.306-.614-.13-.303a7.02 7.02 0 0 1-.379-1.229c-.245-1.192-.067-2.17.563-2.537.837-.483 2.206.27 3.334 1.732a8.19 8.19 0 0 1 .477.692l.186.305a8.96 8.96 0 0 1 .538 1.11l.042.11.21.614c.072.25.127.507.165.765.16 1.05-.038 1.9-.613 2.234z" class="F"/><path d="M56.72 74.388l-4.63.12-.13-.303a7.01 7.01 0 0 1-.379-1.229l4.374-.114.186.305a8.99 8.99 0 0 1 .538 1.11l.042.1zm.372 1.38l-4.236.1-.375-.597-.088-.16 4.533-.12a5.85 5.85 0 0 1 .165.765z" class="G"/><path d="M58.948 71.2v5.18a6.51 6.51 0 0 1-2.155-.609v-3.953a6.45 6.45 0 0 1 2.155-.618zm3.346.166V76.2a8.36 8.36 0 0 1-.931.172l-.628.06v-5.296l.628.06a8.36 8.36 0 0 1 .931.172z" class="H"/><path d="M64.485 73.048c0 .962-1.318 1.776-3.12 2.034l-.523.057-.703.03h-.184c-.23 0-.458-.017-.68-.04l-.326-.038a7.23 7.23 0 0 1-1.256-.284c-1.15-.383-1.908-1.026-1.908-1.755 0-.97 1.335-1.786 3.158-2.038.278-.038.557-.062.837-.072h.358c.4 0 .82.028 1.226.084l.117.02a6.33 6.33 0 0 1 .628.128c.253.062.5.14.743.235 1 .374 1.634.97 1.634 1.64z" class="F"/><path d="M61.482 71.032l-2.208 4.092-.326-.038a7.23 7.23 0 0 1-1.256-.284l2.093-3.865h.358c.4 0 .82.028 1.226.084l.113.01zm1.375.356l-2.015 3.743-.703.03h-.184l2.16-4.004c.252.06.5.138.743.23z" class="G"/><path d="M64.667 70.427v1.55c0 .7-.88 1.313-2.19 1.637a7.89 7.89 0 0 1-.931.174l-.628.06-.6.017a9.82 9.82 0 0 1-1.189-.072c-.748-.076-1.478-.283-2.155-.61-.628-.326-1.002-.746-1.002-1.204v-1.55c0-.458.377-.88 1.002-1.204.678-.328 1.407-.535 2.155-.612a9.82 9.82 0 0 1 1.189-.071l.6.017.628.06a7.91 7.91 0 0 1 .931.172c1.3.324 2.19.937 2.19 1.637z" class="S"/><path d="M59.13 68.6v5.183a6.46 6.46 0 0 1-2.155-.612v-3.96a6.47 6.47 0 0 1 2.155-.612zm3.338.2v4.834c-.307.077-.618.135-.93.174l-.628.06v-5.3l.628.06c.314.04.624.096.93.172z" class="H"/><path d="M64.667 70.47c0 .965-1.318 1.778-3.12 2.036l-.525.055c-.228.02-.462.03-.7.03h-.184c-.23 0-.458-.017-.68-.04l-.326-.04c-.426-.055-.847-.15-1.256-.284-1.15-.38-1.906-1.026-1.906-1.755 0-.97 1.335-1.784 3.158-2.036a7.59 7.59 0 0 1 .837-.071h.358c.4 0 .82.03 1.226.086l.117.02.628.126c.253.063.5.142.743.237.996.374 1.632.97 1.632 1.637z" class="F"/><path d="M61.664 68.456l-2.208 4.092-.326-.04c-.426-.055-.847-.15-1.256-.284l2.093-3.863h.358a9.09 9.09 0 0 1 1.226.086l.113.008zm1.376.364l-2.017 3.74-.7.03h-.184l2.16-4.006a5.93 5.93 0 0 1 .743.235z" class="G"/><path d="M61.63 68.323v1.55c0 .702-.883 1.313-2.193 1.64a8.23 8.23 0 0 1-.929.172l-.638.06-.588.017c-.397 0-.794-.024-1.19-.072a6.49 6.49 0 0 1-2.156-.609c-.628-.328-1.002-.748-1.002-1.206v-1.55c0-.46.377-.88 1.002-1.206a6.44 6.44 0 0 1 2.156-.61c.394-.048.79-.072 1.19-.07l.588.017.638.06a8.23 8.23 0 0 1 .929.172c1.3.324 2.193.937 2.193 1.64z" class="S"/><path d="M56.093 66.507v5.18a6.49 6.49 0 0 1-2.155-.609v-3.962a6.44 6.44 0 0 1 2.155-.609zm3.345.177v4.834c-.306.075-.617.133-.93.172l-.638.06v-5.296l.638.06c.313.04.623.097.93.172z" class="H"/><path d="M61.63 68.366c0 .963-1.318 1.776-3.122 2.034l-.523.057-.703.03H57.1c-.232 0-.46-.017-.68-.04l-.326-.038c-.426-.057-.846-.152-1.256-.284-1.15-.383-1.906-1.026-1.906-1.755 0-.97 1.335-1.786 3.158-2.04a8.09 8.09 0 0 1 .837-.071h.356a8.84 8.84 0 0 1 1.226.084l.117.02.628.128c.253.062.502.14.745.235 1.005.374 1.632.97 1.632 1.64z" class="F"/><path d="M58.626 66.344l-2.206 4.098-.326-.038a7.22 7.22 0 0 1-1.256-.284l2.093-3.865h.356a8.84 8.84 0 0 1 1.226.084l.113.004zm1.376.37l-2.017 3.743-.703.03H57.1l2.157-4.004a6.05 6.05 0 0 1 .745.23z" class="G"/><path d="M52.525 78.323c0 1.345-1.2 2.48-2.842 2.84-.724.156-1.473.156-2.197 0-1.66-.35-2.875-1.494-2.875-2.848s1.216-2.497 2.875-2.85c.724-.153 1.473-.153 2.197 0 1.643.383 2.842 1.517 2.842 2.856z" class="S"/><path d="M52.525 77.72c0 1.345-1.2 2.482-2.842 2.84-.724.155-1.473.155-2.197 0-1.66-.35-2.875-1.494-2.875-2.848s1.216-2.497 2.875-2.85c.724-.153 1.473-.153 2.197 0 1.643.374 2.842 1.51 2.842 2.856z" class="F"/><path d="M49.684 74.875v5.674c-.724.156-1.473.156-2.197 0v-5.68c.724-.153 1.473-.153 2.197 0v.006z" class="G"/><path d="M37.7 77.635v5.18a6.72 6.72 0 0 1-2.155-.6v-3.962a6.49 6.49 0 0 1 2.155-.609zm3.343.177v4.834a7.69 7.69 0 0 1-.93.172l-.638.06V77.58l.638.06a8.23 8.23 0 0 1 .929.172z" class="M"/><path d="M43.236 79.493c0 .963-1.318 1.776-3.122 2.034a8.81 8.81 0 0 1-1.226.086 8.64 8.64 0 0 1-1.189-.082c-1.823-.252-3.158-1.068-3.158-2.04s1.335-1.786 3.158-2.038c.394-.053.79-.08 1.19-.08a8.5 8.5 0 0 1 1.226.086c1.804.258 3.122 1.072 3.122 2.032z" class="J"/><path d="M40.114 77.46v4.067a8.81 8.81 0 0 1-1.226.086 8.64 8.64 0 0 1-1.189-.082v-4.077c.394-.053.79-.08 1.19-.08a8.5 8.5 0 0 1 1.226.086z" class="K"/><path d="M37.7 75.952v5.18a6.49 6.49 0 0 1-2.155-.61V76.56a6.44 6.44 0 0 1 2.155-.609zm3.343.178v4.834a8.23 8.23 0 0 1-.929.172l-.638.06V75.9l.638.06a8.23 8.23 0 0 1 .929.172z" class="M"/><path d="M43.236 77.8c0 .963-1.318 1.776-3.122 2.034a8.84 8.84 0 0 1-1.226.084 8.64 8.64 0 0 1-1.189-.08c-1.823-.252-3.158-1.07-3.158-2.04s1.335-1.786 3.158-2.038a8.64 8.64 0 0 1 1.189-.08 8.5 8.5 0 0 1 1.226.086c1.804.256 3.122 1.074 3.122 2.032z" class="J"/><path d="M40.114 75.778v4.067a8.84 8.84 0 0 1-1.226.084 8.64 8.64 0 0 1-1.189-.08V75.77a8.64 8.64 0 0 1 1.189-.08 8.5 8.5 0 0 1 1.226.086z" class="K"/><path d="M37.7 74.27v5.18a6.44 6.44 0 0 1-2.155-.612v-3.96c.677-.33 1.407-.535 2.155-.6zm3.343.175v4.834c-.306.077-.616.135-.93.174l-.638.06v-5.298l.638.06a8.18 8.18 0 0 1 .93.172z" class="M"/><path d="M43.236 76.126c0 .963-1.318 1.776-3.122 2.034a8.84 8.84 0 0 1-1.226.084 8.64 8.64 0 0 1-1.189-.08c-1.823-.252-3.158-1.07-3.158-2.04s1.335-1.786 3.158-2.038a8.64 8.64 0 0 1 1.189-.08c.4-.001.82.028 1.226.084 1.804.258 3.122 1.078 3.122 2.034z" class="J"/><path d="M40.114 74.092v4.07a8.84 8.84 0 0 1-1.226.084 8.64 8.64 0 0 1-1.189-.08v-4.077a8.64 8.64 0 0 1 1.189-.08c.4-.001.82.028 1.226.084z" class="K"/><path d="M37.7 72.583v5.18c-.748-.075-1.478-.28-2.155-.6v-3.96a6.44 6.44 0 0 1 2.155-.612zm3.343.18v4.834c-.306.077-.616.135-.93.175l-.638.057V72.53l.638.06a7.76 7.76 0 0 1 .93.172z" class="M"/><path d="M43.236 74.443c0 .963-1.318 1.776-3.122 2.032-.406.058-.816.087-1.226.086a8.64 8.64 0 0 1-1.189-.08c-1.823-.252-3.158-1.07-3.158-2.04s1.335-1.786 3.158-2.038a8.64 8.64 0 0 1 1.189-.08c.4-.001.82.028 1.226.084 1.804.258 3.122 1.08 3.122 2.034z" class="J"/><use xlink:href="#X" class="K"/><path d="M37.7 70.9v5.18a6.44 6.44 0 0 1-2.155-.609V71.51a6.49 6.49 0 0 1 2.155-.61zm3.343.176V75.9c-.306.077-.616.135-.93.174l-.638.057v-5.296l.638.06a8.23 8.23 0 0 1 .929.172z" class="M"/><path d="M43.236 72.76c0 .963-1.318 1.774-3.122 2.032a8.53 8.53 0 0 1-1.226.086c-.398 0-.795-.027-1.19-.08-1.823-.252-3.158-1.07-3.158-2.038s1.335-1.786 3.158-2.04a8.64 8.64 0 0 1 1.189-.082 8.83 8.83 0 0 1 1.226.086c1.804.258 3.122 1.082 3.122 2.034z" class="J"/><path d="M40.114 70.726v4.067a8.53 8.53 0 0 1-1.226.086c-.398 0-.795-.027-1.19-.08v-4.077a8.64 8.64 0 0 1 1.189-.082c.4 0 .82.03 1.226.086z" class="K"/><g class="M"><path d="M37.7 69.217v5.18a6.49 6.49 0 0 1-2.155-.609v-3.962a6.49 6.49 0 0 1 2.155-.609z"/><use xlink:href="#V" x="-14.791" y="10.649"/></g><path d="M43.236 71.075c0 .965-1.318 1.776-3.122 2.034a8.83 8.83 0 0 1-1.226.086c-.398 0-.795-.027-1.19-.082-1.823-.252-3.158-1.068-3.158-2.038s1.335-1.786 3.158-2.037a8.64 8.64 0 0 1 1.189-.082c.4-.001.82.028 1.226.086 1.804.26 3.122 1.07 3.122 2.032z" class="J"/><path d="M40.114 69.042v4.067c-.406.057-.816.086-1.226.086-.398 0-.795-.027-1.19-.082v-4.075a8.64 8.64 0 0 1 1.189-.082c.4-.001.82.028 1.226.086z" class="K"/><path d="M63.897 79.285v1.56c0 .702-.88 1.313-2.19 1.64a7.91 7.91 0 0 1-.931.172l-.628.06-.6.017a9.82 9.82 0 0 1-1.189-.071 6.51 6.51 0 0 1-2.155-.609c-.628-.328-1.002-.748-1.002-1.206v-1.55c0-.46.377-.88 1.002-1.206a6.51 6.51 0 0 1 2.155-.61 9.82 9.82 0 0 1 1.189-.071l.6.017.628.06c.313.04.624.097.93.172 1.3.315 2.19.927 2.19 1.63z" class="R"/><path d="M58.36 77.47v5.18a6.49 6.49 0 0 1-2.155-.61v-3.96c.678-.326 1.407-.532 2.155-.6zm3.346.176v4.834a7.91 7.91 0 0 1-.931.172l-.628.06v-5.296l.628.06a8.36 8.36 0 0 1 .93.172z" class="M"/><path d="M63.897 79.326c0 .962-1.318 1.776-3.12 2.034a8.84 8.84 0 0 1-1.226.084 8.67 8.67 0 0 1-1.191-.08c-1.823-.252-3.158-1.07-3.158-2.04s1.335-1.786 3.158-2.04c.395-.053.793-.08 1.19-.08a8.53 8.53 0 0 1 1.226.086c1.802.258 3.12 1.07 3.12 2.032z" class="J"/><path d="M60.777 77.294v4.067a8.84 8.84 0 0 1-1.226.084 8.67 8.67 0 0 1-1.191-.08v-4.077c.395-.053.793-.08 1.19-.08a8.53 8.53 0 0 1 1.226.086z" class="K"/><path d="M63.897 76.826v1.55c0 .7-.88 1.314-2.19 1.637a7.89 7.89 0 0 1-.931.174l-.628.057-.6.02a9.8 9.8 0 0 1-1.189-.074c-.748-.076-1.477-.282-2.155-.61-.628-.326-1.002-.746-1.002-1.204v-1.55c0-.458.377-.88 1.002-1.204.678-.328 1.407-.535 2.155-.612a9.82 9.82 0 0 1 1.189-.071l.6.017.628.06c.313.038.624.095.93.17 1.3.326 2.19.937 2.19 1.64z" class="R"/><path d="M58.36 75v5.18a6.44 6.44 0 0 1-2.155-.61v-3.96a6.47 6.47 0 0 1 2.155-.612zm3.346.177v4.834c-.307.077-.618.135-.93.174l-.628.057V74.96l.628.06c.313.037.624.092.93.166z" class="M"/><path d="M63.897 76.87c0 .963-1.318 1.776-3.122 2.032-.406.058-.815.087-1.224.086-.398 0-.796-.027-1.19-.08-1.823-.252-3.158-1.07-3.158-2.038s1.335-1.786 3.158-2.038c.395-.054.793-.08 1.19-.08.4-.001.82.028 1.224.084 1.804.258 3.122 1.072 3.122 2.034z" class="J"/><path d="M60.775 74.835v4.067a8.47 8.47 0 0 1-1.224.086c-.398 0-.796-.027-1.19-.08V74.83c.395-.054.792-.08 1.19-.08.41-.001.82.028 1.224.084z" class="K"/><path d="M61.254 71.974v5.18a6.46 6.46 0 0 1-2.155-.61v-3.96a6.41 6.41 0 0 1 2.155-.609zm3.346.176v4.834a7.9 7.9 0 0 1-.931.174l-.628.06V71.92l.628.06a7.91 7.91 0 0 1 .931.172z" class="M"/><path d="M66.79 73.83c0 .963-1.318 1.776-3.12 2.034-.406.056-.816.085-1.226.084-.398.001-.796-.026-1.19-.08-1.823-.252-3.158-1.07-3.158-2.038s1.335-1.786 3.158-2.038c.395-.054.792-.08 1.19-.08.4 0 .82.028 1.226.084 1.802.258 3.12 1.072 3.12 2.034z" class="J"/><path d="M63.67 71.808v4.07a8.84 8.84 0 0 1-1.226.084 8.7 8.7 0 0 1-1.191-.08v-4.077c.395-.054.792-.08 1.19-.08.4 0 .82.028 1.226.084z" class="K"/><path d="M46.394 80.225v5.183a6.44 6.44 0 0 1-2.155-.612v-3.95a6.49 6.49 0 0 1 2.155-.62zm3.344.178v4.834c-.306.077-.616.135-.93.174l-.628.06v-5.3l.628.06a7.77 7.77 0 0 1 .929.172z" class="M"/><path d="M51.93 82.085c0 .963-1.318 1.776-3.122 2.032-.406.058-.816.087-1.226.086a8.64 8.64 0 0 1-1.189-.08c-1.823-.252-3.158-1.07-3.158-2.04s1.335-1.786 3.158-2.038a8.64 8.64 0 0 1 1.189-.08c.4-.001.82.028 1.226.084 1.804.258 3.122 1.072 3.122 2.034z" class="J"/><use xlink:href="#X" x="8.696" y="7.64" class="K"/><path d="M46.4 78.096v5.183a6.43 6.43 0 0 1-2.149-.611v-3.96a6.43 6.43 0 0 1 2.15-.612zm3.347.178v4.834a7.86 7.86 0 0 1-.929.174l-.628.06v-5.3l.628.06a8.18 8.18 0 0 1 .93.172z" class="M"/><path d="M51.948 79.955c0 .963-1.316 1.776-3.12 2.032-.406.058-.816.087-1.226.086a8.64 8.64 0 0 1-1.189-.08c-1.823-.252-3.16-1.07-3.16-2.04s1.337-1.786 3.16-2.038a8.64 8.64 0 0 1 1.189-.08 8.86 8.86 0 0 1 1.226.084c1.804.258 3.12 1.072 3.12 2.034z" class="J"/><path d="M48.828 77.92v4.067c-.406.058-.816.087-1.226.086a8.64 8.64 0 0 1-1.189-.08v-4.077a8.64 8.64 0 0 1 1.189-.08c.4 0 .82.028 1.226.084z" class="K"/><path d="M57.12 78.376v1.55c0 .702-.883 1.313-2.193 1.64a8.23 8.23 0 0 1-.929.172l-.628.06-.588.017c-.397 0-.794-.023-1.19-.07a6.44 6.44 0 0 1-2.155-.612c-.628-.326-1.002-.746-1.002-1.204v-1.55c0-.458.377-.88 1.002-1.204a6.44 6.44 0 0 1 2.155-.609 9.8 9.8 0 0 1 1.189-.074l.588.02.628.06a8.23 8.23 0 0 1 .929.172c1.3.324 2.193.937 2.193 1.637z" class="R"/><path d="M51.586 76.562v5.18a6.44 6.44 0 0 1-2.156-.612v-3.96a6.44 6.44 0 0 1 2.156-.609zm3.348.176v4.834a8.23 8.23 0 0 1-.929.172l-.628.06v-5.296l.628.06a8.23 8.23 0 0 1 .929.172z" class="M"/><path d="M57.12 78.42c0 .962-1.318 1.776-3.122 2.034-.406.056-.816.085-1.226.084-.398.001-.795-.026-1.19-.08-1.823-.252-3.158-1.07-3.158-2.038s1.335-1.786 3.158-2.038c.394-.054.79-.08 1.19-.08.4-.001.82.028 1.226.084 1.804.256 3.122 1.072 3.122 2.034z" class="J"/><path d="M54 76.385v4.07c-.406.056-.816.085-1.226.084-.398.001-.795-.026-1.19-.08V76.38c.394-.054.79-.08 1.19-.08.4-.001.82.028 1.226.084z" class="K"/><path d="M57.12 76.2v1.55c0 .702-.883 1.314-2.193 1.64-.306.076-.616.134-.93.172l-.628.06-.588.017c-.397 0-.794-.024-1.19-.072a6.49 6.49 0 0 1-2.155-.609c-.628-.328-1.002-.748-1.002-1.206V76.2c0-.46.377-.878 1.002-1.206a6.49 6.49 0 0 1 2.155-.609c.394-.048.79-.072 1.19-.072l.588.017.628.06a8.23 8.23 0 0 1 .929.172c1.3.326 2.193.937 2.193 1.64z" class="R"/><path d="M51.586 74.373v5.18a6.5 6.5 0 0 1-2.156-.61V74.98a6.49 6.49 0 0 1 2.156-.61zm3.348.177v4.834a7.69 7.69 0 0 1-.93.172l-.628.06V74.33l.628.06c.313.036.623.1.93.162z" class="M"/><path d="M57.12 76.232c0 .962-1.318 1.776-3.122 2.034-.406.057-.816.086-1.226.086-.398 0-.795-.027-1.19-.082-1.823-.252-3.158-1.068-3.158-2.038s1.335-1.786 3.158-2.038c.394-.053.79-.08 1.19-.08a8.5 8.5 0 0 1 1.226.086c1.804.258 3.122 1.07 3.122 2.032z" class="J"/><path d="M54 74.2v4.067a8.83 8.83 0 0 1-1.226.086c-.398 0-.795-.027-1.19-.082v-4.077c.394-.053.79-.08 1.19-.08a8.5 8.5 0 0 1 1.226.086z" class="K"/><g fill="#fff"><path d="M67.932 37.09a10.53 10.53 0 0 0-5.355-2.795 10.37 10.37 0 0 0-1.965-.189h-.015c.613.443.98.9 1.063 1.37a8.99 8.99 0 0 1 1.32.25 9.31 9.31 0 0 1 4.049 2.312c2.888 2.787 4.677 5.956 4.677 13.13 0 8.732-2.72 22.325-7.255 29.966l-.013.025c-1.718 3.205-8.23 5.53-15.486 5.53s-13.76-2.324-15.486-5.53l-.013-.025c-4.54-7.64-7.255-21.226-7.255-29.966 0-7.175 1.79-10.344 4.677-13.13 1.133-1.102 2.526-1.898 4.05-2.312.433-.116.875-.2 1.32-.25.082-.46.45-.927 1.063-1.37h-.013c-.66 0-1.32.064-1.967.19a10.54 10.54 0 0 0-5.355 2.795c-3.05 2.942-5.077 6.46-5.077 14.08 0 8.902 2.78 22.8 7.43 30.624C34.303 85.448 41.133 88 48.95 88s14.65-2.55 16.62-6.206C70.22 73.96 73 60.072 73 51.17c.008-7.62-2.02-11.138-5.068-14.08z"/><path d="M62.577 34.294c-1.614-2.627-7.774-4.03-13.62-4.03s-12.006 1.402-13.62 4.03a2.6 2.6 0 0 0-.406 1.383c-.001.016-.001.032 0 .048.067 3.484 7.255 5.363 14.02 5.363s13.956-1.88 14.02-5.363c.001-.016.001-.032 0-.048a2.6 2.6 0 0 0-.398-1.383zm-.896 1.383c0 1.942-5.232 4.104-12.723 4.104s-12.723-2.162-12.723-4.104c-.001-.07.006-.14.02-.2.082-.46.45-.927 1.063-1.37 1.9-1.38 6.163-2.532 11.64-2.532s9.743 1.154 11.64 2.54c.613.443.98.9 1.063 1.37.014.066.02.134.02.202z"/><path d="M51.772 36.6a6.61 6.61 0 0 1 1.373.391c.774.355.74.84.14 1.143s-1.63.42-2.68.448c-2.455.078-5.127-.258-7.603-.725-1.438-.27-2.888-.6-3.926-1.084-1.632-.763-1.557-1.76.178-2.2.765-.177 1.558-.204 2.333-.078.518.094 1.026.235 1.52.42 2.56.916 5.757 1.093 8.664 1.686z" style="mix-blend-mode:screen" opacity=".28"/></g><path d="M62.518 26.552l-1.097 5.155c-.236 1.09-.39 1.965-1.308 2.656-.85.643-1.898.952-2.896 1.24-2.474.72-5.077.977-7.64 1.01h-.61c-.697 0-1.398-.015-2.093-.05l-1.005-.063c-1.837-.126-3.654-.455-5.418-.98l-.046-.015c-.916-.288-1.867-.63-2.655-1.225-.9-.668-1.078-1.47-1.295-2.58l-1.065-5.405 10.48.097 16.647.162z" fill="#fbb47a"/><path d="M45.852 25.915V36.5a24.88 24.88 0 0 1-5.418-.982v-9.604h5.418zm3.714 1.22v9.478h-.6c-.697 0-1.398-.015-2.093-.05v-9.428h2.702z" fill="#f89f6d"/><path d="M62.543 26.3c0 2.373-6.083 4.298-13.586 4.298a42.12 42.12 0 0 1-2.72-.086c-1.624-.094-3.24-.305-4.834-.63-3.633-.77-6.023-2.083-6.023-3.573C35.372 23.923 41.455 22 48.957 22h.272c1.713.006 3.425.123 5.123.35 4.817.662 8.19 2.17 8.19 3.95z" fill="#fecc8f"/><path d="M54.352 22.353L46.23 30.51c-1.624-.094-3.24-.305-4.834-.63L49.23 22a39.58 39.58 0 0 1 5.123.353z" fill="#ffe6af"/><path d="M61.074 81.46c0 1.44-1.285 2.656-3.043 3.043-.776.167-1.578.167-2.354 0-1.777-.376-3.078-1.6-3.078-3.05s1.302-2.675 3.078-3.052a5.7 5.7 0 0 1 2.354 0c1.758.4 3.043 1.616 3.043 3.058z" class="R"/><path d="M61.074 80.805c0 1.442-1.285 2.656-3.043 3.043-.392.086-.793.13-1.195.128-.4 0-.778-.04-1.16-.12-1.777-.378-3.078-1.6-3.078-3.052s1.302-2.673 3.078-3.05a5.63 5.63 0 0 1 1.159-.12c.402-.001.802.042 1.195.128 1.758.387 3.043 1.612 3.043 3.043z" class="J"/><path d="M58.03 77.762v6.095c-.392.086-.793.13-1.195.128-.39 0-.778-.04-1.16-.12V77.77a5.63 5.63 0 0 1 1.159-.12 5.51 5.51 0 0 1 1.195.111z" class="K"/><path d="M49.556 44.037c-.7.2-1.4.47-1.94.973-1.1 1.05-1.126 2.92-.343 4.235s2.187 2.142 3.625 2.65c3.363 1.185 7.082.885 10.545.036 2-.492 4.05-1.206 5.54-2.65a5.81 5.81 0 0 0 1.772-4.151 5.82 5.82 0 0 0-.444-2.26c-.297-.716-.733-1.365-1.284-1.9-.837-.822-2.042-1.345-3.196-1.13-.8.145-1.482.607-2.145 1.05-3.64 2.484-8.06 1.984-12.13 3.157zm11.6 35.566c-.15.542-.272 1.194.105 1.608.44.488 1.268.292 1.775-.124.657-.54 1.046-1.34 1.38-2.12 3.2-7.183 5.282-15.022 4.742-22.87 0-.455-.103-.904-.3-1.313a1.58 1.58 0 0 0-.467-.495 1.64 1.64 0 0 0-.63-.253 1.57 1.57 0 0 0-.678.037 1.58 1.58 0 0 0-.6.32c-.64.555-.488 1.135-.498 1.9a47.11 47.11 0 0 1-.814 7.854c-.97 5.24-2.6 10.32-4.014 15.447zM29.584 60.05c.686 5.687 2.093 11.54 4.35 16.813.7 1.64 1.515 3.278 2.813 4.497 1.92 1.8 6.575 3.152 6.316-.92-.418-6.662-1.477-13.4-2.057-20.07l-.597-8.27c-.123-2.137.2-4.413-1.816-5.742-.822-.536-1.768-.84-2.702-1.143-1-.317-1.796-.52-2.8-.328a4.11 4.11 0 0 0-2.325 1.328c-.747.87-1.046 2.03-1.3 3.152-.74 3.476-.306 7.16.12 10.682z" style="mix-blend-mode:screen" opacity=".28" fill="#fff"/><path d="M45.87 57.744l1.988 4.78a6.68 6.68 0 0 1-2.222.27l-1.52-3.655c.5-.565 1.094-1.038 1.756-1.398zm3.154-1.13l1.852 4.453a8.09 8.09 0 0 1-.791.519l-.565.3-2.03-4.88.6-.193c.303-.085.6-.152.923-.2z" class="H"/><path d="M51.693 57.307c.37.89-.534 2.15-2.093 3.085l-.462.254-.628.3-.17.067a6.7 6.7 0 0 1-.645.225l-.316.092a7.06 7.06 0 0 1-1.256.223c-1.208.093-2.153-.2-2.434-.883-.372-.893.546-2.165 2.133-3.102.24-.142.487-.272.74-.39l.326-.147a8.93 8.93 0 0 1 1.164-.395l.115-.027a6.03 6.03 0 0 1 .628-.128 5.69 5.69 0 0 1 .779-.069c1.046-.02 1.862.286 2.118.893z" class="F"/><path d="M48.148 56.62l-.467 4.624-.316.093a7.07 7.07 0 0 1-1.256.223l.44-4.373.327-.147c.378-.158.767-.3 1.163-.395l.1-.023zm1.4-.198l-.42 4.233-.628.3-.17.067.454-4.53c.252-.04.507-.063.762-.07z" class="G"/><path d="M30.1 76.912l.022.315.028.463.103 1.536c-.428.31-.874.597-1.335.856l-.608.34-.273.145-.592.3-.733.346-1.357.57-1.078.397-1.213.394-.313.088-.896.246-.768.186-.667.148-.514.1-1.338.227-1.18.15-1.1.09-1.767.035h-.216l-1.498-.117-.567-.085-.276-.053a6.01 6.01 0 0 1-.871-.227l-.182-.36-.627-1.26-.254-.497v-.028c2.664-1.967 5.703-3.36 8.927-4.093 5.095-1.162 10.904-.264 11.148-.227l-.006.013z" fill="url(#A)"/><path d="M30.08 76.9c-1.585 1.17-5.815 3.737-9.904 4.58-3.366.627-6.826.543-10.158-.246v-.028c2.664-1.967 5.703-3.36 8.927-4.093 5.082-1.15 10.89-.252 11.136-.214z" style="mix-blend-mode:color-dodge" class="C N"/><path d="M27.705 77.71l-.627.315s-4.167-.595-7.786.227c-3.484.793-5.524 2.245-6.04 2.632l-.686-.117a17.64 17.64 0 0 1 6.618-3.092c3.797-.866 8.523.035 8.523.035z" style="mix-blend-mode:multiply" class="D T"/><path d="M13.66 80.964l6.4-.315c1.7-.293 6.893-2.52 6.893-2.52s-5.054 2.282-6.868 2.613-6.426.22-6.426.22z" style="mix-blend-mode:color-dodge" class="C"/><g class="D"><path d="M11.572 80.322l.946.217 1.372-.844-.533-.403-1.786 1.03zm6.68-2.552a17.95 17.95 0 0 0-2.955 1.165l-.476-.438a24.65 24.65 0 0 1 3.328-1.165l.103.438z" style="mix-blend-mode:multiply" class="E"/><path d="M26.2 78.096c-1.495.06-4.7.258-6.035.866a4.96 4.96 0 0 0-2.096 1.741c-2.018.142-4.286.08-4.286.08a17.52 17.52 0 0 1 5.518-2.402c2.482-.576 5.668-.4 6.9-.283z" style="mix-blend-mode:multiply" class="T"/><path d="M11.443 82.022l.52 1.574c-.296-.054-.587-.13-.87-.227l-.808-1.628 1.16.28z" style="mix-blend-mode:multiply" class="B"/><path d="M12.386 82.277l.42 1.45-.567-.085-.45-1.524.598.157z" style="mix-blend-mode:multiply" opacity=".64"/><path d="M13.916 82.375h.338l.266 1.46h-.216l-.4-1.46zm2.03.065h1.213l.23 1.26-1.1.1-.342-1.35z" style="mix-blend-mode:multiply" opacity=".5"/><path d="M18.35 82.356l1.34-.22.216 1.21-1.338.227-.22-1.215z" style="mix-blend-mode:multiply" class="E"/><path d="M21.508 81.767l.348 1.152-.768.186-.34-1.127.76-.2zm1.15-.462l.398 1.26-.313.088-.382-1.284.298-.063z" style="mix-blend-mode:multiply" class="O"/><path d="M24.964 80.266l.382 1.52-1.078.397-.354-1.436 1.05-.482z" style="mix-blend-mode:multiply" class="E"/><path d="M26.913 79.205l.523 1.665-.733.346-.467-1.61.677-.403z" style="mix-blend-mode:multiply" class="L"/><path d="M27.696 78.732l.605 1.694-.273.145-.51-1.697.18-.142z" style="mix-blend-mode:multiply" class="B"/><path d="M30.112 77.23l.132 2c-.428.31-.874.597-1.335.856l-.313-1.76 1.517-1.096z" style="mix-blend-mode:multiply" opacity=".56"/></g><path d="M19.133 78.59l.23.4 2.573.258-2.795.727-1.708.375.138.368 1.698-.315.035.19.56-.1.226-.3 2.867-.866v-.06l-.063-.353-1.05-.1-1.817-.227c.084-.022.166-.048.247-.08.24-.085 2.118-.28 2.118-.28l-.05-.315-1.513.183-1.144.217-.188.296-.363-.01z" fill="url(#B)"/><path d="M22.87 78.934c-.232.274-1.617.63-2.93.913l-.16.19-.55.116.172-.192-1.974.375.783-.504-.107.192 3.913-.945c.282-.43-4.004-.104-2.623-.74.603-.233 1.236-.378 1.88-.43l.172-.19.367-.066-.18.21-.02.022.476-.038.035-.02.17-.104.03.233v.03s-1.91.126-2.384.337c-.61.27 3.187.312 2.927.608z" fill="url(#C)"/><path d="M30.14 77.693l.103 1.536c-.428.31-.874.597-1.335.856l-.608.34-.273.145-.592.3-.733.346-1.357.57-1.078.397-1.213.393-.313.088-.896.246-.768.186-.667.148-.514.1-1.338.227-1.18.15-1.1.09-1.767.035h-.216l-1.498-.117-.567-.085-.276-.054c-.296-.054-.587-.13-.87-.227l-.182-.36.27.315s3.882 1.14 9.635-.296 9.322-3.973 9.322-3.973l.012-1.36z" style="mix-blend-mode:multiply" class="B D"/><g class="C"><path d="M11.537 81.563s4.625 1.023 8.598.117 8.385-3.73 8.385-3.73-4.982 2.758-8.46 3.48-8.523.135-8.523.135z" style="mix-blend-mode:color-dodge" class="I"/><path d="M18.098 80.033l3.2-.693-1.736.428-1.454.264z" style="mix-blend-mode:color-dodge"/><path d="M20.6 78.55l1.56.123.592.15-2.153-.274zm1.045-.696l.13-.18-.304.053-.185.17.172-.186.367-.07-.18.2zm.662-.14l.03.233v.035l-.066-.217-.166.08.03-.025.17-.104z" style="mix-blend-mode:color-dodge" class="I"/></g><path d="M21.536 84.985l-.047.315-.066.46-.226 1.524c-.484.212-.98.397-1.485.554l-.667.2-.295.085-.642.167-.8.18-1.445.27-1.137.157-1.27.126-.313.022-.94.047-.8.02h-1.206c-.473 0-.924-.035-1.354-.063l-1.188-.107-1.094-.145-1.736-.34-.2-.053-1.438-.43-.54-.205-.257-.107c-.277-.116-.545-.253-.802-.41l-.1-.4-.357-1.37L1 84.95v-.028a23.96 23.96 0 0 1 9.597-2.094c5.223-.047 10.713 2.065 10.945 2.153l-.006.003z" fill="url(#D)"/><path d="M21.53 84.98c-1.798.806-6.473 2.415-10.653 2.368C7.454 87.245 4.1 86.425 1 84.944v-.028a23.96 23.96 0 0 1 9.597-2.087c5.21-.047 10.7 2.065 10.932 2.153z" style="mix-blend-mode:color-dodge" class="C N"/><path d="M19.038 85.26l-.683.167S14.407 83.958 10.698 84c-3.575.035-5.875 1.017-6.46 1.288l-.645-.26a17.62 17.62 0 0 1 7.125-1.612c3.895-.035 8.322 1.854 8.322 1.854z" style="mix-blend-mode:multiply" class="B D"/><g class="C"><path d="M4.625 85.448l6.323 1.042c1.714.06 7.272-.995 7.272-.995s-5.42 1.152-7.263 1.1-6.332-1.136-6.332-1.136zm-1.905-1.07l.88.413 1.517-.535-.436-.504-1.96.626z" style="mix-blend-mode:color-dodge"/><path d="M9.786 83.304a17.83 17.83 0 0 0-3.133.513l-.373-.53c1.154-.228 2.322-.372 3.497-.43l.01.447z" style="mix-blend-mode:color-dodge" opacity=".78"/></g><g class="D"><path d="M17.5 85.316c-1.476-.26-4.65-.75-6.08-.438-.908.184-1.746.62-2.42 1.26l-4.205-.834a17.45 17.45 0 0 1 5.897-1.174c2.547-.04 5.62.822 6.806 1.187zM2.238 86l.175 1.644a5.94 5.94 0 0 1-.802-.41l-.46-1.76L2.238 86zm.864.448l.107 1.508-.54-.205-.116-1.574.548.27z" style="mix-blend-mode:multiply" class="B"/><path d="M4.575 86.88l.332.085-.05 1.486-.2-.053-.072-1.518zm1.975.498l1.18.268-.044 1.3-1.094-.145-.044-1.414z" style="mix-blend-mode:multiply" class="L"/><path d="M8.915 87.806l1.357.072-.044 1.228c-.473 0-.924-.035-1.354-.063l.04-1.237z" style="mix-blend-mode:multiply" class="E"/><path d="M12.126 87.894l.097 1.2-.8.02-.094-1.174.786-.044zm1.222-.2l.12 1.33-.313.022-.1-1.338.295-.013z" style="mix-blend-mode:multiply" class="O"/><path d="M15.817 87.17l.056 1.574-1.137.157-.047-1.48 1.128-.252z" style="mix-blend-mode:multiply" class="E"/><path d="M17.948 86.55l.16 1.74-.8.18-.12-1.672.75-.25z" style="mix-blend-mode:multiply" class="L"/><path d="M18.813 86.257l.232 1.782-.295.085-.128-1.766.2-.1zM21.5 85.3l-.3 1.983c-.484.212-.98.397-1.485.554l.063-1.788 1.714-.75z" style="mix-blend-mode:multiply" class="B"/></g><path d="M10.475 84.286l.14.43 2.46.8-2.886.117H8.442l.056.4 1.726.06v.195l.57.02.282-.236 2.983-.236V85.4l-1.003-.315-1.73-.63c.087.003.175-.004.26-.022.254-.03 2.13.176 2.13.176v-.315l-1.513-.145-1.166-.04-.247.25-.317-.082z" fill="url(#E)"/><path d="M14.044 85.432c-.285.22-1.714.27-3.058.27l-.194.148h-.564l.2-.15c-1.093 0-2.008-.05-2.008-.05l.874-.315-.147.164 4.023-.094c.37-.362-3.888-.945-2.406-1.28.638-.1 1.287-.107 1.927-.022l.207-.148h.373l-.22.167-.022.02.473.066h.038l.185-.066-.02.236v.035s-1.88-.283-2.403-.18c-.642.113 3.06.96 2.732 1.203z" fill="url(#F)"/><path d="M21.423 85.76l-.226 1.524c-.484.212-.98.397-1.485.554l-.667.2-.294.085-.642.167-.8.18-1.444.27-1.137.157-1.27.126-.313.022-.94.047-.8.02h-1.206c-.473 0-.924-.035-1.354-.063l-1.188-.107-1.094-.145-1.736-.34-.2-.053-1.438-.43-.54-.205-.257-.107c-.277-.116-.546-.253-.802-.41l-.1-.4.197.36s3.553 1.94 9.478 1.76 9.945-1.89 9.945-1.89l.3-1.332z" style="mix-blend-mode:multiply" class="B D"/><g class="C"><path d="M2.43 85.58s4.302 1.984 8.378 1.946 8.98-1.86 8.98-1.86-5.45 1.634-9.008 1.596-8.35-1.68-8.35-1.68z" style="mix-blend-mode:color-dodge" class="I"/><path d="M9.16 85.482l3.262.003-1.786.047-1.476-.05z" style="mix-blend-mode:color-dodge"/><path d="M11.916 84.566l1.498.45.548.274-2.046-.724zm1.17-.46l.163-.148-.3-.01-.213.126.207-.148.373.013-.22.167zm.675.006l-.02.236-.006.035-.016-.23-.18.044.034-.02.185-.066z" style="mix-blend-mode:color-dodge" class="I"/></g><path d="M39.26 86.97l-.342 2.295c-.483.214-.978.4-1.482.554l-.667.205-.294.082-.645.167-.787.183-1.448.268-1.137.16-1.253.123-.313.025-.94.047-.793.02h-1.203c-.473 0-.924-.032-1.357-.063l-1.187-.107-1.1-.145-1.736-.34-.2-.05-1.44-.43-.536-.205-.26-.1a5.77 5.77 0 0 1-.799-.406l-.103-.4-.36-1.37-.14-.542v-.028c3.017-1.352 6.28-2.064 9.582-2.1 5.223-.047 10.716 2.065 10.945 2.157v-.006z" fill="url(#G)"/><path d="M39.25 86.966c-1.795.806-6.47 2.415-10.653 2.364a24.6 24.6 0 0 1-9.854-2.402V86.9c3.017-1.352 6.28-2.064 9.582-2.09 5.204-.047 10.697 2.065 10.926 2.157z" style="mix-blend-mode:color-dodge" class="C N"/><path d="M36.764 87.24l-.686.17s-3.948-1.47-7.658-1.436c-3.572.03-5.872 1.017-6.458 1.288l-.646-.26a17.54 17.54 0 0 1 7.141-1.612c3.876-.038 8.306 1.85 8.306 1.85z" style="mix-blend-mode:multiply" class="D T"/><path d="M22.35 87.434l6.323 1.042c1.714.057 7.272-.995 7.272-.995s-5.42 1.155-7.266 1.093-6.33-1.14-6.33-1.14z" style="mix-blend-mode:color-dodge" class="C"/><g class="D"><path d="M20.445 86.358l.877.412 1.52-.532-.436-.507-1.962.627zm7.072-1.07a17.78 17.78 0 0 0-3.133.51l-.373-.53c1.154-.225 2.323-.368 3.497-.428l.01.447z" style="mix-blend-mode:multiply" class="E"/><path d="M35.213 87.296c-1.476-.258-4.653-.75-6.082-.438-.907.184-1.744.62-2.416 1.26-2.002-.3-4.205-.834-4.205-.834 1.884-.73 3.88-1.127 5.897-1.174 2.557-.038 5.624.822 6.806 1.187z" style="mix-blend-mode:multiply" class="T"/><path d="M19.96 87.992l.176 1.643a5.77 5.77 0 0 1-.799-.406l-.464-1.76 1.087.523z" style="mix-blend-mode:multiply" class="B"/><path d="M20.828 88.442l.1 1.51-.536-.205-.12-1.574.545.268z" style="mix-blend-mode:multiply" opacity=".64"/><path d="M22.3 88.863l.332.082-.05 1.486-.2-.05-.072-1.517zm1.97.497l1.18.268-.044 1.288-1.1-.145-.047-1.4z" style="mix-blend-mode:multiply" opacity=".5"/><path d="M26.64 89.8l1.354.07-.04 1.228c-.473 0-.924-.03-1.357-.063l.044-1.234z" style="mix-blend-mode:multiply" class="E"/><path d="M29.852 89.875l.097 1.203-.793.02-.094-1.174.8-.047zm1.218-.195l.122 1.326-.313.025-.103-1.338.295-.013z" style="mix-blend-mode:multiply" class="O"/><path d="M33.543 89.153l.053 1.574-1.137.16-.044-1.48 1.128-.255z" style="mix-blend-mode:multiply" class="E"/><path d="M35.664 88.53l.16 1.74-.786.183-.12-1.672.746-.252z" style="mix-blend-mode:multiply" class="L"/><path d="M36.538 88.237l.232 1.785-.295.082-.13-1.766.194-.1z" style="mix-blend-mode:multiply" class="B"/><path d="M39.214 87.283l-.294 1.98a13.46 13.46 0 0 1-1.482.554l.06-1.785 1.717-.75z" style="mix-blend-mode:multiply" opacity=".56"/></g><path d="M28.197 86.276l.14.43 2.463.8-2.886.117h-1.75l.06.4 1.723.06v.192l.57.02.282-.233 2.986-.236v-.425l-1-.33-1.73-.61a1.55 1.55 0 0 0 .26-.022c.254-.03 2.128.176 2.128.176l.02-.315-1.513-.145-1.166-.038-.248.246-.338-.076z" fill="url(#H)"/><path d="M31.78 87.415c-.288.22-1.714.27-3.058.268l-.197.15h-.564l.213-.15c-1.097 0-2.012-.053-2.012-.053l.874-.315-.147.167 4.026-.098c.367-.36-3.888-.944-2.406-1.28a6.86 6.86 0 0 1 1.924-.019l.207-.148h.376l-.22.167h-.025l.473.066h.038l.188-.066-.02.236v.038s-1.88-.283-2.403-.18c-.652.126 3.052.976 2.732 1.218z" fill="url(#I)"/><path d="M39.145 87.75l-.226 1.52a13.46 13.46 0 0 1-1.482.554l-.667.205-.295.082-.645.167-.787.183-1.448.268-1.137.16-1.253.123-.313.025-.94.047-.793.02h-1.203c-.473 0-.924-.03-1.357-.063l-1.187-.107-1.1-.145-1.736-.34-.2-.05-1.44-.43-.536-.205-.26-.1c-.276-.114-.544-.25-.8-.406l-.103-.4.197.356s3.556 1.942 9.478 1.76 9.948-1.89 9.948-1.89l.285-1.332z" style="mix-blend-mode:multiply" class="B D"/><g class="C"><path d="M20.154 87.564s4.302 1.983 8.375 1.942 8.98-1.858 8.98-1.858-5.45 1.634-9.005 1.593-8.35-1.678-8.35-1.678z" style="mix-blend-mode:color-dodge" class="I"/><path d="M26.884 87.466h3.262l-1.786.05-1.476-.05z" style="mix-blend-mode:color-dodge"/><path d="M29.638 86.547l1.5.453.548.274-2.05-.727zM30.8 86.1l.163-.148-.3-.01-.216.126.207-.148.376.013-.22.167zm.684-.007l-.02.236-.006.035-.016-.227-.182.04.034-.02.188-.066z" style="mix-blend-mode:color-dodge" class="I"/></g><path d="M28.25 83.74l.044.397.06.582.207 1.924c-.407.372-.837.717-1.288 1.033l-.592.41-.263.173-.58.36-.714.41-1.332.677-1.062.466-1.197.453-.313.104-.887.28-.764.21-.66.164-.514.113-1.332.246-1.184.154-1.103.082a17.61 17.61 0 0 1-1.783 0h-.216c-.5-.035-1.017-.098-1.52-.19l-.58-.123-.28-.072a5.72 5.72 0 0 1-.893-.315l-.207-.456-1.018-2.226v-.035c2.468-2.317 5.468-3.984 8.733-4.852 5.064-1.303 10.985-.016 11.236.038l.003-.006z" fill="url(#J)"/><path d="M28.244 83.738c-1.523 1.42-5.618 4.508-9.688 5.444-4.772 1.1-9.557-.315-10.265-.595v-.035c2.468-2.317 5.468-3.984 8.733-4.852 5.048-1.303 10.97-.016 11.22.038z" style="mix-blend-mode:color-dodge" class="C N"/><path d="M25.9 84.674l-.627.368s-4.243-.863-7.833.063c-3.462.89-5.424 2.648-5.92 3.12l-.7-.167c1.818-1.75 4.044-3.014 6.473-3.677 3.776-.973 8.604.293 8.604.293z" style="mix-blend-mode:multiply" class="B D"/><g class="C"><path d="M11.945 88.338s4.753.1 6.436-.227 6.8-2.956 6.8-2.956-4.948 2.7-6.756 3.073-6.47.1-6.47.1zm-2.147-.86l.968.3 1.325-1.02-.564-.516-1.73 1.237z" style="mix-blend-mode:color-dodge"/><path d="M16.366 84.478a14.6 14.6 0 0 0-2.911 1.376l-.508-.56c1.054-.55 2.155-1.007 3.3-1.36l.128.545z" style="mix-blend-mode:color-dodge" opacity=".78"/></g><g class="D"><path d="M24.4 85.1c-1.507.03-4.728.2-6.032.913-.867.482-1.565 1.22-2 2.116-1.44.07-2.882.06-4.32-.022 1.585-1.318 3.427-2.3 5.408-2.85 2.466-.652 5.693-.324 6.943-.157zM9.78 89.6l.627 1.977a5.71 5.71 0 0 1-.893-.315l-.94-2.053 1.206.4zm.968.353l.52 1.826-.58-.123-.555-1.92.614.217z" style="mix-blend-mode:multiply" class="B"/><path d="M12.296 90.113l.345.022.364 1.84h-.216l-.492-1.86zm2.06.155l1.222.047.313 1.593L14.8 92l-.432-1.722z" style="mix-blend-mode:multiply" class="L"/><path d="M16.77 90.214l1.338-.236.298 1.518-1.332.246-.304-1.527z" style="mix-blend-mode:multiply" class="E"/><path d="M19.916 89.557l.43 1.45-.765.2-.417-1.42.752-.242zm1.13-.547l.486 1.603-.313.104-.47-1.618.298-.088z" style="mix-blend-mode:multiply" class="O"/><path d="M23.303 87.787l.49 1.917-1.062.466-.454-1.79 1.028-.592z" style="mix-blend-mode:multiply" class="E"/><path d="M25.2 86.518l.627 2.1-.714.41-.583-2.024.67-.485z" style="mix-blend-mode:multiply" class="L"/><path d="M25.95 85.95l.72 2.135-.263.173-.627-2.138.17-.17zm2.344-1.812l.266 2.52a12.88 12.88 0 0 1-1.288 1.033l-.44-2.204 1.46-1.347z" style="mix-blend-mode:multiply" class="B"/></g><path d="M17.31 85.527l.257.497 2.613.397-2.77.828-1.7.42.163.466 1.695-.337.047.24.558-.113.2-.356 2.82-1V86.5l-.088-.44-1.065-.167-1.85-.34.244-.088c.244-.088 2.118-.293 2.118-.293l-.072-.403-1.513.183-1.144.23-.17.362-.354-.006z" fill="url(#K)"/><path d="M21.103 86.075c-.216.34-1.59.743-2.895 1.06l-.15.23-.548.13.163-.233-1.968.412.758-.61-.097.24s3.76-.8 3.885-1.077c.257-.532-4.045-.246-2.695-1 .588-.272 1.22-.436 1.864-.485v-.016l.16-.23.367-.076-.166.258v.028l.476-.03.034-.025.163-.126.047.296v.044s-1.918.104-2.384.353c-.605.33 3.23.485 2.986.86z" fill="url(#L)"/><path d="M28.354 84.72l.207 1.924c-.407.37-.837.716-1.288 1.033l-.592.41-.263.173-.58.36-.714.41-1.332.677-1.062.466-1.197.453-.313.104-.887.28-.764.21-.66.164-.514.113-1.332.246-1.184.154-1.103.082a17.61 17.61 0 0 1-1.783 0h-.216c-.5-.035-1.017-.098-1.52-.19l-.58-.123-.28-.072a5.71 5.71 0 0 1-.893-.315l-.207-.457.29.394s3.992 1.533 9.713-.098 9.137-4.704 9.137-4.704l-.085-1.694z" style="mix-blend-mode:multiply" class="B D"/><g class="C"><path d="M9.848 89.027s4.734 1.41 8.68.4 8.212-4.423 8.212-4.423-4.84 3.306-8.3 4.093-8.582-.06-8.582-.06z" style="mix-blend-mode:color-dodge" class="I"/><path d="M16.363 87.302l3.17-.775-1.723.485-1.448.3z" style="mix-blend-mode:color-dodge"/><path d="M18.785 85.52l1.582.198.608.205-2.2-.403zm1.01-.843l.12-.22-.304.063-.175.205.163-.23.363-.076-.166.258zm.658-.155l.047.296.003.044-.078-.277-.163.094.028-.03.163-.126z" style="mix-blend-mode:color-dodge" class="I"/></g><path d="M54 86.305l-.128.397-.185.582-.627 1.917c-.524.185-1.06.334-1.604.447l-.708.14-.313.05-.677.1-.82.09-1.495.085h-1.16c-.4 0-.84-.032-1.282-.07l-.313-.028-.924-.104-.783-.12-.67-.123-.514-.107-1.32-.315c-.417-.104-.78-.23-1.14-.35l-1.037-.387a16.99 16.99 0 0 1-1.62-.752l-.19-.104a13.31 13.31 0 0 1-1.307-.819l-.473-.36-.226-.19a5.48 5.48 0 0 1-.683-.667v-3.114c3.2-1.165 6.623-1.5 9.973-.944 5.154.885 10.008 4.6 10.212 4.757l.016-.016z" fill="url(#M)"/><path d="M53.994 86.298c-1.977.715-6.997 1.94-11.092 1.12-4.8-.96-8.56-4.323-9.087-4.883v-.04c3.2-1.165 6.623-1.5 9.973-.944 5.148.875 10.002 4.6 10.205 4.748z" style="mix-blend-mode:color-dodge" class="C N"/><path d="M51.47 86.204l-.718.094s-3.497-2.6-7.163-3.237a13.06 13.06 0 0 0-6.674.488l-.567-.456c2.368-.9 4.927-1.17 7.43-.784 3.826.658 7.692 3.895 7.692 3.895z" style="mix-blend-mode:multiply" class="B D"/><path d="M37.23 83.836s4.28 2.103 5.953 2.487 7.416.035 7.416.035-5.64.507-7.432.09-5.938-2.613-5.938-2.613z" style="mix-blend-mode:color-dodge" class="C"/><g class="D"><path d="M35.642 82.114l.758.7 1.633-.412-.295-.73-2.096.453zM42.87 82c-1.074-.093-2.154-.062-3.22.1l-.23-.75c1.184-.084 2.374-.057 3.553.082L42.87 82z" style="mix-blend-mode:multiply" class="E"/><path d="M49.93 85.996c-1.385-.6-4.387-1.807-5.87-1.666-1 .102-1.946.514-2.704 1.177-1.34-.54-2.65-1.154-3.923-1.835 1.98-.6 4.065-.74 6.1-.444 2.516.428 5.32 2.084 6.386 2.767z" style="mix-blend-mode:multiply" opacity=".5"/><path d="M34.743 84.13l-.254 2.147a5.48 5.48 0 0 1-.683-.667v-2.352l.937.872zm.733.735l-.288 1.958-.473-.36.294-2.062.467.463z" style="mix-blend-mode:multiply" class="B"/><path d="M36.817 85.675l.313.167-.445 1.908-.2-.104.323-1.97zm1.81.997l1.094.56-.38 1.653-1.037-.387.323-1.826z" style="mix-blend-mode:multiply" class="L"/><path d="M40.846 87.65l1.316.337-.36 1.574-1.32-.315.364-1.596z" style="mix-blend-mode:multiply" class="E"/><path d="M43.986 88.344l-.216 1.574-.783-.12.213-1.533.786.08zm1.254-.03L45 90.045l-.313-.028.248-1.74.294.038z" style="mix-blend-mode:multiply" class="O"/><path d="M47.805 88.084l-.354 2.034h-1.16l.338-1.914 1.175-.12z" style="mix-blend-mode:multiply" class="E"/><path d="M50.077 87.668l-.313 2.286-.82.09.313-2.175.82-.2z" style="mix-blend-mode:multiply" class="L"/><path d="M50.992 87.434l-.235 2.34-.313.05.33-2.295.22-.094zm2.88-.734l-.802 2.5a12.38 12.38 0 0 1-1.604.447l.523-2.292 1.883-.655z" style="mix-blend-mode:multiply" class="B"/></g><path d="M43.294 83.407l.028.582 2.212 1.477-2.867-.375-1.723-.315-.044.513 1.68.387-.056.25.558.13.338-.252 3 .24.02-.08.103-.46-.9-.608-1.542-1.1c.086.016.173.02.26.016.257 0 2.05.614 2.05.614l.103-.416-1.448-.46-1.137-.264-.313.274-.32-.154z" fill="url(#N)"/><path d="M46.52 85.527c-.338.23-1.758.038-3.08-.208l-.232.157-.55-.107.244-.154-1.962-.434.94-.26-.188.186s3.76.816 3.986.604c.457-.397-3.578-1.933-2.034-2.087.647-.014 1.29.093 1.9.315h.016l.24-.154.367.085-.26.173-.028.016.448.173h.04l.2-.05-.078.3v.044s-1.79-.705-2.32-.664c-.7.05 2.726 1.814 2.35 2.07z" fill="url(#O)"/><path d="M53.687 87.283L53.06 89.2c-.524.185-1.06.334-1.604.447l-.708.14-.313.05-.677.1-.82.09-1.495.085h-1.16c-.4 0-.84-.03-1.282-.07l-.313-.028-.924-.104-.783-.12-.67-.123-.514-.107-1.32-.315c-.417-.104-.78-.23-1.14-.35L38.3 88.51a16.99 16.99 0 0 1-1.62-.752l-.19-.104a13.33 13.33 0 0 1-1.307-.819l-.473-.36-.226-.19a5.47 5.47 0 0 1-.683-.667v-.523l.103.498s2.992 3.148 8.867 3.983 10.284-.63 10.284-.63l.633-1.665z" style="mix-blend-mode:multiply" class="B D"/><g class="C"><path d="M35.037 83.61s3.72 3.337 7.736 4.024 9.322-.768 9.322-.768-5.787 1.118-9.278.422-7.78-3.677-7.78-3.677z" style="mix-blend-mode:color-dodge" class="I"/><path d="M41.692 84.702l3.208.595-1.77-.26-1.438-.334z" style="mix-blend-mode:color-dodge"/><path d="M44.64 84.022l1.36.853.467.453-1.827-1.307zm1.273-.382l.197-.157-.3-.07-.244.123.24-.154.367.085-.26.173zm.66.133l-.08.3-.013.044.04-.296-.185.02.038-.016.2-.05z" style="mix-blend-mode:color-dodge" class="I"/></g><path d="M34.33 83.684l-.1.287-.69 1.82a14.15 14.15 0 0 1-1.52.214l-.674.053-.298.016-.646.025H29.6c-.442 0-.918-.02-1.426-.047l-1.11-.088-1.228-.148-.313-.044-.9-.148-.752-.148-.645-.142-.495-.117-1.272-.343-1.103-.35-1.006-.36-1.567-.686-.185-.09-1.275-.712-.467-.315-.222-.157c-.238-.167-.464-.352-.674-.554l-.02-.4-.078-1.917v-.028c3.14-.648 6.377-.64 9.513.025 4.96 1.045 9.713 4.197 9.926 4.33l.006.016z" fill="url(#P)"/><path d="M34.323 83.678c-1.88.387-6.633.945-10.578.016-3.222-.813-6.24-2.292-8.86-4.342v-.028c3.14-.648 6.377-.64 9.513.025 4.96 1.045 9.726 4.197 9.926 4.33z" style="mix-blend-mode:color-dodge" class="C N"/><path d="M31.904 83.42l-.686.016s-3.447-2.204-6.96-2.96c-3.393-.718-5.775-.264-6.386-.132l-.558-.384c2.333-.508 4.746-.52 7.084-.038 3.7.78 7.504 3.498 7.504 3.498z" style="mix-blend-mode:multiply" opacity=".63" class="D"/><path d="M18.208 80.586l5.775 2.308c1.6.42 7.1.58 7.1.58s-5.377-.04-7.1-.485-5.765-2.402-5.765-2.402zm-1.582-1.413l.746.576 1.55-.2-.307-.57-2 .183z" style="mix-blend-mode:color-dodge" class="C"/><g class="D"><path d="M23.54 79.633a17.33 17.33 0 0 0-3.08-.17l-.244-.58a23.99 23.99 0 0 1 3.403.315l-.078.434zm6.885 3.517c-1.344-.554-4.252-1.68-5.67-1.684-.9-.02-1.8.215-2.563.68-1.836-.693-3.813-1.67-3.813-1.67a16.94 16.94 0 0 1 5.834.12c2.435.5 5.186 1.96 6.213 2.553z" style="mix-blend-mode:multiply" opacity=".63"/><path d="M15.827 80.622l-.172 1.593a5.67 5.67 0 0 1-.674-.554l-.075-1.763.92.724zm.723.603l-.213 1.45-.467-.315.216-1.527.464.4z" style="mix-blend-mode:multiply" class="B"/><path d="M17.867 81.934l.295.148-.357 1.398-.185-.1.247-1.454zm1.763.886l1.062.5-.313 1.212-1.006-.365.257-1.348z" style="mix-blend-mode:multiply" class="L"/><path d="M21.783 83.72l1.27.35-.29 1.155-1.272-.343.294-1.162z" style="mix-blend-mode:multiply" class="E"/><path d="M24.8 84.472l-.157 1.16-.752-.148.154-1.133.755.123zm1.207.068l-.16 1.28-.313-.044.18-1.288.295.05z" style="mix-blend-mode:multiply" class="O"/><path d="M28.457 84.56l-.273 1.5-1.11-.088.263-1.414 1.12.003z" style="mix-blend-mode:multiply" class="E"/><path d="M30.604 84.415l-.2 1.684H29.6l.235-1.61.758-.076z" style="mix-blend-mode:multiply" class="L"/><path d="M31.487 84.317l-.15 1.74-.298.016.24-1.7.207-.057zm2.733-.347l-.7 1.82a14.12 14.12 0 0 1-1.52.214l.43-1.68 1.78-.353z" style="mix-blend-mode:multiply" class="B"/></g><path d="M23.99 80.716l.044.438 2.168 1.26-2.757-.494-1.66-.365-.025.384 1.623.416-.047.183.536.14.313-.164 2.876.4v-.057l.085-.337-.88-.523-1.513-.945c.082.02.166.03.25.032.248.025 1.983.614 1.983.614l.085-.315-1.407-.453-1.097-.28-.285.183-.29-.113z" fill="url(#Q)"/><path d="M27.144 82.545c-.313.148-1.68-.104-2.952-.387l-.216.1-.536-.12.232-.098-1.88-.472.896-.126-.172.126 3.832.75c.423-.264-3.487-1.716-2.015-1.716a6.62 6.62 0 0 1 1.83.381h.016l.226-.098.354.088-.244.113H26.5l.436.16h.038l.19-.022-.07.217v.035s-1.76-.655-2.262-.655c-.658-.022 2.676 1.574 2.322 1.722z" class="U"/><path d="M34.06 84.393l-.53 1.398c-.502.1-1 .17-1.52.214l-.674.053-.298.016-.646.025H29.6a25.95 25.95 0 0 1-1.426-.047l-1.11-.088-1.228-.148-.313-.044-.9-.148-.752-.148-.645-.142-.495-.116-1.272-.343-1.103-.35-1.006-.36-1.567-.686-.185-.09-1.275-.712-.467-.315-.222-.157c-.238-.167-.464-.352-.674-.554l-.02-.4.116.378s2.964 2.582 8.617 3.652 9.817.28 9.817.28l.548-1.177z" style="mix-blend-mode:multiply" class="B D"/><g class="C"><path d="M16.1 80.253s3.666 2.78 7.536 3.592 8.896.126 8.896.126-5.502.41-8.867-.37-7.564-3.347-7.564-3.347z" style="mix-blend-mode:color-dodge" class="I"/><path d="M22.498 81.57l3.1.683-1.7-.328-1.388-.356z" style="mix-blend-mode:color-dodge"/><path d="M25.3 81.273l1.33.743.46.375-1.8-1.118zm1.202-.19l.185-.104-.3-.076-.23.076.226-.098.354.088-.244.113zm.638.148l-.07.217-.012.03.03-.217h-.18l.038-.01.2-.022z" style="mix-blend-mode:color-dodge" class="I"/></g><path d="M42.805 79.83l-.085.37-.125.54-.4 1.788a12.1 12.1 0 0 1-1.504.523l-.67.183-.295.072-.642.138-.787.145-1.43.19-1.122.088-1.253.035h-.313c-.295 0-.595 0-.902-.025-.254 0-.508-.028-.768-.05l-.658-.06-.504-.057-1.303-.198-1.13-.233-1.037-.27a17.28 17.28 0 0 1-1.636-.56l-.197-.08c-.456-.19-.902-.406-1.335-.645l-.495-.3-.235-.154a5.49 5.49 0 0 1-.724-.554l-.047-.472-.244-2.317v-.035c2.997-1.31 6.267-1.865 9.525-1.618 5.054.413 10.092 3.42 10.305 3.545h.022z" fill="url(#R)"/><path d="M42.798 79.828c-1.84.796-6.56 2.286-10.587 1.85-4.722-.507-8.673-3.274-9.24-3.743V77.9c2.997-1.31 6.266-1.865 9.525-1.618 5.048.412 10.09 3.42 10.302 3.545z" style="mix-blend-mode:color-dodge" class="C N"/><path d="M40.364 79.932l-.683.14s-3.632-2.1-7.207-2.396c-2.18-.22-4.38.105-6.404.945l-.592-.368a14.77 14.77 0 0 1 7.091-1.259c3.748.3 7.796 2.94 7.796 2.94z" style="mix-blend-mode:multiply" class="B D"/><path d="M26.405 78.858s4.33 1.574 5.978 1.807 7.153-.53 7.153-.53-5.386.885-7.16.63-5.972-1.908-5.972-1.908zm-1.705-1.44l.796.57 1.535-.5-.357-.64-1.974.57zm6.963-.64a14.37 14.37 0 0 0-3.1.315l-.294-.66a19.81 19.81 0 0 1 3.447-.195l-.053.54z" style="mix-blend-mode:color-dodge" class="C"/><g class="D"><path d="M38.85 79.86c-1.39-.44-4.387-1.3-5.822-1.067a4.69 4.69 0 0 0-2.507 1.259 40.64 40.64 0 0 1-3.945-1.357c1.87-.687 3.862-.98 5.85-.863 2.466.186 5.33 1.49 6.423 2.028z" style="mix-blend-mode:multiply" opacity=".45"/><path d="M24.024 79.315l-.038 1.965a5.49 5.49 0 0 1-.724-.554L23.04 78.6l.984.724z" style="mix-blend-mode:multiply" opacity=".63"/><path d="M24.804 79.925l-.088 1.798-.495-.3.088-1.89.495.38z" style="mix-blend-mode:multiply" class="B"/><path d="M26.176 80.56l.313.13-.235 1.76-.197-.08.12-1.8zm1.844.767l1.106.425-.204 1.527-1.037-.27.135-1.68z" style="mix-blend-mode:multiply" class="L"/><path d="M30.25 82.048l1.3.208-.194 1.455-1.303-.198.197-1.464z" style="mix-blend-mode:multiply" class="E"/><path d="M33.342 82.44l-.056 1.436c-.254 0-.508-.028-.768-.05l.06-1.404.764.02zm1.206-.125l-.05 1.6h-.313l.07-1.596.294.006z" style="mix-blend-mode:multiply" class="O"/><path d="M37.002 81.912l-.144 1.87-1.122.088.144-1.763 1.122-.195z" style="mix-blend-mode:multiply" class="E"/><path d="M39.14 81.368l-.066 2.08-.786.145.097-1.996.755-.23z" style="mix-blend-mode:multiply" class="L"/><path d="M40.013 81.097v2.14l-.295.072.097-2.11.197-.104z" style="mix-blend-mode:multiply" class="B"/><path d="M42.72 80.193l-.536 2.33a12.08 12.08 0 0 1-1.504.523l.285-2.116 1.755-.737z" style="mix-blend-mode:multiply" opacity=".55"/></g><path d="M32.217 78.014l.08.526 2.278 1.17-2.804-.123-1.69-.157v.47l1.657.227-.03.23.552.076.313-.255h2.914v-.073l.056-.422-.924-.482-1.595-.882c.084.007.17.007.254 0 .25 0 2.037.403 2.037.403l.034-.42-1.448-.315-1.122-.154-.27.27-.294-.09z" fill="url(#S)"/><path d="M35.517 79.693c-.313.233-1.692.167-2.99.04l-.207.16-.545-.054.223-.16-1.933-.242.884-.315-.163.183s3.694.456 3.904.252c.398-.397-3.64-1.486-2.165-1.74.63-.062 1.267-.012 1.88.148l.22-.157.36.047-.235.18-.025.02.45.123h.038l.188-.06-.05.277v.044s-1.792-.507-2.3-.43c-.667.085 2.804 1.426 2.466 1.688z" class="U"/><path d="M42.595 80.744l-.41 1.788a12.1 12.1 0 0 1-1.504.523l-.67.183-.294.072-.642.14-.786.145-1.43.19-1.122.088-1.253.035h-.313c-.294 0-.595 0-.902-.025-.254 0-.508-.028-.768-.05l-.658-.06-.505-.057-1.303-.198-1.13-.233-1.037-.27-1.636-.56-.197-.08c-.456-.19-.902-.406-1.335-.645l-.495-.3-.235-.154a5.49 5.49 0 0 1-.724-.554l-.047-.472.147.44s3.187 2.626 8.933 2.944 9.854-1.357 9.854-1.357l.464-1.54z" style="mix-blend-mode:multiply" class="B D"/><g class="C"><path d="M24.265 78.82s3.907 2.742 7.833 3.063 8.914-1.4 8.914-1.4-5.474 1.45-8.908 1.083-7.84-2.745-7.84-2.745z" style="mix-blend-mode:color-dodge" class="I"/><path d="M30.782 79.31l3.152.296L32.2 79.5l-1.42-.192z" style="mix-blend-mode:color-dodge"/><path d="M33.56 78.468l1.4.67.495.378-1.886-1.048zm1.2-.44l.175-.16-.298-.038-.222.13.22-.157.357.047-.232.18zm.65.07l-.05.277-.01.04.013-.27-.18.03.038-.02.188-.06z" style="mix-blend-mode:color-dodge" class="I"/></g><path d="M35.802 73.333l-.04.378-.06.548-.204 1.82c-.462.262-.94.493-1.432.693l-.645.258-.285.104-.627.214-.765.233-1.398.353-1.103.217-1.228.176-.313.035-.9.08-.768.04-.66.016h-.508c-.46 0-.896-.02-1.316-.044l-1.153-.1-1.062-.148-1.69-.365-.2-.057a13.51 13.51 0 0 1-1.404-.485l-.523-.23-.25-.123c-.274-.134-.536-.29-.783-.47l-.608-2.717v-.035a20.06 20.06 0 0 1 9.278-2.704c5.067-.176 10.415 2.22 10.653 2.32l-.006-.006z" fill="url(#T)"/><path d="M35.795 73.33c-1.736 1-6.267 3.022-10.302 3.057-4.75.044-8.993-2.24-9.607-2.638v-.035a20.06 20.06 0 0 1 9.278-2.704c5.057-.176 10.406 2.22 10.63 2.32z" style="mix-blend-mode:color-dodge" class="C N"/><path d="M33.383 73.714l-.66.217s-3.848-1.662-7.448-1.536c-3.465.117-5.687 1.34-6.267 1.678l-.627-.3c2.093-1.25 4.46-1.965 6.893-2.08 3.79-.13 8.11 2.02 8.11 2.02z" style="mix-blend-mode:multiply" class="B D"/><g class="C"><path d="M19.4 74.265s4.484 1.067 6.148 1.1 7.044-1.35 7.044-1.35-5.245 1.5-7.034 1.464-6.157-1.212-6.157-1.212zm-1.86-1.235l.86.472 1.466-.67-.426-.592-1.9.8zm6.844-1.436a14.52 14.52 0 0 0-3.039.68l-.367-.63a19.66 19.66 0 0 1 3.387-.582l.02.532z" style="mix-blend-mode:color-dodge"/><path d="M31.88 73.818c-1.435-.277-4.52-.787-5.903-.384a4.7 4.7 0 0 0-2.334 1.546 41.26 41.26 0 0 1-4.073-.897 14.51 14.51 0 0 1 5.712-1.533c2.456-.098 5.45.86 6.6 1.27z" style="mix-blend-mode:color-dodge" opacity=".78"/></g><g class="D"><path d="M17.1 75l.188 1.955a5.22 5.22 0 0 1-.783-.47l-.467-2.087 1.062.6zm.832.515l.12 1.8-.523-.23-.132-1.9.536.328z" style="mix-blend-mode:multiply" class="B"/><path d="M19.37 75.975l.313.1-.034 1.773-.2-.057-.078-1.807zm1.915.548l1.15.293-.028 1.536-1.062-.148-.06-1.68z" style="mix-blend-mode:multiply" class="L"/><path d="M23.588 76.98l1.316.053-.028 1.464c-.46 0-.896-.02-1.316-.044l.028-1.474z" style="mix-blend-mode:multiply" class="E"/><path d="M26.706 77l.107 1.43-.768.04-.103-1.4.765-.07zm1.18-.254l.132 1.574-.313.035-.113-1.6.295-.02z" style="mix-blend-mode:multiply" class="O"/><path d="M30.278 76.066l.072 1.867-1.103.217-.06-1.763 1.1-.32z" style="mix-blend-mode:multiply" class="E"/><path d="M32.336 75.28l.175 2.07-.764.233-.132-2 .72-.312z" style="mix-blend-mode:multiply" class="L"/><path d="M33.176 74.907l.244 2.122-.285.104-.147-2.1.188-.126zM35.76 73.7l-.263 2.368a12.26 12.26 0 0 1-1.432.693l.038-2.132 1.657-.93z" style="mix-blend-mode:multiply" class="B"/></g><path d="M25.06 72.757l.144.513 2.397.894-2.798.205-1.698.04.06.463 1.673.03v.233h.555l.27-.287 2.892-.346v-.5l-.975-.37-1.676-.68c.085 0 .17-.01.25-.03.248-.044 2.068.16 2.068.16v-.387l-1.47-.14-1.13-.022-.238.315-.323-.09z" fill="url(#U)"/><path d="M28.548 74.035c-.276.268-1.66.362-2.964.4l-.188.18h-.548l.204-.183c-1.062 0-1.95-.02-1.95-.02l.843-.41-.14.2s3.72.025 3.904-.205c.354-.438-3.785-1.048-2.347-1.473a5.4 5.4 0 0 1 1.88-.069l.197-.18h.363l-.2.205-.02.022.457.07h.038l.182-.085-.02.283v.04s-1.84-.293-2.33-.157c-.65.164 2.955 1.092 2.648 1.388z" class="U"/><path d="M35.7 74.258l-.204 1.82c-.462.262-.94.493-1.432.693l-.645.258-.285.104-.627.214-.765.233-1.397.353-1.103.217-1.228.176-.313.035-.9.08-.768.04-.66.016h-.508c-.46 0-.896-.02-1.316-.044l-1.153-.1-1.062-.148-1.69-.365-.2-.057a13.51 13.51 0 0 1-1.404-.485l-.523-.23-.25-.123c-.274-.134-.536-.29-.783-.47l-.103-.463.197.422s3.47 2.232 9.215 1.89 9.63-2.48 9.63-2.48l.28-1.584z" style="mix-blend-mode:multiply" class="B D"/><g class="C"><path d="M17.27 74.473s4.195 2.267 8.147 2.128 8.695-2.418 8.695-2.418-5.27 2.07-8.723 2.103-8.118-1.813-8.118-1.813z" style="mix-blend-mode:color-dodge" class="I"/><path d="M23.8 74.205l3.165-.072-1.733.098-1.432-.025z" style="mix-blend-mode:color-dodge"/><path d="M26.464 73.05l1.46.507.533.312-1.993-.82zm1.132-.573l.157-.18-.3-.006-.207.157.197-.18.363.003-.2.205zm.654-.01l-.02.283-.006.04-.016-.27-.175.053.034-.022.182-.085z" style="mix-blend-mode:color-dodge" class="I"/></g><defs><linearGradient id="A" x1="19.882" y1="79.519" x2="26.393" y2="85.208" xlink:href="#Y"><stop stop-color="#c1462a"/><stop offset=".16" stop-color="#c75028"/><stop offset=".43" stop-color="#d66c22"/><stop offset=".78" stop-color="#ee9919"/><stop offset="1" stop-color="#ffba12"/></linearGradient><linearGradient id="B" x1="1508.2" y1="825.41" x2="1515.85" y2="761.534" xlink:href="#Y"><stop stop-color="#c1462a"/><stop offset=".16" stop-color="#c75028"/><stop offset=".43" stop-color="#d66c22"/><stop offset=".78" stop-color="#ee9919"/><stop offset="1" stop-color="#ffba12"/></linearGradient><linearGradient id="C" x1="17.911" y1="77.174" x2="20.136" y2="79.272" xlink:href="#Y"><stop stop-color="#c16642"/><stop offset=".2" stop-color="#c9703c"/><stop offset=".55" stop-color="#dd8c2c"/><stop offset="1" stop-color="#ffba12"/></linearGradient><linearGradient id="D" x1="3879.06" y1="2553.97" x2="3840.8" y2="2301.94" xlink:href="#Y"><stop stop-color="#c1462a"/><stop offset=".16" stop-color="#c75028"/><stop offset=".43" stop-color="#d66c22"/><stop offset=".78" stop-color="#ee9919"/><stop offset="1" stop-color="#ffba12"/></linearGradient><linearGradient id="E" x1="993.192" y1="895.267" x2="999.459" y2="845.55" xlink:href="#Y"><stop stop-color="#c1462a"/><stop offset=".16" stop-color="#c75028"/><stop offset=".43" stop-color="#d66c22"/><stop offset=".78" stop-color="#ee9919"/><stop offset="1" stop-color="#ffba12"/></linearGradient><linearGradient id="F" x1="11.877" y1="91.468" x2="11.246" y2="85.395" xlink:href="#Y"><stop stop-color="#c16642"/><stop offset=".13" stop-color="#c5703f"/><stop offset=".36" stop-color="#d28c35"/><stop offset=".66" stop-color="#e5ba26"/><stop offset="1" stop-color="#fff612"/></linearGradient><linearGradient id="G" x1="4803" y1="2487.67" x2="4846.41" y2="2697.66" xlink:href="#Y"><stop stop-color="#c1462a"/><stop offset=".16" stop-color="#c75028"/><stop offset=".43" stop-color="#d66c22"/><stop offset=".78" stop-color="#ee9919"/><stop offset="1" stop-color="#ffba12"/></linearGradient><linearGradient id="H" x1="1329.89" y1="918.278" x2="1336.15" y2="868.569" xlink:href="#Y"><stop stop-color="#c1462a"/><stop offset=".16" stop-color="#c75028"/><stop offset=".43" stop-color="#d66c22"/><stop offset=".78" stop-color="#ee9919"/><stop offset="1" stop-color="#ffba12"/></linearGradient><linearGradient id="I" x1="1311.03" y1="790.959" x2="1315.63" y2="812.738" xlink:href="#Y"><stop stop-color="#c16642"/><stop offset=".2" stop-color="#c9703c"/><stop offset=".55" stop-color="#dd8c2c"/><stop offset="1" stop-color="#ffba12"/></linearGradient><linearGradient id="J" x1="5420.84" y1="5261.23" x2="3713.8" y2="5003.8" xlink:href="#Y"><stop stop-color="#c1462a"/><stop offset=".16" stop-color="#c75028"/><stop offset=".43" stop-color="#d66c22"/><stop offset=".78" stop-color="#ee9919"/><stop offset="1" stop-color="#ffba12"/></linearGradient><linearGradient id="K" x1="1646.89" y1="1247.98" x2="1644.86" y2="1150.95" xlink:href="#Y"><stop stop-color="#c1462a"/><stop offset=".16" stop-color="#c75028"/><stop offset=".43" stop-color="#d66c22"/><stop offset=".78" stop-color="#ee9919"/><stop offset="1" stop-color="#ffba12"/></linearGradient><linearGradient id="L" x1="1579.95" y1="1152.62" x2="1608.21" y2="1185.51" xlink:href="#Y"><stop stop-color="#c16642"/><stop offset=".2" stop-color="#c9703c"/><stop offset=".55" stop-color="#dd8c2c"/><stop offset="1" stop-color="#ffba12"/></linearGradient><linearGradient id="M" x1="4599.59" y1="4473.36" x2="6255.83" y2="4660.92" xlink:href="#Y"><stop stop-color="#c1462a"/><stop offset=".16" stop-color="#c75028"/><stop offset=".43" stop-color="#d66c22"/><stop offset=".78" stop-color="#ee9919"/><stop offset="1" stop-color="#ffba12"/></linearGradient><linearGradient id="N" x1="1015.47" y1="2033.98" x2="1045.86" y2="1956.91" xlink:href="#Y"><stop stop-color="#c1462a"/><stop offset=".16" stop-color="#c75028"/><stop offset=".43" stop-color="#d66c22"/><stop offset=".78" stop-color="#ee9919"/><stop offset="1" stop-color="#ffba12"/></linearGradient><linearGradient id="O" x1="1045.13" y1="1766.65" x2="1051.06" y2="1801.44" xlink:href="#Y"><stop stop-color="#c16642"/><stop offset=".2" stop-color="#c9703c"/><stop offset=".55" stop-color="#dd8c2c"/><stop offset="1" stop-color="#ffba12"/></linearGradient><linearGradient id="P" x1="4345.56" y1="2666.76" x2="4271.08" y2="2877.85" xlink:href="#Y"><stop stop-color="#c1462a"/><stop offset=".16" stop-color="#c75028"/><stop offset=".43" stop-color="#d66c22"/><stop offset=".78" stop-color="#ee9919"/><stop offset="1" stop-color="#ffba12"/></linearGradient><linearGradient id="Q" x1="23.693" y1="84.42" x2="24.89" y2="79.695" xlink:href="#Y"><stop stop-color="#ff7c12"/><stop offset=".25" stop-color="#ff8612"/><stop offset=".69" stop-color="#ffa212"/><stop offset="1" stop-color="#ffba12"/></linearGradient><linearGradient id="R" x1="3907.2" y1="4617.56" x2="3922.96" y2="4464.27" xlink:href="#Y"><stop stop-color="#ff7c12"/><stop offset=".25" stop-color="#ff8612"/><stop offset=".69" stop-color="#ffa212"/><stop offset="1" stop-color="#ffba12"/></linearGradient><linearGradient id="S" x1="1070.69" y1="1517.4" x2="1077.02" y2="1468.32" xlink:href="#Y"><stop stop-color="#ff7c12"/><stop offset=".25" stop-color="#ff8612"/><stop offset=".69" stop-color="#ffa212"/><stop offset="1" stop-color="#ffba12"/></linearGradient><linearGradient id="T" x1="4487.16" y1="3592.11" x2="4485.99" y2="3441.86" xlink:href="#Y"><stop stop-color="#ff7c12"/><stop offset=".25" stop-color="#ff8612"/><stop offset=".69" stop-color="#ffa212"/><stop offset="1" stop-color="#ffba12"/></linearGradient><linearGradient id="U" x1="1235.83" y1="1238.99" x2="1236.69" y2="1189.45" xlink:href="#Y"><stop stop-color="#ff7c12"/><stop offset=".25" stop-color="#ff8612"/><stop offset=".69" stop-color="#ffa212"/><stop offset="1" stop-color="#ffba12"/></linearGradient><path id="V" d="M55.834 58.744v4.834c-.306.076-.616.134-.93.172l-.638.06v-5.296l.638.06c.313.04.623.097.93.172z"/><path id="W" d="M52.488 56.607v5.18a6.48 6.48 0 0 1-2.153-.609v-3.962a6.48 6.48 0 0 1 2.153-.609z"/><path id="X" d="M40.114 72.41v4.067c-.406.058-.816.087-1.226.086a8.64 8.64 0 0 1-1.189-.08v-4.077a8.64 8.64 0 0 1 1.189-.08c.4-.001.82.028 1.226.084z"/><linearGradient id="Y" gradientUnits="userSpaceOnUse"/></defs></svg>