<svg xmlns="http://www.w3.org/2000/svg" xmlns:xlink="http://www.w3.org/1999/xlink" width="165" height="92" fill="none" xmlns:v="https://vecta.io/nano"><style><![CDATA[.B{fill:#5e425b}.C{fill:#ffbb83}.D{fill:#9b963a}.E{fill:#fce7ca}.F{fill:#ed7656}.G{fill:#543a52}.H{fill:#aaa743}.I{fill:#827b2b}]]></style><g class="B"><path d="M50.524 85.602h-.88l-9.27-37.916h.558l9.6 37.916z"/><path d="M40.937 46.69c-.077-.328-.25-.626-.5-.853s-.558-.376-.89-.424c-.616-.04-.992.466-.84 1.13.077.328.25.626.5.853s.558.376.89.424c.616.04.992-.466.84-1.13z"/></g><g class="C"><path d="M41.275 43.768l.422 2.814s-1.73 1.386-1.133 2.167c.59.768 2.556-.09 2.628-1.402s.475-2.356-1.918-3.58z"/><path d="M35.707 44.72c3.062 1.537 4.963.664 5.09 1.976.127 1.306-.823.617-1.47.67-.17.007-.328.078-.446.2s-.186.282-.2.45.057.333.17.46.27.204.437.218c.965.24 2.673-.02 3.066-.968a3.89 3.89 0 0 0-.579-3.547c-.805-.89-4.48-2.254-4.48-2.254l-1.6 2.794z"/><path d="M37.503 44.792c.988 1.807.995 3.99 1.578 4.2s1.12 0 1-.55-.12-2.843-.644-3.526-1.944-.132-1.944-.132z"/></g><path d="M10.626 14.34l1.667.414.473 1.124-1.63-.36-.51-1.178z" fill="#9b4031"/><path d="M92.77 84.76h-3.814v4.215h1.358l2.456-4.215zm-7.046 0H81.9v4.215h1.358l2.456-4.215zm-30.314 0h-3.814v4.215h1.357l2.456-4.215zm-5.625 0H45.97v4.215h1.358l2.456-4.215z" class="B"/><use xlink:href="#B" fill="#7a6479"/><use xlink:href="#B" x="7.226" class="B"/><use xlink:href="#B" x="-36.256" fill="#7a6479"/><path d="M52.078 91.686c1.232 0 2.23-1.002 2.23-2.237s-.998-2.237-2.23-2.237-2.23 1.002-2.23 2.237 1 2.237 2.23 2.237zm-4.906-6.084h-.88L37.93 48.248h.557l8.686 37.354z" class="B"/><path d="M37.95 41.575l-1.94-1.363-2.802 5.532 1.915.867 2.827-5.035z" class="E"/><path d="M7.156 32.247c7.53 6.62 26.9 14.444 26.9 14.444l2.974-6.175S14.418 18.085 11.468 16c-1.448-1.024-6.307-.288-7.926 3.122-1.684 3.547-.376 9.617 3.614 13.125z" class="B"/><path d="M16 21.918c-1.797-2.3-4.843-3.416-4.87-6.098-1.75-.73-6.078.12-7.59 3.303-1.684 3.547-.376 9.617 3.614 13.125 7.53 6.62 26.9 14.444 26.9 14.444l2.227-4.623C32.116 39.3 21.166 28.534 16 21.918z" class="G"/><path d="M10.226 49.415L32.332 90.4l.43-.26-7.766-51.484-14.77 10.757z" fill="#493247"/><path d="M16.345 43.752l-6.722 5.966 22.7 40.683.195-.117L22.25 49.76l-5.904-6.01z" fill="#3d283c"/><path d="M8.998 67L2.21 88.628l.517.13 14.996-22.093 4.783-17.9 2.974-4.4-.517-6.096L8.5 45.22 8.998 67z" fill="#493247"/><g fill="#3d283c"><path d="M2.418 88.68l10.458-21.236 3.683-25.63-9.694 4.1 1.422 20.882L2.21 88.628l.207.052z"/><path d="M12.553 57.91c7.563-4.67 9.308-16.537 9.308-16.537L10.29 44.55l2.262 13.36z"/><path d="M22.14 51.51l-2.67-1.08 2.758-.476 2.607-3.762-2.693 5.32z"/></g><path d="M23.526 30.23c-.976-5.058-4.732-12.433-11.65-15.285l11.93 25.882s.693-5.567-.278-10.597z" fill="#9b4031"/><path d="M7.103 49.412l18.455-7.208S23.974 18.1 10.506 14.9c-5.583-1.327-9.396.724-9.377 7.835.027 10.044 5.974 26.667 5.974 26.667z" class="E"/><path d="M3.93 15.08l.24-6.03.732-1.7 5.2 4.648.832 3.023a15.77 15.77 0 0 0-6.996.061z" class="F"/><path d="M3.374 15.498l.47-2.118 6.89.462.83 1.37c-1.87.746-5.05.502-8.19.286z" fill="#edd2b2"/><path d="M7.243 56.526c5.676 1.424 17.25-14.73 17.074-22.287S9.6 14.64 6.163 14.647-.91 17.588.205 24.16c1.356 8.006 5.62 32.01 7.038 32.364z" class="B"/><path d="M12.074 26.818c-3.567-4.213-6.067-8.574-7.124-12.043-3.014.623-5.728 3.586-4.745 9.386.815 4.812 2.68 15.402 4.348 23.164 2.204-3.01 7.664-3.943 13.153-2.012a18.4 18.4 0 0 1 2.046.863c2.13-3.324 3.78-6.882 4.35-9.772-3.47-1.314-7.956-4.778-12.027-9.586z" class="G"/><path d="M4.452 3.89c-.6 1.928.776 8.41 1.422 8.863s4.87.703 5.257.184-1.853-9.328-2.63-9.782-3.728-.303-4.05.735z" class="C"/><path d="M5.357 92H3.16l-1.897-3.6s1.293-1.34 1.94-.65.56 3.33.56 3.33l1.594.9zm26.933-.302h2.844l3.62-2.3-4.18.822s-1.12-.605-2.025-.346-.26 1.816-.26 1.816z" fill="#ccbfa3"/><path d="M67.367 36.055l-3.103.95c2.5 6.14 10.17 5.966 10.17 5.966l.862-4.323s-5.085 0-7.93-2.594zm24.476 15.9l4.07 1.774c3.2-5.796-1.72-11.693-1.72-11.693l-4.073 1.186s3.792 4.496 1.724 8.733zM25.57 68.417l-.503 2.722c6.602.32 9.685-6.73 9.685-6.73l-3.543-2.6s-2.094 5.126-5.64 6.618zM3.534 65.344L1.47 63.507c-3.678 5.5.75 11.796.75 11.796l4.055-1.698s-3.296-4.445-2.74-8.26zM47.622 41.25l-.17 2.56c6.537-.135 8.73-6.882 8.73-6.882l-3.798-2.2s-1.45 4.897-4.76 6.513zM90.27 66.583l-43.985-.998c.6 2.084.792 4.272.532 6.43l44.046.655c-.608-2.306-.907-4.4-.593-6.086zm-3.065-11.385L46.956 53.7c.724 2.04.906 4.233.53 6.365l40.305 1.188c-.5-1.977-.698-4.018-.586-6.055z" class="H"/><path d="M87.214 49.825l-41.652-1.837c.736 2.235 1.022 4.297.52 6.05l41.705 1.533a16.01 16.01 0 0 1-.573-5.745z" class="D"/><g class="H"><path d="M89.074 60.94l-42.65-1.276a14.6 14.6 0 0 1 .53 6.4l42.708.945a9.93 9.93 0 0 1-.59-6.068zm1.438 11.46l-42.272-.643c.618 2.088.8 4.282.536 6.444l42.33.3c-.76-1.942-.966-4.06-.595-6.112z"/><path d="M92.45 78.167l-44.792-.35c.734 1.738.788 3.99.537 6.48l44.854-.005a11.18 11.18 0 0 1-.599-6.125z"/></g><g class="D"><path d="M84.103 66.605l-38.288-1.02a18.29 18.29 0 0 1 .437 6.429l38.342.668c-.52-2.303-.77-4.396-.5-6.08zm-2.618-11.373L46.45 53.704c.624 2.06.773 4.237.436 6.365l35.085 1.21a23.05 23.05 0 0 1-.485-6.048z"/><path d="M83.086 60.97L45.96 59.668a16.64 16.64 0 0 1 .436 6.398l37.177.964c-.715-1.937-.883-4.034-.488-6.06zM84.3 72.414l-36.797-.656a18.16 18.16 0 0 1 .44 6.443l36.848.317c-.655-1.965-.824-4.06-.492-6.105z"/><path d="M85.952 78.175l-39-.357c.633 1.738.67 3.99.44 6.478l39.044-.004a12.71 12.71 0 0 1-.496-6.117z"/></g><g fill="#a8a042"><path d="M82.294 78.4l-2.5.07.276 5.835 3.216-.034-1-5.87zm-.434-5.588l-2.482.067.276 5.43 3.203-.035-.997-5.463z"/><path d="M80.36 66.6l-2.47.08.263 6.176 3.2-.043-.98-6.212zm-8.113 11.955l-2.484.067.08 5.694 3.203-.033-.8-5.728z"/><path d="M73.05 72.9l-2.475.07.083 5.654 3.193-.036-.8-5.688zm-3.6-6.325l-2.675.078.075 6.098 3.45-.043-.85-6.133zm-9.816-.308l-2.664.08.037 6.083 3.22.176-.592-6.338zm-8.548-.355L48.44 66l.004 6.07 3.206.175-.555-6.324z"/><path d="M53.017 60.093l-2.857-.12-.552 5.852 3.178.165.23-5.898zm9.747.55l-2.87-.12-.518 5.868 3.193.166.196-5.914zm9.506.167l-2.888-.118-.235 5.796 3.214.164-.1-5.842zm-2.456-6l-2.88-.115.002 5.83 3.207.16-.33-5.876z"/><path d="M69.35 49.075l-2.868-.1.001 5.787 3.194.156-.327-5.832zm-9.155 5.42l-2.867-.115-.033 5.817 3.192.16-.292-5.862zm.205-5.82l-2.857-.1-.032 5.774 3.18.155-.292-5.82zm-8.946 5.612l-2.856-.107-.056 5.478 3.18.15-.267-5.52zm-.134-6.05l-2.844-.1-.066 5.76 3.167.155-.257-5.805zm29.095 12.817l-2.02-.105-.16 5.788 2.5-.055-.32-5.628zM78.762 55.3l-2-.1-.166 5.743 2.5-.057-.313-5.585zm-1.09-5.837l-2.003-.1-.17 5.847 2.48-.06-.306-5.684zM62.777 78.447l-1.878.067-.378 5.748 2.417-.033-.162-5.782z"/><path d="M62.515 72.75l-1.622.068-.342 5.707 2.087-.035-.124-5.74zm-9.433-.467l-2.44-.03-.492 5.677 3.14.094-.2-5.74zm.173 5.784l-1.87.07-.42 6.114 2.4-.035-.117-6.15z"/></g><path d="M77.4 84.7c-.798-1.2-1.07-6.13-1.07-6.13l-.388.02c.334 2.023-.063 5.88-.063 5.88l1.52.232z" class="I"/><g class="D"><path d="M89 72.847c-.446-1.236-.742-6.046-.742-6.046l-.185.02c.267 2.102.28 6.1.28 6.1l.648-.084zm-.8-6.177c-.443-1.162-.734-5.7-.734-5.7l-.185.02.5 5.723.42-.052zm-1.553-5.73c-.484-1.098-.943-5.377-.943-5.377l-.183.018.724 5.408.403-.048zm-2.38.03c-.424-1.117-.65-5.47-.65-5.47l-.184.018.456 5.5.378-.046z"/><path d="M85.384 66.905c-.376-1.2-.4-5.87-.4-5.87l-.185.02.138 5.9.457-.058zM86.8 72.66c-.38-1.2-.416-5.915-.416-5.915l-.186.02c.154 2.057-.05 5.978-.05 5.978l.652-.082zm2.452 5.573c-.4-1.106-.557-5.412-.557-5.412l-.187.017a54.31 54.31 0 0 1 .09 5.469l.653-.075zm-2.335.134c-.407-1.105-.548-5.4-.548-5.4l-.186.018c.12 1.82.146 3.644.082 5.467l.653-.075zm4.547 5.99c-.508-1.195-1.146-6.155-1.146-6.155l-.186.02c.37 2.03.572 5.904.572 5.904l.76.232zm-2.48.124c-.506-1.195-1.136-6.153-1.136-6.153l-.186.02c.365 2.03.562 5.902.562 5.902l.76.232z"/></g><g class="I"><path d="M67.6 84.647c-.788-1.188-1.03-6.117-1.03-6.117l-.386.02c.32 2.02-.098 5.867-.098 5.867l1.514.23zm9.466-6.11c-.733-1.063-.444-5.695-.444-5.695l-.386.02c.333 2.008-.123 5.72-.123 5.72l.953-.044zm-1.363-5.564c-.814-1.203-.892-6.45-.892-6.45l-.383.022c.5 2.273.33 6.478.33 6.478l.946-.05zm.754-6.404c-.798-1.058-.815-5.676-.815-5.676l-.382.02c.463 2 .254 5.702.254 5.702l.943-.046zM74.18 60.8c-.698-1.076-.296-5.778-.296-5.778l-.382.02c.28 2.037-.265 5.805-.265 5.805l.943-.048zm-9.927-.255c-.64-1.13-.002-6.06-.002-6.06l-.38.022c.174 2.136-.558 6.1-.558 6.1l.94-.05zm-9.288-.575c-.632-1.082.03-5.8.03-5.8l-.38.02c.163 2.05-.586 5.84-.586 5.84l.937-.05zm-.5-5.85c-.63-1.073.03-5.768.03-5.768l-.378.02c.162 2.033-.586 5.796-.586 5.796l.934-.05z"/><path d="M63.772 54.53c-.638-1.076-.004-5.78-.004-5.78l-.38.02c.175 2.038-.553 5.8-.553 5.8l.937-.05zm8.906.4c-.647-1.08-.037-5.795-.037-5.795l-.38.02c.187 2.043-.522 5.823-.522 5.823l.94-.05zm-5.816 11.663c-.74-1.112-.52-5.963-.52-5.963l-.382.02c.358 2.102-.04 6-.04 6l.942-.05zm-9.712-.425c-.605-1.103.186-5.92.186-5.92l-.382.02c.108 2.088-.747 5.95-.747 5.95l.943-.048zm6.765 6.718c-.802-1.2-.778-6.33-.778-6.33l-.38.022c.47 2.268.287 6.27.287 6.27l.872.037zm-9.04-.522c-.745-1.167-.553-6.254-.553-6.254l-.38.02c.37 2.204-.006 6.282-.006 6.282l.94-.05zm12.8 6.144c-.724-1.06-.408-5.684-.408-5.684l-.385.02c.32 2.004-.156 5.7-.156 5.7l.95-.044zM57.6 78.17c-.715-1.058-.37-5.67-.37-5.67l-.384.02c.306 2-.192 5.695-.192 5.695l.946-.044zm.505 6.696c-.668-1.282-.422-6.602-.422-6.602l-.387.02a64.19 64.19 0 0 1-.235 6.406l1.044.175z"/></g><path d="M80.156 49.514a25.19 25.19 0 0 0 .375 5.789l7.256.267a16.01 16.01 0 0 1-.573-5.745l-7.058-.31z" class="H"/><path d="M90.805 72.668L79.98 72.6l3.24.863 7.585-.795zm.252 5.51l-7.887-.084 1.527 1.072 6.36-.988zm-1.393-11.582l-8.842-.062 1.7 1.052 7.13-1zm-1.528-5.657l-8.805-.05 2.427.567 6.38-.516zm-.9-5.362l-8.918-.402 1.724 1.103 7.194-.7zm-7.763 2.018l6.88-.23-6.648.505-.232-.276zm-.056-4.656l7.208.177-6.965.1-.243-.287zm.44 6.02l6.858.588-6.66-.286-.197-.303zm2.69 12.006l6.934.423-6.726-.12-.208-.302zm-.493-7.384l6.076.387-5.872-.087-.204-.3zm1.232 13.54l6.976-.183-6.742.468-.234-.285zm1.33 4.814l2.954.094-2.843.2-.1-.295z" class="D"/><path d="M79.973 55.314l-18.757-.654-15.134-.624 15.2.073 18.683 1.204zm-16.567 5.114l-17.57-.808 17.48 1.15 18.744.254-18.653-.596zm4.44 5.982l-21.558-.714 15.217 1.023 21.896-.042-15.556-.267zm1.03 6.248l-22.7-.646 16.03.98 14.528.105 8.706-.347-16.553-.092zm.586 5.668l-22.545-.468 15.914.858 14.42-.01 8.64-.42-16.427.04z" class="I"/><path d="M82.343 49.6c.327 2.102.465 6.072.465 6.072l.637-.086c-.456-1.17-.88-5.558-.92-5.987l-.183.001zm2.497.1l.592 5.867.425.044c-.44-1.156-.8-5.488-.834-5.912h-.183z" class="D"/><path d="M93.48 83.96H82.708V85.6H93.48V83.96z" fill="#6d4d6b"/><g fill="#c9adc1"><use xlink:href="#C"/><use xlink:href="#C" x="-36.47"/></g><path d="M83.31 83.96H44.097V85.6H83.31V83.96z" class="B"/><path d="M94.753 49.125c.65-.195.983-1 .745-1.798s-.958-1.286-1.608-1.1-.983 1-.745 1.798.958 1.286 1.608 1.1zm-24.94-8.163c.65-.195.984-1 .745-1.798s-.958-1.286-1.608-1.1-.983 1-.745 1.798.958 1.286 1.608 1.1zm-17.05-.977c.206-.807-.153-1.5-.8-1.523s-1.34.592-1.546 1.4.153 1.5.8 1.523 1.34-.592 1.546-1.4zM31.108 67.417c.206-.807-.153-1.5-.8-1.523s-1.34.592-1.546 1.4.153 1.5.8 1.523 1.34-.592 1.546-1.4zM3.306 69.46c-.24-.798-.897-1.196-1.47-.9s-.844 1.2-.605 2 .897 1.196 1.47.9.844-1.2.605-2z" fill="#c1bb4d"/><path d="M4.114 11.086l.692-1.7 1.305-.695s.085-4.435-.755-4.76.787-1.158 1.917-.975 1.918-.387 1.272-1.403S2.513.798 2.857 3.35c0 0-2.42-.414 1.257 7.737z" fill="#773525"/><path d="M5.292 9.372c.42-.227.478-.93.133-1.57s-.964-.976-1.383-.75-.478.93-.133 1.57.964.976 1.383.75z" class="C"/><path d="M5.118 9.115c.287-.156.328-.638.092-1.077s-.66-.67-.948-.513-.328.638-.092 1.077.66.67.948.513z" class="F"/><path d="M5.263 9.168c.197-.107.225-.437.063-.738s-.453-.458-.65-.352-.225.437-.063.738.453.458.65.352z" class="C"/><path d="M37.202 47.425c-.642.966-.71 2.162 0 2.29s1.487-1.73 1.27-2.205-.754-.865-1.27-.086z" class="F"/><path d="M38.938 48.747c-.103-.655-.527-1.186-.947-1.186s-.676.53-.573 1.186.527 1.186.947 1.186.676-.53.573-1.186z" class="B"/><path d="M8.218 6.545c-.053-.38-.274-.656-.496-.62s-.362.375-.3.76.277.667.5.626.358-.384.305-.765z" fill="#604748"/><path d="M7.93 4.445l-1.458.212c-.03.004-.057.013-.082.03s-.047.036-.063.06a.21.21 0 0 0-.031.168l.106.467a.25.25 0 0 0 .279.189l1.46-.232c.028-.004.055-.014.08-.03s.044-.036.06-.06.026-.05.03-.08.003-.057-.004-.085L8.2 4.63c-.014-.058-.05-.1-.1-.144s-.1-.05-.17-.042z" fill="#662828"/><path d="M9.686 6.348c-.04-.29-.168-.49-.284-.453s-.178.304-.138.595.17.496.286.456.177-.31.136-.598z" fill="#604748"/><path d="M9.584 4.245l-.63.087c-.054.007-.08.1-.056.23l.086.45c.023.12.085.21.14.203l.632-.096c.053-.008.076-.11.053-.23l-.087-.445c-.023-.118-.084-.207-.137-.2z" fill="#662828"/><path d="M8.824 6.8c1.04.858 1.606 1.47 1.516 1.927a.74.74 0 0 1-.216.334c-.1.09-.224.15-.357.173l.01.025s.863-.058.987-.52c.12-.45-.615-1.05-1.94-1.94z" class="F"/><path d="M10.208 9.954l-2.094.285s-.222 1.53 1.174 1.46c1.023-.052.92-1.744.92-1.744z" fill="#422931"/><path d="M10.024 10.69a2.72 2.72 0 0 0 .059-.618l-1.693.265a1.33 1.33 0 0 0 .157.714l1.477-.36z" fill="#ffefdc"/><g class="C"><path d="M39.056 45.855l.383 2.734s-1.816 1.346-1.225 2.106 2.712-.043 2.82-1.356.573-2.37-1.977-3.484z"/><path d="M33.302 47.76c2.876 1.297 5.074-.292 5.203.973s-.84.616-1.487.68a.63.63 0 0 0-.437.182c-.117.115-.184.27-.188.435s.055.323.166.444a.63.63 0 0 0 .427.204c.97.227 2.747-.032 3.167-.973s.226-2.66-.614-3.47-4.46-1.816-4.46-1.816l-1.778 3.34z"/></g><path d="M35.735 44.362l-1.98-1.303-2.63 5.616 1.94.807 2.67-5.12z" class="E"/><path d="M5.56 34.746c7.358 6.618 26.14 14.846 26.14 14.846l3.2-6.5S12.828 20.45 9.904 18.315c-1.437-1.05-6.277-.295-7.89 3.185C.35 25.1 1.64 31.22 5.56 34.746z" class="B"/><path d="M7.91 28.384c-2.423-2.418-3.876-5.646-4.08-9.07A5.72 5.72 0 0 0 2.015 21.5C.35 25.1 1.91 30.844 5.83 34.37 13.188 40.987 31.7 49.592 31.7 49.592l2.34-4.76C29.244 42.366 14.086 34.34 7.91 28.384z" class="G"/><path d="M31.654 44.3c.34 0 .614-.276.614-.616s-.275-.616-.614-.616-.614.276-.614.616.275.616.614.616zm-1.874-.97c.34 0 .614-.276.614-.616s-.275-.616-.614-.616-.614.276-.614.616.275.616.614.616z" class="E"/><defs ><path id="B" d="M82.452 91.686c1.232 0 2.23-1.002 2.23-2.237s-.998-2.237-2.23-2.237-2.23 1.002-2.23 2.237.998 2.237 2.23 2.237z"/><path id="C" d="M82.107 91.027c.87 0 1.574-.707 1.574-1.58s-.705-1.58-1.574-1.58-1.574.707-1.574 1.58.705 1.58 1.574 1.58z"/></defs></svg>