<svg width="165" height="92" viewBox="0 0 165 92" fill="none" xmlns="http://www.w3.org/2000/svg">
<g style="mix-blend-mode:multiply">
<path d="M10 27.7798V86.499V91.9999H21.8363L23.3158 86.499H52.5848L54.0644 91.9999H65.2574V86.499V27.7798H10Z" fill="#436A70"/>
</g>
<path d="M20.7427 27.7798V86.499V91.9999H32.5789L34.0585 86.499H63.3275L64.807 91.9999H76V86.499V27.7798H20.7427Z" fill="url(#paint0_linear)"/>
<path opacity="0.4" d="M48.0819 63.5998C57.0878 65.8385 66.158 67.6295 75.2925 67.8214V28.4834H21.4503V52.47C28.3977 58.8025 39.5907 61.489 48.0819 63.5998Z" fill="url(#paint1_linear)"/>
<path d="M70.3392 81.3814H27.1111V33.856H70.3392V81.3814ZM27.6258 80.8057H69.8246V34.3677H27.6258V80.8057Z" fill="#436A70"/>
<path d="M29.1053 54.5175H25.6959V43.8354H29.1053V54.5175ZM29.1053 64.1761H25.6959V74.8581H29.1053V64.1761Z" fill="#436A70"/>
<path d="M26.2105 74.3459V64.6873H28.5906V74.3459H26.2105ZM26.2105 53.9413V44.2827H28.5906V53.9413H26.2105Z" fill="url(#paint2_linear)"/>
<path opacity="0.3" d="M55.6726 66.9261C51.1696 69.2928 46.6667 70.1883 41.1989 70.5081C38.4971 68.5892 36.1813 66.1585 34.8948 63.1522C36.4386 58.0351 38.7544 53.9414 41.8422 50.1035C47.1813 55.0288 51.7486 61.0414 55.6726 66.9261Z" fill="#29929E"/>
<path d="M39.076 56.8837C39.076 50.8071 44.0292 46.5215 50.2047 46.5215C56.3158 46.5215 61.3333 50.7431 61.3333 56.8837C61.3333 62.9603 56.3801 68.6531 50.2047 68.6531C44.0292 68.6531 39.076 62.9603 39.076 56.8837Z" fill="#436A70"/>
<path d="M50.1404 67.95C55.6726 67.95 60.5615 62.7689 60.5615 56.8842C60.5615 51.3833 56.0586 47.2896 50.1404 47.2896C44.2223 47.2896 39.7194 51.4472 39.7194 56.8842C39.7837 62.7689 44.6083 67.95 50.1404 67.95Z" fill="url(#paint3_linear)"/>
<path d="M50.1404 62.4491C52.7135 62.4491 55.0293 60.0185 55.0293 57.268C55.0293 54.7095 52.9064 52.7266 50.1404 52.7266C47.3743 52.7266 45.2515 54.6455 45.2515 57.268C45.2515 60.0185 47.5673 62.4491 50.1404 62.4491Z" fill="url(#paint4_linear)"/>
<path d="M53.5497 51.5742L54.5789 48.1201C55.0935 48.312 55.6082 48.5679 56.1228 48.8877L53.5497 51.5742Z" fill="#FAC371"/>
<path d="M58.5672 51.062C58.9532 51.5098 59.2748 52.0215 59.5322 52.5332L55.9941 53.7485L58.5672 51.062Z" fill="#FAC371"/>
<path d="M45.7017 48.1201L46.6666 51.5102L44.1578 48.8877C44.6725 48.6318 45.1871 48.376 45.7017 48.1201Z" fill="#FAC371"/>
<path d="M55.7369 61.106L59.1462 62.2573C58.8889 62.769 58.5673 63.2168 58.2457 63.6645L55.7369 61.106Z" fill="#FAC371"/>
<path d="M39.848 58.1631C39.7836 57.7153 39.7836 57.3315 39.7836 56.8838C39.7836 56.7559 39.7836 56.6279 39.7836 56.5L43.2573 57.3315L39.848 58.1631Z" fill="#FAC371"/>
<path d="M60.5614 56.4365C60.5614 56.5645 60.5614 56.6924 60.5614 56.8843C60.5614 57.332 60.4971 57.7798 60.4971 58.2275L56.9591 57.332L60.5614 56.4365Z" fill="#FAC371"/>
<path d="M46.6667 63.4712L45.6374 66.7973C45.1871 66.5415 44.7369 66.2217 44.2866 65.9018L46.6667 63.4712Z" fill="#FAC371"/>
<path d="M41.1345 62.1919L44.5439 61.0405L42.0351 63.5991C41.7135 63.1513 41.3918 62.7036 41.1345 62.1919Z" fill="#FAC371"/>
<path d="M41.7135 51.1265L44.2866 53.813L40.8129 52.5976C41.0702 52.022 41.3918 51.5742 41.7135 51.1265Z" fill="#FAC371"/>
<path d="M49.2397 47.2886C49.5614 47.2886 49.883 47.2246 50.2047 47.2246C50.462 47.2246 50.7193 47.2246 50.9766 47.2886L50.1403 50.8066L49.2397 47.2886Z" fill="#FAC371"/>
<path d="M54.6434 66.7973L53.6141 63.4712L55.9943 65.9658C55.544 66.2217 55.0937 66.5415 54.6434 66.7973Z" fill="#FAC371"/>
<path d="M49.2397 67.8852L50.1403 64.4312L50.9766 67.9492C50.7193 67.9492 50.462 68.0132 50.2047 68.0132C49.883 67.9492 49.5614 67.9492 49.2397 67.8852Z" fill="#FAC371"/>
<mask id="mask0" mask-type="alpha" maskUnits="userSpaceOnUse" x="48" y="47" width="12" height="11">
<path d="M48.3392 47.9925C48.4678 49.3997 48.7251 50.8709 49.0468 52.2781C50.655 52.0223 52.3275 52.406 53.614 53.3015C54.9006 54.261 55.6725 55.8601 55.9298 57.4592C57.2807 57.5232 58.6316 57.5872 59.9825 57.5872C60.1111 54.7727 58.8246 51.7664 56.6374 49.9754C54.386 48.2484 51.1053 47.2249 48.3392 47.9925Z" fill="url(#paint5_linear)"/>
</mask>
<g mask="url(#mask0)">
<path opacity="0.85" d="M48.3392 47.9925C48.4678 49.3997 48.7251 50.8709 49.0468 52.2781C50.655 52.0223 52.3275 52.406 53.614 53.3015C54.9006 54.261 55.6725 55.8601 55.9298 57.4592C57.2807 57.5232 58.6316 57.5872 59.9825 57.5872C60.1111 54.7727 58.8246 51.7664 56.6374 49.9754C54.386 48.2484 51.1053 47.2249 48.3392 47.9925Z" fill="url(#paint6_linear)"/>
<path opacity="0.75" d="M40.3626 54.0063C41.8421 54.5181 43.2573 55.0937 44.7368 55.5415C44.0936 57.5244 44.6082 59.8271 46.0877 61.2983C47.5673 62.7695 49.8831 63.4091 51.8772 62.8334C52.5205 64.1127 53.1638 65.5839 53.614 66.9911C51.5556 67.8866 49.1111 67.7587 47.0526 66.8632C44.9942 65.9677 43.3216 64.4325 42.0351 62.5776C41.1988 61.3622 40.5556 60.083 40.2982 58.6757C40.1053 57.2046 39.848 55.3496 40.3626 54.0063Z" fill="#E1A300"/>
<path opacity="0.6" d="M49.0468 59.0585C49.6257 59.4423 50.3333 59.6981 50.7836 60.2098C51.041 60.4657 51.2339 60.9134 51.041 61.2332C50.848 61.5531 50.462 61.5531 50.076 61.4891C48.4678 61.2333 47.117 59.954 46.8597 58.3549C46.7953 57.8431 46.9883 57.0116 47.5673 57.5873C48.1462 58.099 48.4035 58.6747 49.0468 59.0585Z" fill="#EBE1BE"/>
</g>
<path opacity="0.5" d="M21.386 28.7388L75.0352 29.1865L75.0995 90.8481L73.427 30.4658L22.7369 30.082L21.772 52.7254L21.386 28.7388Z" fill="#FFF6D6"/>
<path opacity="0.5" d="M28.5263 35.3271H68.6667L68.7954 79.9742L67.1872 37.1181L29.3626 36.5425L28.1404 41.3398L28.5263 35.3271Z" fill="#FFF6D6"/>
<path d="M26.149 84.4841H5.4895L7.55545 76.9692H24.1421L26.149 84.4841Z" fill="url(#paint7_linear)"/>
<path d="M14.6977 84.4841H5.4895L7.55545 76.9692H12.6908L14.6977 84.4841Z" fill="#AD522F"/>
<path d="M7.55548 76.9694L12.5138 77.208L14.6978 84.4843L12.927 77.3273L24.0831 77.1484L26.149 84.4843L24.2011 76.7905L12.6908 76.8502L7.55548 76.9694Z" fill="#853F24"/>
<path d="M36.0066 84.4841H15.3471L17.354 76.9692H33.9407L36.0066 84.4841Z" fill="url(#paint8_linear)"/>
<path d="M24.5553 84.4841H15.3471L17.354 76.9692H22.4894L24.5553 84.4841Z" fill="#AD522F"/>
<path d="M17.3541 76.9694L22.3714 77.208L24.5554 84.4843L22.7846 77.3273L33.9407 77.1484L36.0066 84.4843L34.0587 76.7905L22.4894 76.8502L17.3541 76.9694Z" fill="#853F24"/>
<path d="M30.6351 76.9699H9.97559L11.9825 69.4551H28.5691L30.6351 76.9699Z" fill="url(#paint9_linear)"/>
<path d="M19.1838 76.9699H9.97559L11.9825 69.4551H17.1179L19.1838 76.9699Z" fill="#AD522F"/>
<path d="M11.9825 69.4553L16.9999 69.6939L19.1839 76.9701L17.413 69.8131L28.5692 69.6342L30.6351 76.9701L28.6872 69.2764L17.1179 69.336L11.9825 69.4553Z" fill="#853F24"/>
<path d="M35.6524 69.4552H14.9929L17.0589 62H33.6455L35.6524 69.4552Z" fill="url(#paint10_linear)"/>
<path d="M24.2602 69.4552H14.9929L17.0589 62H22.1942L24.2602 69.4552Z" fill="#AD522F"/>
<path opacity="0.75" d="M24.0831 62.9541L25.1456 68.2026L24.4372 68.9183H34.6489L28.5691 68.2026L27.3886 62.9541H24.0831Z" fill="#E1A300"/>
<mask id="mask1" mask-type="alpha" maskUnits="userSpaceOnUse" x="22" y="62" width="14" height="8">
<path d="M22.7254 62.4771L23.4337 65.0416H33.3503L35.4162 69.2762L33.4683 62.4771H22.7254Z" fill="url(#paint11_linear)"/>
</mask>
<g mask="url(#mask1)">
<path opacity="0.85" d="M22.7254 62.4771L23.4337 65.0416H33.3503L35.4162 69.2762L33.4683 62.4771H22.7254Z" fill="url(#paint12_linear)"/>
<path d="M17.0588 61.9993L22.0761 62.1782L24.2602 69.4545L22.4303 62.2975L33.5864 62.1186L35.6524 69.4545L33.7635 61.7607L22.1942 61.8204L17.0588 61.9993Z" fill="#FDF395"/>
</g>
<path d="M40.6698 76.9699H20.0103L22.0172 69.4551H38.6628L40.6698 76.9699Z" fill="url(#paint13_linear)"/>
<path d="M29.2185 76.9699H20.0103L22.0172 69.4551H27.2116L29.2185 76.9699Z" fill="#AD522F"/>
<path opacity="0.75" d="M29.1003 70.4097L30.1628 75.7178L29.4545 76.4335H39.6072L33.5274 75.7178L32.4059 70.4097H29.1003Z" fill="#E1A300"/>
<mask id="mask2" mask-type="alpha" maskUnits="userSpaceOnUse" x="27" y="69" width="14" height="8">
<path d="M27.7428 69.9917L28.3921 72.4966H38.3677L40.3746 76.7909L38.4857 69.9917H27.7428Z" fill="url(#paint14_linear)"/>
</mask>
<g mask="url(#mask2)">
<path opacity="0.85" d="M27.7428 69.9917L28.3921 72.4966H38.3677L40.3746 76.7909L38.4857 69.9917H27.7428Z" fill="url(#paint15_linear)"/>
<path d="M22.0172 69.4558L27.0345 69.6944L29.2185 76.9706L27.4477 69.8136L38.6038 69.6347L40.6698 76.9706L38.7219 69.2769L27.2116 69.3365L22.0172 69.4558Z" fill="#FDF395"/>
</g>
<path d="M46.3363 84.4856H25.6768L27.6837 76.9707H44.2704L46.3363 84.4856Z" fill="url(#paint16_linear)"/>
<path d="M34.8851 84.4856H25.6768L27.6837 76.9707H32.8191L34.8851 84.4856Z" fill="#AD522F"/>
<path opacity="0.75" d="M34.767 77.9253L35.7704 83.2334L35.1211 83.9491H45.2738L39.194 83.2334L38.0135 77.9253H34.767Z" fill="#E1A300"/>
<mask id="mask3" mask-type="alpha" maskUnits="userSpaceOnUse" x="33" y="77" width="14" height="8">
<path d="M33.4094 77.5073L34.0587 80.0123H43.9752L46.0412 84.3065L44.1523 77.5073H33.4094Z" fill="url(#paint17_linear)"/>
</mask>
<g mask="url(#mask3)">
<path opacity="0.85" d="M33.4094 77.5073L34.0587 80.0123H43.9752L46.0412 84.3065L44.1523 77.5073H33.4094Z" fill="url(#paint18_linear)"/>
<path d="M27.6838 76.9709L32.7011 77.2095L34.8851 84.4858L33.1143 77.3288L44.2704 77.1498L46.3364 84.4858L44.3885 76.792L32.8191 76.8516L27.6838 76.9709Z" fill="#FDF395"/>
</g>
<path d="M20.6595 91.9992H0L2.06595 84.4844H18.6526L20.6595 91.9992Z" fill="url(#paint19_linear)"/>
<path d="M9.26726 91.9992H0L2.06595 84.4844H7.20131L9.26726 91.9992Z" fill="#AD522F"/>
<path d="M2.06598 84.4846L7.08329 84.7231L9.26729 91.9994L7.43745 84.8424L18.5936 84.6635L20.6595 91.9994L18.7707 84.3057H7.20134L2.06598 84.4846Z" fill="#853F24"/>
<path d="M30.8122 91.9992H10.1527L12.1596 84.4844H28.7463L30.8122 91.9992Z" fill="url(#paint20_linear)"/>
<path d="M19.3609 91.9992H10.1527L12.1596 84.4844H17.354L19.3609 91.9992Z" fill="#AD522F"/>
<path d="M12.1597 84.4846L17.177 84.7231L19.361 91.9994L17.5902 84.8424L28.7463 84.6635L30.8122 91.9994L28.8643 84.3057H17.295L12.1597 84.4846Z" fill="#853F24"/>
<path d="M40.6107 91.9992H19.9512L22.0171 84.4844H38.6038L40.6107 91.9992Z" fill="url(#paint21_linear)"/>
<path d="M29.2184 91.9992H19.9512L22.0171 84.4844H27.1525L29.2184 91.9992Z" fill="#AD522F"/>
<path d="M22.0172 84.4846L27.0345 84.7231L29.2185 91.9994L27.3886 84.8424L38.5448 84.6635L40.6107 91.9994L38.7218 84.3057H27.1525L22.0172 84.4846Z" fill="#853F24"/>
<path d="M50.9994 91.9997H30.2809L32.3468 84.4849H48.9335L50.9994 91.9997Z" fill="url(#paint22_linear)"/>
<path d="M39.5481 91.9997H30.2809L32.3468 84.4849H37.4822L39.5481 91.9997Z" fill="#AD522F"/>
<path opacity="0.75" d="M39.3712 85.4395L40.4336 90.7476L39.7843 91.4633H49.937L43.8572 90.7476L42.6767 85.4395H39.3712Z" fill="#E1A300"/>
<mask id="mask4" mask-type="alpha" maskUnits="userSpaceOnUse" x="38" y="84" width="13" height="8">
<path d="M38.0135 84.9624L38.7218 87.527H48.6384L50.7043 91.8212L48.7564 84.9624H38.0135Z" fill="url(#paint23_linear)"/>
</mask>
<g mask="url(#mask4)">
<path opacity="0.85" d="M38.0135 84.9624L38.7218 87.527H48.6384L50.7043 91.8212L48.7564 84.9624H38.0135Z" fill="url(#paint24_linear)"/>
<path d="M32.3469 84.4856L37.3642 84.7241L39.5482 92.0004L37.7184 84.8434L48.9336 84.6645L50.9995 92.0004L49.0516 84.3066H37.4823L32.3469 84.4856Z" fill="#FDF395"/>
</g>
<path d="M97.4343 89.0772L97.7681 87.2085H69.3496L69.6834 89.0772H70.5893L70.8754 89.9875C70.8277 89.9875 70.7801 89.9875 70.7324 89.9875C70.2079 89.9875 69.7311 90.5146 69.7311 91.0896C69.7311 91.377 69.8264 91.6166 70.0172 91.7604C70.1125 91.8562 70.2079 91.9041 70.3509 91.952C70.4463 91.9999 70.5893 91.9999 70.7324 91.9999C70.8277 91.9999 71.3046 91.9999 71.4476 91.9999C71.9721 91.9999 72.4013 91.377 72.4013 90.85C72.4013 90.3229 72.0198 90.0354 71.5907 89.9875V89.0772H95.4793V89.9875C95.3363 89.9875 95.1932 89.9875 95.1455 89.9875C94.621 89.9875 94.1442 90.5146 94.1442 91.0896C94.1442 91.377 94.2396 91.6166 94.4303 91.7604C94.5257 91.8562 94.621 91.9041 94.7641 91.952C94.8595 91.9999 95.0025 91.9999 95.1455 91.9999C95.2409 91.9999 95.7177 91.9999 95.8608 91.9999C96.3853 91.9999 96.8144 91.377 96.8144 90.85C96.8144 90.4188 96.576 90.1313 96.1945 90.0354L96.4806 89.1251H97.4343V89.0772Z" fill="#436A70"/>
<path d="M85.0847 89.0767H57.3338L57 87.208H85.4184L85.0847 89.0767Z" fill="url(#paint25_linear)"/>
<path d="M59.2411 90.6578H58.7166L58.2397 89.0767H59.2411V90.6578Z" fill="#436A70"/>
<path d="M83.1296 90.6578H83.6541L84.131 89.0767H83.1296V90.6578Z" fill="#436A70"/>
<path d="M58.3828 89.9868C58.5258 89.9868 59.0027 89.9868 59.098 89.9868C59.6225 89.9868 60.0517 90.3222 60.0517 90.8493C60.0517 91.4243 59.6225 91.9992 59.098 91.9992C58.955 91.9992 58.4782 91.9992 58.3828 91.9992C57.8583 91.9992 57.3815 91.6159 57.3815 91.0409C57.3815 90.5139 57.8583 89.9868 58.3828 89.9868Z" fill="#436A70"/>
<path d="M57.3815 91.0409C57.3815 91.6159 57.8583 91.9992 58.3828 91.9992C58.9073 91.9992 59.3364 91.3763 59.3364 90.8493C59.3364 90.2743 58.9073 89.9868 58.3828 89.9868C57.8583 89.9868 57.3815 90.5139 57.3815 91.0409ZM58.1444 90.993C58.1444 90.8493 58.2874 90.7055 58.3828 90.7055C58.5258 90.7055 58.6212 90.8014 58.6212 90.9451C58.6212 91.0888 58.5258 91.2326 58.3828 91.2326C58.2397 91.2326 58.1444 91.1368 58.1444 90.993Z" fill="url(#paint26_linear)"/>
<path d="M57.5245 91.0407C57.5245 91.5678 57.9537 91.8553 58.3828 91.8553C58.8596 91.8553 59.1934 91.3282 59.1934 90.8491C59.1934 90.322 58.7643 90.1304 58.3828 90.1304C57.9537 90.1304 57.5245 90.5616 57.5245 91.0407ZM57.6199 91.0887C57.6199 90.6574 58.0014 90.2262 58.3828 90.2262C58.7166 90.2262 59.1457 90.4178 59.1457 90.897C59.1457 91.3282 58.812 91.8074 58.3828 91.8074C58.049 91.8553 57.6199 91.5678 57.6199 91.0887Z" fill="#436A70"/>
<path d="M82.796 89.9868C82.939 89.9868 83.4159 89.9868 83.5112 89.9868C84.0357 89.9868 84.4649 90.3222 84.4649 90.8493C84.4649 91.4243 84.0357 91.9992 83.5112 91.9992C83.3682 91.9992 82.8914 91.9992 82.796 91.9992C82.2715 91.9992 81.7947 91.6159 81.7947 91.0409C81.7947 90.5139 82.2715 89.9868 82.796 89.9868Z" fill="#436A70"/>
<path d="M81.7947 91.0409C81.7947 91.6159 82.2715 91.9992 82.796 91.9992C83.3205 91.9992 83.7496 91.3763 83.7496 90.8493C83.7496 90.2743 83.3205 89.9868 82.796 89.9868C82.2715 89.9868 81.7947 90.5139 81.7947 91.0409ZM82.5099 90.993C82.5099 90.8493 82.653 90.7055 82.7483 90.7055C82.8914 90.7055 82.9867 90.8014 82.9867 90.9451C82.9867 91.0888 82.8914 91.2326 82.7483 91.2326C82.653 91.2326 82.5099 91.1368 82.5099 90.993Z" fill="url(#paint27_linear)"/>
<path d="M81.9376 91.0407C81.9376 91.5678 82.3668 91.8553 82.7959 91.8553C83.2727 91.8553 83.6065 91.3282 83.6065 90.8491C83.6065 90.322 83.1774 90.1304 82.7959 90.1304C82.3191 90.1304 81.9376 90.5616 81.9376 91.0407ZM82.033 91.0887C82.033 90.6574 82.4144 90.2262 82.7959 90.2262C83.1297 90.2262 83.5588 90.4178 83.5588 90.897C83.5588 91.3282 83.225 91.8074 82.7959 91.8074C82.4144 91.8553 82.033 91.5678 82.033 91.0887Z" fill="#436A70"/>
<g opacity="0.4">
<mask id="mask5" mask-type="alpha" maskUnits="userSpaceOnUse" x="57" y="87" width="8" height="2">
<g opacity="0.4">
<g opacity="0.4">
<path opacity="0.4" d="M57.6199 88.8852L57.3815 87.4478H64.6291L64.2477 88.8852H57.6199Z" fill="url(#paint28_linear)"/>
</g>
</g>
</mask>
<g mask="url(#mask5)">
<path opacity="0.4" d="M57.6199 88.8852L57.3815 87.4478H64.6291L64.2477 88.8852H57.6199Z" fill="url(#paint29_linear)"/>
</g>
</g>
<g opacity="0.3">
<path opacity="0.3" d="M74.5946 87.4478L74.3562 88.8852H81.6039L81.2224 87.4478H74.5946Z" fill="#29929E"/>
</g>
<g opacity="0.4">
<mask id="mask6" mask-type="alpha" maskUnits="userSpaceOnUse" x="82" y="87" width="3" height="2">
<g opacity="0.4">
<g opacity="0.4">
<path opacity="0.4" d="M84.5601 88.8852L84.7985 87.4478H82.5575L82.939 88.8852H84.5601Z" fill="url(#paint30_linear)"/>
</g>
</g>
</mask>
<g mask="url(#mask6)">
<path opacity="0.4" d="M84.5601 88.8852L84.7985 87.4478H82.5575L82.939 88.8852H84.5601Z" fill="url(#paint31_linear)"/>
</g>
</g>
<path d="M78.3616 52.0386H97.1483L95.5748 87.2077H77.6941L78.3616 52.0386Z" fill="#578A51"/>
<path d="M58.4782 87.2092L57.3815 52.04H78.3615V60.4251L87.5642 60.6646L87.0396 87.2092H58.4782Z" fill="#9AC775"/>
<path d="M81.1748 52.0386V59.1778L90.1867 59.3215L90.4728 52.0386H81.1748Z" fill="#9AC775"/>
<path d="M61.196 52.0386L62.6742 87.2556H64.1046L63.5801 52.0386H61.196Z" fill="#FFFDC1"/>
<path d="M81.1748 60.6637L81.6039 87.2083H83.0821L83.845 60.5679L81.1748 60.6637Z" fill="#FFFDC1"/>
<path d="M71.686 52.0386L72.4966 87.2077H73.9271L74.4993 52.0386H71.686Z" fill="#FFFDC1"/>
<path d="M84.6079 52.0386L84.9417 59.2736H86.5152L87.2781 52.0386H84.6079Z" fill="#FFFDC1"/>
<path d="M78.3615 56.064H57.4768V56.1593H78.3615V56.064Z" fill="#578A51"/>
<path d="M58.4066 84.5663L58.4055 84.6616L87.0595 84.9997L87.0606 84.9044L58.4066 84.5663Z" fill="#578A51"/>
<path d="M87.1766 80.3358L58.3378 81.0474L58.3401 81.1427L87.1789 80.4312L87.1766 80.3358Z" fill="#578A51"/>
<path d="M87.2305 77.0981H58.2399V77.1935H87.2305V77.0981Z" fill="#578A51"/>
<path d="M87.2803 73.8677L58.099 74.1118L58.0998 74.2072L87.2811 73.963L87.2803 73.8677Z" fill="#578A51"/>
<path d="M58.0342 70.6292L58.0334 70.7246L87.4055 70.9619L87.4063 70.8666L58.0342 70.6292Z" fill="#578A51"/>
<path d="M87.4211 67.3228H57.8583V67.4181H87.4211V67.3228Z" fill="#578A51"/>
<path d="M57.8107 63.9696V63.8259L87.5642 63.6821V63.778L57.8107 63.9696Z" fill="#578A51"/>
<path d="M57.6396 59.9701L57.6376 60.0654L87.5758 60.7038L87.5778 60.6085L57.6396 59.9701Z" fill="#578A51"/>
<path d="M78.3106 52.0378L78.0188 87.2549L78.1142 87.2557L78.406 52.0386L78.3106 52.0378Z" fill="#578A51"/>
<path d="M67.409 51.9999L67.3137 52.0029L68.435 87.2022L68.5303 87.1992L67.409 51.9999Z" fill="#578A51"/>
<path d="M90.3297 55.4414H81.1748V55.5368H90.3297V55.4414Z" fill="#578A51"/>
<path d="M68.4436 86.68C68.8727 86.68 70.0171 86.5846 70.0171 86.5846C70.0171 86.5846 68.8727 86.4893 68.4436 86.4893V86.68Z" fill="#578A51"/>
<path d="M77.9801 86.4407C78.4569 86.4407 79.7443 86.3454 79.7443 86.3454C79.7443 86.3454 78.4569 86.25 77.9801 86.25V86.4407Z" fill="#578A51"/>
<path d="M87.1828 81.6025C86.849 81.6025 85.9907 81.6979 85.9907 81.6979C85.9907 81.6979 86.849 81.7933 87.1828 81.7933V81.6025Z" fill="#578A51"/>
<path d="M87.135 82.4648C86.2768 82.4648 83.988 82.5602 83.988 82.5602C83.988 82.5602 86.2768 82.6556 87.135 82.6556V82.4648Z" fill="#578A51"/>
<path d="M78.1232 82.3208C77.7894 82.3208 76.8834 82.4162 76.8834 82.4162C76.8834 82.4162 77.7894 82.5115 78.1232 82.5115V82.3208Z" fill="#578A51"/>
<path d="M78.0279 83.0874C77.1219 83.0874 74.6425 83.1828 74.6425 83.1828C74.6425 83.1828 77.0742 83.2781 78.0279 83.2781V83.0874Z" fill="#578A51"/>
<path d="M68.3007 82.5115C69.2066 82.5115 71.543 82.4162 71.543 82.4162C71.543 82.4162 69.2066 82.3208 68.3007 82.3208V82.5115Z" fill="#578A51"/>
<path d="M68.3484 83.854C67.8239 83.854 66.3934 83.9494 66.3934 83.9494C66.3934 83.9494 67.8239 84.0447 68.3484 84.0447V83.854Z" fill="#578A51"/>
<path d="M58.4305 86.345C58.8597 86.345 60.0517 86.2497 60.0517 86.2497C60.0517 86.2497 58.8597 86.1543 58.4305 86.1543V86.345Z" fill="#578A51"/>
<path d="M58.2875 82.7996C58.7166 82.7996 59.8133 82.7043 59.8133 82.7043C59.8133 82.7043 58.7166 82.6089 58.2875 82.6089V82.7996Z" fill="#578A51"/>
<path d="M58.2875 83.7098C59.0504 83.7098 61.1007 83.6144 61.1007 83.6144C61.1007 83.6144 59.0504 83.519 58.2875 83.519V83.7098Z" fill="#578A51"/>
<path d="M58.192 80.2122C58.9072 80.2122 60.7192 80.1168 60.7192 80.1168C60.7192 80.1168 58.9072 80.0215 58.192 80.0215V80.2122Z" fill="#578A51"/>
<path d="M68.1576 78.5355C68.7775 78.5355 70.351 78.4401 70.351 78.4401C70.351 78.4401 68.7775 78.3447 68.1576 78.3447V78.5355Z" fill="#578A51"/>
<path d="M68.2529 80.4031C68.539 80.4031 69.3496 80.3078 69.3496 80.3078C69.3496 80.3078 68.539 80.2124 68.2529 80.2124V80.4031Z" fill="#578A51"/>
<path d="M78.1232 79.2059C78.6477 79.2059 79.9828 79.1105 79.9828 79.1105C79.9828 79.1105 78.6477 79.0151 78.1232 79.0151V79.2059Z" fill="#578A51"/>
<path d="M87.3258 76.2837C86.992 76.2837 86.1814 76.3791 86.1814 76.3791C86.1814 76.3791 86.992 76.4744 87.3258 76.4744V76.2837Z" fill="#578A51"/>
<path d="M87.4211 73.1689C86.7059 73.1689 84.8463 73.2643 84.8463 73.2643C84.8463 73.2643 86.7059 73.3597 87.4211 73.3597V73.1689Z" fill="#578A51"/>
<path d="M87.2781 74.7031C86.5151 74.7031 84.5602 74.7985 84.5602 74.7985C84.5602 74.7985 86.5151 74.8938 87.2781 74.8938V74.7031Z" fill="#578A51"/>
<path d="M78.1232 76.3787C78.5523 76.3787 79.6013 76.2833 79.6013 76.2833C79.6013 76.2833 78.5046 76.188 78.1232 76.188V76.3787Z" fill="#578A51"/>
<path d="M78.1232 74.5586C77.6463 74.5586 76.4066 74.6539 76.4066 74.6539C76.4066 74.6539 77.6463 74.7493 78.1232 74.7493V74.5586Z" fill="#578A51"/>
<path d="M68.1099 76.5228C68.9205 76.5228 71.1138 76.4274 71.1138 76.4274C71.1138 76.4274 68.9205 76.332 68.1099 76.332V76.5228Z" fill="#578A51"/>
<path d="M68.0624 75.5654C67.0134 75.5654 64.2478 75.6608 64.2478 75.6608C64.2478 75.6608 67.0134 75.7562 68.0624 75.7562V75.5654Z" fill="#578A51"/>
<path d="M57.9536 72.449C58.6212 72.449 60.3377 72.3537 60.3377 72.3537C60.3377 72.3537 58.6212 72.2583 57.9536 72.2583V72.449Z" fill="#578A51"/>
<path d="M67.9669 73.3608C67.4424 73.3608 66.012 73.4562 66.012 73.4562C66.012 73.4562 67.4424 73.5516 67.9669 73.5516V73.3608Z" fill="#578A51"/>
<path d="M67.9669 72.2581C68.5391 72.2581 70.1126 72.1628 70.1126 72.1628C70.1126 72.1628 68.5868 72.0674 67.9669 72.0674V72.2581Z" fill="#578A51"/>
<path d="M78.2186 72.0674C77.5987 72.0674 75.9775 72.1628 75.9775 72.1628C75.9775 72.1628 77.5987 72.2581 78.2186 72.2581V72.0674Z" fill="#578A51"/>
<path d="M67.8716 70.1507C68.7775 70.1507 71.257 70.0549 71.257 70.0549C71.257 70.0549 68.8252 69.9111 67.8716 69.9111V70.1507Z" fill="#578A51"/>
<path d="M87.4689 68.5693C86.7537 68.5693 84.9418 68.6647 84.9418 68.6647C84.9418 68.6647 86.8014 68.7601 87.4689 68.7601V68.5693Z" fill="#578A51"/>
<path d="M78.1709 69.7674C78.7431 69.7674 80.3166 69.672 80.3166 69.672C80.3166 69.672 78.7908 69.5767 78.1709 69.5767V69.7674Z" fill="#578A51"/>
<path d="M78.2185 66.7957C78.8384 66.7957 80.5072 66.7003 80.5072 66.7003C80.5072 66.7003 78.8384 66.605 78.2185 66.605V66.7957Z" fill="#578A51"/>
<path d="M87.612 62.2451C87.0875 62.2451 85.8 62.3405 85.8 62.3405C85.8 62.3405 87.1351 62.4358 87.612 62.4358V62.2451Z" fill="#578A51"/>
<path d="M78.2662 61.2866C78.0755 61.2866 77.5986 61.382 77.5986 61.382C77.5986 61.382 78.0755 61.4773 78.2662 61.4773V61.2866Z" fill="#578A51"/>
<path d="M78.2185 62.7703C78.6953 62.7703 80.0304 62.6749 80.0304 62.6749C80.0304 62.6749 78.743 62.5796 78.2185 62.5796V62.7703Z" fill="#578A51"/>
<path d="M78.1708 65.1201C77.3602 65.1201 75.2145 65.2155 75.2145 65.2155C75.2145 65.2155 77.3602 65.3108 78.1708 65.3108V65.1201Z" fill="#578A51"/>
<path d="M67.8239 66.7C68.3007 66.7 69.5881 66.6046 69.5881 66.6046C69.5881 66.6046 68.3007 66.5093 67.8239 66.5093V66.7Z" fill="#578A51"/>
<path d="M57.9536 70.0535C58.4781 70.0535 59.8609 69.9582 59.8609 69.9582C59.8609 69.9582 58.4781 69.8628 57.9536 69.8628V70.0535Z" fill="#578A51"/>
<path d="M67.8239 68.665C66.9656 68.665 64.6769 68.7604 64.6769 68.7604C64.6769 68.7604 66.9656 68.8558 67.8239 68.8558V68.665Z" fill="#578A51"/>
<path d="M57.8583 66.6038C58.2397 66.6038 59.2887 66.5084 59.2887 66.5084C59.2887 66.5084 58.2397 66.4131 57.8583 66.4131V66.6038Z" fill="#578A51"/>
<path d="M57.7629 65.5018C58.3351 65.5018 59.7656 65.4064 59.7656 65.4064C59.7656 65.4064 58.3351 65.311 57.7629 65.311V65.5018Z" fill="#578A51"/>
<path d="M67.7285 65.2148C66.8703 65.2148 64.5815 65.3102 64.5815 65.3102C64.5815 65.3102 66.8703 65.4056 67.7285 65.4056V65.2148Z" fill="#578A51"/>
<path d="M57.7629 63.202C58.5259 63.202 60.4808 63.1066 60.4808 63.1066C60.4808 63.1066 58.5259 63.0112 57.7629 63.0112V63.202Z" fill="#578A51"/>
<path d="M67.6808 62.0521C68.6344 62.0521 71.0662 61.9567 71.0662 61.9567C71.0662 61.9567 68.5867 61.8613 67.6808 61.8613V62.0521Z" fill="#578A51"/>
<path d="M78.3615 56.8784C77.5032 56.8784 75.3098 56.9738 75.3098 56.9738C75.3098 56.9738 77.5509 57.0692 78.3615 57.0692V56.8784Z" fill="#578A51"/>
<path d="M90.3774 57.5015C89.8052 57.5015 88.2317 57.5968 88.2317 57.5968C88.2317 57.5968 89.8052 57.6922 90.3774 57.6922V57.5015Z" fill="#578A51"/>
<path d="M80.9364 58.4583C81.4609 58.4583 82.8437 58.3629 82.8437 58.3629C82.8437 58.3629 81.4609 58.2676 80.9364 58.2676V58.4583Z" fill="#578A51"/>
<path d="M81.0795 57.0213C81.8901 57.0213 84.0357 56.9259 84.0357 56.9259C84.0357 56.9259 81.8901 56.8306 81.0795 56.8306V57.0213Z" fill="#578A51"/>
<path d="M90.4251 54.3394C90.0913 54.3394 89.1377 54.4347 89.1377 54.4347C89.1377 54.4347 90.0913 54.5301 90.4251 54.5301V54.3394Z" fill="#578A51"/>
<path d="M81.0317 54.0984C81.89 54.0984 84.1787 54.0031 84.1787 54.0031C84.1787 54.0031 81.89 53.9077 81.0317 53.9077V54.0984Z" fill="#578A51"/>
<path d="M78.2662 53.1411C77.7417 53.1411 76.4066 53.2365 76.4066 53.2365C76.4066 53.2365 77.7894 53.3318 78.2662 53.3318V53.1411Z" fill="#578A51"/>
<path d="M78.3139 54.7222C77.551 54.7222 75.5961 54.8175 75.5961 54.8175C75.5961 54.8175 77.5987 54.9129 78.3139 54.9129V54.7222Z" fill="#578A51"/>
<path d="M67.4424 54.0984C68.253 54.0984 70.3033 54.0031 70.3033 54.0031C70.3033 54.0031 68.253 53.9077 67.4424 53.9077V54.0984Z" fill="#578A51"/>
<path d="M67.5378 58.3147C68.0147 58.3147 69.2067 58.2194 69.2067 58.2194C69.2067 58.2194 67.967 58.124 67.5378 58.124V58.3147Z" fill="#578A51"/>
<path d="M67.5854 59.1302C68.5391 59.1302 71.0186 59.0348 71.0186 59.0348C71.0186 59.0348 68.5391 58.9395 67.5854 58.9395V59.1302Z" fill="#578A51"/>
<path d="M57.5245 57.8357C57.7629 57.8357 58.3828 57.7404 58.3828 57.7404C58.3828 57.7404 57.7629 57.645 57.5245 57.645V57.8357Z" fill="#578A51"/>
<path d="M57.6199 59.2254C58.3828 59.2254 60.4331 59.13 60.4331 59.13C60.4331 59.13 58.4305 59.0347 57.6199 59.0347V59.2254Z" fill="#578A51"/>
<path d="M67.49 57.3096C66.6795 57.3096 64.4861 57.4049 64.4861 57.4049C64.4861 57.4049 66.6318 57.5003 67.49 57.5003V57.3096Z" fill="#578A51"/>
<path d="M57.4292 53.8108C58.0014 53.8108 59.4795 53.7155 59.4795 53.7155C59.4795 53.7155 58.0014 53.6201 57.4292 53.6201V53.8108Z" fill="#578A51"/>
<path d="M67.4424 54.7222C66.9655 54.7222 65.8212 54.8175 65.8212 54.8175C65.8212 54.8175 67.0132 54.9129 67.4424 54.9129V54.7222Z" fill="#578A51"/>
<path d="M67.3948 52.9492C66.7749 52.9492 65.2014 53.0446 65.2014 53.0446C65.2014 53.0446 66.7749 53.1399 67.3948 53.1399V52.9492Z" fill="#578A51"/>
<path d="M57.4769 54.7693C58.2875 54.7693 60.3855 54.674 60.3855 54.674C60.3855 54.674 58.2875 54.5786 57.4769 54.5786V54.7693Z" fill="#578A51"/>
<defs>
<linearGradient id="paint0_linear" x1="73.241" y1="28.6851" x2="18.8015" y2="97.7852" gradientUnits="userSpaceOnUse">
<stop stop-color="#DAD1C0"/>
<stop offset="0.2649" stop-color="#BBBBAF"/>
<stop offset="0.7593" stop-color="#859493"/>
<stop offset="1" stop-color="#708588"/>
</linearGradient>
<linearGradient id="paint1_linear" x1="39.9215" y1="64.3274" x2="51.0576" y2="42.7537" gradientUnits="userSpaceOnUse">
<stop stop-color="#FFF7CC"/>
<stop offset="1" stop-color="#FFF7CC"/>
</linearGradient>
<linearGradient id="paint2_linear" x1="28.5911" y1="59.329" x2="25.4909" y2="59.329" gradientUnits="userSpaceOnUse">
<stop stop-color="#DAD1C0"/>
<stop offset="0.2649" stop-color="#BBBBAF"/>
<stop offset="0.7593" stop-color="#859493"/>
<stop offset="1" stop-color="#708588"/>
</linearGradient>
<linearGradient id="paint3_linear" x1="60.5735" y1="57.6032" x2="39.757" y2="57.6032" gradientUnits="userSpaceOnUse">
<stop stop-color="#F7A01E"/>
<stop offset="0.1849" stop-color="#F3991E"/>
<stop offset="0.4503" stop-color="#E7861C"/>
<stop offset="0.7629" stop-color="#D4671A"/>
<stop offset="1" stop-color="#C24B18"/>
</linearGradient>
<linearGradient id="paint4_linear" x1="46.5385" y1="62.6906" x2="53.0519" y2="53.042" gradientUnits="userSpaceOnUse">
<stop stop-color="#F7A01E"/>
<stop offset="0.1849" stop-color="#F3991E"/>
<stop offset="0.4503" stop-color="#E7861C"/>
<stop offset="0.7629" stop-color="#D4671A"/>
<stop offset="1" stop-color="#C24B18"/>
</linearGradient>
<linearGradient id="paint5_linear" x1="57.1531" y1="49.5414" x2="51.7752" y2="55.4375" gradientUnits="userSpaceOnUse">
<stop stop-color="white"/>
<stop offset="1"/>
</linearGradient>
<linearGradient id="paint6_linear" x1="57.1531" y1="49.5414" x2="51.7752" y2="55.4375" gradientUnits="userSpaceOnUse">
<stop stop-color="#FFF7CC"/>
<stop offset="1" stop-color="#FFF7CC"/>
</linearGradient>
<linearGradient id="paint7_linear" x1="5.49316" y1="80.742" x2="26.1598" y2="80.742" gradientUnits="userSpaceOnUse">
<stop stop-color="#F7A01E"/>
<stop offset="0.1849" stop-color="#F3991E"/>
<stop offset="0.4503" stop-color="#E7861C"/>
<stop offset="0.7629" stop-color="#D4671A"/>
<stop offset="1" stop-color="#C24B18"/>
</linearGradient>
<linearGradient id="paint8_linear" x1="15.3279" y1="80.742" x2="35.9946" y2="80.742" gradientUnits="userSpaceOnUse">
<stop stop-color="#F7A01E"/>
<stop offset="0.1849" stop-color="#F3991E"/>
<stop offset="0.4503" stop-color="#E7861C"/>
<stop offset="0.7629" stop-color="#D4671A"/>
<stop offset="1" stop-color="#C24B18"/>
</linearGradient>
<linearGradient id="paint9_linear" x1="9.94961" y1="73.2286" x2="30.6163" y2="73.2286" gradientUnits="userSpaceOnUse">
<stop stop-color="#F7A01E"/>
<stop offset="0.1849" stop-color="#F3991E"/>
<stop offset="0.4503" stop-color="#E7861C"/>
<stop offset="0.7629" stop-color="#D4671A"/>
<stop offset="1" stop-color="#C24B18"/>
</linearGradient>
<linearGradient id="paint10_linear" x1="24.9898" y1="66.6435" x2="33.8325" y2="60.8561" gradientUnits="userSpaceOnUse">
<stop stop-color="#F7A01E"/>
<stop offset="0.1849" stop-color="#F3991E"/>
<stop offset="0.4503" stop-color="#E7861C"/>
<stop offset="0.7629" stop-color="#D4671A"/>
<stop offset="1" stop-color="#C24B18"/>
</linearGradient>
<linearGradient id="paint11_linear" x1="33.7977" y1="63.9819" x2="23.9063" y2="67.8507" gradientUnits="userSpaceOnUse">
<stop stop-color="white"/>
<stop offset="0.0886383" stop-color="#F3F3F3"/>
<stop offset="0.2508" stop-color="#D2D2D2"/>
<stop offset="0.4682" stop-color="#9C9C9C"/>
<stop offset="0.733" stop-color="#525252"/>
<stop offset="1"/>
</linearGradient>
<linearGradient id="paint12_linear" x1="33.7977" y1="63.9819" x2="23.9063" y2="67.8507" gradientUnits="userSpaceOnUse">
<stop stop-color="#FFF7CC"/>
<stop offset="1" stop-color="#FFF7CC"/>
</linearGradient>
<linearGradient id="paint13_linear" x1="29.9832" y1="74.1482" x2="38.826" y2="68.3609" gradientUnits="userSpaceOnUse">
<stop stop-color="#F7A01E"/>
<stop offset="0.1849" stop-color="#F3991E"/>
<stop offset="0.4503" stop-color="#E7861C"/>
<stop offset="0.7629" stop-color="#D4671A"/>
<stop offset="1" stop-color="#C24B18"/>
</linearGradient>
<linearGradient id="paint14_linear" x1="38.7911" y1="71.4865" x2="28.8997" y2="75.3554" gradientUnits="userSpaceOnUse">
<stop stop-color="white"/>
<stop offset="0.0886383" stop-color="#F3F3F3"/>
<stop offset="0.2508" stop-color="#D2D2D2"/>
<stop offset="0.4682" stop-color="#9C9C9C"/>
<stop offset="0.733" stop-color="#525252"/>
<stop offset="1"/>
</linearGradient>
<linearGradient id="paint15_linear" x1="38.7911" y1="71.4865" x2="28.8997" y2="75.3554" gradientUnits="userSpaceOnUse">
<stop stop-color="#FFF7CC"/>
<stop offset="1" stop-color="#FFF7CC"/>
</linearGradient>
<linearGradient id="paint16_linear" x1="35.6358" y1="81.6631" x2="44.4785" y2="75.8758" gradientUnits="userSpaceOnUse">
<stop stop-color="#F7A01E"/>
<stop offset="0.1849" stop-color="#F3991E"/>
<stop offset="0.4503" stop-color="#E7861C"/>
<stop offset="0.7629" stop-color="#D4671A"/>
<stop offset="1" stop-color="#C24B18"/>
</linearGradient>
<linearGradient id="paint17_linear" x1="44.4437" y1="79.0014" x2="34.5523" y2="82.8703" gradientUnits="userSpaceOnUse">
<stop stop-color="white"/>
<stop offset="0.0886383" stop-color="#F3F3F3"/>
<stop offset="0.2508" stop-color="#D2D2D2"/>
<stop offset="0.4682" stop-color="#9C9C9C"/>
<stop offset="0.733" stop-color="#525252"/>
<stop offset="1"/>
</linearGradient>
<linearGradient id="paint18_linear" x1="44.4437" y1="79.0014" x2="34.5523" y2="82.8703" gradientUnits="userSpaceOnUse">
<stop stop-color="#FFF7CC"/>
<stop offset="1" stop-color="#FFF7CC"/>
</linearGradient>
<linearGradient id="paint19_linear" x1="0.0220762" y1="88.2472" x2="20.6887" y2="88.2472" gradientUnits="userSpaceOnUse">
<stop stop-color="#F7A01E"/>
<stop offset="0.1849" stop-color="#F3991E"/>
<stop offset="0.4503" stop-color="#E7861C"/>
<stop offset="0.7629" stop-color="#D4671A"/>
<stop offset="1" stop-color="#C24B18"/>
</linearGradient>
<linearGradient id="paint20_linear" x1="10.1387" y1="88.2472" x2="30.8054" y2="88.2472" gradientUnits="userSpaceOnUse">
<stop stop-color="#F7A01E"/>
<stop offset="0.1849" stop-color="#F3991E"/>
<stop offset="0.4503" stop-color="#E7861C"/>
<stop offset="0.7629" stop-color="#D4671A"/>
<stop offset="1" stop-color="#C24B18"/>
</linearGradient>
<linearGradient id="paint21_linear" x1="19.9734" y1="88.2472" x2="40.64" y2="88.2472" gradientUnits="userSpaceOnUse">
<stop stop-color="#F7A01E"/>
<stop offset="0.1849" stop-color="#F3991E"/>
<stop offset="0.4503" stop-color="#E7861C"/>
<stop offset="0.7629" stop-color="#D4671A"/>
<stop offset="1" stop-color="#C24B18"/>
</linearGradient>
<linearGradient id="paint22_linear" x1="40.2813" y1="89.1673" x2="49.124" y2="83.3799" gradientUnits="userSpaceOnUse">
<stop stop-color="#F7A01E"/>
<stop offset="0.1849" stop-color="#F3991E"/>
<stop offset="0.4503" stop-color="#E7861C"/>
<stop offset="0.7629" stop-color="#D4671A"/>
<stop offset="1" stop-color="#C24B18"/>
</linearGradient>
<linearGradient id="paint23_linear" x1="49.0893" y1="86.5061" x2="39.1979" y2="90.375" gradientUnits="userSpaceOnUse">
<stop stop-color="white"/>
<stop offset="0.0886383" stop-color="#F3F3F3"/>
<stop offset="0.2508" stop-color="#D2D2D2"/>
<stop offset="0.4682" stop-color="#9C9C9C"/>
<stop offset="0.733" stop-color="#525252"/>
<stop offset="1"/>
</linearGradient>
<linearGradient id="paint24_linear" x1="49.0893" y1="86.5061" x2="39.1979" y2="90.375" gradientUnits="userSpaceOnUse">
<stop stop-color="#FFF7CC"/>
<stop offset="1" stop-color="#FFF7CC"/>
</linearGradient>
<linearGradient id="paint25_linear" x1="56.9998" y1="88.1442" x2="85.417" y2="88.1442" gradientUnits="userSpaceOnUse">
<stop stop-color="#DAD1C0"/>
<stop offset="0.8373" stop-color="#708588"/>
</linearGradient>
<linearGradient id="paint26_linear" x1="58.8429" y1="91.825" x2="57.702" y2="89.7404" gradientUnits="userSpaceOnUse">
<stop stop-color="#56B4A6"/>
<stop offset="1" stop-color="#0C656F"/>
</linearGradient>
<linearGradient id="paint27_linear" x1="83.2299" y1="91.825" x2="82.089" y2="89.7404" gradientUnits="userSpaceOnUse">
<stop stop-color="#56B4A6"/>
<stop offset="1" stop-color="#0C656F"/>
</linearGradient>
<linearGradient id="paint28_linear" x1="58.7989" y1="85.7161" x2="62.9687" y2="90.0328" gradientUnits="userSpaceOnUse">
<stop stop-color="white"/>
<stop offset="1"/>
</linearGradient>
<linearGradient id="paint29_linear" x1="58.7989" y1="85.7161" x2="62.9687" y2="90.0328" gradientUnits="userSpaceOnUse">
<stop stop-color="#FFF7CC"/>
<stop offset="1" stop-color="#FFF7CC"/>
</linearGradient>
<linearGradient id="paint30_linear" x1="84.9878" y1="86.7636" x2="82.7217" y2="88.963" gradientUnits="userSpaceOnUse">
<stop stop-color="white"/>
<stop offset="1"/>
</linearGradient>
<linearGradient id="paint31_linear" x1="84.9878" y1="86.7636" x2="82.7217" y2="88.963" gradientUnits="userSpaceOnUse">
<stop stop-color="#FFF7CC"/>
<stop offset="1" stop-color="#FFF7CC"/>
</linearGradient>
</defs>
</svg>
