<svg xmlns="http://www.w3.org/2000/svg" width="5760" height="870" fill="none" xmlns:v="https://vecta.io/nano"><style><![CDATA[.B{fill:#291b2a}.C{fill:#412b42}.D{fill:#001e20}.E{stroke-miterlimit:10}]]></style><mask id="A" mask-type="alpha" maskUnits="userSpaceOnUse" x="1920" y="0" width="1920" height="870"><path d="M1920 0h1920v870H1920z" class="D"/></mask><g mask="url(#A)"><path d="M1920 0h1941v870H1920z" class="D"/><path d="M2808 1740l587-1349.5 41-152-205.5-108L2692 0h-804v1740h920z" fill="#fff"/></g><path d="M3784 0h1976v870H3784z" class="D"/><path fill="#fff" d="M0 0h1920v870H0z"/><g class="D"><path d="M3030.3 381.413l170.76-84.676 135.45 71.04 64.6-57.84L3608 415.95l-6 3.152h-201.73l-145.14 76.123a40.02 40.02 0 0 1-15.68 0l-209.13-109.68c-.4-.2-.73-.51-.96-.873s-.35-.774-.35-1.192.12-.83.35-1.193.56-.663.96-.873z" style="mix-blend-mode:multiply" opacity=".7"/><path d="M3231.15 125.057a4.17 4.17 0 0 1 2.7.458l206.18 108.134-1.53.28-206.18-108.135a4.13 4.13 0 0 0-2.69-.458l1.52-.28zm165.22 283.787l45.27-167.26 1.52-.28-45.26 167.26c-.14.783-.52 1.514-1.1 2.105s-1.34 1.017-2.18 1.228l-1.53.28a4.74 4.74 0 0 0 2.2-1.228 4.01 4.01 0 0 0 1.1-2.106z"/><path d="M3438.5 233.93l1.53-.28c1.3.84 2.3 2.02 2.87 3.388a6.59 6.59 0 0 1 .26 4.27l-1.52.28c.4-1.414.3-2.903-.26-4.27-.56-1.366-1.56-2.547-2.88-3.387z"/></g><path d="M3181.08 295.93l45.26-167.26c.8-2.912 3.46-4.198 5.98-2.876L3438.5 233.93c1.32.84 2.32 2.02 2.88 3.387a6.59 6.59 0 0 1 .26 4.27l-45.27 167.26c-.8 2.912-3.46 4.198-5.98 2.876L3184.2 303.588c-1.3-.84-2.32-2.02-2.87-3.388a6.59 6.59 0 0 1-.26-4.27z" class="B"/><path d="M3189.96 283.13l41.25-152.4 205.85 107.963-41.3 152.378-205.8-107.94z" fill="#ffc856"/><path d="M3392.46 409.492l.01 5.196c-.05.517-.25 1.013-.58 1.436a3.24 3.24 0 0 1-1.31.968l-144.78 75.932c-1.4.652-2.97.99-4.55.99-1.6 0-3.15-.34-4.56-.99l-204.83-108.13c-.5-.2-.95-.54-1.28-.957s-.53-.905-.58-1.415l-.02-5.196 362.48 32.166z" class="D"/><path d="M3031.9 374.91l144.77-75.93c1.4-.652 2.97-.992 4.55-.992s3.13.34 4.54.992l204.83 108.13a2.78 2.78 0 0 1 1.36.927 2.3 2.3 0 0 1 .51 1.473c0 .527-.18 1.04-.52 1.47s-.82.75-1.37.92l-144.78 75.93c-1.4.652-2.97.99-4.55.99-1.6 0-3.15-.34-4.56-.99L3031.84 379.7a2.78 2.78 0 0 1-1.35-.932 2.37 2.37 0 0 1-.51-1.475 2.42 2.42 0 0 1 .53-1.468 2.76 2.76 0 0 1 1.38-.913z" fill="#e0e0e0"/><path d="M3106.6 409.087l71.12 37.3a6.93 6.93 0 0 0 2.89.629 6.94 6.94 0 0 0 2.9-.629l47.14-24.722a1.72 1.72 0 0 0 .86-.584c.22-.272.34-.6.34-.934s-.12-.662-.34-.934c-.2-.273-.5-.477-.86-.584l-71.12-37.3c-.9-.413-1.9-.63-2.9-.63a6.91 6.91 0 0 0-2.89.629l-47.14 24.723a1.78 1.78 0 0 0-.87.584c-.2.272-.33.6-.33.934s.12.66.33.934c.22.272.52.476.87.584z" fill="#f3befb" style="mix-blend-mode:multiply" opacity=".2"/><path d="M3230.66 419.406l-71.12-37.302a6.99 6.99 0 0 0-2.9-.628 6.91 6.91 0 0 0-2.89.628l-47.14 24.723c-.52.236-.92.64-1.13 1.13-.23-.67.14-1.388 1.13-1.906l47.14-24.723a6.91 6.91 0 0 1 2.89-.629c1 0 2 .216 2.9.63l71.12 37.3c.98.518 1.36 1.236 1.12 1.906-.2-.5-.6-.894-1.12-1.13zm-47.12-118.156l201.77 105.82-6.88 3.6-201.77-105.82 6.88-3.6zm194.9 108.968l6-3.148-200.9-105.36-6 3.148 200.9 105.36z" style="mix-blend-mode:multiply" opacity=".6" fill="#cb89f0"/><path d="M3199.13 321.915a.29.29 0 0 0 0-.285.29.29 0 0 0 0-.286c.05-.2 0-.428-.14-.618-.1-.2-.3-.333-.52-.428l-9.57-5.042c-.52-.238-1.1-.38-1.66-.38s-1.14.142-1.67.38l-8.04 4.233c-.23.095-.38.238-.52.428-.1.19-.14.43-.14.62v.57c-.05.2 0 .428.14.618.1.2.3.333.52.428l9.57 5.042c.52.238 1.1.38 1.66.38s1.14-.142 1.67-.38l8.04-4.233c.23-.096.38-.238.52-.43a.72.72 0 0 0 .14-.618zm-16.08-7.087l-8.04 4.233c-.52.238-1.1.38-1.66.38s-1.15-.143-1.67-.38l-9.56-5.042c-.24-.095-.38-.237-.53-.428-.1-.2-.14-.38-.14-.618v-.57c-.05-.2 0-.428.14-.618.1-.2.3-.333.53-.428l8.04-4.233c.52-.238 1.1-.38 1.66-.38s1.15.143 1.67.38l9.56 5.04c.24.096.38.238.53.43a1.54 1.54 0 0 1 .14.618v.57c.05.2 0 .428-.14.618-.15.238-.34.38-.53.428zm30.93 16.22l-8.04 4.234c-.53.237-1.1.38-1.67.38s-1.14-.143-1.66-.38l-9.57-5.042c-.24-.095-.38-.238-.52-.428a1.26 1.26 0 0 1-.14-.619v-.57c-.05-.19 0-.428.14-.62.1-.2.28-.333.52-.428l8.04-4.233c.53-.238 1.1-.38 1.67-.38s1.14.142 1.66.38l9.57 5.042c.23.095.38.238.52.428a1.54 1.54 0 0 1 .14.618v.57c.05.2 0 .428-.14.618-.14.238-.33.38-.52.428zm82.6 43.284l-8.04 4.233c-.53.238-1.1.38-1.67.38s-1.14-.142-1.66-.38l-9.57-5.042c-.23-.095-.38-.238-.52-.428-.1-.2-.14-.38-.14-.618a.29.29 0 0 1 0-.286.29.29 0 0 1 0-.285c-.05-.2 0-.428.14-.618.1-.19.3-.333.52-.428l8.04-4.234c.53-.237 1.1-.38 1.67-.38s1.14.143 1.67.38l9.56 5.042c.24.095.38.238.52.428a1.39 1.39 0 0 1 .14.619v.57c.05.19 0 .428-.14.62s-.28.333-.52.428zm-30.93-16.267l-8.04 4.233c-.52.238-1.1.38-1.66.38s-1.14-.143-1.67-.38l-9.56-5.042c-.24-.095-.38-.238-.52-.428-.1-.2-.15-.428-.15-.618v-.57c-.04-.2 0-.428.15-.618.1-.19.28-.333.52-.428l8.04-4.234c.52-.237 1.1-.38 1.67-.38.57 0 1.14.143 1.66.38l9.56 5.042c.24.095.38.238.53.428.1.19.14.428.14.62v.57c.05.19 0 .428-.14.62a.7.7 0 0 1-.53.428zm-30.92-16.22l-8.04 4.234c-.52.237-1.1.38-1.67.38s-1.14-.143-1.66-.38l-14.56-7.658c-.24-.095-.38-.238-.52-.428-.1-.2-.15-.428-.15-.62-.04-.095-.04-.2 0-.285-.04-.095-.04-.2 0-.285-.04-.19 0-.428.15-.62.1-.2.28-.333.52-.428l8.04-4.233a4.03 4.03 0 0 1 1.67-.38c.57 0 1.14.142 1.66.38l14.56 7.658c.24.095.38.238.52.428a1.26 1.26 0 0 1 .15.618v.57c.04.2 0 .428-.15.618-.14.238-.33.38-.52.428zm15.46 8.134l-8.04 4.233c-.52.238-1.1.38-1.66.38s-1.15-.143-1.67-.38l-9.56-5.042c-.24-.095-.38-.237-.53-.428-.1-.2-.14-.38-.14-.618v-.57c-.05-.2 0-.428.14-.618.1-.2.3-.333.53-.428l8.04-4.233c.52-.238 1.1-.38 1.66-.38s1.15.143 1.67.38l9.56 5.04c.24.095.38.238.52.428a1.41 1.41 0 0 1 .15.619v.57c.05.2 0 .428-.15.618-.14.2-.28.333-.52.428zm30.93 16.22l-8.04 4.233c-.53.238-1.1.38-1.67.38s-1.14-.143-1.66-.38l-9.57-5.04c-.24-.095-.38-.238-.52-.428-.1-.19-.14-.428-.14-.62v-.57c-.05-.19 0-.43.14-.62s.28-.333.52-.428l8.04-4.233c.53-.238 1.1-.38 1.67-.38s1.14.143 1.66.38l9.57 5.042c.23.095.38.238.52.428a1.54 1.54 0 0 1 .14.618v.57c.05.2 0 .428-.14.618-.1.2-.3.333-.52.428zm-65.8-19.596l-8.04 4.233c-.53.238-1.1.38-1.67.38s-1.14-.143-1.66-.38l-9.57-5.042c-.23-.095-.38-.238-.52-.428-.1-.2-.14-.38-.14-.618v-.57c-.05-.2 0-.428.14-.618.1-.2.3-.333.52-.428l8.05-4.233c.52-.238 1.1-.38 1.66-.38s1.14.143 1.67.38l9.56 5.04c.24.095.38.238.52.428.1.19.14.38.14.62v.57c.05.19 0 .43-.14.62-.1.2-.28.333-.52.428zm15.46 8.086l-8.04 4.233a4.03 4.03 0 0 1-1.67.38c-.57 0-1.14-.142-1.66-.38l-9.6-5.042c-.24-.095-.38-.238-.52-.428-.1-.2-.15-.428-.15-.618v-.57c-.04-.2 0-.428.15-.618.1-.19.28-.333.52-.428l8.04-4.234c.52-.237 1.1-.38 1.66-.38.58 0 1.15.143 1.67.38l9.56 5.042c.24.095.38.238.53.428.1.19.14.38.14.62v.57c.05.19 0 .428-.14.62-.05.2-.24.333-.48.428zm15.5 8.133l-8.04 4.233c-.52.238-1.1.38-1.67.38-.57 0-1.14-.143-1.66-.38l-9.56-5.04c-.24-.095-.38-.238-.53-.428a1.55 1.55 0 0 1-.14-.619v-.57c-.05-.2 0-.428.14-.618.1-.2.3-.333.53-.428l8.04-4.233c.52-.238 1.1-.38 1.66-.38s1.14.143 1.67.38l9.56 5.042c.24.095.38.237.52.428a1.26 1.26 0 0 1 .15.618v.57c.04.2 0 .428-.15.618-.14.2-.33.333-.52.428zm15.46 8.086l-8.04 4.233c-.52.238-1.1.38-1.66.38s-1.14-.143-1.67-.38l-9.66-5.04c-.23-.096-.38-.238-.52-.43-.1-.2-.14-.38-.14-.618v-.57c-.05-.2 0-.428.14-.618.1-.2.3-.333.52-.428l8.04-4.233c.53-.238 1.1-.38 1.67-.38s1.14.143 1.66.38l9.57 5.042c.24.095.38.237.52.428.1.2.14.38.14.618v.57c.05.2 0 .428-.14.618a.65.65 0 0 1-.43.428zm66.66 34.77l-8.04 4.234c-.53.237-1.1.38-1.67.38s-1.14-.143-1.66-.38l-14.37-7.373c-.24-.095-.38-.238-.53-.428-.1-.2-.14-.38-.14-.618v-.57c-.05-.2 0-.428.14-.618.15-.19.3-.333.53-.428l8.04-4.234c.52-.237 1.1-.38 1.66-.38s1.15.143 1.67.38l14.37 7.373c.23.095.38.238.52.428.1.2.14.38.14.618v.57c.05.2 0 .428-.14.618a.7.7 0 0 1-.52.428zm-20.27-10.416l-8.04 4.233c-.52.238-1.1.38-1.67.38s-1.14-.143-1.66-.38l-9.56-5.042a1.15 1.15 0 0 1-.53-.428c-.1-.2-.14-.38-.14-.618v-.57c-.05-.2 0-.428.14-.618.1-.2.3-.333.53-.428 11.84-6.23 7.85-6.088 21.02.808.24.095.38.238.53.428.1.19.14.38.14.62v.57c.05.2 0 .428-.14.618-.24.2-.38.333-.62.428zm-15.46-8.134l-8.04 4.234c-.53.238-1.1.38-1.67.38s-1.14-.142-1.66-.38l-9.66-4.995c-.24-.095-.38-.237-.53-.428-.1-.2-.14-.38-.14-.618v-.57c-.05-.2 0-.428.14-.618.1-.2.3-.333.53-.428l8.1-4.233c.52-.238 1.1-.38 1.66-.38s1.14.143 1.67.38l9.56 5.04c.24.096.38.238.52.43.1.2.15.428.15.618v.57c.04.2 0 .428-.15.618-.1.2-.24.333-.47.38zm-15.47-8.085c-7.9 4.138-9.27 5.374-11.4 4.233l-9.57-5.042c-.23-.095-.38-.238-.52-.428a1.38 1.38 0 0 1-.14-.618v-.57c-.05-.2 0-.428.14-.62.1-.2.3-.332.52-.428l8.04-4.233c.53-.238 1.1-.38 1.67-.38s1.14.142 1.66.38l9.57 5.042c.23.095.38.238.52.428a1.39 1.39 0 0 1 .14.618v.57c.05.2 0 .428-.14.62s-.3.332-.48.428zm27.6 53.462v-.57c-.05-.2 0-.428.14-.618.1-.19.3-.333.52-.43l8.05-4.233c.52-.238 1.1-.38 1.66-.38s1.14.142 1.67.38l14.55 7.658c.24.095.38.238.53.428a1.38 1.38 0 0 1 .14.618v.57c.05.19 0 .428-.14.62-.1.2-.3.333-.53.428l-8.04 4.233c-.52.238-1.1.38-1.66.38s-1.14-.142-1.67-.38l-14.6-7.658c-.24-.095-.38-.238-.53-.428-.1-.2-.14-.428-.1-.618zm7.28-50.085c-11.6 6.088-7.6 6.23-21.03-.81-.24-.095-.38-.238-.52-.428-.15-.2-.15-.428-.15-.618v-.57c-.04-.2 0-.428.15-.618.1-.19.28-.333.52-.43l8.04-4.233c.52-.238 1.1-.38 1.66-.38a4.03 4.03 0 0 1 1.67.38l9.56 5.042c.24.095.38.238.53.428a1.38 1.38 0 0 1 .14.618v.57c.05.2 0 .428-.14.62-.05.2-.24.333-.43.428zM3150 351.452v-.57c-.05-.19 0-.428.14-.62.1-.2.28-.333.52-.428l8.04-4.233c.53-.238 1.1-.38 1.67-.38s1.14.142 1.66.38l9.57 5.042c.23.095.38.238.52.428s.14.428.14.618v.57c.05.2 0 .428-.14.618s-.3.333-.52.428l-8.04 4.234c-.53.237-1.1.38-1.67.38s-1.14-.143-1.66-.38l-9.57-5.042c-.24-.095-.38-.238-.52-.428s-.2-.428-.14-.62zm182.88 66.305v-.57c-.05-.2 0-.428.14-.618s.3-.333.52-.428l8.04-4.234c.53-.237 1.1-.38 1.67-.38s1.14.143 1.67.38l14.55 7.658c.24.095.38.238.53.428.1.19.14.38.14.62v.57c.05.19 0 .428-.14.62-.1.2-.3.333-.53.428l-8.04 4.233c-.52.238-1.1.38-1.66.38s-1.14-.142-1.67-.38l-14.56-7.658c-.23-.095-.38-.238-.52-.428s-.14-.428-.14-.618zm-5.33-27.207l-8.04 4.233c-.52.238-1.1.38-1.67.38-.57 0-1.14-.143-1.66-.38l-9.56-5.04c-.24-.096-.38-.238-.53-.43-.1-.2-.14-.38-.14-.618v-.57c-.05-.2 0-.428.14-.618.15-.2.3-.333.53-.428l8.04-4.233c.52-.238 1.1-.38 1.66-.38s1.14.143 1.67.38l9.56 5.042c.24.095.38.237.52.428a1.26 1.26 0 0 1 .15.618v.57c.04.2 0 .428-.15.618-.14.2-.33.333-.52.428zm15.46 8.086l-8.04 4.233c-.52.238-1.1.38-1.66.38s-1.15-.143-1.67-.38l-9.56-5.042c-.24-.095-.38-.237-.52-.428-.1-.2-.15-.428-.15-.618v-.57c-.04-.2 0-.428.15-.618.1-.2.28-.333.52-.428l8.04-4.233c.52-.238 1.1-.38 1.66-.38.58 0 1.15.143 1.67.38l9.56 5.04c.24.096.38.238.53.428.1.19.14.38.14.62v.57c.05.2 0 .428-.14.618a1.58 1.58 0 0 1-.53.428zm9.28 14.412v-.57c-.05-.2 0-.428.14-.618.1-.2.3-.333.53-.428l8.04-4.233c.52-.238 1.1-.38 1.66-.38s1.14.143 1.67.38l9.56 5.04c.24.095.38.238.52.428a1.41 1.41 0 0 1 .15.619v.57c.04.19 0 .43-.15.62-.14.2-.28.333-.52.428l-8.04 4.233c-.52.238-1.1.38-1.67.38s-1.14-.143-1.66-.38l-9.56-5.042c-.24-.095-.38-.237-.53-.428-.14-.2-.2-.428-.14-.618zm6.18-6.28l-8.04 4.234c-.52.237-1.1.38-1.66.38s-1.14-.143-1.67-.38l-9.56-5.042c-.24-.095-.38-.238-.52-.428-.15-.2-.15-.38-.15-.62v-.57c-.04-.19 0-.428.15-.62.1-.2.28-.333.52-.428l8.04-4.233c.52-.238 1.1-.38 1.67-.38s1.14.142 1.66.38l9.56 5.042c.24.095.4.238.53.428.1.2.14.38.14.618v.57c.05.2 0 .428-.14.618a1.15 1.15 0 0 1-.53.428zm-253.58-64.734c-.04-.19 0-.428.15-.62.1-.2.28-.333.52-.428l8.04-4.233a4.03 4.03 0 0 1 1.67-.38c.57 0 1.14.142 1.66.38l9.56 5.042c.24.095.38.238.53.428a1.38 1.38 0 0 1 .14.618v.57c.05.2 0 .428-.14.618-.1.19-.3.333-.53.428l-8.04 4.234c-.52.238-1.1.38-1.66.38s-1.14-.142-1.67-.38l-9.56-5.042c-.24-.095-.38-.238-.52-.428-.1-.2-.15-.428-.15-.618-.04-.096-.04-.19 0-.286v-.285zm61.33 15.84l8.04-4.234c.52-.237 1.1-.38 1.67-.38.57 0 1.14.143 1.66.38l9.56 5.042c.24.095.38.238.53.428.1.19.14.38.14.62v.57c.05.19 0 .428-.14.62-.1.2-.3.333-.53.428l-8.04 4.233c-.52.238-1.1.38-1.66.38s-1.14-.142-1.67-.38l-9.56-5.042c-.24-.095-.38-.238-.52-.428a1.26 1.26 0 0 1-.15-.618v-.57c-.04-.2 0-.428.15-.618.1-.19.28-.333.52-.428zm-31.07-16.172l8.04-4.233c.53-.238 1.1-.38 1.67-.38s1.14.143 1.66.38l9.57 5.04c.23.095.38.238.52.428a1.55 1.55 0 0 1 .14.619v.57c.05.2 0 .428-.14.618-.1.2-.3.333-.52.428l-8.04 4.233c-.53.238-1.1.38-1.67.38s-1.14-.143-1.66-.38l-9.57-5.042c-.24-.095-.38-.237-.52-.428-.1-.2-.14-.38-.14-.618v-.57c-.05-.2 0-.428.14-.618s.33-.333.52-.428zm62 32.39l8.04-4.233c.53-.238 1.1-.38 1.67-.38s1.14.143 1.66.38l9.57 5.042c.24.095.38.237.52.428.1.2.14.38.14.618v.57c.05.2 0 .428-.14.618-.1.2-.28.333-.52.428l-8.04 4.233c-.53.238-1.1.38-1.67.38s-1.14-.143-1.66-.38l-9.57-5.04c-.23-.096-.38-.238-.52-.43-.1-.2-.14-.38-.14-.618v-.57c-.05-.2 0-.428.14-.618s.33-.333.52-.428zm-55.8-38.67v.57c.05.2 0 .428-.15.618-.1.19-.28.333-.52.43l-8.04 4.233c-.52.238-1.1.38-1.66.38s-1.15-.142-1.67-.38l-9.56-5.042c-.24-.095-.38-.238-.53-.428a1.54 1.54 0 0 1-.14-.618v-.57c-.05-.19 0-.428.14-.62.1-.2.3-.333.53-.428l8.04-4.233c.52-.238 1.1-.38 1.66-.38s1.15.142 1.67.38l9.56 5.042c.24.095.38.238.52.428.15.2.2.428.15.618zm117.7 71.11l8.04-4.234c.52-.237 1.1-.38 1.67-.38s1.14.143 1.66.38l9.56 5.042c.24.095.38.238.53.428.1.19.14.428.14.62v.57c.05.19 0 .428-.14.62-.1.2-.3.333-.53.428l-8.04 4.233c-.52.238-1.1.38-1.66.38s-1.14-.143-1.67-.38l-9.56-5.042c-.24-.095-.38-.238-.52-.428a1.26 1.26 0 0 1-.15-.618c-.04-.095-.04-.2 0-.286-.04-.095-.04-.2 0-.285-.04-.2 0-.428.15-.618.1-.19.28-.333.52-.428zm-30.97-16.22l8.04-4.233c.52-.238 1.1-.38 1.66-.38a4.03 4.03 0 0 1 1.67.38l9.56 5.042c.24.095.38.238.53.428.14.2.14.38.14.618v.57c.05.2 0 .428-.14.618-.15.19-.3.333-.53.428l-8.04 4.234c-.52.237-1.1.38-1.66.38s-1.15-.143-1.67-.38l-9.56-5.042c-.24-.095-.38-.238-.52-.428-.15-.2-.15-.38-.15-.62v-.57a.73.73 0 0 1 .15-.619c.14-.2.33-.333.52-.428zm15.5 8.134l8.04-4.233c.52-.238 1.1-.38 1.66-.38s1.15.143 1.67.38l9.56 5.04c.24.095.38.238.53.428.1.19.14.38.14.62v.57c.05.2 0 .428-.14.618-.1.2-.3.333-.53.428l-8.04 4.233c-.52.238-1.1.38-1.66.38s-1.15-.143-1.67-.38l-9.56-5.09c-.24-.095-.38-.238-.52-.428a1.27 1.27 0 0 1-.15-.619v-.57a.73.73 0 0 1 .15-.619c.1-.2.28-.333.52-.38zm30.92 16.22l8.04-4.233c.53-.238 1.1-.38 1.67-.38s1.14.143 1.66.38l9.57 5.042c.23.095.38.237.52.428.1.2.14.38.14.618v.57c.05.2 0 .428-.14.618-.1.2-.3.333-.52.428l-8.04 4.233c-.53.238-1.1.38-1.67.38s-1.14-.143-1.66-.38l-9.57-5.04c-.24-.095-.38-.238-.52-.428s-.14-.38-.14-.62v-.57c-.05-.19 0-.43.14-.62s.28-.38.52-.428zm15.46 8.086l8.05-4.233c.52-.238 1.1-.38 1.66-.38s1.14.143 1.67.38l9.56 5.042c.24.095.38.237.52.428s.14.38.14.618v.57c.05.2 0 .428-.14.618s-.28.333-.52.428l-8.04 4.233c-.53.238-1.1.38-1.67.38s-1.14-.143-1.66-.38l-9.57-5.04c-.23-.096-.38-.238-.52-.428-.1-.19-.14-.38-.14-.62v-.57c-.05-.2 0-.428.14-.618s.3-.333.52-.428zm-77.35-40.572l8.04-4.233c.52-.238 1.1-.38 1.66-.38s1.14.143 1.67.38l9.56 5.04c.24.096.38.238.52.428a1.27 1.27 0 0 1 .15.619v.57c.04.2 0 .428-.15.618-.1.2-.28.333-.52.428l-8.04 4.233c-.52.238-1.1.38-1.67.38-.57 0-1.14-.143-1.66-.38l-9.56-5.042c-.24-.095-.38-.237-.53-.428-.1-.2-.14-.38-.14-.618a.29.29 0 0 1 0-.285.29.29 0 0 1 0-.286c-.05-.2 0-.428.14-.618a1.58 1.58 0 0 1 .53-.428zm-30.93-16.22l8.04-4.233c.53-.238 1.1-.38 1.67-.38s1.14.142 1.66.38l9.57 5.042c.23.095.38.238.52.428a1.38 1.38 0 0 1 .14.618v.57c.05.19 0 .428-.14.62-.1.2-.3.333-.52.428l-8.04 4.233c-.53.238-1.1.38-1.67.38s-1.14-.142-1.67-.38l-9.56-5.042c-.24-.095-.38-.238-.52-.428s-.14-.38-.14-.618a.29.29 0 0 1 0-.286.29.29 0 0 1 0-.285c-.05-.2 0-.428.14-.618s.28-.333.52-.43zm84.16 58.695l8.04-4.234c.53-.237 1.1-.38 1.67-.38s1.14.143 1.66.38l9.57 5.042c.24.095.38.238.52.428a1.26 1.26 0 0 1 .14.619v.57c.05.19 0 .428-.14.62-.1.2-.28.333-.52.428l-8.04 4.233c-.53.238-1.1.38-1.67.38s-1.14-.142-1.66-.38l-9.57-5.042c-.23-.095-.38-.238-.52-.428-.1-.2-.14-.38-.14-.618v-.57c-.05-.2 0-.428.14-.618s.3-.38.52-.428zm-15.46-8.134l8.04-4.233c.53-.238 1.1-.38 1.67-.38s1.14.143 1.66.38l9.57 5.042c.23.095.38.237.52.428.1.2.14.38.14.618v.57c.05.2 0 .428-.14.618s-.3.333-.52.428l-8.05 4.233c-.52.238-1.1.38-1.66.38s-1.14-.143-1.67-.38l-9.56-5.04c-.24-.095-.38-.238-.52-.428s-.14-.428-.14-.62v-.57c-.05-.2 0-.428.14-.618.1-.2.28-.333.52-.428zm30.93 16.22l8.04-4.233c.52-.238 1.1-.38 1.66-.38s1.14.142 1.67.38l9.56 5.042c.24.095.38.238.52.428.1.2.15.38.15.618v.57c.04.2 0 .428-.15.62-.1.2-.28.332-.52.428l-8.04 4.233a4.03 4.03 0 0 1-1.67.38c-.57 0-1.14-.142-1.66-.38l-9.56-5.042c-.24-.095-.38-.238-.53-.428a1.38 1.38 0 0 1-.14-.618v-.57c-.05-.2 0-.428.14-.618.15-.19.3-.333.53-.43zm15.46 8.134l8.04-4.233c.52-.238 1.1-.38 1.66-.38s1.15.143 1.67.38l9.56 5.04c.24.096.38.238.53.43.1.2.14.38.14.618v.57c.05.2 0 .428-.14.618-.15.2-.3.333-.53.428l-8.04 4.233c-.52.238-1.1.38-1.66.38s-1.15-.143-1.67-.38l-9.56-5.042c-.24-.095-.38-.237-.52-.428-.15-.2-.15-.38-.15-.618v-.57c-.05-.2 0-.428.15-.618.14-.2.28-.38.52-.428zm-116.13-90.324l8.04-4.234c.52-.237 1.1-.38 1.66-.38s1.14.143 1.67.38l14.55 7.658c.24.095.38.238.53.428.1.19.14.428.14.62v.57c.05.19 0 .43-.14.62-.1.2-.3.333-.53.428l-8.04 4.233c-.52.238-1.1.38-1.66.38s-1.14-.143-1.67-.38l-14.55-7.658c-.24-.095-.4-.238-.53-.428s-.14-.38-.14-.618v-.57c-.05-.2 0-.428.14-.618.1-.238.3-.38.53-.428zm-27.98 14.745l8.04-4.234c.52-.237 1.1-.38 1.67-.38s1.14.143 1.66.38l14.56 7.658c.24.095.38.238.52.428.15.19.15.38.15.62v.57c.04.19 0 .428-.15.62-.14.2-.28.333-.52.428l-8.04 4.233c-.52.238-1.1.38-1.67.38s-1.14-.142-1.66-.38l-14.56-7.658c-.24-.095-.38-.238-.52-.428-.1-.2-.15-.428-.15-.618v-.57c-.04-.2 0-.428.15-.618.14-.19.28-.333.52-.428zM3121 349.122l8.04-4.233c.53-.238 1.1-.38 1.67-.38s1.14.143 1.66.38l9.57 5.04c.23.095.38.238.52.428.1.19.14.38.14.62v.57c.05.2 0 .428-.14.618-.1.2-.3.333-.52.428l-8.04 4.233c-.53.238-1.1.38-1.67.38s-1.14-.143-1.66-.38l-9.57-5.042c-.24-.095-.38-.237-.52-.428-.1-.2-.14-.38-.14-.618v-.57c-.05-.2 0-.428.14-.618s.28-.333.52-.428zm15.46 8.086l8.05-4.234c.52-.237 1.1-.38 1.66-.38s1.14.143 1.67.38l9.56 5.042c.24.095.38.238.52.428.1.19.14.38.14.62v.57c.05.19 0 .43-.14.62-.1.2-.28.333-.52.428l-8.04 4.233c-.53.238-1.1.38-1.67.38s-1.14-.143-1.66-.38l-9.57-5.042c-.23-.095-.38-.238-.52-.428-.1-.2-.14-.38-.14-.618v-.57c-.05-.2 0-.428.14-.618s.3-.333.52-.428zm36.3 18.787l8.04-4.233c.52-.238 1.1-.38 1.66-.38s1.14.142 1.67.38l71.65 37.576c.23.095.38.238.52.428.1.2.14.38.14.618v.57c.05.2 0 .428-.14.618-.1.19-.3.333-.52.43l-8.04 4.233c-.53.238-1.1.38-1.67.38s-1.14-.142-1.67-.38l-71.64-37.576c-.24-.095-.4-.238-.53-.428a1.54 1.54 0 0 1-.14-.618v-.57c-.05-.2 0-.428.14-.618s.3-.38.53-.43zm59.23 1.475l8.04-4.233c.52-.238 1.1-.38 1.66-.38s1.14.143 1.67.38l9.56 5.042c.24.095.38.237.52.428a1.26 1.26 0 0 1 .15.618v.57c.04.2 0 .428-.15.618-.1.2-.28.333-.52.428l-8.04 4.233c-.52.238-1.1.38-1.66.38-.58 0-1.15-.143-1.67-.38l-9.56-5.04c-.24-.096-.38-.238-.53-.43-.1-.2-.14-.38-.14-.618v-.57c-.05-.2 0-.428.14-.618.1-.2.3-.333.53-.428zm15.46 8.133l8.04-4.233a4.03 4.03 0 0 1 1.67-.38c.57 0 1.14.142 1.66.38l9.56 5.042c.24.095.38.238.53.428a1.38 1.38 0 0 1 .14.618v.57c.05.2 0 .428-.14.62-.15.2-.3.332-.53.428l-8.04 4.233c-.52.238-1.1.38-1.66.38s-1.14-.142-1.67-.38l-9.56-5.042c-.24-.095-.38-.238-.52-.428-.1-.2-.15-.38-.15-.618v-.57c-.04-.2 0-.428.15-.618.14-.19.28-.38.52-.43zm-30.92-16.22l8.04-4.233c.52-.238 1.1-.38 1.66-.38s1.14.143 1.67.38l9.56 5.042c.24.095.38.238.52.428s.14.38.14.618v.57c.05.2 0 .428-.14.618s-.28.333-.52.428l-8.04 4.233c-.53.238-1.1.38-1.67.38s-1.14-.143-1.66-.38l-9.56-5.04c-.24-.095-.4-.238-.53-.428-.1-.19-.14-.428-.14-.62v-.57c-.05-.2 0-.428.14-.618a.7.7 0 0 1 .53-.428zm-46.96-48.753v.57c.05.2 0 .428-.15.618-.1.2-.28.333-.52.428l-8.04 4.233c-.52.238-1.1.38-1.66.38s-1.15-.143-1.67-.38l-9.6-5.042c-.24-.095-.38-.237-.52-.428a1.26 1.26 0 0 1-.15-.618v-.57c-.04-.2 0-.428.15-.618.1-.2.28-.333.52-.428l8.04-4.233c.52-.238 1.1-.38 1.67-.38s1.14.143 1.66.38l9.56 5.04c.24.096.38.238.53.43a.97.97 0 0 1 .19.618zm31.5 40.62l8.04-4.234c.53-.237 1.1-.38 1.67-.38s1.14.143 1.66.38l9.57 5.042c.23.095.38.238.52.428.1.19.14.428.14.62v.57c.05.19 0 .428-.14.62-.1.2-.3.333-.52.428l-8.04 4.233c-.53.238-1.1.38-1.67.38s-1.14-.143-1.66-.38l-9.57-5.042c-.23-.095-.38-.238-.52-.428a1.39 1.39 0 0 1-.14-.618v-.57c-.05-.2 0-.428.14-.618.1-.19.3-.333.52-.428zm61.85 32.438l8.04-4.233c.53-.238 1.1-.38 1.67-.38s1.14.142 1.66.38l9.57 5.042c.23.095.38.238.52.428a1.38 1.38 0 0 1 .14.618v.57c.05.2 0 .428-.14.618-.1.19-.3.333-.52.43l-8.05 4.233c-.52.238-1.1.38-1.66.38s-1.14-.142-1.67-.38l-9.56-5.042c-.24-.095-.38-.238-.52-.428a1.26 1.26 0 0 1-.14-.618v-.57c-.05-.19 0-.428.14-.62s.33-.333.52-.428zm15.46 8.134l8.04-4.233c.53-.238 1.1-.38 1.67-.38s1.14.143 1.66.38l9.57 5.04c.24.096.38.238.52.428.1.19.14.43.14.62v.57c.05.2 0 .428-.14.618-.1.2-.28.333-.52.428l-8.04 4.233c-.53.238-1.1.38-1.67.38s-1.14-.143-1.66-.38l-9.57-5.042c-.23-.095-.38-.237-.52-.428s-.14-.38-.14-.618v-.57c-.05-.2 0-.428.14-.618s.33-.333.52-.428z" class="B"/><path d="M3352.9 412.8l9.56 5.042a4.03 4.03 0 0 0 1.67.38c.57 0 1.14-.142 1.66-.38l8.04-4.233c.2-.048.38-.19.52-.333.15-.143.2-.333.2-.523s-.04-.38-.2-.524c-.14-.142-.28-.285-.52-.333l-9.56-5.04c-.53-.238-1.1-.38-1.67-.38s-1.14.143-1.66.38l-8.04 4.233c-.2.047-.38.2-.53.333-.14.142-.2.333-.2.523s.05.38.2.523c.15.143.34.238.53.333zm-15.46-9.893l8.04-4.233c.52-.238 1.1-.38 1.66-.38s1.14.143 1.67.38l9.56 5.04c.2.048.38.19.52.333s.2.333.2.523-.05.38-.2.524-.28.285-.52.333l-8.04 4.233c-.53.238-1.1.38-1.67.38s-1.14-.142-1.66-.38l-9.56-4.994c-.2-.048-.4-.19-.53-.333s-.2-.333-.2-.524.05-.38.2-.523c.14-.2.33-.333.53-.38zm-15.47-8.134l8.04-4.233c.53-.238 1.1-.38 1.67-.38s1.14.142 1.66.38l9.57 5.042c.2.047.38.2.52.333s.2.333.2.523-.05.38-.2.523-.3.286-.52.333l-8.04 4.233c-.53.238-1.1.38-1.67.38s-1.14-.143-1.66-.38l-9.57-5.04c-.2-.048-.38-.19-.52-.333s-.2-.333-.2-.524.05-.38.2-.523.33-.238.52-.333zm-15.46-8.086l8.04-4.233c.52-.238 1.1-.38 1.67-.38s1.14.142 1.66.38l9.56 5.042c.2.048.38.2.53.333.14.143.2.333.2.523s-.05.38-.2.523c-.15.143-.3.286-.53.333l-8.04 4.234c-.52.237-1.1.38-1.66.38s-1.14-.143-1.67-.38l-9.56-5.042c-.2-.048-.38-.19-.52-.333-.15-.143-.2-.333-.2-.523s.04-.38.2-.524c.14-.142.33-.285.52-.333zm-15.46-8.133l8.04-4.233c.52-.238 1.1-.38 1.66-.38s1.15.143 1.67.38l9.56 5.042c.2.047.38.2.53.332.14.143.2.333.2.524s-.05.38-.2.523c-.15.143-.3.285-.53.333l-8.04 4.233c-.52.238-1.1.38-1.66.38s-1.15-.143-1.67-.38l-9.56-5.042c-.2-.047-.38-.2-.52-.333-.15-.142-.2-.333-.2-.523s.05-.38.2-.523c.14-.143.33-.238.52-.333zm-15.46-8.086l8.04-4.233c.52-.238 1.1-.38 1.66-.38s1.14.143 1.67.38l9.56 5.042c.2.047.38.2.52.333.15.142.2.333.2.523s-.04.38-.2.523c-.14.143-.28.285-.52.333l-8.04 4.233c-.52.238-1.1.38-1.67.38-.57 0-1.14-.143-1.66-.38l-9.56-5.042c-.2-.047-.38-.2-.53-.333-.14-.142-.2-.333-.2-.523s.05-.38.2-.523c.15-.143.34-.285.53-.333zm-15.47-8.133l8.04-4.234c.53-.237 1.1-.38 1.67-.38s1.14.143 1.66.38l9.57 5.042c.2.048.38.2.52.333s.2.333.2.523-.05.38-.2.524-.28.285-.52.332l-8.04 4.234c-.53.238-1.1.38-1.67.38s-1.14-.142-1.66-.38l-9.57-5.042c-.2-.048-.38-.2-.52-.333s-.2-.333-.2-.523.05-.38.2-.523.3-.286.52-.333zm-15.46-8.086l8.04-4.234c.53-.237 1.1-.38 1.67-.38s1.14.143 1.66.38l9.57 5.042c.2.048.38.19.52.333s.2.333.2.523-.05.38-.2.524-.3.285-.52.333l-8.05 4.233c-.52.238-1.1.38-1.66.38s-1.14-.142-1.67-.38l-9.56-5.042c-.2-.048-.38-.2-.52-.333s-.2-.333-.2-.523.05-.38.2-.523.28-.286.52-.333zm-15.5-8.134l8.04-4.233c.53-.238 1.1-.38 1.67-.38s1.14.142 1.66.38l9.57 5.042c.2.047.38.2.52.333s.2.333.2.523-.05.38-.2.523-.3.286-.52.333l-8.04 4.233c-.53.238-1.1.38-1.67.38s-1.14-.143-1.67-.38l-9.56-5.04c-.2-.048-.38-.19-.52-.333s-.2-.333-.2-.524.05-.38.2-.523.33-.285.52-.333zm-20.46-10.702l8.04-4.233c.53-.238 1.1-.38 1.67-.38s1.14.142 1.67.38l14.55 7.658c.2.047.38.2.53.333.14.143.2.333.2.523s-.05.38-.2.523c-.15.143-.3.286-.53.333l-8.04 4.233c-.52.238-1.1.38-1.66.38s-1.14-.143-1.67-.38l-14.56-7.657c-.2-.048-.38-.19-.52-.333s-.2-.333-.2-.524.05-.38.2-.523.33-.285.52-.333zm-58.1 13.984l8.04-4.233c.53-.238 1.1-.38 1.67-.38s1.14.143 1.66.38l9.57 5.042c.2.047.38.2.52.333s.2.333.2.523-.05.38-.2.523-.28.285-.52.333l-8.04 4.233c-.53.238-1.1.38-1.67.38s-1.14-.143-1.66-.38l-9.57-5.042c-.2-.047-.38-.2-.52-.333s-.2-.332-.2-.523.05-.38.2-.523.33-.238.52-.333zm-15.46-8.086l8.04-4.233c.53-.238 1.1-.38 1.67-.38s1.14.142 1.66.38l9.57 5.042c.2.047.38.2.52.333s.2.333.2.523-.05.38-.2.523-.3.286-.52.333l-8.05 4.233c-.52.238-1.1.38-1.66.38s-1.14-.143-1.67-.38l-9.56-5.04c-.2-.048-.38-.19-.52-.333s-.2-.333-.2-.524.05-.38.2-.523.33-.285.52-.333zm-15.46-8.133l8.04-4.233c.52-.238 1.1-.38 1.67-.38.57 0 1.14.143 1.66.38l9.56 5.04c.2.048.38.19.53.333.14.143.2.333.2.524s-.05.38-.2.523c-.15.142-.3.285-.53.333l-8.04 4.233c-.52.238-1.1.38-1.66.38s-1.14-.142-1.67-.38l-9.56-5.042c-.2-.047-.38-.2-.52-.333-.15-.143-.2-.333-.2-.523s.04-.38.2-.523c.14-.143.33-.238.52-.333zm16.8 23.64l8.04-4.233c.53-.238 1.1-.38 1.67-.38s1.14.143 1.66.38l9.57 5.042c.2.047.38.2.52.333s.2.333.2.523-.05.38-.2.523-.28.285-.52.333l-8.04 4.233c-.53.238-1.1.38-1.67.38s-1.14-.143-1.66-.38l-9.57-5.042c-.2-.047-.38-.2-.52-.333s-.2-.332-.2-.523.05-.38.2-.523.33-.238.52-.333zM3121 348.74l8.04-4.233c.53-.238 1.1-.38 1.67-.38s1.14.142 1.66.38l9.57 5.042c.2.047.38.2.52.333s.2.333.2.523-.05.38-.2.523-.3.286-.52.333l-8.05 4.233c-.52.238-1.1.38-1.66.38s-1.14-.143-1.67-.38l-9.56-5.04c-.2-.048-.38-.19-.52-.333s-.2-.333-.2-.524.05-.38.2-.523.33-.285.52-.333zm-15.46-8.133l8.04-4.233c.52-.238 1.1-.38 1.67-.38.57 0 1.14.143 1.66.38l9.6 5.04c.2.048.38.19.52.333.15.143.2.333.2.524s-.04.38-.2.523c-.14.142-.28.285-.52.333l-8.04 4.233c-.52.238-1.1.38-1.66.38a4.03 4.03 0 0 1-1.67-.38l-9.6-4.994c-.2-.048-.38-.19-.52-.333-.15-.143-.2-.333-.2-.523s.04-.38.2-.524c.14-.2.33-.285.52-.38zm227.98 75.15l8.04-4.233c.53-.238 1.1-.38 1.67-.38s1.14.143 1.66.38l14.56 7.658c.2.047.38.2.53.333.14.142.2.333.2.523s-.05.38-.2.523c-.15.143-.3.285-.53.333l-8.04 4.233c-.52.238-1.1.38-1.66.38s-1.14-.143-1.67-.38l-14.56-7.6c-.2-.048-.38-.2-.52-.333s-.2-.333-.2-.523.05-.38.2-.523c.14-.238.33-.333.52-.38zm-30.92-16.22l8.04-4.234c.52-.237 1.1-.38 1.66-.38.58 0 1.15.143 1.67.38l14.37 7.373c.2.047.38.2.52.333s.2.333.2.523-.05.38-.2.523-.28.286-.52.333l-8.04 4.233c-.53.238-1.1.38-1.67.38s-1.14-.143-1.66-.38l-14.37-7.372c-.2-.048-.38-.2-.52-.333-.15-.143-.2-.333-.2-.523s.04-.38.2-.523c.14-.19.28-.286.52-.333zm-15.5-8.134l8.04-4.233a4.03 4.03 0 0 1 1.67-.38c.57 0 1.14.142 1.66.38l9.56 5.042c.2.047.38.2.53.333.14.142.2.333.2.523s-.05.38-.2.523c-.15.143-.3.286-.53.333l-8.04 4.233c-.52.238-1.1.38-1.66.38s-1.14-.143-1.67-.38l-9.56-5.04c-.2-.048-.38-.19-.52-.333-.15-.143-.2-.333-.2-.524s.04-.38.2-.523c.14-.143.33-.285.52-.333zm-15.46-8.086l8.04-4.233c.52-.238 1.1-.38 1.66-.38s1.14.142 1.67.38l9.56 5.042c.2.047.38.2.52.333.15.143.2.333.2.523s-.04.38-.2.523c-.14.143-.28.286-.52.333l-8.04 4.233c-.52.238-1.1.38-1.66.38-.58 0-1.15-.143-1.67-.38l-9.56-4.994c-.2-.047-.38-.2-.53-.333-.14-.142-.2-.333-.2-.523s.05-.38.2-.523c.15-.238.34-.333.53-.38zm-15.46-8.133l8.04-4.233c.52-.238 1.1-.38 1.66-.38s1.14.143 1.67.38l9.56 5.04c.2.048.38.19.52.333s.2.333.2.524-.05.38-.2.523-.28.285-.52.333l-8.04 4.233c-.53.238-1.1.38-1.67.38s-1.14-.142-1.66-.38l-9.56-5.042c-.2-.047-.4-.2-.53-.333s-.2-.333-.2-.523.05-.38.2-.523.33-.286.53-.333zm-15.47-8.134l8.04-4.233c.53-.238 1.1-.38 1.67-.38s1.14.142 1.66.38l9.57 5.042c.2.048.38.2.52.333s.2.333.2.523-.05.38-.2.523-.3.286-.52.333l-8.04 4.234c-.53.237-1.1.38-1.67.38s-1.14-.143-1.66-.38l-9.57-4.947c-.2-.048-.38-.2-.52-.333s-.2-.333-.2-.523.05-.38.2-.524c.14-.237.33-.332.52-.428zm-15.46-8.085l8.04-4.234c.52-.238 1.1-.38 1.67-.38s1.14.142 1.66.38l9.56 5.042c.2.048.38.2.53.333.14.143.2.333.2.523s-.05.38-.2.523c-.15.143-.3.286-.53.333l-8.04 4.234c-.52.237-1.1.38-1.66.38s-1.14-.143-1.67-.38l-9.56-5.042c-.2-.048-.38-.2-.52-.333-.15-.143-.2-.333-.2-.523s.04-.38.2-.524c.14-.142.33-.285.52-.332zm-15.46-8.134l8.04-4.233c.52-.238 1.1-.38 1.66-.38.58 0 1.15.143 1.67.38l9.56 5.042c.2.047.38.2.53.333.14.142.2.333.2.523s-.05.38-.2.523c-.15.143-.3.285-.53.333l-8.04 4.233c-.52.238-1.1.38-1.66.38s-1.15-.143-1.67-.38l-9.56-4.947c-.2-.047-.38-.2-.52-.332-.15-.143-.2-.333-.2-.524s.05-.38.2-.523c.14-.238.33-.333.52-.428zm-15.46-8.086l8.04-4.233c.52-.238 1.1-.38 1.66-.38s1.14.143 1.67.38l9.56 5.042c.2.047.38.2.52.333.15.142.2.333.2.523s-.04.38-.2.523c-.14.143-.28.285-.52.333l-8.04 4.233c-.52.238-1.1.38-1.67.38-.57 0-1.14-.143-1.66-.38l-9.56-5.042c-.2-.047-.38-.2-.53-.332-.14-.143-.2-.333-.2-.524s.05-.38.2-.523c.15-.143.3-.285.53-.333zm130.5 83l8.04-4.234c.52-.237 1.1-.38 1.66-.38s1.14.143 1.67.38l9.56 5.042c.2.048.38.2.52.333.15.143.2.333.2.523s-.04.38-.2.523c-.14.143-.28.286-.52.333l-8.04 4.234c-.52.237-1.1.38-1.66.38-.58 0-1.15-.143-1.67-.38l-9.56-4.995c-.2-.047-.38-.2-.53-.333-.14-.142-.2-.332-.2-.523s.05-.38.2-.523c.15-.2.3-.285.53-.38zm-15.46-8.086l8.04-4.234c.52-.237 1.1-.38 1.66-.38s1.14.143 1.67.38l9.56 5.042c.2.048.38.2.52.333s.2.333.2.523-.05.38-.2.524-.28.285-.52.333l-8.04 4.233c-.53.238-1.1.38-1.67.38s-1.14-.142-1.66-.38l-9.56-4.994c-.2-.048-.4-.19-.53-.333s-.2-.333-.2-.524.05-.38.2-.523c.14-.2.3-.333.53-.38zm-30.98-16.22l8.04-4.233c.53-.238 1.1-.38 1.67-.38s1.14.142 1.66.38l9.57 5.042c.2.047.38.2.52.333s.2.333.2.523-.05.38-.2.523-.3.286-.52.333l-8.04 4.233c-.53.238-1.1.38-1.67.38s-1.14-.143-1.66-.38l-9.57-5.04c-.2-.048-.38-.19-.52-.333s-.2-.333-.2-.524.05-.38.2-.523.33-.285.52-.333zm18.37 39.05l8.04-4.233c.52-.238 1.1-.38 1.66-.38s1.14.142 1.67.38l9.56 5.042c.2.048.38.2.52.333.15.143.2.333.2.523s-.04.38-.2.523c-.14.143-.28.286-.52.333l-8.04 4.234c-.52.237-1.1.38-1.66.38-.58 0-1.15-.143-1.67-.38l-9.56-4.995c-.2-.047-.38-.2-.53-.333-.14-.142-.2-.333-.2-.523s.05-.38.2-.523c.15-.143.34-.333.53-.38zm-15.46-8.133l8.04-4.233c.52-.238 1.1-.38 1.66-.38s1.14.143 1.67.38l9.56 5.042c.2.047.38.2.52.332s.2.333.2.524-.05.38-.2.523-.28.285-.52.333l-8.04 4.233c-.52.238-1.1.38-1.67.38s-1.14-.143-1.66-.38l-9.56-5.042c-.2-.047-.4-.2-.53-.333s-.2-.333-.2-.523.05-.38.2-.523.34-.285.53-.333zm-15.47-8.086l8.04-4.233c.53-.238 1.1-.38 1.67-.38s1.14.143 1.66.38l9.57 5.042c.2.047.38.2.52.333s.2.333.2.523-.05.38-.2.523-.3.285-.52.333l-8.04 4.233c-.53.238-1.1.38-1.67.38s-1.14-.143-1.66-.38l-9.57-5.042c-.2-.047-.38-.2-.52-.333s-.2-.333-.2-.523.05-.38.2-.523.33-.285.52-.333zm-15.46-8.133l8.04-4.234c.52-.237 1.1-.38 1.67-.38s1.14.143 1.66.38l9.56 5.042c.2.048.38.2.53.333.14.143.2.333.2.523s-.05.38-.2.524c-.15.142-.3.285-.53.332l-8.04 4.234c-.52.237-1.1.38-1.66.38s-1.14-.143-1.67-.38l-9.56-5.042c-.2-.048-.38-.2-.52-.333-.15-.143-.2-.333-.2-.523s.04-.38.2-.523c.14-.143.28-.286.52-.333zm-97.72-51.227l8.04-4.233c.52-.238 1.1-.38 1.67-.38.57 0 1.14.143 1.66.38l14.56 7.658c.2.047.38.2.52.333s.2.333.2.523-.05.38-.2.523-.28.285-.52.333l-8.04 4.233c-.52.238-1.1.38-1.67.38s-1.14-.143-1.66-.38l-14.56-7.658c-.2-.047-.38-.2-.52-.333-.15-.142-.2-.333-.2-.523s.04-.38.2-.523c.14-.143.33-.285.52-.333zm110.28 28.396l8.04-4.233c.52-.238 1.1-.38 1.67-.38s1.14.143 1.66.38l9.56 5.04a1.25 1.25 0 0 1 .53.333c.14.143.2.333.2.524s-.05.38-.2.523-.3.285-.53.333l-8.04 4.233c-.52.238-1.1.38-1.66.38s-1.14-.142-1.67-.38l-9.56-5.042c-.2-.047-.38-.2-.52-.333-.15-.143-.2-.333-.2-.523s.04-.38.2-.523c.14-.143.33-.286.52-.333zm-15.46-8.086l8.04-4.233c.52-.238 1.1-.38 1.66-.38.58 0 1.15.143 1.67.38l9.56 5.04c.2.048.38.19.53.333.14.143.2.333.2.524s-.05.38-.2.523c-.15.143-.3.285-.53.333l-8.04 4.233c-.52.238-1.1.38-1.66.38s-1.15-.143-1.67-.38l-9.56-5.042c-.2-.047-.38-.2-.52-.333-.15-.142-.2-.333-.2-.523s.04-.38.2-.523c.14-.2.33-.286.52-.333zM3232 377.09l8.04-4.233c.52-.238 1.1-.38 1.66-.38s1.14.142 1.67.38l9.56 5.042c.2.048.38.2.52.333.15.143.2.333.2.523s-.04.38-.2.523c-.14.143-.28.286-.52.333l-8.04 4.234c-.52.237-1.1.38-1.67.38-.57 0-1.14-.143-1.66-.38l-9.56-5.042c-.2-.048-.38-.2-.53-.333-.14-.143-.2-.333-.2-.523s.05-.38.2-.524c.15-.142.34-.285.53-.333zm-15.47-8.085l8.04-4.234c.53-.237 1.1-.38 1.67-.38s1.14.143 1.67.38l9.56 5.042c.2.048.38.2.52.333s.2.333.2.523-.05.38-.2.523-.28.286-.52.333l-8.04 4.234c-.53.237-1.1.38-1.67.38s-1.14-.143-1.66-.38l-9.57-5.042c-.2-.048-.38-.2-.52-.333s-.2-.333-.2-.523.05-.38.2-.523.3-.286.52-.333zm-15.46-8.134l8.04-4.233c.53-.238 1.1-.38 1.67-.38s1.14.143 1.66.38l9.57 5.042c.2.047.38.2.52.333s.2.333.2.523-.05.38-.2.523-.3.285-.52.333l-8.04 4.233c-.53.238-1.1.38-1.67.38s-1.14-.143-1.67-.38l-9.56-5.042c-.2-.047-.38-.2-.52-.333s-.2-.332-.2-.523.05-.38.2-.523.28-.285.52-.333zm-20.46-10.75l8.04-4.234c.53-.237 1.1-.38 1.67-.38s1.14.143 1.67.38l14.55 7.658c.2.048.38.2.53.333.14.143.2.333.2.523s-.05.38-.2.524c-.15.142-.3.285-.53.333l-8.04 4.233c-.52.238-1.1.38-1.66.38s-1.14-.142-1.67-.38l-14.56-7.658c-.2-.048-.38-.2-.52-.333s-.2-.333-.2-.523.05-.38.2-.523a1.44 1.44 0 0 1 .52-.333zm124.8 80.383l8.04-4.233c.52-.238 1.1-.38 1.66-.38s1.14.143 1.67.38l14.56 7.658c.2.047.38.2.52.333s.2.332.2.523-.05.38-.2.523-.3.285-.52.333l-8.05 4.233c-.52.238-1.1.38-1.66.38s-1.14-.143-1.67-.38l-14.55-7.6c-.2-.048-.38-.2-.53-.333-.14-.143-.2-.333-.2-.523s.05-.38.2-.524c.15-.237.34-.333.53-.38zm-15.47-8.134l8.04-4.233c.53-.238 1.1-.38 1.67-.38s1.14.142 1.66.38l9.57 5.042c.2.048.38.2.52.333s.2.333.2.523-.05.38-.2.523-.28.286-.52.333l-8.04 4.234c-.53.237-1.1.38-1.67.38s-1.14-.143-1.66-.38l-9.57-5.042c-.2-.048-.38-.2-.52-.333s-.2-.333-.2-.523.05-.38.2-.524.33-.285.52-.333zm-15.46-8.085l8.04-4.234c.53-.237 1.1-.38 1.67-.38s1.14.143 1.66.38l9.57 5.042c.2.048.38.2.52.333s.2.333.2.523-.05.38-.2.524-.3.285-.52.332l-8.04 4.234c-.53.238-1.1.38-1.67.38s-1.14-.142-1.67-.38l-9.56-4.995c-.2-.047-.38-.2-.52-.332s-.2-.333-.2-.524.05-.38.2-.523c.14-.238.28-.333.52-.38zm-15.46-8.134l8.04-4.233c.52-.238 1.1-.38 1.67-.38.57 0 1.14.143 1.66.38l9.56 5.042c.2.047.38.2.53.333.14.142.2.333.2.523s-.05.38-.2.523c-.15.143-.3.285-.53.333l-8.04 4.233c-.52.238-1.1.38-1.66.38s-1.14-.143-1.67-.38l-9.56-5.042c-.2-.047-.38-.2-.52-.333-.15-.142-.2-.332-.2-.523s.04-.38.2-.523c.14-.143.28-.285.52-.333zm-15.46-8.133l8.04-4.234c.52-.237 1.1-.38 1.66-.38s1.14.143 1.67.38l9.56 5.042c.2.048.38.19.52.333.15.143.2.333.2.523s-.04.38-.2.524c-.14.142-.28.285-.52.333l-8.04 4.233c-.52.238-1.1.38-1.66.38a4.03 4.03 0 0 1-1.67-.38l-9.56-4.947c-.2-.047-.38-.2-.53-.333-.14-.143-.2-.333-.2-.523s.05-.38.2-.523a.95.95 0 0 1 .53-.428zm-70.8-22.45l8.04-4.233c.53-.238 1.1-.38 1.67-.38s1.14.142 1.67.38l71.64 37.576c.2.047.4.2.53.333s.2.333.2.523-.05.38-.2.523-.3.286-.53.333l-8.04 4.233c-.52.238-1.1.38-1.66.38s-1.14-.143-1.67-.38l-71.65-37.575c-.2-.048-.38-.19-.52-.333s-.2-.333-.2-.523.05-.38.2-.524.3-.237.52-.333zm55.3 14.365l8.04-4.233c.52-.238 1.1-.38 1.66-.38s1.15.143 1.67.38l9.56 5.04c.2.048.38.19.52.333.15.143.2.333.2.523s-.04.38-.2.524c-.14.142-.28.285-.52.333l-8.04 4.233c-.52.238-1.1.38-1.66.38a4.03 4.03 0 0 1-1.67-.38l-9.56-5.042c-.2-.048-.38-.2-.53-.333-.14-.143-.2-.333-.2-.523s.05-.38.2-.523c.15-.143.34-.286.53-.333zm-15.46-8.134l8.04-4.233c.52-.238 1.1-.38 1.66-.38s1.14.142 1.67.38l9.56 5.042c.2.047.38.2.52.333.15.143.2.333.2.523s-.04.38-.2.523c-.14.143-.28.286-.52.333l-8.04 4.233c-.52.238-1.1.38-1.67.38s-1.14-.143-1.66-.38l-9.56-5.04a1.25 1.25 0 0 1-.53-.333c-.14-.143-.2-.333-.2-.524s.05-.38.2-.523.34-.238.53-.333zm-15.47-8.086l8.04-4.233c.53-.238 1.1-.38 1.67-.38s1.14.142 1.66.38l9.57 5.042c.2.048.38.2.52.333s.2.333.2.523-.05.38-.2.523-.3.286-.52.333l-8.04 4.233c-.53.238-1.1.38-1.67.38s-1.14-.143-1.66-.38l-9.57-5.04c-.2-.048-.38-.19-.52-.333s-.2-.333-.2-.523.05-.38.2-.524.33-.285.52-.333zm-15.46-8.133l8.04-4.233c.52-.238 1.1-.38 1.67-.38s1.14.143 1.66.38l9.56 5.042c.2.047.4.2.53.332s.2.333.2.524-.05.38-.2.523-.3.285-.53.333l-8.04 4.233c-.52.238-1.1.38-1.66.38s-1.14-.143-1.67-.38l-9.56-5.042c-.2-.047-.38-.2-.52-.333s-.2-.333-.2-.523.05-.38.2-.523.33-.238.52-.333zm-15.46-8.086l8.04-4.233c.52-.238 1.1-.38 1.66-.38.58 0 1.15.143 1.67.38l9.56 5.042c.2.047.38.2.53.333.14.142.2.333.2.523s-.05.38-.2.523c-.15.143-.3.285-.53.333l-8.04 4.233c-.52.238-1.1.38-1.66.38s-1.14-.143-1.67-.38l-9.56-5.042c-.2-.047-.38-.2-.52-.333-.15-.142-.2-.333-.2-.523s.04-.38.2-.523c.14-.143.33-.285.52-.333zm26.74-30.25l8.04-4.233c.52-.238 1.1-.38 1.66-.38s1.14.142 1.67.38l9.56 5.042c.2.047.38.2.52.333.15.142.2.333.2.523s-.04.38-.2.523c-.14.143-.28.286-.52.333l-8.04 4.233c-.52.238-1.1.38-1.67.38-.57 0-1.14-.143-1.66-.38l-9.56-5.04c-.2-.048-.38-.19-.53-.333-.14-.143-.2-.333-.2-.524s.05-.38.2-.523c.15-.2.34-.285.53-.333zm-15.47-8.133l8.04-4.233c.53-.238 1.1-.38 1.67-.38s1.14.143 1.67.38l9.56 5.04c.2.048.38.19.52.333s.2.333.2.524-.05.38-.2.523-.28.285-.52.333l-8.04 4.233c-.53.238-1.1.38-1.67.38s-1.14-.142-1.66-.38l-9.57-5.042c-.2-.047-.38-.2-.52-.333s-.2-.333-.2-.523.05-.38.2-.523.33-.286.52-.333zm-15.46-8.086l8.04-4.233c.53-.238 1.1-.38 1.67-.38s1.14.143 1.66.38l9.57 5.04c.2.048.38.19.52.333s.2.333.2.524-.05.38-.2.523-.3.285-.52.333l-8.04 4.233c-.53.238-1.1.38-1.67.38s-1.14-.143-1.66-.38l-9.57-5.042c-.2-.047-.38-.2-.52-.333s-.2-.333-.2-.523.05-.38.2-.523c.14-.2.33-.286.52-.333zm-14.08 7.372l8.04-4.233a4.03 4.03 0 0 1 1.67-.38c.57 0 1.14.142 1.66.38l9.56 5.042c.2.047.38.2.53.333.14.143.2.333.2.523s-.05.38-.2.523c-.15.143-.3.286-.53.333l-8.04 4.233c-.52.238-1.1.38-1.66.38s-1.14-.143-1.67-.38l-9.56-4.994c-.2-.047-.38-.2-.52-.333-.15-.142-.2-.333-.2-.523s.04-.38.2-.523c.14-.2.28-.333.52-.38z" class="C"/><path d="M3320.6 412.097l10.6-5.565c.67-.286 1.38-.476 2.1-.476.7 0 1.42.143 2.1.476l24.26 12.747c.3.095.48.285.62.523a1.42 1.42 0 0 1 .19.761v.57c.05.238-.05.523-.2.76s-.38.38-.62.523l-21.17 11.082c-.66.286-1.38.476-2.1.476-.72 0-1.43-.143-2.1-.476l-40.25-21.118c-.3-.095-.48-.285-.62-.523-.15-.238-.2-.476-.2-.76v-.57c-.05-.238.04-.523.2-.76.14-.238.38-.38.62-.523l7.9-4.138a3.43 3.43 0 0 1 1.38-.286c.48 0 .95.095 1.38.286l13.5 6.992c.4.142.77.237 1.2.237.43 0 .8-.047 1.2-.237z" class="B"/><path d="M3294.05 408.863l7.9-4.138c.43-.2.9-.286 1.38-.286a3.41 3.41 0 0 1 1.38.286l13.5 6.992c.4.142.77.238 1.2.238.43 0 .8-.096 1.2-.238l10.6-5.565c.67-.286 1.38-.476 2.1-.476.7 0 1.42.143 2.1.476l24.26 12.747c.24.095.48.238.62.428s.24.428.24.666-.1.476-.24.666-.38.333-.62.428l-21.17 11.082c-.66.286-1.38.476-2.1.476-.72 0-1.43-.143-2.1-.476l-40.25-21.118c-.24-.095-.48-.238-.62-.428a1.09 1.09 0 0 1-.24-.666 1.09 1.09 0 0 1 .24-.666c.14-.2.38-.333.62-.428z" class="C"/><path d="M3149.65 334.14l8.04-4.233c.53-.238 1.1-.38 1.67-.38s1.14.143 1.66.38l9.57 5.042c.23.095.38.238.52.428a1.54 1.54 0 0 1 .14.618v.57c.05.2 0 .428-.14.618-.1.2-.3.333-.52.428l-8.04 4.234c-.53.237-1.1.38-1.67.38s-1.14-.143-1.66-.38l-9.57-5.042c-.24-.095-.38-.238-.52-.428-.1-.19-.14-.38-.14-.62v-.57c-.05-.19 0-.43.14-.62s.28-.38.52-.428z" class="B"/><path d="M3149.65 333.758l8.04-4.233c.53-.238 1.1-.38 1.67-.38s1.14.142 1.66.38l9.57 5.042c.2.047.38.2.52.333s.2.333.2.523-.05.38-.2.523-.3.286-.52.333l-8.04 4.233c-.53.238-1.1.38-1.67.38s-1.14-.143-1.66-.38l-9.57-5.04c-.2-.048-.38-.19-.52-.333s-.2-.333-.2-.524.05-.38.2-.523c.14-.2.33-.285.52-.333z" class="C"/><path d="M3165.12 342.368l8.04-4.234c.52-.237 1.1-.38 1.66-.38s1.14.143 1.67.38l9.56 5.042c.24.095.38.238.52.428a1.27 1.27 0 0 1 .15.619v.57c.04.19 0 .428-.15.62-.1.2-.28.333-.52.428l-8.04 4.233c-.52.238-1.1.38-1.67.38s-1.14-.143-1.66-.38l-9.56-5.042c-.24-.095-.4-.238-.53-.428-.1-.2-.14-.38-.14-.618v-.57c-.05-.2 0-.428.14-.618a1.15 1.15 0 0 1 .53-.428z" class="B"/><path d="M3165.12 341.988l8.04-4.233c.52-.238 1.1-.38 1.66-.38s1.14.143 1.67.38l9.56 5.04c.2.048.38.19.52.333s.2.333.2.523-.05.38-.2.524-.28.285-.52.333l-8.04 4.233c-.53.238-1.1.38-1.67.38s-1.14-.142-1.66-.38l-9.56-5.042c-.2-.048-.4-.2-.53-.333s-.2-.333-.2-.523.05-.38.2-.523.33-.286.53-.333z" class="C"/><path d="M3134.1 326.005l8.04-4.233c.52-.238 1.1-.38 1.66-.38s1.14.142 1.67.38l9.56 5.042c.24.095.38.238.52.428.1.2.15.428.15.618v.57c.04.2 0 .428-.15.618-.1.19-.28.333-.52.428l-8.04 4.234c-.52.238-1.1.38-1.67.38s-1.14-.142-1.66-.38l-9.56-5.042c-.24-.095-.38-.238-.53-.428a1.38 1.38 0 0 1-.14-.619v-.57c-.05-.19 0-.428.14-.62a1.58 1.58 0 0 1 .53-.428z" class="B"/><path d="M3134.1 325.625l8.04-4.233c.52-.238 1.1-.38 1.66-.38s1.14.142 1.67.38l9.56 5.042c.2.048.38.2.52.333s.2.333.2.523-.05.38-.2.523-.28.286-.52.333l-8.04 4.234c-.52.237-1.1.38-1.67.38s-1.14-.143-1.66-.38l-9.56-5.042a1.25 1.25 0 0 1-.53-.333c-.14-.143-.2-.333-.2-.523s.05-.38.2-.524a1.25 1.25 0 0 1 .53-.333z" class="C"/><path d="M3163.45 326.72l8.04-4.233c.52-.238 1.1-.38 1.67-.38.57 0 1.14.143 1.66.38l9.56 5.042c.24.095.38.238.53.428a1.54 1.54 0 0 1 .14.618v.57c.05.2 0 .428-.14.618-.1.19-.3.333-.53.428l-8.04 4.234c-.52.237-1.1.38-1.66.38s-1.14-.143-1.67-.38l-9.56-5.042c-.24-.095-.38-.238-.52-.428a1.27 1.27 0 0 1-.15-.619v-.57c-.04-.19 0-.428.15-.62.14-.2.28-.38.52-.428z" class="B"/><path d="M3163.45 326.34l8.04-4.233a4.03 4.03 0 0 1 1.67-.38c.57 0 1.14.142 1.66.38l9.56 5.042c.2.047.38.2.53.333.14.143.2.333.2.523s-.05.38-.2.523c-.15.143-.3.286-.53.333l-8.04 4.233c-.52.238-1.1.38-1.66.38s-1.14-.143-1.67-.38l-9.56-4.994c-.2-.047-.38-.2-.52-.333-.15-.142-.2-.333-.2-.523s.04-.38.2-.523c.14-.238.33-.333.52-.38z" class="C"/><path d="M3178.67 334.9l8.04-4.233c.53-.238 1.1-.38 1.67-.38s1.14.143 1.66.38l9.57 5.04c.24.096.38.238.52.428.1.19.14.43.14.62v.57c.05.2 0 .428-.14.618-.1.2-.28.333-.52.428l-8.04 4.233c-.53.238-1.1.38-1.67.38s-1.14-.143-1.66-.38l-9.57-5.042c-.23-.095-.38-.237-.52-.428-.1-.2-.14-.38-.14-.618v-.57c-.05-.2 0-.428.14-.618s.3-.38.52-.428z" class="B"/><path d="M3178.67 334.472l8.04-4.233c.53-.238 1.1-.38 1.67-.38s1.14.143 1.67.38l9.56 5.042c.2.047.38.2.52.333s.2.333.2.523-.05.38-.2.523-.28.285-.52.333l-8.04 4.233c-.53.238-1.1.38-1.67.38s-1.14-.143-1.66-.38l-9.57-5.042c-.2-.047-.38-.2-.52-.333s-.2-.332-.2-.523.05-.38.2-.523a1.44 1.44 0 0 1 .52-.333z" class="C"/><path d="M3259.83 233.89c17.22 0 31.18-13.975 31.18-31.214s-13.96-31.215-31.18-31.215-31.2 13.975-31.2 31.215 13.97 31.214 31.2 31.214z" fill="#f7bd57"/><path d="M3234.63 184.264c5.65-7.767 14.85-12.802 25.2-12.802v31.215l-25.2-18.413z" fill="#edb451"/><path d="M3369.14 273.505l40.15-25.46" stroke="#ce9b51" stroke-width="2" class="E"/><path d="M3409.2 251.448l7.43-8.055-10.45 3.26 3.02 4.795z" fill="#ce9b51"/><path d="M3190 283l82.12-36.273 7.33 38.36 75.07-38.36 5.3 40.9L3437 239l-41.5 153L3190 283z" fill="#edb451"/><path d="M3253.88 313.925l40-147.73m31.96 185.515l39.95-147.73" stroke="#ce9b51" stroke-width="2" stroke-dasharray="5.03 5.03" class="E"/><path fill-rule="evenodd" d="M3246.43 216.285l-2.5-1.304-4.68 2.103 1.12-3.957-1.95-1.02-2.7 9.52 1.95 1.02.87-3.075 1.5-.6 1.53 5.708 2.48 1.297-2.23-7.78 4.6-1.91zm1.14.596l-2.7 9.52 1.96 1.026.98-3.423 2.03 1.06c1.8.946 3.48.714 4.07-1.36.6-2.1-.5-3.77-2.45-4.79l-3.9-2.034zm1.48 2.737l1.78.926c.87.457 1.43 1.163 1.14 2.18-.3 1.056-1.05 1.02-1.94.556l-1.76-.92.78-2.74zm4.7 11.368a4.23 4.23 0 0 0 1.04.79c1.46.762 2.4.384 3.77-1.118l5.04-5.416-2.12-1.106-3.43 3.967-.62-6.08-2.2-1.145.98 7.266a3.92 3.92 0 0 1 .07 1.448c-.12.428-.54.656-1.15.34-.33-.184-.63-.424-.9-.71l-.5 1.765zm18.4-1.29l-7.65-3.992-2.7 9.52 1.98 1.032 2.2-7.74 3.7 1.927-2.2 7.74 1.98 1.033 2.7-9.52zm9.4 4.905l-1.98-1.032-1 3.582-3.7-1.926 1.02-3.583-1.98-1.032-2.7 9.52 1.98 1.033 1.16-4.104 3.7 1.926-1.17 4.104 1.98 1.033 2.7-9.52zm8.53 4.45l-6.77-3.535-2.7 9.52 6.87 3.582.5-1.752-4.9-2.555.66-2.34 4.42 2.304.47-1.645-4.42-2.304.6-2.072 4.8 2.51.48-1.713zm9.1 4.747l-2.23-1.165-5.27 4.816-.04-.02 1.87-6.59-1.98-1.033-2.7 9.52 2.23 1.165 5.28-4.83.04.02-1.88 6.604 1.98 1.033 2.7-9.52zm-1.73-3.85c-.3.555-.92.53-1.6.174-.68-.358-1.17-.916-1.1-1.59l-.7-.37c-.4 1.377.3 2.36 1.53 3.004 1.23.642 2.22.53 2.6-.846l-.7-.37zm.76 14.27l11.95 6.235 2.7-9.52-1.98-1.032-2.2 7.74-3-1.57 2.2-7.74-1.98-1.033-2.2 7.744-3-1.57 2.2-7.74-1.98-1.033-2.7 9.52zm24.02 1.603l-2.23-1.165-5.27 4.816-.04-.02 1.87-6.59-1.98-1.033-2.7 9.52 2.23 1.165 5.28-4.83.03.02-1.87 6.604 1.98 1.033 2.7-9.52zm9.4 4.905l-2.24-1.164-5.27 4.816-.04-.02 1.87-6.59-1.98-1.032-2.7 9.52 2.23 1.165 5.28-4.83.04.02-1.88 6.604 1.98 1.033 2.7-9.52zm-1.74-3.85c-.3.555-.92.53-1.6.173-.68-.357-1.16-.915-1.1-1.6l-.7-.37c-.4 1.377.3 2.362 1.52 3.004s2.22.53 2.6-.846l-.7-.37zm7 6.597l-2.7 9.52 4.52 2.357c1.7.887 3.34.62 3.86-1.238a2.96 2.96 0 0 0-.01-1.743c-.18-.567-.52-1.07-.98-1.443a1.71 1.71 0 0 0 1.15-.326 1.74 1.74 0 0 0 .64-.997c.48-1.685-.6-3.068-2.2-3.896l-4.28-2.234zm1.47 2.625l1.8.94c.76.398 1.45.942 1.17 1.904-.27.962-1.08.706-1.8.33l-1.8-.94.63-2.23zm-1.03 3.65l1.9.986c.9.464 1.73 1.074 1.4 2.224-.32 1.123-1.2.866-2.05.423l-2-1.04.74-2.593zm18.45 10.287l-1.96-1.027c-.56 1.305-1.5 1.683-2.68 1.06-1.46-.762-2.03-2.5-1.47-4.466.45-1.59 1.6-2.884 3.33-1.977.5.24.92.627 1.2 1.11a2.76 2.76 0 0 1 .34 1.592l1.94 1.013c.4-2.047-.77-4.316-2.94-5.448-2.76-1.443-5.06-.11-5.85 2.656-.86 3.008.32 5.907 2.94 7.277 2.48 1.292 4.3.43 5.16-1.79h0zm10.65-1.156l-1.98-1.032-1.02 3.582-3.7-1.926 1-3.583-1.98-1.032-2.7 9.52 1.98 1.033 1.17-4.104 3.7 1.926-1.16 4.104 1.98 1.033 2.7-9.52zm8.04 4.198l-6.3-3.285-2.7 9.52 1.98 1.033 2.2-7.74 4.32 2.25.5-1.78zM3242.5 230.07l-2.5-1.304-4.68 2.103 1.13-3.957-1.96-1.02-2.7 9.52 1.96 1.02.87-3.074 1.5-.6 1.53 5.708 2.5 1.297-2.24-7.78 4.6-1.91zm8.58 4.474l-6.3-3.284-1.8 5.71c-.6 1.925-1.12 1.98-1.65 1.703-.25-.134-.47-.312-.65-.523l-.48 1.684a5.77 5.77 0 0 0 1.07.743c1.55.81 2.76.074 3.62-2.58l1.27-3.97 2.43 1.265-2.2 7.74 1.98 1.033 2.7-9.52zm-.56 10.59a4.28 4.28 0 0 0 1.05.789c1.46.762 2.38.384 3.77-1.117l5.03-5.417-2.12-1.105-3.43 3.967-.6-6.08-2.2-1.146.98 7.266a3.72 3.72 0 0 1 .07 1.448c-.12.43-.53.657-1.14.34-.34-.184-.64-.424-.9-.7l-.5 1.765zm11.76-.82l.48-1.698 4.74 2.47.5-1.724-6.7-3.496-2.7 9.52 4.23 2.204c1.95 1.02 3.6.765 4.18-1.333.6-2.072-.53-3.763-2.35-4.71l-2.36-1.233zm2.8 4.907c-.3 1.016-.98 1.072-1.93.576l-2.1-1.1.77-2.74 2.1 1.092c.9.465 1.45 1.17 1.16 2.172v-.001zm5.95 6.65l1.9.986 1.9-6.697.35 7.87 1.53.8 4.14-5.606-1.9 6.764 1.86.974 2.7-9.52-2.76-1.443-3.92 5.465-.25-7.637-2.83-1.475-2.7 9.52zm18.7-1.184l-2.04-1.065-6.15 7.738 2.04 1.06 1.33-1.74 3.37 1.754.1 2.496 2.08 1.086-.74-11.327zm-1.5 5.968l-2.4-1.25 2.2-2.914.18 4.165zm5.72-3.757l-2.7 9.52 1.96 1.026.97-3.422 2.03 1.06c1.82.947 3.5.714 4.08-1.36.6-2.1-.5-3.77-2.45-4.8l-3.9-2.034zm1.48 2.738l1.78.93c.88.457 1.43 1.162 1.15 2.178-.3 1.056-1.05 1.02-1.94.556l-1.76-.92.77-2.744zm15 5.862l-2.5-1.304-4.67 2.103 1.12-3.957-1.95-1.02-2.7 9.52 1.95 1.02.87-3.075 1.5-.6 1.53 5.71 2.5 1.297-2.24-7.78 4.6-1.913zm7.9 4.124l-6.77-3.535-2.7 9.52 6.86 3.582.5-1.752-4.9-2.555.67-2.34 4.4 2.304.47-1.645-4.42-2.304.6-2.072 4.8 2.51.48-1.713zm8.16 4.257l-7.42-3.873-.5 1.778 2.7 1.417-2.2 7.74 2 1.04 2.2-7.74 2.7 1.417.5-1.778zm4.96 2.328c-2.7-1.4-5.04-.358-5.9 2.663-.44 1.382-.37 2.874.2 4.21s1.57 2.432 2.86 3.092c2.65 1.384 5 .312 5.86-2.656.43-1.377.37-2.864-.18-4.2a6.15 6.15 0 0 0-2.83-3.108l-.01-.001zm-.5 1.698c1.5.788 2.1 2.523 1.53 4.526-.58 2.032-1.86 2.806-3.36 2.025-1.53-.815-2.12-2.535-1.54-4.58.57-1.978 1.88-2.75 3.38-1.97l-.01-.001zm13.36 5.262l-6.3-3.284-1.8 5.71c-.6 1.926-1.12 1.98-1.65 1.703-.25-.134-.47-.31-.65-.523l-.48 1.684c.33.3.7.54 1.07.743 1.55.81 2.76.075 3.62-2.58l1.27-3.97 2.43 1.264-2.2 7.74 1.98 1.032 2.7-9.52zm5.86 2.798c-2.7-1.4-5.04-.358-5.9 2.663-.43 1.382-.36 2.874.2 4.21.55 1.337 1.57 2.433 2.86 3.093 2.65 1.383 5 .312 5.86-2.656.43-1.378.37-2.865-.18-4.202s-1.55-2.436-2.83-3.108l-.01-.001zm-.5 1.698c1.5.788 2.1 2.523 1.53 4.526-.58 2.033-1.86 2.806-3.36 2.024-1.53-.814-2.12-2.534-1.54-4.58.57-1.977 1.88-2.75 3.38-1.97l-.01-.001zm12.54 4.833l-6.3-3.284-2.7 9.52 1.98 1.032 2.2-7.74 4.3 2.25.5-1.78zm5.14 2.42c-2.7-1.41-5.04-.357-5.9 2.666-.44 1.382-.37 2.874.2 4.21s1.57 2.432 2.87 3.092c2.65 1.384 5 .312 5.85-2.656a6.14 6.14 0 0 0-.17-4.204c-.56-1.338-1.56-2.438-2.84-3.11zm-.5 1.7c1.5.788 2.1 2.523 1.52 4.526-.57 2.032-1.85 2.805-3.35 2.024-1.53-.814-2.12-2.534-1.54-4.58.56-1.978 1.87-2.752 3.37-1.97h0zm6.22 1.54l-2.7 9.52 4.52 2.357c1.7.887 3.33.618 3.86-1.238.17-.57.16-1.176-.01-1.743-.18-.567-.52-1.07-.98-1.444.4.033.8-.083 1.14-.326a1.7 1.7 0 0 0 .65-.997c.47-1.684-.62-3.068-2.2-3.896l-4.28-2.233zm1.47 2.624l1.8.94c.76.397 1.45.942 1.18 1.904s-1.1.705-1.8.328l-1.8-.94.63-2.232zm-1.04 3.65l1.9.986c.9.464 1.74 1.074 1.4 2.223-.32 1.124-1.2.867-2.04.423l-2-1.04.73-2.593z" fill="#1c1c1c"/></svg>