<svg xmlns="http://www.w3.org/2000/svg" width="165" height="92" fill="none" xmlns:v="https://vecta.io/nano"><path d="M2.646 52.36c-1.664.376-2.836 1.355-2.61 2.183.19.828 1.626 1.204 3.327.8l7.335 30.6c.378 1.656 2.042 2.635 3.705 2.258l51.458-12.195a1.47 1.47 0 0 0 1.096-1.769l-8.053-33.687c-.19-.8-.983-1.28-1.777-1.092L2.646 52.36z" fill="#733d3d"/><path d="M39.133 52.548l-16.447-8.243c7.335-3.764 8.356-10.087 8.923-17.653.567-7.528 1.588-13.85 8.923-17.653l16.447 8.243c-7.335 3.764-8.356 10.087-8.923 17.653-.605 7.565-1.626 13.89-8.923 17.653z" fill="#8aad4a"/><path d="M40.494 24.395c3.365 1.656 5.823 5.796 5.67 9.56-.19 3.802-4.046 4.743-6.995 3.2-3.29-1.73-5.898-5.796-5.67-9.56.227-3.726 4.046-4.667 6.995-3.2z" fill="#63802d"/><path d="M42.95 31.583l.945.49-.076 1.242-.907-.452c-.15 1.016-.454 1.844-.87 2.258l-1.2-1.28c.416-.452.718-1.242.756-2.07.076-.866-.227-1.43-.416-1.43-.68 0-.832 3.726-2.798 2.86-.907-.414-1.664-1.694-1.7-3.425l-.945-.49.076-1.242.907.452c.113-.753.34-1.393.68-1.844l1.2 1.242c-.378.527-.567 1.13-.605 1.77-.076.866.302 1.43.454 1.43.643-.038.832-3.726 2.76-2.86.945.452 1.664 1.656 1.74 3.35z" fill="#ceeb98"/><path d="M26.164 43.89l13.65 6.85C51.042 42.46 42.27 25.9 53.5 17.62l-13.65-6.85C28.584 19.087 37.393 35.61 26.164 43.89zm21.21-26.347c-.945.94-.643 2.183.34 2.7.302.15.643.226.983.226-4.84 8.13-1.626 18.217-6.465 26.3a1.6 1.6 0 0 0-.681-.64c-1.02-.49-2.344-.038-3.29.866-.302.3-.53.64-.68.98L31.08 44.72c.454-.15.87-.376 1.172-.715.945-.94.643-2.183-.34-2.7-.302-.15-.643-.226-.983-.226 4.84-8.13 1.626-18.217 6.465-26.31a1.6 1.6 0 0 0 .681.64c1.02.49 2.344.038 3.29-.866.302-.3.53-.64.68-.98l6.503 3.275c-.416.15-.832.376-1.172.715z" fill="#63802d"/><path d="M42.6 18.297c.454.226.605.828.34 1.317-.265.527-.794.753-1.248.527s-.643-.828-.416-1.355c.265-.5.87-.715 1.323-.5zM37.658 42.16c.454.226 1.02.038 1.2-.414.2-.5-.038-1.054-.5-1.28s-.945 0-1.172.452-.038.98.454 1.242z" fill="#ceeb98"/><path d="M34.784 61.28L23.253 47.015c8.242-.414 11.796-5.76 15.464-12.383S45.9 22.663 54.18 22.25l11.532 14.265c-8.28.414-11.796 5.76-15.464 12.383s-7.222 11.97-15.464 12.383z" fill="#8aad4a"/><path d="M47.715 36.213c2.344 2.898 2.91 7.678 1.172 11.028-1.74 3.387-5.633 2.672-7.713.038-2.306-2.936-2.95-7.716-1.172-11.028 1.777-3.275 5.633-2.56 7.713-.038z" fill="#63802d"/><path d="M46.958 43.816l.68.828-.605 1.09-.643-.8c-.53.866-1.172 1.505-1.74 1.73l-.567-1.656c.567-.264 1.172-.828 1.55-1.58.416-.753.378-1.393.227-1.468-.643-.264-2.344 3.05-3.743 1.43-.68-.753-.832-2.22-.15-3.84l-.68-.828.605-1.092.643.79c.416-.64.907-1.13 1.36-1.393l.567 1.656a3.41 3.41 0 0 0-1.285 1.355c-.416.753-.34 1.43-.19 1.506.605.263 2.306-3.05 3.705-1.468.756.715.907 2.108.265 3.726z" fill="#ceeb98"/><path d="M26.542 48.106l9.604 11.856c13.687-2.936 12.515-21.605 26.202-24.54l-9.604-11.856C39.056 26.5 40.228 45.17 26.542 48.106zm30.285-15.28c-1.248.452-1.512 1.73-.794 2.597.227.263.492.452.794.602-7.79 5.42-9.036 15.92-16.825 21.304-.038-.3-.15-.602-.378-.866-.718-.866-2.117-1.016-3.365-.565a3.32 3.32 0 0 0-1.021.602l-4.575-5.646c.49.038.945 0 1.36-.15 1.248-.452 1.512-1.73.794-2.597-.227-.263-.492-.452-.794-.602 7.79-5.42 9.036-15.92 16.825-21.304.038.3.15.602.378.866.718.866 2.117 1.016 3.365.565a3.32 3.32 0 0 0 1.021-.602l4.575 5.646c-.454-.075-.945-.038-1.36.15z" fill="#63802d"/><path d="M52.176 31.545c.34.414.2.98-.265 1.355s-1.06.34-1.36-.038c-.34-.414-.265-1.054.2-1.393.454-.376 1.096-.34 1.437.075zM37.734 51.23c.34.414.907.452 1.285.113s.378-.98.076-1.393c-.34-.414-.87-.414-1.248-.075a1.03 1.03 0 0 0-.113 1.355z" fill="#ceeb98"/><path d="M30.745 43.25c3.013-2.726 3.702-6.857 1.54-9.226s-6.36-2.08-9.372.647-3.703 6.857-1.54 9.226 6.36 2.08 9.372-.647z" fill="#c5982c"/><path d="M32.63 40.88H30.7l-.038.226h1.853l.113-.226zm.5-1.1h-2.117l-.227.903h1.928l.416-.903zm-1.285-.152h1.323c.076-.226.15-.452.2-.678h-1.36l-.15.678z" fill="#e2ad31"/><path d="M30.654 42.646c2.632-2.983 2.882-7.047.56-9.077s-6.338-1.257-8.97 1.726-2.882 7.047-.56 9.077 6.338 1.257 8.97-1.726z" fill="#efc24e"/><path d="M29.887 41.977c2.15-2.437 2.353-5.757.454-7.417s-5.18-1.03-7.33 1.407-2.353 5.757-.454 7.417 5.18 1.03 7.33-1.407z" fill="#e8b438"/><path d="M21.702 39.224c.718-2.974 3.554-5.345 6.314-5.345.945 0 1.74.263 2.382.753-.68-.64-1.588-.98-2.684-.98-2.798 0-5.633 2.4-6.314 5.345-.454 1.957.113 3.7 1.36 4.592-1.02-.98-1.474-2.56-1.06-4.366zm4.878 2.07l-.2.753h-.756l.2-.715c-.605-.038-1.172-.226-1.474-.527l.643-.98c.34.264.832.452 1.36.452s.756-.15.794-.376c.2-.753-2.458-.188-2.042-1.957.2-.753.832-1.355 1.9-1.505l.2-.753h.756l-.2.715c.454.038.87.188 1.172.376l-.605.98c-.378-.226-.756-.376-1.134-.376-.53 0-.756.188-.832.414-.2.715 2.457.188 2.042 1.92-.15.8-.794 1.43-1.815 1.58z" fill="#f5ecd6"/><path d="M26.39 41.18l-.19.753h-.756l.19-.715c-.605-.038-1.172-.226-1.474-.527l.643-.98c.34.263.832.452 1.36.452s.756-.15.794-.376c.19-.753-2.458-.188-2.042-1.957.19-.753.832-1.355 1.9-1.506l.19-.753h.756l-.19.715a2.69 2.69 0 0 1 1.172.376l-.605.98c-.378-.226-.756-.376-1.134-.376-.53 0-.756.188-.832.414-.19.715 2.458.188 2.042 1.92-.19.828-.794 1.43-1.815 1.58z" fill="#efc24e"/><path opacity=".2" d="M21.475 44.155c.227.263.53.452.794.64l9.528-10.614c-.227-.264-.454-.527-.718-.753l-9.604 10.727zm1.172.865c.567.264 1.172.452 1.853.5l8.242-9.146a4.73 4.73 0 0 0-.68-1.807L22.647 45.02z" fill="#efd489"/><path d="M18.186 58.27c4.406 0 7.978-3.353 7.978-7.5s-3.572-7.5-7.978-7.5-7.978 3.353-7.978 7.5 3.572 7.5 7.978 7.5z" fill="#c5982c"/><path d="M25.824 52.96H23.48v.226h2.27c0-.075.038-.15.076-.226zm.264-1.277h-2.57v1.054h2.344c.113-.34.2-.678.227-1.054zm-1.588-.15h1.626c.038-.264.038-.527.038-.753H24.5v.753z" fill="#e2ad31"/><path d="M17.732 58.27c4.155 0 7.524-3.353 7.524-7.5s-3.37-7.5-7.524-7.5-7.524 3.353-7.524 7.5 3.37 7.5 7.524 7.5z" fill="#efc24e"/><path d="M17.733 56.914c3.404 0 6.163-2.747 6.163-6.135s-2.76-6.135-6.163-6.135S11.57 47.4 11.57 50.78s2.76 6.135 6.163 6.135z" fill="#e8b438"/><path d="M11.985 51.042c0-3.388 2.76-6.135 6.163-6.135 1.134 0 2.23.3 3.138.866a6.17 6.17 0 0 0-3.592-1.129c-3.403 0-6.163 2.748-6.163 6.135a6.05 6.05 0 0 0 3.025 5.27c-1.55-1.1-2.57-2.936-2.57-5.006zm6.542 2.37v.866h-.907v-.828c-.756-.038-1.512-.263-1.966-.602l.492-1.13c.5.3 1.172.527 1.777.527.643 0 .87-.188.87-.452 0-.866-3.062-.226-3.062-2.22 0-.828.605-1.543 1.853-1.694v-.828h.908v.828c.567.038 1.134.188 1.55.452l-.454 1.13c-.53-.263-1.02-.414-1.512-.414-.643 0-.87.226-.87.5 0 .828 3.063.226 3.063 2.183.076.828-.53 1.506-1.74 1.694z" fill="#f5ecd6"/><path d="M18.26 53.3v.866h-.907v-.828c-.756-.038-1.512-.264-1.966-.602l.492-1.13c.49.3 1.172.527 1.777.527.643 0 .87-.188.87-.452 0-.866-3.062-.226-3.062-2.22 0-.828.605-1.543 1.853-1.73v-.828h.907v.828c.567.038 1.134.188 1.55.452l-.454 1.13c-.53-.263-1.02-.414-1.512-.414-.643 0-.87.226-.87.49 0 .828 3.063.226 3.063 2.183.038.866-.53 1.58-1.74 1.73z" fill="#efc24e"/><path opacity=".2" d="M13.12 56.726l1.172.753 8.545-12.195a12.43 12.43 0 0 0-1.097-.866l-8.62 12.308zm1.74.98a8.42 8.42 0 0 0 2.42.565l7.373-10.5c-.34-.753-.794-1.468-1.36-2.07l-8.43 12.007z" fill="#efd489"/><path d="M50.2 48.897c1.7-3.086 3.365-5.91 5.52-8.055-.113 0-.19 0-.303.038l-45.22 10.765c.227 2.07 1.323 3.877 2.91 5.08.038.038.113.075.15.113l.34.226c.076.038.15.113.227.15l.378.226c.038 0 .038.038.076.038.19.075.34.188.53.264l.605.226c.076.038.15.038.265.075l.416.113c.113.038.19.038.302.075s.265.038.378.075c.113 0 .227.038.302.038h.15c.15 0 .302.038.454.038h.454c3.516 0 6.465-2.145 7.562-5.08 0-.038.038-.075.038-.15 0-.038.038-.038.038-.075.038-.075.038-.15.076-.226.038-.113.038-.188.076-.3 0-.075.038-.15.038-.226.038-.188.076-.34.076-.527 0-.038.038-.113.038-.15.038-.263.038-.527.038-.753v-.113l8.62 10.652c8.28-.565 11.834-5.91 15.464-12.534z" fill="#cfcfa6"/><path d="M3.365 55.333c-3.1.64-3.327-.79-3.327-.79l.34 1.468 8.394 35.042c.15.64 1.36 1.242 3.327.8l51.458-12.195a1.47 1.47 0 0 0 1.097-1.769L56.6 44.192c-.19-.8-.983-1.28-1.777-1.092L3.365 55.333z" fill="#ff513f"/><path d="M64 75.13L16.523 86.385c-2.004.5-3.176-.15-3.327-.8L5.823 54.73l-2.42.564c-2.873.602-3.3-.602-3.327-.753l.34 1.43L8.8 91.015c.15.64 1.36 1.242 3.327.8L63.596 79.6a1.47 1.47 0 0 0 1.096-1.769l-.68-2.7zm-4.537-18.968l-15.388 3.65c-3.138.753-5.066 3.877-4.3 7a5.83 5.83 0 0 0 7.032 4.29l15.388-3.65-2.722-11.292z" fill="#f8e6e6"/><path d="M61.704 55.672c.756-.188.643-.527.643-.527l.076.376 2.08 8.657c.038.15-.15.414-.643.527L45.9 68.96c-2.495.602-5.03-.94-5.634-3.425s.945-5.006 3.478-5.608l17.96-4.253z" fill="#8e4949"/><path d="M47.904 64.14c.378 1.618-.605 3.275-2.27 3.65-1.626.376-3.29-.602-3.667-2.258-.378-1.62.605-3.275 2.27-3.65 1.664-.414 3.29.602 3.667 2.258z" fill="#e8b7b7"/><path d="M44.536 67.602c1.69-.04 3.03-1.438 2.988-3.12s-1.445-3.015-3.136-2.974-3.03 1.438-2.988 3.12 1.445 3.015 3.136 2.974z" fill="#f3d4d4"/><path d="M45.03 63.312c.19.753-.265 1.506-1.02 1.656-.756.188-1.512-.263-1.664-1.016-.19-.753.265-1.506 1.02-1.656.718-.188 1.475.264 1.664 1.016z" fill="#f7e4e4"/></svg>