<svg width="165" height="92" viewBox="0 0 165 92" fill="none" xmlns="http://www.w3.org/2000/svg">
<path fill-rule="evenodd" clip-rule="evenodd" d="M61.7878 34.4634C54.053 37.8616 51.7272 39.6692 50.8077 40.5007C49.4014 41.7479 48.6081 46.4296 47.7787 50.4062H65.2856H82.7925C81.9631 46.4296 81.1698 41.766 79.7635 40.5007C78.8439 39.6873 76.6083 37.9159 68.8735 34.5176L61.7878 34.4634Z" fill="#FFDECC"/>
<path fill-rule="evenodd" clip-rule="evenodd" d="M61.7878 34.4634C54.053 37.8616 51.7272 39.6692 50.8077 40.5007C49.4014 41.7479 48.6081 46.4296 47.7787 50.4062H65.2856H82.7925C81.9631 46.4296 81.1698 41.766 79.7635 40.5007C78.8439 39.6873 76.6083 37.9159 68.8735 34.5176L61.7878 34.4634Z" fill="#333333"/>
<path fill-rule="evenodd" clip-rule="evenodd" d="M61.5173 27.6853V33.4515V36.2894C63.5908 38.7477 66.9623 38.82 69.0357 36.2894V33.4515V27.6853C69.0357 23.0398 61.5173 23.0398 61.5173 27.6853Z" fill="#F6C89D"/>
<path fill-rule="evenodd" clip-rule="evenodd" d="M57.4426 22.2807C58.1097 22.0638 58.9391 22.8229 59.3177 23.9617C59.6963 25.1005 59.4619 26.2212 58.7948 26.4381C58.1277 26.655 57.2984 25.8958 56.9197 24.7571C56.5411 23.6002 56.7755 22.4976 57.4426 22.2807Z" fill="#F6C89D"/>
<path fill-rule="evenodd" clip-rule="evenodd" d="M73.0925 22.2807C72.4254 22.0638 71.596 22.8229 71.2174 23.9617C70.8387 25.1005 71.0731 26.2212 71.7402 26.4381C72.4073 26.655 73.2367 25.8958 73.6153 24.7571C73.9759 23.6002 73.7415 22.4976 73.0925 22.2807Z" fill="#F6C89D"/>
<path fill-rule="evenodd" clip-rule="evenodd" d="M61.5174 33.4521L61.1929 34.7355L62.1124 41.4055L65.3037 38.1699L61.5174 33.4521Z" fill="white"/>
<path opacity="0.2" d="M61.5173 31.8608V32.132C61.5173 32.132 63.4285 34.4095 65.2675 34.4999C67.1066 34.5903 69.0357 32.2947 69.0357 32.2947V31.8789" fill="black"/>
<path fill-rule="evenodd" clip-rule="evenodd" d="M65.2858 12.2485C53.7287 12.2485 58.164 28.1191 58.9032 29.3483C59.7326 30.6859 63.4107 33.6503 65.2858 33.6503C67.1609 33.6503 70.8209 30.6859 71.6683 29.3483C72.4255 28.1191 76.8428 12.2485 65.2858 12.2485Z" fill="#F6C89D"/>
<path d="M73.4891 23.1297C74.084 20.1833 73.7054 13.2964 71.4156 13.5314C69.2881 11.3623 61.8599 10.9646 59.8225 13.2964C55.1708 14.2002 57.3344 23.1658 57.3344 23.1658C57.4786 24.0334 57.677 24.8288 57.8933 25.5157C58.1998 25.4976 58.5244 25.4795 58.8309 25.4614C58.4883 24.8469 58.2179 24.2142 58.1097 23.7442C58.0556 23.4731 57.9114 22.5151 57.9294 22.2982C58.0015 20.6894 59.1554 15.9897 61.1567 15.6101C61.932 15.4655 63.8972 17.2369 65.1773 17.2189C66.5296 17.1827 68.2063 15.4113 69.0898 15.5197C71.1813 15.8089 72.9482 20.111 72.9301 22.2078C72.9301 22.4789 72.5876 24.0696 72.0827 25.2084C72.4253 25.1903 72.7498 25.1722 73.0924 25.1541C73.2186 24.5396 73.3809 23.8527 73.4891 23.1297Z" fill="#80604A"/>
<path fill-rule="evenodd" clip-rule="evenodd" d="M69.0357 33.4521L69.2882 34.7175L68.4227 41.4778L65.3036 38.1699L69.0357 33.4521Z" fill="white"/>
<path opacity="0.05" d="M61.5173 33.4512L65.3036 38.169L69.0357 33.4512V33.3428L65.3036 38.0244L61.5173 33.3428V33.4512Z" fill="black"/>
<path opacity="0.1" fill-rule="evenodd" clip-rule="evenodd" d="M64.5824 41.3149H65.9887V41.3691H64.5643L64.5824 41.3149Z" fill="black"/>
<path fill-rule="evenodd" clip-rule="evenodd" d="M65.5741 27.4507C65.4118 27.4507 65.2856 27.6857 65.2856 27.6857C65.2856 27.6857 65.1594 27.4507 64.9971 27.4507C64.33 27.4507 61.6256 27.7218 60.8323 28.7341C60.8323 28.7341 64.6726 28.6618 64.889 28.6075C65.1053 28.5533 65.2856 28.1195 65.2856 28.1195C65.2856 28.1195 65.4659 28.5352 65.6823 28.6075C65.8986 28.6618 69.739 28.7341 69.739 28.7341C68.9457 27.7218 66.2232 27.4688 65.5741 27.4507Z" fill="#80604A"/>
<path fill-rule="evenodd" clip-rule="evenodd" d="M31.1374 34.4629C23.4026 37.8611 21.0768 39.6687 20.1573 40.5002C18.751 41.7474 17.9577 46.4291 17.1283 50.4058H34.6352H52.1421C51.3127 46.4291 50.5194 41.7655 49.1131 40.5002C48.1936 39.6868 45.9579 37.9154 38.2231 34.5171L31.1374 34.4629Z" fill="#FFDECC"/>
<path fill-rule="evenodd" clip-rule="evenodd" d="M31.1374 34.4629C23.4026 37.8611 21.0768 39.6687 20.1573 40.5002C18.751 41.7474 17.9577 46.4291 17.1283 50.4058H34.6352H52.1421C51.3127 46.4291 50.5194 41.7655 49.1131 40.5002C48.1936 39.6868 45.9579 37.9154 38.2231 34.5171L31.1374 34.4629Z" fill="#C93838"/>
<path fill-rule="evenodd" clip-rule="evenodd" d="M30.8668 27.6848V33.451V36.2889C32.9402 38.7472 36.3118 38.8195 38.3852 36.2889V33.451V27.6848C38.3852 23.0393 30.8668 23.0393 30.8668 27.6848Z" fill="#F6D1AF"/>
<path fill-rule="evenodd" clip-rule="evenodd" d="M26.7921 22.2802C27.4592 22.0633 28.2886 22.8225 28.6672 23.9612C29.0458 25.1 28.8114 26.2207 28.1443 26.4376C27.4772 26.6545 26.6479 25.8953 26.2692 24.7566C25.8906 23.5997 26.125 22.4971 26.7921 22.2802Z" fill="#F6D1AF"/>
<path fill-rule="evenodd" clip-rule="evenodd" d="M42.4419 22.2802C41.7748 22.0633 40.9455 22.8225 40.5668 23.9612C40.1882 25.1 40.4226 26.2207 41.0897 26.4376C41.7568 26.6545 42.5862 25.8953 42.9648 24.7566C43.3254 23.5997 43.091 22.4971 42.4419 22.2802Z" fill="#F6D1AF"/>
<path opacity="0.2" d="M30.8668 31.8608V32.132C30.8668 32.132 32.778 34.4095 34.617 34.4999C36.456 34.5903 38.3852 32.2947 38.3852 32.2947V31.8789" fill="black"/>
<path fill-rule="evenodd" clip-rule="evenodd" d="M34.6356 12.248C23.0785 12.248 27.5139 28.1186 28.2531 29.3478C29.0825 30.6854 32.7605 33.6498 34.6356 33.6498C36.5107 33.6498 40.1707 30.6854 41.0181 29.3478C41.7754 28.1186 46.1927 12.248 34.6356 12.248Z" fill="#F6D1AF"/>
<path d="M39.8276 12.6097C35.9151 9.53684 29.8932 11.3625 28.0722 13.9293C25.8004 17.1468 26.5937 22.0272 27.1346 25.6785V25.6605C27.1346 25.6966 27.1527 25.7328 27.1527 25.7689C27.1527 25.8051 27.2248 25.8774 27.2428 25.9135C27.2608 25.9497 27.4051 25.9135 27.4592 25.8955C27.4772 25.8955 27.4772 25.8593 27.4772 25.8412C27.4952 25.5159 27.4772 24.8832 27.4772 24.8651C27.4412 24.359 27.333 23.871 27.2428 23.3829C27.6034 21.0692 28.6852 20.5812 29.2622 17.7975C29.3884 17.6167 29.5146 17.436 29.6408 17.2552C29.803 17.0564 29.9473 16.8575 30.1456 16.6768C30.2358 16.6226 30.3439 16.5503 30.4341 16.478C32.5436 15.7007 34.7071 16.6406 36.6904 17.436C37.4477 17.7433 37.5558 16.3876 38.4032 16.3333C38.7638 16.2972 39.503 17.5263 39.7915 17.4902C42.7664 17.1468 41.5224 21.6657 41.9912 23.7625C41.919 24.124 41.8649 24.4855 41.8289 24.8651C41.8289 24.8651 41.8109 25.5159 41.8289 25.8412C41.8289 25.8593 41.8289 25.8774 41.8469 25.8955C41.901 25.9135 42.0272 25.9497 42.0633 25.9135C42.0813 25.8955 42.1354 25.8051 42.1534 25.7689C42.1895 25.6243 42.1895 25.5159 42.2075 25.3713C42.2255 25.1905 42.2616 24.9917 42.2796 24.7928C42.8746 22.5514 43.9744 13.5858 39.8276 12.6097ZM33.8958 15.6465C33.8237 15.6284 33.7696 15.6103 33.6975 15.5922C33.7876 15.6103 33.8958 15.6465 33.9859 15.6645C33.9679 15.6645 33.9319 15.6465 33.8958 15.6465Z" fill="#343434"/>
<path opacity="0.1" fill-rule="evenodd" clip-rule="evenodd" d="M33.932 41.314H35.3383V41.3681H33.9139L33.932 41.314Z" fill="black"/>
<path d="M36.8706 13.694C36.8706 13.694 33.499 11.3442 30.5061 12.6095C27.4951 13.8748 24.8628 14.3628 24.1957 13.5133C24.1957 13.5133 22.3386 17.4357 25.8184 19.4783C29.2981 21.5209 33.2647 19.894 34.4186 18.6287C35.5544 17.3634 37.4295 15.3209 38.4392 15.7366C39.4489 16.1523 36.8706 13.694 36.8706 13.694Z" fill="#343434"/>
<path fill-rule="evenodd" clip-rule="evenodd" d="M14.0091 50.0098C6.27435 53.408 3.94852 55.2156 3.029 56.0471C1.62268 57.2943 0.829368 61.976 0 65.9526H17.5069H35.0138C34.1844 61.976 33.3911 57.3124 31.9848 56.0471C31.0653 55.2337 28.8296 53.4622 21.0948 50.064L14.0091 50.0098Z" fill="#FFDECC"/>
<path fill-rule="evenodd" clip-rule="evenodd" d="M14.0091 50.0098C6.27435 53.408 3.94852 55.2156 3.029 56.0471C1.62268 57.2943 0.829368 61.976 0 65.9526H17.5069H35.0138C34.1844 61.976 33.3911 57.3124 31.9848 56.0471C31.0653 55.2337 28.8296 53.4622 21.0948 50.064L14.0091 50.0098Z" fill="#EDEDED"/>
<path fill-rule="evenodd" clip-rule="evenodd" d="M13.7388 43.2302V48.9964V51.8343C15.8122 54.2926 19.1838 54.3649 21.2572 51.8343V48.9964V43.2302C21.2572 38.5847 13.7388 38.5847 13.7388 43.2302Z" fill="#F6C8AC"/>
<path fill-rule="evenodd" clip-rule="evenodd" d="M9.66405 37.8256C10.3311 37.6087 11.1605 38.3679 11.5391 39.5066C11.9178 40.6454 11.6834 41.7661 11.0163 41.983C10.3492 42.1999 9.51981 41.4407 9.14118 40.302C8.76256 39.1451 8.99695 38.0425 9.66405 37.8256Z" fill="#F6C8AC"/>
<path fill-rule="evenodd" clip-rule="evenodd" d="M25.3139 37.8256C24.6468 37.6087 23.8174 38.3679 23.4388 39.5066C23.0602 40.6454 23.2946 41.7661 23.9617 41.983C24.6288 42.1999 25.4581 41.4407 25.8367 40.302C26.1973 39.1451 25.963 38.0425 25.3139 37.8256Z" fill="#F6C8AC"/>
<path fill-rule="evenodd" clip-rule="evenodd" d="M17.5249 53.7144C17.5249 53.7144 12.2782 54.9616 12.2782 55.2869C12.2782 55.6123 14.2795 65.9517 14.2795 65.9517H21.4013L22.2126 55.3231L17.5249 53.7144Z" fill="#343434"/>
<path fill-rule="evenodd" clip-rule="evenodd" d="M13.7387 50.1357V51.8349L15.3794 65.9521H12.5668L9.48366 59.6617L12.4225 57.6914L8.83459 56.0104L12.134 50.8588L13.7387 50.1357Z" fill="#1A1A1A"/>
<path fill-rule="evenodd" clip-rule="evenodd" d="M21.257 50.1357V51.8349L19.6163 65.9521H22.4109L25.5121 59.6617L22.5552 57.6914L26.1611 56.0104L23.2223 51.0034L21.257 50.1357Z" fill="#1B1B1B"/>
<path fill-rule="evenodd" clip-rule="evenodd" d="M15.8843 55.4496L16.7858 56.8596C17.2545 56.8596 17.7233 56.8596 18.1921 56.8596L19.1116 55.4496L17.507 53.6963L15.8843 55.4496Z" fill="#268085"/>
<path fill-rule="evenodd" clip-rule="evenodd" d="M16.887 56.5327L15.5889 65.6248H19.5915L18.2933 56.5327H16.887Z" fill="#268085"/>
<path fill-rule="evenodd" clip-rule="evenodd" d="M13.7387 48.9961L13.4142 50.2795L14.3337 56.9495L17.525 53.7139L13.7387 48.9961Z" fill="#343434"/>
<path opacity="0.2" d="M13.7388 47.4058V47.6769C13.7388 47.6769 15.6499 49.9544 17.489 50.0448C19.328 50.1352 21.2572 47.8396 21.2572 47.8396V47.4238" fill="black"/>
<path fill-rule="evenodd" clip-rule="evenodd" d="M17.5068 27.7939C5.94976 27.7939 10.3851 43.6645 11.1243 44.8937C11.9537 46.2313 15.6317 49.1957 17.5068 49.1957C19.3819 49.1957 23.042 46.2313 23.8894 44.8937C24.6466 43.6645 29.0639 27.7939 17.5068 27.7939Z" fill="#F6C8AC"/>
<path fill-rule="evenodd" clip-rule="evenodd" d="M21.2571 48.9961L21.5095 50.2614L20.644 57.0218L17.5249 53.7139L21.2571 48.9961Z" fill="#343434"/>
<path opacity="0.05" d="M13.7388 48.9971L17.525 53.7149L21.2572 48.9971V48.8887L17.525 53.5703L13.7388 48.8887V48.9971Z" fill="black"/>
<path opacity="0.1" fill-rule="evenodd" clip-rule="evenodd" d="M16.8037 56.8599H18.21V56.914H16.7856L16.8037 56.8599Z" fill="black"/>
<path d="M25.0253 39.543C24.9713 39.76 24.8991 39.9588 24.8991 39.9588C24.8991 39.9588 23.8534 43.5017 22.97 44.5862C21.2571 46.7011 19.0214 48.0206 17.4889 48.0387C15.9924 48.0387 13.7748 46.8457 12.0439 44.785C11.3588 43.9716 10.0967 40.2661 10.0787 39.9588C10.0607 39.778 10.0246 39.5792 9.98854 39.3984C9.75415 39.3984 9.75415 40.971 9.75415 40.971C10.0967 42.8148 10.3491 44.0078 11.0703 45.02C12.2242 46.6288 15.4516 49.1775 17.4348 49.1775C19.4001 49.1775 22.6454 46.6288 23.7993 45.02C24.5205 44.0078 24.7188 42.6521 25.1155 40.7541C25.1155 40.736 25.2056 39.5611 25.0253 39.543Z" fill="#605343"/>
<path fill-rule="evenodd" clip-rule="evenodd" d="M21.0589 44.2792C20.7885 43.7188 18.6429 42.9597 18.2463 42.815C17.8496 42.6704 17.5792 43.1766 17.5792 43.1766C17.5792 43.1766 17.3087 42.6704 16.9121 42.815C16.5154 42.9597 14.3699 43.7188 14.0994 44.2792C13.829 44.8395 13.7028 45.2372 13.7028 45.6168C13.7028 45.9964 13.7028 47.3702 13.7028 47.3702C13.7028 47.3702 14.0814 47.3882 14.2977 47.2256C14.5141 47.0629 14.7665 46.5929 14.7665 45.9964C14.7665 45.3999 15.1992 44.9299 15.7221 44.8215C16.281 44.713 17.5611 44.4961 17.5611 44.1527C17.5611 44.4961 18.9314 44.7492 19.4002 44.8215C19.923 44.9118 20.3557 45.3999 20.3557 45.9964C20.3557 46.5929 20.6082 47.0629 20.8245 47.2256C21.0409 47.3882 21.4195 47.3702 21.4195 47.3702C21.4195 47.3702 21.4195 45.9964 21.4195 45.6168C21.4556 45.2372 21.3113 44.8576 21.0589 44.2792Z" fill="#605343"/>
<path fill-rule="evenodd" clip-rule="evenodd" d="M21.185 41.9476C21.2572 41.9476 21.3113 41.9476 21.3834 41.9295C23.2585 41.7668 23.7272 40.9172 23.9436 39.8508C24.178 38.6758 24.196 38.2601 24.5025 38.1516C24.7189 38.0793 24.773 37.8082 24.773 37.5009C24.773 37.1936 24.7549 37.1575 24.3943 37.0309C24.1059 36.9225 22.5012 36.7779 21.2932 36.8683V37.1936C22.2488 37.1394 23.1503 37.2479 23.4207 37.4286C24.0157 37.8263 23.8534 39.7062 23.3306 40.6461C22.97 41.2968 22.0505 41.6222 21.2031 41.6403L21.185 41.9476ZM17.6692 37.5009C17.2546 37.519 15.5598 37.0129 14.3518 36.9225C14.2616 36.9225 14.1715 36.9044 14.0813 36.9044V37.2298C15.0549 37.2659 16.0826 37.5009 16.4252 38.0251C17.0021 38.8928 15.9744 40.9895 15.0369 41.4595C14.7484 41.6041 14.3878 41.6764 13.9912 41.6764V41.9837C15.6139 41.9837 16.2269 40.8088 16.4252 40.4111C16.8038 39.67 16.7317 38.6578 17.6512 38.6578C18.5888 38.6578 18.4626 39.6519 18.7871 40.393C18.9674 40.7907 19.4902 42.0199 21.185 41.9656V41.6764C20.7704 41.6764 20.3737 41.6041 20.0852 41.4595C19.1837 40.9895 18.2823 38.8928 18.9133 38.0251C19.2919 37.5009 20.3016 37.2659 21.2752 37.2298V36.9044C21.2031 36.9044 21.131 36.9225 21.0588 36.9225C19.959 36.9948 18.6428 37.4648 17.6692 37.5009ZM14.0813 36.8863C12.8914 36.814 11.3047 36.9767 11.0163 37.0671C10.6376 37.1936 10.6376 37.2298 10.6016 37.5371C10.5836 37.8444 10.6196 38.0974 10.836 38.1878C11.1244 38.2963 11.1244 38.712 11.2867 39.8869C11.4309 40.9534 11.8456 41.803 13.7207 41.9476C13.8109 41.9476 13.901 41.9656 13.9912 41.9656V41.6584C13.1257 41.6584 12.1702 41.333 11.8456 40.6642C11.3949 39.7242 11.3228 37.8444 11.9538 37.4467C12.2243 37.284 13.1257 37.1575 14.0633 37.1936L14.0813 36.8863Z" fill="#268085"/>
<path fill-rule="evenodd" clip-rule="evenodd" d="M73.2546 31.0825C73.6513 29.7629 76.7704 28.6061 78.0325 33.2877C79.3126 37.9513 78.6636 39.5962 79.3667 41.2411C80.0699 42.886 78.4111 55.6475 74.4987 55.6114C70.3158 55.5752 69.3963 43.374 70.2256 40.8977C71.055 38.4032 70.3338 31.0644 73.2546 31.0825Z" fill="#605343"/>
<path fill-rule="evenodd" clip-rule="evenodd" d="M87.0295 31.0825C86.6328 29.7629 83.5137 28.6061 82.2516 33.2877C80.9715 37.9513 81.6205 39.5962 80.9174 41.2411C80.2142 42.886 81.8729 55.6475 85.7854 55.6114C89.9683 55.5752 90.8878 43.374 90.0585 40.8977C89.2291 38.4032 89.9503 31.0644 87.0295 31.0825Z" fill="#605343"/>
<path fill-rule="evenodd" clip-rule="evenodd" d="M83.5318 50.2246C83.4596 50.3331 77.1132 50.4234 77.0591 50.5319C75.0578 53.3879 70.7667 53.9121 67.341 54.6713C63.9334 55.4304 63.8072 59.7686 63.7892 62.6608H97C97 59.7686 96.9279 55.4485 93.4481 54.6713C89.9684 53.894 85.4249 53.2071 83.5318 50.2246Z" fill="#C93838"/>
<path fill-rule="evenodd" clip-rule="evenodd" d="M83.712 50.5138V52.0864L82.0893 62.6788H78.6457L77.041 52.2129V50.568V50.55C77.1131 50.4415 83.4596 50.3511 83.5137 50.2427C83.5858 50.3331 83.6579 50.4234 83.712 50.5138Z" fill="#C93838"/>
<path fill-rule="evenodd" clip-rule="evenodd" d="M77.0592 43.4104V48.8874V51.5807C78.7179 54.997 81.7289 55.0874 83.7122 51.5807V48.8874V43.4104C83.7122 38.9999 77.0592 38.9999 77.0592 43.4104Z" fill="#F6DCB9"/>
<path fill-rule="evenodd" clip-rule="evenodd" d="M89.175 39.5963C88.5079 39.2891 87.5704 40.0302 87.0836 41.2412C86.5968 42.4523 86.723 43.6815 87.3901 43.9707C88.0572 44.278 88.9947 43.5369 89.4815 42.3258C89.9683 41.1328 89.8241 39.9036 89.175 39.5963Z" fill="#F6DCB9"/>
<path fill-rule="evenodd" clip-rule="evenodd" d="M71.6141 39.5963C72.2812 39.2891 73.2187 40.0302 73.7055 41.2412C74.1923 42.4523 74.0661 43.6815 73.399 43.9707C72.7319 44.278 71.7944 43.5369 71.3076 42.3258C70.8208 41.1328 70.947 39.9036 71.6141 39.5963Z" fill="#F6DCB9"/>
<path opacity="0.2" fill-rule="evenodd" clip-rule="evenodd" d="M77.0592 47.4771V47.712C77.0592 47.712 79.1507 49.8088 80.3586 49.8088C81.5666 49.8088 83.7122 47.694 83.7122 47.694V47.4951H77.0592V47.4771Z" fill="black"/>
<path fill-rule="evenodd" clip-rule="evenodd" d="M80.3947 49.0672C78.3213 49.0672 73.9581 45.6509 72.6059 40.7524C71.2356 35.8177 73.8139 28.7319 80.3947 28.7319C86.9756 28.7319 89.5358 35.8177 88.1836 40.7524C86.8313 45.6509 82.4681 49.0672 80.3947 49.0672Z" fill="#F6DCB9"/>
<path fill-rule="evenodd" clip-rule="evenodd" d="M88.5801 34.7155C87.931 32.1487 84.6677 28.2624 81.6026 28.3347C81.1699 28.2805 80.6651 28.2624 80.1061 28.2986C79.5652 28.2624 79.0604 28.2805 78.6097 28.3347C75.5446 28.2624 72.2812 32.1487 71.6321 34.7155C71.1093 36.7762 70.8749 38.8006 72.137 40.9155C72.3533 41.5482 72.6238 42.0001 72.8762 42.1808C72.5877 40.554 72.5336 39.3971 72.6418 38.5114C72.8762 38.168 73.3089 38.0595 74.0662 38.3668C76.2117 39.2706 76.8608 38.2584 78.4835 34.8601C78.9703 33.8117 79.3669 32.5826 80.1061 32.6006C80.8453 32.6006 81.242 33.8298 81.7288 34.8601C83.3515 38.2584 84.0006 39.2525 86.1461 38.3668C86.9033 38.0595 87.3361 38.168 87.5705 38.5114C87.6786 39.3971 87.6065 40.5721 87.3361 42.1808C87.5885 42.0001 87.8589 41.5482 88.0753 40.9155C89.3374 38.8006 89.103 36.7762 88.5801 34.7155Z" fill="#605343"/>
<path fill-rule="evenodd" clip-rule="evenodd" d="M78.6636 62.6611H75.869H75.6706L72.7679 60.0221L75.7247 58.0518L72.1188 56.3527L74.4987 52.6471L75.4363 51.2011L77.0409 50.478V52.1952L78.6455 62.6611H78.6636Z" fill="#EDEDED"/>
<path fill-rule="evenodd" clip-rule="evenodd" d="M85.0282 57.9429L87.967 59.9132L85.0642 62.6607H84.8839H82.0713H82.1074L83.712 52.0863V50.3872L85.6772 51.2548L86.5427 52.719L88.6161 56.2438L85.0282 57.9429Z" fill="#EDEDED"/>
<path fill-rule="evenodd" clip-rule="evenodd" d="M46.1742 50.7314C38.4394 54.1478 36.1136 55.9554 35.194 56.7688C33.7877 58.016 32.9944 62.6976 32.165 66.6743H49.6719H67.1788C66.3494 62.6976 65.5561 58.0341 64.1498 56.7688C63.2303 55.9554 60.9946 54.1839 53.2598 50.7857L46.1742 50.7314Z" fill="#FFDECC"/>
<path fill-rule="evenodd" clip-rule="evenodd" d="M46.1742 50.7314C38.4394 54.1478 36.1136 55.9554 35.194 56.7688C33.7877 58.016 32.9944 62.6976 32.165 66.6743H49.6719H67.1788C66.3494 62.6976 65.5561 58.0341 64.1498 56.7688C63.2303 55.9554 60.9946 54.1839 53.2598 50.7857L46.1742 50.7314Z" fill="#7491A0"/>
<path fill-rule="evenodd" clip-rule="evenodd" d="M45.9219 43.9538V49.72V52.5579C47.9953 55.0162 51.3669 55.0885 53.4403 52.5579V49.72V43.9538C53.4403 39.3084 45.9219 39.3084 45.9219 43.9538Z" fill="#F6D9C7"/>
<path fill-rule="evenodd" clip-rule="evenodd" d="M41.847 38.5487C42.5141 38.3318 43.3435 39.091 43.7221 40.2298C44.1007 41.3686 43.8664 42.4893 43.1993 42.7062C42.5322 42.9231 41.7028 42.1639 41.3242 41.0251C40.9455 39.8683 41.1799 38.7656 41.847 38.5487Z" fill="#F6D9C7"/>
<path fill-rule="evenodd" clip-rule="evenodd" d="M57.479 38.5487C56.8119 38.3318 55.9826 39.091 55.604 40.2298C55.2253 41.3686 55.4597 42.4893 56.1268 42.7062C56.7939 42.9231 57.6233 42.1639 58.0019 41.0251C58.3805 39.8683 58.1461 38.7656 57.479 38.5487Z" fill="#F6D9C7"/>
<path fill-rule="evenodd" clip-rule="evenodd" d="M48.0673 56.1723L48.9687 57.5822C49.4375 57.5822 49.9063 57.5822 50.3751 57.5822L51.2946 56.1723L49.6899 54.4189L48.0673 56.1723Z" fill="#343434"/>
<path fill-rule="evenodd" clip-rule="evenodd" d="M48.9688 57.5825L47.6707 66.6747H51.6733L50.3751 57.5825H48.9688Z" fill="#343434"/>
<path fill-rule="evenodd" clip-rule="evenodd" d="M45.9217 49.7192L45.5972 51.0026L46.5167 57.6726L49.7079 54.437L45.9217 49.7192Z" fill="#EDEDED"/>
<path opacity="0.2" d="M45.9219 48.1284V48.3996C45.9219 48.3996 47.833 50.6771 49.6721 50.7675C51.5111 50.8579 53.4403 48.5622 53.4403 48.5622V48.1465" fill="black"/>
<path fill-rule="evenodd" clip-rule="evenodd" d="M49.6899 28.5161C38.1329 28.5161 42.5682 44.3867 43.3074 45.6158C44.1368 46.9534 47.8148 49.9179 49.6899 49.9179C51.565 49.9179 55.2251 46.9534 56.0725 45.6158C56.8117 44.3867 61.247 28.5161 49.6899 28.5161Z" fill="#F6D9C7"/>
<path d="M55.0087 28.8774C51.0241 25.3526 43.2172 29.8535 41.3962 32.4203C42.1355 35.0051 41.7749 38.2949 42.3158 41.9643V41.9462C42.3158 41.9824 42.3338 42.0186 42.3338 42.0547C42.3338 42.0909 42.4059 42.1632 42.4239 42.1993C42.442 42.2355 42.5862 42.1993 42.6403 42.1812C42.6583 42.1812 42.6583 42.1451 42.6583 42.127C42.6764 41.8016 42.6583 41.169 42.6583 41.1509C42.6223 40.6448 42.6944 40.1387 42.6223 39.6325C42.9829 37.3188 42.6944 37.2285 43.9565 34.9148C44.0646 34.7159 44.7317 33.9387 44.8219 33.8664C46.9314 33.0891 47.6526 34.3725 49.6358 35.1859C50.3931 35.4932 51.529 35.5113 52.3764 35.5113C53.6925 35.5113 54.9546 34.0652 54.9726 33.776C56.5412 36.2162 56.7035 37.9515 57.1723 40.0483C57.1182 40.4098 57.0461 40.7713 57.01 41.1509C57.01 41.1509 56.992 41.8016 57.01 42.127C57.01 42.1451 57.01 42.1632 57.028 42.1812C57.0821 42.1993 57.2083 42.2355 57.2444 42.1993C57.2624 42.1812 57.3165 42.0909 57.3345 42.0547C57.3706 41.9101 57.3706 41.8016 57.3886 41.657C57.4067 41.4763 57.4427 41.2774 57.4607 41.0786C58.0738 38.8191 59.1736 29.8535 55.0087 28.8774ZM49.0949 31.9142C49.0228 31.8961 48.9687 31.878 48.8966 31.8599C48.9868 31.878 49.0949 31.9142 49.1851 31.9322C49.1671 31.9322 49.131 31.9142 49.0949 31.9142Z" fill="#BF9741"/>
<path d="M12.0981 27.1606C16.1728 23.6358 24.1781 28.1367 26.0351 30.7035C25.2779 33.2883 25.6565 36.5781 25.0976 40.2475V40.2295C25.0976 40.2656 25.0795 40.3018 25.0795 40.3379C25.0795 40.3741 25.0074 40.4464 24.9894 40.4825C24.9714 40.5187 24.8271 40.4825 24.773 40.4644C24.755 40.4644 24.755 40.4283 24.755 40.4102C24.737 40.0848 24.755 39.4522 24.755 39.4341C24.7911 38.928 24.7189 38.4219 24.8091 37.9157C24.4305 35.602 24.737 35.5117 23.4388 33.198C23.3307 32.9991 22.6455 32.2219 22.5373 32.1496C20.3918 31.3723 19.6346 32.6557 17.5972 33.4691C16.8219 33.7764 15.65 33.7945 14.7846 33.7945C13.4503 33.7945 12.1522 32.3484 12.1161 32.0592C10.5115 34.4994 10.3492 36.2347 9.86243 38.3315C9.93455 38.693 9.98864 39.0545 10.0247 39.4341C10.0247 39.4341 10.0427 40.0848 10.0247 40.4102C10.0247 40.4283 10.0247 40.4464 10.0067 40.4644C9.95258 40.4825 9.80834 40.5187 9.79031 40.4825C9.77228 40.4644 9.71819 40.3741 9.70016 40.3379C9.6641 40.1933 9.6641 40.0848 9.64607 39.9402C9.62804 39.7595 9.59198 39.5606 9.55592 39.3618C8.96094 37.1023 7.82507 28.1367 12.0981 27.1606ZM18.1561 30.1793C18.2282 30.1612 18.2823 30.1431 18.3544 30.1251C18.2643 30.1431 18.1561 30.1793 18.066 30.1974C18.084 30.1974 18.1201 30.1974 18.1561 30.1793Z" fill="#605343"/>
<path fill-rule="evenodd" clip-rule="evenodd" d="M53.4401 49.7192L53.6925 50.9845L52.8271 57.7449L49.6899 54.437L53.4401 49.7192Z" fill="#EDEDED"/>
<path opacity="0.05" d="M45.9219 49.7188L49.6901 54.4366L53.4403 49.7188V49.6104L49.6901 54.292L45.9219 49.6104V49.7188Z" fill="black"/>
<path opacity="0.1" fill-rule="evenodd" clip-rule="evenodd" d="M48.9688 57.5825H50.3751L50.3931 57.6367H48.9688V57.5825Z" fill="black"/>
<path fill-rule="evenodd" clip-rule="evenodd" d="M70.1178 52.4665C70.9292 51.0385 77.474 49.7732 80.1243 54.8525C82.7927 59.9318 81.4405 61.7033 82.9189 63.4928C84.3974 65.2823 83.0091 69.3855 81.9814 69.747C80.9537 70.1085 81.3684 71.5365 81.8732 72.133C84.0007 74.7359 80.9176 79.1284 72.7141 79.0922C63.9336 79.038 62.2208 73.9406 64.4745 72.3319C65.2137 71.8077 65.4842 70.8135 64.6909 69.9278C63.8795 69.0421 62.0405 65.7703 63.7894 63.077C65.5383 60.438 64.0057 52.4665 70.1178 52.4665Z" fill="#806049"/>
<path fill-rule="evenodd" clip-rule="evenodd" d="M76.3201 73.3618C76.248 73.4703 69.9015 73.5607 69.8474 73.6691C67.8461 76.5251 63.555 77.7723 60.1294 78.5315C56.7217 79.2907 56.5955 83.6289 56.5775 86.521H89.7883C89.7883 83.6289 89.7162 79.3088 86.2364 78.5315C82.7567 77.7542 78.2132 76.3443 76.3201 73.3618Z" fill="#268085"/>
<path fill-rule="evenodd" clip-rule="evenodd" d="M69.8475 67.2698V72.7468V75.4401C71.5063 78.8564 74.5172 78.9468 76.5005 75.4401V72.7468V67.2698C76.5005 62.8593 69.8475 62.8593 69.8475 67.2698Z" fill="#F5D5C1"/>
<path fill-rule="evenodd" clip-rule="evenodd" d="M81.9633 63.4567C81.2962 63.1494 80.3587 63.8905 79.8719 65.1016C79.3851 66.3127 79.5113 67.5418 80.1784 67.831C80.8455 68.1383 81.783 67.3972 82.2698 66.1861C82.7566 64.9931 82.6124 63.764 81.9633 63.4567Z" fill="#F5D5C1"/>
<path fill-rule="evenodd" clip-rule="evenodd" d="M64.4024 63.4567C65.0695 63.1494 66.007 63.8905 66.4938 65.1016C66.9806 66.3127 66.8544 67.5418 66.1873 67.831C65.5202 68.1383 64.5827 67.3972 64.0959 66.1861C63.6091 64.9931 63.7353 63.764 64.4024 63.4567Z" fill="#F5D5C1"/>
<path opacity="0.2" fill-rule="evenodd" clip-rule="evenodd" d="M69.8475 71.3374V71.5724C69.8475 71.5724 71.939 73.6692 73.147 73.6692C74.355 73.6692 76.5005 71.5543 76.5005 71.5543V71.3555H69.8475V71.3374Z" fill="black"/>
<path fill-rule="evenodd" clip-rule="evenodd" d="M73.1831 72.9281C71.1096 72.9281 66.7464 69.5117 65.3942 64.6132C64.0239 59.6785 66.6022 52.5928 73.1831 52.5928C79.7639 52.5928 82.3241 59.6785 80.9719 64.6132C79.6197 69.5117 75.2565 72.9281 73.1831 72.9281Z" fill="#F5D5C1"/>
<path fill-rule="evenodd" clip-rule="evenodd" d="M71.6323 58.7197C70.0096 62.118 69.3606 63.1122 67.215 62.2264C65.0695 61.3226 65.4842 63.8352 65.8628 65.6247C63.9697 63.2025 64.186 60.9069 64.781 58.5751C65.4301 56.0084 68.6934 52.1221 71.7585 52.1944C73.4172 52.0136 75.9414 52.2305 78.6278 54.1646C83.3156 57.5448 81.747 65.1547 80.4849 66.0404C81.7109 59.0089 78.718 60.4369 76.6446 56.7495C75.9775 55.1407 73.3812 55.0323 71.6323 58.7197Z" fill="#80604A"/>
<path d="M73.4354 78.0796H72.7502V86.521H73.4354V78.0796Z" fill="white"/>
<path fill-rule="evenodd" clip-rule="evenodd" d="M69.8475 73.6694L67.4675 75.8385L70.4965 80.5382L73.0928 78.0619L69.8475 73.6694Z" fill="white"/>
<path fill-rule="evenodd" clip-rule="evenodd" d="M76.5004 73.6509L78.8803 75.9104L75.7071 80.5378L73.0928 78.0614L76.5004 73.6509Z" fill="white"/>
<path fill-rule="evenodd" clip-rule="evenodd" d="M76.7889 67.1804C76.861 67.1804 76.9151 67.1804 76.9872 67.1623C78.8803 66.9996 79.3491 66.1501 79.5474 65.0836C79.7818 63.9087 79.7998 63.4929 80.1063 63.3845C80.3227 63.3122 80.3768 63.041 80.3768 62.7338C80.3768 62.4265 80.3587 62.3903 79.9981 62.2638C79.7097 62.1553 78.087 62.0107 76.879 62.083V62.4084C77.8346 62.3542 78.7541 62.4626 79.0245 62.6434C79.6375 63.041 79.4573 64.939 78.9344 65.8789C78.5738 66.5297 77.6363 66.8731 76.7889 66.8731V67.1804ZM73.255 62.7157C72.8403 62.7338 71.1275 62.2276 69.9195 62.1192C69.8294 62.1192 69.7392 62.1011 69.6491 62.1011V62.4265C70.6407 62.4626 71.6504 62.6976 72.011 63.2218C72.5879 64.0894 71.5602 66.2043 70.6227 66.6743C70.3342 66.8189 69.9736 66.8912 69.577 66.8912V67.1985C71.2177 67.1985 71.8126 66.0236 72.011 65.6259C72.3896 64.8848 72.3175 63.8545 73.255 63.8545C74.1926 63.8545 74.0664 64.8486 74.4089 65.5897C74.5892 65.9874 75.1121 67.2166 76.8069 67.1623V66.855C76.3922 66.855 75.9955 66.7827 75.7071 66.6381C74.8056 66.1682 73.9041 64.0533 74.5351 63.1856C74.9138 62.6615 75.9234 62.4265 76.897 62.3722V62.0469C76.8249 62.0469 76.7528 62.0649 76.6807 62.0649C75.5628 62.2096 74.2467 62.6795 73.255 62.7157ZM69.6671 62.1011C68.4771 62.0288 66.8905 62.1915 66.584 62.2819C66.2054 62.4084 66.1874 62.4445 66.1693 62.7518C66.1513 63.0591 66.1874 63.3303 66.4037 63.4026C66.7102 63.511 66.6922 63.9268 66.8545 65.1017C66.9987 66.1682 67.4134 67.0177 69.2885 67.1804C69.3786 67.1804 69.4688 67.1985 69.577 67.1985V66.8912C68.7115 66.8912 67.7559 66.5658 67.4314 65.897C66.9807 64.9571 66.9086 63.0591 67.5396 62.6615C67.81 62.4988 68.7115 62.3722 69.6491 62.4084L69.6671 62.1011Z" fill="#268085"/>
<path opacity="0.05" fill-rule="evenodd" clip-rule="evenodd" d="M69.8475 73.669L73.0929 78.0614L76.5005 73.6509V73.5605L73.0929 77.9349L69.8475 73.5605V73.669Z" fill="black"/>
<path fill-rule="evenodd" clip-rule="evenodd" d="M26.3593 71.4282C18.6246 74.8265 16.2987 76.6521 15.3792 77.4655C13.9729 78.7128 13.1796 83.3944 12.3502 87.3711H29.8571H47.364C46.5346 83.3944 45.7413 78.7309 44.335 77.4655C43.4155 76.6521 41.1798 74.8807 33.445 71.4824L26.3593 71.4282Z" fill="#FFDECC"/>
<path fill-rule="evenodd" clip-rule="evenodd" d="M26.3593 71.4282C18.6246 74.8265 16.2987 76.6521 15.3792 77.4655C13.9729 78.7128 13.1796 83.3944 12.3502 87.3711H29.8571H47.364C46.5346 83.3944 45.7413 78.7309 44.335 77.4655C43.4155 76.6521 41.1798 74.8807 33.445 71.4824L26.3593 71.4282Z" fill="#333333"/>
<path fill-rule="evenodd" clip-rule="evenodd" d="M26.1068 64.6496V70.4158V73.2537C28.1802 75.712 31.5518 75.7843 33.6252 73.2537V70.4158V64.6496C33.6252 60.0042 26.1068 60.0042 26.1068 64.6496Z" fill="#FFDBBA"/>
<path fill-rule="evenodd" clip-rule="evenodd" d="M22.0322 59.245C22.6993 59.0281 23.5287 59.7873 23.9073 60.9261C24.2859 62.0648 24.0515 63.1856 23.3844 63.4025C22.7173 63.6194 21.888 62.8602 21.5093 61.7214C21.1307 60.5646 21.3651 59.4619 22.0322 59.245Z" fill="#FFDBBA"/>
<path fill-rule="evenodd" clip-rule="evenodd" d="M37.6639 59.245C36.9968 59.0281 36.1674 59.7873 35.7888 60.9261C35.4101 62.0648 35.6445 63.1856 36.3116 63.4025C36.9787 63.6194 37.8081 62.8602 38.1867 61.7214C38.5654 60.5646 38.331 59.4619 37.6639 59.245Z" fill="#FFDBBA"/>
<path fill-rule="evenodd" clip-rule="evenodd" d="M29.8751 75.1157C29.8751 75.1157 24.6284 76.363 24.6284 76.6883C24.6284 77.0137 26.6297 87.3531 26.6297 87.3531H33.7515L34.5628 76.7245L29.8751 75.1157Z" fill="white"/>
<path fill-rule="evenodd" clip-rule="evenodd" d="M26.1068 71.5371V73.2543L27.7295 87.3715H24.9349L21.8338 81.0811L24.7906 79.1109L21.1847 77.4118L24.5022 72.2601L26.1068 71.5371Z" fill="#605F5B"/>
<path fill-rule="evenodd" clip-rule="evenodd" d="M33.6253 71.5552V73.2543L31.9666 87.3715H34.7792L37.8623 81.0811L34.9234 79.1109L38.5294 77.4117L35.5725 72.4228L33.6253 71.5552Z" fill="#605F5B"/>
<path fill-rule="evenodd" clip-rule="evenodd" d="M28.2524 76.8691L29.1539 78.279C29.6227 78.279 30.0915 78.279 30.5602 78.279L31.4798 76.8691L29.8751 75.1157L28.2524 76.8691Z" fill="#C93838"/>
<path fill-rule="evenodd" clip-rule="evenodd" d="M29.154 78.2788L27.8558 87.3709H31.8584L30.5603 78.2788H29.154Z" fill="#C93838"/>
<path fill-rule="evenodd" clip-rule="evenodd" d="M26.1069 70.416L25.7823 71.6994L26.7019 78.3694L29.8931 75.1338L26.1069 70.416Z" fill="#EDEDED"/>
<path opacity="0.2" d="M26.1068 68.8076V69.0788C26.1068 69.0788 28.018 71.3563 29.857 71.4467C31.696 71.5371 33.6252 69.2414 33.6252 69.2414V68.8257" fill="black"/>
<path fill-rule="evenodd" clip-rule="evenodd" d="M35.825 49.8637C37.5378 50.1349 38.4934 51.3279 38.9081 52.9185C39.9719 57.0941 37.7542 66.15 30.0735 66.2585C26.107 66.3127 23.2583 65.3005 22.2126 62.083C21.1668 58.8655 20.7521 53.6958 23.0059 50.7856C25.8365 47.1343 31.8044 47.1162 35.825 49.8637Z" fill="#755A48"/>
<path fill-rule="evenodd" clip-rule="evenodd" d="M29.8751 49.2124C18.318 49.2124 22.7534 65.083 23.4926 66.3121C24.322 67.6497 28 70.6142 29.8751 70.6142C31.7502 70.6142 35.4102 67.6497 36.2576 66.3121C36.9969 65.083 41.4322 49.2124 29.8751 49.2124Z" fill="#FFDBBA"/>
<path fill-rule="evenodd" clip-rule="evenodd" d="M24.2679 54.2007C26.3233 55.4479 27.928 53.5861 29.785 54.3814C31.6421 55.1767 36.6724 51.3266 37.7722 59.8042C39.5391 53.6584 36.8707 49.2479 30.1636 48.9587C23.0058 48.6514 20.103 55.1948 22.0863 61.3045C21.9421 57.9966 22.7534 55.8275 24.2679 54.2007Z" fill="#755A48"/>
<path d="M24.0876 53.6415C24.1417 54.708 25.9447 54.8706 26.702 54.9249C27.4232 54.9791 28.1263 54.8526 28.8114 54.6537C29.6588 54.4187 30.7226 54.1114 31.4077 53.533C31.4798 53.4788 31.4438 53.3523 31.3536 53.3342C30.0555 53.1173 28.7033 54.1837 27.4051 54.3103C26.3774 54.4007 25.0252 54.2561 24.2139 53.5692C24.1778 53.5511 24.0876 53.5692 24.0876 53.6415Z" fill="#755A48"/>
<path fill-rule="evenodd" clip-rule="evenodd" d="M33.4449 63.9993C33.517 63.9993 33.5711 63.9993 33.6433 63.9812C35.5184 63.8186 35.9871 62.969 36.2035 61.9025C36.4379 60.7276 36.4559 60.3119 36.7624 60.2034C36.9788 60.1311 37.0329 59.86 37.0329 59.5527C37.0329 59.2454 37.0148 59.2092 36.6542 59.0827C36.3658 58.9742 34.7611 58.8296 33.5531 58.92V59.2454C34.5087 59.1912 35.4102 59.2996 35.6806 59.4804C36.2756 59.878 36.1133 61.7579 35.5905 62.6979C35.2299 63.3486 34.3104 63.674 33.463 63.692L33.4449 63.9993ZM29.9291 59.5527C29.5144 59.5707 27.8196 59.0646 26.6117 58.9742C26.5215 58.9742 26.4314 58.9562 26.3412 58.9562V59.2815C27.3148 59.3177 28.3425 59.5527 28.6851 60.0769C29.262 60.9445 28.2343 63.0413 27.2968 63.5113C27.0083 63.6559 26.6477 63.7282 26.2511 63.7282V64.0355C27.8737 64.0355 28.4867 62.8605 28.6851 62.4629C29.0637 61.7218 28.9916 60.7095 29.9111 60.7095C30.8486 60.7095 30.7224 61.7037 31.047 62.4448C31.2273 62.8425 31.7501 64.0716 33.4449 64.0174V63.7282C33.0302 63.7282 32.6336 63.6559 32.3451 63.5113C31.4436 63.0413 30.5421 60.9445 31.1732 60.0769C31.5518 59.5527 32.5615 59.3177 33.5351 59.2815V58.9562C33.463 58.9562 33.3908 58.9742 33.3187 58.9742C32.2189 59.0466 30.9027 59.5165 29.9291 59.5527ZM26.3412 58.9381C25.1512 58.8658 23.5646 59.0285 23.2762 59.1189C22.8975 59.2454 22.8975 59.2815 22.8615 59.5888C22.8434 59.8961 22.8795 60.1492 23.0959 60.2396C23.3843 60.348 23.3843 60.7638 23.5466 61.9387C23.6908 63.0052 24.1055 63.8547 25.9806 63.9993C26.0708 63.9993 26.1609 64.0174 26.2511 64.0174V63.7101C25.3856 63.7101 24.4301 63.3847 24.1055 62.7159C23.6548 61.776 23.5827 59.8961 24.2137 59.4984C24.4841 59.3358 25.3856 59.2092 26.3232 59.2454L26.3412 58.9381Z" fill="#C93838"/>
<path fill-rule="evenodd" clip-rule="evenodd" d="M33.6253 70.416L33.8777 71.6813L33.0123 78.4417L29.8751 75.1338L33.6253 70.416Z" fill="#EDEDED"/>
<path opacity="0.05" d="M26.1068 70.4161L29.875 75.1158L33.6252 70.4161V70.2896L29.875 74.9893L26.1068 70.2896V70.4161Z" fill="black"/>
<path opacity="0.1" fill-rule="evenodd" clip-rule="evenodd" d="M29.1539 78.2788H30.5602L30.5783 78.333H29.1539V78.2788Z" fill="black"/>
<path fill-rule="evenodd" clip-rule="evenodd" d="M45.6334 76.0571C37.8986 79.4554 35.5728 81.263 34.6533 82.0944C33.2469 83.3417 32.4536 88.0233 31.6243 92H49.1311H66.638C65.8087 88.0233 65.0154 83.3598 63.609 82.0944C62.6895 81.281 60.4538 79.5096 52.7191 76.1114L45.6334 76.0571Z" fill="#FFDECC"/>
<path fill-rule="evenodd" clip-rule="evenodd" d="M45.6334 76.0571C37.8986 79.4554 35.5728 81.263 34.6533 82.0944C33.2469 83.3417 32.4536 88.0233 31.6243 92H49.1311H66.638C65.8087 88.0233 65.0154 83.3598 63.609 82.0944C62.6895 81.281 60.4538 79.5096 52.7191 76.1114L45.6334 76.0571Z" fill="#333333"/>
<path fill-rule="evenodd" clip-rule="evenodd" d="M45.3629 69.2611V75.0273V77.8652C47.4363 80.3235 50.8079 80.3958 52.8813 77.8652V75.0273V69.2611C52.8813 64.6337 45.3629 64.6337 45.3629 69.2611Z" fill="#F6C5A0"/>
<path fill-rule="evenodd" clip-rule="evenodd" d="M41.2882 63.8559C41.9553 63.639 42.7847 64.3981 43.1633 65.5369C43.542 66.6757 43.3076 67.7964 42.6405 68.0133C41.9734 68.2302 41.144 67.471 40.7654 66.3322C40.4048 65.1935 40.6392 64.0728 41.2882 63.8559Z" fill="#F6C5A0"/>
<path fill-rule="evenodd" clip-rule="evenodd" d="M56.938 63.8559C56.2709 63.639 55.4416 64.3981 55.0629 65.5369C54.6843 66.6757 54.9187 67.7964 55.5858 68.0133C56.2529 68.2302 57.0823 67.471 57.4609 66.3322C57.8215 65.1935 57.5871 64.0728 56.938 63.8559Z" fill="#F6C5A0"/>
<path fill-rule="evenodd" clip-rule="evenodd" d="M49.149 79.7446C49.149 79.7446 43.9023 80.9919 43.9023 81.3172C43.9023 81.6426 45.9036 91.982 45.9036 91.982H53.0254L53.8367 81.3534L49.149 79.7446Z" fill="#9FBAC4"/>
<path fill-rule="evenodd" clip-rule="evenodd" d="M45.3628 76.166V77.8651L47.0035 91.9824H44.1909L41.1078 85.692L44.0647 83.7217L40.4587 82.0407L43.7582 76.889L45.3628 76.166Z" fill="#1A1A1A"/>
<path fill-rule="evenodd" clip-rule="evenodd" d="M52.8813 76.166V77.8651L51.2406 91.9824H54.0532L57.1363 85.692L54.1794 83.7217L57.7854 82.0407L54.8466 77.0517L52.8813 76.166Z" fill="#1B1B1B"/>
<path fill-rule="evenodd" clip-rule="evenodd" d="M47.5084 81.4799L48.4099 82.8898C48.8787 82.8898 49.3475 82.8898 49.8162 82.8898L50.7177 81.4799L49.1131 79.7266L47.5084 81.4799Z" fill="#28A8E3"/>
<path fill-rule="evenodd" clip-rule="evenodd" d="M48.428 82.9082L47.1299 91.9823H51.1325L49.8343 82.9082H48.428Z" fill="#28A8E3"/>
<path fill-rule="evenodd" clip-rule="evenodd" d="M45.363 75.0269L45.0385 76.3102L45.958 82.9802L49.1492 79.7446L45.363 75.0269Z" fill="white"/>
<path opacity="0.2" d="M45.3629 73.4365V73.7077C45.3629 73.7077 47.2741 75.9852 49.1131 76.0756C50.9521 76.166 52.8813 73.8703 52.8813 73.8703V73.4546" fill="black"/>
<path fill-rule="evenodd" clip-rule="evenodd" d="M49.1317 53.8247C37.5746 53.8247 42.01 69.6953 42.7492 70.9244C43.5785 72.262 47.2566 75.2265 49.1317 75.2265C51.0068 75.2265 54.6668 72.262 55.5142 70.9244C56.2715 69.7133 60.6888 53.8247 49.1317 53.8247Z" fill="#F6C5A0"/>
<path d="M54.3237 54.2035C50.4112 51.1306 44.3893 52.9562 42.5683 55.523C40.2965 58.7405 41.0898 63.621 41.6307 67.2723V67.2542C41.6307 67.2904 41.6488 67.3265 41.6488 67.3627C41.6488 67.3988 41.7209 67.4711 41.7389 67.5073C41.7569 67.5434 41.9012 67.5073 41.9553 67.4892C41.9733 67.4892 41.9733 67.4531 41.9733 67.435C41.9913 67.1096 41.9733 66.477 41.9733 66.4589C41.9372 65.9528 41.8291 65.4647 41.7389 64.9767C42.0995 62.663 43.1813 62.1749 43.7582 59.3912C43.8845 59.2105 44.0107 59.0297 44.1369 58.849C44.2991 58.6501 44.4434 58.4513 44.6417 58.2705C44.7318 58.2163 44.84 58.144 44.9302 58.0717C47.0397 57.2944 49.2032 58.2344 51.1865 59.0297C51.9438 59.337 52.7911 59.6985 53.6385 59.6443C53.9991 59.6081 54.2696 59.3732 54.3056 59.0839C55.2612 61.9399 56.0365 63.2595 56.5053 65.3563C56.4332 65.7178 56.3791 66.0793 56.343 66.4589C56.343 66.4589 56.325 67.1096 56.343 67.435C56.343 67.4531 56.343 67.4711 56.361 67.4892C56.4151 67.5073 56.5413 67.5434 56.5774 67.5073C56.5954 67.4892 56.6495 67.3988 56.6675 67.3627C56.7036 67.2181 56.7036 67.1096 56.7216 66.965C56.7397 66.7842 56.7757 66.5854 56.7937 66.3866C57.3707 64.1452 58.4885 55.1615 54.3237 54.2035ZM48.4099 57.2221C48.3378 57.2041 48.2837 57.186 48.2116 57.1679C48.3017 57.186 48.4099 57.2221 48.5001 57.2402C48.464 57.2402 48.4279 57.2402 48.4099 57.2221Z" fill="#605343"/>
<path fill-rule="evenodd" clip-rule="evenodd" d="M52.8812 75.0269L53.1336 76.2922L52.2682 83.0525L49.131 79.7446L52.8812 75.0269Z" fill="white"/>
<path opacity="0.05" d="M45.3629 75.0269L49.1492 79.7447L52.8813 75.0269V74.9185L49.1492 79.6001L45.3629 74.9185V75.0269Z" fill="black"/>
<path opacity="0.1" fill-rule="evenodd" clip-rule="evenodd" d="M48.4279 82.9082H49.8343V82.9443H48.4099L48.4279 82.9082Z" fill="black"/>
</svg>
