<svg xmlns="http://www.w3.org/2000/svg" xmlns:xlink="http://www.w3.org/1999/xlink" width="165" height="92" fill="none" xmlns:v="https://vecta.io/nano"><style><![CDATA[.B{fill:#ad522f}.C{fill:#436a70}.D{fill:#853f24}.E{opacity:.4}.F{opacity:.85}.G{opacity:.75}.H{fill:#e1a300}.I{fill:#fdf395}]]></style><path d="M10 27.78V92h11.836l1.48-5.5h29.27l1.48 5.5h11.193V27.78H10z" style="mix-blend-mode:multiply" class="C"/><path d="M20.743 27.78V92H32.58l1.48-5.5h29.27l1.48 5.5H76V27.78H20.743z" fill="url(#H)"/><path d="M48.082 63.6c9.006 2.24 18.076 4.03 27.21 4.222V28.483H21.45V52.47c6.947 6.333 18.14 9.02 26.632 11.13z" fill="url(#I)" class="E"/><g class="C"><path d="M70.34 81.38H27.11V33.856H70.34V81.38zm-42.713-.576h42.2V34.368h-42.2v46.438z"/><path d="M29.105 54.518h-3.41V43.835h3.41v10.682zm0 9.66h-3.41v10.682h3.41V64.176z"/></g><path d="M26.21 74.346v-9.66h2.38v9.66h-2.38zm0-20.405v-9.66h2.38v9.66h-2.38z" fill="url(#J)"/><path opacity=".3" d="M55.673 66.926c-4.503 2.367-9.006 3.262-14.474 3.582-2.702-1.92-5.018-4.35-6.304-7.356 1.544-5.117 3.86-9.21 6.947-13.05 5.34 4.925 9.906 10.938 13.83 16.823z" fill="#29929e"/><path d="M39.076 56.884c0-6.077 4.953-10.362 11.13-10.362 6.11 0 11.13 4.222 11.13 10.362 0 6.077-4.953 11.77-11.13 11.77s-11.13-5.693-11.13-11.77z" class="C"/><path d="M50.14 67.95c5.532 0 10.42-5.18 10.42-11.066 0-5.5-4.503-9.595-10.42-9.595s-10.42 4.158-10.42 9.595c.064 5.885 4.89 11.066 10.42 11.066z" fill="url(#K)"/><path d="M50.14 62.45c2.573 0 4.89-2.43 4.89-5.18 0-2.56-2.123-4.54-4.89-4.54s-4.89 1.92-4.89 4.54c0 2.75 2.316 5.18 4.89 5.18z" fill="url(#L)"/><path d="M53.55 51.574l1.03-3.454a8.67 8.67 0 0 1 1.544.768l-2.573 2.686zm5.017-.512c.386.448.708.96.965 1.47l-3.538 1.215 2.573-2.687zM45.702 48.12l.965 3.4-2.5-2.622 1.544-.768zm10.035 12.986l3.4 1.15c-.257.512-.58.96-.9 1.407l-2.5-2.558zm-15.89-2.943c-.064-.448-.064-.832-.064-1.28V56.5l3.474.83-3.4.832zm20.712-1.726v.448l-.064 1.343-3.538-.895 3.602-.895zM46.667 63.47l-1.03 3.326c-.45-.256-.9-.576-1.35-.896l2.38-2.43zm-5.532-1.278l3.4-1.15-2.5 2.56c-.322-.448-.643-.895-.9-1.407zm.58-11.065l2.573 2.687-3.474-1.215c.257-.576.58-1.023.9-1.47zM49.24 47.3c.322 0 .643-.064.965-.064.257 0 .515 0 .772.064l-.836 3.518-.9-3.518zm5.403 19.507l-1.03-3.326 2.38 2.495-1.35.832zm-5.403 1.088l.9-3.454.836 3.518c-.257 0-.515.064-.772.064-.322-.064-.643-.064-.965-.128z" fill="#fac371"/><mask id="A" mask-type="alpha" maskUnits="userSpaceOnUse" x="48" y="47" width="12" height="11"><use xlink:href="#n" fill="url(#M)"/></mask><g mask="url(#A)"><use xlink:href="#n" fill="url(#N)" class="F"/><path d="M40.363 54.006l4.374 1.535c-.643 1.983-.13 4.286 1.35 5.757s3.795 2.11 5.8 1.535c.643 1.28 1.287 2.75 1.737 4.158-2.058.895-4.503.768-6.56-.128s-3.73-2.43-5.017-4.286c-.836-1.215-1.48-2.495-1.737-3.902-.193-1.47-.45-3.326.064-4.67z" class="G H"/><path opacity=".6" d="M49.047 59.06c.58.384 1.287.64 1.737 1.15.257.256.45.704.257 1.023s-.58.32-.965.256c-1.608-.256-2.96-1.535-3.216-3.134-.064-.512.13-1.343.708-.768.58.512.836 1.087 1.48 1.47z" fill="#ebe1be"/></g><path opacity=".5" d="M21.386 28.74l53.65.448.064 61.662-1.672-60.382-50.7-.384-.965 22.643-.386-23.987zm7.14 6.587h40.14l.13 44.647-1.608-42.856-37.825-.576-1.222 4.797.386-6.013z" fill="#fff6d6"/><path d="M26.15 84.484H5.5l2.066-7.515h16.587l2.007 7.515z" fill="url(#O)"/><path d="M14.698 84.484H5.5l2.066-7.515h5.135l2.007 7.515z" class="B"/><path d="M7.555 76.97l4.958.24 2.184 7.276-1.77-7.157 11.156-.18 2.066 7.336L24.2 76.79l-11.5.06-5.135.12z" class="D"/><path d="M36.007 84.484h-20.66l2.007-7.515H33.94l2.066 7.515z" fill="url(#P)"/><path d="M24.555 84.484h-9.208l2.007-7.515h5.135l2.066 7.515z" class="B"/><use xlink:href="#o" class="D"/><path d="M30.635 76.97H9.976l2.007-7.515H28.57l2.066 7.515z" fill="url(#Q)"/><path d="M19.184 76.97H9.976l2.007-7.515h5.135l2.066 7.515z" class="B"/><use xlink:href="#o" x="-5.371" y="-7.515" class="D"/><path d="M35.652 69.455h-20.66L17.06 62h16.587l2.007 7.455z" fill="url(#R)"/><path d="M24.26 69.455h-9.267L17.06 62h5.135l2.066 7.455z" class="B"/><path d="M24.083 62.954l1.063 5.25-.708.716H34.65l-6.08-.716-1.18-5.25h-3.305z" class="G H"/><mask id="B" mask-type="alpha" maskUnits="userSpaceOnUse" x="22" y="62" width="14" height="8"><path d="M22.725 62.477l.708 2.565h9.917l2.066 4.235-1.948-6.8H22.725z" fill="url(#S)"/></mask><g mask="url(#B)"><path d="M22.725 62.477l.708 2.565h9.917l2.066 4.235-1.948-6.8H22.725z" fill="url(#T)" class="F"/><path d="M17.06 62l5.017.18 2.184 7.276-1.83-7.157 11.156-.18 2.066 7.336-1.89-7.694-11.57.06-5.135.18z" class="I"/></g><path d="M40.67 76.97H20l2.007-7.515h16.646l2.007 7.515z" fill="url(#U)"/><path d="M29.22 76.97H20l2.007-7.515h5.194l2.007 7.515z" class="B"/><path d="M29.1 70.4l1.063 5.308-.708.716h10.153l-6.08-.716-1.12-5.308H29.1z" class="G H"/><mask id="C" mask-type="alpha" maskUnits="userSpaceOnUse" x="27" y="69" width="14" height="8"><path d="M27.743 69.992l.65 2.505h9.976l2.007 4.294-1.89-6.8H27.743z" fill="url(#V)"/></mask><g mask="url(#C)"><path d="M27.743 69.992l.65 2.505h9.976l2.007 4.294-1.89-6.8H27.743z" fill="url(#W)" class="F"/><path d="M22.017 69.456l5.017.24 2.184 7.276-1.77-7.157 11.156-.18 2.066 7.336-1.948-7.694-11.5.06-5.194.12z" class="I"/></g><path d="M46.336 84.486h-20.66l2.007-7.515H44.27l2.066 7.515z" fill="url(#X)"/><path d="M34.885 84.486h-9.208l2.007-7.515h5.135l2.066 7.515z" class="B"/><path d="M34.767 77.925l1.003 5.308-.65.716h10.153l-6.08-.716-1.18-5.308h-3.246z" class="G H"/><mask id="D" mask-type="alpha" maskUnits="userSpaceOnUse" x="33" y="77" width="14" height="8"><path d="M33.41 77.507l.65 2.505h9.917l2.066 4.294-1.89-6.8H33.41z" fill="url(#Y)"/></mask><g mask="url(#D)"><path d="M33.41 77.507l.65 2.505h9.917l2.066 4.294-1.89-6.8H33.41z" fill="url(#Z)" class="F"/><use xlink:href="#o" x="10.33" class="I"/></g><path d="M20.66 92H0l2.066-7.515h16.587L20.66 92z" fill="url(#a)"/><path d="M9.267 92H0l2.066-7.515H7.2L9.267 92z" class="B"/><path d="M2.066 84.485l5.017.24L9.267 92l-1.83-7.157 11.156-.18L20.66 92l-1.89-7.694H7.2l-5.135.18z" class="D"/><path d="M30.812 92h-20.66l2.007-7.515h16.587L30.812 92z" fill="url(#b)"/><path d="M19.36 92h-9.208l2.007-7.515h5.194L19.36 92z" class="B"/><path d="M12.16 84.485l5.017.24L19.36 92l-1.77-7.157 11.156-.18L30.812 92l-1.948-7.694h-11.57l-5.135.18z" class="D"/><path d="M40.61 92H19.95l2.066-7.515h16.587L40.61 92z" fill="url(#c)"/><path d="M29.218 92H19.95l2.066-7.515h5.135L29.218 92z" class="B"/><path d="M22.017 84.485l5.017.24L29.22 92l-1.83-7.157 11.156-.18L40.61 92l-1.89-7.694h-11.57l-5.135.18z" class="D"/><path d="M51 92H30.28l2.066-7.515h16.587L51 92z" fill="url(#d)"/><path d="M39.548 92H30.28l2.066-7.515h5.135L39.548 92z" class="B"/><path d="M39.37 85.44l1.062 5.308-.65.716h10.153l-6.08-.716-1.18-5.308H39.37z" class="G H"/><mask id="E" mask-type="alpha" maskUnits="userSpaceOnUse" x="38" y="84" width="13" height="8"><path d="M38.014 84.962l.708 2.565h9.917l2.066 4.294-1.948-6.86H38.014z" fill="url(#e)"/></mask><g mask="url(#E)"><path d="M38.014 84.962l.708 2.565h9.917l2.066 4.294-1.948-6.86H38.014z" fill="url(#f)" class="F"/><path d="M32.347 84.486l5.017.24L39.548 92l-1.83-7.157 11.215-.18L51 92l-1.948-7.694h-11.57l-5.135.18z" class="I"/></g><path d="M97.434 89.077l.334-1.87H69.35l.334 1.87h.906l.286.9h-.143c-.525 0-1 .527-1 1.102 0 .287.095.527.286.67.095.096.19.144.334.192.095.048.238.048.382.048h.715c.525 0 .954-.623.954-1.15s-.382-.815-.81-.862v-.9h23.89v.9h-.334c-.525 0-1 .527-1 1.102 0 .287.095.527.286.67.095.096.19.144.334.192.095.048.238.048.38.048h.715c.525 0 .954-.623.954-1.15a.78.78 0 0 0-.62-.815l.286-.9h.954v-.048z" class="C"/><path d="M85.085 89.077h-27.75L57 87.208h28.418l-.334 1.87z" fill="url(#g)"/><g class="C"><path d="M59.24 90.658h-.525l-.477-1.58h1v1.58zm23.9 0h.525l.477-1.58h-1v1.58z"/><use xlink:href="#p"/></g><path d="M57.382 91.04c0 .575.477.958 1 .958s.954-.623.954-1.15c0-.575-.43-.862-.954-.862s-1 .527-1 1.054zm.763-.048c0-.144.143-.287.238-.287.143 0 .238.096.238.24s-.095.288-.238.288-.238-.096-.238-.24z" fill="url(#h)"/><g class="C"><path d="M57.525 91.04c0 .527.43.815.858.815.477 0 .81-.527.81-1.006 0-.527-.43-.72-.81-.72-.43 0-.858.43-.858.9zm.095.048c0-.43.38-.862.763-.862.334 0 .763.192.763.67 0 .43-.334.9-.763.9-.334.048-.763-.24-.763-.72z"/><use xlink:href="#p" x="24.413"/></g><path d="M81.795 91.04c0 .575.477.958 1 .958s.954-.623.954-1.15c0-.575-.43-.862-.954-.862s-1 .527-1 1.054zm.715-.048c0-.144.143-.287.238-.287.143 0 .238.096.238.24s-.095.288-.238.288c-.095 0-.238-.096-.238-.24z" fill="url(#i)"/><path d="M81.938 91.04c0 .527.43.815.858.815.477 0 .81-.527.81-1.006 0-.527-.43-.72-.81-.72-.477 0-.858.43-.858.9zm.095.048c0-.43.38-.862.763-.862.334 0 .763.192.763.67 0 .43-.334.9-.763.9-.382.048-.763-.24-.763-.72z" class="C"/><g class="E"><mask id="F" mask-type="alpha" maskUnits="userSpaceOnUse" x="57" y="87" width="8" height="2"><path opacity=".064" d="M57.62 88.885l-.238-1.437h7.248l-.38 1.437H57.62z" fill="url(#j)"/></mask><g mask="url(#F)"><path d="M57.62 88.885l-.238-1.437h7.248l-.38 1.437H57.62z" fill="url(#k)" class="E"/></g></g><path opacity=".1" d="M74.595 87.448l-.238 1.437h7.248l-.382-1.437h-6.628z" fill="#29929e"/><g class="E"><mask id="G" mask-type="alpha" maskUnits="userSpaceOnUse" x="82" y="87" width="3" height="2"><path opacity=".064" d="M84.56 88.885l.238-1.437h-2.24l.38 1.437h1.62z" fill="url(#l)"/></mask><g mask="url(#G)"><path d="M84.56 88.885l.238-1.437h-2.24l.38 1.437h1.62z" fill="url(#m)" class="E"/></g></g><path d="M78.362 52.04h18.787l-1.574 35.17h-17.88l.667-35.17z" fill="#578a51"/><path d="M58.478 87.2L57.38 52.04h20.98v8.385l9.203.24L87.04 87.2H58.48zm22.697-35.17v7.14l9.012.144.286-7.283h-9.298z" fill="#9ac775"/><path d="M61.196 52.04l1.478 35.217h1.43L63.58 52.04h-2.384zm19.98 8.624l.43 26.545h1.478l.763-26.64-2.67.096zm-9.49-8.624l.8 35.17h1.43l.572-35.17h-2.813zm12.922 0l.334 7.235h1.573l.763-7.235h-2.67z" fill="#fffdc1"/><g fill="#578a51"><path d="M78.362 56.064H57.477v.095h20.885v-.095zM58.407 84.566l-.001.095L87.06 85v-.095l-28.654-.338zm28.77-4.23l-28.84.712.002.095 28.84-.712-.002-.095zm.053-3.238h-29v.095h29v-.095zm.05-3.23l-29.18.244v.095l29.18-.244v-.095zM58.034 70.63l-.001.095 29.372.237v-.095l-29.372-.237zm29.386-3.307H57.858v.095H87.42v-.095zM57.8 63.97v-.144l29.754-.144v.096L57.8 63.97zm-.17-4l-.002.095 29.938.638.002-.095-29.938-.638z"/><path d="M78.3 52.038l-.292 35.217.095.001.292-35.217-.095-.001zM67.4 52l-.095.003 1.12 35.2.095-.003L67.4 52z"/><path d="M90.33 55.44h-9.155v.095h9.155v-.095zM68.444 86.68c.43 0 1.573-.095 1.573-.095l-1.573-.095v.2zm9.536-.24c.477 0 1.764-.095 1.764-.095l-1.764-.095v.2zm9.203-4.837c-.334 0-1.192.095-1.192.095l1.192.095v-.2zm-.048.862l-3.147.095 3.147.095v-.2zm-9.012-.145c-.334 0-1.24.095-1.24.095l1.24.095v-.2zm-.095.767l-3.385.095 3.385.095v-.2zm-9.728-.575l3.242-.095-3.242-.095v.2zm.048 1.342l-1.955.095 1.955.095v-.2zm-9.918 2.49c.43 0 1.62-.095 1.62-.095l-1.62-.095v.2zm-.142-3.545c.43 0 1.526-.095 1.526-.095l-1.526-.095v.2zm0 .9l2.813-.095-2.813-.095v.2zm-.096-3.488l2.527-.095-2.527-.095v.2zm9.966-1.676l2.193-.095-2.193-.095v.2zm.095 1.867c.286 0 1.097-.095 1.097-.095l-1.097-.095v.2zm9.87-1.197c.525 0 1.86-.095 1.86-.095l-1.86-.095v.2zm9.203-2.922c-.334 0-1.144.095-1.144.095l1.144.095v-.2zm.094-3.114l-2.575.095 2.575.095v-.2zm-.142 1.533l-2.718.095 2.718.095v-.2zm-9.155 1.677c.43 0 1.478-.095 1.478-.095l-1.478-.095v.2zm0-1.82c-.477 0-1.717.095-1.717.095l1.717.095v-.2zM68.1 76.523l3.004-.095-3.004-.095v.2zm-.038-.958l-3.815.095 3.815.095v-.2zM57.954 72.45l2.384-.095-2.384-.095v.2zm10.013.9l-1.955.095 1.955.095v-.2zm0-1.102l2.146-.095-2.146-.095v.2zm10.253-.19l-2.24.095 2.24.095v-.2zM67.872 70.15l3.385-.096-3.385-.144v.24zm19.598-1.58l-2.527.095 2.527.095v-.2zm-9.3 1.197l2.146-.095-2.146-.095v.2zm.05-2.97l2.3-.095-2.3-.095v.2zm9.392-4.55c-.524 0-1.812.095-1.812.095l1.812.095v-.2zm-9.346-.958c-.2 0-.668.095-.668.095a5.4 5.4 0 0 0 .668.095v-.2zm-.046 1.483c.477 0 1.812-.095 1.812-.095l-1.812-.095v.2zm-.05 2.35l-2.956.095 2.956.095v-.2zM67.824 66.7c.477 0 1.764-.095 1.764-.095l-1.764-.095v.2zm-9.87 3.354c.524 0 1.907-.095 1.907-.095l-1.907-.095v.2zm9.87-1.39l-3.147.095 3.147.095v-.2zm-9.966-2.06c.38 0 1.43-.095 1.43-.095l-1.43-.095v.2zm-.095-1.102l2.003-.095-2.003-.095v.2zm9.967-.287l-3.147.095 3.147.095v-.2zm-9.967-2.013l2.718-.095-2.718-.095v.2zm9.917-1.15l3.385-.095-3.385-.095v.2zm10.682-5.174l-3.052.095 3.052.095v-.2zm12.015.624l-2.146.095 2.146.095v-.2zm-9.44.956c.524 0 1.907-.095 1.907-.095l-1.907-.095v.2zm.144-1.438l2.956-.095-2.956-.095v.2zm9.345-2.68c-.334 0-1.287.095-1.287.095l1.287.095v-.2zm-9.393-.242l3.147-.095-3.147-.095v.2zm-2.766-.958c-.525 0-1.86.095-1.86.095l1.86.095v-.2zm.048 1.582l-2.718.095 2.718.095v-.2zm-10.872-.624l2.86-.095-2.86-.095v.2zm.096 4.217c.477 0 1.67-.095 1.67-.095l-1.67-.095v.2zm.047.815l3.433-.095-3.433-.095v.2zm-10.06-1.294c.238 0 .858-.095.858-.095l-.858-.095v.2zm.095 1.39l2.813-.095-2.813-.095v.2zM67.5 57.3l-3.004.095 3.004.095v-.2zm-10.07-3.5l2.05-.095-2.05-.095v.2zm10.012.912c-.477 0-1.62.095-1.62.095l1.62.095v-.2zm-.047-1.772l-2.193.095 2.193.095v-.2zm-9.918 1.82l2.9-.095-2.9-.095v.2z"/></g><defs><linearGradient id="H" x1="73.241" y1="28.685" x2="18.802" y2="97.785" xlink:href="#q"><stop stop-color="#dad1c0"/><stop offset=".265" stop-color="#bbbbaf"/><stop offset=".759" stop-color="#859493"/><stop offset="1" stop-color="#708588"/></linearGradient><linearGradient id="I" x1="39.922" y1="64.327" x2="51.058" y2="42.754" xlink:href="#q"><stop stop-color="#fff7cc"/><stop offset="1" stop-color="#fff7cc"/></linearGradient><linearGradient id="J" x1="28.591" y1="59.329" x2="25.491" y2="59.329" xlink:href="#q"><stop stop-color="#dad1c0"/><stop offset=".265" stop-color="#bbbbaf"/><stop offset=".759" stop-color="#859493"/><stop offset="1" stop-color="#708588"/></linearGradient><linearGradient id="K" x1="60.574" y1="57.603" x2="39.757" y2="57.603" xlink:href="#q"><stop stop-color="#f7a01e"/><stop offset=".185" stop-color="#f3991e"/><stop offset=".45" stop-color="#e7861c"/><stop offset=".763" stop-color="#d4671a"/><stop offset="1" stop-color="#c24b18"/></linearGradient><linearGradient id="L" x1="46.539" y1="62.691" x2="53.052" y2="53.042" xlink:href="#q"><stop stop-color="#f7a01e"/><stop offset=".185" stop-color="#f3991e"/><stop offset=".45" stop-color="#e7861c"/><stop offset=".763" stop-color="#d4671a"/><stop offset="1" stop-color="#c24b18"/></linearGradient><linearGradient id="M" x1="57.153" y1="49.541" x2="51.775" y2="55.438" xlink:href="#q"><stop stop-color="#fff"/><stop offset="1"/></linearGradient><linearGradient id="N" x1="57.153" y1="49.541" x2="51.775" y2="55.438" xlink:href="#q"><stop stop-color="#fff7cc"/><stop offset="1" stop-color="#fff7cc"/></linearGradient><linearGradient id="O" x1="5.493" y1="80.742" x2="26.16" y2="80.742" xlink:href="#q"><stop stop-color="#f7a01e"/><stop offset=".185" stop-color="#f3991e"/><stop offset=".45" stop-color="#e7861c"/><stop offset=".763" stop-color="#d4671a"/><stop offset="1" stop-color="#c24b18"/></linearGradient><linearGradient id="P" x1="15.328" y1="80.742" x2="35.995" y2="80.742" xlink:href="#q"><stop stop-color="#f7a01e"/><stop offset=".185" stop-color="#f3991e"/><stop offset=".45" stop-color="#e7861c"/><stop offset=".763" stop-color="#d4671a"/><stop offset="1" stop-color="#c24b18"/></linearGradient><linearGradient id="Q" x1="9.95" y1="73.229" x2="30.616" y2="73.229" xlink:href="#q"><stop stop-color="#f7a01e"/><stop offset=".185" stop-color="#f3991e"/><stop offset=".45" stop-color="#e7861c"/><stop offset=".763" stop-color="#d4671a"/><stop offset="1" stop-color="#c24b18"/></linearGradient><linearGradient id="R" x1="24.99" y1="66.644" x2="33.833" y2="60.856" xlink:href="#q"><stop stop-color="#f7a01e"/><stop offset=".185" stop-color="#f3991e"/><stop offset=".45" stop-color="#e7861c"/><stop offset=".763" stop-color="#d4671a"/><stop offset="1" stop-color="#c24b18"/></linearGradient><linearGradient id="S" x1="33.798" y1="63.982" x2="23.906" y2="67.851" xlink:href="#q"><stop stop-color="#fff"/><stop offset=".089" stop-color="#f3f3f3"/><stop offset=".251" stop-color="#d2d2d2"/><stop offset=".468" stop-color="#9c9c9c"/><stop offset=".733" stop-color="#525252"/><stop offset="1"/></linearGradient><linearGradient id="T" x1="33.798" y1="63.982" x2="23.906" y2="67.851" xlink:href="#q"><stop stop-color="#fff7cc"/><stop offset="1" stop-color="#fff7cc"/></linearGradient><linearGradient id="U" x1="29.983" y1="74.148" x2="38.826" y2="68.361" xlink:href="#q"><stop stop-color="#f7a01e"/><stop offset=".185" stop-color="#f3991e"/><stop offset=".45" stop-color="#e7861c"/><stop offset=".763" stop-color="#d4671a"/><stop offset="1" stop-color="#c24b18"/></linearGradient><linearGradient id="V" x1="38.791" y1="71.487" x2="28.9" y2="75.355" xlink:href="#q"><stop stop-color="#fff"/><stop offset=".089" stop-color="#f3f3f3"/><stop offset=".251" stop-color="#d2d2d2"/><stop offset=".468" stop-color="#9c9c9c"/><stop offset=".733" stop-color="#525252"/><stop offset="1"/></linearGradient><linearGradient id="W" x1="38.791" y1="71.487" x2="28.9" y2="75.355" xlink:href="#q"><stop stop-color="#fff7cc"/><stop offset="1" stop-color="#fff7cc"/></linearGradient><linearGradient id="X" x1="35.636" y1="81.663" x2="44.479" y2="75.876" xlink:href="#q"><stop stop-color="#f7a01e"/><stop offset=".185" stop-color="#f3991e"/><stop offset=".45" stop-color="#e7861c"/><stop offset=".763" stop-color="#d4671a"/><stop offset="1" stop-color="#c24b18"/></linearGradient><linearGradient id="Y" x1="44.444" y1="79.001" x2="34.552" y2="82.87" xlink:href="#q"><stop stop-color="#fff"/><stop offset=".089" stop-color="#f3f3f3"/><stop offset=".251" stop-color="#d2d2d2"/><stop offset=".468" stop-color="#9c9c9c"/><stop offset=".733" stop-color="#525252"/><stop offset="1"/></linearGradient><linearGradient id="Z" x1="44.444" y1="79.001" x2="34.552" y2="82.87" xlink:href="#q"><stop stop-color="#fff7cc"/><stop offset="1" stop-color="#fff7cc"/></linearGradient><linearGradient id="a" x1=".022" y1="88.247" x2="20.689" y2="88.247" xlink:href="#q"><stop stop-color="#f7a01e"/><stop offset=".185" stop-color="#f3991e"/><stop offset=".45" stop-color="#e7861c"/><stop offset=".763" stop-color="#d4671a"/><stop offset="1" stop-color="#c24b18"/></linearGradient><linearGradient id="b" x1="10.139" y1="88.247" x2="30.805" y2="88.247" xlink:href="#q"><stop stop-color="#f7a01e"/><stop offset=".185" stop-color="#f3991e"/><stop offset=".45" stop-color="#e7861c"/><stop offset=".763" stop-color="#d4671a"/><stop offset="1" stop-color="#c24b18"/></linearGradient><linearGradient id="c" x1="19.973" y1="88.247" x2="40.64" y2="88.247" xlink:href="#q"><stop stop-color="#f7a01e"/><stop offset=".185" stop-color="#f3991e"/><stop offset=".45" stop-color="#e7861c"/><stop offset=".763" stop-color="#d4671a"/><stop offset="1" stop-color="#c24b18"/></linearGradient><linearGradient id="d" x1="40.281" y1="89.167" x2="49.124" y2="83.38" xlink:href="#q"><stop stop-color="#f7a01e"/><stop offset=".185" stop-color="#f3991e"/><stop offset=".45" stop-color="#e7861c"/><stop offset=".763" stop-color="#d4671a"/><stop offset="1" stop-color="#c24b18"/></linearGradient><linearGradient id="e" x1="49.089" y1="86.506" x2="39.198" y2="90.375" xlink:href="#q"><stop stop-color="#fff"/><stop offset=".089" stop-color="#f3f3f3"/><stop offset=".251" stop-color="#d2d2d2"/><stop offset=".468" stop-color="#9c9c9c"/><stop offset=".733" stop-color="#525252"/><stop offset="1"/></linearGradient><linearGradient id="f" x1="49.089" y1="86.506" x2="39.198" y2="90.375" xlink:href="#q"><stop stop-color="#fff7cc"/><stop offset="1" stop-color="#fff7cc"/></linearGradient><linearGradient id="g" x1="57" y1="88.144" x2="85.417" y2="88.144" xlink:href="#q"><stop stop-color="#dad1c0"/><stop offset=".837" stop-color="#708588"/></linearGradient><linearGradient id="h" x1="58.843" y1="91.825" x2="57.702" y2="89.74" xlink:href="#q"><stop stop-color="#56b4a6"/><stop offset="1" stop-color="#0c656f"/></linearGradient><linearGradient id="i" x1="83.23" y1="91.825" x2="82.089" y2="89.74" xlink:href="#q"><stop stop-color="#56b4a6"/><stop offset="1" stop-color="#0c656f"/></linearGradient><linearGradient id="j" x1="58.799" y1="85.716" x2="62.969" y2="90.033" xlink:href="#q"><stop stop-color="#fff"/><stop offset="1"/></linearGradient><linearGradient id="k" x1="58.799" y1="85.716" x2="62.969" y2="90.033" xlink:href="#q"><stop stop-color="#fff7cc"/><stop offset="1" stop-color="#fff7cc"/></linearGradient><linearGradient id="l" x1="84.988" y1="86.764" x2="82.722" y2="88.963" xlink:href="#q"><stop stop-color="#fff"/><stop offset="1"/></linearGradient><linearGradient id="m" x1="84.988" y1="86.764" x2="82.722" y2="88.963" xlink:href="#q"><stop stop-color="#fff7cc"/><stop offset="1" stop-color="#fff7cc"/></linearGradient><path id="n" d="M48.34 47.993c.13 1.407.386 2.878.708 4.286 1.608-.256 3.28.128 4.567 1.023 1.287.96 2.06 2.56 2.316 4.158l4.053.128c.13-2.815-1.158-5.82-3.345-7.612-2.25-1.727-5.532-2.75-8.298-1.983z"/><path id="o" d="M17.354 76.97l5.017.24 2.184 7.276-1.77-7.157 11.156-.18 2.066 7.336-1.948-7.694-11.57.06-5.135.12z"/><path id="p" d="M58.383 89.987h.715c.525 0 .954.335.954.862 0 .575-.43 1.15-.954 1.15h-.715c-.525 0-1-.383-1-.958 0-.527.477-1.054 1-1.054z"/><linearGradient id="q" gradientUnits="userSpaceOnUse"/></defs></svg>