<svg xmlns="http://www.w3.org/2000/svg" xmlns:xlink="http://www.w3.org/1999/xlink" width="165" height="92" fill="none" xmlns:v="https://vecta.io/nano"><style><![CDATA[.B{fill-rule:evenodd}.C{fill:#000}.D{opacity:.2}.E{fill:#ffdecc}.F{fill:#fff}.G{opacity:.05}.H{opacity:.1}.I{fill:#343434}.J{fill:#ededed}.K{fill:#605343}.L{fill:#c93838}.M{fill:#268085}.N{fill:#80604a}.O{fill:#755a48}]]></style><g class="B"><use xlink:href="#B" class="E"/><use xlink:href="#B" fill="#333"/><g fill="#f6c89d"><path d="M61.517 27.685v8.604c2.074 2.458 5.445 2.53 7.518 0v-8.604c0-4.646-7.518-4.646-7.518 0z"/><use xlink:href="#C"/><use xlink:href="#D"/></g><use xlink:href="#E" class="F"/></g><use xlink:href="#F" class="C D"/><path d="M65.286 12.25c-11.557 0-7.122 15.87-6.383 17.1.83 1.338 4.508 4.302 6.383 4.302s5.535-2.964 6.383-4.302c.757-1.23 5.174-17.1-6.383-17.1z" fill="#f6c89d" class="B"/><path d="M73.49 23.13c.595-2.946.216-9.833-2.073-9.598-2.127-2.17-9.556-2.567-11.593-.235-4.652.904-2.488 9.87-2.488 9.87a17.35 17.35 0 0 0 .559 2.35l.938-.054c-.343-.614-.613-1.247-.72-1.717-.054-.27-.198-1.23-.18-1.446.072-1.61 1.226-6.31 3.227-6.688.775-.145 2.74 1.627 4.02 1.61 1.352-.036 3.03-1.808 3.912-1.7 2.09.29 3.858 4.59 3.84 6.688 0 .27-.343 1.862-.847 3l1-.054c.126-.614.288-1.3.397-2.024z" class="N"/><path d="M69.036 33.452l.252 1.265-.865 6.76-3.12-3.308 3.732-4.718z" class="B F"/><g class="C"><path d="M61.517 33.45l3.786 4.718 3.732-4.718v-.108l-3.732 4.682-3.786-4.682v.108z" class="G"/><path d="M64.582 41.315h1.406v.054h-1.424l.018-.054z" class="B H"/></g><path d="M65.574 27.45c-.162 0-.288.235-.288.235s-.126-.235-.288-.235c-.667 0-3.372.27-4.165 1.283l4.057-.127c.216-.054.397-.488.397-.488s.18.416.397.488c.216.054 4.057.127 4.057.127-.793-1.012-3.516-1.265-4.165-1.283z" class="B N"/><use xlink:href="#G" class="B E"/><use xlink:href="#G" class="B L"/><g fill="#f6d1af" class="B"><path d="M30.867 27.685v8.604c2.073 2.458 5.445 2.53 7.518 0v-8.604c0-4.645-7.518-4.645-7.518 0z"/><use xlink:href="#H"/><use xlink:href="#D" x="-30.651"/></g><use xlink:href="#F" x="-30.65" class="C D"/><path d="M34.636 12.248c-11.557 0-7.122 15.87-6.382 17.1.83 1.338 4.507 4.302 6.382 4.302s5.535-2.964 6.383-4.302c.757-1.23 5.175-17.1-6.382-17.1z" fill="#f6d1af" class="B"/><path d="M39.828 12.6c-3.912-3.073-9.934-1.247-11.755 1.32-2.272 3.217-1.48 8.098-.938 11.75v-.018c0 .036.018.072.018.108s.072.11.1.145.162 0 .216-.018c.018 0 .018-.036.018-.054.018-.325 0-.958 0-.976-.036-.506-.144-.994-.234-1.482.36-2.314 1.442-2.802 2.02-5.585l.38-.542c.162-.2.306-.398.505-.578.1-.054.198-.127.288-.2 2.11-.777 4.273.163 6.256.958.757.307.865-1.048 1.713-1.103.36-.036 1.1 1.193 1.388 1.157 2.975-.343 1.73 4.176 2.2 6.272-.072.36-.126.723-.162 1.103 0 0-.018.65 0 .976 0 .018 0 .036.018.054.054.018.18.054.216.018.018-.018.072-.108.1-.145.036-.145.036-.253.054-.398.018-.18.054-.38.072-.58.595-2.24 1.695-11.207-2.452-12.183zm-5.932 3.037c-.072-.018-.126-.036-.198-.054.1.018.198.054.288.072-.018 0-.054-.018-.1-.018z" class="I"/><path d="M33.932 41.314h1.406v.054h-1.424l.018-.054z" class="B C H"/><path d="M36.87 13.694s-3.372-2.35-6.365-1.085c-3.01 1.265-5.643 1.753-6.3.904 0 0-1.857 3.922 1.623 5.965s7.446.416 8.6-.85c1.136-1.265 3.01-3.308 4.02-2.892s-1.57-2.043-1.57-2.043z" class="I"/><g class="B"><use xlink:href="#I" class="E"/><use xlink:href="#I" class="J"/><g fill="#f6c8ac"><path d="M13.74 43.23v8.604c2.073 2.458 5.445 2.53 7.518 0V43.23c0-4.646-7.518-4.646-7.518 0z"/><use xlink:href="#H" x="-17.128" y="15.546"/><path d="M25.314 37.826c-.667-.217-1.497.542-1.875 1.68s-.144 2.26.523 2.476 1.496-.542 1.875-1.68c.36-1.157.126-2.26-.523-2.476z"/></g><path d="M17.525 53.714s-5.247 1.247-5.247 1.573 2 10.665 2 10.665H21.4l.81-10.63-4.688-1.61z" class="I"/><path d="M13.74 50.136v1.7l1.64 14.117h-2.813l-3.083-6.3 2.94-1.97L8.835 56l3.3-5.152 1.605-.723z" fill="#1a1a1a"/><path d="M21.257 50.136v1.7l-1.64 14.117h2.795l3.1-6.3-2.957-1.97L26.16 56l-2.94-5.007-1.965-.868z" fill="#1b1b1b"/><g class="M"><path d="M15.884 55.45l.9 1.4h1.406l.92-1.4-1.605-1.753-1.623 1.753z"/><path d="M16.887 56.533l-1.298 9.092h4.003l-1.298-9.092h-1.406z"/></g><use xlink:href="#E" x="-47.777" y="15.544" class="I"/></g><path d="M13.74 47.406v.27s1.91 2.277 3.75 2.368 3.768-2.205 3.768-2.205v-.416" class="C D"/><g class="B"><path d="M17.507 27.794c-11.557 0-7.122 15.87-6.382 17.1.83 1.338 4.507 4.302 6.382 4.302s5.535-2.964 6.383-4.302c.757-1.23 5.175-17.1-6.383-17.1z" fill="#f6c8ac"/><path d="M21.257 48.996l.252 1.265-.866 6.76-3.12-3.308 3.732-4.718z" class="I"/></g><g class="C"><path d="M13.74 48.997l3.786 4.718 3.732-4.718v-.108l-3.732 4.682-3.786-4.682v.108z" class="G"/><path d="M16.804 56.86H18.2v.054h-1.424l.018-.054z" class="B H"/></g><g class="K"><path d="M25.025 39.543c-.054.217-.126.416-.126.416s-1.046 3.543-1.93 4.627c-1.713 2.115-3.95 3.434-5.48 3.453-1.497 0-3.714-1.193-5.445-3.254-.685-.813-1.947-4.52-1.965-4.826-.018-.18-.054-.38-.1-.56-.234 0-.234 1.573-.234 1.573.343 1.844.595 3.037 1.316 4.05 1.154 1.61 4.38 4.157 6.365 4.157 1.965 0 5.21-2.55 6.365-4.157.72-1.012.92-2.368 1.316-4.266 0-.018.1-1.193-.1-1.21z"/><path d="M21.06 44.28c-.27-.56-2.416-1.32-2.813-1.464s-.667.362-.667.362-.27-.506-.667-.362-2.542.904-2.813 1.464-.397.958-.397 1.338v1.753s.38.018.595-.145.47-.633.47-1.23.433-1.066.956-1.175c.56-.108 1.84-.325 1.84-.67 0 .343 1.37.596 1.84.67.523.1.955.578.955 1.175s.253 1.066.47 1.23.595.145.595.145v-1.753c.036-.38-.108-.76-.36-1.338z" class="B"/></g><path d="M21.185 41.948c.072 0 .126 0 .198-.018 1.875-.163 2.344-1.012 2.56-2.08.234-1.175.252-1.59.56-1.7.216-.072.27-.343.27-.65s-.018-.343-.38-.47c-.288-.108-1.893-.253-3.1-.163v.325c.956-.054 1.857.054 2.128.235.595.398.433 2.278-.1 3.217-.36.65-1.28.976-2.128.994l-.018.307zM17.67 37.5c-.415.018-2.11-.488-3.317-.578-.1 0-.18-.018-.27-.018v.325c.974.036 2 .27 2.344.795.577.868-.45 2.964-1.388 3.434-.288.145-.65.217-1.046.217v.307c1.623 0 2.236-1.175 2.434-1.573.38-.74.306-1.753 1.226-1.753.938 0 .81.994 1.136 1.735.18.398.703 1.627 2.398 1.573v-.29c-.415 0-.81-.072-1.1-.217-.9-.47-1.803-2.567-1.172-3.434.38-.524 1.388-.76 2.362-.795v-.325c-.072 0-.144.018-.216.018-1.1.072-2.416.542-3.4.578zm-3.588-.615c-1.2-.072-2.777.1-3.065.18-.38.127-.38.163-.415.47-.018.307.018.56.234.65.288.108.288.524.45 1.7.144 1.067.56 1.916 2.434 2.06.1 0 .18.018.27.018v-.307c-.865 0-1.82-.325-2.146-.994-.45-.94-.523-2.82.108-3.218.27-.163 1.172-.29 2.1-.253l.018-.307z" class="B M"/><path d="M73.255 31.083c.397-1.32 3.516-2.476 4.778 2.205 1.28 4.664.63 6.3 1.334 7.953S78.4 55.648 74.5 55.6c-4.183-.036-5.102-12.237-4.273-14.714.83-2.495.108-9.833 3.03-9.815zm13.775 0c-.397-1.32-3.516-2.476-4.778 2.205-1.28 4.664-.63 6.3-1.334 7.953s.956 14.406 4.868 14.37c4.183-.036 5.102-12.237 4.273-14.714-.83-2.495-.108-9.833-3.03-9.815z" class="K B"/><g class="L B"><path d="M83.532 50.225c-.072.108-6.42.2-6.473.307-2 2.856-6.292 3.38-9.718 4.14-3.408.76-3.534 5.097-3.552 8H97c0-2.892-.072-7.212-3.552-7.99s-8.023-1.464-9.916-4.447z"/><path d="M83.712 50.514v1.573L82.09 62.68h-3.444L77.04 52.213V50.55c.072-.108 6.42-.2 6.473-.307l.198.27z"/></g><g fill="#f6dcb9" class="B"><path d="M77.06 43.4v8.17c1.66 3.416 4.67 3.507 6.653 0V43.4c0-4.41-6.653-4.41-6.653 0z"/><use xlink:href="#J"/><use xlink:href="#K"/></g><path d="M77.06 47.477v.235s2.09 2.097 3.3 2.097 3.354-2.115 3.354-2.115v-.2H77.06v-.018z" class="B C D"/><use xlink:href="#L" fill="#f6dcb9" class="B"/><path d="M88.58 34.716c-.65-2.567-3.912-6.453-6.978-6.38-.433-.054-.937-.072-1.496-.036a8.07 8.07 0 0 0-1.496.036c-3.065-.072-6.33 3.814-6.978 6.38-.523 2.06-.757 4.085.505 6.2.216.633.487 1.085.74 1.265-.288-1.627-.343-2.784-.234-3.67.234-.343.667-.452 1.424-.145 2.145.904 2.795-.108 4.417-3.507.487-1.048.883-2.278 1.623-2.26.74 0 1.136 1.23 1.623 2.26 1.623 3.398 2.272 4.392 4.417 3.507.757-.307 1.2-.2 1.424.145.108.886.036 2.06-.234 3.67.252-.18.523-.633.74-1.265 1.262-2.115 1.028-4.14.505-6.2z" class="B K"/><path d="M78.664 62.66H75.67l-2.903-2.64 2.957-1.97-3.606-1.7 2.38-3.706.938-1.446 1.605-.723v1.717l1.605 10.466h.018zm6.364-4.717l2.94 1.97-2.903 2.747h-2.957l1.605-10.574v-1.7l1.965.868.865 1.464 2.073 3.525-3.588 1.7z" class="J B"/><use xlink:href="#M" class="B E"/><use xlink:href="#M" fill="#7491a0" class="B"/><g fill="#f6d9c7" class="B"><path d="M45.922 43.954v8.604c2.073 2.458 5.445 2.53 7.518 0v-8.604c0-4.645-7.518-4.645-7.518 0z"/><use xlink:href="#H" x="15.055" y="16.27"/><path d="M57.48 38.55c-.667-.217-1.496.542-1.875 1.68s-.144 2.26.523 2.476 1.496-.542 1.875-1.68c.38-1.157.144-2.26-.523-2.476z"/></g><path d="M48.067 56.172l.9 1.4h1.406l.92-1.4L49.7 54.42l-1.623 1.753zm.903 1.41l-1.298 9.092h4.003l-1.298-9.092H48.97z" class="I B"/><use xlink:href="#E" x="-15.595" y="16.268" class="B J"/><use xlink:href="#F" x="-15.595" y="16.268" class="C D"/><path d="M49.7 28.516c-11.557 0-7.122 15.87-6.382 17.1.83 1.338 4.507 4.302 6.383 4.302s5.535-2.965 6.383-4.302c.74-1.23 5.175-17.1-6.383-17.1z" fill="#f6d9c7" class="B"/><path d="M55.01 28.877c-3.985-3.525-11.79.976-13.612 3.543.74 2.585.38 5.875.92 9.544v-.018c0 .036.018.072.018.108s.072.11.1.145.162 0 .216-.018c.018 0 .018-.036.018-.054.018-.325 0-.958 0-.976-.036-.506.036-1.012-.036-1.518.36-2.314.072-2.404 1.334-4.718.108-.2.775-.976.865-1.048 2.11-.777 2.83.506 4.814 1.32.757.307 1.893.325 2.74.325 1.316 0 2.578-1.446 2.596-1.735 1.57 2.44 1.73 4.176 2.2 6.272-.054.36-.126.723-.162 1.103 0 0-.018.65 0 .976 0 .018 0 .036.018.054.054.018.18.054.216.018a1.01 1.01 0 0 0 .09-.145c.036-.145.036-.253.054-.398.018-.18.054-.38.072-.578.613-2.26 1.713-11.225-2.452-12.2zm-5.914 3.037c-.072-.018-.126-.036-.198-.054.1.018.198.054.288.072-.018 0-.054-.018-.1-.018z" fill="#bf9741"/><path d="M12.098 27.16c4.075-3.525 12.08.976 13.937 3.543-.757 2.585-.38 5.875-.937 9.544v-.018c0 .036-.018.072-.018.108s-.072.108-.1.145-.162 0-.216-.018c-.018 0-.018-.036-.018-.054-.018-.325 0-.958 0-.976.036-.506-.036-1.012.054-1.518-.38-2.314-.072-2.404-1.37-4.718-.108-.2-.793-.976-.902-1.048-2.145-.777-2.903.506-4.94 1.32-.775.307-1.947.325-2.813.325-1.334 0-2.632-1.446-2.668-1.735-1.605 2.44-1.767 4.176-2.254 6.272.072.36.126.723.162 1.103 0 0 .018.65 0 .976 0 .018 0 .036-.018.054-.054.018-.198.054-.216.018a1.01 1.01 0 0 1-.09-.145c-.036-.145-.036-.253-.054-.398a7.6 7.6 0 0 0-.09-.578c-.595-2.26-1.73-11.225 2.542-12.2zm6.058 3.02c.072-.018.126-.036.198-.054-.1.018-.198.054-.288.072.018 0 .054 0 .1-.018z" class="K"/><path d="M53.44 49.72l.252 1.265-.865 6.76-3.137-3.308 3.75-4.718z" class="B J"/><g class="C"><path d="M45.922 49.72l3.768 4.718 3.75-4.718V49.6l-3.75 4.682-3.768-4.682v.108z" class="G"/><path d="M48.97 57.583h1.406l.018.054H48.97v-.054z" class="B H"/></g><path d="M70.118 52.467c.81-1.428 7.356-2.693 10.007 2.386 2.668 5.08 1.316 6.85 2.795 8.64s.1 5.893-.937 6.254-.613 1.8-.108 2.386c2.127 2.603-.956 6.995-9.16 6.96-8.78-.054-10.493-5.152-8.24-6.76.74-.524 1-1.518.216-2.404-.81-.886-2.65-4.157-.9-6.85 1.75-2.64.216-10.6 6.328-10.6z" fill="#806049" class="B"/><path d="M76.32 73.362c-.072.108-6.42.2-6.473.307-2 2.856-6.292 4.103-9.718 4.862-3.408.76-3.534 5.097-3.552 8h33.21c0-2.892-.072-7.212-3.552-8s-8.023-2.187-9.916-5.17z" class="B M"/><g fill="#f5d5c1" class="B"><path d="M69.848 67.27v8.17c1.66 3.416 4.67 3.507 6.653 0v-8.17c0-4.41-6.653-4.41-6.653 0z"/><use xlink:href="#J" x="-7.212" y="23.861"/><use xlink:href="#K" x="-7.212" y="23.861"/></g><path d="M69.848 71.337v.235s2.09 2.097 3.3 2.097 3.353-2.115 3.353-2.115v-.2h-6.653v-.018z" class="B C D"/><use xlink:href="#L" x="-7.212" y="23.861" fill="#f5d5c1" class="B"/><path d="M71.632 58.72c-1.623 3.398-2.272 4.392-4.417 3.507-2.145-.904-1.73 1.61-1.352 3.398-1.893-2.422-1.677-4.718-1.082-7.05.65-2.567 3.912-6.453 6.977-6.38 1.66-.18 4.183.036 6.87 1.97 4.688 3.38 3.12 11 1.857 11.876 1.226-7.032-1.767-5.604-3.84-9.29-.667-1.61-3.263-1.717-5.012 1.97z" class="B N"/><g class="F"><path d="M73.435 78.08h-.685v8.44h.685v-8.44z"/><g class="B"><path d="M69.848 73.67l-2.38 2.17 3.03 4.7 2.596-2.476-3.245-4.392z"/><path d="M76.5 73.65l2.38 2.26-3.173 4.627-2.614-2.476 3.408-4.41z"/></g></g><path d="M76.79 67.18c.072 0 .126 0 .198-.018 1.893-.163 2.362-1.012 2.56-2.08.234-1.175.252-1.59.56-1.7.216-.072.27-.344.27-.65s-.018-.343-.38-.47c-.288-.11-1.91-.253-3.12-.18v.325c.956-.054 1.875.054 2.145.235.613.398.433 2.296-.1 3.236-.36.65-1.298.994-2.145.994v.307zm-3.534-4.465c-.415.018-2.127-.488-3.335-.596-.1 0-.18-.018-.27-.018v.325c.992.036 2 .27 2.362.795.577.868-.45 2.983-1.388 3.453-.288.145-.65.217-1.046.217v.307c1.64 0 2.236-1.175 2.434-1.573.38-.74.306-1.77 1.244-1.77s.81.994 1.154 1.735c.18.398.703 1.627 2.398 1.573v-.307c-.415 0-.81-.072-1.1-.217-.9-.47-1.803-2.585-1.172-3.452.38-.524 1.388-.76 2.362-.813v-.325c-.072 0-.144.018-.216.018-1.118.145-2.434.615-3.426.65zm-3.588-.615c-1.2-.072-2.777.1-3.083.18-.38.127-.397.163-.415.47s.018.578.234.65c.306.108.288.524.45 1.7.144 1.067.56 1.916 2.434 2.08.1 0 .18.018.288.018v-.307c-.865 0-1.82-.325-2.146-.994-.45-.94-.523-2.838.108-3.236.27-.163 1.172-.29 2.1-.253l.018-.307z" class="B M"/><path d="M69.848 73.67l3.245 4.392 3.408-4.41v-.1l-3.408 4.374-3.245-4.374v.108z" class="B C G"/><use xlink:href="#N" class="B E"/><use xlink:href="#N" fill="#333" class="B"/><g fill="#ffdbba" class="B"><path d="M26.107 64.65v8.604c2.073 2.458 5.445 2.53 7.518 0V64.65c0-4.645-7.518-4.645-7.518 0z"/><use xlink:href="#C" x="-35.411" y="36.965"/><path d="M37.664 59.245c-.667-.217-1.496.542-1.875 1.68s-.144 2.26.523 2.476 1.497-.542 1.875-1.68c.38-1.157.144-2.26-.523-2.476z"/></g><path d="M29.875 75.116s-5.247 1.247-5.247 1.573 2 10.665 2 10.665h7.122l.81-10.63-4.688-1.61z" class="B F"/><path d="M26.107 71.537v1.717L27.73 87.37h-2.795l-3.1-6.3 2.957-1.97-3.606-1.7 3.317-5.152 1.605-.723zm7.518.018v1.7l-1.66 14.117h2.813l3.083-6.3-2.94-1.97 3.606-1.7-2.957-5-1.947-.868z" fill="#605f5b" class="B"/><g class="L B"><path d="M28.252 76.87l.9 1.4h1.406l.92-1.4-1.605-1.753-1.623 1.753z"/><path d="M29.154 78.28l-1.298 9.092h4.003L30.56 78.28h-1.406z"/></g><use xlink:href="#E" x="-35.41" y="36.964" class="B J"/><use xlink:href="#F" x="-35.41" y="36.948" class="C D"/><g class="B"><path d="M35.825 49.864c1.713.27 2.668 1.464 3.083 3.055 1.064 4.176-1.154 13.232-8.835 13.34-3.966.054-6.815-.958-7.86-4.175s-1.46-8.387.793-11.297c2.83-3.65 8.8-3.67 12.82-.922z" class="O"/><path d="M29.875 49.212c-11.557 0-7.122 15.87-6.382 17.1.83 1.338 4.507 4.302 6.383 4.302s5.535-2.965 6.382-4.302c.74-1.23 5.175-17.1-6.382-17.1z" fill="#ffdbba"/><path d="M24.268 54.2c2.055 1.247 3.66-.615 5.517.18s6.887-3.055 7.987 5.423c1.767-6.146-.9-10.556-7.61-10.846-7.158-.307-10.06 6.236-8.077 12.346-.144-3.308.667-5.477 2.182-7.104z" class="O"/></g><path d="M24.088 53.642c.054 1.066 1.857 1.23 2.614 1.283.72.054 1.424-.072 2.11-.27.847-.235 1.91-.542 2.596-1.12.072-.054.036-.18-.054-.2-1.298-.217-2.65.85-3.948.976-1.028.1-2.38-.054-3.19-.74-.036-.018-.126 0-.126.072z" class="O"/><g class="B"><path d="M33.445 64c.072 0 .126 0 .198-.018 1.875-.163 2.344-1.012 2.56-2.08.234-1.175.252-1.59.56-1.7.216-.072.27-.343.27-.65s-.018-.343-.38-.47c-.288-.108-1.893-.253-3.1-.163v.325c.956-.054 1.857.054 2.127.235.595.398.433 2.277-.1 3.217-.36.65-1.28.976-2.127.994l-.018.307zm-3.516-4.447c-.415.018-2.11-.488-3.317-.578-.1 0-.18-.018-.27-.018v.325c.974.036 2 .27 2.344.795.577.868-.45 2.964-1.388 3.434-.29.145-.65.217-1.046.217v.307c1.623 0 2.236-1.175 2.434-1.573.38-.74.306-1.753 1.226-1.753.938 0 .81.994 1.136 1.735.18.398.703 1.627 2.398 1.573v-.29c-.415 0-.81-.072-1.1-.217-.902-.47-1.803-2.567-1.172-3.434.38-.524 1.388-.76 2.362-.795v-.325c-.072 0-.144.018-.216.018-1.1.072-2.416.542-3.4.578zm-3.588-.615c-1.2-.072-2.777.1-3.065.18-.38.127-.38.163-.415.47-.018.307.018.56.234.65.288.108.288.524.45 1.7.144 1.067.56 1.916 2.434 2.06.1 0 .18.018.27.018V63.7c-.866 0-1.82-.325-2.146-.994-.45-.94-.523-2.82.108-3.218.27-.163 1.172-.29 2.1-.253l.018-.307z" class="L"/><path d="M33.625 70.416l.252 1.265-.865 6.76-3.137-3.308 3.75-4.718z" class="J"/></g><g class="C"><path d="M26.107 70.416l3.768 4.7 3.75-4.7V70.3l-3.75 4.7-3.768-4.7v.127z" class="G"/><path d="M29.154 78.28h1.406l.018.054h-1.424v-.054z" class="B H"/></g><use xlink:href="#G" x="14.496" y="41.594" class="B E"/><use xlink:href="#G" x="14.496" y="41.594" fill="#333" class="B"/><path d="M45.363 69.26v8.604c2.073 2.458 5.445 2.53 7.518 0V69.26c0-4.627-7.518-4.627-7.518 0zm-4.075-5.404c.667-.217 1.496.542 1.875 1.68s.144 2.26-.523 2.476-1.497-.542-1.875-1.68c-.36-1.14-.126-2.26.523-2.476zm15.65 0c-.667-.217-1.496.542-1.875 1.68s-.144 2.26.523 2.476 1.496-.542 1.875-1.68c.36-1.14.126-2.26-.523-2.476z" fill="#f6c5a0" class="B"/><path d="M49.15 79.745s-5.247 1.247-5.247 1.573 2 10.665 2 10.665h7.122l.81-10.63-4.688-1.61z" fill="#9fbac4" class="B"/><path d="M45.363 76.166v1.7l1.64 14.117H44.19l-3.083-6.3 2.957-1.97-3.606-1.68 3.3-5.152 1.605-.723z" fill="#1a1a1a" class="B"/><path d="M52.88 76.166v1.7l-1.64 14.117h2.813l3.083-6.3-2.957-1.97 3.606-1.68-2.94-4.99-1.965-.886z" fill="#1b1b1b" class="B"/><path d="M47.508 81.48l.9 1.4h1.406l.9-1.4-1.605-1.753-1.605 1.753zm.92 1.428l-1.298 9.074h4.003l-1.298-9.074H48.43z" fill="#28a8e3" class="B"/><path d="M45.363 75.027L45.04 76.3l.92 6.67 3.19-3.236-3.786-4.718z" class="B F"/><use xlink:href="#F" x="-16.154" y="41.577" class="C D"/><path d="M49.132 53.825c-11.557 0-7.122 15.87-6.382 17.1.83 1.338 4.507 4.302 6.383 4.302s5.535-2.965 6.383-4.302c.757-1.21 5.175-17.1-6.382-17.1z" fill="#f6c5a0" class="B"/><path d="M54.324 54.204c-3.913-3.073-9.934-1.247-11.755 1.32-2.272 3.217-1.48 8.098-.938 11.75v-.018c0 .036.018.072.018.11s.072.108.1.145.162 0 .216-.018c.018 0 .018-.036.018-.054.018-.325 0-.958 0-.976-.036-.506-.144-.994-.234-1.482.36-2.314 1.442-2.802 2.02-5.585l.38-.542c.162-.2.306-.398.505-.578.1-.054.198-.127.288-.2 2.1-.777 4.273.163 6.256.958.757.307 1.605.67 2.452.615.36-.036.63-.27.667-.56.956 2.856 1.73 4.176 2.2 6.272a10.83 10.83 0 0 0-.162 1.103s-.018.65 0 .976c0 .018 0 .036.018.054.054.018.18.054.216.018.018-.018.072-.11.1-.145.036-.145.036-.253.054-.398.018-.18.054-.38.072-.578.577-2.24 1.695-11.225-2.47-12.183zm-5.914 3.02c-.072-.018-.126-.036-.198-.054.1.018.198.054.29.072-.036 0-.072 0-.1-.018z" class="K"/><path d="M52.88 75.027l.252 1.265-.865 6.76-3.137-3.308 3.75-4.718z" class="B F"/><g class="C"><path d="M45.363 75.027l3.786 4.718 3.732-4.718v-.108L49.15 79.6l-3.786-4.682v.108z" class="G"/><path d="M48.428 82.908h1.406v.036H48.4l.018-.036z" class="B H"/></g><defs ><path id="B" d="M61.788 34.463c-7.735 3.398-10.06 5.206-10.98 6.037-1.406 1.247-2.2 5.93-3.03 9.905h35.014c-.83-3.977-1.623-8.64-3.03-9.905-.92-.813-3.155-2.585-10.9-5.983l-7.086-.054z"/><path id="C" d="M57.443 22.28c.667-.217 1.497.542 1.875 1.68s.144 2.26-.523 2.476-1.496-.542-1.875-1.68c-.38-1.157-.144-2.26.523-2.476z"/><path id="D" d="M73.093 22.28c-.667-.217-1.496.542-1.875 1.68s-.144 2.26.523 2.476 1.496-.542 1.875-1.68c.36-1.157.126-2.26-.523-2.476z"/><path id="E" d="M61.517 33.452l-.325 1.283.92 6.67 3.19-3.236-3.786-4.718z"/><path id="F" d="M61.517 31.86v.27s1.91 2.278 3.75 2.368 3.768-2.205 3.768-2.205v-.416"/><path id="G" d="M31.137 34.463c-7.735 3.398-10.06 5.206-10.98 6.037-1.406 1.247-2.2 5.93-3.03 9.906h35.014c-.83-3.977-1.623-8.64-3.03-9.906-.92-.813-3.155-2.585-10.9-5.983l-7.086-.054z"/><path id="H" d="M26.792 22.28c.667-.217 1.496.542 1.875 1.68s.144 2.26-.523 2.476-1.496-.542-1.875-1.68c-.38-1.157-.144-2.26.523-2.476z"/><path id="I" d="M14.01 50c-7.735 3.398-10.06 5.206-10.98 6.037-1.406 1.247-2.2 5.93-3.03 9.906h35.014c-.83-3.977-1.623-8.64-3.03-9.906-.92-.813-3.155-2.585-10.9-5.983L14.01 50z"/><path id="J" d="M89.175 39.596c-.667-.307-1.605.434-2.09 1.645s-.36 2.44.306 2.73c.667.307 1.605-.434 2.09-1.645.487-1.193.343-2.422-.306-2.73z"/><path id="K" d="M71.614 39.596c.667-.307 1.605.434 2.09 1.645s.36 2.44-.306 2.73c-.667.307-1.605-.434-2.09-1.645-.487-1.193-.36-2.422.306-2.73z"/><path id="L" d="M80.395 49.067c-2.073 0-6.437-3.416-7.79-8.315-1.37-4.935 1.208-12.02 7.79-12.02s9.14 7.086 7.79 12.02c-1.352 4.898-5.715 8.315-7.79 8.315z"/><path id="M" d="M46.174 50.73c-7.735 3.416-10.06 5.224-10.98 6.037-1.406 1.247-2.2 5.93-3.03 9.906H67.18c-.83-3.977-1.623-8.64-3.03-9.906-.92-.813-3.155-2.585-10.9-5.983l-7.086-.054z"/><path id="N" d="M26.36 71.428c-7.735 3.398-10.06 5.224-10.98 6.037-1.406 1.247-2.2 5.93-3.03 9.906h35.014c-.83-3.977-1.623-8.64-3.03-9.906-.92-.813-3.155-2.585-10.9-5.983l-7.086-.054z"/></defs></svg>