<svg width="48" height="48" viewBox="0 0 48 48" fill="none" xmlns="http://www.w3.org/2000/svg">
<rect width="48" height="48" fill="#F2F2F2"/>
<path d="M24 0V3.87879H44.1212V44.1212H24V48H48V0H24Z" fill="#C70024"/>
<path d="M3.87879 44.1212V3.87879H24V0H0V48H24V44.1212H3.87879Z" fill="#FF0C38"/>
<path d="M12.5611 34.2222C16.3483 34.6443 20.1816 34.6471 23.9985 34.6443C27.8168 34.6471 31.6503 34.6443 35.4362 34.2222C37.0357 34.0437 38.3642 32.8442 38.7387 31.22C39.2712 28.9076 39.2728 26.3812 39.2728 23.9994C39.2728 21.6177 39.2775 19.0925 38.7447 16.78C38.3706 15.1542 37.042 13.9565 35.4422 13.7779C31.6549 13.3547 27.8212 13.353 24.0048 13.3547C20.1879 13.3531 16.353 13.3547 12.5654 13.7779C10.9676 13.9565 9.63852 15.1542 9.26606 16.78C8.7336 19.0926 8.72729 21.6177 8.72729 23.9995C8.72729 26.3813 8.7273 28.9076 9.26014 31.2201C9.6326 32.8443 10.9613 34.0437 12.5611 34.2222ZM20.0587 18.6401C23.295 20.3289 26.5111 22.0056 29.769 23.7055C26.5206 25.3897 23.3041 27.0584 20.0587 28.7413V18.6401Z" fill="#FF0C38"/>
</svg>
