<svg width="48" height="48" viewBox="0 0 48 48" fill="none" xmlns="http://www.w3.org/2000/svg">
<path fill-rule="evenodd" clip-rule="evenodd" d="M0 0V48H48V0H0ZM40.0344 31.8552C39.6271 33.6223 38.1816 34.927 36.4416 35.1213C32.3227 35.5806 28.1524 35.5836 23.9983 35.5806C19.8459 35.5836 15.6756 35.5806 11.5554 35.1213C9.815 34.9271 8.36962 33.6223 7.96441 31.8552C7.38462 29.3395 7.38462 26.591 7.38462 23.9999C7.38462 21.4087 7.39147 18.6616 7.97074 16.1458C8.37595 14.3771 9.82186 13.074 11.5601 12.8798C15.6807 12.4193 19.8528 12.4175 24.0052 12.4193C28.1571 12.4177 32.3278 12.4193 36.448 12.8798C38.1885 13.074 39.6339 14.3771 40.0409 16.1458C40.6206 18.6616 40.6154 21.4087 40.6154 23.9999C40.6154 26.591 40.6137 29.3395 40.0344 31.8552Z" fill="#828282"/>
<path fill-rule="evenodd" clip-rule="evenodd" d="M19.7122 29.1582C23.2428 27.3273 26.7422 25.5118 30.2762 23.6797C26.7319 21.8303 23.233 20.0062 19.7122 18.1689V29.1582Z" fill="#828282"/>
</svg>
