<svg xmlns="http://www.w3.org/2000/svg" width="67" height="20" fill="none" xmlns:v="https://vecta.io/nano"><g clip-path="url(#A)"><path d="M8.375 0H0v20h8.375V0z" fill="#fff"/><path d="M8.375 10H0L8.375 0h8.376L8.375 10z" fill="#ff513f"/><path d="M8.375 10H0l8.375 10h8.376L8.375 10z" fill="#ffc856"/><path d="M25.124 10H16.75l8.375 10H33.5l-8.376-10z" fill="#007550"/><path d="M25.124 0L16.75 10h8.375L33.5 0h-8.376z" fill="#fff"/><path d="M41.875 10H33.5l8.375 10h8.376l-8.376-10z" fill="#ff513f"/><path d="M41.875 0L33.5 10h8.375L50.25 0h-8.376z" fill="#ffc856"/><path d="M54.437 0h-8.375v20h8.375V0z" fill="#fff"/><path d="M62.813 15L67 10 58.625 0H50.25l12.563 15z" fill="#ff513f"/><path d="M58.625 10H67l-8.375 10H50.25l8.375-10z" fill="#007550"/></g><defs><clipPath id="A"><path fill="#fff" d="M0 0h67v20H0z"/></clipPath></defs></svg>