<svg xmlns="http://www.w3.org/2000/svg" width="360" height="304" fill="none" xmlns:v="https://vecta.io/nano"><style><![CDATA[.B{fill:#150035}.C{fill:#ffc856}.D{fill:#16110d}.E{fill:#001e20}.F{fill:#ff513f}]]></style><g fill="#007550"><path d="M0 0h360v304H0z"/><path d="M0 0h360v66.5L145.386 239.522 0 0l94 43L0 59.5v180.022L360 304H0l360-58L323 0H0z" style="mix-blend-mode:screen" opacity=".1"/></g><path d="M152.155 118.275l-10.317.065.158-4.315c.043-1.164-2.285-1.656-3.943-.84l-8.242 4.085c-.656.33-1.514.467-2.282.372l-5.83-.68.13-2.14c0-.382-2.938-2.18-3.25-2.366-.275-.166-3.27-.7-3.8-.807-.048-.01-.084.036-.078.066l-.1 6.296.008.01c-.022.176.005.343.1.523l2.575 4.204-6.288 1.91c-.03.01-.044.038-.05.077l-.094 6.326c-.018.744.99 1.347 2.48 1.23l10.213-.862c.82-.07 1.59.094 2.05.433l5.818 4.266c1.173.864 3.78.425 4.405-.73l3.122-5.752c.247-.452.862-.852 1.65-1.05l9.77-2.465c1.103-.275 1.694-.863 1.748-1.43l.118-6.364c-.006-.03-.03-.06-.07-.06z" class="C"/><path d="M151.884 125.88c-.333.282-.8.53-1.454.694l-9.77 2.466c-.625.164-1.15.47-1.33.796l-3.122 5.75c-.312.578-.986 1.044-1.876 1.278-1.2.33-2.465.18-3.206-.355l-5.818-4.267c-.39-.278-1.054-.41-1.753-.354l-10.213.862c-1.04.082-1.938-.145-2.476-.644-.3-.275-.46-.633-.452-1.005l.1-6.678.408-.172 5.68-1.725-2.264-3.703a1.1 1.1 0 0 1-.156-.475l-.015-.265.108-6.512.205-.208a.55.55 0 0 1 .451-.122l3.94.86.11.063c3.33 2.054 3.32 2.358 3.32 2.652l-.103 1.77 5.443.63c.68.082 1.438-.04 2-.332l8.234-4.096c1.194-.596 2.838-.617 3.81-.035.505.3.783.742.768 1.24l-.152 3.894 9.9-.05c.267-.001.477.202.473.467l-.12 6.364c-.03.39-.227.834-.672 1.21zm-12.865 3.005c.378-.32.875-.567 1.477-.713l9.77-2.465c.9-.224 1.343-.67 1.364-.982l.118-5.982-10.396.063.183-4.736c.01-.235-.203-.418-.378-.513-.643-.375-1.917-.458-2.942.046l-8.242 4.085a4.75 4.75 0 0 1-2.556.431l-6.223-.714.03-.39.125-2.014c-.12-.14-.67-.63-2.936-2.04l-.12-.073c-.187-.084-1.466-.354-3.157-.657l-.1 5.542.03.01-.02.293c-.004.108.005.187.046.257l2.874 4.713-.607.185-5.99 1.812-.083 6.022c-.004.176.108.308.196.39.273.254.903.502 1.832.426l10.214-.863c.93-.076 1.794.11 2.344.512l5.82 4.267c.533.38 1.538.484 2.46.24.605-.165 1.067-.453 1.248-.78l3.122-5.75c.12-.24.275-.44.486-.62z" class="B"/><path d="M118.015 110.173l9.64 1.117c.77.095 1.618-.052 2.283-.372l8.242-4.086c1.658-.815 3.986-.323 3.943.84l-.22 5.793c-.01.46.37.865 1.034 1.084l8.288 2.697c1.668.547 1.236 2.04-.727 2.542l-9.77 2.465c-.787.198-1.39.59-1.65 1.05l-3.123 5.752c-.625 1.155-3.232 1.594-4.405.73l-5.82-4.267c-.46-.34-1.23-.503-2.05-.433l-10.214.863c-2.05.174-3.232-1.062-1.982-2.087l6.18-5.098c.497-.404.63-.9.39-1.32l-3.193-5.225c-.67-1.08 1.216-2.28 3.153-2.047z" fill="#fff"/><g class="B"><path d="M152.03 119.48c-.367.3-.875.568-1.488.723l-9.77 2.466c-.633.154-1.15.47-1.33.796l-3.122 5.752c-.313.577-.986 1.044-1.877 1.278-1.2.33-2.465.18-3.205-.356l-5.82-4.267c-.4-.278-1.063-.418-1.753-.354l-10.215.863c-1.428.117-2.6-.374-2.885-1.217-.194-.565.065-1.183.62-1.654l6.18-5.098c.222-.188.424-.446.263-.725l-3.194-5.225c-.276-.46-.247-1 .093-1.467.6-.88 2.152-1.425 3.574-1.258l9.64 1.116c.68.082 1.438-.04 2-.332l8.243-4.086c1.195-.596 2.838-.618 3.8-.035.505.3.783.742.767 1.24l-.22 5.793c-.005.264.288.52.75.682l8.287 2.697c.9.295 1.387.9 1.295 1.592-.04.38-.276.755-.654 1.075zm-12.88 3.035c.378-.32.895-.567 1.488-.723l9.77-2.466c.9-.223 1.343-.67 1.372-.97.036-.273-.246-.538-.757-.712l-8.287-2.696c-.844-.275-1.335-.83-1.3-1.486l.222-5.793c.01-.234-.194-.408-.378-.512-.643-.375-1.918-.458-2.942.045l-8.243 4.086a4.77 4.77 0 0 1-2.557.43l-9.64-1.116c-1.188-.14-2.294.313-2.658.83-.122.172-.142.328-.036.5l3.194 5.225c.376.6.16 1.357-.506 1.903l-6.18 5.097c-.255.217-.373.438-.3.627.135.406.888.775 2.027.677l10.215-.863c.92-.086 1.794.1 2.345.512l5.82 4.267c.533.38 1.538.484 2.45.232.604-.166 1.078-.463 1.248-.78l3.122-5.752a3.39 3.39 0 0 1 .518-.56zm-2.095-2.268l-1.163.743c-.432.278-1.15.332-1.577.122l-4.444-2.2c-.63-.315-1.6-.828-1.695-.176l-.08.605c-.054.34-.576.626-1.16.635l-1.02.014c-.592-.001-1-.28-.937-.6l.524-2.733c.03-.146.136-.3.33-.4l1.378-.872c.43-.28 1.15-.333 1.576-.122l8.314 4.104c.396.22.385.6-.047.9z"/><path d="M137.37 120.414c-.045.037-.1.085-.153.112l-1.164.743c-.548.343-1.387.412-1.915.15l-4.566-2.252c-.27-.137-.927-.463-1.103-.4l-.06.605c-.068.526-.745.943-1.537.955l-1.02.014c-.483-.007-.878-.158-1.092-.4a.68.68 0 0 1-.143-.573l.525-2.733c.04-.243.22-.482.5-.648l1.378-.873c.55-.343 1.387-.412 1.916-.15l8.314 4.105c.317.148.5.418.482.702 0 .225-.13.455-.362.653zm-.475-.447c.117-.065.155-.132.16-.17-.006-.03-.037-.1-.16-.143l-8.314-4.104c-.325-.158-.903-.12-1.237.094l-1.378.873c-.1.074-.156.13-.15.16l-.524 2.733c.1.14.324.246.63.247l1.02-.014c.485-.013.8-.237.8-.315l.08-.604a.7.7 0 0 1 .358-.546c.426-.24.997.005 1.75.374l4.557 2.242c.325.158.903.12 1.237-.094l1.172-.733zm-12.567 5.233l-.102 6.384.947-.07.103-6.384-.948.07zm8.357 5l-.102 6.384.947-.07.103-6.385-.948.07zm6.945-7.84l-.103 6.385.948-.07.103-6.385-.948.07zm-26.454 3.735l-.103 6.384.948-.07.103-6.384-.948.07zm35.434-6.13l-.103 6.385.948-.07.103-6.384-.948.07zM137.284 138.6a6.95 6.95 0 0 1-2.776 1.433c-1.798.447-3.6.1-4.978-.936l-3.23-2.453c-1.647-1.242-3.753-1.766-5.918-1.458l-5.237.74-.042-.883 5.236-.74c2.406-.338 4.744.233 6.57 1.618l3.23 2.453c1.17.883 2.713 1.172 4.234.803a5.87 5.87 0 0 0 3.65-2.745l1.44-2.488.8.4-1.44 2.488c-.412.66-.927 1.27-1.527 1.78zm12.306-24.7l-3.344-.996c-1.273-.376-2.07-1.538-1.98-2.894l.2-2.908c.08-1.2-.45-2.304-1.442-2.935-.974-.63-2.248-.693-3.4-.176l-7.467 3.38-.32-.803 7.466-3.38c1.447-.655 3.045-.57 4.264.215 1.23.796 1.9 2.16 1.8 3.67l-.202 2.908a1.98 1.98 0 0 0 1.409 2.063l3.343.996-.32.86zm-35.976 22.28c-2.155.248-3.63-1.085-3.693-1.136l.653-.7c.01.01 1.276 1.12 3.02.926l.02.9zm41.6-15.502l-.9.105-.098-3.932c-.025-.792-.48-1.462-1.2-1.75l-1.6-.652.414-.835 1.6.65c1.02.416 1.656 1.366 1.688 2.482l.098 3.932z"/></g><path d="M110.875 51.645c5.152-7.824 10.59-3.777 11.734-2.968 0 0 .286 0 .286-.27 1.145-2.158 6.583-12.14 11.735-9.982l8.586 4.317v.27l-6 9.712-8.014 20.503 2.3.81v4.317c0 .27-.287.27-.287.27l-8.3-4.586-10.59-7.824s-7.728-4.586-1.43-14.568z" fill="#fff"/><path d="M131.197 79.702c.286 0 .572 0 .572-.27.286-.27.572-.54.572-1.08v-5.126l-1.717-.54 7.44-19.424 6.297-9.982v-.54c0-.27-.286-.54-.573-.81l-8.586-4.316c-2.003-.81-4.865-1.08-8.872 3.507-1.717 2.158-3.148 4.317-4.007 5.935-1.145-.81-3.148-1.62-5.438-1.35-2.575.27-4.865 2.158-6.868 5.126-6.87 10.79 1.717 15.917 1.717 16.187l10.59 7.824 8.3 4.316c.286.27.286.54.573.54zm-.86-4.856v1.888l-6.87-3.507-10.303-7.824c-.286-.27-6.87-4.316-1.145-13.22 1.717-2.428 3.435-4.047 5.152-4.316 2.29-.27 4.293 1.08 4.58 1.62l.286.27h.573c.286 0 .858-.27.858-.81.573-.81 2.004-4.047 4.293-6.475 1.717-1.888 4.007-4.047 6-2.968l7.442 4.047-5.438 8.903-8.3 21.583 2.862.81z" class="E"/><path d="M119.458 57.042s3.72-.27 4.293 0 8.872 3.237 8.872 3.237l1.145 2.698-4.007 10.79 2.3.54v4.316c0 .27-.286.27-.286.27l-8.3-4.317-10.59-7.824s-7.156-4.316-2.004-13.76l8.586 4.047z" class="F"/><path d="M131.483 79.702c.286 0 .572 0 .572-.27.286-.27.572-.54.572-1.08v-5.126l-1.717-.54 3.72-9.982-1.43-3.507-.286-.27-9.16-3.507h-4.293l-9.444-4.856-.573 1.08c-5.724 9.982 2.3 15.108 2.3 15.108l10.59 7.824 8.3 4.317c.286.54.572.81.86.81zm-.86-4.856v1.888l-6.87-3.507-10.303-7.824c-.286-.27-6-3.777-2.003-11.33l8.013 4.047h.286c1.718 0 3.72-.27 4.293 0 .573 0 4.866 1.89 8.014 3.237l.86 1.888-4.293 11.33 2.003.27z" class="E"/><path d="M129.765 52.453l-6.583-3.507v-.27c.573-1.08 2.004-4.047 4.293-6.475l8.586 4.586 2.576 4.586-.858 1.62-1.145 3.237-2.862 2.158-4.007-5.935z" class="F"/><path d="M132.914 60.008l4.293-3.237 1.43-3.507 1.145-1.89-2.862-5.396-9.73-5.396-.572.81c-2.3 2.698-4.007 5.665-4.293 6.745-.286.27 0 .81 0 1.08v.54l6.87 3.507 3.72 6.744zm2.3-4.316l-1.43 1.08-2.862-5.126-6.296-3.237c.572-1.08 1.717-2.968 3.148-4.856l7.44 4.047 2.003 3.777-.858 1.35-1.145 2.968z" class="E"/><path d="M119.745 56.233c5.152-7.824 10.59-3.777 11.734-2.968 0 0 .286 0 .286-.27 1.145-2.158 6.583-12.14 11.735-9.982 6.296 2.968-1.43 15.917-1.43 15.917l-10.304 19.154c0 .27-.286.27-.286.27L120.9 70.53c0 .27-7.728-4.316-1.145-14.298z" class="F"/><g class="E"><path d="M131.196 79.704h.572c.286 0 .86-.27.86-.8L142.93 59.74c.286-.27 5.438-9.172 3.72-14.298-.572-1.35-1.43-2.428-2.862-3.237-1.717-.8-4.865-.8-8.872 3.507-1.717 2.158-3.148 4.317-4.007 5.935a8.06 8.06 0 0 0-5.437-1.349c-2.576.27-4.866 2.158-6.87 5.126-6.87 10.8 1.717 15.917 1.717 16.187l10.876 8.093zm10.6-35.6c.286 0 .572 0 1.145.27.858.27 1.43 1.08 1.717 1.888 1.145 3.507-2.003 10.252-3.434 12.68l-9.73 18.345-9.445-7.014c-.286-.27-6.87-4.317-1.145-13.22 1.718-2.428 3.435-4.047 5.438-4.316 2.3-.27 4.293 1.08 4.58 1.62l.287.27h.572c.286 0 .86-.27.86-.8.572-.8 2.003-4.047 4.293-6.475 1.43-1.62 3.148-3.237 4.865-3.237zm-6.45 16.406l2.035 1-5.772 10.55-2.036-1 5.773-10.55z"/><path d="M133.484 49.756l-8.586-4.316-1.717 3.507 8.586 4.317 1.717-3.507zM119.173 70l-4.293-1.9-4.58-3.237-1.43-3.777-.286-3.777.572-1.35 8.013 4.047-.572 2.968 1.145 3.507 1.43 3.507zM104.3 58.658c1.145-10.252 8.872-13.5 9.158-13.76L112.6 43c-.287.27-9.16 4.047-10.6 15.377l2.3.27z"/></g><g class="D"><path d="M209.724 137.2c.43-.824.698-1.843.698-3.103V56.032c0-4.218-2.846-9.115-6.336-10.958l-32.754-17.067c-1.504-.776-2.846-.873-3.92-.388-1.88.582-3.544 2.036-3.544 2.036l1.18 1.648c-.053.34-.053.68-.053 1.018v78.015c0 4.218 2.846 9.116 6.336 10.958l32.754 17.067 1.128 1.988s2.792-.484 4.403-3.006v-.048c.053 0 .107-.05.107-.097z"/><path d="M205 140.836l-1.235-2.134-32.7-17.02c-3.597-1.89-6.55-6.933-6.55-11.25V32.322c0-.29 0-.582.054-.92l-1.29-1.794.215-.194c.054-.048 1.772-1.503 3.705-2.133h.054c1.235-.485 2.685-.34 4.242.436l32.754 17.067c3.598 1.89 6.55 6.934 6.55 11.25v78.016c0 1.26-.27 2.375-.752 3.248l-.054.05c0 .048-.053.097-.053.145l-.054.05c-1.664 2.618-4.5 3.15-4.67 3.15l-.215.146zM165.48 30.82l-.054.533c-.054.388-.054.68-.054 1.018v78.015c0 4.12 2.74 8.873 6.175 10.667l32.862 17.116 1.02 1.842c.698-.194 2.685-.872 3.866-2.763.054-.097.054-.097.108-.146v-.048l.376.145-.376-.145c.43-.825.644-1.794.644-2.958V56.032c0-4.12-2.738-8.873-6.175-10.667l-32.754-17.067c-1.342-.68-2.524-.824-3.544-.388l-.16.097c-1.29.436-2.524 1.358-3.007 1.746l.86 1.164.215-.097z"/></g><path d="M201.293 140.01l-32.754-17.067c-3.49-1.843-6.336-6.74-6.336-10.958V33.922c0-4.218 2.845-6.158 6.336-4.315l32.754 17.067c3.5 1.843 6.336 6.74 6.336 10.958v78.015c.054 4.267-2.792 6.207-6.336 4.364z" fill="#fff"/><path d="M203.817 141.03c-.86 0-1.772-.243-2.738-.728l-32.755-17.067c-3.597-1.89-6.55-6.934-6.55-11.25V33.922c0-2.327.86-4.17 2.363-4.946 1.29-.68 2.9-.582 4.564.29l32.754 17.067c3.598 1.89 6.55 6.934 6.55 11.25V135.6c0 2.327-.86 4.17-2.362 4.946-.537.34-1.128.485-1.826.485zM166.015 29.268c-.537 0-1.02.097-1.45.34-1.29.68-1.987 2.23-1.987 4.315v78.064c0 4.12 2.738 8.873 6.175 10.667l32.754 17.067c1.396.728 2.74.825 3.76.29 1.29-.68 1.987-2.23 1.987-4.315V57.632c0-4.12-2.74-8.873-6.175-10.667l-32.755-17.067c-.805-.436-1.61-.63-2.31-.63z" class="D"/><path d="M199.307 48.13l-11.544-5.964c-.16-.097-.376 0-.376.194v.68c0 1.067-1.342 1.745-2.363 1.212l-.698-.388c-1.127-.63-1.88-1.745-1.88-2.958V39.74c0-.29-.16-.533-.43-.63l-14.283-7.418c-1.772-.92-3.22-.145-3.22 1.65v78.888c0 3.394 2.63 7.515 5.906 9.212l31.466 16.437c1.772.92 3.222.146 3.222-1.648V57.342c.107-3.394-2.524-7.515-5.8-9.212z" class="C"/><path d="M203.44 138.654c-.483 0-1.074-.145-1.6-.436l-31.466-16.437c-3.382-1.746-6.067-6.013-6.067-9.504V33.4c0-1.018.43-1.794 1.127-2.182.752-.388 1.665-.3 2.632.194l14.23 7.37a1.1 1.1 0 0 1 .591.97v1.115c0 1.067.644 2.085 1.664 2.667l.698.388a1.27 1.27 0 0 0 1.181 0c.376-.194.6-.533.6-.92v-.68c0-.194.107-.388.322-.485a.75.75 0 0 1 .645 0l11.598 5.964c3.383 1.745 6.067 6.012 6.067 9.503v78.937c0 1.018-.43 1.794-1.127 2.182-.376.145-.698.242-1.074.242zm-37.05-107c-.215 0-.483.05-.644.145-.484.242-.752.824-.752 1.552v78.888c0 3.297 2.577 7.273 5.692 8.92l31.465 16.437c.752.388 1.396.437 1.88.194s.75-.824.75-1.55V57.342c0-3.297-2.577-7.273-5.7-8.922l-11.33-5.867V43c0 .63-.376 1.212-.967 1.55s-1.342.3-1.933 0l-.698-.388c-1.288-.68-2.04-1.94-2.04-3.25V39.74a.41.41 0 0 0-.215-.34l-14.283-7.418c-.43-.194-.86-.34-1.235-.34zm19.33 10.9c0 .485-.376.63-.805.436-.43-.242-.806-.776-.806-1.26s.376-.63.806-.436c.483.194.805.776.805 1.26z" class="D"/><g class="C"><path d="M206.34 51.62l-.215-.34 2.47-1.26.215.34-2.47 1.26zm-37.962-22.158l-.27-.242c.054-.05 1.128-1.067 2.74-1.406l.107.34c-1.557.34-2.577 1.3-2.577 1.3zm1.288.678l-.268-.242c.054-.05 1.128-1.067 2.738-1.406l.108.34c-1.557.34-2.578 1.3-2.578 1.3zM209.9 53.1l-2.548 1.144.167.304 2.55-1.144-.168-.304zm-1.958 78.814l-.16-.3s1.6-.776 2.523-1.503l.27.242c-.913.728-2.524 1.503-2.63 1.552zm0 3.636l-.16-.3s1.6-.776 2.523-1.503l.27.242c-.913.776-2.524 1.552-2.63 1.552zm0 1.504l-.16-.3s1.6-.776 2.523-1.503l.27.242c-.913.776-2.524 1.552-2.63 1.552zm.752-46.45c-.107 0-.215 0-.27-.048-.214-.097-.322-.34-.322-.68V84.59c0-.533.376-1.115.806-1.358l.107-.048c.215-.145.483-.145.644-.05.215.097.323.34.323.68V89.1c0 .533-.376 1.115-.806 1.358l-.107.05c-.108.097-.215.097-.376.097zm.698-7.176c-.054 0-.16.05-.16.05l-.108.05c-.322.194-.6.68-.6 1.067v5.285c0 .194.054.34.16.34.107.05.215 0 .268-.048l.108-.048c.322-.194.6-.68.6-1.067v-5.285c0-.194-.053-.34-.16-.34h-.107z"/><path d="M208.704 82.118c-.107 0-.215 0-.27-.05-.214-.097-.322-.34-.322-.68v-5.285c0-.533.376-1.115.806-1.358l.107-.048c.215-.097.483-.145.644-.05.215.097.323.34.323.68v5.285c0 .533-.376 1.115-.806 1.358l-.107.05c-.108.097-.215.097-.376.097zm.698-7.176c-.054 0-.16.05-.16.05l-.108.05c-.322.194-.6.68-.6 1.067v5.285c0 .194.054.34.16.34.107.05.215 0 .268-.048l.108-.05c.322-.194.6-.68.6-1.067v-5.285c0-.194-.053-.34-.16-.34h-.107zm-.698-2.472c-.107 0-.215 0-.27-.048-.214-.097-.322-.34-.322-.68v-2.958c0-.533.376-1.115.806-1.358l.107-.05c.215-.145.483-.145.644-.048.215.097.323.34.323.68v2.958c0 .533-.376 1.115-.806 1.358l-.107.05c-.108.05-.215.097-.376.097zm.698-4.897c-.054 0-.16.05-.16.05l-.108.05c-.322.194-.6.68-.6 1.067v2.958c0 .194.054.34.16.34.107.048.215 0 .268-.05l.108-.05c.322-.194.6-.68.6-1.067v-2.958c0-.194-.053-.34-.16-.34h-.107z"/><path d="M209.134 69.85l-.108.048c-.376.194-.698 0-.698-.485v-.68c0-.485.322-1.018.698-1.212l.108-.048c.375-.194.698 0 .698.485v.68c0 .436-.323.97-.698 1.212z"/><path d="M208.704 70.142c-.107 0-.215 0-.27-.048-.214-.097-.322-.34-.322-.68v-.68c0-.533.376-1.115.806-1.358l.107-.05c.215-.145.483-.145.644-.05.215.097.323.34.323.68v.68c0 .533-.376 1.115-.806 1.358l-.107.05c-.108.05-.215.097-.376.097zm.698-2.57c-.054 0-.16.048-.16.048l-.108.05c-.322.194-.6.68-.6 1.067v.68c0 .194.054.34.16.34.107.048.215 0 .268-.048l.108-.05c.322-.194.6-.68.6-1.067v-.68c0-.194-.053-.34-.16-.34h-.107zm-1.485-18.84l-2.54 1.36.192.292 2.54-1.36-.192-.292z"/></g><g fill="#fff"><path d="M203.513 124.817c-.42 0-.927-.16-1.433-.398l-35.485-19.374c-1.855-1.037-3.372-3.668-3.372-5.98V41.74c0-1.276.506-2.312 1.264-2.71.675-.4 1.602-.32 2.445.16l35.486 19.374c1.854 1.036 3.37 3.667 3.37 5.98v57.324c0 1.276-.506 2.312-1.264 2.71-.337.16-.674.24-1.012.24zm-37.93-85.31c-.253 0-.42.08-.6.16-.6.32-.843 1.036-.843 2.073v57.325c0 2.073 1.35 4.465 2.95 5.342l35.486 19.374c.6.32 1.18.398 1.602.16.6-.32.843-1.036.843-2.073V64.543c0-2.073-1.35-4.465-2.95-5.342l-35.485-19.374c-.337-.16-.675-.32-1.012-.32z"/><path d="M162.68 102.266s-1.358-1.72-2.717-1.902l.1-.906c1.72.18 3.26 2.174 3.35 2.265l-.725.543zm3.894 3.532c-.1-.362-.634-1.177-1.36-1.268l.1-.905c1.358.1 1.992 1.72 2.083 1.8l-.815.362z"/><g stroke="#16110d" stroke-width=".459"><path d="M204.47 122.982l-.004-.007-.004-.006c-.157-.235-.17-.435-.142-.53.014-.043.03-.05.033-.052s.032-.013.103.015l1.893.81c.112.055.248.095.39.075.157-.022.286-.116.363-.268l.805-1.52c.027-.03.05-.04.074-.04.033-.003.09.006.165.048.15.084.322.265.442.5l.815 2.444.008.015c.05.102.127.23.216.344a1.1 1.1 0 0 0 .318.291l1.884 1.436c.183.147.314.372.36.572.05.22-.016.294-.048.3h0l-.006.003-1.356.723a.52.52 0 0 0-.273.333c-.032.11-.032.23-.032.312v.03l.003.017.363 2.358c.016.1-.001.15-.012.17s-.02.026-.045.03c-.058.01-.205-.017-.353-.202h0l-.006-.006-1.732-2.005c-.206-.206-.442-.34-.705-.34h0-.013l-1.737.092-.016.003c-.09.018-.236-.043-.38-.246-.136-.196-.195-.427-.166-.57h0v-.004l.366-2.013v-.02c0-.233-.108-.542-.205-.736h0l-.007-.012-1.358-2.355z"/><path d="M208.34 129.65l-.005-.006-.183-.183-.003-.004h-.001v-.001l-.162.163.162-.163-.072-.072-1.816.106c-.173-.003-.385-.123-.648-.386a1.11 1.11 0 0 1-.3-.97h0l.001-.004.366-2.013v-.024c0-.046 0-.1-.016-.2a1.09 1.09 0 0 0-.099-.273h.001l-.007-.012-1.36-2.358c-.234-.4-.218-.83-.013-1.103h0l.007-.01c.046-.07.116-.1.227-.127a1.16 1.16 0 0 1 .418.037l1.978.792.912-1.52c.127-.187.314-.256.53-.256.15 0 .323.077.488.232a1.5 1.5 0 0 1 .382.608l.82 2.46.007.014c.107.215.22.326.314.422h.001l.01.01.012.01 1.903 1.45c.14.105.278.294.382.523s.16.466.16.652c0 .087-.03.182-.08.267s-.114.14-.155.162v-.001.007l-1.268.724.114.2h-.23v.396l.04-.024.325 2.112c.037.227-.003.372-.06.464a.43.43 0 0 1-.232.183c-.328.082-.407.082-.47.082-.18 0-.393-.12-.656-.38l-1.715-1.986zm-.366-.708h.012a.74.74 0 0 1 .332.097.82.82 0 0 1 .292.254l.008.012.01.01 2.212 2.56-.364-3.028c-.038-.187-.016-.318.028-.414s.12-.177.227-.25l1.47-.784v-.137c0-.094-.038-.22-.088-.33a1.25 1.25 0 0 0-.251-.375l-.01-.01-.012-.01-1.914-1.46c-.217-.145-.37-.364-.448-.68l-.002-.008-.003-.008-.827-2.475a1.47 1.47 0 0 0-.315-.42v-.001l-.208-.208-.97 1.618-.003.008c-.065.13-.15.194-.25.22-.106.028-.257.02-.454-.06l-2.037-.857v.345c0 .042-.001.12.036.193a.49.49 0 0 0 .06.088l.04.04 1.347 2.335.004.006c.158.237.215.525.154.706l-.005.016-.003.016-.366 2.013v.02c0 .14.062.336.138.488a1.4 1.4 0 0 0 .154.23.42.42 0 0 0 .292.146l1.717.1zm-10.836-13.71h0l.003-.004c.008-.017.01-.018.024-.02h0c.028-.003.087.006.173.05.166.088.356.272.472.497l.815 2.445.007.015a2.11 2.11 0 0 0 .217.343 1.22 1.22 0 0 0 .317.29l1.885 1.436c.183.147.314.372.36.572.05.22-.016.294-.05.3h0l-.005.003-1.356.724a.52.52 0 0 0-.274.333c-.03.1-.03.23-.03.312v.03l.003.017.362 2.358c.017.1 0 .15-.012.17s-.02.025-.044.03c-.058.012-.205-.016-.354-.2h.001l-.006-.007-1.732-2.005c-.206-.206-.442-.34-.706-.34h0l-.012.001-1.737.1-.017.003c-.088.018-.236-.042-.378-.246-.137-.195-.196-.426-.167-.57h0l.001-.004.366-2.012v-.02c0-.233-.108-.543-.205-.737h0l-.007-.012-1.366-2.367c-.157-.236-.17-.435-.142-.53.013-.043.03-.05.033-.052s.032-.014.102.014l1.893.812a.68.68 0 0 0 .39.075c.157-.022.287-.116.364-.27l.814-1.538z"/><path d="M197.47 123.4l-.005-.006-.006-.006-.125-.124-.04-.04-.01-.012-.004-.004-.163.162.163-.162-.073-.072-.102.005-1.714.1c-.088-.001-.207-.032-.327-.097s-.226-.155-.292-.253l-.012-.02-.016-.016a1.11 1.11 0 0 1-.3-.971h0l.001-.004.366-2.012v-.025c0-.045 0-.1-.016-.188s-.047-.17-.1-.273h0l-.006-.012-1.36-2.358c-.113-.188-.17-.42-.17-.63s.06-.373.137-.45l.016-.016.012-.02c.046-.07.116-.1.227-.126a1.14 1.14 0 0 1 .418.037l1.978.8.912-1.52c.127-.187.314-.256.53-.256.15 0 .323.076.488.232s.302.37.38.608l.82 2.46.007.015c.107.214.22.326.314.42v.01l.013.01 1.903 1.45c.14.105.278.294.382.523s.16.466.16.652a.53.53 0 0 1-.08.267.43.43 0 0 1-.155.162h0l-.01.006-1.384.8v.24l.003.017.362 2.358c.038.227-.003.373-.06.465a.45.45 0 0 1-.24.186 1.71 1.71 0 0 1-.265.07c-.06.01-.113.01-.206.01-.172 0-.384-.118-.647-.38l-1.715-1.987zm.36-.357l.008.012.01.01 2.2 2.56-.1-.745-.274-2.282c-.037-.188-.016-.318.03-.414a.62.62 0 0 1 .23-.252l1.377-.787v-.133a.89.89 0 0 0-.088-.33 1.26 1.26 0 0 0-.251-.374l-.01-.01-.012-.01-1.914-1.457c-.217-.145-.37-.365-.448-.68l-.002-.01-.003-.008-.815-2.445-.005-.016-.008-.014c-.107-.215-.218-.326-.314-.422h0l-.208-.208-.975 1.626c-.064.13-.15.194-.25.22-.107.028-.257.02-.454-.06l-2.037-.858v.346c0 .042-.001.12.036.193.02.038.043.067.06.087l.04.04 1.352 2.342c.157.236.215.524.154.706l-.005.015-.003.016-.362 1.993-.004.02v.02c0 .14.062.336.138.487a.96.96 0 0 0 .153.23c.057.06.156.143.293.146l1.78.1v.002h.04a.73.73 0 0 1 .333.097c.123.067.226.155.3.253zm-15.005-12.56l-.004-.007-.004-.006c-.157-.235-.17-.435-.142-.53.014-.043.03-.05.033-.052s.032-.013.103.015l1.893.8c.112.055.248.095.4.075.157-.022.286-.116.363-.27l.805-1.52c.027-.03.05-.04.074-.04.033-.003.1.006.165.048.15.084.322.265.442.5l.815 2.445.008.015a2.06 2.06 0 0 0 .216.344 1.1 1.1 0 0 0 .318.291l1.884 1.436c.183.147.314.372.36.572.05.22-.016.294-.048.3h0l-.006.003-1.356.723a.52.52 0 0 0-.273.333c-.032.1-.032.23-.032.312v.03l.003.017.363 2.358c.016.1-.001.15-.012.17s-.02.026-.045.03c-.058.01-.205-.017-.353-.202h0l-.006-.006-1.732-2.005c-.206-.206-.442-.34-.705-.34h0-.013l-1.737.092-.016.003c-.1.018-.236-.043-.38-.246-.136-.196-.195-.427-.166-.57h0v-.004l.366-2.013v-.02c0-.233-.108-.542-.205-.736h0l-.007-.012-1.358-2.355z"/><path d="M189.46 116.412v.287l.04-.024.325 2.112c.037.227-.004.372-.06.464a.43.43 0 0 1-.232.183c-.328.082-.407.082-.47.082-.18 0-.393-.12-.656-.38l-1.726-1.998-.177-.177-.003-.004h-.001v-.001l-.162.163.162-.163-.073-.072-.1.006-1.715.1c-.088-.001-.207-.033-.327-.097a.83.83 0 0 1-.292-.254l-.012-.02-.016-.016a1.11 1.11 0 0 1-.3-.97h0l.001-.004.366-2.013v-.024c0-.046 0-.1-.016-.2a1.09 1.09 0 0 0-.099-.273h.001l-.007-.012-1.36-2.358c-.113-.188-.17-.418-.17-.63 0-.217.06-.373.137-.45l.016-.016.012-.02c.046-.07.116-.1.227-.127a1.16 1.16 0 0 1 .418.037l1.978.792.912-1.52a.55.55 0 0 1 .204-.2c.064-.032.163-.055.327-.055.15 0 .323.077.488.232a1.5 1.5 0 0 1 .382.608l.82 2.46.007.014c.107.215.22.326.314.422h.01l.012.01 1.903 1.45c.14.104.278.294.382.523s.16.466.16.652c0 .087-.03.182-.08.267s-.114.14-.155.162h0l-.01.007-1.268.724.113.2h-.23v.1zm-3.133.03h-.001.013a.74.74 0 0 1 .332.097.82.82 0 0 1 .292.254l.008.012.01.01 2.2 2.56-.363-3.027c-.038-.187-.016-.318.028-.414s.12-.177.227-.25l1.47-.784v-.137c0-.094-.038-.22-.088-.33a1.25 1.25 0 0 0-.251-.375l-.01-.01-.012-.01-1.914-1.46c-.217-.145-.37-.364-.448-.68l-.002-.008-.823-2.47-.008-.015c-.107-.214-.218-.326-.313-.42l-.2-.2-.975 1.626c-.064.13-.15.194-.25.22-.106.028-.257.02-.454-.06l-2.037-.857v.345c0 .042-.001.12.036.193a.49.49 0 0 0 .06.088l.04.04 1.347 2.335.004.006c.158.237.215.525.154.706l-.005.016-.003.016-.366 2.013v.02c0 .14.062.336.138.488a.98.98 0 0 0 .153.23c.057.06.156.143.293.146l1.717.1zm-10.834-13.708h0l.002-.004c.01-.017.01-.018.024-.02h.001c.028-.003.087.006.173.05.166.088.355.272.472.497l.814 2.445.008.015a2.17 2.17 0 0 0 .216.343 1.1 1.1 0 0 0 .318.291l1.884 1.436c.183.147.314.372.36.572.05.22-.016.294-.048.3v-.001l-.006.003-1.356.724a.52.52 0 0 0-.273.333c-.032.1-.032.23-.032.312v.03l.003.017.363 2.358c.016.1-.001.15-.012.17s-.02.026-.045.03c-.058.012-.205-.016-.353-.2h0l-.006-.007-1.732-2.005c-.206-.206-.442-.34-.705-.34h0l-.012.001-1.738.1-.016.003c-.088.018-.236-.042-.38-.246-.136-.195-.195-.426-.166-.57h0v-.004l.366-2.012v-.02c0-.233-.108-.543-.205-.737h0l-.006-.012-1.367-2.366c-.157-.235-.17-.435-.14-.53.013-.043.03-.05.032-.052s.032-.013.103.014l1.893.812a.68.68 0 0 0 .39.075c.157-.022.286-.116.364-.27l.814-1.538z"/><path d="M175.826 110.9l-.005-.006-.006-.006-.125-.124-.04-.04-.01-.012-.004-.004-.163.162.163-.162-.073-.072-.102.005-1.714.1c-.088-.001-.207-.032-.327-.097s-.226-.155-.292-.253l-.012-.02-.016-.016a1.11 1.11 0 0 1-.3-.971h0v-.004l.366-2.012v-.025c0-.045 0-.1-.016-.188s-.047-.17-.1-.273h0l-.006-.012-1.36-2.358c-.113-.188-.17-.42-.17-.63 0-.217.06-.374.137-.45l.016-.016.012-.02c.046-.07.116-.1.227-.126s.256-.002.418.037l1.978.8.912-1.52c.076-.113.14-.17.203-.2a.77.77 0 0 1 .328-.055c.15 0 .323.076.488.232s.302.37.38.608l.82 2.46.007.015c.107.214.22.326.314.42h.001l.01.01.013.01 1.903 1.45c.14.105.278.294.382.523s.16.467.16.652a.53.53 0 0 1-.08.267.43.43 0 0 1-.155.162h0l-.01.006-1.384.8v.24l.003.017.362 2.358c.038.227-.003.373-.06.465a.44.44 0 0 1-.24.186 1.71 1.71 0 0 1-.265.07 1.21 1.21 0 0 1-.206.01c-.172 0-.384-.118-.647-.38l-1.715-1.987zm.36-.356l.008.01.01.01 2.2 2.56-.1-.745-.274-2.282c-.037-.188-.016-.318.03-.414s.12-.177.227-.25l1.47-.784v-.138a.89.89 0 0 0-.088-.33 1.26 1.26 0 0 0-.251-.374l-.01-.01-.012-.01-1.907-1.454-.007-.004c-.217-.145-.37-.365-.448-.68l-.002-.01-.003-.008-.815-2.445-.005-.016-.007-.014c-.107-.215-.22-.326-.314-.422h-.001l-.207-.208-.152.252-.824 1.374a.39.39 0 0 1-.25.221c-.107.028-.258.02-.454-.06l-2.037-.858v.346a.4.4 0 0 0 .035.193c.02.038.044.067.062.087.01.013.025.027.04.04l1.35 2.342c.158.236.215.524.155.706l-.005.015-.003.016-.366 2.013v.02a1.21 1.21 0 0 0 .137.487c.04.08.1.163.154.23.056.06.156.143.293.146l1.688.1v.002h.04a.73.73 0 0 1 .333.097c.123.067.226.155.3.254zm-15.006-12.56l-.003-.006-.004-.006c-.157-.235-.172-.435-.142-.53.013-.043.03-.05.033-.052s.03-.013.102.014l1.893.8a.68.68 0 0 0 .39.075c.157-.023.287-.117.364-.27l.804-1.52c.027-.032.052-.04.074-.042a.3.3 0 0 1 .165.049c.15.084.323.265.443.5l.815 2.445.007.015a2.01 2.01 0 0 0 .217.344 1.1 1.1 0 0 0 .317.291l1.885 1.436a1.08 1.08 0 0 1 .359.572c.05.22-.017.294-.05.3h0l-.005.003-1.356.723a.52.52 0 0 0-.274.333c-.03.1-.03.23-.03.312v.03l.002.017.363 2.358c.017.1 0 .15-.012.17s-.02.026-.044.03c-.058.01-.206-.016-.354-.202h0l-.005-.006-1.732-2.005c-.207-.206-.443-.34-.706-.34h0-.012l-1.737.092-.017.003c-.088.018-.236-.043-.378-.246-.137-.196-.196-.427-.167-.57h0l.001-.004.366-2.013v-.02c0-.233-.1-.542-.206-.736h.001l-.007-.012-1.36-2.355z"/><path d="M165.05 104.65l-.012-.012-.124-.125-.04-.04-.012-.01-.003-.003v-.001h-.001l-.162.162.162-.162-.072-.073-.102.006-1.714.1a.75.75 0 0 1-.327-.097.81.81 0 0 1-.292-.254l-.013-.02-.016-.016a1.11 1.11 0 0 1-.299-.97h0l.001-.004.366-2.013v-.024c0-.045 0-.1-.016-.19s-.047-.168-.1-.272v-.001l-.007-.01-1.36-2.36c-.113-.188-.17-.42-.17-.63 0-.217.06-.373.136-.45l.016-.016.013-.02c.046-.07.116-.11.226-.127s.257-.002.418.037l1.978.79.1-.167.812-1.354c.076-.113.14-.17.203-.2s.163-.055.328-.055c.15 0 .323.077.488.232s.302.37.38.607l.82 2.46.008.015c.107.214.218.326.314.42h0l.01.01.012.01 1.904 1.45c.14.105.277.294.38.523s.16.466.16.652c0 .087-.03.182-.08.267a.43.43 0 0 1-.155.162h0v.006l-1.383.79v.24l.002.017.363 2.358c.038.227-.003.373-.06.465s-.14.15-.23.183c-.33.08-.407.08-.47.08-.18 0-.392-.118-.655-.38l-1.715-1.986zm-.366-.617h.01c.09 0 .21.03.333.097s.226.155.29.254l.008.012.01.01 2.21 2.56-.364-3.027c-.037-.187-.016-.318.03-.414a.63.63 0 0 1 .229-.252l1.377-.786v-.134c0-.093-.038-.22-.088-.33a1.25 1.25 0 0 0-.251-.375l-.01-.01-.012-.01-1.902-1.45-.006-.005-.006-.004c-.217-.145-.37-.364-.448-.68l-.002-.01-.003-.008-.82-2.46-.008-.015c-.107-.214-.218-.326-.314-.42v-.001l-.208-.208-.975 1.626c-.064.13-.15.194-.25.22-.107.028-.257.02-.454-.06l-2.037-.858v.345c0 .042-.001.12.036.193.02.038.043.068.06.088l.04.04 1.347 2.335.004.006c.158.237.215.525.154.706l-.005.015-.003.016-.362 1.993-.004.02v.02c0 .14.062.336.138.488.04.08.1.162.153.23.057.06.157.143.294.146l1.807.09z"/></g></g><path d="M181.806 55.91c5.307 2.907 9.544 10.14 9.48 16.14a11.62 11.62 0 0 1-.158 1.662l.01.015-.04.184a6.16 6.16 0 0 1-.151.672l-2.04 8.857c-.33 1.582-1.137 2.713-2.27 3.29l.37 3.734 2.9 1.588c5.748 3.155 8.7 11.777 10.075 17.365.083.355.123.674.13.972l.182.096c2.052 1.127 3.525-.37 2.902-2.93-1.36-5.597-4.312-14.22-10.06-17.375l-2.9-1.588-.37-3.734c1.124-.59 1.94-1.708 2.27-3.29l2.04-8.857a6.54 6.54 0 0 0 .151-.672l.04-.184-.008-.015c.094-.518.146-1.072.157-1.662.08-6.008-4.173-13.233-9.48-16.14-3.47-1.896-6.516-1.46-8.237.725 1.46-.2 3.172.136 5.007 1.147z" class="D"/><path d="M172.698 83.072l2.907 1.608 3.262-1.865c-.027-.046-2.846-1.54-2.873-1.587-.01-.015-.025-.006-.034-.02-3.3-1.81-5.754-.88-7.52.996 1.213-.252 2.624-.025 4.257.868z" fill="#007550"/><path d="M203.764 107.65c-1.572-6.382-4.64-14.654-10.447-17.84l-2.648-1.447-.315-3.038c.838-.545 1.477-1.36 1.9-2.394.136-.342.254-.714.33-1.122l2.018-8.882c.052-.233.105-.466.166-.683l.085-.393.046-.21-.034-.02c.065-.463.082-.898.1-1.333.067-6.216-4.372-13.736-9.86-16.742-.193-.11-.374-.17-.558-.265-.2-.087-.383-.184-.582-.27l-.547-.21c-.248-.1-.504-.175-.75-.235-.124-.03-.256-.075-.38-.105-.805-.183-1.594-.233-2.337-.17-.016.01-.04.003-.04.003-.355.043-.7.1-1.02.204-.056.012-.112.024-.16.052-.32.103-.613.213-.912.385l-.08.046c-.047.027-.088.03-.135.058-.614.355-1.147.845-1.596 1.408l-.75 1.162c-.564 1.156-.863 2.544-.892 4.14a8.85 8.85 0 0 0 .011.662l.123 1.388c.05.336.1.67.166.997l1.813 10.902c.288 1.92 1.043 3.913 2.148 5.786l-.29 2.153-.618-.332c-.55-.29-1.094-.603-1.312-.72l-.158-.1c-.126-.07-.258-.114-.383-.184-.175-.08-.334-.172-.5-.238s-.315-.142-.472-.193c-.24-.084-.47-.153-.702-.223a4.98 4.98 0 0 0-.434-.093c-.213-.04-.442-.07-.662-.084-.114-.015-.22-.015-.334-.03-.285-.018-.568.004-.84.04-.08.006-.17.037-.25.043-.208.04-.433.088-.65.152-.103.04-.2.055-.303.094-.03.018-.072.02-.103.04-.088.03-.157.09-.23.112a5.61 5.61 0 0 0-.704.346c-.1.064-.21.142-.337.215-.212.142-.423.285-.617.457-.1.08-.21.182-.3.276-.14.12-.264.233-.395.37l-1.02 1.277c-.91 1.317-1.585 2.82-2.075 4.136-.778 2.15.747 5.522 3.087 6.803l31.874 17.5c.285.16.59.287.887.36.782.216 1.514.097 2.1-.342.468-.352.782-.857.92-1.483.177-.63.154-1.385-.043-2.183zm-25.662-53.523c.157-.09.33-.19.497-.267a.64.64 0 0 1 .166-.076c.15-.067.32-.103.463-.146.072-.02.16-.052.24-.058.128-.033.274-.037.427-.064.12-.01.233-.034.34-.034h.316c.17.003.316-.001.47.01.05.012.114.015.164.027 1.02.12 2.118.477 3.246 1.1 5.155 2.834 9.293 9.88 9.246 15.7.002.505-.05 1.022-.152 1.566l-.023.175c-.037.224-.092.417-.144.65l-2.025 8.906a5.19 5.19 0 0 1-.282.953c-.35.87-.908 1.537-1.66 1.9l-.34.176c.113-.308.202-.623.273-.968l2.027-8.867c.052-.233.12-.475.157-.7l.137-.626-.033-.02c.065-.463.082-.898.1-1.333.067-6.216-4.372-13.736-9.86-16.742-1.287-.715-2.566-1.13-3.78-1.258.015-.01.03-.018.03-.018zm10.94 30.62l.436 4.386 3.192 1.76c5.706 3.123 8.63 12.045 9.855 17.1.135.55.153 1.046.102 1.46-.075.408-.23.72-.48.904-.35.264-.88.226-1.505-.082-.02-.25-.067-.508-.13-.755-1.557-6.392-4.64-14.655-10.447-17.84l-2.648-1.447-.316-3.038c.895-.558 1.55-1.38 1.94-2.437zm-18.015-3.808c.032-.018.072-.02.104-.04.19-.07.375-.115.56-.16.04-.003.056-.012.096-.015.21-.04.427-.064.638-.064.015-.01.024.006.04-.003.227-.01.462-.004.7.04 0 0 .016-.01.025.006.244.02.49.08.737.14l.025.006a7.77 7.77 0 0 1 1.724.705l1.964 1.073-1.968 1.137-2.58-1.405a8.52 8.52 0 0 0-1.973-.804c-.296-.072-.583-.13-.86-.17.216-.206.477-.336.77-.446zm-4.882 6.426c.58-1.59 1.447-3.45 2.673-4.805 1.12-.14 2.335.13 3.613.83l3.192 1.76 3.236-1.85.582-.337.078-.51.442-3.293-.107-.18c-1.1-1.794-1.828-3.703-2.112-5.544l-1.805-10.926c-.064-.287-.104-.568-.152-.864l-.04-.28c-.074-.626-.103-1.176-.097-1.666.027-1.778.428-3.245 1.182-4.328 1.34-.126 2.86.23 4.42 1.1 5.156 2.834 9.294 9.88 9.246 15.7.003.505-.05 1.022-.152 1.566l-.023.175c-.045.21-.09.417-.153.635l-2.024 8.906c-.284 1.38-.945 2.37-1.932 2.878l-.387.203.465 4.47 3.192 1.76c5.6 3.07 8.497 11.677 9.78 16.748L168.725 92.74c-1.83-.99-3.146-3.792-2.58-5.374z" class="D"/><g class="B"><path d="M238.742 88.458l5.828-3.763-5.828-.295-.738.664-.517 1.992 1.255 1.402c-.074 0-.074 0 0 0z"/><path d="M238.594 89.12l-.295-.295-1.402-1.623.074-.295.517-2.14.96-.885 6.42.295.22.738-.37.22-6.124 3.985zm-.516-2.214l.738.812 4.058-2.656-3.984-.148-.443.37-.37 1.623z"/></g><path d="M248.48 55.547L230.33 45.07c-1.033-.6-1.992-.664-2.656-.295l-5.902 3.69s-.074.074 0 .074c.295.517 2.73 5.682 2.95 6.64l1.77 8.928v2.287c0 1.254.442 2.73 1.254 3.985l1.77 9.002 8.337 2.804h.59s.073-.074 0-.074l-.443-1.328c-.148-.6-.22-1.328-.22-1.992l7.82 8.707h.073l5.755-3.542s.074 0 .074-.074c.664-.443 1.107-1.254 1.107-2.51V62.4c-.148-2.51-1.918-5.608-4.132-6.862z" class="C"/><path d="M245.528 88.088c-.147 0-.295-.074-.442-.22l-6.715-7.453c0 .074 0 .22.074.295l.443 1.254c.074.295 0 .6-.295.738l-.148.074h-.81l-8.707-2.952-.074-.295-1.697-8.928c-.81-1.402-1.254-2.878-1.254-4.206V64.18l-1.77-8.854c-.147-.6-1.55-3.763-2.877-6.567-.148-.295 0-.6.22-.738l5.903-3.69c.96-.443 2.066-.37 3.246.295l18.15 10.478c2.36 1.328 4.206 4.65 4.206 7.305v19.037c0 1.328-.443 2.435-1.33 2.95l-5.828 3.616c-.074 0-.148.074-.296.074zm-8.485-10.773l8.56 9.52 5.386-3.32.37.443-.295-.443c.517-.37.812-1.033.812-2.066V62.4c0-2.287-1.697-5.24-3.69-6.42l-18.15-10.478c-.812-.517-1.623-.6-2.14-.295l-5.534 3.394 2.804 6.346 1.77 8.928v2.435c0 1.107.443 2.51 1.107 3.69l.074.22 1.697 8.707 7.747 2.583-.22-.664c-.148-.738-.222-1.402-.296-2.066v-1.476z" class="B"/><path d="M248.48 55.548l-17.19-9.96-8.56 5.387 18.446 9.74 3.837.6 5.902-3.468c-.738-.96-1.55-1.77-2.435-2.287z" fill="#fff"/><path d="M245.086 61.894l-4.206-.664-19.257-10.183 9.6-6.05 17.487 10.1c.885.516 1.77 1.402 2.5 2.435l.295.443-6.42 3.9zm-3.763-1.697l3.54.6 5.24-3.1c-.6-.738-1.18-1.254-1.845-1.623l-16.97-9.814-7.526 4.722 17.56 9.223zm10.973 2.273l-5.88 3.54.57.948 5.88-3.54-.57-.948zm-.23 13.674l-5.88 3.54.57.948 5.88-3.54-.57-.948z" class="B"/><path d="M224.5 48.686l18.15 10.478c2.14 1.254 3.91 4.28 3.91 6.788V84.99c0 2.51-1.77 3.542-3.91 2.287l-2.066-1.18c-.37-.22-.664-.074-.738.295-.22 1.107-1.033 3.247-3.984 1.992-.6-.22-1.033-1.107-.885-1.697.22-.664.442-1.623.442-2.73 0-.517-.37-1.107-.81-1.328L224.5 76.8c-2.14-1.254-3.9-4.28-3.9-6.788V50.973c0-2.51 1.77-3.542 3.9-2.287z" class="C"/><g class="B"><path d="M237.487 89.27c-.517 0-1.18-.148-1.845-.443-.812-.37-1.402-1.55-1.18-2.36.147-.6.368-1.476.368-2.583 0-.295-.22-.738-.516-.885l-10.108-5.83c-2.36-1.328-4.206-4.575-4.206-7.23V50.973c0-1.402.516-2.51 1.402-3.025s2.066-.443 3.32.295l18.15 10.478c2.36 1.328 4.205 4.575 4.205 7.23V84.99c0 1.402-.516 2.51-1.4 3.025s-2.066.443-3.32-.295l-2.066-1.18c-.147.812-.6 1.845-1.55 2.435-.295.22-.738.295-1.254.295zm-14.683-40.583c-.295 0-.517.074-.738.22-.6.295-.885 1.033-.885 2.066V70.01c0 2.36 1.623 5.165 3.69 6.346l10.108 5.83c.6.37 1.033 1.107 1.033 1.845 0 1.18-.22 2.214-.443 2.878-.074.295.222.885.59 1.033.96.37 1.697.443 2.213.148.664-.37.96-1.254 1.033-1.77.074-.37.295-.6.516-.738.296-.148.665-.074 1.033.074l2.066 1.18c.886.516 1.697.6 2.214.295.6-.295.885-1.033.885-2.066v-19.11c0-2.36-1.623-5.165-3.69-6.346L224.28 49.13c-.516-.295-1.033-.443-1.475-.443z"/><path d="M252.463 79.38l-5.828 3.542v2.583l-.37 1.55 5.09-3.1 1.033-1.328.147-1.402-.074-1.845z"/></g></svg>