<svg xmlns="http://www.w3.org/2000/svg" width="92" height="41" fill="none" xmlns:v="https://vecta.io/nano"><g clip-path="url(#A)"><g fill="#fcb316"><path d="M37.203 39.578c-.175-.5-.492-.842-.722-1.285-.558-.762-1.215-1.422-1.87-2.082-.23-.08-.328-.307-.547-.398-.142-.193-.372-.296-.558-.444-.372-.296-.777-.546-1.193-.796-.788-.523-1.762-.853-2.725-1.195a31.1 31.1 0 0 0-3.272-.614c-1.127-.17-2.254-.33-3.107-.796-.492-.148-.854-.432-1.28-.66-.394-.273-.82-.5-1.15-.842-.405-.25-.657-.67-.974-1.012-.1-.228-.296-.364-.383-.614-.1-.046-.142-.182-.208-.262-.077-.1-.077-.273-.208-.307-.066.466-.044 1.024 0 1.502.055.205.077.455.13.66.033.182.197.478.13.614-3.414-.182-5.9-1.308-8.075-2.787-1.072-.74-2-1.638-2.845-2.605L7.24 24.017c-.34-.58-.624-1.24-.93-1.854-.503-1.33-.974-2.696-1.15-4.368-.23-1.56-.175-3.55.164-4.994.12-.796.372-1.467.6-2.16l.427-.967c.186-.273.284-.648.514-.887C7.48 7.57 8.4 6.66 9.362 5.784c1.03-.785 2.2-1.422 3.6-1.8 1.357-.32 3.206-.375 4.672-.046 2.976.637 5.22 2.025 7.1 3.8 1.904 1.74 3.37 3.948 4.377 6.632 1.04 2.548 1.4 6.52.47 9.408l-1.15-.66c-.46-.137-.908-.296-1.444-.353-.646-.01-1.28 0-1.696.216.842-.1 1.52.148 2.046.353.306.125.482.205.722.353.47.284.886.546 1.236.933.996.9 1.707 2.116 2.046 3.7 0 .046.055.034.044-.046.044-.01.066-.046.088-.1l.175-.216c.1-.137.22-.273.296-.444.23-.284.416-.603.6-.933.405-.614.7-1.32 1.06-2a21.73 21.73 0 0 0 1.4-4.732c.613-3.9-.12-7.577-1.4-10.296-1.313-2.742-3.15-4.937-5.526-6.587C25.692 1.342 22.9.136 19.04.022c-.022-.08-.055.01-.13 0-2.035-.068-3.677.228-5.307.66-.755.262-1.543.5-2.2.842-.766.262-1.38.694-2.08 1.012-.252.25-.635.375-.897.614-.34.17-.6.444-.93.614-.547.5-1.127.944-1.663 1.456-.525.5-.985 1.07-1.488 1.593-.077.182-.208.307-.34.444a1.47 1.47 0 0 1-.34.444c-.055.205-.23.284-.295.5-.142.114-.175.34-.34.444-.142.364-.394.626-.558.967-.197.33-.35.694-.547 1.012-.306.74-.635 1.456-.886 2.253-.263.774-.48 1.593-.635 2.48-.164.83-.317 1.9-.295 2.787-.1.32-.022.9 0 1.285 0 .068-.044.1-.044.136 0 .42.1.933.13 1.195.088.967.252 1.866.514 2.65.164.876.514 1.558.766 2.343.383.66.646 1.445 1.105 2.036.34.694.82 1.24 1.28 1.8.492.546.985 1.104 1.576 1.547C6.5 32.115 7.78 32.9 9.17 33.57c2.593 1.308 6.467 2.16 9.946 1.945.886-.125 1.784-.24 2.593-.444.744-.284 1.608-.455 2.506-.57 2.046-.136 3.82.057 5.394.535 1.598.444 2.976 1.115 4.17 2 .635.387 1.16.887 1.696 1.365.547.5.985 1.092 1.488 1.638.066.205.197.353.295.535.13.148.066.5.383.444.197-.205-.033-.5-.044-.75-.197-.216-.24-.5-.394-.683zM29.26 27.474c-.044 0-.055.034-.088.046-.077.17-.044.444 0 .614.23.5.306 1.126.8 1.33.24-.08.22-.444.208-.796-.1-.432-.263-.82-.514-1.104-.175-.068-.295-.182-.416-.1zm-2.976 1.24c0-.023-.033-.046-.044 0-.416-.057-.558.182-.766.353-.36 1 .22 1.957 1.236 1.945.405-.102.657-.375.722-.842-.055-.83-.394-1.365-1.15-1.456z"/></g><path d="M50.813 25.562c.164.717.514 1.23.908 1.706s.854.876 1.412 1.172a6.6 6.6 0 0 0 1.751.819c.317.114.624.25 1.018.296.274.16.602.24.624.648-.01.49-.328.67-.733.762-.405-.09-.908-.08-1.247-.24-.853-.102-1.543-.387-2.265-.648-1.38-.557-2.538-1.365-3.5-2.355-.197-.34-.47-.614-.678-.944s-.35-.728-.57-1.058c-1.685-.227-2.834-1.024-3.84-1.945-.93-1.104-1.674-2.423-1.98-4.175-.36-1.684-.252-3.788.175-5.415.93-3.15 2.878-5.244 6.554-5.53 1.018.034 1.904.16 2.714.478.82.307 1.597.876 2.2 1.468.055.045.077.057.11.114.13.193.45.466.624.705.033.046.022.125.055.182.066.102.164.148.23.24.033.057.022.125.055.17.044.068.1.17.164.296.022.046.098.08.11.114.098.193.142.432.23.648l.285.65c.22.67.36 1.468.45 2.287.22 2.366-.23 4.482-1.072 6.052-.394.82-.94 1.5-1.587 2.06-.59.648-1.4 1.035-2.2 1.445zM48.1 10.75c-.492.034-.788.273-1.193.41-.263.25-.59.444-.788.762-.328.193-.416.626-.678.876-.22.57-.427 1.206-.57 1.945-.13.728-.22 1.547-.23 2.355-.01 2.025.405 4.04 1.182 5.233a5.21 5.21 0 0 0 1.696 1.411c.394.034.7.17 1.127.182.24-.09.635 0 .788-.182.35.023.427-.216.733-.24.164-.17.34-.307.57-.4l.624-.705c.11-.17.175-.4.34-.535.985-1.957 1.094-5.54.45-7.815a7.06 7.06 0 0 0-.963-2.059c-.416-.444-.908-.82-1.466-1.115-.45-.102-.875-.228-1.466-.17-.033 0-.066.01-.055.057h-.1zM60.037 9.1c.886.034 1.926-.08 2.714.057.175.284.11.626.11.944v14.402c-.01.296.066.614-.11.887-.394.102-.963.057-1.466.057-.536 0-1.06.08-1.41-.114-.1-5.2-.1-10.83 0-16.052.022-.09.077-.148.164-.182zm6.784 0h2.66c.24.34.317.853.394 1.354l2.32 9.58c.175.023.12-.193.175-.296.077-.08.033-.273.11-.353.033-.262.186-.398.175-.705.197-.398.263-.944.45-1.354.23-.956.536-1.843.8-2.764.252-.956.59-1.82.788-2.82.372-.808.46-1.91.908-2.64h1.127c.405.796.558 1.854.908 2.708.23.956.547 1.82.788 2.765l1.64 5.53c.23-.353.23-.944.394-1.354.1-.466.186-.944.34-1.354.438-1.866.853-3.743 1.357-5.53.186-.933.372-1.888.678-2.708a8.8 8.8 0 0 1 2.32 0c.055.694-.252 1.445-.45 2.06-.11.75-.372 1.33-.514 2.06-.405 1.33-.71 2.742-1.127 4.06-.317 1.41-.744 2.708-1.072 4.118-.22.648-.372 1.365-.57 2.06-.22.637-.295 1.422-.624 1.945h-1.587c-.405-.74-.547-1.74-.908-2.526l-2.43-7.702c-.263.284-.263.865-.45 1.23-.12.444-.24.887-.394 1.297-.22.9-.547 1.66-.733 2.582-.317.808-.547 1.707-.788 2.594-.328.774-.45 1.763-.854 2.47-.416.137-1.072.023-1.587.057-.394-.466-.438-1.308-.678-1.945-.186-.66-.317-1.388-.558-2.002-.306-1.433-.766-2.696-1.072-4.118-.405-1.32-.755-2.696-1.127-4.06-.208-.65-.36-1.342-.57-2.002-.098-.705-.558-1.342-.394-2.116.022-.057.088-.09.153-.114zm22.333 0c.886.034 1.915-.08 2.714.057.197.614.11 1.274.11 1.934v12.343c0 .67.077 1.32-.11 1.945-.613.068-1.5.102-2.265.057-.22-.01-.48.057-.624-.114-.197-.614-.11-1.263-.11-1.945V11.16c0-.74-.066-1.456.11-1.945.044-.057.11-.09.175-.114z" fill="#0269b3"/></g><defs><clipPath id="A"><path fill="#fff" d="M0 0h92v41H0z"/></clipPath></defs></svg>