<svg xmlns="http://www.w3.org/2000/svg" xmlns:xlink="http://www.w3.org/1999/xlink" width="360" height="307" fill="none" xmlns:v="https://vecta.io/nano"><style><![CDATA[.B{fill:#150035}.C{fill:#16110d}.D{fill:#ffbe2e}.E{fill:#fff}.F{fill:#007550}.G{fill:#ff513f}.H{fill:#ffd45d}]]></style><g fill="#001e20"><path d="M0 3h360v304H0z"/><path d="M0 0l13 169 167 90.5L360 147v160H0L79 84.5 0 0z" style="mix-blend-mode:screen" opacity=".3"/></g><path d="M174.45 123.442s0 .14-.142.14c-.85.566-6.515 4.388-2.266 10.19 2.833 3.82 2.266 5.66 1.558 6.5-.142.142 0 .566.283.425 1.983-.566 5.24-2.265 3.4-7.926-2.266-7.218 3.258-4.67 2.975-1.415 0 .283.283.424.425.14 1.274-1.274 3.257-4.53-.425-8.067-4.532-4.246-5.524-.708-5.807 0z" class="E"/><g class="B"><path d="M173.74 141.133c-.283 0-.425-.14-.567-.283-.14-.283-.14-.566.142-.708 1.133-1.132.566-3.255-1.558-6.085-1.275-1.84-1.84-3.68-1.558-5.38.566-2.972 3.258-4.812 3.966-5.236.14-.425.566-1.84 1.84-2.123 1.133-.425 2.69.424 4.532 2.123 4.108 3.82 1.7 7.36.425 8.633-.14.142-.425.283-.708.142a.78.78 0 0 1-.425-.708c.142-1.132-.708-2.265-1.558-2.69-.283-.142-.708-.283-.85 0-.14.14-.708.99.142 3.963.708 2.406.708 4.387-.142 5.803-.85 1.556-2.408 2.264-3.54 2.547h-.14zm2.832-19.248h-.424c-.85.283-1.133 1.274-1.275 1.698 0 .142-.142.283-.283.425-.567.283-3.116 2.123-3.54 4.812-.284 1.557.14 3.255 1.416 4.812 2.69 3.68 2.55 5.66 1.7 6.794.99-.284 2.124-.99 2.832-2.123.71-1.274.71-3.114 0-5.237-.99-3.114-.566-4.388 0-4.812.425-.425 1.133-.425 1.7-.142.99.425 1.983 1.7 1.983 3.114 1.275-1.415 2.69-4.246-.567-7.36-1.558-1.274-2.69-1.98-3.54-1.98z"/><path d="M180.398 127.12c-.567-1.274-.425-2.123-.142-2.406s.142-.708-.14-.99c-1.275-.85-3.116-2.123-3.54-2.123.85 3.822-1.983 4.105-2.408 6.51-.425 2.547 3.258 5.52 3.258 5.52 0-.283-.142-.425-.142-.708-1.84-5.803 1.416-5.237 2.55-3.114.284-.85 1.133-1.415.567-2.69z"/><path d="M178 134.198l-.708-.425s-4.107-2.972-3.54-5.944c.142-.99.708-1.7 1.275-2.265.85-.99 1.558-1.84 1.133-4.104l-.142-.425h.425c.425 0 1.133.425 3.683 2.123a.78.78 0 0 1 .425.708c0 .283 0 .566-.142.85-.283.425-.283 1.132.142 2.123.566 1.132 0 1.98-.284 2.548-.14.14-.14.283-.283.424l-.283.708-.425-.566c-.567-.99-1.558-1.416-1.983-1.274-.567.283-.85 1.415 0 4.104 0 .142.142.425.142.566l.566.85zm-.99-12.172c.283 2.123-.567 3.114-1.417 4.104-.566.566-.99 1.133-1.133 1.982-.283 1.557 1.133 3.397 2.266 4.387-.99-3.255-.14-4.246.567-4.53s1.84.142 2.55 1.133c.284-.567.567-.99.284-1.84-.567-1.274-.567-2.123-.142-2.83 0-.142.142-.142 0-.283 0 0 0-.142-.142-.142l-2.832-1.98z"/></g><path d="M157.737 46.165s-8.356-3.255-11.755 2.83c-3.258 6.086 3.965 11.323 3.965 11.323 1.133.85 2.69.99 4.533-.142 3.116-1.98 5.523-6.37 5.523-10.05 0-2.265-.99-3.68-2.266-3.963z" class="F"/><path d="M151.93 61.31c-.708 0-1.416-.283-1.983-.708-.142 0-7.507-5.52-4.107-11.747s12.04-2.972 12.18-2.972.142.142.284.142c1.274.566 2.124 2.123 2.124 4.104.142 3.82-2.408 8.492-5.665 10.473-.992.425-1.983.708-2.833.708zm-1.983-1.698l.283.283c.992.85 2.55.708 4.108-.283 2.974-1.84 5.382-6.227 5.24-9.766 0-1.84-.85-3.114-1.983-3.538l-.425-.142c-1.7-.566-8.073-2.123-10.764 2.83-2.832 5.095 2.125 9.624 3.54 10.615z" class="B"/><path d="M184.505 119.48s-1.133-8.492-7.648-8.492-7.648 8.492-7.648 8.492c-.284 1.273.425 2.69 2.124 3.68 2.975 1.7 7.932 1.7 10.906 0 1.7-1 2.55-2.406 2.266-3.68z" class="F"/><g class="B"><path d="M176.857 124.858c-1.983 0-4.107-.425-5.665-1.274-1.842-.99-2.69-2.548-2.408-3.963 0-.142 1.133-8.775 8.073-8.775 6.8 0 7.932 8.775 8.073 8.775v.283c.142 1.415-.85 2.69-2.408 3.68-1.7.707-3.682 1.274-5.665 1.274zm-7.223-5.803l-.142.424c-.283 1.133.425 2.406 1.983 3.256 2.833 1.698 7.648 1.698 10.48 0 1.558-.85 2.266-2.123 1.983-3.256v-.424c-.283-1.7-1.84-7.785-7.224-7.785-5.24.142-6.798 6.228-7.08 7.785z"/><path d="M173.316 98.39v13.02c0 .566.284 1.132.992 1.415 1.416.85 3.54.85 4.957 0 .708-.425.992-.85.992-1.415V98.39h-6.94z"/><path d="M176.857 113.818c-.99 0-1.983-.283-2.69-.708-.85-.424-1.274-1.132-1.274-1.84V97.966h7.8v13.446c0 .707-.425 1.274-1.275 1.698-.708.425-1.7.708-2.55.708zM173.6 98.674v12.596c0 .425.283.85.85 1.133 1.274.707 3.4.707 4.674 0 .566-.284.85-.708.85-1.133V98.532l-6.373.142z"/></g><path d="M158.73 89.9s2.55 20.097 18.13 20.097 18.13-20.097 18.13-20.097c.708-3.114-1.133-6.37-5.24-8.775-7.082-4.104-18.696-4.104-25.778 0-4.25 2.548-5.95 5.66-5.24 8.775z" class="E"/><g class="B"><path d="M176.86 110.42c-15.722 0-18.554-20.24-18.554-20.38v-.14c-.567-3.397 1.416-6.652 5.382-8.917 7.223-4.246 18.98-4.246 26.202 0 4.108 2.406 6.09 5.66 5.382 8.917v.14c0 .142-2.69 20.38-18.412 20.38zm-17.704-20.098c.424 2.83 3.824 19.4 17.704 19.4s17.138-16.56 17.704-19.4l.142-.425c.566-3.114-1.133-6.086-5.1-8.35-7.082-4.104-18.413-3.963-25.494 0-3.824 2.265-5.666 5.237-4.957 8.35v.425z"/><path d="M189.746 81.124c7.08 4.105 7.08 10.757 0 14.86s-18.696 4.105-25.778 0-7.082-10.757 0-14.86 18.696-4.104 25.778 0z"/><path d="M176.857 99.523c-4.816 0-9.5-.99-13.172-3.114-3.54-2.123-5.524-4.812-5.524-7.784s1.983-5.66 5.524-7.784c7.223-4.105 18.98-4.105 26.202 0 3.54 2.123 5.524 4.812 5.524 7.784s-1.983 5.66-5.524 7.784-8.356 3.114-13.03 3.114zm0-21.088c-4.674 0-9.206.99-12.747 2.972-3.4 1.982-5.1 4.388-5.1 7.077s1.84 5.237 5.1 7.077c7.082 4.104 18.412 4.104 25.494 0 3.4-1.98 5.1-4.387 5.1-7.077s-1.84-5.237-5.1-7.077c-3.54-1.98-8.215-2.972-12.747-2.972z"/></g><path d="M206.602 78.293c0-.708-.142-1.557-.283-2.264-.71-5.378-3.4-19.53-11.614-33.543l-17.846 1.557-17.988-1.415c-8.356 13.87-10.906 28.165-11.614 33.543-1.133 5.095 1.7 10.474 8.498 14.436 11.614 6.652 30.593 6.652 42.207 0 5.807-3.538 8.64-7.926 8.64-12.313z" class="E"/><path d="M176.858 95.843c-7.65 0-15.44-1.698-21.246-5.095-6.798-3.82-9.914-9.34-8.64-14.86.708-5.378 3.4-19.673 11.755-33.543l.142-.142L177 43.76l18.13-1.557.142.142c8.357 13.87 10.906 28.165 11.756 33.685.14.708.283 1.557.283 2.265 0 4.67-3.116 9.2-8.923 12.455-6.232 3.397-13.88 5.095-21.528 5.095zM159.153 42.9c-8.215 13.73-10.764 27.74-11.472 33.12-1.133 5.237 1.84 10.332 8.356 14.012 11.473 6.652 30.3 6.652 41.783 0 5.523-3.114 8.498-7.36 8.498-11.89 0-.708-.142-1.415-.284-2.123-.708-5.378-3.257-19.4-11.472-33.12l-17.704 1.557-17.705-1.557z" class="B"/><path d="M189.747 37.248c7.08 4.104 7.08 10.757 0 14.86s-18.696 4.105-25.778 0-7.082-10.757 0-14.86c7.082-4.246 18.696-4.246 25.778 0z" class="H"/><path d="M176.858 55.506c-4.816 0-9.5-.99-13.172-3.114-3.54-2.123-5.524-4.812-5.524-7.784s1.983-5.66 5.524-7.784c7.223-4.105 18.98-4.105 26.202 0 3.54 2.123 5.524 4.812 5.524 7.784s-1.983 5.66-5.524 7.784-8.356 3.114-13.03 3.114zm0-21.088c-4.674 0-9.206.99-12.747 2.972-3.4 1.98-5.1 4.387-5.1 7.077s1.84 5.237 5.1 7.077c7.082 4.104 18.412 4.104 25.494 0 3.4-1.982 5.1-4.388 5.1-7.077s-1.84-5.237-5.1-7.077c-3.54-1.84-8.215-2.972-12.747-2.972z" class="B"/><path d="M194.987 40.504s-2.55-20.098-18.13-20.098-18.13 20.098-18.13 20.098c-.708 3.114 1.133 6.37 5.24 8.775 7.082 4.104 18.696 4.104 25.777 0 4.108-2.406 5.807-5.66 5.24-8.775z" class="E"/><path d="M176.86 52.676c-4.816 0-9.5-.99-13.172-3.114-4.108-2.406-6.09-5.66-5.382-8.917v-.142c0-.142 2.832-20.38 18.554-20.38s18.412 20.24 18.554 20.38v.142c.567 3.397-1.416 6.652-5.382 8.917-3.683 2.123-8.498 3.114-13.172 3.114zM159.154 40.22v.425c-.708 3.114 1.134 6.086 4.958 8.35 7.08 4.105 18.412 4.105 25.494 0 3.824-2.264 5.665-5.237 4.957-8.35l-.14-.425c-.425-2.83-3.825-19.4-17.705-19.4-13.738 0-17.138 16.418-17.563 19.4z" class="B"/><path d="M179.124 22.53c1.274.708 1.274 1.982 0 2.69s-3.4.708-4.674 0-1.275-1.98 0-2.69c1.274-.85 3.4-.85 4.674 0z" class="G"/><path d="M176.858 26.21c-.85 0-1.84-.142-2.55-.566s-1.133-.99-1.133-1.698.425-1.274 1.133-1.698c1.417-.85 3.683-.85 5.1 0 .708.425 1.133.99 1.133 1.698s-.425 1.274-1.133 1.698c-.708.283-1.7.566-2.55.566zm0-3.963c-.85 0-1.558.142-2.125.566-.566.283-.85.708-.85.99 0 .425.284.708.85.99 1.133.708 3.116.708 4.39 0 .567-.283.85-.708.85-.99 0-.425-.283-.708-.85-.99-.708-.425-1.558-.566-2.266-.566z" class="B"/><path d="M201.078 67.82s9.63-2.123 9.065-9.624c-.71-7.5-10.48-7.926-10.48-7.926-1.558-.142-2.975.85-3.966 2.83-1.7 3.68-1.133 9.2 1.133 12.596 1.133 1.84 2.833 2.548 4.25 2.123z" class="F"/><path d="M200.228 68.245c-1.416 0-2.69-.85-3.824-2.406-2.408-3.397-2.833-9.2-1.133-12.88.99-2.123 2.55-3.255 4.25-3.114.14 0 10.197.425 10.906 8.35.708 7.784-9.207 10.05-9.348 10.05s-.284 0-.284.14c-.283-.14-.424-.14-.566-.14zm-.992-17.692c-1.274 0-2.55.99-3.257 2.69-1.7 3.538-1.133 8.917 1.133 12.172 1.133 1.698 2.69 2.406 4.107 1.982l.425-.142c1.842-.566 8.782-2.972 8.215-9.2-.566-6.37-8.073-7.36-9.773-7.643h-.425c-.283.142-.283.142-.425.142z" class="B"/><path d="M167.65 34.135c-3.116-1.84-4.4-4.387-3.682-6.794 0-.142-.142-.142-.142-.142-2.124 2.83-3.4 6.086-4.107 8.633-.71 2.972.99 6.086 4.957 8.35 3.257 1.84 7.507 2.83 11.756 2.83 1.7 0 3.257-.85 4.107-2.406v-.14c1.133-2.123.99-4.53-.142-6.5-.708-1.132-1.983-1.84-3.257-1.84-3.54.283-6.94-.425-9.5-1.982z" class="F"/><g class="B"><path d="M176.433 47.44c-4.532 0-8.78-1.132-12.04-2.972-3.966-2.265-5.807-5.52-5.1-8.775.708-2.406 1.983-5.803 4.108-8.775.14-.142.424-.283.566-.142.283.142.283.283.283.566-.708 2.264.567 4.67 3.4 6.37 2.407 1.415 5.523 2.123 8.923 2.123h.14c1.417 0 2.833.708 3.54 1.982 1.416 2.123 1.416 4.67.283 6.935v.142c-.566 1.698-2.266 2.548-4.107 2.548zm-13.03-18.965c-1.7 2.69-2.833 5.52-3.4 7.5-.708 2.83 1.133 5.803 4.816 7.926 3.116 1.84 7.223 2.83 11.614 2.83 1.558 0 2.974-.85 3.682-2.123v-.142c1.134-1.98.992-4.246-.14-6.086-.708-.99-1.84-1.698-2.974-1.698h-.142c-3.54 0-6.8-.85-9.348-2.264-2.69-1.415-4.25-3.68-4.107-5.944z"/><path d="M176.716 45.458c-4.25 0-6.8-.425-10.34-2.265-3.966-2.123-5.95-4.67-4.958-8.35.567-1.698 1.275-3.82 2.408-5.944 0-.566 0-.99.142-1.415 0-.142-.142-.142-.142-.142-2.124 2.83-3.4 6.086-4.107 8.634-.71 2.972.99 6.086 4.957 8.35 3.257 1.84 7.507 2.83 11.756 2.83 1.7 0 2.974-1.274 3.824-2.123 0 0 0-.142-.142-.142-1.416.425-2.974.566-3.4.566z"/><path d="M176.433 47.44c-4.39 0-8.64-.99-12.04-2.972-3.966-2.265-5.807-5.52-5.1-8.775.708-2.406 1.983-5.803 4.108-8.775.14-.142.424-.283.566-.142.283.142.283.283.283.566-.14.425-.14.85-.14 1.415v.283c-.992 1.698-1.842 3.82-2.408 5.803-.99 3.255.567 5.66 4.816 7.926 3.4 1.84 6.1 2.123 10.197 2.265.567 0 1.983 0 3.4-.566.142 0 .425 0 .567.142a.43.43 0 0 1 0 .566c-1.275 1.274-2.55 2.264-4.25 2.264zm-13.03-18.965c-1.7 2.69-2.833 5.52-3.4 7.5-.708 2.83 1.133 5.803 4.816 7.926 3.116 1.84 7.223 2.83 11.614 2.83.99 0 1.983-.566 2.69-1.274-1.133.283-2.124.283-2.55.283-4.25 0-6.94-.425-10.48-2.264-4.533-2.406-6.09-5.237-5.1-8.775.566-2.123 1.416-4.105 2.408-5.944v-.283z"/></g><path d="M165.078 36.34c.104-1.325-.317-2.438-.94-2.488s-1.214.985-1.318 2.3.316 2.438.94 2.488 1.214-.985 1.32-2.3z" class="H"/><path d="M163.827 38.947c-.992 0-1.417-1.274-1.417-2.83.142-1.557.85-2.69 1.7-2.548.85 0 1.416 1.274 1.274 2.83 0 .708-.283 1.274-.566 1.84-.142.425-.567.708-.99.708zm.283-4.67c-.283 0-.85.708-.85 1.982-.142 1.132.283 1.98.567 1.98.14 0 .283-.142.566-.425a2.39 2.39 0 0 0 .425-1.415c0-1.274-.425-2.123-.708-2.123z" class="B"/><path d="M176.586 40.844a2.69 2.69 0 1 0-5.382-.038 2.69 2.69 0 1 0 5.382.038z" class="H"/><path d="M173.883 43.9c-1.7 0-2.974-1.415-2.974-3.114 0-.85.283-1.557.85-2.123s1.274-.85 2.124-.85c1.7 0 2.974 1.415 2.974 3.114 0 .85-.283 1.557-.85 2.123-.567.425-1.275.85-2.125.85zm0-5.378c-.567 0-1.133.283-1.558.708a2.34 2.34 0 0 0-.708 1.698c0 1.274.99 2.264 2.266 2.264.708 0 1.133-.283 1.558-.708a2.34 2.34 0 0 0 .708-1.698h0c0-1.274-.99-2.265-2.266-2.265z" class="B"/><path d="M181.107 73.198l-1.84-5.66c-.284-.708-.85-1.132-1.558-1.132-9.5.142-16.288-3.397-18.838-4.954-.708-.425-1.558-.283-2.124.283l-2.266 2.548c-1.417 1.698-2.55 3.538-2.975 5.66-3.116 11.89-.425 16.842-.283 16.984 1.275 1.132 2.69 2.264 4.39 3.255 6.798 3.963 16.288 5.52 25.21 4.812 2.124-5.944 1.84-13.163 1.416-17.126-.283-1.415-.567-2.972-1.133-4.67z" class="G"/><path d="M176.716 95.702c-7.932 0-15.438-1.84-21.245-5.095-1.7-.99-3.258-2.123-4.533-3.255V87.2c-.14-.14-2.832-5.237.284-17.125.566-2.123 1.558-4.105 3.116-5.803l2.266-2.548c.708-.708 1.7-.85 2.55-.425 2.408 1.557 9.065 5.095 18.554 4.954.85 0 1.7.566 1.983 1.415l1.84 5.66c.567 1.698.85 3.255 1.133 4.954.425 3.82.85 11.18-1.416 17.267l-.14.283h-.284c-1.416-.142-2.69-.142-4.107-.142zm-25.21-8.775c1.275 1.132 2.69 2.265 4.25 3.114 6.515 3.82 15.58 5.52 24.644 4.812 1.983-5.944 1.7-13.02 1.275-16.7-.142-1.557-.566-3.255-.99-4.812l-1.842-5.66c-.14-.566-.708-.85-1.133-.85-9.63.142-16.57-3.397-18.98-4.954-.566-.283-1.275-.283-1.558.283l-2.266 2.548c-1.416 1.698-2.408 3.538-2.974 5.52-2.833 11.04-.567 16.135-.425 16.7z" class="B"/><path d="M153.205 86.078c.47 0 .85-.507.85-1.132s-.38-1.132-.85-1.132-.85.507-.85 1.132.38 1.132.85 1.132z" class="E"/><path d="M153.204 86.502c-.708 0-1.133-.708-1.133-1.557s.567-1.557 1.133-1.557c.71 0 1.133.708 1.133 1.557.142.85-.424 1.557-1.133 1.557zm0-2.406c-.283 0-.425.283-.425.85 0 .425.284.85.425.85.284 0 .425-.283.425-.85.142-.566-.14-.85-.425-.85z" class="B"/><path d="M158.576 65.39c.294-.552.196-1.178-.218-1.398s-.99.05-1.283.6-.196 1.178.22 1.398.988-.05 1.282-.6z" class="E"/><path d="M157.595 66.546c-.14 0-.283 0-.424-.142-.284-.142-.567-.425-.567-.85 0-.283 0-.708.283-1.132.142-.283.425-.566.708-.85.284-.142.71-.142.992 0 .566.283.708 1.132.283 1.98-.142.283-.425.566-.708.85-.142.142-.425.142-.567.142zm.567-2.265h-.283l-.425.425c-.142.142-.142.425-.142.566 0 0 0 .283.142.283h.283l.425-.425c.283-.283.283-.708 0-.85z" class="B"/><path d="M177.848 93.012c.626 0 1.133-.507 1.133-1.132s-.507-1.132-1.133-1.132-1.133.507-1.133 1.132.507 1.132 1.133 1.132z" class="E"/><path d="M177.848 93.438c-.85 0-1.558-.708-1.558-1.557s.708-1.557 1.558-1.557 1.558.708 1.558 1.557-.708 1.557-1.558 1.557zm0-2.265c-.425 0-.85.425-.85.85s.425.85.85.85.85-.425.85-.85c0-.566-.425-.85-.85-.85z" class="B"/><path d="M176.43 71.64c.626 0 1.133-.507 1.133-1.132s-.507-1.132-1.133-1.132-1.133.507-1.133 1.132.507 1.132 1.133 1.132z" class="E"/><path d="M176.432 72.066c-.85 0-1.558-.708-1.558-1.557s.708-1.557 1.558-1.557S178 69.66 178 70.5a1.57 1.57 0 0 1-1.558 1.557zm0-2.406c-.425 0-.85.425-.85.85s.425.85.85.85.85-.425.85-.85c-.142-.566-.425-.85-.85-.85zm25.353-1.7c-4.957-2.406-4.957-9.483-4.957-9.766h.708s0 6.935 4.532 9.2l-.283.566zm-4.108-11.463h-.708c0-.142.14-2.548 1.558-4.388l.566.425c-1.274 1.557-1.416 3.963-1.416 3.963zM146.7 53.1c0-.142-.567-3.68 3.257-6.37l.425.566c-3.54 2.264-2.974 5.52-2.974 5.52l-.708.283zM177 27.907c-4.674 0-5.807-2.972-5.807-3.114l.708-.283c0 .142 1.133 3.114 6.1 2.548v.708c-.283.142-.708.142-1 .142zm7.222 64.823l-.142-.708c.142 0 7.507-1 13.314-4.53l.425.566c-6.1 3.68-13.597 4.67-13.597 4.67zm19.263-10.332l-.425-.566s1.275-1 1.7-3.114l.708.142c-.567 2.548-1.983 3.538-1.983 3.538zm-27.478 26.042c-7.223-.142-9.914-4.812-10.056-4.954l.708-.425s2.55 4.388 9.348 4.53v.85zm.425 14.72c-3.966 0-5.95-2.547-6.1-2.547l.567-.425c.14.142 2.266 2.7 6.373 2.265l.142.707c-.283-.14-.708 0-1 0zm-11.898-99.5l-.566-.566c.14-.142 4.4-4.387 11.472-5.095l.142.708c-6.8.85-11.048 4.954-11.048 4.954zm21.53 86.62l-.425-.708s4.957-2.972 7.08-7.926l.7.283c-2.125 5.237-7.082 8.2-7.365 8.35zm-10.623 37.364c-.142 0-.425 0-.567-.142-.85-.283-1.558-1.132-1.558-1.98 0-.566.142-1.84 1.842-2.7 3.4-1.84 4.532-5.096 4.532-5.096l.708.284c0 .14-1.275 3.396-4.957 5.52-.992.566-1.558 1.274-1.416 1.982 0 .566.566 1.132 1.133 1.415.283.142.708.142 1.133-.283l.566.425c-.425.424-.85.566-1.416.566zm2.56-.424c-.142-.566-.567-1-.992-1.274-.566-.283-1.133 0-1.133 0l-.283-.708s.85-.283 1.7.142c.566.283 1 .85 1.274 1.698l-.566.142zm-32.87-69.634l-.7-.142c0-.14 1.275-8.067 2.833-12.596l.708.283c-1.558 4.388-2.832 12.313-2.832 12.455zm37.25-58.17c-1.416-.566-4.816-.566-4.816-.566v-.708c.142 0 3.54.142 5.1.708l-.283.566zm-.282 92.278l-.142-.708s1.416-.424 2.974-1.132l.284.708-3.116 1.132z" class="B"/><path d="M123.166 58.73l2.66-4.09c.027-.037.006-.066-.028-.077l-4.92-.492c-.016.002-.035-.01-.037-.027l.517-9.16c-.93-1.84-9.16-6.34-11.218-6.454l-7.25 3.936c-.016.002-.034-.01-.037-.027l-2.41-4.296c-.02-.03-.07-.038-.082-.003l-2.634 4.052c-.383.566-.4 1.384.075 2.32l5.554 10.937c.93 1.84 3.382 3.425 5.423 3.542l12.27.664c1.003.053 1.752-.26 2.12-.825zM111.34 45.786c1.12.067 2.448.932 2.964 1.926l2.562 5.038-1.6-.156-.594.877-8.252-4.723.558-.903-1.278-2.29c-.02-.03.003-.082.038-.07l5.592.304z" class="G"/><path d="M121.888 60.042a4.23 4.23 0 0 1-.874.041l-12.27-.664c-2.22-.12-4.858-1.838-5.873-3.813L97.317 44.67c-.545-1.07-.56-2.095-.045-2.845l2.79-4.29.636-.003.19.28 2.182 3.876 6.95-3.774.15.01c2.236.118 10.653 4.75 11.652 6.727l.068.12-.507 8.817 4.755.47.3.556-.166.287-2.645 4.087c-.396.584-.976.937-1.74 1.058zm-21.542-21.036l-2.202 3.38c-.305.44-.27 1.07.106 1.792l5.554 10.937c.85 1.658 3.127 3.156 4.985 3.252l12.27.664c.788.038 1.39-.172 1.667-.6l2.226-3.433-4.423-.44-.228-.404.52-9.145c-1.1-1.684-8.53-5.755-10.58-6.033l-7.234 3.934-.43-.03-.19-.264-2.043-3.62zM114.747 54c-.095.015-.214-.015-.36-.106l-8.412-4.812-.052-.22c-.05-.22-.053-.236.35-.886.04-.055.064-.108.088-.16l-1.277-2.292.317-.572.357-.008 5.593.304c1.315.07 2.806 1.04 3.4 2.216l3 5.883-2.22-.22c-.024.053-.067.092-.107.147-.26.416-.445.7-.668.725zm-7.584-5.45l7.356 4.214.04-.055c.38-.582.45-.658.746-.64l.646.06-2.132-4.177c-.428-.845-1.574-1.593-2.527-1.637l-4.737-.26.864 1.542c.173.266.11.374-.256.953z" class="B"/><path d="M114.737 37.915l-12.286-.66c-2.04-.117-2.96 1.284-2.018 3.107l5.575 10.967c.926 1.825 3.345 3.398 5.386 3.515l12.286.66c2.04.117 2.96-1.284 2.017-3.107l-5.575-10.967c-.93-1.84-3.33-3.4-5.385-3.515zm5.28 11.78c.5.996.016 1.742-1.1 1.7L112.122 51c-1.1-.054-2.41-.906-2.912-1.902l-3.083-6.064c-.5-.996-.016-1.742 1.1-1.7l6.794.374c1.1.054 2.4.906 2.91 1.902l3.084 6.064z" class="E"/><g class="B"><path d="M124.523 55.99c-.27.043-.562.056-.874.04l-12.286-.66c-2.253-.116-4.8-1.782-5.82-3.788l-5.576-10.967c-.543-1.055-.57-2.045-.07-2.81.485-.745 1.402-1.135 2.587-1.062l12.286.66c2.253.116 4.8 1.782 5.82 3.788l5.576 10.967c.542 1.055.57 2.045.07 2.81-.354.545-.95.9-1.713 1.02zM101.77 37.8c-.46.073-.807.258-1.003.566-.276.42-.225 1.046.133 1.756l5.575 10.967c.832 1.645 3.106 3.127 4.948 3.226l12.286.66c.79.038 1.39-.172 1.667-.6s.225-1.046-.132-1.756l-5.575-10.967c-.832-1.645-3.106-3.126-4.948-3.226l-12.286-.66c-.247-.01-.474-.006-.665.024zm17.63 14.077c-.16.025-.337.037-.52.017l-6.794-.374c-1.3-.07-2.772-1.028-3.348-2.19l-3.084-6.064c-.33-.648-.334-1.284-.034-1.755.316-.474.895-.73 1.62-.68l6.794.374c1.3.07 2.772 1.028 3.35 2.19l3.083 6.064c.332.648.335 1.284.035 1.755-.236.363-.624.588-1.1.663zm-12.528-9.98c-.175.028-.327.1-.378.2-.09.145-.064.418.08.705l3.083 6.064c.426.83 1.553 1.563 2.474 1.613l6.795.374c.328.013.593-.06.684-.206s.064-.418-.082-.72l-3.083-6.064c-.426-.83-1.553-1.563-2.474-1.613l-6.794-.374c-.112.018-.2.017-.305.032z"/><path d="M107.828 53.443l-2.644 4.04.876.573 2.645-4.04-.877-.573zm7.432-11.39l-2.643 4.042.877.572 2.643-4.042-.877-.572zm-14.665-.92l-2.643 4.042.877.572 2.643-4.042-.877-.572zm20.475 13.82l-2.643 4.042.877.573 2.643-4.042-.877-.572z"/></g><path d="M258.172 64.007l-6.786-7.694 3.114-3.043c.84-.82-.337-2.928-1.99-3.575l-8.236-3.19c-.658-.25-1.314-.794-1.75-1.44L239.2 40.19l1.58-1.47c.267-.28-.4-3.8-.472-4.172-.064-.328-1.647-2.966-1.92-3.442-.023-.044-.08-.036-.097-.01l-4.46 4.538-.001.014a.91.91 0 0 0-.3.458l-1.25 5.012-5.44-3.32c-.026-.017-.055-.006-.086.02l-4.476 4.565c-.53.532-.292 1.73.76 2.762l7.275 7.032c.584.564.972 1.26 1.036 1.855l.824 7.492c.163 1.512 2.173 3.147 3.387 2.77l6.053-1.87c.477-.146 1.158.023 1.8.468l8.104 5.525c.913.626 1.708.64 2.14.265l4.518-4.574c.017-.026.022-.068-.003-.098z" class="H"/><path d="M252.69 69.377c-.415-.043-.9-.22-1.435-.583l-8.103-5.525c-.523-.348-1.078-.518-1.425-.414l-6.053 1.87c-.607.188-1.373.025-2.117-.472-1.02-.665-1.736-1.718-1.847-2.666l-.824-7.492c-.06-.495-.403-1.1-.897-1.575l-7.275-7.032c-.736-.72-1.165-1.56-1.168-2.33-.01-.434.14-.8.406-1.076l4.725-4.818.387.18 4.915 3 1.104-4.413a1.22 1.22 0 0 1 .231-.465l.175-.205 4.614-4.7.28.001c.166.017.296.115.38.25l1.974 3.587.028.13c.742 4.004.523 4.22.32 4.435l-1.302 1.22 3.118 4.545c.387.57.966 1.05 1.545 1.265l8.237 3.178c1.196.46 2.285 1.677 2.514 2.833.12.6-.007 1.13-.365 1.485l-2.817 2.74 6.497 7.384c.175.2.17.507-.017.697l-4.52 4.574c-.293.263-.73.44-1.284.383zm-10.502-7.452c.47.05.967.24 1.462.585l8.104 5.525c.743.51 1.344.517 1.576.304l4.25-4.294-6.835-7.755 3.424-3.333c.17-.164.16-.46.11-.66-.16-.757-.933-1.774-1.954-2.174l-8.236-3.192c-.738-.287-1.473-.88-1.97-1.603l-3.567-5.193.293-.263 1.487-1.382c.02-.194.003-.964-.494-3.7l-.027-.143c-.063-.202-.7-1.36-1.603-2.85l-3.926 3.993.01.03-.216.2c-.078.076-.127.14-.15.222l-1.412 5.6-.526-.32-5.176-3.166-4.258 4.35c-.125.127-.144.306-.143.432.001.39.24 1.045.9 1.687l7.275 7.032c.66.642 1.095 1.428 1.175 2.135l.824 7.492c.082.68.667 1.51 1.438 2.022.5.333 1.013.47 1.36.365l6.053-1.87a1.68 1.68 0 0 1 .75-.09z" class="B"/><path d="M241.5 32.44l5.52 8.05c.435.646 1.093 1.176 1.75 1.44l8.236 3.192c1.652.647 2.83 2.754 1.99 3.575l-4.187 4.078c-.328.33-.36.913-.08 1.57l3.533 8.194c.708 1.653-.617 2.423-2.25 1.317l-8.103-5.525c-.653-.445-1.32-.613-1.8-.468l-6.054 1.87c-1.213.377-3.223-1.258-3.387-2.77l-.824-7.492c-.063-.593-.452-1.29-1.036-1.855l-7.275-7.032c-1.46-1.4-1.37-3.203.162-3.016l7.594.903c.607.077 1.04-.185 1.175-.674l1.56-6.224c.317-1.294 2.386-.758 3.488.866z" class="E"/><g class="B"><path d="M257.237 64.777c-.457-.047-.968-.24-1.477-.587l-8.103-5.525c-.522-.362-1.078-.518-1.425-.414l-6.053 1.87c-.607.188-1.373.025-2.117-.472-1.02-.665-1.736-1.718-1.847-2.666l-.824-7.492c-.06-.495-.4-1.104-.897-1.575l-7.275-7.032c-1.015-.986-1.432-2.217-1.037-3.056.27-.56.87-.818 1.56-.746l7.595.903c.276.03.588-.01.678-.335l1.56-6.224c.14-.544.53-.9 1.084-1.005 1.012-.188 2.4.57 3.213 1.76l5.52 8.05c.387.57.966 1.05 1.545 1.265l8.236 3.2c1.196.46 2.285 1.677 2.513 2.833.12.6-.006 1.13-.365 1.485l-4.187 4.078c-.187.2-.174.597.015 1.064l3.533 8.194c.382.892.284 1.693-.266 2.138-.292.25-.707.346-1.177.297zm-10.532-7.44c.47.05.98.256 1.477.587l8.103 5.525c.744.5 1.344.517 1.575.318.213-.173.214-.58.002-1.1l-3.533-8.193c-.36-.834-.293-1.6.188-2.063l4.187-4.078c.17-.164.158-.445.1-.66-.16-.757-.933-1.774-1.954-2.174l-8.235-3.192c-.74-.286-1.474-.88-1.972-1.603l-5.518-8.05c-.68-.993-1.717-1.492-2.316-1.387a.41.41 0 0 0-.37.34l-1.56 6.224c-.174.723-.844 1.114-1.658 1.015l-7.595-.903c-.318-.033-.55.04-.638.227-.196.4.038 1.234.85 2.017l7.275 7.032c.66.628 1.095 1.428 1.175 2.135l.824 7.492c.082.68.667 1.5 1.44 2.008.5.333 1.027.47 1.36.365l6.053-1.87a2.92 2.92 0 0 1 .73-.022zm.212-3.22l-1.28-.33a1.74 1.74 0 0 1-1.116-1.094l-1.37-4.95c-.192-.705-.467-1.8-.985-1.402l-.474.384c-.273.2-.813.027-1.202-.405l-.675-.755c-.387-.445-.46-.956-.187-1.15l2.25-1.6c.12-.085.3-.1.494-.046l1.5.395A1.74 1.74 0 0 1 245 44.248l2.568 9.253c.106.458-.175.736-.65.617z"/><path d="M247.005 54.475a.79.79 0 0 1-.178-.032l-1.28-.33c-.598-.16-1.194-.74-1.356-1.33l-1.412-5.08c-.08-.302-.283-1.036-.442-1.122l-.46.4c-.412.334-1.146.132-1.672-.454l-.676-.755c-.31-.368-.464-.775-.427-1.12.023-.22.14-.405.306-.527l2.252-1.6c.197-.147.48-.187.78-.1l1.5.395c.6.16 1.195.74 1.357 1.33l2.568 9.253c.104.346.028.674-.175.876-.157.165-.402.238-.693.207zm.002-.684c.12.04.193.02.224-.005.017-.026.038-.094-.004-.224l-2.57-9.253c-.102-.36-.507-.765-.875-.86l-1.5-.395c-.123-.027-.193-.02-.2.006l-2.25 1.6c-.033.178.04.423.24.654l.676.755c.326.355.682.42.744.37l.473-.384c.26-.21.507-.17.615-.132.446.144.648.752.882 1.587l1.413 5.066c.102.36.507.766.875.86l1.278.343z"/><use xlink:href="#B"/><use xlink:href="#B" x="1.949" y="10"/><use xlink:href="#B" x="11.902" y="9.461"/><use xlink:href="#B" x="-7.858" y="-7.762"/><use xlink:href="#B" x="19.396" y="14.474"/><path d="M234.315 67.808a6.14 6.14 0 0 1-2.814-1.034 6.05 6.05 0 0 1-2.6-4.42l-.398-4.22a8.32 8.32 0 0 0-2.85-5.51l-3.938-3.387.6-.68 3.937 3.387a9.18 9.18 0 0 1 3.164 6.115l.397 4.22a5.2 5.2 0 0 0 2.207 3.765 5.14 5.14 0 0 0 4.3.727l2.678-.74.243.878-2.677.74a6.68 6.68 0 0 1-2.24.158zm25.133-8.905l-1.492-3.243a3.12 3.12 0 0 1 .727-3.613l2.164-1.982c.898-.83 1.317-2.03 1.108-3.238a3.58 3.58 0 0 0-2.109-2.693l-7.25-3.13.353-.83 7.25 3.13a4.46 4.46 0 0 1 1.252 7.41l-2.164 1.982c-.7.652-.918 1.693-.52 2.573l1.493 3.243-.8.4zM220.606 48.2c-1.584-1.437-1.617-3.522-1.622-3.606l.9-.017c-.001.014.052 1.78 1.328 2.947l-.616.676zm37.75 19.978l-.664-.6 2.686-2.962c.538-.6.7-1.435.438-2.2l-.593-1.683.856-.302.593 1.683a3.08 3.08 0 0 1-.63 3.092l-2.686 2.962z"/></g><path d="M135.428 80.863l-2.1-1.64c-.018-.01-.036 0-.045.018l-.494 2.664c0 .01-.01.018-.018.018l-4.978-.723c-1.042.423-3.894 4.702-4.053 5.813l1.8 4.137c0 .01-.01.018-.017.018l-2.463 1.11c-.018.01-.018.035-.01.044l2.092 1.632c.29.238.733.282 1.262.07l6.242-2.514c1.04-.423 2.03-1.676 2.19-2.796l.936-6.66c.088-.547-.053-.962-.344-1.19zm-7.628 5.84a2.17 2.17 0 0 1 1.192-1.526l2.87-1.156-.16.856.45.362-2.966 4.278-.46-.344-1.306.59c-.018.01-.045-.01-.036-.026l.415-3.035z" class="F"/><path d="M125.762 94.466c-.31 0-.583-.088-.804-.273l-2.207-1.73.027-.344.16-.088 2.225-1.006-1.73-3.97.01-.08c.168-1.21 3.1-5.593 4.23-6.043l.07-.027 4.794.697.477-2.576.317-.132.15.106 2.1 1.64c.39.3.548.82.46 1.464l-.935 6.66c-.168 1.21-1.227 2.567-2.366 3.026l-6.242 2.514c-.256.106-.503.16-.74.16zm-2.2-2.09l1.748 1.367c.23.185.574.194.98.026l6.242-2.514c.944-.38 1.87-1.56 2.012-2.567l.936-6.66c.062-.432-.026-.767-.247-.935l-1.774-1.376-.45 2.4-.238.106-4.97-.715c-.97.52-3.55 4.384-3.796 5.487l1.8 4.13-.027.238-.16.088-2.057.926zm3.805-2.276l-.3-.203.01-.194.433-3.035a2.39 2.39 0 0 1 1.368-1.747l3.355-1.35-.22 1.2c.026.018.053.035.07.062.31.247.442.362.3.573l-3.046 4.384-.124.018c-.123.018-.132.018-.45-.23-.026-.026-.062-.044-.088-.062l-1.307.582zm4.114-5.61l-2.392.962c-.477.194-.945.785-1.015 1.297l-.362 2.567.882-.397c.15-.07.203-.035.512.203l2.65-3.82c-.01-.01-.018-.018-.035-.026-.283-.22-.362-.29-.3-.485l.062-.3z" class="B"/><path d="M123.66 84.48l-.945 6.678c-.16 1.11.565 1.676 1.607 1.253l6.26-2.523c1.042-.423 2.013-1.66 2.172-2.77l.944-6.678c.16-1.11-.565-1.676-1.607-1.253l-6.26 2.523c-1.05.415-2.02 1.658-2.17 2.77zm6.683-2.32c.565-.23.953.08.865.68l-.52 3.696a2.12 2.12 0 0 1-1.174 1.5l-3.46 1.394c-.565.23-.953-.08-.865-.68l.52-3.696a2.12 2.12 0 0 1 1.174-1.5l3.46-1.394z" class="E"/><g class="B"><path d="M123.67 92.834c-.3 0-.565-.088-.777-.256-.388-.3-.547-.82-.46-1.464l.945-6.678c.177-1.217 1.2-2.54 2.348-3l6.26-2.523c.6-.238 1.148-.212 1.536.088s.548.82.46 1.464l-.944 6.678c-.168 1.217-1.2 2.54-2.348 3l-6.26 2.523a1.98 1.98 0 0 1-.76.168zm.274-8.32l-.945 6.678c-.06.432.027.767.248.935s.565.176.962.01l6.26-2.523c.936-.38 1.854-1.544 1.995-2.55l.945-6.678c.06-.432-.027-.767-.248-.935s-.565-.176-.962-.01l-6.26 2.523c-.944.38-1.854 1.553-1.995 2.55zm1.766 5.275c-.195 0-.362-.053-.504-.168-.247-.194-.353-.53-.3-.917l.52-3.696c.097-.706.697-1.464 1.35-1.73l3.46-1.394c.37-.15.715-.123.963.07s.353.53.3.917l-.52 3.696c-.097.706-.698 1.464-1.35 1.73l-3.46 1.394c-.16.062-.318.097-.46.097zm4.634-7.63l.106.265-3.46 1.394c-.468.194-.927.776-.998 1.28l-.52 3.696c-.026.176.01.326.08.388.08.062.22.053.388-.01l3.46-1.394a1.84 1.84 0 0 0 .997-1.279l.52-3.696c.027-.176-.01-.326-.08-.388-.08-.062-.22-.053-.39.01l-.106-.265z"/><path d="M132.186 88.534l-.354.45 2.084 1.633.354-.45-2.084-1.633zm-5.892-4.61l-.355.45 2.084 1.633.355-.45-2.084-1.633zm-1.18 7.982l-.354.45 2.084 1.633.354-.45-2.084-1.633zm8.517-10.525l-.354.45 2.084 1.633.354-.45-2.084-1.633z"/></g><g class="C"><use xlink:href="#C"/><use xlink:href="#D"/><use xlink:href="#E"/><path d="M141.39 139.506c-.12.07-.12.18 0 .248s.307.07.425 0 .12-.178 0-.248-.306-.07-.425 0z"/><use xlink:href="#F"/><use xlink:href="#G"/><use xlink:href="#H"/><use xlink:href="#I"/><path d="M136.038 136.587c-.166 0-.3-.078-.3-.173s.135-.173.3-.173.302.077.302.173-.135.173-.302.173zm-1.326-.94c-.118.07-.118.178 0 .247a.46.46 0 0 0 .426 0c.118-.07.118-.178 0-.247-.114-.064-.307-.064-.426 0zm-.9-.347c-.167 0-.302-.078-.302-.174s.135-.173.302-.173.3.078.3.173-.135.174-.3.174z"/><use xlink:href="#D" x="2.225"/><use xlink:href="#J"/><path d="M143.615 139.506c-.12.07-.12.18 0 .248s.306.07.425 0 .12-.178 0-.248-.307-.07-.425 0z"/><use xlink:href="#H" x="4.452" y="1.286"/><use xlink:href="#K"/><use xlink:href="#L"/><use xlink:href="#M"/><use xlink:href="#H" y="-1.277"/><path d="M136.938 135.647c-.12.07-.12.178 0 .247s.306.07.425 0 .12-.178 0-.247c-.12-.064-.306-.064-.425 0z"/><use xlink:href="#N"/><use xlink:href="#O"/><path d="M148.065 140.788c-.118.07-.118.178 0 .247s.307.07.426 0 .118-.178 0-.247a.49.49 0 0 0-.426 0zm-.9-.348c-.166 0-.302-.077-.302-.173s.136-.173.302-.173.302.078.302.173-.135.173-.302.173z"/><use xlink:href="#P"/><use xlink:href="#C" y="-2.567"/><use xlink:href="#N" x="7.789" y="3.217"/><use xlink:href="#H" x="4.452"/><use xlink:href="#Q"/><path d="M140.5 136.587c-.167 0-.302-.078-.302-.173s.135-.173.302-.173.302.077.302.173-.136.173-.302.173zm-1.327-.94c-.118.07-.118.178 0 .247s.307.07.426 0 .118-.178 0-.247h-.426zm10 4.498c-.118.07-.118.178 0 .247a.46.46 0 0 0 .425 0c.118-.07.12-.178 0-.247a.49.49 0 0 0-.425 0zm-1.108-.64c-.118.07-.118.18 0 .248s.307.07.426 0 .118-.178 0-.248a.46.46 0 0 0-.426 0z"/><use xlink:href="#R"/><use xlink:href="#S"/><use xlink:href="#C" y="-3.853"/><use xlink:href="#I" x="6.677"/><path d="M142.502 136.3c-.12.07-.12.178 0 .247s.306.07.425 0 .12-.178 0-.247h-.425z"/><use xlink:href="#M" x="11.122" y="2.573"/><path d="M149.386 139.155c-.167 0-.302-.078-.302-.173s.135-.173.302-.173.302.077.302.173-.136.173-.302.173zm-1.32-.935c-.118.07-.118.178 0 .247s.307.07.426 0 .118-.178 0-.247-.312-.07-.426 0z"/><use xlink:href="#L" x="6.676"/><use xlink:href="#P" y="-2.573"/><use xlink:href="#C" y="-5.13"/><path d="M151.41 138.853c-.12.07-.12.178 0 .248s.306.07.425 0 .12-.18 0-.248-.307-.064-.425 0z"/><use xlink:href="#N" x="14.47" y="3.207"/><use xlink:href="#T"/><path d="M148.07 136.928c-.12.07-.12.178 0 .248s.307.07.425 0 .12-.178 0-.248c-.113-.07-.306-.07-.425 0zm-1.107-.643c-.12.07-.12.178 0 .248s.306.07.425 0 .12-.18 0-.248-.312-.07-.425 0zm-1.113-.395c.12.07.307.07.425 0s.12-.178 0-.247l-.425.247zm6.67 2.3c-.118.07-.118.178 0 .247s.307.07.426 0 .118-.178 0-.247a.49.49 0 0 0-.426 0z"/><use xlink:href="#E" x="8.906" y="-2.577"/><use xlink:href="#U"/><path d="M149.183 136.285c-.12.07-.12.178 0 .248s.307.07.425 0 .12-.18 0-.248c-.113-.07-.306-.07-.425 0zm-.9-.345c-.167 0-.302-.078-.302-.173s.135-.174.302-.174.3.078.3.174-.135.173-.3.173z"/><use xlink:href="#V"/><use xlink:href="#W"/><use xlink:href="#H" x="12.246" y="-1.935"/><use xlink:href="#T" y="-2.572"/><use xlink:href="#F" x="12.244" y="-3.221"/><use xlink:href="#N" x="15.582" y="-0.004"/><path d="M150.296 134.355c-.12.07-.12.18 0 .248s.306.07.425 0 .12-.178 0-.248c-.114-.064-.307-.064-.425 0zm2.224 0c-.118.07-.118.18 0 .248s.307.07.426 0 .118-.178 0-.248a.5.5 0 0 0-.426 0zm-1.1-.643c-.12.07-.12.178 0 .248s.306.07.425 0 .12-.178 0-.248h-.425z"/><use xlink:href="#X"/><use xlink:href="#Y"/><use xlink:href="#D" x="-8.942" y="-0.104"/><use xlink:href="#J" x="-11.167" y="-0.103"/><use xlink:href="#Z"/><path d="M131.334 138.76c-.118.07-.118.178 0 .248s.307.07.426 0 .118-.18 0-.248-.312-.07-.426 0z"/><use xlink:href="#K" x="-11.168" y="-0.104"/><use xlink:href="#F" x="-11.166" y="-1.39"/><path d="M139.12 141.97c-.12.07-.12.178 0 .248s.306.07.425 0 .118-.18 0-.248-.307-.07-.425 0z"/><use xlink:href="#Y" x="2.227"/><path d="M137.106 140.98c-.167 0-.302-.078-.302-.173s.135-.174.302-.174.302.078.302.174-.135.173-.302.173z"/><use xlink:href="#a"/><use xlink:href="#Z" x="2.225"/><use xlink:href="#Q" x="-7.829" y="1.826"/><use xlink:href="#S" x="-13.392" y="-0.104"/><use xlink:href="#R" x="-15.618" y="-1.39"/><use xlink:href="#b"/><use xlink:href="#K" x="1.067" y="4.394"/><use xlink:href="#W" x="-10.065" y="5.685"/><use xlink:href="#c"/><path d="M139.12 140.684c-.12.07-.12.178 0 .247s.306.07.425 0 .118-.178 0-.247a.49.49 0 0 0-.425 0z"/><use xlink:href="#a" x="2.227"/><use xlink:href="#V" x="-15.628" y="2.475"/><use xlink:href="#d"/><use xlink:href="#S" x="-11.167" y="-0.104"/><use xlink:href="#J" x="-11.167" y="-2.67"/><use xlink:href="#e"/><path d="M131.334 136.186c-.118.07-.118.178 0 .247a.46.46 0 0 0 .426 0c.118-.07.118-.178 0-.247s-.312-.064-.426 0z"/><use xlink:href="#W" x="-7.84" y="5.685"/><path d="M142.457 141.327c-.12.07-.12.178 0 .248s.307.07.425 0 .12-.18 0-.248-.306-.064-.425 0z"/><use xlink:href="#D" x="-2.27" y="-0.104"/><use xlink:href="#f"/><use xlink:href="#I" x="2.18" y="2.47"/><use xlink:href="#d" x="2.227"/><use xlink:href="#G" x="-2.27" y="-0.104"/><use xlink:href="#a" y="-2.573"/><use xlink:href="#e" x="2.225"/><path d="M133.56 136.186c-.12.07-.12.178 0 .247s.307.07.425 0 .12-.178 0-.247-.31-.064-.425 0z"/><use xlink:href="#S" x="-13.392" y="-2.672"/><path d="M132.487 134.37c-.12.07-.12.178 0 .248s.307.07.425 0 .12-.178 0-.248c-.118-.064-.306-.064-.425 0zm-1.113-.643c-.118.07-.118.178 0 .247a.46.46 0 0 0 .426 0c.118-.07.118-.178 0-.247a.5.5 0 0 0-.426 0z"/><use xlink:href="#H" x="-7.788" y="-4.487"/><use xlink:href="#M" x="-10.015" y="-4.488"/><path d="M128.036 131.802c-.12.07-.12.178 0 .248s.307.07.425 0 .12-.178 0-.248-.306-.07-.425 0z"/><use xlink:href="#K" x="-14.467" y="-7.06"/><path d="M134.025 133.732c-.118-.07-.306-.07-.425 0s-.12.178 0 .247.307.07.425 0 .12-.183 0-.247z"/><use xlink:href="#K" x="-8.903" y="-5.13"/><path d="M131.374 132.445c-.118.07-.118.18 0 .248s.307.07.426 0 .118-.178 0-.248h-.426zm-1.112-.643c-.12.07-.12.18 0 .248s.306.07.425 0l-.425-.248zm-.688-.642c-.118-.07-.306-.07-.425 0s-.12.178 0 .247a.46.46 0 0 0 .425 0v-.247zm-21.617 3.116c-.12.07-.12.178 0 .248s.306.07.425 0 .12-.18 0-.248-.306-.07-.425 0z"/><use xlink:href="#R" x="-40.102" y="-5.23"/><use xlink:href="#S" x="-40.103" y="-5.22"/><path d="M114.634 136.844c-.12.07-.12.178 0 .248s.306.07.425 0 .12-.18 0-.248-.307-.064-.425 0zm-1.114-.644c-.12.07-.12.178 0 .248s.306.07.425 0 .12-.18 0-.248-.306-.064-.425 0zm-.9-.345c-.167 0-.302-.078-.302-.174s.135-.173.302-.173.3.078.3.173-.135.174-.3.174z"/><use xlink:href="#O" x="-23.417" y="0.555"/><use xlink:href="#X" x="-26.711" y="-7.694"/><use xlink:href="#H" x="-28.98" y="-3.944"/><use xlink:href="#g"/><path d="M106.85 132.346c-.118.07-.118.18 0 .248s.307.07.426 0 .118-.178 0-.248c-.12-.064-.312-.064-.426 0z"/><use xlink:href="#e" x="-26.711" y="-5.127"/><use xlink:href="#L" x="-21.192" y="0.553"/><use xlink:href="#U" x="-32.324" y="0.559"/><path d="M116.86 136.844c-.12.07-.12.178 0 .247s.306.07.425 0 .12-.178 0-.247a.48.48 0 0 0-.425 0z"/><use xlink:href="#c" x="-24.484" y="-5.127"/><use xlink:href="#H" x="-23.416" y="-2.014"/><path d="M113.52 134.92c-.12.07-.12.178 0 .248s.306.07.425 0 .12-.178 0-.248-.306-.07-.425 0zm-1.112-.644c-.12.07-.12.178 0 .248s.307.07.425 0 .12-.18 0-.248-.306-.07-.425 0z"/><use xlink:href="#F" x="-28.981" y="-5.23"/><use xlink:href="#F" x="-30.094" y="-5.863"/><use xlink:href="#E" x="-33.432" y="-7.797"/><use xlink:href="#Q" x="-33.432" y="-5.23"/><use xlink:href="#V" x="-45.672" y="-5.868"/><use xlink:href="#S" x="-40.103" y="-7.798"/><path d="M121.3 138.13c-.12.07-.12.178 0 .247a.46.46 0 0 0 .425 0c.12-.07.12-.178 0-.247a.46.46 0 0 0-.425 0zm-1.103-.643c-.12.07-.12.178 0 .248s.307.07.425 0 .12-.178 0-.248-.3-.07-.425 0z"/><use xlink:href="#c" x="-21.146" y="-4.483"/><path d="M117.972 136.2c-.12.07-.12.178 0 .248s.306.07.425 0 .12-.18 0-.248c-.12-.064-.307-.064-.425 0z"/><use xlink:href="#H" x="-21.19" y="-2.014"/><use xlink:href="#O" x="-18.966" y="0.555"/><use xlink:href="#W" x="-36.776" y="-2.009"/><use xlink:href="#g" x="5.563" y="0.633"/><use xlink:href="#K" x="-28.982" y="-5.22"/><use xlink:href="#h"/><use xlink:href="#h" x="-1.113" y="-0.643"/><use xlink:href="#H" x="-28.98" y="-6.512"/><use xlink:href="#g" y="-2.578"/><use xlink:href="#f" x="-33.382" y="-10.262"/><use xlink:href="#P" x="-40.103" y="-10.371"/><use xlink:href="#L" x="-16.741" y="0.553"/><use xlink:href="#I" x="-14.515" y="0.554"/><path d="M121.3 136.844c-.12.07-.12.178 0 .248s.306.07.425 0 .12-.18 0-.248-.3-.064-.425 0zm-1.103-.644c-.12.07-.12.178 0 .248s.307.07.425 0 .12-.18 0-.248-.3-.064-.425 0z"/><use xlink:href="#L" x="-21.192" y="-2.014"/><use xlink:href="#U" x="-32.324" y="-2.008"/><use xlink:href="#W" x="-34.55" y="-2.009"/><use xlink:href="#F" x="-24.53" y="-5.23"/><use xlink:href="#H" x="-23.416" y="-4.577"/><path d="M113.52 132.346c-.12.07-.12.18 0 .248s.306.07.425 0 .12-.178 0-.248c-.12-.064-.306-.064-.425 0z"/><use xlink:href="#b" x="-17.814" y="-5.127"/><use xlink:href="#F" x="-28.981" y="-7.798"/><path d="M110.395 130.714c-.167 0-.302-.078-.302-.173s.135-.174.302-.174.302.078.302.174-.135.173-.302.173z"/><use xlink:href="#E" x="-33.432" y="-10.365"/><path d="M107.957 129.135c-.12.07-.12.18 0 .248s.306.07.425 0 .12-.178 0-.248-.306-.07-.425 0zm-1.107-.643c-.118.07-.118.178 0 .248a.46.46 0 0 0 .426 0c.12-.07.118-.18 0-.248s-.312-.07-.426 0z"/><use xlink:href="#O" x="-10.069" y="3.122"/><path d="M123.535 136.844c-.118.07-.118.178 0 .248a.46.46 0 0 0 .426 0c.12-.07.118-.18 0-.248s-.312-.064-.426 0zm-1.112-.644c-.12.07-.12.178 0 .248s.306.07.425 0 .12-.18 0-.248-.312-.064-.425 0zm-1.123-.637c-.12.07-.12.178 0 .247a.46.46 0 0 0 .425 0c.12-.07.12-.178 0-.247a.46.46 0 0 0-.425 0zm-1.103-.643c-.12.07-.12.178 0 .248s.307.07.425 0 .12-.178 0-.248-.3-.07-.425 0z"/><use xlink:href="#X" x="-17.809" y="-7.694"/><use xlink:href="#H" x="-20.078" y="-3.944"/><use xlink:href="#H" x="-21.19" y="-4.577"/><path d="M115.746 132.346c-.118.07-.118.18 0 .248s.307.07.426 0 .118-.178 0-.248a.5.5 0 0 0-.426 0z"/><use xlink:href="#i"/><use xlink:href="#I" x="-23.417" y="-5.873"/><use xlink:href="#K" x="-28.982" y="-7.798"/><use xlink:href="#L" x="-28.981" y="-7.797"/><use xlink:href="#V" x="-42.339" y="-7.793"/><use xlink:href="#W" x="-42.34" y="-7.793"/><use xlink:href="#g" y="-5.15"/><path d="M125.97 137.14c-.166 0-.3-.078-.3-.173s.135-.173.3-.173.302.077.302.173-.135.173-.302.173zm-1.327-.94c-.118.07-.118.178 0 .248a.46.46 0 0 0 .426 0c.12-.07.118-.18 0-.248s-.307-.064-.426 0z"/><use xlink:href="#L" x="-16.741" y="-2.014"/><use xlink:href="#Z" x="-10.025" y="-4.482"/><path d="M121.3 134.276c-.12.07-.12.178 0 .248s.306.07.425 0 .12-.18 0-.248-.31-.07-.425 0z"/><use xlink:href="#C" x="-24.53" y="-7.797"/><use xlink:href="#F" x="-21.192" y="-5.863"/><use xlink:href="#i" x="3.338" y="0.643"/><use xlink:href="#i" x="2.226"/><path d="M115.746 131.065c-.118.07-.118.178 0 .247a.46.46 0 0 0 .426 0c.118-.07.118-.178 0-.247h-.426zm-2.913-1.93c-.12-.07-.307-.07-.425 0s-.12.18 0 .248.306.07.425 0v-.248zm-1.113-.643a.46.46 0 0 0-.426 0c-.12.07-.118.178 0 .248a.46.46 0 0 0 .426 0c.12-.07.118-.18 0-.248zm-1.538-.642c-.118.07-.118.178 0 .247a.46.46 0 0 0 .426 0c.118-.07.118-.178 0-.247h-.426zm18.24 9c-.12-.07-.307-.07-.425 0s-.12.178 0 .248.306.07.425 0 .114-.178 0-.248z"/><use xlink:href="#H" x="-11.17" y="-1.381"/><path d="M125.766 135.553c-.12.07-.12.178 0 .247s.307.07.425 0 .12-.178 0-.247a.49.49 0 0 0-.425 0z"/><use xlink:href="#J" x="-20.074" y="-5.234"/><use xlink:href="#h" x="12.245" y="1.92"/><use xlink:href="#R" x="-24.52" y="-5.235"/><use xlink:href="#C" x="-23.407" y="-8.445"/><use xlink:href="#L" x="-20.069" y="-5.235"/><use xlink:href="#P" x="-26.745" y="-7.808"/><path d="M129.53 136.196c-.12-.07-.306-.07-.425 0s-.12.178 0 .247a.46.46 0 0 0 .425 0c.12-.07.12-.178 0-.247zm-1.54-.643c-.12.07-.12.178 0 .247a.46.46 0 0 0 .425 0c.118-.07.12-.178 0-.247a.49.49 0 0 0-.425 0z"/><use xlink:href="#D" x="-16.735" y="-5.888"/><path d="M125.766 134.266c-.12.07-.12.18 0 .248s.307.07.425 0 .12-.178 0-.248c-.113-.064-.306-.064-.425 0z"/><use xlink:href="#T" x="-24.53" y="-3.944"/><use xlink:href="#G" x="-15.623" y="-5.235"/><use xlink:href="#f" x="-17.799" y="-7.699"/><path d="M121.32 131.698c-.12.07-.12.18 0 .248s.307.07.425 0 .12-.178 0-.248-.3-.07-.425 0zm9.322 3.855c-.12-.07-.307-.07-.425 0s-.12.178 0 .247a.46.46 0 0 0 .425 0c.12-.07.12-.178 0-.247z"/><use xlink:href="#D" x="-14.511" y="-5.888"/><use xlink:href="#b" x="-2.232" y="-2.564"/><use xlink:href="#H" x="-11.17" y="-3.949"/><use xlink:href="#T" x="-23.417" y="-4.587"/><use xlink:href="#T" x="-24.53" y="-5.23"/><path d="M123.54 131.7c-.118.07-.118.178 0 .247s.307.07.426 0 .118-.178 0-.247h-.426zm8.215 3.215a.46.46 0 0 0-.426 0c-.118.07-.118.178 0 .247s.307.07.426 0 .118-.183 0-.247z"/><use xlink:href="#i" x="15.583" y="2.563"/><use xlink:href="#g" x="21.147" y="0.628"/><use xlink:href="#K" x="-13.4" y="-5.235"/><use xlink:href="#H" x="-11.17" y="-5.235"/><path d="M125.766 131.698c-.12.07-.12.18 0 .248s.307.07.425 0 .12-.178 0-.248c-.113-.07-.306-.07-.425 0zm-19.614-3.844a.46.46 0 0 0-.426 0c-.12.07-.118.178 0 .247s.307.07.426 0 .118-.178 0-.247zm1.112-.638c-.118-.07-.306-.07-.425 0s-.118.178 0 .247a.46.46 0 0 0 .425 0c.118-.07.12-.183 0-.247z"/></g><path d="M106.942 124.86l2.537-.01c.015-.03.03-.06.04-.094v-1.896l.94.46.425-.44-1.8-1.034c-.337-.198-.337-.514 0-.707l2.843-1.638c.337-.193.886-.193 1.227 0l1.8 1.04c1.02-.35 2.112-.614 3.234-.777l-.014-1.474c-.005-.278.38-.5.86-.505l4.016-.015c.48 0 .87.223.87.5l.015 1.48c1.162.163 2.295.43 3.343.797l1.786-1.03c.336-.198.885-.198 1.226 0l2.84 1.642c.336.193.336.515 0 .708l-1.785 1.03.405.42.984-.545v1.985l2.493-.01c.48 0 .87.222.87.494l.03 2.32c.005.277-.38.5-.86.505l-2.537.01c-.282.682-.746 1.34-1.39 1.954l1.795 1.04c.336.198.336.515 0 .708l-2.844 1.637c-.336.193-.885.193-1.226 0l-1.786-1.034c-1.013.357-2.097.614-3.22.777l.015 1.455c.005.277-.38.5-.86.504l-4.016.015c-.48 0-.87-.222-.87-.5l-.015-1.45c-1.177-.163-2.32-.43-3.388-.802l-1.8 1.04c-.336.193-.885.193-1.226 0l-2.84-1.642c-.336-.193-.336-.515 0-.708l1.8-1.04c-.613-.59-1.063-1.212-1.345-1.86l-2.537.01c-.48 0-.87-.222-.87-.494l-.03-2.32c0-.277.386-.505.865-.505zm18.55-.93c-2.423-1.4-6.35-1.4-8.768 0-.82.475-1.365 1.05-1.627 1.653l.4.203 8.126 2.028 3.58-1.984c-.218-.697-.79-1.36-1.72-1.9z" class="D"/><path d="M119.198 135.315h.005l4.015-.014c.36 0 .693-.114.88-.307.108-.114.168-.243.168-.38l-.01-1.297a17.59 17.59 0 0 0 3.012-.732l1.716.995c.395.227 1.014.227 1.41 0l2.844-1.638c.223-.13.346-.317.346-.515s-.123-.386-.346-.514l-1.583-.916c.535-.544.94-1.123 1.207-1.73l2.414-.01c.36 0 .692-.12.88-.307.11-.114.168-.243.163-.38l-.03-2.32c-.005-.38-.465-.682-1.053-.682h-.005l-2.3.01v-2.112l-1.132.628-.14-.148 1.573-.91c.223-.128.346-.317.346-.514s-.128-.386-.346-.515l-2.84-1.643c-.395-.227-1.013-.227-1.41 0l-1.71 1c-.984-.337-2.038-.59-3.14-.757l-.014-1.32c-.005-.38-.465-.683-1.054-.683h-.005l-4.016.015c-.36 0-.692.114-.88.307-.11.113-.168.242-.168.38l.01 1.31c-1.063.163-2.082.4-3.027.732l-1.72-.995c-.395-.227-1.014-.227-1.41 0l-2.844 1.638c-.223.13-.346.317-.346.515s.123.386.346.514l1.578.916-.17.173-1.078-.525v2.098l-2.393.01c-.36 0-.693.12-.88.307-.108.114-.168.243-.163.38l.03 2.32c.005.38.465.678 1.053.678h.005l2.42-.01c.267.574.657 1.123 1.162 1.637l-1.588.916c-.222.128-.346.316-.346.514s.13.386.346.515l2.84 1.643c.396.227 1.014.227 1.41 0l1.726-1c.995.342 2.063.6 3.185.762l.01 1.292c.01.38.47.682 1.06.682zm8.105-3.142l-.08.03c-.99.346-2.062.604-3.185.767l-.158.025.015 1.618c0 .04-.02.08-.06.12-.12.118-.362.197-.62.197l-4.02.015c-.416 0-.678-.188-.683-.31l-.015-1.61-.158-.02c-1.182-.164-2.3-.43-3.353-.792l-.08-.03-1.875 1.084c-.28.163-.756.163-1.038 0l-2.84-1.643c-.1-.06-.163-.128-.163-.193s.06-.133.163-.193l2.013-1.162-.178-.174c-.59-.564-1.03-1.167-1.306-1.8l-.05-.11-2.66.01c-.415 0-.677-.183-.682-.31l-.03-2.32c0-.04.02-.08.06-.12.12-.118.36-.198.62-.198l2.66-.01.104-.277v-1.598l.796.39.094-.104.416-.43.178-.173-2.003-1.158c-.1-.06-.158-.13-.158-.193s.06-.134.163-.193l2.843-1.638c.282-.163.757-.163 1.04 0l1.865 1.08.08-.03c.994-.346 2.072-.604 3.2-.767l.16-.025-.015-1.637c0-.04.02-.08.06-.12.12-.12.36-.198.618-.198l4.02-.015c.415 0 .678.188.683.312l.014 1.637.16.02c1.167.164 2.28.43 3.308.787l.08.03 1.86-1.074c.282-.163.757-.163 1.038 0l2.84 1.643c.1.06.163.128.163.193s-.06.133-.163.193l-1.998 1.157.178.174.39.405.1.11.84-.465v1.86l2.685-.01c.415 0 .678.183.682.31l.03 2.32c0 .04-.02.08-.06.12-.12.118-.36.198-.618.198l-2.66.01-.05.113c-.277.668-.727 1.302-1.345 1.9l-.178.174 2.008 1.162c.1.06.158.13.158.193s-.06.134-.163.193l-2.844 1.638c-.28.163-.756.163-1.038 0l-1.855-1.08zm-3.645-4.166l3.774-2.088-.045-.143c-.237-.767-.86-1.46-1.8-2.004-2.468-1.425-6.488-1.425-8.956 0-.826.475-1.415 1.078-1.706 1.742l-.07.163.57.277 8.234 2.053zm3.324-2.266l-3.378 1.87-8.056-2.008-.208-.104c.277-.53.786-1.015 1.474-1.4 2.37-1.366 6.216-1.366 8.585 0 .8.465 1.346 1.034 1.583 1.652z" class="C"/><path d="M133.38 116.266v3.612l-4.312-.36.198-2.608 4.114-.643z" class="D"/><path d="M133.57 120.076v-3.736c0-.153-.14-.272-.292-.247l-4.184.653-.222 2.94 4.698.4zm-.37-3.592v3.2l-3.927-.327.173-2.276 3.754-.588zm-24.032 4.373c2.028 0 2.092-.316 2.117-.44.05-.208 1.004-1.78 1.87-3.152l.144-.222-4.63-1.005v4.82l.183.005.316-.005zm1.76-.55c-.173.114-1.053.183-1.894.178v-3.993l3.66.792-1.766 3.023z" class="C"/><path d="M115.345 117.775l5.762-1.83 6.424 2.736-.034 3.7-2.226 1.435h-.01c-2.36-1.232-5.95-1.232-8.308 0h-.01l-2.552-.673s-.425-1.534-.203-2.95l1.157-2.42z" class="D"/><path d="M116.92 123.994l.123-.02c2.32-1.212 5.816-1.212 8.136 0l.084.02h.054l.06-.03 2.31-1.5.035-3.923-6.598-2.81-5.905 1.875-1.206 2.54c-.228 1.44.188 2.963.207 3.028l.03.104 2.67.707zm4.19-1.296c-1.494 0-2.983.307-4.184.92l-2.38-.628c-.09-.356-.35-1.593-.178-2.74l1.112-2.32 5.62-1.786 6.246 2.657-.03 3.473-2.057 1.326c-1.192-.603-2.67-.9-4.15-.9z" class="C"/><path d="M106.943 121.23l2.577.663c.014-.03-.015 2.89 0 2.86v3.415l-2.537.01c-.48 0-.87-.222-.87-.494l-.03-5.943c-.005-.282.38-.51.86-.51z" class="D"/><path d="M106.978 128.36h.005l2.72-.01-.005-3.756.005-1.29c.005-1.56.005-1.56-.15-1.593l-2.616-.668c-.36 0-.692.12-.88.307-.11.113-.168.242-.163.38l.03 5.942c.005.39.465.688 1.054.688zm2.354-.38l-2.354.01c-.416 0-.678-.183-.683-.312l-.03-5.943c0-.04.02-.08.06-.118.114-.114.346-.193.593-.198l2.42.623-.005 1.262v4.676z" class="C"/><path d="M135.27 121.154l-2.582.663c-.015-.03.015 2.9 0 2.86v3.414l2.542.01c.48 0 .87-.222.876-.495l.03-5.942c0-.282-.386-.505-.865-.5z" class="D"/><path d="M135.237 128.284c.59 0 1.05-.297 1.054-.678l.03-5.947a.54.54 0 0 0-.163-.381c-.188-.193-.52-.307-.88-.312l-.045.005-2.58.663c-.15.03-.15.03-.14 1.58l.005 1.3h-.005v3.75l2.725.01zm.055-6.942c.247.005.48.084.593.198.04.04.06.08.06.12l-.03 5.947c0 .13-.267.312-.683.312h-.005l-2.36-.01-.02-3.226c.024-.188.02-.59.02-1.46l-.005-1.256 2.43-.624z" class="C"/><path d="M124.07 133.153c-.005 0 0 1.34 0 1.34v.124c-.005.272-.385.495-.86.495l-4.016.015c-.48 0-.87-.223-.87-.5v-5.31l5.746-.14v3.973z" class="D"/><path d="M119.19 135.316h.005l4.016-.015c.588 0 1.038-.292 1.043-.678v-5.626l-6.117.144v5.487c.005.386.465.688 1.053.688zm4.713-2.163c-.024.183-.02.56-.02 1.34v.124c0 .124-.268.312-.678.312l-4.02.014c-.415 0-.677-.188-.682-.31v-5.126l5.376-.13.024 3.775z" class="C"/><path d="M130.167 126.2l3.23-.08v5.304c0 .13-.084.258-.252.352l-2.844 1.637c-.336.193-.885.193-1.226 0l-1.786-1.034v-5.31l2.88-.87z" class="D"/><path d="M129.687 133.752a1.43 1.43 0 0 0 .702-.169l2.844-1.637c.218-.13.346-.312.346-.515v-5.2c0-.163-.133-.292-.297-.287l-3.175.084-3.016.9v5.552l1.88 1.09c.208.113.46.173.717.173zm3.52-7.437v5.11c0 .065-.06.134-.163.193l-2.844 1.638c-.282.163-.756.163-1.038 0l-1.697-.98v-5.062l2.725-.826 3.017-.074z" class="C"/><path d="M112.02 126.177l-3.23-.08v5.304c0 .128.084.257.252.35l2.844 1.638c.34.193.885.193 1.226 0l1.8-1.034v-5.31l-2.883-.87z" class="D"/><path d="M112.506 133.727c.252 0 .5-.06.707-.173l1.88-1.09v-5.55l-3.066-.92-3.096-.075c-.178-.005-.322.14-.322.317v5.17c0 .202.124.386.346.514l2.844 1.638c.198.11.45.168.707.168zm2.216-1.474l-1.696.98a1.16 1.16 0 0 1-1.039 0l-2.844-1.637c-.1-.06-.163-.13-.163-.193V126.3l3.012.075 2.725.826v5.062h.005z" class="C"/><path d="M111.938 114.193c.336-.193.885-.193 1.226 0l1.79 1.04a17.74 17.74 0 0 1 3.234-.777l-.015-1.475c-.005-.277.38-.5.86-.504l4.015-.015c.48 0 .87.223.87.5l.015 1.48a17.64 17.64 0 0 1 3.343.797l1.785-1.03c.336-.193.885-.193 1.227 0l2.838 1.642c.337.193.337.515 0 .708l-1.785 1.03c.613.59 1.063 1.212 1.345 1.86l2.537-.01c.48 0 .87.222.87.494l.034 2.32c.005.277-.38.5-.86.505l-2.537.01c-.282.683-.747 1.34-1.4 1.955l1.795 1.04c.337.198.337.515 0 .708l-2.843 1.637c-.337.193-.886.193-1.227 0l-1.785-1.034c-1.014.356-2.097.614-3.22.777l.015 1.455c.005.277-.38.5-.86.504l-4.016.015c-.48 0-.87-.222-.87-.5l-.014-1.45c-1.178-.164-2.32-.43-3.388-.802l-1.8 1.04c-.337.193-.886.193-1.227 0l-2.84-1.642c-.336-.193-.336-.515 0-.708l1.8-1.04c-.614-.59-1.064-1.212-1.346-1.86l-2.537.01c-.48 0-.87-.222-.87-.494l-.03-2.32c-.005-.277.38-.5.86-.505l2.537-.01c.282-.687.752-1.35 1.404-1.97l-1.8-1.034c-.336-.198-.336-.515 0-.708l2.844-1.637zm4.782 9.495c2.423 1.4 6.35 1.4 8.77 0s2.423-3.667 0-5.067-6.35-1.4-8.77 0-2.418 3.667 0 5.067z" class="D"/><path d="M106.988 120.788l2.537-.01c.282-.688.75-1.35 1.404-1.97l-1.8-1.034c-.336-.198-.336-.515 0-.708l2.844-1.637c.336-.193.885-.193 1.226 0l1.8 1.04a17.77 17.77 0 0 1 3.235-.777l-.015-1.475c-.005-.277.38-.5.86-.504l4.016-.015c.48 0 .87.222.87.5l.015 1.48c1.162.163 2.294.43 3.343.797l1.785-1.03c.336-.193.885-.193 1.227 0l2.838 1.643.015.693-1.8 1.04c.613.59 1.063 1.212 1.345 1.86l2.537-.01c.257 0 .485.065.643.164v3.013c-.153.09-.366.143-.603.143l-2.537.01c-.282.678-.747 1.34-1.4 1.955l1.795 1.04.01.698-2.853 1.647c-.337.193-.886.193-1.227 0l-1.785-1.034a20.12 20.12 0 0 1-3.433.841l.015 1.455c.005.277-.168.44-.648.44l-4.015.015c-.48 0-.87-.223-.87-.5l-.015-1.45c-1.177-.164-2.32-.43-3.387-.802l-1.8 1.04c-.337.193-.886.193-1.227 0l-2.84-1.643c-.336-.193-.336-.514 0-.707l1.8-1.04c-.614-.59-1.064-1.212-1.346-1.86l-2.537.01c-.316 0-.593-.094-.742-.242v-2.865c.16-.12.416-.208.708-.208zm9.782 4.137c2.423 1.4 6.35 1.4 8.768 0 2.424-1.4 2.424-3.667 0-5.067s-6.35-1.4-8.768 0-2.423 3.666 0 5.067z" fill="#fec"/><g class="C"><path d="M119.198 130.006h.005l4.015-.015c.36 0 .693-.113.88-.306.108-.114.168-.243.168-.38l-.01-1.297a17.59 17.59 0 0 0 3.012-.732l1.716.995c.395.227 1.014.227 1.41 0l2.844-1.638c.223-.13.346-.317.346-.515s-.123-.386-.346-.514l-1.583-.916c.535-.544.94-1.123 1.207-1.732l2.414-.01c.36 0 .692-.12.88-.307.11-.114.168-.243.163-.38l-.03-2.32c-.005-.38-.465-.683-1.053-.683h-.005l-2.418.01c-.267-.574-.658-1.123-1.163-1.638l1.573-.9c.223-.13.346-.317.346-.515s-.128-.385-.346-.514l-2.84-1.643c-.395-.227-1.013-.227-1.41 0l-1.71 1c-.984-.337-2.038-.59-3.14-.757l-.014-1.32c-.005-.38-.465-.683-1.054-.683h-.005l-4.016.015c-.36 0-.692.113-.88.306-.11.114-.168.243-.168.38l.01 1.312c-1.063.163-2.082.4-3.027.732l-1.72-.995c-.395-.227-1.014-.227-1.41 0l-2.844 1.638c-.223.13-.346.317-.346.515s.123.386.346.514l1.578.916c-.54.55-.95 1.133-1.222 1.746l-2.413.01c-.36 0-.693.12-.88.307-.108.114-.168.242-.163.38l.03 2.32c.005.38.465.677 1.053.677h.005l2.42-.01c.267.574.657 1.123 1.162 1.637l-1.588.916c-.222.128-.346.316-.346.514s.13.386.346.515l2.84 1.643c.396.227 1.014.227 1.41 0l1.726-1a17.65 17.65 0 0 0 3.185.762l.01 1.29c.005.39.465.688 1.054.688zm8.105-3.137l-.08.03c-.99.346-2.062.604-3.185.767l-.158.025.015 1.618c0 .04-.02.08-.06.118-.12.12-.36.198-.62.198l-4.02.015c-.416 0-.678-.188-.683-.312l-.015-1.608-.158-.02c-1.182-.164-2.31-.43-3.353-.792l-.08-.03-1.874 1.084c-.282.163-.757.163-1.04 0l-2.84-1.643c-.1-.06-.163-.13-.163-.193s.06-.134.163-.193l2.013-1.163-.178-.173c-.59-.564-1.03-1.168-1.306-1.8l-.05-.114-2.66.01c-.415 0-.677-.183-.682-.312l-.03-2.32c0-.04.02-.08.06-.12.12-.12.36-.198.62-.198l2.66-.01.05-.113c.277-.673.737-1.312 1.36-1.905l.178-.174-2.003-1.157c-.1-.06-.158-.13-.158-.193s.06-.134.163-.193l2.844-1.638c.28-.163.756-.163 1.038 0l1.865 1.08.08-.03c.994-.347 2.072-.604 3.2-.767l.16-.025-.015-1.638c0-.04.02-.08.06-.118.12-.12.36-.198.618-.198l4.02-.015c.416 0 .678.188.683.312l.014 1.637.16.02a17.56 17.56 0 0 1 3.308.787l.08.03 1.86-1.074c.282-.163.757-.163 1.038 0l2.84 1.643c.1.06.163.128.163.193s-.06.133-.163.193l-1.998 1.152.178.174c.59.56 1.03 1.167 1.306 1.8l.05.113 2.66-.01c.415 0 .678.183.682.31l.03 2.32c0 .04-.02.08-.06.12-.12.118-.36.197-.618.197l-2.66.01-.05.114c-.277.668-.727 1.3-1.345 1.9l-.178.173 2.008 1.163c.1.06.158.13.158.193s-.06.134-.163.193l-2.843 1.638c-.282.163-.757.163-1.04 0l-1.855-1.074zm-6.196-1.95c1.622 0 3.244-.356 4.475-1.07s1.91-1.667 1.91-2.692-.677-1.984-1.91-2.69c-2.468-1.425-6.488-1.425-8.956 0-1.23.712-1.91 1.667-1.91 2.69s.678 1.984 1.91 2.692 2.858 1.07 4.48 1.07zm0-7.165c1.553 0 3.1.342 4.292 1.024 1.113.644 1.726 1.485 1.726 2.37s-.613 1.732-1.726 2.37c-2.37 1.366-6.216 1.366-8.585 0-1.113-.643-1.726-1.484-1.726-2.37s.613-1.73 1.726-2.37c1.182-.677 2.74-1.024 4.293-1.024z"/><path d="M118.505 127.987v5.196l-3.783-.827v-5.165l3.783.796zm-6.058.268v5.284l-2.305-1.153-1.256-.8-.094-5.28 2.938 1.692.717.248zm17.22 0v5.284l-2.566-1.153v-5.314l2.566 1.183zm-7.78-10.658v5.284l2.552.485.82.44 1.72-1.162.45-1.732-1.498-2.232-4.046-1.083zm-.968-.025v5.245l-1.716.247v-5.383l1.716-.1zm-12.07-1.306v3.236s.703.227.92-.6c.084-.317 1.098-1.4 1.098-1.4l-2.018-1.247zm23.656 6.614h.35v1.9h-.35v-1.9zm-21.74 1.748l-1.43-1.747v2.642l1.43-.895z"/></g><path d="M132.26 132.218l1.756-.005.03-.064v-1.31l.648.316.297-.307-1.24-.717c-.233-.134-.233-.356 0-.5l1.973-1.133a.95.95 0 0 1 .85 0l1.242.717c.707-.247 1.464-.425 2.24-.534l-.01-1.02c0-.193.267-.347.6-.347l2.784-.01c.33 0 .603.153.603.346l.01 1.024c.806.114 1.588.297 2.32.554l1.236-.717c.233-.134.613-.134.85 0l1.968 1.138c.232.133.232.356 0 .5l-1.236.717.282.292.682-.376v1.366l1.73-.005c.33 0 .603.153.603.346l.02 1.608c0 .193-.267.347-.598.352l-1.756.004c-.193.47-.514.93-.964 1.356l1.24.718c.232.133.232.356 0 .49l-1.973 1.134a.96.96 0 0 1-.851 0l-1.24-.718c-.703.248-1.454.426-2.23.54l.01 1c0 .193-.267.346-.598.346l-2.785.01c-.33 0-.603-.153-.603-.346l-.01-1.005a12.46 12.46 0 0 1-2.349-.554l-1.246.723a.96.96 0 0 1-.851 0l-1.968-1.14c-.233-.133-.233-.356 0-.49l1.246-.723c-.425-.405-.737-.84-.935-1.29l-1.755.005c-.332 0-.604-.154-.604-.347l-.02-1.608c.005-.188.272-.34.603-.346zm12.858-.643c-1.676-.97-4.4-.97-6.078 0-.568.326-.944.727-1.127 1.148l.287.138 5.633 1.405 2.482-1.375c-.158-.48-.554-.94-1.197-1.316z" class="D"/><path d="M140.75 139.467l2.8-.01c.252 0 .48-.08.608-.213.074-.08.12-.168.114-.267l-.01-.896c.732-.113 1.434-.287 2.087-.51l1.187.687c.272.16.702.16.98 0l1.973-1.133c.154-.09.243-.217.243-.356s-.09-.267-.238-.356l-1.098-.633c.37-.376.648-.782.836-1.203l1.672-.005c.252 0 .48-.08.608-.213.074-.08.114-.168.114-.267l-.02-1.608c-.005-.267-.32-.47-.727-.47h-.005l-1.602.005v-1.464l-.787.435-.094-.104 1.093-.633c.154-.09.243-.218.243-.357s-.09-.267-.243-.356l-1.968-1.138c-.272-.158-.702-.158-.98 0l-1.187.688a12.49 12.49 0 0 0-2.176-.525l-.01-.915c-.005-.267-.322-.47-.727-.47l-2.79.01c-.253 0-.48.08-.61.213-.074.08-.118.168-.113.267l.01.9a12.34 12.34 0 0 0-2.097.505l-1.192-.693c-.272-.158-.703-.158-.98 0l-1.974 1.133c-.153.09-.242.218-.242.357s.09.267.237.356l1.093.633-.113.12-.747-.366v1.454l-1.657.005c-.252 0-.48.08-.608.213-.074.08-.114.168-.114.267l.02 1.608c.005.268.32.47.727.47h.005l1.676-.005c.188.395.455.776.806 1.133l-1.103.638c-.153.09-.242.218-.242.356s.09.267.242.356l1.97 1.138c.277.16.702.16.98 0l1.197-.692c.687.237 1.43.415 2.206.53l.01.896c0 .267.322.475.727.475zm5.62-2.177l-.055.02a12.14 12.14 0 0 1-2.206.535l-.108.015v1.123c0 .025-.015.054-.04.084-.084.084-.247.14-.425.14l-2.785.01c-.29 0-.474-.128-.474-.217l-.01-1.12-.11-.014c-.82-.114-1.603-.297-2.325-.55l-.054-.02-1.3.752c-.193.114-.524.114-.722 0l-1.968-1.138c-.07-.04-.114-.09-.114-.134s.04-.094.114-.134l1.395-.806-.124-.12c-.406-.39-.712-.81-.905-1.247l-.035-.08-1.844.005c-.287 0-.47-.13-.47-.218l-.02-1.608c0-.024.015-.054.04-.084.08-.084.247-.138.425-.138l1.845-.005.07-.193v-1.11l.554.273.064-.075.287-.297.124-.118-1.4-.807c-.07-.04-.114-.09-.11-.133s.04-.094.114-.134l1.973-1.133c.198-.114.524-.114.722 0l1.296.747.054-.02c.688-.237 1.434-.415 2.216-.53l.11-.015-.01-1.133c0-.025.015-.054.04-.084.084-.084.248-.14.426-.14l2.784-.01c.292 0 .475.13.475.218l.01 1.138.108.015c.807.114 1.583.297 2.295.544l.055.02 1.3-.742c.193-.114.525-.114.722 0l1.97 1.138c.07.04.113.09.113.133s-.04.094-.113.134l-1.385.802.124.118.272.282.07.08.583-.322v1.286l1.865-.01c.287 0 .47.128.47.217l.02 1.608c0 .025-.014.055-.04.084-.08.085-.247.14-.425.14l-1.845.005-.035.08c-.193.46-.504.9-.934 1.31l-.124.12 1.4.807c.07.04.113.09.108.133s-.04.094-.113.134l-1.974 1.133c-.197.114-.524.114-.722 0l-1.285-.747zm-2.528-2.885l2.617-1.45-.03-.1c-.163-.534-.6-1.014-1.25-1.4-1.71-1-4.496-1-6.207 0-.574.33-.98.747-1.182 1.207l-.05.114.395.193 5.707 1.425zm2.3-1.573l-2.34 1.296-5.584-1.4-.143-.075c.193-.366.544-.702 1.023-.98 1.642-.95 4.313-.945 5.95 0 .55.32.925.717 1.093 1.148z" class="C"/><path d="M150.583 126.266v2.5l-2.987-.248.133-1.81 2.854-.44z" class="D"/><path d="M150.7 128.908v-2.588c0-.1-.094-.188-.203-.173l-2.903.45-.153 2.04 3.26.272zm-.257-2.494v2.212l-2.72-.228.118-1.578 2.602-.406zm-16.655 3.033c1.404 0 1.45-.222 1.468-.307.035-.143.698-1.237 1.296-2.187l.1-.153-3.2-.698v3.34h.13l.218.005zm1.226-.38c-.12.08-.732.13-1.3.124v-2.766l2.537.55-1.227 2.093z" class="C"/><path d="M138.08 127.3l3.996-1.267 4.45 1.895-.025 2.563-1.543.995h-.01c-1.632-.856-4.124-.856-5.756 0h-.01l-1.77-.465s-.296-1.064-.138-2.044l.806-1.677z" class="D"/><path d="M139.173 131.62l.084-.015c1.607-.84 4.03-.84 5.638 0l.06.015h.04l.04-.02 1.602-1.03.025-2.72-4.575-1.95-4.095 1.302-.836 1.76c-.158 1 .13 2.054.144 2.098l.02.07 1.854.5zm2.903-.9c-1.033 0-2.067.212-2.898.638l-1.652-.435c-.06-.248-.242-1.11-.123-1.9l.77-1.61 3.897-1.237 4.328 1.84-.02 2.4-1.425.92c-.83-.416-1.854-.628-2.878-.628z" class="C"/><path d="M132.26 129.704l1.786.46c.01-.02-.01 2.004 0 1.98v2.365l-1.756.005c-.33 0-.604-.154-.604-.346l-.02-4.122c-.005-.183.262-.342.593-.342z" class="D"/><path d="M132.28 134.648l1.89-.01-.005-2.603.005-.895c.005-1.084.005-1.084-.104-1.104l-1.8-.465c-.252 0-.48.08-.608.213a.38.38 0 0 0-.114.267l.02 4.122c.005.267.32.475.727.475zm1.637-.268l-1.637.005c-.287 0-.47-.128-.47-.217l-.02-4.122c0-.025.015-.054.04-.084.08-.08.237-.134.4-.14l1.677.43v4.126z" class="C"/><path d="M151.894 129.655l-1.8.46c-.01-.02.01 2.004 0 1.98v2.366l1.76.005c.33 0 .603-.154.608-.347l.02-4.12c0-.188-.267-.342-.598-.342z" class="D"/><path d="M151.868 134.598c.406 0 .727-.208.732-.47l.02-4.122a.37.37 0 0 0-.114-.262c-.133-.134-.36-.213-.613-.213l-.035.005-1.8.46c-.104.02-.104.02-.094 1.094v3.503l1.894.005zm.04-4.814c.173.005.33.06.4.138.03.03.04.055.04.08l-.02 4.122c0 .09-.188.218-.475.218h-.005l-1.632-.005-.014-2.237c.014-.128.014-.406.014-1.014l-.005-.87 1.687-.43z" class="C"/><path d="M144.128 137.967c-.005 0 0 .93 0 .93v.09c-.005.188-.267.34-.598.346l-2.785.01c-.33 0-.603-.153-.603-.346v-3.677l3.986-.094v2.74z" class="D"/><path d="M140.746 139.467l2.79-.01c.41 0 .722-.203.727-.47v-3.9l-4.243.1v3.805c0 .267.32.475.727.475zm3.27-1.5c-.015.128-.015.386-.015.93v.09c0 .084-.183.213-.47.218l-2.784.01c-.292 0-.475-.13-.475-.218v-3.553l3.73-.09.015 2.613z" class="C"/><path d="M148.357 133.153l2.235-.054v3.676c0 .09-.06.178-.178.242l-1.973 1.133c-.232.134-.613.134-.85 0l-1.24-.717v-3.676l2.008-.604z" class="D"/><path d="M148.02 138.383c.178 0 .35-.04.49-.118l1.974-1.14c.153-.09.242-.217.242-.356v-3.607c0-.114-.094-.203-.203-.198l-2.2.06-2.092.633v3.85l1.305.758c.134.08.312.118.485.118zm2.443-5.155v3.542c0 .045-.04.094-.114.134l-1.973 1.138c-.198.114-.524.114-.722 0l-1.177-.683v-3.508l1.89-.574 2.097-.05z" class="C"/><path d="M135.78 133.134l-2.24-.055v3.677c0 .09.06.178.18.242l1.973 1.133a.95.95 0 0 0 .85 0l1.242-.717v-3.677l-2.003-.603z" class="D"/><path d="M136.112 138.368a1 1 0 0 0 .49-.118l1.305-.757v-3.85l-2.12-.638-2.147-.055c-.123-.004-.222.095-.222.218v3.583c0 .143.084.267.242.356l1.973 1.138c.13.084.307.123.48.123zm1.538-1.024l-1.177.683c-.193.114-.524.114-.722 0l-1.973-1.133c-.07-.04-.114-.09-.114-.134v-3.542l2.087.05 1.89.574v3.503h.01z" class="C"/><path d="M135.72 124.826c.232-.134.613-.134.85 0l1.24.717a12.19 12.19 0 0 1 2.24-.539l-.01-1.02c0-.193.267-.347.6-.347l2.784-.01c.33 0 .603.153.603.346l.01 1.024c.806.114 1.588.297 2.32.554l1.236-.717c.233-.134.613-.134.85 0l1.968 1.138c.233.133.233.356 0 .5l-1.236.717c.425.406.737.84.934 1.292l1.756-.005c.33 0 .603.153.603.346l.02 1.608c0 .193-.267.346-.598.35l-1.756.005c-.193.47-.514.93-.964 1.356l1.24.717c.233.134.233.357 0 .5l-1.973 1.133c-.233.134-.613.134-.85 0l-1.24-.717a11.98 11.98 0 0 1-2.231.539l.01 1c0 .193-.267.346-.598.346l-2.784.01c-.332 0-.604-.153-.604-.346l-.01-1.005a12.46 12.46 0 0 1-2.349-.554l-1.246.722c-.232.134-.613.134-.85 0l-1.968-1.138c-.232-.133-.232-.356 0-.5l1.246-.722c-.425-.406-.737-.84-.934-1.29l-1.756.005c-.33 0-.603-.154-.603-.347l-.02-1.608c0-.193.262-.346.598-.35l1.756-.005c.198-.475.524-.935.974-1.366l-1.24-.717c-.233-.134-.233-.356 0-.5l1.983-1.133zm3.313 6.58c1.677.97 4.402.97 6.078 0s1.677-2.544 0-3.513-4.4-.97-6.078 0-1.676 2.543 0 3.513z" class="D"/><path d="M132.29 129.398l1.755-.005c.198-.475.525-.935.975-1.366l-1.242-.717c-.232-.134-.232-.356 0-.5l1.974-1.138a.95.95 0 0 1 .85 0l1.24.717a12.2 12.2 0 0 1 2.241-.539l-.01-1.02c0-.193.267-.346.598-.346l2.785-.01c.33 0 .603.153.603.346l.01 1.024c.806.114 1.587.297 2.32.554l1.237-.712a.95.95 0 0 1 .85 0l1.97 1.138.01.485-1.247.727c.426.406.737.84.935 1.292l1.756-.005c.178 0 .336.044.445.113v2.088c-.11.06-.252.1-.416.1l-1.755.005c-.193.47-.515.93-.965 1.356l1.242.718.005.484-1.984 1.143a.95.95 0 0 1-.85 0l-1.242-.717a13.64 13.64 0 0 1-2.378.584v1.01c0 .193-.12.307-.45.307l-2.785.01c-.33 0-.603-.154-.603-.347l-.01-1.004a12.46 12.46 0 0 1-2.349-.554l-1.246.722c-.233.134-.614.134-.85 0l-1.968-1.138c-.233-.133-.233-.356 0-.5l1.246-.722c-.425-.406-.737-.84-.935-1.29l-1.756.005c-.217 0-.4-.07-.514-.17v-1.984c.12-.104.297-.163.5-.163zm6.78 2.87c1.677.97 4.402.97 6.078 0s1.677-2.544 0-3.513-4.4-.97-6.078 0-1.68 2.543 0 3.513z" fill="#fec"/><g class="C"><path d="M140.75 135.785l2.8-.01c.252 0 .48-.08.608-.213.074-.08.12-.168.114-.267l-.01-.896c.732-.114 1.434-.287 2.087-.5l1.187.688c.272.158.702.158.98 0l1.973-1.133c.154-.09.243-.218.243-.356s-.09-.267-.238-.356l-1.098-.634c.37-.376.648-.782.836-1.202l1.672-.005c.252 0 .48-.08.608-.213.074-.08.114-.168.114-.267l-.02-1.608c-.005-.267-.32-.47-.727-.47h-.005l-1.676.005c-.188-.396-.455-.777-.807-1.133l1.093-.63c.154-.09.243-.217.243-.356s-.09-.267-.243-.356l-1.968-1.138c-.272-.16-.702-.16-.98 0l-1.187.688a12.49 12.49 0 0 0-2.176-.525l-.01-.915c-.005-.267-.322-.47-.727-.47l-2.79.01c-.253 0-.48.08-.61.212-.074.08-.118.17-.113.267l.01.91a12.34 12.34 0 0 0-2.097.505l-1.192-.693c-.272-.158-.703-.158-.98 0l-1.974 1.133c-.153.09-.242.218-.242.356s.09.267.237.356l1.093.634c-.376.38-.657.787-.845 1.212l-1.672.005c-.252 0-.48.08-.608.213-.074.08-.114.168-.114.267l.02 1.608c.005.267.32.47.727.47h.005l1.676-.005c.188.396.455.777.806 1.133l-1.103.638c-.153.1-.242.218-.242.357s.09.267.242.356l1.97 1.138a1.07 1.07 0 0 0 .979 0l1.197-.693a12.14 12.14 0 0 0 2.206.53l.01.895c0 .263.322.465.727.465zm5.62-2.172l-.055.02a12.06 12.06 0 0 1-2.206.534l-.108.015v1.123c0 .025-.015.055-.04.085-.084.084-.247.138-.425.138l-2.785.01c-.29 0-.474-.13-.474-.218l-.01-1.118-.11-.015c-.82-.114-1.603-.297-2.325-.55l-.054-.02-1.3.752c-.193.114-.524.114-.722 0l-1.968-1.138c-.07-.04-.114-.09-.114-.133s.04-.094.114-.134l1.395-.806-.124-.12c-.406-.39-.712-.812-.905-1.247l-.035-.08-1.844.005c-.287 0-.47-.13-.47-.218l-.02-1.608c0-.025.015-.054.04-.084.08-.084.247-.14.425-.14l1.845-.005.034-.08c.193-.465.5-.9.945-1.32l.123-.12-1.39-.806c-.07-.04-.114-.09-.11-.134s.04-.094.114-.133l1.973-1.138c.198-.114.524-.114.722 0l1.296.747.054-.02c.688-.238 1.434-.416 2.216-.53l.11-.015-.01-1.133c0-.025.015-.055.04-.085.084-.084.248-.138.426-.138l2.784-.01c.292 0 .475.13.475.218l.01 1.138.108.015a12.14 12.14 0 0 1 2.295.544l.054.02 1.29-.743c.193-.113.525-.113.722 0l1.97 1.14c.07.04.113.09.113.133s-.04.094-.113.134l-1.385.8.124.12c.405.39.712.81.905 1.247l.034.08 1.845-.01c.287 0 .47.13.47.218l.02 1.608c0 .025-.014.054-.04.084-.08.084-.247.14-.425.14l-1.845.005-.035.08c-.193.46-.504.9-.934 1.31l-.124.12 1.4.806c.07.04.113.09.108.134s-.04.094-.113.133l-1.974 1.133c-.197.114-.524.114-.722 0l-1.285-.742zm-4.293-1.35c1.122 0 2.25-.247 3.106-.742s1.325-1.158 1.325-1.865c0-.713-.47-1.376-1.325-1.865-1.712-1-4.496-1-6.207 0-.856.494-1.325 1.157-1.325 1.865s.47 1.375 1.325 1.865 1.978.742 3.1.742zm0-4.962c1.078 0 2.156.237 2.977.712.772.446 1.197 1.03 1.197 1.643s-.425 1.197-1.197 1.643c-1.642.95-4.308.95-5.95 0-.772-.446-1.197-1.03-1.197-1.643s.425-1.197 1.197-1.643c.816-.48 1.894-.712 2.972-.712z"/><path d="M140.27 134.4v3.597l-2.62-.57v-3.582l2.62.554zm-4.192.173v3.667l-1.603-.802-.87-.55-.064-3.66 2.037 1.177.5.168zm11.932 0v3.667l-1.78-.802v-3.686l1.78.82zm-5.395-7.387v3.662l1.77.336.57.307 1.197-.807.307-1.197-1.034-1.55-2.8-.752zm-.668-.016v3.632l-1.192.173v-3.73l1.192-.074zm-8.367-.904v2.24s.485.16.638-.405c.06-.218.76-.97.76-.97l-1.4-.866zm16.4 4.582h.243v1.326h-.243v-1.326zm-15.07 1.212l-.994-1.212v1.83l.994-.618z"/><use xlink:href="#j"/><path d="M218.7 140.282c.2.122.2.314 0 .436s-.54.122-.75 0-.2-.314 0-.436a.81.81 0 0 1 .75 0zm1.587-.612c.294 0 .532-.136.532-.305s-.238-.306-.532-.306-.532.137-.532.306.238.305.532.305zm1.963-1.134c.294 0 .532-.137.532-.306s-.238-.305-.532-.305-.533.136-.533.305.24.306.533.306zm2.34-1.66c.2.122.2.314 0 .436a.81.81 0 0 1-.75 0c-.2-.122-.2-.314 0-.436.2-.114.54-.114.75 0zm1.587-.61c.294 0 .533-.137.533-.306s-.24-.306-.533-.306-.532.137-.532.306.238.306.532.306z"/><use xlink:href="#k"/><path d="M230.48 133.48c.2.122.2.315 0 .437s-.54.122-.75 0-.2-.315 0-.437.54-.122.75 0z"/><use xlink:href="#l"/><path d="M214.763 140.272c.21.123.21.315 0 .437s-.54.122-.75 0-.2-.314 0-.437c.2-.122.54-.122.75 0z"/><use xlink:href="#m"/><path d="M218.68 138.003c.2.122.2.314 0 .436s-.54.122-.75 0-.21-.314 0-.436a.81.81 0 0 1 .75 0z"/><use xlink:href="#j" x="3.909" y="-4.549"/><use xlink:href="#j" x="5.872" y="-5.684"/><use xlink:href="#n"/><path d="M226.535 133.463c.2.122.2.314 0 .436a.81.81 0 0 1-.75 0c-.2-.122-.2-.314 0-.436.2-.114.54-.114.75 0zm1.963-1.135c.2.122.2.314 0 .437a.82.82 0 0 1-.751 0c-.2-.123-.2-.315 0-.437.2-.113.54-.113.75 0z"/><use xlink:href="#l" x="-3.927"/><path d="M210.46 140.788c.294 0 .532-.137.532-.306s-.238-.305-.532-.305-.532.137-.532.305.238.306.532.306z"/><use xlink:href="#m" x="-3.919"/><path d="M214.763 138.003c.2.122.2.314 0 .436s-.54.122-.75 0-.2-.314 0-.436a.81.81 0 0 1 .75 0zm1.955-1.135c.2.122.2.314 0 .437a.82.82 0 0 1-.751 0l.75-.437zm1.212-1.135c.2-.122.54-.122.75 0s.2.314 0 .437-.54.122-.75 0v-.437zm1.964-1.135a.82.82 0 0 1 .751 0c.2.123.2.315 0 .437a.82.82 0 0 1-.751 0c-.2-.122-.2-.314 0-.437zm2.714-1.135c.2.122.2.314 0 .436a.81.81 0 0 1-.751 0c-.2-.122-.2-.314 0-.436h.75zm1.962-1.135c.2.122.2.315 0 .437s-.54.122-.75 0l.75-.437zm1.965-1.126c.2.122.2.314 0 .436a.82.82 0 0 1-.751 0l.75-.436zm-19.635 9.07c.2.123.2.315 0 .437s-.54.122-.75 0-.2-.314 0-.437c.2-.122.54-.122.75 0z"/><use xlink:href="#n" x="-15.699" y="4.54"/><path d="M204.57 139.653c.294 0 .532-.137.532-.306s-.238-.305-.532-.305-.532.136-.532.305.238.306.532.306zm2.33-1.65c.2.122.2.314 0 .436s-.54.122-.75 0-.2-.314 0-.436a.81.81 0 0 1 .75 0z"/><use xlink:href="#k" x="-25.533" y="3.387"/><path d="M204.946 136.868c.2.122.2.314 0 .437s-.54.122-.75 0-.2-.315 0-.437.54-.122.75 0z"/><use xlink:href="#j" x="-13.753" y="-5.684"/><path d="M231.692 132.363a.81.81 0 0 1 .75 0c.2.122.2.314 0 .436s-.54.122-.75 0c-.2-.122-.2-.323 0-.436zm2.714-1.135c.2.122.2.314 0 .437s-.54.122-.75 0-.2-.315 0-.437.55-.122.75 0zm1.964-1.135c.2.122.2.315 0 .437s-.54.122-.75 0-.2-.315 0-.437.55-.122.75 0zm-6.66 1.107a.82.82 0 0 1 .751 0c.2.123.2.315 0 .437a.82.82 0 0 1-.751 0c-.2-.122-.2-.314 0-.437zm2.723-1.124c.2.122.2.314 0 .437s-.54.122-.75 0-.2-.315 0-.437c.2-.114.54-.114.75 0zm1.964-1.126c.2.122.2.315 0 .437a.82.82 0 0 1-.751 0c-.2-.122-.2-.315 0-.437a.82.82 0 0 1 .751 0zm1.58-.62c.294 0 .532-.137.532-.306s-.238-.305-.532-.305-.533.136-.533.305.24.306.533.306zm-3.544-.516c.2.122.2.314 0 .437s-.54.122-.75 0l.75-.437z"/><use xlink:href="#n" x="9.825" y="-7.918"/><path d="M235.978 126.068c.294 0 .532-.137.532-.305s-.238-.306-.532-.306-.533.137-.533.306.24.305.533.305z"/><use xlink:href="#n" x="9.825" y="-10.188"/></g><path d="M233.01 123.32l-1.256.384a7.87 7.87 0 0 0-1.588-1.205c-3.44-2.008-8.64-2.226-11.615-.49l-12.138 7.054-3.674 1.118v2.916h.008c.053 1.3 1.004 2.663 2.837 3.728 3.438 2.008 8.64 2.226 11.614.49l13.805-8.032c1.327-.777 1.98-1.808 2.007-2.9v-3.073z" class="G"/><path d="M212.146 138.903c-2.365 0-4.843-.577-6.78-1.712-1.676-.977-2.775-2.2-3.037-3.518l-.01-.567v-3.222l3.927-1.187 12.104-7.03c3.09-1.807 8.482-1.58 12.033.49.567.332 1.065.7 1.492 1.092l1.562.192-.026 3.3c-.14 1.144-.907 2.165-2.2 2.916l-13.814 8.032c-1.414.812-3.3 1.214-5.262 1.214zm-8.997-5.972l.01.157c.044 1.205 1.004 2.445 2.627 3.388 3.316 1.938 8.342 2.156 11.196.488l13.813-8.032c1.152-.672 1.78-1.554 1.798-2.54v-2.523l-.96.288-.174-.175c-.41-.4-.917-.794-1.5-1.135-3.316-1.938-8.343-2.156-11.196-.49l-12.226 7.098-3.386 1.03v2.445z" class="C"/><path d="M231.004 126.374l-13.805 8.032c-2.976 1.738-8.177 1.52-11.615-.49s-3.814-5.046-.838-6.792l13.805-8.032c2.976-1.738 8.177-1.52 11.615.49 3.438 2.017 3.813 5.055.838 6.792z" class="D"/><path d="M230.166 121.18c-3.438-2.008-8.64-2.226-11.614-.49l-13.805 8.032c-1.03.603-1.65 1.362-1.894 2.183.314 1.074 1.222 2.148 2.723 3.02 3.438 2.008 8.64 2.226 11.614.49l13.805-8.032c1.03-.603 1.65-1.362 1.894-2.183-.305-1.074-1.222-2.148-2.723-3.02z" fill="#fec"/><path d="M212.146 135.986c-2.365 0-4.843-.576-6.78-1.71s-3.045-2.663-3.045-4.2c0-1.292.785-2.47 2.216-3.31l13.814-8.032c3.09-1.808 8.482-1.59 12.034.49 1.937 1.135 3.045 2.662 3.045 4.2 0 1.3-.785 2.47-2.216 3.31l-13.805 8.032c-1.414.82-3.3 1.222-5.262 1.222zm11.45-17.653c-1.815 0-3.543.367-4.835 1.126l-13.814 8.032c-1.16.68-1.806 1.598-1.806 2.593 0 1.23.96 2.506 2.635 3.484 3.316 1.938 8.343 2.156 11.196.49l13.814-8.032c1.16-.68 1.806-1.598 1.806-2.593 0-1.23-.96-2.506-2.635-3.484-1.815-1.065-4.154-1.615-6.36-1.615z" class="C"/><path d="M228.238 120.698c2.522 1.46 2.522 3.816 0 5.274s-6.606 1.458-9.12 0c-2.522-1.458-2.522-3.815 0-5.274 2.513-1.458 6.597-1.458 9.12 0z" class="G"/><path d="M223.674 127.37c-1.728 0-3.456-.375-4.765-1.135-1.352-.777-2.094-1.842-2.094-2.994s.742-2.2 2.094-2.995c2.627-1.52 6.903-1.52 9.538 0 1.353.777 2.094 1.842 2.094 2.995s-.74 2.2-2.094 2.994c-1.318.76-3.045 1.135-4.773 1.135zm0-7.447c-1.58 0-3.16.35-4.355 1.04-1.082.63-1.684 1.432-1.684 2.28 0 .838.594 1.65 1.684 2.278 2.4 1.4 6.3 1.4 8.7 0 1.082-.628 1.684-1.43 1.684-2.278 0-.838-.593-1.65-1.684-2.28-1.195-.7-2.775-1.04-4.354-1.04zm-9.216 15.662v2.706l2.357-.768 15.34-8.984 1.03-1.982-.296-2-15.02 9.446-3.412 1.572zm-2.478-.001v3.04l-2-.123v-3.082l2 .166z" class="C"/><defs ><path id="B" d="M235.208 48.224l-4.52 4.602.645.633 4.52-4.602-.645-.633z"/><path id="C" d="M144.727 141.43c-.12.07-.12.178 0 .247s.307.07.425 0 .12-.178 0-.247-.31-.07-.425 0z"/><path id="D" d="M143.615 140.788c-.12.07-.12.178 0 .247s.306.07.425 0 .12-.178 0-.247a.49.49 0 0 0-.425 0z"/><path id="E" d="M142.714 140.44c-.166 0-.3-.077-.3-.173s.135-.173.3-.173.302.078.302.173-.135.173-.302.173z"/><path id="F" d="M140.276 138.863c-.118.07-.118.178 0 .247a.46.46 0 0 0 .426 0c.118-.07.118-.178 0-.247s-.307-.07-.426 0z"/><path id="G" d="M139.163 138.22c-.118.07-.118.178 0 .247s.307.07.426 0 .118-.178 0-.247-.307-.07-.426 0z"/><path id="H" d="M138.05 137.577c-.12.07-.12.178 0 .247s.306.07.425 0 .12-.178 0-.247-.307-.07-.425 0z"/><path id="I" d="M137.15 137.23c-.166 0-.3-.077-.3-.173s.135-.173.3-.173.302.077.302.173-.135.173-.302.173z"/><path id="J" d="M144.94 140.44c-.167 0-.302-.077-.302-.173s.135-.173.302-.173.3.078.3.173-.135.173-.3.173z"/><path id="K" d="M141.39 138.22c-.12.07-.12.178 0 .247s.307.07.425 0 .12-.178 0-.247-.306-.07-.425 0z"/><path id="L" d="M140.276 137.577c-.118.07-.118.178 0 .247s.307.07.426 0 .118-.178 0-.247a.46.46 0 0 0-.426 0z"/><path id="M" d="M139.163 136.933c-.118.07-.118.18 0 .248s.307.07.426 0 .118-.178 0-.248-.307-.07-.426 0z"/><path id="N" d="M136.038 135.3c-.166 0-.3-.078-.3-.174s.135-.173.3-.173.302.078.302.173-.135.174-.302.174z"/><path id="O" d="M134.712 134.365c-.118.07-.118.178 0 .248s.307.07.426 0 .118-.178 0-.248-.307-.07-.426 0z"/><path id="P" d="M145.84 139.506c-.12.07-.12.18 0 .248s.306.07.425 0 .12-.178 0-.248-.312-.07-.425 0z"/><path id="Q" d="M141.602 137.23c-.167 0-.302-.077-.302-.173s.135-.173.302-.173.3.077.3.173-.135.173-.3.173z"/><path id="R" d="M146.952 138.863c-.118.07-.118.178 0 .247a.46.46 0 0 0 .426 0c.118-.07.118-.178 0-.247s-.312-.07-.426 0z"/><path id="S" d="M145.84 138.22c-.12.07-.12.178 0 .247s.306.07.425 0 .12-.178 0-.247-.312-.07-.425 0z"/><path id="T" d="M149.183 137.572c-.12.07-.12.178 0 .247s.307.07.425 0 .12-.178 0-.247c-.113-.07-.306-.07-.425 0z"/><path id="U" d="M150.296 136.928c-.12.07-.12.178 0 .248s.306.07.425 0 .12-.178 0-.248-.307-.07-.425 0z"/><path id="V" d="M152.734 137.225c-.167 0-.302-.077-.302-.173s.135-.173.302-.173.302.077.302.173-.135.173-.302.173z"/><path id="W" d="M151.41 136.285c-.12.07-.12.178 0 .248s.306.07.425 0 .12-.18 0-.248-.307-.07-.425 0z"/><path id="X" d="M136.893 141.97c-.118.07-.118.178 0 .248s.307.07.426 0 .118-.18 0-.248-.307-.07-.426 0z"/><path id="Y" d="M135.78 141.327c-.12.07-.12.178 0 .248s.306.07.425 0 .12-.18 0-.248c-.114-.064-.307-.064-.425 0z"/><path id="Z" d="M132.448 139.402c-.12.07-.12.178 0 .248s.306.07.425 0 .12-.178 0-.248-.312-.07-.425 0z"/><path id="a" d="M135.78 140.046c-.12.07-.12.178 0 .247s.306.07.425 0 .12-.178 0-.247c-.114-.07-.307-.07-.425 0z"/><path id="b" d="M130.222 136.83c-.12.07-.12.18 0 .248s.307.07.425 0 .12-.178 0-.248c-.118-.064-.306-.064-.425 0z"/><path id="c" d="M140.23 141.327c-.118.07-.118.178 0 .248s.307.07.426 0 .118-.18 0-.248a.5.5 0 0 0-.426 0z"/><path id="d" d="M135.78 138.76c-.12.07-.12.178 0 .248s.306.07.425 0 .12-.18 0-.248c-.114-.07-.307-.07-.425 0z"/><path id="e" d="M132.448 136.83c-.12.07-.12.18 0 .248s.306.07.425 0 .12-.178 0-.248c-.12-.064-.312-.064-.425 0z"/><path id="f" d="M140.444 140.337c-.167 0-.302-.077-.302-.173s.135-.173.302-.173.302.078.302.173-.135.173-.302.173z"/><path id="g" d="M107.957 133c-.12.07-.12.178 0 .247s.306.07.425 0 .12-.178 0-.247-.306-.07-.425 0z"/><path id="h" d="M111.295 132.346c-.118.07-.118.18 0 .248s.307.07.426 0 .118-.178 0-.248c-.114-.064-.307-.064-.426 0z"/><path id="i" d="M114.634 131.703c-.12.07-.12.18 0 .248s.306.07.425 0 .12-.178 0-.248c-.12-.064-.307-.064-.425 0z"/><path id="j" d="M216.736 141.417c.21.122.21.314 0 .437a.82.82 0 0 1-.751 0c-.21-.123-.21-.315 0-.437a.82.82 0 0 1 .751 0z"/><path id="k" d="M228.516 134.616c.21.122.21.314 0 .436a.82.82 0 0 1-.751 0c-.21-.122-.21-.314 0-.436a.81.81 0 0 1 .751 0z"/><path id="l" d="M212.8 141.4c.21.122.21.314 0 .436a.81.81 0 0 1-.751 0c-.21-.122-.21-.314 0-.436a.87.87 0 0 1 .751 0z"/><path id="m" d="M216.343 139.653c.294 0 .533-.137.533-.306s-.24-.305-.533-.305-.532.136-.532.305.238.306.532.306z"/><path id="n" d="M224.572 134.598c.21.123.21.315 0 .437a.82.82 0 0 1-.751 0c-.21-.122-.21-.314 0-.437a.82.82 0 0 1 .751 0z"/></defs></svg>