<svg xmlns="http://www.w3.org/2000/svg" width="360" height="304" fill="none" xmlns:v="https://vecta.io/nano"><style><![CDATA[.B{fill:#001e20}.C{fill:#150035}.D{fill:#ffc856}.E{fill:#fff}.F{fill:#ff513f}.G{stroke-width:1.051}]]></style><g fill="#007550"><path d="M0 0h360v304H0z"/><path d="M0 0h360v66.5L145.386 239.522 0 0l94 43L0 59.5v180.022L360 304H0l360-58L323 0H0z" style="mix-blend-mode:screen" opacity=".1"/></g><g class="C"><path d="M149.84 132.213l-4.626-2.7 4.626-.16.585.476.4 1.43-.995.953z"/><path d="M149.898 132.7l.292-.265 1.113-1.11-.06-.212-.468-1.588-.117-.053-.703-.582h-.234l-4.86.16-.175.53.292.16 4.92 2.964zm.468-1.588l-.586.582-3.22-1.905 3.162-.106.35.264.293 1.165z"/></g><path d="M142.05 108.605l14.404-7.516c.82-.424 1.58-.477 2.107-.212l4.684 2.647s.06.053 0 .053c-.234.37-2.166 4.075-2.342 4.764l-1.405 6.405v1.64c0 .9-.35 1.958-.995 2.858l-1.405 6.458-6.617 2.01h-.468s-.06-.053 0-.053l.35-.952c.117-.424.176-.953.176-1.43l-6.206 6.247h-.06l-4.567-2.54s-.06 0-.06-.053c-.526-.318-.878-.9-.878-1.8v-13.657c.176-1.747 1.58-3.97 3.28-4.87z" class="D"/><path d="M144.45 131.896c.117 0 .293-.053.352-.16l5.328-5.346c0 .053 0 .106-.06.212l-.35.9c-.06.212 0 .423.234.53l.117.053h.644l6.91-2.117.06-.212c0-.053.644-2.964 1.347-6.405.644-1.006.995-2.064.995-3.017v-1.64l1.405-6.352c.117-.53 1.58-3.282 2.284-4.71.117-.212 0-.424-.176-.53l-4.684-2.593c-.76-.318-1.64-.265-2.576.21l-14.404 7.517c-1.873.953-3.337 3.335-3.337 5.24v13.604c0 .953.35 1.747 1.054 2.118l4.625 2.593c.06.106.117.106.234.106zm6.734-7.675l-6.792 6.828-4.333-2.435c-.4-.264-.644-.794-.644-1.482v-13.604c0-1.64 1.347-3.758 2.928-4.605l14.403-7.516c.644-.37 1.288-.424 1.698-.212l4.39 2.435c-.585 1.058-2.05 3.917-2.225 4.552l-1.405 6.405v1.694c0 .794-.35 1.8-.878 2.647l-.06.158-1.346 6.247-6.148 1.852.176-.476c.117-.477.175-1.006.234-1.482v-1.006z" class="C"/><path d="M142.11 108.605l13.642-7.146 6.792 3.864-14.638 6.987-3.044.424-4.684-2.488a6.08 6.08 0 0 1 1.932-1.641z" class="E"/><path d="M144.804 113.158l3.337-.477 15.282-7.304-7.612-4.34-13.876 7.252c-.703.37-1.406 1.006-2 1.747l-.234.317 5.094 2.806zm2.986-1.218l-2.8.424-4.157-2.223c.47-.53.937-.9 1.464-1.165l13.467-7.04 5.972 3.388-13.935 6.616zm-8.707 1.65l4.667 2.535-.453.68-4.667-2.535.453-.68zm.132 9.787l4.667 2.535-.453.68-4.667-2.535.453-.68z" class="C"/><path d="M161.08 103.683l-14.403 7.516c-1.698.9-3.103 3.07-3.103 4.87v13.657c0 1.8 1.405 2.54 3.103 1.64l1.64-.847c.293-.16.527-.053.586.212.175.794.82 2.33 3.162 1.43.468-.16.82-.794.702-1.218-.175-.476-.35-1.164-.35-1.958 0-.37.293-.794.644-.953l8.02-4.182c1.698-.9 3.104-3.07 3.104-4.87v-13.656c0-1.8-1.347-2.54-3.104-1.64z" class="D"/><g class="C"><path d="M150.775 132.797c.4 0 .937-.106 1.464-.318.644-.264 1.112-1.11.936-1.694-.117-.423-.292-1.058-.292-1.852a.8.8 0 0 1 .41-.636l8.02-4.18c1.874-.953 3.337-3.282 3.337-5.188V105.27c0-1.005-.4-1.8-1.112-2.17s-1.64-.318-2.635.212L146.5 110.83c-1.874.953-3.338 3.282-3.338 5.188v13.657c0 1.005.4 1.8 1.113 2.17s1.64.318 2.634-.212l1.64-.847c.117.583.468 1.324 1.23 1.747.293.212.645.265.996.265zm11.7-29.114a1.06 1.06 0 0 1 .585.159c.47.212.703.74.703 1.482v13.657c0 1.694-1.288 3.706-2.927 4.552l-8.022 4.182c-.468.265-.82.794-.82 1.324 0 .9.176 1.588.352 2.064.058.16-.176.635-.47.74-.76.265-1.346.318-1.756.106-.527-.265-.76-.9-.82-1.27-.058-.264-.234-.423-.4-.53-.234-.106-.527-.053-.82.053l-1.64.847c-.703.37-1.347.423-1.756.212-.47-.212-.703-.74-.703-1.482v-13.657c0-1.694 1.288-3.706 2.927-4.553l14.404-7.57c.4-.212.82-.318 1.17-.318z"/><path d="M138.948 125.703l4.567 2.54v1.852l.293 1.112-4.04-2.276-.762-.9-.117-1.006.06-1.323zm-50.763 15.9l-5.396-3.15 5.396-.186.683.556.478 1.668-1.16 1.1z"/><path d="M88.253 142.15l.34-.31 1.298-1.297-.068-.247-.546-1.853-.137-.06-.82-.68h-.273l-5.67.186-.205.617.342.185 5.738 3.46zm.546-1.853l-.683.68-3.757-2.223 3.69-.123.4.31.34 1.358z"/></g><path d="M79.097 114.05l16.804-8.77c.956-.494 1.844-.556 2.46-.247l5.465 3.088s.068.062 0 .062c-.273.432-2.527 4.755-2.732 5.558l-1.64 7.472v1.915c0 1.05-.4 2.285-1.16 3.334l-1.64 7.535-7.72 2.346h-.546s-.068-.06 0-.06l.4-1.112c.137-.494.205-1.112.205-1.667l-7.24 7.287h-.068l-5.328-2.965s-.068 0-.068-.06c-.615-.37-1.025-1.05-1.025-2.1V119.73c.205-2.038 1.844-4.632 3.825-5.682z" class="D"/><path d="M81.9 141.223c.137 0 .34-.062.4-.186l6.216-6.237c0 .062 0 .124-.068.247l-.4 1.05c-.068.247 0 .494.273.617l.137.062h.75l8.06-2.47.068-.247c0-.062.75-3.458 1.57-7.472.75-1.174 1.16-2.41 1.16-3.52v-1.914l1.64-7.41c.136-.617 1.844-3.83 2.664-5.496.136-.247 0-.494-.205-.617l-5.465-3.027c-.888-.37-1.913-.308-3.006.247l-16.804 8.77c-2.186 1.11-3.894 3.9-3.894 6.114v15.87c0 1.11.4 2.038 1.23 2.47l5.397 3.026c.068.124.137.124.273.124zm7.856-8.955l-7.924 7.967-5.055-2.84c-.478-.31-.75-.927-.75-1.73v-15.872c0-1.914 1.57-4.384 3.415-5.372l16.804-8.77c.75-.432 1.503-.494 1.98-.247l5.123 2.84c-.683 1.235-2.39 4.57-2.596 5.31l-1.64 7.473v1.976c0 .926-.4 2.1-1.025 3.088l-.068.185-1.57 7.287-7.172 2.16.205-.555c.137-.556.205-1.174.273-1.73v-1.173z" class="C"/><path d="M79.167 114.05l15.916-8.337 7.924 4.508-17.077 8.152-3.552.494-5.465-2.903c.615-.802 1.435-1.482 2.254-1.914z" class="E"/><path d="M82.3 119.36l3.894-.556 17.828-8.522-8.88-5.064-16.2 8.46c-.82.432-1.64 1.173-2.323 2.038l-.273.37 5.943 3.273zm3.484-1.42l-3.28.494-4.85-2.594c.546-.617 1.093-1.05 1.708-1.36l15.7-8.213 6.967 3.952-16.257 7.72zm-10.147 1.926l5.445 2.958-.53.793-5.445-2.958.53-.793zm.163 11.418l5.445 2.958-.53.794-5.445-2.96.53-.793z" class="C"/><path d="M101.3 108.307l-16.804 8.77c-1.98 1.05-3.62 3.582-3.62 5.68V138.7c0 2.1 1.64 2.965 3.62 1.915l1.913-.988c.342-.186.615-.062.683.247.205.926.956 2.717 3.69 1.667.547-.185.956-.926.82-1.42-.205-.556-.4-1.36-.4-2.285 0-.432.34-.927.75-1.112l9.36-4.878c1.98-1.05 3.62-3.582 3.62-5.682V110.22c0-2.1-1.57-2.964-3.62-1.914z" class="D"/><g class="C"><path d="M89.277 142.273c.478 0 1.093-.124 1.708-.37.75-.308 1.298-1.296 1.093-1.976-.137-.494-.342-1.235-.342-2.16a.93.93 0 0 1 .478-.741l9.358-4.88c2.186-1.112 3.894-3.83 3.894-6.052V110.16c0-1.173-.478-2.1-1.298-2.532s-1.913-.37-3.074.247l-16.804 8.77c-2.186 1.112-3.894 3.83-3.894 6.052v15.933c0 1.174.478 2.1 1.298 2.532s1.913.37 3.074-.247l1.913-.988c.137.68.546 1.544 1.435 2.038.34.247.75.31 1.16.31zm13.662-33.966c.274 0 .48.062.683.186.547.247.82.864.82 1.73v15.933c0 1.976-1.503 4.323-3.415 5.31l-9.36 4.878c-.546.31-.956.927-.956 1.544 0 1.05.205 1.853.4 2.41.068.185-.205.74-.547.864-.888.31-1.57.37-2.05.124-.615-.31-.888-1.05-.956-1.482-.068-.31-.273-.494-.478-.618-.273-.123-.615-.062-.956.062l-1.913.988c-.82.432-1.57.494-2.05.247-.546-.247-.82-.865-.82-1.73V122.82c0-1.976 1.503-4.323 3.416-5.31l16.804-8.83c.478-.247.957-.37 1.366-.37z"/><path d="M75.478 133.997l5.328 2.964v2.16l.342 1.297-4.713-2.655-.888-1.05-.137-1.173.068-1.544zM107.05 88.87l-4.818-2.812 4.818-.165.6.496.427 1.5-1.037.993z"/><path d="M107.11 89.366l.305-.276 1.16-1.158-.06-.22-.488-1.654-.122-.055-.732-.606h-.244l-5.062.165-.183.55.305.165 5.123 3.088zm.488-1.654l-.6.606-3.354-1.985 3.293-.1.366.276.305 1.213z"/></g><path d="M98.938 64.278l15.004-7.83c.854-.44 1.647-.496 2.196-.22l4.88 2.757s.06.055 0 .055c-.244.386-2.257 4.246-2.44 4.962l-1.464 6.672v1.71c0 .937-.365 2.04-1.036 2.977l-1.464 6.727-6.892 2.095h-.488s-.06-.055 0-.055l.366-.992a5.89 5.89 0 0 0 .183-1.489l-6.465 6.506h-.06L96.5 85.507s-.06 0-.06-.055c-.55-.33-.915-.937-.915-1.875V69.35c.183-1.82 1.647-4.136 3.415-5.073z" class="D"/><path d="M101.438 88.54c.122 0 .305-.055.366-.165l5.55-5.57c0 .055 0 .1-.06.22l-.366.937c-.06.22 0 .44.244.55l.122.055h.67l7.197-2.206.06-.22c0-.055.67-3.088 1.402-6.672.67-1.048 1.037-2.15 1.037-3.143v-1.71l1.464-6.617c.122-.55 1.647-3.42 2.38-4.907.122-.22 0-.44-.183-.55l-4.88-2.702c-.792-.33-1.707-.276-2.683.22l-15.004 7.83c-1.952.993-3.476 3.474-3.476 5.46v14.17c0 .993.366 1.82 1.098 2.206l4.818 2.702c.06.1.122.1.244.1zm7.014-7.995l-7.075 7.113-4.513-2.536c-.427-.276-.67-.827-.67-1.544v-14.17c0-1.71 1.403-3.915 3.05-4.797l15.004-7.83c.67-.386 1.342-.44 1.768-.22l4.575 2.536c-.6 1.103-2.135 4.08-2.318 4.742l-1.464 6.672v1.765c0 .827-.366 1.875-.914 2.757l-.06.166-1.403 6.506-6.404 1.93.183-.496c.122-.496.183-1.048.244-1.544v-1.048z" class="C"/><path d="M99 64.278l14.2-7.444 7.075 4.025-15.247 7.278-3.172.44-4.88-2.592a6.34 6.34 0 0 1 2.013-1.709z" class="E"/><path d="M101.805 69.02l3.477-.496 15.918-7.6-7.93-4.52-14.454 7.554c-.732.386-1.464 1.048-2.074 1.82l-.244.33 5.306 2.922zm3.1-1.268l-2.928.44-4.33-2.316c.488-.55.976-.937 1.525-1.213L113.2 57.33l6.22 3.53-14.515 6.892zm-9.067 1.718l4.86 2.64-.472.708-4.86-2.64.472-.708zm.132 10.195l4.862 2.64-.472.708-4.862-2.64.472-.708z" class="C"/><path d="M118.76 59.15l-15.004 7.83c-1.77.937-3.232 3.198-3.232 5.073v14.226c0 1.875 1.463 2.647 3.232 1.71l1.708-.882c.305-.165.55-.055.6.22.183.827.854 2.426 3.293 1.49.488-.165.854-.827.732-1.268a5.98 5.98 0 0 1-.366-2.04c0-.386.305-.827.67-.992l8.356-4.356c1.768-.937 3.232-3.198 3.232-5.073V60.858c0-1.875-1.403-2.647-3.232-1.71z" class="D"/><g class="C"><path d="M108.025 89.477c.427 0 .976-.1 1.525-.33.67-.276 1.158-1.158.975-1.764-.122-.44-.305-1.103-.305-1.93 0-.22.183-.55.427-.662l8.356-4.356c1.952-.993 3.476-3.42 3.476-5.404V60.804c0-1.048-.426-1.875-1.158-2.26s-1.708-.33-2.745.22l-15.004 7.83c-1.95.993-3.476 3.42-3.476 5.404v14.226c0 1.048.427 1.875 1.16 2.26s1.708.33 2.744-.22l1.708-.882c.122.606.488 1.38 1.28 1.82.305.22.67.276 1.037.276zm12.198-30.327a1.11 1.11 0 0 1 .61.165c.488.22.732.772.732 1.544v14.226c0 1.764-1.342 3.86-3.05 4.742l-8.356 4.356c-.487.276-.853.827-.853 1.38 0 .937.183 1.654.366 2.15.06.165-.183.662-.488.772-.793.276-1.403.33-1.83.1-.55-.276-.793-.937-.854-1.323-.06-.276-.244-.44-.427-.55-.244-.1-.55-.055-.854.055l-1.708.882c-.73.386-1.402.44-1.83.22-.488-.22-.732-.772-.732-1.544V72.108c0-1.764 1.342-3.86 3.05-4.742l15.004-7.885c.427-.22.854-.33 1.22-.33z"/><path d="M95.705 82.088l4.758 2.647v1.93l.305 1.158-4.21-2.37-.793-.937-.122-1.048.06-1.378z"/></g><g stroke="#000" stroke-miterlimit="10" class="G"><path d="M226.193 94.693l-20.686-12.936L249.92 59.56c.313-.147 3.848-1.855 4.026-5.484.125-2.53-1.453-4.555-2.482-5.836-.97-1.202-4.303-4.983-12.44-6.365-6.676-1.128-11.86.148-14.887.957-4.15 1.12-7.104 2.6-8.15 3.13l-38.184 19.01-18.34-11.997 42.905-21.314a72.95 72.95 0 0 1 13.983-5.038c5.077-1.266 11.43-2.833 19.82-2.018 8.283.812 14.438 3.556 19.95 6.002 7.066 3.148 12.705 6.754 16.703 9.6 1.315 1.083 4.854 4.29 6.635 9.915.598 1.87 2.062 7.49.023 12.72-1.63 4.202-4.86 6.175-6.51 7.156-7.2 4.306-24.1 13.385-46.78 24.686z" class="D"/><path d="M273.415 83.905l-46.764 24.653-.45-13.85 38.425-19.933 13.027-8.018 2.793-11.507-1.44 20.692c-.116 1.4-.487 3.306-1.764 5.02-1.416 1.885-3.283 2.65-3.828 2.942zM188.8 72.525l-5.386 2.168-6.457 2.53-.6-12.728 44.68-20.936c6-2.3 11.16-2.492 14.523-2.3 0 0 6.632.403 13.26 4.177 1.3.738 2.903 1.802 4.13 3.982 1.113 1.987 1.428 4.033 1.515 5.235-.06.546-.328 2.195-1.7 3.593-1.8 1.846-4.14 1.84-4.552 1.83-.158-.492-.494-1.4-1.207-2.247-.987-1.157-2.067-1.443-2.467-1.532a39.84 39.84 0 0 0-7.359-1.125c-2.688-.147-4.48-.033-7.148.294-2.93.35-7.108 1.136-11.95 3.023L188.8 72.525z" fill="#0a261d"/><g class="E"><path d="M176.873 78.214L159.908 66.86 159.46 53l16.847 11.008.567 14.195zm48.68 31.57V94.456c-7.555-5.135-17.267-12.792-19.58-13.1v14.9c8.948 6.092 8.948 6.768 19.58 13.537z"/><path d="M175.797 63.928l-16.34-10.917 12.67-6.675 18.097 11.34-14.427 6.25zm14.476 8.665l-13.53 5.617-.466-14.43 13.43-5.842.566 14.655zm48.304 29.744c-4.394 2.242-8.15 5.195-12.557 7.446-.206-4.636.205-10.5-.001-15.146l13.082-6.844c.248 4.677-.772 9.867-.524 14.543z"/><path d="M226.596 94.572l-21.057-13.15 12.67-6.674 20.898 13.023-12.512 6.802z"/></g><path d="M277.64 66.744l-7.95 4.89c-10.42 6.22-20.654 11.56-30.587 16.148L218.207 74.76l19.452-9.068 12.257-6.13c2.44-.464 4.324-2.156 4.628-4.437.273-2.05-.75-3.92-1.477-5.253-1.725-3.13-4.127-4.535-5.3-5.106l15.67-10.02c1.946.673 4.847 1.956 7.97 4.495 1.902 1.54 4.834 3.91 6.61 7.46 4.115 8.246.098 18.87-.365 20.046z" class="F"/></g><path d="M204.252 67.817l.77 1.454-26.5 12.502-.77-1.454 26.5-12.503zM179.05 57.15l1.64-.128.43 14.563-1.64.128-.43-14.563z" fill="#000"/><path d="M229.543 87.604l1.21-.677.428 14.563-1.64.127V87.604z" class="B"/><g class="E"><path d="M262.466 76.73l-.382 11.893 4.535-2.444.382-11.893-4.535 2.444zm8.47-4.56v12.2l2.462-1.3.001-12.335-2.463 1.423z" stroke="#000" class="G"/><path d="M108.24 100.227c3.145-5.07 6.464-2.448 7.163-1.923 0 0 .175 0 .175-.175.7-1.4 4.018-7.868 7.163-6.47l5.24 2.797v.175l-3.67 6.295-4.892 13.288 1.398.35v2.797c0 .175-.175.175-.175.175l-5.066-2.798-6.465-5.07s-4.717-2.973-.873-9.442z"/></g><path d="M120.646 118.41c.174 0 .35 0 .35-.175.175-.175.35-.35.35-.7v-3.322l-1.05-.35 4.543-12.59 3.844-6.47v-.35c0-.175-.175-.35-.35-.524l-5.24-2.798c-1.223-.525-2.97-.7-5.416 2.273-1.05 1.4-1.922 2.798-2.446 3.847a4.71 4.71 0 0 0-3.32-.874c-1.572.175-2.97 1.4-4.193 3.322-4.193 6.994 1.048 10.316 1.048 10.49l6.465 5.07 5.066 2.797c0 .35.175.35.35.35zm-.524-2.972v1.224l-4.194-2.273-6.29-5.07c-.175-.175-4.193-2.798-.7-8.568 1.048-1.573 2.096-2.622 3.32-2.797 1.398-.175 2.62.7 2.796 1.05l.175.175h.35c.175 0 .524-.175.524-.525.35-.525 1.223-2.623 2.62-4.196 1.048-1.224 2.446-2.623 3.67-1.923l4.542 2.623-3.494 5.945-5.067 13.988 1.748.35z" class="B"/><path d="M113.306 103.724s2.272-.174 2.62 0c.35 0 5.416 2.1 5.416 2.1l.7 1.748-2.446 6.994 1.398.35v2.797c0 .175-.175.175-.175.175l-5.067-2.798-6.464-5.07s-4.368-2.798-1.223-8.917l5.24 2.622z" class="F"/><path d="M120.82 118.41c.175 0 .35 0 .35-.175.175-.174.35-.35.35-.7v-3.322l-.873-.175 2.27-6.47-.874-2.273-.174-.175-5.59-2.273h-2.62l-5.766-3.147-.35.7c-3.494 6.47 1.398 9.792 1.398 9.792l6.464 5.07 5.067 2.798c0 .35.175.35.35.35zm-.524-2.972v1.224l-4.193-2.273-6.3-5.07c-.174-.175-3.67-2.448-1.223-7.343l4.892 2.622h.175c1.048 0 2.27-.174 2.62 0 .35 0 2.97 1.224 4.892 2.1l.524 1.224-2.62 7.343 1.223.175z" class="B"/><path d="M119.772 100.752l-4.018-2.273v-.175c.35-.7 1.223-2.623 2.62-4.196l5.24 2.972 1.572 2.973-.524 1.05-.7 2.098-1.747 1.4-2.446-3.847z" class="F"/><path d="M121.695 105.822l2.62-2.098.874-2.273.7-1.224-1.747-3.497-5.94-3.497-.35.525c-1.223 1.574-2.27 3.497-2.62 4.37-.175.35 0 .525 0 .7v.35l4.193 2.273 2.272 4.37zm1.397-2.972l-.873.7-1.747-3.322-3.844-2.098c.35-.7 1.048-1.923 1.922-3.147l4.542 2.623 1.05 2.448-.525.874-.524 1.924z" class="B"/><path d="M113.484 103.2c3.145-5.07 6.464-2.448 7.163-1.923 0 0 .175 0 .175-.175.7-1.4 4.018-7.868 7.163-6.47 3.844 1.923-.873 10.316-.873 10.316l-6.3 12.414-.175.175-6.464-5.07c.174.175-4.543-2.798-.7-9.267z" class="F"/><g class="B"><path d="M120.647 118.587h.35c.175 0 .524-.175.524-.524l6.3-12.414c.175-.175 3.32-5.945 2.27-9.267-.35-.874-.873-1.574-1.747-2.098-1.048-.525-2.97-.525-5.416 2.273-1.048 1.4-1.922 2.798-2.446 3.847a4.71 4.71 0 0 0-3.319-.874c-1.573.175-2.97 1.4-4.194 3.322-4.193 6.994 1.05 10.316 1.05 10.5l6.64 5.245zm6.464-23.254c.175 0 .35 0 .7.175.524.175.874.7 1.05 1.224.698 2.273-1.224 6.645-2.097 8.218l-5.94 11.9-5.766-4.546c-.175-.175-4.193-2.798-.7-8.568 1.048-1.573 2.097-2.622 3.32-2.797 1.397-.175 2.62.7 2.795 1.05l.175.175h.35c.175 0 .524-.175.524-.525.35-.524 1.223-2.623 2.62-4.196.874-1.05 1.922-2.098 2.97-2.098zm-4.08 10.567l1.242.64-3.527 6.835-1.243-.64 3.528-6.836z"/><path d="M122.043 99.178l-5.242-2.972-1.048 2.273 5.067 2.797 1.223-2.098z"/></g><path d="M170.428 98.873c3.145-5.07 6.465-2.448 7.163-1.923 0 0 .175 0 .175-.175.7-1.4 4.02-7.868 7.163-6.47l5.242 2.798v.175l-3.67 6.294-4.892 13.288 1.398.35v2.797c0 .175-.175.175-.175.175l-5.067-2.797-6.464-5.07s-4.718-2.972-.874-9.442z" class="E"/><path d="M182.836 117.057c.175 0 .35 0 .35-.175.174-.174.35-.35.35-.7v-3.322l-1.048-.35 4.542-12.59 3.844-6.47v-.35c0-.175-.175-.35-.35-.525l-5.242-2.798c-1.223-.524-2.97-.7-5.416 2.273-1.048 1.4-1.922 2.798-2.446 3.847a4.71 4.71 0 0 0-3.32-.874c-1.572.175-2.97 1.4-4.193 3.322-4.193 6.994 1.05 10.316 1.05 10.5l6.464 5.07 5.067 2.798c0 .35.174.35.35.35zm-.524-2.972v1.224l-4.193-2.273-6.3-5.07c-.175-.175-4.193-2.797-.7-8.567 1.05-1.574 2.097-2.623 3.32-2.797 1.398-.175 2.62.7 2.795 1.05l.175.175h.35c.175 0 .525-.175.525-.525.35-.524 1.223-2.623 2.62-4.196 1.05-1.224 2.446-2.623 3.67-1.923l4.543 2.623-3.494 5.945-5.067 13.988 1.747.35z" class="B"/><path d="M175.492 102.372s2.27-.175 2.62 0c.35 0 5.416 2.098 5.416 2.098l.7 1.748-2.446 6.994 1.397.35v2.797c0 .175-.174.175-.174.175l-5.067-2.797-6.465-5.07s-4.368-2.797-1.223-8.917l5.242 2.623z" class="F"/><path d="M183.007 117.058c.175 0 .35 0 .35-.175.175-.175.35-.35.35-.7v-3.322l-.874-.175 2.272-6.47-.874-2.273-.175-.175-5.59-2.273h-2.62l-5.766-3.147-.35.7c-3.495 6.47 1.397 9.792 1.397 9.792l6.465 5.07 5.067 2.798c0 .35.174.35.35.35zm-.524-2.973v1.224l-4.193-2.273-6.3-5.07c-.175-.175-3.67-2.448-1.223-7.344l4.892 2.623h.175c1.048 0 2.27-.175 2.62 0 .35 0 2.97 1.224 4.892 2.098l.525 1.224-2.62 7.343 1.223.175z" class="B"/><path d="M181.96 99.398l-4.02-2.273v-.175c.35-.7 1.223-2.623 2.62-4.196l5.242 2.972 1.572 2.972-.524 1.05-.7 2.1-1.747 1.398-2.446-3.846z" class="F"/><path d="M183.882 104.468l2.62-2.098.873-2.273.7-1.224-1.747-3.497-5.94-3.497-.35.525c-1.223 1.574-2.27 3.497-2.62 4.37-.175.35 0 .524 0 .7v.35l4.193 2.273 2.27 4.37zm1.398-2.972l-.874.7-1.747-3.322-3.844-2.098c.35-.7 1.05-1.923 1.922-3.147l4.543 2.623 1.048 2.448-.524.874-.524 1.923z" class="B"/><path d="M175.67 101.846c3.145-5.07 6.465-2.448 7.164-1.924 0 0 .174 0 .174-.175.7-1.4 4.02-7.868 7.164-6.47 3.843 1.923-.874 10.316-.874 10.316l-6.3 12.414-.174.175-6.465-5.07c.175.174-4.542-2.798-.7-9.267z" class="F"/><g class="B"><path d="M182.832 117.233h.35c.175 0 .524-.175.524-.525l6.3-12.414c.174-.175 3.32-5.945 2.27-9.267-.35-.874-.874-1.574-1.747-2.098-1.048-.525-2.97-.525-5.416 2.273-1.05 1.4-1.922 2.797-2.446 3.847a4.71 4.71 0 0 0-3.32-.874c-1.572.175-2.97 1.4-4.193 3.323-4.193 6.994 1.048 10.316 1.048 10.5l6.64 5.246zm6.465-23.255c.175 0 .35 0 .7.175.524.175.873.7 1.048 1.224.7 2.273-1.223 6.644-2.097 8.218l-5.94 11.9-5.765-4.546c-.175-.174-4.194-2.797-.7-8.567 1.048-1.574 2.096-2.623 3.32-2.798 1.398-.175 2.62.7 2.796 1.05l.174.175h.35c.175 0 .524-.175.524-.524.35-.525 1.223-2.623 2.62-4.197.873-1.05 1.922-2.098 2.97-2.098zm-4.08 10.57l1.243.64-3.528 6.836-1.242-.64 3.527-6.836z"/><path d="M184.23 97.825L179 94.853l-1.048 2.273 5.066 2.797 1.223-2.098zm-8.738 12.938l-2.62-1.05-2.97-2.273-.873-2.448v-2.448l.35-.874 4.717 2.623-.174 1.923.524 2.273 1.048 2.273zm-62.185 1.355l-2.62-1.05-2.97-2.273-.874-2.448V103.9l.35-.874 4.717 2.623-.175 1.923.524 2.273 1.05 2.273z"/></g><path d="M280.674 78.303c-1.947 7.246-7.855 8.723-8.1 8.885l.4 1.453c.235-.162 7.024-1.9 9.295-9.892l-1.615-.446z" fill="#000"/><path d="M131.47 67.536c3.744-5.692 7.695-2.748 8.527-2.16 0 0 .208 0 .208-.196.832-1.57 4.783-8.833 8.527-7.263l6.24 3.14v.196l-4.368 7.066-5.823 14.918 1.664.59v3.14c0 .196-.208.196-.208.196l-6.03-3.337-7.695-5.692s-5.615-3.337-1.04-10.6z" class="E"/><path d="M146.238 87.95c.208 0 .416 0 .416-.196.208-.196.416-.393.416-.785v-3.73l-1.248-.393 5.407-14.133 4.576-7.263v-.393c0-.196-.208-.393-.416-.59l-6.24-3.14c-1.456-.59-3.536-.785-6.447 2.552-1.248 1.57-2.288 3.14-2.912 4.318-.832-.59-2.287-1.178-3.95-.98-1.872.196-3.535 1.57-4.99 3.73-4.99 7.852 1.248 11.58 1.248 11.777l7.694 5.692 6.03 3.14c.208.196.208.393.416.393zm-.624-3.533v1.374l-4.99-2.552-7.487-5.692c-.208-.196-4.99-3.14-.83-9.618 1.247-1.767 2.495-2.944 3.743-3.14 1.664-.196 3.12.785 3.327 1.178l.208.196H140c.208 0 .624-.196.624-.59.416-.59 1.456-2.944 3.12-4.71 1.247-1.374 2.91-2.944 4.367-2.16l5.407 2.944-3.95 6.477-6.03 15.703 2.08.59z" class="B"/><path d="M137.705 71.465s2.704-.196 3.12 0 6.447 2.356 6.447 2.356l.832 1.963-2.912 7.852 1.664.393v3.14c0 .196-.208.196-.208.196l-6.03-3.14-7.695-5.692s-5.2-3.14-1.456-10.01l6.24 2.944z" class="D"/><path d="M146.444 87.95c.208 0 .416 0 .416-.196.208-.196.416-.393.416-.785v-3.73l-1.248-.393 2.703-7.263-1.04-2.552-.208-.196-6.655-2.552h-3.12l-6.863-3.533-.416.785c-4.16 7.263 1.664 10.992 1.664 10.992l7.695 5.692 6.03 3.14c.208.393.416.59.624.59zm-.624-3.533v1.374l-4.99-2.552-7.487-5.692c-.208-.196-4.367-2.748-1.456-8.244l5.823 2.944h.208c1.248 0 2.704-.196 3.12 0 .416 0 3.535 1.374 5.823 2.356l.624 1.374-3.12 8.244 1.456.196z" class="B"/><path d="M145.195 68.125l-4.784-2.552v-.196c.416-.785 1.456-2.944 3.12-4.71l6.24 3.337 1.872 3.337-.624 1.178-.832 2.355-2.08 1.57-2.91-4.318z" class="D"/><path d="M147.485 73.62l3.12-2.356 1.04-2.552.832-1.374-2.08-3.926-7.07-3.926-.416.59c-1.664 1.963-2.91 4.122-3.12 4.907-.208.196 0 .59 0 .785v.393l4.99 2.552 2.703 4.907zm1.664-3.14l-1.04.785-2.08-3.73-4.576-2.355c.416-.785 1.248-2.16 2.288-3.533l5.407 2.944 1.456 2.748-.624.98-.832 2.16z" class="B"/><path d="M137.916 70.874c3.743-5.692 7.694-2.748 8.526-2.16 0 0 .208 0 .208-.196.832-1.57 4.783-8.833 8.527-7.263 4.575 2.16-1.04 11.58-1.04 11.58l-7.487 13.936c0 .196-.208.196-.208.196l-7.695-5.692c0 .196-5.615-3.14-.83-10.403z" class="E"/><g class="B"><path d="M146.236 87.952h.416c.207 0 .623-.196.623-.6l7.487-13.936c.208-.196 3.95-6.674 2.704-10.403-.416-.98-1.04-1.767-2.08-2.355-1.248-.6-3.535-.6-6.447 2.552-1.248 1.57-2.288 3.14-2.9 4.318a5.84 5.84 0 0 0-3.952-.98c-1.87.196-3.535 1.57-5 3.73-5 7.852 1.248 11.58 1.248 11.777l7.903 5.9zm7.694-25.9c.208 0 .416 0 .832.196.624.196 1.04.785 1.248 1.374.832 2.552-1.456 7.46-2.496 9.225l-7.07 13.348-6.863-5.103c-.208-.196-5-3.14-.832-9.618 1.248-1.767 2.495-2.944 3.95-3.14 1.664-.196 3.12.785 3.328 1.178l.208.196h.416c.207 0 .623-.196.623-.6.416-.6 1.456-2.944 3.12-4.7 1.04-1.178 2.288-2.355 3.535-2.355zm-4.686 11.92l1.48.72-4.2 7.674-1.48-.72 4.2-7.674z"/><path d="M147.9 66.162l-6.24-3.14-1.247 2.552 6.24 3.14 1.247-2.552zm-10.4 14.723l-3.12-1.374-3.328-2.355-1.04-2.748-.208-2.748.416-.98 5.823 2.944-.416 2.16.832 2.552 1.04 2.552zm-10.814-8.245c.832-7.46 6.447-9.815 6.655-10l-.624-1.374c-.208.196-6.655 2.944-7.695 11.2l1.664.196zm94.317-49.496c6.084-3.2 13.322-.82 13.606-.8l.001-1.395c1.264 0-8.018-3.16-14.96 1.396l1.352.788z"/></g></svg>