<svg width="128" height="128" viewBox="0 0 128 128" fill="none" xmlns="http://www.w3.org/2000/svg">
<g clip-path="url(#clip0)">
<path d="M109.841 121.507H18.1569C11.8647 121.507 6.01996 118.249 2.71218 112.896C-0.596573 107.543 -0.897458 100.86 1.91699 95.2307L47.7589 16.7456C50.8352 10.5951 57.1215 6.70898 63.9989 6.70898C70.8763 6.70898 77.1626 10.5951 80.2388 16.7456L126.081 95.2307C128.895 100.86 128.594 107.543 125.286 112.896C121.978 118.249 116.134 121.507 109.841 121.507Z" fill="#F0C419"/>
<path d="M109.853 121.507H64V6.70885C70.894 6.66586 77.2057 10.5676 80.2487 16.7543L126.079 95.2364C128.897 100.861 128.6 107.545 125.295 112.898C121.988 118.251 116.145 121.509 109.853 121.507Z" fill="#F29C1F"/>
<path d="M72.8293 101.638C72.8293 106.515 68.8748 110.469 63.9982 110.469C59.1215 110.469 55.168 106.515 55.168 101.638C55.168 96.7611 59.1215 92.8076 63.9982 92.8076C68.8748 92.8076 72.8293 96.7611 72.8293 101.638Z" fill="#35495E"/>
<path d="M72.8312 101.638C72.8312 103.98 71.9011 106.226 70.2453 107.883C68.5885 109.539 66.3426 110.469 64 110.469V92.8076C66.3426 92.8066 68.5885 93.7366 70.2453 95.3935C71.9011 97.0493 72.8312 99.2962 72.8312 101.638Z" fill="#2C3E50"/>
<path d="M63.9982 24.3701C68.8748 24.3701 72.8293 28.3236 72.8293 33.2013V75.1464C72.8293 80.0231 68.8748 83.9766 63.9982 83.9766C59.1215 83.9766 55.168 80.0231 55.168 75.1464V33.2013C55.168 28.3236 59.1215 24.3701 63.9982 24.3701Z" fill="#35495E"/>
<path d="M72.8311 33.2013V75.1464C72.8311 77.489 71.9011 79.7349 70.2453 81.3907C68.5885 83.0475 66.3426 83.9775 64 83.9766V24.3701C66.3426 24.3672 68.5914 25.2962 70.2482 26.953C71.9041 28.6099 72.8341 30.8577 72.8311 33.2013Z" fill="#2C3E50"/>
</g>
<defs>
<clipPath id="clip0">
<rect width="128" height="128" fill="white"/>
</clipPath>
</defs>
</svg>
