<svg xmlns="http://www.w3.org/2000/svg" width="5760" height="1280" fill="none" xmlns:v="https://vecta.io/nano"><path d="M3186 0h2574v1280H3186zM0 0h2477v1280H0z" fill="#ffc049"/><path fill="#ffc856" d="M1920 0h1920v1280H1920z"/><path d="M3840 0h1920v1280H3840zM0 0h1920v1280H0z" fill="#ffc049"/><g stroke="#ffc856" stroke-width="12"><circle cx="2052" cy="242" r="44" style="mix-blend-mode:multiply" opacity=".1"/><circle cx="2102" cy="890" r="23" style="mix-blend-mode:multiply" opacity=".2"/></g><path d="M2585 541L3840 0v1280L2585 541zm-420 .5L1920 0v1279.5l245-738z" style="mix-blend-mode:overlay" opacity=".2" fill="#001e20"/><g style="mix-blend-mode:overlay" opacity=".2" clip-path="url(#A)" fill="#fff"><path d="M3511.15 874.08l1.86-.383c19.8-4.03 37.2-15.847 48.37-32.88 11.2-17.035 15.26-37.908 11.34-58.078-3.9-20.17-15.5-38.004-32.26-49.623s-37.3-16.08-57.17-12.415c-19.88 3.664-37.47 15.16-48.96 31.984-11.48 16.825-15.93 37.618-12.37 57.854s14.84 38.278 31.38 50.2 37 16.76 56.95 13.462c.04-.004.1-.005.14-.01a7.46 7.46 0 0 0 .72-.11zm-74.23-64.147c-2.5-12.152-1.4-24.76 3.17-36.228s12.38-21.284 22.47-28.204 22-10.634 34.2-10.673 24.18 3.6 34.4 10.455c10.2 6.855 18.22 16.62 23 28.06a63.68 63.68 0 0 1 3.86 36.205c-2.27 12.167-8.04 23.355-16.6 32.15s-19.5 14.8-31.45 17.256c-16.02 3.275-32.72-.047-46.4-9.237-13.7-9.2-23.28-23.496-26.65-39.782zm202.86 93.827l-58.75-39.412c9.5-12.276 16.25-26.53 19.75-41.764a109.19 109.19 0 0 0 .52-46.44c-11.98-58.27-68.35-96.093-125.67-84.312-57.3 11.78-94.2 68.772-82.22 127.043 9.3 45.3 45.47 78.25 88.04 85.13l20.06 97.564c1 5.75 8.64 8.08 12.53 3.82l21.5-22.07 28.46 11.8c5.26 2.377 11.36-2.784 10.02-8.45l-8.86-43.076 34.05 22.84c4.72 3.377 11.7-.466 11.46-6.283l-.26-31.146 28.2-12.038c5.35-2.08 6.05-10.14 1.15-13.204zm-231.87-87.865c-10.3-50.14 21.43-99.18 70.75-109.317s97.83 22.4 108.13 72.548-21.43 99.18-70.75 109.317c-49.3 10.137-97.82-22.4-108.13-72.548zm128.58 151.603a7.33 7.33 0 0 0-4.28-.41c-1.43.295-2.74 1.013-3.77 2.065l-15.26 15.664-16.34-79.5a104.62 104.62 0 0 0 43.51-8.943l16.34 79.492-20.2-8.376zm63.56-50.433a7.4 7.4 0 0 0-3.3 2.78c-.8 1.24-1.22 2.7-1.2 4.175l.2 22.105-34.86-23.386-6.9-33.638a105.01 105.01 0 0 0 17.05-13.494l49.06 32.918-20.03 8.54zm-75.9-86.012c5.64 1.847 11.23-4.365 8.9-9.9l-7.97-20.868 12.18-18.513c3.44-4.87-.7-12.217-6.6-11.72l-21.96 1.116-13.65-17.6c-3.52-4.856-11.65-3.184-12.97 2.666l-5.6 21.558-20.62 7.636c-5.6 1.87-6.5 10.247-1.43 13.367l18.5 12.207.9 22.32c.05 6.013 7.62 9.518 12.1 5.596l17.03-14.013 21.18 6.158zm-36.1-13.298l-.46-11.187c-.05-1.205-.38-2.383-.97-3.434a7.54 7.54 0 0 0-2.42-2.603l-9.27-6.118 10.33-3.828a7.35 7.35 0 0 0 2.92-1.98 7.44 7.44 0 0 0 1.67-3.125l2.8-10.805 6.84 8.822a7.54 7.54 0 0 0 2.77 2.21c1.1.502 2.27.732 3.46.672l11-.56-6.1 9.282c-.66 1-1.07 2.147-1.2 3.346a7.76 7.76 0 0 0 .46 3.539l4 10.46-10.62-3.088a7.28 7.28 0 0 0-3.51-.142 7.34 7.34 0 0 0-3.17 1.516l-8.54 7.023z"/></g><defs><clipPath id="A"><path fill="#fff" transform="matrix(.979523 -.201334 .201334 .979523 3303 722.599)" d="M0 0h315.888v321.152H0z"/></clipPath></defs></svg>