<svg width="5760" height="3004" viewBox="0 0 5760 3004" fill="none" xmlns="http://www.w3.org/2000/svg">
<rect width="5760" height="3004" fill="white"/>
<path opacity="0.03" d="M2833.5 3004L3280 2079.75L4247.5 0H5760V3004H1920H2833.5Z" fill="#001E20"/>
<g style="mix-blend-mode:multiply" opacity="0.04" clip-path="url(#clip0)">
<path d="M3678.55 2240.24C3679.71 2243.59 3679.41 2246.54 3677.65 2249.12C3675.89 2251.69 3673.29 2253.58 3669.85 2254.77L3550.72 2295.98C3547.28 2297.17 3544.07 2297.27 3541.08 2296.29C3538.09 2295.31 3536.03 2293.19 3534.91 2289.94C3534.02 2287.37 3533.89 2284.49 3534.52 2281.29L3558.27 2157.38C3559.48 2151.68 3562.02 2148.16 3565.89 2146.82C3569.76 2145.48 3573.84 2146.71 3578.14 2150.5L3673.56 2233.34C3676.06 2235.54 3677.72 2237.85 3678.55 2240.24ZM3592.98 2196.31L3586.49 2177.55L3568.55 2183.75L3575.04 2202.52C3575.45 2203.72 3575.93 2204.82 3576.48 2205.83C3577.02 2206.85 3577.67 2207.96 3578.43 2209.19C3579.19 2210.41 3579.82 2211.46 3580.32 2212.35L3590.88 2232.01L3598.49 2229.37L3594.77 2207.35C3594.65 2206.43 3594.52 2205.23 3594.39 2203.74C3594.26 2202.25 3594.1 2200.94 3593.9 2199.81C3593.7 2198.68 3593.39 2197.51 3592.98 2196.31ZM3610.19 2246.05C3609.33 2243.57 3607.72 2241.77 3605.36 2240.67C3603 2239.56 3600.58 2239.44 3598.08 2240.31C3595.67 2241.14 3593.88 2242.72 3592.71 2245.04C3591.54 2247.37 3591.39 2249.77 3592.25 2252.26C3593.11 2254.74 3594.72 2256.56 3597.09 2257.7C3599.46 2258.85 3601.85 2259.01 3604.26 2258.17C3606.76 2257.31 3608.58 2255.69 3609.74 2253.33C3610.9 2250.96 3611.05 2248.54 3610.19 2246.05Z" fill="#FF513F"/>
</g>
<g style="mix-blend-mode:multiply" opacity="0.03" clip-path="url(#clip1)">
<path d="M3882.15 2819.58C3880.2 2826.12 3876.39 2830.42 3870.73 2832.47C3865.07 2834.52 3858.87 2834.54 3852.13 2832.52L3619 2762.72C3612.26 2760.7 3607.1 2757.24 3603.53 2752.33C3599.95 2747.43 3599.12 2741.79 3601.02 2735.41C3602.53 2730.38 3605.58 2725.72 3610.16 2721.43L3787.16 2554.06C3795.47 2546.5 3803.42 2543.85 3811 2546.12C3818.58 2548.39 3823.6 2554.92 3826.05 2565.7L3882.13 2803.13C3883.55 2809.4 3883.56 2814.89 3882.15 2819.58ZM3797.63 2654.22L3808.62 2617.49L3773.51 2606.98L3762.52 2643.71C3761.81 2646.05 3761.32 2648.33 3761.03 2650.52C3760.74 2652.72 3760.5 2655.21 3760.31 2657.98C3760.12 2660.76 3759.92 2663.12 3759.7 2665.06L3754.07 2707.78L3768.97 2712.24L3787.99 2673.53C3788.83 2671.96 3789.99 2669.93 3791.46 2667.45C3792.94 2664.97 3794.16 2662.73 3795.13 2660.73C3796.09 2658.74 3796.92 2656.57 3797.63 2654.22ZM3768.48 2751.56C3769.94 2746.7 3769.44 2742.07 3766.99 2737.69C3764.55 2733.3 3760.88 2730.38 3756 2728.91C3751.28 2727.5 3746.7 2727.96 3742.24 2730.28C3737.78 2732.6 3734.83 2736.19 3733.37 2741.05C3731.92 2745.91 3732.4 2750.58 3734.82 2755.05C3737.25 2759.52 3740.81 2762.47 3745.53 2763.88C3750.41 2765.34 3755.1 2764.87 3759.58 2762.46C3764.06 2760.06 3767.03 2756.43 3768.48 2751.56Z" fill="#FF513F"/>
</g>
<g style="mix-blend-mode:multiply" opacity="0.03" clip-path="url(#clip2)">
<path d="M3603.71 2524.24C3602.72 2525.91 3601.38 2526.84 3599.69 2527.02C3597.99 2527.2 3596.28 2526.78 3594.57 2525.77L3535.12 2490.74C3533.4 2489.73 3532.22 2488.43 3531.57 2486.83C3530.91 2485.24 3531.07 2483.63 3532.02 2482.01C3532.78 2480.72 3533.93 2479.65 3535.49 2478.78L3595.56 2444.71C3598.37 2443.19 3600.73 2443 3602.67 2444.14C3604.6 2445.28 3605.54 2447.41 3605.48 2450.55L3604.82 2519.71C3604.78 2521.54 3604.41 2523.05 3603.71 2524.24ZM3591.65 2472.99L3597.17 2463.62L3588.22 2458.35L3582.7 2467.71C3582.35 2468.31 3582.06 2468.9 3581.83 2469.49C3581.6 2470.07 3581.36 2470.74 3581.12 2471.49C3580.88 2472.25 3580.67 2472.88 3580.48 2473.4L3576.03 2484.78L3579.83 2487.02L3587.69 2477.65C3588.03 2477.28 3588.48 2476.8 3589.06 2476.21C3589.63 2475.63 3590.12 2475.1 3590.52 2474.61C3590.92 2474.13 3591.3 2473.59 3591.65 2472.99ZM3577.03 2497.81C3577.76 2496.57 3577.94 2495.26 3577.56 2493.89C3577.18 2492.52 3576.37 2491.46 3575.13 2490.73C3573.92 2490.02 3572.63 2489.83 3571.25 2490.17C3569.86 2490.51 3568.81 2491.29 3568.08 2492.53C3567.34 2493.77 3567.16 2495.09 3567.53 2496.49C3567.89 2497.88 3568.67 2498.93 3569.87 2499.64C3571.12 2500.38 3572.44 2500.56 3573.84 2500.21C3575.23 2499.85 3576.3 2499.05 3577.03 2497.81Z" fill="#FF513F"/>
</g>
<g opacity="0.5">
<path d="M2103 2767.86V2711.07C2103.3 2705.06 2108.16 2700.72 2113.51 2700.65H2138.94C2146.21 2695.07 2151.37 2687.32 2158.37 2681.71C2160.85 2679.74 2162.76 2677.54 2164.11 2675.13C2168.52 2666.48 2165.85 2656.41 2172.11 2649.52C2184.68 2644.12 2199.74 2651.67 2203.99 2663.52C2207.32 2673.19 2205.09 2682.84 2200.94 2691.38C2215.95 2691.35 2230.97 2691.48 2245.98 2691.56C2258.2 2692.47 2266.92 2700.7 2267 2712.4C2266.97 2724.19 2256.8 2732.76 2245.98 2732.97H2228.32C2227.73 2736.45 2226.58 2739.6 2224.87 2742.42C2225.86 2749.69 2223.6 2756.81 2219.22 2761.94C2216.82 2803.86 2161.9 2778.99 2141.33 2778.37H2113.51C2107.46 2778.08 2103.07 2773.23 2103 2767.86ZM2140.89 2767.86C2157.34 2768.21 2213.58 2793.1 2208.18 2757.44C2214.13 2754.23 2216.42 2745.65 2212.77 2740.22C2218.32 2734.75 2219.9 2727.88 2214.54 2722.47C2219.84 2722.47 2225.08 2722.44 2230.26 2722.38C2235.44 2722.32 2240.68 2722.29 2245.98 2722.29C2252.05 2722.16 2256.25 2717.71 2256.31 2712.4C2256.18 2706.11 2251.41 2702.13 2245.98 2702.06C2225.43 2702.06 2205.17 2701.89 2186.1 2701.89C2187.82 2688.12 2204.25 2669.42 2187.47 2658.57C2184.79 2657.25 2182.64 2656.69 2179.83 2657.2C2179.36 2657.44 2179.1 2657.67 2179.04 2657.91C2178.98 2658.14 2178.89 2658.53 2178.77 2659.06C2176.99 2669.97 2175.33 2680.89 2166.85 2688.11C2157.52 2695.26 2152.02 2706.53 2141.33 2711.07H2140.89L2140.89 2767.86V2767.86Z" fill="#F2F2F2"/>
</g>
<g opacity="0.15">
<path d="M2015.66 2336.67C1991.43 2339.93 1988.58 2342.78 1985.33 2367C1982.07 2342.78 1979.43 2339.93 1955 2336.67C1979.22 2333.42 1982.07 2330.77 1985.33 2306.34C1988.79 2330.57 1991.43 2333.42 2015.66 2336.67Z" fill="#E0E0E0"/>
<path d="M2015.66 2336.67C1991.43 2339.93 1988.58 2342.78 1985.33 2367V2306.34C1988.79 2330.57 1991.43 2333.42 2015.66 2336.67Z" fill="#BDBDBD"/>
</g>
<g opacity="0.15">
<path d="M2204.36 2161.02C2159.62 2167.04 2154.35 2172.3 2148.34 2217.05C2142.32 2172.3 2137.44 2167.04 2092.32 2161.02C2137.06 2155.01 2142.32 2150.12 2148.34 2105C2154.73 2149.74 2159.62 2155.01 2204.36 2161.02Z" fill="#E0E0E0"/>
<path d="M2204.36 2161.02C2159.62 2167.04 2154.36 2172.3 2148.34 2217.05V2105C2154.73 2149.74 2159.62 2155.01 2204.36 2161.02Z" fill="#BDBDBD"/>
</g>
<defs>
<clipPath id="clip0">
<rect width="152" height="136" fill="white" transform="translate(3494 2171.69) rotate(-19.0824)"/>
</clipPath>
<clipPath id="clip1">
<rect width="293.459" height="262.569" fill="white" transform="translate(3670.31 2504) rotate(16.6674)"/>
</clipPath>
<clipPath id="clip2">
<rect width="83.2021" height="74.444" fill="white" transform="translate(3566.79 2423) rotate(30.5083)"/>
</clipPath>
</defs>
</svg>
