<svg width="68" height="68" viewBox="0 0 68 68" fill="none" xmlns="http://www.w3.org/2000/svg">
<path d="M34 6.375C18.768 6.375 6.375 18.768 6.375 34C6.375 49.232 18.768 61.625 34 61.625C49.232 61.625 61.625 49.232 61.625 34C61.625 18.768 49.232 6.375 34 6.375ZM34 10.625C46.9349 10.625 57.375 21.0651 57.375 34C57.375 46.9349 46.9349 57.375 34 57.375C21.0651 57.375 10.625 46.9349 10.625 34C10.625 21.0651 21.0651 10.625 34 10.625ZM32.47 20.3872L20.3894 32.47L18.8594 34L20.3894 35.53L32.4742 47.6128L35.53 44.625L27.03 36.125H48.875V31.875H27.03L35.53 23.375L32.47 20.3872Z" fill="#E0E0E0"/>
<circle cx="34" cy="34" r="28" fill="#001E20"/>
<path d="M36 34L45 34L36 45L27 45L36 34Z" fill="#FFC856"/>
<path d="M36 34L45 34L36 23L27 23L36 34Z" fill="white"/>
</svg>
