<svg width="360" height="485" viewBox="0 0 360 485" fill="none" xmlns="http://www.w3.org/2000/svg">
<rect width="360" height="485" fill="#001E20"/>
<g style="mix-blend-mode:screen" opacity="0.3">
<path d="M0 0L16.7368 485L141.474 17.4252L281.368 79.8653L360 0L320.053 485H360L265.263 310.749L157.737 485H0H74.3684L0 0Z" fill="#001E20"/>
</g>
<g style="mix-blend-mode:screen" opacity="0.3">
<path d="M327 455.796H316.647V446H305.353V455.796H295V466.204H305.353V476H316.647V466.204H327V455.796Z" fill="#007550"/>
</g>
<g style="mix-blend-mode:screen" opacity="0.2">
<path d="M57 451.551H51.5V446H45.5V451.551H40V457.449H45.5V463H51.5V457.449H57V451.551Z" fill="#FFC856"/>
</g>
<g style="mix-blend-mode:screen" opacity="0.3">
<path d="M303 348.551H297.5V343H291.5V348.551H286V354.449H291.5V360H297.5V354.449H303V348.551Z" fill="#FF513F"/>
</g>
</svg>
