<svg width="10" height="18" viewBox="0 0 10 18" fill="none" xmlns="http://www.w3.org/2000/svg">
<path d="M8.33333 0.666504H1.66667C1.22464 0.666504 0.800716 0.842099 0.488155 1.15466C0.175595 1.46722 0 1.89114 0 2.33317V15.6665C0 16.1085 0.175595 16.5325 0.488155 16.845C0.800716 17.1576 1.22464 17.3332 1.66667 17.3332H8.33333C8.77536 17.3332 9.19928 17.1576 9.51184 16.845C9.8244 16.5325 10 16.1085 10 15.6665V2.33317C10 1.89114 9.8244 1.46722 9.51184 1.15466C9.19928 0.842099 8.77536 0.666504 8.33333 0.666504ZM5.83333 16.4998H4.16667V15.6665H5.83333V16.4998ZM8.33333 14.8332H1.66667V3.1665H8.33333V14.8332Z" fill="#007550"/>
</svg>
