<svg width="1920" height="2208" viewBox="0 0 1920 2208" fill="none" xmlns="http://www.w3.org/2000/svg">
<path opacity="0.03" d="M913.5 2208L1360 1283.75L1920 146V1283.75V2208H0H913.5Z" fill="#001E20"/>
<g style="mix-blend-mode:multiply" opacity="0.04" clip-path="url(#clip0)">
<path d="M1662.08 1444.24C1663.18 1447.59 1662.89 1450.54 1661.23 1453.12C1659.57 1455.69 1657.11 1457.58 1653.86 1458.77L1541.27 1499.98C1538.01 1501.17 1534.98 1501.27 1532.15 1500.29C1529.33 1499.31 1527.38 1497.19 1526.32 1493.94C1525.48 1491.37 1525.35 1488.49 1525.95 1485.29L1548.4 1361.38C1549.54 1355.68 1551.94 1352.16 1555.6 1350.82C1559.26 1349.48 1563.12 1350.71 1567.18 1354.5L1657.37 1437.34C1659.73 1439.54 1661.3 1441.85 1662.08 1444.24ZM1581.21 1400.31L1575.07 1381.55L1558.11 1387.75L1564.25 1406.52C1564.64 1407.72 1565.09 1408.82 1565.61 1409.83C1566.12 1410.85 1566.74 1411.96 1567.45 1413.19C1568.17 1414.41 1568.77 1415.46 1569.24 1416.35L1579.22 1436.01L1586.42 1433.37L1582.9 1411.35C1582.78 1410.43 1582.66 1409.23 1582.54 1407.74C1582.42 1406.25 1582.26 1404.94 1582.07 1403.81C1581.89 1402.68 1581.6 1401.51 1581.21 1400.31ZM1597.47 1450.05C1596.66 1447.57 1595.14 1445.77 1592.91 1444.67C1590.68 1443.56 1588.39 1443.44 1586.03 1444.31C1583.75 1445.14 1582.06 1446.72 1580.95 1449.04C1579.85 1451.37 1579.7 1453.77 1580.51 1456.26C1581.32 1458.74 1582.85 1460.56 1585.09 1461.7C1587.33 1462.85 1589.59 1463.01 1591.87 1462.17C1594.23 1461.31 1595.95 1459.69 1597.05 1457.33C1598.14 1454.96 1598.28 1452.54 1597.47 1450.05Z" fill="#FF513F"/>
</g>
<g style="mix-blend-mode:multiply" opacity="0.03" clip-path="url(#clip1)">
<path d="M1855.4 2023.58C1853.55 2030.12 1849.95 2034.42 1844.6 2036.47C1839.25 2038.52 1833.39 2038.54 1827.03 2036.52L1606.68 1966.72C1600.31 1964.7 1595.44 1961.24 1592.06 1956.33C1588.68 1951.43 1587.89 1945.79 1589.69 1939.41C1591.12 1934.38 1594 1929.72 1598.33 1925.43L1765.61 1758.06C1773.48 1750.5 1780.99 1747.85 1788.15 1750.12C1795.31 1752.39 1800.05 1758.92 1802.38 1769.7L1855.37 2007.13C1856.72 2013.4 1856.73 2018.89 1855.4 2023.58ZM1775.51 1858.22L1785.9 1821.49L1752.72 1810.98L1742.33 1847.71C1741.66 1850.05 1741.19 1852.33 1740.92 1854.52C1740.64 1856.72 1740.42 1859.21 1740.24 1861.98C1740.06 1864.76 1739.87 1867.12 1739.66 1869.06L1734.34 1911.78L1748.43 1916.24L1766.4 1877.53C1767.2 1875.96 1768.29 1873.93 1769.69 1871.45C1771.08 1868.97 1772.23 1866.73 1773.15 1864.73C1774.06 1862.74 1774.85 1860.57 1775.51 1858.22ZM1747.96 1955.56C1749.34 1950.7 1748.87 1946.08 1746.56 1941.69C1744.24 1937.3 1740.78 1934.38 1736.16 1932.91C1731.71 1931.5 1727.37 1931.96 1723.16 1934.28C1718.95 1936.6 1716.16 1940.19 1714.78 1945.05C1713.4 1949.92 1713.86 1954.58 1716.15 1959.05C1718.44 1963.52 1721.81 1966.47 1726.27 1967.88C1730.89 1969.34 1735.31 1968.87 1739.55 1966.46C1743.78 1964.06 1746.59 1960.43 1747.96 1955.56Z" fill="#FF513F"/>
</g>
<g style="mix-blend-mode:multiply" opacity="0.03" clip-path="url(#clip2)">
<path d="M1591.35 1728.24C1590.42 1729.91 1589.15 1730.84 1587.55 1731.02C1585.94 1731.2 1584.33 1730.78 1582.71 1729.77L1526.52 1694.74C1524.9 1693.73 1523.78 1692.43 1523.16 1690.83C1522.55 1689.24 1522.69 1687.63 1523.6 1686.01C1524.31 1684.72 1525.4 1683.65 1526.87 1682.78L1583.65 1648.71C1586.3 1647.19 1588.54 1647 1590.36 1648.14C1592.19 1649.28 1593.08 1651.41 1593.02 1654.55L1592.39 1723.71C1592.36 1725.54 1592.01 1727.05 1591.35 1728.24ZM1579.95 1676.99L1585.17 1667.62L1576.71 1662.35L1571.49 1671.71C1571.16 1672.31 1570.88 1672.9 1570.67 1673.49C1570.45 1674.07 1570.23 1674.74 1570 1675.49C1569.78 1676.25 1569.57 1676.88 1569.39 1677.4L1565.19 1688.78L1568.78 1691.02L1576.21 1681.65C1576.53 1681.28 1576.96 1680.8 1577.5 1680.21C1578.05 1679.63 1578.51 1679.1 1578.89 1678.61C1579.26 1678.13 1579.62 1677.59 1579.95 1676.99ZM1566.13 1701.81C1566.82 1700.57 1566.99 1699.26 1566.63 1697.89C1566.28 1696.52 1565.51 1695.46 1564.33 1694.73C1563.2 1694.02 1561.98 1693.83 1560.67 1694.17C1559.36 1694.51 1558.36 1695.29 1557.67 1696.53C1556.98 1697.77 1556.81 1699.09 1557.15 1700.49C1557.49 1701.88 1558.23 1702.93 1559.37 1703.64C1560.55 1704.38 1561.79 1704.56 1563.11 1704.21C1564.43 1703.85 1565.44 1703.05 1566.13 1701.81Z" fill="#FF513F"/>
</g>
<g opacity="0.5" clip-path="url(#clip3)">
<path d="M172.965 1971.86V1915.07C173.248 1909.06 177.846 1904.72 182.898 1904.65H206.937C213.808 1899.07 218.678 1891.32 225.3 1885.71C227.638 1883.74 229.446 1881.54 230.726 1879.13C234.887 1870.48 232.366 1860.41 238.28 1853.52C250.164 1848.12 264.402 1855.67 268.412 1867.52C271.565 1877.19 269.452 1886.84 265.533 1895.38C279.723 1895.35 293.913 1895.48 308.102 1895.56C319.654 1896.47 327.891 1904.7 327.968 1916.4C327.937 1928.19 318.329 1936.76 308.102 1936.97H291.408C290.852 1940.45 289.767 1943.6 288.153 1946.42C289.088 1953.69 286.948 1960.81 282.811 1965.94C280.541 2007.86 228.632 1982.99 209.191 1982.37H182.898C177.178 1982.08 173.033 1977.23 172.965 1971.86ZM208.773 1971.86C224.329 1972.21 277.48 1997.1 272.377 1961.44C278.002 1958.23 280.166 1949.65 276.718 1944.22C281.958 1938.75 283.45 1931.88 278.387 1926.47C283.395 1926.47 288.348 1926.44 293.245 1926.38C298.142 1926.32 303.094 1926.29 308.102 1926.29C313.834 1926.16 317.806 1921.71 317.868 1916.4C317.737 1910.11 313.229 1906.13 308.102 1906.06C288.677 1906.06 269.528 1905.89 251.51 1905.89C253.132 1892.12 268.66 1873.42 252.804 1862.57C250.265 1861.25 248.235 1860.69 245.584 1861.2C245.139 1861.44 244.888 1861.67 244.832 1861.91C244.777 1862.14 244.693 1862.53 244.582 1863.06C242.897 1873.97 241.324 1884.89 233.314 1892.11C224.496 1899.26 219.297 1910.53 209.191 1915.07H208.774L208.773 1971.86V1971.86Z" fill="#F2F2F2"/>
</g>
<g opacity="0.15">
<path d="M90.4145 1540.67C67.5215 1543.93 64.8283 1546.78 61.7502 1571C58.6722 1546.78 56.1713 1543.93 33.0859 1540.67C55.9789 1537.42 58.6722 1534.77 61.7502 1510.34C65.0206 1534.57 67.5215 1537.42 90.4145 1540.67Z" fill="#E0E0E0"/>
<path d="M90.4143 1540.67C67.5213 1543.93 64.828 1546.78 61.75 1571V1510.34C65.0204 1534.57 67.5213 1537.42 90.4143 1540.67Z" fill="#BDBDBD"/>
</g>
<g opacity="0.15">
<path d="M268.766 1365.02C226.477 1371.04 221.502 1376.3 215.816 1421.05C210.131 1376.3 205.511 1371.04 162.867 1365.02C205.156 1359.01 210.131 1354.12 215.816 1309C221.858 1353.74 226.477 1359.01 268.766 1365.02Z" fill="#E0E0E0"/>
<path d="M268.766 1365.02C226.477 1371.04 221.502 1376.3 215.816 1421.05V1309C221.858 1353.74 226.477 1359.01 268.766 1365.02Z" fill="#BDBDBD"/>
</g>
<rect width="1920" height="146" fill="white"/>
<defs>
<clipPath id="clip0">
<rect width="144.576" height="135.222" fill="white" transform="matrix(0.939074 -0.343716 0.310771 0.950485 1487.66 1375.69)"/>
</clipPath>
<clipPath id="clip1">
<rect width="278.72" height="261.414" fill="white" transform="matrix(0.953313 0.301983 -0.27228 0.962218 1654.29 1708)"/>
</clipPath>
<clipPath id="clip2">
<rect width="79.8392" height="73.4132" fill="white" transform="matrix(0.848592 0.529047 -0.486552 0.873652 1556.46 1627)"/>
</clipPath>
<clipPath id="clip3">
<rect width="155.003" height="164" fill="white" transform="translate(172.965 1839)"/>
</clipPath>
</defs>
</svg>
