<svg xmlns="http://www.w3.org/2000/svg" xmlns:xlink="http://www.w3.org/1999/xlink" width="360" height="307" fill="none" xmlns:v="https://vecta.io/nano"><style><![CDATA[.B{stroke:#0e0d0d}.C{stroke-width:.865}.D{fill:#ffc856}.E{fill:#16110d}.F{fill:#f9ffff}]]></style><path fill="#007550" d="M0 3h360v304H0z"/><path d="M0 0l13 169 167 90.5L360 147v160H0L79 84.5 0 0z" fill="#001e20" style="mix-blend-mode:screen" opacity=".3"/><g class="E"><use xlink:href="#B"/><use xlink:href="#C"/><use xlink:href="#D"/><use xlink:href="#E"/><path d="M220.117 129.618c-.245.143-.245.368 0 .51s.635.144.88 0 .246-.368 0-.51c-.246-.133-.635-.133-.88 0z"/><use xlink:href="#F"/><use xlink:href="#C" y="-2.659"/><use xlink:href="#G"/><use xlink:href="#H"/><use xlink:href="#I"/><use xlink:href="#J"/><use xlink:href="#K"/><use xlink:href="#C" x="9.216" y="-2.659"/><path d="M222.863 126.253c-.345 0-.625-.16-.625-.358s.28-.357.625-.357.624.16.624.357-.28.358-.624.358z"/><use xlink:href="#L"/><path d="M218.694 123.493c.245-.143.245-.368 0-.512a.96.96 0 0 0-.881 0c-.246.144-.246.37 0 .512.246.133.635.133.88 0z"/><use xlink:href="#M"/><path d="M224.726 124.31c-.246.143-.246.368 0 .51a.96.96 0 0 0 .881 0c.245-.143.245-.368 0-.51s-.635-.144-.88 0z"/><use xlink:href="#N"/><path d="M220.998 122.163c.246-.143.246-.368 0-.5a.96.96 0 0 0-.88 0c-.245.144-.245.368 0 .5a1.02 1.02 0 0 0 .88 0zm8.358 2.137c-.246.143-.246.368 0 .5a.96.96 0 0 0 .881 0c.245-.143.245-.368 0-.5-.246-.133-.646-.133-.88 0z"/><use xlink:href="#N" x="4.628" y="-0.01"/><use xlink:href="#O"/><path d="M223.322 120.824c.246-.143.246-.368 0-.512a.96.96 0 0 0-.88 0c-.246.144-.246.37 0 .512a1.02 1.02 0 0 0 .88 0z"/><use xlink:href="#P"/><use xlink:href="#G" x="18.456" y="-2.67"/><use xlink:href="#Q"/><use xlink:href="#N" x="4.628" y="-2.668"/><path d="M225.627 119.494c.246-.143.246-.368 0-.51s-.635-.144-.88 0-.245.368 0 .51c.246.133.635.133.88 0z"/><use xlink:href="#R"/><path d="M233.954 121.642c-.245.143-.245.368 0 .51a.96.96 0 0 0 .881 0c.246-.143.246-.368 0-.51-.235-.144-.635-.144-.88 0z"/><use xlink:href="#G" x="18.456" y="-5.328"/><use xlink:href="#Q" y="-2.659"/><use xlink:href="#S"/><use xlink:href="#D" x="11.542" y="-11.966"/><use xlink:href="#N" x="13.836" y="-2.668"/><path d="M234.405 119.597c-.346 0-.625-.16-.625-.358s.28-.358.625-.358.624.16.624.358-.28.358-.624.358z"/><use xlink:href="#T"/><path d="M230.236 116.324a.95.95 0 0 0-.88 0c-.246.143-.246.368 0 .51l.88-.51z"/><path d="M229.356 116.836a.96.96 0 0 0 .881 0c.245-.143.245-.368 0-.512l-.88.512z"/><use xlink:href="#P" x="6.912" y="-3.988"/><use xlink:href="#U"/><use xlink:href="#S" x="9.208"/><use xlink:href="#V"/><path d="M232.54 114.995a.96.96 0 0 0-.881 0c-.245.143-.245.368 0 .51l.88-.51z"/><use xlink:href="#P" x="11.522" y="-3.988"/><use xlink:href="#T" x="9.207"/><path d="M238.563 116.324c-.246.143-.246.368 0 .5a.96.96 0 0 0 .881 0c.245-.143.245-.368 0-.5-.236-.133-.635-.133-.88 0zm-2.305-1.33c-.246.143-.246.368 0 .512a.96.96 0 0 0 .881 0c.246-.144.246-.37 0-.512-.236-.133-.635-.133-.88 0zm-1.413-1.32a.95.95 0 0 0-.88 0c-.245.144-.246.368 0 .5l.88-.5z"/><path d="M233.954 114.177a.96.96 0 0 0 .881 0c.246-.143.246-.368 0-.512l-.88.512z"/><use xlink:href="#W"/><path d="M240.867 114.995c-.245.143-.245.368 0 .512a.96.96 0 0 0 .881 0c.246-.144.246-.37 0-.512-.235-.133-.635-.133-.88 0z"/><use xlink:href="#U" y="-5.307"/><path d="M236.258 112.847a.96.96 0 0 0 .881 0c.246-.143.246-.368 0-.5a.96.96 0 0 0-.881 0v.5zm9.218 2.148c-.246.143-.246.368 0 .512a.96.96 0 0 0 .881 0c.245-.144.245-.37 0-.512a1.02 1.02 0 0 0-.88 0z"/><use xlink:href="#X"/><use xlink:href="#Y"/><path d="M238.563 111.016c-.246.144-.246.37 0 .512a.96.96 0 0 0 .881 0c.245-.143.245-.368 0-.512h-.88z"/><use xlink:href="#Z"/><use xlink:href="#D" x="32.292" y="-15.964"/><use xlink:href="#a"/><path d="M240.888 110.178a.96.96 0 0 0 .881 0c.246-.143.246-.368 0-.51a.96.96 0 0 0-.881 0v.51z"/><use xlink:href="#F" x="32.293" y="-15.964"/><use xlink:href="#b"/><use xlink:href="#Y" x="4.629" y="-2.669"/><use xlink:href="#E" x="32.293" y="-18.623"/><use xlink:href="#B" x="32.293" y="-21.271"/><use xlink:href="#Z" y="-5.308"/><use xlink:href="#T" x="13.836" y="-10.635"/><path d="M250.106 107.018c-.246.143-.246.368 0 .512a.96.96 0 0 0 .881 0c.245-.144.245-.37 0-.512a.96.96 0 0 0-.881 0zM247.8 105.7c-.246.143-.246.368 0 .5a.96.96 0 0 0 .881 0c.246-.143.246-.368 0-.5h-.88z"/><use xlink:href="#c"/><use xlink:href="#Z" x="-57.743" y="27.723"/><use xlink:href="#d"/><use xlink:href="#e"/><use xlink:href="#B" x="-34.669" y="6.452"/><use xlink:href="#f"/><use xlink:href="#d" x="9.217" y="2.659"/><use xlink:href="#I" x="-25.451" y="14.408"/><use xlink:href="#c" y="-2.659"/><use xlink:href="#K" x="-25.453" y="14.41"/><use xlink:href="#g"/><use xlink:href="#O" x="-39.297" y="14.419"/><use xlink:href="#C" x="-32.366" y="5.113"/><path d="M180.84 133.4c-.246.144-.246.37 0 .512a.96.96 0 0 0 .881 0c.246-.143.246-.368 0-.512-.236-.133-.635-.133-.88 0z"/><use xlink:href="#E" x="-11.625" y="14.408"/><use xlink:href="#d" x="9.217"/><use xlink:href="#L" x="-25.451" y="14.41"/><use xlink:href="#h"/><use xlink:href="#K" x="-25.453" y="11.75"/><use xlink:href="#i"/><use xlink:href="#a" x="-57.743" y="22.404"/><use xlink:href="#B" x="-34.669" y="1.135"/><use xlink:href="#j"/><use xlink:href="#e" x="13.825"/><use xlink:href="#g" x="9.217"/><use xlink:href="#L" x="-25.451" y="11.75"/><use xlink:href="#O" x="-32.385" y="13.09"/><use xlink:href="#b" x="-57.743" y="22.404"/><use xlink:href="#X" x="-55.419" y="18.406"/><use xlink:href="#O" x="-39.297" y="9.112"/><use xlink:href="#k"/><use xlink:href="#Y" x="-39.287" y="25.054"/><use xlink:href="#O" x="-25.472" y="14.419"/><use xlink:href="#i" x="9.217"/><path d="M194.666 133.4c-.245.144-.245.37 0 .512a.96.96 0 0 0 .881 0c.246-.143.246-.368 0-.512h-.88zm-1.424-1.317a.96.96 0 0 0-.881 0c-.245.143-.245.368 0 .5a.96.96 0 0 0 .881 0v-.5z"/><use xlink:href="#K" x="-25.453" y="6.444"/><use xlink:href="#g" y="-7.976"/><use xlink:href="#B" x="-11.625" y="6.452"/><use xlink:href="#k" y="-2.66"/><path d="M201.58 134.73c-.245.143-.245.368 0 .5a.96.96 0 0 0 .88 0c.245-.144.246-.368 0-.5-.246-.133-.645-.133-.88 0zm-1.425-.817c.246-.143.246-.368 0-.5a.95.95 0 0 0-.88 0c-.246.143-.246.368 0 .5a.96.96 0 0 0 .88 0z"/><use xlink:href="#P" x="-23.168" y="13.09"/><path d="M193.242 129.424a.96.96 0 0 0-.881 0c-.245.143-.245.368 0 .51a.96.96 0 0 0 .881 0v-.51z"/><use xlink:href="#K" x="-25.453" y="3.785"/><use xlink:href="#f" x="27.663" y="-0.01"/><use xlink:href="#Y" x="-34.657" y="22.374"/><path d="M203.904 133.392c-.246.143-.246.368 0 .5a.96.96 0 0 0 .88 0c.246-.143.246-.368 0-.5s-.645-.144-.88 0zm-1.424-.82c.245-.143.245-.368 0-.5a.96.96 0 0 0-.881 0c-.246.143-.246.368 0 .5a.96.96 0 0 0 .881 0z"/><use xlink:href="#P" x="-20.842" y="11.75"/><use xlink:href="#C" x="-23.127" y="-2.862"/><use xlink:href="#B" x="-7.005" y="3.772"/><use xlink:href="#f" x="27.663" y="-2.668"/><path d="M206.2 132.062c-.245.143-.245.368 0 .5a.96.96 0 0 0 .88 0c.245-.144.246-.368 0-.5-.246-.133-.645-.133-.88 0zm-2.306-1.33c-.246.144-.246.37 0 .512a.96.96 0 0 0 .88 0c.246-.143.246-.368 0-.512-.245-.133-.645-.133-.88 0zm-2.304-.817a.96.96 0 0 0 .881 0c.245-.143.245-.368 0-.5l-.88.5zm-6.033-4.5a.96.96 0 0 0-.88 0c-.246.143-.246.368 0 .5a.96.96 0 0 0 .88 0v-.5zm17.545 7.967c-.246.143-.246.368 0 .5a.96.96 0 0 0 .88 0c.246-.143.246-.368 0-.5-.235-.144-.635-.144-.88 0zm-2.304-1.33c-.246.143-.246.368 0 .5a.96.96 0 0 0 .88 0c.245-.144.245-.368 0-.5-.236-.133-.635-.133-.88 0z"/><use xlink:href="#X" x="-34.669" y="17.067"/><use xlink:href="#Y" x="-34.657" y="17.068"/><use xlink:href="#X" x="-27.756" y="18.396"/><path d="M213.112 130.732c-.246.144-.246.37 0 .512a.96.96 0 0 0 .88 0c.246-.143.246-.368 0-.512-.235-.133-.635-.133-.88 0z"/><use xlink:href="#B" x="-7.005" y="-1.534"/><use xlink:href="#X" x="-34.669" y="14.407"/><use xlink:href="#h" x="4.712" y="-18.386"/><use xlink:href="#J" x="-23.043" y="-7.956"/><use xlink:href="#l"/><use xlink:href="#m"/><path d="M194.77 115.537a.96.96 0 0 0 .881 0c.245-.144.245-.37 0-.512l-.88.512zm-20.843 16.556c-.246.143-.246.368 0 .512a.96.96 0 0 0 .881 0c.246-.144.246-.37 0-.512a1.02 1.02 0 0 0-.88 0z"/><use xlink:href="#n"/><use xlink:href="#h" x="-23.044" y="-7.956"/><use xlink:href="#K" x="-48.497" y="3.805"/><path d="M176.23 130.763c-.246.144-.246.37 0 .512a.96.96 0 0 0 .881 0c.245-.143.245-.368 0-.512a1.03 1.03 0 0 0-.881 0z"/><use xlink:href="#g" x="-13.826" y="-7.956"/><use xlink:href="#O" x="-53.124" y="6.473"/><use xlink:href="#c" x="-23.044" y="-15.922"/><use xlink:href="#Z" x="-80.787" y="11.801"/><path d="M181.72 130.774c-.246-.144-.635-.144-.88 0s-.246.368 0 .51a.96.96 0 0 0 .881 0c.246-.143.246-.378 0-.51z"/><use xlink:href="#Y" x="-62.332" y="17.098"/><path d="M176.23 128.115c-.246.143-.246.368 0 .51a.96.96 0 0 0 .881 0c.245-.143.245-.368 0-.51s-.635-.144-.88 0z"/><use xlink:href="#d" x="-13.826" y="-13.263"/><use xlink:href="#I" x="-48.495" y="-1.514"/><use xlink:href="#M" x="-57.712" y="-1.514"/><use xlink:href="#l" x="-25.451" y="6.443"/><path d="M184.025 129.444a.96.96 0 0 0-.881 0c-.246.143-.246.368 0 .51a.96.96 0 0 0 .881 0c.245-.143.245-.378 0-.51z"/><use xlink:href="#k" x="-23.044" y="-10.605"/><use xlink:href="#j" x="-23.045" y="-13.263"/><path d="M176.23 125.456c-.246.143-.246.368 0 .51s.635.144.88 0 .245-.368 0-.51a.96.96 0 0 0-.881 0z"/><use xlink:href="#N" x="-48.495" y="1.146"/><use xlink:href="#n" y="-7.966"/><path d="M169.318 121.468c-.246.143-.246.368 0 .51a.96.96 0 0 0 .88 0c.246-.143.246-.368 0-.51a1.02 1.02 0 0 0-.88 0z"/><use xlink:href="#b" x="-80.787" y="9.142"/><use xlink:href="#m" x="-11.624" y="11.76"/><path d="M183.144 126.785c-.246.144-.246.368 0 .512a.96.96 0 0 0 .881 0c.245-.144.245-.368 0-.512a.96.96 0 0 0-.881 0z"/><use xlink:href="#Z" x="-66.96" y="11.801"/><use xlink:href="#G" x="-34.669" y="-1.514"/><path d="M176.23 122.797c-.246.144-.246.37 0 .512a.96.96 0 0 0 .881 0c.245-.143.245-.368 0-.512-.246-.132-.646-.132-.88 0z"/><use xlink:href="#H" x="-48.495" y="-6.822"/><path d="M171.622 120.138c-.245.144-.245.37 0 .512a.96.96 0 0 0 .881 0c.246-.143.246-.368 0-.512-.246-.133-.635-.133-.88 0z"/><use xlink:href="#M" x="-57.712" y="-6.82"/><path d="M188.634 126.785a.96.96 0 0 0-.881 0c-.246.144-.246.368 0 .512a.96.96 0 0 0 .881 0c.246-.144.235-.368 0-.512z"/><use xlink:href="#O" x="-39.307" y="3.815"/><use xlink:href="#J" x="-34.669" y="-1.514"/><use xlink:href="#l" x="-11.624" y="6.443"/><path d="M190.96 125.446a.96.96 0 0 0-.881 0c-.246.143-.246.368 0 .51s.635.144.88 0c.236-.143.236-.378 0-.51z"/><use xlink:href="#C" x="-27.746" y="-5.502"/><use xlink:href="#Z" x="-62.34" y="9.132"/><use xlink:href="#R" x="-39.288" y="3.804"/><path d="M193.265 124.116a.96.96 0 0 0-.881 0c-.246.144-.246.368 0 .512a.96.96 0 0 0 .881 0c.235-.144.235-.368 0-.512z"/><use xlink:href="#E" x="-20.832" y="-4.183"/><use xlink:href="#S" x="-39.286" y="3.804"/><use xlink:href="#X" x="-57.713" y="6.462"/><path d="M195.558 122.787a.96.96 0 0 0-.881 0c-.246.143-.246.368 0 .51s.635.144.88 0 .246-.368 0-.51z"/><use xlink:href="#T" x="-39.29" y="3.804"/><use xlink:href="#E" x="-20.832" y="-6.842"/><use xlink:href="#W" x="-55.408" y="2.476"/><path d="M197.862 121.97c.245-.144.245-.37 0-.512a.96.96 0 0 0-.881 0c-.246.143-.246.368 0 .512.246.133.635.143.88 0z"/><use xlink:href="#Z" x="-53.123" y="6.473"/><use xlink:href="#V" x="-41.584" y="2.476"/><use xlink:href="#O" x="-34.679" y="-4.172"/></g><path d="M183.502 89.736c9.37-16.832 16.04-12.568 20.187-10.185 4.148 2.393 12.66-3.66 15.137-23.275 2.704-21.403 18.087-32.448 18.087-32.448l7.784 4.694-4.772 14.542-3.022 4.244v34.718l-48.075 27.713-2.95 5.92-8.194 9.674-7.783-4.694c.01-.01 4.23-14.082 13.6-30.904z" class="D"/><path d="M183.502 93.47c9.37-16.832 16.04-12.568 20.187-10.185 4.148 2.393 12.66-3.66 15.137-23.275 2.704-21.403 18.087-32.448 18.087-32.448l7.784 4.694-4.772 14.542-3.022 4.244v34.718l-48.075 27.713-2.95 5.92-2.438 2.874-12.72-.328c.02-.01 3.4-11.637 12.782-28.47z" fill="#fec"/><path d="M199.366 77.546l8.665 4.96 6.073 12.65-25.266 14.562-2.95 5.92-8.193 9.674-7.784-4.694s4.22-14.07 13.59-30.893c6.616-11.873 11.88-13.243 15.864-12.18z" class="D"/><path d="M199.366 80.298l8.665 4.96 6.073 12.65-25.266 14.562-2.95 5.92-3.87 4.254-5.132 2.22-5.254-3.1s3.145-12.445 12.516-29.278c6.616-11.852 11.235-13.243 15.22-12.2z" fill="#fec"/><path d="M169.256 120.435c.04-.143 4.352-14.337 13.652-31.036a58.72 58.72 0 0 1 .953-1.646c.07-.113.133-.225.204-.338.297-.5.605-.982.902-1.442.01-.01.02-.03.02-.04 3.35-5.164 6.637-8.14 9.986-9.06 1.68-.46 3.206-.358 4.578 0 1.66.44 3.083 1.258 4.27 1.943l.225.133c1.014.583 2.346.522 3.75-.174 3.87-1.922 8.624-8.866 10.365-22.6 2.714-21.454 18.2-32.806 18.364-32.918l.368-.266 8.51 5.123v.5L240.6 43.268l-2.98 4.244v34.892l-48.24 27.805-2.857 5.737-8.358 9.91-.45.266-8.603-5.185.144-.5zM239.3 42.747l4.568-13.918-6.913-4.162c-2.305 1.82-15.035 12.67-17.442 31.7-2.264 17.957-9.085 22.65-11.113 23.653-.727.358-1.454.583-2.16.665l2.325 1.33.092.204c.04.092 3.85 8.324 5.726 11.975l21.835-12.588V47.073l3.083-4.326zm-61.748 81.676l7.753-9.162 3-6.034L213.173 94.9c-1.72-3.344-5.08-10.594-5.684-11.893l-8.358-4.786-.225-.06a5.44 5.44 0 0 0-.563-.102c-.123-.02-.236-.03-.36-.04-.235-.02-.47-.04-.706-.04h-.093c-2.13.03-4.27 1.033-6.432 3.017-.01.01-.02.02-.03.02-.584.542-1.168 1.156-1.752 1.83l-.338.41c-.164.194-.327.4-.49.603-.133.164-.256.327-.39.5l-.533.726c-.164.225-.318.45-.48.685l-.615.9c-.113.164-.215.348-.328.522-.194.297-.38.614-.573.92l-.287.47-.86 1.483c-8.235 14.787-12.516 27.58-13.376 30.25l6.852 4.11z" class="E"/><path d="M244.697 86.7V28.522S229.314 39.567 226.6 60.97c-2.478 19.604-11 25.658-15.137 23.275-4.148-2.393-10.816-6.647-20.187 10.185s-13.59 30.893-13.59 30.893L244.697 86.7z" class="D"/><path d="M176.885 125.63l.82.49 67.69-39.033V28.134l-.728-.44-.368.266c-.154.112-15.66 11.474-18.364 32.928-1.73 13.724-6.493 20.667-10.365 22.6-1.403.695-2.734.757-3.748.174l-.226-.133c-2.17-1.258-5.14-2.976-8.85-1.953-4.045 1.115-7.988 5.215-12.065 12.527-9.3 16.7-13.6 30.893-13.652 31.036l-.144.5zM244 86.3l-65.088 37.52c1.424-4.223 5.623-15.85 12.987-29.063 3.83-6.872 7.6-10.87 11.225-11.862 3.144-.87 5.715.624 7.784 1.82l.225.133c1.434.828 3.227.777 5.05-.123 2.038-1.012 8.85-5.696 11.122-23.653 2.213-17.507 13.17-28.09 16.705-31.088L244 86.3z" class="E"/><path d="M200.073 107.55c7.64-13.734 13.09-10.257 16.47-8.304s10.324-2.986 12.352-18.98C231.096 62.81 243.642 53.8 243.642 53.8l6.35 3.825-3.892 11.862-2.458 3.456v28.316l-39.216 22.6-2.407 4.827-6.678 7.894-6.35-3.824c0-.01 3.442-11.484 11.082-25.218z" class="D"/><path d="M200.073 110.597c7.64-13.733 13.09-10.257 16.47-8.303s10.324-2.986 12.352-18.98c2.202-17.456 14.748-26.465 14.748-26.465l6.35 3.825-3.892 11.862-2.458 3.456v28.316l-39.216 22.6-2.407 4.827-1.987 2.352-10.375-.266c0-.01 2.776-9.5 10.416-23.234z" fill="#fec"/><path d="M213.02 97.6l7.067 4.05 4.957 10.318-20.607 11.883-2.407 4.827-6.677 7.894-6.35-3.824s3.44-11.474 11.08-25.208c5.388-9.684 9.68-10.81 12.936-9.94z" class="D"/><path d="M213.02 99.86l7.067 4.05 4.957 10.32-20.607 11.882-2.407 4.827-3.164 3.477-4.19 1.8-4.292-2.526s2.57-10.154 10.212-23.878c5.397-9.694 9.166-10.83 12.423-9.96z" fill="#fec"/><path d="M188.45 132.594c.03-.113 3.544-11.69 11.133-25.32.256-.46.523-.9.78-1.34.05-.092.112-.184.163-.276a38.99 38.99 0 0 1 .738-1.176c.01-.01.01-.02.02-.03 2.735-4.213 5.408-6.636 8.143-7.393 1.372-.378 2.61-.296 3.738 0 1.352.358 2.52 1.033 3.482 1.585l.185.102c.83.48 1.915.43 3.052-.143 3.154-1.565 7.036-7.23 8.45-18.428 2.212-17.497 14.85-26.762 14.984-26.854l.307-.215 6.944 4.183v.41l-3.922 11.944-2.438 3.467v28.46l-39.35 22.68-2.325 4.674-6.82 8.078-.37.215-7.016-4.223.123-.4zm57.14-63.372l3.728-11.35-5.633-3.395c-1.885 1.493-12.27 10.34-14.226 25.862-1.854 14.654-7.405 18.48-9.064 19.297a5.46 5.46 0 0 1-1.762.542l1.905 1.084.072.163c.03.072 3.144 6.79 4.67 9.777l17.81-10.267V72.76l2.5-3.538zm-50.37 66.624l6.33-7.476 2.447-4.918 20.3-11.7c-1.403-2.73-4.148-8.64-4.64-9.705l-6.81-3.906c-.06-.02-.123-.03-.184-.05-.154-.03-.307-.06-.46-.082-.092-.01-.195-.02-.297-.04a5.57 5.57 0 0 0-.584-.031h-.072c-1.74.03-3.482.84-5.243 2.465-.01.01-.01.01-.02.02a20.5 20.5 0 0 0-1.434 1.493c-.092.103-.184.215-.276.328l-.4.5c-.102.133-.215.266-.317.41l-.43.594c-.134.184-.267.368-.4.562l-.5.746c-.093.133-.175.277-.267.42l-.47.756-.235.39c-.236.39-.46.798-.697 1.217-6.72 12.067-10.21 22.498-10.907 24.676l5.57 3.344z" class="E"/><path d="M249.993 105.075v-47.46s-12.546 9.01-14.748 26.465c-2.018 15.993-8.972 20.933-12.352 18.98s-8.818-5.42-16.47 8.304c-7.64 13.734-11.082 25.208-11.082 25.208l54.65-31.497z" class="D"/><path d="M194.676 136.838l.666.4 55.214-31.835V57.3l-.594-.358-.308.215c-.123.092-12.77 9.357-14.984 26.854-1.413 11.198-5.295 16.863-8.45 18.428-1.137.562-2.223.613-3.052.143l-.185-.102c-1.77-1.023-4.2-2.424-7.22-1.596-3.298.91-6.514 4.255-9.843 10.216-7.59 13.622-11.102 25.198-11.132 25.32l-.113.42zm54.753-32.1l-53.094 30.607c1.157-3.446 4.588-12.926 10.6-23.704 3.124-5.615 6.207-8.866 9.156-9.674 2.56-.706 4.66.5 6.35 1.483l.185.102c1.167.675 2.632.634 4.127-.102 1.66-.83 7.22-4.643 9.075-19.297 1.802-14.286 10.743-22.917 13.62-25.36l-.01 45.946z" class="E"/><g stroke="#0d0c0c" stroke-width="1.029"><path d="M152.054 98.604l30.76-18.278-1.664 16.26-9.12-.455-36.75 39.183-11.84.912 38.783-39.377-10.168 1.753z" fill="#ffbe2e"/><path d="M160.695 94.352L152.3 95.8l30.475-17.15-1.55 15.157-9.145-.445-.163.174-36.563 38.998-11.84.912 38.76-39.366-1.578.272z" class="D"/><path d="M122.917 135.94l-.84.853-.13.01-2.2-4.588 31.968-32.93 8.823-1.525-37.612 38.18zm28.74-36.785l-2.437.412-2.217-4.6 34.272-20.295 2.398 4.828-1.976 17.61-.16-.008.042-.418 1.76-17.353-.88.523-31.108 18.483.305.82z" fill="#fcf9f8"/></g><path d="M168.207 50.45l4.205-2.838c.026-.027.02-.064-.006-.1l-4.522-2.474c-.016-.005-.027-.026-.02-.042l4.235-8.566c-.153-2.133-6.204-9.825-8.12-10.772l-8.538.814c-.016-.005-.027-.026-.02-.042l-.56-5.1c-.005-.037-.053-.053-.074-.042l-4.18 2.81c-.6.385-.94 1.156-.87 2.24l.87 12.77c.152 2.133 1.834 4.663 3.764 5.615l11.48 5.644c.936.484 1.768.475 2.354.085zm-6.064-17.247c1.048.52 1.974 1.902 2.056 3.06l.4 5.87-1.452-.795-.918.6-5.984-7.9.89-.625-.3-2.71c-.005-.037.042-.075.07-.048l5.237 2.55z" fill="#007550"/><path d="M149.32 24.912c.182-.558.502-1 .966-1.29l4.422-2.96.606.252.066.34.508 4.616 8.188-.77.14.063c2.084 1.02 8.28 8.918 8.43 11.227l.006.143-4.08 8.247 4.373 2.4.052.653-.28.208-4.205 2.838c-.77.524-1.804.502-2.915-.04l-11.48-5.644c-2.085-1.02-3.916-3.74-4.075-6.07l-.87-12.77c-.04-.525.01-1.003.15-1.434zm5.064-2.715l-3.498 2.346c-.47.305-.688.922-.624 1.755l.87 12.77c.13 1.932 1.72 4.308 3.453 5.16l11.48 5.644c.745.368 1.402.408 1.835.108l3.53-2.39-4.07-2.238-.05-.493 4.214-8.556c-.37-2.063-5.833-9.014-7.68-10.115l-8.517.803-.414-.19-.066-.34-.464-4.266zm1.874 8.225l.543-.422.345.13 5.228 2.583c1.233.6 2.267 2.14 2.35 3.51l.465 6.862-2.037-1.11c-.048.037-.095.075-.153.09-.628.412-.913.583-1.213.202l-6.128-8.105.04-.234c.04-.234.046-.25.68-.677.063-.032.116-.086.163-.123l-.283-2.706zm7.715 10.763l-.33-4.893c-.07-.976-.862-2.173-1.745-2.604l-4.425-2.178.198 1.83c.04.313-.055.388-.667.805l5.342 7.052c.02-.01.042-.02.07-.048.564-.38.738-.48 1.053-.254l.505.3z" fill="#150035"/><path d="M168.596 27.045l-11.508-5.67c-1.914-.947-3.36.026-3.207 2.16l.876 12.806c.152 2.133 1.812 4.62 3.726 5.568l11.508 5.67c1.915.947 3.36-.026 3.208-2.16l-.876-12.806c-.13-2.144-1.807-4.637-3.727-5.568zm.26 13.45c.082 1.157-.704 1.675-1.736 1.16l-6.37-3.135c-1.032-.516-1.936-1.855-2.018-3.01l-.483-7.08c-.082-1.157.704-1.675 1.736-1.16l6.37 3.135c1.032.515 1.936 1.855 2.018 3.01l.483 7.08z" fill="#fff"/><g fill="#150035"><path d="M153.5 22.102c.177-.542.492-.968.92-1.252.77-.524 1.804-.502 2.916.04l11.507 5.67c2.096 1.042 3.884 3.677 4.037 6.023l.877 12.806c.077 1.226-.293 2.2-1.063 2.723s-1.804.502-2.916-.04l-11.507-5.67c-2.1-1.026-3.884-3.677-4.037-6.023l-.877-12.806c-.046-.562.01-1.056.144-1.47zm14.867 5.432l-11.508-5.67c-.745-.368-1.402-.408-1.835-.108s-.65.916-.582 1.733l.877 12.806c.134 1.916 1.698 4.266 3.432 5.118l11.507 5.67c.745.368 1.402.408 1.835.108s.65-.916.582-1.733l-.876-12.806c-.13-1.932-1.715-4.27-3.432-5.118zm-10.568.06c.114-.35.308-.623.598-.8.496-.33 1.164-.324 1.834.002l6.37 3.135c1.218.594 2.235 2.13 2.33 3.467l.482 7.08c.053.76-.197 1.365-.693 1.697s-1.164.324-1.834-.002l-6.37-3.135c-1.217-.594-2.235-2.13-2.33-3.467l-.482-7.08c-.018-.324.012-.632.095-.887zm11.058 12.903l-.54.034-.483-7.08c-.075-.96-.857-2.136-1.724-2.562l-6.37-3.135c-.304-.153-.595-.178-.748-.087-.16.107-.226.367-.213.707l.483 7.08c.075.96.857 2.136 1.724 2.562l6.37 3.135c.303.153.595.178.748.087.158-.107.226-.367.213-.707l.54-.034z"/><path d="M156.255 40.038l-.608-.9-4.175 2.795.608.9 4.175-2.795zm11.797-7.904l-.608-.9-4.175 2.795.608.9 4.175-2.795zm-13.73-6.87l-.608-.9-4.175 2.795.608.9 4.175-2.795zm14.012 21.628l-.607-.9-4.176 2.795.608.9 4.175-2.795z"/></g><g stroke="#0f0f0f" stroke-width="1.215"><path d="M167.375 134.52v3.22c0 .062-.026.146-.107.317l-7.397 4.18a1.33 1.33 0 0 1-1.389 0h0l-.01-.005-7.454-4.283a.06.06 0 0 1-.027-.025c-.008-.013-.014-.033-.014-.06h-.608.608v-3.128l.984.268.218-.124 6.66-3.778.62 3.603.095.556.56-.054 7.26-.69z" class="D"/><g fill="#fefdff"><path d="M166.998 134.404v-.05h.608l-.608.05zm0 0l-6.94.577-.252-.126m7.193-.45l.578-.4-7.64.635-.004-.025-.126.252m0 0l.126-.252-.377.127.25.125zm-.57-4.065l-.3.05-.178-.307.5.256zm0 0l-.9.148.9-.148zm-7.756 3.988v-.174h-.607l-.072.25.68-.077zm0 0l.273.077h.252l-.525-.077zm-.607 3.088l-.525.001.525-.001zm17.34-4.014h0zm-7.7 1.318l6.865-.652.03 1.454.077 1.326.074.505.037.14-.023.013-.014.007-7.497 4.237-.278.1v-4.83l.73-2.288z"/><path d="M168.36 133.852h-.273.273zm-17.466 4.014h-.525.525z"/><path d="M150.62 133.475h0-.02l.016.016.004-.016zm0 0v.02-.02zm-.356.04c-.056.018-.108.045-.147.085l.147-.085zm0 0v.335-.335zm.23 5.354l.196-.336c-.035-.016-.07-.034-.102-.056a.72.72 0 0 1-.244-.277.76.76 0 0 1-.07-.215l-.008-.07c-.001-.01-.001-.02-.001-.027l-.001-.012v-.01s0-.001.126-.001h0-.126v-3.614l.23 4.618zm0 0l.217-.327a.75.75 0 0 0 .287.056h.24m-.743.27l.902.525v-.703m-.16-.093l.16.093m-.16-.093h.16v.093m-.16-.093l.767.446m-.608-.353l.608.353m0 0v-3.94 3.94zm-.4-4.57l-.125-.125.153.044-.028.08zm-.732 3.4h-.4.4zm-.125-3.136h-.274v-.626l.016-.017.045-.003.213.646zm.07 3.624c-.16-.108-.238-.18-.28-.24-.02-.028-.04-.064-.05-.12H151l-.182.362z"/></g><path d="M158.533 138.383l-.03-.022-.032-.02-7.454-4.282c-.012-.006-.04-.022-.04-.1s.033-.164.11-.232l7.52-4.25a1.33 1.33 0 0 1 1.389 0h0l.01.006 7.438 4.274.016.008c.012.006.04.023.04.1s-.033.164-.11.232l-7.492 4.234c-.625.307-1.1.24-1.365.05z" fill="#fff"/><path d="M150.747 133.977h-.39.39zm0 0h-.39.39zm16.983 0h0z" fill="#fefdff"/></g><g class="B C F"><path d="M132.57 67.635l.014.055.026.05 1.482 2.728-1.6 3.2c-.68 1.233-2.054 2.182-4.15 2.615s-4.888.34-8.306-.496c-4.866-1.188-9.348-3.672-12.7-7.313-3.383-3.676-4.23-6.748-3.305-8.866l.045-.09 1.633-3.276 2.144.032.074-.027c1.015-.365 2.08-.428 3.385-.28 1.312.148 2.835.506 4.763.962 3.774.894 7.38 2.69 10.535 5.127.922.745 1.73 1.33 2.432 1.825l.45.316c.51.357.945.663 1.325.96.953.745 1.488 1.383 1.752 2.47z"/><path d="M107.47 55.502l.07.001.067-.02c2.237-.707 4.582-.17 8.113.642l.434.1c3.897.952 7.77 2.76 10.862 5.288l.008.006.007.006.748.563c.706.532 1.353 1.02 1.902 1.39 1.972 1.362 3.068 2.15 3.588 3.898l.012.042.02.04 1.545 2.885-1.802 3.615c-.827 1.528-2.437 2.547-4.723 2.98-2.292.435-5.222.27-8.588-.537h0-.004c-1.828-.42-3.782-1.145-5.53-2.016-2.838-1.414-5.322-3.27-7.503-5.468-3.488-3.727-4.566-7.163-3.442-9.682l1.878-3.77 2.337.04zm-1.58.614l-.254.012-.114.227-1.562 3.137c-1.104 2.524.173 5.775 3.264 9.085 3.198 3.516 7.836 6.076 12.68 7.345h0l.005.001c3.055.76 5.76.958 7.915.6s3.8-1.286 4.654-2.824l.004-.007.004-.008.1-.2 1.602-3.215-.102-.196L132.7 67.4c-.423-1.53-1.355-2.17-3.108-3.38l-.234-.16-.004-.003c-.436-.292-.927-.656-1.5-1.08l-1.228-.902c-3.14-2.456-6.794-4.148-10.522-5.115h0l-.006-.002c-1.97-.48-3.52-.84-4.815-.985-1.267-.143-2.32-.088-3.317.267l-.188-.007h-.018-.018l-1.843.086z"/></g><path d="M127.64 73.1h0-.006c-3.493.096-7.515-.977-11.202-2.814s-6.993-4.416-9.075-7.292c-2.033-2.856-2.378-5.345-1.51-7.088s3.047-2.94 6.524-2.988c3.527-.02 7.567 1.093 11.254 2.93s6.98 4.378 9.03 7.176c2.033 2.856 2.377 5.344 1.508 7.087s-3.047 2.94-6.525 2.988z" fill="#fff" class="B C"/><g class="F B C"><path d="M112.444 52.72h.002c3.56-.026 7.642 1.12 11.236 2.9 3.713 1.85 6.918 4.465 8.975 7.158l.005.006.004.006c1.82 2.566 2.524 5.177 1.513 7.206-1.008 2.022-3.397 3.094-6.668 3.132-3.535.105-7.574-1-11.224-2.807s-6.958-4.387-9.002-7.274l5.16-10.338zm0 0c-3.273.036-5.663 1.108-6.672 3.13m6.672-3.13l-6.672 3.13m0 0c-1 2.03-.306 4.64 1.513 7.206l-1.513-7.206zm6.514-3.603h.01c3.63-.1 7.804 1.026 11.615 2.925s7.216 4.56 9.328 7.5c2.157 3.05 2.667 5.8 1.67 7.812-1.05 2.104-3.564 3.356-7.233 3.37h0-.006c-3.55.07-7.766-1.038-11.605-2.95s-7.258-4.6-9.34-7.486c-2.156-3.048-2.666-5.8-1.67-7.8 1.05-2.104 3.564-3.356 7.232-3.37zm13.33 17.193h0-.01c-2.37-.088-5.143-.9-7.713-2.192s-4.897-2.998-6.394-4.838c-1.516-1.863-1.786-3.35-1.316-4.295s1.822-1.625 4.222-1.536c2.37.087 5.143.9 7.713 2.192s4.897 2.998 6.394 4.838c1.512 1.86 1.775 3.373 1.297 4.333s-1.827 1.636-4.194 1.5z"/><path d="M114.314 55.91h0 .013c2.448.066 5.342.918 8.023 2.254s5.105 3.133 6.63 5.048h0l.003.003c1.673 2.057 1.963 3.83 1.373 5.014-.638 1.28-2.334 2.065-4.822 1.924l-.013-.001h-.013c-2.402.01-5.195-.883-7.942-2.252-2.73-1.36-5.09-3.155-6.704-5.057-1.67-2.055-1.96-3.828-1.37-5.01.638-1.28 2.334-2.065 4.822-1.924zm7.864 2.74c-2.47-1.23-5.284-2.128-7.708-2.166-2.06-.126-3.69.437-4.3 1.683-.316.636-.297 1.386-.065 2.137s.7 1.547 1.316 2.316c1.51 1.856 3.85 3.563 6.384 4.825s5.3 2.102 7.69 2.19c2.062.127 3.692-.435 4.314-1.683.317-.635.298-1.386.066-2.137s-.7-1.545-1.314-2.312c-1.49-1.913-3.8-3.566-6.374-4.854z"/></g><path d="M127.5 65.62h0l.01.01c1.01 1.17 1.453 2.242 1.5 3.18-.752.447-1.884.743-3.478.73-2.37-.09-5.14-.912-7.707-2.19s-4.893-2.995-6.4-4.833c-.964-1.258-1.4-2.335-1.51-3.202.75-.443 1.88-.735 3.465-.723 2.37.09 5.14.912 7.707 2.192s4.896 2.998 6.393 4.838z" fill="#ffd45d" class="B C"/><path d="M113.42 57.72h0 .004c2.448.066 5.342.918 8.023 2.254s5.105 3.133 6.63 5.048h0l.003.003c1.148 1.41 1.65 2.716 1.706 3.876l-.018.165-.135.128c-.826.678-2.252 1.027-4.108.958h-.01-.01c-2.402.01-5.195-.883-7.942-2.252-2.73-1.36-5.09-3.155-6.704-5.057-1.147-1.4-1.647-2.714-1.703-3.873l.018-.165.135-.127c.825-.678 2.252-1.027 4.108-.96zm-3.266 1.44l-.252.153.05.29c.16.915.676 1.97 1.447 3l.006.007.005.007c1.51 1.856 3.85 3.563 6.384 4.825s5.305 2.103 7.696 2.192c1.393.05 2.585-.163 3.334-.68l.227-.157-.047-.273c-.16-.915-.675-1.968-1.447-3l-.005-.007-.006-.007c-1.51-1.857-3.85-3.562-6.384-4.825s-5.297-2.1-7.687-2.19c-1.262-.1-2.432.126-3.32.666z" class="B C F"/><path d="M123.508 76.134l1.067-2.142.335.167-1.067 2.142-.335-.167zm-19.44-12.7l1.068-2.142.335.167-1.068 2.142-.335-.167zM122.8 60.6l.516-1.036.335.167-.516 1.036-.335-.167z" fill="#ffd45d" class="B C"/><path d="M116.548 60.67l-.224-.3-1.964 1.085-1.588-1.573.54-1.085 4.216.063 8.727 9.553-.557 1.118-.84.045-2.18-.402-6.13-8.492zm-.188.66l-.225-.312-1.96 1.083-2.22-2.256.844-1.694 4.922.04 9.18 10.03-.85 1.706-1.245-.004c-.77-.03-1.606-.205-2.5-.393l-.065-.014-5.9-8.187zm6.13 7.93l.103.142.174.03.87.173.167.036 1.012.177.032.004.995-.036.748-1.5-.2-.22-8.728-9.574-4.48.006-.12.24-.594 1.193.234.22 1.64 1.546.275-.147 1.592-.853.133.125 6.144 8.44z" class="F B C"/><path d="M117.35 59.06l-.23-.32-.34.2-1.675.987-1.398-1.385 2.115-1.203 2.324-.048 7.676 10.558-2.14.024-6.33-8.812z" fill="#fff" class="B C"/><path d="M118.445 56.686l8.5 11.733-3.46.108-6.6-9.018-.334.184-1.622.896-2.215-2.28 2.862-1.593 2.87-.032zm5.077 11.328l.137.19.234-.01 2.64-.123-8.04-11.193-.224.002-2.332.02-.094.05-2.605 1.385 1.797 1.693.274-.147 1.57-.84.108.018.157.15 6.377 8.806z" class="B C F"/><defs ><path id="B" d="M217.813 130.948c-.246.143-.246.368 0 .51a.96.96 0 0 0 .881 0c.245-.143.245-.368 0-.51a.96.96 0 0 0-.881 0z"/><path id="C" d="M215.95 130.232c-.345 0-.624-.16-.624-.358s.28-.358.624-.358.625.16.625.358-.28.358-.625.358z"/><path id="D" d="M213.204 128.29c-.245.143-.245.368 0 .51a.96.96 0 0 0 .881 0c.246-.143.246-.368 0-.51-.246-.133-.635-.133-.88 0z"/><path id="E" d="M210.9 126.97c-.246.143-.246.368 0 .51a.95.95 0 0 0 .88 0c.246-.143.246-.368 0-.51a.96.96 0 0 0-.88 0z"/><path id="F" d="M217.813 128.29c-.246.143-.246.368 0 .51a.96.96 0 0 0 .881 0c.245-.143.245-.368 0-.51-.246-.133-.635-.133-.88 0z"/><path id="G" d="M213.204 125.64c-.245.144-.245.37 0 .512a.96.96 0 0 0 .881 0c.246-.143.246-.368 0-.512a.96.96 0 0 0-.881 0z"/><path id="H" d="M222.422 128.29c-.246.143-.246.368 0 .51a.96.96 0 0 0 .881 0c.246-.143.246-.368 0-.51-.246-.133-.635-.133-.88 0z"/><path id="I" d="M220.117 126.97c-.245.143-.245.368 0 .51s.635.144.88 0 .246-.368 0-.51a.96.96 0 0 0-.881 0z"/><path id="J" d="M217.813 125.64c-.246.144-.246.37 0 .512a.96.96 0 0 0 .881 0c.245-.143.245-.368 0-.512a.96.96 0 0 0-.881 0z"/><path id="K" d="M215.51 124.31c-.246.143-.246.368 0 .51a.96.96 0 0 0 .881 0c.246-.143.246-.368 0-.51s-.635-.144-.88 0z"/><path id="L" d="M220.117 124.31c-.245.143-.245.368 0 .51a.96.96 0 0 0 .881 0c.246-.143.246-.368 0-.51s-.635-.144-.88 0z"/><path id="M" d="M227.03 125.64c-.246.144-.246.37 0 .512a.96.96 0 0 0 .88 0c.246-.143.246-.368 0-.512a.96.96 0 0 0-.88 0z"/><path id="N" d="M222.422 122.98c-.246.144-.246.37 0 .512a.96.96 0 0 0 .881 0c.246-.143.246-.368 0-.512a.96.96 0 0 0-.881 0z"/><path id="O" d="M225.187 122.255c-.345 0-.625-.16-.625-.358s.28-.358.625-.358.625.16.625.358-.28.358-.625.358z"/><path id="P" d="M220.138 119.494a.96.96 0 0 0 .881 0c.246-.143.246-.368 0-.51l-.88.51z"/><path id="Q" d="M229.356 121.642c-.246.143-.246.368 0 .51a.96.96 0 0 0 .881 0c.245-.143.245-.368 0-.51s-.646-.144-.88 0z"/><path id="R" d="M222.442 117.653c-.246.143-.246.368 0 .512a.96.96 0 0 0 .88 0c.246-.144.246-.37 0-.512a.96.96 0 0 0-.88 0z"/><path id="S" d="M227.05 117.653c-.246.143-.246.368 0 .512a.96.96 0 0 0 .881 0c.246-.144.246-.37 0-.512a.96.96 0 0 0-.881 0z"/><path id="T" d="M231.66 117.653c-.245.143-.245.368 0 .512a.96.96 0 0 0 .881 0c.246-.144.246-.37 0-.512a.96.96 0 0 0-.881 0z"/><path id="U" d="M238.563 118.983c-.246.143-.246.368 0 .51a.96.96 0 0 0 .881 0c.245-.143.245-.368 0-.51-.236-.144-.635-.144-.88 0z"/><path id="V" d="M233.954 116.324c-.245.143-.245.368 0 .51a.96.96 0 0 0 .881 0c.246-.143.246-.368 0-.51-.235-.133-.635-.133-.88 0z"/><path id="W" d="M243.172 116.324c-.246.143-.246.368 0 .51a.96.96 0 0 0 .881 0c.246-.143.246-.368 0-.51-.236-.133-.635-.133-.88 0z"/><path id="X" d="M243.613 114.28c-.345 0-.625-.16-.625-.358s.28-.358.625-.358.624.16.624.358-.28.358-.624.358z"/><path id="Y" d="M240.867 112.346c-.245.143-.245.368 0 .51a.96.96 0 0 0 .881 0c.246-.143.246-.368 0-.51a.96.96 0 0 0-.881 0z"/><path id="Z" d="M247.8 113.655c-.246.143-.246.368 0 .51s.635.144.88 0 .246-.368 0-.51a.96.96 0 0 0-.881 0z"/><path id="a" d="M243.193 110.996c-.246.144-.246.37 0 .512a.96.96 0 0 0 .88 0c.246-.143.246-.368 0-.512a1.02 1.02 0 0 0-.88 0z"/><path id="b" d="M247.8 110.996c-.246.144-.246.37 0 .512a.96.96 0 0 0 .881 0c.246-.143.246-.368 0-.512-.246-.133-.635-.133-.88 0z"/><path id="c" d="M192.362 142.707c-.246.144-.246.368 0 .512a.96.96 0 0 0 .88 0c.246-.144.246-.368 0-.512a.96.96 0 0 0-.88 0z"/><path id="d" d="M187.753 140.048c-.246.144-.246.368 0 .512a.96.96 0 0 0 .881 0c.246-.144.246-.368 0-.512a.96.96 0 0 0-.881 0z"/><path id="e" d="M185.45 138.72c-.246.143-.246.368 0 .51a.96.96 0 0 0 .88 0c.246-.143.246-.368 0-.51a.95.95 0 0 0-.88 0z"/><path id="f" d="M180.84 136.06c-.246.143-.246.368 0 .51a.96.96 0 0 0 .881 0c.246-.143.246-.368 0-.51-.236-.144-.635-.144-.88 0z"/><path id="g" d="M187.753 137.4c-.246.143-.246.368 0 .51a.96.96 0 0 0 .881 0c.246-.143.246-.368 0-.51a.96.96 0 0 0-.881 0z"/><path id="h" d="M192.362 137.4c-.246.143-.246.368 0 .51a.96.96 0 0 0 .88 0c.246-.143.246-.368 0-.51a.96.96 0 0 0-.88 0z"/><path id="i" d="M187.753 134.73c-.246.143-.246.368 0 .51s.635.144.88 0 .246-.368 0-.51c-.246-.133-.635-.133-.88 0z"/><path id="j" d="M201.58 140.048c-.245.144-.245.368 0 .512a.96.96 0 0 0 .881 0c.246-.144.246-.368 0-.512a.96.96 0 0 0-.881 0z"/><path id="k" d="M203.884 138.72c-.246.143-.246.368 0 .51a.96.96 0 0 0 .881 0c.246-.143.246-.368 0-.51s-.645-.144-.88 0z"/><path id="l" d="M192.464 116.354c-.246.144-.246.37 0 .512a.96.96 0 0 0 .881 0c.246-.143.246-.368 0-.512a1.03 1.03 0 0 0-.881 0z"/><path id="m" d="M197.954 116.355a.95.95 0 0 0-.88 0c-.246.143-.246.368 0 .51a.96.96 0 0 0 .88 0c.246-.143.246-.368 0-.51z"/><path id="n" d="M171.622 130.763c-.245.144-.245.37 0 .512a.96.96 0 0 0 .881 0c.246-.143.246-.368 0-.512a1.03 1.03 0 0 0-.881 0z"/></defs></svg>