<svg width="1140" height="589" viewBox="0 0 1140 589" fill="none" xmlns="http://www.w3.org/2000/svg">
<mask id="mask0" mask-type="alpha" maskUnits="userSpaceOnUse" x="0" y="0" width="1140" height="589">
<rect width="1140" height="589" fill="#C4C4C4"/>
</mask>
<g mask="url(#mask0)">
<rect width="1140" height="589" fill="#FF513F"/>
<g style="mix-blend-mode:overlay" opacity="0.2">
<path d="M-0.000278473 2.30078H919.512L544.039 296.055L-0.000278473 353.731V426.262L969.892 459.076V589.809H-0.000278473V426.262L-21.8633 425.522L-41.1914 358.098L-0.000278473 353.731V2.30078Z" fill="white"/>
</g>
<path d="M90.6205 90.2305C93.4947 88.6907 95.291 86.0219 95.291 82.7371C95.291 75.9623 87.1304 72.0103 77.892 72.0103C73.5808 72.0103 69.0129 72.8828 64.9582 74.7305L68.4996 83.7123C71.5791 82.1725 75.1205 81.3513 77.9433 81.3513C80.9202 81.3513 83.0758 82.2752 83.0758 84.1229C83.0758 85.4573 81.998 86.2785 79.945 86.2785H71.2712V95.0037H80.9715C82.9218 95.0037 84.5129 95.5169 84.5129 97.1593C84.5129 99.3662 81.69 100.393 77.9433 100.393C74.8125 100.393 71.0145 99.6742 67.5758 98.2884L64.0344 106.654C68.9102 108.81 74.1453 109.785 78.9698 109.785C88.6702 109.785 96.7281 105.782 96.7281 98.8017C96.7281 94.9523 94.4185 91.7702 90.6205 90.2305ZM128.799 108.913H141.323L125.617 72.9855H113.71L98.0048 108.913H110.323L112.735 102.651H126.387L128.799 108.913ZM116.071 93.9258L119.561 84.8927L123.051 93.9258H116.071ZM160.026 72.9855V108.913H171.933V82.3778H182.865V108.913H194.773V72.9855H160.026ZM219.397 109.734C231.099 109.734 239.67 101.83 239.67 90.949C239.67 80.0682 231.099 72.1643 219.397 72.1643C207.695 72.1643 199.124 80.0682 199.124 90.949C199.124 101.83 207.695 109.734 219.397 109.734ZM219.397 99.9308C214.932 99.9308 211.339 96.5434 211.339 90.949C211.339 85.3547 214.932 81.9672 219.397 81.9672C223.862 81.9672 227.455 85.3547 227.455 90.949C227.455 96.5434 223.862 99.9308 219.397 99.9308ZM247.749 72.9855L247.287 86.997C247.031 93.9772 246.517 99.3662 242.514 99.3662C242.104 99.3662 241.642 99.3149 241.18 99.2123L240.564 108.913C242.463 109.375 244.208 109.58 245.696 109.58C255.602 109.58 257.45 100.393 257.86 86.5351L257.963 82.3778H266.175V108.913H278.082V72.9855H247.749ZM327.171 72.9855H299.815V108.913H311.722V82.3778H327.171V72.9855ZM346.907 109.734C358.609 109.734 367.18 101.83 367.18 90.949C367.18 80.0682 358.609 72.1643 346.907 72.1643C335.205 72.1643 326.633 80.0682 326.633 90.949C326.633 101.83 335.205 109.734 346.907 109.734ZM346.907 99.9308C342.441 99.9308 338.849 96.5434 338.849 90.949C338.849 85.3547 342.441 81.9672 346.907 81.9672C351.372 81.9672 354.964 85.3547 354.964 90.949C354.964 96.5434 351.372 99.9308 346.907 99.9308ZM406.105 99.5202V72.9855H375.72L375.31 83.9176C374.899 93.0533 373.719 99.5202 369.254 99.5202H368.227V115.944H379.313V108.913H399.74V115.944H410.826V99.5202H406.105ZM385.831 84.9441L385.934 82.3778H394.197V99.5202H383.111C384.907 96.4407 385.575 91.3083 385.831 84.9441ZM443.162 108.913H455.685L439.98 72.9855H428.073L412.367 108.913H424.685L427.097 102.651H440.75L443.162 108.913ZM430.434 93.9258L433.924 84.8927L437.414 93.9258H430.434ZM502.001 90.0765C504.927 88.4854 506.62 85.8166 506.62 82.3778C506.62 76.4242 501.488 72.9855 492.609 72.9855H474.389V108.913H493.584C502.976 108.913 508.211 104.858 508.211 98.4937C508.211 94.3364 505.953 91.5136 502.001 90.0765ZM486.296 81.454H491.428C493.481 81.454 494.405 82.4292 494.405 84.1742C494.405 85.9192 493.481 86.7917 491.428 86.7917H486.296V81.454ZM493.019 100.444H486.296V94.7984H493.019C495.021 94.7984 495.996 95.7222 495.996 97.5699C495.996 99.4176 495.021 100.444 493.019 100.444ZM563.692 72.9855H551.066L543.418 86.3811H539.723V72.9855H527.61V108.913H539.723V95.9275H543.11L549.988 108.913H563.64L553.016 90.4358L563.692 72.9855ZM583.927 109.734C590.958 109.734 596.501 107.168 600.043 102.548L592.395 95.7222C590.291 98.3911 587.776 99.9308 584.543 99.9308C579.513 99.9308 576.125 96.4407 576.125 90.949C576.125 85.4573 579.513 81.9672 584.543 81.9672C587.776 81.9672 590.291 83.507 592.395 86.1758L600.043 79.3497C596.501 74.7305 590.958 72.1643 583.927 72.1643C572.379 72.1643 563.91 79.9143 563.91 90.949C563.91 101.984 572.379 109.734 583.927 109.734ZM648.937 90.7951C648.937 81.5053 642.624 75.8596 630.46 74.9358V71.1891H619.374V74.9358C607.21 75.9623 600.897 81.454 600.897 90.7951C600.897 100.136 607.21 105.679 619.374 106.706V110.76H630.46V106.757C642.624 105.936 648.937 100.136 648.937 90.7951ZM630.46 97.3133V84.2768C635.182 84.9441 637.235 86.9457 637.235 90.7437C637.235 94.5931 635.285 96.646 630.46 97.3133ZM612.599 90.7951C612.599 86.9457 614.498 84.9954 619.374 84.3282V97.2619C614.858 96.5434 612.599 94.5931 612.599 90.7951ZM84.6155 170.734C91.647 170.734 97.19 168.168 100.731 163.548L93.0841 156.722C90.9798 159.391 88.4649 160.931 85.2314 160.931C80.2016 160.931 76.8142 157.441 76.8142 151.949C76.8142 146.457 80.2016 142.967 85.2314 142.967C88.4649 142.967 90.9798 144.507 93.0841 147.176L100.731 140.35C97.19 135.73 91.647 133.164 84.6155 133.164C73.0675 133.164 64.599 140.914 64.599 151.949C64.599 162.984 73.0675 170.734 84.6155 170.734ZM134.73 133.985H101.78V143.378H112.301V169.913H124.208V143.378H134.73V133.985ZM164.687 169.913H177.21L161.504 133.985H149.597L133.892 169.913H146.21L148.622 163.651H162.274L164.687 169.913ZM151.958 154.926L155.448 145.893L158.938 154.926H151.958ZM185.749 133.985L185.287 147.997C185.03 154.977 184.517 160.366 180.514 160.366C180.103 160.366 179.641 160.315 179.179 160.212L178.563 169.913C180.462 170.375 182.207 170.58 183.696 170.58C193.601 170.58 195.449 161.393 195.86 147.535L195.962 143.378H204.174V169.913H216.082V133.985H185.749ZM280.927 169.913L280.825 133.985H270.868L259.474 153.129L247.772 133.985H237.815V169.913H248.849V154.105L256.651 166.679H261.989L269.79 153.54L269.893 169.913H280.927ZM287.235 169.913H298.68L310.998 151.282V169.913H322.905V133.985H311.511L299.142 152.668V133.985H287.235V169.913ZM334.008 133.985L333.547 147.997C333.29 154.977 332.777 160.366 328.773 160.366C328.363 160.366 327.901 160.315 327.439 160.212L326.823 169.913C328.722 170.375 330.467 170.58 331.955 170.58C341.861 170.58 343.709 161.393 344.119 147.535L344.222 143.378H352.434V169.913H364.341V133.985H334.008ZM375.409 133.985L374.947 147.997C374.69 154.977 374.177 160.366 370.174 160.366C369.763 160.366 369.301 160.315 368.839 160.212L368.223 169.913C370.122 170.375 371.867 170.58 373.356 170.58C383.262 170.58 385.109 161.393 385.52 147.535L385.622 143.378H393.834V169.913H405.742V133.985H375.409ZM412.087 169.913H423.533L435.851 151.282V169.913H447.758V133.985H436.364L423.995 152.668V133.985H412.087V169.913ZM472.411 170.734C484.113 170.734 492.684 162.83 492.684 151.949C492.684 141.068 484.113 133.164 472.411 133.164C460.709 133.164 452.138 141.068 452.138 151.949C452.138 162.83 460.709 170.734 472.411 170.734ZM472.411 160.931C467.946 160.931 464.353 157.543 464.353 151.949C464.353 146.355 467.946 142.967 472.411 142.967C476.876 142.967 480.469 146.355 480.469 151.949C480.469 157.543 476.876 160.931 472.411 160.931ZM520.345 133.985V146.714H509.156V133.985H497.043V169.913H509.156V156.671H520.345V169.913H532.457V133.985H520.345ZM550.752 160.777V156.055H565.944V147.33H550.752V143.121H568.049V133.985H538.845V169.913H568.716V160.777H550.752ZM590.926 133.985H573.629V169.913H585.742V161.085H590.926C600.934 161.085 607.298 155.85 607.298 147.535C607.298 139.221 600.934 133.985 590.926 133.985ZM590.156 151.744H585.742V143.327H590.156C593.492 143.327 595.083 144.918 595.083 147.535C595.083 150.153 593.492 151.744 590.156 151.744ZM629.743 170.734C641.445 170.734 650.016 162.83 650.016 151.949C650.016 141.068 641.445 133.164 629.743 133.164C618.041 133.164 609.469 141.068 609.469 151.949C609.469 162.83 618.041 170.734 629.743 170.734ZM629.743 160.931C625.277 160.931 621.685 157.543 621.685 151.949C621.685 146.355 625.277 142.967 629.743 142.967C634.208 142.967 637.8 146.355 637.8 151.949C637.8 157.543 634.208 160.931 629.743 160.931ZM697.488 169.913L697.385 133.985H687.428L676.034 153.129L664.332 133.985H654.375V169.913H665.41V154.105L673.211 166.679H678.549L686.35 153.54L686.453 169.913H697.488ZM66.5493 230.913H77.9947L90.3125 212.282V230.913H102.22V194.985H90.8258L78.4566 213.668V194.985H66.5493V230.913ZM159.762 194.985H147.136L139.489 208.381H135.793V194.985H123.681V230.913H135.793V217.928H139.181L146.058 230.913H159.71L149.086 212.436L159.762 194.985ZM187.459 194.985L180.068 210.126L172.934 194.985H160.154L173.909 220.34C172.78 221.726 171.6 222.341 169.803 222.341C168.777 222.341 167.596 222.136 166.108 221.726L163.285 230.451C165.697 231.426 168.058 231.888 170.265 231.888C176.219 231.888 181.3 228.449 184.739 222.033L199.161 194.985H187.459ZM201.677 194.985V230.913H213.584V204.378H224.516V230.913H236.424V194.985H201.677ZM242.777 230.913H254.222L266.54 212.282V230.913H278.447V194.985H267.053L254.684 213.668V194.985H242.777V230.913ZM289.551 194.985L289.089 208.997C288.832 215.977 288.319 221.366 284.316 221.366C283.905 221.366 283.443 221.315 282.981 221.212L282.365 230.913C284.264 231.375 286.009 231.58 287.498 231.58C297.403 231.58 299.251 222.393 299.662 208.535L299.764 204.378H307.976V230.913H319.883V194.985H289.551ZM66.5493 255.985V291.913H78.4566V265.378H89.3887V291.913H101.296V255.985H66.5493ZM124.945 255.985H107.649V291.913H119.762V283.085H124.945C134.954 283.085 141.318 277.85 141.318 269.535C141.318 261.221 134.954 255.985 124.945 255.985ZM124.175 273.744H119.762V265.327H124.175C127.512 265.327 129.103 266.918 129.103 269.535C129.103 272.153 127.512 273.744 124.175 273.744ZM156.897 282.777V278.055H172.089V269.33H156.897V265.121H174.193V255.985H144.99V291.913H174.86V282.777H156.897ZM222.887 291.913L222.784 255.985H212.827L201.433 275.129L189.731 255.985H179.774V291.913H190.809V276.105L198.61 288.679H203.948L211.749 275.54L211.852 291.913H222.887ZM229.194 291.913H240.639L252.957 273.282V291.913H264.864V255.985H253.47L241.101 274.668V255.985H229.194V291.913ZM295.471 255.985L288.08 271.126L280.946 255.985H268.166L281.921 281.34C280.792 282.726 279.612 283.341 277.815 283.341C276.789 283.341 275.608 283.136 274.12 282.726L271.297 291.451C273.709 292.426 276.07 292.888 278.277 292.888C284.231 292.888 289.312 289.449 292.751 283.033L307.173 255.985H295.471ZM352.802 291.913L352.699 255.985H342.742L331.348 275.129L319.646 255.985H309.689V291.913H320.724V276.105L328.525 288.679H333.863L341.664 275.54L341.767 291.913H352.802ZM358.236 281.442H373.634V272.717H358.236V281.442ZM405.32 291.913H417.843L402.138 255.985H390.231L374.526 291.913H386.843L389.256 285.651H402.908L405.32 291.913ZM392.592 276.926L396.082 267.893L399.572 276.926H392.592ZM448.772 273.077C451.697 271.485 453.391 268.817 453.391 265.378C453.391 259.424 448.259 255.985 439.38 255.985H421.159V291.913H440.355C449.747 291.913 454.982 287.858 454.982 281.494C454.982 277.336 452.724 274.514 448.772 273.077ZM433.067 264.454H438.199C440.252 264.454 441.176 265.429 441.176 267.174C441.176 268.919 440.252 269.792 438.199 269.792H433.067V264.454ZM439.79 283.444H433.067V277.798H439.79C441.792 277.798 442.767 278.722 442.767 280.57C442.767 282.418 441.792 283.444 439.79 283.444ZM489.39 255.985H456.44V265.378H466.961V291.913H478.869V265.378H489.39V255.985ZM511.155 292.734C522.857 292.734 531.428 284.83 531.428 273.949C531.428 263.068 522.857 255.164 511.155 255.164C499.453 255.164 490.882 263.068 490.882 273.949C490.882 284.83 499.453 292.734 511.155 292.734ZM511.155 282.931C506.69 282.931 503.097 279.543 503.097 273.949C503.097 268.355 506.69 264.967 511.155 264.967C515.62 264.967 519.213 268.355 519.213 273.949C519.213 279.543 515.62 282.931 511.155 282.931Z" fill="white"/>
<path d="M288.891 466.113L1095.88 431.848L1225.37 462.471L1051.53 562.118L594.735 585.256L288.891 466.113Z" fill="#001E20" fill-opacity="0.1"/>
<path d="M288.888 466.112L940.959 431.555L1098.74 436.606L1053.01 468.968L955.835 502.887L557.256 514.557L288.888 466.112Z" fill="#001E20" fill-opacity="0.1"/>
<g clip-path="url(#clip0)">
<path d="M1109.54 376.524L1027.92 324.943L979.725 376.524L960.065 472.318H1102.2L1109.54 376.524Z" fill="#FFC856"/>
<path d="M843.028 248.485L922.443 278.397L1027.91 324.943L799.577 339.681L843.028 248.485Z" fill="#001E20"/>
<path d="M960.055 472.318H832.589L816.083 405.999L799.577 339.68L1027.91 324.943L978.187 385.772L969.121 429.045L960.055 472.318Z" fill="#F2994A"/>
<path d="M698.705 351.654L799.577 339.68L832.59 472.317L670.278 495.344L698.705 351.654Z" fill="#FFC856"/>
<path d="M843.031 248.485L642.201 251.553L548.685 320.338L799.947 339.681L843.031 248.485Z" fill="#001E20"/>
<path d="M843.031 248.485L642.201 251.553L548.685 320.338L799.947 339.681L843.031 248.485Z" fill="url(#paint0_linear)" fill-opacity="0.25"/>
<path d="M843.031 248.484L799.58 339.68L775.738 337.838L832.341 248.484H843.031Z" fill="#FFC856"/>
<path d="M642.192 251.554H652.883L561.33 321.26L548.309 320.338L642.192 251.554Z" fill="#FFC856"/>
<path d="M1079.47 309.257L1070.35 330.371L1037.22 332.817L986.428 306.975L1079.47 309.257Z" fill="#FFC856"/>
<path d="M851.668 313.435L846.598 335.607L811.358 347.671L750.632 338.879L851.668 313.435Z" fill="#FFC856"/>
<path d="M536.926 328.042L541.996 305.87L577.236 293.806L586.456 301.404L536.926 328.042Z" fill="#FFC856"/>
<path d="M1102.66 472.319L1090.45 479.344L783.996 500.873V472.319H1102.66Z" fill="#001E20"/>
<path d="M698.711 351.654L670.283 495.345L478.627 518.372L287.887 495.345V417.604L305.311 430.868L591.42 435.105L698.711 351.654Z" fill="#FFC856"/>
<path d="M697.789 331.759L548.315 320.338L361.244 339.681L642.768 351.655L697.789 331.759Z" fill="#FFC856"/>
<path d="M485.964 433.447L642.773 351.654L361.249 339.68L305.311 430.868L485.964 433.447Z" fill="#FFC856"/>
<path d="M287.889 417.604L305.312 430.868L361.25 339.68L287.889 417.604Z" fill="#FFC856"/>
<path d="M591.414 435.106L573.074 490.74L477.257 502.352L484.893 451.732L591.414 435.106Z" fill="#001E20"/>
<path d="M977.438 385.886L966.974 436.98L944.592 437.161L951.352 395.414L977.438 385.886Z" fill="#001E20"/>
<path d="M940.008 450.077L944.589 441.761L966.734 440.994L964.902 450.219L940.008 450.077Z" fill="#001E20"/>
<path d="M305.301 430.868V477.843L287.878 472.317V417.604L305.301 430.868Z" fill="#001E20"/>
<path d="M436.441 464.396L458.449 500.871L316.312 486.686L320.163 456.475L436.441 464.396Z" fill="#001E20"/>
<path d="M799.578 339.681L698.706 351.655L591.415 435.106L485.958 433.448L642.768 351.655L697.789 331.76L799.578 339.681Z" fill="#FFC856"/>
<path d="M680.367 518.372L479.54 531.268L478.623 518.372L670.28 495.345L680.367 518.372Z" fill="#001E20"/>
<path d="M287.883 495.345L478.622 518.372L479.539 531.268L287.883 507.319V495.345Z" fill="#001E20"/>
<path d="M567.337 409.687C559.222 398.633 570.155 376.7 591.757 360.698C613.36 344.697 637.451 340.686 645.567 351.74C653.683 362.794 642.749 384.727 621.147 400.728C599.544 416.73 575.453 420.741 567.337 409.687Z" fill="white"/>
<path d="M324.481 389.545C318.446 382.956 326.365 365.778 342.167 351.175C357.97 336.573 375.672 330.077 381.706 336.665C387.741 343.254 379.822 360.433 364.02 375.035C348.217 389.637 330.515 396.134 324.481 389.545Z" fill="white"/>
<path d="M727.724 549.138C693.142 549.138 665.107 510.335 665.107 462.47C665.107 414.605 693.142 375.803 727.724 375.803C762.306 375.803 790.34 414.605 790.34 462.47C790.34 510.335 762.306 549.138 727.724 549.138Z" fill="#001E20"/>
<path d="M698.815 551.299C664.174 551.299 649.073 523.827 646.018 504.653C646.018 499.284 651.848 504.653 686.49 504.653C721.131 504.653 761.539 417.47 761.539 465.084C761.539 512.699 733.457 551.299 698.815 551.299Z" fill="#001E20"/>
<path d="M1004.21 512.138C979.117 507.705 971.228 488.371 971.143 475.835C971.739 472.434 975.365 476.581 1000.45 481.014C1025.54 485.448 1064.48 435.394 1059.2 465.555C1053.92 495.715 1028.58 512.138 1004.21 512.138Z" fill="#001E20"/>
<path d="M1021.13 511.319C996.567 509.563 978.684 479.545 981.184 444.272C983.683 408.998 1005.62 381.827 1030.18 383.583C1054.74 385.339 1072.62 415.357 1070.12 450.631C1067.62 485.904 1045.69 513.075 1021.13 511.319Z" fill="#001E20"/>
<path d="M743.001 549.138C708.419 549.138 680.385 510.335 680.385 462.47C680.385 414.605 708.419 375.803 743.001 375.803C777.583 375.803 805.617 414.605 805.617 462.47C805.617 510.335 777.583 549.138 743.001 549.138Z" fill="#001E20"/>
<path d="M746.054 526.127C719.907 526.127 698.71 497.626 698.71 462.468C698.71 427.311 719.907 398.81 746.054 398.81C772.202 398.81 793.398 427.311 793.398 462.468C793.398 497.626 772.202 526.127 746.054 526.127Z" fill="white"/>
<path d="M705.23 462.469C705.23 477.851 709.823 491.76 717.228 501.815C724.633 511.869 734.829 518.046 746.054 518.046C757.279 518.046 767.475 511.869 774.88 501.815C782.285 491.76 786.878 477.851 786.878 462.469C786.878 447.087 782.285 433.177 774.88 423.123C767.475 413.068 757.279 406.891 746.054 406.891C734.829 406.891 724.633 413.068 717.228 423.123C709.823 433.177 705.23 447.087 705.23 462.469Z" fill="white" stroke="black" stroke-width="0.822743"/>
<path d="M1030.11 512.321C1000.64 510.214 978.423 478.275 980.922 443.002C983.422 407.729 1004.91 379.636 1038.83 382.95C1068.3 385.058 1090.18 415.361 1087.68 450.634C1085.18 485.908 1059.59 514.429 1030.11 512.321Z" fill="#001E20"/>
<path d="M1045.39 495.449C1027.68 495.449 1013.32 474.159 1013.32 447.897C1013.32 421.635 1027.68 400.345 1045.39 400.345C1063.1 400.345 1077.46 421.635 1077.46 447.897C1077.46 474.159 1063.1 495.449 1045.39 495.449Z" fill="#C4C4C4"/>
<path d="M1018.31 447.898C1018.31 459.69 1021.46 470.346 1026.52 478.042C1031.58 485.742 1038.53 490.437 1046.15 490.437C1053.77 490.437 1060.72 485.742 1065.79 478.042C1070.85 470.346 1073.99 459.69 1073.99 447.898C1073.99 436.106 1070.85 425.45 1065.79 417.754C1060.72 410.054 1053.77 405.359 1046.15 405.359C1038.53 405.359 1031.58 410.054 1026.52 417.754C1021.46 425.45 1018.31 436.106 1018.31 447.898Z" stroke="black" stroke-width="0.822743"/>
<rect x="688.02" y="533.797" width="61.0891" height="15.3394" fill="#001E20"/>
<rect x="1005.68" y="498.517" width="30.5445" height="13.8054" fill="#001E20"/>
<g filter="url(#filter0_d)">
<path d="M406.953 396.503L411.597 396.377L416.786 397.876L410.02 407.772L405.482 407.138L406.953 396.503Z" fill="#FF513F"/>
</g>
<rect x="726.199" y="375.803" width="18.3267" height="13.8054" fill="#001E20"/>
<path d="M316.9 478.576L452.06 490.081L458.932 500.818L316.137 487.013L316.9 478.576Z" fill="#F2994A"/>
<path d="M959.862 437.159L967.498 389.608L977.424 385.773L967.497 437.16L959.862 437.159Z" fill="#6A1F17"/>
<path d="M940.008 450.198L958.335 445.596L959.098 440.995L966.734 440.994L965.207 450.198L940.008 450.198Z" fill="#6A1F17"/>
<path d="M287.883 460.168L305.446 468.605V477.809L287.883 472.44V460.168Z" fill="#F2994A"/>
<path d="M477.262 503.118V496.982L563.55 481.642L584.931 435.624L591.804 434.09L574.241 490.846L477.262 503.118Z" fill="#F2994A"/>
<path d="M657.299 325.383L667.439 325.787L674.961 338.333L665.503 328.847L658.106 329.421L657.299 325.383Z" fill="#FF513F"/>
<path d="M656.881 330.172L664.131 333.085L667.944 347.188L661.413 335.458L651.894 332.104L656.881 330.172Z" fill="#FF513F"/>
<path d="M627.191 321.405L618.925 315.51L605.251 320.773L618.581 319.127L624.09 324.115L627.191 321.405Z" fill="#FF513F"/>
<path d="M626.113 325.868L618.309 325.461L608.942 336.721L619.761 328.78L629.873 329.71L626.113 325.868Z" fill="#FF513F"/>
<path d="M660.359 318.988L652.71 317.701L652.815 319.811L661.927 321.278L660.359 318.988Z" fill="#FF513F"/>
<path d="M660.364 318.989L661.713 311.799L663.45 312.097L661.932 321.279L660.364 318.989Z" fill="#FF513F"/>
<path d="M621.528 314.605L626.899 307.12L628.286 308.167L624.14 314.095L621.528 314.605Z" fill="#FF513F"/>
<path d="M621.528 314.603L628.599 320.119L630.143 318.716L624.188 314.086L621.528 314.603Z" fill="#FF513F"/>
<path d="M664.124 333.086L661.406 335.46L651.886 332.106L656.874 330.174L664.124 333.086Z" fill="#FF513F"/>
<path d="M629.873 329.71L626.113 325.868L618.308 325.461L619.761 328.78L629.873 329.71Z" fill="#FF513F"/>
<path d="M627.191 321.406L624.09 324.116L618.581 319.127L618.924 315.51L627.191 321.406Z" fill="#FF513F"/>
<path d="M657.302 325.382L658.109 329.42L665.506 328.846L667.441 325.787L657.302 325.382Z" fill="#FF513F"/>
<path d="M634.125 315.194L653.378 316.149L662.587 325.979L652.444 334.868L633.191 333.914L624.031 324.077L634.125 315.194Z" fill="#FF513F"/>
<path d="M663.331 312.726L675.174 307.306L670.503 292.11L664.346 306.781L665.385 295.89L657.279 304.408L661.593 312.428L663.331 312.726Z" fill="#FF513F"/>
<path d="M627.004 307.896L623.777 298.576L634.551 293.168L629.727 304.247L635.162 297.942L634.704 306.831L628.058 308.692L627.004 307.896Z" fill="#FF513F"/>
<path d="M650.041 291.525L650.715 293.974L630.098 299.63L629.424 297.182L650.041 291.525Z" fill="#001E20"/>
<path d="M645.198 286.717L647.109 293.658L633.072 297.51L631.161 290.569L645.198 286.717Z" fill="#001E20"/>
<path d="M662.582 325.98L624.083 324.12L633.187 333.915L652.44 334.869L662.582 325.98Z" fill="#AA3528"/>
<path d="M639.212 318.135L637.353 309.933L639.027 305.825L640.9 309.608L639.212 318.135Z" fill="#001E20"/>
<path d="M648.18 318.728L646.645 310.215L648.449 306.511L650.249 310.646L648.18 318.728Z" fill="#001E20"/>
</g>
<path d="M853.502 232.436C842.308 215.269 840.544 196.094 852.612 187.411C852.612 187.411 868.116 195.052 864.26 210.933L867.343 215.977L853.502 232.436Z" fill="#FFBB83"/>
<path d="M848.405 231.981L868.897 209.435L878.571 220.446L858.084 245.359L848.405 231.981Z" fill="#F4DDB8"/>
<path d="M907.273 248.999L876.663 211.393L851.064 241.664C851.064 241.664 895.346 301.772 902.439 300.944C909.531 300.116 907.273 248.999 907.273 248.999Z" fill="#5E425B"/>
<path d="M859.528 230.111C871.719 246.204 900.063 282.742 905.63 282.094C905.899 282.052 906.15 281.949 906.369 281.789C905.792 291.947 904.446 300.598 901.549 300.935C894.413 301.765 849.858 241.505 849.858 241.505L859.528 230.111Z" fill="#4F364D"/>
<path d="M938.773 209.686C919.839 223.784 896.316 249.829 893.678 256.916C891.039 264.003 899.811 300.037 907.953 299.217C916.094 298.397 947.146 286.442 947.146 286.442L938.773 209.686Z" fill="#5E425B"/>
<path d="M930.339 258.072C934.57 255.864 938.623 253.327 942.473 250.476L946.419 286.083C946.419 286.083 914.01 298.419 905.512 299.266C898.761 299.938 890.86 274.781 888.284 262.486C895.758 269.399 914.327 266.442 930.339 258.072Z" fill="#4F364D"/>
<path d="M988.037 363.313C980.295 429.563 926.549 558.56 926.549 558.56L924.577 558.763L932.932 332.383L988.037 363.313Z" fill="#493E4C"/>
<path d="M961.839 350.163L991.916 365.412C984.087 431.908 925.784 558.496 925.784 558.496L924.793 558.597C930.279 533.58 943.808 459.906 954.099 398.364C954.247 397.48 946.174 376.854 946.32 375.976C949.076 359.44 959.803 363.599 961.839 350.163Z" fill="#372E3A"/>
<path d="M1018.41 347.778C1023.97 384.415 1023.82 545.727 1023.82 545.727L1022.86 545.828L961.157 385.709L943.855 358.58L940.552 330.568L1018.41 347.778Z" fill="#493E4C"/>
<path d="M975.978 358.164L942.366 344.097L940.772 330.566L1018.54 347.772C1023.79 382.401 1023.94 528.415 1023.94 544.255L1007.04 401.261L975.978 358.164Z" fill="#372E3A"/>
<path d="M1033.68 358.764C1009.34 358.011 950.341 341.548 950.341 341.548C950.341 341.548 935.401 221.282 943.678 204.576C950.289 199.762 964.428 193.401 974.585 194.519C998.735 197.176 1022.34 217.433 1027.04 223.416C1042.16 242.687 1033.68 358.764 1033.68 358.764Z" fill="#A5507E"/>
<path d="M942.434 269.356C946.655 272.49 951.533 273.86 956.079 273.19C974.184 271.365 993.142 247.571 998.424 220.044C999.55 214.428 999.963 208.542 999.652 202.549C1013.22 209.711 1023.85 219.245 1026.85 223.045C1042.06 242.366 1033.53 358.743 1033.53 358.743C1009.05 357.988 949.693 341.482 949.693 341.482C949.693 341.482 945.142 304.982 942.434 269.356Z" fill="#913D6F"/>
<path d="M985.186 352.649L940.671 341.337C944.21 338.241 951.392 329.525 952.018 323.164C960.818 335.89 972.318 346.113 985.186 352.649Z" fill="#F4DDB8"/>
<path d="M954.434 333.646L951.042 343.973L940.671 341.337C944.209 338.241 951.392 329.525 952.018 323.164C960.818 335.89 972.318 346.113 985.186 352.649L965.617 347.676L954.434 333.646Z" fill="#E2C498"/>
<path d="M1040.08 393.31C1007.11 380.908 958.622 320.854 955.065 291.1C951.508 261.346 976.472 209.678 990.82 198.291C990.82 198.291 1022.22 211.453 1030.02 225.511C1039.21 242.094 1040.08 393.31 1040.08 393.31Z" fill="#5E425B"/>
<path d="M1011.93 227.516C1015.69 227.208 1019.58 227.812 1023.38 229.295C1027.17 230.777 1030.79 233.106 1034.03 236.146C1040.21 275.575 1040.83 391.227 1040.83 391.227C1030.3 387.17 1018.14 377.962 1006.44 366.401C1000.48 353.21 991.103 229.717 1011.93 227.516Z" fill="#4F364D"/>
<path d="M942.279 364.875C949.9 338.324 953.587 301.554 952.339 287.25C951.092 272.946 941.329 227.02 942.57 206.584C940.94 207.326 937.64 209.296 936.898 211.777C927.867 241.949 934.9 309.429 942.279 364.875Z" fill="#5E425B"/>
<path d="M961.656 233.49C961.656 233.49 956.034 215.073 955.12 202.49C962.473 198.962 971.705 194.807 979.096 195.607C983.768 196.113 988.594 198.458 993.105 199.998C981.383 209.668 970.839 220.896 961.656 233.49Z" fill="#F4DDB8"/>
<path d="M991.445 172.977L992.223 200.08L965.79 200.203L967.644 181.526L991.445 172.977Z" fill="#ED7656"/>
<path d="M990.565 151.669C992.896 172.371 987.705 187.216 985.993 188.906C981.701 193.144 968.19 189.654 964.908 185.182C961.625 180.711 965.563 145.339 967.56 141.384C969.558 137.43 988.409 132.523 990.565 151.669Z" fill="#FFBB83"/>
<path d="M1027.21 211.711C1067.39 242.955 1089.79 302.555 1090.71 308.475C1091.64 314.395 1065.63 321.062 1055.65 316.456C1045.67 311.85 1019.59 284.78 1011.06 277.223C1005.53 272.327 1002.86 192.773 1027.21 211.711Z" fill="#5E425B"/>
<path d="M1029.42 210.741C1029.72 210.955 1030.02 211.177 1030.33 211.425C1068.77 242.222 1092.13 302.354 1093.01 308.19C1093.35 310.481 1089.42 312.67 1083.95 314.213C1082.25 305.109 1064.56 249.459 1029.42 210.741Z" fill="#4F364D"/>
<path d="M1005.82 363.096C1007.01 360.724 1006.41 359.57 1016.57 352.755L1007.29 375.79C1007.29 375.79 1004.6 365.554 1005.82 363.096Z" fill="#FFBB83"/>
<path d="M1017.35 350.882L1038.9 368.103C1038.9 368.103 1036.59 387.151 1032.71 390.695C1028.82 394.24 1022.97 389.511 1022.97 389.511C1017.74 392.578 1013.56 383.213 1013.56 383.213C1013.56 383.213 1007.35 382.561 1005.93 376.862C1004.52 371.162 1010.52 360.655 1017.35 350.882Z" fill="#FFBB83"/>
<path d="M1040.8 375.263L1014.87 351.948L1022.16 339.558L1050.23 362.716L1040.8 375.263Z" fill="#F4DDB8"/>
<path d="M1085.84 306.381C1076.29 337.354 1053.57 370.758 1053.57 370.758C1053.57 370.758 1023.59 346.572 1020.74 339.959C1020.74 339.959 1038.36 292.36 1042.86 288.665C1047.36 284.97 1085.84 306.381 1085.84 306.381Z" fill="#5E425B"/>
<path d="M1074.92 295.253C1080.05 297.803 1084.78 301.506 1088.79 306.1C1079.28 336.976 1054.03 369.832 1054.03 369.832C1054.03 369.832 1048.35 365.242 1041.71 359.521C1049.83 347.146 1065.74 319.638 1074.92 295.253Z" fill="#4F364D"/>
<path d="M958.091 224.071L967.687 200.089L969.334 200.307L966.106 227.045C964.502 229.594 962.741 231.996 960.834 234.239C960.152 230.813 959.234 227.412 958.091 224.071Z" fill="#5E425B"/>
<path d="M994.085 200.225L991.616 192.91C980.354 196.791 971.374 197.018 964.922 193.195L962.462 199.672L966.591 203.736L971.179 196.84L975.319 205.883L994.085 200.225Z" fill="#DDC29B"/>
<path d="M969.836 203.822L973.163 201.917L970.812 197.356L967.872 201.137L969.836 203.822Z" fill="#5E425B"/>
<path d="M883.136 184.904C883.136 184.904 901.405 188.921 904.038 159.41L917.811 174.539C920.147 195.936 904.604 204.698 885.192 205.01L883.136 184.904Z" fill="#AFB23F"/>
<path d="M908.387 184.572C915.904 170.884 908.631 168.057 906.348 160.678L919.031 173.986C920.5 187.788 913.787 196.319 904.244 200.557C910.362 195.908 906.544 187.929 908.387 184.572Z" fill="#6D593F"/>
<path d="M1015.61 547.982L1029.1 546.626C1029.1 546.626 1020.87 544.277 1018.04 540.749C1014.97 536.926 1015.61 547.982 1015.61 547.982Z" fill="#FFE9CA"/>
<path d="M912.6 563.801L895.469 565.539C895.469 565.539 905.871 560.912 909.412 556.266C913.249 551.231 912.6 563.801 912.6 563.801Z" fill="#FFE9CA"/>
<path d="M879.837 258.97C878.265 259.128 876.616 257.521 876.155 255.381C875.694 253.241 876.595 251.379 878.168 251.221C879.741 251.063 881.389 252.67 881.85 254.81C882.311 256.95 881.41 258.812 879.837 258.97Z" fill="#E2C498"/>
<path d="M872.166 249.991C870.593 250.149 868.944 248.542 868.483 246.402C868.022 244.262 868.923 242.4 870.496 242.242C872.069 242.084 873.718 243.691 874.179 245.831C874.64 247.971 873.738 249.833 872.166 249.991Z" fill="#E2C498"/>
<path d="M1051.94 342.179C1051.15 340.46 1051.97 338.522 1053.75 337.849C1055.54 337.177 1057.62 338.025 1058.41 339.744C1059.19 341.463 1058.38 343.402 1056.59 344.074C1054.8 344.746 1052.72 343.898 1051.94 342.179Z" fill="#E2C498"/>
<path d="M1044.97 351.71C1044.18 349.991 1045 348.053 1046.78 347.381C1048.57 346.708 1050.65 347.557 1051.44 349.276C1052.22 350.995 1051.41 352.933 1049.62 353.606C1047.83 354.278 1045.75 353.429 1044.97 351.71Z" fill="#E2C498"/>
<path d="M994.775 182.554L991.901 174.761L986.687 171.847C986.687 171.847 986.094 147.34 988.278 145.903C990.461 144.465 974.909 139.476 969.019 141.157C964.199 128.529 990.679 127.864 997.638 137.46C1010.53 155.242 994.775 182.554 994.775 182.554Z" fill="#723939"/>
<path d="M988.829 166.741C990.183 162.701 993.058 160.583 994.946 162.231C996.662 163.729 996.703 167.681 995.288 170.923C993.982 173.914 991.737 175.574 990.071 174.779C988.262 173.917 987.598 170.417 988.829 166.741Z" fill="#FFBB83"/>
<path d="M989.738 168.322C990.591 165.777 992.402 164.443 993.591 165.481C994.671 166.425 994.697 168.913 993.805 170.955C992.982 172.839 991.569 173.884 990.52 173.384C989.381 172.841 988.963 170.636 989.738 168.322Z" fill="#ED7656"/>
<path d="M989.295 170.188C990.041 168.574 991.367 167.837 992.116 168.618C992.797 169.328 992.657 170.975 991.916 172.254C991.233 173.433 990.197 174.011 989.509 173.596C988.763 173.147 988.616 171.656 989.295 170.188Z" fill="#FFBB83"/>
<path d="M912.378 196.075C931.976 189.229 927.037 174.237 923.977 166.564C920.292 157.323 918.87 150.781 920.193 147.113C919.203 147.512 917.461 149.499 916.714 154.115C915.032 164.51 923.029 172.34 914.911 180.147C908.772 186.05 912.378 196.075 912.378 196.075Z" fill="#FFDA66"/>
<path d="M928.16 162.261C922.73 171.456 926.86 176.206 924.726 181.174C923.397 184.128 922.405 187.312 921.772 190.658C924.728 188.271 927.078 185.062 928.653 181.264C931.315 173.358 926.146 170.815 928.16 162.261Z" fill="#FFDA66"/>
<path d="M911.683 194.981C915.319 194.351 918.405 192.189 920.351 188.909C922.297 185.629 922.966 181.461 922.23 177.202C915.596 179.936 908.797 182.353 911.683 194.981Z" fill="#FFCC3B"/>
<path d="M910.685 195.175C912.41 194.876 913.873 193.851 914.796 192.295C915.719 190.739 916.036 188.763 915.688 186.743C912.541 188.04 909.316 189.186 910.685 195.175Z" fill="#FF9F2C"/>
<path d="M950 346.707L957.146 348.499L957.963 352.257L950.818 350.465L950 346.707Z" fill="#E2C498"/>
<path d="M978.747 256.037C982.51 260.872 985.292 266.49 986.852 272.402L971.898 266.624C973.655 262.658 975.962 259.092 978.747 256.037Z" fill="#E2C498"/>
<path d="M988.45 270.56L969.912 263.509L970.127 271.143L988.62 276.336L988.45 270.56Z" fill="#755473"/>
<path d="M896.047 187.26C896.228 185.699 896.844 184.312 897.813 183.285C898.782 182.257 900.057 181.638 901.469 181.509C903.929 181.686 905.489 184.549 904.954 187.903C904.773 189.465 904.157 190.852 903.188 191.879C902.219 192.907 900.944 193.526 899.531 193.655C897.072 193.478 895.511 190.615 896.047 187.26Z" fill="#CECE4E"/>
<path d="M903.066 190.609C903.403 189.048 904.111 188.136 904.714 188.22C905.311 188.302 905.821 189.357 905.871 190.923C905.939 193.069 905.158 195.439 904.079 195.369C902.977 195.297 902.599 192.768 903.066 190.609Z" fill="#6D593F"/>
<path d="M907.976 180.122C908.414 179.307 908.988 178.926 909.353 179.086C909.714 179.244 909.879 179.933 909.682 180.823C909.413 182.043 908.581 183.23 907.917 182.988C907.239 182.741 907.371 181.249 907.976 180.122Z" fill="#6D593F"/>
<path d="M915.367 173.533C917.554 167.459 909.767 158.014 911.703 153.394C907.892 157.133 908.907 161.522 911.279 165.127C913.447 168.421 914.43 168.354 915.367 173.533Z" fill="#FFDA66"/>
<path d="M977.199 159.584C976.889 157.735 977.342 156.345 978.211 156.48C979.08 156.614 980.036 158.222 980.346 160.071C980.656 161.92 980.203 163.31 979.334 163.175C978.465 163.041 977.509 161.433 977.199 159.584Z" fill="#604748"/>
<path d="M978.339 147.548L984.672 150.844C984.946 151.006 985.19 151.264 985.363 151.576C985.536 151.887 985.628 152.232 985.623 152.554L985.594 155.071C985.603 155.22 985.583 155.36 985.536 155.48C985.488 155.601 985.415 155.698 985.321 155.766C985.227 155.834 985.115 155.871 984.993 155.873C984.871 155.875 984.742 155.843 984.616 155.778L978.283 152.482C978.009 152.32 977.765 152.062 977.592 151.751C977.419 151.439 977.328 151.094 977.333 150.773L977.361 148.255C977.352 148.106 977.372 147.966 977.42 147.846C977.467 147.726 977.541 147.628 977.635 147.56C977.729 147.492 977.841 147.455 977.963 147.453C978.085 147.451 978.213 147.484 978.339 147.548Z" fill="#723939"/>
<path d="M965.22 157.726C965.171 155.945 965.865 154.774 966.771 155.11C967.676 155.447 968.451 157.163 968.501 158.945C968.55 160.726 967.856 161.897 966.95 161.56C966.045 161.224 965.27 159.507 965.22 157.726Z" fill="#604748"/>
<path d="M964.167 148.059L969.388 147.415C969.826 147.361 970.247 147.851 970.327 148.509L970.63 150.991C970.674 151.303 970.635 151.595 970.518 151.827C970.401 152.059 970.213 152.218 969.979 152.282L964.759 152.925C964.32 152.979 963.899 152.49 963.819 151.832L963.517 149.349C963.473 149.038 963.512 148.745 963.628 148.513C963.745 148.282 963.934 148.123 964.167 148.059Z" fill="#723939"/>
<path d="M972.457 159.814C970.356 164.245 969.502 167.385 970.788 169.588C971.203 170.2 971.702 170.722 972.246 171.112C972.791 171.502 973.367 171.751 973.931 171.841L973.945 171.962C973.945 171.962 970.644 171.976 969.222 169.783C967.815 167.613 969.347 164.462 972.457 159.814Z" fill="#ED7656"/>
<path d="M964.611 173.856C964.431 172.997 964.345 173.206 964.345 173.206L975.666 175.517C975.479 176.213 975.229 176.864 974.918 177.461L964.611 173.856Z" fill="#ED7656"/>
<path d="M966.781 176.072C965.292 170.87 939.726 164.143 936.154 163.862C932.582 163.581 931.633 170.144 935.472 171.424C964.043 180.952 966.781 176.072 966.781 176.072Z" fill="#723939"/>
<path d="M935.909 164.859C936.333 164.893 937.076 165.02 938.045 165.222C938.389 166.368 938.704 167.568 938.973 168.818C939.283 170.259 939.52 171.706 939.683 173.152C939.693 173.236 939.685 173.317 939.662 173.391C939.638 173.465 939.598 173.529 939.546 173.578C939.494 173.627 939.43 173.66 939.36 173.675C939.29 173.689 939.215 173.684 939.142 173.661C937.891 173.27 936.591 172.852 935.221 172.395C931.39 171.118 932.343 164.578 935.909 164.859Z" fill="#FF5E33"/>
<path d="M964.52 176.916C964.496 176.372 965.251 176.52 966.372 176.656C967.493 176.793 968.556 176.866 968.58 177.41C968.604 177.954 967.715 178.285 966.594 178.149C965.473 178.012 964.545 177.461 964.52 176.916Z" fill="#ED7656"/>
<path d="M974.948 177.128L977.543 172.14L966.522 173.765L966.27 174.337L974.948 177.128Z" fill="#443335"/>
<path d="M974.449 176.733L974.29 174.306L976.555 172.688L967.61 174.004L967.408 174.469L974.449 176.733Z" fill="#FCF5E3"/>
<path d="M883.8 192.188C876.938 193.336 869.513 189.222 867.673 189.084C865.833 188.947 860.516 194.685 857.655 193.677C854.794 192.67 853.33 188.435 854.864 187.142C856.398 185.849 862.941 179.986 865.633 180.199C868.324 180.412 879.53 184.658 882.631 184.8C885.779 184.944 885.885 191.839 883.8 192.188Z" fill="#FFBB83"/>
<path d="M864.936 187.88C872.357 189.356 875.767 195.901 873.957 198.692C872.148 201.483 869.024 204.405 865.905 203.64C862.785 202.876 857.631 200.779 857.701 196.779C857.771 192.779 863.393 187.573 864.936 187.88Z" fill="#FFBB83"/>
<path d="M862.198 195.781C869.618 197.257 873.029 203.802 871.219 206.593C869.41 209.384 866.286 212.306 863.167 211.541C860.047 210.777 854.892 208.679 854.963 204.68C855.033 200.68 860.654 195.473 862.198 195.781Z" fill="#FFBB83"/>
</g>
<defs>
<filter id="filter0_d" x="405.48" y="396.377" width="11.3043" height="12.2177" filterUnits="userSpaceOnUse" color-interpolation-filters="sRGB">
<feFlood flood-opacity="0" result="BackgroundImageFix"/>
<feColorMatrix in="SourceAlpha" type="matrix" values="0 0 0 0 0 0 0 0 0 0 0 0 0 0 0 0 0 0 127 0"/>
<feOffset dy="0.822743"/>
<feColorMatrix type="matrix" values="0 0 0 0 0 0 0 0 0 0.117647 0 0 0 0 0.12549 0 0 0 1 0"/>
<feBlend mode="normal" in2="BackgroundImageFix" result="effect1_dropShadow"/>
<feBlend mode="normal" in="SourceGraphic" in2="effect1_dropShadow" result="shape"/>
</filter>
<linearGradient id="paint0_linear" x1="650.601" y1="250.786" x2="782.272" y2="333.864" gradientUnits="userSpaceOnUse">
<stop stop-color="white"/>
<stop offset="1" stop-color="white" stop-opacity="0"/>
</linearGradient>
<clipPath id="clip0">
<rect width="821.647" height="309.855" fill="white" transform="matrix(-1 0 0 1 1109.53 239.281)"/>
</clipPath>
</defs>
</svg>
