<svg xmlns="http://www.w3.org/2000/svg" width="58" height="50" fill="none" fill-rule="evenodd" xmlns:v="https://vecta.io/nano"><path d="M29.012 35.818c2.608 2.486 6.1 3.994 9.92 3.994 8.18 0 14.803-6.903 14.803-15.393C53.734 15.903 47.113 9 38.932 9c-3.8 0-7.312 1.508-9.92 3.994-3 2.83-4.883 6.903-4.883 11.425s1.892 8.596 4.883 11.4zm22.758-2.83c0-.265.205-.476.46-.476a.47.47 0 0 1 .485.476c0 .3-.205.503-.485.503-.255 0-.46-.2-.46-.503zm.46.397a.4.4 0 0 0 .383-.397c0-.2-.18-.37-.383-.37-.18 0-.358.16-.358.37s.18.397.358.397zm-.05-.16h-.102v-.45h.18c.026 0 .077 0 .102.027.05.026.05.053.05.106s-.025.106-.076.106l.102.212h-.128l-.05-.185h-.076v.185-.265h.102c.025 0 .025-.027.025-.053s0-.027-.025-.053h-.102v.37z" fill="#e9b040"/><path d="M33.794 22.78c-.05-.555-.153-1.084-.256-1.64h-9.05c.102-.555.256-1.084.41-1.613h8.207l-.614-1.64h-6.954l.844-1.64h5.24c-.337-.565-.713-1.104-1.125-1.613h-2.992a15.02 15.02 0 0 1 1.508-1.64C26.38 10.534 22.903 9 19.068 9 10.913 9 4.266 15.903 4.266 24.42c0 8.5 6.647 15.393 14.803 15.393 3.835 0 7.312-1.508 9.945-3.994a14.47 14.47 0 0 0 1.483-1.614h-2.992a18.24 18.24 0 0 1-1.125-1.64h5.24c.33-.523.62-1.07.87-1.64h-6.954c-.23-.53-.46-1.058-.64-1.614h8.207c.18-.53.307-1.084.434-1.64.102-.53.205-1.084.256-1.64a16.62 16.62 0 0 0 .077-1.614c0-.554-.026-1.1-.077-1.64z" fill="#cc2131"/><path d="M51.77 28c0-.29.205-.502.46-.502.28 0 .485.212.485.502 0 .265-.205.503-.485.503-.255 0-.46-.238-.46-.503zm.46.37c.205 0 .383-.16.383-.37s-.18-.37-.383-.37c-.18 0-.358.16-.358.37s.18.37.358.37zm-.05-.16h-.102v-.423h.28c.05.027.05.08.05.133 0 .026-.025.08-.076.106l.102.185h-.128l-.05-.16h-.076v.158-.238h.05c.025 0 .05 0 .05-.027.025 0 .025-.026.025-.053 0 0 0-.026-.025-.026 0-.027-.026 0-.05 0h-.05v.344z" fill="#fff"/><path d="M23.977 28.862c-.486.132-.844.212-1.202.212-.767 0-1.227-.503-1.227-1.402 0-.185.026-.37.05-.582l.102-.608.077-.503.7-4.337h1.534l-.18.952h.972l-.23 1.587h-.972l-.41 2.592c-.026.133-.026.212-.026.265 0 .344.154.476.537.476.18 0 .332-.026.486-.053l-.204 1.402zm4.96-.053c-.562.16-1.074.238-1.636.238-1.74 0-2.736-.952-2.736-2.83 0-2.195 1.176-3.782 2.812-3.782 1.304 0 2.148.9 2.148 2.3 0 .476-.05.926-.18 1.56H26.15c-.026.106-.026.16-.026.212 0 .74.486 1.11 1.406 1.11.588 0 1.1-.132 1.662-.396l-.255 1.587zm-.946-3.782V24.7c0-.53-.28-.82-.767-.82-.512 0-.87.397-1.023 1.137h1.8zM11.705 28.94H10.12l.92-6.003-2.07 6.003h-1.1l-.128-5.977-.972 5.977H5.21l1.253-7.802H8.8l.05 4.814 1.56-4.814h2.557l-1.253 7.802zm3.86-2.83c-.153-.027-.205-.027-.307-.027-.92 0-1.38.37-1.38.952 0 .397.23.662.588.662.767 0 1.074-.662 1.1-1.587zm1.278 2.83h-1.38l.025-.66c-.358.502-.844.767-1.687.767-.767 0-1.432-.714-1.432-1.745 0-.29.05-.555.128-.82.255-.98 1.2-1.587 2.66-1.614l.716.027c.05-.212.05-.29.05-.423 0-.423-.332-.556-1.074-.556-.46 0-.972.08-1.33.212l-.23.053-.102.026.23-1.428c.742-.238 1.278-.344 1.867-.344 1.38 0 2.122.66 2.122 1.878 0 .318.026.556-.077 1.243l-.358 2.274-.05.397-.026.318-.026.212-.026.185zm19.814-6.294c.46 0 .87.132 1.432.423l.28-1.693c-.154-.08-.205-.08-.41-.16l-.64-.185c-.205-.053-.46-.08-.742-.08-.793 0-1.253.026-1.738.317-.256.185-.588.423-.946.846l-.205-.053-1.636 1.2.077-.66h-1.688l-.997 6.347h1.61l.588-3.41.332-.635c.307-.397.562-.397.895-.397h.128c-.054.403-.08.8-.077 1.216 0 2.063 1.125 3.36 2.863 3.36.435 0 .82-.053 1.406-.212l.282-1.798c-.51.29-.972.423-1.355.423-.946 0-1.51-.74-1.51-1.904-.001-1.72.844-2.936 2.045-2.936zm13.575-1.507l-.357 2.222c-.384-.608-.844-.9-1.458-.9-.844 0-1.636.502-2.122 1.455V23.9l-1.022-.635.102-.66h-1.713l-.972 6.347h1.585l.537-3.41.51-.635c.256-.317.51-.37.716-.397-.18.53-.28 1.163-.28 1.878 0 1.587.792 2.645 1.968 2.645.588 0 1.048-.212 1.483-.714l-.076.635h1.51l1.227-7.802h-1.637zm-1.968 6.295c-.537 0-.818-.423-.818-1.243 0-1.243.51-2.142 1.252-2.142.562 0 .844.45.844 1.243 0 1.27-.51 2.142-1.278 2.142zm-7.388-1.322c-.153-.027-.205-.027-.307-.027-.92 0-1.38.37-1.38.952 0 .397.23.662.588.662.767 0 1.074-.662 1.1-1.587zm1.278 2.83h-1.406l.05-.66c-.358.502-.844.767-1.687.767-.793 0-1.483-.688-1.483-1.745 0-1.507 1.1-2.433 2.837-2.433l.69.027c.05-.212.077-.29.077-.423 0-.423-.333-.556-1.1-.556-.435 0-.972.08-1.33.212l-.205.053-.102.026.23-1.428c.742-.238 1.28-.344 1.867-.344 1.38 0 2.096.66 2.096 1.878 0 .317.05.556-.077 1.243l-.332 2.274-.05.397-.05.317-.025.212v.184h0zm-21.962-4.998a7.33 7.33 0 0 1 1.202.106l.23-1.48-1.432-.132c-1.8 0-2.377 1.005-2.377 2.17 0 .767.332 1.322 1.2 1.745.64.317.74.37.74.662 0 .396-.332.635-.946.635-.486 0-.946-.08-1.457-.265l-.18 1.454.025.027.307.053c.102.026.23.053.41.08l.92.053c1.8 0 2.53-.714 2.53-2.116 0-.872-.41-1.4-1.202-1.77-.7-.318-.767-.37-.767-.66s.307-.555.793-.555z" fill="#1b3771"/><path d="M38.807 20.875l-.282 1.693c-.562-.29-.972-.423-1.432-.423-1.202 0-2.045 1.217-2.045 2.936 0 1.2.562 1.904 1.51 1.904.383 0 .843-.132 1.355-.396l-.28 1.77c-.588.16-.972.238-1.406.238-1.738 0-2.812-1.296-2.812-3.385 0-2.777 1.483-4.734 3.605-4.734.28 0 .537.026.74.08l.64.16.4.158zm-5.165 1.164h-.154c-.536 0-.843.265-1.33 1.03l.154-.98h-1.458l-.996 6.348h1.61c.588-3.888.74-4.55 1.508-4.55h.102c.153-.767.358-1.323.614-1.825l-.05-.026zm-9.255 6.32c-.435.16-.793.212-1.15.212-.818 0-1.28-.476-1.28-1.4a4.52 4.52 0 0 1 .051-.556l.102-.635.077-.502.7-4.338h1.585l-.18.952h.818l-.205 1.56h-.818l-.434 2.645c-.026.106-.026.186-.026.265 0 .317.154.45.537.45.18 0 .332 0 .434-.053l-.204 1.4zm-6.16-4.258c0 .794.358 1.35 1.2 1.772.665.318.767.423.767.688 0 .397-.28.582-.92.582a4.63 4.63 0 0 1-1.432-.238l-.23 1.454.077.027.28.053a1.63 1.63 0 0 0 .434.053c.358.053.665.053.87.053 1.687 0 2.48-.66 2.48-2.116 0-.873-.332-1.376-1.125-1.772-.7-.317-.767-.397-.767-.688 0-.344.28-.502.793-.502a9.66 9.66 0 0 1 1.151.079l.23-1.455c-.41-.08-1.048-.132-1.406-.132-1.8 0-2.43.978-2.403 2.142zm32.827 4.338h-1.51l.077-.608c-.435.476-.895.688-1.483.688-1.176 0-1.943-1.03-1.943-2.618 0-2.116 1.202-3.915 2.608-3.915.64 0 1.1.29 1.535.873l.358-2.222h1.585l-1.227 7.802zM48.7 26.96c.742 0 1.253-.9 1.253-2.143 0-.82-.282-1.243-.844-1.243-.716 0-1.252.873-1.252 2.116 0 .847.28 1.27.843 1.27zm-19.405 1.348a5.08 5.08 0 0 1-1.662.265c-1.8 0-2.7-.978-2.7-2.856 0-2.17 1.176-3.782 2.787-3.782 1.33 0 2.173.9 2.173 2.3 0 .476-.05.926-.205 1.587H26.5c-.026.08-.026.133-.026.185 0 .74.486 1.11 1.406 1.11a3.42 3.42 0 0 0 1.662-.397l-.256 1.587zm-.895-3.782v-.317c0-.53-.28-.82-.767-.82-.51 0-.87.397-1.023 1.137h1.8zM12.116 28.44H10.53l.92-6.004-2.07 6.004h-1.1l-.128-5.95-.97 5.95H5.7l1.253-7.802h2.3l.077 4.84 1.534-4.84h2.506l-1.253 7.802zm3.963-2.83c-.153 0-.23-.026-.358-.026-.895 0-1.355.344-1.355.978 0 .397.205.635.562.635.665 0 1.125-.635 1.15-1.587zm1.176 2.83h-1.33l.025-.662c-.41.53-.946.767-1.687.767-.87 0-1.457-.688-1.457-1.72 0-1.56 1.022-2.46 2.812-2.46.18 0 .41.026.665.053.05-.21.05-.29.05-.397 0-.423-.28-.582-1.023-.582-.46 0-.972.053-1.33.16l-.23.08-.153.026.23-1.428c.793-.238 1.33-.317 1.918-.317 1.38 0 2.122.635 2.122 1.85 0 .317-.026.556-.128 1.27l-.358 2.248-.05.396-.026.317-.026.24-.025.158zM41.4 25.6c-.18 0-.256-.026-.358-.026-.92 0-1.38.344-1.38.978 0 .397.23.635.588.635.64 0 1.125-.635 1.15-1.587zm1.176 2.83h-1.33l.025-.662c-.41.53-.946.767-1.687.767-.87 0-1.458-.688-1.458-1.72 0-1.56 1.023-2.46 2.812-2.46.18 0 .4.026.64.053.05-.21.077-.29.077-.397 0-.423-.282-.582-1.023-.582-.46 0-.997.053-1.355.16l-.205.08-.154.026.23-1.428c.793-.238 1.33-.317 1.918-.317 1.38 0 2.096.635 2.096 1.85 0 .317 0 .556-.128 1.27l-.333 2.248-.05.396-.05.317-.025.24v.158h0zm4.295-6.4h-.153c-.537 0-.843.265-1.33 1.03l.154-.98h-1.458l-.972 6.348h1.585c.588-3.888.742-4.55 1.51-4.55h.102c.153-.767.358-1.323.614-1.825l-.05-.026z" fill="#fff"/></svg>