<svg xmlns="http://www.w3.org/2000/svg" xmlns:xlink="http://www.w3.org/1999/xlink" width="360" height="307" fill="none" xmlns:v="https://vecta.io/nano"><style><![CDATA[.B{fill:#000}.C{stroke-width:1.494}.D{stroke-miterlimit:10}.E{fill:#fff}.F{fill:#ededed}.G{fill:#3c3c3b}.H{fill:#ffc856}.I{stroke-width:.996}.J{stroke-width:.454}]]></style><g fill="#001e20"><path d="M0 3h360v304H0z"/><path d="M0 0l13 169 167 90.5L360 147v160H0L79 84.5 0 0z" style="mix-blend-mode:screen" opacity=".3"/></g><path d="M148.527 110.992c-1.28 4.755-5.16 5.725-5.315 5.832l.268.953c.155-.107 4.614-1.25 6.108-6.492l-1.06-.293z" class="B"/><g stroke="#000"><g class="I"><path d="M214.29 73.298l4.075-4.482H229.9l-4.482 4.482h-11.12z" class="E"/><path d="M233.583 71.306l-4.98 5.478 13.446 2.5m5.478-5l-4.98 5.478-.498.996"/><path d="M243.045 114.463v-2.215l3.984-1.394v2.414l-3.984 1.195zm-104.9-85.516l4.077-4.548 13.406 11.558-5.22 4.784-12.264-11.794z" class="E"/><path d="M144.762 26.338l1.878 1.528-4.902 5.1-1.666-1.355 4.7-5.263z" class="B"/><path d="M136.206 77.526l15.24-37.286m13.966 10.9l4.27-7.968m-13.294-.762l4.98-4.98-4.98 4.98z"/></g><g class="C D E"><path d="M168.1 95.1l-2.174-4.25-9.462-9.68-1.57 5.473-12.84-9.582 1.42-4.552-10.497-11.34 10.018-36.688 12.51 11.383 2.37-1.562 11.776 9.962-1.976 8.147c3.75 6.3 6.887 8.33 9.138 8.942 5.354 1.47 9.645 0 9.645 0 .36-.12.97-.352 1.738-.394.57-.035 1.548-.05 2.673.69 1.034.675 2.413 2.082 2.322 2.842-.07.612-1.04.366-2.526.746-1.38.36-2.434 1.055-3.15 1.646-1.133.492-2.934 1.555-4.566 3.954-1.52 2.244-2.097 4.488-2.842 7.38-1 3.876-.67 5.023-.528 5.424.844 2.406 2.82 2.814 3.278 2.906.93.2 1.69-.1 2.582-.64 2.997-1.843 3.504-4.207 5.74-5.818.907-.654 2.307-1.33 4.355-1.238 1.75 1.217 3.883 2.948 6.162 5.396 2.786 2.997 4.904 6.106 6.416 8.625 1.31 2.195 2.82 5.058 4.27 8.618 1.716 4.207 2.8 8.07 3.496 11.087.204 1.084.478 3.06.176 5.27-.204 1.464-.493 3.58-1.646 4.257-1.196.696-2.955-.366-4.362-2.603-.035.408-.28 3.06-1.766 4.066-1.604 1.083-4.017-.176-5.558-3.32-.035.254-.5 3.518-2.666 4.376-1.526.605-3.306-.218-4.608-2.13-.07.274-.88 3.42-2.933 3.644-2.11.232-4.25-2.78-4.813-5.368-.47-2.202.36-3.3-.386-5.276-.64-1.696-1.393-1.492-2.104-3.04-1.104-2.413.485-4.41-.352-6.36-.738-1.724-2.244-1.084-4.93-2.87-.38-.254-1.534-1.464-3.827-3.835-3.033-3.13-3.75-3.947-4.98-4.37-1.26-.422-2.322-.183-3.025.084z"/><path d="M247.824 73.946l-.17 40.65-10.377 1.11-.85 4.327-11.545-1.203-1.64-7.542-7 .437c-.95-4.137-3.102-11.897-7.767-19.706-4.812-8.062-9.912-12.178-12.578-14.02-1.07-.028-2.695.127-4.355 1.238-2.737 1.836-2.983 4.53-5.74 5.818-.626.288-3.313 1.54-4.875-.605-1.238-1.7-1.147-4.706-1.12-5.522.247-7.64 1.12-13.597 8.453-18.577 0 0 4.66 2.826 9.15 3l12.494 13.444 9.357-.992.113-7.95 12.17.042 1.056 3.44 15.224 2.6z"/></g><path d="M219.638 80.27l4.98-5.976" class="C D"/><g class="E C D"><path d="M183.922 127.687c-2.363 1.534-4.93.028-5.8-2.378-.745-2.082-.028-4.348.078-4.685-1.456.654-3.166-.268-4.193-2.23-.922-1.752-1.154-4.06-.598-5.89-1.8.092-2.835-.633-3.454-1.597-.95-1.477-.493-2.877-1.513-4.833-1.2-2.314-2.7-1.956-3.27-3.623-.33-.97-.352-2.624 1.203-5.593.197-.155 1.45-1.055 3.025-.077 1.85 1.154 2.526 3.9 2.59 4.15.436-.064 1.808-.183 3.313 1.174 1.998 1.8 2.653 4.784 2.758 5.284 1.372-1.724 3.286-1.752 4.46-.394 1.527 1.773 2.055 6.212.197 8.92.064-.056 1.035-.85 2.097.042.886.746 1.45 2.35 1.322 3.898l-2.223 7.83z"/><path d="M163.12 100.524l-2.174-4.25-9.462-9.68-1.57 5.473-12.84-9.582 1.42-4.552L128 66.594l10.018-36.688 12.508 11.383 2.37-1.562 11.777 9.962-1.977 8.147c3.75 6.31 6.887 8.33 9.14 8.942 5.353 1.47 9.645 0 9.645 0 .36-.12.97-.352 1.737-.394a4.12 4.12 0 0 1 2.674.689c1.034.675 2.413 2.082 2.32 2.842-.07.612-1.04.366-2.525.746-1.38.36-2.434 1.055-3.152 1.646-1.133.493-2.934 1.555-4.566 3.954-1.52 2.244-2.096 4.488-2.842 7.38-1 3.876-.668 5.023-.528 5.424.845 2.406 2.822 2.814 3.28 2.906.928.2 1.688-.1 2.582-.64 2.997-1.843 3.503-4.207 5.74-5.818.908-.654 2.308-1.33 4.355-1.238 1.752 1.217 3.883 2.948 6.163 5.396 2.786 2.997 4.903 6.106 6.416 8.625a63.72 63.72 0 0 1 4.27 8.618c1.717 4.207 2.8 8.07 3.497 11.087.204 1.084.478 3.06.175 5.27-.204 1.463-.492 3.58-1.646 4.256-1.196.696-2.954-.366-4.36-2.603-.036.408-.282 3.06-1.766 4.066-1.604 1.084-4.017-.176-5.558-3.32-.035.253-.5 3.517-2.666 4.375-1.527.605-3.307-.218-4.608-2.13-.07.274-.88 3.42-2.934 3.644-2.1.232-4.25-2.78-4.812-5.368-.47-2.202.36-3.3-.387-5.276-.64-1.696-1.393-1.492-2.103-3.04-1.105-2.413.485-4.41-.352-6.36-.74-1.724-2.244-1.083-4.932-2.87-.38-.254-1.533-1.464-3.827-3.834-3.032-3.13-3.75-3.947-4.98-4.37-1.266-.422-2.32-.183-3.025.084z"/><path d="M242.453 80.22l-.17 40.65-10.377 1.1-.85 4.327-11.545-1.203-1.64-7.542-7 .437c-.95-4.137-3.103-11.897-7.767-19.706-4.812-8.062-9.912-12.178-12.58-14.02-1.07-.028-2.694.127-4.354 1.238-2.737 1.836-2.983 4.53-5.74 5.818-.626.288-3.313 1.54-4.875-.605-1.238-1.7-1.147-4.706-1.12-5.523.246-7.64 6.198-11.636 8.07-12.895a15.71 15.71 0 0 1 9.533-2.68l12.494 13.444 9.357-.992.113-7.95 12.17.042 1.056 3.44 15.224 2.6zm-61.795 51.14c-2.364 1.534-4.932.028-5.8-2.378-.746-2.082-.028-4.348.077-4.685-1.456.654-3.166-.268-4.193-2.23-.92-1.75-1.153-4.06-.598-5.888-1.8.092-2.835-.633-3.454-1.597-.95-1.477-.492-2.877-1.512-4.833-1.2-2.315-2.702-1.956-3.272-3.623-.33-.97-.352-2.624 1.203-5.593.197-.155 1.45-1.055 3.025-.077 1.85 1.153 2.526 3.9 2.6 4.15.436-.063 1.808-.183 3.314 1.175 1.998 1.8 2.652 4.784 2.757 5.284 1.372-1.724 3.286-1.752 4.46-.394 1.526 1.772 2.054 6.212.197 8.92.063-.056 1.034-.85 2.096.042.887.746 1.45 2.35 1.323 3.898l-2.223 7.83z"/></g><path d="M231.915 121.98l-.85 4.327-11.545-1.203-1.64-7.542-3.876-43.435 12.17.042 1.055 3.44 15.217 2.603-.17 40.65-10.363 1.118zM136.2 78.525l-.042 4.896 12.297 9.983 3.328-5.53 13.366-37.166-12.698-11.67-1.836 2.223-12.586-11.355L128 66.594l8.2 11.932z" fill="#fcc956" class="C D"/><path d="M162.7 57.83L151.486 86.6m40.262-17.275l4.98-5.976m-33.195-5.53l4.807-8.418m74.207 36.856l4.98-5.976m-42.83 1.99l4.98-5.976M182.5 66.075l5.528-5.474m25.86 21.48l4 35.485" class="C D"/><g class="I"><path d="M243.045 121.012V80.694l4.018-5.433.957 41.425-4.975 4.326z" class="B"/><path d="M243.045 115.947v-4.394l4.98-4.298v3.86l-4.98 4.833z" class="E"/><path d="M228.22 76.813l-1.514-3.405 4.3-4.3 1.457 2.186-4.252 5.528zm-35.82-7.517l4.337-5.204 11.768 12.7-4.33 5.16L192.4 69.296z" class="B"/><path d="M194.618 71.8l4.812-4.675 2.322 2.37-4.797 4.653-2.337-2.347z" class="E"/><path d="M212.113 118.572l3.485-.392v2.683l-4.3 4.234.815-6.525zm-30.22 8.453h.605l1.112 1.9-2.92 1.946 1.203-3.845zm-30.1-38.43l.794-.063 1.104 2.047-3.663 2.56 1.765-4.544z" fill="#030309"/><path d="M253.005 75.276L254 112.13"/></g></g><g stroke="#16110d" class="J"><path d="M148.35 106.432c.186 2.758-.734 5.03-2.377 6.49h0l-.447.398c.724-1.36 1.07-3.006.946-4.842h0c-.398-5.695-5.253-11.115-10.853-12.113-1.762-.316-3.398-.153-4.803.4l.442-.394m17.092 10.06l-17.092-10.06m17.092 10.06c-.384-5.49-5.086-10.736-10.48-11.698-2.67-.47-4.995.2-6.612 1.636m17.092 10.06l-17.092-10.06m14.866 16.72l-1 .88 3.442-7.556c.19 2.818-.75 5.162-2.452 6.675zm-2.32 2.066l-.01.01.01-.01z" class="B"/><path d="M126.555 104.943c-.19-2.735.728-5 2.345-6.462s3.956-2.142 6.643-1.663c5.394.962 10.096 6.21 10.48 11.697.19 2.735-.728 5-2.345 6.463s-3.956 2.142-6.644 1.663c-5.4-.97-10.096-6.2-10.48-11.698z" class="F"/><path d="M144.592 108.99h0c-.166-2.427-1.265-4.9-3.115-6.965-1.845-2.06-4.183-3.422-6.56-3.854l9.676 10.82zm0 0c.158 2.185-.475 3.993-1.732 5.118-1.24 1.11-3.084 1.547-5.2 1.163h-.001m6.943-6.28l-6.943 6.28m0 0c-2.386-.424-4.71-1.788-6.56-3.854s-2.95-4.54-3.116-6.965v-.001m9.676 10.82l-9.676-10.82m0 0c-.158-2.184.475-3.992 1.732-5.118m-1.732 5.118l1.732-5.118m0 0c1.24-1.1 3.084-1.546 5.2-1.163l-5.2 1.163z" class="G"/><path d="M145.15 108.494v-.001c-.166-2.426-1.265-4.9-3.116-6.965-1.844-2.06-4.182-3.422-6.56-3.854l9.677 10.82zm0 0c.157 2.184-.475 3.992-1.732 5.118-1.24 1.1-3.085 1.546-5.21 1.162h0m6.943-6.28l-6.943 6.28m0 0c-2.387-.424-4.7-1.788-6.56-3.854s-2.95-4.538-3.115-6.965h0m9.676 10.82l-9.676-10.82m0 0c-.158-2.185.475-3.992 1.732-5.118m-1.732 5.118l1.732-5.118m0 0c1.24-1.1 3.084-1.546 5.2-1.163l-5.2 1.163z" class="H"/><path d="M137.832 112.932l.055.78-.524.462-.052-.775.52-.466zm-2.562-3.785h0v.002c.04.604.268 1.372 1.05 1.82l-.587.526c-.707-.33-.917-.963-.96-1.527l-.015-.253-.01-.18-.177-.032-1.452-.255.518-.464 1.626.286.005.076zm2.43 2.027l-.388.348c-.035.032-.08.062-.134.088l-.217-3.105.52-.465.22 3.134zm-.4-5.847l.007.095.072.062.2.178c1.462 1.26 2.868 2.482 3 4.293v.001c.068.952-.178 1.505-.538 1.828l-.007.006a3.83 3.83 0 0 0 .05-1.016c-.14-2.017-1.685-3.348-3.097-4.565l-.05-.042-.001-.001-.136-.116-.305-4.4.52-.465.287 4.13zm-2.426-3.43h0v.005c.06.837.476 1.553 1.05 2.2l-.608.544c-.527-.607-.885-1.23-.936-1.924-.02-.396.045-.73.254-.918l.24-.215c-.006.106-.005.2 0 .308zm.014-2.14a4.69 4.69 0 0 0-.995.015c.364-.295.876-.417 1.453-.426l-.458.4zm.492-.94l.518-.464.925.162.076 1.026.158.04c.738.192 1.478.515 2.048 1.048s.975 1.272 1.048 2.337h0l.028.406-.52.466-.003-.053c-.08-1.18-.542-2.03-1.2-2.64-.602-.562-1.354-.905-2.087-1.113l-.066-.88-.013-.176-.174-.03-.747-.13z" class="G"/><path d="M134.943 100.22l.268.025-.076-1.018.746.13.077 1.026.157.04c.74.192 1.478.515 2.048 1.048.565.528.976 1.273 1.048 2.337v.001l.016.227-1.45-.255-.033-.478c-.045-.688-.345-1.546-1.397-1.963l-.336-.133.35 5.05.073.062.208.178c1.462 1.26 2.862 2.476 2.99 4.294h0c.074 1.06-.236 1.63-.68 1.94-.462.32-1.13.398-1.848.34l-.264-.02.02.264.075 1.064-.746-.13-.09-1.333-.158-.04c-.73-.193-1.465-.514-2.032-1.046-.53-.497-.925-1.188-1.028-2.16l1.448.254.005.076V110c.05.684.334 1.573 1.376 1.972l.332.127-.024-.355-.326-4.65-.068-.06c-.006-.006-.012-.01-.02-.017l-.27-.23c-1.46-1.258-2.856-2.473-2.983-4.29v-.001c-.078-1.074.24-1.647.694-1.953.476-.32 1.16-.392 1.897-.323zm.196 4.896l.437.462-.316-4.44-.236.03c-.464.056-.766.284-.934.602-.16.302-.184.66-.157.976.062.928.56 1.688 1.206 2.37zm2.9 5.425h0c-.055-.885-.53-1.618-1.124-2.282l-.442-.493.047.66.262 3.755.25-.046c.433-.08.707-.32.858-.632.144-.3.168-.65.15-.963z" class="F"/><path d="M213.554 47.505c1.27-1.8 1.917-4.15 1.735-6.846l-1.735 6.846z" class="B"/><path d="M190.656 36.233c-.24-3.43.913-6.274 2.946-8.113s4.97-2.7 8.34-2.09c6.758 1.205 12.646 7.776 13.127 14.652.24 3.43-.912 6.274-2.946 8.113s-4.97 2.7-8.34 2.09c-6.766-1.214-12.646-7.776-13.127-14.652z" class="F"/><path d="M213.284 41.28l-.001-.001c-.208-3.042-1.586-6.14-3.903-8.727-2.31-2.578-5.238-4.286-8.22-4.828l12.125 13.556zm0 0c.197 2.74-.596 5.014-2.18 6.434-1.563 1.4-3.885 1.946-6.552 1.464h0m8.733-7.9l-8.733 7.9m0 0c-2.993-.532-5.903-2.24-8.22-4.828s-3.695-5.685-3.903-8.727v-.001m12.124 13.556l-12.124-13.556m0 0c-.198-2.74.595-5.014 2.18-6.434m-2.18 6.434l2.18-6.434m0 0c1.563-1.4 3.886-1.945 6.552-1.465l-6.552 1.465z" class="G"/><path d="M213.978 40.656v-.001c-.208-3.042-1.586-6.14-3.903-8.727-2.3-2.578-5.24-4.286-8.222-4.828l12.125 13.556zm0 0c.197 2.74-.596 5.014-2.18 6.434-1.563 1.4-3.886 1.945-6.552 1.464h-.001m8.733-7.9l-8.733 7.9m0 0c-2.993-.532-5.903-2.24-8.22-4.828S193.33 38.042 193.12 35h0m12.124 13.556L193.12 35m0 0c-.197-2.74.596-5.015 2.18-6.434M193.12 35l2.18-6.434m0 0c1.562-1.4 3.885-1.945 6.55-1.464l-6.55 1.464z" class="H"/><path d="M204.836 46.08l.08 1.116-.76.672-.073-1.1.755-.677zm-3.192-4.6h0v.002c.05.76.34 1.724 1.353 2.265l-.82.734c-.936-.417-1.2-1.245-1.264-1.97l-.02-.317-.01-.18-.177-.03-1.927-.34.754-.675 2.1.37.008.14zm3.05 2.558l-.504.452c-.065.058-.15.1-.256.15l-.278-3.982.755-.676.283 4.055zm-.513-7.328l.007.095.072.062.26.222c1.82 1.57 3.597 3.1 3.75 5.398h0c.086 1.2-.223 1.9-.7 2.327l-.14.126c.102-.403.14-.876.1-1.425-.173-2.494-2.084-4.14-3.853-5.665l-.053-.046-.001-.001-.13-.1-.058-.05-.384-5.53.755-.676.366 5.27zm-3.03-4.277h0v.005c.074 1.046.602 1.94 1.332 2.754l-.843.755c-.683-.776-1.154-1.577-1.22-2.48-.024-.497.054-.938.336-1.2l.406-.364c-.02.177-.02.354-.012.52zm-.018-2.6a5.56 5.56 0 0 0-1.445.047l.08-.07c.502-.45 1.243-.612 2.066-.603l-.7.627zm.468-1.196l.753-.675 1.225.214.096 1.285.157.04c.928.24 1.86.647 2.58 1.32s1.234 1.612 1.325 2.955h.001l.037.535-.755.676-.013-.18c-.1-1.457-.668-2.508-1.47-3.256-.752-.703-1.697-1.13-2.62-1.387l-.098-1.315-1.22-.213z" class="G"/><path d="M201.186 30.274l.268.025-.095-1.276 1.046.183.096 1.285.157.04c.927.24 1.86.647 2.58 1.32.715.67 1.234 1.612 1.325 2.955h0l.025.355-1.926-.34-.043-.64c-.056-.845-.423-1.892-1.71-2.402l-.336-.133.43 6.2.073.062.13.11.13.11c1.82 1.57 3.6 3.102 3.75 5.4h0c.093 1.338-.297 2.07-.87 2.47-.594.412-1.442.508-2.344.434l-.263-.022.018.264.1 1.4-1.046-.183-.11-1.667-.158-.042c-.918-.242-1.844-.647-2.56-1.32-.686-.643-1.192-1.54-1.31-2.808l1.925.34.008.14.001.004c.062.843.41 1.926 1.68 2.413l.332.127-.024-.355-.405-5.78-.068-.06-.023-.02-.336-.285c-1.818-1.567-3.584-3.1-3.744-5.394h0c-.098-1.354.302-2.092.89-2.49.6-.41 1.482-.498 2.405-.413zm.28 6.13l.436.462-.378-5.325-.237.03c-.56.067-.922.342-1.122.722-.192.364-.223.8-.2 1.188.077 1.14.69 2.077 1.49 2.925zm3.51 6.814h0c-.068-1.086-.65-1.99-1.388-2.813l-.442-.493.37 5.286.25-.046c.522-.096.85-.383 1.03-.758.174-.36.205-.79.18-1.174z" class="F"/></g><path d="M191.373 28.053c-3.248 3.16-2.467 6.43-2.5 6.6l-.86.252c.022-.162-.853-3.93 2.696-7.475l.654.632zm27.04 16.81c-1.687 6.264-6.798 7.54-7.002 7.682l.354 1.256c.204-.14 6.078-1.645 8.045-8.552l-1.397-.385z" class="B"/><g stroke="#16110d"><path d="M116.05 73.663c-1.142-.205-2.23-.19-3.23.016 1.338-.93 3.122-1.333 5.153-.976 4.703.84 8.817 5.43 9.152 10.216.143 2.1-.46 3.874-1.564 5.115.33-1 .47-2.12.388-3.323v-.001c-.363-5.2-4.783-10.136-9.9-11.048z" fill="#030309" stroke-width=".909"/><g class="J"><path d="M107.937 81.57c-.17-2.436.648-4.45 2.086-5.752s3.52-1.906 5.913-1.48c4.806.857 8.997 5.534 9.34 10.424.17 2.436-.648 4.452-2.087 5.752s-3.518 1.906-5.912 1.48c-4.812-.863-8.997-5.534-9.34-10.424z" class="F"/><use xlink:href="#B" class="G"/><use xlink:href="#B" x="0.497" y="-0.455" class="H"/><path d="M117.96 88.757l.045.635-.422.372-.042-.632.42-.375zm-2.3-3.43h0v.002c.035.537.236 1.22.922 1.628l-.487.437c-.6-.3-.8-.84-.828-1.336l-.014-.226-.01-.18-1.424-.25.416-.373 1.422.25.003.05zm2.18 1.8l-.337.302a.48.48 0 0 1-.082.058l-.2-2.724.418-.375.2 2.738zm-.365-5.21l.006.095.073.062.186.16c1.308 1.127 2.554 2.213 2.66 3.818h0c.057.802-.136 1.28-.425 1.568.042-.25.053-.53.03-.84-.126-1.812-1.512-3.006-2.77-4.1l-.046-.04v-.001l-.115-.098-.27-3.897.418-.375.253 3.64zm-2.168-3.063h0v.005c.053.747.422 1.386.927 1.96l-.507.454c-.46-.535-.77-1.08-.813-1.686-.018-.352.04-.64.218-.8l.172-.154.003.22zm.027-1.936a4.33 4.33 0 0 0-.794.004c.3-.2.698-.305 1.146-.32l-.352.316zm.5-.83l.416-.373.796.14.057.753.012.162.157.04c.657.17 1.313.458 1.818.93s.865 1.127.93 2.07h0l.024.35-.418.374c-.072-1.057-.487-1.824-1.07-2.37-.536-.5-1.205-.808-1.857-.995l-.07-.946-.174-.03-.618-.108z" class="G"/><path d="M115.403 77.377l.267.025-.02-.268-.048-.64.618.108.068.915.157.04c.658.17 1.314.458 1.82.93s.864 1.127.928 2.07h0l.012.172-1.247-.22-.027-.407c-.04-.62-.313-1.397-1.264-1.775l-.335-.133.3 4.463.006.095.073.062.186.16c1.308 1.127 2.55 2.207 2.66 3.82h0c.065.942-.21 1.44-.596 1.71-.406.282-.994.352-1.635.3l-.263-.022.018.264.065.92-.617-.108-.08-1.188-.158-.042c-.65-.17-1.302-.457-1.804-.928-.464-.435-.81-1.037-.908-1.883l1.243.22.003.048v.004c.046.616.3 1.42 1.244 1.782l.333.127-.316-4.517-.068-.06c-.005-.005-.01-.01-.017-.015l-.243-.206c-1.305-1.125-2.542-2.204-2.654-3.813v-.001c-.07-.953.212-1.455.608-1.722.418-.28 1.023-.345 1.68-.285zm.16 4.365l.437.462-.29-4.058-.237.03c-.42.05-.698.26-.852.55-.145.276-.167.602-.143.885.056.837.506 1.52 1.084 2.132zm2.623 4.827h0c-.05-.798-.478-1.458-1-2.052l-.442-.493.282 4.042.25-.046a1.03 1.03 0 0 0 .784-.578c.13-.273.153-.592.136-.872z" class="F"/></g></g><defs ><path id="B" d="M123.998 85.2v-.001c-.148-2.16-1.127-4.364-2.777-6.206-1.644-1.835-3.727-3.05-5.845-3.434l8.622 9.64zm0 0c.14 1.945-.424 3.552-1.54 4.55-1.1.985-2.74 1.374-4.633 1.032h-.001m6.173-5.583l-6.173 5.583m0 0c-2.125-.377-4.195-1.592-5.845-3.434s-2.628-4.045-2.776-6.206v-.001m8.62 9.64l-8.62-9.64m0 0c-.14-1.945.423-3.552 1.54-4.55m-1.54 4.55l1.54-4.55m0 0c1.1-.985 2.74-1.374 4.632-1.032l-4.632 1.032z"/></defs></svg>