<svg xmlns="http://www.w3.org/2000/svg" width="6038" height="1221" fill="none" xmlns:v="https://vecta.io/nano"><mask id="A" mask-type="alpha" maskUnits="userSpaceOnUse" x="2058" y="0" width="1920" height="1221"><path fill="#007550" d="M2058 0h1920v1221H2058z"/></mask><g mask="url(#A)"><path fill="#007550" d="M2060 0h1920v1221H2060z"/><g style="mix-blend-mode:screen" opacity=".1"><path d="M2447.5 1221.5l1117-2572 41.5-151-205.5-107.5-538-130.5H2056v2961h391.5z" fill="#007550"/></g></g><path fill="#007b55" d="M2081 0H0v1221h2081z"/><path fill="#007550" d="M6038 0H3965v1221h2073z"/><path d="M4126.6 425.856c-3.46 0-6.53-.672-9.22-2.016-2.6-1.344-5.42-3.216-8.5-5.616-2.3-1.728-4.18-2.976-5.62-3.744-1.34-.768-2.73-1.152-4.17-1.152-2.6 0-4.7 1.008-6.34 3.024s-2.5 4.752-2.6 8.208h-13.97c.1-8.832 2.1-15.6 6.05-20.304 3.93-4.8 9.12-7.2 15.55-7.2 3.46 0 6.43.672 8.93 2.016 2.5 1.248 5.42 3.12 8.78 5.616 2.3 1.728 4.13 2.976 5.47 3.744 1.35.768 2.74 1.152 4.18 1.152 2.7 0 4.8-1.008 6.34-3.024 1.53-2.016 2.4-4.752 2.6-8.208h14.1c-.2 8.832-2.26 15.648-6.2 20.448-3.94 4.704-9.07 7.056-15.4 7.056z" fill="#000" fill-opacity=".04"/><path transform="rotate(18.822 3914.36 90.98)" stroke="#fff" stroke-opacity=".04" stroke-width="11" d="M3914.36 90.98h75.56v75.56h-75.56z"/><g fill="#000"><path d="M2409.5 1024.45l-72.07-120.03-87.3 52.415-52.4-87.296-32.74 19.656 72.07 120.034 87.3-52.417 52.4 87.297 32.74-19.66zm1271.48-429.997l72.07-120.032 87.3 52.415 52.4-87.296 32.74 19.656-72.07 120.032-87.3-52.415-52.4 87.296-32.74-19.656z" fill-opacity=".04"/><path fill-opacity=".05" d="M2378.68 238l57.738 19.68-19.68 57.738-57.738-19.68z"/><path fill-opacity=".04" d="M2243.46 407l32.775 3.464-3.464 32.775-32.775-3.464zm1540.22 674l57.738 19.68-19.68 57.738-57.738-19.68z"/></g></svg>