<svg xmlns="http://www.w3.org/2000/svg" width="21" height="21" fill="none" xmlns:v="https://vecta.io/nano"><path d="M18.12 12.866c-.1-.7-.642-1.246-1.338-1.41-2.706-.634-3.384-2.192-3.5-3.92-.48-.09-1.334-.186-2.783-.186s-2.303.097-2.782.186c-.114 1.728-.793 3.286-3.5 3.92-.696.164-1.237.71-1.338 1.41L2.36 16.48c-.184 1.273.75 2.42 2.05 2.42H16.6c1.3 0 2.234-1.148 2.05-2.42l-.522-3.614zm-7.62 3.4a2.64 2.64 0 0 1-2.652-2.625 2.64 2.64 0 0 1 2.652-2.625 2.64 2.64 0 0 1 2.652 2.625c0 1.45-1.19 2.625-2.652 2.625zM20.948 6.3c-.025-1.575-4.034-4.2-10.448-4.2S.077 4.725.052 6.3.075 9.925 2.714 9.583c3.088-.4 2.898-1.478 2.898-3.02 0-1.075 2.512-1.335 4.888-1.335s4.887.26 4.888 1.335c0 1.54-.2 2.62 2.898 3.02 2.64.34 2.686-1.708 2.662-3.283z" fill="#007550"/></svg>