<svg width="65" height="58" viewBox="0 0 65 58" fill="none" xmlns="http://www.w3.org/2000/svg">
<path d="M65 53.36C65 54.868 64.4647 56.0183 63.394 56.811C62.3233 57.6037 61.0093 58 59.4519 58H5.54807C3.99072 58 2.6767 57.594 1.60602 56.782C0.53534 55.97 0 54.8293 0 53.36C0 52.2 0.350404 51.0207 1.05121 49.822L27.9739 3.19C29.2588 1.06333 30.7772 0 32.5292 0C34.2812 0 35.7607 1.06333 36.9677 3.19L63.9488 49.88C64.6496 51.1173 65 52.2773 65 53.36ZM36.5588 23.722V15.254H28.4412V23.722C28.4412 24.2633 28.4801 24.7757 28.558 25.259C28.6358 25.7423 28.7429 26.2837 28.8792 26.883C29.0154 27.4823 29.1225 27.9947 29.2004 28.42L30.7188 37.816H34.1644L35.7412 28.42C35.8191 28.0333 35.9359 27.5307 36.0916 26.912C36.2474 26.2933 36.3642 25.7423 36.4421 25.259C36.5199 24.7757 36.5588 24.2633 36.5588 23.722ZM36.5588 46.168C36.5588 45.0467 36.1598 44.0993 35.3616 43.326C34.5635 42.5527 33.5999 42.166 32.4708 42.166C31.3807 42.166 30.4365 42.5527 29.6384 43.326C28.8402 44.0993 28.4412 45.0467 28.4412 46.168C28.4412 47.2893 28.8402 48.2463 29.6384 49.039C30.4365 49.8317 31.3807 50.228 32.4708 50.228C33.5999 50.228 34.5635 49.8317 35.3616 49.039C36.1598 48.2463 36.5588 47.2893 36.5588 46.168Z" fill="#FF513F"/>
</svg>
