<svg version="1.1" id="Layer_1" xmlns="http://www.w3.org/2000/svg" xmlns:xlink="http://www.w3.org/1999/xlink" x="0px" y="0px"
	 viewBox="0 0 383 154" style="enable-background:new 0 0 383 154;" xml:space="preserve">
<style type="text/css">
	.all {
		position: relative;
		fill: black;
	}

	.bruh {
		top: 20px;
		transform: scaleX(0);
		transform-origin: right;
		transition: .3s;
	}

	.studia {
		transition: .7s;
		transform: scaleY(0);
		transfrom-origin: center;
	}

	g:hover .bruh {
		transform: scaleX(1);
	}

	g:hover .studia {
		transform: scaleY(1);
	}
</style>
<g class='all'>
	<g class='main'>
		<path class='main' d="M78.1,26.9c-0.7-1.5,0.7-2,1.3-2.8c1.6-1.9,3.5-3.6,5.2-5.5c1.3-1.4,2.3-3,3.5-4.5c0.7-0.9,1.8-1.5,2.5-2.3
			c1.5-1.7,2.9-3.5,4.4-5.2C96,5.7,97.1,5,97.7,4c0.7-1.3,1.8-0.9,2.8-0.9c8.8,0,17.5,0,26.3,0c0.7,0,1.4,0,2.2,0
			c0.1,1.3,0.2,2.5,0.2,3.7c0,40.9,0,81.7,0,122.6c0,2.1-1.3,3.2-2.4,4.5c-0.8,0.9-1.7,1.8-2.6,2.6c-1.2,1.2-2.6,2.3-3.6,3.7
			c-1.2,1.4-2.9,2.4-3.7,4.2c-0.4,0.9-1.4,1.5-2.1,2.3c-0.8,0.8-1.7,1.7-2.5,2.5c-0.9,0.9-1.8,1.7-2.7,2.6c-0.1,0.1-0.3,0.2-0.5,0.4
			c-0.2,0.2-0.5,0.5-0.7,0.7c-0.1-0.4-0.3-0.7-0.4-1.1c-1.6-8.3-0.8-16.6-0.8-24.9c-0.1-31.4,0-62.8,0-94.2c0-3.7,0-3.7-3.6-3.8
			c-1,0-2,0-3-0.1c-0.7-0.1-1.4-0.4-2.1-0.6c-0.4-0.1-0.8-0.1-1.2-0.2c-5.1,0-10.2,0-15.2-0.1c-0.8,0-1.6,0.2-2.2-0.7
			C79.5,27,78.7,27,78.1,26.9z"/>
		
		
		<path class='main' d="M25.9,73.6c0-13.6,0-27.3,0-40.9c0-1.9-1-3.2-2.2-4.5C23.5,28,22.9,28,22.5,28c-1.6,0-3.1,0-4.7,0c-0.9,0-1.8,0.2-2.6-0.7
			c-0.2-0.2-0.8-0.1-1.1-0.1c-3,0-5.9,0-8.9-0.2c-1-0.1-2-0.6-3-1c-0.1-0.1-0.3-0.6-0.2-0.8C3,24,4,22.8,4.9,21.6
			c0.7-0.9,1.6-1.7,2.4-2.5c0.8-0.8,1.6-1.7,2.5-2.5c1.6-1.6,3.3-3.2,4.9-4.9c0.9-1,1.5-2.2,2.4-3.1C18.6,7,20.3,5.7,21.7,4
			c1-1.2,2-1,3.2-1c7.6,0,15.3,0,22.9,0c1.4,0,2.1,0.7,2.1,2.1c0,6,0,11.9,0,17.9c0,18,0,36.1,0,54.1c0,1.9-0.7,3.5-1.8,5
			c-0.5,0.8-0.7,1.7-1.2,2.6c-0.9,1.6-1.8,3.1-2.7,4.7c-0.5,1-0.8,2.1-1.3,3c-0.5,0.9-1.1,1.8-1.6,2.7c-0.1,0.1-0.1,0.3-0.2,0.4
			c-0.4,1-0.7,2.1-1.2,3.1c-0.5,0.9-1.2,1.7-1.8,2.5c-0.1,0.1-0.1,0.3-0.2,0.4c-0.4,1-0.6,2.1-1.1,3.1c-0.4,0.9-1.2,1.6-1.7,2.4
			c-0.4,0.7-0.8,1.5-1.1,2.3c-0.2,0.8-0.4,1.4-0.9,2c-0.7,0.8-0.9,2.1-1.4,3c-0.5,0.9-1.1,1.7-1.6,2.5c0,0.1-0.1,0.1-0.1,0.2
			c-0.4,1-0.7,2.1-1.2,3.1c-0.2,0.4-0.7,0.6-1.2,0.7c-0.1,0-0.5-0.5-0.6-0.8c-0.4-2.4-0.9-4.7-1.1-7.1c-0.2-2.4,0-4.9,0-7.3
			C25.9,95,25.9,84.3,25.9,73.6z"/>
		<path class='main' d="M81.7,64c0.1,0.7,0.4,1.2,0.3,1.7c-0.1,4,0.2,8.1-0.4,12.1c-0.4,2.9-0.3,5.8-0.6,8.8c-0.1,0.6,0.2,1.4-0.9,1.6
			c-0.1,0-0.1,0.3-0.2,0.4c-0.1,1.2-1,2-1.7,2.9c-0.1,0.1-0.1,0.1-0.1,0.2c-0.4,1-0.7,2-1.2,2.9c-0.5,0.9-1.1,1.6-1.7,2.5
			c-0.5,0.8-0.7,1.9-1.4,2.5c-0.8,0.8-0.5,2.2-1.7,2.6c-0.1,0-0.1,0.1-0.1,0.2c-0.4,1-0.8,2-1.2,2.9c-0.4,0.7-0.9,1.3-1.4,1.9
			c0,0.1-0.2,0.1-0.2,0.1c-0.5,1-0.8,2.1-1.4,3.1c-0.5,0.9-1.1,1.8-1.7,2.6c-0.3,0.5-0.7,0.9-1,1.4c-0.5,0.9-0.8,1.9-1.3,2.8
			c-0.4,0.9-1,1.8-1.5,2.6c-0.2,0.3-0.4,0.5-0.6,0.8c-0.7,1.4-1.5,2.8-2.3,4.1c-0.5,1-0.9,2.2-1.7,3c-1.1,1-1.3,2.6-2.6,3.5
			c-0.7,0.5-1,1.4-1.5,2.1c-0.4,0.6-0.9,1.1-1.4,1.6c-0.5,0.6-1,1.1-1.5,1.7c-0.4,0.4-0.8,0.9-1.2,1.3c-1.1,1.1-2.4,2.2-3.4,3.3
			c-0.6,0.6-0.9,1.5-1.5,2.1c-0.8,0.9-1.7,1.7-2.5,2.6c-0.5,0.5-0.9,1.1-1.3,1.6c-0.4,0.5-0.8,1-1.3,1.4c-0.5,0.6-1.1,1.1-1.7,1.7
			c-0.4,0.4-0.8,0.9-1.2,1.2c-0.1,0.1-0.5-0.1-0.7-0.1c0.1-0.2,0.1-0.5,0.3-0.7c0.2-0.3,0.4-0.6,0.6-0.9c0.6-1.1,1.2-2.1,1.7-3.2
			c0.5-0.9,0.9-1.8,1.3-2.6c0.5-0.9,1.1-1.7,1.6-2.6c0-0.1,0.1-0.1,0.2-0.2c0.4-1,0.7-2.1,1.2-3.1c0.4-0.9,1-1.8,1.6-2.7
			c0.1-0.1,0.2-0.2,0.2-0.3c0.4-1.1,0.6-2.5,1.3-3.1c0.9-0.8,0.3-2.3,1.6-2.6c0,0,0.1-0.1,0.1-0.1c-0.3-1.2,0.8-2,1.2-2.9
			c0.5-1,0.5-2.3,1.7-3c0.1,0,0.1-0.2,0.1-0.3c0.6-1.2,1.3-2.5,1.9-3.8c0.2-0.4,0.1-1,0.3-1.4c0.8-1.3,1.7-2.5,2.5-3.8
			c0.1-0.1,0.1-0.2,0.2-0.3c0.3-1.5,1.2-2.6,2-3.9c0.6-1,0.6-2.5,1.3-3.1c1-0.7,0.4-2.2,1.6-2.6c0.1,0,0.1-0.1,0.1-0.2
			c0.4-1,0.7-2.1,1.2-3.1c0.4-0.9,1.1-1.7,1.7-2.6c0-0.1,0.1-0.1,0.2-0.2c0.4-1,0.8-2,1.2-3c0.1-0.3,0.4-0.5,0.6-0.8
			c0.1-0.1,0.3-0.2,0.2-0.2c-0.4-1.3,1-1.8,1.2-2.9c0.3-1.1,1.2-2,1.7-3c0.8-1.5,1.4-3.1,2.2-4.6c0.5-0.9,1.1-1.7,1.6-2.5
			c0.1-0.1,0.1-0.2,0.2-0.3c0.4-1.1,0.7-2.1,1.2-3.1c0.4-0.9,1.1-1.7,1.7-2.5c0.1-0.1,0.1-0.2,0.2-0.3c0.4-1,0.5-2.5,1.2-3
			c1-0.7,0.4-2.2,1.6-2.6c0.1,0,0.1-0.1,0.2-0.2c0.4-1.1,0.7-2.1,1.1-3.1C80.4,65.8,81,65,81.7,64z"/>
	</g>

	<g class='bruh'>
		<path d="M383,90.9c-0.1,0.1-0.3,0.2-0.4,0.2c-2.1,0.2-4.1,0.6-6.2,0.7c-4.9,0.1-9.8,0-14.8,0c-1.9,0-3.4-1-4.6-2.2
			c-1.1-1.1-2-2.4-2.8-3.8c-0.4-0.7-0.7-1.6-1-2.4c-0.7-1.7-2.1-2.8-2.9-4.4c-0.4-0.9-0.7-1.8-1.1-2.7c-0.3-0.6-0.6-1.3-1.1-1.9
			c-1.5-1.8-2.3-3.9-3.2-6c-0.6-1.2-1.5-2.3-2.4-3.4c-0.1-0.2-0.4-0.2-0.4-0.4c-0.4-1-0.8-2.1-1.1-3.1c-0.4-1.2-2.2-2.5-3.4-2.6
			c-0.5-0.1-1-0.4-1.6-0.5c-0.5-0.1-1.3-0.4-1.5-0.1c-0.7,0.8-1.7,0.6-2.5,0.7c-1.8,0.1-1.9,0.2-1.9,2c0,6.1,0,12.2,0,18.2
			c0,2.9-0.1,5.8,0,8.6c0.1,1.3-0.4,2.3-1.3,2.9c-0.8,0.5-1.9,1.1-2.8,1.1c-4.9,0.1-9.8,0.1-14.6,0c-2.5,0-4-1.6-4-4.1
			c0-26.6,0-53.1,0-79.7c0-2.6,1.5-4,4-4c4.9,0,9.8,0,14.8,0c2.3,0,3.9,1.7,3.9,3.9c0,8.8,0,17.5,0,26.3c0,2,0.5,2.7,2.6,2.7
			c2.2,0.1,4.4,0.1,6.6-0.1c1-0.1,2-0.9,3-1.4c0.8-0.4,1.5-0.8,2.2-1.3c0.6-0.4,1.2-0.9,1.8-1.4c0.1-0.1,0.2-0.3,0.3-0.4
			c1.9-0.5,2-2.6,3.4-3.6c0.1-0.1,0.1-0.5,0.2-0.7c0.6-1.4,1.2-2.9,1.8-4.3c0-0.1,0.1-0.2,0.1-0.3c0.4-1.9,1-3.8,1.1-5.8
			c0.2-3.3,0.2-6.7,0.1-10.1c0-1.2,0.7-1.7,1.3-2.5c0.8-1,2-1,3.2-1c4.8,0,9.5-0.1,14.3,0.1c1,0,2.1,0.6,2.9,1.2
			c0.4,0.4,0.5,1.4,0.5,2.1c-0.1,5.7-0.1,11.4-0.4,17c-0.1,2-0.5,3.9-1,5.8c-0.2,0.9-0.9,1.7-1.4,2.6c-0.1,0.1-0.2,0.2-0.2,0.3
			c-0.4,1.2-0.6,2.4-1.2,3.5c-0.8,1.6-0.8,3.5-2.7,4.5c-1.2,0.7-2,2.1-3,3.1c-0.9,0.9-1.8,1.8-2.7,2.6c-1.7,1.4-2.2,5.3-0.9,7.1
			c0.5,0.7,0.8,1.5,1.2,2.2c0.4,0.6,0.7,1.2,1.2,1.7c0.9,1,1.5,2.2,2.1,3.3c0.7,1.3,1,3,2.6,3.9c0.6,0.3,1.1,1.2,1.2,1.9
			c0.3,1.3,1,2.2,1.7,3.2c1.2,1.9,2.8,3.6,3.5,5.9c0.3,1.1,1.4,1.9,2.2,2.9c0.1,0.1,0.4,0.2,0.5,0.3c0.4,1,0.9,2,1.2,3.1
			c0.5,1.6,1.3,2.9,3.1,3.3c0.4,0.1,0.6,0.8,0.9,1.2C383,88.3,383,89.6,383,90.9z"/>
		<path d="M283.4,91.8c-1.8,0-3.1,0.1-4.4,0c-1.9-0.2-3.8-0.4-5.5-1c-1.3-0.4-2.2-1.6-2.5-3c-0.4-2.3-1.4-4.3-3.2-5.8
			c-0.7-0.5-1.2-1.2-1.9-1.6c-0.7-0.3-1.5-0.5-2.3-0.5c-6.8,0-13.5,0-20.3,0c-2.4,0-4.8,0-7.2,0c-1.6,0-2.3,0.7-3.1,2.3
			c-0.1,0.3-0.3,0.5-0.5,0.8c-1,1.4-2.2,2.7-2.7,4.4c-0.4,1.2-1.3,2.3-1.9,3.5c0,0.1-0.2,0.1-0.3,0.2c-1.4,0.3-2.7,0.7-4.1,0.7
			c-4,0.1-8,0.1-12,0c-1.6,0-3-0.7-4.3-1.7c-0.5-0.4-0.4-2.1,0.1-2.9c0.3-0.5,0.5-1,0.6-1.5c0.4-1.4,0.6-2.9,1.1-4.3
			c0.3-0.9,1.1-1.5,1.6-2.4c0.5-0.8,0.9-1.7,1.2-2.5c0.5-1.3,0.8-2.7,1.3-4c0.4-0.9,1.1-1.7,1.6-2.5c0.4-0.7,0.8-1.3,1-2
			c0.4-1.1,0.7-2.3,1.1-3.4c0.4-1.1,0.8-2.3,1.5-3.2c1.3-1.7,2.4-3.5,2.7-5.8c0.1-0.9,0.7-1.7,1.1-2.5c0.6-1.1,1.3-2.2,1.8-3.3
			c0.8-1.7,1.5-3.5,2.2-5.3c0.2-0.4,0.7-0.7,1-1.2c0.3-0.5,0.6-0.9,0.8-1.5c0.6-1.6,1.3-3.3,1.7-5c0.3-1.4,1.2-2.2,2.1-3.1
			c0.5-0.6,0.7-1.5,1-2.2c0.4-1.3,0.8-2.6,1.3-3.8c0.2-0.6,0.7-1.1,1-1.7c0.6-1.1,1.1-2.1,1.6-3.2c0.1-0.2,0.2-0.4,0.2-0.7
			c0.7-1.9,1.5-3.8,2.2-5.6c0.2-0.4,0.6-0.6,0.9-0.9c0.8-0.7,0.8-1.8,1.1-2.7c0.7-1.8,0.6-3.9,2-5.3c1.3-1.4,2.2-3.1,4.3-3.8
			c1-0.3,1.9-0.8,2.9-0.6c1.2,0.2,2.5,0.6,3.6,1.1c0.9,0.4,1.8,0.9,2.4,1.7c0.9,1,1.5,2.2,1.8,3.6c0.2,1.3,1,2.4,1.5,3.7
			c0.7,1.8,2.3,3.1,2.7,5.3c0.3,1.6,0.6,3.6,2.4,4.7c0.5,0.3,0.8,1.2,1.1,1.9c0.4,1,0.9,2,1.1,3.1c0.3,2,1.3,3.5,2.6,4.9
			c0.1,0.1,0.4,0.2,0.4,0.4c0.4,1.3,0.7,2.6,1.2,3.8c0.2,0.7,0.6,1.4,0.9,2c0.5,0.9,1.2,1.8,1.7,2.7c0.1,0.1,0.2,0.2,0.2,0.3
			c0.4,1.1,1,2.2,1,3.2c0,1.5,1,2.5,1.3,3.8c0.1,0.4,0.7,0.6,1,1c0.6,1,1.3,2.1,1.7,3.2c0.5,1.3,0.8,2.7,1.3,4c0.4,0.9,1,1.7,1.5,2.6
			c0.4,0.8,0.9,1.6,1.2,2.4c0.4,1,0.7,2,1,3c0.3,1.2,1.1,1.9,1.8,2.8c0.7,0.9,0.9,2.1,1.3,3.2c0.2,0.6,0.5,1.3,0.7,1.9
			c0.1,0.3,0.2,0.5,0.2,0.8c0.1,0.9,0.3,1.6,0.9,2.3c1.7,2,2.7,4.3,3.3,6.9c0.2,0.9,1,1.7,1.4,2.6c0.1,0.3,0.2,0.6,0.4,0.8
			c0.2,0.5,0.4,0.9,0.7,1.4c0.3,0.6,0.4,1.1-0.2,1.8c-0.8,1.1-2,0.9-3,1.2C288.6,92,285.8,91.7,283.4,91.8z M249.6,61.8
			c1.7,0,3.4,0.1,5.1,0c1-0.1,2-0.6,3-1c0.2-0.1,0.3-0.5,0.3-0.7c0.1-3,0.3-6-1.9-8.4c-0.3-0.4-0.7-0.7-0.9-1.2c-0.8-2-1.4-4-2.2-5.9
			c-0.3-0.7-1.2-1.6-1.6-1.5c-1.1,0.2-2.3,0.8-3.3,1.4c-0.8,0.5-1.6,1.3-1.9,2.1c-0.5,1.3,0,2.8-1.1,4c-0.1,0.1,0,0.2,0,0.4
			c-0.4,1.2-0.7,2.5-1.4,3.6c-0.9,1.3-1.5,2.6-1.6,4.1c-0.2,2.3,0.6,3.2,2.9,3.2C246.5,61.8,248.1,61.8,249.6,61.8z"/>
		<path d="M187.2,58.7c0,9.5,0,19,0,28.4c0,0.5,0,1,0,1.4c0,2-1.2,3.2-3.2,3.2c-4.9,0-9.8,0-14.8,0c-1.6,0-3.1-1.5-3.3-3.1
			c-0.1-0.7-0.1-1.4-0.1-2c0-19.2,0-38.3,0-57.5c0-1.4-0.6-2.4-1.1-3.6c-0.1-0.2-0.3-0.4-0.5-0.4c-2-0.4-3.9-1-5.9-1.1
			c-3.5-0.2-7.1,0-10.7-0.1c-2,0-3.7-1.8-3.7-3.7c0-4.4,0-8.7,0-13.1c0-1,1-1.8,1.8-2.3c3-1.6,6.1-0.8,9.2-0.8
			c16.6-0.1,33.2,0,49.8,0c2.6,0,3.3,0.8,3.3,3.3c0,4.7,0,9.4-0.2,14c-0.1,2-0.9,2.6-2.9,2.6c-4.5,0-9,0-13.6,0
			c-2.3,0-2.7,0.5-3.7,2.5c-0.6,1.2-0.5,2.3-0.5,3.5C187.2,39.5,187.2,49.1,187.2,58.7z"/>
	</g>

	<g class="studia">			
		<path d="M383,149c-0.2,0.7-0.7,1-1.5,1c-1.1-0.1-2.2-0.1-3.2,0c-1.9,0.3-3-1-4.2-2.1c-0.2-0.2-0.2-0.6-0.2-0.9c0-1,0-2.1,0-3.1
			c0-2.1-0.8-2.8-2.9-2.8c-0.6,0-1.1,0-1.7,0c-1.2,0-2,0.8-2.5,1.9c-0.8,1.9-1.7,3.8-3.4,5.2c-2,1.7-4.4,2.1-6.9,1.7
			c-0.9-0.1-1.8-0.6-2.4-1.2c-0.4-0.4-0.4-1.4-0.1-2c0.3-0.9,1-1.6,1.6-2.4c0.5-0.6,0.9-1.3,1.5-1.8c1-0.9,1-2,1-3.2
			c0-0.5-0.1-1,0-1.4c0.4-2.4-0.6-4.2-2.3-5.7c-0.4-0.4-0.8-1.1-0.8-1.7c-0.1-2.2-0.1-4.4,0-6.6c0-0.6,0.5-1.2,0.8-1.7
			c0.7-1.2,1.4-2.4,2.3-3.5c0.9-1,1.7-2,3.2-2.4c6.7-2.1,13.5-0.7,20.2-1.1c0.8,0,1.3,0.2,1.5,1C383,126.9,383,137.9,383,149z
			M369.1,130.9c0,0.1,0.1,0.2,0.1,0.3c0.8-0.4,1.6-0.9,2.4-1.1c0.8-0.2,1.3-0.4,1.5-1.3c0.1-0.7,0.6-1.3,0.8-2
			c0.1-0.2,0-0.6-0.2-0.8c-0.7-0.8-0.7-2.4-2.3-2.3c-0.1,0-0.2-0.2-0.3-0.3c-0.7-0.7-3.3-0.7-3.9-0.1c-0.9,0.9-1.7,1.8-2.6,2.6
			c-0.6,0.6-0.6,1.2-0.1,1.8c0.5,0.6,1,1.3,1.6,1.8C366.9,130.4,367.7,131.4,369.1,130.9z"/>
		<path d="M267.1,154c0-1.3,0.1-2.6,0-3.8c-0.3-2.3,0.7-4.4,1.1-6.6c0.1-0.5,0.7-1,1.2-1.4c1.6-1.4,2.8-2.9,3.9-4.7
			c1-1.8,1.5-3.6,1.9-5.5c0.3-1.4,1.5-2.7,2.2-4c0.1-0.2,0.3-0.3,0.4-0.4c0.5-1.5,0.9-3,1.3-4.5c0.3-1,0.6-1.9,1.1-2.8
			c0.9-1.6,2-3.1,3.5-4.2c1.3-1.1,1.5-1.1,2.7,0c0.6,0.5,1.1,1.1,1.6,1.7c1,1.2,1.5,2.6,2.1,4c0.8,1.9,1.5,3.8,2.1,5.8
			c0.3,1,1.1,1.9,1.6,2.9c0.4,0.8,0.9,1.7,1.2,2.6c0.7,2,1.2,4,2.1,5.9c0.5,0.9,1,2,2.3,2.6c1.1,0.5,1.9,1.7,2.6,2.8
			c1.7,2.6,0.9,5.5,1.1,8.4c0,0.6,0,1.1,0,1.7c-2.4,0-4.8,0-7.2,0c0-0.4-0.1-0.7-0.1-1.1c-0.1-1.1-1.7-3-2.7-3c-5.4,0-10.7,0-16.1,0
			c-0.4,0-0.7,0.3-1.1,0.5c-1.4,0.9-1,2.2-0.9,3.5C272.4,154,269.8,154,267.1,154z M288.3,138.1c-0.4-1-0.8-2-1.2-2.9
			c-0.4-0.9-0.8-1.8-1.3-2.7c-0.1-0.1-0.6-0.2-0.7-0.1c-0.4,0.4-0.9,0.8-1.2,1.2c-0.7,1.3-1.3,2.6-1.9,3.9c-0.1,0.3-0.4,0.5-0.6,0.7
			c-0.5,0.6-0.5,1,0.1,1.7c1.1,1.2,2.5,1.2,3.8,1.1C287.4,141.1,288.1,140.2,288.3,138.1z"/>
		
		<path d="M322.6,128.6c1.5-0.9,3.3-1.7,4.8-2.8c1-0.7,1.7-1.7,2.6-2.5c0.7-0.7,1.5-1.5,2.2-2.2c0.9-0.9,1.7-1.7,2.6-2.5
			c1.2-1.1,2.4-2.2,3.7-3.2c0.7-0.6,1.6,0,2.5,1.1c1.1,1.2,1,2.5,1,3.8c0,8.9,0,17.8,0,26.6c0,1.1-0.2,1.7-1.4,2.4
			c-1.7,1-3.3,0.6-4.9,0.7c-1.3,0.1-2.6-1.5-2.7-2.8c-0.1-2.9,0-5.8-0.2-8.7c-0.1-1-0.6-2.1-1.2-3c-0.1-0.2-1.2-0.3-1.5,0
			c-1.8,1.7-3.4,3.6-5.1,5.3c-1.1,1.2-2.4,2.3-3.5,3.4c-1.5,1.5-3,3.1-4.6,4.5c-0.7,0.6-1.5,1-2.4,1.3c-0.3,0.1-0.8-0.5-1.2-0.8
			c-0.7-0.7-1.4-1.4-1.4-2.6c0.1-9,0-17.9,0.1-26.9c0-1.7,0.9-3.1,2-4.4c0.1-0.2,0.5-0.2,0.8-0.2c0.5,0,1,0,1.6,0
			c3.1,0,4.7,1.6,4.7,4.7c0,1.3,0,2.6,0,4C321.2,125.3,320.8,127.1,322.6,128.6z"/>
		<path d="M173.1,141c0.5,0,1-0.1,1.4,0c2,0.3,3.2-1.1,4.4-2.3c0.7-0.8,1.6-1.3,2.5-2c1.8-1.3,3.6-0.5,5.4-0.8
			c1.1-0.2,1.8,0.8,2.1,1.4c0.5,1.5,0.8,3.2-0.5,4.7c-0.5,0.6-0.7,1.5-1.2,2.1c-0.9,1-1.9,1.8-2.9,2.7c-0.7,0.6-1.5,1.2-2.2,1.7
			c-0.1,0-0.1,0.2-0.2,0.2c-1.1,0.4-2.1,0.8-3.3,1.1c-1.3,0.4-2.7,0.7-4,0.8c-0.8,0.1-1.7-0.2-2.5-0.3c-1.3-0.1-2.5-0.3-3.8-0.4
			c-1.7-0.2-3-1.1-4.5-1.7c-1.7-0.7-2.9-2.1-4.3-3.2c-1-0.9-1.6-2.3-2.4-3.5c-0.6-0.9-1-1.9-1.5-2.9c-0.2-0.3-0.4-0.7-0.4-1.1
			c0-3.1-0.1-6.2,0-9.3c0-0.8,0.8-1.7,1.3-2.5c0.1-0.3,0.4-0.5,0.5-0.7c0.4-1.2,0.7-2.4,1.2-3.5c0.3-0.6,0.8-1.1,1.3-1.6
			c0.9-0.9,1.8-1.8,2.8-2.6c0.6-0.5,1.4-1,2.2-1.3c1.2-0.5,2.5-0.8,3.8-1.1c1.2-0.3,2.3-0.7,3.5-0.9c1.2-0.2,2.6-0.4,3.7,0.6
			c0.1,0.1,0.4,0.1,0.6,0.1c1.8,0.4,3.6,0.8,5.4,1.3c0.5,0.1,1,0.6,1.4,0.9c1.4,1,3,1.9,4.1,3.2c1.1,1.4,1.6,3.2,1.3,5.1
			c-0.1,0.8-0.1,1.6-0.8,2.3c-1.4,1.3-2.6,1.6-4.3,0.7c-0.8-0.4-1.7-0.7-2.5-1.1c-0.8-0.4-1.7-0.8-2.2-1.5c-0.5-0.7-1.1-0.7-1.7-0.7
			c-1.8,0-3.6,0.1-5.4-0.1c-1.5-0.2-2.6,0.7-3.7,1.3c-0.7,0.4-0.9,1.5-1.3,2.2c-0.3,0.6-0.7,1.1-0.8,1.7c-0.1,1.2-0.1,2.5,0.1,3.7
			c0.1,0.6,0.4,1.2,0.7,1.9c0.3,1,0.4,2.2,1.1,2.9c1,1.1,2,2.4,3.8,2.3C171.6,141,172.3,141,173.1,141C173.1,141,173.1,141,173.1,141
			z"/>
		
		<path d="M262.2,119c0.2,2-0.7,3.7-1.9,5.2c-0.6,0.9-0.9,1.9-1.4,2.9c-0.5,1-1.1,2-1.7,3c-0.8,1.4-1.7,2.9-2.4,4.4
			c-0.7,1.6-1.3,3.2-2,4.8c-0.2,0.5-0.6,0.9-0.9,1.4c-0.6,0.8-1.1,1.7-1.7,2.5c-0.1,0.1-0.1,0.3-0.1,0.5c-0.4,1.3-0.7,2.6-1.4,3.8
			c-0.4,0.7-1.2,1.1-2,1.5c-0.9,0.5-1.9,0.7-2.8,1.3c-1.1,0.7-3,0.8-4.1,0.1c-0.2-0.1-0.5-0.2-0.8-0.3c-1.5-0.3-2.3-1.5-2.9-2.5
			c-0.3-0.6,0.6-1.8,1-2.6c0.5-0.8,1.1-1.5,1.7-2.3c0.4-0.5,0.7-1.1,1.1-1.6c1.3-1.7,1.9-3.6,1.7-5.6c-0.1-0.8-0.5-1.6-1-2.3
			c-0.6-0.9-1.3-1.8-1.9-2.7c-0.6-1-1.3-2-1.8-3.1c-0.5-1.2-0.9-2.4-1.4-3.6c-0.2-0.5-0.6-0.8-0.9-1.3c-0.9-1.5-1.8-3-2.7-4.6
			c-0.6-0.9,0.1-3.3,1-3.9c1.1-0.8,2.3-1.2,3.6-0.9c1.2,0.2,2.4,0.6,3.3,1.6c1.4,1.5,2.9,2.8,4.2,4.4c0.8,0.9,1.2,2.2,1.7,3.3
			c0.4,0.8,0.8,1.6,1.3,2.3c0.2,0.2,1,0.2,1.2,0c0.6-0.5,1.3-1.2,1.3-1.8c0.2-1.8,1.6-2.8,2.6-4c0.2-0.3,0.4-0.6,0.5-0.9
			c0.7-1.5,2.5-3.5,4.6-3.2c0.5,0.1,1.1,0,1.7,0c1.8,0,2.6,0.8,2.8,2.7C262.1,118,262.1,118.5,262.2,119z"/>
		<path d="M200.4,113.4c0.7,0.2,1.2,0.4,1.8,0.4c4.6,0,9.2,0,13.8,0c0.1,0,0.3,0,0.4,0c1.2-0.9,2.4-0.4,3.7,0c1,0.3,1.6,0.6,2.2,1.7
		
			c1.1,1.8,0.6,3.6,0.7,5.4c0.1,1-1.1,2.3-2,2.2c-1.7-0.2-3.2,0.4-4.4,1.2c-1.2,0.7-2.4,1.6-2.4,3.5c0.1,6.2,0,12.3,0.1,18.5
			c0,0.5,0,1-0.1,1.6c-0.1,0.4-0.2,0.9-0.5,1.1c-1.8,1.1-3.8,1.6-5.9,1.1c-1.1-0.3-1.6-1.4-1.9-2.6c-1.5-6.9-0.6-13.8-0.8-20.7
			c0-0.5,0-1-0.1-1.6c0-0.3-0.1-0.7-0.3-0.7c-1.1-0.4-2.2-1-3.3-1.1c-2.4-0.2-3.2-0.8-3.3-3.3c-0.1-1.4,0-2.9-0.1-4.3
			c0-1,0.5-1.4,1.4-1.7C199.7,113.7,200.1,113.5,200.4,113.4z"/>
	</g>
</g>
</svg>
