<?xml version="1.0" encoding="utf-8"?>
<!-- Generator: Adobe Illustrator 24.0.1, SVG Export Plug-In . SVG Version: 6.00 Build 0)  -->
<svg version="1.1" id="Layer_1" xmlns="http://www.w3.org/2000/svg" xmlns:xlink="http://www.w3.org/1999/xlink" x="0px" y="0px"
	 viewBox="0 0 612 792" style="enable-background:new 0 0 612 792;" xml:space="preserve">
<style type="text/css">
	.st0{fill:#FFFFFF;}
</style>
<g>
	<g>
		<path class="st0" d="M78.96,422.16c0-65.36,0-130.72,0-196.08c162.08,0,324.16,0,486.24,0c0,65.36,0,130.72,0,196.08
			C403.12,422.16,241.04,422.16,78.96,422.16z M469.03,289.63c-0.03,0-0.05,0-0.08,0c0,15.88,0.03,31.76-0.03,47.63
			c-0.01,1.97,0.67,3.35,2.38,4.16c0.77,0.36,1.7,0.54,2.55,0.55c6.56,0.05,13.12,0.09,19.68,0.02c2.82-0.03,4.52-1.97,4.51-4.76
			c-0.03-9.36-0.05-18.72-0.1-28.08c-0.01-0.98-0.14-1.99-0.35-2.95c-0.77-3.4,0.69-6.08,3.99-6.52c1.97-0.26,4.06-0.04,6.03,0.32
			c2.11,0.38,3.53,1.84,4.44,3.8c0.82,1.76,1.66,3.52,2.6,5.22c1.09,1.97,2.32,3.87,3.43,5.83c0.54,0.96,0.8,2.11,1.46,2.96
			c1.73,2.21,3.43,4.39,4.25,7.14c0.15,0.52,0.47,1,0.77,1.46c1.02,1.55,2.3,2.98,3.07,4.64c1.17,2.52,2.19,5.06,3.91,7.31
			c1.76,2.3,3.74,3.7,6.77,3.68c7.4-0.05,14.79,0.08,22.19,0.12c1.15,0.01,2.31-0.08,3.46-0.11c0.69-0.02,0.99-0.36,0.98-1.06
			c-0.03-1.92-0.03-3.84-0.03-5.76c0-0.63-0.22-0.94-0.89-1.18c-1.46-0.54-2.63-1.32-3.25-3.02c-0.66-1.82-1.88-3.46-2.91-5.14
			c-0.93-1.52-2.26-2.87-2.84-4.5c-0.58-1.63-1.2-3.04-2.47-4.24c-0.86-0.8-1.74-1.77-2.13-2.85c-1.41-3.88-4.08-6.99-6.04-10.53
			c-0.58-1.04-1.13-2.11-1.8-3.09c-1.74-2.56-3.58-5.06-5.29-7.64c-0.39-0.59-0.62-1.41-0.63-2.13c-0.07-3.26,1.87-5.36,4.31-7.15
			c0.76-0.56,1.52-1.16,2.17-1.85c1.51-1.59,3-3.19,4.39-4.89c0.85-1.04,1.88-2.16,2.16-3.39c0.63-2.84,1.91-5.4,3.15-7.93
			c1.07-2.19,1.73-4.44,1.9-6.73c0.26-3.65,0.56-7.28,1.01-10.92c0.51-4.14,0.33-8.35,0.63-12.52c0.18-2.6-2.15-4.63-4.32-4.65
			c-6.84-0.06-13.68-0.06-20.52,0.03c-2.83,0.04-4.3,1.72-4.27,4.51c0,0.48,0.04,0.96,0.04,1.44c0,3.75,0.1,7.51-0.05,11.26
			c-0.08,1.97-0.4,3.99-0.99,5.87c-0.71,2.27-1.82,4.41-2.75,6.6c-0.36,0.84-0.55,1.79-1.04,2.53c-1.91,2.86-4.65,4.91-7.45,6.76
			c-4.09,2.71-8.76,3.3-13.56,2.94c-2.77-0.21-4.03-1.63-3.94-4.39c0.04-1.15,0.42-2.28,0.43-3.42c0.06-10.12,0.07-20.24,0.12-30.36
			c0.01-1.23-0.62-2.08-1.52-2.69c-1.1-0.74-2.3-1.18-3.7-1.15c-3.64,0.08-7.28,0.04-10.92,0.04c-2.88,0.01-5.79-0.23-8.63,0.09
			c-3.08,0.34-4.37,1.28-4.33,4.53c0.04,2.89,0.08,5.79,0.08,8.68C469.04,259.31,469.03,274.47,469.03,289.63z M439.27,342.12
			c0-0.04,0-0.08,0-0.12c1.8,0,3.6,0.03,5.4-0.01c1.84-0.04,3.67-0.12,5.51-0.23c1.8-0.11,3.04-0.97,3.18-2.66
			c0.1-1.11-0.29-2.35-0.78-3.39c-0.77-1.65-1.99-3.1-2.68-4.78c-1.17-2.83-2.06-5.74-4.11-8.15c-0.7-0.82-0.96-2.05-1.3-3.14
			c-0.86-2.72-1.38-5.56-3.34-7.82c-0.56-0.64-0.93-1.48-1.27-2.28c-0.91-2.11-1.71-4.28-2.65-6.37c-0.49-1.08-1.32-2.01-1.76-3.11
			c-0.98-2.42-1.79-4.91-2.7-7.36c-0.16-0.44-0.44-0.85-0.7-1.25c-0.91-1.43-2.02-2.78-2.73-4.31c-1.01-2.19-1.71-4.53-2.6-6.79
			c-0.51-1.28-1.09-2.53-1.71-3.76c-0.61-1.2-1.41-2.31-1.94-3.53c-1.1-2.5-1.62-5.26-3.42-7.44c-0.98-1.19-1.69-2.49-1.94-4.02
			c-0.36-2.29-1.32-4.33-2.66-6.19c-0.41-0.57-1.15-0.97-1.4-1.59c-0.94-2.28-1.69-4.63-2.6-6.92c-0.42-1.05-1.03-2.03-1.6-3.02
			c-0.24-0.41-0.7-0.71-0.87-1.13c-0.66-1.67-1.45-3.32-1.82-5.06c-0.73-3.42-2.85-5.6-5.76-7.21c-3.21-1.79-7.49-1.33-10.35,1.14
			c-2.24,1.94-3.95,4.26-4.61,7.2c-0.76,3.39-2.14,6.45-4.11,9.33c-1.06,1.56-1.89,3.37-2.4,5.19c-0.7,2.47-1.74,4.75-2.92,6.99
			c-0.42,0.8-0.91,1.57-1.28,2.39c-0.84,1.87-1.55,3.81-2.45,5.65c-0.98,2-2.5,3.64-3.07,5.96c-0.68,2.76-1.55,5.49-3.45,7.9
			c-1.43,1.8-1.94,4.33-2.88,6.52c-0.31,0.72-0.6,1.49-1.05,2.11c-1.64,2.26-2.69,4.75-3.42,7.44c-0.35,1.27-0.97,2.53-1.73,3.62
			c-1.24,1.76-2.47,3.47-3.08,5.6c-0.56,1.94-1.35,3.82-2.16,5.67c-1.23,2.79-2.55,5.55-3.88,8.3c-1.21,2.5-2.55,4.95-3.71,7.47
			c-0.56,1.21-0.79,2.57-1.29,3.81c-0.66,1.66-1.46,3.26-2.15,4.9c-0.65,1.55-0.16,2.94,1.43,3.52c1.22,0.45,2.56,0.75,3.85,0.77
			c6.24,0.08,12.48,0.06,18.72,0.05c1.56,0,3.06-0.26,3.94-1.78c0.49-0.85,0.96-1.71,1.35-2.61c0.29-0.65,0.31-1.43,0.67-2.03
			c1.31-2.18,2.58-4.41,4.1-6.43c1.02-1.35,2.37-2.52,4.35-2.33c1.27,0.12,2.55,0.19,3.83,0.23c1.15,0.04,2.31,0.05,3.47,0.04
			c8.44-0.07,16.87-0.15,25.31-0.22c0.72-0.01,1.5-0.12,2.15,0.1c5.07,1.76,7.36,3.81,8.5,9.27c0.56,2.68,2.6,5.4,5.8,5.49
			C432.08,341.87,435.67,342,439.27,342.12z M242.6,312.49c0.02,0,0.05,0,0.07,0c0-25.71,0-51.43,0-77.14c0-0.52,0-1.04-0.08-1.56
			c-0.32-2.29-1.93-3.07-3.89-3.05c-0.88,0.01-1.76,0.1-2.63,0.1c-10.16,0.02-20.32,0.04-30.47,0.05c-1.51,0-2.85,0.56-3.88,1.59
			c-1.63,1.62-3.16,3.35-4.7,5.07c-2.62,2.93-5.19,5.91-7.84,8.81c-1.72,1.89-3.6,3.62-5.28,5.54c-1.36,1.55-2.59,3.23-3.73,4.95
			c-0.45,0.68-0.75,1.65-0.69,2.46c0.1,1.4,0.95,2.05,2.45,2.07c2.4,0.03,4.8-0.09,7.2-0.04c7.38,0.14,14.76,0.33,22.15,0.52
			c0.39,0.01,0.83,0,1.17,0.16c2.79,1.35,3.44,2.89,3.19,6.12c-0.09,1.15-0.31,2.29-0.31,3.44c-0.04,46.71-0.06,93.42-0.07,140.13
			c0,0.8-0.1,1.63,0.09,2.39c0.25,1.03,0.17,2.26,1.49,2.8c2.08,0.85,4.09,0.07,5.03-1.99c0.26-0.58,0.54-1.18,0.95-1.64
			c1.74-1.97,3.5-3.92,5.33-5.81c2.54-2.63,5.16-5.19,7.71-7.82c0.82-0.85,1.5-1.85,2.26-2.76c0.25-0.3,0.56-0.56,0.86-0.8
			c2.13-1.67,3.67-3.53,3.66-6.54C242.58,363.84,242.6,338.16,242.6,312.49z M316.59,297.42c-0.02,0-0.04,0-0.07,0
			c0-11.84,0-23.68,0-35.51c0-0.6-0.03-1.21,0.08-1.8c0.44-2.3,1.58-3.94,4.16-3.87c5.04,0.13,10.08,0.06,15.12,0.1
			c0.51,0,1.04,0.06,1.54,0.19c1.71,0.42,3.12-0.05,4.37-1.27c1.25-1.22,1.35-2.78,1.39-4.33c0.12-5.23,0.11-10.46,0.29-15.69
			c0.09-2.68-1.56-4.41-4.38-4.41c-23.12,0.05-46.23,0.02-69.35,0.05c-1.74,0-3.5,0.17-5.2,0.5c-2.81,0.53-3.83,2.26-3.53,5.12
			c0.3,2.84,0.43,5.71,0.53,8.57c0.04,0.98-0.34,1.96-0.32,2.94c0.03,1.5,0.34,3,0.33,4.5c-0.01,1.57,0.76,2.57,2.1,2.99
			c1.42,0.45,2.94,0.8,4.42,0.83c5.16,0.09,10.32-0.02,15.48,0.04c1.48,0.02,3,0.12,4.22,1.3c1.21,1.18,1.73,2.57,1.67,4.19
			c-0.09,2.5-0.38,5.01-0.38,7.51c-0.06,22.64-0.07,45.27-0.1,67.91c0,2.84,1.43,4.42,4.28,4.69c0.75,0.07,1.52,0.05,2.28,0.05
			c5.44,0,10.88-0.06,16.32,0.03c3.79,0.06,5.05-1.06,4.99-4.9c-0.03-1.64-0.21-3.27-0.22-4.91
			C316.58,320.62,316.59,309.02,316.59,297.42z M121.73,230.86c0,0,0-0.01,0-0.01c-4.2,0-8.4,0.02-12.6-0.01
			c-2.07-0.02-3.78,0.68-5.21,2.2c-2.67,2.84-5.39,5.65-8.1,8.46c-1.4,1.46-2.8,2.92-4.21,4.36c-0.8,0.82-1.64,1.61-2.45,2.44
			c-1.08,1.11-2,2.41-3.23,3.31c-1.91,1.4-2.89,3.24-3.32,5.44c-0.26,1.34,0.2,2.09,1.55,2.38c1.86,0.4,3.75,0.76,5.64,0.88
			c4.06,0.25,8.13,0.35,12.2,0.48c0.71,0.02,1.47,0.04,2.14-0.17c4-1.21,7.33,2.27,7.45,5.76c0.06,1.72-0.03,3.44-0.04,5.16
			c-0.01,30.52,0,61.04-0.02,91.56c0,0.87-0.24,1.74-0.26,2.61c-0.07,3-0.16,6-0.06,8.99c0.02,0.66,0.7,1.43,1.28,1.87
			c0.22,0.16,1.15-0.37,1.55-0.78c0.49-0.49,0.78-1.18,1.14-1.8c0.83-1.39,1.46-2.94,2.51-4.14c1.39-1.59,2.75-3.17,3.15-5.25
			c0.42-2.21,1.74-3.88,2.82-5.72c0.86-1.45,1.45-3.06,2.18-4.58c0.74-1.53,1.33-3.18,2.31-4.54c1.63-2.26,2.9-4.63,3.7-7.29
			c0.28-0.94,0.58-1.98,1.2-2.68c1.55-1.77,2.78-3.65,3.48-5.93c0.38-1.23,1.18-2.33,1.68-3.53c0.72-1.72,1.69-3.43,1.93-5.23
			c0.37-2.71,0.25-5.49,0.25-8.23c0.01-24.52,0-49.04,0.03-73.56c0-2.59,0.21-5.19,0.39-7.77c0.13-1.98-0.87-3.65-2.74-4.1
			c-1.31-0.31-2.66-0.56-4-0.58C129.97,230.82,125.85,230.86,121.73,230.86z M190.68,299.66c0.1-0.01,0.21-0.01,0.31-0.02
			c-0.23-1.85-0.35-3.72-0.74-5.54c-0.14-0.65-0.82-1.43-1.44-1.66c-1.02-0.37-2.26-0.21-2.92,0.78c-0.68,1.01-1.2,2.17-1.57,3.34
			c-0.76,2.4-1.56,4.75-3.13,6.8c-0.76,0.99-1.29,2.18-1.83,3.32c-0.8,1.69-1.44,3.45-2.29,5.1c-0.5,0.98-1.4,1.75-1.9,2.72
			c-0.91,1.76-1.88,3.55-2.42,5.44c-0.41,1.45-1.44,2.34-2.14,3.51c-0.71,1.18-1.73,2.32-1.99,3.61c-0.51,2.49-1.78,4.47-3.26,6.41
			c-0.67,0.88-1.53,1.81-1.71,2.83c-0.49,2.75-2.09,4.88-3.46,7.15c-0.45,0.74-1.02,1.42-1.37,2.2c-1.25,2.8-2.21,5.71-4.18,8.17
			c-0.85,1.06-1.45,2.38-1.92,3.68c-0.62,1.72-1.18,3.36-2.38,4.86c-1.31,1.64-2.53,3.43-3.15,5.57c-0.43,1.49-1.28,2.87-2.03,4.26
			c-0.86,1.6-2.02,3.07-2.65,4.74c-1.06,2.81-2.61,5.31-4.14,7.86c-0.79,1.32-1.36,2.76-2.04,4.15c-0.47,0.96-0.87,1.95-1.43,2.86
			c-0.91,1.48-1.98,2.87-2.85,4.38c-0.57,0.99-0.86,2.14-1.34,3.18c-0.76,1.63-1.29,3.34-2.78,4.62c-1.6,1.38-2.14,3.41-2.15,5.51
			c-0.01,1.32,0.61,1.8,1.94,1.87c1.3,0.07,2.23-0.66,2.8-1.56c1.51-2.38,3.54-4.22,5.5-6.2c3.66-3.69,6.96-7.73,10.43-11.62
			c1.08-1.21,2.24-2.35,3.29-3.58c0.83-0.96,1.81-1.9,2.27-3.04c0.87-2.14,2.15-3.95,3.53-5.77c1.08-1.41,1.86-3.05,2.76-4.6
			c0.77-1.32,1.53-2.66,2.29-3.98c0.67-1.17,1.42-2.3,2-3.51c1.01-2.11,1.79-4.33,3.48-6.08c0.99-1.02,1.98-2.11,2.08-3.77
			c0.05-0.83,0.7-1.64,1.17-2.41c1.66-2.75,3.93-5.12,4.95-8.27c0.31-0.96,0.98-1.8,1.5-2.69c1.11-1.87,2.24-3.72,3.35-5.59
			c0.67-1.12,1.26-2.29,1.97-3.38c0.9-1.39,2-2.6,2.66-4.21c0.84-2.06,2.04-4.03,3.36-5.84c1.72-2.35,2.96-4.89,3.09-7.76
			C190.51,311.56,190.54,305.61,190.68,299.66z M564.96,393.8c-0.01,0-0.02,0-0.03,0c0-6.84,0.02-13.68-0.01-20.51
			c-0.01-2.01-0.15-2.1-2.17-2.25c-0.32-0.02-0.64-0.01-0.96,0c-1.88,0.09-3.75,0.24-5.63,0.26c-3.56,0.04-7.12-0.09-10.68,0.05
			c-1.63,0.07-3.26,0.56-4.87,0.95c-1.04,0.25-2.03,0.66-3.05,0.99c-1.27,0.41-2.38,0.98-3.15,2.2c-1.2,1.91-2.58,3.71-3.83,5.59
			c-0.34,0.52-0.62,1.15-0.68,1.76c-0.21,1.93-0.47,3.89-0.39,5.82c0.08,1.93,0.59,3.73,1.96,5.36c1.04,1.24,2.44,2.33,2.82,4.15
			c0.61,2.86,0.54,5.57-1.33,7.95c-1.23,1.57-2.64,2.99-3.95,4.49c-1.69,1.96-1.15,4.58,1.31,5.27c1.68,0.47,3.54,0.47,5.31,0.43
			c3.37-0.09,6.36-2.62,7.74-5.87c1.09-2.56,2.22-5.1,5.07-6.28c1.95-0.8,3.95-0.92,4.97,1.5c0.78,1.88,0.56,3.77,0.36,5.66
			c-0.2,1.84,0.81,4.45,3.26,4.65c2.02,0.16,4.04,0.34,6.07,0.4c1.77,0.05,1.83-0.02,1.84-1.79
			C564.98,407.64,564.96,400.72,564.96,393.8z M487.36,379.33c-0.05,0-0.09-0.01-0.14-0.01c0-0.8,0.02-1.6,0-2.4
			c-0.07-2.07-0.83-3.84-2.61-4.95c-0.82-0.51-1.85-0.68-2.79-1c-2.56-0.88-5.76,1.03-5.9,3.73c-0.12,2.38-0.24,4.77-0.25,7.16
			c-0.03,6.44,0.05,12.88-0.03,19.32c-0.04,3.39-0.31,6.77-0.47,10.16c-0.02,0.48-0.03,0.97,0.07,1.43
			c0.35,1.61,0.86,3.06,2.83,3.41c1.55,0.28,2.61-0.36,3.57-1.4c0.7-0.76,1.32-1.6,2.06-2.33c2.64-2.64,5.35-5.23,7.97-7.89
			c1.2-1.21,2.26-2.56,3.39-3.83c1.03-1.15,2.01-2.38,3.16-3.41c1.03-0.93,1.91-0.69,2.71,0.46c1.52,2.19,1.29,4.73,1.29,7.17
			c0,2.11-0.42,4.22-0.46,6.33c-0.05,2.59,1.16,4.82,3.98,5.03c1.15,0.09,2.33,0.13,3.48-0.01c3.25-0.4,5.46-2.68,4.81-6.22
			c-0.19-1.01-0.36-2.04-0.36-3.07c-0.03-8-0.02-16-0.02-24c0-0.76-0.15-1.58,0.08-2.27c0.66-1.97,0.37-3.93-0.19-5.77
			c-0.93-3.07-2.19-4.53-4.91-3.17c-0.5,0.25-0.82,0.83-1.24,1.24c-2.06,2.02-4.13,4.04-6.2,6.05c-0.74,0.72-1.65,1.31-2.2,2.15
			c-1.69,2.56-4.14,4.27-6.43,6.17c-0.76,0.63-1.48,1.34-2.32,1.83c-1.12,0.65-2.53,0.16-2.92-0.97c-0.3-0.89-0.58-1.86-0.54-2.78
			C486.84,383.43,487.15,381.38,487.36,379.33z M423.04,421.85c0,0.03,0,0.07,0,0.1c0.76,0,1.52,0.02,2.28,0
			c3.22-0.1,2.77,0.19,2.86-2.75c0.05-1.56,0.88-2.65,2.36-2.82c1.23-0.14,2.49-0.06,3.74-0.06c4.56,0,9.12,0.01,13.68-0.01
			c0.59,0,1.19-0.11,1.76-0.24c1.51-0.34,3.42,0.47,3.97,1.92c0.31,0.82,0.31,1.77,0.36,2.67c0.05,0.88,0.39,1.28,1.32,1.26
			c2.32-0.05,4.64,0.01,6.96-0.03c1.4-0.02,2.07-0.81,1.99-2.26c-0.12-2.17-0.34-4.35-0.36-6.52c-0.02-3.51-1.83-5.93-4.58-7.76
			c-1.87-1.25-3.08-2.83-3.75-5.01c-0.79-2.62-1.86-5.15-2.87-7.7c-0.26-0.65-0.82-1.18-1.09-1.83c-1.23-2.98-2.34-6-3.61-8.96
			c-1.12-2.58-2.31-5.14-3.65-7.6c-0.55-1.01-1.49-1.87-2.42-2.59c-0.78-0.61-1.8-0.55-2.49,0.28c-0.94,1.12-1.73,2.37-2.7,3.47
			c-1.85,2.1-2.84,4.59-3.45,7.26c-0.4,1.77-1.02,3.39-2.06,4.91c-2.31,3.41-3.05,7.49-4.53,11.25c-0.85,2.16-2.14,3.96-3.64,5.68
			c-1.95,2.24-4.63,4.02-4.68,7.49c-0.04,3.02-0.23,6.04-0.27,9.06c0,0.27,0.57,0.75,0.91,0.77
			C420.39,421.91,421.72,421.85,423.04,421.85z M298.13,416.85c1.16,0,2.32,0.07,3.48-0.02c1.18-0.09,2.38-0.24,3.53-0.51
			c1.65-0.4,3.33-0.74,4.66-2c0.91-0.86,1.99-1.54,3.01-2.28c0.76-0.56,1.71-0.96,2.25-1.67c1.23-1.6,2.46-3.26,3.33-5.07
			c1.42-2.96,0.65-4.33-2.59-4.82c-1.76-0.27-3.59-0.36-5.37-0.26c-1.32,0.07-2.58,0.45-3.41,1.84c-0.72,1.19-1.7,2.39-2.86,3.12
			c-2.39,1.51-5.03,1.78-7.9,1.19c-3.32-0.68-5.59-2.32-6.83-5.44c-0.38-0.96-0.91-1.85-1.27-2.82c-0.44-1.18-1.15-2.41-1.07-3.59
			c0.22-3.5,1.89-6.57,3.94-9.27c1.01-1.33,2.9-2.07,4.49-2.87c1.44-0.72,3-1.31,4.67-0.53c0.46,0.22,1,0.3,1.46,0.52
			c2.11,1.05,4.04,2.3,5.69,4.05c0.94,1,2.25,1.92,3.54,2.24c1.41,0.34,3.02,0.07,4.51-0.19c2.09-0.37,3.11-2.37,2.41-4.38
			c-0.28-0.79-0.61-1.56-0.89-2.35c-1.49-4.3-4.58-6.86-8.84-8.14c-1.21-0.37-2.48-0.57-3.65-1.04c-4.04-1.64-8.05-1.8-12.1-0.09
			c-0.83,0.35-1.74,0.53-2.63,0.74c-1.91,0.46-3.77,0.93-5.07,2.63c-0.62,0.82-1.5,1.44-2.21,2.19c-0.75,0.81-1.57,1.59-2.14,2.52
			c-1.06,1.72-1.97,3.53-2.91,5.32c-0.51,0.97-1.08,1.93-1.41,2.97c-0.26,0.82-0.04,1.78-0.28,2.6c-0.87,2.92-0.16,5.78,0.23,8.64
			c0.11,0.83,0.55,1.64,0.93,2.41c0.64,1.31,1.42,2.55,2.03,3.88c1.04,2.28,2.24,4.38,4.65,5.51c0.58,0.27,1.03,0.82,1.56,1.21
			c1.14,0.84,2.19,1.92,3.46,2.44C291.57,416.77,294.86,416.9,298.13,416.85z M386.18,400.05c0.05,3.21-0.46,5.98-2.42,8.33
			c-0.66,0.79-1.28,1.63-1.8,2.51c-1.38,2.33-0.56,4.28,2,5.08c1.83,0.57,3.59,0.3,5.42,0.03c3.31-0.49,5.56-2.55,6.45-5.67
			c0.58-2.04,1.47-4.06,2.59-5.86c1.24-2,2.63-3.88,3.21-6.2c0.52-2.09,1.42-4.01,2.87-5.6c1.1-1.21,1.48-2.64,2.02-4.1
			c0.86-2.32,1.73-4.66,3.43-6.62c1.87-2.16,2.71-4.77,2.23-7.68c-0.28-1.69-1.31-2.74-2.98-2.98c-1.18-0.17-2.38-0.25-3.57-0.27
			c-1.37-0.03-2.44,0.59-3.27,1.69c-0.81,1.08-1.75,2.07-2.5,3.19c-0.86,1.27-1.6,2.63-2.33,3.98c-0.62,1.16-1.03,2.43-1.7,3.55
			c-1.23,2.07-3.44,1.98-4.63-0.13c-0.22-0.38-0.36-0.8-0.54-1.2c-0.7-1.6-1.27-3.26-2.12-4.77c-0.75-1.34-1.68-2.64-2.78-3.7
			c-1.08-1.05-2.08-2.56-3.79-2.51c-1.97,0.05-3.95,0.37-5.89,0.73c-0.47,0.09-1.04,0.77-1.18,1.28c-0.7,2.7-0.25,5.14,1.76,7.24
			c0.87,0.91,1.75,1.9,2.27,3.02c1.03,2.23,1.79,4.59,2.73,6.87c0.23,0.57,0.66,1.1,1.09,1.55
			C384.97,394.22,386.51,396.88,386.18,400.05z M346.02,371.27c-3.32,0-6.64-0.09-9.96,0.04c-1.35,0.05-2.93,0.25-3.96,1
			c-1.35,0.98-2.12,2.55-1.91,4.49c0.22,2.07,1.5,3.56,3.54,4.1c1.63,0.43,3.16,1.22,4.72,1.87c0.17,0.07,0.34,0.22,0.45,0.38
			c1.01,1.49,1.96,2.97,1.94,4.91c-0.06,6.88-0.05,13.76-0.08,20.63c0,0.47-0.06,0.96-0.2,1.41c-0.77,2.54,0.68,5.08,3.24,5.79
			c1.34,0.37,2.61,0.39,3.97,0.03c2.18-0.57,3.72-2.69,3.49-4.93c-0.19-1.9-0.35-3.82-0.37-5.73c-0.05-4.48-0.02-8.96-0.02-13.44
			c0-1.59-0.15-3.2,0.05-4.76c0.22-1.71,0.86-3.44,2.41-4.33c1.46-0.84,3.13-1.36,4.76-1.87c1.99-0.62,3.32-1.8,3.42-3.92
			c0.08-1.58-0.22-3.08-1.57-4.29c-1.26-1.12-2.7-1.35-4.21-1.37C352.49,371.23,349.25,371.27,346.02,371.27z"/>
		<path d="M469.03,289.63c0-15.16,0-30.32,0-45.48c0-2.89-0.04-5.79-0.08-8.68c-0.05-3.25,1.25-4.19,4.33-4.53
			c2.85-0.32,5.75-0.08,8.63-0.09c3.64-0.01,7.28,0.04,10.92-0.04c1.4-0.03,2.61,0.41,3.7,1.15c0.91,0.61,1.53,1.46,1.52,2.69
			C498,244.77,498,254.89,497.94,265c-0.01,1.14-0.4,2.28-0.43,3.42c-0.09,2.76,1.17,4.18,3.94,4.39c4.8,0.36,9.46-0.24,13.56-2.94
			c2.81-1.86,5.54-3.9,7.45-6.76c0.5-0.75,0.69-1.69,1.04-2.53c0.93-2.2,2.04-4.34,2.75-6.6c0.59-1.88,0.91-3.9,0.99-5.87
			c0.15-3.75,0.05-7.5,0.05-11.26c0-0.48-0.03-0.96-0.04-1.44c-0.03-2.79,1.44-4.47,4.27-4.51c6.84-0.09,13.68-0.09,20.52-0.03
			c2.17,0.02,4.5,2.05,4.32,4.65c-0.3,4.17-0.12,8.39-0.63,12.52c-0.45,3.64-0.75,7.27-1.01,10.92c-0.17,2.29-0.83,4.55-1.9,6.73
			c-1.24,2.53-2.52,5.1-3.15,7.93c-0.27,1.23-1.3,2.36-2.16,3.39c-1.39,1.69-2.88,3.3-4.39,4.89c-0.65,0.69-1.4,1.29-2.17,1.85
			c-2.44,1.79-4.38,3.89-4.31,7.15c0.02,0.72,0.24,1.53,0.63,2.13c1.71,2.58,3.55,5.08,5.29,7.64c0.67,0.98,1.22,2.05,1.8,3.09
			c1.95,3.54,4.63,6.66,6.04,10.53c0.39,1.07,1.27,2.04,2.13,2.85c1.28,1.2,1.89,2.61,2.47,4.24c0.58,1.63,1.9,2.99,2.84,4.5
			c1.03,1.68,2.25,3.31,2.91,5.14c0.62,1.7,1.79,2.49,3.25,3.02c0.67,0.25,0.89,0.56,0.89,1.18c0,1.92,0,3.84,0.03,5.76
			c0.01,0.7-0.29,1.04-0.98,1.06c-1.15,0.04-2.31,0.12-3.46,0.11c-7.4-0.04-14.79-0.17-22.19-0.12c-3.04,0.02-5.01-1.38-6.77-3.68
			c-1.72-2.25-2.74-4.8-3.91-7.31c-0.77-1.66-2.05-3.09-3.07-4.64c-0.3-0.46-0.61-0.94-0.77-1.46c-0.82-2.75-2.52-4.93-4.25-7.14
			c-0.66-0.85-0.92-2-1.46-2.96c-1.11-1.96-2.34-3.86-3.43-5.83c-0.94-1.7-1.78-3.46-2.6-5.22c-0.91-1.96-2.34-3.43-4.44-3.8
			c-1.97-0.36-4.07-0.58-6.03-0.32c-3.29,0.44-4.75,3.12-3.99,6.52c0.22,0.96,0.35,1.96,0.35,2.95c0.05,9.36,0.07,18.72,0.1,28.08
			c0.01,2.79-1.69,4.73-4.51,4.76c-6.56,0.08-13.12,0.03-19.68-0.02c-0.86-0.01-1.78-0.19-2.55-0.55c-1.71-0.8-2.39-2.18-2.38-4.16
			c0.06-15.88,0.03-31.76,0.03-47.63C468.98,289.63,469.01,289.63,469.03,289.63z"/>
		<path d="M439.27,342.12c-3.59-0.12-7.19-0.25-10.78-0.36c-3.19-0.1-5.24-2.81-5.8-5.49c-1.13-5.46-3.42-7.51-8.5-9.27
			c-0.65-0.23-1.43-0.11-2.15-0.1c-8.44,0.07-16.87,0.15-25.31,0.22c-1.16,0.01-2.31,0-3.47-0.04c-1.28-0.05-2.56-0.11-3.83-0.23
			c-1.98-0.19-3.33,0.98-4.35,2.33c-1.53,2.02-2.8,4.25-4.1,6.43c-0.36,0.6-0.38,1.38-0.67,2.03c-0.39,0.89-0.86,1.76-1.35,2.61
			c-0.88,1.52-2.39,1.77-3.94,1.78c-6.24,0.02-12.48,0.04-18.72-0.05c-1.29-0.02-2.63-0.32-3.85-0.77
			c-1.58-0.58-2.07-1.98-1.43-3.52c0.69-1.65,1.49-3.25,2.15-4.9c0.5-1.24,0.73-2.6,1.29-3.81c1.17-2.52,2.5-4.97,3.71-7.47
			c1.33-2.75,2.65-5.5,3.88-8.3c0.82-1.85,1.6-3.73,2.16-5.67c0.62-2.13,1.84-3.83,3.08-5.6c0.76-1.08,1.38-2.34,1.73-3.62
			c0.73-2.69,1.78-5.18,3.42-7.44c0.46-0.63,0.74-1.39,1.05-2.11c0.94-2.19,1.45-4.72,2.88-6.52c1.9-2.41,2.77-5.13,3.45-7.9
			c0.57-2.32,2.08-3.96,3.07-5.96c0.91-1.84,1.61-3.78,2.45-5.65c0.37-0.82,0.86-1.59,1.28-2.39c1.18-2.24,2.23-4.52,2.92-6.99
			c0.51-1.82,1.34-3.63,2.4-5.19c1.96-2.88,3.34-5.94,4.11-9.33c0.66-2.94,2.37-5.26,4.61-7.2c2.86-2.47,7.13-2.93,10.35-1.14
			c2.9,1.62,5.03,3.79,5.76,7.21c0.37,1.74,1.15,3.39,1.82,5.06c0.17,0.42,0.63,0.72,0.87,1.13c0.57,0.99,1.18,1.96,1.6,3.02
			c0.91,2.29,1.66,4.64,2.6,6.92c0.25,0.62,0.99,1.01,1.4,1.59c1.34,1.86,2.29,3.9,2.66,6.19c0.25,1.54,0.96,2.83,1.94,4.02
			c1.79,2.17,2.32,4.94,3.42,7.44c0.54,1.23,1.34,2.33,1.94,3.53c0.62,1.23,1.2,2.48,1.71,3.76c0.89,2.25,1.58,4.59,2.6,6.79
			c0.71,1.53,1.81,2.87,2.73,4.31c0.26,0.4,0.53,0.81,0.7,1.25c0.91,2.45,1.73,4.94,2.7,7.36c0.44,1.09,1.27,2.03,1.76,3.11
			c0.94,2.1,1.74,4.26,2.65,6.37c0.34,0.8,0.71,1.63,1.27,2.28c1.96,2.26,2.48,5.1,3.34,7.82c0.34,1.08,0.61,2.31,1.3,3.14
			c2.05,2.41,2.95,5.32,4.11,8.15c0.69,1.67,1.91,3.13,2.68,4.78c0.48,1.04,0.87,2.28,0.78,3.39c-0.15,1.69-1.38,2.55-3.18,2.66
			c-1.83,0.11-3.67,0.19-5.51,0.23c-1.8,0.04-3.6,0.01-5.4,0.01C439.27,342.04,439.27,342.08,439.27,342.12z M402.02,303.84
			c0,0.08,0,0.16,0,0.24c0.52-0.03,1.04-0.01,1.55-0.09c0.75-0.12,1.5-0.25,2.22-0.47c1.73-0.52,2.34-2.04,1.71-3.74
			c-0.49-1.34-0.79-2.75-1.2-4.12c-0.26-0.87-0.38-1.91-0.93-2.54c-2-2.25-3.16-4.82-3.76-7.74c-0.26-1.27-0.78-2.52-1.35-3.69
			c-0.92-1.91-2.28-2.7-3.63-1.96c-1.27,0.7-2.59,1.59-3.42,2.73c-1.43,1.96-2.45,4.18-2.6,6.71c-0.05,0.81-0.38,1.64-0.74,2.39
			c-0.91,1.86-1.83,3.71-2.89,5.48c-0.72,1.2-0.87,2.45-0.9,3.78c-0.05,2.14,0.72,3.3,3.37,3.28c1.72-0.01,3.43-0.22,5.14-0.26
			C397.07,303.8,399.55,303.84,402.02,303.84z"/>
		<path d="M242.6,312.49c0,25.67-0.03,51.35,0.04,77.02c0.01,3.01-1.54,4.87-3.66,6.54c-0.31,0.24-0.61,0.5-0.86,0.8
			c-0.76,0.91-1.44,1.91-2.26,2.76c-2.54,2.63-5.17,5.19-7.71,7.82c-1.82,1.89-3.58,3.85-5.33,5.81c-0.41,0.46-0.69,1.07-0.95,1.64
			c-0.94,2.06-2.95,2.84-5.03,1.99c-1.31-0.53-1.24-1.77-1.49-2.8c-0.18-0.76-0.09-1.59-0.09-2.39
			c0.02-46.71,0.04-93.42,0.07-140.13c0-1.15,0.23-2.29,0.31-3.44c0.25-3.22-0.41-4.77-3.19-6.12c-0.34-0.16-0.78-0.15-1.17-0.16
			c-7.38-0.18-14.76-0.37-22.15-0.52c-2.4-0.05-4.8,0.07-7.2,0.04c-1.5-0.02-2.35-0.67-2.45-2.07c-0.06-0.81,0.24-1.78,0.69-2.46
			c1.14-1.72,2.37-3.4,3.73-4.95c1.68-1.92,3.56-3.65,5.28-5.54c2.65-2.91,5.21-5.89,7.84-8.81c1.54-1.72,3.07-3.44,4.7-5.07
			c1.04-1.03,2.37-1.59,3.88-1.59c10.16-0.01,20.32-0.03,30.47-0.05c0.88,0,1.76-0.09,2.63-0.1c1.96-0.02,3.57,0.75,3.89,3.05
			c0.07,0.51,0.08,1.04,0.08,1.56c0,25.71,0,51.43,0,77.14C242.65,312.49,242.63,312.49,242.6,312.49z"/>
		<path d="M316.59,297.42c0,11.6-0.01,23.2,0.01,34.79c0,1.64,0.19,3.27,0.22,4.91c0.06,3.84-1.2,4.96-4.99,4.9
			c-5.44-0.09-10.88-0.02-16.32-0.03c-0.76,0-1.52,0.02-2.28-0.05c-2.85-0.26-4.29-1.85-4.28-4.69c0.03-22.64,0.04-45.27,0.1-67.91
			c0.01-2.5,0.3-5,0.38-7.51c0.06-1.61-0.47-3.01-1.67-4.19c-1.22-1.19-2.73-1.29-4.22-1.3c-5.16-0.06-10.32,0.05-15.48-0.04
			c-1.48-0.03-2.99-0.38-4.42-0.83c-1.34-0.42-2.11-1.42-2.1-2.99c0.01-1.5-0.3-3-0.33-4.5c-0.02-0.98,0.36-1.97,0.32-2.94
			c-0.11-2.86-0.24-5.73-0.53-8.57c-0.3-2.86,0.72-4.58,3.53-5.12c1.7-0.32,3.46-0.49,5.2-0.5c23.12-0.03,46.23,0,69.35-0.05
			c2.83-0.01,4.48,1.73,4.38,4.41c-0.18,5.23-0.16,10.46-0.29,15.69c-0.04,1.55-0.14,3.11-1.39,4.33c-1.25,1.22-2.65,1.69-4.37,1.27
			c-0.5-0.12-1.03-0.18-1.54-0.19c-5.04-0.03-10.08,0.04-15.12-0.1c-2.58-0.07-3.72,1.57-4.16,3.87c-0.11,0.58-0.08,1.2-0.08,1.8
			c0,11.84,0,23.68,0,35.51C316.54,297.42,316.56,297.42,316.59,297.42z"/>
		<path d="M121.73,230.86c4.12,0,8.24-0.05,12.36,0.03c1.34,0.02,2.69,0.26,4,0.58c1.87,0.45,2.87,2.12,2.74,4.1
			c-0.18,2.59-0.38,5.18-0.39,7.77c-0.03,24.52-0.01,49.04-0.03,73.56c0,2.75,0.11,5.53-0.25,8.23c-0.24,1.8-1.21,3.51-1.93,5.23
			c-0.5,1.2-1.3,2.3-1.68,3.53c-0.7,2.27-1.93,4.16-3.48,5.93c-0.62,0.71-0.92,1.75-1.2,2.68c-0.8,2.66-2.07,5.04-3.7,7.29
			c-0.98,1.36-1.57,3.01-2.31,4.54c-0.74,1.52-1.33,3.13-2.18,4.58c-1.09,1.84-2.4,3.51-2.82,5.72c-0.39,2.08-1.76,3.66-3.15,5.25
			c-1.05,1.2-1.68,2.75-2.51,4.14c-0.36,0.61-0.65,1.31-1.14,1.8c-0.41,0.41-1.34,0.94-1.55,0.78c-0.58-0.44-1.26-1.21-1.28-1.87
			c-0.1-2.99-0.01-5.99,0.06-8.99c0.02-0.87,0.26-1.74,0.26-2.61c0.02-30.52,0.02-61.04,0.02-91.56c0-1.72,0.1-3.44,0.04-5.16
			c-0.12-3.49-3.45-6.97-7.45-5.76c-0.67,0.2-1.42,0.19-2.14,0.17c-4.07-0.13-8.14-0.23-12.2-0.48c-1.89-0.12-3.78-0.48-5.64-0.88
			c-1.36-0.29-1.81-1.05-1.55-2.38c0.43-2.21,1.41-4.05,3.32-5.44c1.23-0.9,2.15-2.2,3.23-3.31c0.8-0.83,1.64-1.62,2.45-2.44
			c1.41-1.45,2.81-2.9,4.21-4.36c2.7-2.82,5.42-5.62,8.1-8.46c1.43-1.52,3.14-2.22,5.21-2.2c4.2,0.03,8.4,0.01,12.6,0.01
			C121.73,230.86,121.73,230.86,121.73,230.86z"/>
		<path d="M190.68,299.66c-0.13,5.95-0.17,11.91-0.44,17.85c-0.13,2.87-1.37,5.4-3.09,7.76c-1.32,1.81-2.52,3.77-3.36,5.84
			c-0.66,1.61-1.75,2.82-2.66,4.21c-0.71,1.09-1.31,2.26-1.97,3.38c-1.11,1.87-2.24,3.72-3.35,5.59c-0.53,0.88-1.2,1.73-1.5,2.69
			c-1.01,3.15-3.28,5.52-4.95,8.27c-0.47,0.77-1.12,1.58-1.17,2.41c-0.1,1.66-1.09,2.75-2.08,3.77c-1.7,1.76-2.47,3.97-3.48,6.08
			c-0.58,1.21-1.33,2.34-2,3.51c-0.76,1.33-1.52,2.66-2.29,3.98c-0.9,1.54-1.68,3.19-2.76,4.6c-1.39,1.81-2.66,3.62-3.53,5.77
			c-0.46,1.13-1.44,2.08-2.27,3.04c-1.06,1.23-2.22,2.37-3.29,3.58c-3.47,3.88-6.77,7.93-10.43,11.62c-1.96,1.98-3.99,3.82-5.5,6.2
			c-0.57,0.9-1.49,1.63-2.8,1.56c-1.33-0.07-1.95-0.55-1.94-1.87c0.01-2.1,0.55-4.13,2.15-5.51c1.49-1.28,2.02-2.99,2.78-4.62
			c0.49-1.04,0.77-2.19,1.34-3.18c0.87-1.51,1.94-2.89,2.85-4.38c0.55-0.91,0.96-1.9,1.43-2.86c0.67-1.39,1.24-2.83,2.04-4.15
			c1.53-2.54,3.08-5.05,4.14-7.86c0.63-1.68,1.8-3.14,2.65-4.74c0.74-1.39,1.6-2.77,2.03-4.26c0.61-2.14,1.84-3.93,3.15-5.57
			c1.2-1.5,1.76-3.14,2.38-4.86c0.47-1.29,1.07-2.61,1.92-3.68c1.97-2.46,2.93-5.37,4.18-8.17c0.35-0.78,0.92-1.46,1.37-2.2
			c1.37-2.27,2.98-4.4,3.46-7.15c0.18-1.02,1.04-1.95,1.71-2.83c1.49-1.94,2.75-3.92,3.26-6.41c0.26-1.29,1.28-2.42,1.99-3.61
			c0.7-1.17,1.73-2.07,2.14-3.51c0.54-1.89,1.5-3.68,2.42-5.44c0.5-0.97,1.4-1.75,1.9-2.72c0.85-1.66,1.49-3.42,2.29-5.1
			c0.54-1.14,1.07-2.33,1.83-3.32c1.57-2.05,2.37-4.39,3.13-6.8c0.37-1.16,0.89-2.33,1.57-3.34c0.67-0.99,1.9-1.15,2.92-0.78
			c0.62,0.23,1.3,1.01,1.44,1.66c0.39,1.82,0.51,3.69,0.74,5.54C190.89,299.64,190.78,299.65,190.68,299.66z"/>
		<path d="M564.96,393.8c0,6.92,0.01,13.84-0.01,20.75c-0.01,1.77-0.06,1.84-1.84,1.79c-2.02-0.05-4.05-0.24-6.07-0.4
			c-2.45-0.2-3.46-2.81-3.26-4.65c0.21-1.89,0.43-3.79-0.36-5.66c-1.01-2.42-3.02-2.3-4.97-1.5c-2.86,1.18-3.99,3.73-5.07,6.28
			c-1.38,3.26-4.37,5.78-7.74,5.87c-1.77,0.05-3.63,0.04-5.31-0.43c-2.46-0.68-3-3.31-1.31-5.27c1.31-1.51,2.72-2.93,3.95-4.49
			c1.87-2.38,1.93-5.09,1.33-7.95c-0.38-1.82-1.78-2.91-2.82-4.15c-1.38-1.63-1.88-3.43-1.96-5.36c-0.08-1.93,0.18-3.89,0.39-5.82
			c0.06-0.61,0.34-1.24,0.68-1.76c1.25-1.88,2.63-3.68,3.83-5.59c0.77-1.22,1.88-1.79,3.15-2.2c1.02-0.33,2.01-0.74,3.05-0.99
			c1.61-0.39,3.23-0.88,4.87-0.95c3.55-0.14,7.12-0.01,10.68-0.05c1.88-0.02,3.75-0.17,5.63-0.26c0.32-0.01,0.64-0.02,0.96,0
			c2.02,0.15,2.16,0.24,2.17,2.25c0.03,6.84,0.01,13.68,0.01,20.51C564.95,393.8,564.96,393.8,564.96,393.8z M553.93,387.08
			c0.07-1.99-0.54-3.67-2.07-4.69c-2.53-1.69-5.23-1.2-7.68,0.22c-0.98,0.57-1.85,1.62-2.33,2.66c-0.62,1.35-0.59,2.87,0.45,4.17
			c0.98,1.22,2.12,2.12,3.63,2.73C549.59,393.68,554.01,391.57,553.93,387.08z"/>
		<path d="M487.36,379.33c-0.22,2.05-0.52,4.1-0.61,6.16c-0.04,0.92,0.23,1.89,0.54,2.78c0.39,1.13,1.8,1.61,2.92,0.97
			c0.84-0.49,1.56-1.2,2.32-1.83c2.29-1.9,4.74-3.61,6.43-6.17c0.55-0.84,1.47-1.43,2.2-2.15c2.07-2.01,4.13-4.03,6.2-6.05
			c0.42-0.41,0.75-0.99,1.24-1.24c2.72-1.36,3.98,0.09,4.91,3.17c0.56,1.85,0.85,3.8,0.19,5.77c-0.23,0.69-0.08,1.51-0.08,2.27
			c0,8-0.01,16,0.02,24c0,1.02,0.18,2.06,0.36,3.07c0.65,3.54-1.56,5.82-4.81,6.22c-1.14,0.14-2.32,0.1-3.48,0.01
			c-2.82-0.21-4.03-2.44-3.98-5.03c0.04-2.11,0.45-4.22,0.46-6.33c0-2.44,0.24-4.98-1.29-7.17c-0.8-1.15-1.68-1.39-2.71-0.46
			c-1.15,1.03-2.12,2.25-3.16,3.41c-1.14,1.27-2.2,2.62-3.39,3.83c-2.62,2.66-5.33,5.24-7.97,7.89c-0.73,0.73-1.35,1.57-2.06,2.33
			c-0.96,1.04-2.03,1.68-3.57,1.4c-1.97-0.36-2.48-1.8-2.83-3.41c-0.1-0.46-0.09-0.96-0.07-1.43c0.15-3.39,0.43-6.77,0.47-10.16
			c0.08-6.44,0-12.88,0.03-19.32c0.01-2.39,0.13-4.77,0.25-7.16c0.14-2.69,3.34-4.61,5.9-3.73c0.94,0.32,1.97,0.49,2.79,1
			c1.78,1.11,2.54,2.89,2.61,4.95c0.03,0.8,0,1.6,0,2.4C487.27,379.32,487.32,379.32,487.36,379.33z"/>
		<path d="M423.04,421.85c-1.32,0-2.64,0.05-3.95-0.04c-0.33-0.02-0.91-0.51-0.91-0.77c0.04-3.02,0.23-6.04,0.27-9.06
			c0.05-3.47,2.73-5.25,4.68-7.49c1.5-1.72,2.79-3.52,3.64-5.68c1.48-3.76,2.22-7.84,4.53-11.25c1.03-1.53,1.66-3.15,2.06-4.91
			c0.6-2.67,1.59-5.16,3.45-7.26c0.97-1.1,1.76-2.35,2.7-3.47c0.7-0.83,1.72-0.88,2.49-0.28c0.93,0.72,1.87,1.58,2.42,2.59
			c1.34,2.47,2.54,5.02,3.65,7.6c1.28,2.95,2.39,5.98,3.61,8.96c0.27,0.65,0.83,1.18,1.09,1.83c1.01,2.55,2.08,5.08,2.87,7.7
			c0.66,2.19,1.88,3.77,3.75,5.01c2.75,1.83,4.55,4.26,4.58,7.76c0.02,2.17,0.24,4.35,0.36,6.52c0.08,1.45-0.59,2.24-1.99,2.26
			c-2.32,0.03-4.64-0.02-6.96,0.03c-0.93,0.02-1.27-0.38-1.32-1.26c-0.05-0.9-0.05-1.85-0.36-2.67c-0.55-1.45-2.47-2.26-3.97-1.92
			c-0.58,0.13-1.17,0.24-1.76,0.24c-4.56,0.02-9.12,0.01-13.68,0.01c-1.25,0-2.51-0.08-3.74,0.06c-1.48,0.17-2.31,1.26-2.36,2.82
			c-0.09,2.95,0.36,2.65-2.86,2.75c-0.76,0.02-1.52,0-2.28,0C423.04,421.92,423.04,421.89,423.04,421.85z M445.74,402.14
			c-0.1-0.38-0.19-0.9-0.37-1.37c-0.74-1.93-1.61-3.81-2.23-5.78c-0.35-1.13-1.1-1.61-2.04-1.72c-0.93-0.1-1.59,0.54-2.02,1.41
			c-1,2.03-2.05,4.03-3.07,6.05c-0.16,0.32-0.27,0.67-0.39,1c-0.39,1.07,0.07,2.37,1.09,2.86c2.36,1.12,4.81,1.09,7.23,0.3
			C445.1,404.51,445.57,403.47,445.74,402.14z"/>
		<path d="M298.13,416.85c-3.27,0.05-6.56-0.08-9.62-1.32c-1.28-0.52-2.32-1.6-3.46-2.44c-0.53-0.39-0.98-0.94-1.56-1.21
			c-2.41-1.13-3.61-3.23-4.65-5.51c-0.61-1.32-1.38-2.57-2.03-3.88c-0.38-0.77-0.82-1.58-0.93-2.41c-0.39-2.86-1.1-5.72-0.23-8.64
			c0.25-0.82,0.03-1.79,0.28-2.6c0.33-1.03,0.9-2,1.41-2.97c0.94-1.79,1.86-3.6,2.91-5.32c0.57-0.93,1.39-1.72,2.14-2.52
			c0.71-0.76,1.58-1.38,2.21-2.19c1.3-1.69,3.16-2.17,5.07-2.63c0.89-0.21,1.8-0.39,2.63-0.74c4.06-1.71,8.07-1.54,12.1,0.09
			c1.17,0.47,2.44,0.67,3.65,1.04c4.26,1.29,7.35,3.85,8.84,8.14c0.27,0.79,0.61,1.56,0.89,2.35c0.71,2.02-0.31,4.02-2.41,4.38
			c-1.48,0.26-3.1,0.53-4.51,0.19c-1.3-0.31-2.6-1.24-3.54-2.24c-1.65-1.75-3.58-3-5.69-4.05c-0.46-0.23-0.99-0.31-1.46-0.52
			c-1.67-0.78-3.23-0.19-4.67,0.53c-1.59,0.8-3.48,1.54-4.49,2.87c-2.05,2.7-3.72,5.77-3.94,9.27c-0.07,1.17,0.64,2.41,1.07,3.59
			c0.36,0.96,0.89,1.86,1.27,2.82c1.24,3.13,3.51,4.76,6.83,5.44c2.87,0.59,5.51,0.32,7.9-1.19c1.16-0.73,2.14-1.93,2.86-3.12
			c0.83-1.38,2.09-1.77,3.41-1.84c1.78-0.09,3.6-0.01,5.37,0.26c3.24,0.5,4.01,1.87,2.59,4.82c-0.87,1.81-2.1,3.47-3.33,5.07
			c-0.55,0.71-1.5,1.11-2.25,1.67c-1.01,0.75-2.1,1.42-3.01,2.28c-1.33,1.25-3.01,1.6-4.66,2c-1.15,0.28-2.35,0.43-3.53,0.51
			C300.45,416.92,299.29,416.85,298.13,416.85z"/>
		<path d="M386.18,400.05c0.33-3.17-1.21-5.83-3.44-8.22c-0.43-0.46-0.85-0.98-1.09-1.55c-0.94-2.28-1.69-4.64-2.73-6.87
			c-0.52-1.12-1.4-2.11-2.27-3.02c-2.01-2.1-2.46-4.54-1.76-7.24c0.13-0.51,0.71-1.2,1.18-1.28c1.94-0.37,3.92-0.68,5.89-0.73
			c1.72-0.05,2.71,1.46,3.79,2.51c1.1,1.06,2.02,2.36,2.78,3.7c0.85,1.51,1.42,3.18,2.12,4.77c0.17,0.4,0.32,0.82,0.54,1.2
			c1.19,2.1,3.4,2.19,4.63,0.13c0.67-1.12,1.09-2.39,1.7-3.55c0.72-1.36,1.47-2.71,2.33-3.98c0.75-1.12,1.69-2.11,2.5-3.19
			c0.83-1.1,1.9-1.72,3.27-1.69c1.19,0.03,2.39,0.1,3.57,0.27c1.67,0.24,2.7,1.29,2.98,2.98c0.48,2.91-0.37,5.52-2.23,7.68
			c-1.69,1.96-2.57,4.3-3.43,6.62c-0.54,1.46-0.92,2.89-2.02,4.1c-1.44,1.58-2.35,3.51-2.87,5.6c-0.58,2.32-1.97,4.21-3.21,6.2
			c-1.12,1.8-2.01,3.82-2.59,5.86c-0.89,3.11-3.14,5.18-6.45,5.67c-1.83,0.27-3.59,0.54-5.42-0.03c-2.56-0.8-3.38-2.75-2-5.08
			c0.52-0.88,1.14-1.72,1.8-2.51C385.72,406.03,386.23,403.26,386.18,400.05z"/>
		<path d="M346.02,371.27c3.24,0,6.48-0.04,9.72,0.02c1.51,0.03,2.95,0.25,4.21,1.37c1.35,1.2,1.65,2.7,1.57,4.29
			c-0.1,2.12-1.43,3.3-3.42,3.92c-1.63,0.51-3.3,1.03-4.76,1.87c-1.56,0.9-2.2,2.63-2.41,4.33c-0.2,1.56-0.05,3.17-0.05,4.76
			c0,4.48-0.03,8.96,0.02,13.44c0.02,1.91,0.18,3.83,0.37,5.73c0.23,2.24-1.31,4.36-3.49,4.93c-1.37,0.36-2.63,0.34-3.97-0.03
			c-2.56-0.7-4-3.25-3.24-5.79c0.14-0.45,0.19-0.94,0.2-1.41c0.03-6.88,0.01-13.76,0.08-20.63c0.02-1.94-0.93-3.42-1.94-4.91
			c-0.11-0.16-0.28-0.31-0.45-0.38c-1.57-0.65-3.1-1.44-4.72-1.87c-2.04-0.54-3.32-2.03-3.54-4.1c-0.21-1.94,0.56-3.51,1.91-4.49
			c1.03-0.75,2.61-0.94,3.96-1C339.37,371.18,342.7,371.27,346.02,371.27z"/>
		<path class="st0" d="M402.02,303.84c-2.48,0-4.95-0.03-7.42,0.01c-1.72,0.03-3.43,0.24-5.14,0.26c-2.65,0.02-3.42-1.14-3.37-3.28
			c0.03-1.34,0.18-2.58,0.9-3.78c1.06-1.77,1.98-3.63,2.89-5.48c0.36-0.74,0.69-1.58,0.74-2.39c0.15-2.53,1.17-4.76,2.6-6.71
			c0.84-1.14,2.15-2.04,3.42-2.73c1.35-0.74,2.71,0.04,3.63,1.96c0.57,1.18,1.09,2.42,1.35,3.69c0.6,2.92,1.76,5.49,3.76,7.74
			c0.56,0.63,0.67,1.67,0.93,2.54c0.42,1.37,0.71,2.78,1.2,4.12c0.63,1.7,0.01,3.22-1.71,3.74c-0.72,0.22-1.47,0.36-2.22,0.47
			c-0.51,0.08-1.04,0.06-1.55,0.09C402.02,303.99,402.02,303.91,402.02,303.84z"/>
		<path class="st0" d="M553.93,387.08c0.08,4.5-4.34,6.6-8,5.1c-1.5-0.61-2.65-1.51-3.63-2.73c-1.04-1.3-1.07-2.82-0.45-4.17
			c0.47-1.04,1.35-2.09,2.33-2.66c2.45-1.43,5.15-1.92,7.68-0.22C553.39,383.41,554,385.09,553.93,387.08z"/>
		<path class="st0" d="M445.74,402.14c-0.17,1.32-0.65,2.37-1.81,2.75c-2.42,0.79-4.87,0.81-7.23-0.3
			c-1.02-0.48-1.48-1.79-1.09-2.86c0.12-0.34,0.23-0.68,0.39-1c1.02-2.02,2.07-4.02,3.07-6.05c0.43-0.87,1.09-1.51,2.02-1.41
			c0.95,0.1,1.69,0.59,2.04,1.72c0.61,1.97,1.49,3.85,2.23,5.78C445.55,401.25,445.64,401.76,445.74,402.14z"/>
	</g>
</g>
</svg>
